<svg width="28" height="47" viewBox="0 0 28 47" fill="none" xmlns="http://www.w3.org/2000/svg">
    <path d="M26.7327 45.437L1.44239 30.5935L18.2441 30.708L18.2577 30.6841L18.2646 30.6961L26.7324 45.389L26.7327 45.437Z" fill="black"/>
    <path d="M1.26688 1.24998L26.5571 16.0935L18.2577 30.6841L1.26688 1.24998Z" fill="#F1EFED"/>
    <path d="M1.44239 30.5935L1.26688 1.24998L18.2577 30.6841L18.2441 30.708L1.44239 30.5935Z" fill="#F1EFED"/>
    <path d="M18.2646 30.6961L18.2577 30.6841L26.5571 16.0935L26.7324 45.389L18.2646 30.6961Z" fill="#F1EFED"/>
    <path d="M26.5571 16.0935L1.26688 1.24998M26.5571 16.0935L26.7324 45.389M26.5571 16.0935L18.2577 30.6841M1.26688 1.24998L1.44239 30.5935M1.26688 1.24998L18.2577 30.6841M1.44239 30.5935L26.7327 45.437L26.7324 45.389M1.44239 30.5935L18.2441 30.708L18.2577 30.6841M26.7532 45.4251L26.7324 45.389M18.2577 30.6841L18.2646 30.6961L26.7324 45.389" stroke="black" stroke-width="2" stroke-miterlimit="10" stroke-linecap="round" stroke-linejoin="round"/>
</svg>
