<svg width="31" height="51" viewBox="0 0 31 51" fill="none" xmlns="http://www.w3.org/2000/svg">
<path d="M23.5824 49.9519L1.68225 30.4268L18.1421 33.8459L18.1601 33.8251L18.1645 33.8383L23.5915 49.9048L23.5824 49.9519Z" fill="black"/>
<path d="M7.2614 1.63391L29.1615 21.159L18.1601 33.8251L7.2614 1.63391Z" fill="#F1EFED"/>
<path d="M1.68225 30.4268L7.2614 1.63391L18.1601 33.8251L18.1421 33.8459L1.68225 30.4268Z" fill="#F1EFED"/>
<path d="M18.1645 33.8383L18.1601 33.8251L29.1615 21.159L23.5915 49.9048L18.1645 33.8383Z" fill="#F1EFED"/>
<path d="M29.1615 21.159L29.827 20.4129C30.0902 20.6475 30.2104 21.0034 30.1434 21.3495L29.1615 21.159ZM7.2614 1.63391L6.27951 1.4434C6.34791 1.09043 6.60063 0.801419 6.94138 0.686494C7.28214 0.571569 7.65844 0.64843 7.92692 0.88779L7.2614 1.63391ZM1.68225 30.4268L1.01673 31.1729C0.753509 30.9383 0.633303 30.5824 0.70036 30.2363L1.68225 30.4268ZM23.5824 49.9519L24.5643 50.1424C24.4959 50.4953 24.2432 50.7843 23.9024 50.8993C23.5616 51.0142 23.1853 50.9373 22.9169 50.698L23.5824 49.9519ZM18.1421 33.8459L18.8973 34.5016C18.66 34.7748 18.2934 34.8985 17.9389 34.8248L18.1421 33.8459ZM18.1645 33.8383L19.1119 33.5181L19.1121 33.5187L18.1645 33.8383ZM24.5524 49.6247C24.7291 50.148 24.4482 50.7152 23.9249 50.8917C23.4015 51.0682 22.834 50.7871 22.6573 50.2639L24.5524 49.6247ZM28.4959 21.9051L6.59588 2.38002L7.92692 0.88779L29.827 20.4129L28.4959 21.9051ZM8.24329 1.82441L2.66414 30.6173L0.70036 30.2363L6.27951 1.4434L8.24329 1.82441ZM2.34777 29.6807L24.2479 49.2058L22.9169 50.698L1.01673 31.1729L2.34777 29.6807ZM1.88537 29.4479L18.3452 32.8669L17.9389 34.8248L1.47913 31.4058L1.88537 29.4479ZM17.3868 33.1901L17.4048 33.1694L18.9153 34.4809L18.8973 34.5016L17.3868 33.1901ZM19.1074 33.5049L19.1119 33.5181L17.2172 34.1585L17.2127 34.1454L19.1074 33.5049ZM19.1121 33.5187L24.5391 49.5852L22.6439 50.2244L17.217 34.1579L19.1121 33.5187ZM24.5734 50.0953L24.5643 50.1424L22.6005 49.7614L22.6096 49.7143L24.5734 50.0953ZM24.5391 49.5852L24.5524 49.6247L22.6573 50.2639L22.6439 50.2244L24.5391 49.5852ZM22.6096 49.7143L28.1796 20.9685L30.1434 21.3495L24.5734 50.0953L22.6096 49.7143ZM17.2127 34.1454L6.31406 1.95415L8.20874 1.31366L19.1074 33.5049L17.2127 34.1454ZM17.4048 33.1694L28.4062 20.5033L29.9167 21.8147L18.9153 34.4809L17.4048 33.1694Z" fill="black"/>
</svg>
