<svg width="44" height="45" viewBox="0 0 44 45" fill="none" xmlns="http://www.w3.org/2000/svg">
    <path d="M27.5634 43.3267L42.6448 28.1564L37.0932 7.38555L22.0118 22.5558L27.5634 43.3267Z" fill="black"/>
    <path d="M1.35393 16.9619L21.9869 22.5625L37.0683 7.39221L16.4353 1.79159L1.35393 16.9619Z" fill="#F1EFED"/>
    <path d="M1.35393 16.9619L6.90555 37.7327L27.5386 43.3334L21.9869 22.5625L1.35393 16.9619Z" fill="#F1EFED"/>
    <path d="M1.35393 16.9619L6.90555 37.7327L27.5386 43.3334L21.9869 22.5625M1.35393 16.9619L21.9869 22.5625M1.35393 16.9619L16.4353 1.79159L37.0683 7.39221L21.9869 22.5625M27.5634 43.3267L42.6448 28.1564L37.0932 7.38555L22.0118 22.5558L27.5634 43.3267Z" stroke="black" stroke-width="2" stroke-miterlimit="10" stroke-linecap="round" stroke-linejoin="round"/>
</svg>
