<svg width="49" height="48" viewBox="0 0 49 48" fill="none" xmlns="http://www.w3.org/2000/svg">
<path d="M29.1179 40.6141L41.183 28.4779L36.7417 11.8612L24.6766 23.9974L29.1179 40.6141Z" fill="black"/>
<path d="M8.15033 19.5222L24.6567 24.0027L36.7219 11.8665L20.2154 7.38601L8.15033 19.5222Z" fill="#F1EFED"/>
<path d="M8.15033 19.5222L12.5916 36.1389L29.098 40.6194L24.6567 24.0027L8.15033 19.5222Z" fill="#F1EFED"/>
<path d="M8.15033 19.5222L12.5916 36.1389L29.098 40.6194L24.6567 24.0027M8.15033 19.5222L24.6567 24.0027M8.15033 19.5222L20.2154 7.38601L36.7219 11.8665L24.6567 24.0027M29.1179 40.6141L41.183 28.4779L36.7417 11.8612L24.6766 23.9974L29.1179 40.6141Z" stroke="black" stroke-width="1.6" stroke-miterlimit="10" stroke-linecap="round" stroke-linejoin="round"/>
</svg>
