<svg width="39" height="42" viewBox="0 0 39 42" fill="none" xmlns="http://www.w3.org/2000/svg">
    <path fill-rule="evenodd" clip-rule="evenodd" d="M4.77762 9.87901C5.65142 8.14118 7.34528 6.24795 9.72462 4.74856C12.104 3.24916 14.5245 2.5496 16.4431 2.52778C18.4107 2.5054 19.4344 3.16157 19.8429 3.8325C20.2513 4.50343 20.3727 5.72823 19.4766 7.5105C18.6028 9.24832 16.9089 11.1416 14.5296 12.6409C12.1502 14.1403 9.72968 14.8399 7.81116 14.8617C5.84357 14.8841 4.81982 14.2279 4.41135 13.557C4.00288 12.8861 3.88147 11.6613 4.77762 9.87901Z" fill="black"/>
    <path d="M9.72462 4.74856C7.34528 6.24795 5.65142 8.14118 4.77762 9.87901C3.88147 11.6613 4.00288 12.8861 4.41135 13.557C4.81982 14.2279 5.84357 14.8841 7.81116 14.8617C9.72968 14.8399 12.1502 14.1403 14.5296 12.6409C16.9089 11.1416 18.6028 9.24832 19.4766 7.5105C20.3727 5.72823 20.2513 4.50343 19.8429 3.8325C19.4344 3.16157 18.4107 2.5054 16.4431 2.52778C14.5245 2.5496 12.104 3.24916 9.72462 4.74856Z" fill="#F1EFED"/>
    <path fill-rule="evenodd" clip-rule="evenodd" d="M31.7939 38.4768C33.5321 37.4013 34.8401 35.8951 35.6646 34.1827C37.2993 31.3403 37.5607 28.1952 36.051 25.7599C35.9165 25.543 35.7708 25.3362 35.6145 25.1395C35.4732 24.8562 35.3175 24.5769 35.1474 24.3024L21.8564 2.56362C19.846 -0.738534 13.8603 -0.670461 8.48698 2.71567C3.11364 6.1018 0.387422 11.5237 2.39781 14.8259L2.41862 14.8597L15.6477 36.3675C15.8178 36.642 15.9988 36.9056 16.1898 37.1582C16.2964 37.3856 16.4168 37.6082 16.5513 37.825C18.061 40.2603 20.9959 41.4278 24.2714 41.2321C26.1733 41.2575 28.1057 40.7588 29.8439 39.6833L31.7939 38.4768ZM4.77762 9.87901C5.65142 8.14118 7.34528 6.24795 9.72462 4.74856C12.104 3.24916 14.5245 2.5496 16.4431 2.52778C18.4107 2.5054 19.4344 3.16157 19.8429 3.8325C20.2513 4.50343 20.3727 5.72823 19.4766 7.5105C18.6028 9.24832 16.9089 11.1416 14.5296 12.6409C12.1502 14.1403 9.72968 14.8399 7.81116 14.8617C5.84357 14.8841 4.81982 14.2279 4.41135 13.557C4.00288 12.8861 3.88147 11.6613 4.77762 9.87901Z" fill="black"/>
</svg>
