<svg width="43" height="53" viewBox="0 0 43 53" fill="none" xmlns="http://www.w3.org/2000/svg">
    <path d="M38.0162 40.1935L38.0351 40.1542L38.0568 40.1163C39.5438 37.531 39.6761 34.871 38.4631 32.9144C38.3531 32.737 38.234 32.5679 38.1063 32.4072L38.0288 32.3097L37.9732 32.1982C37.8482 31.9476 37.7104 31.7002 37.5596 31.4569L24.9332 11.0897L7.45792 21.9022L20.0823 42.2663C20.2331 42.5096 20.3934 42.743 20.5623 42.9665L20.6374 43.0659L20.6903 43.1787C20.7775 43.3645 20.8758 43.5463 20.9859 43.7238L19.9746 44.3517L20.9859 43.7238C22.1993 45.6811 24.6437 46.7487 27.6247 46.5706L27.6681 46.568L27.7116 46.5685C29.3937 46.5911 31.1023 46.1505 32.6421 45.1977L34.592 43.9912C36.1318 43.0385 37.2874 41.707 38.0162 40.1935Z" fill="black" stroke="black" stroke-width="2.38"/>
    <path d="M12.191 10.3483C9.65455 11.9391 7.79347 13.9811 6.80548 15.9412C5.80632 17.9235 5.77901 19.6232 6.48822 20.7828C7.19744 21.9423 8.71235 22.6748 10.91 22.652C13.0831 22.6295 15.7175 21.8519 18.2539 20.2611C20.7903 18.6703 22.6514 16.6282 23.6394 14.6681C24.6386 12.6859 24.6659 10.9861 23.9567 9.82659C23.2475 8.66704 21.7325 7.93457 19.5349 7.95734C17.3618 7.97986 14.7274 8.75742 12.191 10.3483Z" fill="#F1EFED" stroke="black" stroke-width="2.38"/>
</svg>
