<svg width="46" height="54" viewBox="0 0 46 54" fill="none" xmlns="http://www.w3.org/2000/svg">
    <path d="M40.3483 39.4227L40.3649 39.3824L40.3843 39.3433C41.7143 36.6745 41.6875 34.0118 40.3596 32.1309C40.2392 31.9604 40.1102 31.7987 39.9731 31.6459L39.8899 31.5531L39.8277 31.4452C39.6879 31.2024 39.5356 30.9637 39.3705 30.7299L25.548 11.1512L8.74773 22.9811L22.568 42.5567C22.7332 42.7906 22.9071 43.0141 23.0891 43.2271L23.1701 43.3219L23.2296 43.4313C23.3277 43.6116 23.4368 43.7872 23.5572 43.9578L22.5852 44.6446L23.5572 43.9578C24.8856 45.8394 27.3897 46.7598 30.3552 46.4049L30.3984 46.3997L30.4418 46.3977C32.1224 46.3203 33.8019 45.7791 35.2822 44.7367L37.1568 43.4167C38.6371 42.3743 39.7112 40.9767 40.3483 39.4227Z" fill="black" stroke="black" stroke-width="2.38"/>
    <path d="M12.6893 11.1567C10.2418 12.8812 8.50006 15.0149 7.62963 17.0174C6.74935 19.0425 6.82712 20.7315 7.61075 21.8421C8.39438 22.9527 9.96033 23.5933 12.1648 23.445C14.3447 23.2983 16.941 22.3757 19.3885 20.6512C21.8361 18.9268 23.5778 16.793 24.4482 14.7906C25.3285 12.7655 25.2508 11.0764 24.4671 9.96582C23.6835 8.85521 22.1176 8.21469 19.913 8.363C17.7332 8.50966 15.1369 9.4323 12.6893 11.1567Z" fill="#F1EFED" stroke="black" stroke-width="2.38"/>
</svg>
