<svg width="49" height="48" viewBox="0 0 49 48" fill="none" xmlns="http://www.w3.org/2000/svg">
<path d="M37.5457 34.9552L37.5609 34.9238L37.5783 34.8935C38.7678 32.8252 38.8737 30.6973 37.9033 29.132C37.8153 28.99 37.72 28.8548 37.6179 28.7262L37.5559 28.6482L37.5114 28.559C37.4114 28.3585 37.3011 28.1606 37.1805 27.966L27.0794 11.6722L13.0991 20.3222L23.1986 36.6135L22.3897 37.1158L23.1987 36.6135C23.3193 36.8081 23.4475 36.9948 23.5827 37.1736L23.6428 37.2531L23.6851 37.3434C23.7548 37.492 23.8335 37.6375 23.9215 37.7795C24.8922 39.3453 26.8477 40.1994 29.2326 40.0569L29.2673 40.0548L29.3021 40.0553C30.6478 40.0733 32.0146 39.7208 33.2465 38.9586L34.8064 37.9934C36.0382 37.2313 36.9627 36.1661 37.5457 34.9552Z" fill="black" stroke="black" stroke-width="1.904"/>
<path d="M16.8864 11.0783C14.8572 12.3509 13.3684 13.9846 12.578 15.5526C11.7786 17.1384 11.7568 18.4982 12.3242 19.4259C12.8915 20.3535 14.1035 20.9395 15.8616 20.9213C17.6 20.9033 19.7076 20.2812 21.7367 19.0085C23.7659 17.7359 25.2547 16.1022 26.0451 14.5342C26.8445 12.9484 26.8663 11.5886 26.2989 10.6609C25.7316 9.73329 24.5196 9.14732 22.7615 9.16553C21.0231 9.18355 18.9155 9.8056 16.8864 11.0783Z" fill="#F1EFED" stroke="black" stroke-width="1.904"/>
</svg>
