<svg width="45" height="54" viewBox="0 0 45 54" fill="none" xmlns="http://www.w3.org/2000/svg">
<path d="M39.8709 39.4219L39.8874 39.3816L39.9069 39.3426C41.2363 36.6748 41.2087 34.0127 39.8799 32.1319C39.7594 31.9613 39.6302 31.7997 39.4931 31.6468L39.4098 31.5541L39.3476 31.4461C39.2077 31.2034 39.0553 30.9647 38.89 30.7308L25.0581 11.1524L8.25758 22.9742L22.0874 42.5496C22.2526 42.7835 22.4267 43.007 22.6088 43.22L22.6898 43.3147L22.7494 43.4242C22.8475 43.6044 22.9567 43.7801 23.0772 43.9507L22.1052 44.6369L23.0772 43.9507C24.4065 45.8322 26.9115 46.7531 29.8776 46.3993L29.9207 46.3942L29.9642 46.3922C31.6452 46.3153 33.3249 45.7747 34.8052 44.7331L36.6799 43.4139C38.1602 42.3723 39.2341 40.9754 39.8709 39.4219Z" fill="black" stroke="black" stroke-width="2.38"/>
<path d="M12.2079 11.156C9.75975 12.8795 8.01766 15.0123 7.14717 17.014C6.26684 19.0382 6.34484 20.7267 7.12888 21.837C7.91293 22.9473 9.4795 23.5878 11.6848 23.4399C13.8654 23.2935 16.4625 22.3715 18.9106 20.648C21.3588 18.9245 23.1009 16.7917 23.9714 14.79C24.8517 12.7657 24.7737 11.0773 23.9897 9.96696C23.2056 8.85663 21.639 8.21614 19.4338 8.36413C17.2532 8.51046 14.6561 9.43246 12.2079 11.156Z" fill="#F1EFED" stroke="black" stroke-width="2.38"/>
</svg>
