<svg width="193" height="78" viewBox="0 0 193 78" fill="none" xmlns="http://www.w3.org/2000/svg">
<path d="M19.8324 22.1384C23.3689 25.5127 27.0147 28.7902 30.7598 31.9131C30.8902 32.0139 30.9748 32.1606 30.9952 32.3216C31.0156 32.4825 30.9704 32.6448 30.8691 32.7735C30.8145 32.8374 30.7475 32.89 30.6719 32.9285C30.5963 32.9669 30.5137 32.9904 30.4287 32.9976C30.3437 33.0048 30.2581 32.9956 30.1768 32.9704C30.0956 32.9452 30.0202 32.9046 29.9552 32.8509C26.22 29.641 22.6238 26.2765 19.1469 22.8152C19.1004 22.7703 19.0634 22.7168 19.0382 22.6579C19.013 22.599 19 22.5358 19 22.472C19 22.4082 19.013 22.345 19.0382 22.2861C19.0634 22.2272 19.1004 22.1737 19.1469 22.1288C19.2406 22.0443 19.364 21.9983 19.4916 22.0001C19.6193 22.0019 19.7413 22.0514 19.8324 22.1384Z" fill="black"/>
<path d="M41.1572 41.0961C45.1462 44.0139 49.2427 46.7672 53.4761 49.2638C53.5871 49.3134 53.687 49.3869 53.7692 49.4797C53.8514 49.5724 53.9141 49.6823 53.9533 49.8021C53.9925 49.922 54.0073 50.0492 53.9967 50.1754C53.9861 50.3017 53.9503 50.4242 53.8917 50.535C53.8332 50.6458 53.7531 50.7424 53.6567 50.8185C53.5603 50.8947 53.4497 50.9487 53.3321 50.9771C53.2146 51.0054 53.0927 51.0075 52.9743 50.9832C52.8559 50.9588 52.7438 50.9086 52.6451 50.8357C48.3678 48.2832 44.232 45.4774 40.2577 42.4317C40.1149 42.296 40.0247 42.1097 40.0044 41.9085C39.9841 41.7074 40.0351 41.5054 40.1477 41.3412C40.2603 41.1771 40.4265 41.0624 40.6146 41.0191C40.8027 40.9757 40.9993 41.0068 41.167 41.1063L41.1572 41.0961Z" fill="black"/>
<path d="M66.174 55.0569C70.4878 56.9826 74.892 58.6777 79.3695 60.136C79.5965 60.2195 79.7845 60.3909 79.8949 60.615C80.0053 60.8392 80.0298 61.0991 79.9633 61.3415C79.8837 61.5774 79.7217 61.7728 79.51 61.8883C79.2984 62.0039 79.0528 62.0309 78.8228 61.964C74.2924 60.4555 69.8593 58.7131 65.5237 56.7368C65.4191 56.6895 65.3243 56.621 65.245 56.5353C65.1656 56.4496 65.1031 56.3483 65.0611 56.2373C65.0191 56.1262 64.9984 56.0076 65.0001 55.8881C65.0018 55.7687 65.026 55.6508 65.0713 55.5411C65.1625 55.3291 65.327 55.1612 65.5317 55.0713C65.7363 54.9815 65.9659 54.9763 66.174 55.0569Z" fill="black"/>
<path d="M93.2556 64.0394L107.38 67.3031C107.596 67.373 107.777 67.5175 107.887 67.7081C107.997 67.8987 108.028 68.1217 107.974 68.3333C107.921 68.5448 107.786 68.7295 107.597 68.8512C107.408 68.9728 107.178 69.0225 106.953 68.9905L92.731 65.7918C92.4875 65.7324 92.2775 65.5853 92.1453 65.3812C92.0131 65.1772 91.9688 64.9322 92.0219 64.6977C92.0841 64.4653 92.2383 64.2649 92.452 64.1387C92.6658 64.0125 92.9225 63.9703 93.1682 64.0209H93.2167L93.2556 64.0394Z" fill="black"/>
<path d="M121.996 71.0069L136.321 73.3443C136.426 73.3614 136.526 73.3994 136.616 73.4563C136.706 73.5132 136.784 73.5879 136.846 73.676C136.909 73.7641 136.953 73.864 136.978 73.9699C137.002 74.0758 137.007 74.1857 136.99 74.2933C136.973 74.4053 136.933 74.5125 136.875 74.6085C136.816 74.7044 136.739 74.7871 136.648 74.8516C136.558 74.916 136.456 74.9608 136.348 74.9833C136.24 75.0058 136.129 75.0056 136.021 74.9825L121.735 72.755C121.511 72.7204 121.309 72.5961 121.173 72.4092C121.036 72.2222 120.977 71.9876 121.008 71.7561C121.044 71.5262 121.165 71.3195 121.346 71.1798C121.526 71.0401 121.753 70.9781 121.977 71.0069H121.996Z" fill="black"/>
<path d="M149.868 75L164.517 76.1328C164.656 76.1431 164.785 76.1982 164.875 76.286C164.965 76.3739 165.009 76.4875 164.998 76.6022C164.986 76.7167 164.919 76.8226 164.812 76.8968C164.706 76.9711 164.568 77.0076 164.429 76.9987L149.702 76.1895C149.607 76.1923 149.513 76.1786 149.425 76.1495C149.337 76.1203 149.257 76.0763 149.191 76.0203C149.125 75.9643 149.074 75.8975 149.042 75.8242C149.009 75.7509 148.995 75.6728 149.001 75.5949C149.008 75.517 149.034 75.441 149.078 75.3719C149.122 75.3028 149.183 75.242 149.257 75.1936C149.331 75.1452 149.417 75.1101 149.509 75.0907C149.601 75.0713 149.696 75.068 149.79 75.0809L149.868 75Z" fill="black"/>
<path d="M178.321 77L192.922 77.794C192.941 77.7937 192.96 77.8041 192.974 77.823C192.988 77.842 192.998 77.8683 193 77.8968C192.998 77.9254 192.988 77.9517 192.974 77.9707C192.96 77.9897 192.941 78 192.922 77.9998H178.321C178.279 78.0018 178.236 77.9907 178.197 77.967C178.157 77.9433 178.121 77.9077 178.091 77.8622C178.061 77.8167 178.038 77.7624 178.022 77.7026C178.006 77.6429 177.999 77.5789 178 77.5146C178 77.4509 178.008 77.3878 178.025 77.3289C178.041 77.2701 178.064 77.2165 178.094 77.1715C178.124 77.1264 178.159 77.0907 178.198 77.0663C178.237 77.0419 178.279 77.0294 178.321 77.0294V77Z" fill="black"/>
<path d="M0 0C3.32758 3.8179 6.6322 7.65651 9.91384 11.5158C9.94086 11.5401 9.96255 11.5703 9.97742 11.6043C9.9923 11.6383 10 11.6752 10 11.7126C10 11.75 9.9923 11.7869 9.97742 11.8209C9.96255 11.8549 9.94086 11.8851 9.91384 11.9094C9.89073 11.9378 9.86205 11.9606 9.82975 11.9762C9.79746 11.9919 9.76234 12 9.72678 12C9.69123 12 9.6561 11.9919 9.62381 11.9762C9.59152 11.9606 9.56284 11.9378 9.53973 11.9094C6.33028 7.94648 3.15038 3.97669 0 0Z" fill="black"/>
</svg>
