<svg width="188" height="205" viewBox="0 0 188 205" fill="none" xmlns="http://www.w3.org/2000/svg">
<g clip-path="url(#clip0)">
<path d="M64.742 190.42C65.5531 190.897 65.5531 191.637 64.742 192.114C63.931 192.591 62.619 192.591 61.8079 192.114C60.9968 191.637 60.9968 190.897 61.8079 190.42C62.6428 189.943 63.931 189.943 64.742 190.42Z" fill="#0C1033"/>
<path d="M72.3994 186.005C73.2105 186.483 73.2105 187.222 72.3994 187.7C71.5884 188.177 70.2763 188.177 69.4653 187.7C68.6542 187.222 68.6542 186.483 69.4653 186.005C70.2763 185.528 71.5884 185.528 72.3994 186.005Z" fill="#0C1033"/>
<path d="M57.1085 186.005C57.9195 186.483 57.9195 187.222 57.1085 187.7C56.2974 188.177 54.9854 188.177 54.1743 187.7C53.3633 187.222 53.3633 186.483 54.1743 186.005C54.9854 185.528 56.2974 185.528 57.1085 186.005Z" fill="#0C1033"/>
<path d="M64.742 181.591C65.5531 182.068 65.5531 182.808 64.742 183.285C63.931 183.763 62.619 183.763 61.8079 183.285C60.9968 182.808 60.9968 182.068 61.8079 181.591C62.6428 181.114 63.9548 181.114 64.742 181.591Z" fill="#0C1033"/>
<path d="M49.4511 181.591C50.2621 182.068 50.2621 182.808 49.4511 183.285C48.64 183.763 47.328 183.763 46.5169 183.285C45.7059 182.808 45.7059 182.068 46.5169 181.591C47.3519 181.114 48.6639 181.114 49.4511 181.591Z" fill="#0C1033"/>
<path d="M57.1085 177.176C57.9195 177.654 57.9195 178.393 57.1085 178.871C56.2974 179.348 54.9854 179.348 54.1743 178.871C53.3633 178.393 53.3633 177.654 54.1743 177.176C54.9854 176.699 56.2974 176.699 57.1085 177.176Z" fill="#0C1033"/>
<path d="M41.8175 177.176C42.6286 177.654 42.6286 178.393 41.8175 178.871C41.0065 179.348 39.6944 179.348 38.8834 178.871C38.0723 178.393 38.0723 177.654 38.8834 177.176C39.6944 176.699 41.0065 176.699 41.8175 177.176Z" fill="#0C1033"/>
<path d="M49.4511 172.762C50.2621 173.239 50.2621 173.979 49.4511 174.456C48.64 174.934 47.328 174.934 46.5169 174.456C45.7059 173.979 45.7059 173.239 46.5169 172.762C47.3519 172.285 48.6639 172.285 49.4511 172.762Z" fill="#0C1033"/>
<path d="M34.184 172.762C34.9951 173.239 34.9951 173.979 34.184 174.456C33.3729 174.934 32.0609 174.934 31.2498 174.456C30.4388 173.979 30.4388 173.239 31.2498 172.762C32.0609 172.285 33.3729 172.285 34.184 172.762Z" fill="#0C1033"/>
<path d="M41.8175 168.347C42.6286 168.825 42.6286 169.564 41.8175 170.042C41.0065 170.519 39.6944 170.519 38.8834 170.042C38.0723 169.564 38.0723 168.825 38.8834 168.347C39.6944 167.87 41.0065 167.87 41.8175 168.347Z" fill="#0C1033"/>
<path d="M26.455 168.3C27.2661 168.777 27.2661 169.517 26.455 169.994C25.6439 170.471 24.3319 170.471 23.5209 169.994C22.7098 169.517 22.7098 168.777 23.5209 168.3C24.3558 167.823 25.6439 167.823 26.455 168.3Z" fill="#0C1033"/>
<path d="M34.1124 163.885C34.9235 164.362 34.9235 165.102 34.1124 165.579C33.3014 166.056 31.9893 166.056 31.1783 165.579C30.3672 165.102 30.3672 164.362 31.1783 163.885C31.9893 163.408 33.3014 163.408 34.1124 163.885Z" fill="#0C1033"/>
<path d="M18.8215 163.885C19.6325 164.362 19.6325 165.102 18.8215 165.579C18.0104 166.056 16.6984 166.056 15.8873 165.579C15.0763 165.102 15.0763 164.362 15.8873 163.885C16.6984 163.408 18.0104 163.408 18.8215 163.885Z" fill="#0C1033"/>
<path d="M24.9999 161.499C26.1461 161.499 27.0752 160.965 27.0752 160.306C27.0752 159.647 26.1461 159.113 24.9999 159.113C23.8537 159.113 22.9245 159.647 22.9245 160.306C22.9245 160.965 23.8537 161.499 24.9999 161.499Z" fill="#0C1033"/>
<path d="M11.1641 159.471C11.9751 159.948 11.9751 160.688 11.1641 161.165C10.353 161.642 9.04099 161.642 8.22993 161.165C7.41886 160.688 7.41886 159.948 8.22993 159.471C9.06485 158.993 10.3769 158.993 11.1641 159.471Z" fill="#0C1033"/>
<path d="M18.8215 155.056C19.6325 155.533 19.6325 156.273 18.8215 156.75C18.0104 157.228 16.6984 157.228 15.8873 156.75C15.0763 156.273 15.0763 155.533 15.8873 155.056C16.6984 154.579 18.0104 154.579 18.8215 155.056Z" fill="#0C1033"/>
<path d="M3.53051 155.056C4.34158 155.533 4.34158 156.273 3.53051 156.75C2.71945 157.228 1.40743 157.228 0.596366 156.75C-0.214699 156.273 -0.214699 155.533 0.596366 155.056C1.40743 154.579 2.71945 154.579 3.53051 155.056Z" fill="#0C1033"/>
<path d="M11.1641 150.642C11.9751 151.119 11.9751 151.859 11.1641 152.336C10.353 152.813 9.04099 152.813 8.22993 152.336C7.41886 151.859 7.41886 151.119 8.22993 150.642C9.06485 150.165 10.3769 150.165 11.1641 150.642Z" fill="#0C1033"/>
<path d="M3.53051 146.227C4.34158 146.704 4.34158 147.444 3.53051 147.921C2.71945 148.399 1.40743 148.399 0.596366 147.921C-0.214699 147.444 -0.214699 146.704 0.596366 146.227C1.40743 145.75 2.71945 145.75 3.53051 146.227Z" fill="#0C1033"/>
<path d="M103.268 202.948C104.079 203.425 104.079 204.165 103.268 204.642C102.457 205.119 101.145 205.119 100.333 204.642C99.5224 204.165 99.5224 203.425 100.333 202.948C101.145 202.494 102.457 202.494 103.268 202.948Z" fill="#0C1033"/>
<path d="M110.925 198.533C111.736 199.01 111.736 199.75 110.925 200.227C110.114 200.705 108.802 200.705 107.991 200.227C107.18 199.75 107.18 199.01 107.991 198.533C108.802 198.08 110.114 198.08 110.925 198.533Z" fill="#0C1033"/>
<path d="M118.559 194.118C119.37 194.596 119.37 195.335 118.559 195.813C117.747 196.29 116.435 196.29 115.624 195.813C114.813 195.335 114.813 194.596 115.624 194.118C116.435 193.665 117.747 193.665 118.559 194.118Z" fill="#0C1033"/>
<path d="M126.216 189.704C127.027 190.181 127.027 190.921 126.216 191.398C125.405 191.876 124.093 191.876 123.282 191.398C122.471 190.921 122.471 190.181 123.282 189.704C124.093 189.251 125.405 189.251 126.216 189.704Z" fill="#0C1033"/>
<path d="M133.85 185.289C134.661 185.767 134.661 186.506 133.85 186.984C133.038 187.461 131.726 187.461 130.915 186.984C130.104 186.506 130.104 185.767 130.915 185.289C131.726 184.836 133.038 184.836 133.85 185.289Z" fill="#0C1033"/>
<path d="M141.483 180.875C142.294 181.352 142.294 182.092 141.483 182.569C140.672 183.047 139.36 183.047 138.549 182.569C137.738 182.092 137.738 181.352 138.549 180.875C139.384 180.422 140.696 180.422 141.483 180.875Z" fill="#0C1033"/>
<path d="M149.14 176.461C149.951 176.938 149.951 177.678 149.14 178.155C148.329 178.632 147.017 178.632 146.206 178.155C145.395 177.678 145.395 176.938 146.206 176.461C147.017 176.007 148.329 176.007 149.14 176.461Z" fill="#0C1033"/>
<path d="M87.9766 202.948C88.7877 203.425 88.7877 204.165 87.9766 204.642C87.1656 205.119 85.8536 205.119 85.0425 204.642C84.2314 204.165 84.2314 203.425 85.0425 202.948C85.8774 202.494 87.1656 202.494 87.9766 202.948Z" fill="#0C1033"/>
<path d="M95.634 198.533C96.4451 199.01 96.4451 199.75 95.634 200.227C94.823 200.705 93.5109 200.705 92.6999 200.227C91.8888 199.75 91.8888 199.01 92.6999 198.533C93.5109 198.08 94.823 198.08 95.634 198.533Z" fill="#0C1033"/>
<path d="M103.268 194.118C104.079 194.596 104.079 195.335 103.268 195.813C102.457 196.29 101.145 196.29 100.333 195.813C99.5224 195.335 99.5224 194.596 100.333 194.118C101.145 193.665 102.457 193.665 103.268 194.118Z" fill="#0C1033"/>
<path d="M110.925 189.704C111.736 190.181 111.736 190.921 110.925 191.398C110.114 191.876 108.802 191.876 107.991 191.398C107.18 190.921 107.18 190.181 107.991 189.704C108.802 189.251 110.114 189.251 110.925 189.704Z" fill="#0C1033"/>
<path d="M118.559 185.289C119.37 185.767 119.37 186.506 118.559 186.984C117.747 187.461 116.435 187.461 115.624 186.984C114.813 186.506 114.813 185.767 115.624 185.289C116.435 184.836 117.747 184.836 118.559 185.289Z" fill="#0C1033"/>
<path d="M126.216 180.875C127.027 181.352 127.027 182.092 126.216 182.569C125.405 183.047 124.093 183.047 123.282 182.569C122.471 182.092 122.471 181.352 123.282 180.875C124.093 180.422 125.405 180.422 126.216 180.875Z" fill="#0C1033"/>
<path d="M133.85 176.461C134.661 176.938 134.661 177.678 133.85 178.155C133.038 178.632 131.726 178.632 130.915 178.155C130.104 177.678 130.104 176.938 130.915 176.461C131.726 176.007 133.038 176.007 133.85 176.461Z" fill="#0C1033"/>
<path d="M141.483 172.046C142.294 172.523 142.294 173.263 141.483 173.74C140.672 174.217 139.36 174.217 138.549 173.74C137.738 173.263 137.738 172.523 138.549 172.046C139.384 171.592 140.696 171.592 141.483 172.046Z" fill="#0C1033"/>
<path d="M80.3431 198.533C81.1542 199.01 81.1542 199.75 80.3431 200.227C79.5321 200.705 78.22 200.705 77.409 200.227C76.5979 199.75 76.5979 199.01 77.409 198.533C78.22 198.08 79.5321 198.08 80.3431 198.533Z" fill="#0C1033"/>
<path d="M87.9766 194.118C88.7877 194.596 88.7877 195.335 87.9766 195.813C87.1656 196.29 85.8536 196.29 85.0425 195.813C84.2314 195.335 84.2314 194.596 85.0425 194.118C85.8774 193.665 87.1656 193.665 87.9766 194.118Z" fill="#0C1033"/>
<path d="M72.6857 194.118C73.4967 194.596 73.4967 195.335 72.6857 195.813C71.8746 196.29 70.5626 196.29 69.7515 195.813C68.9405 195.335 68.9405 194.596 69.7515 194.118C70.5865 193.665 71.8746 193.665 72.6857 194.118Z" fill="#0C1033"/>
<path d="M80.3431 189.704C81.1542 190.181 81.1542 190.921 80.3431 191.398C79.5321 191.876 78.22 191.876 77.409 191.398C76.5979 190.921 76.5979 190.181 77.409 189.704C78.22 189.251 79.5321 189.251 80.3431 189.704Z" fill="#0C1033"/>
<path d="M153.864 172.118C154.675 171.64 155.987 171.64 156.798 172.118C157.609 172.571 157.609 173.335 156.798 173.812C155.987 174.289 154.675 174.289 153.864 173.812C153.077 173.335 153.077 172.571 153.864 172.118Z" fill="#0C1033"/>
<path d="M164.455 167.703C165.266 168.18 165.266 168.92 164.455 169.397C163.644 169.875 162.332 169.875 161.521 169.397C160.71 168.92 160.71 168.18 161.521 167.703C162.332 167.226 163.644 167.226 164.455 167.703Z" fill="#0C1033"/>
<path d="M172.089 163.289C172.9 163.766 172.9 164.506 172.089 164.983C171.278 165.46 169.966 165.46 169.155 164.983C168.344 164.506 168.344 163.766 169.155 163.289C169.99 162.811 171.278 162.811 172.089 163.289Z" fill="#0C1033"/>
<path d="M179.746 158.874C180.557 159.352 180.557 160.091 179.746 160.569C178.935 161.046 177.623 161.046 176.812 160.569C176.001 160.091 176.001 159.352 176.812 158.874C177.623 158.397 178.935 158.397 179.746 158.874Z" fill="#0C1033"/>
<path d="M187.38 154.459C188.191 154.937 188.191 155.676 187.38 156.154C186.569 156.631 185.257 156.631 184.446 156.154C183.635 155.676 183.635 154.937 184.446 154.459C185.257 153.982 186.569 153.982 187.38 154.459Z" fill="#0C1033"/>
<path d="M146.23 167.703C147.041 167.226 148.353 167.226 149.164 167.703C149.975 168.18 149.975 168.92 149.164 169.397C148.353 169.875 147.041 169.875 146.23 169.397C145.419 168.92 145.419 168.157 146.23 167.703Z" fill="#0C1033"/>
<path d="M156.798 163.289C157.609 163.766 157.609 164.506 156.798 164.983C155.987 165.46 154.675 165.46 153.864 164.983C153.053 164.506 153.053 163.766 153.864 163.289C154.699 162.811 155.987 162.811 156.798 163.289Z" fill="#0C1033"/>
<path d="M164.455 158.874C165.266 159.352 165.266 160.091 164.455 160.569C163.644 161.046 162.332 161.046 161.521 160.569C160.71 160.091 160.71 159.352 161.521 158.874C162.332 158.397 163.644 158.397 164.455 158.874Z" fill="#0C1033"/>
<path d="M172.089 154.459C172.9 154.937 172.9 155.676 172.089 156.154C171.278 156.631 169.966 156.631 169.155 156.154C168.344 155.676 168.344 154.937 169.155 154.459C169.99 153.982 171.278 153.982 172.089 154.459Z" fill="#0C1033"/>
<path d="M179.746 150.045C180.557 150.522 180.557 151.262 179.746 151.739C178.935 152.217 177.623 152.217 176.812 151.739C176.001 151.262 176.001 150.522 176.812 150.045C177.623 149.568 178.935 149.568 179.746 150.045Z" fill="#0C1033"/>
<path d="M187.38 145.631C188.191 146.108 188.191 146.848 187.38 147.325C186.569 147.802 185.257 147.802 184.446 147.325C183.635 146.848 183.635 146.108 184.446 145.631C185.257 145.153 186.569 145.153 187.38 145.631Z" fill="#0C1033"/>
<path d="M94.1551 99.601V114.515L179.555 65.1917V50.2778L94.1551 99.601Z" fill="#97C3F9"/>
<path d="M8.77858 50.2778V65.1917L94.1551 114.515V99.601L8.77858 50.2778Z" fill="#97C3F9"/>
<path d="M179.555 50.2775L94.1551 99.6007L8.77858 50.2775L94.1551 0.978271L179.555 50.2775Z" fill="white"/>
<path d="M94.1551 100.579L93.7257 100.34L7.0849 50.2776L94.1551 0L94.5845 0.238622L181.225 50.2776L94.1551 100.579ZM10.4723 50.2776L94.1551 98.5985L177.838 50.2776L94.1551 1.9567L10.4723 50.2776Z" fill="#0C1033"/>
<path d="M94.1551 114.3V129.214L179.555 79.9146V65.0007L94.1551 114.3Z" fill="#0C1033"/>
<path d="M8.77858 65.0007V79.9146L94.1551 129.214V114.3L8.77858 65.0007Z" fill="#97C3F9"/>
<path d="M94.1551 115.374L8.32533 65.8118L9.25567 64.1892L94.1551 113.226L179.078 64.1892L180.009 65.8118L94.1551 115.374Z" fill="#0C1033"/>
<path d="M94.1551 129.238V144.152L179.532 94.8523V79.9385L94.1551 129.238Z" fill="#97C3F9"/>
<path d="M8.77858 79.9385V94.8523L94.1551 144.152V129.238L8.77858 79.9385Z" fill="#97C3F9"/>
<path d="M94.1551 130.311L8.32533 80.7496L9.25567 79.127L94.1551 128.164L179.078 79.127L180.009 80.7496L94.1551 130.311Z" fill="#0C1033"/>
<path d="M94.1551 144.247V159.161L179.532 109.838V94.9238L94.1551 144.247Z" fill="#0C1033"/>
<path d="M8.77858 94.9238V109.838L94.1551 159.161V144.247L8.77858 94.9238Z" fill="#97C3F9"/>
<path d="M94.1551 145.321L8.32533 95.735L9.25567 94.1362L94.1551 143.173L179.078 94.1362L180.009 95.735L94.1551 145.321Z" fill="#0C1033"/>
<path d="M94.1551 159.185V174.099L179.532 124.775V109.862L94.1551 159.185Z" fill="#97C3F9"/>
<path d="M8.77858 109.862V124.775L94.1551 174.099V159.185L8.77858 109.862Z" fill="#97C3F9"/>
<path d="M94.1551 160.258L8.32533 110.673L9.25567 109.05L94.1551 158.111L179.078 109.05L180.009 110.673L94.1551 160.258Z" fill="#0C1033"/>
<path d="M94.1551 174.433V189.347L179.555 140.047V125.134L94.1551 174.433Z" fill="#0C1033"/>
<path d="M8.77858 125.134V140.047L94.1551 189.347V174.433L8.77858 125.134Z" fill="#97C3F9"/>
<path d="M94.1551 175.506L8.32533 125.921L9.25567 124.322L94.1551 173.359L179.078 124.322L180.009 125.921L94.1551 175.506Z" fill="#0C1033"/>
<path d="M94.1551 190.42L67.2707 174.886L68.201 173.287L94.1551 188.273L178.601 139.499V50.8266L93.7018 1.78986L94.6322 0.167236L180.486 49.7529V140.572L94.1551 190.42Z" fill="#0C1033"/>
<path d="M94.1551 190.563L7.39502 140.477L9.2557 139.379L94.1551 188.416L179.078 139.379L180.009 141.002L94.1551 190.563Z" fill="#0C1033"/>
<path d="M9.23184 50.1106H7.39502V140.477H9.23184V50.1106Z" fill="#0C1033"/>
</g>
<defs>
<clipPath id="clip0">
<rect width="188" height="205" fill="white"/>
</clipPath>
</defs>
</svg>
