<svg width="160" height="63" viewBox="0 0 160 63" fill="none" xmlns="http://www.w3.org/2000/svg">
<path d="M26.8966 35.9794L21.8737 41.0094L1.3725 20.4867L6.3954 15.4568L26.8966 35.9794ZM21.8306 0L16.6999 5.13786L21.8306 10.2757L26.9613 5.13786L21.8306 0ZM47.4625 5.29617L42.4396 0.266248L21.9384 20.7961L26.9613 25.826L47.4625 5.29617ZM62.8905 20.7457L57.7598 15.6079L52.6291 20.7457L57.7598 25.8836L62.8905 20.7457ZM56.6029 47.5432L61.6258 42.5133L41.1318 21.9906L36.1089 27.0206L56.6029 47.5432ZM41.1749 63L46.3056 57.8621L41.1749 52.7243L36.0442 57.8621L41.1749 63ZM15.428 57.8046L20.4509 62.8345L40.9521 42.3046L35.9292 37.2747L15.428 57.8046ZM0 42.3478L5.13069 47.4857L10.2614 42.3478L5.13069 37.2099L0 42.3478ZM109.469 40.2826V38.2749H113.235V36.9077H109.469V35.1591H113.544V33.7415H108.061V41.6858H113.615V40.2898H109.469V40.2826ZM84.678 29.4312C85.6696 29.4312 86.4744 29.0786 87.0637 28.3878C87.5451 27.8193 87.8398 27.1141 87.926 26.2794L87.9547 25.9987H86.5607L86.5247 26.2074C86.4385 26.6608 86.3092 27.0349 86.1367 27.3012C85.8277 27.7977 85.3894 28.0352 84.8001 28.0352C84.1462 28.0352 83.6648 27.8049 83.3414 27.33C82.9965 26.8335 82.824 26.1714 82.824 25.3583C82.824 24.3581 83.0109 23.6169 83.3845 23.1492C83.751 22.6958 84.2181 22.4728 84.8145 22.4728C85.296 22.4728 85.6696 22.5879 85.9283 22.8254C86.1942 23.07 86.3738 23.4082 86.4601 23.8328L86.5032 24.0343H87.8901L87.8685 23.7608C87.811 23.07 87.5236 22.4512 87.0062 21.9115C86.4816 21.3646 85.7415 21.0911 84.8145 21.0911C83.7223 21.0911 82.8528 21.5085 82.2276 22.336C81.6599 23.0772 81.3797 24.0415 81.3797 25.1856C81.3797 26.6967 81.7605 27.8337 82.5222 28.5749C83.0899 29.1433 83.8157 29.4312 84.678 29.4312ZM93.6244 21.0911C94.9106 21.0911 95.8807 21.5517 96.5131 22.4656C96.9945 23.1636 97.2388 24.063 97.2388 25.1352C97.2388 26.2938 96.9586 27.2724 96.4196 28.0496C95.7657 28.9778 94.8172 29.4528 93.6172 29.4528C92.489 29.4528 91.5908 29.0354 90.944 28.2223C90.3692 27.4451 90.0817 26.4665 90.0817 25.3007C90.0817 24.2501 90.3261 23.3363 90.8075 22.5807C91.4399 21.5949 92.3884 21.0911 93.6244 21.0911ZM93.7178 28.0424C94.4435 28.0424 94.9466 27.7689 95.2627 27.2148C95.6005 26.6248 95.7729 25.9268 95.7729 25.1496C95.7729 24.3365 95.5789 23.6817 95.1981 23.1995C94.8244 22.7246 94.3286 22.4943 93.6747 22.4943C93.0423 22.4943 92.5393 22.7246 92.1441 23.1995C91.7417 23.6745 91.5333 24.4084 91.5333 25.3727C91.5333 26.1427 91.7129 26.7975 92.065 27.3156C92.4028 27.8049 92.9417 28.0424 93.7178 28.0424ZM102.786 21.2926C103.807 21.2926 104.612 21.6956 105.179 22.4871C105.668 23.1852 105.919 24.0774 105.919 25.1496C105.919 25.97 105.776 26.7255 105.488 27.3875C104.964 28.6108 104.058 29.2369 102.779 29.2369H99.7682V21.2926H102.786ZM101.205 27.8697H102.599C102.88 27.8697 103.11 27.8409 103.289 27.7761C103.591 27.6682 103.835 27.4523 104.037 27.1213C104.202 26.8551 104.324 26.4953 104.396 26.0563C104.439 25.7901 104.461 25.5454 104.461 25.3223C104.461 24.4588 104.303 23.7824 104.001 23.3147C103.713 22.8757 103.253 22.667 102.592 22.667H101.205V27.8697ZM109.987 25.8332H113.752V24.466H109.987V22.7174H114.061V21.2926H108.578V29.2369H114.133V27.8409H109.994V25.8332H109.987ZM84.6421 38.534H86.7691C86.7259 39.196 86.5463 39.6853 86.2373 39.9875C85.878 40.333 85.4397 40.4985 84.8864 40.4985C84.1678 40.4985 83.672 40.2682 83.363 39.7861C83.0324 39.2752 82.8743 38.5987 82.8743 37.764C82.8743 36.807 83.0684 36.0874 83.4636 35.6196C83.8516 35.1591 84.3043 34.936 84.8648 34.936C85.3391 34.936 85.7343 35.044 86.0433 35.2598C86.3379 35.4685 86.5319 35.8067 86.6325 36.2889L86.6756 36.4903H88.0913L88.0481 36.1953C87.8829 35.1447 87.423 34.4035 86.6828 33.9718C86.1798 33.6839 85.5762 33.5328 84.8936 33.5328C83.8875 33.5328 83.054 33.9142 82.4144 34.677C81.7605 35.4541 81.4228 36.5119 81.4228 37.8144C81.4228 39.124 81.7605 40.1674 82.4504 40.9446C83.0755 41.5634 83.8372 41.8729 84.7139 41.8729C85.3822 41.8729 85.9499 41.7361 86.3882 41.4627C86.5607 41.3548 86.7475 41.2037 86.9559 40.995L87.114 41.6714H88.1631V37.1811H84.6564V38.534H84.6421ZM92.4674 38.2677H96.2328V36.9005H92.4674V35.1519H96.5418V33.7271H91.059V41.6714H96.6137V40.2754H92.4746V38.2677H92.4674ZM103.749 39.0521L100.702 33.7343H99.2078V41.6786H100.602V36.3536L103.699 41.6786H105.136V33.7343H103.749V39.0521ZM122.202 40.7431C122.231 40.8511 122.274 40.9878 122.361 41.0238L122.504 41.0957V41.6786H120.959L120.887 41.5347C120.844 41.4483 120.816 41.3476 120.794 41.2252C120.772 41.1101 120.758 40.8942 120.744 40.5992L120.686 39.3615C120.672 38.9657 120.55 38.7211 120.327 38.5987C120.234 38.5484 120.032 38.4908 119.616 38.4908H117.769V41.6786H116.339V33.7343H119.752C120.313 33.7343 120.78 33.8279 121.153 34.0078C121.886 34.3676 122.26 35.0368 122.26 35.9938C122.26 36.4832 122.159 36.8933 121.973 37.2171C121.85 37.4186 121.699 37.5985 121.52 37.7496C121.656 37.8504 121.764 37.9583 121.858 38.0878C122.023 38.3253 122.109 38.6779 122.131 39.16L122.159 40.1602C122.152 40.4841 122.181 40.6568 122.202 40.7431ZM120.794 36.0874C120.794 35.6556 120.665 35.375 120.399 35.2311C120.248 35.1519 120.032 35.1087 119.766 35.1087H117.762V37.138H119.644C120.018 37.138 120.313 37.0588 120.521 36.9077C120.708 36.771 120.794 36.4903 120.794 36.0874ZM128.447 33.7343L131.091 41.6786H129.539L128.849 39.4551H126.521L125.781 41.6786H124.294L127.039 33.7343H128.447ZM127.692 35.9147L126.952 38.1166H128.389L127.692 35.9147ZM131.954 35.1303H134.253V41.6786H135.705V35.1303H138.004V33.7343H131.961V35.1303H131.954ZM140.44 41.6786H141.884V33.7343H140.44V41.6786ZM147.978 33.5328C149.264 33.5328 150.234 33.9934 150.867 34.9072C151.348 35.6053 151.593 36.5047 151.593 37.5769C151.593 38.7355 151.312 39.7141 150.773 40.4913C150.119 41.4195 149.171 41.8945 147.971 41.8945C146.843 41.8945 145.944 41.4771 145.298 40.664C144.723 39.8868 144.435 38.9082 144.435 37.7424C144.435 36.6918 144.68 35.778 145.161 35.0224C145.786 34.0294 146.735 33.5328 147.978 33.5328ZM148.071 40.4841C148.797 40.4841 149.3 40.2106 149.616 39.6565C149.954 39.0665 150.127 38.3685 150.127 37.5913C150.127 36.7782 149.933 36.1234 149.552 35.6412C149.178 35.1663 148.682 34.936 148.028 34.936C147.396 34.936 146.893 35.1663 146.498 35.6412C146.095 36.1162 145.887 36.8501 145.887 37.8144C145.887 38.5843 146.067 39.2392 146.419 39.7573C146.756 40.2466 147.295 40.4841 148.071 40.4841ZM158.613 33.7343V39.0521L155.566 33.7343H154.072V41.6786H155.466V36.3536L158.563 41.6786H160V33.7343H158.613ZM75.4729 13.0461H74.7543V50.0546H75.4729V13.0461Z" fill="#0C1033"/>
</svg>
