<svg width="282" height="156" viewBox="0 0 282 156" fill="none" xmlns="http://www.w3.org/2000/svg">
<g clip-path="url(#clip0)">
<path d="M24.7419 108C25.5004 108.445 25.5004 109.135 24.7419 109.581C23.9833 110.026 22.7563 110.026 21.9977 109.581C21.2392 109.135 21.2392 108.445 21.9977 108C22.7786 107.555 23.9833 107.555 24.7419 108Z" fill="#0C1033"/>
<path d="M31.9035 103.881C32.662 104.326 32.662 105.016 31.9035 105.462C31.1449 105.907 29.9179 105.907 29.1593 105.462C28.4008 105.016 28.4008 104.326 29.1593 103.881C29.9179 103.436 31.1449 103.436 31.9035 103.881Z" fill="#0C1033"/>
<path d="M39.0427 99.7624C39.8012 100.208 39.8012 100.898 39.0427 101.343C38.2842 101.788 37.0571 101.788 36.2986 101.343C35.54 100.898 35.54 100.208 36.2986 99.7624C37.0571 99.3171 38.2842 99.3171 39.0427 99.7624Z" fill="#0C1033"/>
<path d="M46.2043 95.6435C46.9628 96.0888 46.9628 96.779 46.2043 97.2242C45.4457 97.6695 44.2187 97.6695 43.4601 97.2242C42.7016 96.779 42.7016 96.0888 43.4601 95.6435C44.2187 95.1983 45.4457 95.1983 46.2043 95.6435Z" fill="#0C1033"/>
<path d="M53.3435 91.5249C54.102 91.9701 54.102 92.6603 53.3435 93.1056C52.5849 93.5508 51.3579 93.5508 50.5993 93.1056C49.8408 92.6603 49.8408 91.9701 50.5993 91.5249C51.3579 91.0796 52.5849 91.0796 53.3435 91.5249Z" fill="#0C1033"/>
<path d="M60.5051 87.3837C61.2636 87.8289 61.2636 88.5191 60.5051 88.9644C59.7465 89.4096 58.5195 89.4096 57.7609 88.9644C57.0024 88.5191 57.0024 87.8289 57.7609 87.3837C58.5195 86.9607 59.7465 86.9607 60.5051 87.3837Z" fill="#0C1033"/>
<path d="M67.6443 83.2653C68.4028 83.7105 68.4028 84.4007 67.6443 84.846C66.8857 85.2912 65.6587 85.2912 64.9001 84.846C64.1416 84.4007 64.1416 83.7105 64.9001 83.2653C65.6587 82.8422 66.8857 82.8422 67.6443 83.2653Z" fill="#0C1033"/>
<path d="M74.7835 79.1464C75.5421 79.5916 75.5421 80.2818 74.7835 80.7271C74.025 81.1723 72.7979 81.1723 72.0394 80.7271C71.2809 80.2818 71.2809 79.5916 72.0394 79.1464C72.8202 78.7234 74.0473 78.7234 74.7835 79.1464Z" fill="#0C1033"/>
<path d="M81.9451 75.0277C82.7036 75.473 82.7036 76.1631 81.9451 76.6084C81.1865 77.0537 79.9595 77.0537 79.2009 76.6084C78.4424 76.1631 78.4424 75.473 79.2009 75.0277C79.9595 74.6047 81.1865 74.6047 81.9451 75.0277Z" fill="#0C1033"/>
<path d="M89.0844 70.9088C89.8429 71.3541 89.8429 72.0442 89.0844 72.4895C88.3258 72.9348 87.0988 72.9348 86.3402 72.4895C85.5817 72.0442 85.5817 71.3541 86.3402 70.9088C87.1211 70.4858 88.3481 70.4858 89.0844 70.9088Z" fill="#0C1033"/>
<path d="M96.2459 66.7902C97.0044 67.2354 97.0044 67.9256 96.2459 68.3709C95.4873 68.8161 94.2603 68.8161 93.5017 68.3709C92.7432 67.9256 92.7432 67.2354 93.5017 66.7902C94.2603 66.3671 95.4873 66.3671 96.2459 66.7902Z" fill="#0C1033"/>
<path d="M103.385 62.6715C104.144 63.1168 104.144 63.8069 103.385 64.2522C102.627 64.6975 101.399 64.6975 100.641 64.2522C99.8824 63.8069 99.8824 63.1168 100.641 62.6715C101.422 62.2485 102.627 62.2485 103.385 62.6715Z" fill="#0C1033"/>
<path d="M110.547 58.5526C111.305 58.9979 111.305 59.688 110.547 60.1333C109.788 60.5786 108.561 60.5786 107.803 60.1333C107.044 59.688 107.044 58.9979 107.803 58.5526C108.561 58.1296 109.788 58.1296 110.547 58.5526Z" fill="#0C1033"/>
<path d="M10.4411 108C11.1997 108.445 11.1997 109.135 10.4411 109.581C9.68259 110.026 8.45553 110.026 7.69699 109.581C6.93845 109.135 6.93845 108.445 7.69699 108C8.47784 107.555 9.7049 107.555 10.4411 108Z" fill="#0C1033"/>
<path d="M17.6027 103.881C18.3612 104.326 18.3612 105.016 17.6027 105.462C16.8441 105.907 15.6171 105.907 14.8585 105.462C14.1 105.016 14.1 104.326 14.8585 103.881C15.6171 103.436 16.8441 103.436 17.6027 103.881Z" fill="#0C1033"/>
<path d="M24.7419 99.7624C25.5004 100.208 25.5004 100.898 24.7419 101.343C23.9833 101.788 22.7563 101.788 21.9977 101.343C21.2392 100.898 21.2392 100.208 21.9977 99.7624C22.7786 99.3171 23.9833 99.3171 24.7419 99.7624Z" fill="#0C1033"/>
<path d="M31.9035 95.6435C32.662 96.0888 32.662 96.779 31.9035 97.2242C31.1449 97.6695 29.9179 97.6695 29.1593 97.2242C28.4008 96.779 28.4008 96.0888 29.1593 95.6435C29.9179 95.1983 31.1449 95.1983 31.9035 95.6435Z" fill="#0C1033"/>
<path d="M39.0427 91.5249C39.8012 91.9701 39.8012 92.6603 39.0427 93.1056C38.2842 93.5508 37.0571 93.5508 36.2986 93.1056C35.54 92.6603 35.54 91.9701 36.2986 91.5249C37.0571 91.0796 38.2842 91.0796 39.0427 91.5249Z" fill="#0C1033"/>
<path d="M46.2043 87.3837C46.9628 87.8289 46.9628 88.5191 46.2043 88.9644C45.4457 89.4096 44.2187 89.4096 43.4601 88.9644C42.7016 88.5191 42.7016 87.8289 43.4601 87.3837C44.2187 86.9607 45.4457 86.9607 46.2043 87.3837Z" fill="#0C1033"/>
<path d="M53.3435 83.2653C54.102 83.7105 54.102 84.4007 53.3435 84.846C52.5849 85.2912 51.3579 85.2912 50.5993 84.846C49.8408 84.4007 49.8408 83.7105 50.5993 83.2653C51.3579 82.8422 52.5849 82.8422 53.3435 83.2653Z" fill="#0C1033"/>
<path d="M60.5051 79.1464C61.2636 79.5916 61.2636 80.2818 60.5051 80.7271C59.7465 81.1723 58.5195 81.1723 57.7609 80.7271C57.0024 80.2818 57.0024 79.5916 57.7609 79.1464C58.5195 78.7234 59.7465 78.7234 60.5051 79.1464Z" fill="#0C1033"/>
<path d="M67.6443 75.0277C68.4028 75.473 68.4028 76.1631 67.6443 76.6084C66.8857 77.0537 65.6587 77.0537 64.9001 76.6084C64.1416 76.1631 64.1416 75.473 64.9001 75.0277C65.6587 74.6047 66.8857 74.6047 67.6443 75.0277Z" fill="#0C1033"/>
<path d="M74.7835 70.9088C75.5421 71.3541 75.5421 72.0442 74.7835 72.4895C74.025 72.9348 72.7979 72.9348 72.0394 72.4895C71.2809 72.0442 71.2809 71.3541 72.0394 70.9088C72.8202 70.4858 74.0473 70.4858 74.7835 70.9088Z" fill="#0C1033"/>
<path d="M81.9451 66.7902C82.7036 67.2354 82.7036 67.9256 81.9451 68.3709C81.1865 68.8161 79.9595 68.8161 79.2009 68.3709C78.4424 67.9256 78.4424 67.2354 79.2009 66.7902C79.9595 66.3671 81.1865 66.3671 81.9451 66.7902Z" fill="#0C1033"/>
<path d="M89.0844 62.6715C89.8429 63.1168 89.8429 63.8069 89.0844 64.2522C88.3258 64.6975 87.0988 64.6975 86.3402 64.2522C85.5817 63.8069 85.5817 63.1168 86.3402 62.6715C87.1211 62.2485 88.3481 62.2485 89.0844 62.6715Z" fill="#0C1033"/>
<path d="M96.2459 58.5526C97.0044 58.9979 97.0044 59.688 96.2459 60.1333C95.4873 60.5786 94.2603 60.5786 93.5017 60.1333C92.7432 59.688 92.7432 58.9979 93.5017 58.5526C94.2603 58.1296 95.4873 58.1296 96.2459 58.5526Z" fill="#0C1033"/>
<path d="M103.385 54.4342C104.144 54.8795 104.144 55.5696 103.385 56.0149C102.627 56.4602 101.399 56.4602 100.641 56.0149C99.8824 55.5696 99.8824 54.8795 100.641 54.4342C101.422 54.0112 102.627 54.0112 103.385 54.4342Z" fill="#0C1033"/>
<path d="M3.30188 103.881C4.06043 104.326 4.06043 105.016 3.30188 105.462C2.54334 105.907 1.31628 105.907 0.557739 105.462C-0.200806 105.016 -0.200806 104.326 0.557739 103.881C1.31628 103.436 2.54334 103.436 3.30188 103.881Z" fill="#0C1033"/>
<path d="M10.4411 99.7624C11.1997 100.208 11.1997 100.898 10.4411 101.343C9.68259 101.788 8.45553 101.788 7.69699 101.343C6.93845 100.898 6.93845 100.208 7.69699 99.7624C8.47784 99.3171 9.7049 99.3171 10.4411 99.7624Z" fill="#0C1033"/>
<path d="M16.2418 97.5359C17.3137 97.5359 18.1827 97.0375 18.1827 96.4227C18.1827 95.808 17.3137 95.3096 16.2418 95.3096C15.1698 95.3096 14.3008 95.808 14.3008 96.4227C14.3008 97.0375 15.1698 97.5359 16.2418 97.5359Z" fill="#0C1033"/>
<path d="M24.7419 91.5249C25.5004 91.9701 25.5004 92.6603 24.7419 93.1056C23.9833 93.5508 22.7563 93.5508 21.9977 93.1056C21.2392 92.6603 21.2392 91.9701 21.9977 91.5249C22.7786 91.0796 23.9833 91.0796 24.7419 91.5249Z" fill="#0C1033"/>
<path d="M31.9035 87.3837C32.662 87.8289 32.662 88.5191 31.9035 88.9644C31.1449 89.4096 29.9179 89.4096 29.1593 88.9644C28.4008 88.5191 28.4008 87.8289 29.1593 87.3837C29.9179 86.9607 31.1449 86.9607 31.9035 87.3837Z" fill="#0C1033"/>
<path d="M39.0427 83.2653C39.8012 83.7105 39.8012 84.4007 39.0427 84.846C38.2842 85.2912 37.0571 85.2912 36.2986 84.846C35.54 84.4007 35.54 83.7105 36.2986 83.2653C37.0794 82.8422 38.2842 82.8422 39.0427 83.2653Z" fill="#0C1033"/>
<path d="M46.2043 79.1464C46.9628 79.5916 46.9628 80.2818 46.2043 80.7271C45.4457 81.1723 44.2187 81.1723 43.4601 80.7271C42.7016 80.2818 42.7016 79.5916 43.4601 79.1464C44.2187 78.7234 45.4457 78.7234 46.2043 79.1464Z" fill="#0C1033"/>
<path d="M53.3435 75.0277C54.102 75.473 54.102 76.1631 53.3435 76.6084C52.5849 77.0537 51.3579 77.0537 50.5993 76.6084C49.8408 76.1631 49.8408 75.473 50.5993 75.0277C51.3579 74.6047 52.5849 74.6047 53.3435 75.0277Z" fill="#0C1033"/>
<path d="M60.5051 70.9088C61.2636 71.3541 61.2636 72.0442 60.5051 72.4895C59.7465 72.9348 58.5195 72.9348 57.7609 72.4895C57.0024 72.0442 57.0024 71.3541 57.7609 70.9088C58.5195 70.4858 59.7465 70.4858 60.5051 70.9088Z" fill="#0C1033"/>
<path d="M66.2834 68.7049C67.3553 68.7049 68.2243 68.2065 68.2243 67.5917C68.2243 66.9769 67.3553 66.4785 66.2834 66.4785C65.2114 66.4785 64.3424 66.9769 64.3424 67.5917C64.3424 68.2065 65.2114 68.7049 66.2834 68.7049Z" fill="#0C1033"/>
<path d="M74.8058 62.6715C75.5644 63.1168 75.5644 63.8069 74.8058 64.2522C74.0473 64.6975 72.8202 64.6975 72.0617 64.2522C71.3031 63.8069 71.3031 63.1168 72.0617 62.6715C72.8202 62.2485 74.0473 62.2485 74.8058 62.6715Z" fill="#0C1033"/>
<path d="M81.9451 58.5526C82.7036 58.9979 82.7036 59.688 81.9451 60.1333C81.1865 60.5786 79.9595 60.5786 79.2009 60.1333C78.4424 59.688 78.4424 58.9979 79.2009 58.5526C79.9595 58.1296 81.1865 58.1296 81.9451 58.5526Z" fill="#0C1033"/>
<path d="M89.0844 54.4342C89.8429 54.8795 89.8429 55.5696 89.0844 56.0149C88.3258 56.4602 87.0988 56.4602 86.3402 56.0149C85.5817 55.5696 85.5817 54.8795 86.3402 54.4342C87.1211 54.0112 88.3481 54.0112 89.0844 54.4342Z" fill="#0C1033"/>
<path d="M96.2459 50.3153C97.0044 50.7606 97.0044 51.4507 96.2459 51.896C95.4873 52.3413 94.2603 52.3413 93.5017 51.896C92.7432 51.4507 92.7432 50.7606 93.5017 50.3153C94.2603 49.8923 95.4873 49.8923 96.2459 50.3153Z" fill="#0C1033"/>
<path d="M3.30188 95.6435C4.06043 96.0888 4.06043 96.779 3.30188 97.2242C2.54334 97.6695 1.31628 97.6695 0.557739 97.2242C-0.200806 96.779 -0.200806 96.0888 0.557739 95.6435C1.31628 95.1983 2.54334 95.1983 3.30188 95.6435Z" fill="#0C1033"/>
<path d="M7.71927 91.5249C8.47781 91.0796 9.70487 91.0796 10.4634 91.5249C11.222 91.9701 11.222 92.6603 10.4634 93.1056C9.70487 93.5508 8.47781 93.5508 7.71927 93.1056C6.96072 92.6603 6.96072 91.9479 7.71927 91.5249C8.47781 91.0796 6.96072 91.9479 7.71927 91.5249Z" fill="#0C1033"/>
<path d="M17.6027 87.3838C18.3612 87.829 18.3612 88.5192 17.6027 88.9645C16.8441 89.4097 15.6171 89.4097 14.8585 88.9645C14.1 88.5415 16.8441 86.9607 17.6027 87.3838Z" fill="#0C1033"/>
<path d="M22.0201 83.2651C22.7786 82.8198 24.0057 82.8198 24.7642 83.2651C25.5228 83.7104 25.5228 84.4005 24.7642 84.8458C24.0057 85.2911 22.7786 85.2911 22.0201 84.8458C21.2615 84.4005 21.2615 83.7104 22.0201 83.2651C22.7786 82.8421 21.2615 83.7104 22.0201 83.2651Z" fill="#0C1033"/>
<path d="M29.1593 79.1465C29.9179 78.7012 31.1449 78.7012 31.9035 79.1465C32.662 79.5917 32.662 80.2819 31.9035 80.7272C31.1449 81.1724 29.9179 81.1724 29.1593 80.7272C28.4008 80.3041 28.4008 79.5917 29.1593 79.1465C29.9179 78.7234 28.4008 79.5917 29.1593 79.1465Z" fill="#0C1033"/>
<path d="M36.3209 75.0276C37.0794 74.5823 38.3065 74.5823 39.065 75.0276C39.8236 75.4728 39.8236 76.163 39.065 76.6083C38.3065 77.0535 37.0794 77.0535 36.3209 76.6083C35.5623 76.1853 35.5623 75.4728 36.3209 75.0276C37.0794 74.6045 35.5623 75.4728 36.3209 75.0276Z" fill="#0C1033"/>
<path d="M43.4601 70.9089C44.2187 70.4636 45.4457 70.4636 46.2043 70.9089C46.9628 71.3542 46.9628 72.0443 46.2043 72.4896C45.4457 72.9349 44.2187 72.9349 43.4601 72.4896C42.7016 72.0443 42.7016 71.3542 43.4601 70.9089C44.2187 70.4859 42.7016 71.3542 43.4601 70.9089Z" fill="#0C1033"/>
<path d="M53.3435 66.7902C54.102 67.2354 54.102 67.9256 53.3435 68.3709C52.5849 68.8161 51.3579 68.8161 50.5993 68.3709C49.8408 67.9256 49.8408 67.2354 50.5993 66.7902C51.3579 66.3671 52.5849 66.3671 53.3435 66.7902Z" fill="#0C1033"/>
<path d="M57.7609 62.6714C58.5195 62.2261 59.7465 62.2261 60.5051 62.6714C61.2636 63.1166 61.2636 63.8068 60.5051 64.2521C59.7465 64.6973 58.5195 64.6973 57.7609 64.2521C57.0024 63.8291 57.0024 63.1166 57.7609 62.6714C58.5195 62.2483 57.0024 63.1166 57.7609 62.6714Z" fill="#0C1033"/>
<path d="M64.9001 58.5529C65.6587 58.1077 66.8857 58.1077 67.6443 58.5529C68.4028 58.9982 68.4028 59.6884 67.6443 60.1337C66.8857 60.5789 65.6587 60.5789 64.9001 60.1337C64.1639 59.7106 64.1639 58.9982 64.9001 58.5529C65.6587 58.1299 64.1639 58.9982 64.9001 58.5529Z" fill="#0C1033"/>
<path d="M72.0617 54.434C72.8202 53.9888 74.0473 53.9888 74.8058 54.434C75.5644 54.8793 75.5644 55.5695 74.8058 56.0148C74.0473 56.46 72.8202 56.46 72.0617 56.0148C71.3031 55.5917 71.3031 54.8793 72.0617 54.434C72.8202 54.011 71.3031 54.8793 72.0617 54.434Z" fill="#0C1033"/>
<path d="M79.201 50.3152C79.9595 49.8699 81.1866 49.8699 81.9451 50.3152C82.7036 50.7604 82.7036 51.4506 81.9451 51.8959C81.1866 52.3411 79.9595 52.3411 79.201 51.8959C78.4647 51.4728 78.4647 50.7604 79.201 50.3152C79.9595 49.8921 78.4647 50.7604 79.201 50.3152Z" fill="#0C1033"/>
<path d="M86.3625 46.1965C87.121 45.7512 88.3481 45.7512 89.1066 46.1965C89.8652 46.6418 89.8652 47.3319 89.1066 47.7772C88.3481 48.2225 87.121 48.2225 86.3625 47.7772C85.6039 47.3542 85.6039 46.6418 86.3625 46.1965C87.121 45.7735 85.6039 46.6418 86.3625 46.1965Z" fill="#0C1033"/>
<path d="M117.686 54.4117C118.444 54.857 118.444 55.5472 117.686 55.9924C116.927 56.4377 115.7 56.4377 114.942 55.9924C114.183 55.5472 114.183 54.857 114.942 54.4117C115.7 53.9887 116.927 53.9887 117.686 54.4117Z" fill="#0C1033"/>
<path d="M124.825 50.2928C125.584 50.7381 125.584 51.4283 124.825 51.8735C124.067 52.3188 122.84 52.3188 122.081 51.8735C121.322 51.4283 121.322 50.7381 122.081 50.2928C122.862 49.8698 124.089 49.8698 124.825 50.2928Z" fill="#0C1033"/>
<path d="M131.987 46.1743C132.745 46.6196 132.745 47.3097 131.987 47.755C131.228 48.2003 130.001 48.2003 129.243 47.755C128.484 47.3097 128.484 46.6196 129.243 46.1743C130.001 45.729 131.228 45.7513 131.987 46.1743Z" fill="#0C1033"/>
<path d="M139.126 42.0555C139.884 42.5008 139.884 43.191 139.126 43.6362C138.367 44.0815 137.14 44.0815 136.382 43.6362C135.623 43.191 135.623 42.5008 136.382 42.0555C137.163 41.6325 138.39 41.6325 139.126 42.0555Z" fill="#0C1033"/>
<path d="M146.288 39.5177C145.529 39.9629 144.302 39.9629 143.543 39.5177C142.785 39.0724 142.785 38.3822 143.543 37.937C144.302 37.4917 145.529 37.4917 146.288 37.937C147.046 38.3822 147.046 39.0724 146.288 39.5177C145.529 39.9629 147.046 39.0724 146.288 39.5177Z" fill="#0C1033"/>
<path d="M153.427 33.8182C154.185 34.2635 154.185 34.9537 153.427 35.3989C152.668 35.8442 151.441 35.8442 150.683 35.3989C149.924 34.9537 149.924 34.2635 150.683 33.8182C151.463 33.3952 152.668 33.3952 153.427 33.8182Z" fill="#0C1033"/>
<path d="M160.588 29.6993C161.347 30.1446 161.347 30.8348 160.588 31.28C159.83 31.7253 158.603 31.7253 157.844 31.28C157.086 30.8348 157.086 30.1446 157.844 29.6993C158.603 29.2763 159.83 29.2763 160.588 29.6993Z" fill="#0C1033"/>
<path d="M167.728 25.5807C168.486 26.026 168.486 26.7161 167.728 27.1614C166.969 27.6067 165.742 27.6067 164.983 27.1614C164.225 26.7161 164.225 26.026 164.983 25.5807C165.742 25.1577 166.969 25.1577 167.728 25.5807Z" fill="#0C1033"/>
<path d="M110.547 50.2928C111.305 50.7381 111.305 51.4283 110.547 51.8735C109.788 52.3188 108.561 52.3188 107.803 51.8735C107.044 51.4283 107.044 50.7381 107.803 50.2928C108.561 49.8698 109.788 49.8698 110.547 50.2928Z" fill="#0C1033"/>
<path d="M117.686 46.1744C118.444 46.6197 118.444 47.3099 117.686 47.7551C116.927 48.2004 115.7 48.2004 114.942 47.7551C114.183 47.3099 114.183 46.6197 114.942 46.1744C115.7 45.7514 116.927 45.7514 117.686 46.1744Z" fill="#0C1033"/>
<path d="M124.825 42.0555C125.584 42.5008 125.584 43.191 124.825 43.6362C124.067 44.0815 122.84 44.0815 122.081 43.6362C121.322 43.191 121.322 42.5008 122.081 42.0555C122.862 41.6325 124.089 41.6325 124.825 42.0555Z" fill="#0C1033"/>
<path d="M131.987 37.9367C132.745 38.382 132.745 39.0722 131.987 39.5174C131.228 39.9627 130.001 39.9627 129.243 39.5174C128.484 39.0722 128.484 38.382 129.243 37.9367C130.001 37.4915 131.228 37.5137 131.987 37.9367Z" fill="#0C1033"/>
<path d="M139.126 33.8182C139.884 34.2635 139.884 34.9537 139.126 35.3989C138.367 35.8442 137.14 35.8442 136.382 35.3989C135.623 34.9537 135.623 34.2635 136.382 33.8182C137.163 33.3952 138.39 33.3952 139.126 33.8182Z" fill="#0C1033"/>
<path d="M146.288 29.6993C147.046 30.1446 147.046 30.8348 146.288 31.28C145.529 31.7253 144.302 31.7253 143.543 31.28C142.785 30.8348 142.785 30.1446 143.543 29.6993C144.302 29.2763 145.529 29.2763 146.288 29.6993Z" fill="#0C1033"/>
<path d="M153.427 25.5807C154.185 26.026 154.185 26.7161 153.427 27.1614C152.668 27.6067 151.441 27.6067 150.683 27.1614C149.924 26.7161 149.924 26.026 150.683 25.5807C151.463 25.1577 152.668 25.1577 153.427 25.5807Z" fill="#0C1033"/>
<path d="M160.588 21.4618C161.347 21.9071 161.347 22.5972 160.588 23.0425C159.83 23.4878 158.603 23.4878 157.844 23.0425C157.086 22.5972 157.086 21.9071 157.844 21.4618C158.603 21.0388 159.83 21.0388 160.588 21.4618Z" fill="#0C1033"/>
<path d="M167.728 17.3429C168.486 17.7882 168.486 18.4783 167.728 18.9236C166.969 19.3689 165.742 19.3689 164.983 18.9236C164.225 18.4783 164.225 17.7882 164.983 17.3429C165.742 16.9199 166.969 16.9199 167.728 17.3429Z" fill="#0C1033"/>
<path d="M103.385 46.1744C104.144 46.6197 104.144 47.3099 103.385 47.7551C102.627 48.2004 101.399 48.2004 100.641 47.7551C99.8824 47.3099 99.8824 46.6197 100.641 46.1744C101.399 45.7514 102.627 45.7514 103.385 46.1744Z" fill="#0C1033"/>
<path d="M110.547 42.0555C111.305 42.5008 111.305 43.191 110.547 43.6362C109.788 44.0815 108.561 44.0815 107.803 43.6362C107.044 43.191 107.044 42.5008 107.803 42.0555C108.561 41.6325 109.788 41.6325 110.547 42.0555Z" fill="#0C1033"/>
<path d="M117.686 37.9366C118.444 38.3819 118.444 39.0721 117.686 39.5173C116.927 39.9626 115.7 39.9626 114.942 39.5173C114.183 39.0721 114.183 38.3819 114.942 37.9366C115.7 37.5136 116.927 37.5136 117.686 37.9366Z" fill="#0C1033"/>
<path d="M123.464 35.7327C124.536 35.7327 125.405 35.2343 125.405 34.6195C125.405 34.0047 124.536 33.5063 123.464 33.5063C122.392 33.5063 121.523 34.0047 121.523 34.6195C121.523 35.2343 122.392 35.7327 123.464 35.7327Z" fill="#0C1033"/>
<path d="M131.987 29.6993C132.745 30.1446 132.745 30.8348 131.987 31.28C131.228 31.7253 130.001 31.7253 129.243 31.28C128.484 30.8348 128.484 30.1446 129.243 29.6993C130.001 29.2763 131.228 29.2763 131.987 29.6993Z" fill="#0C1033"/>
<path d="M139.126 25.5807C139.884 26.026 139.884 26.7161 139.126 27.1614C138.367 27.6067 137.14 27.6067 136.382 27.1614C135.623 26.7161 135.623 26.026 136.382 25.5807C137.163 25.1577 138.39 25.1577 139.126 25.5807Z" fill="#0C1033"/>
<path d="M146.288 21.4618C147.046 21.9071 147.046 22.5972 146.288 23.0425C145.529 23.4878 144.302 23.4878 143.543 23.0425C142.785 22.5972 142.785 21.9071 143.543 21.4618C144.302 21.0388 145.529 21.0388 146.288 21.4618Z" fill="#0C1033"/>
<path d="M152.066 19.2578C153.138 19.2578 154.007 18.7595 154.007 18.1447C154.007 17.5299 153.138 17.0315 152.066 17.0315C150.994 17.0315 150.125 17.5299 150.125 18.1447C150.125 18.7595 150.994 19.2578 152.066 19.2578Z" fill="#0C1033"/>
<path d="M157.844 13.2243C158.603 12.7791 159.83 12.7791 160.588 13.2243C161.347 13.6696 161.347 14.3598 160.588 14.805C159.83 15.2503 158.603 15.2503 157.844 14.805C157.086 14.3598 157.086 13.6696 157.844 13.2243C158.603 12.8013 157.086 13.6696 157.844 13.2243Z" fill="#0C1033"/>
<path d="M96.2459 42.0556C97.0044 42.5009 97.0044 43.1911 96.2459 43.6363C95.4873 44.0816 94.2603 44.0816 93.5017 43.6363C92.7432 43.2133 95.4873 41.6326 96.2459 42.0556Z" fill="#0C1033"/>
<path d="M20.3691 78.924L155.903 1.93696C159.25 0.0445633 163.489 1.20226 165.385 4.54178C167.281 7.8813 166.121 12.1114 162.775 14.0037L27.2629 90.9908C23.9164 92.8832 19.6775 91.7255 17.7811 88.3859C15.8624 85.0687 17.0449 80.8164 20.3691 78.924Z" fill="white"/>
<path d="M20.3691 81.3949L155.881 4.4079C159.227 2.51551 163.466 3.67321 165.363 7.01273C167.259 10.3522 164.069 12.4895 160.722 14.3819L27.2406 89.4766C23.8941 91.3689 19.6552 94.2187 17.7588 90.8792C15.8625 87.5396 17.0226 83.3096 20.3691 81.3949Z" fill="#97C3F9"/>
<path d="M165.095 4.5195C164.046 2.67163 162.262 1.51393 160.298 1.15771C161.615 4.34139 160.41 8.05938 157.331 9.8182L21.8416 86.8052C20.3468 87.6512 18.6959 87.8516 17.1342 87.5622C17.2457 87.8293 17.3349 88.1187 17.4911 88.3636C19.3875 91.7032 23.6487 92.8609 26.9729 90.9685L162.507 13.9815C165.831 12.0891 167.014 7.85901 165.095 4.5195Z" fill="#0C1033"/>
<path d="M23.8272 92.9276C23.1133 92.9276 22.3993 92.8386 21.7077 92.6382C19.6552 92.0816 17.9373 90.7458 16.8887 88.8979C15.8402 87.0501 15.5724 84.8905 16.1302 82.8423C16.6879 80.794 18.0265 79.0798 19.8783 78.0334L155.39 1.04637C157.242 -1.49165e-05 159.406 -0.267176 161.458 0.28941C163.511 0.845996 165.229 2.1818 166.277 4.02967C168.464 7.85898 167.103 12.7347 163.288 14.8942L27.7761 91.8812C26.549 92.5714 25.1881 92.9276 23.8272 92.9276ZM159.317 2.04822C158.29 2.04822 157.309 2.31538 156.394 2.82744L20.8822 79.8145C19.499 80.5937 18.5174 81.8627 18.0935 83.3989C17.6696 84.935 17.8704 86.5158 18.6512 87.8961C19.4321 89.2764 20.7038 90.256 22.2432 90.679C23.7826 91.102 25.3666 90.9016 26.7498 90.1224L162.262 13.1132C163.645 12.3339 164.626 11.0649 165.05 9.52874C165.474 7.99256 165.273 6.41186 164.493 5.03152C163.712 3.65119 162.44 2.6716 160.901 2.24859C160.387 2.11501 159.852 2.04822 159.317 2.04822Z" fill="#0C1033"/>
<path d="M97.2052 31.592L146.644 3.49555C147.983 2.7386 149.701 3.20613 150.482 4.54194L150.749 5.00947C151.508 6.34528 151.039 8.05956 149.701 8.83878L100.239 36.9353C98.9007 37.6922 97.1829 37.2247 96.402 35.8889L96.1566 35.3991C95.3757 34.0633 95.8443 32.349 97.2052 31.592Z" fill="#0C1033"/>
<path d="M97.2052 34.1298L146.644 6.05561C147.983 5.29865 149.701 5.76619 150.482 7.10199L150.749 7.56953C151.508 8.90533 151.04 10.6196 149.701 11.3988L100.239 39.473C98.9007 40.23 97.1829 39.7625 96.402 38.4267L96.1343 37.9591C95.3757 36.6011 95.8443 34.909 97.2052 34.1298Z" fill="white"/>
<path d="M98.8561 38.3377C98.5215 38.3377 98.1645 38.2932 97.8298 38.2041C96.8482 37.9369 96.0227 37.2913 95.5096 36.4008L95.2419 35.9332C94.7287 35.0427 94.6172 34.0186 94.8849 33.0167C95.1526 32.0371 95.7996 31.2134 96.692 30.7013L146.131 2.60484C147.024 2.09278 148.05 1.98147 149.054 2.24863C150.036 2.51579 150.861 3.16143 151.374 4.05197L151.642 4.5195C152.69 6.3451 152.043 8.70503 150.214 9.75141L100.752 37.8256C100.172 38.1596 99.5254 38.3377 98.8561 38.3377ZM148.028 4.16329C147.715 4.16329 147.425 4.25234 147.158 4.40818L97.7183 32.4824C97.3167 32.7273 97.0044 33.1058 96.8928 33.551C96.759 34.0186 96.8259 34.4861 97.0713 34.9091L97.339 35.3766C97.5844 35.7997 97.9637 36.0891 98.4099 36.2227C98.8784 36.3562 99.3469 36.2895 99.7485 36.0446L149.165 7.94807C150.013 7.45828 150.326 6.38963 149.835 5.52136L149.567 5.05382C149.322 4.65308 148.942 4.34139 148.496 4.23008C148.34 4.18555 148.184 4.16329 148.028 4.16329Z" fill="#0C1033"/>
<path d="M22.087 92.1484L23.2248 91.2133C25.2327 89.5658 25.6343 86.627 24.1172 84.512C22.8678 82.7532 20.6145 81.9962 18.562 82.6641L16.9556 83.1762L6.69297 93.0389C6.02367 93.6846 5.88981 94.6864 6.33601 95.4879C6.80452 96.3116 7.78617 96.6901 8.70088 96.4007L22.087 92.1484Z" fill="#97C3F9"/>
<path d="M22.3547 95.6218L23.4925 94.6867C25.5004 93.0392 25.902 90.1004 24.3849 87.9854C23.1355 86.2266 20.8822 85.4696 18.8297 86.1375L17.2457 86.6496L6.98301 96.5123C6.31371 97.1579 6.17985 98.1598 6.62605 98.9613C7.09456 99.785 8.07621 100.164 8.99092 99.8741L22.3547 95.6218Z" fill="white"/>
<path d="M8.09854 97.5139C7.02765 97.5139 6.00138 96.9351 5.44363 95.9777C4.75202 94.7755 4.97512 93.2393 5.97907 92.282L16.4202 82.2635L18.2273 81.6846C20.7261 80.9054 23.4256 81.7959 24.9427 83.9332C26.7498 86.4712 26.2813 90.0334 23.8718 92.0149L22.3993 93.128L9.01325 97.3803C8.72322 97.4694 8.41088 97.5139 8.09854 97.5139ZM17.5134 84.0891L7.40692 93.7737C7.07227 94.0853 7.00534 94.5751 7.22844 94.9759C7.45154 95.3766 7.94236 95.577 8.38857 95.4212L21.5739 91.2356L22.5555 90.4341C24.1395 89.1429 24.4519 86.8052 23.2694 85.1354C22.2655 83.7328 20.503 83.1317 18.8743 83.6661L17.5134 84.0891Z" fill="#0C1033"/>
<path d="M98.2092 154.086C98.9677 154.531 98.9677 155.221 98.2092 155.666C97.4506 156.112 96.2236 156.112 95.465 155.666C94.7065 155.221 94.7065 154.531 95.465 154.086C96.2236 153.663 97.4506 153.663 98.2092 154.086Z" fill="#0C1033"/>
<path d="M105.348 149.967C106.107 150.412 106.107 151.102 105.348 151.547C104.59 151.993 103.363 151.993 102.604 151.547C101.846 151.102 101.846 150.412 102.604 149.967C103.385 149.544 104.612 149.544 105.348 149.967Z" fill="#0C1033"/>
<path d="M112.51 145.848C113.269 146.293 113.269 146.983 112.51 147.428C111.751 147.874 110.524 147.874 109.766 147.428C109.007 146.983 109.007 146.293 109.766 145.848C110.524 145.425 111.751 145.425 112.51 145.848Z" fill="#0C1033"/>
<path d="M83.9084 154.086C84.6669 154.531 84.6669 155.221 83.9084 155.666C83.1499 156.112 81.9228 156.112 81.1642 155.666C80.4057 155.221 80.4057 154.531 81.1642 154.086C81.9228 153.663 83.1499 153.663 83.9084 154.086Z" fill="#0C1033"/>
<path d="M91.0476 149.967C91.8062 150.412 91.8062 151.102 91.0476 151.547C90.2891 151.993 89.062 151.993 88.3035 151.547C87.5449 151.102 87.5449 150.412 88.3035 149.967C89.0843 149.544 90.3114 149.544 91.0476 149.967Z" fill="#0C1033"/>
<path d="M98.2092 145.848C98.9677 146.293 98.9677 146.983 98.2092 147.428C97.4506 147.874 96.2236 147.874 95.465 147.428C94.7065 146.983 94.7065 146.293 95.465 145.848C96.2236 145.425 97.4506 145.425 98.2092 145.848Z" fill="#0C1033"/>
<path d="M105.348 141.729C106.107 142.175 106.107 142.865 105.348 143.31C104.59 143.755 103.363 143.755 102.604 143.31C101.846 142.865 101.846 142.175 102.604 141.729C103.385 141.306 104.612 141.306 105.348 141.729Z" fill="#0C1033"/>
<path d="M112.51 137.61C113.269 138.056 113.269 138.746 112.51 139.191C111.751 139.636 110.524 139.636 109.766 139.191C109.007 138.746 109.007 138.056 109.766 137.61C110.524 137.187 111.751 137.187 112.51 137.61Z" fill="#0C1033"/>
<path d="M76.7691 149.967C77.5277 150.412 77.5277 151.102 76.7691 151.547C76.0106 151.993 74.7835 151.993 74.025 151.547C73.2664 151.102 73.2664 150.412 74.025 149.967C74.7835 149.544 76.0106 149.544 76.7691 149.967Z" fill="#0C1033"/>
<path d="M83.9084 145.848C84.6669 146.293 84.6669 146.983 83.9084 147.428C83.1499 147.874 81.9228 147.874 81.1642 147.428C80.4057 146.983 80.4057 146.293 81.1642 145.848C81.9228 145.425 83.1499 145.425 83.9084 145.848Z" fill="#0C1033"/>
<path d="M69.6076 145.848C70.3662 146.293 70.3662 146.983 69.6076 147.428C68.8491 147.874 67.622 147.874 66.8635 147.428C66.1049 146.983 66.1049 146.293 66.8635 145.848C67.622 145.425 68.8491 145.425 69.6076 145.848Z" fill="#0C1033"/>
<path d="M76.7691 141.729C77.5277 142.175 77.5277 142.865 76.7691 143.31C76.0106 143.755 74.7835 143.755 74.025 143.31C73.2664 142.865 73.2664 142.175 74.025 141.729C74.7835 141.306 76.0106 141.306 76.7691 141.729Z" fill="#0C1033"/>
<path d="M62.4014 141.685C63.1599 142.13 63.1599 142.82 62.4014 143.265C61.6429 143.711 60.4158 143.711 59.6573 143.265C58.8987 142.82 58.8987 142.13 59.6573 141.685C60.4158 141.262 61.6429 141.262 62.4014 141.685Z" fill="#0C1033"/>
<path d="M69.5407 137.566C70.2992 138.011 70.2992 138.701 69.5407 139.147C68.7821 139.592 67.5551 139.592 66.7965 139.147C66.038 138.701 66.038 138.011 66.7965 137.566C67.5774 137.143 68.7821 137.143 69.5407 137.566Z" fill="#0C1033"/>
<path d="M55.2399 137.566C55.9984 138.011 55.9984 138.701 55.2399 139.147C54.4813 139.592 53.2543 139.592 52.4957 139.147C51.7372 138.701 51.7372 138.011 52.4957 137.566C53.2766 137.143 54.5036 137.143 55.2399 137.566Z" fill="#0C1033"/>
<path d="M62.4014 133.447C63.1599 133.893 63.1599 134.583 62.4014 135.028C61.6429 135.473 60.4158 135.473 59.6573 135.028C58.8987 134.583 58.8987 133.893 59.6573 133.447C60.4158 133.024 61.6429 133.024 62.4014 133.447Z" fill="#0C1033"/>
<path d="M55.2399 129.328C55.9984 129.774 55.9984 130.464 55.2399 130.909C54.4813 131.354 53.2543 131.354 52.4957 130.909C51.7372 130.464 51.7372 129.774 52.4957 129.328C53.2766 128.905 54.5036 128.905 55.2399 129.328Z" fill="#0C1033"/>
<path d="M85.3808 142.374L55.9315 125.41C53.522 124.029 52.6742 113.677 55.4407 112.074L69.2506 112.72C72.0171 111.117 76.2337 110.938 78.6209 112.341L109.141 121.425C111.551 122.805 110.167 133.113 107.379 134.716L94.7288 141.996C91.9846 143.599 87.7903 143.777 85.3808 142.374Z" fill="#0C1033"/>
<path d="M89.4636 144.312C87.7681 144.312 86.1394 143.955 84.89 143.243L55.4407 126.278C53.5666 125.209 52.7188 121.091 52.7188 117.707C52.7188 115.77 53.0089 112.341 54.9499 111.228L55.1953 111.072L69.0052 111.718C72.0617 110.093 76.3676 109.959 79.0002 111.406L109.632 120.534C111.06 121.358 111.372 123.696 111.372 125.499C111.372 128.838 110.301 134.159 107.892 135.54L95.242 142.82C93.5687 143.822 91.4715 144.312 89.4636 144.312ZM55.7753 113.098C55.2399 113.655 54.7268 115.213 54.7268 117.729C54.7268 121.358 55.7307 124.163 56.4446 124.586L85.894 141.551C87.9912 142.753 91.8285 142.575 94.2826 141.172L106.932 133.892C108.182 133.158 109.431 129.039 109.431 125.566C109.431 123.629 109.052 122.627 108.762 122.36L78.1747 113.232C76.0776 112.03 72.2402 112.208 69.7861 113.61L69.5407 113.766L55.7753 113.098Z" fill="#0C1033"/>
<path d="M85.3809 133.603L55.9315 116.638C53.522 115.258 53.8344 112.831 56.6008 111.228L69.2507 103.948C72.0171 102.345 76.2337 102.167 78.6209 103.569L108.07 120.534C110.48 121.914 110.167 124.341 107.401 125.944L94.7511 133.224C91.9847 134.805 87.7904 134.983 85.3809 133.603Z" fill="#97C3F9"/>
<path d="M69.2953 110.582L56.6454 117.862C56.6008 117.885 56.5562 117.929 56.5116 117.952L85.3586 134.582C87.7681 135.963 91.9624 135.785 94.7288 134.204L107.379 126.901C107.423 126.879 107.468 126.835 107.513 126.812L78.6655 110.204C76.256 108.801 72.0617 108.979 69.2953 110.582Z" fill="white"/>
<path d="M89.4636 135.517C87.768 135.517 86.1394 135.161 84.89 134.449L55.4407 117.484C54.0798 116.705 53.3212 115.547 53.3212 114.278C53.3212 112.809 54.3475 111.384 56.11 110.36L68.7598 103.08C71.8609 101.299 76.4122 101.12 79.134 102.701L108.583 119.666C109.944 120.445 110.703 121.581 110.703 122.872C110.703 124.341 109.677 125.766 107.914 126.79L95.2643 134.07C93.5687 135.028 91.4715 135.517 89.4636 135.517ZM74.5828 103.614C72.9095 103.614 71.1247 104.015 69.7638 104.794L57.114 112.074C55.9761 112.72 55.3068 113.543 55.3068 114.278C55.3068 114.968 55.9092 115.48 56.4223 115.77L85.8717 132.735C87.9688 133.937 91.8062 133.759 94.2603 132.356L106.91 125.076C108.026 124.43 108.717 123.607 108.717 122.872C108.717 122.182 108.115 121.67 107.602 121.38L78.1524 104.415C77.2154 103.881 75.9214 103.614 74.5828 103.614Z" fill="#0C1033"/>
<path d="M90.2221 143.31L89.0174 142.798C90.4452 139.436 89.0174 135.495 89.0174 135.451L90.2444 135.005C90.2891 135.206 91.8285 139.503 90.2221 143.31Z" fill="white"/>
<path d="M71.3886 109.05L62.5998 114.118L63.5932 115.834L72.382 110.766L71.3886 109.05Z" fill="#0C1033"/>
<path d="M224.239 151.325C224.998 151.77 224.998 152.46 224.239 152.905C223.48 153.351 222.253 153.351 221.495 152.905C220.736 152.46 220.736 151.77 221.495 151.325C222.253 150.879 223.48 150.879 224.239 151.325Z" fill="#0C1033"/>
<path d="M231.378 147.206C232.137 147.651 232.137 148.341 231.378 148.786C230.62 149.232 229.393 149.232 228.634 148.786C227.876 148.341 227.876 147.651 228.634 147.206C229.393 146.761 230.62 146.761 231.378 147.206Z" fill="#0C1033"/>
<path d="M238.54 143.087C239.298 143.533 239.298 144.223 238.54 144.668C237.781 145.113 236.554 145.113 235.796 144.668C235.037 144.223 235.037 143.533 235.796 143.087C236.554 142.642 237.781 142.642 238.54 143.087Z" fill="#0C1033"/>
<path d="M245.679 138.968C246.438 139.414 246.438 140.104 245.679 140.549C244.921 140.994 243.694 140.994 242.935 140.549C242.176 140.104 242.176 139.414 242.935 138.968C243.694 138.523 244.921 138.523 245.679 138.968Z" fill="#0C1033"/>
<path d="M252.841 134.85C253.599 135.295 253.599 135.985 252.841 136.43C252.082 136.876 250.855 136.876 250.096 136.43C249.338 135.985 249.338 135.295 250.096 134.85C250.855 134.404 252.082 134.404 252.841 134.85Z" fill="#0C1033"/>
<path d="M259.98 130.731C260.738 131.176 260.738 131.866 259.98 132.312C259.221 132.757 257.994 132.757 257.236 132.312C256.477 131.866 256.477 131.176 257.236 130.731C257.994 130.286 259.221 130.286 259.98 130.731Z" fill="#0C1033"/>
<path d="M267.119 126.612C267.878 127.058 267.878 127.748 267.119 128.193C266.361 128.638 265.133 128.638 264.375 128.193C263.616 127.748 263.616 127.058 264.375 126.612C265.156 126.167 266.383 126.167 267.119 126.612Z" fill="#0C1033"/>
<path d="M274.281 122.494C275.039 122.939 275.039 123.629 274.281 124.074C273.522 124.52 272.295 124.52 271.536 124.074C270.778 123.629 270.778 122.939 271.536 122.494C272.295 122.048 273.522 122.048 274.281 122.494Z" fill="#0C1033"/>
<path d="M281.42 118.375C282.179 118.82 282.179 119.51 281.42 119.955C280.661 120.401 279.434 120.401 278.676 119.955C277.917 119.51 277.917 118.82 278.676 118.375C279.457 117.929 280.661 117.929 281.42 118.375Z" fill="#0C1033"/>
<path d="M209.938 151.325C210.697 151.77 210.697 152.46 209.938 152.905C209.18 153.351 207.953 153.351 207.194 152.905C206.436 152.46 206.436 151.77 207.194 151.325C207.953 150.879 209.18 150.879 209.938 151.325Z" fill="#0C1033"/>
<path d="M217.078 147.206C217.836 147.651 217.836 148.341 217.078 148.786C216.319 149.232 215.092 149.232 214.333 148.786C213.575 148.341 213.575 147.651 214.333 147.206C215.114 146.761 216.319 146.761 217.078 147.206Z" fill="#0C1033"/>
<path d="M224.239 143.087C224.998 143.533 224.998 144.223 224.239 144.668C223.48 145.113 222.253 145.113 221.495 144.668C220.736 144.223 220.736 143.533 221.495 143.087C222.253 142.642 223.48 142.642 224.239 143.087Z" fill="#0C1033"/>
<path d="M230.017 140.861C231.089 140.861 231.958 140.362 231.958 139.748C231.958 139.133 231.089 138.635 230.017 138.635C228.945 138.635 228.076 139.133 228.076 139.748C228.076 140.362 228.945 140.861 230.017 140.861Z" fill="#0C1033"/>
<path d="M238.54 134.85C239.298 135.295 239.298 135.985 238.54 136.43C237.781 136.876 236.554 136.876 235.796 136.43C235.037 135.985 235.037 135.295 235.796 134.85C236.554 134.404 237.781 134.404 238.54 134.85Z" fill="#0C1033"/>
<path d="M245.679 130.731C246.438 131.176 246.438 131.866 245.679 132.312C244.921 132.757 243.694 132.757 242.935 132.312C242.176 131.866 242.176 131.176 242.935 130.731C243.694 130.286 244.921 130.286 245.679 130.731Z" fill="#0C1033"/>
<path d="M252.841 126.612C253.599 127.058 253.599 127.748 252.841 128.193C252.082 128.638 250.855 128.638 250.096 128.193C249.338 127.748 249.338 127.058 250.096 126.612C250.855 126.167 252.082 126.167 252.841 126.612Z" fill="#0C1033"/>
<path d="M259.98 122.494C260.738 122.939 260.738 123.629 259.98 124.074C259.221 124.52 257.994 124.52 257.236 124.074C256.477 123.629 256.477 122.939 257.236 122.494C257.994 122.048 259.221 122.048 259.98 122.494Z" fill="#0C1033"/>
<path d="M267.119 118.375C267.878 118.82 267.878 119.51 267.119 119.955C266.361 120.401 265.133 120.401 264.375 119.955C263.616 119.51 263.616 118.82 264.375 118.375C265.156 117.929 266.383 117.929 267.119 118.375Z" fill="#0C1033"/>
<path d="M274.281 114.256C275.039 114.701 275.039 115.391 274.281 115.837C273.522 116.282 272.295 116.282 271.536 115.837C270.778 115.391 270.778 114.701 271.536 114.256C272.295 113.811 273.522 113.811 274.281 114.256Z" fill="#0C1033"/>
<path d="M281.42 110.137C282.179 110.583 282.179 111.273 281.42 111.718C280.661 112.163 279.434 112.163 278.676 111.718C277.917 111.273 277.917 110.583 278.676 110.137C279.457 109.692 280.661 109.692 281.42 110.137Z" fill="#0C1033"/>
<path d="M202.777 147.206C203.535 147.651 203.535 148.341 202.777 148.786C202.018 149.232 200.791 149.232 200.033 148.786C199.274 148.341 199.274 147.651 200.033 147.206C200.813 146.761 202.018 146.761 202.777 147.206Z" fill="#0C1033"/>
<path d="M209.938 143.087C210.697 143.533 210.697 144.223 209.938 144.668C209.18 145.113 207.953 145.113 207.194 144.668C206.436 144.223 206.436 143.533 207.194 143.087C207.953 142.642 209.18 142.642 209.938 143.087Z" fill="#0C1033"/>
<path d="M195.638 143.087C196.396 143.533 196.396 144.223 195.638 144.668C194.879 145.113 193.652 145.113 192.893 144.668C192.135 144.223 192.135 143.533 192.893 143.087C193.652 142.642 194.879 142.642 195.638 143.087Z" fill="#0C1033"/>
<path d="M202.777 138.968C203.535 139.414 203.535 140.104 202.777 140.549C202.018 140.994 200.791 140.994 200.033 140.549C199.274 140.104 199.274 139.414 200.033 138.968C200.813 138.523 202.018 138.523 202.777 138.968Z" fill="#0C1033"/>
<path d="M188.476 138.968C189.235 139.414 189.235 140.104 188.476 140.549C187.717 140.994 186.49 140.994 185.732 140.549C184.973 140.104 184.973 139.414 185.732 138.968C186.513 138.523 187.74 138.523 188.476 138.968Z" fill="#0C1033"/>
<path d="M195.638 134.85C196.396 135.295 196.396 135.985 195.638 136.43C194.879 136.876 193.652 136.876 192.893 136.43C192.135 135.985 192.135 135.295 192.893 134.85C193.652 134.404 194.879 134.404 195.638 134.85Z" fill="#0C1033"/>
<path d="M181.27 134.805C182.028 135.251 182.028 135.941 181.27 136.386C180.511 136.831 179.284 136.831 178.526 136.386C177.767 135.941 177.767 135.251 178.526 134.805C179.284 134.36 180.511 134.36 181.27 134.805Z" fill="#0C1033"/>
<path d="M187.048 132.579C188.12 132.579 188.989 132.08 188.989 131.466C188.989 130.851 188.12 130.353 187.048 130.353C185.976 130.353 185.107 130.851 185.107 131.466C185.107 132.08 185.976 132.579 187.048 132.579Z" fill="#0C1033"/>
<path d="M174.131 130.686C174.889 131.132 174.889 131.822 174.131 132.267C173.372 132.712 172.145 132.712 171.386 132.267C170.628 131.822 170.628 131.132 171.386 130.686C172.145 130.241 173.372 130.241 174.131 130.686Z" fill="#0C1033"/>
<path d="M181.27 126.568C182.028 127.013 182.028 127.703 181.27 128.148C180.511 128.594 179.284 128.594 178.526 128.148C177.767 127.703 177.767 127.013 178.526 126.568C179.284 126.122 180.511 126.122 181.27 126.568Z" fill="#0C1033"/>
<path d="M166.969 126.568C167.727 127.013 167.727 127.703 166.969 128.148C166.21 128.594 164.983 128.594 164.225 128.148C163.466 127.703 163.466 127.013 164.225 126.568C165.006 126.122 166.21 126.122 166.969 126.568Z" fill="#0C1033"/>
<path d="M174.131 122.449C174.889 122.894 174.889 123.585 174.131 124.03C173.372 124.475 172.145 124.475 171.386 124.03C170.628 123.585 170.628 122.894 171.386 122.449C172.145 122.004 173.372 122.004 174.131 122.449Z" fill="#0C1033"/>
<path d="M159.83 122.449C160.588 122.894 160.588 123.585 159.83 124.03C159.071 124.475 157.844 124.475 157.086 124.03C156.327 123.585 156.327 122.894 157.086 122.449C157.844 122.004 159.071 122.004 159.83 122.449Z" fill="#0C1033"/>
<path d="M166.969 118.33C167.727 118.776 167.727 119.466 166.969 119.911C166.21 120.356 164.983 120.356 164.225 119.911C163.466 119.466 163.466 118.776 164.225 118.33C165.006 117.885 166.21 117.885 166.969 118.33Z" fill="#0C1033"/>
<path d="M152.668 118.33C153.427 118.776 153.427 119.466 152.668 119.911C151.91 120.356 150.683 120.356 149.924 119.911C149.165 119.466 149.165 118.776 149.924 118.33C150.705 117.885 151.932 117.885 152.668 118.33Z" fill="#0C1033"/>
<path d="M159.83 114.212C160.588 114.657 160.588 115.347 159.83 115.792C159.071 116.238 157.844 116.238 157.086 115.792C156.327 115.347 156.327 114.657 157.086 114.212C157.844 113.766 159.071 113.766 159.83 114.212Z" fill="#0C1033"/>
<path d="M145.529 114.212C146.287 114.657 146.287 115.347 145.529 115.792C144.77 116.238 143.543 116.238 142.785 115.792C142.026 115.347 142.026 114.657 142.785 114.212C143.543 113.766 144.77 113.766 145.529 114.212Z" fill="#0C1033"/>
<path d="M152.668 110.093C153.427 110.538 153.427 111.228 152.668 111.673C151.91 112.119 150.683 112.119 149.924 111.673C149.165 111.228 149.165 110.538 149.924 110.093C150.705 109.647 151.932 109.647 152.668 110.093Z" fill="#0C1033"/>
<path d="M138.367 110.093C139.126 110.538 139.126 111.228 138.367 111.673C137.609 112.119 136.382 112.119 135.623 111.673C134.865 111.228 134.865 110.538 135.623 110.093C136.404 109.647 137.631 109.647 138.367 110.093Z" fill="#0C1033"/>
<path d="M145.529 105.974C146.287 106.419 146.287 107.109 145.529 107.555C144.77 108 143.543 108 142.785 107.555C142.026 107.109 142.026 106.419 142.785 105.974C143.543 105.529 144.77 105.529 145.529 105.974Z" fill="#0C1033"/>
<path d="M131.228 105.974C131.987 106.419 131.987 107.109 131.228 107.555C130.47 108 129.243 108 128.484 107.555C127.725 107.109 127.725 106.419 128.484 105.974C129.243 105.529 130.47 105.529 131.228 105.974Z" fill="#0C1033"/>
<path d="M138.367 101.855C139.126 102.301 139.126 102.991 138.367 103.436C137.609 103.881 136.382 103.881 135.623 103.436C134.865 102.991 134.865 102.301 135.623 101.855C136.404 101.41 137.631 101.41 138.367 101.855Z" fill="#0C1033"/>
<path d="M124.022 101.811C124.781 102.256 124.781 102.946 124.022 103.391C123.263 103.837 122.036 103.837 121.278 103.391C120.519 102.946 120.519 102.256 121.278 101.811C122.036 101.365 123.263 101.365 124.022 101.811Z" fill="#0C1033"/>
<path d="M131.161 97.6921C131.92 98.1374 131.92 98.8275 131.161 99.2728C130.403 99.7181 129.176 99.7181 128.417 99.2728C127.659 98.8275 127.659 98.1374 128.417 97.6921C129.198 97.2468 130.403 97.2468 131.161 97.6921Z" fill="#0C1033"/>
<path d="M116.86 97.6921C117.619 98.1374 117.619 98.8275 116.86 99.2728C116.102 99.7181 114.875 99.7181 114.116 99.2728C113.358 98.8275 113.358 98.1374 114.116 97.6921C114.897 97.2468 116.124 97.2468 116.86 97.6921Z" fill="#0C1033"/>
<path d="M124.022 93.5735C124.781 94.0187 124.781 94.7089 124.022 95.1542C123.263 95.5994 122.036 95.5994 121.278 95.1542C120.519 94.7089 120.519 94.0187 121.278 93.5735C122.036 93.1282 123.263 93.1282 124.022 93.5735Z" fill="#0C1033"/>
<path d="M116.86 89.4546C117.619 89.8998 117.619 90.59 116.86 91.0353C116.102 91.4805 114.875 91.4805 114.116 91.0353C113.358 90.59 113.358 89.8998 114.116 89.4546C114.897 89.0093 116.124 89.0093 116.86 89.4546Z" fill="#0C1033"/>
<path d="M215.382 137.032L114.562 78.9462L176.161 43.436L277.002 101.544L215.382 137.032Z" fill="#97C3F9"/>
<path d="M215.382 142.441L114.562 84.3561L176.161 48.8682L277.002 106.953L215.382 142.441Z" fill="white"/>
<path d="M215.382 136.965L119.248 81.5955L114.562 84.2893L215.382 142.375L277.002 106.887L272.295 104.171L215.382 136.965Z" fill="white"/>
<path d="M215.382 138.301L112.354 78.9462L176.161 42.1892L279.189 101.544L215.382 138.301ZM120.519 80.9276L206.636 130.531L266.048 96.2894L179.931 46.6864L120.519 80.9276Z" fill="#0C1033"/>
<path d="M230.129 97.4249L183.478 70.5529C181.069 69.1726 181.381 66.7459 184.148 65.1429L184.17 65.1207C186.959 63.5177 191.153 63.3396 193.563 64.7422L240.213 91.6142C242.623 92.9945 242.31 95.4212 239.544 97.0242L239.521 97.0464C236.755 98.6494 232.538 98.8052 230.129 97.4249Z" fill="white"/>
<path d="M231.624 101.544L184.973 74.6716C182.564 73.2913 182.876 70.8645 185.642 69.2616L185.665 69.2393C188.454 67.6363 192.648 67.4582 195.057 68.8608L241.708 95.7328C244.117 97.1131 243.805 99.5399 241.038 101.143L241.016 101.165C238.227 102.768 234.033 102.946 231.624 101.544Z" fill="#97C3F9"/>
<path d="M235.706 100.475C233.989 100.475 232.338 100.119 231.088 99.384L184.415 72.512C183.01 71.7105 182.251 70.5306 182.251 69.217C182.251 67.7031 183.3 66.256 185.107 65.2096C188.253 63.4063 192.871 63.2282 195.615 64.8089L242.266 91.6809C243.671 92.4824 244.43 93.6623 244.43 94.9759C244.43 96.4898 243.381 97.9369 241.574 98.9833C239.878 99.9851 237.737 100.475 235.706 100.475ZM232.159 97.4916C234.234 98.6716 238.004 98.4935 240.436 97.1132C241.552 96.4675 242.199 95.6883 242.199 94.9981C242.199 94.3525 241.619 93.885 241.128 93.5955L194.5 66.7013C192.425 65.5213 188.654 65.6994 186.223 67.0797C185.107 67.7254 184.46 68.5046 184.46 69.1948C184.46 69.8404 185.04 70.3079 185.531 70.5974L232.159 97.4916Z" fill="#0C1033"/>
<path d="M170.896 66.5676L170.249 66.1892C167.839 64.8088 168.151 62.3821 170.918 60.7791L170.94 60.7569C173.729 59.1539 177.923 58.9758 180.333 60.3784L180.98 60.7569C183.389 62.1372 183.077 64.5639 180.31 66.1669L180.288 66.1892C177.499 67.7699 173.283 67.948 170.896 66.5676Z" fill="#97C3F9"/>
<path d="M174.978 65.499C173.26 65.499 171.609 65.1428 170.338 64.4081L169.691 64.0296C168.285 63.2281 167.527 62.0482 167.527 60.7346C167.527 59.2207 168.575 57.7736 170.382 56.7272C173.528 54.9239 178.146 54.7457 180.89 56.3265L181.537 56.7049C182.943 57.5064 183.701 58.6864 183.701 59.9999C183.701 61.5138 182.653 62.961 180.846 64.0073C179.128 64.9869 177.008 65.499 174.978 65.499ZM176.25 57.4396C174.599 57.4396 172.814 57.8404 171.476 58.6196C170.36 59.2652 169.713 60.0445 169.713 60.7346C169.713 61.3803 170.293 61.8478 170.784 62.1372L171.431 62.5157C173.506 63.6957 177.299 63.5175 179.708 62.1372C180.824 61.4916 181.47 60.7123 181.47 60.0222C181.47 59.3765 180.89 58.909 180.4 58.6196L179.753 58.2411C178.838 57.6845 177.589 57.4396 176.25 57.4396Z" fill="#0C1033"/>
<path d="M219.956 119.888L218.148 118.619C218.372 118.308 218.327 118.085 218.26 117.907C218.015 117.35 217.055 116.682 215.449 116.46L214.98 116.393C212.95 116.104 211.165 115.458 209.782 114.545L201.483 108.913C200.836 108.49 200.546 107.822 200.68 107.154C200.836 106.374 201.505 105.796 202.464 105.573L209.871 103.903L193.384 102.701L188.03 104.905C186.245 105.64 183.523 105.284 182.564 103.703C182.14 103.013 182.14 102.211 182.564 101.543C183.211 100.497 184.772 99.8736 186.468 99.9849L193.027 100.475L203.602 96.1333C196.53 96.0665 195.905 95.8661 195.593 95.7548L196.285 93.6843C196.441 93.7289 197.534 93.907 204.651 93.9515C205.989 93.9515 206.993 94.6194 207.15 95.6212C207.261 96.2669 206.971 97.1797 205.766 97.6249L197.913 100.853L211.366 101.833C212.682 101.855 213.731 102.59 213.843 103.636C213.91 104.371 213.486 105.35 212.035 105.684L203.424 107.621L210.987 112.764C212.08 113.499 213.575 114.033 215.248 114.256L215.717 114.323C217.925 114.634 219.621 115.658 220.246 117.061C220.692 117.996 220.558 118.998 219.956 119.888ZM186.022 102.167C185.085 102.167 184.505 102.523 184.416 102.679C184.661 102.946 186.066 103.324 187.182 102.857L188.476 102.323L186.29 102.167C186.2 102.167 186.111 102.167 186.022 102.167Z" fill="#97C3F9"/>
<path d="M183.144 90.0112L153.583 72.9796C152.445 72.334 152.601 71.1763 153.895 70.4193C155.212 69.6624 157.197 69.5733 158.313 70.2412L187.874 87.2728C189.011 87.9184 188.855 89.0761 187.561 89.8331C186.267 90.59 184.282 90.6791 183.144 90.0112Z" fill="#97C3F9"/>
<path d="M183.144 87.362L153.583 70.3304C152.445 69.6848 152.601 68.5271 153.895 67.7702C155.212 67.0132 157.197 66.9241 158.313 67.592L187.874 84.6236C189.011 85.2692 188.855 86.4269 187.561 87.1839C186.267 87.9408 184.282 88.0299 183.144 87.362Z" fill="#97C3F9"/>
<path d="M185.085 88.9203C184.17 88.9203 183.3 88.7199 182.608 88.3192L153.047 71.2877C152.2 70.7979 151.709 70.0632 151.709 69.2172C151.709 68.3044 152.311 67.4138 153.338 66.8127C155.011 65.8554 157.376 65.7663 158.87 66.6346L188.431 83.6662C189.257 84.1559 189.748 84.8906 189.748 85.7144C189.748 86.6272 189.145 87.5177 188.119 88.1188C187.227 88.6532 186.133 88.9203 185.085 88.9203ZM153.918 69.2172C153.918 69.2172 153.984 69.284 154.141 69.373L183.702 86.4046C184.505 86.8721 186.044 86.783 187.026 86.2264C187.427 86.0038 187.539 85.7812 187.561 85.7366C187.561 85.7366 187.494 85.6699 187.338 85.5808L157.777 68.5493C156.974 68.0817 155.412 68.1708 154.453 68.7274C154.051 68.9723 153.94 69.1726 153.918 69.2172Z" fill="#0C1033"/>
<path d="M146.915 83.4443L145.807 85.3506L165.624 96.8263L166.733 94.92L146.915 83.4443Z" fill="#97C3F9"/>
<path d="M138.941 78.8468L137.833 80.7529L143.524 84.0499L144.633 82.1438L138.941 78.8468Z" fill="#97C3F9"/>
<path d="M146.083 81.1328L144.974 83.0391L164.791 94.5148L165.9 92.6085L146.083 81.1328Z" fill="#0C1033"/>
<path d="M138.109 76.5363L137.001 78.4424L142.692 81.7394L143.801 79.8333L138.109 76.5363Z" fill="#0C1033"/>
<path d="M219.956 118.219L218.148 116.95C218.372 116.638 218.327 116.415 218.26 116.237C218.015 115.681 217.055 115.013 215.449 114.79L214.98 114.723C212.95 114.434 211.165 113.811 209.782 112.875L201.483 107.243C200.836 106.82 200.546 106.152 200.68 105.484C200.836 104.705 201.505 104.126 202.464 103.903L209.871 102.234L193.384 101.031L188.03 103.235C186.245 103.97 183.523 103.614 182.564 102.033C182.14 101.343 182.14 100.542 182.564 99.8736C183.211 98.8273 184.772 98.2039 186.468 98.3152L193.027 98.805L203.602 94.4636C196.53 94.3968 195.905 94.1965 195.593 94.0851L196.285 92.0146C196.441 92.0592 197.534 92.2373 204.651 92.2818C205.989 92.2818 206.993 92.9497 207.15 93.9516C207.261 94.5972 206.971 95.51 205.766 95.9553L197.913 99.1835L211.366 100.163C212.682 100.185 213.731 100.92 213.843 101.966C213.91 102.701 213.486 103.681 212.035 104.015L203.424 105.952L210.987 111.094C212.08 111.829 213.575 112.363 215.248 112.586L215.717 112.653C217.925 112.965 219.621 113.989 220.246 115.391C220.692 116.326 220.558 117.35 219.956 118.219ZM186.022 100.497C185.085 100.497 184.505 100.853 184.416 101.009C184.661 101.276 186.066 101.655 187.182 101.187L188.476 100.653L186.29 100.497C186.2 100.497 186.111 100.497 186.022 100.497Z" fill="#0C1033"/>
</g>
<defs>
<clipPath id="clip0">
<rect width="282" height="156" fill="white"/>
</clipPath>
</defs>
</svg>
