<svg width="375" height="261" viewBox="0 0 375 261" fill="none" xmlns="http://www.w3.org/2000/svg">
<g clip-path="url(#clip0_4884_15247)">
<path d="M372.228 208.71L363.492 210.441C363.414 210.455 363.333 210.438 363.268 210.393C363.203 210.348 363.158 210.279 363.143 210.201C363.135 210.162 363.135 210.123 363.143 210.084C363.151 210.046 363.166 210.009 363.188 209.977C363.209 209.944 363.238 209.916 363.27 209.895C363.303 209.873 363.34 209.858 363.378 209.851L372.073 208.171C372.149 208.158 372.226 208.176 372.289 208.219C372.352 208.263 372.396 208.329 372.411 208.404C372.419 208.468 372.406 208.533 372.372 208.588C372.339 208.644 372.288 208.686 372.228 208.71Z" fill="black"/>
<path d="M354.805 211.964L346.133 213.794C346.05 213.811 345.963 213.794 345.891 213.747C345.82 213.701 345.771 213.627 345.753 213.544C345.736 213.46 345.753 213.373 345.8 213.302C345.847 213.231 345.92 213.181 346.004 213.164L354.698 211.339C354.738 211.331 354.778 211.33 354.818 211.337C354.858 211.344 354.896 211.36 354.929 211.382C354.963 211.404 354.992 211.432 355.014 211.466C355.037 211.499 355.052 211.537 355.06 211.577C355.076 211.656 355.06 211.738 355.015 211.806C354.971 211.874 354.901 211.921 354.822 211.938L354.805 211.964Z" fill="black"/>
<path d="M337.52 215.809L328.941 218.007C328.899 218.018 328.855 218.021 328.812 218.014C328.769 218.008 328.727 217.993 328.69 217.971C328.652 217.949 328.62 217.919 328.594 217.884C328.568 217.849 328.549 217.81 328.538 217.767C328.518 217.682 328.532 217.593 328.576 217.517C328.621 217.442 328.694 217.387 328.778 217.365L337.372 215.181C337.455 215.161 337.542 215.173 337.616 215.217C337.689 215.26 337.743 215.331 337.764 215.413C337.775 215.454 337.778 215.497 337.772 215.539C337.767 215.581 337.753 215.621 337.731 215.658C337.709 215.695 337.681 215.726 337.647 215.752C337.613 215.777 337.574 215.795 337.533 215.806L337.52 215.809Z" fill="black"/>
<path d="M320.392 220.321L311.868 222.724C311.791 222.727 311.715 222.705 311.652 222.66C311.589 222.616 311.542 222.552 311.52 222.478C311.497 222.404 311.499 222.325 311.526 222.253C311.553 222.181 311.603 222.12 311.669 222.079L320.207 219.698C320.287 219.687 320.368 219.706 320.435 219.751C320.502 219.795 320.551 219.862 320.573 219.94C320.595 220.017 320.589 220.1 320.555 220.173C320.521 220.246 320.462 220.305 320.389 220.338L320.392 220.321Z" fill="black"/>
<path d="M303.348 225.168L294.823 227.631C294.775 227.651 294.724 227.661 294.672 227.66C294.62 227.659 294.568 227.647 294.521 227.625C294.475 227.603 294.433 227.57 294.399 227.531C294.366 227.491 294.341 227.445 294.327 227.395C294.312 227.345 294.309 227.292 294.316 227.241C294.324 227.189 294.342 227.14 294.371 227.096C294.399 227.053 294.436 227.015 294.479 226.987C294.523 226.959 294.572 226.94 294.623 226.932L303.147 224.505C303.238 224.479 303.336 224.49 303.418 224.536C303.501 224.582 303.562 224.659 303.588 224.75C303.614 224.841 303.603 224.938 303.557 225.021C303.511 225.104 303.434 225.165 303.343 225.191L303.348 225.168Z" fill="black"/>
<path d="M286.298 230.002L277.749 232.346C277.651 232.372 277.547 232.358 277.459 232.307C277.371 232.256 277.307 232.172 277.281 232.074C277.254 231.978 277.268 231.875 277.317 231.788C277.367 231.701 277.449 231.637 277.546 231.61L286.095 229.291C286.142 229.278 286.192 229.275 286.241 229.281C286.289 229.287 286.336 229.303 286.379 229.327C286.422 229.352 286.459 229.384 286.489 229.423C286.519 229.462 286.541 229.507 286.553 229.555C286.578 229.648 286.566 229.747 286.518 229.831C286.47 229.915 286.391 229.976 286.298 230.002Z" fill="black"/>
<path d="M269.166 234.571L260.545 236.653C260.493 236.668 260.439 236.673 260.385 236.668C260.331 236.662 260.279 236.645 260.233 236.618C260.186 236.591 260.145 236.555 260.112 236.512C260.08 236.469 260.057 236.419 260.044 236.367C260.031 236.314 260.029 236.26 260.039 236.207C260.048 236.154 260.068 236.103 260.097 236.058C260.127 236.012 260.165 235.974 260.21 235.944C260.255 235.914 260.306 235.894 260.359 235.884L268.971 233.819C269.022 233.802 269.076 233.796 269.13 233.801C269.184 233.806 269.236 233.822 269.283 233.848C269.331 233.874 269.372 233.91 269.405 233.953C269.437 233.996 269.461 234.045 269.473 234.098C269.486 234.15 269.488 234.205 269.478 234.258C269.468 234.311 269.448 234.362 269.418 234.407C269.388 234.452 269.349 234.49 269.303 234.519C269.257 234.547 269.206 234.567 269.153 234.575L269.166 234.571Z" fill="black"/>
<path d="M251.879 238.55L243.163 240.213C243.054 240.234 242.942 240.211 242.851 240.149C242.76 240.088 242.697 239.992 242.676 239.884C242.655 239.776 242.678 239.663 242.74 239.572C242.802 239.481 242.897 239.418 243.006 239.397L251.704 237.76C251.804 237.752 251.904 237.781 251.984 237.842C252.064 237.904 252.118 237.992 252.137 238.091C252.155 238.19 252.137 238.292 252.084 238.378C252.032 238.464 251.949 238.528 251.853 238.557L251.879 238.55Z" fill="black"/>
<path d="M234.393 241.587L225.574 242.638C225.468 242.639 225.365 242.6 225.286 242.529C225.207 242.458 225.156 242.361 225.144 242.255C225.132 242.149 225.16 242.043 225.222 241.957C225.284 241.87 225.375 241.809 225.479 241.786L234.263 240.758C234.317 240.751 234.373 240.755 234.426 240.77C234.479 240.785 234.529 240.811 234.572 240.845C234.616 240.879 234.652 240.921 234.679 240.97C234.706 241.018 234.723 241.071 234.729 241.126C234.743 241.231 234.716 241.338 234.654 241.424C234.591 241.51 234.498 241.568 234.393 241.587Z" fill="black"/>
<path d="M216.721 243.296L207.84 243.514C207.781 243.515 207.723 243.505 207.668 243.484C207.614 243.463 207.564 243.431 207.522 243.391C207.479 243.35 207.445 243.302 207.422 243.249C207.398 243.195 207.385 243.137 207.384 243.079C207.382 243.02 207.392 242.962 207.413 242.908C207.435 242.853 207.466 242.803 207.507 242.761C207.547 242.718 207.595 242.684 207.649 242.661C207.702 242.637 207.76 242.624 207.819 242.623L216.654 242.425C216.712 242.424 216.769 242.434 216.823 242.455C216.877 242.476 216.926 242.507 216.968 242.547C217.009 242.587 217.042 242.635 217.066 242.688C217.089 242.741 217.101 242.798 217.102 242.856C217.105 242.963 217.067 243.068 216.997 243.15C216.927 243.231 216.828 243.283 216.721 243.296Z" fill="black"/>
<path d="M198.954 243.229L194.526 242.882C193.034 242.733 191.555 242.478 190.099 242.119C189.98 242.094 189.875 242.023 189.808 241.921C189.74 241.819 189.717 241.694 189.741 241.575C189.766 241.455 189.837 241.35 189.939 241.283C190.041 241.216 190.166 241.192 190.286 241.217C191.698 241.568 193.135 241.818 194.583 241.965L198.985 242.318C199.045 242.322 199.103 242.338 199.157 242.364C199.21 242.391 199.257 242.428 199.296 242.473C199.335 242.518 199.365 242.57 199.384 242.627C199.402 242.684 199.409 242.743 199.404 242.803C199.397 242.917 199.346 243.025 199.263 243.104C199.18 243.183 199.069 243.228 198.954 243.229Z" fill="black"/>
<path d="M181.637 239.252C178.899 238.093 176.233 236.771 173.653 235.294C173.599 235.263 173.551 235.222 173.513 235.172C173.475 235.123 173.447 235.067 173.43 235.006C173.397 234.885 173.414 234.755 173.476 234.645C173.539 234.536 173.642 234.456 173.764 234.423C173.886 234.389 174.016 234.406 174.125 234.469C176.671 235.929 179.301 237.237 182.002 238.386C182.117 238.436 182.207 238.529 182.254 238.644C182.301 238.76 182.301 238.89 182.254 239.005C182.205 239.12 182.112 239.209 181.996 239.256C181.88 239.302 181.751 239.3 181.637 239.252Z" fill="black"/>
<path d="M166.178 230.453C163.78 228.687 161.513 226.749 159.394 224.656C159.343 224.611 159.3 224.557 159.271 224.495C159.241 224.434 159.224 224.367 159.222 224.298C159.219 224.23 159.231 224.162 159.256 224.098C159.281 224.035 159.318 223.977 159.367 223.929C159.415 223.88 159.473 223.843 159.536 223.818C159.6 223.793 159.668 223.781 159.736 223.784C159.804 223.786 159.871 223.803 159.933 223.832C159.995 223.862 160.049 223.904 160.094 223.956C162.174 226.02 164.4 227.93 166.755 229.673C166.806 229.712 166.85 229.76 166.882 229.815C166.915 229.87 166.936 229.932 166.945 229.995C166.954 230.059 166.95 230.123 166.933 230.185C166.917 230.247 166.888 230.305 166.849 230.356C166.812 230.407 166.764 230.449 166.71 230.482C166.656 230.514 166.596 230.535 166.534 230.544C166.471 230.553 166.408 230.55 166.347 230.534C166.286 230.518 166.228 230.491 166.178 230.453Z" fill="black"/>
<path d="M153.688 217.755C152.011 215.251 150.747 212.494 149.946 209.589C149.928 209.525 149.924 209.458 149.932 209.392C149.941 209.327 149.963 209.263 149.997 209.206C150.031 209.149 150.076 209.099 150.129 209.06C150.182 209.02 150.243 208.992 150.307 208.976C150.437 208.944 150.573 208.964 150.688 209.032C150.802 209.099 150.886 209.209 150.92 209.338C151.692 212.14 152.911 214.798 154.531 217.211C154.567 217.266 154.591 217.327 154.604 217.391C154.616 217.455 154.616 217.521 154.602 217.585C154.589 217.649 154.564 217.71 154.527 217.764C154.49 217.817 154.443 217.864 154.388 217.9C154.333 217.936 154.271 217.962 154.206 217.975C154.141 217.987 154.073 217.987 154.008 217.974C153.943 217.96 153.881 217.934 153.826 217.896C153.772 217.859 153.725 217.811 153.688 217.755Z" fill="black"/>
<path d="M149.616 200.584C149.918 199.098 150.383 197.651 151.002 196.268C151.302 195.579 151.642 194.908 152.02 194.259L153.134 192.312C153.201 192.194 153.312 192.109 153.443 192.073C153.573 192.038 153.713 192.056 153.83 192.123C153.947 192.191 154.033 192.302 154.068 192.433C154.103 192.563 154.085 192.702 154.018 192.82L154.011 192.854L152.931 194.754C152.555 195.374 152.221 196.018 151.93 196.683C151.342 197.997 150.901 199.372 150.613 200.783C150.6 200.848 150.575 200.91 150.538 200.966C150.501 201.021 150.453 201.068 150.398 201.105C150.343 201.142 150.281 201.168 150.216 201.18C150.15 201.193 150.083 201.193 150.018 201.179C149.953 201.166 149.89 201.141 149.835 201.104C149.779 201.067 149.731 201.02 149.694 200.965C149.657 200.909 149.631 200.847 149.617 200.782C149.604 200.716 149.604 200.649 149.616 200.584Z" fill="black"/>
<path d="M158.648 185.258C160.711 183.099 162.938 181.103 165.309 179.287C165.362 179.242 165.424 179.207 165.49 179.186C165.557 179.165 165.627 179.158 165.696 179.165C165.766 179.172 165.833 179.193 165.894 179.227C165.955 179.261 166.009 179.307 166.051 179.362C166.094 179.417 166.125 179.48 166.143 179.548C166.16 179.615 166.164 179.686 166.153 179.754C166.142 179.823 166.118 179.889 166.081 179.949C166.044 180.008 165.995 180.059 165.938 180.099C163.615 181.893 161.432 183.862 159.408 185.988C159.315 186.086 159.186 186.142 159.051 186.146C158.916 186.15 158.785 186.1 158.686 186.008C158.632 185.963 158.587 185.907 158.555 185.844C158.524 185.781 158.505 185.712 158.502 185.641C158.498 185.571 158.509 185.5 158.534 185.434C158.56 185.368 158.598 185.308 158.648 185.258Z" fill="black"/>
<path d="M172.631 174.238C175.169 172.693 177.773 171.27 180.43 169.943C180.551 169.896 180.684 169.897 180.805 169.944C180.926 169.991 181.025 170.081 181.082 170.197C181.14 170.313 181.152 170.446 181.116 170.571C181.081 170.695 181 170.802 180.89 170.87C178.26 172.185 175.677 173.594 173.172 175.121C173.055 175.181 172.921 175.194 172.795 175.158C172.669 175.123 172.561 175.041 172.493 174.93C172.425 174.818 172.401 174.685 172.426 174.557C172.452 174.428 172.525 174.314 172.631 174.238Z" fill="black"/>
<path d="M188.512 166.232L196.772 162.973C196.902 162.924 197.046 162.928 197.173 162.983C197.3 163.039 197.401 163.142 197.453 163.27C197.504 163.4 197.501 163.544 197.445 163.672C197.389 163.799 197.285 163.9 197.156 163.951L188.919 167.178C188.856 167.203 188.787 167.215 188.719 167.214C188.651 167.213 188.583 167.198 188.52 167.17C188.458 167.143 188.401 167.103 188.354 167.054C188.306 167.004 188.269 166.946 188.244 166.882C188.201 166.76 188.204 166.626 188.253 166.506C188.302 166.385 188.395 166.288 188.512 166.232Z" fill="black"/>
<path d="M205.164 160.061L213.633 157.4C213.764 157.37 213.901 157.39 214.017 157.456C214.134 157.523 214.22 157.631 214.26 157.759C214.3 157.887 214.29 158.026 214.233 158.147C214.175 158.268 214.074 158.363 213.949 158.412L205.506 161.061C205.373 161.103 205.228 161.09 205.104 161.026C204.98 160.961 204.887 160.85 204.845 160.716C204.802 160.583 204.815 160.438 204.88 160.314C204.944 160.19 205.056 160.097 205.189 160.054L205.164 160.061Z" fill="black"/>
<path d="M222.142 154.917L230.684 152.517C230.752 152.498 230.822 152.493 230.891 152.501C230.961 152.509 231.028 152.531 231.089 152.565C231.15 152.599 231.204 152.645 231.247 152.7C231.29 152.755 231.322 152.818 231.341 152.885C231.36 152.953 231.366 153.023 231.358 153.092C231.349 153.162 231.328 153.229 231.293 153.29C231.259 153.351 231.213 153.405 231.159 153.448C231.104 153.491 231.041 153.523 230.973 153.542L222.437 155.943C222.301 155.981 222.156 155.964 222.033 155.895C221.909 155.826 221.819 155.711 221.78 155.575C221.742 155.439 221.759 155.293 221.828 155.17C221.897 155.047 222.012 154.956 222.148 154.918L222.142 154.917Z" fill="black"/>
<path d="M239.197 150.09L243.421 148.796C244.832 148.357 246.234 147.935 247.655 147.48C247.791 147.436 247.939 147.448 248.067 147.514C248.194 147.579 248.29 147.692 248.334 147.828C248.378 147.965 248.366 148.113 248.301 148.24C248.235 148.367 248.122 148.464 247.986 148.508L243.753 149.817L239.509 151.119C239.373 151.16 239.227 151.146 239.101 151.079C238.976 151.013 238.882 150.899 238.84 150.764C238.799 150.627 238.814 150.48 238.88 150.354C238.947 150.228 239.061 150.133 239.197 150.09Z" fill="black"/>
<path d="M256.185 145.026L264.696 142.626C264.766 142.603 264.84 142.595 264.913 142.601C264.986 142.607 265.057 142.628 265.122 142.662C265.186 142.696 265.244 142.743 265.29 142.8C265.336 142.857 265.37 142.923 265.39 142.994C265.41 143.064 265.416 143.138 265.406 143.211C265.397 143.284 265.373 143.354 265.336 143.417C265.299 143.48 265.25 143.535 265.191 143.579C265.132 143.623 265.065 143.654 264.993 143.671L256.457 146.071C256.388 146.09 256.317 146.096 256.246 146.087C256.175 146.078 256.106 146.056 256.044 146.02C255.982 145.985 255.927 145.938 255.883 145.882C255.839 145.825 255.807 145.761 255.788 145.692C255.769 145.623 255.763 145.551 255.772 145.48C255.781 145.409 255.804 145.341 255.839 145.279C255.874 145.216 255.921 145.162 255.978 145.118C256.034 145.074 256.098 145.041 256.167 145.022L256.185 145.026Z" fill="black"/>
<path d="M273.201 140.136L281.642 137.462C281.782 137.418 281.933 137.432 282.063 137.499C282.127 137.532 282.184 137.578 282.231 137.634C282.277 137.689 282.312 137.753 282.334 137.822C282.356 137.891 282.364 137.964 282.358 138.036C282.351 138.108 282.331 138.178 282.298 138.243C282.264 138.307 282.218 138.364 282.163 138.41C282.107 138.457 282.043 138.492 281.974 138.514L273.515 141.214C273.445 141.243 273.369 141.257 273.293 141.255C273.217 141.253 273.142 141.235 273.073 141.203C273.004 141.17 272.943 141.124 272.893 141.067C272.843 141.009 272.805 140.942 272.783 140.87C272.76 140.797 272.752 140.72 272.761 140.645C272.769 140.569 272.793 140.496 272.831 140.43C272.869 140.364 272.921 140.307 272.982 140.262C273.044 140.217 273.114 140.186 273.188 140.169L273.201 140.136Z" fill="black"/>
<path d="M290 134.61L298.258 131.454C298.394 131.409 298.542 131.419 298.671 131.481C298.8 131.543 298.9 131.653 298.95 131.787C299 131.921 298.997 132.069 298.94 132.201C298.884 132.332 298.778 132.437 298.646 132.493L290.377 135.647C290.24 135.699 290.089 135.694 289.956 135.635C289.822 135.576 289.718 135.467 289.664 135.331C289.62 135.193 289.627 135.044 289.686 134.911C289.744 134.779 289.85 134.673 289.981 134.613L290 134.61Z" fill="black"/>
<path d="M306.333 127.916C309.006 126.658 311.615 125.327 314.169 123.882C314.233 123.842 314.305 123.815 314.379 123.803C314.454 123.791 314.53 123.794 314.604 123.812C314.677 123.83 314.746 123.863 314.806 123.908C314.867 123.954 314.917 124.011 314.955 124.077C314.993 124.142 315.017 124.215 315.026 124.29C315.035 124.365 315.029 124.441 315.008 124.514C314.986 124.586 314.951 124.654 314.903 124.712C314.855 124.771 314.796 124.819 314.729 124.854C312.141 126.316 309.492 127.663 306.807 128.924C306.741 128.956 306.669 128.973 306.596 128.977C306.523 128.98 306.45 128.969 306.381 128.945C306.312 128.92 306.249 128.882 306.195 128.832C306.141 128.783 306.097 128.723 306.066 128.657C306.012 128.522 306.009 128.372 306.058 128.235C306.108 128.099 306.206 127.985 306.333 127.916Z" fill="black"/>
<path d="M321.589 119.135C323.959 117.43 326.154 115.493 328.139 113.352C328.249 113.284 328.379 113.253 328.508 113.266C328.637 113.278 328.758 113.333 328.853 113.421C328.948 113.509 329.011 113.626 329.033 113.754C329.055 113.881 329.034 114.013 328.974 114.127C326.936 116.321 324.685 118.307 322.255 120.056C322.136 120.098 322.006 120.1 321.886 120.063C321.765 120.025 321.66 119.95 321.585 119.848C321.51 119.746 321.47 119.623 321.47 119.497C321.47 119.371 321.511 119.248 321.587 119.146L321.589 119.135Z" fill="black"/>
<path d="M332.806 106.119C333.326 104.789 333.671 103.396 333.83 101.976C333.912 101.276 333.941 100.57 333.916 99.8652C333.87 99.2036 333.703 98.556 333.424 97.9544C333.402 97.8266 333.423 97.6951 333.483 97.5803C333.543 97.4655 333.64 97.3737 333.757 97.3191C333.875 97.2644 334.007 97.2501 334.134 97.2781C334.26 97.3061 334.374 97.375 334.458 97.4742C334.798 98.2114 334.998 99.0052 335.048 99.8154C335.08 100.587 335.051 101.359 334.963 102.126C334.79 103.645 334.419 105.136 333.861 106.56C333.8 106.697 333.69 106.806 333.553 106.865C333.415 106.924 333.26 106.928 333.12 106.877C332.979 106.816 332.868 106.703 332.81 106.562C332.751 106.42 332.75 106.262 332.806 106.119Z" fill="black"/>
<path d="M326.763 93.2396C323.97 92.403 321.1 91.849 318.196 91.5861C318.107 91.5967 318.018 91.5873 317.934 91.5586C317.85 91.5299 317.773 91.4826 317.71 91.4202C317.647 91.3578 317.599 91.282 317.569 91.1984C317.539 91.1148 317.528 91.0255 317.538 90.9372C317.547 90.8489 317.576 90.7638 317.623 90.6883C317.67 90.6128 317.733 90.5489 317.808 90.5012C317.883 90.4535 317.968 90.4234 318.056 90.4129C318.144 90.4025 318.233 90.4121 318.317 90.441C321.302 90.711 324.252 91.2814 327.122 92.1435C327.238 92.2116 327.327 92.317 327.375 92.4424C327.422 92.5678 327.426 92.7057 327.385 92.8334C327.344 92.9611 327.26 93.0711 327.148 93.1451C327.037 93.2191 326.903 93.2529 326.769 93.2408L326.763 93.2396Z" fill="black"/>
<path d="M309.39 91.1197L300.576 91.2732C300.435 91.2558 300.305 91.1882 300.209 91.0828C300.114 90.9774 300.06 90.8412 300.057 90.6991C300.054 90.5571 300.103 90.4187 300.194 90.3095C300.284 90.2002 300.411 90.1273 300.552 90.1041L309.425 89.9568C309.51 89.9398 309.597 89.9417 309.681 89.9624C309.765 89.983 309.844 90.0218 309.911 90.0762C309.979 90.1305 310.033 90.1989 310.071 90.2767C310.109 90.3545 310.13 90.4396 310.131 90.5261C310.133 90.6127 310.115 90.6985 310.08 90.7775C310.044 90.8565 309.992 90.9267 309.926 90.9833C309.861 91.0398 309.784 91.0813 309.7 91.1047C309.617 91.1282 309.53 91.133 309.444 91.1189L309.39 91.1197Z" fill="black"/>
<path d="M293.366 91.9915L280.224 92.81C280.102 92.8273 279.976 92.8272 279.855 92.8096C279.733 92.7919 279.619 92.7573 279.518 92.7079C279.418 92.6584 279.335 92.5954 279.274 92.5228C279.213 92.4503 279.175 92.3699 279.163 92.2869C279.152 92.2039 279.167 92.1202 279.207 92.0413C279.247 91.9625 279.312 91.8902 279.397 91.8292C279.481 91.7683 279.585 91.72 279.699 91.6877C279.814 91.6554 279.937 91.6397 280.062 91.6416L293.249 90.8233C293.465 90.8266 293.672 90.8831 293.83 90.9819C293.988 91.0807 294.087 91.2149 294.107 91.3591C294.127 91.5033 294.067 91.6474 293.939 91.7641C293.81 91.8807 293.623 91.9617 293.411 91.9918L293.366 91.9915Z" fill="black"/>
<path d="M274.152 93.6605L265.37 94.8279C265.224 94.8316 265.082 94.7811 264.971 94.6861C264.86 94.5911 264.788 94.4584 264.769 94.3135C264.75 94.1687 264.786 94.022 264.869 93.9018C264.952 93.7816 265.076 93.6964 265.218 93.6626L274.013 92.4617C274.09 92.4515 274.169 92.4565 274.244 92.4765C274.319 92.4965 274.389 92.531 274.451 92.5782C274.512 92.6254 274.564 92.6842 274.603 92.7514C274.642 92.8186 274.667 92.8928 274.678 92.9697C274.688 93.0467 274.683 93.125 274.663 93.2C274.643 93.275 274.608 93.3454 274.561 93.4071C274.514 93.4688 274.455 93.5205 274.388 93.5595C274.321 93.5984 274.246 93.6237 274.169 93.634L274.152 93.6605Z" fill="black"/>
<path d="M256.516 95.6595L247.71 96.3274C247.572 96.3138 247.444 96.2521 247.347 96.1533C247.25 96.0544 247.19 95.9246 247.179 95.7865C247.168 95.6484 247.206 95.5108 247.286 95.3978C247.366 95.2848 247.484 95.2036 247.618 95.1682L256.454 94.5005C256.536 94.4814 256.622 94.4804 256.706 94.4976C256.789 94.5147 256.867 94.5496 256.936 94.5998C257.004 94.6501 257.061 94.7145 257.102 94.7888C257.144 94.863 257.169 94.9453 257.175 95.03C257.182 95.1147 257.17 95.1998 257.141 95.2796C257.112 95.3593 257.066 95.4318 257.006 95.4922C256.946 95.5525 256.874 95.5992 256.794 95.6291C256.715 95.659 256.63 95.6714 256.545 95.6654L256.516 95.6595Z" fill="black"/>
<path d="M238.845 96.9997L230.016 97.6929C229.863 97.7027 229.712 97.6526 229.595 97.553C229.479 97.4535 229.405 97.3124 229.391 97.1597C229.382 97.0077 229.433 96.8583 229.532 96.7428C229.631 96.6273 229.771 96.5545 229.923 96.5397L238.764 95.843C238.901 95.8582 239.029 95.9208 239.124 96.02C239.22 96.1191 239.278 96.2486 239.288 96.386C239.298 96.5233 239.26 96.66 239.181 96.7723C239.101 96.8846 238.984 96.9654 238.851 97.0009L238.845 96.9997Z" fill="black"/>
<path d="M221.179 98.3901L212.346 99.1007C212.26 99.132 212.169 99.1432 212.078 99.1332C211.988 99.1233 211.901 99.0926 211.824 99.0435C211.747 98.9944 211.683 98.9282 211.636 98.8502C211.589 98.7721 211.561 98.6843 211.554 98.5935C211.547 98.5028 211.56 98.4115 211.594 98.327C211.628 98.2424 211.681 98.1668 211.749 98.106C211.816 98.0453 211.897 98.001 211.985 97.9767C212.073 97.9524 212.165 97.9487 212.254 97.966L221.088 97.2496C221.174 97.2203 221.264 97.2109 221.354 97.2221C221.443 97.2333 221.529 97.2648 221.604 97.3142C221.68 97.3636 221.743 97.4296 221.789 97.5072C221.835 97.5847 221.862 97.6717 221.869 97.7616C221.876 97.8514 221.863 97.9417 221.83 98.0255C221.796 98.1093 221.745 98.1844 221.678 98.2451C221.611 98.3057 221.532 98.3503 221.445 98.3755C221.359 98.4006 221.267 98.4056 221.179 98.3901Z" fill="black"/>
<path d="M203.522 99.8173L194.687 100.539C194.601 100.573 194.509 100.585 194.418 100.577C194.326 100.568 194.238 100.538 194.16 100.489C194.082 100.441 194.017 100.374 193.969 100.296C193.921 100.217 193.892 100.129 193.885 100.037C193.877 99.9454 193.891 99.8533 193.925 99.7681C193.96 99.6828 194.014 99.6067 194.082 99.5459C194.151 99.485 194.234 99.4411 194.322 99.4176C194.411 99.3941 194.504 99.3916 194.594 99.4105L203.431 98.6825C203.557 98.7069 203.673 98.7722 203.759 98.8684C203.845 98.9646 203.897 99.0863 203.908 99.2151C203.918 99.3438 203.886 99.4724 203.816 99.5812C203.747 99.6899 203.643 99.7728 203.522 99.8173Z" fill="black"/>
<path d="M185.855 101.263L177.016 102.003C176.94 102.014 176.863 102.01 176.788 101.99C176.714 101.97 176.645 101.935 176.585 101.887C176.524 101.839 176.475 101.779 176.438 101.711C176.402 101.644 176.38 101.569 176.374 101.492C176.368 101.416 176.378 101.339 176.403 101.266C176.428 101.193 176.467 101.126 176.519 101.069C176.571 101.013 176.634 100.967 176.704 100.935C176.774 100.904 176.85 100.887 176.927 100.886L185.756 100.163C185.83 100.156 185.904 100.164 185.975 100.186C186.045 100.208 186.11 100.244 186.167 100.291C186.223 100.339 186.27 100.397 186.303 100.463C186.337 100.529 186.357 100.601 186.363 100.674C186.369 100.822 186.32 100.967 186.225 101.08C186.131 101.193 185.997 101.267 185.85 101.286L185.855 101.263Z" fill="black"/>
<path d="M168.188 102.694L159.356 103.405C159.283 103.41 159.21 103.402 159.14 103.379C159.071 103.356 159.007 103.32 158.951 103.272C158.896 103.225 158.85 103.167 158.817 103.102C158.784 103.037 158.764 102.965 158.759 102.893C158.753 102.82 158.762 102.747 158.785 102.677C158.807 102.608 158.844 102.544 158.891 102.488C158.939 102.433 158.997 102.387 159.062 102.354C159.127 102.321 159.198 102.301 159.271 102.296L168.098 101.584C168.171 101.578 168.244 101.586 168.314 101.609C168.383 101.631 168.448 101.667 168.504 101.714C168.559 101.762 168.605 101.82 168.639 101.885C168.672 101.95 168.692 102.021 168.698 102.094C168.704 102.167 168.696 102.24 168.673 102.31C168.651 102.379 168.615 102.444 168.568 102.5C168.52 102.555 168.462 102.601 168.397 102.635C168.332 102.668 168.261 102.688 168.188 102.694Z" fill="black"/>
<path d="M150.522 104.101L141.687 104.793C141.542 104.804 141.398 104.756 141.288 104.661C141.177 104.566 141.109 104.431 141.098 104.285C141.088 104.14 141.135 103.996 141.23 103.886C141.326 103.775 141.461 103.707 141.606 103.696L150.436 102.997C150.583 102.986 150.727 103.034 150.839 103.129C150.95 103.224 151.019 103.36 151.031 103.506C151.037 103.578 151.029 103.651 151.008 103.72C150.986 103.789 150.95 103.853 150.904 103.909C150.857 103.964 150.8 104.01 150.735 104.043C150.671 104.076 150.6 104.096 150.528 104.102L150.522 104.101Z" fill="black"/>
<path d="M132.856 105.491L124.02 106.189C123.876 106.2 123.734 106.154 123.624 106.06C123.514 105.966 123.447 105.833 123.435 105.689C123.424 105.545 123.471 105.402 123.565 105.293C123.659 105.183 123.792 105.116 123.936 105.104L132.766 104.405C132.911 104.393 133.054 104.438 133.165 104.531C133.276 104.624 133.345 104.757 133.358 104.901C133.37 105.046 133.325 105.189 133.232 105.3C133.139 105.411 133.006 105.48 132.862 105.493L132.856 105.491Z" fill="black"/>
<path d="M115.18 106.826L106.327 107.345C106.256 107.35 106.185 107.34 106.118 107.317C106.052 107.294 105.99 107.258 105.937 107.212C105.884 107.165 105.84 107.108 105.809 107.044C105.778 106.981 105.76 106.912 105.755 106.841C105.751 106.771 105.76 106.7 105.783 106.633C105.806 106.566 105.842 106.504 105.889 106.451C105.936 106.398 105.993 106.355 106.056 106.324C106.12 106.292 106.189 106.274 106.259 106.27L115.097 105.741C115.24 105.734 115.381 105.783 115.489 105.879C115.597 105.974 115.663 106.108 115.673 106.252C115.68 106.395 115.631 106.535 115.535 106.642C115.44 106.749 115.306 106.814 115.163 106.822L115.18 106.826Z" fill="black"/>
<path d="M97.457 107.698L88.5816 107.827C88.4404 107.829 88.3042 107.775 88.2029 107.676C88.1016 107.578 88.0435 107.443 88.0415 107.302C88.0394 107.161 88.0936 107.025 88.192 106.923C88.2904 106.822 88.425 106.764 88.5662 106.762L97.4126 106.627C97.4869 106.62 97.5621 106.627 97.6332 106.65C97.7043 106.673 97.7699 106.711 97.8257 106.76C97.8816 106.81 97.9265 106.87 97.9576 106.938C97.9886 107.006 98.0052 107.08 98.0062 107.155C98.0072 107.229 97.9926 107.304 97.9633 107.372C97.9341 107.441 97.8908 107.503 97.8363 107.554C97.7818 107.605 97.7172 107.644 97.6467 107.669C97.5762 107.694 97.5014 107.704 97.4269 107.698L97.457 107.698Z" fill="black"/>
<path d="M79.7046 107.682L70.8293 107.226C70.692 107.215 70.5643 107.151 70.4731 107.048C70.3819 106.945 70.3343 106.81 70.3404 106.673C70.3498 106.535 70.4132 106.406 70.5168 106.315C70.6203 106.223 70.7557 106.176 70.8937 106.184L79.7225 106.661C79.7922 106.664 79.8606 106.682 79.9236 106.712C79.9866 106.742 80.043 106.784 80.0897 106.836C80.1364 106.888 80.1724 106.949 80.1957 107.014C80.219 107.08 80.229 107.15 80.2253 107.22C80.2216 107.289 80.2042 107.358 80.1741 107.421C80.144 107.484 80.1018 107.54 80.0499 107.587C79.9979 107.634 79.9373 107.67 79.8715 107.693C79.8056 107.716 79.7358 107.726 79.6661 107.723L79.7046 107.682Z" fill="black"/>
<path d="M61.9951 106.332L53.2167 105.027C53.149 105.017 53.084 104.994 53.0253 104.959C52.9667 104.924 52.9155 104.877 52.8747 104.823C52.834 104.768 52.8044 104.705 52.7878 104.639C52.7711 104.573 52.7677 104.504 52.7777 104.436C52.7877 104.368 52.8109 104.303 52.8461 104.245C52.8812 104.186 52.9275 104.135 52.9825 104.094C53.0374 104.053 53.0998 104.024 53.1661 104.007C53.2324 103.991 53.3013 103.987 53.369 103.997L53.3979 104.003L62.1359 105.3C62.2635 105.33 62.375 105.408 62.4484 105.517C62.5218 105.626 62.5518 105.758 62.5325 105.888C62.5133 106.018 62.4462 106.136 62.3444 106.218C62.2426 106.301 62.1134 106.343 61.9824 106.336L61.9951 106.332Z" fill="black"/>
<path d="M44.4913 103.166C41.5925 102.429 38.7725 101.41 36.0711 100.126C36.0104 100.096 35.9561 100.054 35.9114 100.003C35.8668 99.9525 35.8326 99.8932 35.8108 99.8291C35.7891 99.765 35.7802 99.6972 35.7846 99.6296C35.7891 99.562 35.8067 99.4959 35.8367 99.4352C35.8667 99.3744 35.9083 99.3202 35.9593 99.2755C36.0102 99.2309 36.0694 99.1967 36.1336 99.1749C36.1977 99.1531 36.2655 99.1442 36.3331 99.1487C36.4007 99.1531 36.4668 99.1708 36.5275 99.2008C39.1693 100.451 41.9262 101.442 44.7594 102.16C44.8255 102.178 44.8875 102.208 44.9419 102.25C44.9963 102.291 45.0419 102.343 45.0762 102.402C45.1105 102.461 45.1327 102.527 45.1417 102.595C45.1507 102.662 45.1462 102.731 45.1285 102.797C45.0917 102.93 45.0044 103.043 44.8853 103.112C44.7662 103.181 44.6247 103.201 44.4913 103.166Z" fill="black"/>
<path d="M28.5188 93.0977C27.7751 91.696 27.4612 90.1062 27.6166 88.5271C27.7861 86.9884 28.2537 85.4974 28.9933 84.1373C29.0238 84.0772 29.066 84.0237 29.1174 83.98C29.1688 83.9363 29.2284 83.9033 29.2926 83.8829C29.3569 83.8625 29.4246 83.8551 29.4918 83.8611C29.559 83.8671 29.6243 83.8865 29.684 83.918C29.8032 83.9819 29.8929 84.0899 29.9338 84.2188C29.9748 84.3478 29.9639 84.4876 29.9033 84.6086C29.2266 85.8506 28.7961 87.2116 28.6355 88.6168C28.5009 89.9995 28.7781 91.3911 29.4323 92.6168C29.4644 92.6764 29.4844 92.7418 29.4911 92.8092C29.4979 92.8766 29.4913 92.9447 29.4717 93.0096C29.4522 93.0744 29.4201 93.1348 29.3772 93.1872C29.3343 93.2396 29.2815 93.2831 29.2218 93.3151C29.1621 93.3472 29.0967 93.3671 29.0293 93.3739C28.9619 93.3806 28.8939 93.3741 28.829 93.3545C28.7642 93.335 28.7038 93.3029 28.6513 93.26C28.5989 93.2171 28.5554 93.1643 28.5234 93.1046L28.5188 93.0977Z" fill="black"/>
<path d="M35.2553 78.2345C37.4134 76.1828 39.7051 74.2764 42.1154 72.5278C42.1684 72.4814 42.2305 72.4464 42.2977 72.4253C42.365 72.4041 42.4359 72.3972 42.506 72.4049C42.576 72.4127 42.6437 72.4349 42.7047 72.4702C42.7657 72.5055 42.8187 72.5531 42.8603 72.61C42.9019 72.6669 42.9312 72.7318 42.9464 72.8006C42.9615 72.8695 42.9622 72.9407 42.9484 73.0098C42.9345 73.0789 42.9064 73.1444 42.8658 73.202C42.8253 73.2597 42.7732 73.3082 42.7128 73.3447C40.3413 75.0705 38.0854 76.95 35.9598 78.9709C35.8604 79.0648 35.7278 79.1153 35.5912 79.1114C35.4545 79.1075 35.325 79.0495 35.2312 78.9502C35.1373 78.8508 35.0867 78.7183 35.0906 78.5817C35.0945 78.4451 35.1525 78.3156 35.2519 78.2217L35.2553 78.2345Z" fill="black"/>
<path d="M49.4868 67.5479L57.1605 63.1007C57.2171 63.0665 57.28 63.044 57.3454 63.0345C57.4108 63.0249 57.4775 63.0285 57.5415 63.0451C57.6056 63.0617 57.6656 63.0909 57.7182 63.131C57.7707 63.1711 57.8147 63.2213 57.8476 63.2787C57.9142 63.394 57.9322 63.531 57.8978 63.6596C57.8633 63.7883 57.7791 63.8979 57.6638 63.9645L50.0363 68.4212C49.9797 68.4554 49.9169 68.4779 49.8514 68.4874C49.786 68.497 49.7193 68.4934 49.6553 68.4768C49.5913 68.4602 49.5313 68.431 49.4787 68.3909C49.4261 68.3508 49.3821 68.3006 49.3493 68.2432C49.2817 68.1275 49.2626 67.9897 49.2961 67.8599C49.3297 67.7302 49.4132 67.6189 49.5285 67.5505L49.4868 67.5479Z" fill="black"/>
<path d="M65.0472 58.9928L73.1049 55.2279C73.2226 55.1732 73.3572 55.1674 73.4792 55.2118C73.6012 55.2562 73.7006 55.3472 73.7557 55.4648C73.7836 55.5229 73.7996 55.5861 73.8028 55.6505C73.8059 55.7149 73.7962 55.7793 73.7741 55.8399C73.752 55.9005 73.7181 55.9561 73.6743 56.0034C73.6304 56.0508 73.5776 56.0889 73.5188 56.1155L65.5076 59.8598C65.3863 59.9141 65.2485 59.9188 65.1238 59.8728C64.9991 59.8267 64.8975 59.7337 64.8406 59.6136C64.7864 59.4933 64.7817 59.3565 64.8275 59.2328C64.8734 59.1091 64.9661 59.0084 65.0856 58.9525L65.0472 58.9928Z" fill="black"/>
<path d="M81.3217 51.8452C84.096 50.7952 86.8897 49.7974 89.7493 49.0062C89.8091 48.9892 89.8716 48.9841 89.9333 48.9913C89.995 48.9984 90.0547 49.0177 90.109 49.0479C90.1632 49.0782 90.211 49.1188 90.2495 49.1675C90.2881 49.2162 90.3166 49.2721 90.3335 49.3319C90.3674 49.4541 90.3514 49.5847 90.289 49.6951C90.2267 49.8055 90.123 49.8866 90.0009 49.9207C87.1796 50.7016 84.3987 51.696 81.6487 52.7451C81.5885 52.7725 81.5232 52.7873 81.457 52.7886C81.3909 52.7898 81.3251 52.7775 81.2639 52.7524C81.2026 52.7272 81.1472 52.6898 81.101 52.6424C81.0548 52.595 81.0188 52.5386 80.9952 52.4768C80.9716 52.4149 80.961 52.3489 80.9639 52.2828C80.9669 52.2166 80.9834 52.1518 81.0123 52.0923C81.0413 52.0328 81.0822 51.9798 81.1324 51.9367C81.1826 51.8936 81.2412 51.8612 81.3044 51.8416L81.3217 51.8452Z" fill="black"/>
<path d="M98.3615 46.8233L106.967 44.7269C107.028 44.7052 107.093 44.6965 107.157 44.7012C107.221 44.706 107.284 44.7242 107.34 44.7546C107.397 44.7851 107.447 44.8271 107.487 44.878C107.526 44.9288 107.555 44.9874 107.57 45.0499C107.585 45.1125 107.588 45.1776 107.576 45.241C107.565 45.3044 107.541 45.3648 107.505 45.4182C107.469 45.4717 107.422 45.5169 107.367 45.5511C107.313 45.5854 107.252 45.6078 107.188 45.6169L98.5853 47.7261C98.4647 47.7554 98.3374 47.7361 98.2309 47.6724C98.1244 47.6086 98.0473 47.5055 98.0162 47.3854C97.9875 47.2651 98.0078 47.1383 98.0725 47.0329C98.1372 46.9275 98.2412 46.8522 98.3615 46.8233Z" fill="black"/>
<path d="M115.61 42.7111L124.252 40.7608C124.367 40.7352 124.488 40.7558 124.588 40.8181C124.688 40.8805 124.759 40.9797 124.787 41.0943C124.8 41.1516 124.802 41.211 124.792 41.2689C124.782 41.3269 124.76 41.3823 124.729 41.432C124.697 41.4816 124.656 41.5245 124.608 41.558C124.559 41.5916 124.505 41.6152 124.447 41.6274L115.809 43.5905C115.698 43.6033 115.586 43.5749 115.494 43.5105C115.403 43.4461 115.338 43.3503 115.313 43.2414C115.288 43.1325 115.304 43.0181 115.357 42.9201C115.411 42.822 115.499 42.7472 115.604 42.7099L115.61 42.7111Z" fill="black"/>
<path d="M100.586 54.4979L109.246 52.6659C109.303 52.6516 109.363 52.6489 109.421 52.658C109.479 52.6671 109.534 52.6879 109.584 52.719C109.634 52.7501 109.677 52.791 109.711 52.8392C109.745 52.8874 109.768 52.9419 109.781 52.9994C109.796 53.0568 109.799 53.1166 109.789 53.1752C109.78 53.2338 109.759 53.2899 109.727 53.3399C109.695 53.39 109.653 53.4329 109.604 53.466C109.555 53.4992 109.5 53.5218 109.441 53.5326L100.786 55.4016C100.729 55.416 100.669 55.4186 100.611 55.4095C100.553 55.4004 100.497 55.3797 100.448 55.3485C100.398 55.3174 100.355 55.2765 100.321 55.2283C100.287 55.1802 100.263 55.1257 100.251 55.0682C100.236 55.0111 100.233 54.9515 100.241 54.8931C100.25 54.8347 100.271 54.7787 100.302 54.7286C100.333 54.6785 100.375 54.6354 100.423 54.6019C100.472 54.5683 100.527 54.5452 100.585 54.5338L100.586 54.4979Z" fill="black"/>
<path d="M150.246 35.1861L158.923 33.3578C158.976 33.3458 159.031 33.3446 159.084 33.3542C159.137 33.3638 159.187 33.384 159.233 33.4135C159.278 33.4431 159.316 33.4815 159.346 33.5264C159.376 33.5712 159.397 33.6217 159.407 33.6747C159.418 33.7272 159.419 33.7815 159.409 33.8343C159.399 33.8871 159.378 33.9374 159.349 33.9823C159.32 34.0273 159.282 34.0659 159.237 34.0961C159.193 34.1263 159.143 34.1474 159.09 34.1582L150.424 35.9889C150.317 36.0088 150.206 35.9859 150.115 35.9251C150.024 35.8644 149.961 35.7706 149.938 35.6638C149.915 35.5569 149.935 35.4454 149.993 35.353C150.051 35.2605 150.143 35.1944 150.25 35.1688L150.246 35.1861Z" fill="black"/>
<path d="M167.588 31.5704L176.26 29.7409C176.31 29.7294 176.363 29.7281 176.414 29.7371C176.465 29.746 176.514 29.7652 176.557 29.7933C176.601 29.8214 176.639 29.8579 176.668 29.9007C176.697 29.9435 176.718 29.9918 176.728 30.0427C176.75 30.1448 176.73 30.2513 176.674 30.339C176.617 30.4268 176.528 30.4886 176.426 30.5111L167.755 32.3407C167.65 32.3623 167.542 32.3416 167.453 32.2831C167.363 32.2245 167.301 32.1329 167.28 32.0285C167.258 31.924 167.279 31.8153 167.337 31.7261C167.396 31.637 167.487 31.5747 167.592 31.5531L167.588 31.5704Z" fill="black"/>
<path d="M184.927 27.9232L193.584 26.0483C193.633 26.0377 193.683 26.0368 193.732 26.0456C193.781 26.0544 193.827 26.0727 193.869 26.0996C193.911 26.1264 193.947 26.1612 193.975 26.202C194.004 26.2427 194.024 26.2887 194.034 26.3372C194.045 26.3858 194.046 26.4359 194.037 26.4848C194.028 26.5336 194.01 26.5803 193.983 26.6221C193.956 26.6639 193.921 26.7 193.88 26.7283C193.84 26.7567 193.794 26.7767 193.745 26.7873L185.074 28.6713C185.025 28.6821 184.974 28.6831 184.924 28.6742C184.875 28.6653 184.827 28.6466 184.785 28.6194C184.742 28.5921 184.705 28.5568 184.676 28.5153C184.648 28.4738 184.627 28.4271 184.616 28.3777C184.606 28.3284 184.605 28.2774 184.613 28.2276C184.622 28.1779 184.641 28.1304 184.668 28.0878C184.696 28.0453 184.731 28.0085 184.772 27.9797C184.814 27.9508 184.861 27.9304 184.91 27.9196L184.927 27.9232Z" fill="black"/>
<path d="M202.229 24.1367L210.868 22.1435C210.961 22.122 211.059 22.1384 211.14 22.189C211.221 22.2397 211.279 22.3206 211.301 22.4138C211.322 22.507 211.306 22.605 211.255 22.6862C211.204 22.7674 211.123 22.825 211.03 22.8466L202.397 24.8409C202.35 24.8522 202.301 24.8541 202.253 24.8465C202.205 24.8389 202.16 24.8219 202.118 24.7966C202.077 24.7713 202.041 24.7381 202.013 24.6989C201.984 24.6597 201.964 24.6153 201.953 24.5683C201.941 24.5212 201.939 24.4723 201.947 24.4245C201.955 24.3767 201.972 24.3309 201.997 24.2896C202.022 24.2484 202.055 24.2125 202.095 24.184C202.134 24.1556 202.178 24.1352 202.225 24.1239L202.229 24.1367Z" fill="black"/>
<path d="M219.483 20.1091L228.078 17.9744C228.122 17.963 228.167 17.9604 228.212 17.9668C228.256 17.9731 228.299 17.9883 228.337 18.0114C228.376 18.0345 228.409 18.0651 228.436 18.1014C228.462 18.1377 228.481 18.1788 228.492 18.2226C228.503 18.2664 228.506 18.3122 228.499 18.3571C228.493 18.402 228.478 18.4452 228.455 18.4842C228.431 18.5232 228.401 18.5571 228.364 18.5842C228.328 18.6112 228.286 18.6307 228.242 18.6416L219.644 20.7879C219.554 20.8101 219.459 20.7955 219.379 20.7475C219.3 20.6994 219.243 20.6217 219.22 20.5316C219.198 20.4414 219.213 20.3461 219.261 20.2667C219.309 20.1872 219.387 20.1301 219.477 20.108L219.483 20.1091Z" fill="black"/>
<path d="M236.648 15.7465L245.189 13.4075C245.231 13.396 245.275 13.3928 245.318 13.3982C245.362 13.4036 245.403 13.4175 245.441 13.4391C245.479 13.4606 245.512 13.4894 245.539 13.5237C245.566 13.5581 245.585 13.5974 245.597 13.6394C245.608 13.6814 245.612 13.7252 245.606 13.7684C245.601 13.8116 245.587 13.8533 245.565 13.8912C245.544 13.929 245.515 13.9623 245.481 13.989C245.446 14.0157 245.407 14.0354 245.365 14.0469L236.82 16.4032C236.776 16.4233 236.728 16.4336 236.679 16.4334C236.631 16.4332 236.583 16.4226 236.539 16.4022C236.495 16.3818 236.456 16.3521 236.424 16.3152C236.393 16.2783 236.37 16.2351 236.357 16.1885C236.343 16.1418 236.34 16.0929 236.348 16.045C236.355 15.997 236.373 15.9513 236.4 15.9109C236.427 15.8704 236.462 15.8363 236.503 15.8107C236.544 15.7851 236.59 15.7687 236.638 15.7626L236.648 15.7465Z" fill="black"/>
<path d="M253.703 10.9733L262.09 8.18617C262.17 8.161 262.256 8.16816 262.331 8.2061C262.405 8.24405 262.462 8.30975 262.489 8.38904C262.514 8.46786 262.506 8.55339 262.469 8.62696C262.431 8.70054 262.366 8.75615 262.287 8.78169L253.865 11.5917C253.825 11.6049 253.783 11.61 253.741 11.6069C253.699 11.6037 253.658 11.5924 253.621 11.5734C253.583 11.5545 253.55 11.5283 253.522 11.4965C253.495 11.4646 253.474 11.4276 253.461 11.3877C253.448 11.3478 253.443 11.3056 253.446 11.2637C253.449 11.2217 253.46 11.1808 253.479 11.1433C253.498 11.1058 253.524 11.0723 253.556 11.0449C253.588 11.0175 253.625 10.9966 253.665 10.9834L253.703 10.9733Z" fill="black"/>
<path fill-rule="evenodd" clip-rule="evenodd" d="M287.132 139.845C329.905 135.378 364.038 124.265 363.369 115.026C362.701 105.786 327.485 101.917 284.713 106.385C275.754 107.32 267.174 108.548 259.214 109.988L208.54 131.677C210.358 140.575 245.095 144.236 287.132 139.845Z" fill="black"/>
<path d="M208.475 131.204C208.487 131.363 208.509 131.521 208.54 131.677L259.214 109.988C229.168 115.425 207.947 123.9 208.475 131.204Z" fill="#F1EFED"/>
<path d="M208.54 131.677L207.563 131.908L208.54 131.677ZM362.375 115.129C362.434 115.949 362.119 116.882 361.269 117.95C360.415 119.023 359.074 120.16 357.238 121.332C353.571 123.675 348.124 126.037 341.261 128.272C327.551 132.735 308.398 136.619 287.06 138.848L287.204 140.843C308.639 138.604 327.939 134.698 341.821 130.178C348.754 127.921 354.389 125.494 358.27 123.015C360.209 121.776 361.759 120.494 362.811 119.173C363.866 117.847 364.472 116.413 364.364 114.922L362.375 115.129ZM284.785 107.382C306.122 105.153 325.546 105.008 339.691 106.562C346.772 107.34 352.476 108.538 356.425 110.085C358.401 110.859 359.886 111.701 360.881 112.58C361.871 113.456 362.316 114.31 362.375 115.129L364.364 114.922C364.256 113.431 363.454 112.143 362.224 111.056C360.998 109.973 359.287 109.031 357.199 108.213C353.021 106.576 347.122 105.354 339.969 104.568C325.646 102.994 306.076 103.148 284.641 105.387L284.785 107.382ZM287.06 138.848C266.09 141.038 246.968 141.217 232.888 139.747C225.841 139.011 220.104 137.868 216.042 136.381C214.01 135.637 212.441 134.823 211.342 133.964C210.242 133.103 209.682 132.252 209.518 131.446L207.563 131.908C207.853 133.325 208.777 134.536 210.088 135.561C211.401 136.588 213.172 137.486 215.309 138.268C219.585 139.833 225.501 140.999 232.62 141.742C246.872 143.23 266.138 143.043 287.204 140.843L287.06 138.848ZM209.518 131.446C209.494 131.331 209.478 131.216 209.47 131.101L207.481 131.308C207.495 131.511 207.523 131.71 207.563 131.908L209.518 131.446ZM209.47 131.101C209.376 129.802 210.243 128.202 212.561 126.35C214.835 124.531 218.275 122.662 222.733 120.822C231.636 117.149 244.376 113.686 259.361 110.975L259.067 109.001C244.007 111.727 231.113 115.221 222.026 118.97C217.49 120.842 213.845 122.8 211.35 124.795C208.898 126.756 207.311 128.955 207.481 131.308L209.47 131.101ZM259.361 110.975C267.295 109.539 275.85 108.315 284.785 107.382L284.641 105.387C275.658 106.325 267.053 107.556 259.067 109.001L259.361 110.975ZM208.906 132.598L259.58 110.909L258.848 109.067L208.175 130.756L208.906 132.598Z" fill="black"/>
<ellipse rx="77.2723" ry="22.4895" transform="matrix(0.999475 0.0323875 -0.167555 0.985863 287.999 109.674)" fill="#F1EFED" stroke="black" stroke-width="1.13" stroke-linejoin="round"/>
<path d="M232.619 106.947L232.622 109.455L236.702 109.451L236.703 110.579L232.623 110.583L232.625 113.091L237.065 113.086L237.066 114.214L231.426 114.22L231.418 105.82L237.058 105.814L237.059 106.942L232.619 106.947ZM243.145 114.209L241.403 111.942L239.653 114.212L238.273 114.213L240.67 111.163L238.364 108.213L239.78 108.212L241.426 110.358L243.032 108.209L244.448 108.207L242.158 111.125L244.561 114.207L243.145 114.209ZM247.736 109.284L247.739 112.452C247.739 112.708 247.799 112.904 247.92 113.04C248.048 113.176 248.264 113.244 248.568 113.243C248.856 113.243 249.1 113.219 249.3 113.171L249.301 114.215C249.085 114.287 248.821 114.323 248.509 114.323C247.237 114.325 246.6 113.701 246.599 112.453L246.596 109.285L245.396 109.286L245.395 108.206L246.595 108.205L246.593 106.645L247.733 106.644L247.735 108.204L249.415 108.203L249.416 109.283L247.736 109.284ZM253.75 108.078C254.366 108.078 254.902 108.209 255.358 108.473C255.822 108.737 256.179 109.112 256.427 109.6C256.676 110.08 256.8 110.644 256.801 111.292C256.801 111.46 256.797 111.584 256.789 111.664L251.869 111.668C251.949 112.132 252.166 112.516 252.518 112.82C252.878 113.115 253.295 113.263 253.767 113.262C254.543 113.262 255.094 112.977 255.422 112.409L256.598 112.408C256.406 112.968 256.051 113.428 255.531 113.789C255.011 114.141 254.424 114.318 253.768 114.318C253.184 114.319 252.655 114.188 252.183 113.924C251.711 113.652 251.343 113.281 251.078 112.809C250.814 112.329 250.681 111.793 250.681 111.201C250.68 110.609 250.812 110.077 251.075 109.605C251.339 109.125 251.702 108.752 252.166 108.488C252.638 108.216 253.166 108.079 253.75 108.078ZM253.727 109.087C253.255 109.087 252.847 109.235 252.503 109.532C252.167 109.828 251.96 110.208 251.88 110.672L255.564 110.669C255.516 110.189 255.319 109.805 254.975 109.517C254.639 109.23 254.223 109.086 253.727 109.087ZM261.839 108.071C262.327 108.07 262.763 108.174 263.147 108.382C263.539 108.589 263.847 108.905 264.072 109.329C264.304 109.744 264.421 110.256 264.421 110.864L264.424 114.188L263.284 114.189L263.281 110.889C263.281 110.361 263.124 109.942 262.812 109.63C262.5 109.318 262.108 109.163 261.636 109.163C261.292 109.163 260.988 109.248 260.724 109.416C260.468 109.576 260.268 109.796 260.124 110.076C259.989 110.357 259.921 110.661 259.921 110.989L259.924 114.193L258.784 114.194L258.779 108.194L259.859 108.193L259.86 109.153C260.083 108.824 260.367 108.564 260.711 108.372C261.063 108.172 261.439 108.071 261.839 108.071ZM272.278 105.721L272.286 114.181L271.146 114.182L271.145 113.282C270.897 113.602 270.597 113.855 270.246 114.039C269.894 114.215 269.518 114.304 269.118 114.304C268.59 114.304 268.11 114.173 267.678 113.909C267.245 113.638 266.905 113.266 266.656 112.794C266.408 112.322 266.284 111.787 266.283 111.187C266.282 110.587 266.406 110.05 266.653 109.578C266.901 109.106 267.241 108.738 267.672 108.473C268.104 108.201 268.584 108.064 269.112 108.064C269.528 108.064 269.916 108.159 270.276 108.351C270.636 108.542 270.945 108.81 271.201 109.154L271.198 105.722L272.278 105.721ZM269.309 113.248C269.661 113.247 269.981 113.159 270.269 112.983C270.556 112.807 270.78 112.562 270.94 112.25C271.1 111.93 271.179 111.574 271.179 111.182C271.179 110.79 271.098 110.438 270.938 110.126C270.778 109.806 270.553 109.559 270.265 109.383C269.977 109.207 269.657 109.119 269.305 109.12C268.953 109.12 268.637 109.208 268.357 109.385C268.077 109.561 267.858 109.809 267.698 110.129C267.538 110.441 267.459 110.793 267.459 111.185C267.459 111.577 267.54 111.933 267.7 112.253C267.86 112.565 268.08 112.809 268.361 112.985C268.641 113.16 268.957 113.248 269.309 113.248ZM277.335 108.056C277.951 108.056 278.487 108.187 278.943 108.451C279.407 108.714 279.764 109.09 280.012 109.578C280.261 110.057 280.385 110.621 280.386 111.269C280.386 111.437 280.382 111.561 280.374 111.641L275.454 111.646C275.535 112.11 275.751 112.494 276.103 112.797C276.464 113.093 276.88 113.241 277.352 113.24C278.128 113.239 278.679 112.955 279.007 112.387L280.183 112.385C279.991 112.946 279.636 113.406 279.116 113.766C278.597 114.119 278.009 114.295 277.353 114.296C276.769 114.297 276.241 114.165 275.768 113.902C275.296 113.63 274.928 113.258 274.663 112.787C274.399 112.307 274.266 111.771 274.266 111.179C274.265 110.587 274.397 110.055 274.66 109.583C274.924 109.102 275.287 108.73 275.751 108.466C276.223 108.193 276.751 108.057 277.335 108.056ZM277.312 109.064C276.84 109.065 276.432 109.213 276.088 109.509C275.752 109.806 275.545 110.186 275.465 110.65L279.149 110.646C279.101 110.166 278.904 109.783 278.56 109.495C278.224 109.207 277.808 109.064 277.312 109.064ZM287.88 105.706L287.888 114.166L286.748 114.167L286.747 113.267C286.5 113.587 286.2 113.84 285.848 114.024C285.496 114.2 285.12 114.289 284.72 114.289C284.192 114.29 283.712 114.158 283.28 113.894C282.848 113.623 282.507 113.251 282.259 112.779C282.01 112.308 281.886 111.772 281.885 111.172C281.885 110.572 282.008 110.036 282.256 109.563C282.503 109.091 282.843 108.723 283.275 108.458C283.706 108.186 284.186 108.05 284.714 108.049C285.13 108.049 285.518 108.144 285.879 108.336C286.239 108.528 286.547 108.795 286.803 109.139L286.8 105.707L287.88 105.706ZM284.911 113.233C285.263 113.233 285.583 113.144 285.871 112.968C286.159 112.792 286.383 112.548 286.542 112.235C286.702 111.915 286.782 111.559 286.781 111.167C286.781 110.775 286.701 110.423 286.54 110.111C286.38 109.792 286.156 109.544 285.868 109.368C285.579 109.192 285.259 109.105 284.907 109.105C284.555 109.105 284.239 109.194 283.96 109.37C283.68 109.546 283.46 109.794 283.3 110.114C283.141 110.427 283.061 110.779 283.061 111.171C283.062 111.563 283.142 111.919 283.302 112.238C283.463 112.55 283.683 112.794 283.963 112.97C284.243 113.146 284.559 113.233 284.911 113.233ZM295.506 105.699L295.514 114.159L294.374 114.16L294.366 105.7L295.506 105.699ZM300.685 114.274C300.093 114.275 299.553 114.139 299.065 113.867C298.576 113.588 298.192 113.212 297.911 112.741C297.631 112.261 297.49 111.733 297.49 111.157C297.489 110.581 297.629 110.057 297.908 109.585C298.188 109.104 298.572 108.728 299.059 108.455C299.547 108.175 300.087 108.035 300.679 108.034C301.263 108.033 301.795 108.173 302.275 108.452C302.764 108.724 303.148 109.1 303.428 109.579C303.709 110.051 303.849 110.575 303.85 111.151C303.85 111.727 303.711 112.255 303.431 112.735C303.152 113.208 302.768 113.584 302.281 113.864C301.801 114.137 301.269 114.273 300.685 114.274ZM300.684 113.218C301.052 113.218 301.388 113.129 301.692 112.953C301.995 112.769 302.235 112.52 302.411 112.208C302.587 111.888 302.674 111.536 302.674 111.152C302.674 110.768 302.585 110.42 302.409 110.108C302.233 109.788 301.992 109.541 301.688 109.365C301.384 109.181 301.048 109.09 300.68 109.09C300.304 109.09 299.96 109.183 299.648 109.367C299.344 109.543 299.105 109.791 298.929 110.112C298.753 110.424 298.666 110.772 298.666 111.156C298.666 111.54 298.755 111.892 298.931 112.212C299.107 112.523 299.347 112.771 299.652 112.955C299.964 113.131 300.308 113.218 300.684 113.218ZM308.882 108.026C309.37 108.026 309.806 108.129 310.191 108.337C310.583 108.545 310.891 108.86 311.115 109.284C311.348 109.7 311.464 110.212 311.465 110.82L311.468 114.144L310.328 114.145L310.325 110.845C310.324 110.317 310.168 109.897 309.856 109.585C309.543 109.274 309.151 109.118 308.679 109.118C308.335 109.119 308.031 109.203 307.768 109.371C307.512 109.531 307.312 109.752 307.168 110.032C307.032 110.312 306.965 110.616 306.965 110.944L306.968 114.148L305.828 114.149L305.822 108.149L306.902 108.148L306.903 109.108C307.127 108.78 307.411 108.52 307.755 108.327C308.106 108.127 308.482 108.027 308.882 108.026ZM319.326 110.872C319.327 111.384 319.207 111.848 318.968 112.265C318.728 112.681 318.368 113.005 317.889 113.238C318.273 113.349 318.553 113.517 318.729 113.741C318.913 113.965 319.006 114.229 319.006 114.533C319.006 115.013 318.831 115.405 318.479 115.709C318.135 116.021 317.687 116.178 317.135 116.178L315.539 116.18C314.995 116.18 314.547 116.033 314.195 115.737C313.843 115.441 313.666 115.062 313.666 114.598C313.665 113.958 314.033 113.509 314.769 113.253C314.312 113.053 313.956 112.733 313.7 112.294C313.451 111.854 313.327 111.382 313.326 110.878C313.326 110.358 313.453 109.886 313.709 109.462C313.973 109.029 314.332 108.689 314.788 108.441C315.244 108.192 315.744 108.068 316.288 108.067C317.056 108.066 317.708 108.362 318.245 108.953L318.244 108.125L319.324 108.124L319.326 110.872ZM316.328 112.795C316.688 112.795 317.012 112.71 317.3 112.542C317.588 112.374 317.812 112.146 317.971 111.858C318.139 111.569 318.223 111.245 318.222 110.885C318.222 110.533 318.138 110.217 317.97 109.938C317.809 109.658 317.585 109.438 317.297 109.278C317.009 109.118 316.685 109.039 316.325 109.039C315.789 109.04 315.345 109.216 314.993 109.568C314.649 109.913 314.478 110.353 314.478 110.889C314.479 111.433 314.651 111.885 314.996 112.244C315.348 112.604 315.792 112.788 316.328 112.795ZM317.039 115.266C317.295 115.266 317.507 115.198 317.674 115.062C317.85 114.926 317.938 114.758 317.938 114.558C317.938 114.342 317.854 114.162 317.685 114.018C317.517 113.874 317.301 113.802 317.037 113.802L315.621 113.804C315.357 113.804 315.141 113.876 314.973 114.02C314.806 114.165 314.722 114.345 314.722 114.561C314.722 114.761 314.806 114.929 314.974 115.064C315.151 115.2 315.367 115.268 315.623 115.268L317.039 115.266ZM324.132 108.012C324.748 108.011 325.285 108.143 325.741 108.406C326.205 108.67 326.561 109.045 326.81 109.533C327.058 110.013 327.183 110.577 327.183 111.225C327.184 111.393 327.18 111.517 327.172 111.597L322.252 111.601C322.332 112.065 322.549 112.449 322.901 112.753C323.261 113.049 323.677 113.196 324.149 113.196C324.925 113.195 325.477 112.91 325.805 112.342L326.981 112.341C326.789 112.901 326.433 113.362 325.914 113.722C325.394 114.075 324.806 114.251 324.15 114.252C323.566 114.252 323.038 114.121 322.566 113.857C322.094 113.586 321.725 113.214 321.461 112.742C321.196 112.262 321.064 111.727 321.063 111.135C321.063 110.543 321.194 110.01 321.458 109.538C321.721 109.058 322.085 108.686 322.549 108.421C323.021 108.149 323.548 108.012 324.132 108.012ZM324.109 109.02C323.637 109.02 323.23 109.169 322.886 109.465C322.55 109.761 322.342 110.141 322.263 110.605L325.947 110.602C325.898 110.122 325.702 109.738 325.358 109.451C325.022 109.163 324.605 109.019 324.109 109.02ZM334.735 108.122L332.161 114.124L330.673 114.126L328.087 108.128L329.359 108.127L331.44 112.997L333.499 108.123L334.735 108.122ZM337.558 108.119L337.563 114.119L336.423 114.12L336.418 108.12L337.558 108.119ZM337.627 105.719L337.629 107.039L336.357 107.04L336.355 105.72L337.627 105.719ZM341.577 109.195L341.58 112.363C341.581 112.619 341.645 112.815 341.773 112.951C341.909 113.087 342.141 113.155 342.469 113.154C342.773 113.154 343.037 113.13 343.261 113.082L343.262 114.126C343.03 114.198 342.754 114.234 342.434 114.234C341.778 114.235 341.282 114.079 340.946 113.768C340.609 113.448 340.441 112.98 340.44 112.364L340.437 109.196L339.237 109.197L339.236 108.117L340.436 108.116L340.435 106.556L341.575 106.555L341.576 108.115L344.576 108.112L344.577 109.192L341.577 109.195ZM350.846 108.106L347.337 116.15L346.101 116.151L347.047 114.002L344.114 108.113L345.47 108.111L347.646 112.789L349.586 108.108L350.846 108.106Z" fill="black"/>
<path fill-rule="evenodd" clip-rule="evenodd" d="M21.4283 55.1381C22.8298 69.4213 69.2829 79.7479 125.184 78.203C153.542 77.4194 178.885 73.7311 196.79 68.4223C214.18 63.2661 224.555 56.5812 223.865 49.5437L178.713 29.562C175.689 29.1104 172.551 28.7018 169.312 28.339C154.619 26.693 137.839 25.9887 120.109 26.4787C64.2075 28.0236 20.0268 40.8548 21.4283 55.1381Z" fill="black"/>
<path d="M178.713 29.562C205.222 33.5213 223.006 40.7893 223.865 49.5437L178.713 29.562Z" fill="#F1EFED"/>
<path d="M196.79 68.4223L196.442 67.4667L196.79 68.4223ZM169.312 28.339L169.356 27.3498L169.312 28.339ZM178.713 29.562L178.794 28.5777L178.713 29.562ZM125.086 77.2078C97.1945 77.9786 71.6939 75.7859 53.0227 71.6353C43.6794 69.5582 36.1041 67.0033 30.8054 64.1198C25.4434 61.2018 22.7237 58.1249 22.4279 55.1104L20.4287 55.1657C20.8337 59.2928 24.4462 62.863 29.9353 65.8501C35.4876 68.8717 43.2822 71.48 52.7149 73.5769C71.596 77.7742 97.2724 79.9723 125.282 79.1983L125.086 77.2078ZM22.4279 55.1104C22.1321 52.0959 24.2349 48.8858 28.9968 45.688C33.7025 42.528 40.7368 39.5694 49.6231 36.9886C67.3809 31.8313 92.3145 28.2447 120.206 27.4739L120.011 25.4835C92.0018 26.2575 66.8944 29.8591 48.9369 35.0744C39.9656 37.6799 32.7237 40.7037 27.7927 44.015C22.918 47.2886 20.0237 51.0386 20.4287 55.1657L22.4279 55.1104ZM222.865 49.5713C223.156 52.541 221.121 55.7014 216.5 58.8558C211.931 61.9744 205.094 64.9013 196.442 67.4667L197.138 69.3779C205.876 66.7872 212.921 63.7935 217.715 60.5211C222.457 57.2846 225.263 53.5839 224.864 49.5161L222.865 49.5713ZM196.442 67.4667C178.639 72.7452 153.386 76.4258 125.086 77.2078L125.282 79.1983C153.699 78.4129 179.13 74.7171 197.138 69.3779L196.442 67.4667ZM120.206 27.4739C137.895 26.9851 154.627 27.688 169.269 29.3282L169.356 27.3498C154.611 25.698 137.784 24.9924 120.011 25.4835L120.206 27.4739ZM169.269 29.3282C172.496 29.6897 175.621 30.0967 178.631 30.5463L178.794 28.5777C175.757 28.1241 172.607 27.7139 169.356 27.3498L169.269 29.3282ZM178.631 30.5463C191.843 32.5196 202.815 35.309 210.561 38.6628C214.436 40.3406 217.45 42.1372 219.53 44.0023C221.607 45.864 222.684 47.7279 222.865 49.5713L224.864 49.5161C224.616 46.9823 223.148 44.6548 220.82 42.5679C218.496 40.4844 215.246 38.575 211.255 36.8466C203.267 33.388 192.092 30.5638 178.794 28.5777L178.631 30.5463ZM224.219 48.6391L179.068 28.6574L178.358 30.4667L223.51 50.4483L224.219 48.6391Z" fill="black"/>
<path d="M208.502 22.9466C216.7 35.579 180.439 53.6608 127.513 63.3335C74.5864 73.0062 25.0358 70.6069 16.8385 57.9745C8.64128 45.3421 44.9015 27.2603 97.828 17.5877C150.755 7.91498 200.305 10.3143 208.502 22.9466Z" fill="#F1EFED" stroke="black" stroke-width="1.13" stroke-linejoin="round"/>
<path d="M42.1473 45.0515L43.3872 53.3595L42.2004 53.5366L40.9604 45.2286L42.1473 45.0515ZM48.1246 46.4646C48.6073 46.3926 49.0538 46.4311 49.4643 46.5801C49.8828 46.728 50.234 46.995 50.5182 47.3813C50.809 47.7585 50.9993 48.2478 51.0891 48.8491L51.5798 52.1367L50.4523 52.305L49.9651 49.0412C49.8872 48.5189 49.6709 48.1266 49.3162 47.864C48.9616 47.6015 48.5509 47.5051 48.084 47.5748C47.7438 47.6255 47.4555 47.7535 47.2192 47.9586C46.9897 48.1547 46.8243 48.4018 46.7232 48.7C46.6301 48.997 46.6077 49.3077 46.6561 49.6321L47.1291 52.801L46.0015 52.9693L45.1159 47.035L46.184 46.8756L46.3257 47.8251C46.4989 47.4676 46.7414 47.1685 47.0533 46.9278C47.3719 46.6781 47.729 46.5237 48.1246 46.4646ZM52.9779 48.8948C52.8929 48.3251 52.954 47.7862 53.1613 47.278C53.3674 46.762 53.6916 46.3334 54.1341 45.9923C54.5755 45.6434 55.0889 45.4252 55.6744 45.3378C56.3311 45.2398 56.9495 45.3457 57.5296 45.6554C58.1164 45.9561 58.539 46.4026 58.7972 46.995L57.5629 47.1792C57.3812 46.8828 57.1264 46.666 56.7985 46.5289C56.4774 46.3827 56.1349 46.3368 55.7709 46.3911C55.3991 46.4466 55.0803 46.5872 54.8147 46.8129C54.5479 47.0306 54.3551 47.3102 54.2362 47.6515C54.1161 47.9848 54.0844 48.3414 54.141 48.7212C54.1977 49.101 54.3328 49.4368 54.5462 49.7284C54.7584 50.0122 55.0244 50.2233 55.3444 50.3616C55.6631 50.4919 56.0084 50.5294 56.3803 50.4739C56.7443 50.4195 57.059 50.2795 57.3246 50.0539C57.597 49.8191 57.7768 49.5334 57.864 49.1969L59.0984 49.0126C59.0243 49.6546 58.7512 50.209 58.2789 50.6758C57.8134 51.1335 57.2522 51.4114 56.5955 51.5094C56.01 51.5968 55.4558 51.542 54.933 51.345C54.4091 51.1402 53.9738 50.825 53.6272 50.3995C53.2794 49.9661 53.063 49.4645 52.9779 48.8948ZM63.359 44.1909C63.5489 44.1625 63.7287 44.1478 63.8984 44.1468L64.0631 45.2505C63.916 45.2401 63.6881 45.258 63.3795 45.304C63.0314 45.356 62.7346 45.4812 62.4892 45.6796C62.2517 45.8768 62.0779 46.1211 61.9677 46.4126C61.8643 46.6949 61.8362 46.9944 61.8834 47.3109L62.3634 50.5272L61.2359 50.6955L60.3502 44.7613L61.4184 44.6018L61.5548 45.5157C61.7291 45.1662 61.9728 44.875 62.2859 44.6422C62.6057 44.4004 62.9634 44.2499 63.359 44.1909ZM67.823 43.5246C68.4322 43.4337 68.9818 43.4851 69.4718 43.6789C69.9697 43.8715 70.3773 44.1909 70.6946 44.6369C71.0107 45.075 71.2166 45.6146 71.3123 46.2555C71.3371 46.4216 71.3514 46.5448 71.3553 46.6252L66.4892 47.3514C66.6369 47.7985 66.9072 48.1464 67.3002 48.3951C67.6999 48.6348 68.1332 48.7197 68.6001 48.6501C69.3676 48.5355 69.8716 48.1731 70.1122 47.5629L71.2753 47.3893C71.168 47.9716 70.8838 48.4791 70.4227 48.9119C69.9603 49.3368 69.4048 49.5977 68.7559 49.6945C68.1783 49.7807 67.6366 49.7281 67.1308 49.5367C66.6239 49.3373 66.205 49.0237 65.8742 48.5958C65.5422 48.1601 65.3326 47.6494 65.2452 47.0639C65.1578 46.4784 65.2098 45.9327 65.4012 45.4269C65.5915 44.9132 65.8966 44.4916 66.3165 44.162C66.7432 43.8233 67.2454 43.6108 67.823 43.5246ZM67.948 44.5251C67.4812 44.5948 67.0995 44.8014 66.803 45.1449C66.5143 45.4873 66.3647 45.8938 66.3541 46.3646L69.9977 45.8207C69.8794 45.3531 69.6289 45.0022 69.2461 44.7682C68.8713 44.5329 68.4386 44.4519 67.948 44.5251ZM78.2727 42.0863L79.1583 48.0206L78.0308 48.1889L77.898 47.2987C77.6999 47.6518 77.4404 47.9454 77.1194 48.1793C76.7973 48.4053 76.4384 48.5479 76.0428 48.6069C75.5206 48.6849 75.0263 48.6252 74.5601 48.4278C74.0927 48.2226 73.7015 47.9048 73.3865 47.4746C73.0716 47.0444 72.8698 46.5326 72.7812 45.9392C72.6927 45.3457 72.7362 44.7973 72.9118 44.2939C73.0874 43.7904 73.3694 43.3763 73.7576 43.0514C74.1448 42.7186 74.5994 42.5132 75.1216 42.4353C75.5331 42.3739 75.931 42.4116 76.3154 42.5483C76.6998 42.6851 77.044 42.9047 77.348 43.2071L77.2045 42.2458L78.2727 42.0863ZM76.0768 47.5342C76.4249 47.4822 76.7284 47.3479 76.9873 47.1313C77.2462 46.9147 77.4317 46.6404 77.5439 46.3082C77.6549 45.968 77.6815 45.6041 77.6236 45.2164C77.5657 44.8287 77.4346 44.4924 77.2303 44.2074C77.0249 43.9145 76.7667 43.7023 76.4559 43.5708C76.1451 43.4392 75.8156 43.3994 75.4674 43.4514C75.1193 43.5033 74.8197 43.637 74.5688 43.8524C74.3178 44.0678 74.1368 44.3456 74.0258 44.6857C73.9136 45.0179 73.8865 45.3779 73.9443 45.7656C74.0022 46.1533 74.1339 46.4936 74.3394 46.7864C74.5437 47.0714 74.7973 47.2802 75.1002 47.413C75.4031 47.5457 75.7286 47.5861 76.0768 47.5342ZM83.7601 47.4551C83.0163 47.5661 82.3613 47.4859 81.7951 47.2145C81.2355 46.9341 80.8696 46.4872 80.6971 45.8739L81.8246 45.7056C81.9783 46.0305 82.206 46.2554 82.5077 46.3802C82.8162 46.4959 83.1999 46.5196 83.6588 46.4511C84.086 46.3873 84.4202 46.2687 84.6612 46.0952C84.9011 45.9138 85.0045 45.7123 84.9714 45.4908C84.9383 45.2692 84.8214 45.1087 84.6205 45.0093C84.4263 44.9008 84.082 44.843 83.5876 44.8359L82.8933 44.8182C81.4313 44.7775 80.6336 44.3102 80.5002 43.4161C80.4222 42.8939 80.5891 42.4403 81.0008 42.0553C81.4113 41.6624 81.9884 41.4104 82.7322 41.2994C83.4047 41.199 84.002 41.2717 84.524 41.5173C85.0448 41.755 85.4098 42.1414 85.619 42.6763L84.4203 42.8553C84.2899 42.6321 84.0808 42.4772 83.7929 42.3908C83.5038 42.2964 83.197 42.2735 82.8726 42.3219C82.4612 42.3833 82.1423 42.4956 81.9159 42.6588C81.6962 42.8129 81.6023 42.9968 81.6342 43.2104C81.6626 43.4003 81.7772 43.545 81.9781 43.6444C82.1778 43.7359 82.4841 43.7832 82.8971 43.7863L83.6032 43.8023C84.4303 43.8163 85.0331 43.9528 85.4114 44.2118C85.7886 44.4629 86.0138 44.8337 86.087 45.3243C86.165 45.8465 85.9948 46.3046 85.5763 46.6987C85.1647 47.0837 84.5592 47.3358 83.7601 47.4551ZM89.9443 40.223C90.5536 40.1321 91.1032 40.1835 91.5932 40.3773C92.0911 40.5699 92.4987 40.8892 92.816 41.3353C93.1321 41.7734 93.338 42.3129 93.4337 42.9538C93.4585 43.12 93.4728 43.2432 93.4767 43.3235L88.6106 44.0498C88.7582 44.4969 89.0286 44.8448 89.4216 45.0935C89.8213 45.3331 90.2546 45.4181 90.7214 45.3484C91.4889 45.2339 91.993 44.8715 92.2335 44.2613L93.3967 44.0877C93.2894 44.6699 93.0052 45.1774 92.5441 45.6102C92.0817 46.0352 91.5261 46.296 90.8773 46.3929C90.2997 46.4791 89.758 46.4265 89.2522 46.235C88.7452 46.0357 88.3264 45.7221 87.9956 45.2942C87.6636 44.8584 87.4539 44.3478 87.3666 43.7623C87.2792 43.1768 87.3312 42.6311 87.5226 42.1253C87.7129 41.6116 88.018 41.1899 88.4379 40.8603C88.8646 40.5216 89.3667 40.3092 89.9443 40.223ZM90.0694 41.2235C89.6026 41.2932 89.2209 41.4998 88.9243 41.8433C88.6357 42.1857 88.4861 42.5922 88.4755 43.0629L92.1191 42.5191C92.0008 42.0515 91.7502 41.7006 91.3675 41.4665C90.9927 41.2313 90.56 41.1503 90.0694 41.2235ZM100.031 36.3516L101.28 44.719L100.152 44.8872L100.019 43.9971C99.8213 44.3502 99.5618 44.6437 99.2408 44.8777C98.9187 45.1037 98.5598 45.2462 98.1641 45.3053C97.6419 45.3832 97.1477 45.3235 96.6815 45.1262C96.214 44.921 95.8229 44.6032 95.5079 44.173C95.1929 43.7428 94.9912 43.231 94.9026 42.6375C94.814 42.0441 94.8576 41.4957 95.0332 40.9922C95.2088 40.4888 95.4907 40.0746 95.879 39.7498C96.2661 39.417 96.7208 39.2116 97.243 39.1337C97.6545 39.0722 98.0524 39.1099 98.4368 39.2467C98.8212 39.3834 99.1654 39.603 99.4693 39.9055L98.9627 36.5111L100.031 36.3516ZM98.1982 44.2325C98.5463 44.1806 98.8498 44.0463 99.1087 43.8297C99.3675 43.6131 99.5531 43.3387 99.6653 43.0065C99.7763 42.6664 99.8028 42.3025 99.745 41.9148C99.6871 41.5271 99.556 41.1908 99.3517 40.9058C99.1462 40.6129 98.8881 40.4007 98.5773 40.2691C98.2664 40.1376 97.9369 40.0978 97.5888 40.1497C97.2407 40.2017 96.9411 40.3354 96.6902 40.5508C96.4392 40.7662 96.2582 41.044 96.1472 41.3841C96.035 41.7163 96.0079 42.0762 96.0657 42.4639C96.1236 42.8516 96.2553 43.1919 96.4607 43.4848C96.6651 43.7698 96.9187 43.9786 97.2216 44.1114C97.5245 44.2441 97.85 44.2845 98.1982 44.2325ZM109.925 37.2409C110.447 37.163 110.942 37.2266 111.409 37.4319C111.875 37.6292 112.266 37.943 112.581 38.3732C112.896 38.8034 113.098 39.3153 113.186 39.9087C113.275 40.5021 113.231 41.0505 113.056 41.554C112.88 42.0574 112.599 42.4755 112.212 42.8083C111.823 43.1332 111.368 43.3346 110.846 43.4126C110.45 43.4716 110.065 43.4401 109.691 43.318C109.316 43.1879 108.982 42.983 108.689 42.7031L109.123 45.6109L107.996 45.7792L106.809 37.8272L107.877 37.6678L108.021 38.6292C108.223 38.2512 108.488 37.9406 108.816 37.6976C109.144 37.4545 109.513 37.3023 109.925 37.2409ZM110.5 42.3965C110.848 42.3445 111.148 42.2108 111.399 41.9954C111.65 41.78 111.831 41.5062 111.943 41.174C112.054 40.8339 112.081 40.47 112.023 40.0823C111.965 39.6946 111.834 39.3582 111.63 39.0733C111.424 38.7804 111.17 38.5676 110.867 38.4349C110.564 38.3021 110.239 38.2617 109.891 38.3137C109.542 38.3656 109.239 38.4999 108.98 38.7165C108.721 38.9331 108.536 39.2114 108.425 39.5516C108.313 39.8838 108.286 40.2437 108.344 40.6314C108.402 41.0191 108.533 41.3594 108.739 41.6523C108.943 41.9372 109.201 42.1455 109.512 42.2771C109.822 42.4086 110.152 42.4484 110.5 42.3965ZM117.249 36.1478C117.858 36.0568 118.408 36.1083 118.898 36.3021C119.396 36.4947 119.803 36.814 120.121 37.26C120.437 37.6982 120.643 38.2377 120.738 38.8786C120.763 39.0448 120.777 39.168 120.781 39.2483L115.915 39.9746C116.063 40.4217 116.333 40.7696 116.726 41.0183C117.126 41.2579 117.559 41.3429 118.026 41.2732C118.794 41.1586 119.298 40.7963 119.538 40.1861L120.701 40.0125C120.594 40.5947 120.31 41.1022 119.849 41.535C119.386 41.9599 118.831 42.2208 118.182 42.3176C117.604 42.4038 117.063 42.3512 116.557 42.1598C116.05 41.9604 115.631 41.6468 115.3 41.219C114.968 40.7832 114.759 40.2726 114.671 39.6871C114.584 39.1015 114.636 38.5559 114.827 38.0501C115.017 37.5364 115.323 37.1147 115.743 36.7851C116.169 36.4464 116.671 36.234 117.249 36.1478ZM117.374 37.1483C116.907 37.2179 116.525 37.4245 116.229 37.7681C115.94 38.1104 115.791 38.517 115.78 38.9877L119.424 38.4439C119.305 37.9762 119.055 37.6254 118.672 37.3913C118.297 37.1561 117.865 37.075 117.374 37.1483ZM125.249 34.9537C125.439 34.9254 125.619 34.9107 125.789 34.9096L125.953 36.0134C125.806 36.003 125.578 36.0208 125.27 36.0669C124.922 36.1188 124.625 36.244 124.379 36.4424C124.142 36.6396 123.968 36.884 123.858 37.1754C123.755 37.4578 123.726 37.7572 123.774 38.0737L124.254 41.2901L123.126 41.4584L122.24 35.5241L123.309 35.3647L123.445 36.2786C123.619 35.929 123.863 35.6378 124.176 35.4051C124.496 35.1632 124.854 35.0128 125.249 34.9537ZM129.622 32.9664C129.298 33.0149 129.078 33.1164 128.964 33.2709C128.857 33.4243 128.823 33.6276 128.861 33.8808L128.956 34.5217L130.618 34.2737L130.777 35.3419L129.116 35.5899L129.842 40.456L128.715 40.6243L127.988 35.7582L126.801 35.9353L126.642 34.8672L127.829 34.69L127.733 34.0491C127.642 33.4399 127.74 32.9562 128.026 32.598C128.311 32.2319 128.778 32.0004 129.427 31.9036C129.744 31.8563 130.022 31.8512 130.262 31.8882L130.416 32.9207C130.187 32.9063 129.923 32.9216 129.622 32.9664ZM135.635 39.7128C135.049 39.8002 134.495 39.7454 133.972 39.5484C133.448 39.3435 133.013 39.0283 132.667 38.6028C132.319 38.1694 132.102 37.6678 132.017 37.0981C131.932 36.5284 131.993 35.9895 132.201 35.4814C132.407 34.9653 132.731 34.5367 133.174 34.1957C133.615 33.8467 134.128 33.6285 134.714 33.5411C135.291 33.4549 135.838 33.5149 136.354 33.7209C136.877 33.9179 137.312 34.2331 137.66 34.6665C138.007 35.092 138.223 35.5896 138.308 36.1593C138.393 36.729 138.332 37.2719 138.126 37.7879C137.919 38.2961 137.594 38.7247 137.153 39.0736C136.719 39.4135 136.212 39.6266 135.635 39.7128ZM135.479 38.6683C135.843 38.614 136.162 38.4774 136.437 38.2584C136.71 38.0316 136.911 37.7509 137.039 37.4163C137.166 37.0738 137.201 36.7127 137.144 36.3329C137.088 35.9531 136.949 35.6219 136.729 35.3393C136.508 35.0488 136.234 34.8389 135.907 34.7097C135.58 34.5726 135.234 34.5312 134.87 34.5856C134.498 34.6411 134.171 34.7828 133.89 35.0109C133.615 35.2298 133.414 35.5105 133.287 35.853C133.159 36.1876 133.124 36.5447 133.18 36.9245C133.237 37.3043 133.376 37.6395 133.597 37.93C133.818 38.2126 134.092 38.4225 134.419 38.5596C134.754 38.6876 135.107 38.7238 135.479 38.6683ZM142.827 32.3302C143.017 32.3018 143.197 32.2871 143.367 32.2861L143.531 33.3899C143.384 33.3795 143.156 33.3973 142.848 33.4433C142.5 33.4953 142.203 33.6205 141.957 33.8189C141.72 34.0161 141.546 34.2604 141.436 34.5519C141.332 34.8343 141.304 35.1337 141.352 35.4502L141.832 38.6666L140.704 38.8348L139.818 32.9006L140.887 32.7412L141.023 33.655C141.197 33.3055 141.441 33.0143 141.754 32.7815C142.074 32.5397 142.432 32.3892 142.827 32.3302ZM152.445 30.8947C152.92 30.8238 153.359 30.8635 153.761 31.0137C154.172 31.1628 154.515 31.431 154.791 31.8185C155.074 32.1969 155.261 32.6867 155.35 33.288L155.841 36.5756L154.714 36.7439L154.227 33.4801C154.149 32.9579 153.936 32.5649 153.59 32.3012C153.251 32.0363 152.856 31.9375 152.405 32.0048C151.914 32.078 151.545 32.3112 151.296 32.7042C151.047 33.0972 150.961 33.5469 151.036 34.0533L151.509 37.2222L150.382 37.3905L149.894 34.1266C149.817 33.6044 149.604 33.2114 149.257 32.9477C148.919 32.6829 148.524 32.5841 148.073 32.6514C147.582 32.7246 147.213 32.9577 146.964 33.3507C146.715 33.7438 146.629 34.1935 146.704 34.6998L147.177 37.8687L146.05 38.037L145.164 32.1028L146.232 31.9433L146.372 32.8809C146.537 32.5247 146.772 32.2268 147.076 31.9873C147.388 31.7466 147.734 31.5979 148.113 31.5412C148.58 31.4716 149.015 31.5118 149.417 31.662C149.827 31.8032 150.164 32.0562 150.429 32.4211C150.604 32.0229 150.869 31.688 151.225 31.4165C151.588 31.1359 151.994 30.962 152.445 30.8947ZM162.725 29.4818L163.61 35.4161L162.483 35.5843L162.35 34.6942C162.152 35.0473 161.892 35.3408 161.571 35.5748C161.249 35.8008 160.89 35.9434 160.495 36.0024C159.973 36.0803 159.478 36.0206 159.012 35.8233C158.545 35.6181 158.154 35.3003 157.839 34.8701C157.524 34.4399 157.322 33.9281 157.233 33.3346C157.145 32.7412 157.188 32.1928 157.364 31.6893C157.539 31.1859 157.821 30.7717 158.21 30.4469C158.597 30.1141 159.051 29.9087 159.574 29.8308C159.985 29.7694 160.383 29.807 160.767 29.9438C161.152 30.0805 161.496 30.3001 161.8 30.6026L161.657 29.6412L162.725 29.4818ZM160.529 34.9296C160.877 34.8777 161.18 34.7434 161.439 34.5268C161.698 34.3102 161.884 34.0358 161.996 33.7036C162.107 33.3635 162.134 32.9996 162.076 32.6119C162.018 32.2242 161.887 31.8879 161.682 31.6029C161.477 31.31 161.219 31.0978 160.908 30.9662C160.597 30.8347 160.268 30.7949 159.919 30.8468C159.571 30.8988 159.272 31.0325 159.021 31.2479C158.77 31.4633 158.589 31.7411 158.478 32.0812C158.366 32.4134 158.339 32.7733 158.396 33.161C158.454 33.5487 158.586 33.889 158.791 34.1819C158.996 34.4669 159.249 34.6757 159.552 34.8085C159.855 34.9412 160.181 34.9816 160.529 34.9296ZM168.229 28.539C168.711 28.467 169.158 28.5055 169.568 28.6545C169.987 28.8024 170.338 29.0694 170.622 29.4557C170.913 29.8329 171.103 30.3222 171.193 30.9235L171.684 34.2111L170.556 34.3794L170.069 31.1155C169.991 30.5933 169.775 30.201 169.42 29.9384C169.066 29.6759 168.655 29.5795 168.188 29.6492C167.848 29.6999 167.56 29.8279 167.323 30.033C167.094 30.2291 166.928 30.4762 166.827 30.7744C166.734 31.0714 166.712 31.3821 166.76 31.7065L167.233 34.8754L166.106 35.0437L165.22 29.1094L166.288 28.95L166.43 29.8994C166.603 29.542 166.845 29.2429 167.157 29.0022C167.476 28.7525 167.833 28.598 168.229 28.539ZM173.082 30.9692C172.997 30.3995 173.058 29.8606 173.265 29.3524C173.471 28.8364 173.796 28.4078 174.238 28.0667C174.679 27.7178 175.193 27.4996 175.778 27.4122C176.435 27.3142 177.054 27.4201 177.634 27.7298C178.22 28.0305 178.643 28.477 178.901 29.0694L177.667 29.2536C177.485 28.9572 177.23 28.7404 176.903 28.6033C176.581 28.4571 176.239 28.4112 175.875 28.4655C175.503 28.521 175.184 28.6616 174.919 28.8873C174.652 29.105 174.459 29.3846 174.34 29.7258C174.22 30.0592 174.188 30.4158 174.245 30.7956C174.302 31.1754 174.437 31.5111 174.65 31.8028C174.862 32.0866 175.128 32.2977 175.448 32.4359C175.767 32.5663 176.112 32.6038 176.484 32.5483C176.848 32.4939 177.163 32.3539 177.429 32.1283C177.701 31.8935 177.881 31.6078 177.968 31.2712L179.202 31.087C179.128 31.729 178.855 32.2834 178.383 32.7502C177.917 33.2079 177.356 33.4858 176.7 33.5838C176.114 33.6712 175.56 33.6164 175.037 33.4194C174.513 33.2145 174.078 32.8993 173.731 32.4739C173.383 32.0404 173.167 31.5389 173.082 30.9692ZM182.999 26.3346C183.608 26.2436 184.158 26.2951 184.648 26.4888C185.145 26.6815 185.553 27.0008 185.87 27.4468C186.187 27.885 186.392 28.4245 186.488 29.0654C186.513 29.2315 186.527 29.3548 186.531 29.4351L181.665 30.1614C181.813 30.6085 182.083 30.9564 182.476 31.2051C182.876 31.4447 183.309 31.5297 183.776 31.46C184.543 31.3454 185.047 30.9831 185.288 30.3729L186.451 30.1993C186.344 30.7815 186.06 31.289 185.598 31.7218C185.136 32.1467 184.581 32.4076 183.932 32.5044C183.354 32.5906 182.812 32.538 182.307 32.3466C181.8 32.1472 181.381 31.8336 181.05 31.4058C180.718 30.97 180.508 30.4594 180.421 29.8738C180.334 29.2883 180.386 28.7427 180.577 28.2369C180.767 27.7232 181.072 27.3015 181.492 26.9719C181.919 26.6332 182.421 26.4208 182.999 26.3346ZM183.124 27.3351C182.657 27.4047 182.275 27.6113 181.979 27.9549C181.69 28.2972 181.541 28.7038 181.53 29.1745L185.174 28.6307C185.055 28.163 184.805 27.8122 184.422 27.5781C184.047 27.3428 183.614 27.2618 183.124 27.3351Z" fill="black"/>
<path fill-rule="evenodd" clip-rule="evenodd" d="M162.041 248.358C233.346 250.606 291.951 243.226 292.938 231.875C293.926 220.524 236.922 209.5 165.617 207.252C150.682 206.781 136.305 206.733 122.897 207.055L34.7202 224.321C35.6984 235.463 91.963 246.149 162.041 248.358Z" fill="black"/>
<path d="M34.7198 223.735C34.7029 223.931 34.703 224.126 34.7202 224.321L122.897 207.055C72.2903 208.27 35.5005 214.762 34.7198 223.735Z" fill="#F1EFED"/>
<path d="M34.7202 224.321L33.7207 224.461L34.7202 224.321ZM291.939 231.844C291.855 232.809 291.141 233.918 289.408 235.13C287.694 236.328 285.155 237.5 281.824 238.612C275.173 240.833 265.605 242.739 253.787 244.228C230.166 247.202 197.744 248.485 162.128 247.362L161.954 249.355C197.643 250.48 230.176 249.196 253.931 246.205C265.8 244.71 275.525 242.784 282.368 240.499C285.784 239.358 288.543 238.108 290.501 236.739C292.441 235.384 293.775 233.779 293.938 231.907L291.939 231.844ZM165.53 208.248C201.147 209.371 233.169 212.685 256.144 217.129C267.639 219.352 276.824 221.849 283.054 224.476C286.174 225.792 288.495 227.117 289.992 228.416C291.506 229.73 292.023 230.878 291.939 231.844L293.938 231.907C294.1 230.034 293.052 228.355 291.359 226.884C289.649 225.4 287.122 223.983 283.922 222.634C277.513 219.931 268.176 217.404 256.63 215.171C233.524 210.702 201.392 207.381 165.704 206.256L165.53 208.248ZM162.128 247.362C127.124 246.259 95.5922 243.038 72.7074 238.71C61.2588 236.545 52.0138 234.109 45.5899 231.539C42.3744 230.253 39.9117 228.951 38.239 227.662C36.5415 226.354 35.8071 225.177 35.7197 224.18L33.7207 224.461C33.8777 226.25 35.1156 227.844 36.9561 229.262C38.8214 230.699 41.4623 232.077 44.7541 233.394C51.3449 236.031 60.7294 238.494 72.2289 240.669C95.2405 245.022 126.88 248.249 161.954 249.355L162.128 247.362ZM35.7197 224.18C35.7075 224.041 35.7074 223.904 35.7193 223.767L33.7203 223.704C33.6983 223.957 33.6986 224.21 33.7207 224.461L35.7197 224.18ZM35.7193 223.767C35.7857 223.004 36.2403 222.154 37.2992 221.222C38.3603 220.287 39.9461 219.346 42.0691 218.424C46.3103 216.581 52.4734 214.908 60.2549 213.465C75.8012 210.582 97.5909 208.658 122.866 208.051L122.928 206.058C97.5964 206.667 75.6878 208.596 59.9924 211.506C52.1531 212.96 45.8094 214.668 41.3515 216.604C39.125 217.571 37.3131 218.619 36.0152 219.762C34.715 220.907 33.8491 222.223 33.7203 223.704L35.7193 223.767ZM122.866 208.051C136.254 207.73 150.613 207.778 165.53 208.248L165.704 206.256C150.751 205.785 136.355 205.736 122.928 206.058L122.866 208.051ZM34.8617 225.298L123.039 208.032L122.756 206.077L34.5787 223.343L34.8617 225.298Z" fill="black"/>
<ellipse rx="131.204" ry="28.2735" transform="matrix(0.989756 0.142769 -0.367133 0.930168 164.941 214.461)" fill="#F1EFED" stroke="black" stroke-width="1.13" stroke-linejoin="round"/>
<path d="M65.9604 196.923L63.3248 204.899L62.1352 204.741L64.7708 196.765L65.9604 196.923ZM70.8986 199.839C71.3824 199.903 71.7819 200.059 72.0973 200.307C72.4207 200.556 72.6268 200.897 72.7158 201.329C72.8153 201.754 72.7696 202.256 72.5789 202.833L71.5359 205.989L70.4059 205.839L71.4413 202.706C71.6069 202.204 71.5841 201.785 71.3727 201.448C71.1613 201.11 70.8217 200.911 70.3538 200.849C70.0128 200.803 69.685 200.843 69.3706 200.968C69.0667 201.086 68.7994 201.269 68.5688 201.515C68.3461 201.763 68.1833 202.043 68.0804 202.355L67.0751 205.397L65.945 205.247L67.8276 199.55L68.8982 199.692L68.597 200.603C68.922 200.321 69.2851 200.112 69.6863 199.975C70.098 199.831 70.5021 199.786 70.8986 199.839ZM81.3241 201.342L76.884 206.699L75.409 206.504L74.734 200.467L75.9949 200.634L76.5242 205.534L80.0989 201.179L81.3241 201.342ZM88.464 202.29L86.5815 207.987L85.5109 207.845L85.8121 206.934C85.4871 207.216 85.1188 207.428 84.7071 207.572C84.3059 207.709 83.907 207.751 83.5105 207.698C83.0267 207.634 82.6232 207.478 82.2998 207.228C81.9844 206.98 81.777 206.644 81.6776 206.218C81.5886 205.786 81.6394 205.281 81.8302 204.704L82.8731 201.548L84.0032 201.698L82.9678 204.831C82.8021 205.333 82.825 205.752 83.0364 206.089C83.2478 206.427 83.5874 206.626 84.0553 206.688C84.3963 206.734 84.7188 206.697 85.0228 206.579C85.3372 206.454 85.6057 206.268 85.8284 206.02C86.059 205.773 86.2258 205.494 86.3287 205.183L87.334 202.14L88.464 202.29ZM92.8654 200.437L90.211 208.469L89.0809 208.319L91.7354 200.287L92.8654 200.437ZM97.6613 203.393C98.145 203.457 98.5446 203.613 98.86 203.861C99.1833 204.111 99.3895 204.451 99.4785 204.883C99.578 205.309 99.5323 205.81 99.3415 206.387L98.2986 209.544L97.1685 209.393L98.2039 206.26C98.3696 205.759 98.3467 205.339 98.1353 205.002C97.9239 204.665 97.5843 204.465 97.1164 204.403C96.7754 204.358 96.4477 204.397 96.1333 204.522C95.8293 204.64 95.562 204.823 95.3314 205.07C95.1088 205.318 94.946 205.597 94.8431 205.909L93.8378 208.951L92.7077 208.801L94.5903 203.104L95.6609 203.246L95.3596 204.158C95.6846 203.876 96.0477 203.666 96.449 203.529C96.8606 203.386 97.2648 203.34 97.6613 203.393ZM105.109 204.382C105.72 204.463 106.21 204.659 106.579 204.97C106.956 205.282 107.191 205.685 107.284 206.182C107.379 206.67 107.325 207.222 107.122 207.837C107.069 207.997 107.026 208.114 106.993 208.189L102.116 207.541C102.05 207.992 102.143 208.385 102.397 208.72C102.661 209.049 103.027 209.244 103.495 209.306C104.264 209.408 104.9 209.211 105.404 208.715L106.569 208.87C106.203 209.376 105.706 209.766 105.078 210.04C104.452 210.305 103.814 210.395 103.163 210.309C102.584 210.232 102.102 210.037 101.717 209.724C101.335 209.404 101.087 209.002 100.973 208.519C100.862 208.029 100.899 207.502 101.085 206.94C101.271 206.378 101.569 205.89 101.978 205.477C102.391 205.056 102.868 204.751 103.411 204.561C103.964 204.365 104.53 204.305 105.109 204.382ZM104.769 205.336C104.301 205.274 103.85 205.361 103.417 205.597C102.991 205.833 102.665 206.167 102.44 206.597L106.092 207.082C106.195 206.62 106.121 206.229 105.871 205.911C105.628 205.593 105.261 205.401 104.769 205.336ZM113.128 205.447C113.318 205.472 113.493 205.507 113.652 205.552L113.302 206.612C113.169 206.563 112.948 206.517 112.639 206.476C112.29 206.43 111.955 206.465 111.636 206.581C111.324 206.698 111.05 206.876 110.814 207.114C110.588 207.346 110.425 207.614 110.325 207.918L109.304 211.005L108.174 210.855L110.057 205.158L111.127 205.3L110.837 206.178C111.16 205.903 111.521 205.701 111.919 205.572C112.328 205.436 112.731 205.394 113.128 205.447ZM120.467 206.541L118.584 212.238L117.454 212.088L117.737 211.233C117.39 211.504 117.014 211.704 116.607 211.832C116.203 211.953 115.803 211.987 115.406 211.935C114.883 211.865 114.448 211.677 114.103 211.369C113.76 211.054 113.54 210.656 113.442 210.175C113.344 209.694 113.389 209.169 113.578 208.599C113.766 208.03 114.057 207.537 114.451 207.122C114.845 206.706 115.297 206.401 115.809 206.208C116.322 206.006 116.841 205.94 117.364 206.01C117.776 206.065 118.131 206.207 118.428 206.436C118.724 206.666 118.945 206.961 119.091 207.321L119.396 206.399L120.467 206.541ZM115.928 210.957C116.277 211.004 116.622 210.962 116.962 210.833C117.303 210.704 117.602 210.502 117.858 210.226C118.117 209.944 118.308 209.616 118.431 209.244C118.554 208.872 118.585 208.527 118.525 208.21C118.466 207.885 118.322 207.62 118.092 207.415C117.862 207.21 117.572 207.084 117.223 207.038C116.874 206.991 116.533 207.033 116.2 207.164C115.868 207.294 115.572 207.5 115.313 207.783C115.056 208.058 114.866 208.382 114.743 208.754C114.62 209.126 114.588 209.475 114.646 209.8C114.707 210.117 114.849 210.378 115.071 210.582C115.293 210.786 115.579 210.911 115.928 210.957ZM126.146 207.176C126.669 207.246 127.102 207.438 127.445 207.753C127.791 208.061 128.012 208.455 128.11 208.936C128.208 209.416 128.162 209.942 127.974 210.511C127.786 211.081 127.495 211.574 127.101 211.989C126.707 212.405 126.253 212.713 125.74 212.915C125.228 213.108 124.711 213.17 124.188 213.101C123.791 213.048 123.446 212.915 123.152 212.702C122.861 212.481 122.643 212.202 122.498 211.865L122.215 212.72L121.085 212.57L123.739 204.537L124.81 204.679L123.733 207.938C124.095 207.645 124.484 207.431 124.901 207.296C125.319 207.161 125.733 207.121 126.146 207.176ZM124.329 212.073C124.678 212.119 125.019 212.077 125.351 211.947C125.684 211.817 125.979 211.614 126.235 211.339C126.494 211.056 126.685 210.729 126.808 210.357C126.931 209.984 126.962 209.64 126.902 209.322C126.844 208.997 126.703 208.733 126.481 208.529C126.259 208.325 125.973 208.2 125.624 208.153C125.275 208.107 124.93 208.149 124.59 208.278C124.249 208.407 123.949 208.613 123.69 208.896C123.433 209.171 123.244 209.495 123.121 209.867C122.998 210.239 122.965 210.588 123.024 210.912C123.084 211.23 123.23 211.491 123.46 211.696C123.69 211.901 123.98 212.027 124.329 212.073ZM132.011 208.074L130.128 213.771L128.998 213.621L130.881 207.924L132.011 208.074ZM132.835 205.805L132.421 207.058L131.16 206.891L131.575 205.637L132.835 205.805ZM136.41 206.22L133.755 214.253L132.625 214.103L135.28 206.07L136.41 206.22ZM139.265 209.037L137.382 214.734L136.252 214.584L138.134 208.887L139.265 209.037ZM140.089 206.768L139.675 208.021L138.414 207.854L138.828 206.601L140.089 206.768ZM142.909 210.592L141.915 213.6C141.835 213.843 141.837 214.038 141.921 214.183C142.013 214.331 142.222 214.426 142.547 214.469C142.848 214.509 143.118 214.521 143.355 214.505L143.027 215.496C142.775 215.534 142.49 215.532 142.173 215.49C141.522 215.403 141.079 215.19 140.844 214.849C140.612 214.501 140.592 214.035 140.785 213.45L141.779 210.442L140.59 210.284L140.929 209.258L142.118 209.416L142.608 207.935L143.738 208.085L143.248 209.566L146.222 209.961L145.883 210.987L142.909 210.592ZM152.437 210.787L146.429 217.958L145.204 217.795L146.817 215.88L145.763 209.9L147.108 210.079L147.792 214.809L151.188 210.621L152.437 210.787ZM159.18 212.753L158.186 215.761C158.105 216.004 158.103 216.198 158.18 216.343C158.264 216.489 158.457 216.582 158.758 216.622C159.043 216.66 159.293 216.669 159.506 216.65L159.179 217.641C158.942 217.681 158.669 217.68 158.36 217.639C157.099 217.472 156.664 216.796 157.056 215.611L158.05 212.603L156.86 212.445L157.199 211.419L158.388 211.577L158.878 210.096L160.008 210.246L159.519 211.727L161.184 211.949L160.845 212.974L159.18 212.753ZM163.68 218.346C163.093 218.268 162.6 218.068 162.202 217.745C161.806 217.415 161.543 217.008 161.414 216.523C161.287 216.03 161.314 215.51 161.494 214.963C161.675 214.416 161.978 213.937 162.404 213.526C162.832 213.107 163.331 212.801 163.9 212.607C164.472 212.405 165.051 212.343 165.638 212.421C166.217 212.498 166.7 212.701 167.088 213.03C167.486 213.353 167.749 213.76 167.876 214.253C168.005 214.738 167.98 215.254 167.799 215.801C167.618 216.348 167.314 216.83 166.886 217.249C166.46 217.661 165.961 217.967 165.39 218.169C164.829 218.364 164.259 218.423 163.68 218.346ZM164.011 217.343C164.376 217.392 164.737 217.352 165.093 217.225C165.452 217.091 165.768 216.887 166.04 216.614C166.315 216.333 166.513 216.01 166.633 215.646C166.754 215.281 166.776 214.939 166.699 214.62C166.625 214.293 166.465 214.026 166.219 213.819C165.975 213.604 165.671 213.472 165.306 213.424C164.934 213.374 164.564 213.416 164.197 213.55C163.84 213.677 163.524 213.881 163.249 214.162C162.977 214.435 162.781 214.754 162.66 215.118C162.54 215.483 162.517 215.829 162.591 216.156C162.667 216.475 162.827 216.742 163.071 216.957C163.325 217.165 163.638 217.294 164.011 217.343ZM180.385 214.499L175.945 219.856L174.47 219.66L173.795 213.623L175.056 213.791L175.585 218.69L179.159 214.336L180.385 214.499ZM187.233 215.408L185.35 221.105L184.22 220.955L184.503 220.101C184.156 220.372 183.78 220.571 183.373 220.7C182.969 220.821 182.569 220.855 182.172 220.802C181.649 220.733 181.214 220.544 180.869 220.236C180.526 219.921 180.306 219.523 180.208 219.042C180.11 218.562 180.156 218.036 180.344 217.467C180.532 216.897 180.823 216.404 181.217 215.989C181.611 215.573 182.064 215.269 182.575 215.075C183.088 214.874 183.607 214.808 184.13 214.877C184.542 214.932 184.897 215.074 185.194 215.304C185.49 215.534 185.711 215.829 185.857 216.189L186.162 215.266L187.233 215.408ZM182.694 219.825C183.043 219.871 183.388 219.83 183.728 219.7C184.069 219.571 184.368 219.369 184.624 219.094C184.883 218.811 185.074 218.484 185.197 218.111C185.32 217.739 185.351 217.394 185.291 217.077C185.232 216.752 185.088 216.487 184.858 216.282C184.628 216.077 184.338 215.951 183.989 215.905C183.64 215.859 183.299 215.901 182.966 216.031C182.634 216.161 182.338 216.368 182.079 216.65C181.822 216.926 181.633 217.249 181.51 217.622C181.387 217.994 181.354 218.342 181.412 218.667C181.473 218.985 181.615 219.245 181.837 219.449C182.059 219.653 182.345 219.778 182.694 219.825ZM192.805 216.029C192.995 216.055 193.17 216.09 193.329 216.135L192.979 217.194C192.846 217.145 192.625 217.1 192.316 217.059C191.967 217.012 191.632 217.047 191.312 217.163C191.001 217.28 190.727 217.458 190.491 217.696C190.265 217.928 190.102 218.196 190.002 218.5L188.981 221.587L187.851 221.437L189.734 215.74L190.804 215.882L190.514 216.76C190.837 216.485 191.197 216.284 191.596 216.154C192.005 216.018 192.408 215.977 192.805 216.029ZM196.221 216.602L194.339 222.299L193.209 222.149L195.091 216.452L196.221 216.602ZM197.046 214.333L196.632 215.586L195.371 215.419L195.785 214.165L197.046 214.333ZM199.427 223.094C198.84 223.016 198.347 222.815 197.949 222.493C197.553 222.163 197.29 221.755 197.161 221.27C197.034 220.778 197.061 220.258 197.242 219.711C197.422 219.164 197.725 218.685 198.151 218.274C198.579 217.855 199.078 217.548 199.647 217.354C200.219 217.153 200.798 217.091 201.385 217.169C201.964 217.246 202.447 217.449 202.835 217.778C203.233 218.1 203.496 218.508 203.623 219C203.752 219.485 203.727 220.001 203.546 220.548C203.365 221.095 203.061 221.578 202.633 221.997C202.207 222.408 201.709 222.715 201.137 222.916C200.576 223.111 200.006 223.171 199.427 223.094ZM199.758 222.091C200.123 222.139 200.484 222.1 200.84 221.973C201.199 221.838 201.515 221.634 201.787 221.361C202.062 221.081 202.26 220.758 202.38 220.393C202.501 220.029 202.523 219.687 202.446 219.367C202.372 219.04 202.212 218.773 201.966 218.566C201.722 218.351 201.418 218.22 201.053 218.171C200.681 218.122 200.311 218.164 199.944 218.298C199.587 218.425 199.271 218.629 198.997 218.909C198.724 219.182 198.528 219.501 198.407 219.866C198.287 220.23 198.264 220.576 198.338 220.903C198.414 221.223 198.574 221.49 198.818 221.704C199.072 221.913 199.385 222.041 199.758 222.091ZM211.801 218.671L209.919 224.368L208.848 224.226L209.149 223.314C208.824 223.596 208.456 223.809 208.044 223.953C207.643 224.09 207.244 224.132 206.848 224.079C206.364 224.015 205.96 223.858 205.637 223.609C205.322 223.361 205.114 223.024 205.015 222.599C204.926 222.167 204.977 221.662 205.167 221.085L206.21 217.929L207.34 218.079L206.305 221.212C206.139 221.713 206.162 222.133 206.374 222.47C206.585 222.807 206.925 223.007 207.393 223.069C207.734 223.115 208.056 223.078 208.36 222.96C208.674 222.835 208.943 222.649 209.166 222.401C209.396 222.154 209.563 221.875 209.666 221.563L210.671 218.521L211.801 218.671ZM214.474 225.092C213.729 224.993 213.153 224.742 212.748 224.34C212.354 223.93 212.216 223.42 212.335 222.81L213.465 222.96C213.46 223.3 213.57 223.569 213.795 223.765C214.03 223.955 214.378 224.08 214.838 224.141C215.266 224.198 215.633 224.179 215.937 224.085C216.244 223.983 216.432 223.826 216.503 223.613C216.573 223.4 216.537 223.221 216.395 223.075C216.263 222.923 215.968 222.777 215.509 222.637L214.869 222.433C213.522 222 212.99 221.355 213.273 220.496C213.439 219.995 213.802 219.623 214.362 219.38C214.925 219.13 215.58 219.054 216.325 219.153C216.999 219.243 217.524 219.471 217.899 219.838C218.277 220.197 218.442 220.651 218.393 221.2L217.191 221.04C217.172 220.8 217.047 220.601 216.817 220.444C216.59 220.279 216.314 220.175 215.989 220.131C215.577 220.077 215.228 220.094 214.942 220.183C214.666 220.265 214.494 220.409 214.427 220.614C214.366 220.796 214.407 220.96 214.55 221.106C214.694 221.244 214.959 221.37 215.343 221.485L215.996 221.69C216.762 221.927 217.263 222.215 217.498 222.556C217.735 222.889 217.777 223.291 217.621 223.762C217.455 224.263 217.087 224.638 216.516 224.888C215.956 225.13 215.275 225.199 214.474 225.092ZM230.289 221.127L228.407 226.824L227.276 226.674L227.559 225.819C227.213 226.09 226.836 226.29 226.43 226.418C226.025 226.539 225.625 226.573 225.228 226.52C224.705 226.451 224.271 226.262 223.925 225.955C223.582 225.64 223.362 225.242 223.264 224.761C223.167 224.28 223.212 223.755 223.4 223.185C223.588 222.615 223.879 222.123 224.273 221.707C224.667 221.292 225.12 220.987 225.631 220.793C226.144 220.592 226.663 220.526 227.186 220.596C227.599 220.65 227.953 220.793 228.25 221.022C228.546 221.252 228.768 221.547 228.914 221.907L229.219 220.984L230.289 221.127ZM225.75 225.543C226.099 225.589 226.444 225.548 226.785 225.419C227.125 225.29 227.424 225.087 227.68 224.812C227.939 224.529 228.13 224.202 228.253 223.83C228.376 223.458 228.408 223.113 228.347 222.795C228.289 222.471 228.144 222.206 227.914 222.001C227.684 221.796 227.394 221.67 227.045 221.624C226.696 221.577 226.356 221.619 226.023 221.749C225.69 221.88 225.394 222.086 225.135 222.369C224.879 222.644 224.689 222.968 224.566 223.34C224.443 223.712 224.41 224.061 224.469 224.386C224.529 224.703 224.671 224.964 224.893 225.168C225.116 225.372 225.401 225.497 225.75 225.543ZM233.938 222.682L232.944 225.69C232.864 225.933 232.866 226.127 232.95 226.273C233.042 226.42 233.251 226.515 233.576 226.559C233.877 226.599 234.146 226.611 234.384 226.595L234.056 227.586C233.803 227.624 233.519 227.621 233.201 227.579C232.551 227.493 232.108 227.28 231.873 226.939C231.64 226.591 231.621 226.125 231.814 225.54L232.808 222.532L231.618 222.374L231.957 221.348L233.147 221.506L233.636 220.025L234.766 220.175L234.277 221.656L237.251 222.051L236.912 223.077L233.938 222.682ZM238.843 223.333L237.849 226.341C237.768 226.584 237.766 226.778 237.843 226.923C237.927 227.069 238.12 227.162 238.421 227.202C238.706 227.24 238.956 227.249 239.169 227.23L238.842 228.221C238.605 228.261 238.332 228.261 238.023 228.22C236.762 228.052 236.327 227.376 236.719 226.191L237.713 223.183L236.523 223.025L236.862 222L238.051 222.158L238.541 220.676L239.671 220.826L239.182 222.308L240.847 222.529L240.508 223.554L238.843 223.333ZM248.046 223.485L246.164 229.182L245.034 229.032L245.316 228.177C244.97 228.449 244.594 228.648 244.187 228.777C243.783 228.897 243.382 228.932 242.986 228.879C242.462 228.809 242.028 228.621 241.683 228.313C241.34 227.998 241.119 227.6 241.022 227.119C240.924 226.639 240.969 226.113 241.157 225.544C241.346 224.974 241.637 224.481 242.031 224.066C242.425 223.65 242.877 223.346 243.388 223.152C243.902 222.95 244.42 222.884 244.944 222.954C245.356 223.009 245.711 223.151 246.007 223.381C246.304 223.61 246.525 223.905 246.671 224.266L246.976 223.343L248.046 223.485ZM243.508 227.901C243.856 227.948 244.201 227.906 244.542 227.777C244.883 227.648 245.181 227.446 245.438 227.171C245.697 226.888 245.888 226.56 246.011 226.188C246.134 225.816 246.165 225.471 246.104 225.154C246.046 224.829 245.902 224.564 245.672 224.359C245.441 224.154 245.152 224.028 244.803 223.982C244.454 223.936 244.113 223.978 243.78 224.108C243.447 224.238 243.151 224.445 242.892 224.727C242.636 225.002 242.446 225.326 242.323 225.698C242.2 226.071 242.168 226.419 242.226 226.744C242.287 227.061 242.428 227.322 242.651 227.526C242.873 227.73 243.159 227.855 243.508 227.901ZM249.071 226.595C249.251 226.048 249.555 225.569 249.98 225.157C250.409 224.738 250.907 224.432 251.476 224.238C252.048 224.036 252.627 223.974 253.214 224.052C253.872 224.14 254.401 224.404 254.802 224.846C255.213 225.281 255.404 225.806 255.374 226.421L254.137 226.256C254.103 225.935 253.964 225.666 253.72 225.452C253.487 225.23 253.188 225.096 252.823 225.047C252.45 224.998 252.088 225.041 251.737 225.176C251.389 225.305 251.081 225.51 250.814 225.791C250.549 226.065 250.357 226.385 250.237 226.749C250.116 227.114 250.089 227.459 250.155 227.785C250.224 228.104 250.376 228.37 250.612 228.583C250.85 228.789 251.155 228.917 251.528 228.967C251.893 229.015 252.251 228.971 252.602 228.836C252.963 228.693 253.262 228.479 253.497 228.193L254.734 228.358C254.372 228.928 253.864 229.364 253.209 229.666C252.565 229.961 251.914 230.065 251.256 229.977C250.669 229.899 250.177 229.699 249.778 229.377C249.382 229.046 249.12 228.639 248.99 228.154C248.863 227.661 248.89 227.141 249.071 226.595ZM258.787 228.099L257.725 228.719L257.092 230.633L255.962 230.483L258.617 222.451L259.747 222.601L258.139 227.466L261.747 225.305L263.246 225.504L259.88 227.459L261.613 231.234L260.102 231.033L258.787 228.099ZM264.909 231.791C264.164 231.692 263.589 231.441 263.184 231.038C262.789 230.629 262.651 230.119 262.77 229.508L263.9 229.658C263.896 229.999 264.006 230.267 264.23 230.463C264.466 230.653 264.813 230.779 265.273 230.84C265.702 230.897 266.068 230.878 266.372 230.784C266.679 230.682 266.868 230.524 266.938 230.312C267.008 230.099 266.972 229.92 266.83 229.774C266.698 229.622 266.403 229.475 265.944 229.335L265.304 229.131C263.957 228.698 263.425 228.053 263.709 227.195C263.874 226.693 264.237 226.321 264.798 226.078C265.361 225.828 266.015 225.752 266.76 225.851C267.434 225.941 267.959 226.169 268.334 226.536C268.712 226.896 268.877 227.35 268.828 227.898L267.627 227.739C267.607 227.498 267.482 227.299 267.253 227.142C267.026 226.977 266.75 226.873 266.425 226.83C266.012 226.775 265.663 226.792 265.377 226.881C265.101 226.963 264.93 227.107 264.862 227.312C264.802 227.494 264.843 227.658 264.985 227.804C265.13 227.942 265.394 228.069 265.779 228.183L266.431 228.389C267.197 228.625 267.698 228.914 267.933 229.254C268.171 229.587 268.212 229.989 268.056 230.46C267.89 230.961 267.522 231.337 266.951 231.586C266.391 231.829 265.71 231.897 264.909 231.791Z" fill="black"/>
</g>
<defs>
<clipPath id="clip0_4884_15247">
<rect width="375" height="261" fill="white"/>
</clipPath>
</defs>
</svg>
