<svg width="1238" height="403" viewBox="0 0 1238 403" fill="none" xmlns="http://www.w3.org/2000/svg">
<path d="M0 346.45L13.31 339.55L0 346.45Z" fill="black"/>
<path d="M26.8894 333.16L40.7294 327.36C40.7405 327.356 40.7524 327.354 40.7642 327.355C40.776 327.356 40.7876 327.359 40.7983 327.364C40.8089 327.369 40.8185 327.376 40.8264 327.385C40.8343 327.394 40.8404 327.404 40.8444 327.415C40.8483 327.426 40.85 327.438 40.8494 327.45C40.8488 327.462 40.8458 327.473 40.8407 327.484C40.8356 327.495 40.8284 327.504 40.8196 327.512C40.8108 327.52 40.8005 327.526 40.7894 327.53L26.9394 333.27C26.9284 333.28 26.9141 333.285 26.8994 333.285C26.8846 333.285 26.8704 333.28 26.8594 333.27C26.8594 333.27 26.8594 333.18 26.8894 333.16Z" fill="black"/>
<path d="M54.8313 322.24L69.2013 317.91C69.2397 317.9 69.2805 317.905 69.3156 317.924C69.3507 317.942 69.3777 317.973 69.3913 318.01C69.399 318.049 69.3933 318.088 69.3751 318.123C69.3569 318.158 69.3273 318.185 69.2913 318.2L54.9013 322.47C54.8862 322.475 54.8703 322.476 54.8546 322.475C54.8389 322.473 54.8237 322.469 54.8097 322.461C54.7958 322.454 54.7835 322.444 54.7734 322.432C54.7634 322.419 54.7559 322.405 54.7513 322.39C54.7467 322.375 54.7451 322.359 54.7467 322.344C54.7482 322.328 54.7528 322.313 54.7602 322.299C54.7677 322.285 54.7778 322.272 54.79 322.262C54.8021 322.252 54.8162 322.245 54.8313 322.24Z" fill="black"/>
<path d="M83.8184 314.52C88.7284 313.52 93.6784 312.78 98.6584 312.22C98.7141 312.22 98.7676 312.242 98.8069 312.281C98.8463 312.321 98.8684 312.374 98.8684 312.43C98.8684 312.485 98.8463 312.539 98.8069 312.578C98.7676 312.618 98.7141 312.64 98.6584 312.64C93.6584 313.17 88.7484 313.93 83.8484 314.87C83.801 314.876 83.753 314.864 83.7141 314.836C83.6751 314.808 83.6481 314.767 83.6384 314.72C83.6314 314.694 83.631 314.667 83.6372 314.641C83.6433 314.615 83.656 314.591 83.6739 314.571C83.6918 314.551 83.7144 314.536 83.7397 314.527C83.7649 314.518 83.792 314.515 83.8184 314.52Z" fill="black"/>
<path d="M113.642 311.24L121.152 311.31L128.652 311.74C128.687 311.741 128.721 311.75 128.753 311.765C128.785 311.78 128.813 311.801 128.837 311.827C128.86 311.853 128.878 311.884 128.889 311.917C128.9 311.95 128.905 311.985 128.902 312.02C128.901 312.055 128.892 312.09 128.877 312.121C128.863 312.153 128.841 312.182 128.815 312.205C128.789 312.228 128.758 312.246 128.725 312.257C128.692 312.269 128.657 312.273 128.622 312.27L121.142 311.82L113.662 311.72C113.597 311.718 113.536 311.69 113.492 311.644C113.447 311.597 113.422 311.535 113.422 311.47C113.422 311.411 113.445 311.354 113.486 311.311C113.527 311.268 113.583 311.243 113.642 311.24Z" fill="black"/>
<path d="M143.58 313.39L158.38 315.94C158.423 315.948 158.464 315.964 158.5 315.988C158.537 316.011 158.568 316.042 158.593 316.078C158.617 316.113 158.635 316.154 158.644 316.196C158.653 316.239 158.653 316.282 158.645 316.325C158.637 316.368 158.621 316.409 158.598 316.445C158.574 316.481 158.544 316.513 158.508 316.537C158.472 316.562 158.432 316.579 158.389 316.588C158.347 316.597 158.303 316.598 158.26 316.59L143.49 314C143.452 313.994 143.416 313.98 143.383 313.959C143.351 313.938 143.322 313.911 143.3 313.88C143.278 313.848 143.262 313.813 143.253 313.775C143.245 313.737 143.244 313.698 143.25 313.66C143.257 313.622 143.271 313.586 143.292 313.553C143.312 313.52 143.339 313.492 143.371 313.47C143.402 313.447 143.438 313.432 143.476 313.423C143.513 313.415 143.552 313.414 143.59 313.42L143.58 313.39Z" fill="black"/>
<path d="M172.999 319.23L187.499 323.1C187.598 323.126 187.682 323.19 187.735 323.278C187.787 323.366 187.803 323.471 187.779 323.57C187.75 323.67 187.685 323.755 187.595 323.807C187.506 323.859 187.399 323.875 187.299 323.85L172.829 319.94C172.746 319.907 172.679 319.845 172.639 319.766C172.6 319.686 172.591 319.595 172.614 319.51C172.638 319.424 172.692 319.351 172.767 319.303C172.841 319.255 172.931 319.236 173.019 319.25L172.999 319.23Z" fill="black"/>
<path d="M201.921 327.4L216.201 332C216.256 332.018 216.307 332.046 216.352 332.084C216.396 332.121 216.432 332.167 216.458 332.219C216.485 332.27 216.501 332.326 216.506 332.384C216.51 332.442 216.504 332.5 216.486 332.555C216.468 332.61 216.44 332.661 216.402 332.705C216.365 332.75 216.319 332.786 216.268 332.812C216.216 332.839 216.16 332.855 216.102 332.86C216.044 332.864 215.986 332.858 215.931 332.84L201.681 328.19C201.629 328.174 201.58 328.148 201.538 328.113C201.496 328.078 201.462 328.035 201.437 327.987C201.412 327.938 201.396 327.885 201.392 327.831C201.388 327.777 201.394 327.722 201.411 327.67C201.445 327.568 201.517 327.484 201.612 327.434C201.707 327.383 201.818 327.371 201.921 327.4Z" fill="black"/>
<path d="M230.432 336.75L244.672 341.47C244.793 341.515 244.893 341.605 244.949 341.721C245.005 341.838 245.015 341.971 244.974 342.094C244.934 342.217 244.848 342.32 244.734 342.381C244.62 342.441 244.486 342.456 244.362 342.42L230.142 337.65C230.082 337.631 230.027 337.6 229.98 337.559C229.933 337.519 229.894 337.469 229.866 337.413C229.838 337.357 229.822 337.296 229.817 337.234C229.813 337.172 229.822 337.109 229.842 337.05C229.881 336.932 229.965 336.835 230.075 336.779C230.186 336.722 230.314 336.712 230.432 336.75Z" fill="black"/>
<path d="M258.922 346.13L273.202 350.73C273.282 350.738 273.36 350.763 273.43 350.805C273.499 350.847 273.558 350.904 273.603 350.972C273.647 351.04 273.675 351.117 273.686 351.198C273.696 351.278 273.689 351.36 273.663 351.437C273.638 351.514 273.595 351.584 273.539 351.643C273.483 351.701 273.414 351.746 273.338 351.774C273.262 351.802 273.181 351.813 273.1 351.805C273.019 351.798 272.941 351.772 272.872 351.73L258.602 347.1C258.471 347.059 258.361 346.967 258.298 346.845C258.234 346.723 258.221 346.581 258.262 346.45C258.311 346.323 258.407 346.22 258.529 346.161C258.651 346.101 258.792 346.09 258.922 346.13Z" fill="black"/>
<path d="M287.5 355.24L301.83 359.65C301.969 359.699 302.083 359.799 302.15 359.93C302.216 360.061 302.229 360.212 302.187 360.353C302.144 360.493 302.049 360.612 301.921 360.684C301.793 360.756 301.643 360.776 301.5 360.74L287.17 356.29C287.102 356.268 287.038 356.233 286.982 356.187C286.927 356.141 286.881 356.084 286.848 356.02C286.814 355.956 286.794 355.886 286.787 355.814C286.781 355.742 286.789 355.669 286.81 355.6C286.832 355.531 286.867 355.467 286.914 355.412C286.96 355.356 287.017 355.311 287.081 355.277C287.145 355.244 287.215 355.223 287.287 355.217C287.359 355.211 287.432 355.218 287.5 355.24Z" fill="black"/>
<path d="M316.199 363.94L330.599 368.11C330.675 368.132 330.747 368.168 330.809 368.218C330.871 368.268 330.922 368.329 330.961 368.399C330.999 368.469 331.023 368.546 331.031 368.625C331.039 368.704 331.032 368.784 331.009 368.86C330.988 368.936 330.952 369.007 330.904 369.069C330.855 369.131 330.794 369.183 330.725 369.221C330.656 369.259 330.58 369.283 330.502 369.292C330.423 369.3 330.344 369.293 330.269 369.27L315.859 365.07C315.718 365.018 315.603 364.915 315.536 364.782C315.469 364.648 315.454 364.494 315.496 364.351C315.538 364.207 315.633 364.085 315.761 364.009C315.89 363.933 316.043 363.908 316.189 363.94H316.199Z" fill="black"/>
<path d="M344.999 372.14L359.519 376C359.608 376.014 359.692 376.047 359.767 376.096C359.842 376.145 359.905 376.209 359.954 376.284C360.003 376.359 360.035 376.444 360.049 376.532C360.063 376.621 360.058 376.711 360.035 376.797C360.011 376.884 359.97 376.964 359.914 377.034C359.858 377.104 359.788 377.161 359.708 377.201C359.628 377.242 359.541 377.266 359.452 377.271C359.362 377.275 359.273 377.262 359.189 377.23L344.699 373.31C344.54 373.267 344.404 373.163 344.322 373.021C344.239 372.878 344.217 372.709 344.259 372.55C344.302 372.391 344.406 372.255 344.548 372.172C344.691 372.09 344.86 372.067 345.019 372.11L344.999 372.14Z" fill="black"/>
<path d="M373.999 379.74L388.569 383.28C388.735 383.328 388.876 383.439 388.962 383.589C389.048 383.738 389.074 383.916 389.032 384.083C388.991 384.251 388.886 384.397 388.74 384.489C388.595 384.582 388.419 384.614 388.249 384.58L373.729 381C373.646 380.98 373.567 380.943 373.498 380.892C373.429 380.842 373.37 380.778 373.326 380.704C373.281 380.631 373.251 380.55 373.238 380.465C373.225 380.38 373.229 380.293 373.249 380.21C373.269 380.127 373.306 380.048 373.357 379.979C373.408 379.91 373.471 379.851 373.545 379.806C373.618 379.762 373.699 379.732 373.784 379.719C373.869 379.706 373.956 379.71 374.039 379.73L373.999 379.74Z" fill="black"/>
<path d="M403.219 386.64L410.549 388.24L417.879 389.75C418.062 389.787 418.223 389.895 418.326 390.051C418.429 390.207 418.467 390.397 418.429 390.58C418.392 390.763 418.284 390.924 418.128 391.027C417.973 391.13 417.782 391.167 417.599 391.13L410.239 389.6L402.919 388C402.824 387.988 402.732 387.957 402.649 387.907C402.566 387.858 402.494 387.792 402.439 387.713C402.383 387.634 402.345 387.545 402.326 387.45C402.307 387.356 402.308 387.258 402.329 387.164C402.35 387.07 402.391 386.982 402.448 386.904C402.506 386.827 402.579 386.762 402.662 386.715C402.746 386.667 402.839 386.638 402.935 386.628C403.031 386.619 403.128 386.63 403.219 386.66V386.64Z" fill="black"/>
<path d="M432.629 392.32L447.469 394.32C447.566 394.332 447.659 394.364 447.743 394.412C447.828 394.46 447.902 394.525 447.961 394.602C448.021 394.679 448.065 394.767 448.09 394.861C448.115 394.955 448.122 395.054 448.109 395.15C448.079 395.342 447.976 395.515 447.821 395.633C447.667 395.75 447.472 395.803 447.279 395.78L432.379 393.78C432.191 393.753 432.02 393.653 431.904 393.501C431.788 393.35 431.736 393.159 431.759 392.97C431.771 392.876 431.802 392.785 431.85 392.703C431.897 392.621 431.96 392.549 432.035 392.492C432.111 392.434 432.197 392.392 432.288 392.368C432.38 392.343 432.475 392.337 432.569 392.35L432.629 392.32Z" fill="black"/>
<path d="M462.38 395.55L477.33 396.08C477.533 396.09 477.724 396.18 477.862 396.329C478.001 396.479 478.075 396.677 478.07 396.88C478.067 396.982 478.044 397.082 478.002 397.174C477.96 397.267 477.9 397.35 477.826 397.419C477.751 397.488 477.664 397.541 477.568 397.576C477.473 397.61 477.371 397.625 477.27 397.62L462.27 397.05C462.071 397.05 461.88 396.971 461.739 396.83C461.599 396.69 461.52 396.499 461.52 396.3C461.52 396.101 461.599 395.91 461.739 395.77C461.88 395.629 462.071 395.55 462.27 395.55H462.38Z" fill="black"/>
<path d="M492.28 395.83L507.19 394.77H507.24C507.351 394.753 507.464 394.758 507.573 394.787C507.681 394.816 507.783 394.867 507.871 394.937C507.959 395.007 508.031 395.095 508.083 395.194C508.135 395.294 508.166 395.403 508.174 395.515C508.181 395.627 508.166 395.74 508.128 395.845C508.089 395.951 508.03 396.048 507.952 396.129C507.875 396.21 507.781 396.275 507.677 396.318C507.574 396.361 507.462 396.382 507.35 396.38L492.35 397.38C492.152 397.376 491.963 397.299 491.82 397.163C491.677 397.027 491.59 396.842 491.576 396.645C491.562 396.448 491.623 396.253 491.746 396.099C491.868 395.944 492.045 395.841 492.24 395.81L492.28 395.83Z" fill="black"/>
<path d="M521.999 392.86L536.699 390.11C536.809 390.085 536.923 390.083 537.033 390.104C537.144 390.125 537.249 390.168 537.343 390.23C537.437 390.293 537.516 390.374 537.578 390.469C537.639 390.563 537.68 390.669 537.699 390.78C537.725 390.89 537.729 391.004 537.708 391.115C537.688 391.227 537.646 391.333 537.583 391.426C537.52 391.52 537.438 391.6 537.343 391.661C537.248 391.722 537.141 391.762 537.029 391.78L522.239 394.52C522.131 394.546 522.018 394.55 521.909 394.531C521.799 394.513 521.694 394.472 521.601 394.411C521.507 394.351 521.427 394.272 521.365 394.179C521.303 394.087 521.261 393.983 521.24 393.873C521.22 393.764 521.222 393.651 521.247 393.543C521.271 393.434 521.317 393.332 521.383 393.241C521.448 393.151 521.531 393.075 521.627 393.018C521.723 392.962 521.829 392.925 521.939 392.91L521.999 392.86Z" fill="black"/>
<path d="M551.23 386.52L558.41 384.42L565.51 382.11C565.725 382.04 565.959 382.058 566.16 382.16C566.362 382.262 566.515 382.44 566.585 382.655C566.655 382.87 566.637 383.104 566.535 383.305C566.433 383.507 566.255 383.66 566.04 383.73L558.87 386.06L551.65 388.17C551.54 388.21 551.424 388.226 551.308 388.219C551.192 388.211 551.079 388.18 550.975 388.127C550.872 388.075 550.78 388.001 550.706 387.911C550.632 387.822 550.577 387.718 550.545 387.606C550.513 387.494 550.504 387.377 550.519 387.262C550.534 387.146 550.572 387.035 550.631 386.935C550.691 386.836 550.77 386.749 550.865 386.681C550.959 386.613 551.066 386.565 551.18 386.54L551.23 386.52Z" fill="black"/>
<path d="M579.462 376.75L593.002 370.49H593.052C593.155 370.443 593.266 370.416 593.379 370.412C593.493 370.408 593.606 370.426 593.712 370.465C593.818 370.505 593.916 370.565 593.999 370.642C594.082 370.719 594.149 370.812 594.197 370.915C594.244 371.018 594.27 371.129 594.275 371.243C594.279 371.356 594.261 371.469 594.221 371.576C594.182 371.682 594.122 371.779 594.045 371.862C593.967 371.946 593.875 372.013 593.772 372.06L580.092 378.35C579.99 378.398 579.88 378.426 579.768 378.431C579.655 378.436 579.543 378.418 579.438 378.379C579.332 378.34 579.236 378.28 579.154 378.203C579.072 378.126 579.007 378.033 578.962 377.93C578.866 377.723 578.857 377.487 578.936 377.273C579.015 377.059 579.175 376.886 579.382 376.79L579.462 376.75Z" fill="black"/>
<path d="M606.241 363.46L619.101 355.82C619.299 355.702 619.537 355.668 619.761 355.725C619.985 355.782 620.177 355.926 620.296 356.125C620.414 356.324 620.448 356.561 620.391 356.786C620.333 357.01 620.189 357.202 619.991 357.32L607.091 365C606.892 365.118 606.654 365.152 606.43 365.095C606.206 365.038 606.014 364.894 605.896 364.695C605.778 364.496 605.743 364.258 605.801 364.034C605.858 363.81 606.002 363.618 606.201 363.5L606.241 363.46Z" fill="black"/>
<path d="M631.721 347.75L644.191 339.44C644.288 339.374 644.396 339.328 644.511 339.305C644.625 339.281 644.743 339.28 644.858 339.302C644.972 339.324 645.082 339.368 645.179 339.432C645.277 339.496 645.361 339.579 645.426 339.675C645.492 339.772 645.538 339.88 645.562 339.994C645.586 340.109 645.587 340.227 645.565 340.341C645.543 340.456 645.499 340.565 645.435 340.663C645.371 340.76 645.288 340.844 645.191 340.91L632.701 349.23C632.507 349.363 632.267 349.412 632.035 349.368C631.804 349.324 631.599 349.19 631.466 348.995C631.334 348.8 631.284 348.561 631.328 348.329C631.372 348.097 631.507 347.893 631.701 347.76L631.721 347.75Z" fill="black"/>
<path d="M656.639 331.08L669.199 322.86C669.398 322.727 669.641 322.679 669.876 322.726C670.11 322.773 670.316 322.911 670.449 323.11C670.582 323.309 670.63 323.552 670.583 323.787C670.536 324.021 670.398 324.227 670.199 324.36L657.659 332.56C657.463 332.689 657.223 332.735 656.992 332.689C656.762 332.642 656.559 332.506 656.429 332.31C656.298 332.117 656.247 331.882 656.286 331.653C656.325 331.423 656.452 331.218 656.639 331.08Z" fill="black"/>
<path d="M681.998 315L695.098 307.6C695.309 307.482 695.558 307.453 695.791 307.518C696.023 307.584 696.22 307.739 696.338 307.95C696.456 308.161 696.486 308.41 696.42 308.642C696.354 308.875 696.199 309.072 695.988 309.19L682.988 316.53C682.888 316.595 682.775 316.64 682.658 316.661C682.54 316.683 682.419 316.681 682.302 316.656C682.066 316.605 681.859 316.463 681.728 316.26C681.597 316.057 681.552 315.81 681.602 315.574C681.653 315.338 681.795 315.131 681.998 315Z" fill="black"/>
<path d="M708.571 300.88C713.151 298.807 717.794 296.894 722.501 295.14C722.73 295.055 722.984 295.065 723.206 295.167C723.428 295.27 723.601 295.456 723.686 295.685C723.771 295.915 723.761 296.168 723.659 296.391C723.557 296.613 723.37 296.785 723.141 296.87C718.474 298.604 713.871 300.497 709.331 302.55C709.113 302.63 708.873 302.625 708.659 302.536C708.445 302.446 708.272 302.279 708.176 302.068C708.08 301.857 708.068 301.617 708.141 301.397C708.214 301.176 708.367 300.992 708.571 300.88Z" fill="black"/>
<path d="M736.8 290.4C741.62 288.993 746.483 287.75 751.39 286.67C751.631 286.617 751.883 286.662 752.092 286.795C752.3 286.928 752.446 287.139 752.5 287.38C752.553 287.622 752.508 287.874 752.374 288.082C752.241 288.29 752.031 288.437 751.79 288.49C746.93 289.55 742.11 290.78 737.33 292.18C737.21 292.226 737.082 292.246 736.954 292.239C736.826 292.233 736.7 292.2 736.585 292.143C736.471 292.086 736.369 292.005 736.287 291.907C736.205 291.809 736.144 291.694 736.108 291.571C736.072 291.448 736.062 291.319 736.078 291.192C736.094 291.065 736.137 290.942 736.203 290.832C736.269 290.722 736.356 290.627 736.461 290.553C736.565 290.478 736.684 290.426 736.81 290.4H736.8Z" fill="black"/>
<path d="M766.192 283.93L781.192 282.14C781.44 282.111 781.689 282.182 781.885 282.336C782.081 282.491 782.208 282.717 782.237 282.965C782.266 283.213 782.195 283.463 782.041 283.659C781.886 283.855 781.66 283.981 781.412 284.01H781.352L766.512 285.77H766.452C766.206 285.799 765.96 285.73 765.765 285.577C765.571 285.424 765.446 285.201 765.417 284.955C765.388 284.71 765.457 284.463 765.61 284.269C765.763 284.075 765.986 283.949 766.232 283.92L766.192 283.93Z" fill="black"/>
<path d="M796.18 281.27H811.23C811.434 281.333 811.612 281.46 811.739 281.632C811.865 281.804 811.934 282.012 811.934 282.225C811.934 282.438 811.865 282.646 811.739 282.818C811.612 282.99 811.434 283.117 811.23 283.18H796.18C796.048 283.194 795.914 283.179 795.788 283.138C795.661 283.097 795.545 283.029 795.446 282.94C795.348 282.851 795.269 282.742 795.215 282.621C795.161 282.499 795.133 282.368 795.133 282.235C795.133 282.102 795.161 281.971 795.215 281.849C795.269 281.728 795.348 281.619 795.446 281.53C795.545 281.441 795.661 281.373 795.788 281.332C795.914 281.291 796.048 281.276 796.18 281.29V281.27Z" fill="black"/>
<path d="M826.248 282L841.248 283.5C841.453 283.578 841.627 283.722 841.742 283.908C841.857 284.095 841.908 284.314 841.886 284.533C841.865 284.751 841.772 284.956 841.623 285.116C841.473 285.277 841.275 285.383 841.058 285.42L826.188 283.92H826.139C825.985 283.952 825.826 283.946 825.675 283.905C825.523 283.864 825.384 283.788 825.268 283.683C825.151 283.578 825.061 283.447 825.005 283.301C824.948 283.154 824.927 282.997 824.942 282.841C824.958 282.685 825.01 282.535 825.094 282.403C825.179 282.27 825.293 282.16 825.428 282.08C825.563 282 825.715 281.953 825.871 281.943C826.027 281.932 826.184 281.959 826.329 282.02L826.248 282Z" fill="black"/>
<path d="M856.099 285.7L870.889 288.46C871.099 288.549 871.272 288.707 871.38 288.908C871.488 289.109 871.523 289.341 871.481 289.565C871.439 289.789 871.322 289.992 871.149 290.14C870.976 290.288 870.757 290.373 870.529 290.38L855.829 287.62C855.676 287.632 855.523 287.609 855.38 287.552C855.238 287.495 855.11 287.407 855.008 287.293C854.905 287.179 854.83 287.043 854.788 286.895C854.746 286.748 854.739 286.593 854.767 286.442C854.794 286.291 854.856 286.149 854.948 286.026C855.04 285.903 855.158 285.802 855.295 285.733C855.431 285.663 855.582 285.625 855.736 285.623C855.889 285.621 856.041 285.654 856.179 285.72L856.099 285.7Z" fill="black"/>
<path d="M885.56 291.67L900.17 295.19C900.317 295.197 900.461 295.237 900.591 295.306C900.721 295.375 900.834 295.471 900.923 295.589C901.011 295.707 901.072 295.843 901.102 295.987C901.132 296.131 901.129 296.28 901.095 296.423C901.06 296.566 900.995 296.7 900.903 296.815C900.81 296.93 900.694 297.023 900.562 297.087C900.43 297.152 900.285 297.187 900.138 297.189C899.99 297.191 899.845 297.161 899.71 297.1L885.15 293.58C884.938 293.484 884.766 293.317 884.664 293.108C884.562 292.899 884.536 292.661 884.59 292.435C884.645 292.209 884.776 292.008 884.963 291.869C885.149 291.729 885.378 291.659 885.61 291.67H885.56Z" fill="black"/>
<path d="M914.681 299.09L929.061 303.48C929.299 303.569 929.495 303.745 929.608 303.973C929.721 304.201 929.742 304.464 929.668 304.707C929.594 304.951 929.43 305.157 929.21 305.284C928.989 305.411 928.729 305.449 928.481 305.39L914.141 301C914.002 300.975 913.87 300.92 913.754 300.84C913.638 300.76 913.54 300.657 913.466 300.536C913.393 300.416 913.346 300.281 913.328 300.141C913.311 300.001 913.323 299.859 913.364 299.724C913.405 299.589 913.474 299.465 913.567 299.358C913.66 299.252 913.774 299.167 913.902 299.108C914.031 299.049 914.17 299.017 914.311 299.016C914.452 299.015 914.592 299.043 914.721 299.1L914.681 299.09Z" fill="black"/>
<path d="M943.261 308.45L957.261 314.09C957.477 314.208 957.641 314.401 957.723 314.633C957.805 314.864 957.8 315.117 957.707 315.345C957.614 315.572 957.441 315.757 957.221 315.865C957 315.973 956.748 315.996 956.511 315.93L942.641 310.34C942.507 310.3 942.383 310.233 942.276 310.142C942.17 310.051 942.084 309.939 942.023 309.813C941.963 309.686 941.93 309.549 941.926 309.409C941.922 309.269 941.948 309.13 942.001 309C942.05 308.878 942.122 308.767 942.214 308.672C942.305 308.578 942.414 308.503 942.535 308.451C942.656 308.399 942.786 308.371 942.917 308.369C943.049 308.367 943.179 308.392 943.301 308.44L943.261 308.45Z" fill="black"/>
<path d="M970.921 320.22C975.471 322.22 980.041 324.22 984.701 325.97C984.906 326.088 985.062 326.274 985.142 326.496C985.223 326.717 985.222 326.96 985.141 327.182C985.06 327.403 984.903 327.588 984.698 327.705C984.493 327.822 984.253 327.863 984.021 327.82C979.291 326.07 974.681 324.07 970.111 322.02C969.875 321.911 969.691 321.714 969.598 321.471C969.505 321.229 969.509 320.959 969.611 320.72C969.721 320.482 969.919 320.295 970.164 320.202C970.409 320.108 970.681 320.115 970.921 320.22Z" fill="black"/>
<path d="M999.001 330C1003.84 330.897 1008.77 331.122 1013.67 330.67C1013.92 330.652 1014.18 330.733 1014.37 330.894C1014.57 331.056 1014.7 331.287 1014.73 331.54C1014.75 331.794 1014.67 332.045 1014.51 332.242C1014.34 332.439 1014.11 332.567 1013.86 332.6C1008.78 333.074 1003.67 332.846 998.651 331.92C998.501 331.927 998.351 331.901 998.212 331.842C998.074 331.784 997.951 331.695 997.851 331.582C997.752 331.469 997.679 331.336 997.639 331.191C997.598 331.046 997.591 330.894 997.617 330.747C997.643 330.599 997.702 330.458 997.79 330.337C997.878 330.215 997.992 330.114 998.124 330.042C998.256 329.971 998.402 329.929 998.552 329.922C998.702 329.915 998.852 329.941 998.991 330H999.001Z" fill="black"/>
<path d="M1027.88 327.16C1030.18 326.256 1032.42 325.221 1034.59 324.06C1035.68 323.49 1036.77 322.86 1037.85 322.25L1041.11 320.43C1041.22 320.317 1041.35 320.231 1041.5 320.179C1041.65 320.127 1041.81 320.11 1041.96 320.13C1042.12 320.15 1042.26 320.206 1042.39 320.294C1042.52 320.382 1042.63 320.499 1042.71 320.636C1042.78 320.772 1042.83 320.925 1042.83 321.081C1042.84 321.238 1042.81 321.393 1042.74 321.536C1042.68 321.678 1042.58 321.804 1042.46 321.902C1042.34 322 1042.19 322.068 1042.04 322.1L1038.76 323.94C1037.66 324.55 1036.58 325.18 1035.46 325.77C1033.22 326.964 1030.92 328.032 1028.56 328.97C1028.34 328.997 1028.12 328.95 1027.93 328.836C1027.74 328.723 1027.59 328.55 1027.51 328.344C1027.43 328.139 1027.42 327.912 1027.48 327.699C1027.54 327.487 1027.67 327.301 1027.85 327.17L1027.88 327.16Z" fill="black"/>
<path d="M1053.82 312.57C1057.97 309.823 1062.04 306.943 1066.01 303.93C1066.11 303.848 1066.22 303.786 1066.35 303.749C1066.47 303.712 1066.6 303.701 1066.73 303.715C1066.85 303.729 1066.98 303.769 1067.09 303.833C1067.2 303.896 1067.3 303.981 1067.38 304.083C1067.45 304.186 1067.51 304.302 1067.54 304.427C1067.57 304.551 1067.58 304.681 1067.56 304.808C1067.54 304.934 1067.49 305.056 1067.42 305.165C1067.36 305.273 1067.27 305.367 1067.16 305.44C1063.16 308.48 1059.06 311.383 1054.87 314.15C1054.77 314.221 1054.65 314.271 1054.53 314.296C1054.41 314.322 1054.28 314.322 1054.16 314.298C1054.03 314.274 1053.92 314.225 1053.81 314.155C1053.71 314.085 1053.62 313.995 1053.55 313.89C1053.42 313.676 1053.38 313.422 1053.43 313.178C1053.48 312.934 1053.62 312.717 1053.82 312.57Z" fill="black"/>
<path d="M1077.56 294.48C1081.28 291.18 1084.87 287.73 1088.25 284.09C1088.42 283.908 1088.65 283.801 1088.9 283.792C1089.15 283.782 1089.39 283.872 1089.57 284.04C1089.75 284.208 1089.86 284.442 1089.87 284.69C1089.88 284.937 1089.79 285.178 1089.62 285.36C1086.19 289.05 1082.62 292.55 1078.81 295.89C1078.72 295.972 1078.61 296.035 1078.49 296.076C1078.38 296.116 1078.25 296.133 1078.13 296.126C1078 296.118 1077.88 296.086 1077.77 296.032C1077.66 295.978 1077.56 295.903 1077.48 295.81C1077.4 295.717 1077.33 295.61 1077.29 295.493C1077.25 295.376 1077.24 295.252 1077.24 295.128C1077.25 295.005 1077.28 294.884 1077.34 294.773C1077.39 294.662 1077.47 294.562 1077.56 294.48Z" fill="black"/>
<path d="M1097.67 272.59C1100.55 268.573 1103.04 264.286 1105.1 259.79C1105.15 259.679 1105.22 259.578 1105.31 259.494C1105.39 259.41 1105.5 259.344 1105.61 259.301C1105.72 259.257 1105.85 259.236 1105.97 259.24C1106.09 259.243 1106.21 259.27 1106.32 259.32C1106.54 259.423 1106.71 259.608 1106.8 259.836C1106.88 260.064 1106.88 260.317 1106.78 260.54C1104.68 265.15 1102.14 269.545 1099.19 273.66C1099.05 273.862 1098.83 273.999 1098.59 274.042C1098.34 274.085 1098.09 274.03 1097.89 273.89C1097.79 273.819 1097.7 273.73 1097.64 273.626C1097.57 273.522 1097.53 273.407 1097.51 273.286C1097.49 273.165 1097.49 273.041 1097.52 272.922C1097.55 272.803 1097.6 272.69 1097.67 272.59Z" fill="black"/>
<path d="M1109.22 245.7C1109.87 240.842 1109.6 235.904 1108.4 231.15C1108.37 231.034 1108.36 230.913 1108.38 230.794C1108.4 230.675 1108.44 230.561 1108.5 230.458C1108.56 230.355 1108.64 230.265 1108.74 230.193C1108.83 230.122 1108.94 230.069 1109.06 230.04C1109.18 230.01 1109.3 230.004 1109.42 230.021C1109.53 230.038 1109.65 230.079 1109.75 230.14C1109.85 230.201 1109.94 230.282 1110.02 230.378C1110.09 230.474 1110.14 230.584 1110.17 230.7C1111.42 235.676 1111.72 240.844 1111.04 245.93C1111.03 246.057 1111 246.181 1110.94 246.294C1110.89 246.408 1110.81 246.509 1110.71 246.59C1110.61 246.672 1110.5 246.732 1110.38 246.768C1110.26 246.804 1110.13 246.814 1110.01 246.798C1109.88 246.782 1109.76 246.741 1109.65 246.676C1109.54 246.611 1109.45 246.524 1109.37 246.421C1109.3 246.318 1109.25 246.2 1109.22 246.076C1109.19 245.952 1109.19 245.824 1109.22 245.7Z" fill="black"/>
<path d="M1102.33 217.86C1099.54 213.792 1096.26 210.075 1092.58 206.79C1092.49 206.711 1092.42 206.614 1092.37 206.506C1092.32 206.399 1092.29 206.282 1092.28 206.163C1092.28 206.044 1092.29 205.925 1092.34 205.813C1092.38 205.701 1092.44 205.598 1092.52 205.51C1092.68 205.334 1092.91 205.228 1093.15 205.217C1093.39 205.206 1093.62 205.29 1093.8 205.45C1097.57 208.835 1100.93 212.659 1103.8 216.84C1103.89 216.938 1103.95 217.052 1103.99 217.177C1104.03 217.301 1104.04 217.432 1104.02 217.561C1104 217.69 1103.96 217.814 1103.89 217.924C1103.82 218.035 1103.73 218.129 1103.62 218.201C1103.52 218.274 1103.39 218.322 1103.26 218.342C1103.14 218.363 1103.01 218.356 1102.88 218.322C1102.75 218.288 1102.64 218.227 1102.54 218.144C1102.44 218.061 1102.36 217.957 1102.3 217.84L1102.33 217.86Z" fill="black"/>
<path d="M1081 197.39L1069 188.31C1068.81 188.167 1068.69 187.955 1068.66 187.72C1068.62 187.486 1068.69 187.248 1068.83 187.06C1068.97 186.872 1069.19 186.748 1069.42 186.716C1069.65 186.684 1069.89 186.747 1070.08 186.89L1082.02 195.95C1082.13 196.016 1082.22 196.103 1082.29 196.206C1082.36 196.31 1082.41 196.427 1082.43 196.55C1082.46 196.673 1082.45 196.8 1082.42 196.922C1082.4 197.044 1082.34 197.158 1082.27 197.258C1082.19 197.359 1082.1 197.442 1081.99 197.503C1081.88 197.564 1081.76 197.601 1081.63 197.612C1081.51 197.624 1081.38 197.609 1081.26 197.569C1081.14 197.529 1081.03 197.465 1080.94 197.38L1081 197.39Z" fill="black"/>
<path d="M1057.49 178.63C1053.73 175.233 1050.33 171.456 1047.35 167.36C1047.27 167.266 1047.21 167.157 1047.18 167.04C1047.15 166.923 1047.14 166.8 1047.15 166.679C1047.17 166.558 1047.21 166.441 1047.27 166.337C1047.34 166.233 1047.42 166.143 1047.52 166.074C1047.62 166.004 1047.74 165.956 1047.86 165.933C1047.98 165.909 1048.1 165.911 1048.22 165.938C1048.34 165.965 1048.45 166.017 1048.55 166.089C1048.65 166.162 1048.73 166.254 1048.79 166.36C1051.7 170.362 1055.01 174.048 1058.69 177.36C1058.85 177.528 1058.95 177.755 1058.95 177.99C1058.95 178.226 1058.85 178.452 1058.69 178.62C1058.61 178.703 1058.51 178.768 1058.4 178.813C1058.3 178.858 1058.18 178.881 1058.06 178.881C1057.95 178.881 1057.83 178.858 1057.73 178.813C1057.62 178.768 1057.52 178.703 1057.44 178.62L1057.49 178.63Z" fill="black"/>
<path d="M1041.31 153.32L1041.15 151.39C1041.07 150.726 1041.04 150.058 1041.06 149.39C1041.12 148.043 1041.4 146.715 1041.89 145.46C1042.9 143.025 1044.43 140.839 1046.37 139.05C1046.53 138.887 1046.75 138.795 1046.98 138.795C1047.21 138.795 1047.44 138.887 1047.6 139.05C1047.76 139.214 1047.85 139.435 1047.85 139.665C1047.85 139.895 1047.76 140.116 1047.6 140.28C1045.85 141.896 1044.46 143.871 1043.54 146.07C1043.12 147.148 1042.88 148.286 1042.82 149.44C1042.81 150.031 1042.84 150.623 1042.91 151.21L1043.07 153.01V153.12C1043.09 153.238 1043.08 153.36 1043.05 153.476C1043.02 153.592 1042.97 153.701 1042.9 153.795C1042.82 153.889 1042.73 153.967 1042.62 154.023C1042.52 154.079 1042.4 154.112 1042.28 154.12C1042.16 154.132 1042.05 154.121 1041.93 154.088C1041.82 154.054 1041.72 153.998 1041.63 153.924C1041.54 153.849 1041.46 153.758 1041.41 153.654C1041.35 153.55 1041.32 153.437 1041.31 153.32Z" fill="black"/>
<path d="M1059.11 130.75C1063.67 128.605 1068.34 126.712 1073.11 125.08C1073.32 125.027 1073.54 125.054 1073.73 125.156C1073.92 125.258 1074.06 125.428 1074.14 125.632C1074.21 125.836 1074.2 126.059 1074.11 126.257C1074.02 126.455 1073.87 126.613 1073.67 126.7C1068.97 128.314 1064.36 130.187 1059.87 132.31C1059.77 132.37 1059.65 132.408 1059.53 132.422C1059.41 132.436 1059.29 132.425 1059.18 132.39C1059.06 132.355 1058.96 132.297 1058.87 132.22C1058.78 132.142 1058.7 132.047 1058.65 131.939C1058.6 131.831 1058.57 131.714 1058.56 131.595C1058.56 131.475 1058.58 131.356 1058.62 131.244C1058.66 131.133 1058.73 131.031 1058.81 130.946C1058.9 130.861 1059 130.794 1059.11 130.75Z" fill="black"/>
<path d="M1087.43 120.53L1101.79 116.34C1102 116.284 1102.23 116.314 1102.42 116.422C1102.61 116.531 1102.76 116.71 1102.82 116.922C1102.88 117.134 1102.86 117.362 1102.76 117.558C1102.65 117.753 1102.48 117.901 1102.27 117.97L1087.89 122.17C1087.78 122.206 1087.67 122.219 1087.55 122.21C1087.44 122.2 1087.33 122.168 1087.23 122.115C1087.13 122.062 1087.04 121.989 1086.97 121.901C1086.89 121.813 1086.84 121.712 1086.81 121.603C1086.78 121.493 1086.77 121.379 1086.78 121.266C1086.79 121.153 1086.83 121.043 1086.88 120.944C1086.94 120.845 1087.01 120.758 1087.1 120.689C1087.2 120.62 1087.3 120.569 1087.41 120.54L1087.43 120.53Z" fill="black"/>
<path d="M1116 111.64C1120.67 109.943 1125.22 107.939 1129.63 105.64C1129.82 105.538 1130.05 105.516 1130.25 105.58C1130.46 105.644 1130.64 105.788 1130.74 105.98C1130.84 106.172 1130.86 106.397 1130.8 106.605C1130.73 106.813 1130.59 106.988 1130.4 107.09C1125.93 109.423 1121.32 111.458 1116.58 113.18C1116.47 113.226 1116.36 113.251 1116.25 113.252C1116.13 113.253 1116.02 113.231 1115.91 113.187C1115.81 113.142 1115.71 113.077 1115.63 112.995C1115.55 112.912 1115.49 112.814 1115.45 112.707C1115.41 112.6 1115.39 112.486 1115.4 112.372C1115.4 112.258 1115.43 112.146 1115.48 112.043C1115.53 111.94 1115.6 111.849 1115.69 111.774C1115.78 111.7 1115.88 111.644 1115.99 111.61L1116 111.64Z" fill="black"/>
<path d="M1141.41 97C1143.03 95.2276 1144.28 93.1552 1145.1 90.9C1145.86 88.6493 1146.06 86.2447 1145.67 83.9C1145.64 83.6924 1145.69 83.4816 1145.82 83.3119C1145.94 83.1422 1146.12 83.0268 1146.33 82.99C1146.54 82.9584 1146.75 83.0102 1146.92 83.1339C1147.09 83.2576 1147.2 83.4433 1147.23 83.65C1147.67 86.2549 1147.45 88.927 1146.61 91.43C1145.73 93.8923 1144.37 96.1558 1142.61 98.09C1142.54 98.1688 1142.46 98.233 1142.36 98.2789C1142.27 98.3248 1142.16 98.3516 1142.06 98.3576C1141.95 98.3636 1141.85 98.3488 1141.75 98.3141C1141.65 98.2793 1141.55 98.2253 1141.48 98.155C1141.4 98.0848 1141.33 97.9997 1141.29 97.9046C1141.24 97.8096 1141.21 97.7064 1141.21 97.601C1141.2 97.4956 1141.22 97.39 1141.25 97.2904C1141.29 97.1907 1141.34 97.0988 1141.41 97.02V97Z" fill="black"/>
<path d="M1139.19 70.92C1136.2 66.9634 1132.82 63.3063 1129.12 60C1128.98 59.8594 1128.9 59.6688 1128.9 59.47C1128.9 59.2713 1128.98 59.0806 1129.12 58.94C1129.19 58.8664 1129.27 58.8064 1129.36 58.7635C1129.44 58.7207 1129.54 58.6957 1129.64 58.6902C1129.74 58.6846 1129.84 58.6985 1129.93 58.7311C1130.02 58.7636 1130.11 58.8143 1130.18 58.88C1133.94 62.2526 1137.37 65.9761 1140.42 70C1140.48 70.0808 1140.53 70.1728 1140.55 70.2707C1140.58 70.3687 1140.58 70.4708 1140.57 70.5711C1140.56 70.6714 1140.52 70.7679 1140.47 70.8552C1140.42 70.9426 1140.35 71.0189 1140.27 71.08C1140.19 71.1411 1140.1 71.1856 1140 71.2111C1139.9 71.2366 1139.8 71.2426 1139.7 71.2287C1139.6 71.2147 1139.5 71.1812 1139.42 71.13C1139.33 71.0787 1139.25 71.0108 1139.19 70.93V70.92Z" fill="black"/>
<path d="M1117.36 50.92C1113.23 48.149 1108.95 45.5923 1104.55 43.26C1104.47 43.215 1104.39 43.153 1104.33 43.0777C1104.27 43.0025 1104.22 42.9155 1104.19 42.822C1104.17 42.7285 1104.16 42.6305 1104.17 42.5339C1104.18 42.4373 1104.21 42.3441 1104.26 42.26C1104.31 42.1726 1104.37 42.0953 1104.44 42.0328C1104.52 41.9703 1104.6 41.924 1104.7 41.8967C1104.79 41.8695 1104.89 41.862 1104.99 41.8746C1105.08 41.8872 1105.18 41.9197 1105.26 41.97C1109.72 44.3157 1114.06 46.8891 1118.26 49.68C1118.42 49.7887 1118.54 49.9573 1118.57 50.1486C1118.61 50.3398 1118.57 50.5382 1118.46 50.7C1118.35 50.8618 1118.18 50.9737 1117.99 51.0112C1117.8 51.0487 1117.6 51.0087 1117.44 50.9L1117.36 50.92Z" fill="black"/>
<path d="M1091.1 36.7499L1077.23 31.1699C1077.06 31.1022 1076.93 30.9705 1076.86 30.8036C1076.78 30.6367 1076.78 30.4483 1076.85 30.2799C1076.92 30.1115 1077.05 29.9768 1077.22 29.9055C1077.38 29.8343 1077.57 29.8322 1077.74 29.8999L1091.74 35.4799C1091.91 35.5488 1092.05 35.684 1092.13 35.8556C1092.2 36.0272 1092.2 36.2212 1092.14 36.3949C1092.07 36.5686 1091.93 36.7078 1091.76 36.7819C1091.59 36.856 1091.39 36.8588 1091.22 36.7899L1091.1 36.7499Z" fill="black"/>
<path d="M1063.07 26.3301L1048.7 22.1201C1048.54 22.071 1048.4 21.9581 1048.31 21.8062C1048.23 21.6543 1048.21 21.4758 1048.26 21.3101C1048.31 21.1443 1048.42 21.0048 1048.58 20.9223C1048.73 20.8398 1048.91 20.821 1049.07 20.8701L1063.5 25.0701C1063.66 25.1313 1063.79 25.2489 1063.86 25.3998C1063.93 25.5507 1063.95 25.7237 1063.9 25.8846C1063.85 26.0456 1063.74 26.1828 1063.6 26.269C1063.46 26.3551 1063.29 26.3841 1063.12 26.3501L1063.07 26.3301Z" fill="black"/>
<path d="M1034.18 18.4298L1019.55 15.1798C1019.47 15.1633 1019.39 15.1309 1019.33 15.0844C1019.26 15.038 1019.2 14.9785 1019.16 14.9094C1019.11 14.8404 1019.08 14.7633 1019.07 14.6826C1019.06 14.6019 1019.06 14.5194 1019.08 14.4398C1019.12 14.2815 1019.21 14.1436 1019.35 14.0557C1019.48 13.9679 1019.65 13.937 1019.81 13.9698L1034.48 17.1898C1034.56 17.2076 1034.64 17.2412 1034.71 17.2887C1034.77 17.3362 1034.83 17.3968 1034.88 17.4669C1034.92 17.537 1034.95 17.6153 1034.97 17.6973C1034.98 17.7793 1034.98 17.8634 1034.96 17.9448C1034.95 18.0263 1034.91 18.1034 1034.87 18.1718C1034.82 18.2403 1034.76 18.2987 1034.69 18.3437C1034.62 18.3887 1034.54 18.4195 1034.46 18.4343C1034.37 18.4491 1034.29 18.4476 1034.21 18.4298H1034.18Z" fill="black"/>
<path d="M1004.84 12.3302L990.07 9.82022C989.925 9.78463 989.799 9.69535 989.718 9.57041C989.636 9.44547 989.604 9.29415 989.63 9.14698C989.655 8.99981 989.735 8.86774 989.854 8.77741C989.973 8.68707 990.122 8.6452 990.27 8.66022L1005.08 11.1502C1005.16 11.1623 1005.23 11.1899 1005.3 11.2313C1005.37 11.2728 1005.43 11.3273 1005.47 11.3917C1005.52 11.456 1005.55 11.5289 1005.57 11.6059C1005.58 11.6829 1005.58 11.7626 1005.57 11.8402C1005.56 11.9182 1005.53 11.993 1005.49 12.0601C1005.45 12.1272 1005.39 12.1854 1005.33 12.231C1005.26 12.2767 1005.19 12.309 1005.11 12.3261C1005.04 12.3431 1004.96 12.3445 1004.88 12.3302H1004.84Z" fill="black"/>
<path d="M975.241 7.62018L960.371 5.74018C960.299 5.73099 960.229 5.70766 960.166 5.67152C960.103 5.63539 960.047 5.58716 960.003 5.52959C959.958 5.47202 959.925 5.40623 959.906 5.33598C959.887 5.26574 959.882 5.19241 959.891 5.12018C959.9 5.04795 959.924 4.97824 959.96 4.91503C959.996 4.85182 960.044 4.79634 960.102 4.75177C960.159 4.7072 960.225 4.6744 960.295 4.65526C960.366 4.63611 960.439 4.63099 960.511 4.64018L975.401 6.49018C975.478 6.49592 975.553 6.51723 975.622 6.55284C975.69 6.58844 975.751 6.63758 975.8 6.69729C975.849 6.757 975.885 6.82602 975.906 6.90018C975.928 6.97433 975.934 7.05207 975.924 7.12869C975.915 7.2053 975.89 7.27918 975.851 7.34586C975.812 7.41254 975.76 7.47062 975.698 7.51658C975.636 7.56254 975.565 7.59542 975.49 7.61323C975.415 7.63104 975.337 7.6334 975.261 7.62018H975.241Z" fill="black"/>
<path d="M945.461 4.19017L930.531 3.00017C930.452 3.01504 930.371 3.01158 930.294 2.99006C930.217 2.96855 930.146 2.92955 930.087 2.8761C930.027 2.82265 929.981 2.7562 929.951 2.68191C929.921 2.60762 929.909 2.5275 929.916 2.44777C929.922 2.36804 929.947 2.29086 929.988 2.22223C930.029 2.15359 930.085 2.09536 930.153 2.05205C930.22 2.00875 930.296 1.98154 930.376 1.97254C930.455 1.96354 930.536 1.973 930.611 2.00017L945.611 3.20017C945.741 3.22504 945.857 3.29694 945.938 3.40218C946.019 3.50742 946.058 3.63864 946.048 3.77085C946.038 3.90306 945.98 4.02701 945.885 4.1191C945.789 4.21118 945.663 4.26495 945.531 4.27017L945.461 4.19017Z" fill="black"/>
<path d="M915.572 1.9999L900.572 1.3399C900.51 1.3399 900.449 1.32775 900.392 1.30413C900.335 1.28051 900.283 1.24589 900.239 1.20224C900.196 1.1586 900.161 1.10679 900.137 1.04976C900.114 0.992741 900.102 0.931624 900.102 0.869902C900.102 0.808181 900.114 0.747064 900.137 0.690041C900.161 0.633018 900.196 0.581206 900.239 0.537562C900.283 0.493919 900.335 0.459299 900.392 0.435679C900.449 0.412059 900.51 0.399902 900.572 0.399902L915.572 0.999902C915.702 1.01 915.825 1.06921 915.914 1.16566C916.003 1.2621 916.052 1.38865 916.052 1.5199C916.046 1.65341 915.989 1.77955 915.892 1.87118C915.794 1.96281 915.665 2.01262 915.532 2.0099L915.572 1.9999Z" fill="black"/>
<path d="M885.601 1.00016L870.601 0.860161C870.493 0.860161 870.388 0.816965 870.311 0.740075C870.235 0.663185 870.191 0.5589 870.191 0.450161C870.191 0.395467 870.202 0.341323 870.224 0.290916C870.245 0.240509 870.276 0.194859 870.315 0.156654C870.354 0.118448 870.401 0.0884591 870.451 0.0684527C870.502 0.0484464 870.557 0.038827 870.611 0.040161L885.611 0.110161C885.718 0.12618 885.815 0.179903 885.886 0.261565C885.956 0.343227 885.995 0.447405 885.995 0.555161C885.995 0.662917 885.956 0.767095 885.886 0.848757C885.815 0.930419 885.718 0.984142 885.611 1.00016H885.601Z" fill="black"/>
<path d="M855.61 0.929975L840.61 1.26997C840.564 1.2727 840.517 1.26593 840.474 1.25007C840.43 1.23421 840.39 1.2096 840.357 1.17775C840.323 1.1459 840.296 1.10749 840.278 1.06488C840.259 1.02227 840.25 0.976358 840.25 0.929975C840.249 0.884007 840.257 0.838228 840.273 0.795253C840.289 0.752278 840.314 0.71295 840.346 0.679518C840.377 0.646085 840.415 0.619202 840.457 0.600406C840.499 0.58161 840.544 0.571269 840.59 0.569975L855.59 0.169975C855.64 0.167255 855.691 0.174812 855.738 0.192184C855.785 0.209557 855.828 0.23638 855.865 0.271012C855.901 0.305645 855.93 0.347359 855.95 0.393605C855.97 0.439851 855.98 0.489656 855.98 0.539975C855.983 0.59022 855.975 0.640492 855.958 0.687717C855.941 0.734942 855.914 0.778127 855.879 0.814631C855.844 0.851136 855.803 0.880193 855.756 0.900025C855.71 0.919857 855.66 0.930048 855.61 0.929975Z" fill="black"/>
<path d="M825.638 1.83012L810.638 2.59012C810.6 2.59283 810.562 2.588 810.526 2.57589C810.489 2.56377 810.456 2.54462 810.427 2.51954C810.398 2.49445 810.375 2.46391 810.358 2.42969C810.341 2.39547 810.331 2.35823 810.328 2.32012C810.326 2.24219 810.353 2.16624 810.405 2.10838C810.458 2.05051 810.53 2.01527 810.608 2.01012L825.608 1.19012C825.65 1.18741 825.693 1.19302 825.732 1.20665C825.772 1.22027 825.809 1.24163 825.841 1.26951C825.872 1.29738 825.898 1.33121 825.916 1.36907C825.935 1.40693 825.946 1.44806 825.948 1.49012C825.951 1.53296 825.945 1.57591 825.931 1.61641C825.917 1.65691 825.894 1.69413 825.865 1.72585C825.836 1.75758 825.801 1.78316 825.762 1.80107C825.723 1.81898 825.681 1.82886 825.638 1.83012Z" fill="black"/>
<path d="M795.7 3.53989L780.7 4.65989C780.67 4.6641 780.639 4.66188 780.609 4.65336C780.58 4.64484 780.552 4.63021 780.529 4.61042C780.505 4.59063 780.486 4.56612 780.472 4.53846C780.459 4.51081 780.451 4.48064 780.45 4.44989C780.447 4.41966 780.451 4.38919 780.46 4.36023C780.469 4.33128 780.484 4.3044 780.503 4.28116C780.523 4.25792 780.547 4.23878 780.574 4.22483C780.6 4.21088 780.63 4.2024 780.66 4.19989L795.66 3.01989C795.695 3.01571 795.73 3.01874 795.763 3.02879C795.796 3.03883 795.827 3.05568 795.853 3.07825C795.879 3.10083 795.901 3.12863 795.916 3.1599C795.931 3.19117 795.939 3.22522 795.94 3.25989C795.943 3.32829 795.92 3.39526 795.875 3.44725C795.831 3.49923 795.768 3.53235 795.7 3.53989Z" fill="black"/>
<path d="M765.8 5.9998L750.87 7.3898C750.848 7.39413 750.824 7.39356 750.802 7.38811C750.78 7.38267 750.759 7.37248 750.741 7.35825C750.723 7.34402 750.708 7.32608 750.698 7.30564C750.687 7.2852 750.681 7.26275 750.68 7.2398C750.677 7.19515 750.691 7.15095 750.718 7.11582C750.746 7.08069 750.786 7.05716 750.83 7.0498L765.76 5.5498C765.813 5.5498 765.864 5.57088 765.902 5.60838C765.939 5.64589 765.96 5.69676 765.96 5.7498C765.96 5.80285 765.939 5.85372 765.902 5.89123C765.864 5.92873 765.813 5.9498 765.76 5.9498L765.8 5.9998Z" fill="black"/>
<path d="M736.001 8.99982L721.101 10.7098C721.077 10.7024 721.055 10.6873 721.039 10.6665C721.024 10.6458 721.016 10.6207 721.016 10.5948C721.016 10.569 721.024 10.5438 721.039 10.5231C721.055 10.5024 721.077 10.4872 721.101 10.4798L735.991 8.71982C736.028 8.71849 736.065 8.73197 736.092 8.75728C736.119 8.7826 736.135 8.81768 736.136 8.85482C736.138 8.89195 736.124 8.92808 736.099 8.95528C736.074 8.98247 736.038 8.99849 736.001 8.99982Z" fill="black"/>
<path d="M706.158 12.4899L691.288 14.4099C691.275 14.4099 691.262 14.4046 691.253 14.3953C691.244 14.3859 691.238 14.3732 691.238 14.3599C691.238 14.3466 691.244 14.3339 691.253 14.3245C691.262 14.3152 691.275 14.3099 691.288 14.3099L706.158 12.3099C706.181 12.3069 706.203 12.3124 706.222 12.3254C706.241 12.3383 706.253 12.3578 706.258 12.3799C706.26 12.3912 706.259 12.4027 706.255 12.4136C706.252 12.4245 706.246 12.4345 706.239 12.443C706.231 12.4516 706.222 12.4584 706.211 12.463C706.201 12.4676 706.19 12.47 706.178 12.4699L706.158 12.4899Z" fill="black"/>
<path d="M676.42 16.4199L665 17.9999L676.44 16.3599L676.42 16.4199Z" fill="black"/>
<path fill-rule="evenodd" clip-rule="evenodd" d="M1107.99 155.865C1175.85 148.777 1230 131.148 1228.94 116.49C1227.88 101.831 1172.01 95.6934 1104.16 102.781C1089.94 104.266 1076.33 106.213 1063.7 108.498L983.311 142.906C986.194 157.023 1041.3 162.831 1107.99 155.865Z" fill="black"/>
<path d="M983.208 142.157C983.227 142.409 983.261 142.659 983.311 142.906L1063.7 108.498C1016.04 117.123 982.37 130.568 983.208 142.157Z" fill="#F1EFED"/>
<path d="M983.311 142.906L982.334 143.137L983.311 142.906ZM1227.95 116.593C1228.05 118.09 1227.47 119.718 1226.06 121.488C1224.65 123.262 1222.46 125.109 1219.52 126.988C1213.64 130.744 1204.94 134.512 1194.03 138.063C1172.23 145.161 1141.8 151.329 1107.92 154.868L1108.07 156.862C1142.04 153.313 1172.62 147.123 1194.59 139.97C1205.57 136.395 1214.45 132.564 1220.55 128.671C1223.59 126.725 1225.99 124.734 1227.6 122.711C1229.22 120.683 1230.09 118.554 1229.93 116.386L1227.95 116.593ZM1104.23 103.779C1138.11 100.24 1168.96 100.006 1191.46 102.477C1202.71 103.714 1211.82 105.622 1218.15 108.103C1221.32 109.344 1223.74 110.708 1225.39 112.163C1227.03 113.614 1227.84 115.097 1227.95 116.593L1229.93 116.386C1229.78 114.217 1228.61 112.302 1226.73 110.639C1224.85 108.98 1222.2 107.516 1218.92 106.231C1212.36 103.66 1203.06 101.728 1191.74 100.484C1169.07 97.9931 1138.06 98.2348 1104.08 101.784L1104.23 103.779ZM1107.92 154.868C1074.63 158.345 1044.25 158.631 1021.86 156.294C1010.66 155.125 1001.5 153.304 994.998 150.922C991.744 149.731 989.195 148.415 987.389 147.003C985.581 145.589 984.587 144.134 984.289 142.675L982.334 143.137C982.757 145.207 984.116 147.022 986.134 148.6C988.154 150.18 990.905 151.58 994.264 152.809C1000.99 155.269 1010.32 157.112 1021.59 158.289C1044.15 160.644 1074.67 160.35 1108.07 156.862L1107.92 154.868ZM984.289 142.675C984.247 142.469 984.218 142.262 984.203 142.053L982.214 142.261C982.235 142.556 982.275 142.848 982.334 143.137L984.289 142.675ZM984.203 142.053C984.032 139.683 985.619 136.97 989.334 133.999C993.007 131.063 998.524 128.07 1005.62 125.142C1019.8 119.292 1040.05 113.791 1063.85 109.485L1063.56 107.511C1039.69 111.831 1019.28 117.364 1004.91 123.29C997.739 126.25 992.017 129.331 988.124 132.444C984.273 135.523 981.966 138.836 982.214 142.261L984.203 142.053ZM1063.85 109.485C1076.45 107.204 1090.04 105.261 1104.23 103.779L1104.08 101.784C1089.85 103.271 1076.21 105.221 1063.56 107.511L1063.85 109.485ZM983.677 143.827L1064.07 109.419L1063.34 107.577L982.946 141.985L983.677 143.827Z" fill="black"/>
<ellipse rx="122.589" ry="35.6785" transform="matrix(0.999475 0.0323875 -0.167555 0.985863 1109.37 108)" fill="#F1EFED" stroke="black" stroke-width="2" stroke-linejoin="round"/>
<path d="M1024.76 104.389L1024.76 108.151L1030.88 108.145L1030.88 109.837L1024.76 109.843L1024.77 113.605L1031.43 113.598L1031.43 115.29L1022.97 115.298L1022.96 102.698L1031.42 102.69L1031.42 104.382L1024.76 104.389ZM1039.65 115.282L1037.03 111.883L1034.41 115.287L1032.34 115.289L1035.94 110.714L1032.48 106.289L1034.6 106.287L1037.07 109.507L1039.48 106.283L1041.6 106.281L1038.17 110.658L1041.77 115.28L1039.65 115.282ZM1045.63 107.897L1045.64 112.649C1045.64 113.033 1045.73 113.327 1045.91 113.53C1046.1 113.734 1046.43 113.836 1046.88 113.836C1047.31 113.835 1047.68 113.799 1047.98 113.727L1047.98 115.293C1047.66 115.401 1047.26 115.455 1046.79 115.456C1044.88 115.457 1043.93 114.522 1043.93 112.65L1043.92 107.898L1042.12 107.9L1042.12 106.28L1043.92 106.278L1043.92 103.938L1045.63 103.937L1045.63 106.277L1048.15 106.274L1048.15 107.894L1045.63 107.897ZM1053.75 106.089C1054.68 106.088 1055.48 106.285 1056.17 106.681C1056.86 107.076 1057.4 107.64 1057.77 108.371C1058.14 109.091 1058.33 109.937 1058.33 110.909C1058.33 111.161 1058.33 111.347 1058.31 111.467L1050.93 111.474C1051.05 112.17 1051.38 112.745 1051.91 113.201C1052.45 113.644 1053.07 113.866 1053.78 113.865C1054.94 113.864 1055.77 113.437 1056.26 112.585L1058.03 112.583C1057.74 113.423 1057.21 114.114 1056.43 114.655C1055.65 115.183 1054.76 115.448 1053.78 115.449C1052.9 115.45 1052.11 115.253 1051.4 114.857C1050.7 114.45 1050.14 113.892 1049.75 113.185C1049.35 112.465 1049.15 111.661 1049.15 110.773C1049.15 109.885 1049.35 109.087 1049.74 108.379C1050.14 107.658 1050.68 107.1 1051.38 106.703C1052.09 106.295 1052.88 106.09 1053.75 106.089ZM1053.72 107.601C1053.01 107.602 1052.4 107.824 1051.88 108.269C1051.38 108.713 1051.07 109.284 1050.95 109.98L1056.48 109.974C1056.4 109.255 1056.11 108.679 1055.59 108.247C1055.09 107.816 1054.46 107.6 1053.72 107.601ZM1064.99 106.078C1065.72 106.078 1066.37 106.233 1066.95 106.545C1067.54 106.856 1068 107.33 1068.34 107.965C1068.69 108.589 1068.86 109.357 1068.86 110.269L1068.87 115.255L1067.16 115.256L1067.15 110.306C1067.15 109.514 1066.92 108.885 1066.45 108.417C1065.98 107.949 1065.39 107.716 1064.68 107.717C1064.17 107.717 1063.71 107.844 1063.32 108.096C1062.93 108.336 1062.63 108.667 1062.42 109.087C1062.21 109.507 1062.11 109.963 1062.11 110.455L1062.12 115.261L1060.41 115.263L1060.4 106.263L1062.02 106.261L1062.02 107.701C1062.35 107.209 1062.78 106.818 1063.3 106.53C1063.82 106.229 1064.39 106.079 1064.99 106.078ZM1079.75 102.554L1079.76 115.244L1078.05 115.246L1078.05 113.896C1077.68 114.376 1077.23 114.755 1076.7 115.031C1076.17 115.296 1075.61 115.428 1075.01 115.429C1074.21 115.43 1073.49 115.232 1072.85 114.837C1072.2 114.43 1071.69 113.872 1071.31 113.164C1070.94 112.457 1070.75 111.653 1070.75 110.753C1070.75 109.853 1070.94 109.049 1071.31 108.34C1071.68 107.632 1072.19 107.08 1072.84 106.683C1073.49 106.274 1074.21 106.07 1075 106.069C1075.62 106.068 1076.2 106.212 1076.74 106.499C1077.28 106.787 1077.75 107.188 1078.13 107.704L1078.13 102.556L1079.75 102.554ZM1075.29 113.845C1075.82 113.844 1076.3 113.712 1076.73 113.447C1077.16 113.183 1077.5 112.817 1077.74 112.348C1077.98 111.868 1078.1 111.334 1078.1 110.746C1078.1 110.158 1077.98 109.63 1077.74 109.162C1077.5 108.683 1077.16 108.311 1076.73 108.047C1076.3 107.784 1075.82 107.652 1075.29 107.653C1074.76 107.653 1074.29 107.786 1073.87 108.05C1073.45 108.314 1073.12 108.687 1072.88 109.167C1072.64 109.635 1072.52 110.163 1072.52 110.751C1072.52 111.339 1072.64 111.873 1072.88 112.353C1073.12 112.821 1073.45 113.186 1073.87 113.45C1074.29 113.714 1074.76 113.845 1075.29 113.845ZM1086.43 106.058C1087.36 106.057 1088.16 106.254 1088.84 106.65C1089.54 107.045 1090.08 107.609 1090.45 108.34C1090.82 109.06 1091.01 109.906 1091.01 110.878C1091.01 111.13 1091 111.316 1090.99 111.436L1083.61 111.443C1083.73 112.139 1084.06 112.714 1084.58 113.17C1085.12 113.613 1085.75 113.835 1086.46 113.834C1087.62 113.833 1088.45 113.406 1088.94 112.554L1090.7 112.552C1090.42 113.392 1089.88 114.083 1089.1 114.624C1088.32 115.152 1087.44 115.417 1086.46 115.418C1085.58 115.419 1084.79 115.222 1084.08 114.826C1083.37 114.419 1082.82 113.861 1082.42 113.154C1082.03 112.434 1081.83 111.63 1081.83 110.742C1081.83 109.854 1082.02 109.056 1082.42 108.348C1082.82 107.627 1083.36 107.069 1084.06 106.672C1084.76 106.264 1085.56 106.059 1086.43 106.058ZM1086.4 107.57C1085.69 107.571 1085.08 107.793 1084.56 108.238C1084.06 108.682 1083.75 109.253 1083.63 109.949L1089.15 109.943C1089.08 109.224 1088.79 108.648 1088.27 108.216C1087.77 107.785 1087.14 107.569 1086.4 107.57ZM1101.35 102.534L1101.36 115.224L1099.65 115.225L1099.65 113.876C1099.28 114.356 1098.83 114.734 1098.3 115.011C1097.77 115.275 1097.21 115.408 1096.61 115.408C1095.82 115.409 1095.1 115.212 1094.45 114.816C1093.8 114.409 1093.29 113.852 1092.92 113.144C1092.55 112.436 1092.36 111.632 1092.36 110.732C1092.36 109.832 1092.54 109.028 1092.91 108.32C1093.28 107.612 1093.79 107.059 1094.44 106.662C1095.09 106.254 1095.81 106.049 1096.6 106.048C1097.23 106.048 1097.81 106.191 1098.35 106.479C1098.89 106.766 1099.35 107.168 1099.73 107.683L1099.73 102.535L1101.35 102.534ZM1096.9 113.824C1097.42 113.824 1097.9 113.691 1098.34 113.427C1098.77 113.162 1099.1 112.796 1099.34 112.328C1099.58 111.848 1099.7 111.313 1099.7 110.725C1099.7 110.137 1099.58 109.61 1099.34 109.142C1099.1 108.662 1098.76 108.29 1098.33 108.027C1097.9 107.763 1097.42 107.632 1096.89 107.632C1096.36 107.633 1095.89 107.765 1095.47 108.029C1095.05 108.294 1094.72 108.666 1094.48 109.146C1094.24 109.615 1094.12 110.143 1094.12 110.731C1094.12 111.319 1094.24 111.853 1094.48 112.332C1094.72 112.8 1095.05 113.166 1095.47 113.429C1095.89 113.693 1096.37 113.825 1096.9 113.824ZM1110.99 102.525L1111 115.215L1109.29 115.216L1109.28 102.526L1110.99 102.525ZM1117.86 115.388C1116.97 115.389 1116.16 115.186 1115.43 114.779C1114.69 114.359 1114.12 113.796 1113.7 113.088C1113.28 112.369 1113.07 111.577 1113.06 110.713C1113.06 109.849 1113.27 109.063 1113.69 108.354C1114.11 107.634 1114.69 107.069 1115.42 106.661C1116.15 106.24 1116.96 106.029 1117.85 106.028C1118.72 106.027 1119.52 106.237 1120.24 106.656C1120.98 107.063 1121.55 107.627 1121.97 108.346C1122.39 109.054 1122.6 109.84 1122.6 110.704C1122.61 111.568 1122.4 112.36 1121.98 113.08C1121.56 113.789 1120.98 114.353 1120.25 114.774C1119.53 115.183 1118.73 115.387 1117.86 115.388ZM1117.86 113.804C1118.41 113.804 1118.91 113.671 1119.37 113.407C1119.82 113.13 1120.18 112.758 1120.45 112.29C1120.71 111.81 1120.84 111.281 1120.84 110.705C1120.84 110.129 1120.71 109.608 1120.44 109.14C1120.18 108.66 1119.82 108.288 1119.36 108.025C1118.91 107.749 1118.4 107.612 1117.85 107.612C1117.29 107.613 1116.77 107.751 1116.3 108.028C1115.85 108.292 1115.49 108.664 1115.22 109.145C1114.96 109.613 1114.83 110.135 1114.83 110.711C1114.83 111.287 1114.96 111.815 1115.23 112.295C1115.49 112.762 1115.85 113.134 1116.31 113.41C1116.78 113.673 1117.29 113.805 1117.86 113.804ZM1129.25 106.017C1129.99 106.017 1130.64 106.172 1131.22 106.484C1131.8 106.795 1132.27 107.269 1132.6 107.904C1132.95 108.528 1133.13 109.296 1133.13 110.208L1133.13 115.194L1131.42 115.195L1131.42 110.245C1131.42 109.453 1131.18 108.824 1130.71 108.356C1130.24 107.888 1129.66 107.655 1128.95 107.656C1128.43 107.656 1127.98 107.783 1127.58 108.035C1127.2 108.275 1126.9 108.606 1126.68 109.026C1126.48 109.446 1126.38 109.902 1126.38 110.394L1126.38 115.2L1124.67 115.202L1124.66 106.202L1126.28 106.2L1126.28 107.64C1126.62 107.148 1127.05 106.758 1127.56 106.469C1128.09 106.169 1128.65 106.018 1129.25 106.017ZM1144.02 110.287C1144.02 111.055 1143.84 111.752 1143.48 112.376C1143.12 113 1142.58 113.487 1141.86 113.835C1142.44 114.003 1142.86 114.255 1143.12 114.59C1143.4 114.926 1143.54 115.322 1143.54 115.778C1143.54 116.498 1143.28 117.086 1142.75 117.543C1142.23 118.011 1141.56 118.246 1140.73 118.247L1138.34 118.249C1137.52 118.25 1136.85 118.028 1136.32 117.585C1135.79 117.141 1135.53 116.571 1135.53 115.875C1135.53 114.915 1136.08 114.243 1137.18 113.858C1136.5 113.559 1135.96 113.079 1135.58 112.419C1135.21 111.76 1135.02 111.052 1135.02 110.296C1135.02 109.516 1135.21 108.808 1135.59 108.171C1135.99 107.523 1136.53 107.013 1137.21 106.64C1137.9 106.267 1138.65 106.08 1139.46 106.08C1140.61 106.079 1141.59 106.522 1142.4 107.409L1142.4 106.167L1144.02 106.165L1144.02 110.287ZM1139.52 113.172C1140.06 113.171 1140.55 113.045 1140.98 112.792C1141.41 112.54 1141.75 112.198 1141.99 111.765C1142.24 111.333 1142.36 110.847 1142.36 110.307C1142.36 109.779 1142.24 109.305 1141.98 108.885C1141.74 108.466 1141.41 108.136 1140.97 107.896C1140.54 107.657 1140.06 107.537 1139.52 107.538C1138.71 107.538 1138.05 107.803 1137.52 108.332C1137 108.848 1136.75 109.508 1136.75 110.312C1136.75 111.128 1137.01 111.806 1137.52 112.346C1138.05 112.885 1138.72 113.16 1139.52 113.172ZM1140.59 116.879C1140.97 116.878 1141.29 116.776 1141.54 116.572C1141.8 116.368 1141.94 116.115 1141.94 115.815C1141.94 115.491 1141.81 115.221 1141.56 115.006C1141.31 114.79 1140.98 114.682 1140.59 114.683L1138.46 114.685C1138.07 114.685 1137.74 114.793 1137.49 115.01C1137.24 115.226 1137.11 115.496 1137.11 115.82C1137.11 116.12 1137.24 116.372 1137.49 116.576C1137.76 116.779 1138.08 116.881 1138.46 116.881L1140.59 116.879ZM1150.33 105.997C1151.25 105.997 1152.06 106.194 1152.74 106.589C1153.44 106.984 1153.97 107.548 1154.34 108.28C1154.72 108.999 1154.9 109.845 1154.9 110.817C1154.91 111.069 1154.9 111.255 1154.89 111.375L1147.51 111.382C1147.63 112.078 1147.95 112.654 1148.48 113.109C1149.02 113.553 1149.65 113.774 1150.35 113.773C1151.52 113.772 1152.35 113.346 1152.84 112.493L1154.6 112.491C1154.31 113.332 1153.78 114.022 1153 114.563C1152.22 115.092 1151.34 115.356 1150.36 115.357C1149.48 115.358 1148.69 115.161 1147.98 114.766C1147.27 114.358 1146.72 113.801 1146.32 113.093C1145.92 112.374 1145.73 111.57 1145.72 110.682C1145.72 109.794 1145.92 108.996 1146.32 108.287C1146.71 107.567 1147.26 107.008 1147.95 106.612C1148.66 106.203 1149.45 105.998 1150.33 105.997ZM1150.29 107.509C1149.59 107.51 1148.97 107.733 1148.46 108.177C1147.95 108.622 1147.64 109.192 1147.52 109.888L1153.05 109.883C1152.98 109.163 1152.68 108.587 1152.17 108.156C1151.66 107.724 1151.04 107.509 1150.29 107.509ZM1165.33 106.163L1161.47 115.167L1159.24 115.169L1155.36 106.173L1157.27 106.171L1160.39 113.476L1163.48 106.165L1165.33 106.163ZM1168.67 106.16L1168.67 115.16L1166.96 115.162L1166.96 106.162L1168.67 106.16ZM1168.77 102.56L1168.77 104.54L1166.86 104.542L1166.86 102.562L1168.77 102.56ZM1173.8 107.775L1173.8 112.527C1173.8 112.911 1173.9 113.205 1174.09 113.409C1174.29 113.613 1174.64 113.714 1175.13 113.714C1175.59 113.713 1175.99 113.677 1176.32 113.605L1176.32 115.171C1175.97 115.279 1175.56 115.333 1175.08 115.334C1174.1 115.335 1173.35 115.102 1172.85 114.634C1172.34 114.155 1172.09 113.453 1172.09 112.529L1172.09 107.777L1170.29 107.778L1170.28 106.158L1172.08 106.157L1172.08 103.817L1173.79 103.815L1173.79 106.155L1178.29 106.151L1178.3 107.771L1173.8 107.775ZM1186.8 106.143L1181.54 118.208L1179.68 118.21L1181.1 114.986L1176.7 106.152L1178.73 106.15L1182 113.167L1184.91 106.145L1186.8 106.143Z" fill="black"/>
<path fill-rule="evenodd" clip-rule="evenodd" d="M228.925 363.877C231.045 385.484 301.317 401.105 385.882 398.768C428.782 397.583 467.118 392.003 494.205 383.972C520.512 376.172 536.207 366.06 535.162 355.414L466.858 325.186C462.284 324.503 457.538 323.885 452.638 323.336C430.41 320.846 405.026 319.781 378.205 320.522C293.639 322.859 226.805 342.269 228.925 363.877Z" fill="black"/>
<path d="M466.858 325.186C506.961 331.176 533.863 342.17 535.162 355.414L466.858 325.186Z" fill="#F1EFED"/>
<path d="M494.205 383.972L493.856 383.017L494.205 383.972ZM452.638 323.336L452.682 322.347L452.638 323.336ZM466.858 325.186L466.94 324.202L466.858 325.186ZM385.785 397.773C343.561 398.94 304.939 395.622 276.641 389.331C262.484 386.184 250.968 382.305 242.887 377.907C234.743 373.476 230.4 368.694 229.924 363.849L227.925 363.904C228.51 369.862 233.746 375.137 242.017 379.638C250.351 384.173 262.086 388.105 276.333 391.272C304.842 397.61 343.639 400.934 385.98 399.764L385.785 397.773ZM229.924 363.849C229.449 359.004 232.833 354.009 240.065 349.152C247.242 344.333 257.936 339.841 271.401 335.93C298.315 328.113 336.078 322.684 378.302 321.517L378.107 319.527C335.766 320.697 297.829 326.141 270.715 334.016C257.165 337.951 246.263 342.509 238.861 347.479C231.516 352.412 227.341 357.946 227.925 363.904L229.924 363.849ZM534.163 355.441C534.631 360.215 531.354 365.135 524.333 369.928C517.364 374.685 506.967 379.129 493.856 383.017L494.553 384.928C507.749 381.015 518.354 376.504 525.548 371.593C532.69 366.718 536.738 361.258 536.162 355.386L534.163 355.441ZM493.856 383.017C466.873 391.018 428.625 396.589 385.785 397.773L385.98 399.764C428.938 398.576 467.364 392.989 494.553 384.928L493.856 383.017ZM378.302 321.517C405.082 320.777 430.418 321.841 452.594 324.325L452.682 322.347C430.402 319.851 404.971 318.784 378.107 319.527L378.302 321.517ZM452.594 324.325C457.482 324.873 462.216 325.489 466.777 326.171L466.94 324.202C462.352 323.517 457.593 322.897 452.682 322.347L452.594 324.325ZM466.777 326.171C486.785 329.159 503.435 333.388 515.215 338.488C521.106 341.039 525.727 343.786 528.936 346.663C532.142 349.537 533.872 352.476 534.163 355.441L536.162 355.386C535.803 351.73 533.683 348.328 530.225 345.229C526.772 342.133 521.917 339.273 515.908 336.672C503.887 331.467 487.034 327.203 466.94 324.202L466.777 326.171ZM535.517 354.509L467.213 324.282L466.503 326.091L534.807 356.318L535.517 354.509Z" fill="black"/>
<ellipse rx="147.372" ry="44.0195" transform="matrix(0.983707 -0.179779 0.544345 0.838861 365.44 339.349)" fill="#F1EFED" stroke="black" stroke-width="2" stroke-linejoin="round"/>
<path d="M253.31 351.85L255.685 364.224L253.918 364.564L251.543 352.19L253.31 351.85ZM262.356 353.596C263.075 353.458 263.747 353.488 264.372 353.686C265.008 353.882 265.551 354.26 266.001 354.821C266.46 355.369 266.776 356.09 266.948 356.986L267.888 361.882L266.208 362.205L265.275 357.343C265.126 356.566 264.777 355.991 264.229 355.62C263.682 355.248 263.06 355.129 262.365 355.263C261.858 355.36 261.434 355.57 261.093 355.892C260.761 356.2 260.528 356.58 260.395 357.034C260.274 357.485 260.26 357.952 260.353 358.435L261.259 363.155L259.579 363.477L257.883 354.638L259.474 354.333L259.745 355.747C259.982 355.201 260.327 354.737 260.78 354.357C261.242 353.963 261.767 353.709 262.356 353.596ZM269.781 356.937C269.618 356.088 269.677 355.277 269.956 354.502C270.232 353.716 270.692 353.053 271.334 352.515C271.973 351.964 272.729 351.605 273.601 351.438C274.579 351.25 275.513 351.371 276.402 351.799C277.3 352.213 277.961 352.856 278.385 353.727L276.546 354.08C276.255 353.647 275.86 353.338 275.36 353.153C274.87 352.954 274.354 352.907 273.812 353.011C273.258 353.117 272.789 353.347 272.405 353.702C272.018 354.045 271.747 354.476 271.59 354.995C271.43 355.502 271.405 356.038 271.514 356.604C271.622 357.17 271.846 357.665 272.184 358.089C272.519 358.501 272.931 358.8 273.419 358.988C273.905 359.163 274.425 359.198 274.979 359.092C275.521 358.988 275.984 358.758 276.368 358.403C276.761 358.035 277.013 357.595 277.123 357.085L278.961 356.733C278.89 357.699 278.515 358.547 277.837 359.276C277.168 359.991 276.344 360.443 275.366 360.63C274.494 360.798 273.66 360.75 272.864 360.487C272.066 360.213 271.394 359.767 270.848 359.151C270.3 358.523 269.944 357.785 269.781 356.937ZM285.047 349.241C285.33 349.187 285.598 349.154 285.853 349.142L286.168 350.786C285.947 350.779 285.607 350.82 285.147 350.908C284.628 351.008 284.191 351.214 283.836 351.526C283.492 351.837 283.247 352.214 283.1 352.657C282.963 353.087 282.939 353.538 283.03 354.009L283.949 358.799L282.27 359.122L280.573 350.283L282.164 349.978L282.425 351.339C282.665 350.804 283.012 350.353 283.467 349.984C283.931 349.602 284.458 349.354 285.047 349.241ZM291.696 347.965C292.603 347.791 293.43 347.834 294.176 348.094C294.935 348.351 295.565 348.805 296.069 349.453C296.57 350.09 296.912 350.886 297.095 351.841C297.143 352.088 297.172 352.272 297.183 352.392L289.935 353.783C290.184 354.444 290.611 354.949 291.215 355.297C291.829 355.631 292.484 355.732 293.179 355.598C294.322 355.379 295.055 354.804 295.378 353.875L297.11 353.542C296.986 354.422 296.591 355.2 295.927 355.877C295.261 356.543 294.444 356.968 293.478 357.154C292.617 357.319 291.802 357.274 291.032 357.018C290.26 356.751 289.613 356.307 289.091 355.687C288.566 355.054 288.22 354.302 288.053 353.43C287.885 352.558 287.929 351.737 288.185 350.967C288.438 350.185 288.869 349.534 289.478 349.014C290.096 348.48 290.835 348.13 291.696 347.965ZM291.945 349.457C291.25 349.59 290.691 349.924 290.268 350.457C289.857 350.988 289.658 351.606 289.671 352.313L295.098 351.271C294.891 350.577 294.494 350.067 293.906 349.74C293.33 349.411 292.676 349.316 291.945 349.457ZM307.267 345.16L308.964 353.998L307.284 354.321L307.03 352.995C306.755 353.536 306.384 353.992 305.918 354.363C305.449 354.722 304.92 354.958 304.331 355.071C303.553 355.22 302.809 355.161 302.098 354.894C301.384 354.616 300.778 354.164 300.28 353.539C299.781 352.914 299.447 352.159 299.277 351.275C299.107 350.391 299.138 349.567 299.37 348.801C299.602 348.036 299.999 347.398 300.561 346.887C301.12 346.364 301.789 346.028 302.567 345.878C303.179 345.761 303.778 345.793 304.363 345.974C304.947 346.155 305.477 346.462 305.951 346.897L305.676 345.465L307.267 345.16ZM304.315 353.461C304.834 353.361 305.28 353.141 305.655 352.8C306.029 352.46 306.29 352.037 306.438 351.532C306.583 351.016 306.6 350.468 306.489 349.891C306.378 349.314 306.161 348.818 305.837 348.403C305.511 347.977 305.111 347.675 304.637 347.497C304.163 347.319 303.667 347.28 303.148 347.38C302.629 347.479 302.189 347.698 301.826 348.037C301.463 348.375 301.209 348.803 301.064 349.319C300.917 349.824 300.898 350.365 301.009 350.943C301.12 351.52 301.339 352.022 301.665 352.448C301.989 352.863 302.382 353.16 302.844 353.34C303.306 353.52 303.797 353.56 304.315 353.461ZM315.825 352.864C314.718 353.077 313.731 352.998 312.865 352.626C312.009 352.241 311.433 351.594 311.137 350.685L312.816 350.363C313.066 350.84 313.422 351.163 313.882 351.331C314.351 351.486 314.928 351.497 315.611 351.366C316.247 351.244 316.741 351.045 317.091 350.77C317.439 350.484 317.582 350.175 317.519 349.845C317.455 349.515 317.27 349.282 316.963 349.145C316.665 348.995 316.145 348.93 315.404 348.95L314.362 348.966C312.169 348.996 310.944 348.346 310.688 347.014C310.539 346.236 310.761 345.546 311.354 344.943C311.945 344.329 312.794 343.915 313.902 343.703C314.904 343.511 315.803 343.582 316.601 343.918C317.396 344.242 317.967 344.798 318.314 345.587L316.529 345.93C316.319 345.603 315.996 345.384 315.56 345.272C315.12 345.149 314.659 345.134 314.176 345.226C313.563 345.344 313.092 345.532 312.763 345.791C312.443 346.036 312.314 346.317 312.375 346.635C312.43 346.918 312.61 347.128 312.918 347.264C313.223 347.389 313.685 347.441 314.304 347.42L315.363 347.4C316.603 347.369 317.515 347.536 318.098 347.901C318.679 348.254 319.04 348.796 319.18 349.526C319.33 350.304 319.103 351.001 318.5 351.618C317.907 352.22 317.016 352.636 315.825 352.864ZM324.644 341.641C325.551 341.467 326.378 341.51 327.125 341.77C327.883 342.027 328.514 342.481 329.017 343.129C329.518 343.766 329.86 344.562 330.043 345.517C330.091 345.764 330.12 345.948 330.131 346.068L322.883 347.459C323.132 348.12 323.559 348.625 324.163 348.973C324.777 349.307 325.432 349.408 326.127 349.274C327.27 349.055 328.003 348.48 328.326 347.551L330.058 347.218C329.934 348.098 329.539 348.876 328.875 349.553C328.209 350.219 327.392 350.644 326.426 350.83C325.566 350.995 324.751 350.95 323.981 350.694C323.208 350.427 322.561 349.983 322.039 349.362C321.514 348.73 321.168 347.978 321.001 347.106C320.833 346.234 320.877 345.413 321.133 344.643C321.386 343.861 321.817 343.21 322.426 342.69C323.044 342.156 323.784 341.806 324.644 341.641ZM324.894 343.133C324.198 343.266 323.639 343.6 323.216 344.133C322.805 344.664 322.606 345.282 322.619 345.989L328.046 344.947C327.84 344.253 327.442 343.743 326.854 343.416C326.278 343.087 325.624 342.992 324.894 343.133ZM339.52 335.212L341.912 347.674L340.233 347.996L339.978 346.671C339.703 347.212 339.333 347.668 338.866 348.039C338.397 348.398 337.868 348.634 337.279 348.747C336.501 348.896 335.757 348.837 335.046 348.57C334.333 348.292 333.727 347.84 333.228 347.215C332.729 346.59 332.395 345.835 332.225 344.951C332.055 344.067 332.087 343.243 332.318 342.477C332.55 341.712 332.947 341.074 333.509 340.563C334.068 340.04 334.737 339.704 335.515 339.554C336.128 339.437 336.726 339.469 337.311 339.65C337.896 339.831 338.425 340.138 338.899 340.573L337.929 335.517L339.52 335.212ZM337.263 347.137C337.782 347.037 338.228 346.817 338.603 346.476C338.977 346.136 339.238 345.713 339.386 345.208C339.531 344.691 339.548 344.144 339.437 343.567C339.327 342.99 339.109 342.494 338.785 342.079C338.459 341.653 338.059 341.351 337.585 341.173C337.111 340.995 336.615 340.956 336.096 341.056C335.578 341.155 335.137 341.374 334.774 341.713C334.412 342.051 334.158 342.479 334.012 342.995C333.865 343.5 333.847 344.041 333.957 344.619C334.068 345.196 334.287 345.698 334.613 346.124C334.937 346.539 335.33 346.836 335.792 347.016C336.254 347.196 336.745 347.236 337.263 347.137ZM354.403 335.929C355.181 335.78 355.926 335.844 356.64 336.123C357.351 336.39 357.956 336.836 358.455 337.461C358.953 338.086 359.288 338.841 359.457 339.724C359.627 340.608 359.596 341.433 359.364 342.198C359.132 342.964 358.736 343.608 358.177 344.131C357.615 344.642 356.945 344.972 356.167 345.121C355.578 345.234 354.999 345.211 354.431 345.051C353.861 344.88 353.347 344.593 352.892 344.192L353.723 348.523L352.044 348.845L349.77 337.002L351.361 336.696L351.636 338.128C351.916 337.549 352.294 337.067 352.77 336.682C353.246 336.298 353.79 336.047 354.403 335.929ZM355.586 343.62C356.105 343.52 356.545 343.301 356.908 342.963C357.271 342.625 357.526 342.203 357.673 341.698C357.818 341.181 357.836 340.634 357.725 340.057C357.614 339.479 357.397 338.984 357.073 338.569C356.746 338.143 356.352 337.84 355.89 337.66C355.428 337.48 354.937 337.439 354.419 337.539C353.9 337.638 353.454 337.859 353.079 338.199C352.705 338.54 352.445 338.969 352.3 339.485C352.152 339.99 352.134 340.531 352.245 341.109C352.356 341.686 352.574 342.188 352.9 342.614C353.224 343.029 353.623 343.325 354.097 343.502C354.571 343.68 355.068 343.719 355.586 343.62ZM365.312 333.835C366.22 333.661 367.046 333.704 367.793 333.964C368.551 334.222 369.182 334.675 369.685 335.324C370.186 335.961 370.528 336.756 370.711 337.711C370.759 337.958 370.788 338.142 370.799 338.262L363.551 339.653C363.8 340.314 364.227 340.819 364.832 341.167C365.446 341.501 366.1 341.602 366.796 341.468C367.939 341.249 368.672 340.675 368.994 339.745L370.727 339.413C370.602 340.292 370.208 341.07 369.543 341.747C368.877 342.413 368.061 342.839 367.094 343.024C366.234 343.189 365.419 343.144 364.649 342.889C363.877 342.621 363.229 342.177 362.707 341.557C362.182 340.924 361.836 340.172 361.669 339.3C361.502 338.428 361.546 337.607 361.801 336.837C362.054 336.055 362.485 335.404 363.094 334.884C363.712 334.35 364.452 334 365.312 333.835ZM365.562 335.327C364.866 335.46 364.307 335.794 363.884 336.327C363.473 336.858 363.274 337.477 363.287 338.183L368.714 337.141C368.508 336.448 368.111 335.937 367.522 335.61C366.946 335.281 366.292 335.187 365.562 335.327ZM377.228 331.548C377.511 331.494 377.779 331.461 378.034 331.448L378.349 333.092C378.128 333.086 377.788 333.127 377.328 333.215C376.81 333.315 376.373 333.521 376.017 333.833C375.673 334.144 375.428 334.521 375.281 334.964C375.144 335.394 375.12 335.844 375.211 336.316L376.13 341.106L374.451 341.429L372.754 332.59L374.345 332.285L374.606 333.646C374.846 333.111 375.193 332.66 375.648 332.291C376.112 331.909 376.639 331.661 377.228 331.548ZM383.658 328.298C383.175 328.39 382.852 328.556 382.69 328.795C382.54 329.032 382.502 329.338 382.574 329.716L382.757 330.67L385.232 330.195L385.537 331.786L383.062 332.261L384.454 339.509L382.774 339.831L381.383 332.583L379.615 332.923L379.31 331.332L381.078 330.992L380.895 330.038C380.72 329.13 380.837 328.399 381.243 327.845C381.648 327.278 382.333 326.902 383.3 326.717C383.771 326.626 384.188 326.601 384.55 326.642L384.845 328.18C384.502 328.173 384.106 328.212 383.658 328.298ZM393.089 338.035C392.217 338.202 391.383 338.154 390.587 337.892C389.789 337.617 389.117 337.172 388.571 336.556C388.023 335.928 387.668 335.19 387.505 334.341C387.342 333.492 387.4 332.681 387.679 331.907C387.956 331.12 388.415 330.458 389.057 329.919C389.697 329.369 390.453 329.01 391.325 328.842C392.185 328.677 393.008 328.733 393.795 329.01C394.59 329.273 395.262 329.718 395.811 330.346C396.356 330.962 396.711 331.694 396.874 332.543C397.037 333.391 396.98 334.209 396.703 334.995C396.424 335.769 395.965 336.432 395.325 336.982C394.695 337.519 393.949 337.869 393.089 338.035ZM392.79 336.479C393.333 336.375 393.803 336.15 394.201 335.805C394.597 335.448 394.88 335.015 395.051 334.505C395.22 333.984 395.25 333.441 395.141 332.875C395.033 332.31 394.805 331.822 394.457 331.412C394.108 330.99 393.684 330.693 393.186 330.52C392.686 330.334 392.165 330.294 391.623 330.398C391.069 330.504 390.589 330.737 390.181 331.096C389.783 331.442 389.5 331.875 389.331 332.396C389.16 332.905 389.129 333.443 389.237 334.008C389.346 334.574 389.575 335.068 389.925 335.489C390.272 335.899 390.696 336.197 391.196 336.382C391.705 336.553 392.237 336.585 392.79 336.479ZM403.409 326.523C403.692 326.469 403.96 326.435 404.215 326.423L404.53 328.067C404.309 328.061 403.969 328.102 403.509 328.19C402.991 328.289 402.554 328.496 402.198 328.808C401.855 329.118 401.609 329.495 401.462 329.939C401.325 330.369 401.301 330.819 401.392 331.291L402.311 336.081L400.632 336.404L398.935 327.565L400.526 327.26L400.788 328.621C401.027 328.086 401.374 327.634 401.829 327.266C402.293 326.884 402.82 326.636 403.409 326.523ZM417.735 323.773C418.442 323.638 419.102 323.67 419.714 323.87C420.339 324.068 420.87 324.448 421.308 325.012C421.756 325.561 422.066 326.284 422.237 327.18L423.177 332.076L421.498 332.399L420.565 327.537C420.416 326.759 420.073 326.184 419.537 325.81C419.013 325.434 418.415 325.311 417.743 325.44C417.012 325.58 416.473 325.952 416.124 326.557C415.776 327.161 415.674 327.841 415.819 328.595L416.725 333.315L415.046 333.637L414.113 328.776C413.963 327.998 413.621 327.422 413.085 327.049C412.56 326.673 411.962 326.549 411.291 326.678C410.56 326.818 410.021 327.191 409.672 327.795C409.324 328.4 409.222 329.079 409.367 329.833L410.273 334.553L408.593 334.875L406.897 326.037L408.488 325.731L408.756 327.128C408.981 326.584 409.315 326.123 409.755 325.745C410.208 325.365 410.717 325.12 411.282 325.012C411.978 324.878 412.632 324.912 413.244 325.112C413.867 325.298 414.388 325.656 414.807 326.186C415.045 325.579 415.422 325.06 415.938 324.631C416.464 324.188 417.063 323.902 417.735 323.773ZM433.053 321.016L434.749 329.855L433.07 330.177L432.815 328.852C432.54 329.393 432.17 329.849 431.703 330.22C431.234 330.579 430.705 330.815 430.116 330.928C429.338 331.077 428.594 331.018 427.883 330.751C427.17 330.473 426.564 330.021 426.065 329.396C425.566 328.771 425.232 328.016 425.062 327.132C424.892 326.248 424.924 325.424 425.155 324.658C425.387 323.893 425.784 323.255 426.346 322.744C426.905 322.221 427.574 321.885 428.352 321.735C428.965 321.618 429.563 321.65 430.148 321.831C430.733 322.012 431.262 322.319 431.736 322.754L431.462 321.322L433.053 321.016ZM430.1 329.318C430.619 329.218 431.065 328.998 431.44 328.657C431.814 328.317 432.075 327.894 432.223 327.389C432.368 326.872 432.385 326.325 432.274 325.748C432.164 325.17 431.946 324.675 431.622 324.26C431.296 323.834 430.896 323.532 430.422 323.354C429.948 323.176 429.452 323.137 428.933 323.237C428.415 323.336 427.974 323.555 427.611 323.894C427.249 324.232 426.995 324.66 426.849 325.176C426.702 325.681 426.684 326.222 426.795 326.8C426.905 327.377 427.124 327.879 427.45 328.305C427.774 328.72 428.167 329.017 428.629 329.197C429.091 329.377 429.582 329.417 430.1 329.318ZM441.243 319.261C441.962 319.123 442.633 319.153 443.258 319.351C443.894 319.547 444.437 319.925 444.887 320.486C445.346 321.033 445.662 321.755 445.834 322.65L446.774 327.547L445.094 327.869L444.161 323.008C444.012 322.23 443.664 321.656 443.116 321.284C442.568 320.913 441.946 320.794 441.251 320.927C440.744 321.025 440.32 321.234 439.979 321.557C439.647 321.865 439.414 322.245 439.281 322.698C439.16 323.149 439.146 323.616 439.239 324.1L440.145 328.819L438.465 329.142L436.769 320.303L438.36 319.998L438.631 321.412C438.869 320.865 439.213 320.402 439.666 320.022C440.128 319.628 440.653 319.374 441.243 319.261ZM448.668 322.601C448.505 321.753 448.563 320.941 448.842 320.167C449.119 319.381 449.578 318.718 450.22 318.18C450.86 317.629 451.616 317.27 452.488 317.103C453.466 316.915 454.399 317.035 455.288 317.463C456.186 317.878 456.847 318.521 457.271 319.392L455.432 319.745C455.142 319.312 454.746 319.003 454.246 318.818C453.756 318.619 453.24 318.571 452.698 318.675C452.144 318.782 451.675 319.012 451.291 319.367C450.905 319.71 450.633 320.141 450.476 320.66C450.317 321.167 450.291 321.703 450.4 322.269C450.509 322.835 450.732 323.329 451.07 323.753C451.405 324.165 451.817 324.465 452.305 324.653C452.791 324.828 453.311 324.863 453.865 324.756C454.407 324.652 454.87 324.423 455.254 324.068C455.648 323.699 455.899 323.26 456.009 322.75L457.848 322.397C457.777 323.364 457.402 324.212 456.723 324.941C456.054 325.656 455.23 326.107 454.252 326.295C453.38 326.462 452.546 326.415 451.75 326.152C450.952 325.878 450.28 325.432 449.734 324.816C449.186 324.188 448.83 323.45 448.668 322.601ZM463.242 315.039C464.149 314.865 464.976 314.907 465.722 315.167C466.481 315.425 467.111 315.878 467.615 316.527C468.116 317.164 468.458 317.96 468.641 318.914C468.689 319.162 468.718 319.346 468.729 319.466L461.481 320.857C461.73 321.518 462.157 322.022 462.761 322.371C463.375 322.705 464.03 322.805 464.725 322.672C465.868 322.453 466.601 321.878 466.924 320.949L468.656 320.616C468.532 321.495 468.137 322.274 467.473 322.951C466.807 323.617 465.99 324.042 465.024 324.228C464.163 324.393 463.348 324.347 462.578 324.092C461.806 323.825 461.159 323.381 460.637 322.76C460.112 322.128 459.766 321.375 459.599 320.503C459.431 319.631 459.475 318.81 459.731 318.04C459.984 317.259 460.415 316.608 461.024 316.088C461.642 315.553 462.381 315.204 463.242 315.039ZM463.491 316.53C462.796 316.664 462.237 316.997 461.814 317.531C461.403 318.062 461.204 318.68 461.217 319.386L466.644 318.345C466.437 317.651 466.04 317.141 465.452 316.814C464.876 316.485 464.222 316.39 463.491 316.53Z" fill="black"/>
<path fill-rule="evenodd" clip-rule="evenodd" d="M912.802 334.921C1021.94 338.42 1111.64 327.173 1113.16 309.8C1114.68 292.427 1027.44 275.507 918.309 272.008C895.451 271.275 873.445 271.189 852.924 271.671L717.95 298.025C719.438 315.08 805.545 331.482 912.802 334.921Z" fill="black"/>
<path d="M717.95 297.129C717.923 297.428 717.924 297.726 717.95 298.025L852.924 271.671C775.466 273.489 719.152 283.395 717.95 297.129Z" fill="#F1EFED"/>
<path d="M717.95 298.025L716.95 298.165L717.95 298.025ZM1112.16 309.768C1112.01 311.486 1110.75 313.314 1108.05 315.206C1105.36 317.084 1101.41 318.896 1096.29 320.603C1086.06 324.014 1071.37 326.929 1053.27 329.198C1017.07 333.736 967.42 335.673 912.889 333.924L912.715 335.917C967.318 337.667 1017.08 335.73 1053.41 331.176C1071.56 328.9 1086.41 325.964 1096.83 322.489C1102.04 320.754 1106.2 318.864 1109.14 316.816C1112.05 314.78 1113.93 312.457 1114.16 309.832L1112.16 309.768ZM918.222 273.004C972.753 274.753 1021.79 279.854 1056.99 286.68C1074.59 290.095 1088.69 293.932 1098.27 297.978C1103.06 300.004 1106.67 302.058 1109.02 304.097C1111.38 306.151 1112.31 308.05 1112.16 309.768L1114.16 309.832C1114.39 307.207 1112.93 304.776 1110.38 302.566C1107.83 300.341 1104.01 298.196 1099.14 296.137C1089.38 292.015 1075.13 288.147 1057.47 284.723C1022.15 277.871 972.999 272.762 918.396 271.012L918.222 273.004ZM912.889 333.924C859.296 332.206 811.009 327.249 775.952 320.599C758.418 317.273 744.233 313.53 734.358 309.574C729.418 307.594 725.602 305.579 722.992 303.566C720.357 301.534 719.101 299.621 718.949 297.885L716.95 298.165C717.171 300.693 718.93 303.023 721.708 305.166C724.511 307.327 728.505 309.419 733.522 311.429C743.563 315.452 757.887 319.222 775.473 322.558C810.656 329.232 859.051 334.196 912.715 335.917L912.889 333.924ZM718.949 297.885C718.928 297.643 718.928 297.401 718.949 297.161L716.95 297.097C716.919 297.454 716.919 297.81 716.95 298.165L718.949 297.885ZM718.949 297.161C719.068 295.802 719.874 294.379 721.559 292.896C723.247 291.412 725.735 289.944 729.012 288.522C735.563 285.681 745.045 283.116 756.972 280.911C780.808 276.504 814.192 273.576 852.892 272.667L852.955 270.674C814.198 271.584 780.696 274.517 756.71 278.952C744.726 281.167 735.063 283.767 728.296 286.702C724.915 288.169 722.2 289.743 720.276 291.436C718.349 293.131 717.132 295.021 716.95 297.097L718.949 297.161ZM852.892 272.667C873.394 272.186 895.381 272.272 918.222 273.004L918.396 271.012C895.52 270.278 873.496 270.192 852.955 270.674L852.892 272.667ZM718.091 299.003L853.065 272.648L852.783 270.693L717.809 297.047L718.091 299.003Z" fill="black"/>
<ellipse rx="194.458" ry="43.2742" transform="matrix(0.989679 0.143301 -0.367633 0.929971 923.554 280.89)" fill="#F1EFED" stroke="black" stroke-width="2" stroke-linejoin="round"/>
<path d="M780.317 255.584L776.357 267.546L774.573 267.308L778.533 255.346L780.317 255.584ZM787.722 259.962C788.447 260.058 789.047 260.293 789.52 260.665C790.004 261.039 790.313 261.55 790.447 262.198C790.595 262.837 790.526 263.589 790.24 264.455L788.673 269.188L786.978 268.962L788.534 264.263C788.782 263.511 788.749 262.882 788.432 262.376C788.115 261.87 787.606 261.57 786.904 261.476C786.392 261.408 785.901 261.467 785.429 261.654C784.973 261.831 784.572 262.105 784.226 262.475C783.892 262.847 783.647 263.266 783.493 263.733L781.982 268.296L780.287 268.07L783.116 259.526L784.721 259.74L784.269 261.107C784.757 260.684 785.301 260.37 785.903 260.165C786.521 259.95 787.127 259.882 787.722 259.962ZM803.359 262.225L796.694 270.258L794.482 269.963L793.474 260.907L795.366 261.159L796.156 268.509L801.521 261.98L803.359 262.225ZM814.068 263.653L811.24 272.197L809.634 271.983L810.086 270.616C809.599 271.039 809.046 271.358 808.428 271.573C807.826 271.778 807.228 271.841 806.633 271.762C805.908 271.665 805.303 271.43 804.818 271.056C804.345 270.683 804.034 270.178 803.885 269.54C803.752 268.891 803.829 268.134 804.115 267.269L805.682 262.535L807.377 262.761L805.822 267.46C805.573 268.212 805.607 268.841 805.924 269.347C806.24 269.854 806.75 270.153 807.451 270.247C807.963 270.315 808.447 270.261 808.903 270.084C809.374 269.897 809.777 269.618 810.112 269.246C810.458 268.876 810.708 268.457 810.863 267.99L812.373 263.427L814.068 263.653ZM820.672 260.876L816.684 272.923L814.989 272.697L818.977 260.65L820.672 260.876ZM827.863 265.315C828.589 265.412 829.188 265.646 829.661 266.018C830.145 266.392 830.454 266.903 830.588 267.552C830.736 268.19 830.668 268.942 830.381 269.808L828.814 274.541L827.119 274.315L828.675 269.616C828.924 268.864 828.89 268.235 828.573 267.729C828.256 267.223 827.747 266.923 827.045 266.829C826.533 266.761 826.042 266.82 825.57 267.007C825.114 267.184 824.713 267.458 824.367 267.828C824.033 268.2 823.788 268.619 823.634 269.086L822.123 273.649L820.428 273.423L823.257 264.879L824.863 265.093L824.41 266.46C824.898 266.037 825.442 265.723 826.044 265.518C826.662 265.303 827.268 265.235 827.863 265.315ZM839.034 266.805C839.95 266.927 840.685 267.221 841.238 267.687C841.804 268.155 842.156 268.761 842.295 269.505C842.437 270.238 842.356 271.066 842.05 271.988C841.971 272.228 841.906 272.404 841.857 272.516L834.542 271.54C834.442 272.217 834.582 272.807 834.962 273.309C835.358 273.802 835.906 274.095 836.608 274.189C837.762 274.343 838.717 274.048 839.472 273.304L841.221 273.537C840.671 274.297 839.925 274.881 838.982 275.291C838.043 275.689 837.086 275.823 836.11 275.693C835.242 275.577 834.519 275.284 833.942 274.815C833.368 274.334 832.997 273.731 832.827 273.007C832.66 272.271 832.717 271.481 832.996 270.638C833.275 269.795 833.722 269.064 834.337 268.444C834.956 267.813 835.672 267.355 836.487 267.071C837.317 266.778 838.166 266.689 839.034 266.805ZM838.523 268.235C837.822 268.142 837.145 268.271 836.494 268.625C835.855 268.98 835.367 269.479 835.029 270.124L840.506 270.855C840.661 270.162 840.551 269.576 840.175 269.098C839.811 268.621 839.261 268.334 838.523 268.235ZM851.061 268.408C851.347 268.447 851.609 268.499 851.847 268.567L851.321 270.156C851.122 270.082 850.79 270.014 850.327 269.952C849.803 269.882 849.302 269.934 848.822 270.108C848.354 270.284 847.943 270.55 847.589 270.907C847.25 271.255 847.005 271.656 846.854 272.112L845.321 276.743L843.626 276.517L846.455 267.973L848.061 268.187L847.625 269.503C848.109 269.091 848.65 268.789 849.248 268.595C849.862 268.391 850.466 268.329 851.061 268.408ZM862.069 270.055L859.24 278.599L857.545 278.373L857.97 277.091C857.45 277.498 856.885 277.797 856.275 277.989C855.669 278.17 855.068 278.221 854.473 278.142C853.688 278.037 853.037 277.754 852.519 277.292C852.005 276.819 851.675 276.222 851.529 275.501C851.382 274.779 851.451 273.992 851.733 273.137C852.016 272.283 852.453 271.544 853.045 270.921C853.636 270.298 854.315 269.842 855.082 269.551C855.852 269.25 856.63 269.151 857.415 269.256C858.034 269.338 858.565 269.552 859.01 269.897C859.455 270.242 859.786 270.684 860.005 271.225L860.463 269.841L862.069 270.055ZM855.257 276.676C855.78 276.746 856.297 276.684 856.809 276.49C857.32 276.297 857.768 275.994 858.153 275.581C858.541 275.157 858.828 274.666 859.013 274.108C859.198 273.55 859.245 273.033 859.154 272.557C859.067 272.069 858.851 271.672 858.506 271.364C858.16 271.056 857.726 270.867 857.203 270.798C856.679 270.728 856.168 270.79 855.669 270.986C855.169 271.181 854.725 271.49 854.337 271.914C853.952 272.327 853.667 272.812 853.482 273.37C853.297 273.929 853.248 274.451 853.335 274.939C853.426 275.415 853.638 275.806 853.972 276.112C854.305 276.418 854.733 276.606 855.257 276.676ZM870.587 271.012C871.372 271.117 872.021 271.406 872.535 271.879C873.053 272.34 873.385 272.932 873.531 273.653C873.678 274.375 873.609 275.162 873.327 276.017C873.044 276.871 872.607 277.61 872.015 278.233C871.424 278.856 870.743 279.318 869.973 279.62C869.206 279.91 868.43 280.003 867.645 279.898C867.05 279.819 866.533 279.619 866.092 279.299C865.656 278.967 865.328 278.548 865.111 278.044L864.686 279.325L862.991 279.099L866.979 267.052L868.585 267.266L866.967 272.153C867.51 271.714 868.094 271.394 868.72 271.192C869.346 270.99 869.968 270.93 870.587 271.012ZM867.857 278.356C868.381 278.426 868.892 278.363 869.391 278.168C869.891 277.973 870.333 277.669 870.718 277.257C871.106 276.833 871.393 276.342 871.578 275.784C871.763 275.225 871.81 274.708 871.719 274.232C871.632 273.745 871.422 273.348 871.088 273.042C870.755 272.736 870.327 272.548 869.803 272.478C869.28 272.408 868.763 272.47 868.252 272.664C867.74 272.857 867.29 273.166 866.902 273.59C866.517 274.002 866.232 274.488 866.047 275.046C865.862 275.604 865.813 276.127 865.9 276.614C865.991 277.09 866.209 277.482 866.554 277.79C866.9 278.098 867.334 278.287 867.857 278.356ZM879.384 272.364L876.555 280.908L874.86 280.682L877.689 272.138L879.384 272.364ZM880.622 268.961L880 270.84L878.109 270.588L878.731 268.708L880.622 268.961ZM885.983 269.586L881.995 281.633L880.3 281.407L884.288 269.36L885.983 269.586ZM890.263 273.815L887.435 282.359L885.74 282.133L888.568 273.589L890.263 273.815ZM891.502 270.412L890.88 272.291L888.988 272.039L889.611 270.159L891.502 270.412ZM895.729 276.15L894.236 280.661C894.115 281.025 894.118 281.317 894.244 281.536C894.382 281.757 894.695 281.9 895.183 281.965C895.635 282.025 896.039 282.043 896.394 282.019L895.902 283.506C895.523 283.562 895.096 283.559 894.62 283.496C893.645 283.365 892.981 283.045 892.628 282.534C892.28 282.012 892.25 281.312 892.541 280.435L894.034 275.924L892.25 275.686L892.759 274.148L894.543 274.386L895.279 272.164L896.974 272.39L896.238 274.612L900.699 275.207L900.19 276.744L895.729 276.15ZM910.02 276.45L901.002 287.201L899.165 286.956L901.587 284.086L900.011 275.115L902.027 275.384L903.05 282.479L908.147 276.2L910.02 276.45ZM920.133 279.404L918.64 283.915C918.519 284.28 918.516 284.571 918.63 284.788C918.756 285.007 919.045 285.147 919.497 285.207C919.926 285.264 920.3 285.279 920.62 285.25L920.128 286.737C919.772 286.796 919.363 286.795 918.899 286.733C917.008 286.481 916.356 285.466 916.945 283.689L918.438 279.178L916.654 278.94L917.163 277.402L918.947 277.64L919.683 275.419L921.378 275.645L920.642 277.866L923.14 278.199L922.631 279.737L920.133 279.404ZM926.879 287.798C925.998 287.68 925.26 287.379 924.662 286.895C924.069 286.4 923.675 285.788 923.481 285.061C923.291 284.322 923.332 283.542 923.603 282.722C923.875 281.902 924.33 281.183 924.969 280.566C925.612 279.938 926.36 279.479 927.214 279.189C928.071 278.887 928.94 278.794 929.82 278.912C930.689 279.028 931.414 279.332 931.995 279.826C932.593 280.31 932.986 280.922 933.176 281.661C933.37 282.389 933.331 283.163 933.06 283.983C932.788 284.803 932.331 285.527 931.689 286.155C931.05 286.772 930.302 287.231 929.444 287.533C928.602 287.825 927.747 287.913 926.879 287.798ZM927.376 286.294C927.924 286.367 928.465 286.308 929 286.118C929.538 285.916 930.012 285.61 930.421 285.201C930.833 284.78 931.13 284.296 931.311 283.75C931.492 283.203 931.525 282.69 931.411 282.211C931.3 281.72 931.06 281.319 930.691 281.008C930.326 280.686 929.87 280.488 929.322 280.416C928.763 280.341 928.209 280.404 927.658 280.604C927.123 280.794 926.649 281.1 926.237 281.521C925.828 281.93 925.533 282.408 925.352 282.955C925.171 283.502 925.136 284.02 925.247 284.511C925.361 284.99 925.601 285.391 925.966 285.713C926.347 286.026 926.817 286.219 927.376 286.294ZM951.939 282.04L945.275 290.072L943.062 289.777L942.055 280.722L943.946 280.974L944.736 288.323L950.101 281.795L951.939 282.04ZM962.211 283.41L959.382 291.954L957.687 291.728L958.111 290.446C957.592 290.853 957.027 291.152 956.417 291.344C955.811 291.525 955.21 291.576 954.615 291.496C953.83 291.392 953.179 291.109 952.661 290.647C952.147 290.174 951.817 289.577 951.67 288.856C951.524 288.134 951.593 287.346 951.875 286.492C952.158 285.638 952.595 284.899 953.187 284.276C953.778 283.653 954.457 283.196 955.224 282.906C955.994 282.605 956.772 282.506 957.557 282.611C958.175 282.693 958.707 282.907 959.152 283.252C959.597 283.596 959.928 284.039 960.147 284.58L960.605 283.196L962.211 283.41ZM955.399 290.031C955.922 290.101 956.439 290.039 956.95 289.845C957.462 289.652 957.91 289.349 958.295 288.936C958.683 288.512 958.97 288.021 959.155 287.463C959.34 286.905 959.387 286.388 959.296 285.912C959.209 285.424 958.993 285.027 958.648 284.719C958.302 284.411 957.868 284.222 957.345 284.153C956.821 284.083 956.31 284.145 955.811 284.341C955.311 284.536 954.867 284.845 954.479 285.269C954.094 285.682 953.809 286.167 953.624 286.725C953.439 287.283 953.39 287.806 953.477 288.294C953.568 288.77 953.78 289.161 954.114 289.467C954.447 289.773 954.875 289.961 955.399 290.031ZM970.568 284.346C970.853 284.384 971.115 284.437 971.354 284.504L970.828 286.093C970.629 286.019 970.297 285.951 969.833 285.889C969.31 285.82 968.808 285.872 968.329 286.046C967.861 286.221 967.45 286.487 967.095 286.845C966.757 287.192 966.512 287.594 966.361 288.049L964.828 292.68L963.133 292.454L965.962 283.91L967.567 284.124L967.132 285.44C967.616 285.029 968.157 284.726 968.755 284.532C969.369 284.329 969.973 284.267 970.568 284.346ZM975.693 285.208L972.864 293.752L971.169 293.526L973.998 284.982L975.693 285.208ZM976.931 281.804L976.309 283.684L974.417 283.432L975.04 281.552L976.931 281.804ZM980.495 294.948C979.615 294.83 978.876 294.53 978.279 294.046C977.685 293.55 977.292 292.939 977.098 292.211C976.908 291.472 976.949 290.692 977.22 289.872C977.492 289.052 977.947 288.333 978.586 287.717C979.228 287.089 979.976 286.63 980.83 286.339C981.688 286.037 982.557 285.945 983.437 286.062C984.305 286.178 985.03 286.483 985.612 286.977C986.209 287.461 986.603 288.072 986.793 288.811C986.987 289.539 986.948 290.313 986.676 291.133C986.405 291.953 985.948 292.677 985.305 293.305C984.666 293.922 983.918 294.381 983.061 294.683C982.219 294.975 981.364 295.064 980.495 294.948ZM980.993 293.444C981.54 293.517 982.081 293.458 982.616 293.268C983.155 293.066 983.629 292.761 984.038 292.351C984.45 291.931 984.747 291.447 984.928 290.9C985.109 290.353 985.142 289.84 985.028 289.361C984.917 288.87 984.677 288.47 984.308 288.159C983.942 287.836 983.486 287.639 982.939 287.566C982.38 287.491 981.825 287.554 981.275 287.754C980.74 287.945 980.266 288.25 979.853 288.671C979.445 289.08 979.15 289.558 978.969 290.105C978.788 290.652 978.753 291.171 978.863 291.661C978.978 292.141 979.218 292.541 979.583 292.864C979.964 293.176 980.434 293.37 980.993 293.444ZM999.061 288.324L996.232 296.868L994.627 296.654L995.079 295.287C994.591 295.71 994.039 296.028 993.421 296.243C992.819 296.449 992.221 296.512 991.626 296.432C990.9 296.335 990.295 296.1 989.81 295.726C989.338 295.354 989.027 294.849 988.878 294.21C988.745 293.562 988.821 292.805 989.108 291.939L990.675 287.206L992.37 287.432L990.814 292.131C990.565 292.883 990.599 293.512 990.916 294.018C991.233 294.524 991.742 294.824 992.444 294.918C992.956 294.986 993.439 294.931 993.895 294.754C994.367 294.567 994.77 294.288 995.104 293.916C995.45 293.546 995.701 293.128 995.855 292.661L997.366 288.098L999.061 288.324ZM1003.06 297.958C1001.95 297.809 1001.08 297.432 1000.48 296.828C999.885 296.213 999.679 295.448 999.858 294.533L1001.55 294.759C1001.55 295.269 1001.71 295.672 1002.05 295.966C1002.4 296.251 1002.92 296.44 1003.61 296.532C1004.25 296.618 1004.8 296.59 1005.26 296.448C1005.72 296.296 1006 296.06 1006.11 295.741C1006.21 295.422 1006.16 295.153 1005.95 294.934C1005.75 294.706 1005.31 294.486 1004.62 294.275L1003.66 293.969C1001.64 293.319 1000.84 292.35 1001.27 291.063C1001.52 290.311 1002.06 289.753 1002.9 289.389C1003.75 289.014 1004.73 288.901 1005.85 289.051C1006.86 289.185 1007.64 289.528 1008.21 290.079C1008.77 290.619 1009.02 291.3 1008.95 292.123L1007.14 291.882C1007.11 291.521 1006.93 291.223 1006.58 290.987C1006.24 290.739 1005.83 290.583 1005.34 290.518C1004.72 290.435 1004.2 290.461 1003.77 290.594C1003.36 290.717 1003.1 290.932 1003 291.24C1002.91 291.513 1002.97 291.759 1003.18 291.978C1003.4 292.186 1003.8 292.375 1004.37 292.547L1005.35 292.856C1006.5 293.212 1007.25 293.645 1007.6 294.156C1007.96 294.655 1008.02 295.258 1007.79 295.965C1007.54 296.716 1006.98 297.279 1006.13 297.653C1005.29 298.016 1004.27 298.118 1003.06 297.958ZM1026.79 292.022L1023.96 300.566L1022.27 300.34L1022.69 299.059C1022.17 299.465 1021.61 299.764 1021 299.957C1020.39 300.137 1019.79 300.188 1019.2 300.109C1018.41 300.004 1017.76 299.721 1017.24 299.259C1016.73 298.786 1016.4 298.189 1016.25 297.468C1016.1 296.747 1016.17 295.959 1016.46 295.104C1016.74 294.25 1017.18 293.511 1017.77 292.888C1018.36 292.265 1019.04 291.809 1019.8 291.519C1020.57 291.217 1021.35 291.118 1022.14 291.223C1022.76 291.306 1023.29 291.519 1023.73 291.864C1024.18 292.209 1024.51 292.652 1024.73 293.192L1025.18 291.808L1026.79 292.022ZM1019.98 298.643C1020.5 298.713 1021.02 298.651 1021.53 298.458C1022.04 298.264 1022.49 297.961 1022.87 297.548C1023.26 297.125 1023.55 296.633 1023.73 296.075C1023.92 295.517 1023.97 295 1023.88 294.524C1023.79 294.037 1023.57 293.639 1023.23 293.331C1022.88 293.023 1022.45 292.835 1021.92 292.765C1021.4 292.695 1020.89 292.758 1020.39 292.953C1019.89 293.148 1019.45 293.458 1019.06 293.881C1018.67 294.294 1018.39 294.779 1018.2 295.338C1018.02 295.896 1017.97 296.419 1018.06 296.906C1018.15 297.382 1018.36 297.773 1018.69 298.079C1019.03 298.385 1019.46 298.573 1019.98 298.643ZM1032.26 294.358L1030.77 298.869C1030.65 299.234 1030.65 299.525 1030.78 299.744C1030.92 299.965 1031.23 300.108 1031.72 300.173C1032.17 300.233 1032.57 300.251 1032.93 300.227L1032.44 301.714C1032.06 301.771 1031.63 301.767 1031.15 301.704C1030.18 301.574 1029.51 301.253 1029.16 300.742C1028.81 300.22 1028.78 299.52 1029.07 298.643L1030.57 294.132L1028.78 293.894L1029.29 292.356L1031.08 292.594L1031.81 290.372L1033.51 290.598L1032.77 292.82L1037.23 293.415L1036.72 294.953L1032.26 294.358ZM1039.62 295.339L1038.13 299.85C1038 300.215 1038 300.506 1038.12 300.723C1038.24 300.942 1038.53 301.082 1038.98 301.142C1039.41 301.199 1039.79 301.213 1040.11 301.185L1039.61 302.671C1039.26 302.731 1038.85 302.73 1038.38 302.668C1036.49 302.416 1035.84 301.401 1036.43 299.624L1037.92 295.113L1036.14 294.875L1036.65 293.337L1038.43 293.575L1039.17 291.353L1040.86 291.579L1040.13 293.801L1042.63 294.134L1042.12 295.672L1039.62 295.339ZM1053.42 295.574L1050.6 304.118L1048.9 303.892L1049.33 302.61C1048.81 303.017 1048.24 303.316 1047.63 303.509C1047.02 303.689 1046.42 303.74 1045.83 303.661C1045.04 303.556 1044.39 303.273 1043.87 302.811C1043.36 302.338 1043.03 301.741 1042.88 301.02C1042.74 300.299 1042.81 299.511 1043.09 298.656C1043.37 297.802 1043.81 297.063 1044.4 296.44C1044.99 295.817 1045.67 295.361 1046.44 295.071C1047.21 294.769 1047.99 294.67 1048.77 294.775C1049.39 294.858 1049.92 295.071 1050.37 295.416C1050.81 295.761 1051.14 296.203 1051.36 296.744L1051.82 295.36L1053.42 295.574ZM1046.61 302.195C1047.14 302.265 1047.65 302.203 1048.16 302.01C1048.68 301.816 1049.12 301.513 1049.51 301.1C1049.9 300.676 1050.18 300.185 1050.37 299.627C1050.55 299.069 1050.6 298.552 1050.51 298.076C1050.42 297.588 1050.21 297.191 1049.86 296.883C1049.52 296.575 1049.08 296.387 1048.56 296.317C1048.04 296.247 1047.52 296.31 1047.02 296.505C1046.53 296.7 1046.08 297.009 1045.69 297.433C1045.31 297.846 1045.02 298.331 1044.84 298.89C1044.65 299.448 1044.6 299.971 1044.69 300.458C1044.78 300.934 1044.99 301.325 1045.33 301.631C1045.66 301.937 1046.09 302.125 1046.61 302.195ZM1054.96 300.239C1055.23 299.419 1055.69 298.701 1056.32 298.084C1056.97 297.456 1057.71 296.997 1058.57 296.706C1059.43 296.404 1060.3 296.312 1061.18 296.429C1062.16 296.561 1062.96 296.958 1063.56 297.621C1064.17 298.274 1064.46 299.062 1064.41 299.984L1062.56 299.736C1062.51 299.254 1062.3 298.851 1061.93 298.529C1061.58 298.197 1061.14 297.994 1060.59 297.921C1060.03 297.847 1059.49 297.911 1058.96 298.114C1058.44 298.306 1057.97 298.613 1057.57 299.036C1057.18 299.447 1056.89 299.926 1056.71 300.472C1056.53 301.019 1056.48 301.537 1056.58 302.026C1056.69 302.504 1056.91 302.903 1057.27 303.224C1057.63 303.533 1058.08 303.725 1058.64 303.799C1059.19 303.872 1059.73 303.807 1060.25 303.604C1060.8 303.391 1061.24 303.07 1061.6 302.641L1063.45 302.889C1062.91 303.744 1062.15 304.397 1061.16 304.849C1060.2 305.291 1059.22 305.447 1058.23 305.315C1057.35 305.198 1056.61 304.897 1056.02 304.413C1055.42 303.917 1055.03 303.306 1054.84 302.578C1054.65 301.839 1054.69 301.059 1054.96 300.239ZM1069.53 302.504L1067.94 303.433L1066.99 306.304L1065.29 306.078L1069.28 294.031L1070.98 294.257L1068.56 301.554L1073.97 298.314L1076.22 298.614L1071.17 301.545L1073.77 307.208L1071.5 306.906L1069.53 302.504ZM1078.71 308.046C1077.59 307.897 1076.73 307.52 1076.12 306.916C1075.53 306.302 1075.33 305.537 1075.51 304.621L1077.2 304.847C1077.19 305.357 1077.36 305.76 1077.69 306.055C1078.05 306.34 1078.57 306.528 1079.26 306.62C1079.9 306.706 1080.45 306.678 1080.91 306.537C1081.37 306.384 1081.65 306.148 1081.76 305.829C1081.86 305.51 1081.81 305.241 1081.59 305.023C1081.4 304.794 1080.95 304.574 1080.27 304.364L1079.31 304.057C1077.29 303.407 1076.49 302.438 1076.91 301.151C1077.16 300.399 1077.71 299.842 1078.55 299.478C1079.39 299.103 1080.38 298.99 1081.49 299.139C1082.5 299.274 1083.29 299.617 1083.85 300.167C1084.42 300.707 1084.67 301.388 1084.59 302.211L1082.79 301.971C1082.76 301.61 1082.58 301.311 1082.23 301.075C1081.89 300.827 1081.48 300.671 1080.99 300.606C1080.37 300.524 1079.85 300.549 1079.42 300.682C1079 300.805 1078.75 301.021 1078.64 301.328C1078.55 301.602 1078.62 301.848 1078.83 302.067C1079.05 302.274 1079.44 302.464 1080.02 302.636L1081 302.945C1082.15 303.3 1082.9 303.733 1083.25 304.244C1083.61 304.744 1083.67 305.347 1083.43 306.053C1083.18 306.805 1082.63 307.367 1081.78 307.741C1080.93 308.105 1079.91 308.206 1078.71 308.046Z" fill="black"/>
</svg>
