<svg width="1238" height="408" viewBox="0 0 1238 408" fill="none" xmlns="http://www.w3.org/2000/svg">
    <path d="M0 346.408L13.31 339.508L0 346.408Z" fill="black"/>
    <path d="M26.8894 333.118L40.7294 327.318C40.7405 327.314 40.7524 327.312 40.7642 327.313C40.776 327.313 40.7876 327.316 40.7983 327.321C40.8089 327.326 40.8185 327.334 40.8264 327.342C40.8343 327.351 40.8404 327.361 40.8444 327.373C40.8483 327.384 40.85 327.396 40.8494 327.407C40.8488 327.419 40.8458 327.431 40.8407 327.442C40.8356 327.452 40.8284 327.462 40.8196 327.47C40.8108 327.478 40.8005 327.484 40.7894 327.488V327.488L26.9394 333.228C26.9284 333.237 26.9141 333.243 26.8994 333.243C26.8846 333.243 26.8704 333.237 26.8594 333.228C26.8594 333.228 26.8594 333.138 26.8894 333.118Z" fill="black"/>
    <path d="M54.8313 322.202L69.2013 317.872C69.2397 317.862 69.2805 317.867 69.3156 317.886C69.3507 317.904 69.3777 317.935 69.3913 317.972C69.399 318.011 69.3933 318.05 69.3751 318.085C69.3569 318.12 69.3273 318.147 69.2913 318.162V318.162L54.9013 322.432C54.8862 322.437 54.8703 322.438 54.8546 322.437C54.8389 322.435 54.8237 322.431 54.8097 322.423C54.7958 322.416 54.7835 322.406 54.7734 322.394C54.7634 322.381 54.7559 322.367 54.7513 322.352C54.7467 322.337 54.7451 322.321 54.7467 322.306C54.7482 322.29 54.7528 322.275 54.7602 322.261C54.7677 322.247 54.7778 322.234 54.79 322.224C54.8021 322.214 54.8162 322.207 54.8313 322.202V322.202Z" fill="black"/>
    <path d="M83.8184 314.48C88.7284 313.48 93.6784 312.74 98.6584 312.18C98.7141 312.18 98.7676 312.202 98.8069 312.241C98.8463 312.281 98.8684 312.334 98.8684 312.39C98.8684 312.445 98.8463 312.499 98.8069 312.538C98.7676 312.578 98.7141 312.6 98.6584 312.6V312.6C93.6584 313.13 88.7484 313.89 83.8484 314.83C83.801 314.836 83.753 314.824 83.7141 314.796C83.6751 314.768 83.6481 314.727 83.6384 314.68C83.6314 314.654 83.631 314.627 83.6372 314.601C83.6433 314.575 83.656 314.55 83.6739 314.531C83.6918 314.511 83.7144 314.496 83.7397 314.487C83.7649 314.478 83.792 314.475 83.8184 314.48V314.48Z" fill="black"/>
    <path d="M113.642 311.203L121.152 311.273L128.652 311.703C128.687 311.704 128.721 311.713 128.753 311.728C128.785 311.742 128.813 311.764 128.837 311.79C128.86 311.816 128.878 311.847 128.889 311.88C128.9 311.913 128.905 311.948 128.902 311.983C128.901 312.018 128.892 312.053 128.877 312.084C128.863 312.116 128.841 312.144 128.815 312.168C128.789 312.191 128.758 312.209 128.725 312.22C128.692 312.231 128.657 312.236 128.622 312.233V312.233L121.142 311.783L113.662 311.683C113.597 311.681 113.536 311.653 113.492 311.606C113.447 311.56 113.422 311.498 113.422 311.433C113.422 311.374 113.445 311.317 113.486 311.274C113.527 311.231 113.583 311.206 113.642 311.203Z" fill="black"/>
    <path d="M143.58 313.352L158.38 315.902C158.423 315.909 158.464 315.926 158.5 315.949C158.537 315.973 158.568 316.003 158.593 316.039C158.617 316.075 158.635 316.115 158.644 316.158C158.653 316.2 158.653 316.244 158.645 316.287C158.637 316.329 158.621 316.37 158.598 316.406C158.574 316.443 158.544 316.474 158.508 316.499C158.472 316.523 158.432 316.541 158.389 316.55C158.347 316.559 158.303 316.559 158.26 316.552L143.49 313.962C143.452 313.955 143.416 313.941 143.383 313.92C143.351 313.9 143.322 313.873 143.3 313.841C143.278 313.81 143.262 313.774 143.253 313.736C143.245 313.699 143.244 313.66 143.25 313.622C143.257 313.583 143.271 313.547 143.292 313.514C143.312 313.482 143.339 313.453 143.371 313.431C143.402 313.409 143.438 313.393 143.476 313.384C143.513 313.376 143.552 313.375 143.59 313.382L143.58 313.352Z" fill="black"/>
    <path d="M172.999 319.188L187.499 323.057C187.598 323.083 187.682 323.147 187.735 323.235C187.787 323.323 187.803 323.428 187.779 323.527C187.75 323.627 187.685 323.712 187.595 323.764C187.506 323.817 187.399 323.832 187.299 323.807V323.807L172.829 319.897C172.746 319.865 172.679 319.803 172.639 319.723C172.6 319.644 172.591 319.553 172.614 319.467C172.638 319.382 172.692 319.308 172.767 319.26C172.841 319.212 172.931 319.193 173.019 319.207L172.999 319.188Z" fill="black"/>
    <path d="M201.921 327.359L216.201 331.959C216.256 331.977 216.307 332.005 216.352 332.043C216.396 332.08 216.432 332.126 216.458 332.177C216.485 332.229 216.501 332.285 216.506 332.343C216.51 332.401 216.504 332.459 216.486 332.514C216.468 332.569 216.44 332.62 216.402 332.664C216.365 332.709 216.319 332.745 216.268 332.771C216.216 332.798 216.16 332.814 216.102 332.819C216.044 332.823 215.986 332.817 215.931 332.799V332.799L201.681 328.149C201.629 328.133 201.58 328.107 201.538 328.072C201.496 328.037 201.462 327.994 201.437 327.946C201.412 327.897 201.396 327.844 201.392 327.79C201.388 327.736 201.394 327.681 201.411 327.629C201.445 327.527 201.517 327.443 201.612 327.393C201.707 327.342 201.818 327.33 201.921 327.359V327.359Z" fill="black"/>
    <path d="M230.432 336.71L244.672 341.43C244.793 341.475 244.893 341.565 244.949 341.681C245.005 341.798 245.015 341.931 244.974 342.054C244.934 342.177 244.848 342.28 244.734 342.341C244.62 342.401 244.486 342.416 244.362 342.38V342.38L230.142 337.61C230.082 337.591 230.027 337.56 229.98 337.519C229.933 337.479 229.894 337.429 229.866 337.373C229.838 337.317 229.822 337.256 229.817 337.194C229.813 337.132 229.822 337.069 229.842 337.01C229.881 336.892 229.965 336.795 230.075 336.739C230.186 336.682 230.314 336.672 230.432 336.71V336.71Z" fill="black"/>
    <path d="M258.922 346.086L273.202 350.686C273.282 350.694 273.36 350.719 273.43 350.761C273.499 350.803 273.558 350.86 273.603 350.928C273.647 350.996 273.675 351.073 273.686 351.153C273.696 351.234 273.689 351.316 273.663 351.393C273.638 351.47 273.595 351.54 273.539 351.598C273.483 351.657 273.414 351.702 273.338 351.73C273.262 351.758 273.181 351.769 273.1 351.761C273.019 351.753 272.941 351.728 272.872 351.686V351.686L258.602 347.056C258.471 347.014 258.361 346.923 258.298 346.801C258.234 346.679 258.221 346.537 258.262 346.406C258.311 346.279 258.407 346.176 258.529 346.117C258.651 346.057 258.792 346.046 258.922 346.086Z" fill="black"/>
    <path d="M287.5 355.197L301.83 359.607C301.969 359.656 302.083 359.756 302.15 359.887C302.216 360.018 302.229 360.17 302.187 360.31C302.144 360.45 302.049 360.569 301.921 360.641C301.793 360.713 301.643 360.733 301.5 360.697V360.697L287.17 356.247C287.102 356.226 287.038 356.19 286.982 356.144C286.927 356.098 286.881 356.041 286.848 355.977C286.814 355.913 286.794 355.843 286.787 355.771C286.781 355.699 286.789 355.626 286.81 355.557C286.832 355.488 286.867 355.424 286.914 355.369C286.96 355.313 287.017 355.268 287.081 355.234C287.145 355.201 287.215 355.18 287.287 355.174C287.359 355.168 287.432 355.176 287.5 355.197Z" fill="black"/>
    <path d="M316.199 363.896L330.599 368.066C330.675 368.088 330.747 368.125 330.809 368.175C330.871 368.224 330.922 368.286 330.961 368.356C330.999 368.425 331.023 368.502 331.031 368.581C331.039 368.66 331.032 368.74 331.009 368.816C330.988 368.893 330.952 368.964 330.904 369.026C330.855 369.088 330.794 369.14 330.725 369.178C330.656 369.216 330.58 369.24 330.502 369.248C330.423 369.257 330.344 369.249 330.269 369.226V369.226L315.859 365.026C315.718 364.975 315.603 364.872 315.536 364.738C315.469 364.605 315.454 364.451 315.496 364.307C315.538 364.164 315.633 364.042 315.761 363.965C315.89 363.889 316.043 363.865 316.189 363.896H316.199Z" fill="black"/>
    <path d="M344.999 372.098L359.519 375.958C359.608 375.972 359.692 376.005 359.767 376.054C359.842 376.103 359.905 376.167 359.954 376.242C360.003 376.317 360.035 376.402 360.049 376.49C360.063 376.579 360.058 376.669 360.035 376.755C360.011 376.842 359.97 376.922 359.914 376.992C359.858 377.062 359.788 377.119 359.708 377.159C359.628 377.2 359.541 377.224 359.452 377.229C359.362 377.233 359.273 377.22 359.189 377.188V377.188L344.699 373.268C344.54 373.225 344.404 373.121 344.322 372.979C344.239 372.836 344.217 372.667 344.259 372.508C344.302 372.349 344.406 372.213 344.548 372.13C344.691 372.048 344.86 372.025 345.019 372.068L344.999 372.098Z" fill="black"/>
    <path d="M373.999 379.701L388.569 383.241C388.735 383.289 388.876 383.399 388.962 383.549C389.048 383.699 389.074 383.876 389.032 384.044C388.991 384.212 388.886 384.357 388.74 384.45C388.595 384.542 388.419 384.575 388.249 384.54V384.54L373.729 380.961C373.646 380.94 373.567 380.904 373.498 380.853C373.429 380.802 373.37 380.738 373.326 380.665C373.281 380.592 373.251 380.51 373.238 380.425C373.225 380.34 373.229 380.254 373.249 380.171C373.269 380.087 373.306 380.009 373.357 379.939C373.408 379.87 373.471 379.811 373.545 379.767C373.618 379.722 373.699 379.693 373.784 379.68C373.869 379.666 373.956 379.67 374.039 379.691L373.999 379.701Z" fill="black"/>
    <path d="M403.219 386.601L410.549 388.201L417.879 389.711C418.062 389.748 418.223 389.856 418.326 390.012C418.429 390.168 418.467 390.358 418.429 390.541C418.392 390.724 418.284 390.885 418.128 390.988C417.973 391.091 417.782 391.128 417.599 391.091V391.091L410.239 389.561L402.919 387.961C402.824 387.949 402.732 387.918 402.649 387.868C402.566 387.819 402.494 387.753 402.439 387.674C402.383 387.595 402.345 387.506 402.326 387.411C402.307 387.317 402.308 387.219 402.329 387.125C402.35 387.031 402.391 386.943 402.448 386.865C402.506 386.788 402.579 386.723 402.662 386.676C402.746 386.628 402.839 386.599 402.935 386.589C403.031 386.58 403.128 386.591 403.219 386.621V386.601Z" fill="black"/>
    <path d="M432.629 392.281L447.469 394.281C447.566 394.294 447.659 394.325 447.743 394.373C447.828 394.422 447.902 394.486 447.961 394.563C448.021 394.641 448.065 394.729 448.09 394.823C448.115 394.917 448.122 395.015 448.109 395.111C448.079 395.303 447.976 395.476 447.821 395.594C447.667 395.711 447.472 395.764 447.279 395.741V395.741L432.379 393.741C432.191 393.714 432.02 393.614 431.904 393.462C431.788 393.311 431.736 393.12 431.759 392.931C431.771 392.837 431.802 392.747 431.85 392.665C431.897 392.583 431.96 392.511 432.035 392.453C432.111 392.395 432.197 392.353 432.288 392.329C432.38 392.305 432.475 392.299 432.569 392.311L432.629 392.281Z" fill="black"/>
    <path d="M462.38 395.508L477.33 396.038C477.533 396.048 477.724 396.138 477.862 396.287C478.001 396.437 478.075 396.634 478.07 396.838C478.067 396.939 478.044 397.039 478.002 397.132C477.96 397.225 477.9 397.308 477.826 397.377C477.751 397.446 477.664 397.499 477.568 397.534C477.473 397.568 477.371 397.583 477.27 397.578V397.578L462.27 397.008C462.071 397.008 461.88 396.929 461.739 396.788C461.599 396.647 461.52 396.457 461.52 396.258C461.52 396.059 461.599 395.868 461.739 395.728C461.88 395.587 462.071 395.508 462.27 395.508H462.38Z" fill="black"/>
    <path d="M492.28 395.789L507.19 394.729H507.24C507.351 394.711 507.464 394.717 507.573 394.746C507.681 394.774 507.783 394.825 507.871 394.895C507.959 394.966 508.031 395.053 508.083 395.153C508.135 395.252 508.166 395.361 508.174 395.474C508.181 395.586 508.166 395.698 508.128 395.804C508.089 395.909 508.03 396.006 507.952 396.087C507.875 396.169 507.781 396.233 507.677 396.276C507.574 396.32 507.462 396.341 507.35 396.339V396.339L492.35 397.339C492.152 397.335 491.963 397.258 491.82 397.122C491.677 396.986 491.59 396.801 491.576 396.604C491.562 396.407 491.623 396.212 491.746 396.057C491.868 395.903 492.045 395.8 492.24 395.769L492.28 395.789Z" fill="black"/>
    <path d="M521.999 392.817L536.699 390.067C536.809 390.042 536.923 390.04 537.033 390.061C537.144 390.082 537.249 390.125 537.343 390.187C537.437 390.25 537.516 390.331 537.578 390.426C537.639 390.52 537.68 390.626 537.699 390.737C537.725 390.847 537.729 390.961 537.708 391.072C537.688 391.184 537.646 391.29 537.583 391.383C537.52 391.477 537.438 391.557 537.343 391.618C537.248 391.679 537.141 391.719 537.029 391.737V391.737L522.239 394.477C522.131 394.503 522.018 394.507 521.909 394.488C521.799 394.47 521.694 394.429 521.601 394.368C521.507 394.308 521.427 394.229 521.365 394.136C521.303 394.044 521.261 393.94 521.24 393.83C521.22 393.721 521.222 393.608 521.247 393.5C521.271 393.391 521.317 393.289 521.383 393.198C521.448 393.108 521.531 393.032 521.627 392.976C521.723 392.919 521.829 392.882 521.939 392.867L521.999 392.817Z" fill="black"/>
    <path d="M551.23 386.483L558.41 384.384L565.51 382.073C565.725 382.003 565.959 382.021 566.16 382.123C566.362 382.226 566.515 382.404 566.585 382.619C566.655 382.833 566.637 383.067 566.535 383.269C566.433 383.47 566.255 383.623 566.04 383.694V383.694L558.87 386.024L551.65 388.134C551.54 388.173 551.424 388.189 551.308 388.182C551.192 388.175 551.079 388.144 550.975 388.091C550.872 388.038 550.78 387.964 550.706 387.875C550.632 387.785 550.577 387.681 550.545 387.569C550.513 387.458 550.504 387.34 550.519 387.225C550.534 387.11 550.572 386.999 550.631 386.899C550.691 386.799 550.77 386.712 550.865 386.644C550.959 386.576 551.066 386.528 551.18 386.504L551.23 386.483Z" fill="black"/>
    <path d="M579.462 376.714L593.002 370.454H593.052C593.155 370.406 593.266 370.38 593.379 370.376C593.493 370.371 593.606 370.39 593.712 370.429C593.818 370.468 593.916 370.528 593.999 370.606C594.082 370.683 594.149 370.776 594.197 370.879C594.244 370.982 594.27 371.093 594.275 371.206C594.279 371.32 594.261 371.433 594.221 371.539C594.182 371.645 594.122 371.743 594.045 371.826C593.967 371.909 593.875 371.976 593.772 372.024V372.024L580.092 378.314C579.99 378.362 579.88 378.389 579.768 378.394C579.655 378.399 579.543 378.382 579.438 378.343C579.332 378.303 579.236 378.244 579.154 378.166C579.072 378.089 579.007 377.996 578.962 377.894C578.866 377.687 578.857 377.45 578.936 377.237C579.015 377.023 579.175 376.849 579.382 376.754L579.462 376.714Z" fill="black"/>
    <path d="M606.241 363.418L619.101 355.778C619.299 355.66 619.537 355.626 619.761 355.683C619.985 355.741 620.177 355.884 620.296 356.083C620.414 356.282 620.448 356.52 620.391 356.744C620.333 356.968 620.189 357.16 619.991 357.278L607.091 364.958C606.892 365.076 606.654 365.111 606.43 365.053C606.206 364.996 606.014 364.852 605.896 364.653C605.778 364.454 605.743 364.217 605.801 363.993C605.858 363.769 606.002 363.576 606.201 363.458L606.241 363.418Z" fill="black"/>
    <path d="M631.721 347.714L644.191 339.404C644.288 339.338 644.396 339.292 644.511 339.269C644.625 339.245 644.743 339.244 644.858 339.266C644.972 339.287 645.082 339.332 645.179 339.396C645.277 339.46 645.361 339.542 645.426 339.639C645.492 339.735 645.538 339.844 645.562 339.958C645.586 340.073 645.587 340.19 645.565 340.305C645.543 340.42 645.499 340.529 645.435 340.627C645.371 340.724 645.288 340.808 645.191 340.874V340.874L632.701 349.194C632.507 349.327 632.267 349.376 632.035 349.332C631.804 349.288 631.599 349.154 631.466 348.959C631.334 348.764 631.284 348.524 631.328 348.293C631.372 348.061 631.507 347.857 631.701 347.724L631.721 347.714Z" fill="black"/>
    <path d="M656.639 331.043L669.199 322.823C669.398 322.691 669.641 322.642 669.876 322.689C670.11 322.736 670.316 322.874 670.449 323.073C670.582 323.272 670.63 323.516 670.583 323.75C670.536 323.984 670.398 324.191 670.199 324.323V324.323L657.659 332.523C657.463 332.653 657.223 332.699 656.992 332.652C656.762 332.605 656.559 332.469 656.429 332.273C656.298 332.081 656.247 331.845 656.286 331.616C656.325 331.387 656.452 331.181 656.639 331.043V331.043Z" fill="black"/>
    <path d="M681.998 314.961L695.098 307.561C695.309 307.443 695.558 307.414 695.791 307.48C696.023 307.545 696.22 307.701 696.338 307.911C696.456 308.122 696.486 308.371 696.42 308.604C696.354 308.836 696.199 309.033 695.988 309.151L682.988 316.491C682.888 316.556 682.775 316.601 682.658 316.623C682.54 316.644 682.419 316.642 682.302 316.617C682.066 316.567 681.859 316.424 681.728 316.221C681.597 316.019 681.552 315.772 681.602 315.535C681.653 315.299 681.795 315.093 681.998 314.961V314.961Z" fill="black"/>
    <path d="M708.571 300.844C713.151 298.771 717.794 296.858 722.501 295.104C722.73 295.019 722.984 295.029 723.206 295.131C723.428 295.233 723.601 295.42 723.686 295.649C723.771 295.879 723.761 296.132 723.659 296.355C723.557 296.577 723.37 296.749 723.141 296.834C718.474 298.567 713.871 300.461 709.331 302.514C709.113 302.594 708.873 302.589 708.659 302.499C708.445 302.41 708.272 302.243 708.176 302.032C708.08 301.82 708.068 301.581 708.141 301.36C708.214 301.14 708.367 300.956 708.571 300.844V300.844Z" fill="black"/>
    <path d="M736.8 290.361C741.62 288.954 746.483 287.711 751.39 286.631C751.631 286.578 751.883 286.623 752.092 286.756C752.3 286.889 752.446 287.1 752.5 287.341C752.553 287.582 752.508 287.835 752.374 288.043C752.241 288.251 752.031 288.398 751.79 288.451C746.93 289.511 742.11 290.741 737.33 292.141C737.21 292.186 737.082 292.207 736.954 292.2C736.826 292.194 736.7 292.161 736.585 292.104C736.471 292.046 736.369 291.966 736.287 291.868C736.205 291.769 736.144 291.655 736.108 291.532C736.072 291.409 736.062 291.28 736.078 291.153C736.094 291.026 736.137 290.903 736.203 290.793C736.269 290.683 736.356 290.588 736.461 290.514C736.565 290.439 736.684 290.387 736.81 290.361H736.8Z" fill="black"/>
    <path d="M766.192 283.89L781.192 282.1C781.44 282.071 781.689 282.142 781.885 282.296C782.081 282.451 782.208 282.677 782.237 282.925C782.266 283.173 782.195 283.423 782.041 283.619C781.886 283.815 781.66 283.941 781.412 283.97H781.352L766.512 285.73H766.452C766.206 285.759 765.96 285.69 765.765 285.537C765.571 285.384 765.446 285.161 765.417 284.915C765.388 284.67 765.457 284.423 765.61 284.229C765.763 284.035 765.986 283.909 766.232 283.88L766.192 283.89Z" fill="black"/>
    <path d="M796.18 281.227H811.23C811.434 281.29 811.612 281.417 811.739 281.589C811.865 281.76 811.934 281.968 811.934 282.182C811.934 282.395 811.865 282.603 811.739 282.775C811.612 282.946 811.434 283.073 811.23 283.137H796.18C796.048 283.15 795.914 283.136 795.788 283.095C795.661 283.053 795.545 282.986 795.446 282.897C795.348 282.808 795.269 282.699 795.215 282.578C795.161 282.456 795.133 282.325 795.133 282.192C795.133 282.059 795.161 281.927 795.215 281.806C795.269 281.684 795.348 281.575 795.446 281.486C795.545 281.397 795.661 281.33 795.788 281.289C795.914 281.247 796.048 281.233 796.18 281.247V281.227Z" fill="black"/>
    <path d="M826.248 281.958L841.248 283.458C841.453 283.536 841.627 283.68 841.742 283.866C841.857 284.053 841.908 284.272 841.886 284.491C841.865 284.709 841.772 284.914 841.623 285.074C841.473 285.235 841.275 285.341 841.058 285.378L826.188 283.878H826.139C825.985 283.91 825.826 283.904 825.675 283.863C825.523 283.822 825.384 283.746 825.268 283.641C825.151 283.536 825.061 283.405 825.005 283.259C824.948 283.112 824.927 282.955 824.942 282.799C824.958 282.643 825.01 282.493 825.094 282.361C825.179 282.228 825.293 282.118 825.428 282.038C825.563 281.958 825.715 281.911 825.871 281.901C826.027 281.89 826.184 281.917 826.329 281.978L826.248 281.958Z" fill="black"/>
    <path d="M856.099 285.663L870.889 288.423C871.099 288.512 871.272 288.67 871.38 288.871C871.488 289.072 871.523 289.303 871.481 289.528C871.439 289.752 871.322 289.955 871.149 290.103C870.976 290.251 870.757 290.336 870.529 290.343L855.829 287.583C855.676 287.595 855.523 287.572 855.38 287.515C855.238 287.458 855.11 287.37 855.008 287.256C854.905 287.142 854.83 287.006 854.788 286.858C854.746 286.711 854.739 286.556 854.767 286.405C854.794 286.254 854.856 286.112 854.948 285.989C855.04 285.866 855.158 285.765 855.295 285.695C855.431 285.626 855.582 285.588 855.736 285.586C855.889 285.584 856.041 285.617 856.179 285.683L856.099 285.663Z" fill="black"/>
    <path d="M885.56 291.626L900.17 295.146C900.317 295.153 900.461 295.193 900.591 295.262C900.721 295.331 900.834 295.427 900.923 295.545C901.011 295.663 901.072 295.799 901.102 295.943C901.132 296.087 901.129 296.236 901.095 296.379C901.06 296.522 900.995 296.656 900.903 296.771C900.81 296.886 900.694 296.979 900.562 297.043C900.43 297.108 900.285 297.143 900.138 297.145C899.99 297.147 899.845 297.117 899.71 297.056V297.056L885.15 293.536C884.938 293.44 884.766 293.273 884.664 293.064C884.562 292.855 884.536 292.617 884.59 292.391C884.645 292.165 884.776 291.964 884.963 291.825C885.149 291.685 885.378 291.615 885.61 291.626H885.56Z" fill="black"/>
    <path d="M914.681 299.05L929.061 303.44C929.299 303.529 929.495 303.706 929.608 303.934C929.721 304.162 929.742 304.424 929.668 304.668C929.594 304.911 929.43 305.117 929.21 305.244C928.989 305.371 928.729 305.409 928.481 305.35V305.35L914.141 300.96C914.002 300.935 913.87 300.881 913.754 300.801C913.638 300.721 913.54 300.617 913.466 300.497C913.393 300.376 913.346 300.242 913.328 300.102C913.311 299.962 913.323 299.82 913.364 299.685C913.405 299.55 913.474 299.425 913.567 299.319C913.66 299.212 913.774 299.127 913.902 299.068C914.031 299.009 914.17 298.978 914.311 298.977C914.452 298.975 914.592 299.004 914.721 299.06L914.681 299.05Z" fill="black"/>
    <path d="M943.261 308.409L957.261 314.049C957.477 314.167 957.641 314.36 957.723 314.592C957.805 314.823 957.8 315.076 957.707 315.304C957.614 315.531 957.441 315.716 957.221 315.824C957 315.932 956.748 315.955 956.511 315.889V315.889L942.641 310.299C942.507 310.259 942.383 310.192 942.276 310.101C942.17 310.01 942.084 309.898 942.023 309.772C941.963 309.645 941.93 309.508 941.926 309.368C941.922 309.228 941.948 309.089 942.001 308.959C942.05 308.837 942.122 308.726 942.214 308.631C942.305 308.537 942.414 308.462 942.535 308.41C942.656 308.358 942.786 308.33 942.917 308.328C943.049 308.326 943.179 308.351 943.301 308.399L943.261 308.409Z" fill="black"/>
    <path d="M970.921 320.178C975.471 322.178 980.041 324.178 984.701 325.928C984.906 326.045 985.062 326.231 985.142 326.453C985.223 326.675 985.222 326.918 985.141 327.139C985.06 327.36 984.903 327.546 984.698 327.663C984.493 327.779 984.253 327.82 984.021 327.778C979.291 326.028 974.681 324.028 970.111 321.978C969.875 321.868 969.691 321.672 969.598 321.429C969.505 321.186 969.509 320.917 969.611 320.678C969.721 320.439 969.919 320.253 970.164 320.159C970.409 320.066 970.681 320.072 970.921 320.178Z" fill="black"/>
    <path d="M999.001 329.962C1003.84 330.859 1008.77 331.084 1013.67 330.632C1013.92 330.614 1014.18 330.695 1014.37 330.856C1014.57 331.018 1014.7 331.249 1014.73 331.502C1014.75 331.756 1014.67 332.007 1014.51 332.204C1014.34 332.401 1014.11 332.529 1013.86 332.562C1008.78 333.036 1003.67 332.808 998.651 331.882C998.501 331.889 998.351 331.862 998.212 331.804C998.074 331.746 997.951 331.657 997.851 331.544C997.752 331.431 997.679 331.298 997.639 331.153C997.598 331.008 997.591 330.856 997.617 330.708C997.643 330.56 997.702 330.42 997.79 330.298C997.878 330.177 997.992 330.076 998.124 330.004C998.256 329.932 998.402 329.891 998.552 329.884C998.702 329.877 998.852 329.903 998.991 329.962H999.001Z" fill="black"/>
    <path d="M1027.88 327.116C1030.18 326.212 1032.42 325.177 1034.59 324.016C1035.68 323.446 1036.77 322.816 1037.85 322.206L1041.11 320.386C1041.22 320.273 1041.35 320.187 1041.5 320.135C1041.65 320.083 1041.81 320.066 1041.96 320.086C1042.12 320.106 1042.26 320.162 1042.39 320.25C1042.52 320.338 1042.63 320.455 1042.71 320.592C1042.78 320.728 1042.83 320.881 1042.83 321.037C1042.84 321.194 1042.81 321.349 1042.74 321.492C1042.68 321.634 1042.58 321.76 1042.46 321.858C1042.34 321.956 1042.19 322.024 1042.04 322.056L1038.76 323.896C1037.66 324.506 1036.58 325.136 1035.46 325.726C1033.22 326.92 1030.92 327.988 1028.56 328.926C1028.34 328.953 1028.12 328.906 1027.93 328.792C1027.74 328.679 1027.59 328.506 1027.51 328.3C1027.43 328.095 1027.42 327.868 1027.48 327.655C1027.54 327.443 1027.67 327.257 1027.85 327.126L1027.88 327.116Z" fill="black"/>
    <path d="M1053.82 312.533C1057.97 309.786 1062.04 306.906 1066.01 303.893C1066.11 303.811 1066.22 303.749 1066.35 303.712C1066.47 303.675 1066.6 303.663 1066.73 303.678C1066.85 303.692 1066.98 303.732 1067.09 303.796C1067.2 303.859 1067.3 303.944 1067.38 304.046C1067.45 304.148 1067.51 304.265 1067.54 304.39C1067.57 304.514 1067.58 304.644 1067.56 304.771C1067.54 304.897 1067.49 305.019 1067.42 305.127C1067.36 305.236 1067.27 305.33 1067.16 305.403C1063.16 308.443 1059.06 311.346 1054.87 314.113C1054.77 314.184 1054.65 314.234 1054.53 314.259C1054.41 314.285 1054.28 314.285 1054.16 314.261C1054.03 314.237 1053.92 314.188 1053.81 314.118C1053.71 314.048 1053.62 313.958 1053.55 313.853C1053.42 313.639 1053.38 313.385 1053.43 313.141C1053.48 312.896 1053.62 312.68 1053.82 312.533V312.533Z" fill="black"/>
    <path d="M1077.56 294.439C1081.28 291.139 1084.87 287.689 1088.25 284.049C1088.42 283.867 1088.65 283.76 1088.9 283.751C1089.15 283.741 1089.39 283.831 1089.57 283.999C1089.75 284.167 1089.86 284.401 1089.87 284.649C1089.88 284.896 1089.79 285.137 1089.62 285.319C1086.19 289.009 1082.62 292.509 1078.81 295.849C1078.72 295.931 1078.61 295.994 1078.49 296.035C1078.38 296.075 1078.25 296.092 1078.13 296.085C1078 296.077 1077.88 296.045 1077.77 295.991C1077.66 295.937 1077.56 295.862 1077.48 295.769C1077.4 295.676 1077.33 295.569 1077.29 295.452C1077.25 295.335 1077.24 295.211 1077.24 295.087C1077.25 294.964 1077.28 294.843 1077.34 294.732C1077.39 294.621 1077.47 294.521 1077.56 294.439V294.439Z" fill="black"/>
    <path d="M1097.67 272.554C1100.55 268.536 1103.04 264.25 1105.1 259.754C1105.15 259.643 1105.22 259.542 1105.31 259.458C1105.39 259.374 1105.5 259.308 1105.61 259.265C1105.72 259.221 1105.85 259.2 1105.97 259.203C1106.09 259.207 1106.21 259.234 1106.32 259.284C1106.54 259.386 1106.71 259.572 1106.8 259.8C1106.88 260.028 1106.88 260.281 1106.78 260.504C1104.68 265.114 1102.14 269.508 1099.19 273.624C1099.05 273.826 1098.83 273.963 1098.59 274.006C1098.34 274.049 1098.09 273.994 1097.89 273.854C1097.79 273.783 1097.7 273.694 1097.64 273.59C1097.57 273.486 1097.53 273.371 1097.51 273.25C1097.49 273.129 1097.49 273.005 1097.52 272.886C1097.55 272.767 1097.6 272.654 1097.67 272.554V272.554Z" fill="black"/>
    <path d="M1109.22 245.657C1109.87 240.799 1109.6 235.861 1108.4 231.107C1108.37 230.991 1108.36 230.87 1108.38 230.751C1108.4 230.632 1108.44 230.518 1108.5 230.415C1108.56 230.312 1108.64 230.222 1108.74 230.15C1108.83 230.079 1108.94 230.026 1109.06 229.997C1109.18 229.967 1109.3 229.961 1109.42 229.978C1109.53 229.995 1109.65 230.036 1109.75 230.097C1109.85 230.158 1109.94 230.239 1110.02 230.335C1110.09 230.431 1110.14 230.541 1110.17 230.657C1111.42 235.633 1111.72 240.801 1111.04 245.887C1111.03 246.014 1111 246.138 1110.94 246.251C1110.89 246.365 1110.81 246.466 1110.71 246.547C1110.61 246.629 1110.5 246.689 1110.38 246.725C1110.26 246.761 1110.13 246.771 1110.01 246.755C1109.88 246.739 1109.76 246.698 1109.65 246.633C1109.54 246.568 1109.45 246.481 1109.37 246.378C1109.3 246.275 1109.25 246.157 1109.22 246.033C1109.19 245.909 1109.19 245.781 1109.22 245.657V245.657Z" fill="black"/>
    <path d="M1102.33 217.816C1099.54 213.748 1096.26 210.031 1092.58 206.746C1092.49 206.667 1092.42 206.57 1092.37 206.463C1092.32 206.355 1092.29 206.238 1092.28 206.119C1092.28 206 1092.29 205.881 1092.34 205.769C1092.38 205.657 1092.44 205.554 1092.52 205.466C1092.68 205.29 1092.91 205.184 1093.15 205.173C1093.39 205.162 1093.62 205.246 1093.8 205.406C1097.57 208.791 1100.93 212.615 1103.8 216.796C1103.89 216.894 1103.95 217.008 1103.99 217.133C1104.03 217.257 1104.04 217.388 1104.02 217.517C1104 217.646 1103.96 217.77 1103.89 217.88C1103.82 217.991 1103.73 218.085 1103.62 218.157C1103.52 218.23 1103.39 218.278 1103.26 218.299C1103.14 218.319 1103.01 218.312 1102.88 218.278C1102.75 218.244 1102.64 218.183 1102.54 218.1C1102.44 218.017 1102.36 217.913 1102.3 217.796L1102.33 217.816Z" fill="black"/>
    <path d="M1081 197.354L1069 188.274C1068.81 188.131 1068.69 187.919 1068.66 187.684C1068.62 187.45 1068.69 187.212 1068.83 187.024C1068.97 186.836 1069.19 186.712 1069.42 186.68C1069.65 186.648 1069.89 186.711 1070.08 186.854V186.854L1082.02 195.914C1082.13 195.98 1082.22 196.067 1082.29 196.17C1082.36 196.274 1082.41 196.391 1082.43 196.514C1082.46 196.637 1082.45 196.764 1082.42 196.886C1082.4 197.008 1082.34 197.122 1082.27 197.222C1082.19 197.322 1082.1 197.406 1081.99 197.466C1081.88 197.527 1081.76 197.565 1081.63 197.576C1081.51 197.588 1081.38 197.573 1081.26 197.533C1081.14 197.493 1081.03 197.429 1080.94 197.344L1081 197.354Z" fill="black"/>
    <path d="M1057.49 178.589C1053.73 175.192 1050.33 171.415 1047.35 167.319C1047.27 167.225 1047.21 167.116 1047.18 166.999C1047.15 166.881 1047.14 166.758 1047.15 166.637C1047.17 166.516 1047.21 166.4 1047.27 166.296C1047.34 166.192 1047.42 166.102 1047.52 166.032C1047.62 165.963 1047.74 165.915 1047.86 165.891C1047.98 165.868 1048.1 165.87 1048.22 165.897C1048.34 165.924 1048.45 165.975 1048.55 166.048C1048.65 166.12 1048.73 166.213 1048.79 166.319C1051.7 170.32 1055.01 174.007 1058.69 177.319C1058.85 177.487 1058.95 177.713 1058.95 177.949C1058.95 178.184 1058.85 178.41 1058.69 178.579C1058.61 178.661 1058.51 178.727 1058.4 178.771C1058.3 178.816 1058.18 178.839 1058.06 178.839C1057.95 178.839 1057.83 178.816 1057.73 178.771C1057.62 178.727 1057.52 178.661 1057.44 178.579L1057.49 178.589Z" fill="black"/>
    <path d="M1041.31 153.282L1041.15 151.352C1041.07 150.689 1041.04 150.02 1041.06 149.352C1041.12 148.006 1041.4 146.678 1041.89 145.422C1042.9 142.988 1044.43 140.801 1046.37 139.012C1046.53 138.849 1046.75 138.758 1046.98 138.758C1047.21 138.758 1047.44 138.849 1047.6 139.012C1047.76 139.177 1047.85 139.398 1047.85 139.627C1047.85 139.857 1047.76 140.078 1047.6 140.242V140.242C1045.85 141.858 1044.46 143.833 1043.54 146.032C1043.12 147.11 1042.88 148.248 1042.82 149.402C1042.81 149.994 1042.84 150.585 1042.91 151.172L1043.07 152.972V153.082C1043.09 153.201 1043.08 153.322 1043.05 153.438C1043.02 153.555 1042.97 153.663 1042.9 153.758C1042.82 153.852 1042.73 153.929 1042.62 153.985C1042.52 154.041 1042.4 154.074 1042.28 154.082C1042.16 154.095 1042.05 154.084 1041.93 154.05C1041.82 154.017 1041.72 153.961 1041.63 153.886C1041.54 153.812 1041.46 153.72 1041.41 153.616C1041.35 153.513 1041.32 153.399 1041.31 153.282Z" fill="black"/>
    <path d="M1059.11 130.712C1063.67 128.567 1068.34 126.674 1073.11 125.042C1073.32 124.989 1073.54 125.016 1073.73 125.119C1073.92 125.221 1074.06 125.391 1074.14 125.595C1074.21 125.799 1074.2 126.021 1074.11 126.219C1074.02 126.417 1073.87 126.575 1073.67 126.662C1068.97 128.276 1064.36 130.149 1059.87 132.272C1059.77 132.332 1059.65 132.371 1059.53 132.385C1059.41 132.398 1059.29 132.388 1059.18 132.353C1059.06 132.318 1058.96 132.26 1058.87 132.182C1058.78 132.105 1058.7 132.009 1058.65 131.901C1058.6 131.794 1058.57 131.677 1058.56 131.557C1058.56 131.438 1058.58 131.318 1058.62 131.207C1058.66 131.095 1058.73 130.994 1058.81 130.908C1058.9 130.823 1059 130.757 1059.11 130.712V130.712Z" fill="black"/>
    <path d="M1087.43 120.491L1101.79 116.301C1102 116.245 1102.23 116.275 1102.42 116.383C1102.61 116.492 1102.76 116.671 1102.82 116.883C1102.88 117.095 1102.86 117.323 1102.76 117.519C1102.65 117.714 1102.48 117.862 1102.27 117.931L1087.89 122.131C1087.78 122.167 1087.67 122.18 1087.55 122.17C1087.44 122.161 1087.33 122.129 1087.23 122.076C1087.13 122.023 1087.04 121.95 1086.97 121.862C1086.89 121.774 1086.84 121.673 1086.81 121.564C1086.78 121.454 1086.77 121.34 1086.78 121.227C1086.79 121.114 1086.83 121.004 1086.88 120.905C1086.94 120.806 1087.01 120.719 1087.1 120.65C1087.2 120.581 1087.3 120.53 1087.41 120.501L1087.43 120.491Z" fill="black"/>
    <path d="M1116 111.596C1120.67 109.899 1125.22 107.895 1129.63 105.596C1129.82 105.494 1130.05 105.472 1130.25 105.536C1130.46 105.6 1130.64 105.744 1130.74 105.936C1130.84 106.128 1130.86 106.353 1130.8 106.561C1130.73 106.769 1130.59 106.944 1130.4 107.046C1125.93 109.379 1121.32 111.414 1116.58 113.136C1116.47 113.182 1116.36 113.207 1116.25 113.208C1116.13 113.209 1116.02 113.187 1115.91 113.143C1115.81 113.098 1115.71 113.033 1115.63 112.951C1115.55 112.868 1115.49 112.771 1115.45 112.663C1115.41 112.556 1115.39 112.442 1115.4 112.328C1115.4 112.214 1115.43 112.102 1115.48 111.999C1115.53 111.896 1115.6 111.805 1115.69 111.73C1115.78 111.656 1115.88 111.6 1115.99 111.566L1116 111.596Z" fill="black"/>
    <path d="M1141.41 96.9566C1143.03 95.1842 1144.28 93.1117 1145.1 90.8566C1145.86 88.6059 1146.06 86.2012 1145.67 83.8566C1145.64 83.649 1145.69 83.4381 1145.82 83.2684C1145.94 83.0987 1146.12 82.9834 1146.33 82.9466C1146.54 82.915 1146.75 82.9667 1146.92 83.0904C1147.09 83.2142 1147.2 83.3998 1147.23 83.6066C1147.67 86.2114 1147.45 88.8836 1146.61 91.3866C1145.73 93.8488 1144.37 96.1123 1142.61 98.0466C1142.54 98.1254 1142.46 98.1895 1142.36 98.2355C1142.27 98.2814 1142.16 98.3081 1142.06 98.3141C1141.95 98.3202 1141.85 98.3054 1141.75 98.2706C1141.65 98.2359 1141.55 98.1818 1141.48 98.1116C1141.4 98.0413 1141.33 97.9562 1141.29 97.8612C1141.24 97.7661 1141.21 97.6629 1141.21 97.5575C1141.2 97.4521 1141.22 97.3466 1141.25 97.2469C1141.29 97.1472 1141.34 97.0554 1141.41 96.9766V96.9566Z" fill="black"/>
    <path d="M1139.19 70.8795C1136.2 66.9229 1132.82 63.2658 1129.12 59.9595C1128.98 59.8188 1128.9 59.6282 1128.9 59.4295C1128.9 59.2307 1128.98 59.0401 1129.12 58.8995C1129.19 58.8258 1129.27 58.7659 1129.36 58.723C1129.44 58.6801 1129.54 58.6552 1129.64 58.6496C1129.74 58.6441 1129.84 58.658 1129.93 58.6905C1130.02 58.7231 1130.11 58.7737 1130.18 58.8395C1133.94 62.212 1137.37 65.9356 1140.42 69.9595C1140.48 70.0402 1140.53 70.1322 1140.55 70.2302C1140.58 70.3282 1140.58 70.4303 1140.57 70.5305C1140.56 70.6308 1140.52 70.7274 1140.47 70.8147C1140.42 70.902 1140.35 70.9784 1140.27 71.0395C1140.19 71.1005 1140.1 71.1451 1140 71.1706C1139.9 71.1961 1139.8 71.2021 1139.7 71.1881C1139.6 71.1742 1139.5 71.1407 1139.42 71.0894C1139.33 71.0382 1139.25 70.9702 1139.19 70.8895V70.8795Z" fill="black"/>
    <path d="M1117.36 50.8794C1113.23 48.1085 1108.95 45.5518 1104.55 43.2194C1104.47 43.1745 1104.39 43.1125 1104.33 43.0372C1104.27 42.9619 1104.22 42.8749 1104.19 42.7815C1104.17 42.688 1104.16 42.59 1104.17 42.4934C1104.18 42.3968 1104.21 42.3036 1104.26 42.2194C1104.31 42.1321 1104.37 42.0548 1104.44 41.9923C1104.52 41.9298 1104.6 41.8834 1104.7 41.8562C1104.79 41.829 1104.89 41.8214 1104.99 41.834C1105.08 41.8467 1105.18 41.8791 1105.26 41.9295C1109.72 44.2752 1114.06 46.8486 1118.26 49.6395C1118.42 49.7482 1118.54 49.9167 1118.57 50.108C1118.61 50.2993 1118.57 50.4977 1118.46 50.6595C1118.35 50.8212 1118.18 50.9332 1117.99 50.9707C1117.8 51.0082 1117.6 50.9682 1117.44 50.8595L1117.36 50.8794Z" fill="black"/>
    <path d="M1091.1 36.7118L1077.23 31.1318C1077.06 31.0642 1076.93 30.9324 1076.86 30.7655C1076.78 30.5986 1076.78 30.4102 1076.85 30.2418C1076.92 30.0734 1077.05 29.9387 1077.22 29.8675C1077.38 29.7962 1077.57 29.7942 1077.74 29.8618L1091.74 35.4418C1091.91 35.5107 1092.05 35.6459 1092.13 35.8175C1092.2 35.9891 1092.2 36.1831 1092.14 36.3568C1092.07 36.5305 1091.93 36.6697 1091.76 36.7438C1091.59 36.8179 1091.39 36.8207 1091.22 36.7518V36.7518L1091.1 36.7118Z" fill="black"/>
    <path d="M1063.07 26.2915L1048.7 22.0815C1048.54 22.0324 1048.4 21.9195 1048.31 21.7676C1048.23 21.6157 1048.21 21.4373 1048.26 21.2715C1048.31 21.1057 1048.42 20.9663 1048.58 20.8837C1048.73 20.8012 1048.91 20.7824 1049.07 20.8315L1063.5 25.0315C1063.66 25.0927 1063.79 25.2104 1063.86 25.3612C1063.93 25.5121 1063.95 25.6851 1063.9 25.8461C1063.85 26.007 1063.74 26.1442 1063.6 26.2304C1063.46 26.3166 1063.29 26.3455 1063.12 26.3115V26.3115L1063.07 26.2915Z" fill="black"/>
    <path d="M1034.18 18.3869L1019.55 15.1369C1019.47 15.1204 1019.39 15.0879 1019.33 15.0415C1019.26 14.995 1019.2 14.9355 1019.16 14.8665C1019.11 14.7974 1019.08 14.7203 1019.07 14.6396C1019.06 14.5589 1019.06 14.4764 1019.08 14.3969C1019.12 14.2386 1019.21 14.1006 1019.35 14.0128C1019.48 13.9249 1019.65 13.894 1019.81 13.9269L1034.48 17.1469C1034.56 17.1646 1034.64 17.1982 1034.71 17.2457C1034.77 17.2933 1034.83 17.3538 1034.88 17.4239C1034.92 17.494 1034.95 17.5723 1034.97 17.6543C1034.98 17.7363 1034.98 17.8205 1034.96 17.9019C1034.95 17.9833 1034.91 18.0604 1034.87 18.1289C1034.82 18.1973 1034.76 18.2557 1034.69 18.3007C1034.62 18.3458 1034.54 18.3766 1034.46 18.3913C1034.37 18.4061 1034.29 18.4046 1034.21 18.3869V18.3869H1034.18Z" fill="black"/>
    <path d="M1004.84 12.2902L990.07 9.78018C989.925 9.74459 989.799 9.65531 989.718 9.53037C989.636 9.40543 989.604 9.25411 989.63 9.10694C989.655 8.95977 989.735 8.8277 989.854 8.73737C989.973 8.64703 990.122 8.60516 990.27 8.62018L1005.08 11.1102C1005.16 11.1223 1005.23 11.1498 1005.3 11.1913C1005.37 11.2328 1005.43 11.2873 1005.47 11.3516C1005.52 11.416 1005.55 11.4888 1005.57 11.5659C1005.58 11.6429 1005.58 11.7226 1005.57 11.8002C1005.56 11.8782 1005.53 11.9529 1005.49 12.0201C1005.45 12.0872 1005.39 12.1453 1005.33 12.191C1005.26 12.2367 1005.19 12.269 1005.11 12.286C1005.04 12.3031 1004.96 12.3045 1004.88 12.2902V12.2902H1004.84Z" fill="black"/>
    <path d="M975.241 7.57819L960.371 5.69819C960.299 5.68899 960.229 5.66567 960.166 5.62953C960.103 5.5934 960.047 5.54517 960.003 5.4876C959.958 5.43003 959.925 5.36424 959.906 5.29399C959.887 5.22374 959.882 5.15041 959.891 5.07819C959.9 5.00596 959.924 4.93625 959.96 4.87304C959.996 4.80983 960.044 4.75435 960.102 4.70978C960.159 4.66521 960.225 4.63241 960.295 4.61327C960.366 4.59412 960.439 4.58899 960.511 4.59819L975.401 6.44819C975.478 6.45393 975.553 6.47524 975.622 6.51084C975.69 6.54645 975.751 6.59559 975.8 6.6553C975.849 6.715 975.885 6.78403 975.906 6.85818C975.928 6.93234 975.934 7.01008 975.924 7.08669C975.915 7.16331 975.89 7.23719 975.851 7.30387C975.812 7.37055 975.76 7.42863 975.698 7.47459C975.636 7.52054 975.565 7.55343 975.49 7.57123C975.415 7.58904 975.337 7.59141 975.261 7.57819V7.57819H975.241Z" fill="black"/>
    <path d="M945.461 4.15062L930.531 2.96062C930.452 2.97549 930.371 2.97203 930.294 2.95051C930.217 2.92899 930.146 2.89 930.087 2.83655C930.027 2.7831 929.981 2.71665 929.951 2.64236C929.921 2.56807 929.909 2.48795 929.916 2.40822C929.922 2.32849 929.947 2.25131 929.988 2.18268C930.029 2.11404 930.085 2.05581 930.153 2.0125C930.22 1.9692 930.296 1.94199 930.376 1.93299C930.455 1.92399 930.536 1.93345 930.611 1.96062L945.611 3.16062C945.741 3.18549 945.857 3.25739 945.938 3.36263C946.019 3.46787 946.058 3.59909 946.048 3.7313C946.038 3.86351 945.98 3.98746 945.885 4.07954C945.789 4.17163 945.663 4.2254 945.531 4.23062V4.23062L945.461 4.15062Z" fill="black"/>
    <path d="M915.572 1.95938L900.572 1.29938C900.51 1.29938 900.449 1.28722 900.392 1.2636C900.335 1.23998 900.283 1.20536 900.239 1.16172C900.196 1.11807 900.161 1.06626 900.137 1.00924C900.114 0.952213 900.102 0.891096 900.102 0.829375C900.102 0.767654 900.114 0.706537 900.137 0.649514C900.161 0.592491 900.196 0.540678 900.239 0.497035C900.283 0.453391 900.335 0.418771 900.392 0.395152C900.449 0.371532 900.51 0.359375 900.572 0.359375L915.572 0.959375C915.702 0.969471 915.825 1.02868 915.914 1.12513C916.003 1.22158 916.052 1.34812 916.052 1.47938C916.046 1.61289 915.989 1.73902 915.892 1.83065C915.794 1.92229 915.665 1.9721 915.532 1.96938V1.96938L915.572 1.95938Z" fill="black"/>
    <path d="M885.601 0.960122L870.601 0.820122C870.493 0.820122 870.388 0.776926 870.311 0.700036C870.235 0.623146 870.191 0.518861 870.191 0.410122C870.191 0.355428 870.202 0.301284 870.224 0.250877C870.245 0.20047 870.276 0.15482 870.315 0.116615C870.354 0.0784089 870.401 0.04842 870.451 0.0284137C870.502 0.00840735 870.557 -0.00121202 870.611 0.000121978L885.611 0.070122C885.718 0.0861406 885.815 0.139864 885.886 0.221526C885.956 0.303188 885.995 0.407366 885.995 0.515122C885.995 0.622878 885.956 0.727056 885.886 0.808718C885.815 0.89038 885.718 0.944103 885.611 0.960122V0.960122H885.601Z" fill="black"/>
    <path d="M855.61 0.893353L840.61 1.23335C840.564 1.23608 840.517 1.22931 840.474 1.21345C840.43 1.19759 840.39 1.17297 840.357 1.14113C840.323 1.10928 840.296 1.07087 840.278 1.02826C840.259 0.985646 840.25 0.939737 840.25 0.893353C840.249 0.847386 840.257 0.801607 840.273 0.758632C840.289 0.715657 840.314 0.676329 840.346 0.642896C840.377 0.609464 840.415 0.582581 840.457 0.563785C840.499 0.544989 840.544 0.534648 840.59 0.533353L855.59 0.133353C855.64 0.130633 855.691 0.138191 855.738 0.155563C855.785 0.172936 855.828 0.199758 855.865 0.234391C855.901 0.269023 855.93 0.310738 855.95 0.356984C855.97 0.40323 855.98 0.453035 855.98 0.503354C855.983 0.553599 855.975 0.603871 855.958 0.651096C855.941 0.698321 855.914 0.741506 855.879 0.77801C855.844 0.814515 855.803 0.843572 855.756 0.863404C855.71 0.883236 855.66 0.893427 855.61 0.893353V0.893353V0.893353Z" fill="black"/>
    <path d="M825.638 1.7891L810.638 2.5491C810.6 2.55182 810.562 2.54698 810.526 2.53487C810.489 2.52276 810.456 2.50361 810.427 2.47852C810.398 2.45343 810.375 2.4229 810.358 2.38868C810.341 2.35445 810.331 2.31722 810.328 2.2791C810.326 2.20117 810.353 2.12523 810.405 2.06736C810.458 2.00949 810.53 1.97425 810.608 1.9691L825.608 1.1491C825.65 1.14639 825.693 1.15201 825.732 1.16563C825.772 1.17926 825.809 1.20062 825.841 1.22849C825.872 1.25636 825.898 1.2902 825.916 1.32806C825.935 1.36591 825.946 1.40705 825.948 1.4491C825.951 1.49195 825.945 1.5349 825.931 1.5754C825.917 1.6159 825.894 1.65311 825.865 1.68484C825.836 1.71656 825.801 1.74214 825.762 1.76005C825.723 1.77797 825.681 1.78784 825.638 1.7891V1.7891Z" fill="black"/>
    <path d="M795.7 3.49839L780.7 4.61839C780.67 4.6226 780.639 4.62038 780.609 4.61186C780.58 4.60333 780.552 4.58871 780.529 4.56892C780.505 4.54912 780.486 4.52461 780.472 4.49696C780.459 4.46931 780.451 4.43913 780.45 4.40839C780.447 4.37816 780.451 4.34769 780.46 4.31873C780.469 4.28977 780.484 4.2629 780.503 4.23966C780.523 4.21642 780.547 4.19727 780.574 4.18333C780.6 4.16938 780.63 4.1609 780.66 4.15839L795.66 2.97839C795.695 2.9742 795.73 2.97723 795.763 2.98728C795.796 2.99733 795.827 3.01418 795.853 3.03675C795.879 3.05932 795.901 3.08713 795.916 3.1184C795.931 3.14967 795.939 3.18372 795.94 3.21839C795.943 3.28679 795.92 3.35376 795.875 3.40574C795.831 3.45773 795.768 3.49084 795.7 3.49839V3.49839Z" fill="black"/>
    <path d="M765.8 5.95781L750.87 7.34781C750.848 7.35214 750.824 7.35156 750.802 7.34612C750.78 7.34068 750.759 7.33049 750.741 7.31626C750.723 7.30203 750.708 7.28409 750.698 7.26365C750.687 7.24321 750.681 7.22076 750.68 7.19781C750.677 7.15316 750.691 7.10896 750.718 7.07383C750.746 7.0387 750.786 7.01516 750.83 7.00781L765.76 5.50781C765.813 5.50781 765.864 5.52888 765.902 5.56639C765.939 5.6039 765.96 5.65477 765.96 5.70781C765.96 5.76086 765.939 5.81173 765.902 5.84923C765.864 5.88674 765.813 5.90781 765.76 5.90781L765.8 5.95781Z" fill="black"/>
    <path d="M736.001 8.95978L721.101 10.6698C721.077 10.6624 721.055 10.6472 721.039 10.6265C721.024 10.6058 721.016 10.5806 721.016 10.5548C721.016 10.5289 721.024 10.5038 721.039 10.4831C721.055 10.4623 721.077 10.4472 721.101 10.4398L735.991 8.67978C736.028 8.67845 736.065 8.69193 736.092 8.71725C736.119 8.74256 736.135 8.77765 736.136 8.81478C736.138 8.85191 736.124 8.88804 736.099 8.91524C736.074 8.94243 736.038 8.95845 736.001 8.95978V8.95978Z" fill="black"/>
    <path d="M706.158 12.4464L691.288 14.3664C691.275 14.3664 691.262 14.3612 691.253 14.3518C691.244 14.3424 691.238 14.3297 691.238 14.3164C691.238 14.3032 691.244 14.2905 691.253 14.2811C691.262 14.2717 691.275 14.2664 691.288 14.2664L706.158 12.2664C706.181 12.2634 706.203 12.2689 706.222 12.2819C706.241 12.2949 706.253 12.3143 706.258 12.3364C706.26 12.3478 706.259 12.3592 706.255 12.3701C706.252 12.381 706.246 12.3911 706.239 12.3996C706.231 12.4081 706.222 12.4149 706.211 12.4195C706.201 12.4242 706.19 12.4265 706.178 12.4264L706.158 12.4464Z" fill="black"/>
    <path d="M676.42 16.3803L665 17.9603L676.44 16.3203L676.42 16.3803Z" fill="black"/>
    <path fill-rule="evenodd" clip-rule="evenodd" d="M1096.7 157.008C1170.79 149.269 1230 131.112 1228.94 116.453C1227.88 101.794 1166.95 96.1849 1092.86 103.924C1077.34 105.545 1062.47 107.623 1048.68 110.03L960.726 145.228C963.779 159.327 1023.88 164.614 1096.7 157.008Z" fill="black"/>
    <path d="M960.618 144.479C960.637 144.732 960.673 144.981 960.726 145.228L1048.68 110.03C996.607 119.116 959.78 132.891 960.618 144.479Z" fill="#F1EFED"/>
    <path d="M960.726 145.228C963.779 159.327 1023.88 164.614 1096.7 157.008C1170.79 149.269 1230 131.112 1228.94 116.453C1227.88 101.794 1166.95 96.1849 1092.86 103.924C1077.34 105.545 1062.47 107.623 1048.68 110.03M960.726 145.228C960.673 144.981 960.637 144.732 960.618 144.479C959.78 132.891 996.607 119.116 1048.68 110.03M960.726 145.228L1048.68 110.03" stroke="black" stroke-width="2"/>
    <ellipse cx="143.511" cy="35.6785" rx="143.511" ry="35.6785" transform="matrix(0.999475 0.0323875 -0.167555 0.985863 950.996 67.4609)" fill="#F1EFED" stroke="black" stroke-width="2" stroke-linejoin="round"/>
    <path d="M984.793 105.701C985.376 106.024 985.813 106.433 986.104 106.931C986.395 107.416 986.536 107.97 986.525 108.594C986.513 109.278 986.34 109.887 986.006 110.421C985.685 110.944 985.216 111.356 984.598 111.657C983.981 111.958 983.246 112.101 982.394 112.086L976.743 111.986L976.966 99.3881L982.599 99.4875C983.415 99.5019 984.114 99.6643 984.696 99.9746C985.279 100.285 985.716 100.701 986.007 101.222C986.309 101.743 986.455 102.328 986.444 102.976C986.433 103.576 986.292 104.107 986.02 104.571C985.747 105.034 985.339 105.411 984.793 105.701ZM982.412 104.993C983.131 105.006 983.674 104.847 984.04 104.518C984.418 104.176 984.613 103.682 984.624 103.034C984.646 101.798 983.931 101.167 982.479 101.142L978.736 101.076L978.668 104.927L982.412 104.993ZM982.334 110.429C983.077 110.442 983.644 110.284 984.034 109.954C984.424 109.625 984.625 109.137 984.636 108.489C984.647 107.865 984.463 107.394 984.085 107.075C983.707 106.744 983.146 106.572 982.402 106.559L978.64 106.493L978.572 110.362L982.334 110.429ZM993.567 103.102C994.491 103.118 995.291 103.33 995.968 103.738C996.657 104.146 997.181 104.72 997.54 105.458C997.899 106.185 998.07 107.034 998.053 108.006C998.049 108.258 998.04 108.443 998.025 108.563L990.647 108.433C990.754 109.131 991.068 109.713 991.588 110.178C992.12 110.631 992.74 110.864 993.448 110.877C994.612 110.897 995.447 110.486 995.954 109.643L997.718 109.674C997.415 110.509 996.869 111.189 996.079 111.715C995.29 112.229 994.404 112.478 993.42 112.46C992.544 112.445 991.756 112.233 991.055 111.825C990.354 111.404 989.812 110.837 989.429 110.122C989.045 109.395 988.862 108.587 988.877 107.7C988.893 106.812 989.105 106.017 989.513 105.316C989.922 104.604 990.478 104.055 991.181 103.672C991.896 103.276 992.691 103.086 993.567 103.102ZM993.504 104.613C992.797 104.6 992.181 104.811 991.657 105.246C991.145 105.681 990.823 106.246 990.691 106.939L996.216 107.037C996.157 106.316 995.873 105.735 995.365 105.294C994.868 104.853 994.248 104.626 993.504 104.613ZM1003.24 105.073L1003.16 109.824C1003.15 110.208 1003.24 110.503 1003.43 110.711C1003.63 110.918 1003.97 111.027 1004.47 111.035C1004.92 111.043 1005.32 111.014 1005.66 110.948L1005.63 112.514C1005.28 112.616 1004.86 112.662 1004.38 112.654C1003.4 112.637 1002.66 112.39 1002.16 111.913C1001.67 111.424 1001.43 110.718 1001.45 109.794L1001.53 105.042L999.73 105.011L999.758 103.391L1001.56 103.423L1001.6 101.083L1003.31 101.113L1003.27 103.453L1007.77 103.532L1007.74 105.152L1003.24 105.073ZM1010.66 105.204L1010.58 109.955C1010.57 110.339 1010.65 110.634 1010.83 110.841C1011.02 111.049 1011.34 111.157 1011.8 111.165C1012.23 111.172 1012.6 111.143 1012.9 111.076L1012.87 112.642C1012.54 112.744 1012.15 112.791 1011.68 112.783C1009.77 112.749 1008.83 111.796 1008.87 109.925L1008.95 105.173L1007.15 105.142L1007.18 103.522L1008.98 103.554L1009.02 101.214L1010.73 101.244L1010.69 103.584L1013.21 103.628L1013.18 105.248L1010.66 105.204ZM1019.71 103.563C1020.64 103.579 1021.44 103.792 1022.11 104.2C1022.8 104.608 1023.33 105.181 1023.69 105.92C1024.04 106.646 1024.22 107.495 1024.2 108.467C1024.19 108.719 1024.18 108.905 1024.17 109.025L1016.79 108.894C1016.9 109.592 1017.21 110.174 1017.73 110.639C1018.27 111.093 1018.89 111.326 1019.59 111.338C1020.76 111.359 1021.59 110.947 1022.1 110.104L1023.86 110.135C1023.56 110.97 1023.01 111.651 1022.22 112.177C1021.44 112.691 1020.55 112.939 1019.57 112.922C1018.69 112.906 1017.9 112.695 1017.2 112.286C1016.5 111.866 1015.96 111.298 1015.57 110.583C1015.19 109.856 1015.01 109.049 1015.02 108.161C1015.04 107.273 1015.25 106.479 1015.66 105.778C1016.07 105.065 1016.62 104.517 1017.33 104.133C1018.04 103.738 1018.84 103.548 1019.71 103.563ZM1019.65 105.074C1018.94 105.062 1018.33 105.273 1017.8 105.708C1017.29 106.143 1016.97 106.707 1016.84 107.401L1022.36 107.498C1022.3 106.777 1022.02 106.196 1021.51 105.755C1021.01 105.314 1020.39 105.087 1019.65 105.074ZM1031.84 103.777C1032.13 103.782 1032.4 103.805 1032.65 103.846L1032.62 105.519C1032.41 105.467 1032.07 105.437 1031.6 105.429C1031.07 105.42 1030.6 105.532 1030.19 105.764C1029.79 105.997 1029.47 106.316 1029.24 106.72C1029.01 107.112 1028.9 107.548 1028.89 108.028L1028.8 112.905L1027.09 112.875L1027.25 103.876L1028.87 103.905L1028.85 105.291C1029.19 104.817 1029.62 104.446 1030.14 104.179C1030.68 103.901 1031.24 103.767 1031.84 103.777ZM1040.41 108.609C1040.43 107.745 1040.65 106.963 1041.08 106.263C1041.52 105.55 1042.1 104.996 1042.84 104.601C1043.58 104.194 1044.39 103.999 1045.28 104.014C1046.28 104.032 1047.17 104.342 1047.95 104.944C1048.74 105.534 1049.26 106.299 1049.49 107.239L1047.62 107.206C1047.42 106.723 1047.1 106.339 1046.65 106.055C1046.21 105.759 1045.72 105.606 1045.16 105.597C1044.6 105.587 1044.09 105.716 1043.64 105.984C1043.2 106.24 1042.84 106.606 1042.58 107.081C1042.32 107.545 1042.19 108.064 1042.18 108.64C1042.17 109.216 1042.28 109.746 1042.53 110.231C1042.77 110.703 1043.11 111.081 1043.55 111.365C1043.99 111.637 1044.49 111.778 1045.05 111.788C1045.61 111.797 1046.11 111.668 1046.56 111.4C1047.02 111.12 1047.35 110.742 1047.57 110.266L1049.44 110.299C1049.17 111.23 1048.63 111.983 1047.81 112.556C1047.01 113.118 1046.11 113.391 1045.12 113.373C1044.23 113.357 1043.42 113.139 1042.7 112.718C1041.97 112.285 1041.41 111.711 1041 110.996C1040.59 110.269 1040.4 109.473 1040.41 108.609ZM1060.44 104.462L1060.29 113.461L1058.67 113.432L1058.69 111.992C1058.35 112.478 1057.91 112.867 1057.37 113.157C1056.85 113.436 1056.29 113.57 1055.69 113.56C1054.96 113.547 1054.3 113.379 1053.72 113.057C1053.15 112.735 1052.7 112.259 1052.36 111.629C1052.04 110.987 1051.88 110.21 1051.9 109.298L1051.99 104.313L1053.7 104.343L1053.61 109.292C1053.59 110.084 1053.82 110.718 1054.28 111.194C1054.74 111.67 1055.32 111.915 1056.03 111.927C1056.54 111.936 1057 111.824 1057.38 111.591C1057.78 111.346 1058.09 111.016 1058.3 110.599C1058.53 110.183 1058.64 109.729 1058.65 109.237L1058.74 104.432L1060.44 104.462ZM1067.23 113.763C1066.1 113.743 1065.15 113.463 1064.38 112.921C1063.63 112.367 1063.2 111.616 1063.09 110.666L1064.8 110.696C1064.95 111.215 1065.23 111.604 1065.65 111.863C1066.07 112.111 1066.63 112.241 1067.33 112.253C1067.98 112.264 1068.5 112.171 1068.9 111.974C1069.3 111.766 1069.5 111.493 1069.51 111.157C1069.52 110.821 1069.38 110.555 1069.11 110.358C1068.85 110.149 1068.35 109.979 1067.63 109.846L1066.6 109.648C1064.45 109.225 1063.39 108.337 1063.41 106.981C1063.42 106.189 1063.78 105.559 1064.49 105.091C1065.19 104.612 1066.11 104.382 1067.24 104.402C1068.25 104.42 1069.12 104.675 1069.83 105.168C1070.54 105.648 1070.99 106.31 1071.17 107.154L1069.35 107.122C1069.21 106.759 1068.94 106.478 1068.53 106.279C1068.13 106.068 1067.68 105.958 1067.19 105.949C1066.57 105.938 1066.07 106.026 1065.69 106.211C1065.33 106.385 1065.14 106.633 1065.14 106.957C1065.13 107.245 1065.27 107.488 1065.54 107.684C1065.81 107.869 1066.25 108.015 1066.86 108.122L1067.9 108.32C1069.12 108.546 1069.98 108.897 1070.48 109.374C1070.97 109.839 1071.22 110.443 1071.2 111.187C1071.19 111.979 1070.82 112.614 1070.11 113.094C1069.4 113.562 1068.44 113.785 1067.23 113.763ZM1076.42 106.364L1076.33 111.115C1076.33 111.499 1076.41 111.795 1076.59 112.002C1076.78 112.209 1077.1 112.317 1077.55 112.325C1077.99 112.333 1078.35 112.303 1078.65 112.237L1078.63 113.802C1078.3 113.905 1077.9 113.952 1077.43 113.943C1075.53 113.91 1074.59 112.957 1074.62 111.085L1074.71 106.334L1072.91 106.302L1072.94 104.683L1074.74 104.714L1074.78 102.375L1076.49 102.405L1076.44 104.744L1078.96 104.789L1078.94 106.409L1076.42 106.364ZM1085.48 114.085C1084.6 114.07 1083.79 113.852 1083.06 113.431C1082.34 112.998 1081.77 112.424 1081.37 111.708C1080.96 110.981 1080.76 110.186 1080.78 109.322C1080.79 108.458 1081.02 107.676 1081.45 106.975C1081.88 106.263 1082.47 105.709 1083.21 105.314C1083.95 104.907 1084.76 104.711 1085.65 104.727C1086.52 104.742 1087.32 104.966 1088.03 105.399C1088.76 105.82 1089.32 106.394 1089.73 107.121C1090.14 107.837 1090.33 108.626 1090.32 109.49C1090.3 110.354 1090.08 111.142 1089.65 111.855C1089.21 112.555 1088.63 113.109 1087.89 113.516C1087.16 113.911 1086.36 114.101 1085.48 114.085ZM1085.51 112.502C1086.06 112.511 1086.57 112.388 1087.03 112.132C1087.49 111.865 1087.86 111.499 1088.13 111.036C1088.4 110.56 1088.54 110.035 1088.55 109.459C1088.56 108.883 1088.44 108.359 1088.19 107.886C1087.93 107.402 1087.58 107.023 1087.13 106.751C1086.67 106.467 1086.17 106.32 1085.62 106.311C1085.06 106.301 1084.54 106.43 1084.07 106.697C1083.61 106.953 1083.24 107.319 1082.97 107.794C1082.69 108.257 1082.55 108.777 1082.54 109.353C1082.53 109.929 1082.66 110.459 1082.91 110.944C1083.17 111.416 1083.52 111.794 1083.97 112.078C1084.43 112.351 1084.95 112.492 1085.51 112.502ZM1104.43 105.058C1105.15 105.071 1105.79 105.238 1106.35 105.56C1106.92 105.882 1107.36 106.364 1107.67 107.006C1108 107.636 1108.15 108.407 1108.14 109.318L1108.05 114.304L1106.34 114.274L1106.43 109.324C1106.44 108.532 1106.22 107.898 1105.78 107.423C1105.34 106.947 1104.78 106.703 1104.1 106.691C1103.35 106.678 1102.75 106.931 1102.28 107.451C1101.82 107.971 1101.58 108.615 1101.56 109.382L1101.48 114.188L1099.77 114.158L1099.86 109.208C1099.87 108.416 1099.65 107.783 1099.21 107.307C1098.77 106.831 1098.21 106.587 1097.53 106.575C1096.78 106.562 1096.18 106.815 1095.71 107.335C1095.25 107.855 1095.01 108.499 1095 109.267L1094.91 114.072L1093.2 114.042L1093.36 105.043L1094.98 105.072L1094.95 106.493C1095.29 106.007 1095.71 105.625 1096.22 105.345C1096.74 105.067 1097.29 104.932 1097.86 104.942C1098.57 104.955 1099.2 105.122 1099.76 105.444C1100.33 105.754 1100.77 106.212 1101.07 106.817C1101.43 106.272 1101.9 105.842 1102.5 105.528C1103.1 105.203 1103.75 105.046 1104.43 105.058ZM1115.6 105.256C1116.52 105.272 1117.32 105.484 1118 105.892C1118.69 106.3 1119.21 106.874 1119.57 107.612C1119.93 108.338 1120.1 109.188 1120.09 110.159C1120.08 110.411 1120.07 110.597 1120.06 110.717L1112.68 110.587C1112.79 111.285 1113.1 111.866 1113.62 112.332C1114.15 112.785 1114.77 113.018 1115.48 113.031C1116.64 113.051 1117.48 112.64 1117.99 111.797L1119.75 111.828C1119.45 112.663 1118.9 113.343 1118.11 113.869C1117.32 114.383 1116.44 114.632 1115.45 114.614C1114.58 114.599 1113.79 114.387 1113.09 113.979C1112.39 113.558 1111.84 112.99 1111.46 112.276C1111.08 111.549 1110.89 110.741 1110.91 109.854C1110.93 108.966 1111.14 108.171 1111.55 107.47C1111.95 106.757 1112.51 106.209 1113.21 105.826C1113.93 105.43 1114.72 105.24 1115.6 105.256ZM1115.54 106.767C1114.83 106.754 1114.21 106.965 1113.69 107.4C1113.18 107.835 1112.86 108.4 1112.72 109.093L1118.25 109.191C1118.19 108.47 1117.91 107.889 1117.4 107.448C1116.9 107.007 1116.28 106.78 1115.54 106.767ZM1127.73 105.47C1128.02 105.475 1128.29 105.498 1128.54 105.538L1128.51 107.212C1128.3 107.16 1127.95 107.13 1127.49 107.122C1126.96 107.112 1126.49 107.224 1126.08 107.457C1125.68 107.69 1125.36 108.008 1125.12 108.412C1124.9 108.804 1124.78 109.24 1124.78 109.72L1124.69 114.597L1122.98 114.567L1123.14 105.569L1124.76 105.597L1124.73 106.983C1125.08 106.509 1125.51 106.139 1126.03 105.872C1126.57 105.593 1127.13 105.459 1127.73 105.47ZM1140.19 115.051C1139.07 115.031 1138.12 114.75 1137.35 114.209C1136.59 113.655 1136.16 112.904 1136.05 111.954L1137.76 111.984C1137.91 112.502 1138.19 112.891 1138.61 113.151C1139.04 113.398 1139.6 113.528 1140.29 113.541C1140.94 113.552 1141.46 113.459 1141.86 113.262C1142.26 113.053 1142.47 112.781 1142.47 112.445C1142.48 112.109 1142.35 111.843 1142.07 111.646C1141.81 111.437 1141.32 111.266 1140.59 111.133L1139.56 110.935C1137.41 110.513 1136.35 109.624 1136.37 108.269C1136.39 107.477 1136.74 106.847 1137.45 106.379C1138.15 105.9 1139.07 105.67 1140.2 105.69C1141.22 105.708 1142.08 105.963 1142.79 106.456C1143.51 106.936 1143.95 107.598 1144.13 108.442L1142.31 108.409C1142.17 108.047 1141.9 107.766 1141.5 107.567C1141.09 107.356 1140.64 107.246 1140.15 107.237C1139.53 107.226 1139.03 107.313 1138.65 107.499C1138.29 107.672 1138.11 107.921 1138.1 108.245C1138.1 108.533 1138.23 108.775 1138.5 108.972C1138.77 109.157 1139.22 109.303 1139.83 109.41L1140.87 109.608C1142.09 109.834 1142.94 110.185 1143.44 110.662C1143.94 111.127 1144.18 111.731 1144.16 112.475C1144.15 113.267 1143.79 113.902 1143.07 114.382C1142.36 114.849 1141.41 115.073 1140.19 115.051ZM1151.13 105.883C1152.06 105.899 1152.86 106.111 1153.54 106.519C1154.22 106.927 1154.75 107.501 1155.11 108.239C1155.47 108.966 1155.64 109.815 1155.62 110.787C1155.62 111.039 1155.61 111.225 1155.59 111.344L1148.21 111.214C1148.32 111.912 1148.63 112.494 1149.15 112.959C1149.69 113.412 1150.31 113.645 1151.01 113.658C1152.18 113.678 1153.01 113.267 1153.52 112.424L1155.28 112.455C1154.98 113.29 1154.44 113.97 1153.65 114.496C1152.86 115.011 1151.97 115.259 1150.99 115.242C1150.11 115.226 1149.32 115.014 1148.62 114.606C1147.92 114.185 1147.38 113.618 1147 112.903C1146.61 112.176 1146.43 111.369 1146.44 110.481C1146.46 109.593 1146.67 108.798 1147.08 108.098C1147.49 107.385 1148.04 106.836 1148.75 106.453C1149.46 106.057 1150.26 105.867 1151.13 105.883ZM1151.07 107.394C1150.36 107.381 1149.75 107.593 1149.22 108.027C1148.71 108.462 1148.39 109.027 1148.26 109.721L1153.78 109.818C1153.72 109.097 1153.44 108.516 1152.93 108.075C1152.44 107.634 1151.82 107.407 1151.07 107.394ZM1163.27 106.097C1163.55 106.102 1163.82 106.125 1164.07 106.165L1164.04 107.839C1163.83 107.787 1163.49 107.757 1163.02 107.749C1162.49 107.739 1162.02 107.851 1161.61 108.084C1161.21 108.317 1160.89 108.635 1160.66 109.039C1160.43 109.431 1160.32 109.867 1160.31 110.347L1160.22 115.225L1158.51 115.194L1158.67 106.196L1160.29 106.224L1160.27 107.61C1160.61 107.136 1161.05 106.766 1161.57 106.499C1162.1 106.22 1162.67 106.086 1163.27 106.097ZM1175.49 106.493L1171.46 115.423L1169.23 115.384L1165.52 106.317L1167.43 106.35L1170.41 113.712L1173.64 106.46L1175.49 106.493ZM1179.72 106.567L1179.56 115.566L1177.85 115.536L1178.01 106.537L1179.72 106.567ZM1179.89 102.97L1179.86 104.95L1177.95 104.916L1177.99 102.936L1179.89 102.97ZM1182.61 111.119C1182.63 110.255 1182.85 109.473 1183.28 108.773C1183.71 108.06 1184.3 107.506 1185.04 107.111C1185.78 106.704 1186.59 106.509 1187.48 106.524C1188.48 106.542 1189.37 106.852 1190.15 107.453C1190.94 108.044 1191.45 108.809 1191.69 109.749L1189.82 109.716C1189.62 109.233 1189.3 108.849 1188.85 108.565C1188.41 108.269 1187.91 108.116 1187.36 108.106C1186.8 108.096 1186.29 108.226 1185.84 108.494C1185.39 108.75 1185.04 109.116 1184.78 109.591C1184.52 110.055 1184.38 110.574 1184.37 111.15C1184.36 111.726 1184.48 112.256 1184.72 112.741C1184.97 113.213 1185.31 113.591 1185.75 113.875C1186.19 114.147 1186.69 114.288 1187.25 114.297C1187.81 114.307 1188.31 114.178 1188.75 113.91C1189.22 113.63 1189.55 113.252 1189.76 112.776L1191.64 112.809C1191.37 113.74 1190.83 114.493 1190.01 115.066C1189.21 115.628 1188.31 115.9 1187.32 115.883C1186.43 115.867 1185.62 115.649 1184.9 115.228C1184.17 114.795 1183.61 114.221 1183.2 113.506C1182.79 112.779 1182.6 111.983 1182.61 111.119ZM1198.43 106.718C1199.35 106.734 1200.15 106.946 1200.83 107.354C1201.52 107.762 1202.04 108.336 1202.4 109.074C1202.76 109.8 1202.93 110.65 1202.92 111.621C1202.91 111.873 1202.9 112.059 1202.89 112.179L1195.51 112.049C1195.62 112.747 1195.93 113.328 1196.45 113.794C1196.98 114.247 1197.6 114.48 1198.31 114.493C1199.47 114.513 1200.31 114.102 1200.82 113.259L1202.58 113.29C1202.28 114.125 1201.73 114.805 1200.94 115.331C1200.15 115.845 1199.27 116.094 1198.28 116.076C1197.41 116.061 1196.62 115.849 1195.92 115.441C1195.22 115.02 1194.67 114.452 1194.29 113.738C1193.91 113.011 1193.72 112.203 1193.74 111.315C1193.76 110.428 1193.97 109.633 1194.38 108.932C1194.78 108.219 1195.34 107.671 1196.04 107.288C1196.76 106.892 1197.55 106.702 1198.43 106.718ZM1198.37 108.229C1197.66 108.216 1197.04 108.427 1196.52 108.862C1196.01 109.297 1195.69 109.862 1195.55 110.555L1201.08 110.653C1201.02 109.932 1200.74 109.351 1200.23 108.91C1199.73 108.469 1199.11 108.242 1198.37 108.229Z" fill="black"/>
    <path fill-rule="evenodd" clip-rule="evenodd" d="M192.773 364.834C194.893 386.441 273.258 401.839 367.806 399.226C415.77 397.901 458.684 392.195 489.052 384.073C518.547 376.185 536.206 366.018 535.162 355.372L459.166 325.357C454.06 324.689 448.763 324.086 443.292 323.553C418.477 321.134 390.116 320.151 360.128 320.98C265.58 323.593 190.652 343.227 192.773 364.834Z" fill="black"/>
    <path d="M459.166 325.357C503.921 331.218 533.862 342.129 535.162 355.372L459.166 325.357Z" fill="#F1EFED"/>
    <path d="M535.162 355.372C536.206 366.018 518.547 376.185 489.052 384.073C458.684 392.195 415.77 397.901 367.806 399.226C273.258 401.839 194.893 386.441 192.773 364.834C190.652 343.227 265.58 323.593 360.128 320.98C390.116 320.151 418.477 321.134 443.292 323.553C448.763 324.086 454.06 324.689 459.166 325.357M535.162 355.372C533.862 342.129 503.921 331.218 459.166 325.357M535.162 355.372L459.166 325.357" stroke="black" stroke-width="2"/>
    <ellipse cx="161.008" cy="44.0195" rx="161.008" ry="44.0195" transform="matrix(0.983707 -0.179779 0.544345 0.838861 170 333.852)" fill="#F1EFED" stroke="black" stroke-width="2" stroke-linejoin="round"/>
    <path d="M238.629 361.212L236.301 361.582L237.12 366.737L235.342 367.02L233.364 354.576L238.804 353.711C239.634 353.58 240.37 353.627 241.014 353.852C241.667 354.064 242.192 354.425 242.589 354.933C242.995 355.427 243.254 356.024 243.365 356.723C243.514 357.659 243.363 358.503 242.911 359.255C242.458 359.996 241.739 360.517 240.754 360.82L245.724 365.37L243.484 365.726L238.629 361.212ZM236.044 359.964L239.599 359.399C240.31 359.286 240.828 359.028 241.152 358.624C241.487 358.206 241.602 357.671 241.499 357.019C241.395 356.368 241.121 355.901 240.675 355.619C240.239 355.324 239.666 355.233 238.955 355.346L235.399 355.911L236.044 359.964ZM250.342 355.341C251.254 355.196 252.08 355.265 252.817 355.549C253.567 355.83 254.183 356.304 254.665 356.968C255.145 357.621 255.462 358.427 255.614 359.387C255.654 359.636 255.677 359.821 255.684 359.941L248.396 361.099C248.623 361.768 249.034 362.286 249.627 362.653C250.23 363.007 250.881 363.129 251.58 363.017C252.73 362.835 253.481 362.284 253.833 361.365L255.575 361.088C255.422 361.963 255.003 362.728 254.318 363.384C253.63 364.028 252.801 364.427 251.829 364.582C250.964 364.719 250.15 364.648 249.389 364.368C248.626 364.076 247.993 363.612 247.491 362.975C246.987 362.326 246.665 361.563 246.526 360.686C246.386 359.809 246.457 358.99 246.736 358.228C247.015 357.455 247.466 356.818 248.091 356.318C248.727 355.804 249.477 355.478 250.342 355.341ZM250.544 356.84C249.844 356.951 249.275 357.266 248.835 357.785C248.407 358.303 248.188 358.915 248.179 359.621L253.636 358.754C253.452 358.054 253.072 357.531 252.494 357.186C251.929 356.838 251.278 356.723 250.544 356.84ZM265.416 349.391L267.408 361.923L265.719 362.192L265.507 360.858C265.215 361.391 264.83 361.835 264.352 362.19C263.872 362.534 263.336 362.753 262.743 362.847C261.961 362.971 261.219 362.889 260.517 362.599C259.813 362.298 259.221 361.827 258.743 361.186C258.264 360.546 257.955 359.781 257.813 358.892C257.672 358.003 257.729 357.18 257.986 356.422C258.242 355.665 258.659 355.039 259.237 354.547C259.813 354.042 260.492 353.727 261.274 353.603C261.89 353.505 262.488 353.556 263.066 353.756C263.645 353.955 264.164 354.28 264.624 354.729L263.816 349.645L265.416 349.391ZM262.779 361.237C263.3 361.155 263.754 360.949 264.139 360.62C264.524 360.292 264.799 359.878 264.962 359.378C265.124 358.866 265.158 358.32 265.066 357.739C264.974 357.158 264.773 356.656 264.462 356.231C264.15 355.795 263.759 355.48 263.291 355.287C262.823 355.094 262.328 355.039 261.807 355.122C261.286 355.205 260.838 355.41 260.465 355.737C260.091 356.063 259.824 356.482 259.662 356.994C259.499 357.494 259.463 358.034 259.555 358.615C259.648 359.196 259.85 359.704 260.162 360.141C260.473 360.565 260.856 360.875 261.312 361.07C261.769 361.264 262.258 361.32 262.779 361.237ZM277.91 351.141L279.323 360.03L277.723 360.284L277.497 358.862C277.242 359.4 276.878 359.859 276.403 360.238C275.939 360.604 275.41 360.834 274.818 360.928C274.095 361.043 273.419 360.992 272.789 360.776C272.171 360.559 271.641 360.169 271.2 359.607C270.768 359.032 270.481 358.294 270.337 357.393L269.555 352.469L271.244 352.201L272.021 357.089C272.145 357.872 272.475 358.457 273.011 358.846C273.546 359.234 274.164 359.373 274.863 359.262C275.373 359.181 275.798 358.992 276.14 358.695C276.491 358.384 276.735 358.005 276.87 357.558C277.018 357.109 277.053 356.642 276.976 356.156L276.221 351.41L277.91 351.141ZM281.552 355.119C281.416 354.266 281.5 353.456 281.804 352.691C282.105 351.914 282.586 351.267 283.245 350.749C283.902 350.219 284.669 349.885 285.546 349.745C286.529 349.589 287.458 349.739 288.333 350.195C289.217 350.638 289.857 351.302 290.253 352.187L288.404 352.48C288.128 352.038 287.742 351.717 287.249 351.516C286.765 351.301 286.251 351.237 285.705 351.324C285.148 351.412 284.672 351.628 284.277 351.97C283.88 352.3 283.595 352.722 283.421 353.236C283.246 353.738 283.203 354.273 283.294 354.842C283.384 355.411 283.591 355.912 283.916 356.347C284.238 356.77 284.64 357.082 285.122 357.285C285.602 357.476 286.12 357.528 286.677 357.439C287.222 357.352 287.693 357.138 288.088 356.796C288.493 356.44 288.759 356.009 288.885 355.503L290.734 355.209C290.632 356.173 290.23 357.008 289.528 357.715C288.836 358.408 287.999 358.833 287.015 358.989C286.138 359.129 285.306 359.054 284.519 358.766C283.73 358.466 283.073 358 282.547 357.367C282.019 356.721 281.687 355.972 281.552 355.119ZM294.94 350.075L295.686 354.768C295.747 355.147 295.888 355.422 296.109 355.594C296.343 355.763 296.702 355.809 297.188 355.732C297.639 355.66 298.024 355.563 298.345 355.439L298.59 356.985C298.264 357.147 297.863 357.265 297.389 357.34C296.418 357.495 295.646 357.38 295.075 356.997C294.502 356.602 294.143 355.949 293.998 355.036L293.252 350.343L291.474 350.626L291.22 349.026L292.997 348.743L292.63 346.432L294.319 346.164L294.686 348.475L299.13 347.768L299.385 349.368L294.94 350.075ZM301.656 347.367L303.069 356.255L301.38 356.524L299.967 347.635L301.656 347.367ZM301.198 343.795L301.508 345.75L299.624 346.05L299.313 344.094L301.198 343.795ZM310.757 355.216C309.88 355.355 309.048 355.281 308.261 354.993C307.472 354.693 306.815 354.226 306.289 353.593C305.761 352.948 305.429 352.199 305.293 351.345C305.158 350.492 305.242 349.683 305.545 348.918C305.847 348.141 306.328 347.493 306.986 346.975C307.643 346.446 308.41 346.111 309.287 345.972C310.153 345.834 310.974 345.916 311.751 346.218C312.538 346.506 313.195 346.973 313.723 347.618C314.249 348.251 314.58 348.995 314.715 349.848C314.851 350.701 314.768 351.516 314.466 352.293C314.162 353.058 313.682 353.706 313.025 354.236C312.378 354.751 311.622 355.078 310.757 355.216ZM310.508 353.651C311.053 353.565 311.53 353.355 311.939 353.023C312.346 352.679 312.643 352.255 312.831 351.751C313.016 351.236 313.063 350.694 312.973 350.125C312.883 349.556 312.67 349.061 312.336 348.64C312 348.208 311.586 347.897 311.094 347.708C310.601 347.507 310.081 347.449 309.536 347.536C308.979 347.625 308.491 347.842 308.072 348.188C307.663 348.52 307.366 348.944 307.181 349.46C306.994 349.963 306.945 350.5 307.036 351.068C307.126 351.637 307.339 352.138 307.675 352.571C308.009 352.991 308.423 353.302 308.917 353.503C309.421 353.691 309.951 353.74 310.508 353.651ZM321.44 344.04C322.163 343.925 322.833 343.977 323.451 344.194C324.081 344.41 324.611 344.806 325.043 345.381C325.485 345.943 325.777 346.674 325.92 347.575L326.703 352.499L325.014 352.767L324.237 347.879C324.113 347.097 323.783 346.511 323.247 346.122C322.711 345.734 322.094 345.595 321.395 345.706C320.885 345.787 320.455 345.983 320.103 346.294C319.762 346.591 319.517 346.964 319.37 347.413C319.234 347.86 319.205 348.326 319.282 348.812L320.037 353.559L318.348 353.827L316.935 344.939L318.535 344.684L318.761 346.106C319.016 345.568 319.375 345.116 319.839 344.75C320.314 344.371 320.847 344.134 321.44 344.04ZM340.089 350.554C339.212 350.693 338.38 350.619 337.593 350.331C336.804 350.031 336.146 349.564 335.62 348.931C335.093 348.286 334.761 347.537 334.625 346.683C334.49 345.83 334.574 345.021 334.877 344.256C335.179 343.479 335.659 342.831 336.318 342.313C336.975 341.784 337.742 341.449 338.619 341.31C339.484 341.172 340.305 341.254 341.082 341.556C341.869 341.844 342.527 342.311 343.055 342.956C343.581 343.589 343.911 344.333 344.047 345.186C344.183 346.039 344.1 346.854 343.798 347.631C343.494 348.396 343.014 349.044 342.357 349.574C341.71 350.089 340.954 350.416 340.089 350.554ZM339.84 348.989C340.385 348.903 340.862 348.693 341.271 348.361C341.678 348.017 341.975 347.593 342.162 347.089C342.348 346.574 342.395 346.032 342.305 345.463C342.214 344.894 342.002 344.399 341.668 343.978C341.332 343.546 340.918 343.235 340.426 343.046C339.932 342.845 339.413 342.787 338.868 342.874C338.311 342.963 337.823 343.18 337.404 343.526C336.995 343.858 336.698 344.282 336.513 344.798C336.325 345.301 336.277 345.838 336.367 346.406C336.458 346.975 336.671 347.476 337.007 347.909C337.341 348.329 337.755 348.64 338.249 348.841C338.753 349.029 339.283 349.078 339.84 348.989ZM349.47 337.58C348.984 337.658 348.656 337.813 348.487 338.046C348.329 338.278 348.28 338.583 348.341 338.963L348.493 339.923L350.982 339.527L351.236 341.127L348.747 341.523L349.906 348.811L348.217 349.08L347.059 341.791L345.281 342.074L345.027 340.474L346.804 340.191L346.652 339.231C346.507 338.319 346.646 337.592 347.071 337.05C347.493 336.497 348.19 336.143 349.162 335.989C349.636 335.914 350.053 335.902 350.414 335.954L350.66 337.501C350.317 337.482 349.92 337.509 349.47 337.58ZM363.726 337.319C364.473 337.201 365.167 337.248 365.809 337.462C366.462 337.674 367.011 338.067 367.454 338.64C367.896 339.202 368.188 339.933 368.331 340.834L369.114 345.758L367.425 346.027L366.648 341.138C366.524 340.356 366.194 339.77 365.658 339.382C365.122 338.993 364.505 338.854 363.806 338.965C363.332 339.041 362.919 339.234 362.567 339.545C362.216 339.856 361.961 340.243 361.804 340.705C361.657 341.154 361.622 341.621 361.699 342.107L362.448 346.818L360.759 347.086L358.767 334.553L360.367 334.299L361.135 339.134C361.413 338.665 361.781 338.266 362.239 337.938C362.697 337.61 363.193 337.404 363.726 337.319ZM379.436 335.005L380.849 343.893L379.249 344.147L379.023 342.725C378.768 343.264 378.404 343.723 377.929 344.102C377.465 344.467 376.936 344.697 376.344 344.791C375.621 344.906 374.945 344.856 374.315 344.64C373.697 344.422 373.167 344.032 372.726 343.471C372.294 342.895 372.007 342.157 371.864 341.257L371.081 336.333L372.77 336.064L373.547 340.953C373.671 341.735 374.001 342.32 374.537 342.709C375.072 343.098 375.69 343.237 376.389 343.126C376.899 343.045 377.324 342.855 377.666 342.558C378.017 342.247 378.261 341.868 378.396 341.421C378.544 340.973 378.579 340.505 378.502 340.019L377.747 335.273L379.436 335.005ZM394.076 332.495C394.787 332.382 395.445 332.436 396.051 332.655C396.669 332.873 397.188 333.271 397.608 333.848C398.038 334.411 398.324 335.143 398.467 336.044L399.25 340.968L397.561 341.237L396.784 336.348C396.66 335.566 396.336 334.98 395.812 334.589C395.3 334.196 394.706 334.054 394.031 334.161C393.296 334.278 392.745 334.633 392.377 335.226C392.01 335.819 391.886 336.495 392.007 337.253L392.761 342L391.072 342.268L390.295 337.379C390.171 336.597 389.847 336.011 389.323 335.62C388.811 335.228 388.218 335.085 387.542 335.193C386.807 335.309 386.256 335.664 385.889 336.257C385.521 336.85 385.398 337.526 385.518 338.285L386.273 343.031L384.584 343.299L383.171 334.411L384.771 334.157L384.994 335.561C385.237 335.024 385.585 334.574 386.037 334.211C386.502 333.845 387.018 333.617 387.587 333.527C388.286 333.416 388.939 333.47 389.545 333.689C390.161 333.895 390.67 334.27 391.072 334.814C391.329 334.214 391.723 333.708 392.253 333.296C392.793 332.87 393.4 332.603 394.076 332.495ZM409.474 330.23L410.887 339.119L409.198 339.387L408.986 338.054C408.694 338.586 408.309 339.03 407.831 339.386C407.351 339.729 406.814 339.948 406.222 340.042C405.44 340.167 404.698 340.084 403.995 339.795C403.291 339.494 402.7 339.023 402.222 338.382C401.743 337.741 401.433 336.976 401.292 336.087C401.151 335.198 401.208 334.375 401.464 333.618C401.721 332.86 402.138 332.235 402.716 331.742C403.291 331.237 403.97 330.923 404.753 330.798C405.369 330.701 405.966 330.751 406.545 330.951C407.123 331.151 407.643 331.475 408.103 331.925L407.874 330.485L409.474 330.23ZM406.258 338.433C406.779 338.35 407.232 338.144 407.618 337.816C408.003 337.487 408.277 337.073 408.441 336.573C408.603 336.061 408.637 335.515 408.545 334.934C408.453 334.354 408.251 333.851 407.941 333.427C407.628 332.99 407.238 332.676 406.77 332.483C406.302 332.29 405.807 332.235 405.286 332.318C404.764 332.401 404.317 332.605 403.944 332.932C403.57 333.259 403.303 333.678 403.141 334.19C402.977 334.689 402.942 335.23 403.034 335.81C403.126 336.391 403.329 336.9 403.641 337.336C403.952 337.761 404.335 338.07 404.791 338.265C405.247 338.46 405.736 338.516 406.258 338.433ZM417.716 328.738C418.439 328.623 419.109 328.675 419.727 328.892C420.357 329.108 420.888 329.504 421.319 330.079C421.761 330.641 422.053 331.372 422.197 332.273L422.979 337.197L421.29 337.465L420.513 332.577C420.389 331.794 420.059 331.209 419.523 330.82C418.988 330.431 418.37 330.293 417.671 330.404C417.161 330.485 416.731 330.681 416.379 330.992C416.038 331.289 415.793 331.662 415.646 332.111C415.51 332.558 415.481 333.024 415.558 333.51L416.313 338.256L414.624 338.525L413.211 329.636L414.811 329.382L415.037 330.804C415.292 330.266 415.651 329.814 416.116 329.448C416.59 329.069 417.124 328.832 417.716 328.738ZM434.718 326.036C435.63 325.891 436.455 325.96 437.193 326.244C437.943 326.526 438.559 326.999 439.041 327.663C439.521 328.316 439.838 329.122 439.99 330.082C440.03 330.331 440.053 330.516 440.06 330.636L432.772 331.795C432.999 332.463 433.41 332.981 434.003 333.349C434.606 333.702 435.257 333.824 435.956 333.713C437.106 333.53 437.857 332.979 438.209 332.061L439.951 331.784C439.798 332.658 439.379 333.424 438.694 334.079C438.006 334.723 437.177 335.123 436.205 335.277C435.34 335.414 434.526 335.343 433.765 335.063C433.002 334.771 432.369 334.307 431.867 333.67C431.363 333.021 431.041 332.258 430.902 331.381C430.762 330.504 430.832 329.685 431.112 328.924C431.39 328.15 431.842 327.514 432.467 327.013C433.102 326.499 433.853 326.173 434.718 326.036ZM434.92 327.535C434.22 327.646 433.651 327.961 433.211 328.481C432.783 328.998 432.564 329.61 432.555 330.316L438.012 329.449C437.828 328.749 437.448 328.226 436.87 327.881C436.305 327.533 435.654 327.418 434.92 327.535ZM446.701 324.131C446.985 324.086 447.255 324.061 447.509 324.057L447.772 325.711C447.551 325.697 447.21 325.727 446.747 325.801C446.226 325.883 445.783 326.075 445.417 326.377C445.064 326.676 444.807 327.045 444.645 327.483C444.494 327.908 444.456 328.358 444.532 328.832L445.297 333.65L443.609 333.918L442.196 325.03L443.796 324.775L444.013 326.144C444.27 325.617 444.631 325.177 445.098 324.823C445.574 324.456 446.108 324.225 446.701 324.131ZM454.707 322.859C454.992 322.813 455.261 322.789 455.516 322.785L455.779 324.438C455.558 324.425 455.216 324.455 454.754 324.528C454.232 324.611 453.789 324.803 453.424 325.104C453.07 325.403 452.813 325.772 452.652 326.211C452.501 326.636 452.463 327.085 452.538 327.559L453.304 332.377L451.615 332.645L450.202 323.757L451.802 323.503L452.02 324.871C452.276 324.345 452.638 323.904 453.104 323.551C453.58 323.184 454.115 322.953 454.707 322.859ZM463.041 331.012C462.164 331.151 461.332 331.077 460.545 330.789C459.756 330.489 459.098 330.022 458.572 329.389C458.045 328.744 457.713 327.995 457.577 327.141C457.442 326.288 457.526 325.479 457.829 324.714C458.131 323.937 458.611 323.289 459.27 322.771C459.927 322.242 460.694 321.907 461.571 321.768C462.436 321.63 463.257 321.712 464.034 322.014C464.821 322.302 465.479 322.769 466.007 323.414C466.533 324.047 466.863 324.79 466.999 325.644C467.135 326.497 467.052 327.312 466.75 328.089C466.446 328.854 465.966 329.502 465.309 330.031C464.662 330.547 463.906 330.874 463.041 331.012ZM462.792 329.447C463.337 329.361 463.814 329.151 464.223 328.819C464.63 328.475 464.927 328.051 465.114 327.547C465.3 327.032 465.347 326.49 465.257 325.921C465.166 325.352 464.954 324.857 464.62 324.436C464.284 324.004 463.87 323.693 463.378 323.504C462.884 323.303 462.365 323.245 461.82 323.332C461.263 323.421 460.775 323.638 460.356 323.984C459.947 324.316 459.65 324.74 459.465 325.256C459.277 325.759 459.229 326.296 459.319 326.864C459.41 327.433 459.623 327.934 459.959 328.367C460.293 328.787 460.707 329.098 461.201 329.299C461.705 329.486 462.235 329.536 462.792 329.447ZM473.724 319.836C474.008 319.791 474.278 319.766 474.532 319.762L474.795 321.416C474.574 321.402 474.233 321.432 473.77 321.506C473.249 321.588 472.805 321.78 472.44 322.082C472.087 322.381 471.83 322.75 471.668 323.188C471.517 323.613 471.479 324.063 471.555 324.537L472.32 329.354L470.632 329.623L469.219 320.734L470.819 320.48L471.036 321.849C471.293 321.322 471.654 320.882 472.12 320.528C472.597 320.161 473.131 319.93 473.724 319.836Z" fill="black"/>
    <path fill-rule="evenodd" clip-rule="evenodd" d="M929.403 336.329C1017.73 339.161 1090.57 327.374 1092.09 310.001C1093.61 292.628 1023.24 276.249 934.91 273.417C916.41 272.824 898.589 272.872 881.961 273.478L772.208 300.641C773.13 317.678 842.594 333.546 929.403 336.329Z" fill="black"/>
    <path d="M772.223 299.745C772.197 300.044 772.192 300.343 772.208 300.641L881.961 273.478C819.199 275.768 773.425 286.011 772.223 299.745Z" fill="#F1EFED"/>
    <path d="M772.208 300.641C773.13 317.678 842.594 333.546 929.403 336.329C1017.73 339.161 1090.57 327.374 1092.09 310.001C1093.61 292.628 1023.24 276.249 934.91 273.417C916.41 272.824 898.589 272.872 881.961 273.478M772.208 300.641C772.192 300.343 772.197 300.044 772.223 299.745C773.425 286.011 819.199 275.768 881.961 273.478M772.208 300.641L881.961 273.478" stroke="black" stroke-width="2"/>
    <ellipse cx="161.114" cy="43.2742" rx="161.114" ry="43.2742" transform="matrix(0.989679 0.143301 -0.367633 0.929971 795.816 217.961)" fill="#F1EFED" stroke="black" stroke-width="2" stroke-linejoin="round"/>
    <path d="M835.99 261.092L832.247 273.123L830.28 272.897L825.939 262.322L822.912 272.05L821.16 271.848L824.903 259.817L827.102 260.07L831.28 270.395L834.237 260.891L835.99 261.092ZM842.677 265.244C843.595 265.349 844.335 265.63 844.897 266.087C845.471 266.544 845.834 267.144 845.986 267.885C846.142 268.615 846.075 269.444 845.786 270.372C845.712 270.613 845.65 270.79 845.603 270.903L838.271 270.06C838.184 270.738 838.334 271.325 838.723 271.821C839.128 272.307 839.682 272.59 840.385 272.671C841.542 272.804 842.491 272.492 843.233 271.734L844.985 271.936C844.449 272.705 843.714 273.303 842.779 273.729C841.847 274.144 840.892 274.296 839.915 274.183C839.044 274.083 838.316 273.804 837.731 273.345C837.149 272.874 836.766 272.278 836.583 271.557C836.403 270.824 836.446 270.034 836.709 269.186C836.973 268.338 837.407 267.599 838.011 266.968C838.618 266.326 839.326 265.855 840.135 265.557C840.96 265.248 841.807 265.144 842.677 265.244ZM842.193 266.683C841.489 266.603 840.815 266.745 840.171 267.11C839.538 267.476 839.059 267.985 838.733 268.635L844.223 269.267C844.365 268.571 844.244 267.988 843.86 267.516C843.487 267.046 842.932 266.768 842.193 266.683ZM862.805 267.737L857.413 276.018L855.339 275.779L855.18 268.907L850.832 275.261L848.812 275.029L848.785 266.124L850.627 266.336L850.434 273.328L854.883 266.826L856.761 267.042L856.966 274.062L860.981 267.527L862.805 267.737ZM876.257 269.106C877.043 269.196 877.698 269.474 878.221 269.937C878.747 270.389 879.089 270.975 879.249 271.693C879.408 272.412 879.354 273.201 879.086 274.06C878.819 274.919 878.395 275.666 877.816 276.299C877.236 276.933 876.563 277.407 875.798 277.723C875.037 278.027 874.263 278.134 873.476 278.043C872.88 277.975 872.359 277.784 871.913 277.472C871.47 277.148 871.135 276.736 870.908 276.235L870.507 277.524L868.809 277.329L872.578 265.211L874.188 265.397L872.658 270.312C873.193 269.863 873.772 269.532 874.394 269.319C875.016 269.106 875.637 269.035 876.257 269.106ZM873.66 276.498C874.185 276.558 874.695 276.486 875.191 276.282C875.686 276.078 876.123 275.766 876.5 275.347C876.881 274.916 877.159 274.42 877.334 273.859C877.509 273.297 877.546 272.779 877.447 272.305C877.351 271.819 877.134 271.426 876.795 271.126C876.456 270.826 876.024 270.646 875.5 270.586C874.975 270.525 874.459 270.596 873.952 270.799C873.444 271.002 873 271.319 872.619 271.75C872.241 272.169 871.965 272.659 871.791 273.221C871.616 273.782 871.576 274.306 871.672 274.792C871.772 275.266 871.997 275.654 872.347 275.955C872.698 276.257 873.136 276.438 873.66 276.498ZM891.429 271.029L888.756 279.623L887.146 279.438L887.574 278.063C887.094 278.494 886.547 278.823 885.933 279.049C885.335 279.265 884.738 279.339 884.142 279.27C883.415 279.187 882.806 278.962 882.314 278.597C881.835 278.233 881.515 277.734 881.354 277.098C881.209 276.452 881.272 275.694 881.543 274.823L883.025 270.062L884.723 270.258L883.253 274.984C883.018 275.741 883.063 276.369 883.389 276.869C883.715 277.37 884.229 277.66 884.933 277.741C885.445 277.8 885.928 277.737 886.381 277.552C886.849 277.356 887.247 277.07 887.574 276.692C887.914 276.316 888.156 275.893 888.303 275.423L889.73 270.834L891.429 271.029ZM895.607 280.589C894.486 280.46 893.617 280.099 892.999 279.506C892.396 278.902 892.176 278.141 892.338 277.222L894.037 277.417C894.039 277.928 894.211 278.328 894.553 278.616C894.911 278.895 895.436 279.074 896.127 279.153C896.771 279.227 897.32 279.19 897.774 279.04C898.232 278.879 898.51 278.638 898.61 278.317C898.71 277.996 898.651 277.729 898.434 277.514C898.232 277.289 897.786 277.077 897.094 276.879L896.128 276.59C894.097 275.976 893.282 275.022 893.685 273.727C893.92 272.971 894.455 272.404 895.289 272.025C896.127 271.635 897.106 271.504 898.226 271.633C899.24 271.749 900.033 272.078 900.605 272.619C901.182 273.148 901.44 273.824 901.381 274.648L899.575 274.441C899.539 274.08 899.347 273.785 898.999 273.555C898.654 273.314 898.237 273.165 897.749 273.109C897.129 273.038 896.605 273.072 896.179 273.213C895.768 273.344 895.514 273.564 895.418 273.873C895.332 274.148 895.398 274.393 895.615 274.608C895.836 274.812 896.236 274.994 896.815 275.156L897.799 275.447C898.954 275.781 899.713 276.201 900.075 276.705C900.44 277.198 900.512 277.8 900.291 278.511C900.056 279.267 899.513 279.839 898.664 280.228C897.83 280.607 896.811 280.727 895.607 280.589ZM906.878 272.806L904.204 281.4L902.505 281.204L905.179 272.611L906.878 272.806ZM908.054 269.381L907.466 271.271L905.571 271.053L906.159 269.163L908.054 269.381ZM915.244 273.59C915.971 273.674 916.575 273.897 917.054 274.261C917.546 274.626 917.864 275.132 918.009 275.777C918.169 276.413 918.114 277.166 917.843 278.037L916.362 282.798L914.663 282.603L916.133 277.876C916.369 277.12 916.323 276.491 915.997 275.991C915.672 275.491 915.157 275.2 914.454 275.119C913.941 275.06 913.451 275.128 912.982 275.324C912.529 275.509 912.133 275.79 911.794 276.166C911.467 276.544 911.23 276.968 911.084 277.438L909.656 282.027L907.957 281.831L910.631 273.238L912.24 273.423L911.812 274.798C912.292 274.366 912.831 274.043 913.43 273.827C914.043 273.6 914.648 273.522 915.244 273.59ZM926.44 274.878C927.358 274.983 928.098 275.264 928.66 275.721C929.234 276.178 929.597 276.778 929.749 277.519C929.905 278.249 929.838 279.078 929.549 280.007C929.475 280.247 929.413 280.424 929.366 280.537L922.034 279.694C921.947 280.372 922.097 280.959 922.486 281.455C922.891 281.941 923.445 282.224 924.148 282.305C925.305 282.438 926.254 282.126 926.996 281.368L928.748 281.57C928.213 282.339 927.477 282.937 926.542 283.364C925.61 283.779 924.655 283.93 923.678 283.817C922.807 283.717 922.08 283.438 921.494 282.979C920.912 282.508 920.529 281.912 920.346 281.191C920.166 280.458 920.209 279.668 920.472 278.82C920.736 277.972 921.17 277.233 921.774 276.602C922.381 275.96 923.089 275.489 923.898 275.191C924.723 274.882 925.57 274.778 926.44 274.878ZM925.956 276.318C925.252 276.237 924.578 276.379 923.934 276.744C923.301 277.11 922.822 277.619 922.496 278.27L927.986 278.901C928.128 278.205 928.007 277.622 927.623 277.15C927.25 276.68 926.695 276.403 925.956 276.318ZM934.388 285.049C933.268 284.92 932.399 284.559 931.78 283.966C931.178 283.363 930.958 282.602 931.12 281.683L932.819 281.878C932.821 282.389 932.993 282.788 933.335 283.077C933.693 283.355 934.218 283.534 934.909 283.614C935.553 283.688 936.102 283.65 936.556 283.501C937.013 283.34 937.292 283.099 937.392 282.778C937.492 282.457 937.433 282.189 937.216 281.974C937.014 281.749 936.568 281.538 935.876 281.339L934.91 281.05C932.878 280.437 932.064 279.483 932.467 278.188C932.702 277.432 933.237 276.864 934.071 276.485C934.908 276.095 935.887 275.964 937.008 276.093C938.021 276.21 938.814 276.538 939.387 277.079C939.963 277.608 940.222 278.285 940.163 279.109L938.357 278.901C938.321 278.541 938.129 278.246 937.781 278.016C937.436 277.774 937.019 277.626 936.53 277.569C935.91 277.498 935.387 277.533 934.961 277.674C934.549 277.804 934.296 278.024 934.2 278.334C934.114 278.609 934.18 278.854 934.397 279.069C934.618 279.272 935.018 279.455 935.597 279.616L936.581 279.907C937.736 280.242 938.495 280.662 938.856 281.166C939.222 281.659 939.294 282.261 939.073 282.971C938.838 283.727 938.295 284.3 937.446 284.689C936.612 285.068 935.593 285.188 934.388 285.049ZM944.468 286.209C943.347 286.08 942.478 285.719 941.86 285.125C941.258 284.522 941.037 283.761 941.2 282.842L942.899 283.037C942.9 283.548 943.072 283.947 943.415 284.236C943.773 284.515 944.297 284.694 944.989 284.773C945.633 284.847 946.181 284.809 946.635 284.66C947.093 284.499 947.372 284.258 947.472 283.937C947.571 283.616 947.513 283.348 947.296 283.134C947.094 282.909 946.647 282.697 945.956 282.499L944.99 282.21C942.958 281.596 942.144 280.642 942.546 279.347C942.782 278.591 943.316 278.024 944.15 277.645C944.988 277.254 945.967 277.124 947.088 277.253C948.101 277.369 948.894 277.698 949.467 278.238C950.043 278.768 950.302 279.444 950.243 280.268L948.437 280.06C948.401 279.7 948.209 279.405 947.86 279.175C947.516 278.934 947.099 278.785 946.61 278.729C945.99 278.657 945.467 278.692 945.04 278.833C944.629 278.964 944.375 279.184 944.279 279.493C944.194 279.768 944.259 280.013 944.477 280.228C944.697 280.431 945.097 280.614 945.677 280.775L946.661 281.067C947.816 281.401 948.574 281.821 948.936 282.325C949.301 282.818 949.373 283.42 949.152 284.13C948.917 284.887 948.375 285.459 947.525 285.848C946.691 286.227 945.672 286.347 944.468 286.209ZM957.805 283.114C958.061 282.289 958.504 281.562 959.131 280.934C959.762 280.295 960.502 279.822 961.35 279.516C962.202 279.199 963.07 279.091 963.952 279.192C964.941 279.306 965.742 279.689 966.354 280.341C966.982 280.983 967.282 281.765 967.254 282.688L965.394 282.474C965.334 281.992 965.119 281.593 964.748 281.278C964.392 280.952 963.94 280.758 963.392 280.695C962.831 280.63 962.29 280.704 961.767 280.917C961.247 281.118 960.791 281.434 960.398 281.863C960.009 282.281 959.728 282.765 959.557 283.315C959.386 283.865 959.354 284.384 959.462 284.871C959.573 285.347 959.809 285.742 960.168 286.056C960.53 286.359 960.992 286.543 961.552 286.607C962.101 286.67 962.636 286.595 963.159 286.382C963.698 286.159 964.14 285.831 964.485 285.395L966.345 285.609C965.817 286.474 965.066 287.142 964.092 287.611C963.134 288.071 962.161 288.244 961.171 288.13C960.289 288.028 959.545 287.741 958.939 287.268C958.336 286.783 957.932 286.179 957.725 285.455C957.521 284.719 957.548 283.939 957.805 283.114ZM979.14 281.117L976.467 289.711L974.768 289.516L975.169 288.226C974.657 288.642 974.097 288.952 973.491 289.155C972.888 289.347 972.288 289.408 971.692 289.34C970.905 289.249 970.249 288.978 969.723 288.526C969.2 288.062 968.859 287.471 968.7 286.753C968.541 286.034 968.595 285.245 968.862 284.386C969.13 283.526 969.553 282.78 970.133 282.146C970.713 281.513 971.384 281.044 972.145 280.74C972.91 280.424 973.686 280.312 974.473 280.402C975.093 280.474 975.628 280.678 976.079 281.014C976.53 281.351 976.869 281.788 977.098 282.324L977.531 280.932L979.14 281.117ZM972.449 287.86C972.973 287.921 973.489 287.849 973.997 287.647C974.505 287.444 974.947 287.133 975.325 286.713C975.706 286.283 975.984 285.786 976.158 285.225C976.333 284.663 976.371 284.146 976.271 283.671C976.175 283.185 975.952 282.792 975.601 282.49C975.251 282.189 974.813 282.008 974.288 281.948C973.764 281.887 973.254 281.959 972.758 282.163C972.262 282.368 971.824 282.685 971.443 283.116C971.066 283.535 970.789 284.026 970.615 284.587C970.44 285.149 970.401 285.672 970.497 286.158C970.596 286.632 970.815 287.02 971.154 287.32C971.493 287.62 971.924 287.8 972.449 287.86ZM987.674 281.921C988.461 282.011 989.115 282.288 989.638 282.752C990.164 283.204 990.507 283.789 990.666 284.508C990.825 285.227 990.771 286.015 990.504 286.875C990.237 287.734 989.813 288.481 989.233 289.114C988.653 289.748 987.981 290.222 987.216 290.538C986.454 290.842 985.68 290.949 984.893 290.858C984.297 290.79 983.776 290.599 983.33 290.287C982.888 289.963 982.553 289.551 982.326 289.05L981.016 293.261L979.317 293.065L982.9 281.55L984.509 281.735L984.076 283.127C984.611 282.678 985.189 282.347 985.811 282.134C986.433 281.92 987.054 281.849 987.674 281.921ZM985.078 289.313C985.602 289.373 986.112 289.301 986.608 289.097C987.104 288.893 987.54 288.581 987.918 288.162C988.299 287.731 988.577 287.235 988.751 286.673C988.926 286.112 988.964 285.594 988.864 285.12C988.769 284.634 988.551 284.241 988.212 283.941C987.874 283.641 987.442 283.461 986.917 283.4C986.393 283.34 985.877 283.411 985.369 283.614C984.862 283.817 984.417 284.133 984.036 284.564C983.659 284.984 983.383 285.474 983.208 286.036C983.033 286.597 982.994 287.121 983.09 287.607C983.189 288.081 983.414 288.469 983.765 288.77C984.116 289.072 984.553 289.252 985.078 289.313ZM1003.02 283.864L1000.35 292.457L998.647 292.262L999.048 290.973C998.536 291.389 997.976 291.698 997.37 291.902C996.767 292.093 996.167 292.155 995.571 292.086C994.784 291.996 994.128 291.724 993.602 291.272C993.079 290.809 992.738 290.218 992.579 289.499C992.42 288.781 992.474 287.992 992.741 287.132C993.009 286.273 993.432 285.526 994.012 284.893C994.592 284.259 995.263 283.79 996.024 283.486C996.789 283.171 997.565 283.058 998.352 283.149C998.972 283.22 999.507 283.424 999.958 283.761C1000.41 284.098 1000.75 284.534 1000.98 285.071L1001.41 283.679L1003.02 283.864ZM996.328 290.607C996.852 290.667 997.368 290.596 997.876 290.393C998.384 290.19 998.826 289.879 999.204 289.46C999.585 289.029 999.862 288.533 1000.04 287.971C1000.21 287.41 1000.25 286.892 1000.15 286.418C1000.05 285.932 999.831 285.538 999.48 285.237C999.129 284.935 998.692 284.755 998.167 284.694C997.643 284.634 997.133 284.706 996.637 284.91C996.141 285.114 995.703 285.431 995.322 285.862C994.944 286.282 994.668 286.772 994.494 287.334C994.319 287.895 994.28 288.419 994.375 288.905C994.475 289.379 994.694 289.766 995.033 290.066C995.372 290.366 995.803 290.546 996.328 290.607ZM1011.55 284.667C1012.34 284.758 1012.99 285.035 1013.52 285.498C1014.04 285.951 1014.39 286.536 1014.54 287.254C1014.7 287.973 1014.65 288.762 1014.38 289.621C1014.12 290.481 1013.69 291.227 1013.11 291.861C1012.53 292.494 1011.86 292.969 1011.09 293.284C1010.33 293.588 1009.56 293.695 1008.77 293.605C1008.18 293.536 1007.66 293.346 1007.21 293.033C1006.77 292.709 1006.43 292.297 1006.2 291.796L1005.8 293.085L1004.1 292.89L1007.87 280.773L1009.48 280.958L1007.95 285.873C1008.49 285.425 1009.07 285.093 1009.69 284.88C1010.31 284.667 1010.93 284.596 1011.55 284.667ZM1008.96 292.059C1009.48 292.12 1009.99 292.048 1010.49 291.844C1010.98 291.64 1011.42 291.328 1011.8 290.908C1012.18 290.477 1012.46 289.981 1012.63 289.42C1012.81 288.858 1012.84 288.34 1012.74 287.866C1012.65 287.38 1012.43 286.987 1012.09 286.687C1011.75 286.387 1011.32 286.207 1010.8 286.147C1010.27 286.086 1009.76 286.158 1009.25 286.36C1008.74 286.563 1008.3 286.88 1007.92 287.311C1007.54 287.73 1007.26 288.221 1007.09 288.782C1006.91 289.344 1006.87 289.867 1006.97 290.353C1007.07 290.827 1007.29 291.215 1007.64 291.517C1007.99 291.818 1008.43 291.999 1008.96 292.059ZM1020.37 285.86L1017.7 294.453L1016 294.258L1018.67 285.664L1020.37 285.86ZM1021.55 282.435L1020.96 284.325L1019.07 284.107L1019.65 282.217L1021.55 282.435ZM1026.92 282.963L1023.15 295.08L1021.45 294.885L1025.22 282.768L1026.92 282.963ZM1031.28 287.114L1028.6 295.708L1026.9 295.512L1029.58 286.918L1031.28 287.114ZM1032.45 283.689L1031.87 285.579L1029.97 285.361L1030.56 283.471L1032.45 283.689ZM1036.78 289.349L1035.37 293.887C1035.26 294.254 1035.27 294.545 1035.4 294.762C1035.54 294.98 1035.85 295.117 1036.34 295.173C1036.8 295.226 1037.2 295.236 1037.56 295.206L1037.09 296.701C1036.71 296.765 1036.28 296.769 1035.81 296.714C1034.83 296.602 1034.16 296.293 1033.8 295.789C1033.44 295.273 1033.4 294.574 1033.67 293.692L1035.09 289.154L1033.3 288.948L1033.78 287.402L1035.57 287.607L1036.26 285.373L1037.96 285.568L1037.27 287.803L1041.74 288.317L1041.25 289.864L1036.78 289.349ZM1044.28 288.609L1041.6 297.203L1039.9 297.007L1042.58 288.414L1044.28 288.609ZM1045.45 285.184L1044.87 287.074L1042.97 286.856L1043.56 284.966L1045.45 285.184ZM1051.86 289.303C1052.77 289.408 1053.51 289.689 1054.08 290.146C1054.65 290.603 1055.01 291.203 1055.16 291.944C1055.32 292.674 1055.25 293.503 1054.97 294.431C1054.89 294.672 1054.83 294.849 1054.78 294.962L1047.45 294.119C1047.36 294.797 1047.51 295.384 1047.9 295.88C1048.31 296.366 1048.86 296.649 1049.56 296.73C1050.72 296.863 1051.67 296.551 1052.41 295.793L1054.16 295.995C1053.63 296.764 1052.89 297.362 1051.96 297.788C1051.03 298.203 1050.07 298.355 1049.09 298.242C1048.22 298.142 1047.5 297.863 1046.91 297.404C1046.33 296.933 1045.94 296.337 1045.76 295.616C1045.58 294.883 1045.62 294.093 1045.89 293.245C1046.15 292.397 1046.59 291.658 1047.19 291.027C1047.8 290.385 1048.5 289.914 1049.31 289.616C1050.14 289.307 1050.99 289.203 1051.86 289.303ZM1051.37 290.742C1050.67 290.661 1049.99 290.804 1049.35 291.169C1048.72 291.535 1048.24 292.043 1047.91 292.694L1053.4 293.326C1053.54 292.63 1053.42 292.046 1053.04 291.575C1052.67 291.105 1052.11 290.827 1051.37 290.742ZM1059.8 299.474C1058.68 299.345 1057.81 298.984 1057.2 298.391C1056.59 297.787 1056.37 297.026 1056.54 296.107L1058.23 296.303C1058.24 296.813 1058.41 297.213 1058.75 297.502C1059.11 297.78 1059.63 297.959 1060.32 298.039C1060.97 298.113 1061.52 298.075 1061.97 297.925C1062.43 297.764 1062.71 297.523 1062.81 297.203C1062.91 296.882 1062.85 296.614 1062.63 296.399C1062.43 296.174 1061.98 295.963 1061.29 295.764L1060.33 295.475C1058.29 294.862 1057.48 293.908 1057.88 292.613C1058.12 291.857 1058.65 291.289 1059.49 290.91C1060.32 290.52 1061.3 290.389 1062.42 290.518C1063.44 290.635 1064.23 290.963 1064.8 291.504C1065.38 292.033 1065.64 292.71 1065.58 293.534L1063.77 293.326C1063.74 292.966 1063.54 292.671 1063.2 292.441C1062.85 292.199 1062.43 292.05 1061.95 291.994C1061.33 291.923 1060.8 291.958 1060.38 292.099C1059.97 292.229 1059.71 292.449 1059.62 292.759C1059.53 293.034 1059.6 293.279 1059.81 293.493C1060.03 293.697 1060.43 293.879 1061.01 294.041L1062 294.332C1063.15 294.667 1063.91 295.086 1064.27 295.591C1064.64 296.084 1064.71 296.686 1064.49 297.396C1064.25 298.152 1063.71 298.725 1062.86 299.114C1062.03 299.492 1061.01 299.613 1059.8 299.474Z" fill="black"/>
</svg>
