<svg width="473" height="339" viewBox="0 0 473 339" fill="none" xmlns="http://www.w3.org/2000/svg">
    <path d="M383.506 331.38C383.843 328.443 384.566 325.563 385.654 322.814C384.565 325.562 383.843 328.443 383.506 331.38Z" fill="black"/>
    <path d="M389.816 315.008C391.488 312.567 393.338 310.254 395.352 308.087C395.362 308.083 395.373 308.081 395.383 308.083C395.394 308.085 395.403 308.091 395.41 308.099C395.413 308.104 395.415 308.109 395.417 308.114C395.418 308.12 395.418 308.125 395.416 308.131C395.415 308.136 395.413 308.141 395.41 308.146C395.407 308.15 395.403 308.154 395.398 308.157C393.382 310.315 391.526 312.616 389.845 315.044L389.81 315.037C389.81 315.037 389.81 315.007 389.816 315.008Z" fill="black"/>
    <path d="M401.657 301.866L408.338 296.008C408.345 296.002 408.353 295.997 408.362 295.994C408.371 295.991 408.38 295.99 408.39 295.991C408.399 295.992 408.408 295.995 408.417 295.999C408.425 296.003 408.432 296.009 408.438 296.016C408.444 296.024 408.449 296.032 408.452 296.041C408.455 296.05 408.456 296.059 408.455 296.069C408.454 296.078 408.451 296.087 408.447 296.095C408.443 296.104 408.437 296.111 408.43 296.117L401.743 301.92C401.73 301.928 401.714 301.931 401.699 301.928C401.684 301.925 401.67 301.916 401.662 301.903C401.657 301.891 401.655 301.879 401.657 301.866Z" fill="black"/>
    <path d="M415.105 290.324L421.744 284.457C421.755 284.449 421.768 284.443 421.781 284.44C421.794 284.437 421.807 284.437 421.82 284.44C421.834 284.443 421.846 284.448 421.857 284.456C421.868 284.464 421.877 284.474 421.883 284.486C421.898 284.508 421.903 284.535 421.898 284.561C421.892 284.587 421.877 284.61 421.855 284.625L415.174 290.483C415.156 290.494 415.133 290.497 415.112 290.493C415.091 290.489 415.072 290.477 415.059 290.459C415.046 290.44 415.042 290.416 415.046 290.393C415.051 290.37 415.065 290.35 415.084 290.338L415.105 290.324Z" fill="black"/>
    <path d="M428.024 278.221C430.024 276.055 431.876 273.757 433.57 271.344C433.579 271.33 433.591 271.318 433.606 271.308C433.62 271.299 433.636 271.292 433.653 271.289C433.67 271.286 433.688 271.286 433.705 271.289C433.721 271.293 433.737 271.3 433.752 271.31C433.766 271.319 433.778 271.331 433.788 271.346C433.797 271.36 433.804 271.376 433.807 271.393C433.81 271.41 433.81 271.428 433.807 271.445C433.803 271.461 433.796 271.477 433.786 271.492C432.076 273.908 430.207 276.208 428.191 278.376C428.181 278.387 428.169 278.396 428.156 278.403C428.143 278.409 428.129 278.413 428.114 278.414C428.099 278.415 428.084 278.412 428.07 278.408C428.056 278.403 428.043 278.395 428.032 278.385C428.021 278.375 428.011 278.363 428.004 278.349C427.997 278.336 427.993 278.32 427.992 278.305C427.991 278.29 427.994 278.274 427.999 278.26C428.005 278.245 428.013 278.232 428.024 278.221Z" fill="black"/>
    <path d="M437.944 159.4C438.548 158.056 439.078 156.679 439.532 155.277C439.992 153.883 440.328 152.451 440.536 150.997C440.536 150.974 440.541 150.951 440.552 150.929C440.562 150.908 440.577 150.89 440.595 150.875C440.613 150.86 440.635 150.849 440.658 150.844C440.681 150.838 440.704 150.838 440.727 150.843C440.75 150.848 440.772 150.857 440.791 150.871C440.81 150.886 440.825 150.904 440.836 150.925C440.847 150.945 440.853 150.968 440.855 150.992C440.856 151.015 440.851 151.039 440.842 151.06C440.63 152.533 440.286 153.984 439.815 155.396C439.354 156.805 438.817 158.188 438.205 159.538C438.198 159.556 438.187 159.572 438.174 159.586C438.16 159.599 438.144 159.61 438.126 159.617C438.108 159.624 438.089 159.627 438.07 159.627C438.051 159.626 438.032 159.622 438.015 159.614C437.995 159.606 437.977 159.593 437.963 159.578C437.948 159.562 437.937 159.544 437.93 159.523C437.924 159.503 437.921 159.481 437.924 159.46C437.926 159.439 437.933 159.418 437.944 159.4Z" fill="black"/>
    <path d="M439.079 246.821C438.314 245.577 437.324 244.487 436.16 243.606C434.997 242.727 433.73 241.995 432.387 241.428C432.341 241.409 432.304 241.371 432.286 241.324C432.267 241.277 432.268 241.225 432.288 241.179C432.308 241.133 432.345 241.096 432.392 241.077C432.439 241.059 432.491 241.06 432.537 241.08C433.912 241.668 435.209 242.424 436.398 243.33C437.593 244.239 438.609 245.363 439.393 246.644C439.418 246.682 439.427 246.728 439.418 246.773C439.408 246.817 439.382 246.856 439.344 246.881C439.323 246.897 439.299 246.908 439.274 246.913C439.249 246.919 439.223 246.919 439.197 246.913C439.172 246.907 439.148 246.896 439.128 246.88C439.108 246.864 439.091 246.844 439.079 246.821Z" fill="black"/>
    <path d="M423.876 239.172C420.963 238.768 418.027 238.547 415.085 238.51C415.057 238.51 415.029 238.505 415.002 238.494C414.976 238.483 414.952 238.466 414.932 238.446C414.912 238.426 414.896 238.401 414.886 238.375C414.875 238.348 414.871 238.32 414.871 238.291C414.873 238.234 414.896 238.179 414.937 238.139C414.978 238.099 415.033 238.077 415.091 238.077C418.048 238.124 421 238.357 423.928 238.773C423.955 238.776 423.98 238.785 424.002 238.799C424.025 238.812 424.045 238.83 424.061 238.851C424.077 238.873 424.088 238.897 424.094 238.922C424.101 238.948 424.102 238.975 424.098 239.001C424.091 239.053 424.064 239.1 424.022 239.132C423.981 239.164 423.928 239.178 423.876 239.172Z" fill="black"/>
    <path d="M406.26 238.721L397.446 239.484C397.385 239.483 397.326 239.459 397.282 239.417C397.237 239.376 397.209 239.319 397.204 239.258C397.198 239.197 397.216 239.136 397.253 239.087C397.289 239.038 397.343 239.004 397.403 238.992L406.247 238.254C406.308 238.249 406.369 238.269 406.416 238.308C406.462 238.348 406.491 238.404 406.496 238.465C406.501 238.526 406.482 238.587 406.442 238.634C406.403 238.68 406.346 238.709 406.285 238.714L406.26 238.721Z" fill="black"/>
    <path d="M388.737 240.903L379.996 242.339C379.929 242.34 379.864 242.317 379.813 242.274C379.761 242.231 379.727 242.171 379.717 242.105C379.706 242.039 379.72 241.971 379.755 241.915C379.79 241.858 379.845 241.816 379.909 241.796L388.645 240.384C388.678 240.378 388.713 240.379 388.746 240.387C388.779 240.395 388.81 240.41 388.837 240.43C388.865 240.451 388.888 240.476 388.905 240.505C388.922 240.535 388.933 240.567 388.938 240.601C388.944 240.634 388.944 240.669 388.937 240.702C388.93 240.735 388.916 240.766 388.896 240.794C388.876 240.821 388.851 240.845 388.821 240.862C388.792 240.879 388.76 240.891 388.726 240.895L388.737 240.903Z" fill="black"/>
    <path d="M371.23 243.71L362.494 245.441C362.416 245.455 362.335 245.438 362.27 245.393C362.205 245.347 362.16 245.278 362.145 245.201C362.137 245.162 362.137 245.123 362.145 245.084C362.152 245.046 362.168 245.009 362.19 244.977C362.211 244.944 362.24 244.916 362.272 244.895C362.305 244.873 362.342 244.858 362.38 244.851L371.075 243.171C371.151 243.158 371.228 243.176 371.291 243.219C371.354 243.262 371.398 243.329 371.413 243.404C371.421 243.468 371.407 243.533 371.374 243.588C371.341 243.644 371.29 243.686 371.23 243.71Z" fill="black"/>
    <path d="M353.807 246.964L345.135 248.794C345.051 248.811 344.965 248.794 344.893 248.747C344.822 248.7 344.773 248.627 344.755 248.544C344.738 248.46 344.755 248.373 344.802 248.302C344.849 248.231 344.922 248.181 345.006 248.164L353.7 246.339C353.74 246.331 353.78 246.33 353.82 246.337C353.86 246.344 353.897 246.359 353.931 246.382C353.965 246.404 353.994 246.432 354.016 246.466C354.038 246.499 354.054 246.537 354.062 246.577C354.078 246.656 354.062 246.738 354.017 246.806C353.973 246.874 353.903 246.921 353.824 246.938L353.807 246.964Z" fill="black"/>
    <path d="M336.522 250.809L327.943 253.007C327.901 253.018 327.857 253.021 327.814 253.014C327.771 253.008 327.729 252.993 327.692 252.971C327.654 252.949 327.622 252.919 327.596 252.884C327.57 252.85 327.551 252.81 327.54 252.768C327.52 252.682 327.534 252.593 327.578 252.517C327.623 252.442 327.696 252.387 327.78 252.365L336.374 250.181C336.457 250.161 336.544 250.173 336.618 250.217C336.691 250.26 336.744 250.331 336.766 250.413C336.777 250.454 336.78 250.497 336.774 250.539C336.769 250.581 336.755 250.621 336.733 250.658C336.711 250.695 336.683 250.726 336.649 250.752C336.615 250.777 336.576 250.795 336.535 250.806L336.522 250.809Z" fill="black"/>
    <path d="M319.394 255.321L310.87 257.724C310.793 257.727 310.717 257.704 310.654 257.66C310.591 257.616 310.544 257.552 310.522 257.478C310.499 257.404 310.501 257.325 310.528 257.253C310.555 257.181 310.605 257.12 310.671 257.079L319.209 254.697C319.289 254.687 319.37 254.706 319.437 254.751C319.504 254.795 319.553 254.862 319.575 254.94C319.597 255.017 319.591 255.1 319.557 255.173C319.523 255.246 319.464 255.305 319.39 255.338L319.394 255.321Z" fill="black"/>
    <path d="M302.35 260.168L293.825 262.631C293.777 262.651 293.726 262.661 293.674 262.66C293.622 262.659 293.57 262.647 293.523 262.625C293.476 262.602 293.435 262.57 293.401 262.531C293.368 262.491 293.343 262.445 293.329 262.395C293.314 262.345 293.311 262.292 293.318 262.241C293.326 262.189 293.344 262.14 293.372 262.096C293.401 262.053 293.438 262.015 293.481 261.987C293.525 261.959 293.574 261.94 293.625 261.932L302.149 259.505C302.24 259.479 302.337 259.49 302.42 259.536C302.503 259.582 302.564 259.659 302.59 259.75C302.616 259.841 302.605 259.938 302.559 260.021C302.513 260.104 302.436 260.165 302.345 260.191L302.35 260.168Z" fill="black"/>
    <path d="M285.3 265.002L276.751 267.346C276.653 267.372 276.549 267.358 276.461 267.307C276.373 267.256 276.309 267.172 276.283 267.074C276.256 266.978 276.269 266.875 276.319 266.788C276.369 266.7 276.451 266.637 276.547 266.61L285.097 264.291C285.144 264.278 285.194 264.274 285.243 264.281C285.291 264.287 285.338 264.303 285.381 264.327C285.424 264.352 285.461 264.384 285.491 264.423C285.521 264.462 285.543 264.507 285.555 264.554C285.58 264.648 285.568 264.747 285.52 264.831C285.472 264.915 285.393 264.976 285.3 265.002Z" fill="black"/>
    <path d="M268.168 269.571L259.547 271.653C259.495 271.668 259.441 271.673 259.387 271.668C259.333 271.662 259.281 271.645 259.234 271.618C259.188 271.591 259.147 271.555 259.114 271.512C259.082 271.469 259.058 271.419 259.046 271.367C259.033 271.314 259.031 271.26 259.041 271.207C259.05 271.154 259.07 271.103 259.099 271.058C259.129 271.012 259.167 270.974 259.212 270.944C259.257 270.914 259.308 270.894 259.361 270.884L267.973 268.819C268.024 268.802 268.078 268.796 268.132 268.801C268.186 268.806 268.238 268.822 268.285 268.848C268.333 268.874 268.374 268.91 268.406 268.953C268.439 268.996 268.463 269.045 268.475 269.098C268.488 269.15 268.489 269.205 268.48 269.258C268.47 269.311 268.45 269.362 268.42 269.407C268.39 269.452 268.35 269.49 268.305 269.519C268.259 269.547 268.208 269.567 268.155 269.575L268.168 269.571Z" fill="black"/>
    <path d="M250.88 273.55L242.165 275.213C242.056 275.234 241.944 275.211 241.853 275.149C241.762 275.088 241.699 274.992 241.678 274.884C241.657 274.775 241.68 274.663 241.742 274.572C241.804 274.481 241.899 274.418 242.008 274.397L250.706 272.76C250.806 272.752 250.906 272.781 250.986 272.842C251.066 272.904 251.12 272.992 251.139 273.091C251.157 273.19 251.139 273.292 251.086 273.378C251.034 273.464 250.951 273.528 250.855 273.557L250.88 273.55Z" fill="black"/>
    <path d="M233.395 276.587L224.576 277.638C224.47 277.639 224.367 277.6 224.288 277.529C224.208 277.458 224.158 277.361 224.146 277.255C224.134 277.149 224.162 277.043 224.224 276.956C224.285 276.87 224.377 276.809 224.481 276.786L233.264 275.758C233.319 275.751 233.375 275.755 233.428 275.77C233.481 275.785 233.531 275.811 233.574 275.845C233.618 275.879 233.654 275.921 233.681 275.969C233.708 276.018 233.725 276.071 233.731 276.126C233.745 276.231 233.718 276.338 233.656 276.424C233.593 276.51 233.5 276.568 233.395 276.587Z" fill="black"/>
    <path d="M215.723 278.296L206.842 278.514C206.783 278.515 206.725 278.505 206.67 278.484C206.616 278.463 206.566 278.431 206.523 278.391C206.481 278.35 206.447 278.302 206.423 278.249C206.4 278.195 206.387 278.137 206.385 278.079C206.384 278.02 206.394 277.962 206.415 277.908C206.436 277.853 206.468 277.803 206.509 277.761C206.549 277.718 206.597 277.684 206.651 277.661C206.704 277.637 206.762 277.624 206.82 277.623L215.656 277.425C215.713 277.424 215.771 277.434 215.825 277.455C215.879 277.476 215.928 277.507 215.969 277.547C216.011 277.587 216.044 277.635 216.067 277.688C216.091 277.741 216.103 277.798 216.104 277.856C216.107 277.963 216.069 278.068 215.999 278.15C215.929 278.231 215.83 278.283 215.723 278.296Z" fill="black"/>
    <path d="M197.956 278.229L193.528 277.882C192.036 277.732 190.557 277.478 189.101 277.119C188.982 277.094 188.877 277.023 188.81 276.921C188.742 276.819 188.719 276.694 188.743 276.575C188.768 276.455 188.839 276.35 188.941 276.283C189.043 276.216 189.168 276.192 189.288 276.217C190.7 276.568 192.136 276.818 193.585 276.965L197.987 277.318C198.047 277.322 198.105 277.338 198.158 277.364C198.212 277.391 198.259 277.428 198.298 277.473C198.337 277.518 198.367 277.57 198.385 277.627C198.404 277.684 198.411 277.743 198.406 277.803C198.399 277.917 198.348 278.025 198.265 278.104C198.182 278.183 198.071 278.228 197.956 278.229Z" fill="black"/>
    <path d="M180.638 274.252C177.901 273.093 175.235 271.771 172.655 270.294C172.601 270.263 172.553 270.222 172.515 270.172C172.477 270.123 172.449 270.066 172.432 270.006C172.399 269.885 172.416 269.755 172.478 269.645C172.541 269.536 172.644 269.456 172.766 269.423C172.888 269.389 173.018 269.406 173.127 269.469C175.673 270.929 178.303 272.237 181.004 273.386C181.119 273.436 181.209 273.529 181.256 273.644C181.303 273.76 181.303 273.89 181.256 274.005C181.207 274.119 181.114 274.209 180.998 274.256C180.882 274.302 180.753 274.3 180.638 274.252Z" fill="black"/>
    <path d="M165.18 265.453C162.782 263.687 160.515 261.749 158.396 259.656C158.345 259.611 158.302 259.557 158.273 259.495C158.243 259.434 158.226 259.367 158.224 259.298C158.221 259.23 158.233 259.162 158.258 259.098C158.283 259.035 158.32 258.977 158.369 258.929C158.417 258.88 158.475 258.843 158.538 258.818C158.602 258.793 158.67 258.781 158.738 258.783C158.806 258.786 158.873 258.803 158.935 258.832C158.996 258.862 159.051 258.904 159.096 258.956C161.176 261.019 163.402 262.93 165.757 264.673C165.808 264.712 165.852 264.76 165.884 264.815C165.917 264.87 165.938 264.932 165.947 264.995C165.956 265.059 165.952 265.123 165.935 265.185C165.919 265.247 165.89 265.305 165.851 265.356C165.814 265.407 165.766 265.449 165.712 265.482C165.658 265.514 165.598 265.535 165.536 265.544C165.473 265.553 165.41 265.55 165.349 265.534C165.288 265.518 165.23 265.491 165.18 265.453Z" fill="black"/>
    <path d="M152.69 252.755C151.013 250.251 149.749 247.494 148.948 244.589C148.93 244.525 148.926 244.458 148.934 244.392C148.943 244.327 148.965 244.263 148.999 244.206C149.033 244.149 149.077 244.099 149.131 244.06C149.184 244.02 149.245 243.992 149.309 243.976C149.439 243.944 149.575 243.964 149.69 244.032C149.804 244.099 149.888 244.209 149.922 244.338C150.693 247.14 151.913 249.798 153.533 252.211C153.569 252.266 153.593 252.327 153.606 252.391C153.618 252.455 153.618 252.521 153.604 252.585C153.591 252.649 153.566 252.709 153.529 252.763C153.492 252.817 153.445 252.864 153.39 252.9C153.335 252.936 153.273 252.962 153.208 252.975C153.142 252.987 153.075 252.987 153.01 252.974C152.945 252.96 152.883 252.934 152.828 252.896C152.773 252.859 152.727 252.811 152.69 252.755Z" fill="black"/>
    <path d="M148.618 235.584C148.92 234.098 149.385 232.651 150.004 231.268C150.304 230.579 150.644 229.908 151.022 229.259L152.136 227.311C152.203 227.194 152.314 227.109 152.445 227.073C152.575 227.038 152.715 227.056 152.832 227.123C152.949 227.191 153.035 227.302 153.07 227.433C153.105 227.563 153.087 227.702 153.02 227.82L153.013 227.854L151.933 229.754C151.557 230.374 151.222 231.018 150.932 231.683C150.344 232.997 149.903 234.372 149.615 235.783C149.602 235.848 149.576 235.91 149.54 235.966C149.503 236.021 149.455 236.068 149.4 236.105C149.345 236.142 149.283 236.168 149.218 236.18C149.152 236.193 149.085 236.192 149.02 236.179C148.955 236.166 148.892 236.141 148.837 236.104C148.781 236.067 148.733 236.02 148.696 235.965C148.659 235.909 148.632 235.847 148.619 235.782C148.606 235.716 148.606 235.649 148.618 235.584Z" fill="black"/>
    <path d="M157.65 220.258C159.713 218.099 161.94 216.103 164.311 214.287C164.364 214.242 164.426 214.207 164.492 214.186C164.559 214.165 164.629 214.158 164.698 214.165C164.768 214.172 164.835 214.193 164.896 214.227C164.957 214.261 165.01 214.307 165.053 214.362C165.096 214.417 165.127 214.48 165.144 214.548C165.162 214.615 165.166 214.685 165.155 214.754C165.144 214.823 165.12 214.889 165.083 214.949C165.046 215.008 164.997 215.059 164.94 215.099C162.617 216.893 160.434 218.862 158.41 220.988C158.317 221.086 158.188 221.142 158.053 221.146C157.918 221.15 157.787 221.1 157.688 221.008C157.634 220.963 157.589 220.907 157.557 220.844C157.526 220.781 157.507 220.712 157.504 220.641C157.5 220.571 157.511 220.5 157.536 220.434C157.562 220.368 157.6 220.308 157.65 220.258Z" fill="black"/>
    <path d="M171.633 209.238C174.171 207.693 176.775 206.27 179.432 204.943C179.553 204.896 179.686 204.897 179.807 204.944C179.928 204.991 180.027 205.081 180.084 205.197C180.142 205.313 180.154 205.446 180.118 205.571C180.083 205.695 180.002 205.802 179.892 205.87C177.262 207.185 174.679 208.594 172.174 210.121C172.057 210.181 171.923 210.194 171.797 210.158C171.671 210.123 171.563 210.041 171.495 209.929C171.427 209.818 171.403 209.685 171.428 209.557C171.454 209.428 171.527 209.314 171.633 209.238Z" fill="black"/>
    <path d="M187.513 201.232L195.774 197.973C195.904 197.924 196.048 197.928 196.175 197.983C196.302 198.039 196.403 198.142 196.455 198.27C196.505 198.4 196.503 198.544 196.447 198.672C196.391 198.799 196.287 198.9 196.158 198.951L187.921 202.178C187.858 202.203 187.789 202.215 187.721 202.214C187.653 202.213 187.585 202.198 187.522 202.17C187.46 202.143 187.403 202.103 187.356 202.054C187.308 202.004 187.271 201.946 187.246 201.882C187.203 201.76 187.206 201.626 187.255 201.506C187.304 201.385 187.396 201.288 187.513 201.232Z" fill="black"/>
    <path d="M204.166 195.061L212.635 192.4C212.766 192.37 212.903 192.39 213.019 192.456C213.136 192.523 213.222 192.631 213.262 192.759C213.302 192.887 213.292 193.026 213.235 193.147C213.177 193.268 213.075 193.363 212.951 193.412L204.508 196.061C204.375 196.103 204.23 196.09 204.106 196.026C203.982 195.961 203.889 195.85 203.846 195.716C203.804 195.583 203.817 195.438 203.882 195.314C203.946 195.19 204.058 195.096 204.191 195.054L204.166 195.061Z" fill="black"/>
    <path d="M221.144 189.917L229.686 187.517C229.754 187.498 229.824 187.493 229.893 187.501C229.963 187.509 230.03 187.531 230.091 187.565C230.152 187.599 230.206 187.645 230.249 187.7C230.292 187.755 230.324 187.818 230.343 187.885C230.362 187.953 230.368 188.023 230.36 188.092C230.351 188.162 230.33 188.229 230.295 188.29C230.261 188.351 230.215 188.405 230.16 188.448C230.106 188.491 230.043 188.523 229.975 188.542L221.439 190.943C221.303 190.981 221.158 190.964 221.035 190.895C220.911 190.826 220.821 190.711 220.782 190.575C220.744 190.439 220.761 190.293 220.83 190.17C220.899 190.047 221.014 189.956 221.15 189.918L221.144 189.917Z" fill="black"/>
    <path d="M238.199 185.09L242.423 183.796C243.834 183.357 245.236 182.935 246.657 182.48C246.793 182.436 246.941 182.448 247.069 182.514C247.196 182.579 247.292 182.692 247.336 182.828C247.38 182.965 247.368 183.113 247.303 183.24C247.237 183.367 247.124 183.464 246.988 183.508L242.754 184.817L238.511 186.119C238.375 186.16 238.229 186.146 238.103 186.079C237.978 186.013 237.884 185.899 237.842 185.764C237.801 185.627 237.815 185.48 237.882 185.354C237.949 185.228 238.062 185.133 238.199 185.09Z" fill="black"/>
    <path d="M255.187 180.026L263.698 177.626C263.768 177.603 263.841 177.595 263.915 177.601C263.988 177.607 264.059 177.628 264.124 177.662C264.188 177.696 264.246 177.743 264.292 177.8C264.338 177.857 264.372 177.923 264.392 177.994C264.412 178.064 264.418 178.138 264.408 178.211C264.399 178.284 264.375 178.354 264.338 178.417C264.301 178.48 264.252 178.535 264.193 178.579C264.134 178.623 264.067 178.654 263.995 178.671L255.459 181.071C255.39 181.09 255.318 181.096 255.248 181.087C255.177 181.078 255.108 181.056 255.046 181.02C254.984 180.985 254.929 180.938 254.885 180.882C254.841 180.825 254.809 180.761 254.79 180.692C254.771 180.623 254.765 180.551 254.774 180.48C254.783 180.409 254.806 180.341 254.841 180.279C254.876 180.216 254.923 180.162 254.98 180.118C255.036 180.074 255.1 180.041 255.169 180.022L255.187 180.026Z" fill="black"/>
    <path d="M272.203 175.136L280.644 172.462C280.784 172.418 280.935 172.432 281.065 172.499C281.129 172.532 281.186 172.578 281.233 172.634C281.279 172.689 281.314 172.753 281.336 172.822C281.358 172.891 281.366 172.964 281.36 173.036C281.353 173.108 281.333 173.178 281.299 173.243C281.266 173.307 281.22 173.364 281.165 173.41C281.109 173.457 281.045 173.492 280.976 173.514L272.517 176.214C272.447 176.243 272.371 176.257 272.295 176.255C272.219 176.253 272.144 176.235 272.075 176.203C272.006 176.17 271.945 176.124 271.895 176.067C271.845 176.009 271.807 175.942 271.784 175.87C271.762 175.797 271.754 175.72 271.763 175.645C271.771 175.569 271.795 175.496 271.833 175.43C271.871 175.364 271.923 175.307 271.984 175.262C272.046 175.217 272.116 175.186 272.19 175.169L272.203 175.136Z" fill="black"/>
    <path d="M289.002 169.61L297.26 166.454C297.396 166.409 297.544 166.419 297.673 166.481C297.802 166.543 297.902 166.653 297.952 166.787C298.002 166.921 297.999 167.069 297.942 167.201C297.885 167.332 297.78 167.437 297.648 167.493L289.379 170.647C289.242 170.699 289.091 170.694 288.958 170.635C288.824 170.576 288.719 170.467 288.666 170.331C288.622 170.193 288.629 170.044 288.688 169.911C288.746 169.779 288.851 169.673 288.983 169.613L289.002 169.61Z" fill="black"/>
    <path d="M305.335 162.916C308.008 161.658 310.617 160.327 313.171 158.882C313.235 158.842 313.307 158.815 313.381 158.803C313.456 158.791 313.532 158.794 313.606 158.812C313.679 158.83 313.748 158.863 313.808 158.908C313.869 158.954 313.919 159.011 313.957 159.077C313.995 159.142 314.019 159.215 314.028 159.29C314.037 159.365 314.031 159.441 314.009 159.514C313.988 159.586 313.953 159.654 313.905 159.712C313.857 159.771 313.798 159.819 313.731 159.854C311.143 161.316 308.494 162.663 305.809 163.924C305.743 163.956 305.671 163.973 305.598 163.977C305.525 163.98 305.452 163.969 305.383 163.945C305.314 163.92 305.251 163.882 305.197 163.832C305.142 163.783 305.099 163.723 305.068 163.657C305.014 163.522 305.011 163.372 305.06 163.235C305.109 163.099 305.207 162.985 305.335 162.916Z" fill="black"/>
    <path d="M320.591 154.135C322.961 152.43 325.155 150.493 327.141 148.352C327.251 148.284 327.381 148.253 327.51 148.266C327.639 148.278 327.76 148.333 327.855 148.421C327.95 148.509 328.013 148.626 328.035 148.754C328.057 148.881 328.036 149.013 327.976 149.127C325.938 151.321 323.687 153.307 321.257 155.056C321.138 155.098 321.008 155.1 320.888 155.063C320.767 155.025 320.661 154.95 320.587 154.848C320.512 154.746 320.472 154.623 320.472 154.497C320.472 154.371 320.513 154.248 320.589 154.146L320.591 154.135Z" fill="black"/>
    <path d="M331.808 141.119C332.328 139.789 332.673 138.396 332.832 136.976C332.914 136.276 332.943 135.57 332.918 134.865C332.872 134.204 332.705 133.556 332.426 132.954C332.404 132.827 332.425 132.695 332.485 132.58C332.545 132.465 332.641 132.374 332.759 132.319C332.877 132.264 333.009 132.25 333.136 132.278C333.262 132.306 333.376 132.375 333.46 132.474C333.8 133.211 334 134.005 334.05 134.815C334.081 135.587 334.053 136.359 333.965 137.126C333.792 138.645 333.421 140.136 332.863 141.56C332.802 141.697 332.692 141.806 332.555 141.865C332.417 141.924 332.262 141.928 332.122 141.877C331.981 141.816 331.87 141.703 331.811 141.562C331.753 141.42 331.752 141.262 331.808 141.119Z" fill="black"/>
    <path d="M325.765 128.24C322.972 127.403 320.102 126.849 317.197 126.586C317.109 126.597 317.02 126.587 316.936 126.559C316.852 126.53 316.775 126.483 316.712 126.42C316.649 126.358 316.6 126.282 316.571 126.198C316.541 126.115 316.53 126.025 316.539 125.937C316.549 125.849 316.578 125.764 316.625 125.688C316.672 125.613 316.735 125.549 316.81 125.501C316.885 125.454 316.969 125.423 317.058 125.413C317.146 125.403 317.235 125.412 317.319 125.441C320.304 125.711 323.254 126.281 326.124 127.143C326.24 127.212 326.329 127.317 326.376 127.442C326.424 127.568 326.428 127.706 326.387 127.833C326.346 127.961 326.262 128.071 326.15 128.145C326.038 128.219 325.905 128.253 325.771 128.241L325.765 128.24Z" fill="black"/>
    <path d="M308.392 126.12L299.578 126.273C299.437 126.256 299.307 126.188 299.211 126.083C299.116 125.977 299.062 125.841 299.059 125.699C299.056 125.557 299.105 125.419 299.195 125.309C299.286 125.2 299.413 125.127 299.554 125.104L308.427 124.957C308.512 124.94 308.599 124.942 308.683 124.962C308.767 124.983 308.846 125.022 308.913 125.076C308.981 125.13 309.035 125.199 309.073 125.277C309.111 125.354 309.132 125.44 309.133 125.526C309.135 125.613 309.117 125.698 309.082 125.777C309.046 125.856 308.994 125.927 308.928 125.983C308.863 126.04 308.786 126.081 308.702 126.105C308.619 126.128 308.532 126.133 308.446 126.119L308.392 126.12Z" fill="black"/>
    <path d="M292.368 126.992L279.226 127.81C279.104 127.827 278.978 127.827 278.857 127.81C278.735 127.792 278.621 127.757 278.52 127.708C278.42 127.658 278.337 127.595 278.276 127.523C278.214 127.45 278.177 127.37 278.165 127.287C278.154 127.204 278.169 127.12 278.209 127.041C278.249 126.962 278.314 126.89 278.399 126.829C278.483 126.768 278.587 126.72 278.701 126.688C278.816 126.655 278.939 126.64 279.064 126.642L292.251 125.823C292.467 125.827 292.674 125.883 292.832 125.982C292.99 126.081 293.088 126.215 293.109 126.359C293.129 126.503 293.069 126.647 292.941 126.764C292.812 126.881 292.625 126.962 292.413 126.992L292.368 126.992Z" fill="black"/>
    <path d="M273.154 128.661L264.372 129.828C264.226 129.832 264.083 129.781 263.973 129.686C263.862 129.591 263.79 129.458 263.771 129.314C263.752 129.169 263.788 129.022 263.871 128.902C263.953 128.782 264.078 128.696 264.22 128.663L273.015 127.462C273.092 127.451 273.17 127.456 273.246 127.476C273.321 127.496 273.391 127.531 273.453 127.578C273.514 127.625 273.566 127.684 273.605 127.751C273.644 127.819 273.669 127.893 273.679 127.97C273.69 128.047 273.685 128.125 273.665 128.2C273.645 128.275 273.61 128.345 273.563 128.407C273.516 128.469 273.457 128.521 273.39 128.559C273.323 128.598 273.248 128.624 273.171 128.634L273.154 128.661Z" fill="black"/>
    <path d="M255.518 130.659L246.712 131.327C246.574 131.314 246.446 131.252 246.349 131.153C246.252 131.054 246.192 130.925 246.181 130.786C246.17 130.648 246.208 130.511 246.288 130.398C246.368 130.285 246.486 130.204 246.62 130.168L255.456 129.501C255.538 129.481 255.624 129.48 255.707 129.498C255.791 129.515 255.869 129.55 255.938 129.6C256.006 129.65 256.063 129.715 256.104 129.789C256.146 129.863 256.171 129.945 256.177 130.03C256.184 130.115 256.172 130.2 256.143 130.28C256.114 130.359 256.067 130.432 256.008 130.492C255.948 130.552 255.876 130.599 255.796 130.629C255.717 130.659 255.632 130.671 255.547 130.665L255.518 130.659Z" fill="black"/>
    <path d="M237.847 132L229.018 132.693C228.865 132.703 228.714 132.653 228.597 132.553C228.481 132.454 228.407 132.312 228.392 132.16C228.384 132.008 228.435 131.858 228.534 131.743C228.633 131.627 228.773 131.555 228.925 131.54L237.766 130.843C237.903 130.858 238.031 130.921 238.126 131.02C238.222 131.119 238.28 131.249 238.29 131.386C238.3 131.523 238.262 131.66 238.183 131.772C238.103 131.885 237.986 131.965 237.853 132.001L237.847 132Z" fill="black"/>
    <path d="M220.18 133.39L211.348 134.101C211.262 134.132 211.171 134.143 211.08 134.133C210.99 134.123 210.903 134.093 210.826 134.043C210.749 133.994 210.685 133.928 210.638 133.85C210.591 133.772 210.563 133.684 210.556 133.594C210.549 133.503 210.562 133.412 210.596 133.327C210.63 133.242 210.683 133.167 210.751 133.106C210.818 133.045 210.899 133.001 210.987 132.977C211.075 132.952 211.167 132.949 211.256 132.966L220.09 132.25C220.175 132.22 220.266 132.211 220.356 132.222C220.445 132.233 220.531 132.265 220.606 132.314C220.682 132.364 220.745 132.43 220.791 132.507C220.836 132.585 220.864 132.672 220.871 132.762C220.878 132.851 220.865 132.942 220.832 133.025C220.798 133.109 220.747 133.184 220.68 133.245C220.613 133.306 220.534 133.35 220.447 133.375C220.36 133.401 220.269 133.406 220.18 133.39Z" fill="black"/>
    <path d="M202.524 134.817L193.689 135.539C193.603 135.573 193.511 135.585 193.419 135.577C193.328 135.568 193.24 135.538 193.162 135.489C193.084 135.441 193.019 135.374 192.971 135.296C192.923 135.217 192.894 135.129 192.887 135.037C192.879 134.945 192.893 134.853 192.927 134.768C192.962 134.683 193.015 134.607 193.084 134.546C193.153 134.485 193.235 134.441 193.324 134.418C193.413 134.394 193.506 134.392 193.596 134.41L202.433 133.683C202.559 133.707 202.675 133.772 202.761 133.868C202.847 133.965 202.899 134.086 202.91 134.215C202.92 134.344 202.888 134.472 202.818 134.581C202.749 134.69 202.645 134.773 202.524 134.817Z" fill="black"/>
    <path d="M184.857 136.263L176.018 137.003C175.942 137.014 175.865 137.01 175.79 136.99C175.716 136.97 175.647 136.935 175.586 136.887C175.526 136.839 175.477 136.779 175.44 136.711C175.404 136.644 175.382 136.569 175.376 136.492C175.37 136.416 175.38 136.339 175.405 136.266C175.43 136.193 175.469 136.126 175.521 136.069C175.573 136.013 175.636 135.967 175.706 135.935C175.776 135.904 175.852 135.887 175.929 135.886L184.758 135.163C184.832 135.156 184.906 135.164 184.977 135.186C185.047 135.208 185.112 135.244 185.169 135.291C185.225 135.339 185.272 135.397 185.305 135.463C185.339 135.529 185.359 135.601 185.365 135.674C185.371 135.822 185.322 135.967 185.227 136.08C185.133 136.193 184.999 136.267 184.852 136.286L184.857 136.263Z" fill="black"/>
    <path d="M167.19 137.694L158.358 138.405C158.285 138.41 158.212 138.402 158.142 138.379C158.073 138.356 158.008 138.32 157.953 138.272C157.898 138.225 157.852 138.167 157.819 138.102C157.786 138.037 157.766 137.965 157.761 137.893C157.755 137.82 157.764 137.747 157.787 137.677C157.809 137.608 157.846 137.544 157.893 137.488C157.941 137.433 157.999 137.387 158.064 137.354C158.129 137.321 158.2 137.301 158.273 137.296L167.1 136.584C167.173 136.578 167.246 136.586 167.316 136.609C167.385 136.631 167.45 136.667 167.506 136.714C167.561 136.762 167.607 136.82 167.641 136.885C167.674 136.95 167.694 137.021 167.7 137.094C167.706 137.167 167.698 137.24 167.675 137.31C167.653 137.379 167.617 137.444 167.57 137.5C167.522 137.555 167.464 137.601 167.399 137.635C167.334 137.668 167.263 137.688 167.19 137.694Z" fill="black"/>
    <path d="M149.524 139.101L140.689 139.793C140.544 139.804 140.4 139.756 140.29 139.661C140.179 139.566 140.111 139.431 140.1 139.285C140.09 139.14 140.137 138.996 140.232 138.886C140.327 138.775 140.463 138.707 140.608 138.696L149.438 137.997C149.585 137.986 149.729 138.034 149.841 138.129C149.952 138.224 150.021 138.36 150.033 138.506C150.039 138.578 150.031 138.651 150.009 138.72C149.988 138.789 149.952 138.853 149.906 138.909C149.859 138.964 149.802 139.01 149.737 139.043C149.673 139.076 149.602 139.096 149.53 139.102L149.524 139.101Z" fill="black"/>
    <path d="M131.858 140.491L123.022 141.189C122.878 141.2 122.735 141.154 122.626 141.06C122.516 140.966 122.449 140.833 122.437 140.689C122.426 140.545 122.473 140.402 122.567 140.293C122.661 140.183 122.794 140.116 122.938 140.104L131.768 139.405C131.913 139.393 132.056 139.438 132.167 139.531C132.278 139.624 132.347 139.757 132.36 139.901C132.372 140.046 132.327 140.189 132.234 140.3C132.141 140.411 132.008 140.48 131.864 140.493L131.858 140.491Z" fill="black"/>
    <path d="M114.182 141.826L105.329 142.345C105.258 142.35 105.187 142.34 105.12 142.317C105.053 142.294 104.992 142.258 104.939 142.212C104.886 142.165 104.842 142.108 104.811 142.044C104.78 141.981 104.762 141.912 104.757 141.841C104.753 141.771 104.762 141.7 104.785 141.633C104.808 141.566 104.844 141.504 104.891 141.451C104.938 141.398 104.995 141.355 105.058 141.324C105.122 141.292 105.191 141.274 105.261 141.27L114.099 140.741C114.242 140.734 114.383 140.783 114.491 140.879C114.599 140.974 114.665 141.108 114.675 141.252C114.682 141.395 114.633 141.535 114.537 141.642C114.442 141.749 114.308 141.814 114.165 141.822L114.182 141.826Z" fill="black"/>
    <path d="M96.4589 142.698L87.5836 142.827C87.4423 142.829 87.3061 142.775 87.2048 142.676C87.1035 142.578 87.0455 142.443 87.0434 142.302C87.0414 142.161 87.0955 142.025 87.1939 141.923C87.2923 141.822 87.4269 141.764 87.5681 141.762L96.4146 141.627C96.4889 141.62 96.564 141.627 96.6351 141.65C96.7063 141.673 96.7719 141.711 96.8277 141.76C96.8836 141.81 96.9284 141.87 96.9595 141.938C96.9906 142.006 97.0071 142.08 97.0081 142.155C97.0091 142.229 96.9945 142.304 96.9653 142.372C96.936 142.441 96.8928 142.503 96.8383 142.554C96.7838 142.605 96.7192 142.644 96.6487 142.669C96.5782 142.694 96.5033 142.704 96.4288 142.698L96.4589 142.698Z" fill="black"/>
    <path d="M78.7065 142.682L69.8313 142.226C69.694 142.215 69.5663 142.151 69.4751 142.048C69.3839 141.945 69.3363 141.81 69.3423 141.673C69.3518 141.535 69.4152 141.406 69.5187 141.315C69.6223 141.223 69.7577 141.176 69.8957 141.184L78.7245 141.661C78.7942 141.664 78.8625 141.682 78.9255 141.712C78.9885 141.742 79.045 141.784 79.0917 141.836C79.1384 141.888 79.1744 141.949 79.1977 142.014C79.2209 142.08 79.231 142.15 79.2273 142.22C79.2236 142.289 79.2062 142.358 79.1761 142.421C79.146 142.484 79.1037 142.54 79.0518 142.587C78.9999 142.634 78.9393 142.67 78.8734 142.693C78.8076 142.716 78.7378 142.726 78.6681 142.723L78.7065 142.682Z" fill="black"/>
    <path d="M60.9971 141.332L52.2186 140.027C52.151 140.017 52.086 139.994 52.0273 139.959C51.9686 139.924 51.9175 139.877 51.8767 139.823C51.8359 139.768 51.8064 139.705 51.7897 139.639C51.7731 139.573 51.7697 139.504 51.7797 139.436C51.7897 139.368 51.8129 139.303 51.848 139.245C51.8832 139.186 51.9295 139.135 51.9844 139.094C52.0393 139.053 52.1017 139.024 52.168 139.007C52.2343 138.991 52.3033 138.987 52.3709 138.997L52.3999 139.003L61.1378 140.3C61.2654 140.33 61.3769 140.408 61.4503 140.517C61.5237 140.626 61.5537 140.758 61.5345 140.888C61.5153 141.018 61.4481 141.136 61.3463 141.218C61.2445 141.301 61.1154 141.343 60.9843 141.336L60.9971 141.332Z" fill="black"/>
    <path d="M43.4932 138.166C40.5945 137.429 37.7744 136.41 35.0731 135.126C35.0123 135.096 34.958 135.054 34.9134 135.003C34.8687 134.952 34.8346 134.893 34.8128 134.829C34.791 134.765 34.7821 134.697 34.7866 134.63C34.791 134.562 34.8087 134.496 34.8387 134.435C34.8686 134.374 34.9103 134.32 34.9612 134.276C35.0121 134.231 35.0714 134.197 35.1355 134.175C35.1997 134.153 35.2675 134.144 35.3351 134.149C35.4027 134.153 35.4687 134.171 35.5295 134.201C38.1713 135.451 40.9281 136.442 43.7613 137.16C43.8275 137.178 43.8895 137.208 43.9438 137.25C43.9982 137.291 44.0438 137.343 44.0781 137.402C44.1124 137.461 44.1347 137.527 44.1437 137.595C44.1526 137.662 44.1481 137.731 44.1304 137.797C44.0937 137.93 44.0064 138.043 43.8872 138.112C43.7681 138.181 43.6266 138.201 43.4932 138.166Z" fill="black"/>
    <path d="M27.5207 128.098C26.777 126.696 26.4632 125.106 26.6185 123.527C26.7881 121.988 27.2557 120.497 27.9952 119.137C28.0257 119.077 28.0679 119.024 28.1193 118.98C28.1707 118.936 28.2303 118.903 28.2946 118.883C28.3589 118.862 28.4266 118.855 28.4938 118.861C28.561 118.867 28.6263 118.886 28.6859 118.918C28.8052 118.982 28.8948 119.09 28.9358 119.219C28.9768 119.348 28.9658 119.488 28.9053 119.609C28.2286 120.851 27.7981 122.212 27.6375 123.617C27.5029 124.999 27.7801 126.391 28.4343 127.617C28.4663 127.676 28.4863 127.742 28.4931 127.809C28.4998 127.877 28.4933 127.945 28.4737 128.01C28.4542 128.074 28.422 128.135 28.3792 128.187C28.3363 128.24 28.2835 128.283 28.2238 128.315C28.1641 128.347 28.0987 128.367 28.0313 128.374C27.9639 128.381 27.8958 128.374 27.831 128.355C27.7661 128.335 27.7057 128.303 27.6533 128.26C27.6009 128.217 27.5574 128.164 27.5253 128.105L27.5207 128.098Z" fill="black"/>
    <path d="M34.2572 113.234C36.4154 111.183 38.7071 109.276 41.1173 107.528C41.1703 107.481 41.2324 107.446 41.2997 107.425C41.3669 107.404 41.4378 107.397 41.5079 107.405C41.578 107.413 41.6457 107.435 41.7067 107.47C41.7677 107.505 41.8207 107.553 41.8623 107.61C41.9039 107.667 41.9332 107.732 41.9483 107.801C41.9635 107.869 41.9642 107.941 41.9503 108.01C41.9364 108.079 41.9083 108.144 41.8678 108.202C41.8272 108.26 41.7751 108.308 41.7148 108.345C39.3432 110.071 37.0874 111.95 34.9617 113.971C34.8624 114.065 34.7298 114.115 34.5931 114.111C34.4565 114.108 34.327 114.05 34.2331 113.95C34.1392 113.851 34.0887 113.718 34.0926 113.582C34.0964 113.445 34.1545 113.316 34.2538 113.222L34.2572 113.234Z" fill="black"/>
    <path d="M48.4887 102.548L56.1625 98.1007C56.2191 98.0665 56.2819 98.044 56.3474 98.0345C56.4128 98.0249 56.4795 98.0285 56.5435 98.0451C56.6075 98.0617 56.6675 98.0909 56.7201 98.131C56.7727 98.1711 56.8167 98.2213 56.8495 98.2787C56.9161 98.394 56.9342 98.531 56.8997 98.6596C56.8653 98.7883 56.7811 98.8979 56.6657 98.9645L49.0383 103.421C48.9817 103.455 48.9188 103.478 48.8534 103.487C48.788 103.497 48.7213 103.493 48.6573 103.477C48.5933 103.46 48.5332 103.431 48.4806 103.391C48.4281 103.351 48.3841 103.301 48.3512 103.243C48.2836 103.127 48.2645 102.99 48.2981 102.86C48.3317 102.73 48.4152 102.619 48.5304 102.55L48.4887 102.548Z" fill="black"/>
    <path d="M64.0491 93.9928L72.1068 90.2279C72.2245 90.1732 72.3592 90.1674 72.4812 90.2118C72.6032 90.2562 72.7026 90.3472 72.7576 90.4648C72.7855 90.5229 72.8015 90.5861 72.8047 90.6505C72.8079 90.7149 72.7981 90.7793 72.7761 90.8399C72.754 90.9005 72.7201 90.9561 72.6762 91.0034C72.6324 91.0508 72.5795 91.0889 72.5207 91.1155L64.5095 94.8598C64.3882 94.9141 64.2504 94.9188 64.1258 94.8728C64.0011 94.8267 63.8994 94.7337 63.8426 94.6136C63.7883 94.4933 63.7836 94.3565 63.8295 94.2328C63.8753 94.1091 63.9681 94.0084 64.0876 93.9525L64.0491 93.9928Z" fill="black"/>
    <path d="M80.3237 86.8452C83.098 85.7952 85.8917 84.7974 88.7513 84.0062C88.811 83.9892 88.8735 83.9841 88.9352 83.9913C88.9969 83.9984 89.0567 84.0177 89.1109 84.0479C89.1652 84.0782 89.2129 84.1188 89.2515 84.1676C89.29 84.2163 89.3186 84.2721 89.3355 84.3319C89.3694 84.4541 89.3534 84.5847 89.291 84.6951C89.2286 84.8055 89.125 84.8867 89.0028 84.9207C86.1815 85.7017 83.4006 86.6961 80.6507 87.7451C80.5904 87.7725 80.5252 87.7873 80.459 87.7886C80.3928 87.7899 80.3271 87.7776 80.2658 87.7524C80.2046 87.7273 80.1491 87.6898 80.1029 87.6424C80.0567 87.595 80.0207 87.5387 79.9972 87.4768C79.9736 87.415 79.963 87.3489 79.9659 87.2828C79.9688 87.2167 79.9853 87.1518 80.0143 87.0923C80.0433 87.0328 80.0841 86.9798 80.1344 86.9367C80.1846 86.8936 80.2431 86.8613 80.3064 86.8416L80.3237 86.8452Z" fill="black"/>
    <path d="M97.3634 81.8234L105.969 79.727C106.03 79.7052 106.095 79.6965 106.159 79.7013C106.223 79.706 106.286 79.7242 106.342 79.7547C106.399 79.7851 106.449 79.8271 106.488 79.878C106.528 79.9289 106.556 79.9874 106.572 80.05C106.587 80.1125 106.59 80.1776 106.578 80.241C106.567 80.3045 106.543 80.3649 106.507 80.4183C106.471 80.4717 106.424 80.517 106.369 80.5512C106.315 80.5854 106.254 80.6078 106.19 80.6169L97.5872 82.7261C97.4666 82.7554 97.3393 82.7361 97.2329 82.6724C97.1264 82.6087 97.0493 82.5056 97.0182 82.3855C96.9895 82.2651 97.0097 82.1384 97.0745 82.033C97.1392 81.9276 97.2431 81.8522 97.3634 81.8234Z" fill="black"/>
    <path d="M114.612 77.7111L123.254 75.7609C123.369 75.7352 123.49 75.7558 123.59 75.8182C123.69 75.8806 123.761 75.9797 123.789 76.0943C123.802 76.1516 123.804 76.211 123.794 76.269C123.784 76.327 123.762 76.3824 123.731 76.432C123.699 76.4816 123.658 76.5245 123.61 76.558C123.561 76.5916 123.507 76.6152 123.449 76.6275L114.811 78.5905C114.699 78.6034 114.588 78.5749 114.496 78.5105C114.405 78.4461 114.34 78.3503 114.315 78.2414C114.29 78.1325 114.306 78.0181 114.359 77.9201C114.413 77.8221 114.501 77.7472 114.606 77.7099L114.612 77.7111Z" fill="black"/>
    <path d="M99.5882 89.4979L108.248 87.6659C108.305 87.6516 108.365 87.6489 108.423 87.658C108.481 87.6671 108.536 87.6879 108.586 87.719C108.636 87.7501 108.679 87.791 108.713 87.8392C108.747 87.8874 108.77 87.9419 108.783 87.9994C108.797 88.0568 108.8 88.1166 108.791 88.1752C108.782 88.2338 108.761 88.2899 108.729 88.3399C108.697 88.39 108.655 88.4329 108.606 88.466C108.557 88.4992 108.502 88.5218 108.443 88.5326L99.7876 90.4016C99.7306 90.416 99.6713 90.4186 99.6132 90.4095C99.5551 90.4004 99.4994 90.3797 99.4495 90.3485C99.3996 90.3174 99.3565 90.2765 99.3228 90.2283C99.2891 90.1802 99.2655 90.1257 99.2533 90.0682C99.2381 90.0111 99.2347 89.9515 99.2434 89.8931C99.2522 89.8347 99.2728 89.7787 99.3041 89.7286C99.3354 89.6785 99.3766 89.6354 99.4252 89.6019C99.4738 89.5683 99.5288 89.5452 99.5868 89.5338L99.5882 89.4979Z" fill="black"/>
    <path d="M149.248 70.1862L157.925 68.3578C157.978 68.3459 158.033 68.3447 158.086 68.3543C158.139 68.3638 158.189 68.384 158.234 68.4136C158.28 68.4432 158.318 68.4816 158.348 68.5264C158.378 68.5713 158.399 68.6217 158.409 68.6747C158.42 68.7273 158.421 68.7815 158.411 68.8343C158.401 68.8871 158.38 68.9374 158.351 68.9824C158.322 69.0273 158.283 69.066 158.239 69.0962C158.195 69.1263 158.145 69.1474 158.092 69.1582L149.426 70.989C149.319 71.0088 149.208 70.9859 149.117 70.9252C149.026 70.8644 148.963 70.7707 148.94 70.6638C148.917 70.557 148.937 70.4454 148.995 70.353C149.053 70.2605 149.145 70.1945 149.252 70.1688L149.248 70.1862Z" fill="black"/>
    <path d="M166.59 66.5705L175.262 64.7409C175.312 64.7294 175.365 64.7281 175.416 64.7371C175.467 64.7461 175.516 64.7652 175.559 64.7933C175.603 64.8214 175.641 64.8579 175.67 64.9007C175.699 64.9436 175.72 64.9918 175.73 65.0427C175.752 65.1448 175.732 65.2513 175.676 65.339C175.619 65.4268 175.53 65.4887 175.428 65.5112L166.757 67.3407C166.652 67.3624 166.544 67.3416 166.454 67.2831C166.365 67.2245 166.303 67.133 166.281 67.0285C166.26 66.9241 166.281 66.8153 166.339 66.7262C166.398 66.637 166.489 66.5747 166.594 66.5531L166.59 66.5705Z" fill="black"/>
    <path d="M183.929 62.9232L192.586 61.0484C192.635 61.0378 192.685 61.0368 192.734 61.0456C192.782 61.0544 192.829 61.0728 192.871 61.0996C192.913 61.1264 192.949 61.1612 192.977 61.202C193.005 61.2428 193.026 61.2887 193.036 61.3373C193.047 61.3858 193.048 61.4359 193.039 61.4848C193.03 61.5337 193.012 61.5803 192.985 61.6221C192.958 61.6639 192.923 61.7 192.882 61.7283C192.842 61.7567 192.796 61.7767 192.747 61.7873L184.076 63.6713C184.027 63.6822 183.976 63.6831 183.926 63.6742C183.877 63.6653 183.829 63.6467 183.787 63.6194C183.744 63.5921 183.707 63.5568 183.678 63.5153C183.649 63.4738 183.629 63.4271 183.618 63.3777C183.607 63.3284 183.606 63.2774 183.615 63.2276C183.624 63.1779 183.643 63.1304 183.67 63.0879C183.697 63.0453 183.733 63.0086 183.774 62.9797C183.816 62.9508 183.863 62.9304 183.912 62.9196L183.929 62.9232Z" fill="black"/>
    <path d="M201.231 59.1367L209.87 57.1436C209.963 57.122 210.061 57.1384 210.142 57.1891C210.223 57.2398 210.281 57.3206 210.302 57.4138C210.324 57.5071 210.308 57.6051 210.257 57.6862C210.206 57.7674 210.125 57.8251 210.032 57.8466L201.399 59.8409C201.352 59.8522 201.303 59.8541 201.255 59.8465C201.207 59.8389 201.162 59.822 201.12 59.7967C201.079 59.7713 201.043 59.7381 201.015 59.699C200.986 59.6598 200.966 59.6154 200.955 59.5683C200.943 59.5212 200.941 59.4724 200.949 59.4246C200.957 59.3767 200.974 59.3309 200.999 59.2897C201.024 59.2484 201.057 59.2125 201.097 59.1841C201.136 59.1556 201.18 59.1352 201.227 59.1239L201.231 59.1367Z" fill="black"/>
    <path d="M218.485 55.1092L227.08 52.9745C227.124 52.9631 227.169 52.9604 227.214 52.9668C227.258 52.9732 227.301 52.9883 227.339 53.0114C227.378 53.0346 227.411 53.0652 227.438 53.1014C227.464 53.1377 227.483 53.1789 227.494 53.2226C227.505 53.2665 227.508 53.3122 227.501 53.3571C227.495 53.402 227.48 53.4452 227.457 53.4842C227.433 53.5232 227.403 53.5572 227.366 53.5842C227.33 53.6112 227.288 53.6307 227.244 53.6416L218.646 55.7879C218.556 55.8101 218.461 55.7956 218.381 55.7475C218.302 55.6994 218.245 55.6217 218.222 55.5316C218.2 55.4414 218.215 55.3462 218.263 55.2667C218.311 55.1873 218.389 55.1302 218.479 55.108L218.485 55.1092Z" fill="black"/>
    <path d="M235.65 50.7465L244.191 48.4076C244.233 48.396 244.277 48.3928 244.32 48.3983C244.364 48.4037 244.405 48.4175 244.443 48.4391C244.481 48.4606 244.514 48.4894 244.541 48.5238C244.568 48.5581 244.587 48.5974 244.599 48.6394C244.61 48.6814 244.613 48.7253 244.608 48.7685C244.603 48.8117 244.589 48.8534 244.567 48.8912C244.546 48.9291 244.517 48.9623 244.483 48.989C244.448 49.0157 244.409 49.0354 244.367 49.047L235.822 51.4033C235.778 51.4233 235.73 51.4336 235.681 51.4334C235.633 51.4333 235.585 51.4226 235.541 51.4022C235.497 51.3818 235.458 51.3521 235.426 51.3153C235.395 51.2784 235.372 51.2351 235.359 51.1885C235.345 51.1418 235.342 51.0929 235.35 51.045C235.357 50.9971 235.375 50.9513 235.402 50.9109C235.429 50.8705 235.464 50.8363 235.505 50.8107C235.546 50.7851 235.592 50.7687 235.64 50.7626L235.65 50.7465Z" fill="black"/>
    <path d="M252.705 45.9733L261.092 43.1862C261.172 43.161 261.258 43.1682 261.333 43.2061C261.407 43.2441 261.464 43.3098 261.491 43.3891C261.516 43.4679 261.508 43.5534 261.471 43.627C261.433 43.7006 261.367 43.7562 261.289 43.7817L252.867 46.5918C252.827 46.6049 252.785 46.6101 252.743 46.6069C252.701 46.6038 252.66 46.5924 252.623 46.5735C252.585 46.5545 252.552 46.5284 252.524 46.4965C252.497 46.4646 252.476 46.4277 252.463 46.3877C252.45 46.3478 252.445 46.3056 252.448 46.2637C252.451 46.2218 252.462 46.1809 252.481 46.1433C252.5 46.1058 252.526 46.0723 252.558 46.0449C252.59 46.0175 252.627 45.9966 252.667 45.9835L252.705 45.9733Z" fill="black"/>
    <path fill-rule="evenodd" clip-rule="evenodd" d="M273.105 174.208C323.075 168.989 363.043 157.267 362.375 148.027C361.707 138.787 320.656 135.528 270.685 140.748C260.219 141.841 250.191 143.219 240.884 144.8L181.485 167.4C183.498 176.278 223.994 179.338 273.105 174.208Z" fill="black"/>
    <path d="M181.415 166.929C181.426 167.088 181.45 167.245 181.485 167.4L240.884 144.8C205.755 150.768 180.887 159.624 181.415 166.929Z" fill="#F1EFED"/>
    <path d="M181.485 167.4C183.498 176.278 223.994 179.338 273.105 174.208C323.075 168.989 363.043 157.267 362.375 148.027C361.707 138.787 320.656 135.528 270.685 140.748C260.219 141.841 250.191 143.219 240.884 144.8M181.485 167.4C181.45 167.245 181.426 167.088 181.415 166.929C180.887 159.624 205.755 150.768 240.884 144.8M181.485 167.4L240.884 144.8" stroke="black" stroke-width="2"/>
    <ellipse cx="95.0058" cy="22.4895" rx="95.0058" ry="22.4895" transform="matrix(0.999475 0.0323875 -0.167555 0.985863 178.09 116.852)" fill="#F1EFED" stroke="black" stroke-width="1.13" stroke-linejoin="round"/>
    <path d="M202.373 141.998C202.762 142.21 203.055 142.482 203.251 142.813C203.447 143.135 203.542 143.504 203.537 143.92C203.531 144.376 203.418 144.783 203.198 145.14C202.986 145.489 202.674 145.766 202.264 145.969C201.853 146.171 201.364 146.269 200.796 146.262L197.028 146.215L197.133 137.816L200.888 137.863C201.432 137.87 201.899 137.975 202.288 138.18C202.678 138.385 202.971 138.661 203.166 139.007C203.37 139.354 203.469 139.743 203.464 140.175C203.459 140.575 203.366 140.93 203.186 141.24C203.007 141.549 202.735 141.802 202.373 141.998ZM200.783 141.534C201.263 141.54 201.624 141.432 201.867 141.211C202.118 140.982 202.246 140.652 202.251 140.22C202.261 139.396 201.782 138.978 200.815 138.966L198.319 138.935L198.287 141.503L200.783 141.534ZM200.75 145.158C201.245 145.164 201.623 145.056 201.882 144.836C202.14 144.615 202.272 144.288 202.278 143.857C202.283 143.441 202.159 143.127 201.905 142.916C201.652 142.697 201.278 142.584 200.782 142.578L198.274 142.547L198.242 145.126L200.75 145.158ZM208.213 140.234C208.829 140.242 209.363 140.38 209.816 140.65C210.277 140.92 210.628 141.3 210.87 141.791C211.112 142.274 211.229 142.84 211.221 143.488C211.219 143.656 211.213 143.78 211.204 143.86L206.285 143.798C206.359 144.263 206.57 144.65 206.918 144.958C207.274 145.259 207.689 145.412 208.161 145.418C208.936 145.427 209.492 145.15 209.827 144.587L211.003 144.601C210.804 145.159 210.442 145.614 209.918 145.968C209.393 146.313 208.803 146.482 208.147 146.474C207.563 146.466 207.037 146.328 206.568 146.058C206.1 145.78 205.737 145.404 205.478 144.928C205.22 144.445 205.095 143.908 205.102 143.316C205.11 142.724 205.248 142.193 205.518 141.725C205.788 141.248 206.157 140.881 206.624 140.622C207.099 140.356 207.629 140.227 208.213 140.234ZM208.176 141.242C207.705 141.236 207.295 141.379 206.947 141.67C206.607 141.962 206.395 142.34 206.309 142.803L209.993 142.848C209.951 142.368 209.759 141.981 209.419 141.689C209.087 141.397 208.672 141.248 208.176 141.242ZM214.668 141.514L214.629 144.682C214.625 144.938 214.687 145.135 214.813 145.273C214.947 145.41 215.179 145.481 215.507 145.485C215.811 145.489 216.075 145.468 216.299 145.423L216.286 146.467C216.054 146.536 215.777 146.569 215.457 146.565C214.801 146.557 214.307 146.394 213.975 146.078C213.643 145.754 213.481 145.284 213.489 144.668L213.528 141.5L212.328 141.485L212.342 140.405L213.541 140.42L213.561 138.861L214.701 138.875L214.681 140.435L217.681 140.472L217.668 141.552L214.668 141.514ZM219.615 141.576L219.576 144.744C219.573 145 219.63 145.197 219.748 145.334C219.875 145.472 220.09 145.542 220.394 145.546C220.682 145.55 220.926 145.529 221.127 145.483L221.114 146.527C220.897 146.596 220.632 146.629 220.32 146.625C219.049 146.609 218.42 145.978 218.436 144.73L218.475 141.562L217.275 141.547L217.289 140.467L218.489 140.482L218.508 138.922L219.648 138.936L219.629 140.496L221.308 140.517L221.295 141.597L219.615 141.576ZM225.644 140.451C226.26 140.459 226.795 140.597 227.247 140.867C227.708 141.137 228.059 141.517 228.301 142.008C228.543 142.491 228.66 143.057 228.652 143.705C228.65 143.873 228.645 143.997 228.636 144.076L223.716 144.015C223.79 144.48 224.001 144.867 224.35 145.175C224.706 145.476 225.12 145.629 225.592 145.635C226.368 145.644 226.923 145.367 227.258 144.803L228.434 144.818C228.235 145.376 227.874 145.831 227.349 146.185C226.825 146.53 226.235 146.699 225.579 146.691C224.995 146.683 224.469 146.545 224 146.275C223.531 145.997 223.168 145.621 222.91 145.145C222.652 144.662 222.527 144.124 222.534 143.533C222.541 142.941 222.68 142.41 222.95 141.942C223.22 141.465 223.588 141.097 224.056 140.839C224.531 140.573 225.061 140.444 225.644 140.451ZM225.608 141.459C225.136 141.453 224.726 141.596 224.378 141.887C224.039 142.179 223.826 142.557 223.74 143.019L227.424 143.065C227.382 142.585 227.191 142.198 226.85 141.906C226.518 141.614 226.104 141.465 225.608 141.459ZM233.733 140.552C233.925 140.554 234.105 140.568 234.272 140.594L234.258 141.71C234.115 141.676 233.887 141.658 233.575 141.654C233.223 141.649 232.91 141.725 232.636 141.882C232.37 142.039 232.16 142.252 232.004 142.522C231.857 142.784 231.781 143.076 231.777 143.395L231.737 146.647L230.597 146.633L230.672 140.634L231.751 140.647L231.74 141.571C231.968 141.254 232.255 141.005 232.601 140.826C232.956 140.638 233.333 140.547 233.733 140.552ZM239.461 143.743C239.469 143.167 239.615 142.645 239.901 142.176C240.187 141.7 240.576 141.329 241.067 141.063C241.558 140.789 242.1 140.656 242.692 140.663C243.356 140.671 243.95 140.875 244.473 141.273C245.004 141.664 245.349 142.172 245.51 142.798L244.262 142.783C244.13 142.461 243.913 142.206 243.611 142.019C243.318 141.823 242.987 141.723 242.619 141.718C242.243 141.714 241.906 141.801 241.608 141.982C241.309 142.154 241.074 142.399 240.902 142.717C240.73 143.027 240.642 143.374 240.637 143.758C240.633 144.142 240.712 144.495 240.876 144.817C241.04 145.131 241.269 145.382 241.563 145.569C241.857 145.749 242.192 145.841 242.568 145.846C242.936 145.85 243.269 145.763 243.567 145.582C243.873 145.394 244.096 145.141 244.236 144.823L245.484 144.838C245.309 145.46 244.95 145.964 244.409 146.349C243.877 146.726 243.278 146.911 242.614 146.903C242.022 146.895 241.484 146.753 241 146.474C240.515 146.188 240.136 145.808 239.862 145.332C239.588 144.849 239.454 144.319 239.461 143.743ZM252.802 140.909L252.728 146.908L251.648 146.895L251.66 145.935C251.432 146.26 251.14 146.521 250.786 146.716C250.44 146.904 250.066 146.995 249.666 146.99C249.178 146.984 248.74 146.875 248.35 146.662C247.969 146.449 247.665 146.133 247.438 145.714C247.219 145.288 247.114 144.77 247.121 144.162L247.163 140.839L248.303 140.853L248.262 144.153C248.255 144.681 248.406 145.102 248.714 145.418C249.022 145.734 249.412 145.895 249.884 145.901C250.228 145.905 250.529 145.829 250.787 145.672C251.053 145.507 251.256 145.286 251.395 145.008C251.543 144.729 251.618 144.426 251.623 144.098L251.662 140.895L252.802 140.909ZM257.359 147.086C256.607 147.077 255.974 146.893 255.458 146.534C254.95 146.168 254.661 145.668 254.589 145.035L255.728 145.05C255.828 145.395 256.017 145.653 256.295 145.825C256.581 145.988 256.956 146.073 257.42 146.079C257.852 146.084 258.201 146.02 258.466 145.888C258.732 145.747 258.866 145.565 258.869 145.341C258.872 145.117 258.782 144.94 258.6 144.809C258.425 144.671 258.095 144.559 257.608 144.473L256.925 144.344C255.489 144.071 254.776 143.482 254.787 142.578C254.794 142.05 255.031 141.629 255.499 141.314C255.967 140.992 256.577 140.836 257.329 140.845C258.009 140.854 258.587 141.021 259.063 141.347C259.539 141.665 259.837 142.104 259.958 142.666L258.747 142.651C258.653 142.41 258.472 142.223 258.201 142.092C257.931 141.953 257.632 141.881 257.304 141.877C256.888 141.872 256.555 141.932 256.306 142.057C256.064 142.174 255.942 142.34 255.939 142.556C255.937 142.748 256.027 142.909 256.209 143.039C256.392 143.162 256.687 143.257 257.094 143.326L257.788 143.455C258.603 143.601 259.176 143.832 259.508 144.149C259.84 144.457 260.003 144.859 259.997 145.355C259.99 145.883 259.749 146.308 259.273 146.63C258.805 146.944 258.167 147.096 257.359 147.086ZM263.456 142.121L263.417 145.289C263.414 145.545 263.471 145.742 263.59 145.879C263.716 146.017 263.931 146.088 264.235 146.091C264.523 146.095 264.767 146.074 264.968 146.029L264.955 147.073C264.738 147.142 264.474 147.175 264.162 147.171C262.89 147.155 262.261 146.523 262.277 145.275L262.316 142.107L261.117 142.092L261.13 141.012L262.33 141.027L262.349 139.468L263.489 139.482L263.47 141.042L265.15 141.062L265.136 142.142L263.456 142.121ZM269.528 147.237C268.936 147.23 268.398 147.087 267.913 146.809C267.429 146.523 267.049 146.143 266.775 145.667C266.501 145.184 266.368 144.654 266.375 144.078C266.382 143.502 266.529 142.98 266.815 142.511C267.1 142.035 267.489 141.664 267.98 141.398C268.472 141.124 269.014 140.991 269.606 140.998C270.19 141.005 270.72 141.152 271.196 141.438C271.681 141.716 272.06 142.097 272.334 142.58C272.608 143.055 272.742 143.581 272.735 144.157C272.727 144.733 272.581 145.259 272.295 145.736C272.009 146.204 271.62 146.575 271.129 146.849C270.646 147.115 270.112 147.245 269.528 147.237ZM269.541 146.182C269.909 146.186 270.246 146.102 270.552 145.93C270.859 145.75 271.102 145.505 271.282 145.195C271.461 144.877 271.554 144.526 271.559 144.142C271.563 143.758 271.48 143.409 271.308 143.095C271.136 142.773 270.899 142.522 270.597 142.342C270.295 142.155 269.96 142.058 269.592 142.054C269.216 142.049 268.871 142.137 268.557 142.317C268.251 142.489 268.008 142.734 267.828 143.052C267.648 143.362 267.556 143.709 267.551 144.093C267.546 144.477 267.63 144.83 267.802 145.152C267.974 145.466 268.211 145.717 268.512 145.905C268.822 146.085 269.165 146.177 269.541 146.182ZM282.128 141.154C282.608 141.16 283.035 141.269 283.408 141.482C283.789 141.694 284.085 142.014 284.296 142.441C284.515 142.86 284.621 143.373 284.613 143.981L284.572 147.305L283.432 147.29L283.473 143.991C283.479 143.463 283.333 143.041 283.032 142.725C282.74 142.409 282.366 142.249 281.91 142.243C281.414 142.237 281.012 142.408 280.704 142.756C280.396 143.104 280.238 143.534 280.232 144.046L280.192 147.25L279.052 147.236L279.093 143.936C279.1 143.408 278.953 142.986 278.653 142.671C278.361 142.355 277.987 142.194 277.531 142.189C277.035 142.182 276.633 142.353 276.324 142.702C276.016 143.05 275.859 143.48 275.852 143.992L275.812 147.196L274.672 147.181L274.747 141.182L275.827 141.195L275.815 142.143C276.035 141.818 276.314 141.561 276.653 141.374C276.999 141.186 277.364 141.094 277.748 141.099C278.22 141.105 278.643 141.214 279.016 141.427C279.398 141.632 279.69 141.935 279.893 142.338C280.13 141.973 280.445 141.685 280.84 141.474C281.243 141.255 281.672 141.148 282.128 141.154ZM289.575 141.246C290.191 141.254 290.725 141.393 291.178 141.662C291.638 141.932 291.99 142.312 292.232 142.804C292.474 143.287 292.59 143.852 292.582 144.5C292.58 144.668 292.575 144.792 292.566 144.872L287.646 144.811C287.72 145.276 287.932 145.662 288.28 145.971C288.636 146.271 289.05 146.424 289.522 146.43C290.298 146.44 290.854 146.163 291.189 145.599L292.365 145.613C292.166 146.171 291.804 146.627 291.279 146.98C290.755 147.326 290.165 147.494 289.509 147.486C288.925 147.479 288.399 147.34 287.93 147.07C287.462 146.793 287.098 146.416 286.84 145.941C286.582 145.457 286.457 144.92 286.464 144.328C286.471 143.736 286.61 143.206 286.88 142.737C287.15 142.26 287.518 141.893 287.986 141.635C288.461 141.369 288.991 141.239 289.575 141.246ZM289.538 142.254C289.066 142.248 288.656 142.391 288.309 142.683C287.969 142.975 287.756 143.352 287.671 143.815L291.354 143.861C291.312 143.38 291.121 142.994 290.781 142.701C290.448 142.409 290.034 142.26 289.538 142.254ZM297.663 141.347C297.855 141.349 298.035 141.364 298.202 141.39L298.189 142.506C298.045 142.472 297.817 142.453 297.505 142.449C297.153 142.445 296.84 142.521 296.566 142.677C296.3 142.834 296.09 143.048 295.934 143.318C295.787 143.58 295.711 143.871 295.707 144.191L295.667 147.443L294.527 147.428L294.602 141.429L295.682 141.442L295.67 142.366C295.898 142.049 296.185 141.801 296.531 141.621C296.886 141.433 297.263 141.342 297.663 141.347ZM306.005 147.691C305.253 147.682 304.619 147.498 304.103 147.14C303.596 146.773 303.306 146.274 303.234 145.641L304.374 145.655C304.474 146 304.662 146.258 304.94 146.43C305.226 146.593 305.601 146.678 306.065 146.684C306.497 146.689 306.846 146.626 307.112 146.493C307.377 146.352 307.512 146.17 307.515 145.946C307.517 145.722 307.427 145.545 307.245 145.415C307.071 145.276 306.74 145.164 306.253 145.078L305.571 144.95C304.134 144.676 303.421 144.087 303.433 143.183C303.439 142.655 303.676 142.234 304.144 141.92C304.612 141.597 305.222 141.441 305.974 141.45C306.654 141.459 307.232 141.626 307.708 141.952C308.184 142.27 308.483 142.71 308.604 143.271L307.392 143.256C307.299 143.015 307.117 142.829 306.847 142.697C306.577 142.558 306.277 142.486 305.949 142.482C305.534 142.477 305.201 142.537 304.951 142.662C304.71 142.779 304.588 142.945 304.585 143.161C304.583 143.353 304.673 143.514 304.855 143.645C305.037 143.767 305.332 143.863 305.739 143.932L306.434 144.06C307.248 144.206 307.821 144.438 308.153 144.754C308.486 145.062 308.649 145.464 308.642 145.96C308.636 146.488 308.395 146.913 307.918 147.235C307.451 147.549 306.813 147.701 306.005 147.691ZM313.266 141.541C313.882 141.549 314.416 141.687 314.869 141.957C315.329 142.227 315.681 142.607 315.923 143.098C316.165 143.581 316.282 144.147 316.274 144.795C316.271 144.963 316.266 145.087 316.257 145.167L311.337 145.105C311.412 145.57 311.623 145.957 311.971 146.265C312.327 146.566 312.741 146.719 313.213 146.725C313.989 146.735 314.545 146.457 314.88 145.894L316.056 145.908C315.857 146.466 315.495 146.921 314.971 147.275C314.446 147.62 313.856 147.789 313.2 147.781C312.616 147.774 312.09 147.635 311.621 147.365C311.153 147.087 310.789 146.711 310.531 146.235C310.273 145.752 310.148 145.215 310.155 144.623C310.163 144.031 310.301 143.5 310.571 143.032C310.841 142.555 311.21 142.188 311.677 141.929C312.152 141.663 312.682 141.534 313.266 141.541ZM313.229 142.549C312.757 142.543 312.347 142.686 312 142.977C311.66 143.269 311.447 143.647 311.362 144.11L315.045 144.155C315.003 143.675 314.812 143.288 314.472 142.996C314.139 142.704 313.725 142.555 313.229 142.549ZM321.354 141.642C321.546 141.644 321.726 141.658 321.894 141.684L321.88 142.8C321.736 142.767 321.508 142.748 321.196 142.744C320.844 142.739 320.531 142.816 320.257 142.972C319.992 143.129 319.781 143.342 319.625 143.612C319.478 143.875 319.403 144.166 319.399 144.486L319.358 147.737L318.218 147.723L318.293 141.724L319.373 141.737L319.361 142.661C319.589 142.344 319.876 142.095 320.223 141.916C320.577 141.728 320.954 141.637 321.354 141.642ZM329.505 141.863L326.85 147.831L325.362 147.812L322.857 141.78L324.129 141.796L326.144 146.694L328.269 141.848L329.505 141.863ZM332.327 141.898L332.252 147.898L331.113 147.884L331.187 141.884L332.327 141.898ZM332.429 139.499L332.413 140.819L331.141 140.803L331.157 139.484L332.429 139.499ZM334.268 144.923C334.275 144.347 334.422 143.824 334.708 143.356C334.994 142.88 335.382 142.508 335.874 142.242C336.365 141.969 336.907 141.835 337.499 141.843C338.163 141.851 338.756 142.054 339.279 142.453C339.811 142.843 340.156 143.352 340.316 143.978L339.069 143.962C338.937 143.641 338.72 143.386 338.418 143.198C338.124 143.002 337.794 142.902 337.426 142.898C337.05 142.893 336.713 142.981 336.414 143.161C336.116 143.334 335.881 143.579 335.709 143.897C335.537 144.206 335.449 144.553 335.444 144.937C335.439 145.321 335.519 145.674 335.683 145.996C335.847 146.31 336.076 146.561 336.37 146.749C336.663 146.929 336.998 147.021 337.374 147.025C337.742 147.03 338.075 146.942 338.374 146.762C338.68 146.574 338.903 146.32 339.043 146.002L340.291 146.018C340.115 146.64 339.757 147.143 339.216 147.528C338.683 147.906 338.085 148.09 337.421 148.082C336.829 148.075 336.291 147.932 335.806 147.654C335.322 147.368 334.943 146.987 334.668 146.512C334.394 146.028 334.261 145.499 334.268 144.923ZM344.799 141.933C345.414 141.941 345.949 142.08 346.401 142.349C346.862 142.619 347.213 143 347.455 143.491C347.697 143.974 347.814 144.539 347.806 145.187C347.804 145.355 347.799 145.479 347.79 145.559L342.87 145.498C342.944 145.963 343.155 146.349 343.504 146.658C343.86 146.958 344.274 147.111 344.746 147.117C345.522 147.127 346.077 146.85 346.412 146.286L347.588 146.3C347.389 146.858 347.028 147.314 346.503 147.667C345.979 148.013 345.389 148.181 344.733 148.173C344.149 148.166 343.623 148.027 343.154 147.757C342.685 147.48 342.322 147.103 342.064 146.628C341.806 146.145 341.681 145.607 341.688 145.015C341.695 144.423 341.834 143.893 342.104 143.424C342.374 142.947 342.742 142.58 343.21 142.322C343.685 142.056 344.215 141.926 344.799 141.933ZM344.762 142.941C344.29 142.935 343.88 143.078 343.533 143.37C343.193 143.662 342.98 144.039 342.894 144.502L346.578 144.548C346.536 144.067 346.345 143.681 346.005 143.389C345.672 143.096 345.258 142.947 344.762 142.941Z" fill="black"/>
    <path fill-rule="evenodd" clip-rule="evenodd" d="M20.4303 82.1347C21.8318 96.418 68.2848 106.744 124.186 105.2C152.544 104.416 177.887 100.728 195.792 95.4189C213.182 90.2627 223.557 83.5778 222.866 76.5403L177.715 56.5586C174.691 56.107 171.553 55.6984 168.314 55.3356C153.621 53.6896 136.841 52.9854 119.111 53.4753C63.2095 55.0202 19.0287 67.8514 20.4303 82.1347Z" fill="black"/>
    <path d="M177.715 56.5586C204.224 60.5179 222.007 67.7859 222.866 76.5403L177.715 56.5586Z" fill="#F1EFED"/>
    <path d="M222.866 76.5403C223.557 83.5778 213.182 90.2627 195.792 95.4189C177.887 100.728 152.544 104.416 124.186 105.2C68.2848 106.744 21.8318 96.418 20.4303 82.1347C19.0287 67.8514 63.2095 55.0202 119.111 53.4753C136.841 52.9854 153.621 53.6896 168.314 55.3356C171.553 55.6984 174.691 56.107 177.715 56.5586M222.866 76.5403C222.007 67.7859 204.224 60.5179 177.715 56.5586M222.866 76.5403L177.715 56.5586" stroke="black" stroke-width="2"/>
    <path d="M207.504 49.9433C215.702 62.5756 179.441 80.6574 126.515 90.3301C73.5884 100.003 24.0378 97.6035 15.8405 84.9711C7.64324 72.3388 43.9035 54.257 96.83 44.5843C149.757 34.9116 199.307 37.3109 207.504 49.9433Z" fill="#F1EFED" stroke="black" stroke-width="1.13" stroke-linejoin="round"/>
    <path d="M37.4048 73.6326L38.6448 81.9406L37.3393 82.1354L31.4468 76.1477L32.4494 82.8653L31.2863 83.0389L30.0463 74.7309L31.5062 74.513L37.2213 80.3695L36.2417 73.8062L37.4048 73.6326ZM42.8544 75.1245C43.4637 75.0336 44.0133 75.085 44.5033 75.2788C45.0011 75.4714 45.4087 75.7908 45.7261 76.2368C46.0422 76.6749 46.2481 77.2145 46.3438 77.8554C46.3686 78.0215 46.3829 78.1447 46.3868 78.2251L41.5207 78.9513C41.6683 79.3984 41.9386 79.7463 42.3317 79.995C42.7314 80.2347 43.1647 80.3196 43.6315 80.25C44.399 80.1354 44.9031 79.773 45.1436 79.1628L46.3067 78.9892C46.1995 79.5715 45.9153 80.079 45.4541 80.5118C44.9918 80.9367 44.4362 81.1976 43.7874 81.2944C43.2098 81.3806 42.6681 81.328 42.1623 81.1365C41.6553 80.9372 41.2364 80.6236 40.9057 80.1957C40.5737 79.76 40.364 79.2493 40.2766 78.6638C40.1892 78.0783 40.2413 77.5326 40.4327 77.0268C40.623 76.5131 40.9281 76.0915 41.348 75.7619C41.7747 75.4232 42.2768 75.2107 42.8544 75.1245ZM42.9795 76.125C42.5126 76.1947 42.131 76.4013 41.8344 76.7448C41.5458 77.0872 41.3962 77.4937 41.3855 77.9645L45.0292 77.4206C44.9109 76.953 44.6603 76.6021 44.2776 76.3681C43.9027 76.1328 43.47 76.0518 42.9795 76.125ZM56.2663 73.2441L55.348 79.4476L53.9713 79.6531L51.8176 75.3034L50.9804 80.0995L49.6392 80.2997L46.9614 74.6329L48.1839 74.4504L50.1517 78.9371L51.0086 74.0288L52.2548 73.8428L54.482 78.2787L55.0557 73.4248L56.2663 73.2441ZM65.1412 71.7982C65.6634 71.7203 66.1582 71.7839 66.6257 71.9892C67.0919 72.1865 67.4825 72.5003 67.7975 72.9305C68.1124 73.3607 68.3142 73.8725 68.4027 74.466C68.4913 75.0594 68.4478 75.6078 68.2722 76.1113C68.0966 76.6147 67.8152 77.0328 67.4281 77.3656C67.0398 77.6905 66.5846 77.8919 66.0623 77.9698C65.6667 78.0289 65.2818 77.9974 64.9077 77.8752C64.5324 77.7452 64.1985 77.5403 63.906 77.2604L64.0388 78.1505L62.9113 78.3188L61.6625 69.9515L62.7307 69.7921L63.2373 73.1865C63.4397 72.8084 63.7048 72.4979 64.0325 72.2549C64.3602 72.0118 64.7298 71.8596 65.1412 71.7982ZM65.7166 76.9538C66.0647 76.9018 66.3642 76.7681 66.6152 76.5527C66.8662 76.3373 67.0477 76.0635 67.1599 75.7313C67.2709 75.3912 67.2975 75.0273 67.2396 74.6396C67.1818 74.2519 67.0507 73.9155 66.8464 73.6306C66.6409 73.3377 66.3867 73.1249 66.0838 72.9921C65.7809 72.8594 65.4553 72.819 65.1072 72.871C64.7591 72.9229 64.4556 73.0572 64.1967 73.2738C63.9378 73.4904 63.7529 73.7687 63.6419 74.1088C63.5297 74.441 63.5025 74.801 63.5604 75.1887C63.6183 75.5764 63.7499 75.9167 63.9554 76.2096C64.1597 76.4945 64.4173 76.7028 64.7281 76.8344C65.0389 76.9659 65.3684 77.0057 65.7166 76.9538ZM75.2646 70.4086L76.1503 76.3429L75.0821 76.5023L74.9404 75.5528C74.7673 75.9103 74.5214 76.2139 74.2028 76.4637C73.8909 76.7044 73.5372 76.8542 73.1415 76.9133C72.6589 76.9853 72.2084 76.9474 71.7899 76.7995C71.3795 76.6505 71.0288 76.3874 70.7379 76.0102C70.4538 75.6239 70.2668 75.1301 70.1771 74.5287L69.6864 71.2412L70.8139 71.0729L71.301 74.3367C71.379 74.8589 71.5953 75.2513 71.9499 75.5138C72.3046 75.7764 72.7153 75.8728 73.1821 75.8031C73.5223 75.7523 73.8072 75.6289 74.0368 75.4329C74.2731 75.2278 74.4379 74.9767 74.5311 74.6797C74.6321 74.3815 74.6585 74.0702 74.6101 73.7458L74.1371 70.5769L75.2646 70.4086ZM80.7507 75.7776C80.0069 75.8886 79.3519 75.8084 78.7856 75.537C78.2261 75.2566 77.8601 74.8097 77.6877 74.1964L78.8152 74.0281C78.9689 74.353 79.1965 74.5779 79.4983 74.7027C79.8067 74.8184 80.1904 74.842 80.6493 74.7736C81.0766 74.7098 81.4108 74.5912 81.6518 74.4177C81.8916 74.2363 81.995 74.0348 81.962 73.8133C81.9289 73.5917 81.8119 73.4312 81.6111 73.3318C81.4169 73.2233 81.0726 73.1655 80.5781 73.1584L79.8839 73.1407C78.4219 73.1 77.6242 72.6327 77.4907 71.7386C77.4128 71.2164 77.5797 70.7627 77.9913 70.3778C78.4018 69.9849 78.979 69.7329 79.7227 69.6219C80.3953 69.5215 80.9925 69.5942 81.5145 69.8398C82.0353 70.0775 82.4003 70.4639 82.6096 70.9988L81.4109 71.1777C81.2805 70.9545 81.0714 70.7997 80.7835 70.7133C80.4944 70.6189 80.1876 70.5959 79.8632 70.6444C79.4518 70.7058 79.1328 70.8181 78.9065 70.9813C78.6868 71.1354 78.5929 71.3193 78.6248 71.5329C78.6531 71.7228 78.7677 71.8675 78.9686 71.9669C79.1683 72.0584 79.4747 72.1057 79.8876 72.1088L80.5937 72.1247C81.4209 72.1388 82.0236 72.2753 82.402 72.5343C82.7792 72.7854 83.0044 73.1562 83.0776 73.6468C83.1556 74.169 82.9853 74.6271 82.5669 75.0212C82.1552 75.4062 81.5498 75.6583 80.7507 75.7776ZM85.5179 68.8783L86.4036 74.8126L85.2761 74.9808L84.3904 69.0466L85.5179 68.8783ZM85.2349 66.494L85.4297 67.7995L84.1716 67.9873L83.9768 66.6817L85.2349 66.494ZM91.0177 67.9361C91.5003 67.8641 91.9469 67.9026 92.3574 68.0516C92.7758 68.1995 93.1271 68.4665 93.4112 68.8528C93.7021 69.23 93.8924 69.7193 93.9822 70.3206L94.4728 73.6082L93.3453 73.7765L92.8582 70.5127C92.7802 69.9904 92.564 69.5981 92.2093 69.3355C91.8547 69.073 91.4439 68.9766 90.9771 69.0463C90.6369 69.0971 90.3486 69.225 90.1123 69.4301C89.8827 69.6262 89.7174 69.8733 89.6163 70.1715C89.5231 70.4685 89.5007 70.7792 89.5492 71.1036L90.0221 74.2725L88.8946 74.4408L88.0089 68.5065L89.0771 68.3471L89.2188 69.2966C89.3919 68.9391 89.6344 68.64 89.9463 68.3993C90.2649 68.1496 90.6221 67.9952 91.0177 67.9361ZM98.4488 66.827C99.058 66.7361 99.6076 66.7875 100.098 66.9813C100.596 67.1739 101.003 67.4933 101.32 67.9393C101.637 68.3774 101.842 68.917 101.938 69.5579C101.963 69.724 101.977 69.8473 101.981 69.9276L97.1151 70.6538C97.2627 71.1009 97.533 71.4488 97.926 71.6975C98.3258 71.9372 98.7591 72.0221 99.2259 71.9525C99.9934 71.8379 100.497 71.4755 100.738 70.8653L101.901 70.6917C101.794 71.274 101.51 71.7815 101.049 72.2143C100.586 72.6392 100.031 72.9001 99.3818 72.9969C98.8042 73.0831 98.2625 73.0305 97.7567 72.8391C97.2497 72.6397 96.8308 72.3261 96.5 71.8982C96.1681 71.4625 95.9584 70.9518 95.871 70.3663C95.7836 69.7808 95.8356 69.2351 96.0271 68.7293C96.2173 68.2156 96.5224 67.794 96.9424 67.4644C97.369 67.1257 97.8712 66.9132 98.4488 66.827ZM98.5738 67.8275C98.107 67.8972 97.7253 68.1038 97.4288 68.4473C97.1402 68.7897 96.9905 69.1962 96.9799 69.667L100.624 69.1231C100.505 68.6555 100.255 68.3046 99.8719 68.0706C99.4971 67.8353 99.0644 67.7543 98.5738 67.8275ZM106.491 71.9359C105.747 72.0469 105.092 71.9667 104.526 71.6953C103.966 71.4149 103.6 70.968 103.428 70.3547L104.555 70.1864C104.709 70.5113 104.936 70.7362 105.238 70.861C105.547 70.9767 105.93 71.0004 106.389 70.9319C106.817 70.8681 107.151 70.7495 107.392 70.576C107.632 70.3946 107.735 70.1931 107.702 69.9716C107.669 69.75 107.552 69.5895 107.351 69.4901C107.157 69.3816 106.812 69.3238 106.318 69.3167L105.624 69.299C104.162 69.2583 103.364 68.791 103.231 67.8969C103.153 67.3747 103.32 66.9211 103.731 66.5361C104.142 66.1432 104.719 65.8912 105.463 65.7802C106.135 65.6798 106.732 65.7525 107.254 65.9981C107.775 66.2358 108.14 66.6222 108.35 67.1571L107.151 67.336C107.02 67.1128 106.811 66.958 106.523 66.8716C106.234 66.7772 105.927 66.7543 105.603 66.8027C105.192 66.8641 104.873 66.9764 104.646 67.1396C104.427 67.2937 104.333 67.4776 104.365 67.6912C104.393 67.8811 104.508 68.0258 104.709 68.1252C104.908 68.2167 105.215 68.264 105.628 68.2671L106.334 68.283C107.161 68.2971 107.764 68.4336 108.142 68.6926C108.519 68.9437 108.744 69.3145 108.818 69.8051C108.895 70.3273 108.725 70.7854 108.307 71.1795C107.895 71.5645 107.29 71.8166 106.491 71.9359ZM113.181 70.9374C112.437 71.0484 111.782 70.9682 111.215 70.6969C110.656 70.4164 110.29 69.9695 110.118 69.3562L111.245 69.188C111.399 69.5128 111.626 69.7377 111.928 69.8625C112.237 69.9783 112.62 70.0019 113.079 69.9334C113.506 69.8696 113.841 69.751 114.082 69.5775C114.321 69.3961 114.425 69.1946 114.392 68.9731C114.359 68.7515 114.242 68.5911 114.041 68.4916C113.847 68.3831 113.502 68.3253 113.008 68.3182L112.314 68.3005C110.852 68.2598 110.054 67.7925 109.921 66.8984C109.843 66.3762 110.01 65.9226 110.421 65.5376C110.832 65.1447 111.409 64.8927 112.153 64.7817C112.825 64.6813 113.422 64.754 113.944 64.9996C114.465 65.2373 114.83 65.6237 115.039 66.1587L113.841 66.3376C113.71 66.1144 113.501 65.9595 113.213 65.8731C112.924 65.7787 112.617 65.7558 112.293 65.8042C111.882 65.8656 111.563 65.9779 111.336 66.1411C111.117 66.2952 111.023 66.4791 111.055 66.6927C111.083 66.8826 111.198 67.0273 111.398 67.1267C111.598 67.2183 111.905 67.2656 112.317 67.2686L113.024 67.2846C113.851 67.2986 114.453 67.4351 114.832 67.6941C115.209 67.9452 115.434 68.316 115.507 68.8066C115.585 69.3288 115.415 69.7869 114.997 70.181C114.585 70.566 113.98 70.8181 113.181 70.9374ZM120.649 66.6682C120.564 66.0985 120.625 65.5596 120.832 65.0514C121.038 64.5354 121.363 64.1068 121.805 63.7657C122.246 63.4168 122.76 63.1986 123.345 63.1112C124.002 63.0132 124.62 63.119 125.201 63.4288C125.787 63.7295 126.21 64.176 126.468 64.7684L125.234 64.9526C125.052 64.6562 124.797 64.4394 124.469 64.3023C124.148 64.1561 123.806 64.1102 123.442 64.1645C123.07 64.22 122.751 64.3606 122.486 64.5863C122.219 64.804 122.026 65.0835 121.907 65.4248C121.787 65.7582 121.755 66.1148 121.812 66.4946C121.869 66.8744 122.004 67.2101 122.217 67.5018C122.429 67.7856 122.695 67.9967 123.015 68.1349C123.334 68.2653 123.679 68.3028 124.051 68.2473C124.415 68.1929 124.73 68.0529 124.996 67.8273C125.268 67.5925 125.448 67.3068 125.535 66.9702L126.769 66.786C126.695 67.428 126.422 67.9824 125.95 68.4492C125.484 68.9069 124.923 69.1848 124.266 69.2828C123.681 69.3702 123.127 69.3154 122.604 69.1184C122.08 68.9135 121.645 68.5983 121.298 68.1728C120.95 67.7394 120.734 67.2379 120.649 66.6682ZM133.479 61.72L134.365 67.6543L133.238 67.8226L133.105 66.9324C132.907 67.2855 132.647 67.5791 132.326 67.813C132.004 68.039 131.645 68.1816 131.249 68.2406C130.727 68.3186 130.233 68.2589 129.767 68.0615C129.299 67.8563 128.908 67.5385 128.593 67.1083C128.278 66.6781 128.076 66.1663 127.988 65.5728C127.899 64.9794 127.943 64.431 128.118 63.9276C128.294 63.4241 128.576 63.01 128.964 62.6851C129.351 62.3523 129.806 62.1469 130.328 62.069C130.74 62.0076 131.138 62.0452 131.522 62.182C131.906 62.3188 132.251 62.5384 132.555 62.8408L132.411 61.8794L133.479 61.72ZM131.283 67.1678C131.632 67.1159 131.935 66.9816 132.194 66.765C132.453 66.5484 132.638 66.274 132.751 65.9418C132.862 65.6017 132.888 65.2378 132.83 64.8501C132.772 64.4624 132.641 64.1261 132.437 63.8411C132.232 63.5482 131.973 63.336 131.663 63.2045C131.352 63.0729 131.022 63.0331 130.674 63.0851C130.326 63.137 130.026 63.2707 129.775 63.4861C129.525 63.7015 129.344 63.9793 129.233 64.3194C129.12 64.6516 129.093 65.0115 129.151 65.3993C129.209 65.787 129.341 66.1272 129.546 66.4201C129.75 66.7051 130.004 66.9139 130.307 67.0467C130.61 67.1794 130.935 67.2198 131.283 67.1678ZM139.09 60.7613C139.612 60.6833 140.107 60.747 140.575 60.9522C141.041 61.1496 141.431 61.4634 141.746 61.8936C142.061 62.3238 142.263 62.8356 142.352 63.4291C142.44 64.0225 142.397 64.5709 142.221 65.0744C142.045 65.5778 141.764 65.9959 141.377 66.3287C140.989 66.6536 140.533 66.855 140.011 66.9329C139.616 66.992 139.231 66.9604 138.857 66.8383C138.481 66.7083 138.147 66.5033 137.855 66.2235L138.289 69.1313L137.161 69.2995L135.975 61.3476L137.043 61.1882L137.186 62.1495C137.389 61.7715 137.654 61.461 137.981 61.218C138.309 60.9749 138.679 60.8227 139.09 60.7613ZM139.665 65.9168C140.014 65.8649 140.313 65.7312 140.564 65.5158C140.815 65.3004 140.997 65.0266 141.109 64.6944C141.22 64.3543 141.246 63.9904 141.188 63.6026C141.131 63.2149 141 62.8786 140.795 62.5936C140.59 62.3008 140.336 62.088 140.033 61.9552C139.73 61.8225 139.404 61.7821 139.056 61.8341C138.708 61.886 138.404 62.0203 138.146 62.2369C137.887 62.4535 137.702 62.7318 137.591 63.0719C137.479 63.4041 137.451 63.7641 137.509 64.1518C137.567 64.5395 137.699 64.8798 137.904 65.1727C138.109 65.4576 138.366 65.6659 138.677 65.7974C138.988 65.929 139.317 65.9688 139.665 65.9168ZM149.328 59.3546L150.214 65.2889L149.086 65.4571L148.953 64.567C148.755 64.9201 148.496 65.2136 148.175 65.4476C147.853 65.6736 147.494 65.8161 147.098 65.8752C146.576 65.9531 146.082 65.8934 145.615 65.6961C145.148 65.4909 144.757 65.1731 144.442 64.7429C144.127 64.3127 143.925 63.8009 143.837 63.2074C143.748 62.614 143.792 62.0656 143.967 61.5621C144.143 61.0587 144.425 60.6445 144.813 60.3197C145.2 59.9869 145.655 59.7815 146.177 59.7036C146.588 59.6421 146.986 59.6798 147.371 59.8166C147.755 59.9533 148.099 60.1729 148.403 60.4754L148.26 59.514L149.328 59.3546ZM147.132 64.8024C147.48 64.7505 147.784 64.6162 148.043 64.3996C148.302 64.183 148.487 63.9086 148.599 63.5764C148.71 63.2363 148.737 62.8724 148.679 62.4847C148.621 62.097 148.49 61.7607 148.286 61.4757C148.08 61.1828 147.822 60.9706 147.511 60.839C147.2 60.7075 146.871 60.6677 146.523 60.7196C146.175 60.7716 145.875 60.9053 145.624 61.1207C145.373 61.3361 145.192 61.6139 145.081 61.954C144.969 62.2862 144.942 62.6461 145 63.0338C145.058 63.4215 145.189 63.7618 145.395 64.0547C145.599 64.3397 145.853 64.5485 146.156 64.6813C146.458 64.814 146.784 64.8544 147.132 64.8024ZM154.939 58.3959C155.461 58.3179 155.956 58.3816 156.423 58.5868C156.889 58.7842 157.28 59.0979 157.595 59.5282C157.91 59.9584 158.112 60.4702 158.2 61.0636C158.289 61.6571 158.245 62.2055 158.07 62.7089C157.894 63.2124 157.613 63.6305 157.226 63.9633C156.837 64.2881 156.382 64.4896 155.86 64.5675C155.464 64.6265 155.079 64.595 154.705 64.4729C154.33 64.3429 153.996 64.1379 153.704 63.858L153.836 64.7482L152.709 64.9165L151.46 56.5491L152.528 56.3897L153.035 59.7841C153.237 59.4061 153.502 59.0956 153.83 58.8525C154.158 58.6095 154.527 58.4573 154.939 58.3959ZM155.514 63.5514C155.862 63.4994 156.162 63.3658 156.413 63.1504C156.664 62.935 156.845 62.6612 156.957 62.329C157.068 61.9888 157.095 61.6249 157.037 61.2372C156.979 60.8495 156.848 60.5132 156.644 60.2282C156.438 59.9353 156.184 59.7225 155.881 59.5898C155.578 59.4571 155.253 59.4167 154.905 59.4686C154.557 59.5206 154.253 59.6549 153.994 59.8714C153.735 60.088 153.55 60.3664 153.439 60.7065C153.327 61.0387 153.3 61.3986 153.358 61.7864C153.416 62.1741 153.547 62.5144 153.753 62.8072C153.957 63.0922 154.215 63.3005 154.526 63.432C154.836 63.5636 155.166 63.6034 155.514 63.5514ZM160.846 57.6355L161.732 63.5698L160.604 63.7381L159.719 57.8038L160.846 57.6355ZM160.563 55.2512L160.758 56.5567L159.5 56.7445L159.305 55.4389L160.563 55.2512ZM164.101 54.6624L165.35 63.0297L164.223 63.198L162.974 54.8307L164.101 54.6624ZM168.083 56.5554L168.969 62.4897L167.841 62.6579L166.956 56.7237L168.083 56.5554ZM167.8 54.1711L167.995 55.4766L166.737 55.6644L166.542 54.3588L167.8 54.1711ZM172.217 57.0303L172.685 60.1636C172.723 60.4168 172.815 60.6012 172.961 60.7169C173.116 60.8313 173.355 60.8643 173.68 60.8159C173.981 60.771 174.238 60.7083 174.453 60.6278L174.607 61.6603C174.388 61.7658 174.12 61.8421 173.804 61.8894C173.155 61.9862 172.641 61.9051 172.263 61.6461C171.883 61.3792 171.648 60.9412 171.557 60.3319L171.09 57.1986L169.903 57.3758L169.743 56.3076L170.93 56.1305L170.7 54.5876L171.827 54.4193L172.058 55.9622L175.025 55.5193L175.184 56.5875L172.217 57.0303ZM176.711 55.2677L177.597 61.2019L176.469 61.3702L175.583 55.436L176.711 55.2677ZM176.428 52.8833L176.623 54.1889L175.365 54.3766L175.17 53.0711L176.428 52.8833ZM181.688 54.4034C182.298 54.3125 182.847 54.3639 183.337 54.5577C183.835 54.7503 184.243 55.0697 184.56 55.5157C184.876 55.9539 185.082 56.4934 185.178 57.1343C185.203 57.3004 185.217 57.4237 185.221 57.504L180.355 58.2302C180.502 58.6773 180.773 59.0253 181.166 59.274C181.565 59.5136 181.999 59.5986 182.466 59.5289C183.233 59.4143 183.737 59.052 183.978 58.4418L185.141 58.2682C185.034 58.8504 184.749 59.3579 184.288 59.7907C183.826 60.2156 183.27 60.4765 182.621 60.5733C182.044 60.6595 181.502 60.6069 180.996 60.4155C180.489 60.2161 180.071 59.9025 179.74 59.4747C179.408 59.0389 179.198 58.5282 179.111 57.9427C179.023 57.3572 179.075 56.8116 179.267 56.3058C179.457 55.7921 179.762 55.3704 180.182 55.0408C180.609 54.7021 181.111 54.4896 181.688 54.4034ZM181.814 55.4039C181.347 55.4736 180.965 55.6802 180.669 56.0238C180.38 56.3661 180.23 56.7727 180.22 57.2434L183.863 56.6996C183.745 56.2319 183.494 55.881 183.112 55.647C182.737 55.4117 182.304 55.3307 181.814 55.4039ZM189.73 59.5123C188.986 59.6233 188.331 59.5431 187.765 59.2718C187.206 58.9913 186.84 58.5444 186.667 57.9311L187.795 57.7629C187.948 58.0877 188.176 58.3126 188.478 58.4374C188.786 58.5531 189.17 58.5768 189.629 58.5083C190.056 58.4445 190.39 58.3259 190.631 58.1524C190.871 57.971 190.975 57.7695 190.942 57.548C190.909 57.3264 190.792 57.166 190.591 57.0665C190.397 56.958 190.052 56.9002 189.558 56.8931L188.864 56.8754C187.401 56.8347 186.604 56.3674 186.47 55.4733C186.392 54.9511 186.559 54.4975 186.971 54.1125C187.381 53.7196 187.959 53.4676 188.702 53.3566C189.375 53.2562 189.972 53.3289 190.494 53.5745C191.015 53.8122 191.38 54.1986 191.589 54.7336L190.39 54.9125C190.26 54.6893 190.051 54.5344 189.763 54.448C189.474 54.3536 189.167 54.3307 188.843 54.3791C188.431 54.4405 188.112 54.5528 187.886 54.716C187.666 54.8701 187.573 55.054 187.604 55.2676C187.633 55.4575 187.747 55.6022 187.948 55.7016C188.148 55.7932 188.454 55.8404 188.867 55.8435L189.573 55.8595C190.4 55.8735 191.003 56.01 191.382 56.269C191.759 56.5201 191.984 56.8909 192.057 57.3815C192.135 57.9037 191.965 58.3618 191.547 58.7559C191.135 59.1409 190.529 59.393 189.73 59.5123Z" fill="black"/>
    <path fill-rule="evenodd" clip-rule="evenodd" d="M145.125 274.854C207.638 276.825 259.115 269.22 260.102 257.869C261.09 246.518 211.214 235.719 148.701 233.748C135.608 233.335 122.999 233.343 111.236 233.716L33.7178 251.319C34.4565 262.453 83.688 272.918 145.125 274.854Z" fill="black"/>
    <path d="M33.7238 250.733C33.7068 250.928 33.7048 251.124 33.7178 251.319L111.236 233.716C66.8397 235.127 34.5044 241.759 33.7238 250.733Z" fill="#F1EFED"/>
    <path d="M33.7178 251.319C34.4565 262.453 83.688 272.918 145.125 274.854C207.638 276.825 259.115 269.22 260.102 257.869C261.09 246.518 211.214 235.719 148.701 233.748C135.608 233.335 122.999 233.343 111.236 233.716M33.7178 251.319C33.7048 251.124 33.7068 250.928 33.7238 250.733C34.5044 241.759 66.8397 235.127 111.236 233.716M33.7178 251.319L111.236 233.716" stroke="black" stroke-width="2"/>
    <ellipse cx="115.289" cy="28.2735" rx="115.289" ry="28.2735" transform="matrix(0.989756 0.142769 -0.367133 0.930168 44.4648 197.43)" fill="#F1EFED" stroke="black" stroke-width="1.13" stroke-linejoin="round"/>
    <path d="M66.9808 230.802L65.4225 230.595L64.3306 233.9L63.1411 233.742L65.7767 225.766L69.4167 226.249C69.9718 226.323 70.4138 226.489 70.7425 226.746C71.0817 226.998 71.2954 227.315 71.3836 227.7C71.4823 228.078 71.4575 228.491 71.3094 228.939C71.1111 229.539 70.7554 230.027 70.2421 230.403C69.7313 230.771 69.1238 230.956 68.4196 230.958L70.0881 234.664L68.5892 234.465L66.9808 230.802ZM65.7651 229.558L68.1442 229.874C68.6201 229.938 69.0213 229.876 69.3478 229.689C69.6848 229.496 69.9224 229.191 70.0604 228.773C70.1985 228.355 70.173 228.019 69.9841 227.764C69.8057 227.502 69.4785 227.34 69.0027 227.277L66.6236 226.961L65.7651 229.558ZM76.0626 229.392C76.6733 229.473 77.1632 229.669 77.5324 229.979C77.9095 230.291 78.1444 230.695 78.2372 231.191C78.3324 231.68 78.2783 232.231 78.075 232.847C78.0223 233.006 77.9794 233.123 77.9464 233.198L73.0692 232.551C73.003 233.002 73.0966 233.395 73.3501 233.73C73.6141 234.058 73.9801 234.253 74.448 234.316C75.2172 234.418 75.8535 234.221 76.3569 233.725L77.5226 233.879C77.1566 234.386 76.6594 234.776 76.031 235.049C75.405 235.315 74.7669 235.405 74.1166 235.318C73.5377 235.241 73.0557 235.047 72.6707 234.734C72.2881 234.413 72.0401 234.012 71.9264 233.529C71.8154 233.038 71.8527 232.512 72.0384 231.95C72.2242 231.388 72.5219 230.9 72.9317 230.486C73.344 230.065 73.8216 229.76 74.3644 229.571C74.9176 229.374 75.4837 229.315 76.0626 229.392ZM75.7226 230.346C75.2547 230.284 74.8038 230.37 74.3699 230.606C73.944 230.843 73.6185 231.176 73.3936 231.606L77.0456 232.091C77.1486 231.629 77.0748 231.239 76.8241 230.92C76.5814 230.603 76.2142 230.411 75.7226 230.346ZM87.2525 228.559L84.5981 236.591L83.468 236.441L83.7504 235.587C83.4042 235.858 83.0277 236.058 82.6211 236.186C82.2169 236.307 81.8166 236.341 81.42 236.288C80.8966 236.219 80.4622 236.03 80.1168 235.723C79.7739 235.407 79.5536 235.01 79.4559 234.529C79.3581 234.048 79.4034 233.523 79.5916 232.953C79.7799 232.383 80.071 231.891 80.4649 231.475C80.8589 231.06 81.3114 230.755 81.8224 230.561C82.336 230.36 82.8545 230.294 83.3779 230.363C83.7903 230.418 84.1448 230.56 84.4414 230.79C84.738 231.02 84.9593 231.315 85.1051 231.675L86.1819 228.416L87.2525 228.559ZM81.9417 235.311C82.2906 235.357 82.6355 235.316 82.9762 235.187C83.3169 235.057 83.6155 234.855 83.872 234.58C84.131 234.297 84.322 233.97 84.445 233.598C84.568 233.225 84.5991 232.881 84.5384 232.563C84.4802 232.238 84.336 231.973 84.1057 231.768C83.8755 231.563 83.5858 231.438 83.2369 231.391C82.888 231.345 82.5471 231.387 82.2143 231.517C81.8815 231.647 81.5856 231.854 81.3266 232.137C81.0701 232.412 80.8804 232.736 80.7574 233.108C80.6344 233.48 80.602 233.829 80.6602 234.153C80.7209 234.471 80.8624 234.731 81.0848 234.935C81.3071 235.139 81.5928 235.264 81.9417 235.311ZM94.4535 231.953L92.5709 237.65L91.5003 237.508L91.8015 236.597C91.4766 236.878 91.1082 237.091 90.6966 237.235C90.2953 237.372 89.8964 237.414 89.4999 237.361C89.0161 237.297 88.6126 237.14 88.2893 236.891C87.9739 236.643 87.7665 236.306 87.667 235.881C87.578 235.449 87.6289 234.944 87.8196 234.367L88.8626 231.211L89.9927 231.361L88.9572 234.494C88.7916 234.995 88.8144 235.415 89.0258 235.752C89.2372 236.089 89.5769 236.289 90.0448 236.351C90.3858 236.397 90.7082 236.36 91.0122 236.242C91.3266 236.117 91.5952 235.931 91.8178 235.683C92.0484 235.436 92.2152 235.157 92.3181 234.845L93.3234 231.803L94.4535 231.953ZM95.4764 235.063C95.6571 234.516 95.9603 234.037 96.3859 233.625C96.8141 233.206 97.3127 232.9 97.8818 232.706C98.4534 232.504 99.0327 232.442 99.6195 232.52C100.278 232.608 100.807 232.872 101.207 233.314C101.618 233.749 101.809 234.274 101.78 234.889L100.543 234.725C100.508 234.403 100.369 234.135 100.126 233.92C99.8925 233.699 99.5935 233.564 99.2287 233.515C98.856 233.466 98.494 233.509 98.1429 233.645C97.7942 233.773 97.4864 233.978 97.2195 234.259C96.9551 234.533 96.7626 234.853 96.6421 235.217C96.5216 235.582 96.4945 235.927 96.5606 236.253C96.6292 236.572 96.7814 236.838 97.0171 237.051C97.2553 237.257 97.5608 237.385 97.9335 237.435C98.2983 237.483 98.6563 237.44 99.0074 237.304C99.369 237.162 99.6674 236.947 99.9026 236.661L101.14 236.826C100.777 237.396 100.269 237.832 99.6148 238.134C98.9709 238.429 98.3199 238.533 97.6616 238.445C97.0748 238.367 96.5822 238.167 96.1838 237.845C95.7879 237.515 95.5252 237.107 95.3957 236.622C95.2688 236.129 95.2956 235.61 95.4764 235.063ZM105.341 234.47L104.347 237.478C104.266 237.721 104.268 237.915 104.352 238.061C104.445 238.208 104.653 238.303 104.978 238.347C105.28 238.387 105.549 238.399 105.786 238.383L105.458 239.374C105.206 239.412 104.921 239.409 104.604 239.367C103.954 239.281 103.511 239.068 103.276 238.727C103.043 238.379 103.023 237.912 103.217 237.328L104.211 234.32L103.021 234.162L103.36 233.136L104.549 233.294L105.039 231.813L106.169 231.963L105.679 233.444L108.653 233.839L108.314 234.865L105.341 234.47ZM110.343 234.064L108.461 239.761L107.331 239.611L109.213 233.914L110.343 234.064ZM111.168 231.794L110.754 233.048L109.493 232.88L109.907 231.627L111.168 231.794ZM113.549 240.555C112.962 240.477 112.469 240.277 112.071 239.955C111.675 239.625 111.412 239.217 111.283 238.732C111.156 238.239 111.183 237.72 111.363 237.173C111.544 236.626 111.847 236.147 112.273 235.735C112.701 235.316 113.2 235.01 113.769 234.816C114.34 234.614 114.92 234.552 115.507 234.63C116.085 234.707 116.569 234.91 116.957 235.239C117.355 235.562 117.618 235.969 117.745 236.462C117.874 236.947 117.849 237.463 117.668 238.01C117.487 238.557 117.183 239.04 116.755 239.459C116.329 239.87 115.83 240.176 115.259 240.378C114.698 240.573 114.128 240.632 113.549 240.555ZM113.88 239.553C114.245 239.601 114.606 239.562 114.962 239.435C115.321 239.3 115.637 239.096 115.909 238.823C116.184 238.542 116.382 238.22 116.502 237.855C116.623 237.491 116.645 237.149 116.568 236.829C116.494 236.502 116.334 236.235 116.088 236.028C115.844 235.813 115.54 235.682 115.175 235.633C114.803 235.584 114.433 235.626 114.066 235.759C113.709 235.886 113.393 236.09 113.118 236.371C112.846 236.644 112.65 236.963 112.529 237.327C112.409 237.692 112.385 238.038 112.46 238.365C112.536 238.684 112.696 238.951 112.94 239.166C113.194 239.374 113.507 239.503 113.88 239.553ZM123.638 235.71C124.122 235.775 124.522 235.931 124.837 236.179C125.161 236.428 125.367 236.769 125.456 237.201C125.555 237.626 125.51 238.128 125.319 238.705L124.276 241.861L123.146 241.711L124.181 238.578C124.347 238.076 124.324 237.657 124.113 237.32C123.901 236.982 123.562 236.783 123.094 236.72C122.753 236.675 122.425 236.715 122.11 236.84C121.807 236.958 121.539 237.14 121.309 237.387C121.086 237.635 120.923 237.915 120.82 238.226L119.815 241.269L118.685 241.119L120.567 235.422L121.638 235.564L121.337 236.475C121.662 236.193 122.025 235.984 122.426 235.847C122.838 235.703 123.242 235.658 123.638 235.71ZM133.176 243.162C132.589 243.084 132.097 242.884 131.698 242.561C131.303 242.231 131.04 241.824 130.91 241.339C130.783 240.846 130.81 240.326 130.991 239.779C131.172 239.233 131.475 238.753 131.901 238.342C132.329 237.923 132.827 237.617 133.397 237.423C133.968 237.221 134.547 237.159 135.134 237.237C135.713 237.314 136.197 237.517 136.585 237.846C136.983 238.169 137.246 238.576 137.373 239.069C137.502 239.554 137.476 240.07 137.296 240.617C137.115 241.164 136.811 241.647 136.382 242.065C135.957 242.477 135.458 242.783 134.886 242.985C134.325 243.18 133.755 243.239 133.176 243.162ZM133.508 242.159C133.872 242.208 134.233 242.169 134.59 242.041C134.949 241.907 135.265 241.703 135.537 241.43C135.812 241.149 136.009 240.827 136.13 240.462C136.25 240.097 136.272 239.755 136.196 239.436C136.122 239.109 135.962 238.842 135.716 238.635C135.472 238.42 135.168 238.288 134.803 238.24C134.43 238.19 134.06 238.232 133.693 238.366C133.337 238.493 133.021 238.697 132.746 238.978C132.474 239.251 132.277 239.57 132.157 239.934C132.036 240.299 132.013 240.645 132.087 240.972C132.164 241.291 132.324 241.558 132.567 241.773C132.822 241.981 133.135 242.11 133.508 242.159ZM143.017 236.976C142.692 236.933 142.44 236.967 142.263 237.078C142.093 237.19 141.968 237.368 141.888 237.611L141.685 238.226L143.35 238.447L143.011 239.473L141.346 239.252L139.802 243.923L138.672 243.773L140.216 239.102L139.026 238.944L139.365 237.918L140.555 238.076L140.758 237.461C140.951 236.876 141.263 236.457 141.694 236.205C142.128 235.946 142.67 235.859 143.32 235.946C143.637 235.988 143.9 236.058 144.107 236.157L143.779 237.148C143.572 237.073 143.318 237.016 143.017 236.976ZM151.935 239.469C152.435 239.535 152.85 239.693 153.181 239.943C153.52 240.195 153.738 240.537 153.835 240.97C153.935 241.395 153.889 241.897 153.698 242.474L152.655 245.63L151.525 245.48L152.561 242.347C152.727 241.845 152.704 241.426 152.492 241.089C152.281 240.752 151.941 240.552 151.473 240.49C151.156 240.448 150.84 240.489 150.526 240.614C150.211 240.738 149.934 240.927 149.693 241.181C149.462 241.428 149.295 241.707 149.192 242.018L148.195 245.038L147.065 244.888L149.719 236.855L150.79 236.997L149.766 240.096C150.083 239.861 150.435 239.686 150.821 239.57C151.207 239.455 151.578 239.421 151.935 239.469ZM162.391 240.976L160.508 246.673L159.437 246.531L159.739 245.619C159.414 245.901 159.045 246.114 158.634 246.258C158.232 246.395 157.833 246.437 157.437 246.384C156.953 246.32 156.55 246.163 156.226 245.914C155.911 245.666 155.703 245.329 155.604 244.904C155.515 244.472 155.566 243.967 155.757 243.39L156.8 240.234L157.93 240.384L156.894 243.517C156.729 244.018 156.751 244.438 156.963 244.775C157.174 245.112 157.514 245.312 157.982 245.374C158.323 245.42 158.645 245.383 158.949 245.265C159.264 245.14 159.532 244.954 159.755 244.706C159.985 244.459 160.152 244.18 160.255 243.868L161.26 240.826L162.391 240.976ZM172.243 242.166C172.719 242.229 173.111 242.384 173.418 242.631C173.734 242.879 173.932 243.219 174.013 243.65C174.105 244.074 174.055 244.575 173.864 245.152L172.821 248.309L171.691 248.158L172.727 245.025C172.892 244.524 172.873 244.105 172.67 243.769C172.474 243.433 172.151 243.236 171.699 243.176C171.207 243.111 170.755 243.225 170.343 243.519C169.932 243.813 169.645 244.204 169.485 244.69L168.479 247.732L167.349 247.582L168.385 244.448C168.55 243.947 168.531 243.528 168.328 243.192C168.132 242.857 167.809 242.659 167.357 242.599C166.865 242.534 166.413 242.648 166.001 242.942C165.59 243.237 165.303 243.627 165.143 244.113L164.137 247.155L163.007 247.005L164.89 241.308L165.961 241.45L165.663 242.35C165.98 242.067 166.335 241.857 166.729 241.719C167.13 241.582 167.521 241.539 167.902 241.589C168.369 241.651 168.757 241.806 169.065 242.053C169.382 242.293 169.582 242.617 169.662 243.024C170.008 242.705 170.409 242.469 170.865 242.316C171.332 242.156 171.791 242.106 172.243 242.166ZM182.491 243.646L180.608 249.343L179.478 249.193L179.76 248.338C179.414 248.609 179.038 248.809 178.631 248.937C178.227 249.058 177.827 249.092 177.43 249.04C176.907 248.97 176.472 248.782 176.127 248.474C175.784 248.159 175.564 247.761 175.466 247.28C175.368 246.799 175.413 246.274 175.602 245.704C175.79 245.135 176.081 244.642 176.475 244.226C176.869 243.811 177.321 243.506 177.832 243.313C178.346 243.111 178.865 243.045 179.388 243.115C179.8 243.169 180.155 243.312 180.451 243.541C180.748 243.771 180.969 244.066 181.115 244.426L181.42 243.504L182.491 243.646ZM177.952 248.062C178.301 248.109 178.646 248.067 178.986 247.938C179.327 247.809 179.626 247.607 179.882 247.331C180.141 247.049 180.332 246.721 180.455 246.349C180.578 245.977 180.609 245.632 180.548 245.315C180.49 244.99 180.346 244.725 180.116 244.52C179.886 244.315 179.596 244.189 179.247 244.143C178.898 244.096 178.557 244.138 178.224 244.269C177.892 244.399 177.596 244.605 177.337 244.888C177.08 245.163 176.89 245.487 176.767 245.859C176.644 246.231 176.612 246.58 176.67 246.905C176.731 247.222 176.872 247.483 177.095 247.687C177.317 247.891 177.603 248.016 177.952 248.062ZM188.063 244.267C188.546 244.331 188.946 244.487 189.261 244.735C189.585 244.984 189.791 245.325 189.88 245.757C189.979 246.183 189.934 246.684 189.743 247.261L188.7 250.417L187.57 250.267L188.605 247.134C188.771 246.633 188.748 246.213 188.537 245.876C188.325 245.539 187.986 245.339 187.518 245.277C187.177 245.232 186.849 245.271 186.535 245.396C186.231 245.514 185.963 245.697 185.733 245.944C185.51 246.192 185.347 246.471 185.244 246.783L184.239 249.825L183.109 249.675L184.992 243.978L186.062 244.12L185.761 245.032C186.086 244.75 186.449 244.54 186.85 244.403C187.262 244.26 187.666 244.214 188.063 244.267ZM199.439 245.778C200.05 245.859 200.54 246.055 200.909 246.365C201.286 246.677 201.521 247.081 201.614 247.577C201.709 248.066 201.655 248.617 201.452 249.233C201.399 249.392 201.356 249.509 201.323 249.584L196.446 248.937C196.38 249.388 196.473 249.781 196.727 250.116C196.991 250.444 197.357 250.639 197.825 250.702C198.594 250.804 199.23 250.607 199.734 250.111L200.899 250.265C200.533 250.772 200.036 251.162 199.408 251.435C198.782 251.701 198.144 251.791 197.493 251.704C196.914 251.627 196.433 251.433 196.047 251.12C195.665 250.799 195.417 250.398 195.303 249.915C195.192 249.424 195.229 248.898 195.415 248.336C195.601 247.774 195.899 247.286 196.309 246.873C196.721 246.452 197.198 246.146 197.741 245.957C198.294 245.761 198.86 245.701 199.439 245.778ZM199.099 246.732C198.631 246.67 198.181 246.756 197.747 246.992C197.321 247.229 196.995 247.562 196.77 247.992L200.422 248.477C200.525 248.015 200.452 247.625 200.201 247.306C199.958 246.989 199.591 246.797 199.099 246.732ZM207.458 246.843C207.648 246.868 207.823 246.903 207.982 246.948L207.632 248.008C207.499 247.958 207.278 247.913 206.969 247.872C206.62 247.826 206.285 247.861 205.966 247.977C205.654 248.094 205.38 248.272 205.144 248.51C204.918 248.742 204.755 249.009 204.655 249.313L203.634 252.401L202.504 252.251L204.387 246.554L205.458 246.696L205.168 247.573C205.49 247.299 205.851 247.097 206.249 246.968C206.659 246.832 207.061 246.79 207.458 246.843ZM212.816 247.554C213.006 247.58 213.181 247.615 213.34 247.66L212.989 248.719C212.857 248.67 212.636 248.625 212.326 248.584C211.977 248.537 211.643 248.572 211.323 248.688C211.011 248.805 210.737 248.983 210.501 249.221C210.276 249.453 210.113 249.721 210.012 250.025L208.992 253.112L207.862 252.962L209.745 247.265L210.815 247.408L210.525 248.285C210.848 248.011 211.208 247.809 211.607 247.679C212.016 247.543 212.419 247.502 212.816 247.554ZM215.451 254.089C214.864 254.011 214.371 253.811 213.973 253.489C213.577 253.158 213.314 252.751 213.185 252.266C213.058 251.773 213.085 251.253 213.265 250.707C213.446 250.16 213.749 249.681 214.175 249.269C214.603 248.85 215.102 248.544 215.671 248.35C216.243 248.148 216.822 248.086 217.409 248.164C217.988 248.241 218.471 248.444 218.859 248.773C219.257 249.096 219.52 249.503 219.647 249.996C219.776 250.481 219.751 250.997 219.57 251.544C219.389 252.091 219.085 252.574 218.657 252.993C218.231 253.404 217.732 253.71 217.161 253.912C216.6 254.107 216.03 254.166 215.451 254.089ZM215.782 253.087C216.147 253.135 216.508 253.096 216.864 252.969C217.223 252.834 217.539 252.63 217.811 252.357C218.086 252.076 218.284 251.754 218.404 251.389C218.525 251.024 218.547 250.682 218.47 250.363C218.396 250.036 218.236 249.769 217.99 249.562C217.746 249.347 217.442 249.215 217.077 249.167C216.705 249.118 216.335 249.16 215.968 249.293C215.611 249.42 215.295 249.624 215.021 249.905C214.748 250.178 214.552 250.497 214.431 250.861C214.311 251.226 214.288 251.572 214.362 251.899C214.438 252.218 214.598 252.485 214.842 252.7C215.096 252.908 215.409 253.037 215.782 253.087ZM225.541 249.244C225.731 249.27 225.906 249.305 226.065 249.35L225.714 250.409C225.582 250.36 225.361 250.315 225.051 250.274C224.702 250.227 224.368 250.262 224.048 250.378C223.736 250.495 223.462 250.673 223.226 250.911C223.001 251.143 222.838 251.411 222.737 251.715L221.717 254.803L220.587 254.652L222.47 248.955L223.54 249.098L223.25 249.975C223.573 249.701 223.933 249.499 224.332 249.369C224.741 249.233 225.144 249.192 225.541 249.244Z" fill="black"/>
</svg>
