<svg width="37" height="40" viewBox="0 0 37 40" fill="none" xmlns="http://www.w3.org/2000/svg">
<path d="M30.2881 6.16101H1V35.4491H30.2881V6.16101Z" fill="#F1EFED"/>
<path d="M30.2881 6.16101V35.4491L33.339 38.5V9.21186L30.2881 6.16101Z" fill="#5869DD"/>
<path d="M30.2881 35.4491H1L4.05085 38.5H33.339L30.2881 35.4491Z" fill="black"/>
<path d="M1 6.16101V5.55084H0.389831V6.16101H1ZM30.2881 6.16101L30.7196 5.72956L30.5409 5.55084H30.2881V6.16101ZM1 35.4491H0.389831V35.7019L0.568545 35.8806L1 35.4491ZM33.339 9.21186H33.9492V8.95912L33.7704 8.7804L33.339 9.21186ZM33.339 38.5V39.1102H33.9492V38.5H33.339ZM4.05085 38.5L3.61939 38.9314L3.79811 39.1102H4.05085V38.5ZM1 6.77118H30.2881V5.55084H1V6.77118ZM29.678 6.16101V35.4491H30.8983V6.16101H29.678ZM30.2881 34.839H1V36.0593H30.2881V34.839ZM1.61017 35.4491V6.16101H0.389831V35.4491H1.61017ZM32.7288 9.21186V38.5H33.9492V9.21186H32.7288ZM33.339 37.8898H4.05085V39.1102H33.339V37.8898ZM4.4823 38.0685L1.43145 35.0177L0.568545 35.8806L3.61939 38.9314L4.4823 38.0685ZM29.8567 35.8806L32.9075 38.9314L33.7704 38.0685L30.7196 35.0177L29.8567 35.8806ZM29.8567 6.59247L32.9075 9.64331L33.7704 8.7804L30.7196 5.72956L29.8567 6.59247Z" fill="black"/>
<path d="M6.49121 17.7543L7.10138 19.5848C9.54206 24.6696 15.0336 29.6526 18.6946 23.2459C22.9241 15.8441 30.0844 9.41534 34.559 6.16111V4.02551" stroke="black" stroke-width="3.66102"/>
<path fill-rule="evenodd" clip-rule="evenodd" d="M27.2305 11.8372C23.8436 15.2842 20.7249 19.1616 19.151 22.7592C18.2056 24.9201 16.8701 26.5154 14.9834 26.9592C13.1163 27.3985 11.4238 26.5384 10.1755 25.5509C7.66965 23.5686 5.47862 19.9264 4.23047 17.3261L7.53096 15.7418C8.72349 18.2263 10.6206 21.2349 12.4469 22.6797C13.3648 23.4058 13.8994 23.4533 14.145 23.3955C14.371 23.3423 15.0338 23.0359 15.7969 21.2918C17.6399 17.0792 21.1314 12.8209 24.6191 9.27136C28.132 5.6961 31.779 2.70196 34.0922 1.01965L36.2455 3.98045C34.0841 5.55238 30.5922 8.41587 27.2305 11.8372Z" fill="url(#paint0_linear_4068_13537)" stroke="black" stroke-width="0.610169"/>
<defs>
<linearGradient id="paint0_linear_4068_13537" x1="5.88071" y1="13.8726" x2="35.1689" y2="22.9407" gradientUnits="userSpaceOnUse">
<stop stop-color="#D6FFBB"/>
<stop offset="1" stop-color="#5869DD"/>
</linearGradient>
</defs>
</svg>
