<svg width="54" height="54" viewBox="0 0 54 54" fill="none" xmlns="http://www.w3.org/2000/svg">
<circle cx="27" cy="27" r="19" transform="rotate(39.3042 27 27)" stroke="black" stroke-width="2"/>
<path d="M36.9745 28.4245C37.5268 28.4336 37.9818 27.9933 37.9908 27.4411C37.9999 26.8889 37.5596 26.4339 37.0074 26.4248L36.9745 28.4245ZM17.2981 26.394C16.9012 26.7781 16.8908 27.4111 17.2749 27.808L23.5335 34.2756C23.9175 34.6725 24.5506 34.6829 24.9475 34.2989C25.3444 33.9148 25.3548 33.2817 24.9707 32.8849L19.4076 27.1359L25.1566 21.5727C25.5534 21.1886 25.5638 20.5555 25.1798 20.1586C24.7957 19.7618 24.1626 19.7514 23.7658 20.1354L17.2981 26.394ZM37.0074 26.4248L18.01 26.1128L17.9771 28.1125L36.9745 28.4245L37.0074 26.4248Z" fill="black"/>
</svg>
