<svg width="117" height="115" viewBox="0 0 117 115" fill="none" xmlns="http://www.w3.org/2000/svg">
<path d="M24.2858 91.1226L17.2702 113.387L108.465 93.1514L115.481 70.8866L24.2858 91.1226Z" fill="black"/>
<path d="M8.49834 73.9001L1.47693 96.1835L17.2644 113.406L17.2702 113.387M8.49834 73.9001L24.2858 91.1226M8.49834 73.9001L54.1161 63.7782L22.5411 29.3333L29.5625 7.0499M8.49834 73.9001L76.9238 58.7169L29.5625 7.0499M24.2858 91.1226L17.2702 113.387M24.2858 91.1226L115.481 70.8866M29.5625 7.0499L52.3714 1.98896L99.7323 53.6559L115.519 70.8781L115.481 70.8866M17.2702 113.387L108.465 93.1514L115.481 70.8866M17.2702 113.387L17.2321 113.396L24.2535 91.1124L115.487 70.868L115.481 70.8866" stroke="black" stroke-width="2" stroke-miterlimit="10" stroke-linecap="round" stroke-linejoin="round"/>
</svg>
