<svg width="434" height="292" viewBox="0 0 434 292" fill="none" xmlns="http://www.w3.org/2000/svg">
<path d="M245.754 108.719L224.467 110.767L215.489 130.303L236.776 128.255L245.754 108.719Z" fill="black"/>
<path d="M249.108 145.754L258.086 126.218L245.777 108.73L236.799 128.266M249.108 145.754L236.799 128.266M249.108 145.754L227.821 147.802L215.512 130.314L236.799 128.266M245.754 108.719L224.467 110.767L215.489 130.303L236.776 128.255L245.754 108.719Z" stroke="black" stroke-width="2" stroke-miterlimit="10" stroke-linecap="round" stroke-linejoin="round"/>
<path d="M434 0L427.136 12.9786C427.121 12.9924 427.102 13 427.082 13C427.061 13 427.042 12.9924 427.027 12.9786C427.018 12.9713 427.012 12.9623 427.007 12.9522C427.002 12.9421 427 12.9312 427 12.9201C427 12.9091 427.002 12.8981 427.007 12.888C427.012 12.8779 427.018 12.8689 427.027 12.8616L434 0Z" fill="black"/>
<path d="M420.969 26.258L413.511 39.8589C413.477 39.9218 413.419 39.9686 413.349 39.9889C413.28 40.0092 413.206 40.0014 413.142 39.9672C413.079 39.933 413.032 39.8752 413.011 39.8065C412.991 39.7378 412.999 39.6638 413.033 39.6009L420.667 26.0929C420.678 26.0725 420.693 26.0545 420.711 26.0399C420.729 26.0253 420.75 26.0143 420.772 26.0076C420.794 26.0009 420.817 25.9986 420.84 26.0008C420.863 26.0031 420.886 26.0098 420.906 26.0206C420.927 26.0315 420.945 26.0462 420.96 26.064C420.974 26.0818 420.986 26.1023 420.992 26.1243C420.999 26.1464 421.001 26.1695 420.999 26.1925C420.997 26.2154 420.99 26.2377 420.979 26.258H420.969Z" fill="black"/>
<path d="M404.967 239.494L396.781 251.81C396.718 251.904 396.621 251.97 396.51 251.992C396.399 252.014 396.284 251.991 396.19 251.929C396.096 251.866 396.03 251.769 396.008 251.658C395.986 251.547 396.009 251.432 396.072 251.338L404.376 239.15C404.4 239.113 404.432 239.081 404.47 239.056C404.507 239.031 404.549 239.014 404.593 239.006C404.637 238.997 404.683 238.998 404.727 239.008C404.77 239.017 404.812 239.036 404.848 239.061C404.917 239.108 404.966 239.177 404.988 239.256C405.01 239.335 405.002 239.42 404.967 239.494Z" fill="black"/>
<path d="M387.919 263.81C384.803 267.698 381.463 271.381 377.917 274.839C377.815 274.942 377.679 275 377.537 275C377.395 275 377.259 274.942 377.157 274.839C377.056 274.733 377 274.59 377 274.44C377 274.29 377.056 274.147 377.157 274.041C380.684 270.633 384.014 267.008 387.13 263.183C387.172 263.131 387.223 263.089 387.28 263.057C387.337 263.026 387.4 263.007 387.464 263.002C387.529 262.996 387.594 263.004 387.655 263.025C387.717 263.045 387.774 263.079 387.823 263.123C387.916 263.205 387.977 263.321 387.995 263.447C388.012 263.574 387.986 263.703 387.919 263.81Z" fill="black"/>
<path d="M365.839 284.143C361.498 287.066 356.797 289.362 351.866 290.968C351.782 290.996 351.693 291.006 351.604 290.997C351.516 290.988 351.431 290.961 351.352 290.917C351.274 290.874 351.205 290.814 351.15 290.742C351.094 290.67 351.053 290.587 351.028 290.498C350.977 290.319 350.996 290.127 351.08 289.963C351.164 289.799 351.307 289.676 351.478 289.622C356.301 288.086 360.901 285.872 365.154 283.043C365.287 282.99 365.434 282.986 365.57 283.032C365.705 283.078 365.822 283.172 365.899 283.296C365.977 283.421 366.011 283.57 365.997 283.719C365.982 283.867 365.919 284.005 365.819 284.111L365.839 284.143Z" fill="black"/>
<path d="M337.279 292C334.742 291.852 332.222 291.479 329.747 290.886C327.27 290.3 324.841 289.51 322.485 288.525C322.39 288.489 322.303 288.433 322.229 288.361C322.155 288.288 322.097 288.201 322.058 288.104C322.018 288.007 321.999 287.903 322 287.798C322.001 287.693 322.024 287.59 322.066 287.494C322.103 287.397 322.159 287.309 322.229 287.235C322.3 287.161 322.384 287.101 322.477 287.061C322.57 287.021 322.67 287 322.771 287C322.872 287 322.972 287.021 323.065 287.061C325.333 288.023 327.671 288.802 330.057 289.391C332.449 289.981 334.885 290.357 337.339 290.515C337.431 290.519 337.522 290.542 337.605 290.583C337.689 290.624 337.764 290.681 337.825 290.752C337.887 290.824 337.934 290.907 337.963 290.997C337.993 291.087 338.005 291.183 337.998 291.278C337.997 291.374 337.977 291.469 337.94 291.558C337.903 291.646 337.85 291.726 337.783 291.793C337.717 291.86 337.638 291.913 337.551 291.948C337.465 291.984 337.372 292.001 337.279 292Z" fill="black"/>
<path d="M310.504 278.61C308.082 274.084 306.558 269.125 306.016 264.011C305.994 263.896 305.995 263.778 306.019 263.664C306.044 263.55 306.092 263.442 306.161 263.348C306.229 263.253 306.316 263.174 306.416 263.116C306.516 263.057 306.628 263.02 306.743 263.007C306.964 262.978 307.188 263.039 307.365 263.177C307.542 263.314 307.658 263.516 307.688 263.74C308.18 268.655 309.61 273.428 311.897 277.796C312.001 277.983 312.028 278.203 311.971 278.41C311.914 278.616 311.778 278.791 311.593 278.896C311.409 279.001 311.19 279.028 310.986 278.97C310.781 278.913 310.608 278.776 310.504 278.59V278.61Z" fill="black"/>
<path d="M306 249.147C306.376 243.987 307.049 238.848 308.015 233.752C308.038 233.635 308.085 233.523 308.155 233.422C308.225 233.322 308.317 233.234 308.424 233.166C308.531 233.097 308.652 233.048 308.78 233.022C308.908 232.996 309.041 232.993 309.17 233.013C309.3 233.033 309.423 233.077 309.534 233.14C309.645 233.204 309.741 233.286 309.817 233.384C309.893 233.481 309.947 233.591 309.975 233.707C310.004 233.823 310.008 233.943 309.985 234.06C309.011 239.083 308.335 244.15 307.959 249.239C307.923 249.459 307.797 249.659 307.606 249.8C307.415 249.941 307.173 250.011 306.928 249.999C306.682 249.986 306.451 249.89 306.279 249.731C306.108 249.571 306.008 249.359 306 249.136V249.147Z" fill="black"/>
<path d="M311.014 218.969C311.65 216.569 312.266 214.169 312.913 211.769L315.136 204.648C315.171 204.535 315.229 204.429 315.307 204.337C315.385 204.245 315.482 204.168 315.591 204.111C315.701 204.054 315.821 204.018 315.945 204.005C316.07 203.992 316.195 204.003 316.315 204.036C316.435 204.069 316.547 204.124 316.644 204.198C316.742 204.272 316.823 204.364 316.883 204.467C316.943 204.571 316.981 204.685 316.994 204.802C317.008 204.92 316.997 205.039 316.962 205.152L314.739 212.234C314.092 214.614 313.466 217.004 312.83 219.394C312.754 219.606 312.597 219.784 312.389 219.891C312.181 219.999 311.938 220.028 311.709 219.973C311.48 219.918 311.28 219.783 311.151 219.595C311.023 219.407 310.973 219.18 311.014 218.959V218.969Z" fill="black"/>
<path d="M317.779 190.001C317.945 188.729 318.082 187.467 318.131 186.216C318.207 185.011 318.125 183.8 317.886 182.618C317.827 182.361 317.745 182.109 317.642 181.868C317.592 181.767 317.536 181.669 317.475 181.576C317.435 181.482 317.374 181.4 317.299 181.336C317.176 181.195 317.022 181.088 316.851 181.027C316.68 180.965 316.497 180.949 316.319 180.981C315.277 181.183 314.289 181.628 313.428 182.285C313.217 182.413 312.969 182.453 312.732 182.397C312.494 182.341 312.285 182.193 312.145 181.982C312.079 181.874 312.035 181.752 312.014 181.625C311.993 181.498 311.996 181.368 312.022 181.242C312.048 181.116 312.098 180.997 312.168 180.891C312.238 180.786 312.326 180.696 312.429 180.627C313.563 179.761 314.878 179.203 316.26 179H316.554H316.877C317.093 179.024 317.306 179.069 317.514 179.136L318.112 179.459C318.298 179.586 318.466 179.741 318.612 179.918C318.772 180.06 318.905 180.233 319.004 180.429C319.116 180.602 319.217 180.783 319.307 180.971C319.454 181.307 319.576 181.656 319.67 182.014C319.951 183.382 320.054 184.786 319.974 186.185C319.905 187.53 319.758 188.854 319.591 190.168C319.555 190.421 319.427 190.649 319.235 190.803C319.042 190.957 318.801 191.025 318.563 190.992C318.324 190.956 318.108 190.82 317.963 190.615C317.818 190.41 317.755 190.151 317.789 189.897L317.779 190.001Z" fill="black"/>
<path d="M302.44 191.887L291.458 201.878C291.263 201.986 291.038 202.024 290.819 201.986C290.6 201.948 290.4 201.836 290.252 201.669C290.103 201.502 290.015 201.289 290.002 201.065C289.988 200.841 290.05 200.619 290.178 200.435L301.17 190.484C301.249 190.351 301.358 190.238 301.488 190.154C301.618 190.071 301.766 190.02 301.919 190.005C302.073 189.99 302.227 190.011 302.371 190.067C302.515 190.124 302.643 190.213 302.747 190.329C302.85 190.444 302.925 190.583 302.965 190.733C303.006 190.883 303.011 191.041 302.98 191.194C302.949 191.346 302.884 191.489 302.788 191.612C302.693 191.734 302.57 191.832 302.431 191.897L302.44 191.887Z" fill="black"/>
<path d="M280.727 211.76C276.836 215.197 272.862 218.541 268.745 221.707C268.641 221.809 268.517 221.887 268.381 221.937C268.246 221.987 268.101 222.008 267.957 221.997C267.812 221.987 267.672 221.946 267.544 221.877C267.417 221.808 267.305 221.713 267.217 221.598C267.128 221.482 267.064 221.349 267.03 221.207C266.995 221.065 266.991 220.917 267.016 220.773C267.042 220.629 267.098 220.492 267.179 220.371C267.261 220.251 267.366 220.148 267.489 220.072C271.607 216.947 275.497 213.603 279.368 210.197C279.576 210.045 279.832 209.977 280.087 210.007C280.342 210.036 280.577 210.161 280.746 210.356C280.915 210.552 281.005 210.804 281 211.064C280.994 211.323 280.893 211.572 280.716 211.76H280.727Z" fill="black"/>
<path d="M255.341 229.945C251.151 232.567 246.792 234.896 242.293 236.914C242.182 236.967 242.061 236.996 241.938 237C241.815 237.003 241.693 236.982 241.579 236.936C241.464 236.891 241.36 236.822 241.272 236.735C241.184 236.647 241.114 236.542 241.066 236.426C240.978 236.194 240.978 235.936 241.066 235.704C241.155 235.472 241.325 235.282 241.543 235.172C245.959 233.173 250.237 230.871 254.348 228.282C254.453 228.177 254.58 228.098 254.719 228.051C254.859 228.003 255.007 227.989 255.152 228.008C255.298 228.028 255.438 228.081 255.56 228.163C255.683 228.246 255.786 228.355 255.862 228.484C255.937 228.613 255.983 228.758 255.996 228.907C256.009 229.057 255.989 229.208 255.937 229.348C255.885 229.489 255.803 229.615 255.696 229.718C255.589 229.822 255.461 229.899 255.321 229.945H255.341Z" fill="black"/>
<path d="M228.246 241.743C223.209 242.78 218.04 243.178 212.884 242.927C212.633 242.911 212.399 242.804 212.234 242.631C212.069 242.457 211.985 242.231 212.002 242.002C212.01 241.889 212.042 241.778 212.098 241.676C212.153 241.574 212.23 241.483 212.325 241.409C212.419 241.335 212.529 241.279 212.648 241.244C212.766 241.209 212.891 241.197 213.015 241.207C217.993 241.437 222.982 241.038 227.841 240.023C227.963 239.997 228.09 239.993 228.214 240.012C228.338 240.031 228.457 240.072 228.563 240.133C228.67 240.194 228.762 240.274 228.834 240.368C228.907 240.461 228.958 240.567 228.986 240.679C229.028 240.905 228.976 241.137 228.841 241.33C228.706 241.523 228.498 241.664 228.256 241.725L228.246 241.743Z" fill="black"/>
<path d="M198.649 239.905C193.787 237.872 189.285 235.071 185.318 231.612C185.227 231.533 185.152 231.437 185.097 231.329C185.043 231.221 185.011 231.104 185.002 230.983C184.994 230.863 185.009 230.742 185.047 230.628C185.085 230.514 185.146 230.408 185.225 230.317C185.304 230.226 185.401 230.151 185.509 230.097C185.617 230.043 185.735 230.011 185.856 230.002C185.977 229.994 186.098 230.009 186.213 230.047C186.328 230.085 186.434 230.145 186.525 230.224C190.35 233.542 194.683 236.227 199.361 238.179C199.482 238.219 199.594 238.285 199.69 238.37C199.785 238.456 199.862 238.56 199.915 238.677C199.969 238.793 199.997 238.919 200 239.047C200.002 239.175 199.978 239.302 199.93 239.42C199.881 239.538 199.808 239.646 199.716 239.735C199.624 239.824 199.515 239.894 199.395 239.939C199.275 239.984 199.147 240.005 199.018 239.999C198.89 239.993 198.764 239.961 198.649 239.905Z" fill="black"/>
<path d="M175.387 220.586C172.534 216.362 170.082 211.878 168.063 207.194C167.979 206.985 167.979 206.752 168.063 206.543C168.146 206.335 168.308 206.167 168.512 206.075C168.717 205.984 168.949 205.975 169.159 206.052C169.37 206.129 169.542 206.285 169.64 206.487C171.625 211.079 174.036 215.471 176.844 219.607C176.977 219.801 177.028 220.04 176.985 220.272C176.943 220.504 176.811 220.709 176.618 220.843C176.424 220.977 176.186 221.028 175.955 220.985C175.725 220.943 175.52 220.81 175.387 220.616V220.586Z" fill="black"/>
<path d="M162.356 193.461L157.049 179.074C156.976 178.875 156.985 178.655 157.073 178.463C157.16 178.27 157.32 178.12 157.516 178.046C157.713 177.976 157.93 177.986 158.12 178.074C158.309 178.163 158.458 178.322 158.533 178.519L163.972 192.906C164.026 193.115 164.001 193.336 163.904 193.527C163.806 193.719 163.642 193.867 163.443 193.943C163.243 194.02 163.023 194.019 162.825 193.941C162.626 193.864 162.462 193.715 162.366 193.523L162.356 193.461Z" fill="black"/>
<path d="M150.648 165.673C148.068 161.416 144.899 157.568 141.239 154.251C141.1 154.127 141.015 153.951 141.002 153.763C140.989 153.574 141.049 153.388 141.17 153.245C141.29 153.103 141.461 153.015 141.645 153.002C141.828 152.988 142.009 153.051 142.148 153.174C145.933 156.564 149.219 160.501 151.903 164.861C151.997 165.031 152.024 165.231 151.979 165.42C151.933 165.609 151.819 165.774 151.66 165.879C151.5 165.984 151.307 166.023 151.121 165.987C150.934 165.95 150.768 165.842 150.657 165.684L150.648 165.673Z" fill="black"/>
<path d="M128.097 146.94C123.719 144.793 119.126 143.225 114.413 142.268C114.274 142.22 114.157 142.118 114.083 141.981C114.009 141.844 113.983 141.682 114.011 141.526C114.038 141.369 114.117 141.23 114.232 141.133C114.347 141.036 114.491 140.99 114.635 141.002C119.449 141.955 124.145 143.522 128.629 145.673C128.78 145.75 128.898 145.889 128.958 146.059C129.017 146.23 129.014 146.42 128.948 146.588C128.915 146.672 128.866 146.747 128.806 146.81C128.746 146.872 128.676 146.921 128.599 146.954C128.521 146.987 128.439 147.002 128.356 147C128.273 146.997 128.192 146.977 128.116 146.94H128.097Z" fill="black"/>
<path d="M99.5329 141.374C94.5345 141.239 89.5338 141.447 84.5547 141.997C84.4215 142.013 84.2886 141.964 84.185 141.861C84.0815 141.758 84.0158 141.609 84.0025 141.447C83.9892 141.285 84.0293 141.123 84.1141 140.997C84.1988 140.871 84.3211 140.791 84.4543 140.775C89.4583 140.182 94.4856 139.929 99.5128 140.017C99.6477 140.039 99.7714 140.12 99.861 140.245C99.9506 140.369 100 140.53 100 140.695C100 140.861 99.9506 141.021 99.861 141.146C99.7714 141.271 99.6477 141.352 99.5128 141.374H99.5329Z" fill="black"/>
<path d="M69.6421 142.97L55.3842 145.991C55.3428 146.002 55.2998 146.003 55.2578 145.995C55.2159 145.986 55.1759 145.968 55.1405 145.941C55.1051 145.915 55.0749 145.88 55.0518 145.84C55.0287 145.8 55.0133 145.754 55.0065 145.707C54.998 145.66 54.9978 145.612 55.0059 145.566C55.014 145.519 55.0303 145.475 55.0537 145.435C55.0771 145.396 55.1072 145.362 55.1424 145.335C55.1775 145.309 55.2169 145.291 55.2583 145.282L69.5161 142.01C69.5684 141.997 69.6223 141.997 69.6748 142.008C69.7272 142.019 69.7771 142.043 69.8214 142.076C69.8657 142.11 69.9036 142.153 69.9327 142.204C69.9618 142.254 69.9815 142.311 69.9907 142.37C70.0021 142.428 70.003 142.488 69.9935 142.546C69.984 142.605 69.9642 142.661 69.9354 142.71C69.9065 142.76 69.8692 142.803 69.8254 142.836C69.7817 142.869 69.7326 142.893 69.6808 142.904L69.6421 142.97Z" fill="black"/>
<path d="M40.8092 149.462L26.1954 152.994C26.1756 153 26.1547 153.001 26.1341 152.999C26.1136 152.997 26.0937 152.991 26.0758 152.981C26.0578 152.971 26.0422 152.958 26.0299 152.942C26.0176 152.926 26.0089 152.908 26.0043 152.889C25.9949 152.852 26.0011 152.812 26.0217 152.778C26.0422 152.745 26.0756 152.72 26.1149 152.709L40.6885 149.007C40.7524 148.992 40.8199 149.002 40.8763 149.034C40.9327 149.066 40.9736 149.117 40.9902 149.177C40.9993 149.207 41.0021 149.237 40.9984 149.268C40.9947 149.298 40.9846 149.327 40.9686 149.354C40.9527 149.381 40.9312 149.404 40.9056 149.422C40.8799 149.441 40.8505 149.455 40.8192 149.462H40.8092Z" fill="black"/>
<path d="M11.9247 157.156L0 160L11.8941 157.017C11.9069 157.006 11.9232 157 11.94 157C11.9568 157 11.973 157.006 11.9859 157.017C11.9951 157.032 12 157.048 12 157.065C12 157.082 11.9951 157.099 11.9859 157.113L11.9247 157.156Z" fill="black"/>
<path d="M131 221.999L163.328 240.498L179.489 231.251V231.252L179.494 231.249L163.329 221.999L195.659 203.5L195.676 203.509L211.824 212.749L227.989 203.5L195.659 185L131 221.999Z" fill="black"/>
<path d="M195.659 203.5L163.329 221.999L179.511 231.249L195.676 221.999L195.659 203.5Z" fill="#F1EFED"/>
<path d="M131 221.999L130.503 221.131C130.192 221.309 130 221.641 130 221.999H131ZM179.494 231.249L179.991 232.117C180.302 231.939 180.494 231.608 180.494 231.249C180.494 230.89 180.302 230.559 179.991 230.381L179.494 231.249ZM163.329 221.999L162.833 221.131C162.522 221.309 162.329 221.641 162.329 221.999C162.329 222.358 162.521 222.689 162.833 222.867L163.329 221.999ZM195.659 203.5L196.156 202.632C195.848 202.456 195.47 202.456 195.163 202.632L195.659 203.5ZM211.824 212.749L211.328 213.617C211.636 213.794 212.013 213.793 212.321 213.617L211.824 212.749ZM227.989 203.5L228.486 204.368C228.797 204.189 228.989 203.858 228.989 203.5C228.989 203.141 228.797 202.81 228.486 202.632L227.989 203.5ZM195.659 185L196.156 184.132C195.848 183.956 195.47 183.956 195.163 184.132L195.659 185ZM211.836 212.749L211.339 211.881C211.028 212.06 210.836 212.391 210.836 212.749H211.836ZM211.836 231.249H210.836C210.836 231.606 211.025 231.935 211.334 232.114C211.642 232.293 212.023 232.294 212.332 232.117L211.836 231.249ZM228 221.999L228.497 222.867C228.808 222.689 229 222.358 229 221.999H228ZM228 203.5H229C229 203.143 228.81 202.813 228.502 202.635C228.193 202.456 227.813 202.455 227.503 202.632L228 203.5ZM211.344 232.117C211.823 232.391 212.434 232.225 212.709 231.746C212.983 231.266 212.817 230.655 212.337 230.381L211.344 232.117ZM196.676 203.5C196.676 202.947 196.228 202.5 195.676 202.5C195.123 202.5 194.676 202.947 194.676 203.5H196.676ZM179.511 231.249L179.014 232.117C179.322 232.293 179.7 232.293 180.007 232.117L179.511 231.249ZM163.324 240.5L162.827 239.632C162.516 239.811 162.324 240.142 162.324 240.5H163.324ZM163.324 259H162.324C162.324 259.357 162.514 259.686 162.822 259.865C163.131 260.044 163.511 260.045 163.821 259.868L163.324 259ZM179.489 249.75L179.986 250.618C180.297 250.44 180.489 250.109 180.489 249.75H179.489ZM179.489 231.251H180.489C180.489 230.894 180.299 230.564 179.991 230.385C179.682 230.207 179.302 230.205 178.993 230.383L179.489 231.251ZM163.329 258.999L162.833 259.867C163.142 260.044 163.523 260.043 163.831 259.864C164.14 259.685 164.329 259.355 164.329 258.999H163.329ZM131 240.499H130C130 240.858 130.192 241.189 130.503 241.367L131 240.499ZM179.991 230.381L163.826 221.131L162.833 222.867L178.998 232.117L179.991 230.381ZM163.826 222.867L196.156 204.368L195.163 202.632L162.833 221.131L163.826 222.867ZM212.321 213.617L228.486 204.368L227.492 202.632L211.328 211.882L212.321 213.617ZM228.486 202.632L196.156 184.132L195.163 185.868L227.492 204.368L228.486 202.632ZM195.163 184.132L130.503 221.131L131.497 222.867L196.156 185.868L195.163 184.132ZM210.836 212.749V231.249H212.836V212.749H210.836ZM212.332 232.117L228.497 222.867L227.503 221.131L211.339 230.381L212.332 232.117ZM229 221.999V203.5H227V221.999H229ZM227.503 202.632L211.339 211.881L212.332 213.617L228.497 204.368L227.503 202.632ZM212.337 230.381L196.172 221.131L195.179 222.867L211.344 232.117L212.337 230.381ZM195.179 221.131L179.014 230.381L180.007 232.117L196.172 222.867L195.179 221.131ZM162.324 240.5V259H164.324V240.5H162.324ZM163.821 259.868L179.986 250.618L178.993 248.882L162.828 258.132L163.821 259.868ZM163.826 258.131L131.497 239.631L130.503 241.367L162.833 259.867L163.826 258.131ZM132 240.499V221.999H130V240.499H132ZM162.329 240.499L162.329 258.999H164.329L164.329 240.499H162.329ZM130.503 222.867L162.831 241.366L163.825 239.63L131.497 221.131L130.503 222.867ZM163.825 241.366L179.986 232.118L178.993 230.383L162.831 239.63L163.825 241.366ZM178.489 231.251V231.252H180.489V231.251H178.489ZM179.986 232.12L179.991 232.117L178.998 230.381L178.993 230.384L179.986 232.12ZM195.163 204.368L195.179 204.377L196.172 202.641L196.156 202.632L195.163 204.368ZM195.179 204.377L211.328 213.617L212.321 211.882L196.172 202.641L195.179 204.377ZM196.676 221.999V203.509H194.676V221.999H196.676ZM196.676 203.509V203.5H194.676V203.509H196.676ZM180.489 249.75V231.252H178.489V249.75H180.489ZM163.826 241.367L179.986 232.12L178.993 230.384L162.833 239.631L163.826 241.367ZM162.831 239.63L162.827 239.632L163.821 241.368L163.825 241.366L162.831 239.63ZM162.831 241.366L162.833 241.367L163.826 239.631L163.825 239.63L162.831 241.366ZM162.833 222.867L178.992 232.12L179.986 230.384L163.826 221.132L162.833 222.867ZM196.676 221.999V203.5H194.676V221.999H196.676ZM194.659 203.501L194.676 222L196.676 221.998L196.659 203.499L194.659 203.501ZM180.007 230.381L163.826 221.131L162.833 222.867L179.014 232.117L180.007 230.381Z" fill="black"/>
</svg>
