<svg width="144" height="107" viewBox="0 0 144 107" fill="none" xmlns="http://www.w3.org/2000/svg">
<path d="M85.0994 83.8329L61.6628 84.5061L50.5236 105.146L73.9602 104.473L85.0994 83.8329Z" fill="black"/>
<path d="M48.1875 23.9144L60.4943 43.884L83.9421 43.2109L95.0829 22.5682L48.1875 23.9144Z" fill="black"/>
<path d="M107.412 42.5476L130.863 41.8744L142.006 21.2284L118.554 21.9016L107.412 42.5476Z" fill="black"/>
<path d="M61.6628 84.5061L12.4278 4.61512M61.6628 84.5061L85.0994 83.8329M61.6628 84.5061L50.5236 105.146M12.4278 4.61512L82.7815 2.59511L95.0904 22.5679L95.0829 22.5682M12.4278 4.61512L1.2853 25.2612L50.5202 105.152L50.5236 105.146M106.222 1.91609L118.53 21.8885M106.222 1.91609L95.0796 22.5621L95.0829 22.5682M106.222 1.91609L129.673 1.2425L141.982 21.2153L118.53 21.8885M118.53 21.8885L107.388 42.5346L95.0829 22.5682M85.0994 83.8329L73.9602 104.473L50.5236 105.146M85.0994 83.8329L85.1027 83.8267L61.652 84.5003L50.5095 105.146L50.5236 105.146M85.0994 83.8329L85.1135 83.8325L60.4943 43.884M60.4943 43.884L48.1875 23.9144L95.0829 22.5682M60.4943 43.884L83.9421 43.2109L95.0829 22.5682M60.4943 43.884L60.4907 43.8841L48.1818 23.9113L95.0847 22.5649L95.0829 22.5682M107.412 42.5476L130.863 41.8744L142.006 21.2284L118.554 21.9016L107.412 42.5476Z" stroke="black" stroke-width="2" stroke-miterlimit="10" stroke-linecap="round" stroke-linejoin="round"/>
</svg>
