<svg width="772" height="858" viewBox="0 0 772 858" fill="none" xmlns="http://www.w3.org/2000/svg">
<path d="M386.652 811.259L373.986 810.204L386.652 811.259Z" fill="black"/>
<path d="M361.311 809.195L348.657 808.107C348.64 808.11 348.622 808.106 348.608 808.097C348.593 808.087 348.583 808.072 348.58 808.055C348.577 808.047 348.576 808.038 348.577 808.029C348.579 808.02 348.582 808.011 348.587 808.004C348.592 807.996 348.598 807.99 348.606 807.986C348.614 807.981 348.623 807.979 348.632 807.978L361.297 809.124C361.308 809.124 361.318 809.127 361.327 809.133C361.336 809.139 361.343 809.147 361.346 809.157C361.345 809.167 361.341 809.175 361.335 809.182C361.329 809.189 361.32 809.193 361.311 809.195Z" fill="black"/>
<path d="M336.011 806.84L323.391 805.367C323.376 805.365 323.361 805.36 323.347 805.353C323.333 805.345 323.321 805.335 323.311 805.323C323.302 805.311 323.294 805.296 323.29 805.281C323.286 805.266 323.285 805.25 323.286 805.235C323.288 805.219 323.293 805.204 323.3 805.19C323.308 805.176 323.318 805.164 323.331 805.155C323.343 805.145 323.357 805.138 323.372 805.133C323.387 805.129 323.403 805.128 323.419 805.13L336.023 806.654C336.05 806.657 336.074 806.671 336.09 806.692C336.107 806.712 336.115 806.739 336.112 806.765C336.106 806.787 336.093 806.806 336.074 806.82C336.056 806.834 336.034 806.84 336.011 806.84Z" fill="black"/>
<path d="M310.808 803.613L298.268 801.508C298.223 801.5 298.184 801.474 298.157 801.437C298.131 801.401 298.119 801.355 298.125 801.31C298.134 801.266 298.159 801.226 298.196 801.2C298.233 801.173 298.278 801.162 298.323 801.168L310.843 803.319C310.862 803.322 310.88 803.329 310.896 803.339C310.912 803.349 310.926 803.362 310.936 803.378C310.947 803.394 310.954 803.412 310.957 803.43C310.96 803.449 310.959 803.468 310.955 803.487C310.95 803.522 310.933 803.555 310.906 803.578C310.879 803.601 310.844 803.614 310.808 803.613Z" fill="black"/>
<path d="M285.813 798.912L273.494 795.72C273.466 795.714 273.44 795.703 273.417 795.686C273.394 795.67 273.375 795.649 273.36 795.625C273.346 795.601 273.337 795.574 273.333 795.546C273.33 795.518 273.332 795.49 273.34 795.463C273.354 795.407 273.389 795.359 273.438 795.329C273.487 795.299 273.546 795.289 273.602 795.302L285.914 798.489C285.963 798.503 286.005 798.535 286.031 798.579C286.057 798.623 286.064 798.675 286.051 798.725C286.053 798.754 286.047 798.784 286.034 798.811C286.022 798.838 286.003 798.861 285.98 798.879C285.957 798.898 285.93 798.91 285.901 798.916C285.871 798.921 285.842 798.92 285.813 798.912Z" fill="black"/>
<path d="M261.424 791.673C257.455 790.174 253.593 788.407 249.863 786.386C249.832 786.37 249.805 786.347 249.783 786.32C249.761 786.294 249.745 786.263 249.735 786.229C249.725 786.196 249.722 786.161 249.725 786.127C249.729 786.092 249.74 786.059 249.756 786.028C249.793 785.969 249.851 785.925 249.919 785.906C249.986 785.887 250.059 785.895 250.121 785.927C253.825 787.97 257.665 789.755 261.614 791.27C261.673 791.294 261.721 791.341 261.746 791.4C261.771 791.459 261.772 791.526 261.749 791.585C261.715 791.637 261.663 791.674 261.603 791.691C261.543 791.707 261.48 791.701 261.424 791.673Z" fill="black"/>
<path d="M239.485 778.933C236.301 776.026 233.879 772.383 232.43 768.323C232.417 768.285 232.412 768.244 232.415 768.204C232.418 768.163 232.43 768.124 232.448 768.088C232.467 768.052 232.492 768.02 232.523 767.994C232.554 767.968 232.59 767.948 232.629 767.936C232.706 767.911 232.791 767.917 232.864 767.953C232.937 767.989 232.993 768.052 233.021 768.129C234.409 772.098 236.745 775.669 239.828 778.53C239.856 778.556 239.879 778.586 239.895 778.621C239.911 778.655 239.92 778.693 239.921 778.731C239.923 778.769 239.916 778.807 239.902 778.842C239.888 778.878 239.867 778.91 239.84 778.937C239.788 778.975 239.726 778.995 239.662 778.994C239.598 778.993 239.536 778.972 239.485 778.933Z" fill="black"/>
<path d="M232.071 755.646C233.164 751.507 234.911 747.568 237.245 743.978C237.27 743.938 237.301 743.903 237.339 743.876C237.377 743.848 237.42 743.828 237.465 743.817C237.511 743.806 237.558 743.804 237.604 743.811C237.65 743.818 237.695 743.834 237.735 743.858C237.776 743.882 237.813 743.914 237.841 743.953C237.87 743.991 237.89 744.035 237.901 744.082C237.912 744.128 237.913 744.177 237.904 744.224C237.895 744.271 237.877 744.315 237.85 744.355C235.547 747.878 233.816 751.743 232.719 755.807C232.697 755.893 232.643 755.967 232.568 756.014C232.492 756.06 232.402 756.076 232.315 756.056C232.229 756.034 232.154 755.978 232.108 755.902C232.063 755.825 232.049 755.733 232.071 755.646Z" fill="black"/>
<path d="M244.973 733.816C247.812 730.619 250.814 727.635 253.926 724.745C253.965 724.708 254.012 724.68 254.062 724.661C254.112 724.642 254.166 724.633 254.22 724.635C254.274 724.637 254.326 724.65 254.375 724.672C254.424 724.695 254.468 724.727 254.504 724.767C254.541 724.806 254.57 724.852 254.589 724.903C254.607 724.953 254.616 725.007 254.614 725.06C254.612 725.114 254.599 725.167 254.577 725.216C254.554 725.265 254.522 725.308 254.483 725.345C251.366 728.211 248.361 731.184 245.549 734.326C245.515 734.364 245.475 734.396 245.429 734.418C245.384 734.44 245.335 734.453 245.284 734.456C245.233 734.459 245.183 734.452 245.135 734.436C245.087 734.419 245.043 734.393 245.006 734.359C244.967 734.326 244.936 734.285 244.914 734.24C244.892 734.194 244.878 734.145 244.875 734.094C244.872 734.044 244.879 733.993 244.896 733.945C244.913 733.897 244.939 733.853 244.973 733.816Z" fill="black"/>
<path d="M263.4 716.25L273.136 708.065C273.181 708.027 273.233 707.998 273.289 707.98C273.344 707.962 273.403 707.955 273.462 707.961C273.52 707.966 273.577 707.982 273.629 708.01C273.681 708.037 273.727 708.074 273.764 708.12C273.839 708.209 273.876 708.324 273.867 708.44C273.858 708.557 273.802 708.664 273.714 708.74L263.98 716.907C263.894 716.979 263.782 717.013 263.67 717.003C263.558 716.993 263.455 716.938 263.383 716.852C263.344 716.812 263.312 716.764 263.292 716.712C263.271 716.66 263.261 716.604 263.263 716.547C263.264 716.491 263.277 716.436 263.301 716.385C263.325 716.334 263.358 716.288 263.4 716.25Z" fill="black"/>
<path d="M283.105 700.157L293.264 692.542C293.364 692.468 293.49 692.437 293.614 692.455C293.737 692.474 293.849 692.54 293.924 692.64C293.961 692.689 293.987 692.744 294.003 692.804C294.018 692.863 294.021 692.925 294.013 692.985C294.004 693.046 293.984 693.104 293.953 693.157C293.921 693.21 293.88 693.256 293.831 693.293L283.656 700.886C283.608 700.922 283.553 700.948 283.494 700.963C283.436 700.977 283.375 700.98 283.316 700.971C283.256 700.963 283.199 700.942 283.147 700.911C283.096 700.88 283.051 700.839 283.015 700.791C282.979 700.744 282.952 700.689 282.937 700.632C282.922 700.574 282.919 700.514 282.927 700.455C282.935 700.396 282.955 700.339 282.986 700.288C283.017 700.237 283.057 700.192 283.105 700.157Z" fill="black"/>
<path d="M303.63 685.119L314.133 677.89C314.185 677.852 314.245 677.825 314.308 677.811C314.371 677.796 314.437 677.795 314.501 677.806C314.564 677.818 314.625 677.842 314.679 677.878C314.734 677.913 314.78 677.959 314.816 678.013C314.854 678.066 314.88 678.127 314.894 678.191C314.908 678.255 314.909 678.321 314.897 678.385C314.885 678.449 314.861 678.511 314.825 678.565C314.789 678.62 314.742 678.667 314.688 678.703L304.181 685.909C304.13 685.945 304.072 685.971 304.01 685.984C303.949 685.998 303.885 685.999 303.824 685.988C303.762 685.977 303.703 685.953 303.65 685.919C303.597 685.885 303.552 685.84 303.517 685.789C303.479 685.737 303.453 685.679 303.438 685.618C303.424 685.556 303.422 685.492 303.433 685.43C303.443 685.368 303.466 685.308 303.5 685.255C303.534 685.201 303.578 685.155 303.63 685.119Z" fill="black"/>
<path d="M324.71 670.884L335.406 663.989C335.463 663.943 335.53 663.908 335.601 663.889C335.673 663.87 335.748 663.866 335.821 663.878C335.894 663.889 335.964 663.916 336.026 663.957C336.088 663.998 336.141 664.051 336.181 664.113C336.22 664.176 336.247 664.246 336.258 664.319C336.268 664.393 336.264 664.468 336.244 664.539C336.223 664.61 336.188 664.677 336.141 664.733C336.093 664.79 336.034 664.836 335.968 664.869L325.272 671.733C325.159 671.794 325.028 671.81 324.904 671.778C324.78 671.746 324.673 671.669 324.604 671.562C324.534 671.454 324.508 671.325 324.53 671.199C324.551 671.073 324.62 670.96 324.721 670.882L324.71 670.884Z" fill="black"/>
<path d="M346.123 657.181L356.921 650.468C357.046 650.39 357.195 650.365 357.338 650.398C357.481 650.431 357.604 650.519 357.682 650.643C357.76 650.767 357.785 650.917 357.752 651.06C357.719 651.203 357.631 651.326 357.507 651.404L346.697 658.089C346.637 658.126 346.571 658.151 346.501 658.162C346.432 658.173 346.361 658.171 346.293 658.154C346.224 658.138 346.16 658.109 346.103 658.068C346.046 658.027 345.998 657.975 345.961 657.915C345.924 657.855 345.899 657.789 345.888 657.719C345.877 657.65 345.879 657.579 345.895 657.511C345.912 657.443 345.941 657.378 345.982 657.321C346.023 657.264 346.075 657.216 346.135 657.179L346.123 657.181Z" fill="black"/>
<path d="M367.783 643.828L378.619 637.18C378.683 637.14 378.754 637.114 378.829 637.102C378.904 637.09 378.98 637.093 379.054 637.111C379.127 637.129 379.196 637.162 379.257 637.207C379.318 637.252 379.369 637.309 379.407 637.374C379.447 637.439 379.474 637.51 379.486 637.585C379.498 637.66 379.496 637.736 379.478 637.81C379.461 637.884 379.429 637.953 379.385 638.015C379.34 638.076 379.284 638.128 379.22 638.168L368.373 644.787C368.309 644.827 368.239 644.854 368.165 644.867C368.09 644.879 368.015 644.876 367.942 644.858C367.869 644.841 367.8 644.808 367.74 644.764C367.68 644.719 367.629 644.662 367.591 644.598C367.552 644.535 367.525 644.465 367.514 644.392C367.502 644.318 367.505 644.244 367.523 644.172C367.541 644.1 367.573 644.032 367.618 643.973C367.663 643.914 367.719 643.865 367.783 643.828Z" fill="black"/>
<path d="M389.441 630.523L400.232 623.805C400.3 623.763 400.374 623.735 400.453 623.722C400.531 623.709 400.611 623.711 400.688 623.729C400.765 623.747 400.838 623.78 400.902 623.826C400.967 623.872 401.022 623.93 401.063 623.997C401.105 624.064 401.134 624.139 401.147 624.217C401.16 624.295 401.157 624.375 401.14 624.452C401.122 624.53 401.089 624.603 401.043 624.667C400.997 624.732 400.939 624.786 400.871 624.828L390.061 631.513C389.996 631.554 389.923 631.581 389.847 631.593C389.771 631.605 389.694 631.603 389.619 631.585C389.544 631.567 389.473 631.535 389.411 631.49C389.348 631.445 389.295 631.388 389.255 631.323C389.215 631.257 389.187 631.184 389.175 631.108C389.163 631.032 389.166 630.955 389.183 630.88C389.201 630.805 389.233 630.734 389.278 630.672C389.323 630.609 389.38 630.556 389.446 630.516L389.441 630.523Z" fill="black"/>
<path d="M411.189 617.312L422.295 611.113C422.442 611.034 422.613 611.016 422.773 611.063C422.933 611.109 423.068 611.217 423.15 611.362C423.191 611.434 423.217 611.513 423.227 611.596C423.237 611.678 423.231 611.762 423.208 611.842C423.186 611.922 423.148 611.996 423.096 612.061C423.044 612.126 422.981 612.181 422.908 612.221L411.8 618.378C411.728 618.419 411.648 618.445 411.565 618.455C411.483 618.465 411.399 618.458 411.32 618.435C411.24 618.412 411.166 618.373 411.101 618.32C411.037 618.267 410.984 618.203 410.945 618.129C410.871 617.988 410.855 617.824 410.901 617.671C410.947 617.519 411.05 617.39 411.189 617.312Z" fill="black"/>
<path d="M433.453 605.019L444.577 598.883C444.731 598.798 444.912 598.777 445.08 598.826C445.249 598.874 445.391 598.988 445.476 599.141C445.561 599.295 445.582 599.476 445.533 599.644C445.485 599.813 445.371 599.955 445.218 600.04L434.072 606.162C433.998 606.21 433.915 606.243 433.828 606.257C433.74 606.272 433.651 606.268 433.565 606.247C433.479 606.226 433.399 606.187 433.329 606.133C433.259 606.079 433.2 606.011 433.157 605.934C433.115 605.856 433.088 605.771 433.08 605.683C433.071 605.595 433.081 605.506 433.109 605.422C433.136 605.338 433.181 605.26 433.239 605.194C433.298 605.128 433.37 605.075 433.45 605.038L433.453 605.019Z" fill="black"/>
<path d="M455.603 592.59L466.467 586.023C466.622 585.929 466.808 585.899 466.984 585.942C467.161 585.984 467.313 586.094 467.408 586.249C467.5 586.406 467.527 586.593 467.482 586.769C467.438 586.945 467.326 587.098 467.171 587.192L456.303 593.767C456.15 593.859 455.967 593.887 455.793 593.844C455.62 593.801 455.471 593.691 455.379 593.538C455.287 593.385 455.259 593.202 455.302 593.028C455.345 592.855 455.455 592.706 455.608 592.614L455.603 592.59Z" fill="black"/>
<path d="M477.064 579.061L487.29 571.573L487.314 571.538C487.389 571.483 487.474 571.443 487.565 571.421C487.655 571.399 487.749 571.395 487.841 571.409C487.933 571.424 488.021 571.456 488.1 571.505C488.18 571.554 488.248 571.618 488.303 571.694C488.414 571.845 488.462 572.035 488.434 572.221C488.406 572.407 488.306 572.575 488.155 572.687L477.846 580.19C477.772 580.248 477.688 580.291 477.598 580.316C477.507 580.34 477.413 580.347 477.32 580.334C477.228 580.321 477.138 580.29 477.058 580.242C476.978 580.194 476.908 580.13 476.853 580.054C476.798 579.979 476.758 579.893 476.737 579.801C476.716 579.71 476.714 579.616 476.73 579.523C476.747 579.431 476.782 579.343 476.833 579.265C476.884 579.187 476.951 579.119 477.029 579.067L477.064 579.061Z" fill="black"/>
<path d="M496.958 563.413C500.064 560.57 503.011 557.558 505.787 554.391C505.912 554.247 506.09 554.159 506.281 554.146C506.472 554.132 506.66 554.196 506.805 554.321C506.949 554.447 507.037 554.625 507.051 554.816C507.064 555.007 507.001 555.195 506.875 555.339C504.065 558.549 501.078 561.599 497.928 564.476C497.789 564.599 497.608 564.664 497.423 564.657C497.237 564.65 497.061 564.572 496.932 564.438C496.865 564.37 496.812 564.289 496.777 564.2C496.742 564.111 496.725 564.016 496.727 563.92C496.73 563.824 496.751 563.73 496.791 563.643C496.831 563.556 496.888 563.478 496.958 563.413Z" fill="black"/>
<path d="M513.361 544.319C514.482 542.55 515.532 540.734 516.486 538.863C517.447 537.034 518.197 535.102 518.722 533.104C518.738 533.003 518.775 532.906 518.83 532.82C518.886 532.735 518.958 532.661 519.044 532.605C519.129 532.549 519.225 532.511 519.326 532.494C519.427 532.477 519.53 532.48 519.629 532.505C519.728 532.53 519.821 532.575 519.902 532.638C519.982 532.701 520.049 532.779 520.098 532.869C520.146 532.959 520.176 533.058 520.184 533.16C520.193 533.262 520.18 533.364 520.147 533.461C519.588 535.567 518.795 537.603 517.782 539.532C516.806 541.436 515.742 543.294 514.589 545.106C514.481 545.266 514.313 545.377 514.124 545.414C513.934 545.451 513.737 545.411 513.577 545.303C513.417 545.195 513.306 545.028 513.269 544.838C513.232 544.648 513.272 544.451 513.38 544.291L513.361 544.319Z" fill="black"/>
<path d="M516.83 521.61C515.582 519.996 514.067 518.608 512.349 517.507C510.61 516.384 508.765 515.435 506.84 514.673C506.75 514.637 506.667 514.584 506.597 514.516C506.528 514.448 506.472 514.367 506.434 514.277C506.395 514.188 506.375 514.092 506.374 513.994C506.372 513.897 506.39 513.8 506.426 513.71C506.462 513.62 506.516 513.537 506.584 513.467C506.652 513.398 506.733 513.342 506.822 513.304C506.912 513.265 507.008 513.245 507.105 513.244C507.203 513.242 507.299 513.26 507.39 513.296C509.407 514.096 511.339 515.093 513.159 516.275C515.02 517.469 516.659 518.978 518.003 520.734C518.073 520.81 518.126 520.9 518.159 520.998C518.192 521.097 518.203 521.2 518.193 521.303C518.184 521.406 518.152 521.506 518.101 521.596C518.05 521.686 517.981 521.764 517.898 521.826C517.814 521.887 517.719 521.93 517.618 521.953C517.517 521.975 517.412 521.976 517.311 521.955C517.21 521.934 517.114 521.892 517.03 521.832C516.946 521.771 516.875 521.694 516.823 521.605L516.83 521.61Z" fill="black"/>
<path d="M494.752 511.321C490.607 510.572 486.404 510.06 482.217 509.722C482.119 509.714 482.024 509.687 481.936 509.642C481.848 509.597 481.77 509.536 481.706 509.461C481.643 509.386 481.594 509.299 481.564 509.206C481.533 509.112 481.522 509.014 481.529 508.915C481.537 508.817 481.564 508.722 481.609 508.634C481.653 508.546 481.715 508.468 481.79 508.404C481.865 508.341 481.951 508.292 482.045 508.262C482.139 508.231 482.237 508.22 482.335 508.227C486.589 508.554 490.824 509.099 495.022 509.858C495.205 509.905 495.363 510.02 495.464 510.179C495.565 510.338 495.603 510.53 495.568 510.715C495.534 510.901 495.431 511.067 495.279 511.179C495.128 511.291 494.939 511.342 494.752 511.321Z" fill="black"/>
<path d="M469.563 509.104L456.889 509.198C456.704 509.176 456.534 509.086 456.411 508.947C456.288 508.808 456.22 508.628 456.22 508.443C456.219 508.257 456.287 508.077 456.41 507.937C456.533 507.798 456.703 507.708 456.887 507.685L469.636 507.6C469.83 507.608 470.013 507.691 470.147 507.831C470.281 507.97 470.356 508.156 470.357 508.35C470.358 508.544 470.284 508.73 470.151 508.871C470.018 509.012 469.836 509.096 469.643 509.107L469.563 509.104Z" fill="black"/>
<path d="M444.182 509.557L431.467 509.757C431.36 509.77 431.251 509.761 431.148 509.729C431.044 509.697 430.949 509.644 430.868 509.572C430.787 509.501 430.722 509.413 430.677 509.315C430.632 509.216 430.609 509.109 430.609 509.001C430.609 508.893 430.632 508.786 430.676 508.687C430.721 508.589 430.785 508.501 430.866 508.429C430.947 508.357 431.043 508.304 431.146 508.272C431.249 508.24 431.358 508.23 431.465 508.243L444.123 508.066C444.232 508.048 444.344 508.055 444.45 508.084C444.556 508.114 444.655 508.166 444.739 508.237C444.823 508.308 444.891 508.397 444.937 508.497C444.984 508.597 445.008 508.705 445.009 508.816C445.009 508.926 444.986 509.035 444.94 509.135C444.894 509.236 444.827 509.325 444.744 509.397C444.66 509.469 444.562 509.522 444.456 509.552C444.35 509.583 444.239 509.59 444.13 509.573L444.182 509.557Z" fill="black"/>
<path d="M418.7 509.504C414.459 509.293 410.204 508.949 405.976 508.4C405.772 508.372 405.588 508.265 405.463 508.101C405.338 507.938 405.284 507.732 405.311 507.528C405.339 507.324 405.446 507.14 405.61 507.015C405.773 506.891 405.98 506.836 406.183 506.863C410.355 507.406 414.568 507.751 418.779 507.962C418.983 507.973 419.175 508.064 419.312 508.216C419.449 508.368 419.521 508.568 419.51 508.772C419.5 508.977 419.409 509.169 419.257 509.306C419.105 509.443 418.905 509.514 418.7 509.504Z" fill="black"/>
<path d="M393.4 506.027C389.24 504.976 385.185 503.547 381.286 501.757C381.096 501.668 380.95 501.508 380.878 501.312C380.806 501.115 380.816 500.898 380.905 500.708C380.993 500.518 381.153 500.372 381.35 500.3C381.547 500.228 381.764 500.238 381.954 500.327C385.767 502.089 389.736 503.495 393.81 504.524C394.011 504.576 394.183 504.705 394.289 504.884C394.395 505.062 394.425 505.276 394.374 505.477C394.322 505.678 394.193 505.85 394.014 505.956C393.836 506.062 393.622 506.092 393.421 506.041L393.4 506.027Z" fill="black"/>
<path d="M370.436 494.701C368.86 493.122 367.617 491.242 366.782 489.173C365.984 487.084 365.63 484.851 365.743 482.617C365.75 482.406 365.842 482.205 365.997 482.061C366.152 481.916 366.358 481.839 366.57 481.846C366.782 481.853 366.982 481.944 367.127 482.099C367.271 482.254 367.348 482.461 367.341 482.672C367.237 484.686 367.555 486.7 368.273 488.584C369.02 490.46 370.142 492.165 371.57 493.595C371.716 493.745 371.797 493.948 371.795 494.158C371.792 494.368 371.706 494.568 371.556 494.715C371.405 494.861 371.203 494.942 370.993 494.94C370.783 494.937 370.582 494.851 370.436 494.701Z" fill="black"/>
<path d="M369.606 470.228C371.666 466.467 374.067 462.902 376.781 459.581C376.918 459.43 377.108 459.336 377.312 459.32C377.515 459.304 377.718 459.365 377.878 459.493C378.038 459.62 378.143 459.803 378.173 460.005C378.203 460.208 378.154 460.414 378.038 460.582C375.381 463.824 373.022 467.3 370.989 470.966C370.887 471.148 370.718 471.283 370.517 471.341C370.317 471.399 370.102 471.377 369.918 471.278C369.735 471.18 369.597 471.013 369.534 470.814C369.472 470.615 369.49 470.4 369.585 470.214L369.606 470.228Z" fill="black"/>
<path d="M385.327 450.052L394.547 441.222C394.612 441.107 394.703 441.009 394.813 440.936C394.923 440.862 395.049 440.815 395.18 440.799C395.311 440.783 395.445 440.797 395.569 440.842C395.694 440.886 395.806 440.959 395.898 441.055C395.989 441.151 396.057 441.266 396.095 441.393C396.134 441.519 396.142 441.653 396.12 441.784C396.097 441.914 396.045 442.037 395.966 442.144C395.888 442.25 395.785 442.336 395.667 442.396L395.643 442.431L386.494 451.186L386.466 451.228C386.39 451.303 386.3 451.361 386.202 451.401C386.103 451.44 385.998 451.459 385.891 451.457C385.785 451.455 385.68 451.432 385.583 451.389C385.486 451.346 385.399 451.284 385.326 451.206C385.18 451.049 385.1 450.843 385.1 450.629C385.1 450.415 385.181 450.209 385.327 450.052Z" fill="black"/>
<path d="M404.13 432.853C405.728 431.467 407.324 430.1 408.908 428.705L413.632 424.439C413.796 424.299 414.007 424.227 414.223 424.237C414.438 424.247 414.641 424.339 414.791 424.494C414.931 424.658 415.003 424.869 414.993 425.084C414.982 425.299 414.891 425.502 414.736 425.652L410.028 429.909C408.439 431.311 406.811 432.697 405.18 434.071C405.012 434.15 404.824 434.173 404.643 434.135C404.462 434.097 404.298 434.001 404.177 433.861C404.056 433.721 403.983 433.546 403.971 433.361C403.959 433.177 404.007 432.993 404.109 432.839L404.13 432.853Z" fill="black"/>
<path d="M423.202 416.048L432.903 407.808C433.075 407.712 433.274 407.678 433.468 407.713C433.661 407.747 433.837 407.848 433.964 407.998C434.091 408.148 434.163 408.337 434.166 408.534C434.169 408.73 434.103 408.922 433.981 409.075L424.291 417.282C424.215 417.384 424.117 417.468 424.005 417.527C423.892 417.586 423.768 417.619 423.64 417.623C423.513 417.627 423.387 417.603 423.27 417.552C423.154 417.501 423.051 417.424 422.968 417.327C422.885 417.231 422.825 417.117 422.793 416.994C422.76 416.871 422.755 416.742 422.779 416.617C422.803 416.492 422.855 416.374 422.931 416.272C423.006 416.17 423.104 416.086 423.216 416.026L423.202 416.048Z" fill="black"/>
<path d="M442.673 399.677L452.482 391.581C452.656 391.442 452.878 391.377 453.099 391.4C453.321 391.423 453.525 391.532 453.666 391.704C453.804 391.877 453.868 392.097 453.846 392.317C453.824 392.537 453.717 392.739 453.547 392.881L443.741 400.958C443.568 401.056 443.367 401.091 443.171 401.055C442.976 401.02 442.799 400.916 442.672 400.764C442.544 400.611 442.475 400.419 442.475 400.22C442.475 400.021 442.546 399.829 442.673 399.677Z" fill="black"/>
<path d="M462.28 383.488L472.023 375.338C472.195 375.196 472.415 375.127 472.637 375.147C472.86 375.167 473.065 375.273 473.209 375.443C473.354 375.614 473.424 375.835 473.406 376.059C473.388 376.282 473.282 376.489 473.112 376.634L463.345 384.789C463.171 384.904 462.961 384.951 462.755 384.921C462.549 384.892 462.361 384.787 462.227 384.627C462.093 384.467 462.023 384.264 462.029 384.055C462.036 383.847 462.119 383.648 462.263 383.498L462.28 383.488Z" fill="black"/>
<path d="M481.679 367.089L491.188 358.679C491.358 358.573 491.56 358.531 491.758 358.559C491.956 358.588 492.138 358.685 492.271 358.835C492.404 358.984 492.479 359.176 492.484 359.376C492.49 359.577 492.424 359.772 492.298 359.928L482.77 368.366C482.69 368.453 482.592 368.521 482.484 368.568C482.376 368.615 482.259 368.638 482.141 368.637C482.023 368.636 481.906 368.61 481.799 368.562C481.692 368.513 481.595 368.442 481.517 368.354C481.438 368.266 481.379 368.163 481.343 368.051C481.306 367.938 481.294 367.82 481.306 367.703C481.318 367.585 481.354 367.472 481.413 367.369C481.472 367.267 481.551 367.178 481.646 367.108L481.679 367.089Z" fill="black"/>
<path d="M500.511 350.062L509.562 341.18C509.725 341.073 509.921 341.027 510.115 341.048C510.309 341.07 510.49 341.157 510.626 341.296C510.763 341.435 510.848 341.618 510.866 341.812C510.884 342.006 510.835 342.201 510.726 342.363L501.642 351.294C501.478 351.408 501.278 351.459 501.079 351.44C500.88 351.42 500.695 351.331 500.555 351.188C500.416 351.045 500.331 350.858 500.316 350.658C500.302 350.459 500.358 350.261 500.475 350.099L500.511 350.062Z" fill="black"/>
<path d="M518.346 332.025L526.706 322.545C526.765 322.43 526.849 322.329 526.952 322.251C527.056 322.174 527.175 322.12 527.303 322.096C527.43 322.072 527.561 322.077 527.685 322.111C527.81 322.145 527.925 322.207 528.023 322.293C528.12 322.378 528.196 322.485 528.245 322.604C528.295 322.724 528.316 322.853 528.308 322.982C528.3 323.111 528.262 323.237 528.198 323.349C528.134 323.462 528.044 323.558 527.937 323.63L519.53 333.12C519.47 333.232 519.385 333.33 519.281 333.406C519.178 333.481 519.059 333.532 518.933 333.555C518.807 333.578 518.678 333.572 518.555 333.538C518.432 333.504 518.318 333.442 518.222 333.357C518.126 333.273 518.05 333.168 518 333.05C517.951 332.932 517.929 332.804 517.935 332.677C517.942 332.549 517.978 332.424 518.039 332.312C518.101 332.2 518.187 332.104 518.292 332.03L518.346 332.025Z" fill="black"/>
<path d="M534.641 312.636C537.184 309.35 539.158 305.661 540.482 301.723C540.482 301.591 540.513 301.46 540.573 301.342C540.633 301.224 540.719 301.122 540.825 301.043C540.932 300.964 541.055 300.911 541.186 300.889C541.316 300.867 541.45 300.875 541.577 300.914C541.703 300.952 541.819 301.02 541.915 301.111C542.01 301.203 542.083 301.315 542.128 301.44C542.172 301.565 542.187 301.698 542.17 301.829C542.154 301.961 542.107 302.086 542.033 302.196C540.659 306.314 538.602 310.172 535.948 313.608C535.902 313.731 535.829 313.842 535.733 313.932C535.637 314.022 535.522 314.088 535.396 314.126C535.27 314.164 535.137 314.172 535.008 314.149C534.879 314.127 534.756 314.075 534.65 313.997C534.545 313.919 534.458 313.818 534.398 313.701C534.339 313.584 534.307 313.455 534.305 313.323C534.304 313.192 534.333 313.062 534.391 312.944C534.448 312.826 534.532 312.723 534.636 312.643L534.641 312.636Z" fill="black"/>
<path d="M539.109 290.416C537.785 288.907 536.113 287.745 534.237 287.03C532.322 286.296 530.321 285.809 528.283 285.583C528.173 285.577 528.066 285.548 527.968 285.498C527.87 285.449 527.783 285.38 527.712 285.295C527.642 285.211 527.59 285.113 527.559 285.007C527.528 284.902 527.518 284.791 527.532 284.682C527.545 284.572 527.581 284.467 527.637 284.372C527.692 284.277 527.767 284.195 527.856 284.13C527.944 284.065 528.045 284.019 528.153 283.995C528.26 283.97 528.371 283.968 528.479 283.988C530.66 284.223 532.799 284.745 534.844 285.538C536.96 286.341 538.845 287.653 540.332 289.359C540.399 289.525 540.413 289.708 540.37 289.882C540.327 290.056 540.23 290.212 540.094 290.327C539.957 290.443 539.787 290.512 539.608 290.525C539.43 290.538 539.252 290.494 539.1 290.399L539.109 290.416Z" fill="black"/>
<path d="M515.78 285.895L503.199 287.596C503.001 287.602 502.809 287.534 502.659 287.406C502.509 287.279 502.411 287.1 502.385 286.904C502.359 286.709 502.407 286.511 502.518 286.348C502.63 286.186 502.798 286.07 502.99 286.025L515.604 284.306C515.708 284.291 515.814 284.298 515.915 284.325C516.017 284.352 516.112 284.398 516.195 284.462C516.278 284.526 516.348 284.606 516.401 284.696C516.453 284.787 516.487 284.888 516.501 284.992C516.517 285.095 516.512 285.2 516.487 285.302C516.462 285.403 516.416 285.498 516.353 285.582C516.29 285.665 516.211 285.735 516.121 285.787C516.03 285.84 515.93 285.873 515.827 285.886L515.78 285.895Z" fill="black"/>
<path d="M490.698 289.708L478.225 292.084C478.123 292.104 478.019 292.105 477.918 292.084C477.816 292.064 477.72 292.024 477.634 291.966C477.549 291.909 477.475 291.834 477.419 291.748C477.362 291.662 477.323 291.565 477.304 291.464C477.283 291.363 477.283 291.259 477.303 291.159C477.323 291.058 477.362 290.962 477.42 290.877C477.477 290.792 477.551 290.72 477.637 290.663C477.722 290.607 477.819 290.569 477.92 290.55L490.415 288.158C490.517 288.137 490.623 288.136 490.726 288.156C490.828 288.175 490.926 288.216 491.013 288.274C491.1 288.332 491.175 288.406 491.233 288.494C491.291 288.581 491.331 288.679 491.35 288.782C491.37 288.884 491.369 288.99 491.347 289.093C491.326 289.195 491.284 289.292 491.224 289.378C491.165 289.464 491.088 289.537 491 289.594C490.912 289.65 490.813 289.688 490.71 289.706L490.698 289.708Z" fill="black"/>
<path d="M465.774 294.607L453.315 297.126C453.216 297.146 453.113 297.147 453.014 297.127C452.914 297.108 452.819 297.069 452.735 297.013C452.65 296.957 452.577 296.885 452.521 296.8C452.464 296.716 452.424 296.622 452.404 296.522C452.384 296.423 452.384 296.32 452.403 296.221C452.422 296.121 452.461 296.026 452.517 295.941C452.573 295.857 452.646 295.784 452.73 295.727C452.814 295.671 452.908 295.631 453.008 295.611L465.464 293.08C465.568 293.048 465.677 293.038 465.785 293.051C465.893 293.063 465.997 293.098 466.091 293.153C466.184 293.209 466.265 293.283 466.328 293.371C466.392 293.46 466.436 293.56 466.458 293.667C466.48 293.773 466.479 293.883 466.456 293.989C466.433 294.096 466.388 294.196 466.324 294.284C466.261 294.372 466.179 294.445 466.085 294.5C465.991 294.554 465.886 294.588 465.778 294.6L465.774 294.607Z" fill="black"/>
<path d="M440.809 299.52L428.3 301.688C428.197 301.717 428.088 301.724 427.981 301.708C427.874 301.692 427.772 301.654 427.681 301.596C427.59 301.538 427.512 301.462 427.453 301.372C427.393 301.282 427.353 301.181 427.334 301.075C427.316 300.969 427.321 300.86 427.347 300.755C427.374 300.651 427.422 300.553 427.489 300.468C427.555 300.383 427.639 300.314 427.735 300.263C427.83 300.213 427.935 300.183 428.042 300.176L440.548 298.026C440.647 298.006 440.749 298.006 440.848 298.026C440.947 298.046 441.041 298.085 441.124 298.141C441.208 298.198 441.28 298.27 441.335 298.354C441.391 298.439 441.429 298.533 441.448 298.632C441.467 298.732 441.467 298.834 441.447 298.934C441.427 299.033 441.387 299.128 441.331 299.212C441.274 299.297 441.201 299.369 441.116 299.425C441.031 299.481 440.936 299.52 440.837 299.539L440.809 299.52Z" fill="black"/>
<path d="M415.646 303.422L409.311 304.088C408.229 304.177 407.208 304.327 406.143 304.407L402.941 304.609C402.842 304.616 402.743 304.603 402.649 304.571C402.555 304.539 402.468 304.489 402.394 304.423C402.319 304.358 402.258 304.278 402.214 304.189C402.171 304.1 402.145 304.004 402.138 303.905C402.132 303.806 402.145 303.707 402.177 303.613C402.209 303.519 402.259 303.432 402.324 303.358C402.39 303.283 402.469 303.222 402.558 303.178C402.647 303.134 402.744 303.109 402.843 303.102L405.984 302.899C407.051 302.832 408.084 302.679 409.133 302.579L415.438 301.912C415.639 301.894 415.839 301.955 415.996 302.084C416.152 302.212 416.252 302.396 416.273 302.598C416.284 302.697 416.275 302.797 416.247 302.893C416.219 302.988 416.173 303.077 416.11 303.155C416.047 303.232 415.97 303.297 415.882 303.344C415.795 303.391 415.698 303.421 415.599 303.431L415.646 303.422Z" fill="black"/>
<path d="M390.159 304.712L377.435 304.047C377.337 304.042 377.24 304.018 377.152 303.976C377.063 303.934 376.984 303.875 376.918 303.802C376.785 303.655 376.716 303.461 376.726 303.263C376.736 303.066 376.824 302.88 376.971 302.747C377.118 302.614 377.312 302.545 377.51 302.555L377.545 302.579L390.169 303.227L390.204 303.25C390.395 303.271 390.571 303.364 390.695 303.511C390.82 303.657 390.884 303.845 390.875 304.037C390.866 304.229 390.783 304.41 390.645 304.543C390.507 304.677 390.323 304.752 390.13 304.754L390.159 304.712Z" fill="black"/>
<path d="M364.761 302.426C360.513 301.733 356.362 300.544 352.391 298.883C352.214 298.802 352.076 298.655 352.008 298.473C351.939 298.29 351.945 298.088 352.025 297.911C352.064 297.823 352.119 297.743 352.189 297.677C352.259 297.61 352.341 297.559 352.43 297.524C352.52 297.49 352.616 297.473 352.712 297.476C352.808 297.478 352.903 297.5 352.99 297.539C356.846 299.142 360.876 300.287 364.998 300.951C365.181 300.998 365.339 301.113 365.44 301.272C365.542 301.431 365.579 301.623 365.545 301.808C365.51 301.994 365.407 302.159 365.255 302.272C365.104 302.384 364.915 302.435 364.728 302.414L364.761 302.426Z" fill="black"/>
<path d="M345.376 288.537C346.079 286.411 347.249 284.468 348.798 282.851C350.256 281.256 351.844 279.782 353.544 278.447C353.619 278.386 353.705 278.342 353.797 278.314C353.889 278.287 353.986 278.279 354.081 278.289C354.177 278.299 354.27 278.328 354.354 278.374C354.438 278.421 354.513 278.483 354.573 278.558C354.633 278.632 354.678 278.718 354.705 278.811C354.732 278.903 354.741 278.999 354.731 279.095C354.72 279.191 354.691 279.283 354.645 279.367C354.599 279.452 354.537 279.526 354.462 279.587C352.825 280.872 351.296 282.289 349.891 283.823C348.506 285.27 347.453 287.002 346.808 288.899C346.787 288.997 346.745 289.091 346.687 289.173C346.628 289.255 346.553 289.325 346.467 289.377C346.38 289.429 346.284 289.463 346.184 289.476C346.084 289.489 345.982 289.482 345.885 289.454C345.788 289.427 345.697 289.38 345.619 289.316C345.541 289.252 345.477 289.172 345.431 289.082C345.385 288.993 345.357 288.894 345.351 288.794C345.344 288.693 345.358 288.592 345.392 288.497L345.376 288.537Z" fill="black"/>
<path d="M364.431 271.679L375.634 265.668C375.804 265.578 376.002 265.558 376.186 265.614C376.37 265.67 376.524 265.796 376.614 265.966C376.705 266.135 376.724 266.334 376.668 266.517C376.613 266.701 376.486 266.855 376.317 266.946L365.118 272.95C364.949 273.029 364.756 273.041 364.578 272.983C364.401 272.924 364.253 272.8 364.164 272.636C364.076 272.471 364.054 272.279 364.103 272.099C364.152 271.919 364.269 271.764 364.428 271.667L364.431 271.679Z" fill="black"/>
<path d="M386.861 259.712L398.051 253.723C398.214 253.653 398.398 253.647 398.565 253.706C398.733 253.765 398.872 253.885 398.956 254.041C399.04 254.198 399.063 254.38 399.019 254.552C398.976 254.724 398.87 254.874 398.722 254.972L387.523 260.976C387.355 261.065 387.16 261.084 386.978 261.029C386.797 260.974 386.645 260.849 386.556 260.682C386.466 260.514 386.447 260.319 386.502 260.137C386.557 259.956 386.682 259.804 386.85 259.715L386.861 259.712Z" fill="black"/>
<path d="M409.158 247.628L420.224 241.412C420.302 241.361 420.389 241.326 420.48 241.31C420.572 241.294 420.665 241.297 420.756 241.318C420.846 241.34 420.931 241.38 421.005 241.436C421.079 241.492 421.141 241.562 421.187 241.643C421.233 241.723 421.261 241.812 421.271 241.905C421.281 241.997 421.272 242.09 421.245 242.179C421.217 242.267 421.172 242.349 421.111 242.42C421.051 242.49 420.976 242.547 420.893 242.588L409.834 248.839C409.673 248.928 409.483 248.95 409.307 248.9C409.13 248.85 408.98 248.732 408.89 248.571C408.845 248.493 408.815 248.406 408.804 248.316C408.792 248.226 408.799 248.135 408.824 248.047C408.848 247.96 408.89 247.878 408.947 247.808C409.003 247.737 409.074 247.678 409.153 247.635L409.158 247.628Z" fill="black"/>
<path d="M431.199 235.043L442.069 228.48C442.216 228.408 442.385 228.394 442.541 228.44C442.698 228.487 442.832 228.59 442.916 228.73C443 228.87 443.029 229.037 442.996 229.197C442.963 229.357 442.871 229.499 442.738 229.595L431.889 236.172C431.744 236.259 431.571 236.286 431.406 236.249C431.24 236.212 431.096 236.113 431.002 235.972C430.917 235.827 430.89 235.654 430.927 235.49C430.964 235.325 431.062 235.181 431.201 235.085L431.199 235.043Z" fill="black"/>
<path d="M452.81 221.655L463.347 214.571C463.418 214.525 463.498 214.494 463.581 214.478C463.665 214.463 463.75 214.464 463.833 214.482C463.916 214.5 463.995 214.534 464.065 214.583C464.134 214.631 464.194 214.692 464.24 214.764C464.289 214.834 464.324 214.913 464.341 214.998C464.358 215.082 464.358 215.168 464.34 215.252C464.322 215.336 464.286 215.415 464.236 215.485C464.185 215.554 464.121 215.613 464.047 215.656L453.501 222.784C453.431 222.835 453.351 222.871 453.267 222.889C453.183 222.908 453.095 222.909 453.011 222.892C452.926 222.875 452.846 222.841 452.775 222.792C452.704 222.743 452.644 222.679 452.599 222.606C452.551 222.535 452.517 222.456 452.5 222.372C452.483 222.288 452.482 222.202 452.499 222.118C452.515 222.034 452.549 221.954 452.596 221.883C452.644 221.812 452.706 221.751 452.777 221.704L452.81 221.655Z" fill="black"/>
<path d="M473.61 207.15L483.467 199.179C483.593 199.08 483.751 199.035 483.91 199.052C484.068 199.069 484.214 199.147 484.315 199.27C484.364 199.331 484.401 199.401 484.423 199.476C484.445 199.551 484.451 199.63 484.443 199.708C484.434 199.785 484.41 199.861 484.372 199.929C484.334 199.997 484.283 200.058 484.222 200.106L474.322 208.14C474.26 208.191 474.188 208.229 474.111 208.252C474.034 208.275 473.953 208.283 473.874 208.274C473.794 208.266 473.716 208.242 473.646 208.204C473.575 208.166 473.513 208.114 473.462 208.052C473.411 207.989 473.373 207.918 473.35 207.841C473.327 207.764 473.32 207.683 473.328 207.603C473.336 207.523 473.36 207.446 473.398 207.375C473.437 207.305 473.489 207.242 473.551 207.192L473.61 207.15Z" fill="black"/>
<path d="M492.641 190.48C495.571 187.464 498.218 184.185 500.549 180.685C500.586 180.612 500.638 180.548 500.702 180.497C500.765 180.446 500.839 180.409 500.918 180.389C500.997 180.368 501.079 180.365 501.16 180.379C501.24 180.392 501.317 180.423 501.384 180.469C501.452 180.514 501.509 180.574 501.552 180.643C501.595 180.712 501.623 180.79 501.634 180.871C501.644 180.952 501.638 181.034 501.614 181.112C501.591 181.19 501.551 181.262 501.498 181.324C499.137 184.881 496.458 188.217 493.494 191.29C493.388 191.403 493.242 191.469 493.087 191.474C492.933 191.479 492.782 191.422 492.669 191.317C492.557 191.209 492.492 191.061 492.488 190.905C492.484 190.749 492.541 190.598 492.648 190.485L492.641 190.48Z" fill="black"/>
<path d="M505.153 169.226C505.405 167.192 505.225 165.128 504.626 163.168C503.988 161.218 502.972 159.412 501.637 157.853C501.587 157.799 501.549 157.736 501.525 157.667C501.5 157.598 501.49 157.525 501.495 157.452C501.5 157.379 501.519 157.307 501.552 157.242C501.585 157.177 501.631 157.119 501.687 157.072C501.743 157.024 501.807 156.989 501.877 156.968C501.947 156.946 502.021 156.939 502.094 156.947C502.166 156.955 502.237 156.977 502.301 157.013C502.365 157.048 502.421 157.097 502.465 157.155C503.905 158.816 504.996 160.75 505.674 162.842C506.327 164.951 506.525 167.174 506.255 169.365C506.234 169.509 506.159 169.64 506.044 169.729C505.928 169.818 505.783 169.859 505.638 169.842C505.494 169.826 505.361 169.754 505.269 169.642C505.176 169.529 505.132 169.385 505.144 169.24L505.153 169.226Z" fill="black"/>
<path d="M491.573 150.604C490.626 150.16 489.672 149.711 488.696 149.309C487.72 148.907 486.754 148.491 485.771 148.115C483.807 147.343 481.822 146.65 479.811 146.01C479.746 145.989 479.686 145.957 479.634 145.913C479.582 145.87 479.538 145.816 479.507 145.756C479.475 145.696 479.456 145.63 479.45 145.562C479.444 145.495 479.451 145.427 479.471 145.362C479.491 145.297 479.524 145.237 479.568 145.184C479.611 145.132 479.665 145.089 479.725 145.057C479.785 145.026 479.851 145.006 479.918 145C479.986 144.994 480.054 145.001 480.119 145.022C482.149 145.664 484.167 146.37 486.154 147.136C487.144 147.517 488.132 147.917 489.112 148.343C490.092 148.768 491.061 149.196 492.034 149.648C492.103 149.673 492.166 149.713 492.219 149.764C492.273 149.815 492.315 149.876 492.343 149.945C492.371 150.013 492.385 150.086 492.383 150.159C492.382 150.233 492.365 150.306 492.334 150.373C492.303 150.439 492.259 150.499 492.203 150.548C492.148 150.597 492.084 150.634 492.013 150.657C491.943 150.679 491.869 150.687 491.796 150.68C491.723 150.672 491.652 150.65 491.588 150.614L491.573 150.604Z" fill="black"/>
<path d="M467.553 142.847C463.416 142.01 459.24 141.383 455.045 140.907C454.936 140.873 454.843 140.803 454.78 140.709C454.718 140.615 454.689 140.502 454.7 140.389C454.711 140.276 454.761 140.171 454.841 140.09C454.921 140.01 455.026 139.96 455.139 139.948C459.362 140.413 463.59 141.055 467.744 141.881C467.808 141.893 467.87 141.917 467.925 141.953C467.98 141.989 468.027 142.035 468.064 142.09C468.101 142.144 468.126 142.205 468.139 142.269C468.152 142.334 468.151 142.4 468.138 142.464C468.126 142.529 468.101 142.592 468.064 142.647C468.027 142.703 467.98 142.75 467.925 142.787C467.869 142.824 467.807 142.85 467.742 142.862C467.676 142.875 467.609 142.874 467.544 142.861L467.553 142.847Z" fill="black"/>
<path d="M442.398 139.916L429.74 139.562C429.674 139.568 429.608 139.56 429.546 139.539C429.484 139.518 429.427 139.483 429.379 139.438C429.331 139.394 429.293 139.339 429.268 139.279C429.242 139.218 429.23 139.153 429.232 139.087C429.233 139.022 429.248 138.957 429.277 138.898C429.305 138.838 429.345 138.786 429.395 138.743C429.445 138.701 429.503 138.669 429.567 138.651C429.63 138.632 429.696 138.627 429.761 138.636L442.487 138.934C442.55 138.934 442.612 138.946 442.669 138.971C442.727 138.995 442.779 139.031 442.822 139.076C442.865 139.122 442.899 139.176 442.92 139.234C442.942 139.293 442.951 139.356 442.948 139.418C442.947 139.481 442.934 139.542 442.909 139.599C442.884 139.656 442.848 139.708 442.803 139.751C442.758 139.794 442.704 139.827 442.646 139.849C442.588 139.871 442.526 139.881 442.464 139.879L442.398 139.916Z" fill="black"/>
<path d="M417.005 139.698L404.299 139.976C404.184 139.975 404.073 139.929 403.991 139.849C403.908 139.768 403.859 139.659 403.855 139.544C403.853 139.486 403.863 139.43 403.883 139.376C403.904 139.323 403.935 139.275 403.975 139.234C404.015 139.193 404.063 139.16 404.116 139.139C404.169 139.117 404.225 139.106 404.282 139.106L416.995 138.803C417.106 138.811 417.21 138.861 417.286 138.942C417.362 139.022 417.406 139.128 417.409 139.24C417.411 139.351 417.373 139.459 417.3 139.543C417.228 139.627 417.127 139.682 417.017 139.696L417.005 139.698Z" fill="black"/>
<path d="M391.583 140.165L378.863 139.994C378.811 139.993 378.76 139.982 378.713 139.961C378.666 139.941 378.623 139.911 378.587 139.873C378.551 139.836 378.523 139.792 378.505 139.744C378.486 139.696 378.478 139.644 378.479 139.593C378.482 139.489 378.525 139.391 378.598 139.319C378.672 139.246 378.771 139.205 378.874 139.204L391.577 139.324C391.688 139.327 391.794 139.373 391.872 139.452C391.95 139.532 391.994 139.638 391.996 139.749C391.995 139.861 391.949 139.967 391.87 140.046C391.79 140.124 391.683 140.168 391.571 140.167L391.583 140.165Z" fill="black"/>
<path d="M372.515 134.643C374.108 133.216 375.792 131.892 377.555 130.682C379.301 129.456 381.076 128.292 382.887 127.121C382.965 127.072 383.059 127.056 383.149 127.076C383.239 127.097 383.317 127.152 383.366 127.229C383.391 127.267 383.408 127.309 383.416 127.354C383.424 127.398 383.423 127.443 383.413 127.487C383.404 127.531 383.385 127.573 383.36 127.609C383.334 127.646 383.301 127.677 383.263 127.701C381.471 128.844 379.716 130.022 377.994 131.243C376.262 132.438 374.61 133.745 373.048 135.156C373.014 135.19 372.972 135.216 372.927 135.234C372.882 135.251 372.833 135.26 372.785 135.259C372.736 135.257 372.688 135.246 372.644 135.226C372.599 135.206 372.56 135.177 372.527 135.141C372.493 135.105 372.467 135.063 372.45 135.017C372.432 134.971 372.424 134.922 372.426 134.873C372.428 134.824 372.439 134.776 372.46 134.731C372.48 134.686 372.51 134.646 372.546 134.613L372.515 134.643Z" fill="black"/>
<path d="M393.77 120.558L404.796 114.233C404.83 114.213 404.868 114.199 404.907 114.193C404.946 114.188 404.985 114.19 405.023 114.2C405.061 114.211 405.097 114.229 405.128 114.253C405.159 114.278 405.184 114.309 405.203 114.343C405.223 114.377 405.237 114.414 405.243 114.454C405.248 114.493 405.246 114.532 405.236 114.57C405.225 114.609 405.207 114.644 405.183 114.675C405.158 114.706 405.127 114.731 405.092 114.75L394.087 121.119C394.05 121.14 394.009 121.155 393.967 121.16C393.925 121.166 393.882 121.164 393.841 121.153C393.8 121.142 393.761 121.124 393.727 121.098C393.693 121.073 393.665 121.04 393.643 121.004C393.621 120.967 393.607 120.927 393.601 120.884C393.595 120.842 393.598 120.799 393.609 120.758C393.619 120.717 393.638 120.678 393.664 120.644C393.689 120.61 393.721 120.582 393.758 120.56L393.77 120.558Z" fill="black"/>
<path d="M415.226 107.035L425.32 99.3351C425.374 99.296 425.441 99.2789 425.508 99.2876C425.574 99.2962 425.634 99.3298 425.677 99.3816C425.716 99.4356 425.732 99.5028 425.722 99.5687C425.712 99.6346 425.677 99.6939 425.623 99.7339L415.541 107.492C415.513 107.514 415.481 107.53 415.447 107.54C415.412 107.549 415.376 107.552 415.341 107.547C415.305 107.543 415.271 107.531 415.24 107.514C415.209 107.496 415.182 107.473 415.16 107.444C415.138 107.416 415.122 107.384 415.112 107.349C415.103 107.315 415.1 107.279 415.105 107.244C415.109 107.208 415.12 107.174 415.138 107.143C415.156 107.112 415.179 107.085 415.207 107.063L415.226 107.035Z" fill="black"/>
<path d="M434.847 90.9583C437.908 88.0375 440.794 84.9391 443.491 81.6792C443.508 81.6583 443.529 81.6408 443.552 81.6278C443.576 81.6149 443.601 81.6067 443.628 81.6038C443.655 81.6008 443.682 81.6033 443.707 81.6108C443.733 81.6184 443.757 81.6309 443.778 81.6478C443.819 81.6828 443.844 81.7318 443.85 81.785C443.856 81.8383 443.842 81.8917 443.81 81.9347C441.112 85.2167 438.224 88.3377 435.161 91.2818C435.116 91.3118 435.062 91.3251 435.009 91.3195C434.956 91.3139 434.906 91.2897 434.869 91.2511C434.831 91.2125 434.809 91.1621 434.805 91.1086C434.801 91.0551 434.816 91.0018 434.847 90.9583Z" fill="black"/>
<path d="M450.714 71.2806C452.812 67.6059 454.408 63.6668 455.459 59.5683C455.469 59.5285 455.493 59.4939 455.528 59.4723C455.563 59.4506 455.604 59.4437 455.644 59.4529C455.684 59.4621 455.719 59.4868 455.74 59.5215C455.762 59.5562 455.769 59.5981 455.76 59.638C454.712 63.7676 453.121 67.74 451.029 71.4514C451.005 71.4916 450.966 71.5213 450.921 71.5346C450.876 71.5478 450.828 71.5437 450.786 71.523C450.765 71.5119 450.747 71.4968 450.732 71.4785C450.717 71.4603 450.706 71.4393 450.7 71.4167C450.693 71.3942 450.691 71.3706 450.693 71.3472C450.696 71.3238 450.703 71.3012 450.714 71.2806Z" fill="black"/>
<path d="M456.358 46.9787C456.139 44.8757 455.718 42.7987 455.1 40.7767C454.481 38.7582 453.69 36.7963 452.737 34.9124C452.73 34.9001 452.725 34.8866 452.724 34.8725C452.722 34.8585 452.724 34.8442 452.728 34.8308C452.732 34.8173 452.739 34.8049 452.748 34.7943C452.758 34.7837 452.769 34.7751 452.782 34.7692C452.795 34.7666 452.809 34.7667 452.822 34.7693C452.835 34.772 452.847 34.7772 452.859 34.7846C452.87 34.7921 452.879 34.8017 452.886 34.8129C452.894 34.8241 452.899 34.8366 452.902 34.8497C453.868 36.7445 454.671 38.7183 455.303 40.7495C455.927 42.7818 456.359 44.8687 456.59 46.9822C456.594 46.9993 456.595 47.0169 456.592 47.0342C456.588 47.0514 456.582 47.0677 456.572 47.0823C456.562 47.0968 456.55 47.1091 456.535 47.1185C456.52 47.1279 456.503 47.1341 456.486 47.1368C456.454 47.1408 456.421 47.133 456.394 47.1147C456.367 47.0964 456.347 47.069 456.339 47.0374L456.358 46.9787Z" fill="black"/>
<path d="M445.596 24.4618C442.801 21.2808 439.788 18.298 436.58 15.5347C436.58 15.5347 436.538 15.5063 436.571 15.4571C436.582 15.4469 436.597 15.4409 436.612 15.4402C436.628 15.4394 436.643 15.4438 436.655 15.4528C439.877 18.2112 442.902 21.1919 445.707 24.373C445.72 24.3767 445.732 24.3833 445.742 24.3925C445.752 24.4016 445.759 24.4128 445.764 24.4254C445.768 24.438 445.77 24.4515 445.768 24.4648C445.767 24.4781 445.762 24.4908 445.755 24.5019C445.747 24.513 445.737 24.5222 445.725 24.5287C445.714 24.5352 445.701 24.5389 445.687 24.5393C445.674 24.5398 445.66 24.537 445.648 24.5313C445.636 24.5256 445.626 24.5171 445.617 24.5066L445.596 24.4618Z" fill="black"/>
<path d="M357.945 618.433L380.117 615.725L388.857 595.169L366.685 597.877L357.945 618.433Z" fill="black"/>
<path d="M380.117 615.725L357.945 618.433L384.807 654.128L406.979 651.419L380.117 615.725Z" fill="#F1EFED"/>
<path d="M388.857 595.169L380.117 615.725L406.979 651.419L415.72 630.864L388.857 595.169Z" fill="#F1EFED"/>
<path d="M357.945 618.433L357.024 618.042C356.885 618.37 356.931 618.749 357.146 619.034L357.945 618.433ZM388.857 595.169L389.656 594.568C389.442 594.282 389.091 594.133 388.736 594.177L388.857 595.169ZM366.685 597.877L366.564 596.885C366.21 596.928 365.905 597.157 365.765 597.486L366.685 597.877ZM384.807 654.128L384.008 654.729C384.223 655.014 384.573 655.164 384.928 655.12L384.807 654.128ZM406.979 651.419L407.1 652.412C407.455 652.369 407.759 652.14 407.899 651.811L406.979 651.419ZM415.72 630.864L416.64 631.255C416.78 630.926 416.734 630.548 416.519 630.263L415.72 630.864ZM358.066 619.425L380.238 616.717L379.995 614.732L357.823 617.44L358.066 619.425ZM381.037 616.116L389.778 595.561L387.937 594.778L379.196 615.333L381.037 616.116ZM388.736 594.177L366.564 596.885L366.807 598.87L388.979 596.162L388.736 594.177ZM365.765 597.486L357.024 618.042L358.865 618.824L367.606 598.269L365.765 597.486ZM357.146 619.034L384.008 654.729L385.606 653.526L358.744 617.832L357.146 619.034ZM384.928 655.12L407.1 652.412L406.858 650.427L384.686 653.135L384.928 655.12ZM407.899 651.811L416.64 631.255L414.799 630.473L406.059 651.028L407.899 651.811ZM416.519 630.263L389.656 594.568L388.058 595.771L414.921 631.465L416.519 630.263ZM379.318 616.326L406.18 652.021L407.778 650.818L380.916 615.123L379.318 616.326Z" fill="black"/>
</svg>
