<svg width="777" height="447" viewBox="0 0 777 447" fill="none" xmlns="http://www.w3.org/2000/svg">
<path d="M58.1472 446.547L51.6846 434.99L58.1472 446.547Z" fill="black"/>
<path d="M45.1771 423.452L38.7498 411.886C38.7374 411.873 38.7305 411.856 38.7305 411.838C38.7305 411.82 38.7374 411.802 38.7498 411.789C38.7556 411.782 38.763 411.776 38.7714 411.772C38.7798 411.768 38.789 411.766 38.7984 411.766C38.8077 411.766 38.8169 411.768 38.8253 411.772C38.8338 411.776 38.8411 411.782 38.8469 411.789L45.2301 423.399C45.2366 423.408 45.24 423.419 45.24 423.43C45.24 423.441 45.2366 423.452 45.2301 423.461C45.2215 423.465 45.2117 423.467 45.2021 423.465C45.1925 423.464 45.1837 423.459 45.1771 423.452Z" fill="black"/>
<path d="M32.483 400.223L26.4088 388.463C26.4012 388.449 26.3965 388.433 26.395 388.417C26.3936 388.4 26.3953 388.384 26.4003 388.368C26.4052 388.353 26.4132 388.338 26.4237 388.326C26.4343 388.313 26.4472 388.303 26.4618 388.296C26.4763 388.288 26.4921 388.283 26.5084 388.282C26.5247 388.28 26.5412 388.282 26.5568 388.287C26.5724 388.292 26.5868 388.3 26.5993 388.31C26.6118 388.321 26.6221 388.334 26.6296 388.349L32.6507 400.126C32.6633 400.151 32.6657 400.179 32.6574 400.206C32.6492 400.232 32.6309 400.254 32.6066 400.267C32.584 400.275 32.5596 400.275 32.5371 400.267C32.5147 400.259 32.4956 400.243 32.483 400.223Z" fill="black"/>
<path d="M20.5989 376.571L15.1162 364.511C15.0978 364.467 15.0967 364.418 15.1131 364.374C15.1295 364.33 15.1622 364.293 15.2045 364.272C15.248 364.254 15.2969 364.253 15.3412 364.269C15.3855 364.286 15.4219 364.318 15.4429 364.361L20.8726 376.43C20.8812 376.447 20.8859 376.467 20.8865 376.487C20.8871 376.506 20.8835 376.526 20.876 376.544C20.8686 376.563 20.8573 376.579 20.843 376.593C20.8287 376.607 20.8117 376.617 20.7931 376.624C20.7599 376.641 20.7217 376.645 20.6858 376.635C20.6499 376.625 20.6189 376.602 20.5989 376.571Z" fill="black"/>
<path d="M10.1099 352.239L5.69553 339.737C5.6844 339.71 5.67903 339.681 5.67975 339.652C5.68047 339.622 5.68727 339.594 5.69972 339.567C5.71216 339.54 5.72999 339.517 5.75207 339.498C5.77414 339.478 5.79999 339.464 5.82797 339.455C5.88421 339.435 5.94612 339.437 6.00052 339.462C6.05493 339.487 6.09755 339.532 6.11931 339.587L10.5337 352.08C10.5507 352.13 10.5473 352.185 10.5242 352.233C10.501 352.281 10.4601 352.318 10.4101 352.336C10.3852 352.354 10.3564 352.366 10.326 352.371C10.2956 352.376 10.2644 352.374 10.2351 352.364C10.2057 352.355 10.1791 352.339 10.1573 352.317C10.1356 352.295 10.1193 352.268 10.1099 352.239Z" fill="black"/>
<path d="M2.16443 326.955C1.14917 322.653 0.426503 318.287 0.0013995 313.888C-0.0022518 313.852 0.00125846 313.816 0.0117322 313.781C0.0222059 313.747 0.0394335 313.714 0.0624189 313.686C0.0854043 313.658 0.11369 313.635 0.145646 313.619C0.177603 313.602 0.212598 313.591 0.248603 313.588C0.32163 313.585 0.393021 313.61 0.448622 313.657C0.504223 313.705 0.53997 313.771 0.548776 313.844C0.93991 318.233 1.63313 322.59 2.62352 326.884C2.6367 326.949 2.62378 327.017 2.58749 327.074C2.5512 327.13 2.49443 327.169 2.4293 327.184C2.36476 327.185 2.30224 327.162 2.25347 327.119C2.2047 327.077 2.17304 327.019 2.16443 326.955Z" fill="black"/>
<path d="M0.398994 300.582C1.0566 296.14 2.79361 291.926 5.45785 288.311C5.48372 288.277 5.51596 288.249 5.55271 288.229C5.58945 288.208 5.62996 288.195 5.67188 288.19C5.71379 288.185 5.75627 288.188 5.79683 288.2C5.83739 288.212 5.87522 288.231 5.90811 288.258C5.97486 288.31 6.01863 288.386 6.03016 288.47C6.04169 288.554 6.02009 288.639 5.96991 288.708C3.34838 292.218 1.6239 296.316 0.946377 300.644C0.941092 300.684 0.927819 300.721 0.907383 300.755C0.886948 300.79 0.859779 300.819 0.827537 300.842C0.795295 300.865 0.75866 300.882 0.719886 300.89C0.681112 300.899 0.64102 300.899 0.602057 300.891C0.539418 300.869 0.485803 300.826 0.449209 300.771C0.412614 300.715 0.394998 300.649 0.398994 300.582Z" fill="black"/>
<path d="M16.2021 280.621C20.4152 279.156 24.8351 278.372 29.2951 278.299C29.3438 278.297 29.3925 278.304 29.4384 278.321C29.4843 278.337 29.5265 278.362 29.5625 278.395C29.5986 278.428 29.6279 278.468 29.6486 278.512C29.6694 278.556 29.6813 278.604 29.6835 278.652C29.6872 278.702 29.6805 278.752 29.664 278.799C29.6474 278.846 29.6213 278.889 29.5873 278.926C29.5534 278.962 29.5122 278.991 29.4665 279.011C29.4207 279.031 29.3714 279.041 29.3215 279.041C24.937 279.103 20.5898 279.857 16.4404 281.275C16.3537 281.306 16.2581 281.303 16.1739 281.265C16.0897 281.227 16.0238 281.157 15.9902 281.071C15.9589 280.984 15.9636 280.887 16.0033 280.803C16.043 280.718 16.1145 280.653 16.2021 280.621Z" fill="black"/>
<path d="M42.5734 279.059C46.9877 279.65 51.3138 280.507 55.6222 281.513C55.6769 281.525 55.7285 281.549 55.7741 281.581C55.8198 281.614 55.8585 281.655 55.888 281.703C55.9176 281.75 55.9374 281.803 55.9464 281.859C55.9553 281.914 55.9531 281.971 55.9401 282.025C55.9276 282.08 55.9044 282.131 55.8718 282.177C55.8393 282.223 55.798 282.261 55.7504 282.291C55.7028 282.32 55.6497 282.34 55.5944 282.349C55.5391 282.358 55.4825 282.356 55.428 282.343C51.1372 281.319 46.82 280.454 42.4674 279.853C42.4151 279.847 42.3645 279.83 42.3187 279.804C42.273 279.777 42.2329 279.742 42.2008 279.7C42.1688 279.658 42.1454 279.611 42.1321 279.559C42.1187 279.508 42.1157 279.455 42.1231 279.403C42.1296 279.351 42.1465 279.3 42.1728 279.254C42.199 279.209 42.2341 279.168 42.276 279.136C42.3179 279.104 42.3658 279.081 42.4169 279.068C42.4679 279.054 42.5211 279.051 42.5734 279.059Z" fill="black"/>
<path d="M68.4771 284.751L81.2169 288.398C81.2758 288.414 81.3309 288.442 81.3789 288.479C81.4269 288.517 81.4668 288.564 81.4964 288.618C81.526 288.671 81.5447 288.73 81.5513 288.791C81.5578 288.851 81.5522 288.913 81.5347 288.971C81.5018 289.088 81.4238 289.188 81.3179 289.247C81.212 289.307 81.0868 289.322 80.9697 289.289L68.2475 285.634C68.1351 285.601 68.0404 285.525 67.9841 285.423C67.9278 285.32 67.9146 285.199 67.9473 285.087C67.9587 285.029 67.9817 284.975 68.0149 284.926C68.048 284.878 68.0907 284.837 68.1402 284.805C68.1898 284.774 68.2452 284.753 68.3031 284.744C68.361 284.734 68.4202 284.737 68.4771 284.751Z" fill="black"/>
<path d="M93.8514 292.406L106.344 296.75C106.466 296.794 106.567 296.884 106.623 297.002C106.679 297.119 106.687 297.254 106.644 297.377C106.623 297.437 106.591 297.492 106.549 297.54C106.506 297.588 106.455 297.627 106.397 297.655C106.34 297.683 106.278 297.699 106.214 297.703C106.15 297.706 106.087 297.698 106.026 297.677L93.5424 293.307C93.4832 293.286 93.4287 293.253 93.382 293.212C93.3353 293.17 93.2974 293.119 93.2703 293.062C93.2432 293.006 93.2276 292.944 93.2243 292.882C93.221 292.819 93.2301 292.756 93.2511 292.697C93.2709 292.638 93.3023 292.584 93.3433 292.538C93.3844 292.491 93.4343 292.453 93.4902 292.426C93.5461 292.399 93.6068 292.383 93.6688 292.38C93.7308 292.376 93.7929 292.385 93.8514 292.406Z" fill="black"/>
<path d="M118.793 301.386L131.153 306.25C131.217 306.274 131.275 306.309 131.324 306.356C131.373 306.402 131.412 306.458 131.439 306.519C131.466 306.581 131.481 306.648 131.482 306.715C131.483 306.783 131.47 306.85 131.445 306.912C131.42 306.976 131.383 307.034 131.336 307.083C131.289 307.132 131.233 307.172 131.17 307.199C131.108 307.226 131.041 307.24 130.972 307.241C130.904 307.242 130.837 307.229 130.774 307.204L118.431 302.321C118.37 302.298 118.314 302.263 118.267 302.217C118.219 302.172 118.181 302.118 118.155 302.058C118.129 301.998 118.115 301.934 118.114 301.868C118.112 301.803 118.124 301.738 118.149 301.677C118.171 301.615 118.206 301.558 118.251 301.51C118.295 301.462 118.349 301.423 118.409 301.396C118.47 301.368 118.534 301.354 118.6 301.352C118.666 301.35 118.732 301.362 118.793 301.386Z" fill="black"/>
<path d="M143.363 311.31L155.547 316.536C155.621 316.559 155.689 316.596 155.748 316.647C155.806 316.698 155.853 316.76 155.886 316.83C155.918 316.9 155.935 316.976 155.936 317.054C155.937 317.131 155.922 317.207 155.891 317.278C155.86 317.349 155.815 317.413 155.758 317.465C155.701 317.517 155.634 317.556 155.56 317.58C155.487 317.604 155.409 317.613 155.332 317.605C155.256 317.597 155.181 317.573 155.115 317.534L142.957 312.29C142.839 312.228 142.749 312.124 142.704 311.998C142.66 311.873 142.664 311.735 142.716 311.613C142.769 311.49 142.865 311.392 142.987 311.337C143.108 311.283 143.246 311.276 143.372 311.319L143.363 311.31Z" fill="black"/>
<path d="M167.668 321.834L179.755 327.254C179.894 327.317 180.003 327.431 180.058 327.574C180.113 327.716 180.108 327.874 180.046 328.014C179.984 328.153 179.869 328.262 179.727 328.317C179.585 328.371 179.426 328.367 179.287 328.305L167.218 322.858C167.152 322.828 167.091 322.785 167.041 322.731C166.991 322.678 166.952 322.615 166.926 322.547C166.901 322.478 166.889 322.405 166.891 322.332C166.893 322.259 166.91 322.187 166.94 322.121C166.97 322.054 167.013 321.994 167.067 321.944C167.12 321.894 167.183 321.855 167.251 321.829C167.32 321.803 167.392 321.791 167.466 321.793C167.539 321.796 167.611 321.812 167.677 321.842L167.668 321.834Z" fill="black"/>
<path d="M191.814 332.771L203.865 338.263C203.937 338.295 204.002 338.342 204.055 338.399C204.109 338.457 204.151 338.525 204.178 338.599C204.205 338.673 204.217 338.752 204.213 338.83C204.21 338.909 204.19 338.986 204.156 339.057C204.124 339.129 204.078 339.194 204.02 339.248C203.963 339.302 203.895 339.344 203.821 339.372C203.747 339.4 203.669 339.413 203.59 339.411C203.511 339.408 203.434 339.39 203.362 339.358L191.328 333.84C191.257 333.808 191.192 333.763 191.138 333.706C191.085 333.649 191.043 333.582 191.016 333.509C190.989 333.435 190.977 333.357 190.98 333.279C190.984 333.201 191.003 333.124 191.037 333.054C191.068 332.983 191.113 332.92 191.17 332.867C191.226 332.815 191.293 332.774 191.365 332.747C191.438 332.721 191.515 332.71 191.592 332.714C191.669 332.718 191.744 332.737 191.814 332.771Z" fill="black"/>
<path d="M215.917 343.738L228.003 349.15C228.079 349.183 228.147 349.232 228.203 349.292C228.26 349.351 228.305 349.422 228.334 349.499C228.364 349.576 228.378 349.658 228.375 349.741C228.373 349.823 228.355 349.904 228.321 349.98C228.287 350.055 228.239 350.123 228.179 350.18C228.12 350.237 228.049 350.281 227.972 350.311C227.895 350.34 227.813 350.354 227.73 350.352C227.648 350.35 227.567 350.331 227.491 350.298L215.422 344.85C215.349 344.817 215.283 344.77 215.229 344.712C215.174 344.653 215.131 344.584 215.103 344.509C215.074 344.434 215.061 344.355 215.064 344.274C215.066 344.194 215.085 344.116 215.118 344.042C215.151 343.969 215.198 343.904 215.256 343.849C215.315 343.794 215.384 343.751 215.459 343.723C215.534 343.695 215.613 343.681 215.694 343.684C215.774 343.686 215.853 343.705 215.926 343.738H215.917Z" fill="black"/>
<path d="M239.993 354.835L251.814 360.82C251.968 360.901 252.083 361.039 252.136 361.204C252.189 361.369 252.175 361.549 252.097 361.703C252.058 361.781 252.005 361.85 251.94 361.907C251.874 361.963 251.798 362.006 251.716 362.034C251.634 362.061 251.547 362.071 251.461 362.065C251.375 362.058 251.291 362.034 251.214 361.995L239.428 355.982C239.35 355.944 239.281 355.891 239.225 355.825C239.168 355.759 239.125 355.683 239.099 355.601C239.073 355.518 239.063 355.432 239.071 355.345C239.079 355.259 239.104 355.176 239.145 355.1C239.224 354.953 239.357 354.844 239.515 354.795C239.673 354.745 239.845 354.759 239.993 354.835Z" fill="black"/>
<path d="M263.575 366.912L275.353 372.951C275.515 373.034 275.638 373.179 275.695 373.352C275.751 373.526 275.736 373.715 275.653 373.878C275.57 374.041 275.425 374.164 275.251 374.22C275.077 374.276 274.888 374.261 274.726 374.178L262.948 368.113C262.863 368.077 262.787 368.024 262.723 367.957C262.66 367.89 262.611 367.811 262.579 367.724C262.548 367.638 262.535 367.546 262.54 367.454C262.546 367.362 262.571 367.272 262.613 367.19C262.655 367.108 262.713 367.035 262.784 366.977C262.855 366.918 262.938 366.875 263.026 366.85C263.115 366.825 263.208 366.818 263.299 366.83C263.391 366.842 263.478 366.873 263.557 366.921L263.575 366.912Z" fill="black"/>
<path d="M287.208 378.815L299.206 384.377C299.378 384.456 299.511 384.6 299.578 384.777C299.644 384.954 299.637 385.15 299.559 385.322C299.477 385.493 299.331 385.625 299.153 385.689C298.975 385.753 298.778 385.745 298.606 385.666L286.599 380.104C286.43 380.026 286.3 379.884 286.236 379.709C286.172 379.534 286.18 379.342 286.259 379.173C286.337 379.004 286.479 378.874 286.654 378.81C286.829 378.746 287.022 378.755 287.19 378.833L287.208 378.815Z" fill="black"/>
<path d="M311.391 389.479L323.813 393.955H323.858C323.949 393.988 324.033 394.038 324.105 394.103C324.176 394.169 324.235 394.247 324.276 394.335C324.317 394.423 324.34 394.518 324.344 394.615C324.348 394.712 324.333 394.809 324.299 394.9C324.233 395.085 324.097 395.236 323.92 395.32C323.743 395.404 323.539 395.415 323.354 395.35L310.87 390.812C310.778 390.783 310.692 390.735 310.618 390.671C310.544 390.607 310.483 390.529 310.44 390.442C310.397 390.354 310.373 390.259 310.367 390.161C310.362 390.064 310.376 389.967 310.41 389.875C310.443 389.783 310.495 389.699 310.561 389.628C310.628 389.557 310.708 389.5 310.797 389.46C310.887 389.421 310.983 389.4 311.08 389.399C311.178 389.397 311.275 389.416 311.365 389.453L311.391 389.479Z" fill="black"/>
<path d="M336.491 397.558C340.756 398.586 345.074 399.379 349.425 399.933C349.623 399.957 349.803 400.059 349.926 400.217C350.048 400.374 350.103 400.573 350.079 400.771C350.054 400.969 349.952 401.149 349.794 401.272C349.637 401.394 349.438 401.449 349.24 401.425C344.831 400.865 340.457 400.061 336.138 399.014C335.95 398.966 335.789 398.848 335.687 398.683C335.585 398.519 335.55 398.321 335.591 398.132C335.61 398.034 335.65 397.941 335.706 397.859C335.762 397.777 335.835 397.707 335.919 397.653C336.003 397.6 336.097 397.564 336.195 397.547C336.294 397.531 336.394 397.534 336.491 397.558Z" fill="black"/>
<path d="M362.536 400.612C364.717 400.55 366.898 400.4 369.07 400.135C371.209 399.901 373.315 399.424 375.347 398.714C375.444 398.669 375.548 398.645 375.655 398.643C375.761 398.641 375.867 398.661 375.965 398.702C376.064 398.743 376.152 398.804 376.226 398.881C376.299 398.958 376.356 399.049 376.392 399.149C376.428 399.249 376.443 399.356 376.436 399.462C376.429 399.568 376.4 399.672 376.351 399.766C376.301 399.861 376.233 399.944 376.15 400.01C376.067 400.077 375.971 400.125 375.868 400.153C373.724 400.897 371.502 401.397 369.246 401.645C367.033 401.91 364.808 402.072 362.572 402.13C362.37 402.13 362.177 402.05 362.035 401.908C361.892 401.766 361.812 401.573 361.812 401.371C361.812 401.17 361.892 400.977 362.035 400.834C362.177 400.692 362.37 400.612 362.572 400.612H362.536Z" fill="black"/>
<path d="M384.176 390.388C384.843 388.37 385.159 386.253 385.111 384.129C385.069 381.972 384.815 379.825 384.352 377.719C384.331 377.62 384.329 377.517 384.347 377.418C384.365 377.318 384.403 377.223 384.458 377.137C384.513 377.052 384.584 376.978 384.667 376.921C384.751 376.863 384.845 376.822 384.944 376.801C385.043 376.779 385.145 376.777 385.245 376.796C385.345 376.814 385.44 376.851 385.525 376.906C385.611 376.961 385.684 377.032 385.742 377.116C385.8 377.199 385.84 377.293 385.862 377.392C386.345 379.6 386.609 381.851 386.648 384.111C386.699 386.414 386.35 388.708 385.615 390.891C385.59 390.996 385.543 391.094 385.477 391.18C385.411 391.265 385.329 391.336 385.234 391.388C385.139 391.439 385.035 391.47 384.927 391.478C384.82 391.486 384.712 391.472 384.61 391.436C384.509 391.4 384.416 391.343 384.338 391.268C384.26 391.194 384.198 391.104 384.157 391.005C384.116 390.905 384.097 390.798 384.1 390.69C384.103 390.582 384.129 390.476 384.176 390.379V390.388Z" fill="black"/>
<path d="M380.211 365.323C378.445 361.306 376.441 357.377 374.295 353.563C374.245 353.474 374.213 353.376 374.2 353.274C374.188 353.172 374.195 353.069 374.223 352.97C374.25 352.871 374.297 352.779 374.36 352.698C374.423 352.617 374.502 352.55 374.591 352.499C374.68 352.449 374.779 352.417 374.88 352.404C374.982 352.392 375.085 352.4 375.184 352.427C375.283 352.454 375.375 352.501 375.456 352.564C375.537 352.627 375.605 352.706 375.655 352.795C377.849 356.661 379.844 360.636 381.632 364.705C381.697 364.89 381.69 365.094 381.612 365.274C381.533 365.454 381.389 365.598 381.209 365.676C381.029 365.755 380.826 365.762 380.64 365.696C380.455 365.631 380.301 365.497 380.211 365.323Z" fill="black"/>
<path d="M367.462 342.272L360.002 331.377C359.914 331.204 359.892 331.006 359.941 330.818C359.989 330.631 360.105 330.467 360.265 330.359C360.426 330.25 360.62 330.204 360.812 330.229C361.004 330.254 361.181 330.348 361.308 330.494L368.804 341.459C368.909 341.632 368.944 341.838 368.901 342.035C368.859 342.232 368.742 342.405 368.575 342.519C368.408 342.632 368.204 342.677 368.005 342.645C367.806 342.612 367.627 342.503 367.506 342.342L367.462 342.272Z" fill="black"/>
<path d="M352.295 320.606L344.72 309.737C344.646 309.653 344.59 309.553 344.558 309.445C344.525 309.337 344.516 309.224 344.53 309.112C344.545 309 344.583 308.893 344.642 308.797C344.701 308.701 344.78 308.619 344.873 308.556C344.967 308.493 345.072 308.451 345.183 308.431C345.294 308.412 345.408 308.417 345.517 308.445C345.626 308.473 345.728 308.525 345.816 308.595C345.904 308.666 345.975 308.754 346.026 308.855L353.548 319.687C353.627 319.771 353.687 319.871 353.723 319.98C353.759 320.089 353.772 320.204 353.759 320.318C353.747 320.433 353.709 320.543 353.65 320.641C353.591 320.739 353.511 320.824 353.416 320.888C353.321 320.953 353.214 320.996 353.1 321.015C352.987 321.034 352.871 321.028 352.76 320.998C352.649 320.968 352.546 320.914 352.458 320.84C352.371 320.766 352.3 320.674 352.251 320.57L352.295 320.606Z" fill="black"/>
<path d="M337.506 298.561C335.219 294.774 333.039 290.898 331.052 286.925C330.957 286.733 330.943 286.511 331.011 286.308C331.08 286.105 331.227 285.938 331.419 285.843C331.611 285.748 331.832 285.734 332.035 285.802C332.238 285.871 332.405 286.018 332.5 286.21C334.46 290.13 336.614 293.97 338.883 297.731C338.993 297.914 339.026 298.133 338.975 298.34C338.924 298.547 338.792 298.725 338.61 298.835C338.427 298.945 338.208 298.978 338.001 298.926C337.794 298.875 337.616 298.744 337.506 298.561Z" fill="black"/>
<path d="M325.781 274.679C324.267 270.474 323.141 266.139 322.417 261.728C322.383 261.512 322.436 261.292 322.565 261.116C322.693 260.94 322.886 260.821 323.101 260.787C323.317 260.754 323.537 260.807 323.713 260.935C323.89 261.063 324.008 261.256 324.042 261.472C324.739 265.793 325.835 270.04 327.317 274.159C327.39 274.362 327.378 274.587 327.286 274.782C327.193 274.977 327.027 275.128 326.823 275.2C326.619 275.273 326.395 275.262 326.199 275.169C326.004 275.076 325.854 274.91 325.781 274.706V274.679Z" fill="black"/>
<path d="M322.197 248.247C322.643 245.966 323.544 243.798 324.846 241.872C326.186 239.967 327.909 238.361 329.904 237.158C330.092 237.041 330.318 237.003 330.533 237.053C330.748 237.102 330.935 237.235 331.052 237.423C331.169 237.61 331.207 237.836 331.157 238.051C331.108 238.267 330.975 238.453 330.787 238.57C328.987 239.653 327.432 241.1 326.223 242.817C325.036 244.555 324.216 246.517 323.813 248.582C323.768 248.796 323.64 248.984 323.457 249.104C323.274 249.224 323.051 249.267 322.837 249.222C322.623 249.178 322.435 249.05 322.315 248.867C322.195 248.684 322.152 248.461 322.197 248.247Z" fill="black"/>
<path d="M342.857 233.283C347.306 232.872 351.783 232.872 356.232 233.283C356.443 233.313 356.634 233.423 356.767 233.589C356.9 233.756 356.964 233.967 356.947 234.179C356.93 234.391 356.834 234.589 356.676 234.733C356.519 234.876 356.313 234.954 356.1 234.951C351.751 234.544 347.375 234.529 343.024 234.907C342.808 234.925 342.593 234.857 342.426 234.718C342.259 234.579 342.153 234.38 342.131 234.164C342.109 233.948 342.173 233.732 342.309 233.562C342.444 233.392 342.641 233.282 342.857 233.256V233.283Z" fill="black"/>
<path d="M369.44 235.118L382.436 237.943C382.573 237.933 382.711 237.954 382.839 238.007C382.967 238.059 383.08 238.14 383.171 238.244C383.261 238.348 383.326 238.472 383.36 238.605C383.394 238.739 383.397 238.878 383.367 239.013C383.338 239.147 383.277 239.273 383.19 239.38C383.103 239.487 382.993 239.572 382.867 239.629C382.741 239.685 382.604 239.712 382.466 239.706C382.329 239.7 382.194 239.662 382.074 239.594H382.03L369.14 236.787H369.087C368.979 236.765 368.876 236.721 368.784 236.659C368.693 236.597 368.615 236.517 368.555 236.424C368.495 236.331 368.454 236.227 368.435 236.118C368.415 236.009 368.418 235.897 368.443 235.789C368.493 235.572 368.624 235.382 368.81 235.258C368.995 235.133 369.22 235.083 369.44 235.118Z" fill="black"/>
<path d="M395.245 241.351C397.373 241.925 399.483 242.507 401.61 243.063L408.047 244.661C408.263 244.722 408.448 244.862 408.564 245.054C408.681 245.246 408.72 245.475 408.673 245.694C408.613 245.911 408.473 246.096 408.281 246.212C408.089 246.329 407.86 246.368 407.64 246.321L401.222 244.732C399.085 244.176 396.94 243.576 394.804 242.966C394.638 242.868 394.509 242.718 394.436 242.54C394.364 242.361 394.351 242.164 394.401 241.978C394.451 241.792 394.561 241.627 394.713 241.509C394.866 241.391 395.052 241.326 395.245 241.324V241.351Z" fill="black"/>
<path d="M420.868 248.042L433.634 251.627C433.817 251.719 433.962 251.872 434.045 252.059C434.127 252.246 434.142 252.457 434.087 252.654C434.032 252.851 433.91 253.023 433.742 253.14C433.574 253.257 433.37 253.312 433.166 253.296L420.435 249.702C420.303 249.696 420.173 249.66 420.057 249.597C419.94 249.534 419.839 249.446 419.762 249.338C419.684 249.231 419.631 249.108 419.608 248.977C419.584 248.847 419.59 248.713 419.626 248.585C419.661 248.457 419.725 248.339 419.812 248.239C419.899 248.14 420.008 248.061 420.129 248.009C420.251 247.957 420.383 247.933 420.516 247.938C420.648 247.944 420.777 247.98 420.894 248.042H420.868Z" fill="black"/>
<path d="M446.347 255.335L459.051 259.096C459.273 259.165 459.458 259.319 459.567 259.524C459.676 259.729 459.7 259.968 459.634 260.191C459.565 260.41 459.412 260.594 459.209 260.703C459.007 260.812 458.769 260.837 458.548 260.774L445.861 257.004C445.676 256.912 445.529 256.757 445.445 256.568C445.362 256.378 445.348 256.165 445.406 255.966C445.464 255.768 445.59 255.595 445.762 255.48C445.934 255.365 446.141 255.313 446.347 255.335Z" fill="black"/>
<path d="M471.747 262.85L484.461 266.522C484.683 266.588 484.871 266.739 484.984 266.942C485.096 267.145 485.124 267.385 485.061 267.608C484.997 267.833 484.847 268.023 484.644 268.137C484.44 268.251 484.2 268.28 483.975 268.217L471.244 264.527C471.043 264.444 470.88 264.29 470.786 264.095C470.692 263.899 470.673 263.675 470.733 263.467C470.793 263.258 470.928 263.079 471.112 262.963C471.296 262.848 471.516 262.804 471.73 262.841L471.747 262.85Z" fill="black"/>
<path d="M497.21 270.061L510.011 273.381C510.202 273.466 510.356 273.615 510.447 273.803C510.538 273.991 510.559 274.205 510.507 274.407C510.455 274.609 510.334 274.786 510.164 274.907C509.994 275.027 509.787 275.084 509.579 275.067L496.742 271.747C496.62 271.728 496.504 271.684 496.401 271.618C496.297 271.551 496.209 271.464 496.141 271.362C496.074 271.259 496.028 271.143 496.007 271.022C495.987 270.901 495.992 270.777 496.022 270.658C496.053 270.539 496.107 270.427 496.183 270.33C496.259 270.234 496.354 270.154 496.463 270.096C496.571 270.038 496.69 270.004 496.813 269.995C496.935 269.986 497.059 270.002 497.174 270.043L497.21 270.061Z" fill="black"/>
<path d="M522.883 276.418L535.826 279.066C536.013 279.146 536.167 279.288 536.261 279.468C536.356 279.648 536.385 279.855 536.345 280.054C536.304 280.253 536.196 280.433 536.039 280.561C535.882 280.69 535.685 280.761 535.481 280.761L522.477 278.113C522.283 278.036 522.122 277.894 522.023 277.711C521.924 277.528 521.893 277.316 521.935 277.112C521.978 276.908 522.091 276.726 522.254 276.597C522.418 276.468 522.622 276.402 522.83 276.409L522.883 276.418Z" fill="black"/>
<path d="M548.848 281.328L561.905 283.032C562.039 283.015 562.175 283.029 562.302 283.073C562.43 283.117 562.545 283.19 562.64 283.285C562.735 283.381 562.807 283.497 562.85 283.625C562.894 283.752 562.907 283.888 562.89 284.022C562.872 284.155 562.825 284.283 562.75 284.396C562.676 284.508 562.576 284.602 562.46 284.67C562.344 284.738 562.213 284.778 562.079 284.788C561.944 284.798 561.81 284.777 561.685 284.727L548.592 282.988C548.459 283.001 548.325 282.985 548.2 282.94C548.074 282.894 547.961 282.821 547.868 282.726C547.775 282.63 547.705 282.515 547.663 282.389C547.62 282.262 547.607 282.128 547.625 281.996C547.642 281.864 547.688 281.737 547.761 281.626C547.834 281.514 547.932 281.421 548.046 281.352C548.16 281.284 548.289 281.242 548.421 281.23C548.554 281.218 548.688 281.237 548.812 281.284L548.848 281.328Z" fill="black"/>
<path d="M575.086 284.117C579.405 284.401 583.742 283.959 587.915 282.81C588.029 282.733 588.16 282.684 588.297 282.667C588.433 282.65 588.572 282.665 588.702 282.711C588.832 282.757 588.95 282.833 589.045 282.933C589.14 283.032 589.211 283.153 589.251 283.285C589.292 283.417 589.301 283.556 589.277 283.692C589.254 283.828 589.199 283.956 589.117 284.067C589.036 284.178 588.929 284.268 588.806 284.331C588.683 284.393 588.547 284.426 588.409 284.426C584.051 285.636 579.521 286.105 575.007 285.812C574.874 285.844 574.735 285.845 574.602 285.815C574.469 285.785 574.344 285.724 574.238 285.637C574.132 285.55 574.048 285.44 573.992 285.315C573.936 285.19 573.91 285.054 573.916 284.918C573.922 284.781 573.959 284.647 574.025 284.527C574.091 284.408 574.184 284.305 574.297 284.227C574.41 284.15 574.539 284.099 574.674 284.08C574.81 284.061 574.948 284.074 575.078 284.117H575.086Z" fill="black"/>
<path d="M596.885 275.041C597.418 273.019 597.448 270.897 596.973 268.861C596.494 266.779 595.749 264.767 594.757 262.875C594.699 262.776 594.662 262.667 594.647 262.553C594.633 262.439 594.642 262.324 594.674 262.214C594.706 262.104 594.76 262.001 594.833 261.913C594.906 261.825 594.997 261.753 595.099 261.701C595.201 261.649 595.313 261.618 595.427 261.611C595.542 261.604 595.656 261.62 595.764 261.659C595.872 261.698 595.97 261.759 596.054 261.837C596.137 261.916 596.204 262.01 596.249 262.116C597.316 264.136 598.111 266.288 598.615 268.516C599.154 270.812 599.118 273.204 598.509 275.482C598.406 275.637 598.255 275.755 598.08 275.819C597.905 275.884 597.714 275.891 597.535 275.84C597.355 275.789 597.197 275.682 597.082 275.536C596.966 275.389 596.901 275.21 596.894 275.023L596.885 275.041Z" fill="black"/>
<path d="M587.208 252.254L578.415 242.374C578.295 242.208 578.241 242.002 578.264 241.798C578.287 241.594 578.385 241.405 578.538 241.269C578.692 241.133 578.891 241.059 579.097 241.061C579.302 241.063 579.499 241.141 579.651 241.28L588.479 251.177C588.552 251.258 588.608 251.353 588.644 251.457C588.679 251.56 588.695 251.669 588.688 251.778C588.681 251.888 588.653 251.994 588.605 252.093C588.557 252.191 588.491 252.279 588.409 252.351C588.329 252.425 588.235 252.482 588.133 252.519C588.03 252.556 587.922 252.573 587.813 252.567C587.704 252.561 587.598 252.534 587.5 252.486C587.402 252.438 587.315 252.371 587.243 252.289L587.208 252.254Z" fill="black"/>
<path d="M569.313 232.805L559.999 223.411C559.922 223.336 559.861 223.246 559.82 223.147C559.778 223.047 559.757 222.941 559.757 222.833C559.757 222.725 559.778 222.619 559.82 222.52C559.861 222.42 559.922 222.33 559.999 222.255C560.074 222.178 560.163 222.118 560.261 222.076C560.36 222.035 560.466 222.014 560.573 222.014C560.679 222.014 560.785 222.035 560.884 222.076C560.982 222.118 561.072 222.178 561.146 222.255L570.487 231.657C570.565 231.733 570.628 231.824 570.67 231.925C570.713 232.025 570.735 232.133 570.736 232.242C570.736 232.351 570.715 232.459 570.674 232.56C570.632 232.661 570.571 232.752 570.493 232.829C570.416 232.906 570.324 232.966 570.223 233.007C570.122 233.048 570.013 233.068 569.904 233.067C569.795 233.066 569.688 233.043 569.588 232.999C569.488 232.956 569.397 232.893 569.322 232.814L569.313 232.805Z" fill="black"/>
<path d="M550.57 214.123L541.141 204.826C541.065 204.752 541.005 204.664 540.964 204.567C540.923 204.469 540.901 204.365 540.9 204.259C540.9 204.153 540.92 204.048 540.959 203.95C540.999 203.852 541.058 203.763 541.132 203.688C541.206 203.612 541.294 203.552 541.392 203.511C541.489 203.47 541.594 203.448 541.699 203.447C541.805 203.446 541.91 203.466 542.008 203.506C542.106 203.546 542.195 203.605 542.271 203.679L551.709 212.967C551.797 213.038 551.869 213.126 551.921 213.227C551.973 213.327 552.003 213.438 552.01 213.551C552.017 213.664 552 213.777 551.96 213.883C551.921 213.989 551.859 214.086 551.78 214.167C551.701 214.248 551.606 214.311 551.501 214.353C551.396 214.395 551.283 214.415 551.17 214.411C551.057 214.407 550.946 214.379 550.844 214.33C550.742 214.28 550.652 214.21 550.579 214.123H550.57Z" fill="black"/>
<path d="M531.792 195.415L522.637 185.871C522.551 185.798 522.482 185.708 522.434 185.606C522.385 185.505 522.359 185.395 522.356 185.282C522.353 185.17 522.373 185.058 522.416 184.954C522.459 184.85 522.523 184.757 522.604 184.679C522.686 184.602 522.782 184.542 522.888 184.504C522.994 184.466 523.106 184.451 523.218 184.459C523.33 184.468 523.439 184.499 523.538 184.552C523.637 184.605 523.724 184.679 523.793 184.767L532.931 194.32C533.006 194.394 533.065 194.482 533.106 194.579C533.146 194.676 533.167 194.78 533.167 194.885C533.167 194.99 533.146 195.094 533.106 195.191C533.065 195.288 533.006 195.376 532.931 195.45C532.856 195.525 532.768 195.585 532.67 195.625C532.572 195.666 532.467 195.687 532.361 195.687C532.256 195.687 532.151 195.666 532.053 195.625C531.955 195.585 531.867 195.525 531.792 195.45V195.415Z" fill="black"/>
<path d="M513.771 175.948L509.506 170.863C508.8 169.98 508.076 169.185 507.387 168.311L505.348 165.662C505.285 165.581 505.238 165.487 505.211 165.388C505.184 165.288 505.177 165.184 505.19 165.081C505.203 164.979 505.236 164.88 505.288 164.79C505.339 164.701 505.407 164.622 505.489 164.559C505.571 164.496 505.664 164.449 505.764 164.422C505.864 164.395 505.968 164.388 506.07 164.401C506.173 164.414 506.272 164.447 506.361 164.499C506.451 164.55 506.53 164.618 506.593 164.7L508.597 167.296C509.277 168.179 510.009 168.982 510.707 169.83L514.954 174.888C515.086 175.052 515.15 175.261 515.13 175.471C515.11 175.68 515.009 175.874 514.848 176.01C514.768 176.077 514.677 176.128 514.578 176.159C514.479 176.191 514.375 176.202 514.271 176.193C514.168 176.184 514.067 176.155 513.975 176.106C513.883 176.058 513.802 175.992 513.735 175.913L513.771 175.948Z" fill="black"/>
<path d="M497.818 154.679L490.985 143.299C490.932 143.212 490.897 143.115 490.882 143.013C490.867 142.912 490.871 142.809 490.896 142.71C490.946 142.51 491.073 142.337 491.25 142.231C491.426 142.124 491.638 142.092 491.839 142.142C492.039 142.192 492.211 142.319 492.318 142.496V142.54L499.107 153.823V153.867C499.2 154.044 499.222 154.25 499.169 154.443C499.115 154.636 498.99 154.801 498.818 154.905C498.647 155.008 498.443 155.043 498.247 155.001C498.051 154.959 497.879 154.844 497.765 154.679H497.818Z" fill="black"/>
<path d="M485.008 131.405C483.133 127.332 481.743 123.054 480.867 118.657C480.834 118.457 480.881 118.251 480.998 118.086C481.116 117.921 481.294 117.808 481.494 117.774C481.592 117.756 481.693 117.758 481.791 117.779C481.889 117.801 481.982 117.842 482.064 117.899C482.146 117.956 482.216 118.03 482.269 118.114C482.323 118.199 482.36 118.293 482.377 118.392C483.236 122.656 484.594 126.804 486.42 130.752C486.486 130.937 486.478 131.141 486.4 131.321C486.321 131.501 486.178 131.645 485.997 131.723C485.817 131.801 485.614 131.809 485.429 131.743C485.243 131.678 485.09 131.544 484.999 131.37L485.008 131.405Z" fill="black"/>
<path d="M485.723 106.572C487.969 105.943 490.328 105.822 492.627 106.219C494.855 106.55 497.052 107.064 499.195 107.755C499.291 107.785 499.38 107.833 499.457 107.897C499.534 107.961 499.598 108.039 499.645 108.128C499.691 108.216 499.72 108.313 499.729 108.413C499.739 108.513 499.728 108.613 499.699 108.709C499.669 108.805 499.621 108.893 499.557 108.97C499.493 109.048 499.415 109.111 499.326 109.158C499.238 109.205 499.141 109.234 499.041 109.243C498.941 109.252 498.841 109.242 498.745 109.212C496.682 108.546 494.568 108.05 492.424 107.729C490.367 107.375 488.258 107.474 486.244 108.02C486.146 108.06 486.042 108.078 485.936 108.076C485.831 108.073 485.728 108.049 485.632 108.004C485.537 107.96 485.452 107.896 485.382 107.818C485.312 107.739 485.259 107.647 485.227 107.547C485.194 107.447 485.182 107.341 485.192 107.236C485.202 107.132 485.233 107.03 485.283 106.938C485.334 106.846 485.403 106.765 485.486 106.7C485.57 106.636 485.665 106.589 485.767 106.563L485.723 106.572Z" fill="black"/>
<path d="M511.379 113.219L523.095 119.399C523.272 119.493 523.404 119.653 523.463 119.844C523.522 120.036 523.502 120.242 523.408 120.419C523.315 120.596 523.155 120.728 522.963 120.787C522.772 120.846 522.565 120.826 522.389 120.733L510.682 114.552C510.515 114.453 510.392 114.293 510.339 114.106C510.286 113.919 510.307 113.718 510.398 113.546C510.489 113.374 510.642 113.243 510.826 113.181C511.01 113.118 511.211 113.129 511.388 113.211L511.379 113.219Z" fill="black"/>
<path d="M534.776 125.633L546.465 131.813C546.62 131.914 546.732 132.069 546.778 132.248C546.825 132.427 546.803 132.617 546.717 132.78C546.631 132.944 546.486 133.069 546.312 133.132C546.138 133.195 545.947 133.19 545.776 133.119L534.07 126.939C533.895 126.847 533.765 126.689 533.707 126.5C533.649 126.311 533.668 126.107 533.761 125.933C533.853 125.758 534.011 125.628 534.2 125.57C534.389 125.512 534.593 125.531 534.767 125.624L534.776 125.633Z" fill="black"/>
<path d="M558.198 137.861L570.011 143.803C570.1 143.84 570.181 143.896 570.248 143.965C570.315 144.035 570.367 144.117 570.401 144.208C570.435 144.298 570.449 144.395 570.444 144.492C570.439 144.588 570.415 144.683 570.372 144.769C570.329 144.856 570.268 144.933 570.194 144.995C570.121 145.057 570.035 145.104 569.942 145.131C569.85 145.159 569.752 145.168 569.656 145.156C569.56 145.145 569.468 145.114 569.384 145.066L557.545 139.15C557.374 139.064 557.245 138.913 557.185 138.73C557.126 138.548 557.141 138.35 557.227 138.179C557.268 138.094 557.326 138.018 557.397 137.956C557.468 137.894 557.551 137.847 557.641 137.817C557.731 137.787 557.825 137.776 557.92 137.784C558.014 137.791 558.106 137.818 558.189 137.861H558.198Z" fill="black"/>
<path d="M581.903 149.576L593.901 155.147C594.049 155.232 594.159 155.37 594.21 155.532C594.261 155.695 594.25 155.87 594.178 156.025C594.106 156.179 593.978 156.3 593.821 156.365C593.663 156.43 593.487 156.433 593.327 156.375L581.329 150.83C581.169 150.755 581.045 150.622 580.981 150.457C580.917 150.293 580.918 150.111 580.984 149.947C581.061 149.789 581.195 149.666 581.358 149.602C581.522 149.538 581.704 149.539 581.867 149.603L581.903 149.576Z" fill="black"/>
<path d="M606.05 160.453L618.304 165.432C618.385 165.467 618.459 165.517 618.521 165.58C618.582 165.643 618.631 165.718 618.664 165.8C618.697 165.882 618.713 165.97 618.712 166.058C618.711 166.146 618.692 166.234 618.657 166.315C618.626 166.399 618.577 166.475 618.514 166.539C618.452 166.602 618.376 166.653 618.293 166.686C618.21 166.719 618.121 166.735 618.032 166.732C617.943 166.728 617.855 166.707 617.774 166.668L605.476 161.706C605.391 161.675 605.314 161.627 605.249 161.565C605.184 161.503 605.133 161.429 605.098 161.346C605.063 161.263 605.046 161.174 605.047 161.084C605.048 160.994 605.068 160.905 605.105 160.823C605.138 160.741 605.187 160.665 605.249 160.601C605.312 160.538 605.386 160.487 605.469 160.453C605.551 160.418 605.639 160.4 605.728 160.4C605.817 160.4 605.906 160.418 605.988 160.453H606.05Z" fill="black"/>
<path d="M630.69 169.978L643.315 173.854C643.473 173.905 643.605 174.015 643.683 174.162C643.76 174.309 643.777 174.481 643.73 174.64C643.706 174.718 643.667 174.79 643.614 174.852C643.562 174.915 643.498 174.967 643.426 175.004C643.354 175.042 643.275 175.065 643.194 175.072C643.112 175.079 643.031 175.07 642.953 175.046L630.248 171.17C630.168 171.146 630.094 171.106 630.029 171.053C629.965 171 629.911 170.935 629.872 170.861C629.832 170.787 629.808 170.706 629.8 170.623C629.792 170.54 629.8 170.455 629.825 170.375C629.849 170.295 629.889 170.221 629.942 170.156C629.995 170.092 630.06 170.038 630.134 169.999C630.208 169.959 630.289 169.935 630.372 169.927C630.455 169.919 630.539 169.927 630.619 169.952L630.69 169.978Z" fill="black"/>
<path d="M656.171 176.715C660.483 177.491 664.857 177.869 669.238 177.845C669.322 177.835 669.407 177.842 669.489 177.868C669.57 177.893 669.645 177.935 669.708 177.991C669.772 178.048 669.823 178.117 669.858 178.194C669.892 178.272 669.911 178.356 669.911 178.441C669.911 178.526 669.892 178.61 669.858 178.687C669.823 178.765 669.772 178.834 669.708 178.89C669.645 178.947 669.57 178.989 669.489 179.014C669.407 179.039 669.322 179.047 669.238 179.037C664.79 179.068 660.348 178.695 655.968 177.924C655.809 177.898 655.667 177.81 655.572 177.68C655.478 177.549 655.439 177.386 655.465 177.227C655.493 177.067 655.583 176.925 655.715 176.831C655.847 176.736 656.011 176.698 656.171 176.724V176.715Z" fill="black"/>
<path d="M681.817 175.153C683.721 174.186 685.399 172.83 686.744 171.171C688.057 169.484 689.026 167.555 689.596 165.494C689.613 165.42 689.646 165.35 689.691 165.289C689.737 165.228 689.794 165.176 689.86 165.138C689.925 165.099 689.998 165.075 690.074 165.065C690.15 165.055 690.226 165.061 690.3 165.082C690.373 165.103 690.441 165.138 690.501 165.186C690.56 165.234 690.609 165.294 690.645 165.361C690.68 165.429 690.702 165.503 690.708 165.579C690.715 165.654 690.705 165.731 690.681 165.803C690.084 168.015 689.048 170.083 687.636 171.886C686.194 173.678 684.388 175.143 682.338 176.186C682.202 176.252 682.045 176.263 681.901 176.215C681.757 176.168 681.637 176.066 681.567 175.931C681.497 175.797 681.482 175.64 681.525 175.495C681.569 175.35 681.667 175.227 681.8 175.153H681.817Z" fill="black"/>
<path d="M690.001 152.579C689.834 151.502 689.666 150.416 689.445 149.339C689.224 148.262 689.021 147.185 688.774 146.117C688.297 143.971 687.741 141.852 687.123 139.742C687.103 139.675 687.096 139.603 687.103 139.533C687.111 139.463 687.132 139.394 687.165 139.332C687.199 139.27 687.244 139.215 687.299 139.17C687.354 139.125 687.417 139.092 687.485 139.071C687.553 139.051 687.624 139.044 687.695 139.052C687.765 139.059 687.833 139.08 687.896 139.113C687.958 139.147 688.013 139.193 688.058 139.248C688.102 139.302 688.136 139.366 688.156 139.433C688.783 141.561 689.348 143.715 689.842 145.878C690.09 146.956 690.319 148.041 690.522 149.136C690.725 150.231 690.92 151.317 691.096 152.42C691.114 152.495 691.117 152.573 691.104 152.648C691.09 152.724 691.062 152.796 691.019 152.86C690.977 152.924 690.922 152.978 690.857 153.02C690.793 153.061 690.72 153.089 690.644 153.101C690.569 153.114 690.491 153.11 690.417 153.091C690.342 153.072 690.273 153.037 690.212 152.99C690.152 152.943 690.102 152.883 690.066 152.816C690.029 152.748 690.008 152.674 690.001 152.597V152.579Z" fill="black"/>
<path d="M682.719 127.31C681.033 123.248 679.143 119.275 677.113 115.373C677.079 115.26 677.085 115.139 677.13 115.03C677.174 114.921 677.256 114.83 677.36 114.774C677.463 114.718 677.583 114.7 677.699 114.722C677.815 114.744 677.92 114.806 677.996 114.896C680.053 118.816 681.96 122.842 683.664 126.912C683.691 126.975 683.706 127.042 683.707 127.11C683.708 127.179 683.695 127.246 683.67 127.31C683.644 127.373 683.607 127.431 683.558 127.479C683.51 127.528 683.453 127.566 683.39 127.592C683.326 127.619 683.258 127.634 683.188 127.634C683.119 127.635 683.05 127.622 682.986 127.596C682.922 127.569 682.864 127.53 682.815 127.481C682.766 127.432 682.727 127.374 682.701 127.31H682.719Z" fill="black"/>
<path d="M670.606 103.87L663.543 92.7278C663.5 92.6748 663.468 92.6132 663.45 92.5472C663.432 92.4811 663.429 92.4121 663.44 92.3445C663.45 92.277 663.475 92.2125 663.513 92.1552C663.55 92.098 663.599 92.0493 663.657 92.0124C663.715 91.9755 663.779 91.9511 663.847 91.9409C663.915 91.9308 663.984 91.935 664.05 91.9534C664.115 91.9718 664.177 92.0038 664.229 92.0475C664.282 92.0912 664.325 92.1456 664.355 92.2069L671.506 103.375C671.543 103.429 671.569 103.49 671.581 103.554C671.594 103.618 671.593 103.684 671.579 103.748C671.565 103.811 671.538 103.872 671.499 103.924C671.461 103.977 671.412 104.022 671.356 104.055C671.302 104.091 671.241 104.115 671.177 104.127C671.113 104.139 671.048 104.138 670.985 104.124C670.921 104.11 670.861 104.083 670.808 104.046C670.755 104.008 670.71 103.96 670.676 103.905L670.606 103.87Z" fill="black"/>
<path d="M656.011 81.8059L648.374 70.9907C648.308 70.8903 648.283 70.7682 648.304 70.6499C648.326 70.5315 648.392 70.4259 648.489 70.355C648.537 70.3202 648.592 70.2954 648.65 70.2823C648.708 70.2692 648.768 70.268 648.827 70.2787C648.885 70.2894 648.941 70.3119 648.991 70.3447C649.041 70.3776 649.083 70.4201 649.116 70.4698L656.779 81.2761C656.836 81.377 656.854 81.4953 656.828 81.6083C656.803 81.7212 656.737 81.8208 656.642 81.8878C656.548 81.9548 656.432 81.9844 656.317 81.9709C656.202 81.9574 656.096 81.9017 656.02 81.8147L656.011 81.8059Z" fill="black"/>
<path d="M640.808 60.1155L633.551 49.0266C633.522 48.9815 633.502 48.931 633.492 48.8781C633.482 48.8251 633.483 48.7708 633.495 48.7182C633.506 48.6657 633.528 48.6159 633.559 48.5718C633.59 48.5278 633.629 48.4903 633.675 48.4616C633.765 48.4037 633.875 48.3834 633.98 48.4048C634.086 48.4262 634.179 48.4877 634.24 48.5764L641.532 59.6211C641.594 59.719 641.615 59.837 641.592 59.9504C641.569 60.0639 641.504 60.1641 641.409 60.2303C641.311 60.2941 641.193 60.317 641.079 60.2939C640.965 60.2707 640.864 60.2034 640.799 60.1067L640.808 60.1155Z" fill="black"/>
<path d="M634.478 40.4273C636.639 40.9727 638.762 41.6569 640.835 42.4756C642.909 43.2702 644.949 44.1266 647.015 45.0095C647.103 45.0481 647.171 45.1201 647.206 45.2095C647.241 45.2989 647.239 45.3984 647.2 45.4862C647.182 45.5293 647.155 45.5684 647.122 45.6011C647.088 45.6339 647.049 45.6596 647.005 45.6769C646.961 45.6941 646.915 45.7026 646.868 45.7017C646.821 45.7008 646.775 45.6905 646.732 45.6716C644.702 44.7887 642.662 43.9588 640.605 43.1819C638.565 42.3804 636.474 41.7138 634.346 41.1866C634.296 41.1762 634.249 41.156 634.207 41.1271C634.166 41.0982 634.13 41.0613 634.103 41.0185C634.076 40.9757 634.058 40.9279 634.049 40.878C634.041 40.828 634.042 40.7768 634.054 40.7275C634.066 40.6776 634.087 40.6304 634.117 40.5887C634.146 40.547 634.184 40.5116 634.228 40.4845C634.271 40.4574 634.319 40.4392 634.37 40.4309C634.421 40.4226 634.472 40.4244 634.522 40.4362L634.478 40.4273Z" fill="black"/>
<path d="M659.022 50.5888L670.905 56.4334C670.943 56.4503 670.976 56.4748 671.004 56.5052C671.031 56.5356 671.052 56.5714 671.066 56.6103C671.079 56.6492 671.084 56.6904 671.081 56.7313C671.077 56.7723 671.066 56.8121 671.046 56.8484C671.029 56.8858 671.005 56.9194 670.975 56.947C670.944 56.9747 670.908 56.9958 670.87 57.009C670.831 57.0222 670.789 57.0273 670.749 57.024C670.708 57.0207 670.668 57.009 670.631 56.9896L658.721 51.1892C658.681 51.17 658.646 51.1432 658.616 51.1102C658.586 51.0773 658.564 51.0388 658.549 50.9969C658.534 50.9551 658.528 50.9108 658.53 50.8665C658.532 50.8223 658.543 50.7789 658.563 50.7389C658.582 50.6989 658.609 50.6631 658.642 50.6334C658.674 50.6038 658.713 50.5809 658.755 50.5662C658.797 50.5514 658.841 50.5451 658.885 50.5474C658.929 50.5498 658.973 50.5608 659.013 50.58L659.022 50.5888Z" fill="black"/>
<path d="M683.195 61.2543L695.723 65.4921C695.788 65.5162 695.842 65.5643 695.873 65.6266C695.905 65.689 695.911 65.7608 695.891 65.8276C695.867 65.8928 695.818 65.946 695.756 65.9757C695.693 66.0054 695.621 66.0093 695.555 65.9865L682.983 61.7929C682.948 61.7813 682.915 61.7629 682.887 61.7386C682.859 61.7144 682.835 61.6848 682.819 61.6516C682.802 61.6184 682.792 61.5822 682.789 61.5451C682.786 61.508 682.791 61.4707 682.802 61.4353C682.814 61.4 682.832 61.3672 682.856 61.339C682.881 61.3108 682.91 61.2876 682.943 61.2708C682.977 61.254 683.013 61.2439 683.05 61.241C683.087 61.2382 683.124 61.2428 683.16 61.2543H683.195Z" fill="black"/>
<path d="M708.507 68.8459C712.813 69.7899 717.17 70.4797 721.556 70.9119C721.584 70.9141 721.611 70.9218 721.636 70.9346C721.661 70.9473 721.683 70.9649 721.701 70.9862C721.719 71.0075 721.733 71.0322 721.741 71.0589C721.75 71.0855 721.753 71.1136 721.751 71.1414C721.744 71.1968 721.717 71.2476 721.674 71.2837C721.631 71.3197 721.577 71.3383 721.521 71.3356C717.115 70.9154 712.737 70.2374 708.41 69.305C708.359 69.284 708.316 69.2454 708.29 69.196C708.263 69.1466 708.255 69.0896 708.267 69.0349C708.278 68.9802 708.309 68.9313 708.353 68.8967C708.397 68.8622 708.452 68.8442 708.507 68.8459Z" fill="black"/>
<path d="M734.746 71.099C739.142 70.7719 743.474 69.8573 747.627 68.3797C747.667 68.3645 747.711 68.3657 747.75 68.3831C747.789 68.4005 747.819 68.4326 747.834 68.4724C747.85 68.5122 747.848 68.5565 747.831 68.5954C747.814 68.6343 747.781 68.6647 747.742 68.6799C743.564 70.1788 739.206 71.1169 734.781 71.4698C734.732 71.4725 734.684 71.4567 734.647 71.4256C734.609 71.3945 734.585 71.3504 734.578 71.302C734.576 71.2777 734.578 71.2531 734.585 71.2296C734.592 71.2062 734.604 71.1844 734.62 71.1655C734.635 71.1467 734.654 71.1311 734.676 71.1196C734.698 71.1082 734.721 71.1012 734.746 71.099Z" fill="black"/>
<path d="M759.025 61.8277C760.715 60.4147 762.264 58.8418 763.651 57.1308C765.035 55.4204 766.269 53.5951 767.342 51.6747C767.348 51.6615 767.357 51.6497 767.369 51.6402C767.38 51.6307 767.393 51.6237 767.407 51.6195C767.421 51.6154 767.436 51.6142 767.451 51.6161C767.465 51.618 767.479 51.6229 767.492 51.6306C767.502 51.6404 767.51 51.6521 767.515 51.665C767.52 51.6779 767.523 51.6917 767.523 51.7056C767.523 51.7196 767.52 51.7334 767.515 51.7462C767.51 51.7591 767.502 51.7708 767.492 51.7806C766.418 53.7188 765.18 55.5618 763.793 57.2898C762.401 59.0128 760.849 60.6002 759.158 62.0308C759.145 62.0442 759.13 62.0548 759.113 62.0621C759.097 62.0694 759.079 62.0732 759.061 62.0732C759.042 62.0732 759.024 62.0694 759.008 62.0621C758.991 62.0548 758.976 62.0442 758.963 62.0308C758.941 62.0051 758.929 61.9722 758.929 61.9381C758.929 61.904 758.941 61.8711 758.963 61.8454L759.025 61.8277Z" fill="black"/>
<path d="M772.215 39.4209C773.335 35.1541 774.158 30.8147 774.678 26.4338C774.678 26.4338 774.678 26.3809 774.74 26.3809C774.755 26.3849 774.769 26.394 774.778 26.4069C774.788 26.4197 774.793 26.4354 774.792 26.4515C774.285 30.8409 773.471 35.1894 772.356 39.465C772.36 39.4783 772.361 39.4924 772.359 39.5062C772.357 39.52 772.352 39.5331 772.343 39.5444C772.335 39.5557 772.324 39.5649 772.312 39.5712C772.3 39.5776 772.286 39.5809 772.272 39.5809C772.258 39.5809 772.244 39.5776 772.232 39.5712C772.219 39.5649 772.209 39.5557 772.2 39.5444C772.192 39.5331 772.187 39.52 772.185 39.5062C772.183 39.4924 772.184 39.4783 772.188 39.465L772.215 39.4209Z" fill="black"/>
<path d="M485.419 283.314L521.119 303.925V283.314L485.419 262.703V283.314Z" fill="black"/>
<path d="M521.119 283.314V303.925L556.818 283.314V262.703L521.119 283.314Z" fill="#F1EFED"/>
<path d="M485.419 262.703L521.119 283.314L556.818 262.703L521.119 242.092L485.419 262.703Z" fill="#F1EFED"/>
<path d="M485.419 283.314H484.419C484.419 283.671 484.61 284.001 484.919 284.18L485.419 283.314ZM521.119 303.925L520.619 304.791C520.928 304.97 521.309 304.97 521.619 304.791L521.119 303.925ZM485.419 262.703L484.919 261.837C484.61 262.015 484.419 262.346 484.419 262.703H485.419ZM556.818 283.314L557.318 284.18C557.627 284.001 557.818 283.671 557.818 283.314H556.818ZM556.818 262.703H557.818C557.818 262.346 557.627 262.015 557.318 261.837L556.818 262.703ZM521.119 242.092L521.619 241.226C521.309 241.047 520.928 241.047 520.619 241.226L521.119 242.092ZM484.919 284.18L520.619 304.791L521.619 303.059L485.919 282.448L484.919 284.18ZM522.119 303.925V283.314H520.119V303.925H522.119ZM521.619 282.448L485.919 261.837L484.919 263.569L520.619 284.18L521.619 282.448ZM484.419 262.703V283.314H486.419V262.703H484.419ZM521.619 304.791L557.318 284.18L556.318 282.448L520.619 303.059L521.619 304.791ZM557.818 283.314V262.703H555.818V283.314H557.818ZM556.318 261.837L520.619 282.448L521.619 284.18L557.318 263.569L556.318 261.837ZM485.919 263.569L521.619 242.958L520.619 241.226L484.919 261.837L485.919 263.569ZM520.619 242.958L556.318 263.569L557.318 261.837L521.619 241.226L520.619 242.958Z" fill="black"/>
</svg>
