<svg width="16" height="16" viewBox="0 0 16 16" fill="none" xmlns="http://www.w3.org/2000/svg">
<path d="M15.2096 5.60425C15.2049 5.60974 15.2001 5.61511 15.1951 5.62035L6.42724 14.8037C5.67719 15.5893 4.78761 16 3.84271 16C3.77093 16 3.69887 15.9976 3.6265 15.9929C2.72382 15.9336 1.84809 15.5044 1.16063 14.7844C0.473172 14.0644 0.0634282 13.1471 0.00680407 12.2017C-0.0575074 11.1278 0.33508 10.1135 1.1421 9.26819L9.88122 0.115019C10.0277 -0.038356 10.2651 -0.0383233 10.4116 0.115019C10.558 0.268427 10.558 0.517113 10.4116 0.670488L1.67243 9.82366C0.233926 11.3304 0.673669 13.1634 1.69097 14.229C2.70829 15.2944 4.45839 15.755 5.8969 14.2483L14.6571 5.07297C15.6193 3.93666 15.2938 2.63559 14.5425 1.84878C13.7913 1.06194 12.5491 0.720991 11.4642 1.72879L5.86706 7.59112C5.12779 8.36542 5.33966 9.28053 5.87756 9.84392C6.41549 10.4073 7.28919 10.6292 8.02846 9.85489L12.8724 4.7814C13.0189 4.62799 13.2563 4.62799 13.4027 4.7814C13.5492 4.93481 13.5492 5.18346 13.4027 5.33687L8.5588 10.4104C7.50803 11.5109 6.14784 11.2379 5.34725 10.3994C4.54667 9.5609 4.28602 8.13621 5.33672 7.03568L10.9416 1.16527C10.9465 1.16007 10.9517 1.155 10.9569 1.15009C11.6053 0.543526 12.3679 0.260964 13.1622 0.333233C13.864 0.396992 14.5426 0.737945 15.0728 1.29332C15.603 1.84865 15.9286 2.55936 15.9894 3.29449C16.0584 4.12647 15.7887 4.92519 15.2096 5.60425Z" fill="#535557"/>
</svg>
