<svg width="40" height="40" viewBox="0 0 40 40" fill="none" xmlns="http://www.w3.org/2000/svg">
<path d="M17.4089 22.7307L14.1573 25.7464L0.891113 13.4479L4.14278 10.4321L17.4089 22.7307Z" fill="black"/>
<path d="M14.1277 1.17627L10.8071 4.25467L14.1277 7.33432L17.4483 4.25467L14.1277 1.17627Z" fill="black"/>
<path d="M17.4524 16.6493L14.2007 13.6348L27.4668 1.33496L30.7199 4.35071L17.4524 16.6493Z" fill="black"/>
<path d="M36.6795 16.7447L33.3589 13.665L36.6795 10.5879L40.0001 13.665L36.6795 16.7447Z" fill="black"/>
<path d="M23.3706 17.367L26.6236 14.3525L39.8898 26.6498L36.6368 29.6656L23.3706 17.367Z" fill="black"/>
<path d="M23.3291 35.843L26.5443 38.8237H26.7565L29.9703 35.843L26.651 32.7646L23.3291 35.843Z" fill="black"/>
<path d="M9.98584 35.8069L13.2375 38.8226L26.5037 26.5228L23.252 23.5083L9.98584 35.8069Z" fill="black"/>
<path d="M0 26.5506L3.32059 29.629L6.64119 26.5506L3.32059 23.4722L0 26.5506Z" fill="black"/>
</svg>
