<svg width="28" height="28" viewBox="0 0 28 28" fill="none" xmlns="http://www.w3.org/2000/svg">
<path d="M19.626 20.6493L7.18822 7.83718C6.89313 7.53321 6.89717 7.04939 7.19722 6.75827C7.49726 6.46716 7.98112 6.4776 8.2762 6.78156L20.7139 19.5937C21.009 19.8977 21.005 20.3815 20.7049 20.6726C20.4049 20.9637 19.921 20.9533 19.626 20.6493Z" fill="black"/>
<path d="M6.47542 19.3378C6.33105 19.1891 6.24171 18.987 6.24261 18.766L6.29098 6.8935C6.29278 6.45155 6.6522 6.10283 7.09413 6.11425L18.9661 6.4212C19.4081 6.43262 19.7646 6.79985 19.7628 7.2418C19.761 7.68375 19.4015 8.03248 18.9596 8.02105L7.88839 7.73481L7.84328 18.8083C7.84148 19.2502 7.48206 19.599 7.04013 19.5875C6.81916 19.5818 6.61978 19.4865 6.47542 19.3378Z" fill="black"/>
</svg>
