<svg xmlns="http://www.w3.org/2000/svg" width="12" height="14" viewBox="0 0 12 14" fill="none">
  <path fill-rule="evenodd" clip-rule="evenodd" d="M3.67052 0.388935C3.67054 0.285946 3.71145 0.187178 3.78426 0.114335C3.85707 0.041493 3.95581 0.000535366 4.0588 0.000462891L7.94137 0.000244141C8.04439 0.00048296 8.1431 0.041554 8.21589 0.114455C8.28867 0.187356 8.32958 0.28614 8.32965 0.389154V1.34938H3.67052V0.388935ZM10.0542 13.444C10.0443 13.5954 9.97692 13.7373 9.86582 13.8406C9.75471 13.944 9.60833 14.0009 9.4566 13.9999H2.49895C2.34727 13.9995 2.20135 13.9417 2.09051 13.8381C1.97966 13.7346 1.9121 13.5929 1.90138 13.4416L1.306 4.73219H10.6897L10.0542 13.444ZM11.601 3.94337H0.399414V3.04103C0.39958 2.80171 0.49471 2.57224 0.663916 2.403C0.833123 2.23375 1.06258 2.13857 1.3019 2.13836L10.6984 2.13806C10.9377 2.13843 11.1671 2.23369 11.3363 2.40295C11.5054 2.57221 11.6006 2.80165 11.6008 3.04095L11.601 3.94337ZM4.19659 11.9236C4.19659 11.9754 4.20679 12.0267 4.22661 12.0745C4.24643 12.1224 4.27547 12.1659 4.31209 12.2025C4.34871 12.2391 4.39218 12.2681 4.44003 12.288C4.48787 12.3078 4.53915 12.318 4.59094 12.318C4.64273 12.318 4.69401 12.3078 4.74185 12.288C4.7897 12.2681 4.83317 12.2391 4.86979 12.2025C4.90641 12.1659 4.93546 12.1224 4.95527 12.0745C4.97509 12.0267 4.98529 11.9754 4.98529 11.9236V6.39348C4.98446 6.28948 4.94258 6.19002 4.86875 6.11676C4.79493 6.04349 4.69515 6.00237 4.59114 6.00233C4.48714 6.00229 4.38733 6.04335 4.31346 6.11656C4.23958 6.18977 4.19763 6.28921 4.19673 6.39321L4.19659 11.9236ZM7.01026 11.9236C7.01026 12.0282 7.05181 12.1286 7.12578 12.2025C7.19975 12.2765 7.30007 12.318 7.40467 12.318C7.50927 12.318 7.60959 12.2765 7.68356 12.2025C7.75752 12.1286 7.79907 12.0282 7.79907 11.9236V6.39348C7.79824 6.28947 7.75635 6.18999 7.68252 6.11672C7.60868 6.04344 7.50889 6.00231 7.40487 6.00228C7.30085 6.00224 7.20103 6.0433 7.12715 6.11652C7.05326 6.18975 7.0113 6.28919 7.0104 6.39321L7.01026 11.9236Z" fill="#F80909"/>
</svg>
