<svg width="25" height="26" viewBox="0 0 25 26" fill="none" xmlns="http://www.w3.org/2000/svg">
<rect y="0.5" width="25" height="25" rx="4" fill="#5869DD"/>
<path d="M20.0562 7.35728C20.2266 7.53831 20.3181 7.77959 20.3106 8.02806C20.3031 8.27653 20.1972 8.51186 20.0162 8.68228L10.1037 18.0248C9.90166 18.2151 9.63315 18.3187 9.35563 18.3136C9.07811 18.3085 8.81361 18.1949 8.61873 17.9973L5.26873 14.5973C5.18002 14.5101 5.10954 14.4062 5.06139 14.2915C5.01324 14.1768 4.98839 14.0537 4.98828 13.9294C4.98817 13.805 5.01281 13.6819 5.06076 13.5671C5.10871 13.4524 5.17901 13.3483 5.26757 13.261C5.35613 13.1737 5.46118 13.1048 5.5766 13.0585C5.69202 13.0122 5.8155 12.9893 5.93985 12.9912C6.0642 12.993 6.18694 13.0196 6.30092 13.0694C6.4149 13.1191 6.51783 13.1911 6.60373 13.281L9.39623 16.1148L18.7312 7.31728C18.9123 7.14692 19.1535 7.05543 19.402 7.06293C19.6505 7.07043 19.8858 7.17631 20.0562 7.35728Z" fill="white"/>
</svg>
