<svg width="25" height="23" viewBox="0 0 25 23" fill="none" xmlns="http://www.w3.org/2000/svg">
<path d="M24.5833 21.6602H0.41665C0.186328 21.6602 0 21.8465 0 22.0768C0 22.3071 0.186377 22.4935 0.41665 22.4935H24.5833C24.8136 22.4935 24.9999 22.3071 24.9999 22.0768C25 21.8465 24.8136 21.6602 24.5833 21.6602Z" fill="black"/>
<path d="M2.91677 20.6602C2.94402 20.6602 2.9717 20.6574 2.99939 20.652L7.12009 19.8187C7.13674 19.8153 7.15154 19.8069 7.16755 19.8015C7.18171 19.7968 7.19529 19.7928 7.20896 19.7865C7.25412 19.7659 7.2967 19.7401 7.33205 19.7047L20.2599 6.77681C20.2639 6.77309 20.2692 6.77192 20.2731 6.76802C20.277 6.76411 20.2782 6.75879 20.2819 6.75478L22.129 4.90766C22.3682 4.67143 22.5001 4.35693 22.5001 4.02143C22.5001 3.68613 22.3682 3.37163 22.131 3.13745L20.0245 1.03071C19.5525 0.553027 18.7233 0.554639 18.2545 1.0291L3.45554 15.8283C3.42024 15.8636 3.39441 15.9062 3.3738 15.9514C3.36755 15.9651 3.3635 15.9786 3.35881 15.9928C3.35344 16.0088 3.34499 16.0237 3.34163 16.0403L2.50828 20.161C2.48059 20.2977 2.52332 20.4393 2.62219 20.5382C2.70115 20.6171 2.80735 20.6602 2.91677 20.6602ZM18.8453 1.61665C19.0024 1.45796 19.2734 1.45635 19.4337 1.61826L21.5439 3.72866C21.6229 3.80679 21.6668 3.91094 21.6668 4.02143C21.6668 4.13232 21.6229 4.23628 21.5419 4.31645L19.9764 5.88203L17.2782 3.18389L18.8453 1.61665ZM16.689 3.77305L19.3871 6.47119L7.03747 18.821L4.33933 16.1229L16.689 3.77305ZM4.00452 16.9665L6.19392 19.1559L3.44988 19.7105L4.00452 16.9665Z" fill="black"/>
</svg>
