<svg xmlns="http://www.w3.org/2000/svg" width="39" height="39" fill="none"><circle cx="19.5" cy="19.5" r="19.5" fill="url(#a)"/><path fill="#000" d="m17.577 20.854-1.788 1.659-7.297-6.765 1.789-1.658 7.296 6.764ZM15.768 9l-1.827 1.693 1.827 1.694 1.826-1.694L15.768 9ZM17.597 17.51l-1.788-1.657 7.296-6.765 1.79 1.659-7.298 6.764ZM28.174 17.562l-1.826-1.694 1.826-1.692L30 15.868l-1.826 1.694ZM20.852 17.904l1.789-1.658 7.296 6.764-1.79 1.658-7.295-6.764ZM20.832 28.066l1.768 1.64h.117l1.768-1.64-1.826-1.693-1.827 1.693ZM13.492 28.045l1.789 1.66 7.296-6.766-1.788-1.658-7.297 6.764ZM8 22.955l1.826 1.693 1.827-1.693-1.827-1.693L8 22.955Z"/><defs><linearGradient id="a" x1="0" x2="39" y1="19.5" y2="19.5" gradientUnits="userSpaceOnUse"><stop stop-color="#D6FFBB"/><stop offset="1" stop-color="#5869DD"/></linearGradient></defs></svg>