<svg width="25" height="25" viewBox="0 0 25 25" fill="none" xmlns="http://www.w3.org/2000/svg">
<path d="M24.668 23.0605L15.9091 12.5L24.6612 1.93327C25.1039 1.49057 25.1039 0.773873 24.6612 0.331175C24.2186 -0.110392 23.5031 -0.110392 23.0604 0.331175L12.5 9.09091L1.93281 0.336836C1.49015 -0.10473 0.774652 -0.10473 0.331994 0.336836C-0.110665 0.778402 -0.110665 1.49623 0.331994 1.93893L9.09091 12.5L0.339918 23.0673C-0.10274 23.51 -0.10274 24.2267 0.339918 24.6683C0.560681 24.889 0.850504 25 1.14033 25C1.43015 25 1.71997 24.889 1.94073 24.6683L12.5 15.9091L23.0672 24.6603C23.288 24.8811 23.5778 24.9921 23.8676 24.9921C24.1574 24.9921 24.4472 24.8811 24.668 24.6603C25.1107 24.2199 25.1107 23.5021 24.668 23.0605Z" fill="black"/>
</svg>
