<svg width="24" height="24" viewBox="0 0 24 24" fill="none" xmlns="http://www.w3.org/2000/svg">
<path d="M23.6813 22.1381L13.5379 12.0003L23.6748 1.85594C24.0997 1.43095 24.0997 0.742918 23.6748 0.317928C23.2498 -0.105976 22.5629 -0.105976 22.138 0.317928L12 10.4633L1.8555 0.323362C1.43054 -0.100541 0.743666 -0.100541 0.318714 0.323362C-0.106238 0.747266 -0.106238 1.43638 0.318714 1.86137L10.4632 12.0003L0.326322 22.1446C-0.0986302 22.5696 -0.0986302 23.2576 0.326322 23.6815C0.538254 23.8935 0.816484 24 1.09471 24C1.37294 24 1.65117 23.8935 1.8631 23.6815L12.0011 13.5361L22.1445 23.6739C22.3564 23.8859 22.6347 23.9924 22.9129 23.9924C23.1911 23.9924 23.4694 23.8859 23.6813 23.6739C24.1062 23.2511 24.1062 22.562 23.6813 22.1381Z" fill="black"/>
</svg>
