<svg xmlns="http://www.w3.org/2000/svg" width="14" height="14" viewBox="0 0 14 14" fill="none">
  <path d="M4.37555 8.52404L8.52264 4.37695C8.59497 4.30462 8.68084 4.24724 8.77534 4.2081C8.86985 4.16895 8.97114 4.1488 9.07343 4.1488C9.17572 4.1488 9.27701 4.16895 9.37151 4.2081C9.46601 4.24724 9.55188 4.30462 9.62421 4.37695C9.69654 4.44928 9.75392 4.53514 9.79306 4.62965C9.83221 4.72415 9.85236 4.82544 9.85236 4.92773C9.85236 5.03002 9.83221 5.13131 9.79306 5.22581C9.75392 5.32032 9.69654 5.40619 9.62421 5.47852L5.47712 9.62561C5.33104 9.77168 5.13292 9.85375 4.92634 9.85375C4.71975 9.85375 4.52163 9.77168 4.37555 9.62561C4.22947 9.47953 4.14741 9.28141 4.14741 9.07482C4.14741 8.86824 4.22947 8.67011 4.37555 8.52404ZM12.8641 1.13703C12.1343 0.408835 11.1454 -0.00012207 10.1144 -0.00012207C9.08343 -0.00012207 8.09454 0.408835 7.3647 1.13703L5.41297 3.08681C5.26689 3.23289 5.18483 3.43101 5.18483 3.6376C5.18483 3.84418 5.26689 4.0423 5.41297 4.18838C5.55905 4.33446 5.75717 4.41652 5.96376 4.41652C6.17034 4.41652 6.36846 4.33446 6.51454 4.18838L8.46303 2.24055C8.67968 2.02385 8.93689 1.85195 9.21997 1.73466C9.50305 1.61737 9.80647 1.55699 10.1129 1.55696C10.4193 1.55693 10.7227 1.61726 11.0058 1.73449C11.2889 1.85172 11.5462 2.02357 11.7629 2.24022C11.9796 2.45687 12.1515 2.71408 12.2688 2.99716C12.3861 3.28025 12.4464 3.58366 12.4465 3.89008C12.4465 4.1965 12.3862 4.49993 12.2689 4.78303C12.1517 5.06614 11.9799 5.32338 11.7632 5.54007L9.81213 7.48726C9.66605 7.63334 9.58399 7.83147 9.58399 8.03805C9.58399 8.24463 9.66605 8.44276 9.81213 8.58883C9.95821 8.73491 10.1563 8.81698 10.3629 8.81698C10.5695 8.81698 10.7676 8.73491 10.9137 8.58883L12.8628 6.641C13.5914 5.91071 14.0004 4.92115 14 3.88958C13.9997 2.85802 13.59 1.86875 12.8609 1.13897L12.8641 1.13703ZM7.48716 9.81223L5.53868 11.7614C5.32199 11.978 5.06474 12.1499 4.78164 12.2671C4.49853 12.3843 4.19511 12.4446 3.88869 12.4446C3.58227 12.4446 3.27885 12.3842 2.99577 12.2669C2.71269 12.1496 2.45548 11.9777 2.23883 11.761C1.80128 11.3234 1.55551 10.7299 1.55557 10.111C1.55563 9.4922 1.80152 8.89873 2.23915 8.46118L4.18699 6.5127C4.25932 6.44037 4.31669 6.3545 4.35584 6.25999C4.39498 6.16549 4.41513 6.0642 4.41513 5.96191C4.41513 5.85962 4.39498 5.75833 4.35584 5.66383C4.31669 5.56932 4.25932 5.48346 4.18699 5.41113C4.11466 5.3388 4.02879 5.28142 3.93428 5.24228C3.83978 5.20313 3.73849 5.18298 3.6362 5.18298C3.53391 5.18298 3.43262 5.20313 3.33812 5.24228C3.24361 5.28142 3.15775 5.3388 3.08542 5.41113L1.13887 7.36156C0.409605 8.09091 -6.07534e-05 9.0801 6.75784e-09 10.1115C6.0767e-05 11.1429 0.409843 12.132 1.1392 12.8613C1.86855 13.5906 2.85774 14.0002 3.88914 14.0002C4.92055 14.0001 5.90968 13.5903 6.63895 12.861L8.58679 10.9125C8.73287 10.7664 8.81494 10.5683 8.81494 10.3617C8.81494 10.1551 8.73287 9.95701 8.58679 9.81093C8.44071 9.66485 8.24259 9.58279 8.03601 9.58279C7.82942 9.58279 7.6313 9.66485 7.48522 9.81093L7.48716 9.81223Z" fill="white"/>
</svg>
