<svg width="98" height="88" viewBox="0 0 98 88" fill="none" xmlns="http://www.w3.org/2000/svg">
<path d="M62.2994 26.3067L62.3 26.3078C63.2474 28.1143 65.036 29.3069 67.0367 29.5807C67.0369 29.5807 67.0372 29.5808 67.0374 29.5808L94.1428 33.2952L94.1445 33.2954C94.7904 33.3834 95.1433 33.7629 95.2739 34.1417C95.3997 34.5065 95.3439 34.9097 94.9577 35.2633L94.9548 35.266L75.3397 53.2848L75.3363 53.2879C73.8416 54.6662 73.1069 56.6981 73.4793 58.7398L78.1122 84.1808L78.1124 84.1822C78.1863 84.5862 78.0334 84.9817 77.6026 85.2766C77.1626 85.5779 76.5683 85.6595 76.008 85.3828C76.0079 85.3827 76.0078 85.3827 76.0077 85.3826L51.7686 73.3733L51.7645 73.3713C49.9606 72.4817 47.8172 72.4817 46.0133 73.3713L46.0092 73.3733L21.7677 85.3838L21.7663 85.3845C21.2058 85.6626 20.6134 85.5812 20.1752 85.2812C19.7464 84.9876 19.5908 84.591 19.6655 84.1813L19.6656 84.1808L24.2985 58.7398C24.2985 58.7396 24.2985 58.7394 24.2986 58.7392C24.6707 56.6977 23.9361 54.6661 22.4415 53.2879L22.4381 53.2848L2.82299 35.266L2.82266 35.2657C2.43257 34.9075 2.37864 34.5023 2.5037 34.1399C2.63366 33.7632 2.98556 33.3837 3.63323 33.2954L3.63497 33.2952L30.7411 29.5807L30.742 29.5806C32.7317 29.3071 34.5287 28.1175 35.4778 26.3078L35.4784 26.3067L47.6024 3.15898L47.6061 3.15197C47.827 2.72682 48.2849 2.44444 48.884 2.44444C49.4833 2.44444 49.9492 2.72775 50.176 3.16021L62.2994 26.3067Z" stroke="#5869DD" stroke-width="4.88889"/>
</svg>
