<svg width="111" height="105" viewBox="0 0 111 105" fill="none" xmlns="http://www.w3.org/2000/svg">
<path d="M71.3654 30.9273L71.365 30.9263L57.6226 3.30791L71.3654 30.9273ZM71.3654 30.9273C72.2959 32.7948 74.0882 34.0866 76.1621 34.3851L106.887 38.817L106.888 38.8172M71.3654 30.9273L106.888 38.8172M106.888 38.8172C108.847 39.0983 109.582 41.458 108.203 42.7866L108.201 42.7889M106.888 38.8172L108.201 42.7889M108.201 42.7889L85.9667 64.2886L85.964 64.2913M108.201 42.7889L85.964 64.2913M85.964 64.2913C84.4683 65.743 83.7706 67.836 84.1289 69.905C84.1289 69.9051 84.1289 69.9053 84.129 69.9055L89.3805 100.261L89.3807 100.262M85.964 64.2913L89.3807 100.262M89.3807 100.262C89.7043 102.127 87.7066 103.639 85.9351 102.718L58.4588 88.3879L58.4554 88.3861M89.3807 100.262L58.4554 88.3861M58.4554 88.3861C56.6055 87.4258 54.3943 87.4258 52.5444 88.3861L52.541 88.3879M58.4554 88.3861L52.541 88.3879M52.541 88.3879L25.0627 102.719L25.0616 102.719M52.541 88.3879L25.0616 102.719M25.0616 102.719C23.2956 103.642 21.2943 102.138 21.6193 100.262L21.6194 100.261M25.0616 102.719L21.6194 100.261M21.6194 100.261L26.8709 69.9055C26.8709 69.9053 26.871 69.9051 26.871 69.905C27.2293 67.836 26.5315 65.743 25.0358 64.2913L25.0331 64.2886M21.6194 100.261L25.0331 64.2886M25.0331 64.2886L2.79896 42.7889L2.79869 42.7887M25.0331 64.2886L2.79869 42.7887M2.79869 42.7887C1.41502 41.4512 2.15484 39.098 4.11144 38.8172L4.11293 38.817M2.79869 42.7887L4.11293 38.817M4.11293 38.817L34.8383 34.385L34.8392 34.3849M4.11293 38.817L34.8392 34.3849M34.8392 34.3849C36.9017 34.0865 38.7027 32.7974 39.6344 30.9273L39.6349 30.9263M34.8392 34.3849L39.6349 30.9263M39.6349 30.9263L53.3777 3.30693L53.3805 3.30131M39.6349 30.9263L53.3805 3.30131M53.3805 3.30131C54.2335 1.57342 56.7493 1.55718 57.6221 3.30692L53.3805 3.30131Z" stroke="#5869DD" stroke-width="4"/>
<path d="M24.4314 101.622L55.1581 87.6555C55.3663 87.5609 55.5 87.3532 55.5 87.1245V11.6667V8.30445C55.5 7.68891 54.6702 7.49302 54.3949 8.04358L41.0516 34.7303C40.967 34.8995 40.8055 35.0172 40.6185 35.0459L4.2258 40.6448C3.73785 40.7199 3.55796 41.3294 3.92695 41.6574L29.0542 63.9927C29.1787 64.1034 29.25 64.2621 29.25 64.4287V69.9475C29.25 69.9825 29.2469 70.0174 29.2406 70.0518L23.6161 100.987C23.5318 101.45 24.0028 101.817 24.4314 101.622Z" fill="#5869DD"/>
<path d="M55.5 2.91675V11.6667M55.5 11.6667V87.1245C55.5 87.3532 55.3663 87.5609 55.1581 87.6555L24.4314 101.622C24.0028 101.817 23.5318 101.45 23.6161 100.987L29.2406 70.0518C29.2469 70.0174 29.25 69.9825 29.25 69.9475V64.4287C29.25 64.2621 29.1787 64.1034 29.0542 63.9927L3.92695 41.6574C3.55796 41.3294 3.73785 40.7199 4.22579 40.6448L40.6185 35.0459C40.8055 35.0172 40.967 34.8995 41.0516 34.7303L54.3949 8.04358C54.6702 7.49302 55.5 7.68891 55.5 8.30445V11.6667Z" stroke="#5869DD" stroke-width="2.91667"/>
</svg>
