<svg width="166" height="170" viewBox="0 0 166 170" fill="none" xmlns="http://www.w3.org/2000/svg">
<path d="M106.782 128.631L83.4012 130.383L73.2239 151.513L96.6047 149.762L106.782 128.631Z" fill="black"/>
<path d="M67.1512 70.4754L80.3642 89.8574L103.756 88.1058L113.935 66.9721L67.1512 70.4754Z" fill="black"/>
<path d="M127.171 86.3629L150.566 84.6109L160.747 63.4739L137.351 65.2258L127.171 86.3629Z" fill="black"/>
<path d="M124.112 45.8292L137.326 65.2139L160.722 63.462L147.507 44.0769L124.112 45.8292Z" fill="#F1EFED"/>
<path d="M113.934 66.9599L113.942 66.9715L113.935 66.9721L127.146 86.351L137.326 65.2139L124.112 45.8292L113.934 66.9599Z" fill="#F1EFED"/>
<path d="M100.727 47.5864L30.5412 52.8426L83.3973 130.377L106.785 128.625L106.782 128.631L106.796 128.63L80.3642 89.8574L80.3606 89.8577L67.1454 70.4726L113.933 66.969L113.931 66.9662L113.934 66.9599L100.727 47.5864Z" fill="#F1EFED"/>
<path d="M73.2129 151.508L83.3902 130.377L83.3973 130.377L30.5412 52.8426L20.3608 73.9797L73.2129 151.508Z" fill="#F1EFED"/>
<path d="M83.4012 130.383L106.782 128.631M83.4012 130.383L73.2239 151.513M83.4012 130.383L83.3973 130.377M30.5412 52.8426L100.727 47.5864L113.934 66.9599M30.5412 52.8426L20.3608 73.9797L73.2129 151.508M30.5412 52.8426L83.3973 130.377M124.112 45.8292L137.326 65.2139M124.112 45.8292L147.507 44.0769L160.722 63.462L137.326 65.2139M124.112 45.8292L113.934 66.9599M137.326 65.2139L127.146 86.351L113.935 66.9721M106.782 128.631L96.6047 149.762L73.2239 151.513M106.782 128.631L106.785 128.625L83.3973 130.377M106.782 128.631L106.796 128.63L80.3642 89.8574M73.2239 151.513L73.2098 151.514L73.2129 151.508M73.2239 151.513L73.2208 151.52L73.2129 151.508M80.3642 89.8574L67.1512 70.4754L113.935 66.9721M80.3642 89.8574L103.756 88.1058L113.935 66.9721M80.3642 89.8574L80.3606 89.8577L67.1454 70.4726L113.933 66.969M113.935 66.9721L113.937 66.9687L113.933 66.969M113.935 66.9721L113.942 66.9715L113.934 66.9599M113.935 66.9721L113.933 66.969M113.934 66.9599L113.931 66.9662L113.933 66.969M83.3973 130.377L83.3902 130.377L73.2129 151.508M127.171 86.3629L150.566 84.6109L160.747 63.4739L137.351 65.2258L127.171 86.3629Z" stroke="black" stroke-width="2" stroke-miterlimit="10" stroke-linecap="round" stroke-linejoin="round"/>
</svg>
