<svg width="539" height="638" viewBox="0 0 539 638" fill="none" xmlns="http://www.w3.org/2000/svg">
<path d="M78.1764 637.249L68.7564 625.579C68.7564 625.579 68.7464 625.539 68.7564 625.519C68.7664 625.499 68.7964 625.509 68.8164 625.519L78.1664 637.239L78.1764 637.249Z" fill="black"/>
<path d="M59.7157 613.614L51.0357 601.374C50.9957 601.324 51.0057 601.244 51.0657 601.204C51.1157 601.164 51.1957 601.174 51.2357 601.234L59.8457 613.514C59.8757 613.554 59.8657 613.604 59.8257 613.624C59.7857 613.654 59.7357 613.644 59.7157 613.604V613.614Z" fill="black"/>
<path d="M42.7563 588.87L34.8863 576.09C34.8263 576 34.8563 575.87 34.9563 575.82C35.0463 575.76 35.1763 575.79 35.2263 575.89L43.0163 588.7C43.0663 588.78 43.0363 588.88 42.9663 588.92C42.8963 588.97 42.7963 588.94 42.7463 588.87H42.7563Z" fill="black"/>
<path d="M27.4962 563.021L20.6662 549.651C20.5962 549.511 20.6462 549.351 20.7862 549.281C20.9262 549.211 21.0862 549.261 21.1562 549.401V549.411L27.9062 562.791C27.9662 562.921 27.9162 563.061 27.7962 563.121C27.6762 563.181 27.5362 563.131 27.4762 563.021H27.4962Z" fill="black"/>
<path d="M14.4857 535.972L9.10567 521.952C9.03567 521.772 9.12567 521.562 9.31567 521.492C9.50567 521.422 9.70567 521.512 9.77567 521.702V521.722L15.0657 535.732V535.752C15.1357 535.912 15.0557 536.102 14.8857 536.162C14.7257 536.222 14.5357 536.142 14.4757 535.982L14.4857 535.972Z" fill="black"/>
<path d="M4.72597 507.568C3.45597 502.718 2.39597 497.818 1.59597 492.858C1.55597 492.618 1.71597 492.398 1.95597 492.358C2.19597 492.318 2.41597 492.478 2.45597 492.718C3.22597 497.648 4.25597 502.528 5.49597 507.368C5.54597 507.578 5.42597 507.798 5.20597 507.848C4.99597 507.898 4.77597 507.778 4.72597 507.568Z" fill="black"/>
<path d="M0.0756455 477.894C-0.114354 472.874 0.0456455 467.834 0.645645 462.844C0.675645 462.564 0.935646 462.364 1.21565 462.394C1.49565 462.424 1.69565 462.684 1.66565 462.964C1.06565 467.904 0.885646 472.884 1.03565 477.864C1.03565 478.124 0.835645 478.344 0.575646 478.354C0.315646 478.354 0.0956455 478.154 0.0856455 477.894H0.0756455Z" fill="black"/>
<path d="M3.79515 448.087C5.31515 443.287 7.34515 438.637 9.85515 434.267C10.0052 433.997 10.3452 433.907 10.6152 434.057C10.8852 434.207 10.9752 434.547 10.8252 434.817C8.34515 439.117 6.33515 443.677 4.82515 448.407C4.73515 448.687 4.43515 448.837 4.15515 448.747C3.87515 448.657 3.72515 448.357 3.81515 448.077L3.79515 448.087Z" fill="black"/>
<path d="M18.7153 422.073C22.0853 418.323 25.8353 414.923 29.8453 411.873C30.1053 411.673 30.4853 411.723 30.6853 411.983C30.8853 412.243 30.8353 412.623 30.5753 412.823C26.6153 415.823 22.9153 419.163 19.5853 422.843C19.3753 423.083 19.0053 423.093 18.7753 422.883C18.5353 422.673 18.5153 422.303 18.7353 422.073H18.7153Z" fill="black"/>
<path d="M42.7452 404.023C47.3152 401.873 52.1252 400.253 57.0552 399.173C57.4052 399.093 57.7452 399.313 57.8252 399.663C57.9052 400.013 57.6852 400.353 57.3352 400.433C52.4952 401.473 47.7652 403.053 43.2752 405.143C42.9652 405.283 42.5952 405.153 42.4452 404.843C42.2952 404.533 42.4352 404.163 42.7452 404.013V404.023Z" fill="black"/>
<path d="M72.0758 397.513C77.1158 397.453 82.1558 397.873 87.1358 398.643C87.5158 398.703 87.7658 399.053 87.7158 399.433C87.6558 399.813 87.3058 400.063 86.9258 400.013C82.0158 399.243 77.0558 398.823 72.0958 398.863C71.7258 398.863 71.4258 398.573 71.4258 398.203C71.4258 397.833 71.7158 397.533 72.0858 397.533L72.0758 397.513Z" fill="black"/>
<path d="M101.856 401.911C106.686 403.291 111.446 404.921 116.116 406.741C116.496 406.891 116.676 407.311 116.536 407.691C116.386 408.071 115.966 408.251 115.586 408.111C110.946 406.291 106.246 404.661 101.466 403.281C101.086 403.171 100.876 402.781 100.976 402.401C101.086 402.021 101.476 401.801 101.856 401.911Z" fill="black"/>
<path d="M129.945 412.67L143.405 419.38C143.785 419.57 143.945 420.04 143.755 420.42C143.565 420.8 143.095 420.96 142.715 420.77L142.685 420.75L129.315 414.04L129.285 414.02C128.915 413.83 128.765 413.38 128.945 413.01C129.135 412.64 129.585 412.49 129.955 412.67H129.945Z" fill="black"/>
<path d="M156.576 426.599L169.576 434.099C169.966 434.329 170.106 434.829 169.876 435.219C169.646 435.609 169.146 435.749 168.756 435.519L155.796 427.989H155.786C155.406 427.759 155.276 427.269 155.496 426.889C155.716 426.509 156.206 426.379 156.586 426.599H156.576Z" fill="black"/>
<path d="M182.536 441.663C186.866 444.143 191.216 446.603 195.586 449.043C195.996 449.273 196.146 449.793 195.916 450.203C195.686 450.613 195.166 450.763 194.756 450.533C190.396 448.093 186.046 445.623 181.696 443.133C181.296 442.903 181.156 442.383 181.386 441.983C181.616 441.583 182.136 441.443 182.536 441.673V441.663Z" fill="black"/>
<path d="M208.645 456.397L221.725 463.727C222.145 463.957 222.295 464.487 222.065 464.907C221.835 465.327 221.305 465.477 220.885 465.247L207.805 457.897C207.395 457.667 207.245 457.137 207.475 456.727C207.705 456.317 208.235 456.167 208.645 456.397Z" fill="black"/>
<path d="M234.856 470.972L248.076 478.042H248.086C248.516 478.282 248.676 478.812 248.446 479.242C248.216 479.672 247.686 479.832 247.256 479.602L234.026 472.512C233.596 472.282 233.436 471.752 233.666 471.332C233.896 470.902 234.426 470.742 234.846 470.972H234.856Z" fill="black"/>
<path d="M261.415 484.858L274.905 491.368H274.925C275.375 491.598 275.555 492.128 275.345 492.578C275.135 493.028 274.595 493.208 274.145 492.998L260.625 486.458C260.185 486.248 259.995 485.708 260.215 485.268C260.425 484.828 260.965 484.638 261.405 484.858H261.425H261.415Z" fill="black"/>
<path d="M288.566 497.481L302.436 503.111H302.466C302.936 503.311 303.156 503.841 302.966 504.311C302.776 504.781 302.246 505.001 301.776 504.811L287.856 499.141C287.396 498.951 287.176 498.421 287.356 497.961C287.546 497.501 288.076 497.281 288.536 497.461H288.566V497.481Z" fill="black"/>
<path d="M316.516 508.161L330.815 512.521H330.865C331.355 512.681 331.626 513.201 331.486 513.691C331.336 514.181 330.815 514.451 330.335 514.311L315.945 509.911C315.465 509.761 315.185 509.251 315.335 508.761C315.485 508.271 315.996 508.001 316.486 508.151H316.525L316.516 508.161Z" fill="black"/>
<path d="M345.336 516.071C350.206 517.101 355.106 517.981 360.036 518.681C360.546 518.751 360.906 519.231 360.836 519.741C360.766 520.251 360.286 520.611 359.776 520.541C354.806 519.831 349.866 518.941 344.956 517.891C344.456 517.781 344.126 517.291 344.236 516.781C344.346 516.271 344.836 515.951 345.346 516.061L345.336 516.071Z" fill="black"/>
<path d="M374.876 520.237C379.836 520.567 384.816 520.697 389.786 520.617C390.316 520.617 390.746 521.027 390.756 521.557C390.756 522.087 390.346 522.517 389.816 522.527C384.786 522.607 379.756 522.467 374.746 522.127C374.226 522.087 373.826 521.637 373.866 521.117C373.906 520.597 374.356 520.197 374.876 520.237Z" fill="black"/>
<path d="M404.675 519.722C409.615 519.202 414.535 518.472 419.415 517.502C419.945 517.402 420.455 517.742 420.555 518.262C420.655 518.792 420.315 519.302 419.795 519.402C414.865 520.372 409.885 521.112 404.875 521.632C404.345 521.682 403.875 521.302 403.815 520.772C403.765 520.242 404.145 519.772 404.675 519.712V519.722Z" fill="black"/>
<path d="M433.897 513.961C436.277 513.241 438.657 512.511 440.987 511.681C443.327 510.861 445.647 509.971 447.937 509.021C448.437 508.811 449.017 509.051 449.227 509.551C449.437 510.051 449.197 510.631 448.697 510.841C446.367 511.811 444.017 512.711 441.637 513.531C439.257 514.371 436.857 515.111 434.447 515.831C433.927 515.991 433.387 515.691 433.227 515.171C433.067 514.651 433.367 514.111 433.877 513.951H433.887L433.897 513.961Z" fill="black"/>
<path d="M461.255 502.417C465.535 499.917 469.625 497.107 473.455 493.977C473.885 493.627 474.515 493.687 474.865 494.117C475.215 494.547 475.155 495.177 474.725 495.527C470.805 498.727 466.625 501.587 462.265 504.127C461.795 504.407 461.185 504.247 460.905 503.767C460.625 503.297 460.785 502.687 461.265 502.407L461.255 502.417Z" fill="black"/>
<path d="M484.067 483.657C487.287 479.907 490.147 475.857 492.597 471.577C492.867 471.107 493.467 470.937 493.937 471.207C494.407 471.477 494.577 472.077 494.307 472.547C491.797 476.947 488.867 481.097 485.577 484.947C485.217 485.367 484.597 485.417 484.177 485.057C483.757 484.697 483.707 484.077 484.067 483.657Z" fill="black"/>
<path d="M498.705 458.1C500.315 453.43 501.505 448.61 502.295 443.72C502.385 443.19 502.875 442.83 503.405 442.92C503.935 443.01 504.295 443.5 504.205 444.03C503.405 449.02 502.195 453.95 500.545 458.73C500.365 459.24 499.815 459.51 499.305 459.34C498.795 459.16 498.525 458.61 498.695 458.1H498.705Z" fill="black"/>
<path d="M503.536 428.932C503.586 423.972 503.286 419.012 502.706 414.082C502.646 413.562 503.016 413.082 503.546 413.022C504.076 412.962 504.546 413.332 504.606 413.862C505.206 418.862 505.506 423.902 505.466 428.952C505.466 429.482 505.026 429.912 504.496 429.902C503.966 429.902 503.536 429.462 503.546 428.932H503.536Z" fill="black"/>
<path d="M500.135 399.418C499.015 394.578 497.615 389.808 495.965 385.128C495.795 384.638 496.045 384.098 496.535 383.928C497.025 383.758 497.565 384.008 497.735 384.498C499.415 389.248 500.845 394.078 501.985 398.988C502.105 399.498 501.785 400.008 501.275 400.128C500.765 400.248 500.255 399.928 500.135 399.418Z" fill="black"/>
<path d="M490.296 371.339C488.186 366.839 485.876 362.429 483.406 358.099C483.156 357.659 483.306 357.089 483.756 356.839C484.196 356.589 484.766 356.739 485.016 357.189C487.506 361.549 489.846 365.999 491.986 370.549C492.206 371.019 492.006 371.569 491.536 371.789C491.066 372.009 490.516 371.809 490.296 371.339Z" fill="black"/>
<path d="M475.615 345.353L467.245 332.943L467.225 332.923C466.945 332.503 467.055 331.943 467.475 331.663C467.895 331.383 468.455 331.493 468.735 331.903L477.155 344.353C477.435 344.773 477.325 345.343 476.905 345.633C476.485 345.913 475.915 345.803 475.625 345.383L475.605 345.353H475.615Z" fill="black"/>
<path d="M458.597 320.7L449.957 308.42C449.677 308.02 449.767 307.46 450.177 307.17C450.577 306.89 451.137 306.98 451.427 307.39L460.067 319.65C460.357 320.06 460.257 320.63 459.847 320.92C459.437 321.21 458.877 321.11 458.587 320.7H458.597Z" fill="black"/>
<path d="M441.606 295.919L433.876 282.999C433.626 282.579 433.766 282.039 434.176 281.789C434.596 281.539 435.136 281.679 435.386 282.089L435.416 282.139L443.106 294.959L443.136 294.999C443.386 295.419 443.256 295.969 442.836 296.219C442.416 296.469 441.866 296.339 441.616 295.919H441.606Z" fill="black"/>
<path d="M427.077 269.549C426.577 268.389 426.037 267.289 425.567 266.049C425.107 264.819 424.777 263.529 424.667 262.179C424.557 260.839 424.677 259.429 425.167 258.119C425.617 256.799 426.427 255.639 427.357 254.669C427.687 254.319 428.237 254.309 428.577 254.639C428.927 254.969 428.937 255.519 428.607 255.859C427.817 256.699 427.177 257.649 426.807 258.699C426.417 259.749 426.317 260.889 426.407 262.029C426.497 263.169 426.797 264.319 427.207 265.439C427.627 266.539 428.177 267.699 428.677 268.819V268.849C428.877 269.289 428.677 269.809 428.237 269.999C427.797 270.189 427.277 269.989 427.087 269.549H427.077Z" fill="black"/>
<path d="M441.346 248.487C446.296 247.427 451.296 246.857 456.216 246.127C456.676 246.057 457.116 246.377 457.186 246.837C457.256 247.297 456.936 247.737 456.466 247.807C451.496 248.547 446.546 249.117 441.706 250.157C441.246 250.257 440.786 249.967 440.686 249.497C440.586 249.037 440.876 248.577 441.346 248.477V248.487Z" fill="black"/>
<path d="M470.846 243.101L485.516 239.981C485.956 239.881 486.396 240.171 486.486 240.611C486.576 241.051 486.296 241.491 485.856 241.581L471.186 244.741C470.726 244.841 470.286 244.551 470.186 244.091C470.086 243.631 470.376 243.191 470.836 243.091L470.846 243.101Z" fill="black"/>
<path d="M500.105 236.598L514.495 232.528H514.545C514.955 232.398 515.385 232.638 515.505 233.048C515.625 233.458 515.385 233.888 514.975 234.008L500.505 238.138C500.085 238.258 499.635 238.018 499.515 237.588C499.395 237.158 499.635 236.718 500.065 236.598L500.105 236.588V236.598Z" fill="black"/>
<path d="M528.515 227.414L535.305 224.324C536.445 223.824 537.535 223.244 538.625 222.664C539.715 222.074 540.775 221.454 541.825 220.794C542.165 220.574 542.615 220.684 542.835 221.024C543.055 221.364 542.945 221.814 542.605 222.034C541.535 222.714 540.445 223.354 539.335 223.964C538.225 224.564 537.105 225.164 535.955 225.664L529.105 228.804C528.725 228.974 528.275 228.804 528.105 228.434C527.935 228.054 528.105 227.604 528.475 227.434L528.515 227.414Z" fill="black"/>
<path d="M543.856 156.458C541.036 152.358 538.006 148.388 534.846 144.538C534.636 144.288 534.676 143.908 534.926 143.698C535.176 143.488 535.556 143.528 535.766 143.778C538.956 147.648 542.016 151.628 544.876 155.758C545.066 156.038 544.996 156.428 544.716 156.618C544.436 156.808 544.046 156.738 543.856 156.458Z" fill="black"/>
<path d="M524.946 133.198L514.516 122.448L514.496 122.428C514.286 122.208 514.286 121.858 514.506 121.648C514.726 121.438 515.076 121.438 515.286 121.658L525.776 132.418C525.996 132.648 525.996 133.008 525.766 133.228C525.536 133.448 525.176 133.448 524.956 133.218L524.936 133.198H524.946Z" fill="black"/>
<path d="M503.675 112.126L492.505 102.156H492.495C492.285 101.956 492.265 101.636 492.455 101.436C492.645 101.226 492.965 101.206 493.165 101.396L504.385 111.346C504.605 111.536 504.625 111.876 504.425 112.096C504.225 112.316 503.895 112.336 503.675 112.136L503.665 112.126H503.675Z" fill="black"/>
<path d="M481.075 92.4792L469.415 83.0492C469.225 82.8892 469.205 82.6192 469.355 82.4392C469.505 82.2592 469.775 82.2292 469.965 82.3692L481.695 91.7492C481.895 91.9092 481.935 92.2092 481.765 92.4092C481.605 92.6092 481.305 92.6492 481.105 92.4792H481.075Z" fill="black"/>
<path d="M457.565 73.8577L445.555 64.8777C445.395 64.7577 445.365 64.5377 445.485 64.3777C445.605 64.2177 445.825 64.1877 445.975 64.3077L458.045 73.2277C458.215 73.3577 458.255 73.5977 458.125 73.7777C457.995 73.9577 457.755 73.9877 457.575 73.8577H457.565Z" fill="black"/>
<path d="M433.405 56.1081L421.115 47.5181C420.995 47.4381 420.955 47.2681 421.045 47.1381C421.125 47.0181 421.305 46.9881 421.425 47.0681L433.765 55.5981C433.905 55.6981 433.945 55.8881 433.845 56.0281C433.745 56.1681 433.555 56.2081 433.415 56.1081H433.405Z" fill="black"/>
<path d="M408.696 39.1024L396.156 30.8624C396.066 30.8024 396.036 30.6824 396.096 30.6024C396.156 30.5124 396.276 30.4924 396.366 30.5424L408.946 38.7124C409.056 38.7824 409.086 38.9224 409.016 39.0324C408.946 39.1424 408.806 39.1724 408.696 39.1024Z" fill="black"/>
<path d="M383.506 22.8119L370.726 14.9619C370.676 14.9319 370.656 14.8619 370.686 14.8119C370.716 14.7619 370.786 14.7419 370.836 14.7719L383.656 22.5619C383.726 22.6019 383.746 22.7019 383.706 22.7719C383.666 22.8419 383.566 22.8619 383.496 22.8219L383.506 22.8119Z" fill="black"/>
<path d="M357.806 7.33657L344.696 0.0565685C344.696 0.0565685 344.676 0.0265685 344.686 0.0165685C344.686 -0.00343146 344.716 -0.00343146 344.726 0.00656854L357.886 7.21657C357.886 7.21657 357.936 7.27657 357.916 7.31657C357.896 7.34657 357.856 7.36657 357.816 7.34657L357.806 7.33657Z" fill="black"/>
<path d="M406.22 319.002L394.515 339.2L487.928 339.351L499.633 319.154L406.22 319.002Z" fill="black"/>
<path d="M394.571 298.75L406.21 318.985L499.643 319.137L499.633 319.154L499.672 319.154L488.024 298.902L453.078 238.145L429.715 238.107L464.661 298.864L441.298 298.826L394.571 298.75Z" fill="#F1EFED"/>
<path d="M429.715 238.107L418 258.321L441.298 298.826L464.661 298.864L429.715 238.107Z" fill="#F1EFED"/>
<path d="M394.571 298.75L382.856 318.964L394.486 339.183L406.191 318.985L406.21 318.985L394.571 298.75Z" fill="#F1EFED"/>
<path d="M394.571 298.75L382.856 318.964L394.486 339.183M394.571 298.75L441.298 298.826M394.571 298.75L464.661 298.864M394.571 298.75L406.21 318.985M406.22 319.002L394.515 339.2M406.22 319.002L499.633 319.154M406.22 319.002L406.21 318.985M429.715 238.107L453.078 238.145L488.024 298.902L499.672 319.154L499.633 319.154M429.715 238.107L418 258.321L441.298 298.826M429.715 238.107L464.661 298.864M441.298 298.826L464.661 298.864M394.515 339.2L487.928 339.351L499.633 319.154M394.515 339.2L394.476 339.2L394.486 339.183M394.515 339.2L394.505 339.217L394.486 339.183M499.633 319.154L499.643 319.137L406.21 318.985M406.21 318.985L406.191 318.985L394.486 339.183" stroke="black" stroke-width="2" stroke-miterlimit="10" stroke-linecap="round" stroke-linejoin="round"/>
</svg>
