<svg width="32" height="32" viewBox="0 0 32 32" fill="none" xmlns="http://www.w3.org/2000/svg">
<path d="M32 28.8013C32 30.5689 30.5557 32 28.7745 32H3.2255C1.44431 32 0 30.5671 0 28.8013V3.19871C0 1.43289 1.44431 0 3.2255 0H28.7745C30.5576 0 32 1.43289 32 3.19871V28.8013Z" fill="black"/>
<path d="M10.2878 7.82447C10.2878 8.99985 9.41958 9.95266 7.99221 9.95266C6.64945 9.95266 5.78125 8.99985 5.78125 7.82447C5.78125 6.62151 6.67704 5.69629 8.04923 5.69629C9.41958 5.69629 10.2602 6.61967 10.2878 7.82447ZM5.89345 25.319V11.6302H10.148V25.319H5.89345Z" fill="white"/>
<path d="M12.6942 15.9972C12.6942 14.2902 12.6391 12.8628 12.582 11.6304H16.2774L16.4742 13.5342H16.5588C17.118 12.6384 18.4902 11.3232 20.7857 11.3232C23.5853 11.3232 25.6841 13.1994 25.6841 17.2295V25.3192H21.4295V17.7335C21.4295 15.9696 20.8133 14.7666 19.2738 14.7666C18.0984 14.7666 17.3994 15.5778 17.0904 16.3614C16.9782 16.6409 16.9506 17.0327 16.9506 17.4245V25.3192H12.6942V15.9972Z" fill="white"/>
</svg>
