<svg width="17" height="18" viewBox="0 0 17 18" fill="none" xmlns="http://www.w3.org/2000/svg">
<path d="M10.1903 8.29318L11.3307 9.43359V8.29318H10.1903ZM12.0391 5.45984H9.20573V6.80568H12.0391C13.2503 6.80568 14.2349 7.79026 14.2349 9.00151C14.2349 9.90109 13.6895 10.6803 12.9103 11.0132L13.902 12.0048C14.9078 11.3815 15.5807 10.2694 15.5807 9.00151C15.5807 7.04651 13.9941 5.45984 12.0391 5.45984ZM1.41406 3.52609L3.61698 5.72901C2.32781 6.25318 1.41406 7.52109 1.41406 9.00151C1.41406 10.9565 3.00073 12.5432 4.95573 12.5432H7.78906V11.1973H4.95573C3.74448 11.1973 2.7599 10.2128 2.7599 9.00151C2.7599 7.87526 3.61698 6.94734 4.7149 6.82693L6.18115 8.29318H5.66406V9.70984H7.59781L9.20573 11.3178V12.5432H10.4311L13.2716 15.3836L14.2703 14.3848L2.41281 2.52734L1.41406 3.52609Z" fill="#F80909"/>
</svg>
