<svg width="200" height="41" viewBox="0 0 200 41" fill="none" xmlns="http://www.w3.org/2000/svg">
<path d="M18.7126 23.4748L15.2171 26.759L0.955994 13.3657L4.45153 10.0815L18.7126 23.4748Z" fill="black"/>
<path d="M15.1857 0L11.6161 3.35241L15.1857 6.70619L18.7554 3.35241L15.1857 0Z" fill="black"/>
<path d="M18.76 16.8508L15.2645 13.568L29.5256 0.17334L33.0226 3.45753L18.76 16.8508Z" fill="black"/>
<path d="M39.4295 16.9543L35.8599 13.6006L39.4295 10.2495L42.9991 13.6006L39.4295 16.9543Z" fill="black"/>
<path d="M25.1218 17.631L28.6188 14.3481L42.8799 27.7401L39.3829 31.0242L25.1218 17.631Z" fill="black"/>
<path d="M25.0768 37.7523L28.5332 40.9983H28.7613L32.2161 37.7523L28.6479 34.3999L25.0768 37.7523Z" fill="black"/>
<path d="M10.7333 37.7146L14.2288 40.9988L28.4899 27.6041L24.9944 24.3213L10.7333 37.7146Z" fill="black"/>
<path d="M-0.000976562 27.6327L3.56866 30.9851L7.13829 27.6327L3.56866 24.2803L-0.000976562 27.6327Z" fill="black"/>
<path d="M67.3203 29.3635C64.5816 29.3635 62.3196 28.4535 60.5343 26.6335C58.749 24.8135 57.8563 22.5688 57.8563 19.8995C57.8563 17.2128 58.749 14.9682 60.5343 13.1655C62.3196 11.3455 64.5816 10.4355 67.3203 10.4355C68.967 10.4355 70.4836 10.8255 71.8703 11.6055C73.2743 12.3682 74.3663 13.4082 75.1463 14.7255L72.0523 16.5195C71.6016 15.7048 70.9603 15.0722 70.1283 14.6215C69.2963 14.1535 68.3603 13.9195 67.3203 13.9195C65.5523 13.9195 64.1223 14.4742 63.0303 15.5835C61.9556 16.6928 61.4183 18.1315 61.4183 19.8995C61.4183 21.6502 61.9556 23.0802 63.0303 24.1895C64.1223 25.2988 65.5523 25.8535 67.3203 25.8535C68.3603 25.8535 69.2963 25.6282 70.1283 25.1775C70.9776 24.7095 71.619 24.0768 72.0523 23.2795L75.1463 25.0735C74.3663 26.3908 73.283 27.4395 71.8963 28.2195C70.5096 28.9822 68.9843 29.3635 67.3203 29.3635ZM95.0347 19.2235V20.6275C95.0347 23.2275 94.2027 25.3335 92.5387 26.9455C90.8747 28.5575 88.7253 29.3635 86.0907 29.3635C83.2827 29.3635 80.9513 28.4535 79.0967 26.6335C77.2593 24.7962 76.3407 22.5602 76.3407 19.9255C76.3407 17.2735 77.2507 15.0288 79.0707 13.1915C80.908 11.3542 83.1787 10.4355 85.8827 10.4355C87.5813 10.4355 89.1327 10.8255 90.5367 11.6055C91.9407 12.3682 93.0327 13.3908 93.8127 14.6735L90.7447 16.4415C90.3113 15.6962 89.6527 15.0895 88.7687 14.6215C87.902 14.1535 86.9313 13.9195 85.8567 13.9195C84.1233 13.9195 82.6933 14.4915 81.5667 15.6355C80.4573 16.7622 79.9027 18.1922 79.9027 19.9255C79.9027 21.6415 80.466 23.0628 81.5927 24.1895C82.7367 25.2988 84.2447 25.8535 86.1167 25.8535C87.5033 25.8535 88.6473 25.5502 89.5487 24.9435C90.4673 24.3195 91.0913 23.4702 91.4207 22.3955H85.9087V19.2235H95.0347ZM103.141 29.3635C101.338 29.3635 99.8212 28.9648 98.5906 28.1675C97.3599 27.3528 96.4932 26.2522 95.9906 24.8655L99.0586 23.0715C99.7692 24.9262 101.165 25.8535 103.245 25.8535C104.25 25.8535 104.987 25.6715 105.455 25.3075C105.923 24.9435 106.157 24.4842 106.157 23.9295C106.157 23.2882 105.871 22.7942 105.299 22.4475C104.727 22.0835 103.704 21.6935 102.231 21.2775C101.416 21.0348 100.723 20.7922 100.151 20.5495C99.5959 20.3068 99.0326 19.9862 98.4606 19.5875C97.9059 19.1715 97.4812 18.6515 97.1866 18.0275C96.8919 17.4035 96.7446 16.6755 96.7446 15.8435C96.7446 14.1968 97.3252 12.8882 98.4866 11.9175C99.6652 10.9295 101.078 10.4355 102.725 10.4355C104.198 10.4355 105.489 10.7995 106.599 11.5275C107.725 12.2382 108.601 13.2348 109.225 14.5175L106.209 16.2595C105.481 14.6995 104.319 13.9195 102.725 13.9195C101.979 13.9195 101.39 14.0928 100.957 14.4395C100.541 14.7688 100.333 15.2022 100.333 15.7395C100.333 16.3115 100.567 16.7795 101.035 17.1435C101.52 17.4902 102.439 17.8715 103.791 18.2875C104.345 18.4608 104.761 18.5995 105.039 18.7035C105.333 18.7902 105.723 18.9375 106.209 19.1455C106.711 19.3362 107.093 19.5182 107.353 19.6915C107.63 19.8648 107.942 20.0988 108.289 20.3935C108.635 20.6882 108.895 20.9915 109.069 21.3035C109.259 21.6155 109.415 21.9968 109.537 22.4475C109.675 22.8808 109.745 23.3575 109.745 23.8775C109.745 25.5588 109.129 26.8935 107.899 27.8815C106.685 28.8695 105.099 29.3635 103.141 29.3635ZM118.585 22.7595V19.5355H128.335V22.7595H118.585ZM145.492 19.2235H142.554V24.6315C142.554 25.0822 142.666 25.4115 142.892 25.6195C143.117 25.8275 143.446 25.9488 143.88 25.9835C144.313 26.0008 144.85 25.9922 145.492 25.9575V28.9995C143.186 29.2595 141.557 29.0428 140.604 28.3495C139.668 27.6562 139.2 26.4168 139.2 24.6315V19.2235H136.938V15.9995H139.2V13.3735L142.554 12.3595V15.9995H145.492V19.2235ZM150.284 23.8775C150.735 25.5068 151.957 26.3215 153.95 26.3215C155.233 26.3215 156.204 25.8882 156.862 25.0215L159.566 26.5815C158.284 28.4362 156.394 29.3635 153.898 29.3635C151.749 29.3635 150.024 28.7135 148.724 27.4135C147.424 26.1135 146.774 24.4755 146.774 22.4995C146.774 20.5408 147.416 18.9115 148.698 17.6115C149.981 16.2942 151.628 15.6355 153.638 15.6355C155.545 15.6355 157.114 16.2942 158.344 17.6115C159.592 18.9288 160.216 20.5582 160.216 22.4995C160.216 22.9328 160.173 23.3922 160.086 23.8775H150.284ZM150.232 21.2775H156.862C156.672 20.3935 156.273 19.7348 155.666 19.3015C155.077 18.8682 154.401 18.6515 153.638 18.6515C152.737 18.6515 151.992 18.8855 151.402 19.3535C150.813 19.8042 150.423 20.4455 150.232 21.2775ZM172.336 15.9995H175.69V28.9995H172.336V27.4655C171.331 28.7308 169.918 29.3635 168.098 29.3635C166.365 29.3635 164.874 28.7048 163.626 27.3875C162.395 26.0528 161.78 24.4235 161.78 22.4995C161.78 20.5755 162.395 18.9548 163.626 17.6375C164.874 16.3028 166.365 15.6355 168.098 15.6355C169.918 15.6355 171.331 16.2682 172.336 17.5335V15.9995ZM166.148 25.1515C166.824 25.8275 167.682 26.1655 168.722 26.1655C169.762 26.1655 170.62 25.8275 171.296 25.1515C171.989 24.4582 172.336 23.5742 172.336 22.4995C172.336 21.4248 171.989 20.5495 171.296 19.8735C170.62 19.1802 169.762 18.8335 168.722 18.8335C167.682 18.8335 166.824 19.1802 166.148 19.8735C165.472 20.5495 165.134 21.4248 165.134 22.4995C165.134 23.5742 165.472 24.4582 166.148 25.1515ZM193.11 15.6355C194.6 15.6355 195.788 16.1208 196.672 17.0915C197.573 18.0622 198.024 19.3622 198.024 20.9915V28.9995H194.67V21.2255C194.67 20.4455 194.479 19.8388 194.098 19.4055C193.716 18.9722 193.179 18.7555 192.486 18.7555C191.723 18.7555 191.125 19.0068 190.692 19.5095C190.276 20.0122 190.068 20.7402 190.068 21.6935V28.9995H186.714V21.2255C186.714 20.4455 186.523 19.8388 186.142 19.4055C185.76 18.9722 185.223 18.7555 184.53 18.7555C183.784 18.7555 183.186 19.0068 182.736 19.5095C182.302 20.0122 182.086 20.7402 182.086 21.6935V28.9995H178.732V15.9995H182.086V17.3775C182.866 16.2162 184.07 15.6355 185.7 15.6355C187.294 15.6355 188.473 16.2595 189.236 17.5075C190.102 16.2595 191.394 15.6355 193.11 15.6355Z" fill="black"/>
</svg>
