<svg width="31" height="29" viewBox="0 0 31 29" fill="none" xmlns="http://www.w3.org/2000/svg">
<path d="M13.2868 16.6049L10.805 18.9279L0.679443 9.45437L3.16131 7.13135L13.2868 16.6049Z" fill="black"/>
<path d="M10.7826 0L8.24817 2.37128L10.7826 4.74352L13.3171 2.37128L10.7826 0Z" fill="black"/>
<path d="M13.3205 11.9191L10.8386 9.59705L20.9641 0.122559L23.447 2.44558L13.3205 11.9191Z" fill="black"/>
<path d="M27.996 11.9923L25.4615 9.62007L27.996 7.24976L30.5305 9.62007L27.996 11.9923Z" fill="black"/>
<path d="M17.8374 12.4712L20.3203 10.1492L30.4458 19.6217L27.9629 21.9448L17.8374 12.4712Z" fill="black"/>
<path d="M17.8054 26.7031L20.2594 28.9991H20.4214L22.8744 26.7031L20.3409 24.3318L17.8054 26.7031Z" fill="black"/>
<path d="M7.62146 26.6769L10.1033 28.9999L20.2288 19.5254L17.747 17.2034L7.62146 26.6769Z" fill="black"/>
<path d="M0 19.5456L2.53447 21.9169L5.06895 19.5456L2.53447 17.1743L0 19.5456Z" fill="black"/>
</svg>
