<svg width="82" height="68" viewBox="0 0 82 68" fill="none" xmlns="http://www.w3.org/2000/svg">
<path d="M9.46501 54.748L8.96137 55.5209H9.88393H39.3498H53.7001H72.1161H73.0387L72.535 54.748L56.1518 29.6054L55.7329 28.9626L55.314 29.6054L46.5248 43.0933L32.21 21.1258L31.7911 20.4829L31.3722 21.1258L9.46501 54.748ZM0.5 66.8125V1.1875H81.5V66.8125H0.5ZM22.8304 16.3371C22.8304 12.4719 19.6973 9.33929 15.8326 9.33929C11.9679 9.33929 8.83482 12.4719 8.83482 16.3371C8.83482 20.2022 11.9679 23.3348 15.8326 23.3348C19.6973 23.3348 22.8304 20.2022 22.8304 16.3371Z" fill="url(#paint0_linear_2505_16629)" stroke="black"/>
<defs>
<linearGradient id="paint0_linear_2505_16629" x1="-14.7579" y1="45.1128" x2="72.8324" y2="-13.1072" gradientUnits="userSpaceOnUse">
<stop stop-color="#D6FFBB"/>
<stop offset="1" stop-color="#5869DD"/>
</linearGradient>
</defs>
</svg>
