<svg width="902" height="902" viewBox="0 0 902 902" fill="none" xmlns="http://www.w3.org/2000/svg">
<rect width="902" height="902" rx="451" fill="#D9D9D9"/>
<path d="M519.906 212.643C540.366 206.955 551.778 183.738 545.395 160.786C539.013 137.834 517.252 123.839 496.792 129.527C476.332 135.215 464.92 158.432 471.303 181.384C477.686 204.336 499.446 218.331 519.906 212.643Z" fill="black"/>
<path d="M518.988 207.016C539.099 201.426 550.307 178.57 544.021 155.968C537.735 133.365 516.337 119.575 496.226 125.166C476.115 130.756 464.908 153.612 471.193 176.214C477.479 198.817 498.877 212.607 518.988 207.016Z" fill="#F2EA86" stroke="black" stroke-width="2.377" stroke-miterlimit="10"/>
<path d="M522.781 169.957C524.375 169.207 525.969 168.363 527.47 167.426C532.252 164.332 534.409 161.425 533.753 158.893C532.721 155.33 526.438 154.299 518.654 155.049C519.217 147.36 518.092 141.171 514.434 140.234C510.777 139.296 506.744 144.266 503.368 151.204C496.897 146.891 490.896 144.828 488.27 147.454C486.394 149.329 486.863 152.892 489.489 157.862C490.333 159.362 491.271 160.862 492.302 162.269C490.708 163.019 489.114 163.863 487.613 164.8C482.831 167.895 480.674 170.801 481.33 173.333C481.799 175.021 483.487 176.146 486.019 176.802C489.489 177.459 492.959 177.646 496.429 177.177C495.866 184.866 496.991 191.055 500.649 191.992C504.306 192.93 508.339 187.96 511.715 181.022C514.528 182.991 517.717 184.585 521.093 185.616C523.531 186.273 525.594 186.085 526.907 184.772C528.783 182.897 528.314 179.334 525.688 174.364C524.75 172.864 523.812 171.364 522.781 169.957ZM531.971 159.268C532.44 160.862 530.377 163.3 526.438 165.832C524.938 166.769 523.343 167.707 521.655 168.457C520.342 166.769 518.936 165.082 517.435 163.394C517.904 161.144 518.185 158.987 518.467 156.83C526.157 156.08 531.315 157.112 531.971 159.268ZM509.464 172.958C508.057 173.333 506.744 173.708 505.431 173.989C504.4 173.146 503.462 172.208 502.43 171.27C501.399 170.333 500.461 169.301 499.617 168.363C499.898 167.051 500.18 165.738 500.555 164.425C500.93 163.113 501.305 161.8 501.68 160.487C502.993 160.018 504.306 159.643 505.619 159.268C507.026 158.893 508.339 158.518 509.651 158.237C510.683 159.081 511.621 160.018 512.652 160.956C513.684 161.894 514.622 162.925 515.466 163.863C515.184 165.175 514.903 166.488 514.528 167.801C514.153 169.114 513.778 170.426 513.403 171.739C512.09 172.208 510.777 172.583 509.464 172.958ZM512.746 173.896C512.184 175.49 511.621 176.99 510.964 178.396C509.745 177.553 508.432 176.521 507.119 175.49C508.057 175.302 508.995 175.021 509.933 174.74C510.871 174.458 511.808 174.177 512.746 173.896ZM503.274 174.458C501.586 174.833 499.992 175.021 498.492 175.208C498.679 173.708 498.867 172.114 499.148 170.426C499.805 171.083 500.461 171.739 501.118 172.489C501.868 173.146 502.524 173.802 503.274 174.458ZM498.117 166.676C496.991 165.457 496.053 164.238 495.116 163.019C496.522 162.362 498.023 161.8 499.617 161.237C499.336 162.175 499.054 163.019 498.867 163.956C498.585 164.8 498.304 165.738 498.117 166.676ZM502.43 158.331C502.993 156.737 503.556 155.236 504.212 153.83C505.431 154.674 506.744 155.705 508.057 156.737C507.119 156.924 506.182 157.205 505.244 157.487C504.212 157.768 503.274 158.049 502.43 158.331ZM511.808 157.768C513.496 157.393 515.091 157.205 516.591 157.018C516.404 158.518 516.216 160.112 515.935 161.8C515.278 161.144 514.622 160.487 513.965 159.737C513.215 159.081 512.559 158.424 511.808 157.768ZM516.966 165.551C518.092 166.769 519.029 167.988 519.967 169.207C518.561 169.864 517.06 170.426 515.466 170.989C515.747 170.051 516.029 169.207 516.216 168.27C516.497 167.426 516.779 166.488 516.966 165.551ZM513.965 141.922C516.216 142.484 517.435 147.548 516.779 155.236C514.622 155.518 512.371 155.893 510.12 156.361C508.432 154.861 506.651 153.549 504.869 152.236C508.151 145.297 511.715 141.359 513.965 141.922ZM491.083 157.018C488.926 152.986 488.364 149.892 489.489 148.673C490.239 147.923 491.646 147.829 493.521 148.298C496.804 149.329 499.805 150.829 502.618 152.798C501.774 154.767 500.93 156.83 500.274 158.987C498.023 159.737 495.96 160.581 493.99 161.425C492.959 160.112 492.021 158.612 491.083 157.018ZM483.112 172.958C482.643 171.364 484.706 168.926 488.645 166.394C490.145 165.457 491.74 164.519 493.428 163.769C494.741 165.457 496.147 167.145 497.648 168.832C497.179 171.083 496.897 173.239 496.616 175.396C488.926 176.146 483.768 175.115 483.112 172.958ZM501.118 190.305C498.867 189.742 497.648 184.679 498.304 176.99C500.461 176.709 502.712 176.334 504.963 175.865C506.651 177.365 508.432 178.678 510.214 179.99C506.932 186.929 503.368 190.867 501.118 190.305ZM525.5 183.554C523.906 185.148 518.748 183.741 512.371 179.428C513.215 177.459 514.059 175.396 514.716 173.239C516.966 172.489 519.029 171.645 520.999 170.801C522.03 172.208 522.968 173.802 523.906 175.302C526.157 179.24 526.719 182.335 525.5 183.554Z" fill="black"/>
<path d="M510.87 165.175C511.433 167.05 510.307 168.925 508.432 169.487C506.556 170.05 504.681 168.925 504.118 167.05C503.555 165.175 504.681 163.3 506.556 162.737C508.432 162.269 510.401 163.3 510.87 165.175Z" fill="black"/>
<path d="M226.816 360.771L230.38 363.678L230.193 363.865L226.723 360.958L226.816 360.771Z" fill="black"/>
<path d="M237.129 369.678L243.318 376.241L243.037 376.522L236.848 369.96L237.129 369.678Z" fill="black"/>
<path d="M249.039 383.274C250.821 385.712 252.509 388.244 254.103 390.776L253.634 391.057C252.04 388.525 250.446 385.994 248.664 383.556L249.039 383.274Z" fill="black"/>
<path d="M258.512 398.746C259.825 401.465 261.044 404.278 262.076 407.091L261.325 407.372C260.294 404.559 259.168 401.746 257.855 399.027L258.512 398.746Z" fill="black"/>
<path d="M264.793 415.811C265.543 418.718 266.106 421.718 266.481 424.719L265.543 424.813C265.168 421.812 264.699 418.905 263.949 415.999L264.793 415.811Z" fill="black"/>
<path d="M267.043 433.814C267.043 436.814 266.856 439.908 266.481 442.909L265.449 442.815C265.824 439.815 266.012 436.814 266.012 433.814H267.043Z" fill="black"/>
<path d="M264.982 451.911C264.325 454.911 263.481 457.818 262.45 460.631L261.324 460.256C262.262 457.443 263.106 454.536 263.856 451.63L264.982 451.911Z" fill="black"/>
<path d="M259.076 469.07L257.013 473.196C256.638 473.852 256.356 474.602 255.981 475.258L254.856 477.227L253.73 476.571L254.856 474.602C255.231 473.946 255.512 473.289 255.887 472.633L257.951 468.601L259.076 469.07Z" fill="black"/>
<path d="M249.979 484.822C248.197 487.26 246.321 489.698 244.352 491.949L243.32 491.011C245.29 488.761 247.165 486.416 248.947 483.979L249.979 484.822Z" fill="black"/>
<path d="M237.975 498.606C235.818 500.669 233.474 502.731 231.129 504.606L230.191 503.481C232.536 501.606 234.787 499.637 236.944 497.575L237.975 498.606Z" fill="black"/>
<path d="M223.909 510.045L216.219 515.014L215.375 513.608L222.971 508.826L223.909 510.045Z" fill="black"/>
<path d="M208.249 519.422L200.09 523.453L199.434 521.953L207.499 518.015L208.249 519.422Z" fill="black"/>
<path d="M191.839 527.204L183.68 530.954L182.93 529.454L191.182 525.61L191.839 527.204Z" fill="black"/>
<path d="M182.363 534.799C183.77 535.174 185.177 535.268 186.677 535.456C188.178 535.55 189.678 535.643 191.179 535.643V537.331C189.678 537.331 188.178 537.238 186.583 537.144C185.083 537.05 183.489 536.862 181.988 536.487L182.363 534.799Z" fill="black"/>
<path d="M200.18 535.362L209.183 534.893L209.276 536.675L200.273 537.144L200.18 535.362Z" fill="black"/>
<path d="M218.191 534.143L227.194 533.393L227.382 535.175L218.379 535.925L218.191 534.143Z" fill="black"/>
<path d="M236.191 532.455L245.194 531.424L245.382 533.299L236.379 534.237L236.191 532.455Z" fill="black"/>
<path d="M254.195 530.392L263.198 529.361L263.386 531.236L254.383 532.268L254.195 530.392Z" fill="black"/>
<path d="M272.109 528.236L281.112 527.111L281.394 529.08L272.391 530.112L272.109 528.236Z" fill="black"/>
<path d="M290.117 525.986L299.12 524.86L299.308 526.736L290.399 527.861L290.117 525.986Z" fill="black"/>
<path d="M308.031 523.641L317.034 522.516L317.315 524.392L308.313 525.517L308.031 523.641Z" fill="black"/>
<path d="M326.035 521.297L334.944 520.172L335.226 521.954L326.223 523.173L326.035 521.297Z" fill="black"/>
<path d="M343.945 518.953L352.948 517.734L353.136 519.516L344.133 520.735L343.945 518.953Z" fill="black"/>
<path d="M361.859 516.515L370.862 515.296L371.05 517.078L362.141 518.297L361.859 516.515Z" fill="black"/>
<path d="M379.863 514.171L388.772 512.952L389.054 514.546L380.051 515.859L379.863 514.171Z" fill="black"/>
<path d="M397.777 511.827L406.78 510.608L406.968 512.109L397.965 513.328L397.777 511.827Z" fill="black"/>
<path d="M415.781 509.483L424.69 508.264L424.878 509.671L415.969 510.89L415.781 509.483Z" fill="black"/>
<path d="M433.691 507.139L442.694 506.013L442.882 507.326L433.879 508.545L433.691 507.139Z" fill="black"/>
<path d="M451.699 504.889L460.702 503.763L460.796 504.982L451.793 506.201L451.699 504.889Z" fill="black"/>
<path d="M469.609 502.732L478.612 501.7L478.8 502.732L469.797 503.857L469.609 502.732Z" fill="black"/>
<path d="M487.617 500.575L496.62 499.637L496.714 500.575L487.805 501.7L487.617 500.575Z" fill="black"/>
<path d="M505.621 498.606L514.624 497.668L514.718 498.606L505.715 499.544L505.621 498.606Z" fill="black"/>
<path d="M523.629 496.825L532.726 495.98V496.731L523.723 497.669L523.629 496.825Z" fill="black"/>
<path d="M541.727 495.137L550.729 494.386L550.823 495.23L541.727 495.981V495.137Z" fill="black"/>
<path d="M559.734 493.824L568.831 493.355V494.105L559.828 494.574L559.734 493.824Z" fill="black"/>
<path d="M577.93 492.98H586.933V493.637L577.93 493.73V492.98Z" fill="black"/>
<path d="M596.023 493.355C599.024 493.636 602.025 494.011 605.026 494.855L604.839 495.512C602.025 494.668 598.931 494.293 596.023 494.105V493.355Z" fill="black"/>
<path d="M608.967 501.606C608.498 502.263 608.029 502.825 607.56 503.388C607.091 503.95 606.622 504.513 606.06 505.075C605.028 506.2 603.997 507.232 602.871 508.357L602.402 507.888C603.528 506.857 604.559 505.825 605.591 504.7C606.06 504.138 606.622 503.575 607.091 503.013C607.56 502.45 608.029 501.794 608.498 501.231L608.967 501.606Z" fill="black"/>
<path d="M595.838 514.171C593.4 515.952 590.868 517.64 588.336 519.233L587.961 518.671C590.493 517.077 593.025 515.39 595.463 513.608L595.838 514.171Z" fill="black"/>
<path d="M580.456 523.829L572.391 527.954L572.109 527.298L580.081 523.173L580.456 523.829Z" fill="black"/>
<path d="M564.143 531.799L555.891 535.361L555.609 534.705L563.862 531.143L564.143 531.799Z" fill="black"/>
<path d="M547.448 538.738L539.008 542.019L538.727 541.269L547.167 538.082L547.448 538.738Z" fill="black"/>
<path d="M530.475 545.114L521.942 548.021L521.66 547.177L530.194 544.27L530.475 545.114Z" fill="black"/>
<path d="M513.311 550.927L504.684 553.647L504.402 552.709L513.03 549.989L513.311 550.927Z" fill="black"/>
<path d="M496.054 556.366L487.426 558.992L487.051 557.96L495.772 555.428L496.054 556.366Z" fill="black"/>
<path d="M478.706 561.523L469.984 564.055L469.703 562.929L478.425 560.491L478.706 561.523Z" fill="black"/>
<path d="M461.265 566.492L452.543 568.93L452.262 567.805L460.983 565.367L461.265 566.492Z" fill="black"/>
<path d="M443.819 571.368L435.098 573.712L434.723 572.399L443.538 570.149L443.819 571.368Z" fill="black"/>
<path d="M426.378 576.057L417.563 578.307L417.281 576.994L426.003 574.744L426.378 576.057Z" fill="black"/>
<path d="M408.839 580.651L400.117 582.902L399.742 581.495L408.464 579.244L408.839 580.651Z" fill="black"/>
<path d="M391.308 585.245L382.586 587.496L382.211 585.996L390.932 583.745L391.308 585.245Z" fill="black"/>
<path d="M373.769 589.746L365.047 591.996L364.578 590.402L373.393 588.152L373.769 589.746Z" fill="black"/>
<path d="M356.229 594.247L347.508 596.497L347.039 594.903L355.854 592.653L356.229 594.247Z" fill="black"/>
<path d="M338.788 598.841L329.973 601.091L329.504 599.403L338.319 597.06L338.788 598.841Z" fill="black"/>
<path d="M321.253 603.436L312.531 605.779L311.969 603.904L320.784 601.654L321.253 603.436Z" fill="black"/>
<path d="M303.714 608.124L294.992 610.468L294.523 608.593L303.245 606.249L303.714 608.124Z" fill="black"/>
<path d="M286.272 612.906L277.551 615.343L276.988 613.375L285.804 611.031L286.272 612.906Z" fill="black"/>
<path d="M268.827 617.782L260.199 620.313L259.637 618.438L268.264 615.907L268.827 617.782Z" fill="black"/>
<path d="M251.479 622.939L242.852 625.564L242.195 623.595L250.917 620.97L251.479 622.939Z" fill="black"/>
<path d="M234.222 628.283L225.594 631.096L224.938 629.127L233.565 626.314L234.222 628.283Z" fill="black"/>
<path d="M217.065 634.003L208.531 636.909L207.781 634.941L216.315 631.941L217.065 634.003Z" fill="black"/>
<path d="M199.991 640.004C197.178 641.129 194.458 642.254 191.832 643.661L190.801 641.692C193.52 640.286 196.334 639.067 199.147 638.036L199.991 640.004Z" fill="black"/>
<path d="M184.799 648.443C184.612 648.724 184.518 648.912 184.424 649.099C184.331 649.287 184.424 649.38 184.424 649.474C184.518 649.662 184.987 650.13 185.643 650.412C186.863 651.068 188.269 651.443 189.676 651.818L189.113 653.974C187.613 653.599 186.112 653.13 184.612 652.38C183.862 651.912 183.018 651.537 182.455 650.412C182.174 649.755 182.174 649.099 182.361 648.537C182.549 647.974 182.83 647.599 183.018 647.224L184.799 648.443Z" fill="black"/>
<path d="M198.496 653.507L207.405 654.632L207.124 656.883L198.121 655.758L198.496 653.507Z" fill="black"/>
<path d="M216.406 655.57L225.409 656.226L225.222 658.571L216.219 657.82L216.406 655.57Z" fill="black"/>
<path d="M234.41 656.882L243.413 657.445L243.319 659.696L234.223 659.133L234.41 656.882Z" fill="black"/>
<path d="M252.418 657.914L261.515 658.289L261.421 660.54L252.324 660.165L252.418 657.914Z" fill="black"/>
<path d="M270.516 658.664L279.706 659.039L279.612 661.29L270.422 660.915L270.516 658.664Z" fill="black"/>
<path d="M288.768 659.341L288.691 661.591L297.783 661.902L297.86 659.653L288.768 659.341Z" fill="black"/>
<path d="M306.902 659.976L315.905 660.257L315.811 662.508L306.809 662.227L306.902 659.976Z" fill="black"/>
<path d="M325.004 660.539L334.007 660.82V662.977L324.91 662.696L325.004 660.539Z" fill="black"/>
<path d="M343.102 661.008L352.104 661.29V663.447L343.008 663.259L343.102 661.008Z" fill="black"/>
<path d="M361.203 661.571L370.206 661.758V663.915L361.109 663.728L361.203 661.571Z" fill="black"/>
<path d="M379.301 662.039L388.304 662.227V664.384L379.207 664.102L379.301 662.039Z" fill="black"/>
<path d="M397.398 662.508L406.401 662.79V664.759L397.305 664.571L397.398 662.508Z" fill="black"/>
<path d="M415.5 662.977L424.503 663.258V665.228L415.406 665.04L415.5 662.977Z" fill="black"/>
<path d="M433.602 663.54L442.604 663.821V665.697L433.508 665.415L433.602 663.54Z" fill="black"/>
<path d="M451.699 664.102L460.702 664.477V666.165L451.605 665.978L451.699 664.102Z" fill="black"/>
<path d="M469.797 664.759L478.8 665.04V666.728L469.703 666.447L469.797 664.759Z" fill="black"/>
<path d="M487.895 665.415L496.897 665.79V667.384L487.801 667.009L487.895 665.415Z" fill="black"/>
<path d="M506 666.165L515.003 666.54L514.909 668.041L505.906 667.666L506 666.165Z" fill="black"/>
<path d="M524.098 667.009L533.101 667.478L533.007 668.885L524.004 668.51L524.098 667.009Z" fill="black"/>
<path d="M542.195 668.041L551.198 668.509L551.104 669.916L542.102 669.353L542.195 668.041Z" fill="black"/>
<path d="M560.203 669.166L569.3 669.822L569.206 671.041L560.109 670.478L560.203 669.166Z" fill="black"/>
<path d="M578.301 670.572L587.304 671.416L587.21 672.541L578.207 671.791L578.301 670.572Z" fill="black"/>
<path d="M596.305 672.354L605.308 673.479L605.214 674.51L596.211 673.479L596.305 672.354Z" fill="black"/>
<path d="M614.313 674.791L623.222 676.479L623.034 677.417L614.125 675.823L614.313 674.791Z" fill="black"/>
<path d="M632.039 678.917C633.446 679.386 634.853 680.042 636.259 680.792C636.916 681.167 637.572 681.636 638.229 682.105C638.885 682.574 639.448 683.042 640.01 683.605L639.448 684.167C638.885 683.699 638.322 683.23 637.76 682.761C637.197 682.292 636.541 681.917 635.884 681.542C634.571 680.792 633.165 680.323 631.758 679.761L632.039 678.917Z" fill="black"/>
<path d="M643.946 691.669C644.04 693.263 643.759 694.763 643.29 696.264C642.821 697.764 642.165 699.077 641.321 700.389L640.758 700.014C642.258 697.483 643.29 694.576 643.196 691.669H643.946Z" fill="black"/>
<path d="M635.791 707.609C633.728 709.765 631.477 711.828 629.133 713.797L628.852 713.422C631.102 711.453 633.353 709.39 635.416 707.234L635.791 707.609Z" fill="black"/>
<path d="M621.909 719.33L614.406 724.393L614.219 724.111L621.721 718.955L621.909 719.33Z" fill="black"/>
<path d="M606.904 729.175L602.965 731.426L602.871 731.332L606.716 728.988L606.904 729.175Z" fill="black"/>
<path d="M480.671 759.837C389.892 720.924 323.215 692.232 323.027 692.138C322.84 692.045 322.558 691.857 322.558 691.857C313.086 686.419 308.679 677.323 307.178 674.229C305.584 670.76 301.27 661.758 303.24 651.163C303.333 650.788 303.427 650.413 303.427 650.413C303.615 649.663 427.498 406.622 373.293 339.58C370.105 335.735 364.009 329.453 352.286 324.671C351.067 324.577 349.098 324.296 347.41 322.983C344.503 320.733 344.034 317.17 343.659 313.888C343.377 311.638 342.815 305.355 346.191 298.229C346.191 298.229 348.723 293.072 356.975 286.415C358.101 285.571 359.601 284.446 361.571 284.539C362.321 284.539 362.977 284.821 363.352 284.914C376.575 271.412 393.643 250.034 402.74 219.935C404.803 213.277 406.21 206.808 407.241 200.807C409.304 199.963 411.555 199.213 413.993 198.556C425.059 195.65 435 196.962 441.565 198.556C530.28 236.438 595.269 265.692 612.712 274.694C616.464 276.663 623.778 280.601 628.936 288.759C635.126 298.51 635.126 309.2 634.563 315.576C628.186 342.862 621.809 370.054 615.432 397.339C617.214 397.527 619.933 398.183 622.184 400.246C626.592 404.278 625.842 410.935 625.373 414.78C624.998 418.437 623.028 428.657 614.119 434.095C611.212 435.877 608.399 436.627 606.523 437.002C583.078 536.675 559.727 636.254 536.282 735.927C536.001 738.646 535.063 742.866 532.062 746.71C530.655 748.585 528.311 750.929 517.901 754.868C506.46 759.275 497.551 762.556 486.11 760.962C483.859 760.681 481.89 760.212 480.671 759.837Z" fill="#5869DD"/>
<path d="M474.855 757.868C347.221 702.64 307.459 684.918 301.738 681.73C301.457 681.543 301.269 681.449 301.269 681.449C291.985 676.198 287.577 667.384 286.077 664.29C284.483 660.914 280.169 652.1 282.138 641.88C282.232 641.505 282.232 641.223 282.326 641.13C336.155 393.213 350.316 337.048 378.544 224.623C379.575 220.497 382.107 211.121 390.172 205.495C400.769 198.181 412.117 201.275 413.617 201.744C470.729 226.873 527.841 252.002 585.046 277.038C587.578 277.882 597.8 281.539 604.084 292.509C609.992 302.823 608.585 312.856 608.116 315.575L510.398 736.114C510.023 737.896 507.397 748.866 496.612 755.055C486.672 760.775 476.825 758.43 474.855 757.868Z" fill="url(#paint0_linear_10_3080)"/>
<path d="M474.855 757.868C347.221 702.64 307.459 684.919 301.738 681.731C301.457 681.543 301.269 681.449 301.269 681.449C291.985 676.198 287.577 667.384 286.077 664.29C284.483 660.915 280.169 652.101 282.138 641.88C282.232 641.505 282.232 641.224 282.326 641.13C336.155 393.214 350.316 337.048 378.544 224.623C379.575 220.498 382.107 211.121 390.172 205.495C400.769 198.181 412.117 201.276 413.617 201.745C470.729 226.874 527.841 252.003 585.046 277.038C587.578 277.882 597.8 281.539 604.084 292.51C609.992 302.824 608.585 312.857 608.116 315.576L510.398 736.115C510.023 737.896 507.397 748.867 496.612 755.055C486.671 760.775 476.825 758.431 474.855 757.868Z" stroke="black" stroke-width="2.3783" stroke-miterlimit="10"/>
<path d="M606.71 437.002C576.888 564.898 537.594 733.302 535.156 741.084C534.218 744.178 532.342 746.71 532.342 746.71C528.966 751.211 524.277 752.899 518.182 754.868C502.333 759.837 494.455 762.275 485.546 760.869C480.857 760.118 477.2 758.806 474.855 757.868" stroke="black" stroke-width="2.377" stroke-miterlimit="10"/>
<path d="M394.484 203.245C399.173 200.713 404.706 199.869 415.772 198.181C423.837 196.962 428.057 196.306 433.028 196.868C439.405 197.525 444.469 199.494 447.845 200.994C527.651 237.094 586.264 263.723 608.021 272.631C611.959 274.225 622.463 278.445 629.121 288.853C635.498 298.885 635.404 310.325 634.56 317.732C630.246 336.204 623.776 364.24 616.086 397.152" stroke="black" stroke-width="2.377" stroke-miterlimit="10"/>
<path d="M528.777 482.479C475.135 458.475 421.493 434.564 367.945 410.56C367.383 410.373 365.319 409.435 364.1 407.091C363.069 405.028 363.256 403.153 363.35 402.496L395.892 262.411C395.985 261.942 396.548 259.879 398.611 258.66C400.205 257.629 401.894 257.722 402.362 257.816C415.21 263.442 560.287 327.109 564.32 330.484C566.289 332.078 567.227 334.048 567.227 334.048C567.227 334.048 568.071 335.923 568.165 338.079C568.352 343.33 538.249 468.414 535.998 477.978C535.342 481.26 532.06 483.229 528.777 482.479Z" stroke="black" stroke-width="2.377" stroke-miterlimit="10"/>
<path d="M529.995 478.165C477.666 454.818 425.243 431.47 372.914 408.122C372.351 407.935 370.382 406.997 369.163 404.747C368.131 402.778 368.319 400.902 368.413 400.34L400.016 264.286C400.11 263.817 400.673 261.848 402.642 260.629C404.236 259.691 405.831 259.691 406.3 259.785C418.772 265.224 560.567 327.296 564.506 330.578C566.381 332.079 567.319 334.048 567.319 334.048C567.319 334.048 568.163 335.829 568.257 337.986C568.445 343.049 539.279 464.569 537.028 473.852C536.372 476.946 533.183 478.915 529.995 478.165Z" fill="#EDEAE2" stroke="black" stroke-width="2.377" stroke-miterlimit="10"/>
<path d="M364.66 566.774C362.691 575.119 360.722 583.464 358.752 591.809C358.471 592.84 357.439 593.497 356.501 593.215L341.403 586.933C340.934 586.464 340.278 585.714 339.996 584.683C339.715 583.651 339.996 582.714 340.09 582.339C342.716 572.306 346.28 558.897 346.28 558.897C344.029 557.772 341.684 556.741 339.434 555.615" stroke="black" stroke-width="2.377" stroke-miterlimit="10"/>
<path d="M350.879 537.425C352.942 528.799 354.911 520.078 356.975 511.452C357.256 510.421 358.288 509.764 359.225 510.046L374.324 516.328C374.418 516.328 374.418 516.422 374.511 516.422C375.355 516.89 375.731 518.203 375.637 519.235C375.637 519.328 375.637 519.328 375.637 519.422C375.543 520.078 374.418 524.861 369.822 544.458" stroke="black" stroke-width="2.377" stroke-miterlimit="10"/>
<path d="M369.918 568.93C366.448 583.558 363.822 594.247 363.072 595.935C362.978 596.216 362.603 597.06 361.759 597.435C360.727 597.998 359.696 597.529 359.602 597.529C354.069 595.279 348.536 592.934 343.097 590.684C342.909 590.59 342.347 590.309 342.065 589.84C341.596 588.996 341.878 587.871 342.065 587.215" stroke="black" stroke-width="2.377" stroke-miterlimit="10"/>
<path d="M359.223 509.67C359.41 508.639 359.692 507.701 359.879 506.67C359.973 506.482 360.16 506.014 360.723 505.639C361.38 505.17 362.13 505.264 362.224 505.264C368.132 507.795 373.946 510.421 379.854 512.952C380.136 513.14 380.792 513.515 381.167 514.453C381.448 515.109 381.448 515.765 381.448 516.047C379.385 524.861 377.322 533.674 375.353 542.395C378.26 543.52 392.233 549.146 393.734 549.99C394.015 550.177 394.296 550.271 394.296 550.271C394.859 550.646 395.703 551.209 396.266 552.146C396.453 552.428 397.11 553.459 397.016 554.678C397.016 555.147 396.922 555.428 396.922 555.522C395.422 561.992 394.109 568.462 392.514 574.838C392.514 575.025 392.421 575.494 392.046 575.869C391.295 576.807 389.889 576.807 389.42 576.807C388.857 576.807 388.388 576.713 387.544 576.525C386.606 576.244 385.387 575.869 383.98 575.213" stroke="black" stroke-width="2.377" stroke-miterlimit="10"/>
<path d="M357.914 510.14C360.54 508.921 363.072 507.795 365.698 506.576" stroke="black" stroke-width="2.377" stroke-miterlimit="10"/>
<path d="M375.445 517.454C377.415 516.422 379.384 515.297 381.353 514.265" stroke="black" stroke-width="2.377" stroke-miterlimit="10"/>
<path d="M352.66 444.41C354.723 443.66 356.786 442.909 358.85 442.159" stroke="black" stroke-width="2.377" stroke-miterlimit="10"/>
<path d="M390.922 555.241C392.891 554.491 394.861 553.834 396.83 553.084" stroke="black" stroke-width="2.377" stroke-miterlimit="10"/>
<path d="M370.008 544.27C371.883 543.614 373.853 542.957 375.728 542.301" stroke="black" stroke-width="2.377" stroke-miterlimit="10"/>
<path d="M329.406 527.299C331.845 526.268 334.189 525.236 336.627 524.205" stroke="black" stroke-width="2.377" stroke-miterlimit="10"/>
<path d="M357.82 593.122C359.133 594.247 360.446 595.466 361.759 596.592" stroke="black" stroke-width="2.377" stroke-miterlimit="10"/>
<path d="M346.19 558.897C334.937 553.646 326.872 549.708 325.746 549.146C325.559 549.052 324.996 548.771 324.715 548.208C324.34 547.552 324.527 546.895 324.527 546.708C325.934 540.801 327.247 534.893 328.654 528.986C328.654 528.892 328.841 528.236 329.498 527.861C330.154 527.486 330.811 527.673 330.998 527.673C337.657 530.768 344.315 533.956 350.973 537.05C351.255 535.737 351.536 534.424 351.911 533.112" stroke="black" stroke-width="2.377" stroke-miterlimit="10"/>
<path d="M371.045 539.394C370.67 541.082 370.295 542.77 369.826 544.457C380.611 549.615 388.394 553.459 389.52 553.928C389.707 554.021 390.27 554.303 390.551 554.865C390.927 555.522 390.739 556.178 390.739 556.366C389.332 562.273 388.019 568.18 386.613 574.087C386.613 574.181 386.425 574.837 385.769 575.213C385.112 575.588 384.456 575.4 384.268 575.4C377.704 572.493 371.139 569.68 364.668 566.774C364.387 567.899 364.199 568.93 363.918 570.055" stroke="black" stroke-width="2.377" stroke-miterlimit="10"/>
<path d="M348.912 399.121C346.755 398.652 345.348 396.402 345.817 394.245L378.171 255.191C378.64 253.034 380.89 251.628 383.047 252.096C385.204 252.565 386.611 254.816 386.142 256.972L353.788 396.027C353.319 398.277 351.068 399.683 348.912 399.121Z" stroke="black" stroke-width="2.377" stroke-miterlimit="10"/>
<path d="M377.884 461.944L377.509 462.882C375.821 466.82 371.226 468.601 367.287 466.913L351.251 459.975C347.312 458.287 345.53 453.693 347.218 449.754L347.593 448.817C349.281 444.879 353.877 443.097 357.815 444.785L373.852 451.723C377.79 453.411 379.572 458.006 377.884 461.944Z" stroke="black" stroke-width="2.377" stroke-miterlimit="10"/>
<path d="M349.848 445.816C350.223 445.16 351.348 443.191 353.693 442.253C355.006 441.691 356.225 441.691 356.506 441.691C357.444 441.691 358.382 441.878 359.319 442.347C365.134 444.785 370.854 447.223 376.669 449.755C377.606 450.223 380.045 451.536 381.451 454.349C382.295 456.131 382.389 457.631 382.483 458.006C382.483 458.662 382.483 459.787 382.108 461.288C381.639 462.788 380.138 468.226 376.294 469.07C374.418 469.539 372.261 468.695 370.667 468.133C369.823 467.851 369.072 467.476 368.604 467.195" stroke="black" stroke-width="2.377" stroke-miterlimit="10"/>
<path d="M450.004 487.73C452.067 486.979 454.13 486.229 456.193 485.479" stroke="black" stroke-width="2.377" stroke-miterlimit="10"/>
<path d="M475.232 505.17L474.857 506.107C473.169 510.045 468.574 511.827 464.635 510.139L448.598 503.2C444.66 501.513 442.878 496.918 444.566 492.98L444.941 492.042C446.629 488.104 451.224 486.323 455.163 488.01L471.199 494.949C475.138 496.637 476.92 501.325 475.232 505.17Z" stroke="black" stroke-width="2.377" stroke-miterlimit="10"/>
<path d="M447.188 489.135C447.563 488.479 448.688 486.51 451.032 485.572C452.345 485.01 453.565 485.01 453.846 485.01C454.784 485.01 455.721 485.197 456.659 485.666C462.474 488.104 468.194 490.542 474.008 493.074C474.946 493.542 477.385 494.855 478.791 497.668C479.635 499.45 479.729 500.95 479.823 501.325C479.823 501.981 479.823 503.107 479.448 504.607C478.979 506.107 477.478 511.545 473.633 512.389C471.758 512.858 469.601 512.014 468.007 511.452C467.163 511.17 466.412 510.795 465.943 510.514" stroke="black" stroke-width="2.377" stroke-miterlimit="10"/>
<path d="M500.176 509.577C502.239 508.827 504.302 508.077 506.365 507.326" stroke="black" stroke-width="2.377" stroke-miterlimit="10"/>
<path d="M525.31 527.111L524.935 528.048C523.247 531.986 518.652 533.768 514.713 532.08L498.677 525.142C494.738 523.454 492.956 518.859 494.644 514.921L495.019 513.983C496.707 510.045 501.302 508.264 505.241 509.952L521.277 516.89C525.216 518.578 526.998 523.173 525.31 527.111Z" stroke="black" stroke-width="2.377" stroke-miterlimit="10"/>
<path d="M497.266 510.983C497.641 510.327 498.766 508.358 501.111 507.42C502.424 506.857 503.643 506.857 503.924 506.857C504.862 506.857 505.8 507.045 506.737 507.514C512.552 509.952 518.272 512.39 524.087 514.921C525.024 515.39 527.463 516.703 528.869 519.516C529.713 521.297 529.807 522.798 529.901 523.173C529.901 523.829 529.901 524.954 529.526 526.454C529.057 527.955 527.556 533.393 523.711 534.237C521.836 534.706 519.679 533.862 518.085 533.299C517.241 533.018 516.49 532.643 516.022 532.362" stroke="black" stroke-width="2.377" stroke-miterlimit="10"/>
<path d="M547.72 488.198C545.563 487.73 544.157 485.479 544.625 483.323L576.979 344.268C577.448 342.112 579.699 340.705 581.856 341.174C584.013 341.643 585.42 343.893 584.951 346.05L552.597 485.104C552.128 487.355 549.877 488.761 547.72 488.198Z" stroke="black" stroke-width="2.377" stroke-miterlimit="10"/>
<path d="M579.698 341.643C580.26 341.455 581.104 341.08 582.23 341.08C582.605 341.08 583.074 340.986 583.73 341.174C584.855 341.361 586.356 342.112 587.2 343.518C588.419 345.393 587.95 347.269 587.856 347.644C563.005 455.755 556.44 483.416 555.878 485.104C555.784 485.292 555.69 485.479 555.69 485.479C555.221 486.604 554.283 487.636 553.158 488.292C552.689 488.573 551.189 489.417 549.313 489.23C548.656 489.136 548.094 488.948 547.812 488.855C548.657 488.855 549.688 488.667 550.532 488.105C552.033 487.073 552.314 485.104 552.408 484.729C553.158 480.51 582.792 366.115 584.48 346.706C584.574 345.956 584.668 344.362 583.636 343.237C582.699 341.83 581.104 341.643 579.698 341.643Z" fill="black"/>
<path d="M381.639 251.628C382.202 251.44 383.139 251.065 384.171 251.065C384.546 251.065 385.015 250.971 385.672 251.159C386.797 251.346 388.297 252.096 389.141 253.503C390.36 255.378 389.892 257.253 389.798 257.629C364.946 365.74 358.382 393.401 357.819 395.089C357.725 395.276 357.631 395.464 357.631 395.464C357.162 396.589 356.225 397.621 355.099 398.277C354.63 398.558 353.13 399.402 351.254 399.215C350.598 399.121 350.035 398.933 349.754 398.84C350.598 398.84 351.629 398.652 352.474 398.089C353.974 397.058 354.255 395.089 354.349 394.714C354.912 391.62 368.135 334.891 386.422 256.691C386.516 256.503 386.797 254.628 385.578 253.222C384.734 251.909 383.233 251.346 381.639 251.628Z" fill="black"/>
<path d="M479.918 609.718C480.293 616.375 485.545 624.533 491.734 623.689C496.705 623.033 500.174 616.751 500.831 611.781C501.862 604.467 497.549 596.778 492.109 595.653C490.796 595.372 488.264 595.184 485.732 596.685C483.763 597.904 482.638 599.591 481.981 600.623C481.981 600.904 479.637 604.842 479.918 609.718Z" stroke="black" stroke-width="2.377" stroke-miterlimit="10"/>
<path d="M498.487 594.904C495.861 594.998 493.329 595.185 490.703 595.279" stroke="black" stroke-width="2.377" stroke-miterlimit="10"/>
<path d="M498.955 623.502C496.517 623.502 494.173 623.596 491.734 623.596" stroke="black" stroke-width="2.377" stroke-miterlimit="10"/>
<path d="M485.355 596.873C487.512 594.716 490.138 593.216 492.952 593.216C500.642 593.122 507.112 603.343 505.987 612.063C505.143 617.97 500.642 624.721 494.827 625.19C492.67 625.378 490.513 624.627 488.45 623.315" stroke="black" stroke-width="2.377" stroke-miterlimit="10"/>
<path d="M461.82 565.93C462.195 572.587 467.447 580.745 473.637 579.901C478.607 579.244 482.077 572.962 482.733 567.993C483.765 560.679 479.451 552.99 474.012 551.865C472.699 551.584 470.167 551.396 467.635 552.896C465.665 554.115 464.54 555.803 463.883 556.834C463.883 557.116 461.539 561.054 461.82 565.93Z" stroke="black" stroke-width="2.377" stroke-miterlimit="10"/>
<path d="M480.389 551.209C477.763 551.303 475.231 551.49 472.605 551.584" stroke="black" stroke-width="2.377" stroke-miterlimit="10"/>
<path d="M480.858 579.807C478.419 579.807 476.075 579.901 473.637 579.901" stroke="black" stroke-width="2.377" stroke-miterlimit="10"/>
<path d="M467.258 553.084C469.415 550.927 472.041 549.427 474.854 549.427C482.544 549.333 489.015 559.554 487.889 568.274C487.045 574.181 482.544 580.932 476.73 581.401C474.573 581.589 472.416 580.838 470.353 579.526" stroke="black" stroke-width="2.377" stroke-miterlimit="10"/>
<path d="M389.89 470.758C390.266 474.977 393.829 480.134 397.956 479.666C401.238 479.29 403.489 475.352 403.957 472.258C404.614 467.664 401.613 462.788 397.956 461.944C397.112 461.756 395.33 461.663 393.735 462.506C392.423 463.257 391.672 464.288 391.297 464.944C391.11 465.226 389.609 467.757 389.89 470.758Z" stroke="black" stroke-width="2.377" stroke-miterlimit="10"/>
<path d="M402.177 461.663C400.489 461.757 398.708 461.757 397.02 461.85" stroke="black" stroke-width="2.377" stroke-miterlimit="10"/>
<path d="M402.736 479.759C401.142 479.759 399.547 479.759 397.953 479.759" stroke="black" stroke-width="2.377" stroke-miterlimit="10"/>
<path d="M393.363 462.788C394.77 461.475 396.552 460.537 398.427 460.537C403.585 460.537 407.993 467.101 407.336 472.539C406.868 476.29 403.867 480.416 399.928 480.697C398.427 480.791 397.021 480.322 395.708 479.478" stroke="black" stroke-width="2.377" stroke-miterlimit="10"/>
<path d="M428.34 586.464C428.715 593.122 433.967 601.279 440.156 600.436C445.126 599.779 448.596 593.497 449.253 588.527C450.284 581.214 445.97 573.525 440.531 572.4C439.218 572.118 436.686 571.931 434.154 573.431C432.185 574.65 431.059 576.338 430.403 577.369C430.403 577.65 428.059 581.589 428.34 586.464Z" stroke="black" stroke-width="2.377" stroke-miterlimit="10"/>
<path d="M446.909 571.649C444.283 571.743 441.751 571.931 439.125 572.024" stroke="black" stroke-width="2.377" stroke-miterlimit="10"/>
<path d="M447.377 600.248C444.939 600.248 442.595 600.342 440.156 600.342" stroke="black" stroke-width="2.377" stroke-miterlimit="10"/>
<path d="M433.777 573.619C435.934 571.462 438.56 569.962 441.374 569.962C449.063 569.868 455.534 580.088 454.409 588.809C453.565 594.716 449.063 601.467 443.249 601.936C441.092 602.123 438.935 601.373 436.872 600.061" stroke="black" stroke-width="2.377" stroke-miterlimit="10"/>
<path d="M447 629.784C447.375 636.442 452.627 644.599 458.816 643.755C463.787 643.099 467.256 636.817 467.913 631.847C468.944 624.533 464.631 616.845 459.191 615.719C457.878 615.438 455.346 615.251 452.814 616.751C450.845 617.97 449.72 619.658 449.063 620.689C449.063 620.97 446.719 624.908 447 629.784Z" stroke="black" stroke-width="2.377" stroke-miterlimit="10"/>
<path d="M465.573 615.063C462.947 615.157 460.415 615.344 457.789 615.438" stroke="black" stroke-width="2.377" stroke-miterlimit="10"/>
<path d="M466.041 643.662C463.603 643.662 461.259 643.755 458.82 643.755" stroke="black" stroke-width="2.377" stroke-miterlimit="10"/>
<path d="M452.441 616.938C454.598 614.782 457.224 613.282 460.038 613.282C467.727 613.188 474.198 623.408 473.073 632.129C472.229 638.036 467.727 644.787 461.913 645.256C459.756 645.443 457.599 644.693 455.536 643.38" stroke="black" stroke-width="2.377" stroke-miterlimit="10"/>
<path d="M352.383 531.33C351.726 531.049 336.534 524.017 334.095 523.173C333.908 523.079 333.439 522.985 332.876 522.985C331.657 523.079 330.719 524.017 330.157 524.86C330.063 525.048 329.969 525.235 329.875 525.423C329.5 526.173 329.125 527.486 328.656 529.361" stroke="black" stroke-width="2.377" stroke-miterlimit="10"/>
<path d="M605.209 415.623C602.865 421.999 603.052 430.907 606.616 432.501C609.148 433.626 613.555 430.532 615.619 428.376C616.463 427.438 617.213 426.406 617.588 425.938C617.682 425.75 619.557 423.218 620.589 420.499C622.089 416.749 624.059 408.403 620.026 404.747C619.651 404.372 618.995 403.809 617.963 403.621C613.555 402.402 607.554 409.247 605.209 415.623Z" stroke="black" stroke-width="2.377" stroke-miterlimit="10"/>
<path d="M601.74 414.404C598.645 422.562 599.02 434.283 604.178 436.627C607.835 438.221 613.556 435.126 616.182 432.876C618.245 431.188 620.121 428.469 620.214 428.375C620.589 427.907 621.434 426.594 622.371 424.718C622.371 424.718 623.497 422.468 624.153 420.124C624.622 418.624 628.561 405.59 622.371 400.246C621.809 399.777 620.871 399.027 619.464 398.652C613.087 397.151 604.928 406.059 601.74 414.404Z" stroke="black" stroke-width="2.377" stroke-miterlimit="10"/>
<path d="M620.215 398.933C617.401 397.621 614.963 396.589 612.806 395.745C609.336 394.339 607.461 393.683 605.022 393.214C604.929 393.214 604.929 393.214 604.929 393.214C604.929 393.214 603.991 393.026 602.959 393.214C599.396 393.776 596.582 396.402 596.582 396.402C594.425 398.277 589.174 403.997 587.11 414.03C586.266 418.155 584.953 424.719 588.611 429.22C589.08 429.782 589.455 430.157 589.83 430.439C590.768 431.189 591.518 431.564 591.987 431.751C593.394 432.408 597.989 434.283 604.272 436.627" stroke="black" stroke-width="2.377" stroke-miterlimit="10"/>
<path d="M353.599 325.14C351.348 324.483 349.66 323.921 349.191 323.827C349.098 323.827 348.723 323.733 348.347 323.452C348.347 323.452 348.254 323.358 348.16 323.264C342.721 318.388 343.377 308.074 345.346 301.698C349.285 288.571 360.633 284.633 360.82 284.633C361.195 284.633 361.57 284.633 361.57 284.633C362.133 284.727 362.789 284.914 363.352 285.008" stroke="black" stroke-width="2.377" stroke-miterlimit="10"/>
<path d="M372.821 530.393C372.446 531.424 372.071 532.456 372.071 533.581C372.071 534.05 372.071 534.425 372.071 534.893C372.071 536.019 371.602 537.05 371.321 538.175C370.664 540.238 370.477 542.395 370.289 544.645C370.852 544.926 371.508 544.551 372.071 544.27C372.821 543.801 373.478 543.426 374.228 542.957C374.603 542.676 375.072 542.395 375.353 542.02C375.728 541.645 375.916 541.176 376.103 540.707C378.354 535.081 379.479 529.08 380.511 523.079C380.886 520.922 381.261 518.86 381.636 516.703C381.73 516.047 381.73 515.203 381.168 515.015C380.23 514.64 377.979 516.234 377.229 516.89C376.291 517.734 375.822 518.953 375.353 520.078C374.134 523.267 373.759 526.923 372.821 530.393Z" fill="black"/>
<path d="M388.763 565.742C388.763 565.742 388.013 567.055 388.013 568.18C388.013 568.555 388.013 568.837 388.013 569.212C388.013 570.056 387.262 571.743 387.262 571.743C386.231 573.9 386.512 576.619 387.075 576.807C387.262 576.901 387.45 576.526 387.919 576.526C388.294 576.526 388.482 576.713 388.857 576.901C389.513 577.088 390.076 576.994 390.545 576.901C390.545 576.901 391.389 576.713 392.233 576.057C394.483 574.181 393.452 565.18 396.453 559.929C396.64 559.648 397.86 557.491 397.578 554.959C397.484 554.022 397.297 553.74 397.109 553.553C395.984 552.615 392.795 553.928 391.201 556.178C390.732 556.741 390.639 557.304 390.263 558.335C388.857 562.179 389.701 563.961 388.763 565.742Z" fill="black"/>
<path d="M361.571 581.401C361.196 582.432 360.821 583.464 360.821 584.589C360.821 585.058 360.821 585.433 360.821 585.902C360.821 587.121 360.071 589.183 360.071 589.183C359.696 590.215 359.133 591.715 358.57 593.872C359.039 594.528 361.29 597.622 362.415 597.154C362.79 596.966 362.978 596.403 363.353 595.372C363.728 594.247 363.634 593.872 364.01 592.934C364.291 592.184 364.572 591.809 364.76 591.621C366.448 588.996 366.917 581.213 369.167 573.993C369.636 572.399 370.293 570.712 369.449 569.586C368.511 568.367 365.885 567.805 365.885 567.805C365.885 567.805 364.385 570.055 364.01 570.993C362.884 574.275 362.415 577.932 361.571 581.401Z" fill="black"/>
<path d="M605.582 431.751C606.332 432.126 607.552 432.595 608.958 432.595C613.085 432.595 615.992 428.657 617.774 426.125C617.774 426.125 623.119 418.812 621.994 409.998C621.806 408.31 621.056 407.091 621.056 407.091C620.493 406.153 619.837 405.403 619.462 405.028C619.274 405.028 619.086 405.028 618.805 404.934C618.993 405.966 621.15 417.499 613.366 424.813C610.459 427.532 607.27 428.751 605.113 429.313C605.301 430.064 605.488 430.907 605.582 431.751Z" fill="black"/>
<path d="M449.725 584.683C448.788 585.245 449.256 586.839 448.881 589.559C448.881 589.559 449.069 590.778 448.037 593.028C446.443 596.497 442.411 598.56 441.285 602.123C444.943 601.748 447.662 600.529 448.975 599.31C449.819 598.56 450.382 597.716 450.382 597.716C450.851 596.966 451.226 596.216 451.695 595.372C452.257 594.341 453.008 593.403 453.57 592.372C455.165 589.277 455.821 584.964 454.508 584.214C454.039 583.933 453.758 584.401 452.07 584.589C450.476 584.777 450.194 584.401 449.725 584.683Z" fill="black"/>
<path d="M482.733 564.242C481.889 564.898 482.451 566.399 482.358 569.118C482.358 569.118 482.639 570.337 481.795 572.681C480.576 576.338 476.731 578.682 475.887 582.339C479.45 581.682 482.076 580.182 483.295 578.869C484.046 578.025 484.608 577.088 484.608 577.088C485.077 576.338 485.358 575.494 485.64 574.65C486.109 573.618 486.765 572.587 487.234 571.556C488.547 568.368 488.828 563.961 487.422 563.398C486.953 563.211 486.671 563.679 484.983 563.961C483.577 564.242 483.202 563.961 482.733 564.242Z" fill="black"/>
<path d="M500.928 608.406C500.084 608.968 500.553 610.469 500.272 613.188C500.272 613.188 500.459 614.407 499.522 616.657C498.115 620.126 494.082 622.189 493.051 625.752C496.614 625.284 499.428 624.065 500.647 622.846C501.397 622.095 502.054 621.252 502.054 621.252C502.523 620.501 502.804 619.751 503.273 619.001C503.835 617.97 504.492 617.126 505.055 616.094C506.555 613 507.024 608.781 505.711 608.124C505.242 607.843 504.961 608.406 503.273 608.499C501.679 608.499 501.397 608.124 500.928 608.406Z" fill="black"/>
<path d="M468.292 629.316C467.354 629.785 467.729 631.379 467.167 634.004C467.167 634.004 467.26 635.223 466.135 637.38C464.447 640.661 460.227 642.443 458.914 645.912C462.571 645.725 465.385 644.787 466.792 643.662C467.636 643.005 468.292 642.162 468.292 642.162C468.855 641.505 469.23 640.755 469.699 640.005C470.355 639.067 471.105 638.223 471.668 637.192C473.45 634.285 474.294 630.066 472.981 629.316C472.512 629.034 472.231 629.503 470.543 629.503C469.042 629.409 468.761 629.034 468.292 629.316Z" fill="black"/>
<path d="M373.39 469.445C373.671 469.632 374.14 469.726 374.515 469.82C375.547 470.008 376.672 470.195 377.61 469.82C378.079 469.632 378.454 469.257 378.829 468.882C379.767 468.038 380.611 467.195 381.174 466.163C381.455 465.601 381.643 464.944 381.736 464.288C382.393 461.662 382.862 458.849 381.83 456.412C381.643 455.943 381.268 455.568 380.892 455.568C380.611 455.568 380.424 455.755 380.236 455.849C379.673 456.13 379.017 456.224 378.36 456.13C378.642 457.255 378.829 458.381 378.829 459.506C378.736 462.225 377.047 464.569 375.172 466.538C374.422 467.101 371.983 468.507 373.39 469.445Z" fill="black"/>
<path d="M469.326 512.108C469.607 512.389 469.982 512.577 470.357 512.671C471.295 513.046 472.327 513.514 473.358 513.233C473.827 513.139 474.296 512.858 474.671 512.577C475.703 511.92 476.734 511.358 477.485 510.326C477.86 509.764 478.141 509.201 478.423 508.639C479.548 506.201 480.579 503.575 480.017 500.95C479.923 500.481 479.642 500.012 479.267 499.918C478.985 499.918 478.798 500.012 478.516 500.106C477.954 500.294 477.203 500.294 476.641 500.012C476.641 501.137 476.734 502.263 476.453 503.388C475.89 506.013 473.734 508.076 471.483 509.576C470.733 510.139 468.107 510.889 469.326 512.108Z" fill="black"/>
<path d="M519.214 534.143C519.495 534.424 519.87 534.518 520.245 534.706C521.183 535.081 522.308 535.456 523.246 535.174C523.715 535.081 524.184 534.799 524.559 534.518C525.591 533.862 526.622 533.205 527.279 532.174C527.654 531.611 527.935 531.049 528.123 530.486C529.154 528.048 530.092 525.329 529.436 522.704C529.342 522.235 529.061 521.766 528.592 521.672C528.31 521.672 528.123 521.766 527.841 521.86C527.279 522.047 526.529 522.047 525.966 521.86C526.06 522.985 526.153 524.11 525.872 525.235C525.403 527.861 523.34 530.017 521.183 531.611C520.62 532.08 517.995 533.018 519.214 534.143Z" fill="black"/>
<path d="M455.035 342.047C472.318 339.612 483.488 317.478 479.984 292.608C476.48 267.738 459.628 249.551 442.345 251.985C425.062 254.42 413.891 276.554 417.396 301.424C420.9 326.294 437.751 344.481 455.035 342.047Z" fill="#F2EA86" stroke="black" stroke-width="2.377" stroke-miterlimit="10"/>
<path d="M430.035 257.816C433.693 254.441 439.132 250.69 445.978 249.94C464.546 247.877 484.24 268.787 487.522 290.634C490.523 310.044 480.395 329.734 466.328 338.736C464.077 340.142 462.014 341.174 460.514 341.736C460.232 341.736 459.951 341.643 459.67 341.643C459.388 341.549 459.107 341.361 458.825 341.268C460.889 340.33 463.702 338.83 466.703 336.392C472.986 331.328 475.893 325.421 477.206 322.796C484.802 307.137 480.02 290.165 478.425 284.539C476.925 279.288 474.205 270.006 466.047 261.661C463.046 258.566 459.201 254.722 453.105 253.034C441.945 249.846 432.098 256.316 430.035 257.816Z" fill="black"/>
<path d="M444.48 269.536C440.729 279.1 437.071 288.665 433.32 298.322C439.041 301.417 444.855 304.417 450.576 307.511C455.077 303.386 459.579 299.26 464.08 295.228C457.609 286.602 451.045 278.069 444.48 269.536Z" fill="black"/>
<path d="M435.102 302.073C440.541 309.293 445.886 316.513 451.325 323.733C454.983 315.857 458.64 307.887 462.298 300.01C458.546 303.48 454.795 306.949 451.044 310.418C445.699 307.699 440.447 304.886 435.102 302.073Z" fill="black"/>
<path d="M516.133 416.308C533.54 399.37 538.105 375.832 526.33 363.735C514.554 351.637 490.898 355.561 473.491 372.499C456.084 389.437 451.518 412.975 463.294 425.072C475.069 437.17 498.726 433.246 516.133 416.308Z" fill="#F2EA86" stroke="black" stroke-width="2.377" stroke-miterlimit="10"/>
<path d="M514.719 357.489C517.438 357.957 524.284 359.551 530.005 365.459C535.538 371.178 536.851 377.742 537.319 380.649C541.071 401.371 521.846 419.28 520.814 420.218C508.06 431.751 488.273 438.127 472.33 431.938C469.892 431.001 467.922 429.876 466.703 429.125C466.516 428.844 466.422 428.657 466.234 428.375C466.141 428.094 466.141 427.813 466.047 427.531C468.016 428.563 470.736 429.969 474.299 430.907C481.896 432.876 488.085 431.845 490.898 431.282C507.404 428.282 517.907 414.779 521.377 410.372C524.659 406.247 530.286 398.745 532.162 387.681C532.818 383.649 533.662 378.398 531.505 372.585C527.66 362.177 516.969 358.239 514.719 357.489Z" fill="black"/>
<path d="M505.805 401.652C508.055 401.277 510.306 400.246 512.088 398.464C516.308 394.245 516.589 387.587 513.026 383.086L517.152 378.961L513.495 375.21L509.368 379.242L506.836 376.71L510.963 372.679L507.305 368.928L503.179 372.96L496.896 366.584L492.207 371.178L496.614 375.585L477.671 394.338L473.263 389.931L468.574 394.526L474.857 400.902L470.731 404.934L474.389 408.685L478.515 404.653L481.047 407.184L476.921 411.216L480.578 414.967L484.704 410.935L486.299 412.529C490.8 417.03 498.115 417.123 502.616 412.623C505.711 409.622 506.743 405.496 505.805 401.652ZM507.399 386.743C509.368 388.712 509.368 391.9 507.399 393.87C505.43 395.839 502.241 395.839 500.272 393.87L493.988 387.587L501.116 380.555L507.399 386.743ZM490.988 407.934L482.266 399.12L489.393 392.088L495.677 398.37L498.115 400.808C500.084 402.777 500.084 405.965 498.115 407.934C496.145 409.903 492.957 409.903 490.988 407.934Z" fill="black"/>
<path d="M648 173.17C665.958 158.234 672.112 136.025 661.745 123.563C651.378 111.102 628.416 113.108 610.458 128.043C592.499 142.979 586.346 165.189 596.713 177.65C607.08 190.111 630.042 188.105 648 173.17Z" fill="#F2EA86" stroke="black" stroke-width="2.377" stroke-miterlimit="10"/>
<path d="M651.1 116.757C653.539 117.225 658.228 118.444 662.448 122.195C662.448 122.195 666.855 126.602 669.2 132.884C671.169 138.041 670.419 151.919 661.791 165.421C659.728 168.609 647.537 187.737 624.842 190.644C618.184 191.488 604.961 193.176 596.427 183.893C586.017 172.641 591.644 155.388 591.925 154.544C591.456 158.951 591.269 167.296 595.958 175.36C596.989 177.235 598.209 178.829 599.334 180.236C601.116 181.455 603.648 182.861 607.024 184.08C614.151 186.518 620.153 185.956 622.873 185.674C638.909 183.987 649.975 171.891 653.632 167.953C657.102 164.202 663.104 157.545 665.636 147.043C666.574 143.198 667.793 138.323 666.105 132.603C663.104 122.289 653.257 117.694 651.1 116.757Z" fill="black"/>
<path d="M653.915 144.23V144.136L653.821 144.042C650.914 141.042 648.006 138.135 645.099 135.135C645.006 135.041 644.912 135.041 644.724 135.041C634.971 134.947 625.312 134.947 615.559 134.853C615.371 134.853 615.277 134.853 615.277 135.135C615.277 138.041 615.277 140.854 615.184 143.761C615.184 143.949 615.277 144.042 615.465 144.042C628.219 144.136 640.879 144.23 653.633 144.324C653.727 144.136 653.821 144.23 653.915 144.23Z" fill="black"/>
<path d="M624.28 158.389C624.28 158.295 624.28 158.295 624.28 158.201V158.107V158.014C624.28 158.014 624.28 158.014 624.28 157.92V157.826V157.732C624.374 157.638 624.468 157.732 624.562 157.732C629.719 157.732 634.784 157.826 639.941 157.826C640.035 157.826 640.129 157.826 640.223 157.826C640.129 157.732 640.129 157.732 640.129 157.732C637.222 154.732 634.315 151.825 631.407 148.824C631.314 148.731 631.22 148.731 631.032 148.731C628.875 148.731 626.718 148.731 624.562 148.731C624.468 148.731 624.468 148.731 624.374 148.731C624.28 148.731 624.28 148.731 624.186 148.731C621.279 148.731 618.372 148.731 615.559 148.637C615.371 148.637 615.277 148.731 615.277 148.918C615.277 151.825 615.277 154.638 615.184 157.545C615.184 157.638 615.184 157.638 615.184 157.732C615.184 157.826 615.184 157.92 615.184 158.014C615.184 158.107 615.184 158.201 615.184 158.295V158.389C615.184 160.451 615.184 162.421 615.184 164.483C615.184 164.577 615.277 164.671 615.371 164.765C618.278 167.671 621.185 170.672 624.093 173.672C624.093 173.672 624.186 173.766 624.28 173.766C624.28 173.672 624.28 173.579 624.28 173.579C624.186 168.328 624.28 163.358 624.28 158.389Z" fill="black"/>
<path d="M664.766 619.56L684.478 605.13L681.836 580.847L662.123 595.277L664.766 619.56Z" fill="black"/>
<path d="M639.739 585.426L642.382 609.71L664.737 619.564L662.094 595.28M639.739 585.426L662.094 595.28M639.739 585.426L659.452 570.996L681.807 580.85L662.094 595.28M664.766 619.56L684.478 605.13L681.836 580.847L662.123 595.277L664.766 619.56Z" stroke="black" stroke-width="2" stroke-miterlimit="10" stroke-linecap="round" stroke-linejoin="round"/>
<path d="M611.618 701.413L594.44 718.601L613.361 789.105L647.746 754.7L641.442 731.207L624.257 748.401L624.253 748.386L624.23 748.409L611.618 701.413Z" fill="black"/>
<path d="M611.648 701.384L588.131 695.092L570.924 712.308L594.419 718.594L611.612 701.391L611.618 701.413L611.648 701.384Z" fill="#F1EFED"/>
<path d="M553.689 729.531L577.204 735.822L570.895 712.315L553.689 729.531Z" fill="#F1EFED"/>
<path d="M641.465 731.184L617.949 724.893L624.253 748.386L641.437 731.192L641.442 731.207L641.465 731.184Z" fill="#F1EFED"/>
<path d="M594.44 718.601L591.724 717.874L570.895 712.315L577.204 735.822L577.204 735.824L553.687 729.532L559.996 753.039L583.512 759.331L589.849 782.834L613.346 789.12L613.361 789.105L594.44 718.601Z" fill="#F1EFED"/>
<path d="M570.923 712.309L570.216 711.602C569.963 711.855 569.865 712.223 569.957 712.568C570.05 712.913 570.319 713.183 570.665 713.275L570.923 712.309ZM611.648 701.384L612.355 702.09C612.608 701.838 612.706 701.47 612.614 701.124C612.521 700.779 612.252 700.51 611.906 700.418L611.648 701.384ZM588.131 695.092L588.39 694.126C588.044 694.034 587.676 694.133 587.424 694.385L588.131 695.092ZM594.439 718.599L595.405 718.34C595.313 717.995 595.043 717.725 594.698 717.633L594.439 718.599ZM613.366 789.125L613.108 790.091C613.453 790.184 613.821 790.085 614.073 789.832C614.326 789.579 614.424 789.211 614.332 788.866L613.366 789.125ZM589.849 782.834L588.884 783.094C588.976 783.438 589.246 783.707 589.59 783.799L589.849 782.834ZM571.181 711.341C570.648 711.199 570.099 711.516 569.957 712.049C569.814 712.583 570.131 713.131 570.664 713.273L571.181 711.341ZM553.687 729.53L553.945 728.564C553.6 728.472 553.232 728.571 552.979 728.824C552.727 729.076 552.628 729.445 552.721 729.79L553.687 729.53ZM559.996 753.039L559.03 753.298C559.122 753.643 559.392 753.913 559.737 754.005L559.996 753.039ZM583.512 759.331L584.478 759.07C584.385 758.726 584.116 758.457 583.771 758.365L583.512 759.331ZM553.687 729.532L552.98 728.826C552.727 729.078 552.629 729.446 552.721 729.791L553.687 729.532ZM570.895 712.315L571.153 711.349C570.808 711.257 570.44 711.355 570.188 711.608L570.895 712.315ZM577.204 735.824L576.946 736.79C577.291 736.882 577.659 736.783 577.911 736.53C578.164 736.278 578.263 735.91 578.17 735.564L577.204 735.824ZM613.331 789.135L613.072 790.1C613.417 790.193 613.786 790.094 614.038 789.842L613.331 789.135ZM647.746 754.7L648.454 755.407C648.706 755.155 648.805 754.786 648.712 754.441L647.746 754.7ZM641.437 731.192L642.403 730.932C642.311 730.587 642.041 730.318 641.696 730.226C641.351 730.133 640.983 730.232 640.73 730.485L641.437 731.192ZM624.23 748.409L623.264 748.668C623.357 749.013 623.627 749.282 623.972 749.375C624.317 749.467 624.685 749.368 624.938 749.115L624.23 748.409ZM611.612 701.391L612.578 701.132C612.486 700.787 612.216 700.518 611.871 700.425C611.526 700.333 611.158 700.432 610.905 700.684L611.612 701.391ZM641.465 731.184L642.172 731.891C642.425 731.639 642.523 731.27 642.431 730.925C642.338 730.58 642.068 730.311 641.723 730.218L641.465 731.184ZM617.949 724.893L618.207 723.927C617.862 723.834 617.494 723.933 617.241 724.186C616.989 724.438 616.89 724.807 616.983 725.152L617.949 724.893ZM624.257 748.401L623.292 748.66C623.384 749.006 623.654 749.275 623.999 749.367C624.344 749.46 624.712 749.361 624.965 749.108L624.257 748.401ZM611.906 700.418L588.39 694.126L587.873 696.058L611.39 702.35L611.906 700.418ZM552.721 729.79L559.03 753.298L560.962 752.78L554.653 729.271L552.721 729.79ZM559.737 754.005L583.254 760.297L583.771 758.365L560.254 752.073L559.737 754.005ZM569.929 712.574L576.238 736.083L578.17 735.564L571.861 712.056L569.929 712.574ZM577.462 734.858L553.946 728.566L553.429 730.498L576.946 736.79L577.462 734.858ZM641.723 730.218L618.207 723.927L617.69 725.859L641.206 732.15L641.723 730.218ZM582.547 759.591L588.884 783.094L590.815 782.573L584.478 759.07L582.547 759.591ZM610.911 700.706L593.733 717.894L595.147 719.308L612.326 702.12L610.911 700.706ZM593.474 718.86L612.395 789.364L614.326 788.846L595.406 718.342L593.474 718.86ZM614.068 789.812L648.454 755.407L647.039 753.993L612.653 788.398L614.068 789.812ZM648.712 754.441L642.407 730.948L640.476 731.467L646.78 754.959L648.712 754.441ZM640.734 730.501L623.55 747.694L624.965 749.108L642.149 731.914L640.734 730.501ZM625.223 748.142L625.219 748.126L623.287 748.645L623.292 748.66L625.223 748.142ZM623.546 747.679L623.523 747.702L624.938 749.115L624.961 749.092L623.546 747.679ZM625.196 748.149L612.584 701.154L610.653 701.672L623.264 748.668L625.196 748.149ZM616.983 725.152L623.287 748.645L625.219 748.126L618.914 724.634L616.983 725.152ZM642.149 731.914L642.172 731.891L640.757 730.477L640.734 730.501L642.149 731.914ZM642.407 730.948L642.403 730.932L640.471 731.451L640.476 731.467L642.407 730.948ZM640.73 730.485L623.546 747.679L624.961 749.092L642.145 731.899L640.73 730.485ZM593.474 718.858L612.395 789.364L614.326 788.846L595.405 718.34L593.474 718.858ZM612.395 789.364L612.4 789.384L614.332 788.866L614.326 788.846L612.395 789.364ZM612.584 701.154L612.578 701.132L610.647 701.65L610.653 701.672L612.584 701.154ZM612.326 702.12L612.355 702.09L610.941 700.677L610.911 700.706L612.326 702.12ZM587.424 694.385L570.217 711.601L571.632 713.015L588.838 695.799L587.424 694.385ZM570.666 713.274L594.161 719.56L594.678 717.628L571.183 711.342L570.666 713.274ZM595.127 719.3L612.32 702.098L610.905 700.684L593.712 717.887L595.127 719.3ZM570.664 713.273L570.666 713.274L571.183 711.342L571.181 711.341L570.664 713.273ZM594.161 719.56L594.181 719.565L594.698 717.633L594.678 717.628L594.161 719.56ZM570.217 711.601L570.216 711.602L571.63 713.017L571.631 713.015L570.217 711.601ZM553.43 730.497L576.945 736.788L577.462 734.856L553.947 728.565L553.43 730.497ZM578.169 735.563L571.861 712.056L569.929 712.574L576.238 736.081L578.169 735.563ZM570.188 711.608L552.981 728.824L554.396 730.238L571.603 713.022L570.188 711.608ZM554.395 730.239L554.396 730.237L552.981 728.824L552.98 728.826L554.395 730.239ZM553.946 728.565L553.945 728.564L553.429 730.497L553.431 730.497L553.946 728.565ZM577.462 734.856L553.945 728.564L553.428 730.496L576.945 736.788L577.462 734.856ZM589.59 783.799L613.072 790.1L613.59 788.169L590.108 781.868L589.59 783.799ZM594.698 717.635L591.983 716.908L591.466 718.84L594.182 719.567L594.698 717.635ZM591.982 716.908L571.153 711.349L570.637 713.281L591.466 718.84L591.982 716.908ZM576.238 736.081L576.238 736.083L578.17 735.564L578.169 735.563L576.238 736.081ZM552.721 729.791L559.03 753.298L560.962 752.78L554.653 729.273L552.721 729.791ZM589.591 783.8L613.087 790.086L613.604 788.154L590.108 781.868L589.591 783.8ZM614.053 789.827L614.068 789.812L612.653 788.398L612.638 788.413L614.053 789.827ZM613.624 788.159L613.604 788.154L613.088 790.086L613.108 790.091L613.624 788.159ZM614.038 789.842L614.053 789.827L612.639 788.413L612.624 788.428L614.038 789.842ZM591.466 718.84L594.161 719.56L594.677 717.627L591.982 716.908L591.466 718.84ZM570.665 713.275L591.466 718.84L591.983 716.908L571.182 711.343L570.665 713.275Z" fill="black"/>
<path d="M195.01 360.666L217.424 355.618L231.091 311.753L208.678 316.802L195.01 360.666Z" fill="black"/>
<path d="M161.933 266.136L208.662 316.776L208.658 316.79L231.071 311.741L184.333 261.091L161.933 266.136Z" fill="#F1EFED"/>
<path d="M161.919 266.139L155.089 288.058L186.241 321.843L179.407 343.775L194.987 360.659L208.654 316.795L193.368 300.22L161.919 266.139Z" fill="#F1EFED"/>
<path d="M155.089 288.058L154.135 287.76C154.028 288.101 154.112 288.473 154.354 288.735L155.089 288.058ZM161.923 266.126L162.658 265.447C162.416 265.185 162.052 265.072 161.704 265.15C161.355 265.229 161.075 265.487 160.969 265.828L161.923 266.126ZM208.662 316.776L209.617 317.073C209.723 316.732 209.639 316.36 209.397 316.098L208.662 316.776ZM200.874 338.41C200.709 338.938 201.004 339.498 201.531 339.663C202.058 339.827 202.619 339.533 202.783 339.005L200.874 338.41ZM193.81 299.233C193.435 298.827 192.803 298.802 192.397 299.176C191.991 299.551 191.965 300.184 192.34 300.589L193.81 299.233ZM179.407 343.775L178.452 343.478C178.346 343.819 178.43 344.191 178.672 344.454L179.407 343.775ZM194.987 360.659L194.252 361.337C194.494 361.6 194.858 361.713 195.206 361.634C195.555 361.556 195.835 361.297 195.941 360.956L194.987 360.659ZM208.654 316.795L209.609 317.092C209.715 316.751 209.632 316.379 209.39 316.117L208.654 316.795ZM195.01 360.666L194.055 360.369C193.949 360.71 194.033 361.082 194.275 361.344C194.517 361.607 194.881 361.72 195.23 361.642L195.01 360.666ZM217.424 355.618L217.643 356.593C217.992 356.515 218.272 356.256 218.378 355.915L217.424 355.618ZM231.091 311.753L232.046 312.051C232.152 311.71 232.069 311.338 231.826 311.075C231.584 310.813 231.22 310.699 230.872 310.778L231.091 311.753ZM208.678 316.802L208.458 315.827C208.11 315.905 207.829 316.164 207.723 316.505L208.678 316.802ZM231.071 311.741L231.291 312.717C231.64 312.638 231.92 312.379 232.026 312.038C232.132 311.697 232.049 311.325 231.806 311.063L231.071 311.741ZM184.333 261.091L185.068 260.413C184.825 260.15 184.461 260.037 184.113 260.115L184.333 261.091ZM161.919 266.139L161.699 265.164C161.351 265.242 161.071 265.501 160.964 265.842L161.919 266.139ZM208.658 316.79L207.923 317.468C208.165 317.73 208.529 317.844 208.878 317.765L208.658 316.79ZM186.241 321.843L187.196 322.141C187.302 321.8 187.218 321.428 186.976 321.166L186.241 321.843ZM156.044 288.355L162.878 266.423L160.969 265.828L154.135 287.76L156.044 288.355ZM207.707 316.478L200.874 338.41L202.783 339.005L209.617 317.073L207.707 316.478ZM178.672 344.454L194.252 361.337L195.722 359.981L180.142 343.097L178.672 344.454ZM195.941 360.956L209.609 317.092L207.7 316.497L194.032 360.361L195.941 360.956ZM209.389 316.117L193.81 299.233L192.34 300.589L207.919 317.473L209.389 316.117ZM195.23 361.642L217.643 356.593L217.204 354.642L194.79 359.691L195.23 361.642ZM218.378 355.915L232.046 312.051L230.137 311.456L216.469 355.32L218.378 355.915ZM230.872 310.778L208.458 315.827L208.898 317.778L231.311 312.729L230.872 310.778ZM207.723 316.505L194.055 360.369L195.965 360.964L209.633 317.1L207.723 316.505ZM231.806 311.063L185.068 260.413L183.598 261.769L230.336 312.419L231.806 311.063ZM208.878 317.765L231.291 312.717L230.852 310.765L208.438 315.814L208.878 317.765ZM185.286 321.546L178.452 343.478L180.362 344.073L187.196 322.141L185.286 321.546ZM154.354 288.735L185.506 322.521L186.976 321.166L155.825 287.38L154.354 288.735ZM161.198 266.814L207.927 317.454L209.397 316.098L162.668 265.458L161.198 266.814ZM207.707 316.479L207.703 316.493L209.613 317.087L209.617 317.073L207.707 316.479ZM184.113 260.115L161.713 265.161L162.153 267.112L184.552 262.066L184.113 260.115ZM161.713 265.161L161.699 265.164L162.139 267.115L162.153 267.112L161.713 265.161ZM161.188 266.804L161.198 266.814L162.668 265.458L162.658 265.447L161.188 266.804ZM160.964 265.842L154.135 287.76L156.044 288.355L162.874 266.437L160.964 265.842ZM209.39 316.117L194.103 299.542L192.633 300.898L207.919 317.473L209.39 316.117ZM194.103 299.542L162.654 265.461L161.184 266.818L192.633 300.898L194.103 299.542ZM161.188 266.804L192.633 300.898L194.103 299.542L162.658 265.448L161.188 266.804ZM192.633 300.898L207.923 317.468L209.393 316.112L194.103 299.542L192.633 300.898Z" fill="black"/>
<defs>
<linearGradient id="paint0_linear_10_3080" x1="210.4" y1="593.653" x2="629.388" y2="389.596" gradientUnits="userSpaceOnUse">
<stop stop-color="#D6FFBB"/>
<stop offset="1" stop-color="#5869DD"/>
</linearGradient>
</defs>
</svg>
