<svg width="10" height="13" viewBox="0 0 10 13" fill="none" xmlns="http://www.w3.org/2000/svg">
    <path d="M3.348 8.86C3.348 8.308 3.456 7.846 3.672 7.474C3.9 7.102 4.17 6.808 4.482 6.592C4.794 6.376 5.208 6.13 5.724 5.854C6.348 5.542 6.816 5.248 7.128 4.972C7.44 4.684 7.596 4.294 7.596 3.802C7.596 3.142 7.32 2.668 6.768 2.38C6.216 2.092 5.574 1.948 4.842 1.948C4.146 1.948 3.534 2.104 3.006 2.416C2.49 2.716 2.16 3.184 2.016 3.82H0.18C0.288 3.052 0.57 2.398 1.026 1.858C1.494 1.318 2.07 0.909999 2.754 0.633999C3.438 0.357999 4.164 0.219999 4.932 0.219999C5.676 0.219999 6.384 0.345999 7.056 0.598C7.74 0.849999 8.298 1.24 8.73 1.768C9.174 2.284 9.396 2.92 9.396 3.676C9.396 4.288 9.276 4.804 9.036 5.224C8.796 5.632 8.508 5.956 8.172 6.196C7.836 6.436 7.398 6.694 6.858 6.97C6.438 7.186 6.114 7.366 5.886 7.51C5.67 7.654 5.484 7.834 5.328 8.05C5.184 8.266 5.112 8.518 5.112 8.806V9.22H3.348V8.86ZM5.256 11.02V13H3.276V11.02H5.256Z" fill="white"/>
</svg>
