<svg width="761" height="362" viewBox="0 0 761 362" fill="none" xmlns="http://www.w3.org/2000/svg">
<path d="M-40.3252 161.81C-63.1237 239.63 -36.4188 315.953 19.3219 332.283C49.7847 341.208 82.6153 330.367 109.849 305.997L-40.3252 161.81Z" fill="black"/>
<path d="M101.882 50.4747C46.1418 34.1445 -17.5267 83.9912 -40.3252 161.81L109.849 305.997C132.447 285.775 151.191 256.237 161.53 220.947C184.328 143.128 157.623 66.8048 101.882 50.4747Z" fill="#5869DD"/>
<path d="M-40.3252 161.81C-63.1237 239.63 -36.4188 315.953 19.3219 332.283C49.7847 341.208 82.6154 330.367 109.849 305.997M-40.3252 161.81C-17.5267 83.9912 46.1418 34.1445 101.882 50.4747C157.623 66.8048 184.328 143.128 161.53 220.947C151.191 256.237 132.447 285.775 109.849 305.997M-40.3252 161.81L109.849 305.997" stroke="black" stroke-width="2"/>
<path d="M7.76291 322.257C44.1515 332.918 85.5853 307.243 113.544 261.5C122.937 246.132 130.809 228.499 136.458 209.218C142.194 189.638 145.083 170.252 145.395 152C146.305 98.7813 125.306 55.2082 89.1064 44.603C86.0851 43.7179 83.029 43.0832 79.9487 42.6898C66.898 41.0227 53.4132 43.685 40.3007 49.9685C40.3611 49.9497 40.4215 49.9311 40.4819 49.9125C50.8393 46.7297 61.2075 46.3545 71.0902 49.2498C113.576 61.6968 131 129.876 110.007 201.532C89.014 273.188 37.5542 321.186 -4.93178 308.739C-14.6837 305.883 -23.1151 300.089 -30.0647 291.992C-20.6443 306.969 -7.85549 317.681 7.76291 322.257Z" fill="url(#paint0_linear_6600_22617)"/>
<path d="M145.395 152C145.083 170.252 142.194 189.638 136.458 209.218C130.809 228.499 122.937 246.132 113.544 261.5L123.11 267.5C133.064 251.881 141.318 233.875 147.107 214.117C153.866 191.044 156.506 168.17 155.506 147L145.395 152Z" fill="#F1EFED"/>
<path d="M79.9487 42.6898C83.029 43.0832 86.0851 43.7179 89.1064 44.603C125.306 55.2082 146.305 98.7813 145.395 152L155.506 147C153.131 96.7023 130.213 56.0275 93.1989 45.1837C88.8321 43.9043 84.4064 43.0804 79.9487 42.6898Z" fill="black"/>
<path d="M7.76291 322.257C-7.85549 317.681 -20.6443 306.969 -30.0647 291.992C-36.0952 284.965 -41.0098 276.203 -44.703 266.12C-34.9574 296.74 -15.7625 319.541 10.5618 327.253C49.8131 338.752 93.8219 313.455 123.11 267.5L113.544 261.5C85.5853 307.243 44.1515 332.918 7.76291 322.257Z" fill="black"/>
<path d="M-30.0647 291.992C-23.1151 300.089 -14.6837 305.883 -4.93178 308.739C37.5542 321.186 89.014 273.188 110.007 201.532C131 129.876 113.576 61.6968 71.0902 49.2498C61.2075 46.3545 50.8393 46.7297 40.4819 49.9125M-30.0647 291.992C-20.6443 306.969 -7.85549 317.681 7.76291 322.257C44.1515 332.918 85.5853 307.243 113.544 261.5M-30.0647 291.992C-36.0952 284.965 -41.0098 276.203 -44.703 266.12M40.3007 49.9685C6.19218 60.5579 -27.7672 101.566 -43.8485 156.457C-55.8416 197.394 -55.2964 237.196 -44.703 266.12M40.3007 49.9685C53.4132 43.685 66.898 41.0227 79.9487 42.6898M40.3007 49.9685L40.4819 49.9125M40.3007 49.9685C40.3611 49.9497 40.4215 49.9311 40.4819 49.9125M79.9487 42.6898C83.029 43.0832 86.0851 43.7179 89.1064 44.603C125.306 55.2082 146.305 98.7813 145.395 152M79.9487 42.6898C84.4064 43.0804 88.8321 43.9043 93.1989 45.1837C130.213 56.0275 153.131 96.7023 155.506 147M-44.703 266.12C-34.9574 296.74 -15.7625 319.541 10.5618 327.253C49.8131 338.752 93.8219 313.455 123.11 267.5M145.395 152C145.083 170.252 142.194 189.638 136.458 209.218C130.809 228.499 122.937 246.132 113.544 261.5M145.395 152L155.506 147M155.506 147C156.506 168.17 153.866 191.044 147.107 214.117C141.318 233.875 133.064 251.881 123.11 267.5M113.544 261.5L123.11 267.5" stroke="black" stroke-width="2"/>
<path d="M109.822 202.168C88.2844 275.684 36.1658 325.127 -6.5878 312.601C-49.3414 300.076 -66.5402 230.325 -45.0023 156.809C-23.4644 83.2926 28.6541 33.8497 71.4078 46.3751C72.3504 46.6512 73.2806 46.9552 74.1982 47.2864C89.092 52.6623 100.676 65.2152 108.346 82.4954C121.638 112.44 123.178 156.58 109.822 202.168Z" fill="url(#paint1_linear_6600_22617)"/>
<path d="M88.8341 49.4954C89.5252 51.6519 80.6004 49.3061 74.1982 47.2864C89.092 52.6623 100.676 65.2152 108.346 82.4954C106.342 77.3287 102.034 66.1954 100.834 62.9954C99.6342 59.7954 114.168 62.4954 118.334 62.9954C110.334 58.2886 88.0341 46.9991 88.8341 49.4954Z" fill="black"/>
<path d="M71.4078 46.3751C28.6541 33.8497 -23.4644 83.2926 -45.0023 156.809C-66.5402 230.325 -49.3414 300.076 -6.5878 312.601C36.1658 325.127 88.2844 275.684 109.822 202.168C123.178 156.58 121.638 112.44 108.346 82.4954M71.4078 46.3751C72.3504 46.6512 73.2806 46.9552 74.1982 47.2864M71.4078 46.3751C72.2437 46.6582 73.1896 46.9683 74.1982 47.2864M108.346 82.4954C106.342 77.3287 102.034 66.1954 100.834 62.9954C99.6342 59.7954 114.168 62.4954 118.334 62.9954C110.334 58.2886 88.0341 46.9991 88.8341 49.4954C89.5252 51.6519 80.6004 49.3061 74.1982 47.2864M108.346 82.4954C100.676 65.2152 89.092 52.6623 74.1982 47.2864" stroke="black" stroke-width="2"/>
<path d="M85.5863 193.293C71.1066 242.717 33.5761 275.227 1.75945 265.906C-30.0572 256.584 -44.1115 208.962 -29.6318 159.537C-15.1522 110.113 22.3784 77.6032 54.195 86.9244C86.0116 96.2457 100.066 143.868 85.5863 193.293Z" fill="url(#paint2_linear_6600_22617)" stroke="black" stroke-width="2"/>
<ellipse cx="22.1869" cy="173.871" rx="39.9972" ry="62.1321" transform="rotate(16.3288 22.1869 173.871)" fill="url(#paint3_linear_6600_22617)" stroke="black" stroke-width="2"/>
<path d="M33.518 179.516C26.537 203.345 9.56059 219.412 -4.64567 215.811L7.26418 219.064C20.9688 223.079 37.4436 208.435 45.0375 186L33.518 179.516Z" fill="black"/>
<path d="M20.4002 128.186C34.7211 132.381 40.5942 155.363 33.518 179.516L45.0375 186C45.379 184.991 45.7025 183.967 46.007 182.927C53.0832 158.774 47.2101 135.792 32.8892 131.597L20.4002 128.186Z" fill="#F1EFED"/>
<path d="M-18.3426 164.323C-25.4188 188.476 -19.5458 211.457 -5.22483 215.653L-4.64567 215.811C9.56059 219.412 26.537 203.345 33.518 179.516C40.5942 155.363 34.7211 132.381 20.4002 128.186C6.07927 123.99 -11.2665 140.169 -18.3426 164.323Z" fill="url(#paint4_linear_6600_22617)"/>
<path d="M33.518 179.516C40.5942 155.363 34.7211 132.381 20.4002 128.186M33.518 179.516L45.0375 186M33.518 179.516C26.537 203.345 9.56059 219.412 -4.64567 215.811M-5.22483 215.653C-19.5458 211.457 -25.4188 188.476 -18.3426 164.323C-11.2665 140.169 6.07927 123.99 20.4002 128.186M-5.22483 215.653L-4.64567 215.811M-5.22483 215.653C-5.03232 215.709 -4.83925 215.762 -4.64567 215.811M20.4002 128.186L32.8892 131.597C47.2101 135.792 53.0832 158.774 46.007 182.927C45.7025 183.967 45.379 184.991 45.0375 186M45.0375 186C37.4436 208.435 20.9688 223.079 7.26418 219.064L-4.64567 215.811" stroke="black" stroke-width="2"/>
<path d="M11.6022 148.738C14.8414 149.161 17.6001 150.505 19.8763 152.757C22.2056 155.042 23.8342 157.971 24.7555 161.585C25.6869 165.184 25.7838 169.072 25.0056 173.306C24.5396 175.748 23.8202 178.024 22.8153 180.166C21.8132 182.241 20.573 183.907 19.0993 185.112C17.6577 186.285 16.0951 186.753 14.4078 186.491C13.4542 186.354 12.6314 185.933 11.9073 185.258C11.2374 184.535 10.8264 183.576 10.6947 182.352C9.81617 183.381 8.70194 184.108 7.35202 184.534C6.02773 184.97 4.89205 185.099 3.89078 184.97C1.98538 184.71 0.418518 183.91 -0.821723 182.571C-2.02081 181.266 -2.81209 179.572 -3.17643 177.538C-3.53606 175.45 -3.40779 173.201 -2.80715 170.768C-2.22022 168.323 -1.32251 166.196 -0.103889 164.372C1.13316 162.505 2.5542 161.095 4.16105 160.152C5.80364 159.206 7.46948 158.87 9.17341 159.077C10.1902 159.231 11.1101 159.652 11.9386 160.38C12.7854 161.065 13.4376 161.924 13.9017 162.916C14.0677 162.091 14.2337 161.267 14.3878 160.444C15.5631 160.604 16.7385 160.763 17.9018 160.924C16.8216 166.495 15.7057 172.072 14.5623 177.626C14.0414 180.022 14.5075 181.294 15.9576 181.509C17.1228 181.683 18.1457 180.821 19.0181 178.951C19.9124 177.065 20.5736 174.984 21.0171 172.732C21.6621 169.384 21.6156 166.305 20.9096 163.463C20.209 160.66 18.9445 158.349 17.1538 156.538C15.3785 154.751 13.2286 153.684 10.6939 153.351C8.14717 153.019 5.69372 153.543 3.30964 154.926C0.944003 156.266 -1.14745 158.277 -2.9647 160.958C-4.79568 163.627 -6.14654 166.698 -7.0256 170.198C-8.44488 175.777 -8.27935 180.429 -6.47955 184.163C-4.62847 187.916 -0.941068 190.188 4.55883 190.983C7.1741 191.371 9.79063 191.239 12.4341 190.596C12.0894 192.152 11.7328 193.711 11.3744 195.256C8.47642 195.815 5.84077 195.896 3.45081 195.556C-1.12292 194.875 -4.67733 193.306 -7.21893 190.89C-9.72659 188.456 -11.2367 185.418 -11.785 181.779C-12.2791 178.093 -11.9696 174.07 -10.8346 169.693C-9.71149 165.317 -7.983 161.46 -5.6813 158.151C-3.40702 154.82 -0.773765 152.334 2.2286 150.68C5.26311 148.994 8.36838 148.354 11.6022 148.738ZM4.7361 179.897C6.31075 180.135 7.77735 179.587 9.12578 178.266C10.5302 176.911 11.4693 175.085 11.967 172.786C12.4325 170.518 12.3191 168.543 11.578 166.948C10.9012 165.291 9.79008 164.362 8.25479 164.145C6.7231 163.955 5.28394 164.527 3.91887 165.903C2.59427 167.221 1.66706 169.044 1.13834 171.294C0.601301 173.572 0.651519 175.529 1.31282 177.162C2.00628 178.763 3.14122 179.689 4.7361 179.897Z" fill="#5869DD"/>
<path d="M8.64566 147.616C11.8849 148.039 14.6435 149.383 16.9198 151.636C19.2491 153.921 20.8777 156.849 21.799 160.463C22.7304 164.062 22.8272 167.95 22.049 172.184C21.5831 174.626 20.8637 176.902 19.8587 179.044C18.8567 181.119 17.6164 182.785 16.1427 183.99C14.7012 185.163 13.1386 185.631 11.4513 185.369C10.4977 185.233 9.67489 184.811 8.95078 184.136C8.28085 183.413 7.8699 182.454 7.73818 181.23C6.85963 182.259 5.7454 182.986 4.39548 183.412C3.07119 183.848 1.9355 183.977 0.934238 183.848C-0.971161 183.588 -2.53802 182.788 -3.77827 181.449C-4.97736 180.144 -5.76863 178.45 -6.13297 176.416C-6.4926 174.328 -6.36433 172.079 -5.76369 169.646C-5.17677 167.201 -4.27905 165.074 -3.06043 163.25C-1.82338 161.383 -0.402338 159.973 1.2045 159.031C2.8471 158.084 4.51294 157.748 6.21687 157.955C7.23365 158.109 8.15357 158.53 8.98203 159.258C9.82891 159.943 10.4811 160.802 10.9451 161.794C11.1111 160.969 11.2772 160.145 11.4313 159.322C12.6066 159.482 13.7819 159.641 14.9453 159.802C13.8651 165.374 12.7491 170.95 11.6057 176.504C11.0849 178.9 11.551 180.172 13.0011 180.387C14.1662 180.561 15.1892 179.699 16.0615 177.829C16.9559 175.943 17.6171 173.862 18.0606 171.61C18.7056 168.262 18.659 165.183 17.953 162.341C17.2524 159.538 15.988 157.227 14.1972 155.416C12.422 153.629 10.2721 152.562 7.73731 152.229C5.19063 151.897 2.73717 152.421 0.353103 153.804C-2.01254 155.144 -4.10399 157.155 -5.92124 159.836C-7.75222 162.505 -9.10308 165.576 -9.98215 169.076C-11.4014 174.655 -11.2359 179.308 -9.43609 183.041C-7.58502 186.794 -3.89761 189.067 1.60229 189.861C4.21755 190.25 6.83408 190.117 9.47752 189.474C9.13284 191.031 8.77625 192.589 8.41786 194.134C5.51988 194.693 2.88423 194.774 0.494267 194.435C-4.07947 193.754 -7.63388 192.185 -10.1755 189.768C-12.6831 187.334 -14.1932 184.296 -14.7415 180.657C-15.2356 176.971 -14.9262 172.948 -13.7911 168.571C-12.668 164.195 -10.9395 160.338 -8.63784 157.029C-6.36357 153.698 -3.73031 151.212 -0.727945 149.558C2.30656 147.872 5.41184 147.232 8.64566 147.616ZM1.77956 178.776C3.3542 179.013 4.8208 178.465 6.16924 177.144C7.57365 175.789 8.51278 173.963 9.01047 171.664C9.476 169.396 9.3626 167.421 8.62148 165.827C7.94466 164.17 6.83354 163.24 5.29825 163.024C3.76656 162.833 2.32739 163.405 0.962332 164.781C-0.362268 166.099 -1.28949 167.923 -1.81821 170.173C-2.35524 172.451 -2.30503 174.407 -1.64372 176.04C-0.95027 177.641 0.184681 178.567 1.77956 178.776Z" fill="url(#paint5_linear_6600_22617)"/>
<path d="M17.9018 160.924C16.7385 160.763 15.5631 160.604 14.3878 160.444C14.2337 161.267 14.0677 162.091 13.9017 162.916C13.4376 161.924 12.7855 161.065 11.9386 160.38C11.1101 159.652 10.1902 159.231 9.17341 159.077C7.46948 158.87 5.80364 159.206 4.16105 160.152C2.55421 161.095 1.13316 162.505 -0.103889 164.372C-1.32251 166.196 -2.22022 168.323 -2.80715 170.768C-3.40779 173.201 -3.53606 175.45 -3.17643 177.538C-2.81209 179.572 -2.02081 181.266 -0.821723 182.571C0.418519 183.91 1.98538 184.71 3.89078 184.97C4.89205 185.099 6.02773 184.97 7.35202 184.534C8.70194 184.108 9.81617 183.381 10.6947 182.352C10.8264 183.576 11.2374 184.535 11.9073 185.258C12.6314 185.933 13.4542 186.354 14.4078 186.491C16.0951 186.753 17.6577 186.285 19.0993 185.112C20.573 183.907 21.8132 182.241 22.8153 180.166C23.8202 178.024 24.5396 175.748 25.0056 173.306C25.7838 169.072 25.6869 165.184 24.7555 161.585C23.8342 157.971 22.2056 155.042 19.8763 152.757C17.6001 150.505 14.8414 149.161 11.6022 148.738C8.36838 148.354 5.26311 148.994 2.2286 150.68C-0.773764 152.334 -3.40702 154.82 -5.6813 158.151C-7.983 161.46 -9.71149 165.317 -10.8346 169.693C-11.9696 174.07 -12.2791 178.093 -11.785 181.779C-11.2367 185.418 -9.72659 188.456 -7.21893 190.89C-4.67733 193.306 -1.12292 194.875 3.45081 195.556C5.84077 195.896 8.47642 195.815 11.3744 195.256M17.9018 160.924C16.8216 166.495 15.7057 172.072 14.5623 177.626C14.0414 180.022 14.5075 181.294 15.9576 181.509C17.1228 181.683 18.1457 180.821 19.0181 178.951C19.9124 177.065 20.5736 174.984 21.0171 172.732C21.6621 169.384 21.6156 166.305 20.9096 163.463C20.209 160.66 18.9445 158.349 17.1538 156.538C15.3785 154.751 13.2286 153.684 10.6939 153.351C8.14718 153.019 5.69372 153.543 3.30964 154.926C0.944003 156.266 -1.14745 158.277 -2.9647 160.958C-4.79568 163.627 -6.14654 166.698 -7.0256 170.198C-8.44488 175.777 -8.27935 180.429 -6.47955 184.163C-4.62847 187.916 -0.941068 190.188 4.55883 190.983C7.17409 191.371 9.79063 191.239 12.4341 190.596M17.9018 160.924L14.9453 159.802M12.4341 190.596C12.0894 192.152 11.7328 193.711 11.3744 195.256M12.4341 190.596L9.47752 189.474M11.3744 195.256L8.41786 194.134M14.9453 159.802C13.7819 159.641 12.6066 159.482 11.4313 159.322C11.2772 160.145 11.1111 160.969 10.9451 161.794C10.4811 160.802 9.82891 159.943 8.98203 159.258C8.15357 158.53 7.23365 158.109 6.21687 157.955C4.51294 157.748 2.8471 158.084 1.2045 159.031C-0.402338 159.973 -1.82338 161.383 -3.06043 163.25C-4.27905 165.074 -5.17677 167.201 -5.76369 169.646C-6.36433 172.079 -6.4926 174.328 -6.13297 176.416C-5.76863 178.45 -4.97736 180.144 -3.77827 181.449C-2.53802 182.788 -0.971161 183.588 0.934238 183.848C1.93551 183.977 3.07119 183.848 4.39548 183.412C5.7454 182.986 6.85963 182.259 7.73818 181.23C7.8699 182.454 8.28085 183.413 8.95078 184.136C9.67489 184.811 10.4977 185.233 11.4513 185.369C13.1386 185.631 14.7012 185.163 16.1427 183.99C17.6164 182.785 18.8567 181.119 19.8587 179.044C20.8637 176.902 21.5831 174.626 22.049 172.184C22.8272 167.95 22.7304 164.062 21.799 160.463C20.8777 156.849 19.2491 153.921 16.9198 151.636C14.6435 149.383 11.8849 148.039 8.64566 147.616C5.41184 147.232 2.30657 147.872 -0.727945 149.558C-3.73031 151.212 -6.36357 153.698 -8.63784 157.029C-10.9395 160.338 -12.668 164.195 -13.7911 168.571C-14.9262 172.948 -15.2356 176.971 -14.7415 180.657C-14.1932 184.296 -12.6831 187.334 -10.1755 189.768C-7.63388 192.185 -4.07947 193.754 0.494267 194.435C2.88423 194.774 5.51988 194.693 8.41786 194.134M14.9453 159.802C13.8651 165.374 12.7491 170.95 11.6057 176.504C11.0849 178.9 11.551 180.172 13.0011 180.387C14.1662 180.561 15.1892 179.699 16.0615 177.829C16.9559 175.943 17.6171 173.862 18.0606 171.61C18.7056 168.262 18.659 165.183 17.953 162.341C17.2524 159.538 15.988 157.227 14.1972 155.416C12.422 153.629 10.2721 152.562 7.73731 152.229C5.19063 151.897 2.73717 152.421 0.353103 153.804C-2.01254 155.144 -4.10399 157.155 -5.92124 159.836C-7.75222 162.505 -9.10308 165.576 -9.98215 169.076C-11.4014 174.655 -11.2359 179.308 -9.43609 183.041C-7.58502 186.794 -3.89761 189.067 1.60229 189.861C4.21755 190.25 6.83408 190.117 9.47752 189.474M9.47752 189.474C9.13284 191.031 8.77625 192.589 8.41786 194.134M4.7361 179.897C6.31075 180.135 7.77734 179.587 9.12578 178.266C10.5302 176.911 11.4693 175.085 11.967 172.786C12.4325 170.518 12.3191 168.543 11.578 166.948C10.9012 165.291 9.79008 164.362 8.25479 164.145C6.7231 163.955 5.28394 164.527 3.91887 165.903C2.59427 167.221 1.66706 169.044 1.13834 171.294C0.601301 173.572 0.651519 175.529 1.31282 177.162C2.00627 178.763 3.14122 179.689 4.7361 179.897ZM1.77956 178.776C3.3542 179.013 4.8208 178.465 6.16924 177.144C7.57365 175.789 8.51278 173.963 9.01047 171.664C9.476 169.396 9.3626 167.421 8.62148 165.827C7.94466 164.17 6.83354 163.24 5.29825 163.024C3.76656 162.833 2.3274 163.405 0.962332 164.781C-0.362268 166.099 -1.28949 167.923 -1.81821 170.173C-2.35524 172.451 -2.30503 174.407 -1.64372 176.04C-0.950269 177.641 0.184681 178.567 1.77956 178.776Z" stroke="black" stroke-width="1.5"/>
<path d="M8.64668 147.618C11.8859 148.041 14.6445 149.385 16.9208 151.638C19.2501 153.923 20.8787 156.852 21.8 160.465C22.7314 164.064 22.8283 167.952 22.05 172.186C21.5841 174.628 20.8647 176.904 19.8597 179.046C18.8577 181.121 17.6175 182.787 16.1438 183.992C14.7022 185.165 13.1396 185.633 11.4523 185.371C10.4987 185.235 9.67592 184.813 8.9518 184.138C8.28187 183.415 7.87092 182.456 7.7392 181.232C6.86065 182.261 5.74642 182.988 4.3965 183.414C3.07221 183.85 1.93653 183.979 0.935261 183.85C-0.970137 183.59 -2.537 182.79 -3.77724 181.451C-4.97633 180.146 -5.76761 178.452 -6.13195 176.418C-6.49158 174.33 -6.36331 172.081 -5.76267 169.648C-5.17574 167.203 -4.27803 165.076 -3.05941 163.252C-1.82236 161.385 -0.401313 159.975 1.20553 159.033C2.84812 158.086 4.51397 157.75 6.21789 157.957C7.23468 158.111 8.1546 158.532 8.98305 159.26C9.82993 159.945 10.4821 160.804 10.9461 161.796C11.1122 160.971 11.2782 160.147 11.4323 159.325C12.6076 159.484 13.7829 159.643 14.9463 159.804C13.8661 165.376 12.7501 170.952 11.6068 176.506C11.0859 178.902 11.552 180.174 13.0021 180.389C14.1673 180.563 15.1902 179.701 16.0625 177.831C16.9569 175.945 17.6181 173.864 18.0616 171.612C18.7066 168.264 18.6601 165.185 17.954 162.343C17.2534 159.54 15.989 157.229 14.1982 155.418C12.423 153.631 10.2731 152.564 7.73833 152.231C5.19166 151.899 2.7382 152.423 0.354126 153.806C-2.01152 155.146 -4.10296 157.157 -5.92022 159.838C-7.75119 162.507 -9.10206 165.578 -9.98112 169.078C-11.4004 174.657 -11.2349 179.31 -9.43507 183.043C-7.58399 186.796 -3.89659 189.069 1.60331 189.863C3.69903 190.174 5.79556 190.151 7.9061 189.799C8.63633 189.677 9.29114 190.32 9.12802 191.043C8.89441 192.077 8.65704 193.109 8.41888 194.136C5.5209 194.695 2.88525 194.776 0.49529 194.437C-4.07844 193.756 -7.63285 192.187 -10.1745 189.771C-12.6821 187.336 -14.1922 184.298 -14.7405 180.659C-15.2346 176.973 -14.9252 172.95 -13.7901 168.573C-12.667 164.197 -10.9385 160.34 -8.63681 157.031C-6.36254 153.7 -3.72928 151.214 -0.72692 149.56C2.30759 147.874 5.41286 147.234 8.64668 147.618ZM1.78058 178.778C3.35523 179.015 4.82183 178.467 6.17026 177.146C7.57467 175.791 8.51381 173.965 9.01149 171.666C9.47702 169.398 9.36362 167.423 8.6225 165.829C7.94568 164.172 6.83457 163.242 5.29927 163.026C3.76758 162.835 2.32842 163.407 0.963356 164.783C-0.361244 166.101 -1.28846 167.925 -1.81718 170.175C-2.35422 172.453 -2.304 174.409 -1.6427 176.042C-0.949245 177.643 0.185705 178.569 1.78058 178.778Z" fill="url(#paint6_linear_6600_22617)" stroke="black" stroke-width="1.5"/>
<path d="M46.984 96C45.8173 100.353 44.6473 104.703 43.474 109.05C42.7407 109.097 42.0073 109.14 41.274 109.18C40.2407 105.773 39.214 102.363 38.194 98.95C37.094 102.49 35.9907 106.033 34.884 109.58C34.1707 109.62 33.4573 109.663 32.744 109.71C31.6507 105.497 30.5607 101.28 29.474 97.06C30.094 97.0267 30.714 96.99 31.334 96.95C32.194 100.457 33.054 103.96 33.914 107.46C35.054 103.833 36.1907 100.207 37.324 96.58C37.9573 96.54 38.5907 96.5 39.224 96.46C40.284 99.9533 41.3407 103.443 42.394 106.93C43.3407 103.33 44.2773 99.7233 45.204 96.11C45.804 96.07 46.3973 96.0333 46.984 96Z" fill="black"/>
<path d="M53.814 100.32C53.2873 101.5 52.7607 102.673 52.234 103.84C53.9207 104.673 55.6073 105.507 57.294 106.34C57.0607 106.867 56.8273 107.393 56.594 107.92C54.9007 107.087 53.2107 106.253 51.524 105.42C50.9907 106.593 50.4607 107.767 49.934 108.94C51.774 109.84 53.614 110.743 55.454 111.65C55.2207 112.177 54.984 112.703 54.744 113.23C52.404 112.077 50.064 110.93 47.724 109.79C49.504 105.857 51.274 101.93 53.034 98.01C55.3607 99.1633 57.6907 100.317 60.024 101.47C59.7907 101.99 59.554 102.513 59.314 103.04C57.4807 102.14 55.6473 101.233 53.814 100.32Z" fill="black"/>
<path d="M66.804 119.76C66.594 120.37 66.244 120.89 65.754 121.35C65.194 121.84 64.604 122.14 63.974 122.26C63.344 122.38 62.714 122.29 62.084 122.01C61.454 121.72 60.884 121.21 60.354 120.5C59.194 118.913 58.034 117.327 56.874 115.74C60.2473 112.72 63.6173 109.7 66.984 106.68C68.144 108.26 69.304 109.84 70.464 111.42C70.974 112.1 71.284 112.8 71.414 113.5C71.534 114.22 71.494 114.89 71.274 115.51C71.034 116.13 70.674 116.69 70.144 117.15C69.664 117.59 69.154 117.85 68.614 117.96C68.074 118.08 67.524 118.03 66.944 117.78C67.044 118.51 67.014 119.17 66.804 119.76ZM63.084 120.28C63.594 120.36 64.104 120.16 64.634 119.7C65.124 119.26 65.394 118.75 65.414 118.2C65.424 117.64 65.214 117.05 64.744 116.44C63.9707 115.387 63.1973 114.33 62.424 113.27C61.384 114.197 60.344 115.127 59.304 116.06C60.0773 117.113 60.8507 118.167 61.624 119.22C62.084 119.85 62.564 120.2 63.084 120.29C63.084 120.283 63.084 120.28 63.084 120.28ZM65.994 115.29C66.444 115.9 66.914 116.23 67.414 116.29C67.914 116.36 68.434 116.15 68.954 115.68C69.944 114.8 69.994 113.75 69.094 112.52C68.314 111.473 67.5373 110.423 66.764 109.37C65.7373 110.29 64.7073 111.21 63.674 112.13C64.4473 113.183 65.2207 114.237 65.994 115.29Z" fill="black"/>
<path d="M67.534 139.73C67.684 138.83 68.004 138.03 68.534 137.32C69.064 136.6 69.744 136.06 70.554 135.7C71.374 135.33 72.184 135.21 73.004 135.32C73.824 135.44 74.554 135.76 75.194 136.31C75.824 136.85 76.304 137.57 76.604 138.44C76.914 139.31 77.004 140.19 76.864 141.08C76.734 141.98 76.394 142.79 75.864 143.5C75.334 144.22 74.664 144.75 73.844 145.11C73.024 145.48 72.204 145.61 71.384 145.49C70.564 145.38 69.834 145.05 69.184 144.51C68.554 143.96 68.074 143.25 67.774 142.38C67.474 141.51 67.394 140.62 67.534 139.73ZM69.974 143.35C70.434 143.74 70.974 143.98 71.564 144.05C72.174 144.12 72.764 144.03 73.364 143.76C73.964 143.5 74.464 143.1 74.844 142.58C75.244 142.07 75.494 141.49 75.604 140.85C75.704 140.21 75.654 139.58 75.434 138.96C75.214 138.34 74.874 137.83 74.404 137.45C73.944 137.07 73.414 136.84 72.824 136.77C72.224 136.69 71.624 136.78 71.034 137.04C70.434 137.31 69.934 137.71 69.544 138.22C69.154 138.75 68.914 139.32 68.804 139.97C68.684 140.61 68.744 141.23 68.954 141.85C69.174 142.48 69.504 142.98 69.974 143.35Z" fill="black"/>
<path d="M73.774 150.91C73.7073 150.31 73.634 149.707 73.554 149.1C72.3006 149.34 71.044 149.577 69.784 149.81C69.7306 149.35 69.6773 148.887 69.624 148.42C72.6573 147.86 75.694 147.297 78.734 146.73C78.9073 148.137 79.0773 149.543 79.244 150.95C79.334 151.59 79.274 152.17 79.104 152.68C78.934 153.18 78.664 153.59 78.274 153.92C77.904 154.24 77.454 154.45 76.944 154.54C76.264 154.67 75.644 154.56 75.104 154.23C74.574 153.88 74.214 153.33 74.014 152.57C72.8607 153.877 71.7073 155.187 70.554 156.5C70.494 155.913 70.4306 155.333 70.364 154.76C71.4973 153.473 72.634 152.19 73.774 150.91ZM74.744 148.88C74.8573 149.8 74.964 150.72 75.064 151.64C75.144 152.19 75.314 152.6 75.614 152.85C75.904 153.1 76.284 153.18 76.774 153.08C77.244 153 77.594 152.78 77.814 152.44C78.034 152.08 78.114 151.63 78.044 151.08C77.9373 150.167 77.8273 149.25 77.714 148.33C76.7206 148.51 75.7307 148.693 74.744 148.88Z" fill="black"/>
<path d="M64.104 191.7C64.2773 191.06 64.4473 190.423 64.614 189.79C68.0406 190.63 71.4673 191.467 74.894 192.3C72.0073 189.467 69.1306 186.637 66.264 183.81C70.1907 182.657 74.1106 181.507 78.024 180.36C74.644 179.527 71.2673 178.693 67.894 177.86C68.0606 177.227 68.2273 176.597 68.394 175.97C72.534 176.99 76.6773 178.01 80.824 179.03C80.584 179.923 80.3473 180.813 80.114 181.7C76.674 182.707 73.2306 183.717 69.784 184.73C72.2906 187.203 74.8007 189.673 77.314 192.14C77.074 193.007 76.8373 193.873 76.604 194.74C72.4307 193.727 68.2573 192.71 64.084 191.69C64.0907 191.69 64.0973 191.693 64.104 191.7Z" fill="black"/>
<path d="M62.324 198.06C63.314 197.29 64.414 196.83 65.594 196.67C66.774 196.52 67.924 196.7 69.034 197.2C70.154 197.7 71.044 198.46 71.704 199.44C72.364 200.43 72.724 201.55 72.804 202.78C72.864 204.03 72.634 205.25 72.074 206.45C71.514 207.66 70.734 208.64 69.744 209.42C68.744 210.18 67.654 210.64 66.454 210.8C65.254 210.95 64.104 210.78 62.974 210.27C61.864 209.77 60.964 209.02 60.314 208.03C59.654 207.05 59.284 205.92 59.234 204.69C59.164 203.44 59.414 202.22 59.974 201.01C60.544 199.8 61.314 198.82 62.314 198.05C62.3207 198.05 62.324 198.053 62.324 198.06ZM61.084 204.36C61.144 205.25 61.424 206.05 61.914 206.77C62.394 207.49 63.044 208.03 63.864 208.39C64.674 208.76 65.524 208.9 66.394 208.78C67.264 208.68 68.064 208.35 68.784 207.83C69.504 207.29 70.064 206.59 70.454 205.74C70.854 204.88 71.024 204.01 70.954 203.13C70.884 202.24 70.604 201.44 70.124 200.72C69.634 200 68.984 199.46 68.174 199.09C67.364 198.72 66.524 198.58 65.654 198.69C64.784 198.8 63.994 199.12 63.284 199.65C62.554 200.18 61.994 200.88 61.594 201.74C61.194 202.6 61.024 203.47 61.084 204.36Z" fill="black"/>
<path d="M55.574 221.86C54.974 221.85 54.414 221.67 53.874 221.31C53.294 220.91 52.874 220.42 52.624 219.82C52.364 219.22 52.294 218.55 52.414 217.81C52.524 217.07 52.844 216.31 53.374 215.53C54.5473 213.803 55.714 212.083 56.874 210.37C60.4206 212.803 63.9773 215.237 67.544 217.67C66.3907 219.383 65.2373 221.093 64.084 222.8C63.584 223.55 63.014 224.11 62.404 224.47C61.784 224.83 61.154 225 60.534 224.98C59.904 224.96 59.314 224.77 58.764 224.39C58.244 224.04 57.874 223.61 57.634 223.1C57.404 222.58 57.324 222 57.414 221.34C56.774 221.69 56.164 221.87 55.564 221.86C55.564 221.86 55.5673 221.86 55.574 221.86ZM54.224 218.24C54.264 218.78 54.564 219.25 55.104 219.62C55.634 219.98 56.154 220.08 56.654 219.91C57.174 219.75 57.644 219.33 58.104 218.65C58.884 217.503 59.6607 216.357 60.434 215.21C59.3406 214.463 58.2473 213.717 57.154 212.97C56.3807 214.117 55.6073 215.263 54.834 216.41C54.374 217.09 54.164 217.7 54.214 218.25C54.214 218.243 54.2173 218.24 54.224 218.24ZM59.464 219.54C59.024 220.2 58.824 220.79 58.894 221.32C58.954 221.85 59.254 222.3 59.804 222.68C60.864 223.39 61.844 223.09 62.724 221.77C63.4973 220.63 64.2673 219.49 65.034 218.35C63.9473 217.603 62.8573 216.86 61.764 216.12C60.9973 217.26 60.2306 218.4 59.464 219.54Z" fill="black"/>
<path d="M57.404 230.88C54.0107 228.2 50.6207 225.517 47.234 222.83C47.654 222.303 48.0673 221.78 48.474 221.26C51.8473 223.94 55.234 226.623 58.634 229.31C58.2207 229.837 57.8107 230.36 57.404 230.88Z" fill="black"/>
<path d="M38.994 235.31C38.5673 234.897 38.1407 234.483 37.714 234.07C39.854 231.777 41.9907 229.483 44.124 227.19C47.2307 230.21 50.344 233.22 53.464 236.22C53.0107 236.713 52.5573 237.203 52.104 237.69C49.4107 235.09 46.7207 232.49 44.034 229.89C42.3607 231.697 40.6807 233.503 38.994 235.31Z" fill="black"/>
<path d="M40.864 245.39C40.0773 244.357 39.294 243.32 38.514 242.28C36.754 243.713 34.9973 245.147 33.244 246.58C32.8907 246.113 32.5373 245.647 32.184 245.18C33.944 243.747 35.7007 242.313 37.454 240.88C36.674 239.84 35.894 238.803 35.114 237.77C33.2073 239.33 31.2973 240.887 29.384 242.44C29.0307 241.973 28.6807 241.507 28.334 241.04C30.7607 239.067 33.1873 237.09 35.614 235.11C38.2207 238.583 40.8407 242.053 43.474 245.52C41.0407 247.5 38.614 249.48 36.194 251.46C35.834 250.993 35.4773 250.527 35.124 250.06C37.0373 248.507 38.9473 246.95 40.854 245.39C40.8607 245.39 40.864 245.39 40.864 245.39Z" fill="black"/>
<path d="M86.334 49.9474C98.7203 58.1404 106.963 60.6654 121.212 63.527C122.476 63.7809 123.764 63.1844 124.416 62.0719C137.693 39.4041 148.33 34.3432 169.334 32.4475C168.224 27.0812 166.33 22.4073 163.837 18.4475C127.334 23.4475 114.46 69.5096 87.7743 44.4474C87.2481 46.2224 86.7669 48.0556 86.334 49.9474Z" fill="black"/>
<path d="M87.7743 44.4474C114.46 69.5096 127.334 23.4475 163.837 18.4475C155.026 4.45189 138.735 -0.624054 123.128 4.17285C120.021 5.24863 116.919 6.613 113.834 8.28853C102.805 14.773 93.0364 26.6996 87.7743 44.4474Z" fill="#5869DD"/>
<path d="M626.247 315.368C598.333 321.627 571.893 326.57 546.834 329.981C620.749 327.184 659.206 322.946 723.834 311.846C692.201 315.579 659.462 316.757 626.247 315.368Z" fill="black"/>
<path d="M721.834 295.948C718.634 295.948 724.834 291.281 728.334 288.948C692.267 299.269 658.286 308.185 626.247 315.368C659.462 316.757 692.201 315.579 723.834 311.846C734.981 310.53 745.99 308.897 756.834 306.948C755.834 305.114 753.534 301.248 752.334 300.448C750.834 299.448 749.334 301.448 747.334 300.448C745.334 299.448 750.834 297.948 750.334 296.948C749.834 295.948 746.834 297.448 744.334 296.948C741.834 296.448 761.334 287.448 759.334 287.948C757.334 288.448 740.334 292.948 735.834 294.448C731.334 295.948 738.334 288.948 737.834 288.948C737.334 288.948 725.834 295.948 721.834 295.948Z" fill="#5869DD"/>
<path d="M163.837 18.4475C166.33 22.4073 168.224 27.0812 169.334 32.4475C241.397 290.842 352.652 356.413 546.834 329.981C571.893 326.57 598.333 321.627 626.247 315.368C538.05 311.68 446.501 289.889 363.414 249.766C342.842 239.832 324.359 226.001 308.793 209.281C273.276 171.132 252.436 138.146 223.834 63.9474C208.927 28.5425 165.525 -10.5059 123.128 4.17285C138.735 -0.624054 155.026 4.45189 163.837 18.4475Z" fill="url(#paint7_linear_6600_22617)"/>
<path d="M86.334 49.9474L85.3592 49.7244L85.2047 50.3995L85.7823 50.7815L86.334 49.9474ZM163.837 18.4475L164.683 17.9147L163.837 18.4475ZM728.334 288.948L728.889 289.78C729.299 289.506 729.448 288.975 729.242 288.528C729.035 288.081 728.533 287.851 728.059 287.986L728.334 288.948ZM113.834 8.28853L113.327 7.42649L113.834 8.28853ZM756.834 306.948L757.011 307.932C757.327 307.875 757.597 307.67 757.736 307.38C757.875 307.09 757.866 306.751 757.712 306.469L756.834 306.948ZM223.834 63.9474L224.767 63.5877L224.762 63.5735L224.756 63.5594L223.834 63.9474ZM752.334 300.448L751.779 301.28L752.334 300.448ZM546.834 329.981L546.699 328.99L546.834 329.981ZM723.834 311.846L723.717 310.853L723.834 311.846ZM308.793 209.281L309.524 208.6L308.793 209.281ZM363.414 249.766L362.979 250.666L363.414 249.766ZM121.212 63.527L121.015 64.5074L121.212 63.527ZM124.416 62.0719L125.279 62.5773L124.416 62.0719ZM85.7823 50.7815C98.3113 59.0689 106.688 61.6302 121.015 64.5074L121.409 62.5466C107.237 59.7005 99.1292 57.2119 86.8857 49.1134L85.7823 50.7815ZM125.279 62.5773C131.881 51.3058 137.759 44.5311 144.507 40.3184C151.252 36.1073 158.974 34.3865 169.424 33.4434L169.244 31.4515C158.689 32.4041 150.591 34.1617 143.448 38.6219C136.306 43.0806 130.228 50.1702 123.553 61.5665L125.279 62.5773ZM86.8156 44.1632C86.2832 45.9588 85.7967 47.8124 85.3592 49.7244L87.3088 50.1705C87.7371 48.2988 88.2129 46.4861 88.7331 44.7317L86.8156 44.1632ZM170.313 32.2449C169.18 26.7696 167.244 21.9826 164.683 17.9147L162.991 18.9802C165.415 22.832 167.267 27.3927 168.355 32.6501L170.313 32.2449ZM87.0897 45.1764C93.9129 51.5844 100.017 53.5829 105.94 52.649C111.759 51.7312 117.195 48.0019 122.754 43.4977C134.005 34.3811 146.074 21.8899 163.973 19.4382L163.701 17.4567C145.097 20.005 132.477 33.0449 121.495 41.9438C115.936 46.4474 110.868 49.847 105.628 50.6734C100.491 51.4836 94.9786 49.8416 88.4589 43.7185L87.0897 45.1764ZM113.327 7.42649C102.052 14.0559 92.1399 26.2056 86.8156 44.1632L88.7331 44.7317C93.933 27.1937 103.558 15.4902 114.341 9.15057L113.327 7.42649ZM222.901 64.3071C251.537 138.594 272.437 171.698 308.061 209.962L309.524 208.6C274.115 170.566 253.335 137.699 224.767 63.5877L222.901 64.3071ZM727.779 288.116C726.016 289.291 723.54 291.075 721.895 292.586C721.481 292.966 721.105 293.343 720.801 293.699C720.51 294.04 720.231 294.424 720.076 294.817C719.926 295.202 719.797 295.894 720.338 296.444C720.77 296.883 721.392 296.948 721.834 296.948V294.948C721.476 294.948 721.592 294.866 721.764 295.042C722.045 295.327 721.903 295.637 721.938 295.547C721.97 295.467 722.076 295.285 722.322 294.998C722.555 294.725 722.868 294.408 723.248 294.059C724.778 292.654 727.152 290.938 728.889 289.78L727.779 288.116ZM721.834 296.948C723.045 296.948 724.673 296.439 726.321 295.783C728.011 295.11 729.87 294.219 731.6 293.339C733.332 292.457 734.953 291.576 736.162 290.921C736.77 290.591 737.267 290.323 737.626 290.137C737.807 290.043 737.941 289.977 738.03 289.937C738.051 289.927 738.068 289.92 738.08 289.915C738.093 289.909 738.098 289.907 738.096 289.908C738.095 289.908 738.091 289.91 738.085 289.912C738.078 289.914 738.067 289.917 738.051 289.921C738.035 289.926 737.95 289.948 737.834 289.948V287.948C737.621 287.948 737.441 288.018 737.415 288.028C737.342 288.054 737.268 288.086 737.202 288.116C737.066 288.178 736.897 288.263 736.708 288.36C736.327 288.557 735.812 288.836 735.209 289.162C733.996 289.82 732.398 290.688 730.693 291.557C728.985 292.426 727.188 293.285 725.581 293.925C723.932 294.581 722.623 294.948 721.834 294.948V296.948ZM737.834 289.948C737.709 289.948 737.464 289.922 737.229 289.735C736.977 289.535 736.888 289.27 736.866 289.085C736.847 288.92 736.875 288.793 736.889 288.741C736.905 288.68 736.923 288.637 736.931 288.619C736.954 288.568 736.96 288.571 736.894 288.664C736.781 288.822 736.587 289.064 736.324 289.386C735.819 290.007 735.107 290.864 734.522 291.676C734.23 292.082 733.952 292.501 733.741 292.892C733.549 293.248 733.335 293.717 733.319 294.186C733.31 294.444 733.358 294.787 733.59 295.096C733.828 295.415 734.159 295.564 734.453 295.623C734.969 295.726 735.569 295.59 736.15 295.396L735.518 293.499C734.974 293.68 734.808 293.654 734.844 293.661C734.897 293.672 735.06 293.722 735.191 293.898C735.316 294.065 735.319 294.221 735.318 294.256C735.317 294.28 735.33 294.16 735.501 293.841C735.654 293.559 735.876 293.219 736.146 292.845C736.686 292.094 737.349 291.295 737.875 290.65C738.128 290.339 738.364 290.046 738.521 289.827C738.589 289.732 738.69 289.585 738.758 289.433C738.774 289.397 738.889 289.157 738.853 288.851C738.829 288.653 738.735 288.377 738.474 288.17C738.232 287.977 737.975 287.948 737.834 287.948V289.948ZM736.15 295.396C740.608 293.91 757.572 289.419 759.577 288.918L759.091 286.978C757.096 287.477 740.06 291.985 735.518 293.499L736.15 295.396ZM759.577 288.918C759.591 288.914 759.585 288.916 759.565 288.919C759.562 288.92 759.474 288.936 759.351 288.922C759.292 288.916 759.148 288.895 758.987 288.806C758.8 288.702 758.579 288.494 758.503 288.16C758.436 287.866 758.52 287.634 758.567 287.533C758.616 287.424 758.674 287.35 758.701 287.318C758.785 287.218 758.861 287.176 758.802 287.216C758.776 287.234 758.728 287.265 758.652 287.31C758.343 287.492 757.78 287.792 757.022 288.185C755.542 288.952 753.329 290.067 751.184 291.186C749.028 292.311 746.856 293.483 745.373 294.413C744.652 294.865 744.013 295.309 743.632 295.693C743.532 295.795 743.424 295.917 743.334 296.058C743.251 296.186 743.13 296.412 743.114 296.705C743.095 297.06 743.238 297.398 743.507 297.632C743.731 297.826 743.981 297.897 744.138 297.928L744.53 295.967C744.531 295.967 744.668 295.991 744.818 296.121C745.015 296.292 745.125 296.551 745.111 296.812C745.1 297.013 745.021 297.131 745.017 297.138C745.004 297.157 745.009 297.146 745.053 297.1C745.253 296.899 745.711 296.562 746.436 296.107C747.844 295.225 749.952 294.085 752.109 292.959C754.276 291.829 756.408 290.756 757.942 289.961C758.692 289.572 759.305 289.247 759.67 289.031C759.763 288.976 759.852 288.922 759.928 288.869C759.973 288.839 760.118 288.742 760.234 288.603C760.269 288.562 760.333 288.48 760.386 288.363C760.436 288.254 760.521 288.015 760.453 287.716C760.376 287.377 760.151 287.164 759.958 287.057C759.791 286.964 759.638 286.942 759.568 286.934C759.424 286.918 759.304 286.936 759.259 286.943C759.197 286.953 759.139 286.966 759.091 286.978L759.577 288.918ZM744.138 297.928C745.604 298.222 747.176 297.925 748.248 297.747C748.835 297.649 749.238 297.59 749.517 297.596C749.841 297.602 749.583 297.682 749.44 297.395L751.228 296.501C750.835 295.714 750.015 295.606 749.557 295.596C749.055 295.586 748.458 295.684 747.92 295.774C746.742 295.97 745.564 296.174 744.53 295.967L744.138 297.928ZM749.44 297.395C749.269 297.054 749.441 296.78 749.452 296.765C749.452 296.765 749.396 296.831 749.212 296.963C748.847 297.225 748.349 297.492 747.764 297.836C747.492 297.996 747.207 298.17 746.955 298.351C746.713 298.524 746.439 298.745 746.234 299.013C746.033 299.277 745.776 299.759 745.952 300.341C746.114 300.877 746.553 301.175 746.887 301.342L747.781 299.553C747.615 299.47 747.788 299.503 747.866 299.761C747.959 300.067 747.799 300.259 747.824 300.226C747.846 300.197 747.928 300.114 748.118 299.978C748.297 299.85 748.52 299.712 748.779 299.56C749.256 299.279 749.915 298.921 750.378 298.589C750.608 298.424 750.884 298.201 751.081 297.924C751.29 297.631 751.524 297.091 751.228 296.501L749.44 297.395ZM746.887 301.342C748.275 302.036 749.506 301.653 750.316 301.404C751.233 301.121 751.489 301.086 751.779 301.28L752.889 299.616C751.679 298.809 750.435 299.274 749.727 299.492C748.912 299.743 748.393 299.859 747.781 299.553L746.887 301.342ZM751.779 301.28C751.939 301.386 752.226 301.669 752.62 302.165C752.994 302.636 753.407 303.224 753.823 303.859C754.655 305.127 755.466 306.527 755.956 307.427L757.712 306.469C757.202 305.535 756.363 304.085 755.495 302.762C755.061 302.1 754.612 301.457 754.186 300.921C753.779 300.409 753.329 299.909 752.889 299.616L751.779 301.28ZM168.371 32.7161C204.423 161.988 250.332 243.241 311.693 288.827C373.087 334.437 449.756 344.204 546.969 330.972L546.699 328.99C449.73 342.19 373.681 332.387 312.886 287.222C252.059 242.032 206.308 161.302 170.297 32.1788L168.371 32.7161ZM723.951 312.839C735.117 311.521 746.146 309.885 757.011 307.932L756.657 305.964C745.833 307.909 734.844 309.539 723.717 310.853L723.951 312.839ZM546.872 330.98C620.83 328.182 659.331 323.939 724.003 312.831L723.665 310.86C659.081 321.953 620.668 326.187 546.796 328.982L546.872 330.98ZM164.683 17.9147C155.607 3.4975 138.827 -1.69857 122.834 3.21698L123.422 5.12872C138.643 0.450465 154.445 5.40629 162.991 18.9802L164.683 17.9147ZM122.801 3.22788C119.641 4.32195 116.489 5.70863 113.357 7.40979L114.311 9.16727C117.349 7.51737 120.401 6.17532 123.455 5.11781L122.801 3.22788ZM123.455 5.11781C144.259 -2.08489 165.376 3.86438 183.224 16.1035C201.077 28.3462 215.532 46.8069 222.912 64.3355L224.756 63.5594C217.229 45.683 202.529 26.917 184.355 14.454C166.176 1.98739 144.394 -4.24817 122.801 3.22788L123.455 5.11781ZM122.834 3.21698C119.61 4.20791 116.418 5.60903 113.327 7.42649L114.341 9.15057C117.301 7.41041 120.349 6.07296 123.422 5.12872L122.834 3.21698ZM626.029 314.392C598.135 320.646 571.724 325.584 546.699 328.99L546.969 330.972C572.062 327.556 598.53 322.607 626.466 316.344L626.029 314.392ZM723.717 310.853C692.139 314.579 659.453 315.756 626.289 314.369L626.206 316.367C659.471 317.759 692.263 316.579 723.951 312.839L723.717 310.853ZM362.979 250.666C446.194 290.851 537.878 312.673 626.206 316.367L626.289 314.369C538.223 310.686 446.808 288.926 363.848 248.865L362.979 250.666ZM626.466 316.344C658.529 309.155 692.53 300.234 728.609 289.909L728.059 287.986C692.005 298.304 658.043 307.215 626.029 314.392L626.466 316.344ZM308.061 209.962C323.708 226.77 342.291 240.676 362.979 250.666L363.848 248.865C343.393 238.987 325.009 225.232 309.524 208.6L308.061 209.962ZM121.015 64.5074C122.709 64.8476 124.417 64.0481 125.279 62.5773L123.553 61.5665C123.111 62.3208 122.243 62.7141 121.409 62.5466L121.015 64.5074Z" fill="black"/>
<mask id="mask0_6600_22617" style="mask-type:alpha" maskUnits="userSpaceOnUse" x="85" y="-1" width="676" height="338">
<path d="M86.334 49.9474C98.7203 58.1404 106.963 60.6654 121.212 63.527C122.476 63.7809 123.764 63.1844 124.416 62.0719C137.693 39.4041 148.33 34.3432 169.334 32.4475C168.224 27.0812 166.33 22.4073 163.837 18.4475C127.334 23.4475 114.46 69.5096 87.7743 44.4474C87.2481 46.2224 86.7669 48.0556 86.334 49.9474Z" fill="black"/>
<path d="M87.7743 44.4474C114.46 69.5096 127.334 23.4475 163.837 18.4475C155.026 4.45189 138.735 -0.624054 123.128 4.17285C120.021 5.24863 116.919 6.613 113.834 8.28853C102.805 14.773 93.0364 26.6996 87.7743 44.4474Z" fill="#5869DD"/>
<path d="M626.247 315.368C598.333 321.627 571.893 326.57 546.834 329.981C620.749 327.184 659.206 322.946 723.834 311.846C692.201 315.579 659.462 316.757 626.247 315.368Z" fill="black"/>
<path d="M721.834 295.948C718.634 295.948 724.834 291.281 728.334 288.948C692.267 299.269 658.286 308.185 626.247 315.368C659.462 316.757 692.201 315.579 723.834 311.846C734.981 310.53 745.99 308.897 756.834 306.948C755.834 305.114 753.534 301.248 752.334 300.448C750.834 299.448 749.334 301.448 747.334 300.448C745.334 299.448 750.834 297.948 750.334 296.948C749.834 295.948 746.834 297.448 744.334 296.948C741.834 296.448 761.334 287.448 759.334 287.948C757.334 288.448 740.334 292.948 735.834 294.448C731.334 295.948 738.334 288.948 737.834 288.948C737.334 288.948 725.834 295.948 721.834 295.948Z" fill="#5869DD"/>
<path d="M163.837 18.4475C166.33 22.4073 168.224 27.0812 169.334 32.4475C241.397 290.842 352.652 356.413 546.834 329.981C571.893 326.57 598.333 321.627 626.247 315.368C538.05 311.68 446.501 289.889 363.414 249.766C342.842 239.832 324.359 226.001 308.793 209.281C273.276 171.132 252.436 138.146 223.834 63.9474C208.927 28.5425 165.525 -10.5059 123.128 4.17285C138.735 -0.624054 155.026 4.45189 163.837 18.4475Z" fill="url(#paint8_linear_6600_22617)"/>
<path d="M86.334 49.9474L85.3592 49.7244L85.2047 50.3995L85.7823 50.7815L86.334 49.9474ZM163.837 18.4475L164.683 17.9147L163.837 18.4475ZM728.334 288.948L728.889 289.78C729.299 289.506 729.448 288.975 729.242 288.528C729.035 288.081 728.533 287.851 728.059 287.986L728.334 288.948ZM113.834 8.28853L113.327 7.42649L113.834 8.28853ZM756.834 306.948L757.011 307.932C757.327 307.875 757.597 307.67 757.736 307.38C757.875 307.09 757.866 306.751 757.712 306.469L756.834 306.948ZM223.834 63.9474L224.767 63.5877L224.762 63.5735L224.756 63.5594L223.834 63.9474ZM752.334 300.448L751.779 301.28L752.334 300.448ZM546.834 329.981L546.699 328.99L546.834 329.981ZM723.834 311.846L723.717 310.853L723.834 311.846ZM308.793 209.281L309.524 208.6L308.793 209.281ZM363.414 249.766L362.979 250.666L363.414 249.766ZM121.212 63.527L121.015 64.5074L121.212 63.527ZM124.416 62.0719L125.279 62.5773L124.416 62.0719ZM85.7823 50.7815C98.3113 59.0689 106.688 61.6302 121.015 64.5074L121.409 62.5466C107.237 59.7005 99.1292 57.2119 86.8857 49.1134L85.7823 50.7815ZM125.279 62.5773C131.881 51.3058 137.759 44.5311 144.507 40.3184C151.252 36.1073 158.974 34.3865 169.424 33.4434L169.244 31.4515C158.689 32.4041 150.591 34.1617 143.448 38.6219C136.306 43.0806 130.228 50.1702 123.553 61.5665L125.279 62.5773ZM86.8156 44.1632C86.2832 45.9588 85.7967 47.8124 85.3592 49.7244L87.3088 50.1705C87.7371 48.2988 88.2129 46.4861 88.7331 44.7317L86.8156 44.1632ZM170.313 32.2449C169.18 26.7696 167.244 21.9826 164.683 17.9147L162.991 18.9802C165.415 22.832 167.267 27.3927 168.355 32.6501L170.313 32.2449ZM87.0897 45.1764C93.9129 51.5844 100.017 53.5829 105.94 52.649C111.759 51.7312 117.195 48.0019 122.754 43.4977C134.005 34.3811 146.074 21.8899 163.973 19.4382L163.701 17.4567C145.097 20.005 132.477 33.0449 121.495 41.9438C115.936 46.4474 110.868 49.847 105.628 50.6734C100.491 51.4836 94.9786 49.8416 88.4589 43.7185L87.0897 45.1764ZM113.327 7.42649C102.052 14.0559 92.1399 26.2056 86.8156 44.1632L88.7331 44.7317C93.933 27.1937 103.558 15.4902 114.341 9.15057L113.327 7.42649ZM222.901 64.3071C251.537 138.594 272.437 171.698 308.061 209.962L309.524 208.6C274.115 170.566 253.335 137.699 224.767 63.5877L222.901 64.3071ZM727.779 288.116C726.016 289.291 723.54 291.075 721.895 292.586C721.481 292.966 721.105 293.343 720.801 293.699C720.51 294.04 720.231 294.424 720.076 294.817C719.926 295.202 719.797 295.894 720.338 296.444C720.77 296.883 721.392 296.948 721.834 296.948V294.948C721.476 294.948 721.592 294.866 721.764 295.042C722.045 295.327 721.903 295.637 721.938 295.547C721.97 295.467 722.076 295.285 722.322 294.998C722.555 294.725 722.868 294.408 723.248 294.059C724.778 292.654 727.152 290.938 728.889 289.78L727.779 288.116ZM721.834 296.948C723.045 296.948 724.673 296.439 726.321 295.783C728.011 295.11 729.87 294.219 731.6 293.339C733.332 292.457 734.953 291.576 736.162 290.921C736.77 290.591 737.267 290.323 737.626 290.137C737.807 290.043 737.941 289.977 738.03 289.937C738.051 289.927 738.068 289.92 738.08 289.915C738.093 289.909 738.098 289.907 738.096 289.908C738.095 289.908 738.091 289.91 738.085 289.912C738.078 289.914 738.067 289.917 738.051 289.921C738.035 289.926 737.95 289.948 737.834 289.948V287.948C737.621 287.948 737.441 288.018 737.415 288.028C737.342 288.054 737.268 288.086 737.202 288.116C737.066 288.178 736.897 288.263 736.708 288.36C736.327 288.557 735.812 288.836 735.209 289.162C733.996 289.82 732.398 290.688 730.693 291.557C728.985 292.426 727.188 293.285 725.581 293.925C723.932 294.581 722.623 294.948 721.834 294.948V296.948ZM737.834 289.948C737.709 289.948 737.464 289.922 737.229 289.735C736.977 289.535 736.888 289.27 736.866 289.085C736.847 288.92 736.875 288.793 736.889 288.741C736.905 288.68 736.923 288.637 736.931 288.619C736.954 288.568 736.96 288.571 736.894 288.664C736.781 288.822 736.587 289.064 736.324 289.386C735.819 290.007 735.107 290.864 734.522 291.676C734.23 292.082 733.952 292.501 733.741 292.892C733.549 293.248 733.335 293.717 733.319 294.186C733.31 294.444 733.358 294.787 733.59 295.096C733.828 295.415 734.159 295.564 734.453 295.623C734.969 295.726 735.569 295.59 736.15 295.396L735.518 293.499C734.974 293.68 734.808 293.654 734.844 293.661C734.897 293.672 735.06 293.722 735.191 293.898C735.316 294.065 735.319 294.221 735.318 294.256C735.317 294.28 735.33 294.16 735.501 293.841C735.654 293.559 735.876 293.219 736.146 292.845C736.686 292.094 737.349 291.295 737.875 290.65C738.128 290.339 738.364 290.046 738.521 289.827C738.589 289.732 738.69 289.585 738.758 289.433C738.774 289.397 738.889 289.157 738.853 288.851C738.829 288.653 738.735 288.377 738.474 288.17C738.232 287.977 737.975 287.948 737.834 287.948V289.948ZM736.15 295.396C740.608 293.91 757.572 289.419 759.577 288.918L759.091 286.978C757.096 287.477 740.06 291.985 735.518 293.499L736.15 295.396ZM759.577 288.918C759.591 288.914 759.585 288.916 759.565 288.919C759.562 288.92 759.474 288.936 759.351 288.922C759.292 288.916 759.148 288.895 758.987 288.806C758.8 288.702 758.579 288.494 758.503 288.16C758.436 287.866 758.52 287.634 758.567 287.533C758.616 287.424 758.674 287.35 758.701 287.318C758.785 287.218 758.861 287.176 758.802 287.216C758.776 287.234 758.728 287.265 758.652 287.31C758.343 287.492 757.78 287.792 757.022 288.185C755.542 288.952 753.329 290.067 751.184 291.186C749.028 292.311 746.856 293.483 745.373 294.413C744.652 294.865 744.013 295.309 743.632 295.693C743.532 295.795 743.424 295.917 743.334 296.058C743.251 296.186 743.13 296.412 743.114 296.705C743.095 297.06 743.238 297.398 743.507 297.632C743.731 297.826 743.981 297.897 744.138 297.928L744.53 295.967C744.531 295.967 744.668 295.991 744.818 296.121C745.015 296.292 745.125 296.551 745.111 296.812C745.1 297.013 745.021 297.131 745.017 297.138C745.004 297.157 745.009 297.146 745.053 297.1C745.253 296.899 745.711 296.562 746.436 296.107C747.844 295.225 749.952 294.085 752.109 292.959C754.276 291.829 756.408 290.756 757.942 289.961C758.692 289.572 759.305 289.247 759.67 289.031C759.763 288.976 759.852 288.922 759.928 288.869C759.973 288.839 760.118 288.742 760.234 288.603C760.269 288.562 760.333 288.48 760.386 288.363C760.436 288.254 760.521 288.015 760.453 287.716C760.376 287.377 760.151 287.164 759.958 287.057C759.791 286.964 759.638 286.942 759.568 286.934C759.424 286.918 759.304 286.936 759.259 286.943C759.197 286.953 759.139 286.966 759.091 286.978L759.577 288.918ZM744.138 297.928C745.604 298.222 747.176 297.925 748.248 297.747C748.835 297.649 749.238 297.59 749.517 297.596C749.841 297.602 749.583 297.682 749.44 297.395L751.228 296.501C750.835 295.714 750.015 295.606 749.557 295.596C749.055 295.586 748.458 295.684 747.92 295.774C746.742 295.97 745.564 296.174 744.53 295.967L744.138 297.928ZM749.44 297.395C749.269 297.054 749.441 296.78 749.452 296.765C749.452 296.765 749.396 296.831 749.212 296.963C748.847 297.225 748.349 297.492 747.764 297.836C747.492 297.996 747.207 298.17 746.955 298.351C746.713 298.524 746.439 298.745 746.234 299.013C746.033 299.277 745.776 299.759 745.952 300.341C746.114 300.877 746.553 301.175 746.887 301.342L747.781 299.553C747.615 299.47 747.788 299.503 747.866 299.761C747.959 300.067 747.799 300.259 747.824 300.226C747.846 300.197 747.928 300.114 748.118 299.978C748.297 299.85 748.52 299.712 748.779 299.56C749.256 299.279 749.915 298.921 750.378 298.589C750.608 298.424 750.884 298.201 751.081 297.924C751.29 297.631 751.524 297.091 751.228 296.501L749.44 297.395ZM746.887 301.342C748.275 302.036 749.506 301.653 750.316 301.404C751.233 301.121 751.489 301.086 751.779 301.28L752.889 299.616C751.679 298.809 750.435 299.274 749.727 299.492C748.912 299.743 748.393 299.859 747.781 299.553L746.887 301.342ZM751.779 301.28C751.939 301.386 752.226 301.669 752.62 302.165C752.994 302.636 753.407 303.224 753.823 303.859C754.655 305.127 755.466 306.527 755.956 307.427L757.712 306.469C757.202 305.535 756.363 304.085 755.495 302.762C755.061 302.1 754.612 301.457 754.186 300.921C753.779 300.409 753.329 299.909 752.889 299.616L751.779 301.28ZM168.371 32.7161C204.423 161.988 250.332 243.241 311.693 288.827C373.087 334.437 449.756 344.204 546.969 330.972L546.699 328.99C449.73 342.19 373.681 332.387 312.886 287.222C252.059 242.032 206.308 161.302 170.297 32.1788L168.371 32.7161ZM723.951 312.839C735.117 311.521 746.146 309.885 757.011 307.932L756.657 305.964C745.833 307.909 734.844 309.539 723.717 310.853L723.951 312.839ZM546.872 330.98C620.83 328.182 659.331 323.939 724.003 312.831L723.665 310.86C659.081 321.953 620.668 326.187 546.796 328.982L546.872 330.98ZM164.683 17.9147C155.607 3.4975 138.827 -1.69857 122.834 3.21698L123.422 5.12872C138.643 0.450465 154.445 5.40629 162.991 18.9802L164.683 17.9147ZM122.801 3.22788C119.641 4.32195 116.489 5.70863 113.357 7.40979L114.311 9.16727C117.349 7.51737 120.401 6.17532 123.455 5.11781L122.801 3.22788ZM123.455 5.11781C144.259 -2.08489 165.376 3.86438 183.224 16.1035C201.077 28.3462 215.532 46.8069 222.912 64.3355L224.756 63.5594C217.229 45.683 202.529 26.917 184.355 14.454C166.176 1.98739 144.394 -4.24817 122.801 3.22788L123.455 5.11781ZM122.834 3.21698C119.61 4.20791 116.418 5.60903 113.327 7.42649L114.341 9.15057C117.301 7.41041 120.349 6.07296 123.422 5.12872L122.834 3.21698ZM626.029 314.392C598.135 320.646 571.724 325.584 546.699 328.99L546.969 330.972C572.062 327.556 598.53 322.607 626.466 316.344L626.029 314.392ZM723.717 310.853C692.139 314.579 659.453 315.756 626.289 314.369L626.206 316.367C659.471 317.759 692.263 316.579 723.951 312.839L723.717 310.853ZM362.979 250.666C446.194 290.851 537.878 312.673 626.206 316.367L626.289 314.369C538.223 310.686 446.808 288.926 363.848 248.865L362.979 250.666ZM626.466 316.344C658.529 309.155 692.53 300.234 728.609 289.909L728.059 287.986C692.005 298.304 658.043 307.215 626.029 314.392L626.466 316.344ZM308.061 209.962C323.708 226.77 342.291 240.676 362.979 250.666L363.848 248.865C343.393 238.987 325.009 225.232 309.524 208.6L308.061 209.962ZM121.015 64.5074C122.709 64.8476 124.417 64.0481 125.279 62.5773L123.553 61.5665C123.111 62.3208 122.243 62.7141 121.409 62.5466L121.015 64.5074Z" fill="black"/>
</mask>
<g mask="url(#mask0_6600_22617)">
<path d="M233.423 73.5485C233.031 72.6825 232.642 71.8194 232.257 70.9591C229.278 71.5111 226.251 72.0797 223.175 72.665C223.519 73.4724 223.863 74.2828 224.207 75.0963C227.325 74.5698 230.397 74.0568 233.423 73.5575C233.423 73.5515 233.423 73.5485 233.423 73.5485ZM212.647 55.7143C212.237 54.9874 212.543 53.1743 212.517 52.541C217.586 51.5527 220.826 51.4194 226.34 51.1925C226.872 51.9876 227.394 52.792 227.877 53.6068C223.201 54.237 218.205 54.4426 212.647 55.7143C212.654 55.708 212.64 55.7085 212.647 55.7143ZM227.991 62.4763C227.547 61.6421 227.122 60.7983 226.639 59.9745C223.879 60.7298 221.054 61.5114 218.163 62.3194C218.595 63.0907 218.978 63.8907 219.371 64.6634C222.303 63.9083 225.173 63.1764 227.98 62.4676C227.98 62.4676 227.984 62.4705 227.991 62.4763Z" fill="black"/>
<path d="M246.674 109.044C246.263 108.203 245.855 107.362 245.451 106.52C242.351 107.185 239.228 107.859 236.083 108.543C236.508 109.426 236.941 110.312 237.38 111.2C240.491 110.475 243.586 109.757 246.664 109.045C246.664 109.045 246.668 109.045 246.674 109.044ZM225.626 89.0367C225.325 88.1555 225.032 87.2802 224.745 86.4106C230.454 85.7969 233.992 84.2797 239.438 83.6928C239.737 84.5198 240.038 85.3467 240.343 86.1735C234.886 86.8149 231.343 88.3805 225.636 89.0363C225.629 89.0366 225.626 89.0367 225.626 89.0367ZM241.671 98.0752C241.313 97.2381 240.958 96.404 240.607 95.5727C237.428 96.0471 234.219 96.5315 230.982 97.0259C231.354 97.8986 231.727 98.7773 232.1 99.662C235.33 99.1317 238.524 98.6027 241.681 98.0748C241.674 98.0751 241.671 98.0752 241.671 98.0752Z" fill="black"/>
<path d="M259.945 135.97C259.455 135.162 258.966 134.353 258.477 133.545C255.692 134.752 252.911 135.972 250.134 137.204C250.644 138.042 251.154 138.88 251.664 139.718C254.421 138.457 257.181 137.207 259.945 135.97ZM238.776 123.191C238.283 122.28 237.787 121.369 237.288 120.458C242.403 118.889 247.504 117.35 252.589 115.842C253.032 116.676 253.477 117.514 253.921 118.354C248.884 119.933 243.836 121.545 238.776 123.191ZM255.747 127.285C255.277 126.458 254.81 125.631 254.347 124.803C251.465 125.858 248.583 126.921 245.701 127.994C246.192 128.856 246.687 129.722 247.185 130.59C250.038 129.471 252.892 128.369 255.747 127.285Z" fill="black"/>
<path d="M275.765 157.995C275.206 157.273 274.647 156.548 274.088 155.82C271.561 157.417 269.034 159.016 266.507 160.619C267.086 161.37 267.663 162.119 268.236 162.864C270.742 161.232 273.252 159.603 275.765 157.977C275.765 157.983 275.765 157.989 275.765 157.995ZM252.129 150.397C251.567 149.585 251.053 148.744 250.51 147.914C255.051 145.539 259.603 143.193 264.165 140.878C264.676 141.656 265.168 142.443 265.699 143.211C261.158 145.58 256.638 147.975 252.138 150.397C252.132 150.397 252.129 150.397 252.129 150.397ZM270.592 151.435C270.052 150.689 269.508 149.942 268.962 149.196C266.351 150.675 263.748 152.16 261.151 153.65C261.705 154.426 262.266 155.199 262.833 155.969C265.409 154.449 267.995 152.935 270.591 151.426C270.591 151.426 270.592 151.429 270.592 151.435Z" fill="black"/>
<path d="M316.756 212.041C316.09 211.395 315.465 210.747 314.819 210.092C312.533 211.987 310.25 213.886 307.971 215.787C308.627 216.451 309.264 217.135 309.949 217.78C312.214 215.861 314.486 213.945 316.765 212.031C316.759 212.032 316.756 212.035 316.756 212.041ZM288.173 203.6C287.541 202.874 286.91 202.146 286.278 201.414C290.41 198.475 294.552 195.544 298.705 192.622C299.302 193.307 299.9 193.994 300.497 194.685C296.386 197.641 292.278 200.616 288.173 203.609C288.173 203.603 288.173 203.6 288.173 203.6ZM308.458 203.504C307.835 202.832 307.215 202.164 306.598 201.498C304.23 203.312 301.872 205.129 299.524 206.948C300.155 207.638 300.788 208.327 301.425 209.016C303.766 207.173 306.11 205.335 308.458 203.504Z" fill="black"/>
<path d="M344.467 236.355C343.736 235.819 343.012 235.284 342.294 234.748C340.334 236.934 338.375 239.122 336.416 241.314C337.187 241.875 337.929 242.455 338.7 243.008C340.619 240.793 342.541 238.576 344.467 236.355ZM315.211 231.45C314.516 230.799 313.821 230.151 313.126 229.506C316.888 226.152 320.653 222.797 324.421 219.443C325.089 220.07 325.761 220.701 326.436 221.335C322.687 224.701 318.943 228.073 315.201 231.451C315.201 231.451 315.205 231.451 315.211 231.45ZM335.224 229.16C334.522 228.587 333.858 227.995 333.165 227.413C331.05 229.472 328.934 231.533 326.819 233.598C327.542 234.206 328.246 234.832 328.97 235.431C331.051 233.338 333.136 231.247 335.224 229.16Z" fill="black"/>
<path d="M376.325 254.757C375.491 254.388 374.657 254.028 373.832 253.631C372.445 256.153 371.058 258.674 369.671 261.196C370.546 261.609 371.43 261.986 372.305 262.381C373.645 259.843 374.989 257.305 376.336 254.766C376.329 254.76 376.325 254.757 376.325 254.757ZM346.632 255.667C345.783 255.153 344.944 254.64 344.124 254.098C347.12 250.155 350.119 246.212 353.122 242.269C353.881 242.777 354.659 243.238 355.428 243.709C352.493 247.698 349.561 251.684 346.632 255.667ZM365.675 249.579C364.879 249.154 364.063 248.739 363.275 248.287C361.687 250.713 360.102 253.139 358.52 255.565C359.348 256.034 360.204 256.474 361.061 256.924C362.596 254.476 364.134 252.027 365.675 249.579Z" fill="black"/>
<path d="M411.977 268.462C411.088 268.136 410.199 267.814 409.31 267.494C408.217 270.121 407.127 272.747 406.041 275.373C406.936 275.692 407.838 276.014 408.747 276.339C409.82 273.713 410.897 271.084 411.976 268.453C411.976 268.453 411.977 268.456 411.977 268.462ZM382.795 273.12C381.892 272.765 380.989 272.413 380.087 272.064C382.15 267.659 384.213 263.254 386.276 258.849C387.152 259.192 388.031 259.536 388.914 259.88C386.871 264.29 384.832 268.704 382.795 273.12ZM400.41 264.28C399.514 263.955 398.622 263.633 397.733 263.314C396.58 265.924 395.427 268.531 394.274 271.135C395.169 271.46 396.071 271.785 396.98 272.11C398.12 269.5 399.263 266.887 400.409 264.271C400.409 264.271 400.409 264.274 400.41 264.28Z" fill="black"/>
<path d="M448.538 280.094C447.632 279.841 446.729 279.588 445.83 279.336C444.922 281.998 444.025 284.666 443.139 287.339C444.058 287.597 444.978 287.855 445.897 288.113C446.778 285.446 447.658 282.776 448.539 280.103C448.539 280.097 448.538 280.094 448.538 280.094ZM419.926 286.35C419.011 286.044 418.093 285.74 417.172 285.44C418.909 280.95 420.646 276.459 422.382 271.968C423.283 272.263 424.181 272.564 425.076 272.871C423.36 277.367 421.646 281.863 419.936 286.359C419.929 286.353 419.926 286.35 419.926 286.35ZM436.795 276.569C435.888 276.292 434.985 276.015 434.084 275.739C433.124 278.396 432.164 281.054 431.204 283.712C432.118 283.989 433.035 284.271 433.955 284.559C434.895 281.896 435.839 279.235 436.786 276.578C436.786 276.572 436.789 276.569 436.795 276.569Z" fill="black"/>
<path d="M485.31 289.704C484.418 289.493 483.52 289.283 482.615 289.072C481.894 291.764 481.179 294.456 480.471 297.148C481.389 297.358 482.307 297.571 483.225 297.787C483.92 295.089 484.615 292.395 485.31 289.704ZM457.649 297.482C456.72 297.252 455.791 296.994 454.861 296.727C456.246 292.176 457.641 287.622 459.045 283.064C459.955 283.322 460.844 283.572 461.763 283.812C460.379 288.37 459.007 292.926 457.649 297.482ZM473.54 286.858C472.647 286.623 471.752 286.391 470.853 286.162C470.078 288.844 469.311 291.532 468.55 294.225C469.462 294.459 470.378 294.693 471.296 294.927C472.044 292.24 472.792 289.554 473.54 286.867C473.54 286.861 473.54 286.858 473.54 286.858Z" fill="black"/>
<path d="M521.93 297.206C521.027 297.044 520.124 296.881 519.221 296.719C518.619 299.425 518.014 302.134 517.405 304.847C518.308 305.009 519.212 305.174 520.115 305.343C520.723 302.624 521.328 299.912 521.93 297.206ZM495.17 306.426C494.259 306.234 493.345 306.042 492.428 305.85C493.534 301.254 494.653 296.661 495.786 292.07C496.677 292.263 497.578 292.453 498.488 292.639C497.369 297.229 496.263 301.825 495.17 306.426ZM510.194 295.054C509.297 294.876 508.391 294.726 507.483 294.54C506.848 297.241 506.217 299.948 505.588 302.661C506.486 302.848 507.402 302.988 508.309 303.175C508.93 300.462 509.559 297.755 510.194 295.054Z" fill="black"/>
<path d="M558.385 303.843C557.433 303.779 556.487 303.715 555.547 303.65C555.004 306.33 554.457 309.028 553.909 311.744C554.867 311.796 555.83 311.848 556.795 311.9C557.338 309.196 557.868 306.51 558.385 303.843ZM532.191 313.174C531.276 313.036 530.36 312.895 529.444 312.752C530.45 308.111 531.456 303.482 532.462 298.866C533.371 298.998 534.283 299.133 535.199 299.27C534.192 303.893 533.187 308.531 532.182 313.183C532.188 313.177 532.191 313.174 532.191 313.174ZM546.17 302.746C545.248 302.639 544.324 302.534 543.397 302.433C542.828 305.144 542.253 307.87 541.672 310.612C542.599 310.707 543.527 310.805 544.454 310.906C545.036 308.177 545.607 305.46 546.17 302.755C546.17 302.749 546.17 302.746 546.17 302.746Z" fill="black"/>
<path d="M293.756 184.041C293.09 183.395 292.465 182.747 291.819 182.092C289.533 183.987 287.25 185.886 284.971 187.787C285.627 188.452 286.263 189.135 286.949 189.78C289.214 187.861 291.486 185.945 293.765 184.031C293.759 184.032 293.756 184.035 293.756 184.041ZM268.173 174.6C267.541 173.874 266.91 173.146 266.278 172.414C270.41 169.475 274.552 166.544 278.705 163.622C279.302 164.307 279.9 164.994 280.497 165.685C276.385 168.641 272.278 171.616 268.173 174.609C268.173 174.603 268.173 174.6 268.173 174.6ZM285.458 175.504C284.835 174.832 284.215 174.164 283.598 173.498C281.23 175.312 278.872 177.129 276.524 178.948C277.155 179.638 277.788 180.327 278.425 181.016C280.766 179.173 283.11 177.335 285.458 175.504Z" fill="black"/>
<path d="M565.184 316.173C565.186 316.173 565.189 316.173 565.191 316.174L565.182 316.183C565.182 316.18 565.183 316.176 565.184 316.173C564.271 316.035 563.358 315.895 562.444 315.751C563.45 311.111 564.456 306.482 565.462 301.866C566.371 301.998 567.283 302.132 568.199 302.27C567.193 306.889 566.188 311.524 565.184 316.173Z" fill="black"/>
<path d="M179.984 85.955C179.744 85.135 179.504 84.295 179.254 83.465C182.804 83.435 186.364 82.425 189.934 82.425C190.144 83.195 190.364 83.965 190.594 84.735C187.034 84.795 183.504 85.865 179.974 85.945C179.974 85.945 179.974 85.945 179.984 85.955ZM191.704 63.845C191.384 62.955 191.044 62.035 190.614 61.125C183.794 62.0006 179.984 63.0006 173.334 64.005C173.614 64.655 173.884 65.315 174.124 65.995C179.254 65.995 184.334 64.5006 191.704 63.845ZM176.864 76.125C176.634 75.295 176.404 74.465 176.164 73.625C179.784 73.845 183.424 72.075 187.074 72.315C187.294 73.085 187.514 73.865 187.724 74.635C184.104 74.455 180.484 76.285 176.874 76.115C176.874 76.115 176.874 76.115 176.864 76.125Z" fill="black"/>
<path d="M191.244 118.425C190.954 117.585 190.634 116.775 190.334 115.945C193.704 115.365 197.064 114.775 200.414 114.185C200.704 114.975 200.994 115.755 201.284 116.555C197.944 117.175 194.594 117.785 191.244 118.425ZM200.454 94.545C200.214 93.785 199.964 93.035 199.714 92.295C193.794 92.695 188.884 94.115 182.994 94.545C183.264 95.375 183.524 96.205 183.794 97.025C189.664 96.525 194.564 95.025 200.464 94.545C200.464 94.545 200.464 94.545 200.454 94.545ZM187.314 107.715C187.044 106.905 186.764 106.075 186.494 105.265C189.904 104.825 193.304 104.405 196.724 103.985C196.984 104.765 197.244 105.555 197.504 106.345C194.094 106.805 190.704 107.255 187.314 107.715Z" fill="black"/>
<path d="M204.874 151.755C204.514 150.945 204.144 150.125 203.784 149.315C207.004 148.325 210.214 147.325 213.454 146.315C213.804 147.115 214.164 147.895 214.514 148.695C211.314 149.725 208.094 150.745 204.884 151.765C204.884 151.755 204.874 151.755 204.874 151.755ZM212.684 126.425C212.374 125.665 212.054 124.895 211.734 124.135C206.084 125.425 200.454 126.705 194.844 127.975C195.184 128.795 195.514 129.605 195.844 130.425C201.444 129.105 207.054 127.765 212.684 126.425ZM200.224 141.105C199.884 140.295 199.544 139.465 199.214 138.655C202.464 137.785 205.724 136.885 208.994 136.005C209.334 136.805 209.654 137.605 209.984 138.395C206.714 139.295 203.464 140.205 200.224 141.105Z" fill="black"/>
<path d="M220.854 184.985C220.444 184.165 220.024 183.345 219.604 182.535C222.674 181.225 225.764 179.905 228.864 178.555C229.254 179.355 229.674 180.155 230.074 180.945C227.004 182.305 223.924 183.645 220.854 184.985ZM226.504 157.835C226.124 157.065 225.744 156.295 225.374 155.525C219.924 157.475 214.524 159.395 209.144 161.295C209.534 162.115 209.924 162.915 210.334 163.735C215.684 161.795 221.084 159.825 226.504 157.835ZM215.454 174.365C215.074 173.545 214.674 172.725 214.284 171.895C217.404 170.685 220.524 169.475 223.664 168.235C224.044 169.035 224.434 169.825 224.824 170.625C221.694 171.885 218.564 173.135 215.454 174.365Z" fill="black"/>
<path d="M239.054 217.975C238.594 217.155 238.134 216.335 237.654 215.535C240.564 213.925 243.474 212.335 246.414 210.715C246.864 211.505 247.314 212.295 247.764 213.085C244.844 214.735 241.934 216.365 239.054 217.975ZM242.574 189.445C242.154 188.665 241.724 187.895 241.294 187.135C236.104 189.595 230.934 192.045 225.794 194.455C226.244 195.255 226.684 196.065 227.144 196.865C232.254 194.425 237.394 191.945 242.574 189.445ZM232.904 207.475C232.464 206.655 232.024 205.845 231.594 205.025C234.554 203.525 237.534 202.015 240.514 200.475C240.944 201.285 241.374 202.075 241.794 202.865C238.824 204.415 235.854 205.945 232.904 207.475Z" fill="black"/>
<path d="M263.344 248.505C262.814 247.715 262.244 246.955 261.734 246.175C264.454 244.245 267.204 242.345 269.974 240.405C270.474 241.175 271.014 241.925 271.554 242.665C268.804 244.615 266.064 246.565 263.344 248.505ZM260.694 220.815C260.224 220.045 259.764 219.285 259.294 218.525C254.374 221.475 249.504 224.415 244.654 227.315C245.154 228.115 245.644 228.915 246.124 229.725C250.944 226.785 255.794 223.815 260.694 220.815ZM254.644 239.145C254.134 238.345 253.604 237.555 253.094 236.775C255.874 234.965 258.684 233.155 261.504 231.345C262.014 232.095 262.514 232.865 263.014 233.645C260.214 235.485 257.424 237.325 254.644 239.155C254.644 239.145 254.644 239.145 254.644 239.145Z" fill="black"/>
<path d="M475.904 340.295C474.804 340.395 473.704 340.495 472.604 340.625C473.154 337.155 473.674 333.685 474.204 330.225C475.294 330.115 476.384 330.005 477.464 329.895C476.964 333.335 476.434 336.795 475.904 340.295ZM450.224 326.755C449.184 326.795 448.164 326.845 447.134 326.885C446.004 332.795 444.844 338.725 443.674 344.655C444.734 344.615 445.804 344.545 446.874 344.485C447.994 338.565 449.104 332.665 450.224 326.765C450.224 326.758 450.224 326.755 450.224 326.755ZM461.764 341.725C460.674 341.845 459.614 341.865 458.554 341.925C459.154 338.455 459.734 334.975 460.324 331.515C461.384 331.465 462.424 331.445 463.484 331.315C462.914 334.775 462.344 338.235 461.764 341.705C461.764 341.712 461.764 341.718 461.764 341.725Z" fill="black"/>
<path d="M516.584 338.665C515.394 338.895 514.214 339.135 513.044 339.395C512.834 336.435 515.614 333.475 515.394 330.525C516.524 330.315 517.644 330.125 518.754 329.945C519.024 332.855 516.294 335.765 516.584 338.675C516.584 338.668 516.584 338.665 516.584 338.665ZM489.404 327.475C488.294 327.655 487.184 327.825 486.074 327.985C485.554 333.605 484.964 338.315 484.304 344.095C485.494 343.855 486.714 343.625 487.924 343.395C488.484 337.695 488.964 333.065 489.394 327.485C489.394 327.475 489.394 327.475 489.404 327.475ZM503.924 339.935C502.694 340.195 501.454 340.475 500.244 340.745C500.324 337.555 500.394 334.385 500.464 331.225C501.614 330.995 502.774 330.785 503.924 330.585C503.924 333.675 503.934 336.795 503.924 339.935Z" fill="black"/>
<path d="M295.39 284.666C294.553 283.888 293.728 283.11 292.915 282.322C295.94 279.294 298.966 276.266 301.994 273.204C302.797 273.957 303.6 274.722 304.404 275.463C301.41 278.551 298.405 281.626 295.401 284.667C295.39 284.666 295.39 284.666 295.39 284.666ZM291.37 249.288C290.697 248.484 290.047 247.681 289.374 246.866C284.032 251.466 278.714 256.044 273.385 260.622C274.055 261.483 274.747 262.358 275.427 263.243C280.724 258.629 286.046 253.97 291.381 249.288C291.37 249.288 291.37 249.288 291.37 249.288ZM284.945 274.259C284.205 273.405 283.441 272.561 282.699 271.753C285.796 268.892 288.894 266.031 291.991 263.169C292.723 263.953 293.455 264.749 294.185 265.568C291.12 268.466 288.033 271.362 284.956 274.271C284.945 274.259 284.945 274.259 284.945 274.259Z" fill="black"/>
<path d="M334.899 312.482C333.808 311.887 332.728 311.303 331.636 310.719C334.179 307.211 336.723 303.681 339.232 300.171C340.266 300.74 341.301 301.298 342.335 301.879C339.861 305.402 337.385 308.948 334.887 312.482C334.887 312.482 334.887 312.482 334.899 312.482ZM322.922 278.945C322.067 278.282 321.212 277.618 320.346 276.954C315.463 282.45 310.557 287.933 305.617 293.403C306.527 294.128 307.459 294.865 308.381 295.579C313.277 290.049 318.117 284.504 322.922 278.945ZM321.14 304.449C320.099 303.798 319.117 303.127 318.11 302.478C320.854 299.109 323.587 295.729 326.306 292.382C327.292 292.983 328.242 293.606 329.215 294.23C326.539 297.637 323.84 301.043 321.152 304.449C321.14 304.449 321.14 304.449 321.14 304.449Z" fill="black"/>
<path d="M382.639 332.002C381.397 331.63 380.165 331.269 378.934 330.886C380.71 327.01 382.462 323.132 384.226 319.244C385.401 319.589 386.587 319.935 387.762 320.281C386.042 324.195 384.347 328.099 382.627 332.013C382.639 332.002 382.639 332.002 382.639 332.002ZM362.638 301.717C361.575 301.239 360.523 300.785 359.471 300.307C355.637 306.536 351.792 312.729 347.901 318.931C349.065 319.461 350.207 319.979 351.359 320.508C355.138 314.254 358.894 307.986 362.638 301.717ZM366.742 326.699C365.549 326.259 364.347 325.796 363.142 325.368C365.189 321.6 367.213 317.843 369.238 314.062C370.362 314.486 371.51 314.899 372.645 315.323C370.689 319.12 368.709 322.915 366.742 326.699Z" fill="black"/>
<path d="M432.393 340.852C431.168 340.782 429.942 340.712 428.729 340.643C429.874 336.626 431.043 332.611 432.21 328.619C433.4 328.698 434.603 328.767 435.792 328.847C434.647 332.852 433.538 336.847 432.404 340.853C432.404 340.853 432.404 340.853 432.393 340.852ZM408.024 316.174C406.878 315.934 405.72 315.706 404.574 315.466C402.019 322.22 399.498 329.011 396.973 335.848C398.198 336.126 399.437 336.36 400.685 336.64C403.106 329.797 405.559 322.979 408.024 316.174ZM416.572 339.287C415.351 339.148 414.13 338.997 412.91 338.834C414.196 334.791 415.493 330.771 416.789 326.752C417.988 326.89 419.184 327.063 420.347 327.199C419.097 331.221 417.834 335.254 416.572 339.287Z" fill="black"/>
</g>
<path d="M193.6 61.5843C193.141 60.4757 193.008 59.3903 193.203 58.3281C193.41 57.2608 193.918 56.2925 194.727 55.4233C195.548 54.5489 196.624 53.836 197.954 53.2846C199.284 52.7332 200.543 52.4786 201.729 52.5208C202.928 52.5578 203.972 52.8828 204.861 53.4958C205.763 54.1036 206.443 54.9618 206.903 56.0703C207.362 57.1788 207.488 58.2668 207.281 59.3341C207.086 60.3963 206.578 61.3646 205.757 62.239C204.949 63.1083 203.879 63.8186 202.549 64.37C201.219 64.9214 199.954 65.1785 198.755 65.1415C197.568 65.0993 196.524 64.7743 195.623 64.1665C194.734 63.5535 194.06 62.6928 193.6 61.5843ZM195.318 60.872C195.793 62.0175 196.603 62.7354 197.748 63.0258C198.898 63.3284 200.243 63.1606 201.783 62.5224C203.323 61.8842 204.392 61.0513 204.991 60.0237C205.595 59.0084 205.659 57.928 205.184 56.7825C204.71 55.637 203.897 54.913 202.747 54.6103C201.602 54.32 200.259 54.494 198.72 55.1321C197.18 55.7703 196.108 56.5971 195.504 57.6124C194.906 58.64 194.844 59.7266 195.318 60.872Z" fill="black"/>
<path d="M218.208 127.458C217.77 126.341 217.658 125.253 217.873 124.195C218.1 123.131 218.626 122.173 219.451 121.319C220.289 120.46 221.378 119.768 222.718 119.242C224.059 118.715 225.322 118.485 226.507 118.549C227.705 118.609 228.743 118.954 229.62 119.583C230.51 120.208 231.174 121.079 231.613 122.196C232.051 123.313 232.157 124.403 231.93 125.466C231.715 126.525 231.189 127.483 230.351 128.342C229.526 129.196 228.443 129.886 227.103 130.412C225.762 130.938 224.493 131.171 223.295 131.112C222.11 131.047 221.072 130.702 220.182 130.078C219.305 129.448 218.647 128.575 218.208 127.458ZM219.94 126.778C220.393 127.932 221.189 128.665 222.329 128.977C223.473 129.302 224.821 129.159 226.372 128.55C227.924 127.941 229.008 127.129 229.626 126.113C230.249 125.109 230.334 124.03 229.881 122.876C229.428 121.721 228.63 120.982 227.485 120.658C226.346 120.346 225 120.494 223.449 121.103C221.898 121.712 220.81 122.519 220.187 123.522C219.569 124.539 219.487 125.624 219.94 126.778Z" fill="black"/>
<path d="M232.338 155.914C231.72 154.886 231.43 153.832 231.466 152.752C231.514 151.666 231.873 150.634 232.545 149.655C233.229 148.669 234.188 147.805 235.422 147.064C236.657 146.323 237.864 145.886 239.044 145.753C240.235 145.613 241.316 145.781 242.285 146.256C243.267 146.724 244.066 147.473 244.684 148.502C245.301 149.531 245.586 150.588 245.539 151.674C245.503 152.753 245.143 153.786 244.459 154.772C243.787 155.751 242.834 156.611 241.6 157.352C240.365 158.093 239.152 158.534 237.961 158.674C236.781 158.807 235.7 158.639 234.719 158.171C233.75 157.695 232.956 156.943 232.338 155.914ZM233.933 154.957C234.571 156.02 235.478 156.611 236.653 156.729C237.836 156.859 239.141 156.495 240.57 155.637C241.999 154.779 242.934 153.798 243.375 152.694C243.823 151.6 243.727 150.522 243.089 149.459C242.451 148.396 241.541 147.8 240.358 147.67C239.183 147.551 237.881 147.921 236.452 148.779C235.023 149.637 234.085 150.612 233.637 151.705C233.196 152.81 233.295 153.894 233.933 154.957Z" fill="black"/>
<path d="M367.666 291.472C366.448 290.964 365.503 290.22 364.831 289.24C364.164 288.247 363.809 287.098 363.766 285.793C363.728 284.474 364.014 283.083 364.624 281.621C365.233 280.16 366.017 278.985 366.976 278.097C367.939 277.196 369.006 276.64 370.175 276.428C371.349 276.203 372.546 276.344 373.764 276.852C374.982 277.361 375.925 278.111 376.591 279.104C377.263 280.084 377.618 281.233 377.656 282.552C377.699 283.857 377.416 285.241 376.806 286.703C376.197 288.165 375.41 289.346 374.446 290.247C373.488 291.135 372.422 291.691 371.247 291.916C370.078 292.128 368.885 291.98 367.666 291.472ZM368.454 289.583C369.713 290.109 370.901 290.04 372.02 289.378C373.151 288.722 374.07 287.548 374.776 285.856C375.482 284.164 375.67 282.685 375.339 281.419C375.023 280.159 374.235 279.266 372.976 278.741C371.717 278.216 370.522 278.281 369.39 278.937C368.272 279.599 367.36 280.776 366.654 282.468C365.948 284.16 365.754 285.637 366.07 286.897C366.4 288.163 367.195 289.058 368.454 289.583Z" fill="black"/>
<path d="M298.898 245.909C298.079 245.032 297.574 244.062 297.383 242.999C297.203 241.927 297.339 240.842 297.791 239.744C298.253 238.637 299.01 237.592 300.062 236.609C301.115 235.626 302.204 234.946 303.33 234.569C304.465 234.183 305.557 234.121 306.605 234.383C307.662 234.636 308.6 235.201 309.42 236.078C310.239 236.954 310.739 237.929 310.919 239.001C311.11 240.064 310.974 241.149 310.512 242.256C310.06 243.354 309.307 244.394 308.255 245.377C307.203 246.36 306.109 247.045 304.973 247.431C303.847 247.808 302.756 247.87 301.698 247.617C300.651 247.355 299.717 246.785 298.898 245.909ZM300.257 244.639C301.103 245.545 302.114 245.933 303.288 245.803C304.471 245.683 305.672 245.054 306.89 243.916C308.107 242.778 308.816 241.623 309.017 240.45C309.226 239.288 308.907 238.253 308.061 237.347C307.214 236.441 306.199 236.048 305.016 236.169C303.842 236.299 302.646 236.933 301.428 238.07C300.21 239.208 299.497 240.358 299.287 241.521C299.087 242.694 299.41 243.733 300.257 244.639Z" fill="black"/>
<path d="M488.865 325.003C487.74 324.818 486.798 324.38 486.039 323.69C485.282 322.987 484.756 322.091 484.46 321.003C484.167 319.902 484.132 318.676 484.354 317.327C484.577 315.977 485.003 314.834 485.632 313.898C486.264 312.949 487.05 312.27 487.991 311.861C488.933 311.438 489.967 311.32 491.092 311.506C492.216 311.691 493.157 312.135 493.914 312.838C494.674 313.528 495.2 314.423 495.493 315.524C495.789 316.613 495.825 317.832 495.602 319.182C495.38 320.532 494.953 321.681 494.321 322.629C493.692 323.566 492.906 324.245 491.963 324.667C491.023 325.077 489.99 325.189 488.865 325.003ZM489.153 323.26C490.315 323.451 491.301 323.158 492.109 322.38C492.931 321.604 493.47 320.435 493.728 318.873C493.985 317.311 493.85 316.03 493.322 315.031C492.805 314.035 491.966 313.441 490.804 313.249C489.642 313.057 488.65 313.349 487.829 314.125C487.02 314.903 486.487 316.074 486.229 317.636C485.971 319.198 486.101 320.477 486.617 321.474C487.145 322.473 487.99 323.068 489.153 323.26Z" fill="black"/>
<path d="M214.273 83.2602L217.791 85.8569L218.223 87.2933L204.816 91.3268L204.24 89.4116L215.138 86.133L212.147 83.8998L214.273 83.2602Z" fill="black"/>
<path d="M253.204 175.813L257.228 177.523L257.982 178.82L245.877 185.853L244.872 184.124L254.712 178.407L251.285 176.928L253.204 175.813Z" fill="black"/>
<path d="M411.414 295.168L416 293.719L417.557 294.265L412.469 308.8L410.392 308.073L414.528 296.258L410.607 297.472L411.414 295.168Z" fill="black"/>
<path d="M332.359 259.418L336.731 259.413L337.933 260.311L329.556 271.528L327.953 270.331L334.763 261.213L331.031 261.197L332.359 259.418Z" fill="black"/>
<path d="M275.629 206.807L279.85 207.944L280.776 209.125L269.76 217.764L268.525 216.191L277.48 209.168L273.882 208.177L275.629 206.807Z" fill="black"/>
<path d="M448.843 307.569L452.853 305.827L454.312 306.174L451.082 319.796L449.136 319.334L451.762 308.261L448.33 309.729L448.843 307.569Z" fill="black"/>
<path d="M526.235 318.499L530.245 316.757L531.705 317.103L528.475 330.725L526.529 330.264L529.154 319.191L525.723 320.659L526.235 318.499Z" fill="black"/>
<path fill-rule="evenodd" clip-rule="evenodd" d="M555.614 325.853C555.348 326.973 555.262 328.022 555.354 329L557.306 328.621C557.276 327.925 557.361 327.155 557.56 326.314C557.945 324.692 558.59 323.502 559.496 322.744C560.415 321.989 561.478 321.755 562.684 322.041C563.891 322.327 564.729 323.012 565.198 324.096C565.68 325.184 565.729 326.538 565.344 328.16L567.442 327.876C567.632 326.762 567.632 325.727 567.442 324.773C567.215 323.595 566.727 322.616 565.98 321.836C565.237 321.043 564.281 320.508 563.113 320.231C561.946 319.954 560.852 320.003 559.831 320.378C558.813 320.739 557.939 321.395 557.206 322.345C556.477 323.282 555.946 324.451 555.614 325.853Z" fill="black"/>
<defs>
<linearGradient id="paint0_linear_6600_22617" x1="-18.6655" y1="95.0003" x2="120.834" y2="199" gradientUnits="userSpaceOnUse">
<stop stop-color="#D6FFBB"/>
<stop offset="1" stop-color="#5869DD"/>
</linearGradient>
<linearGradient id="paint1_linear_6600_22617" x1="-69.6658" y1="72.4955" x2="90.8341" y2="255.995" gradientUnits="userSpaceOnUse">
<stop stop-color="#D6FFBB"/>
<stop offset="1" stop-color="#5869DD"/>
</linearGradient>
<linearGradient id="paint2_linear_6600_22617" x1="38.8342" y1="312.499" x2="49.8342" y2="61.499" gradientUnits="userSpaceOnUse">
<stop stop-color="#D6FFBB"/>
<stop offset="1" stop-color="#5869DD"/>
</linearGradient>
<linearGradient id="paint3_linear_6600_22617" x1="-51.3378" y1="121.562" x2="-27.9089" y2="266.5" gradientUnits="userSpaceOnUse">
<stop stop-color="#D6FFBB"/>
<stop offset="1" stop-color="#5869DD"/>
</linearGradient>
<linearGradient id="paint4_linear_6600_22617" x1="-21.3418" y1="173.625" x2="49.0062" y2="173.625" gradientUnits="userSpaceOnUse">
<stop stop-color="#D6FFBB"/>
<stop offset="1" stop-color="#5869DD"/>
</linearGradient>
<linearGradient id="paint5_linear_6600_22617" x1="-6.39319" y1="140.494" x2="14.89" y2="182.9" gradientUnits="userSpaceOnUse">
<stop stop-color="#D6FFBB"/>
<stop offset="1" stop-color="#5869DD"/>
</linearGradient>
<linearGradient id="paint6_linear_6600_22617" x1="-6.3922" y1="140.496" x2="14.891" y2="182.902" gradientUnits="userSpaceOnUse">
<stop stop-color="#D6FFBB"/>
<stop offset="1" stop-color="#5869DD"/>
</linearGradient>
<linearGradient id="paint7_linear_6600_22617" x1="470.834" y1="100" x2="336.834" y2="364" gradientUnits="userSpaceOnUse">
<stop stop-color="#D6FFBB"/>
<stop offset="1" stop-color="#5869DD"/>
</linearGradient>
<linearGradient id="paint8_linear_6600_22617" x1="470.834" y1="100" x2="336.834" y2="364" gradientUnits="userSpaceOnUse">
<stop stop-color="#D6FFBB"/>
<stop offset="1" stop-color="#5869DD"/>
</linearGradient>
</defs>
</svg>
