<svg width="34" height="35" viewBox="0 0 34 35" fill="none" xmlns="http://www.w3.org/2000/svg">
<path d="M20.3546 3.59168C18.9392 3.23924 17.476 3.11421 16.0055 3.22013C15.2911 3.27159 14.5774 3.37818 13.8841 3.53716L13.1729 0.433914C14.0243 0.238784 14.9003 0.107832 15.7767 0.0447191C17.583 -0.0853678 19.3819 0.068686 21.124 0.502619L20.3546 3.59168Z" fill="black"/>
<path opacity="0.9" d="M27.6171 8.13112C26.2141 6.4631 24.4152 5.13174 22.415 4.28125L23.6609 1.35156C26.1194 2.39685 28.33 4.03259 30.0536 6.08202L27.6171 8.13112Z" fill="black"/>
<path opacity="0.8" d="M30.8263 16.071L30.8246 16.0474C30.6659 13.845 30.0123 11.7769 28.8818 9.90061L31.6089 8.25781C33.0005 10.5676 33.805 13.1114 34 15.8186L30.8263 16.071Z" fill="black"/>
<path opacity="0.7" d="M31.4628 26.0628L28.7627 24.376C29.9172 22.5281 30.6253 20.4078 30.8105 18.2441L33.9826 18.5158C33.7545 21.1793 32.8832 23.7893 31.4628 26.0628Z" fill="black"/>
<path opacity="0.6" d="M23.4056 32.8408L22.21 29.8905C24.2204 29.0757 26.0392 27.7736 27.4697 26.125L29.8744 28.2114C28.1163 30.2378 25.8794 31.8386 23.4056 32.8408Z" fill="black"/>
<path opacity="0.5" d="M18.2265 34.0412C16.4286 34.1705 14.638 34.0184 12.9043 33.5892L13.6691 30.499C15.0778 30.8476 16.5343 30.971 17.998 30.8658C18.7195 30.8138 19.44 30.7055 20.1394 30.5442L20.8556 33.6461C19.9964 33.8444 19.1118 33.9774 18.2265 34.0412Z" fill="black"/>
<path opacity="0.4" d="M10.3665 32.7443C7.90642 31.7027 5.69341 30.0702 3.9668 28.0235L6.4001 25.9707C7.80569 27.6366 9.6064 28.9652 11.6078 29.8125L10.3665 32.7443Z" fill="black"/>
<path opacity="0.3" d="M2.40767 25.8511C1.00787 23.5349 0.198925 20.9837 0.00326215 18.2677L0 18.2209L3.17541 17.9922L3.17954 18.0509C3.33785 20.2486 3.99508 22.3228 5.13231 24.2041L2.40767 25.8511Z" fill="black"/>
<path opacity="0.2" d="M3.19499 15.8215L0.0234375 15.545C0.255384 12.8819 1.13071 10.2733 2.55461 8.00195L5.25208 9.69275C4.09481 11.539 3.38346 13.6583 3.19499 15.8215Z" fill="black"/>
</svg>
