<svg width="21" height="20" viewBox="0 0 21 20" fill="none" xmlns="http://www.w3.org/2000/svg">
<path d="M11.4274 15.6103C11.3565 15.4504 11.4283 15.2634 11.5881 15.1924C11.7482 15.1217 11.9351 15.1938 12.0062 15.3534L13.6775 19.1163L16.2775 17.9676C16.4376 17.8968 16.5097 17.71 16.4394 17.5498L14.4213 12.9826L19.4035 13.3171C19.5782 13.3288 19.729 13.1967 19.7407 13.0221L19.9333 10.1539L18.6737 10.0939C18.6118 10.0907 18.555 10.0702 18.5075 10.037C18.4214 9.97671 18.3673 9.87506 18.3724 9.76229C18.3807 9.58757 18.5291 9.45295 18.7038 9.46125L19.9753 9.52195L20.0374 8.59857C20.0489 8.42418 19.9172 8.27323 19.7423 8.26133L15.0617 7.94706L17.7524 4.10433C17.8527 3.96114 17.8179 3.76356 17.6747 3.6633L15.3401 2.02861L14.6136 3.0662C14.5133 3.20939 14.3157 3.24423 14.1725 3.14397C14.0293 3.04371 13.9945 2.84612 14.0948 2.70294L14.8213 1.66534L14.0431 1.12045C13.8999 1.02018 13.7023 1.05502 13.6021 1.19821L10.9114 5.04094L9.0152 0.750093C8.94445 0.589993 8.75757 0.517899 8.59739 0.588207L7.79227 0.944127L8.24698 2.14701C8.30878 2.3105 8.22641 2.49328 8.06273 2.55534C7.96082 2.59377 7.85158 2.57643 7.76883 2.51849C7.71851 2.48325 7.67784 2.43312 7.65466 2.37127L7.21204 1.20082L4.54243 2.38049C4.46566 2.41449 4.40518 2.47768 4.3751 2.55597C4.34502 2.63426 4.34698 2.72145 4.3808 2.79848L6.39918 7.36586L1.41692 7.03134C1.33316 7.02564 1.25055 7.05362 1.18709 7.10893C1.12363 7.16423 1.08512 7.24241 1.07942 7.32618L0.891314 10.1278L4.99914 10.4458C5.17347 10.4596 5.30414 10.6114 5.29058 10.7859C5.27701 10.9604 5.12469 11.0907 4.95017 11.0772L0.848577 10.7597L0.782105 11.7496C0.770562 11.924 0.902484 12.0751 1.07687 12.0866L5.75747 12.4009L3.06713 16.2431C2.96687 16.3863 3.00171 16.5839 3.14489 16.6842L5.47948 18.3188L7.47744 15.4655C7.5777 15.3223 7.77528 15.2874 7.91847 15.3877C8.06165 15.488 8.09649 15.6855 7.99623 15.8287L5.99827 18.6821L6.77647 19.227C6.91966 19.3273 7.11724 19.2924 7.2175 19.1492L9.9082 15.3065L11.8044 19.5974C11.8756 19.7574 12.062 19.8296 12.2222 19.7593L13.0979 19.372L11.4274 15.6103ZM12.0705 6.69759C11.9702 6.84078 11.7726 6.87562 11.6294 6.77536C11.4862 6.6751 11.4514 6.47752 11.5517 6.33433L13.368 3.74035C13.4682 3.59716 13.6658 3.56232 13.809 3.66258C13.9522 3.76284 13.987 3.96042 13.8868 4.10361L12.0705 6.69759ZM8.72276 14.7911C8.6225 14.9343 8.42492 14.9692 8.28173 14.8689C8.13854 14.7686 8.10371 14.5711 8.20397 14.4279L8.74886 13.6497C8.84912 13.5065 9.04671 13.4717 9.18989 13.5719C9.33308 13.6722 9.36792 13.8698 9.26766 14.0129L8.72276 14.7911Z" fill="#FFA046"/>
</svg>
