<svg width="79" height="76" viewBox="0 0 79 76" fill="none" xmlns="http://www.w3.org/2000/svg">
<path d="M42.289 1.7487L52.0846 21.7399C52.538 22.664 53.4132 23.3067 54.4307 23.4554L76.3313 26.6633C78.883 27.0351 79.9058 30.2006 78.0552 32.0117L62.2072 47.5734C61.4743 48.2957 61.1369 49.3314 61.3109 50.3511L65.0541 72.3234C65.4917 74.8833 62.8187 76.8379 60.5359 75.6322L40.9498 65.2595C40.043 64.7815 38.957 64.7815 38.0502 65.2595L18.4641 75.6322C16.1813 76.8432 13.5083 74.8887 13.9459 72.3234L17.6891 50.3511C17.8631 49.3314 17.5257 48.2957 16.7928 47.5734L0.944748 32.0117C-0.905777 30.1953 0.117031 27.0351 2.66875 26.6633L24.5693 23.4554C25.5815 23.3067 26.462 22.664 26.9154 21.7399L36.711 1.7487C37.8446 -0.5829 41.1449 -0.5829 42.289 1.7487Z" fill="#5869DD"/>
</svg>
