<svg width="116" height="147" viewBox="0 0 116 147" fill="none" xmlns="http://www.w3.org/2000/svg">
<path d="M80.2996 23.4732C84.6016 22.2772 87.0011 17.3956 85.659 12.5698C84.317 7.74391 79.7417 4.80132 75.4397 5.99729C71.1378 7.19326 68.7383 12.0749 70.0803 16.9007C71.4224 21.7266 75.9977 24.6692 80.2996 23.4732Z" fill="black"/>
<path d="M80.1064 22.2903C84.3348 21.1148 86.6914 16.3092 85.3698 11.5568C84.0482 6.8044 79.5489 3.90479 75.3204 5.08034C71.0919 6.25589 68.7354 11.0614 70.057 15.8139C71.3786 20.5663 75.8779 23.4659 80.1064 22.2903Z" fill="#F2EA86" stroke="black" stroke-width="0.866219" stroke-miterlimit="10"/>
<path d="M80.9056 14.4987C81.2409 14.341 81.5761 14.1636 81.8916 13.9664C82.8972 13.3158 83.3507 12.7046 83.2127 12.1723C82.9958 11.4231 81.6747 11.2063 80.0381 11.364C80.1564 9.74735 79.9197 8.44615 79.1507 8.249C78.3817 8.05185 77.5338 9.09675 76.824 10.5557C75.4634 9.64878 74.2015 9.21504 73.6494 9.76707C73.255 10.1614 73.3536 10.9105 73.9057 11.9555C74.0832 12.2709 74.2804 12.5863 74.4973 12.8821C74.162 13.0398 73.8268 13.2172 73.5114 13.4144C72.5057 14.065 72.0522 14.6761 72.1902 15.2085C72.2888 15.5633 72.6438 15.7999 73.1761 15.9379C73.9057 16.0759 74.6353 16.1154 75.3649 16.0168C75.2465 17.6334 75.4832 18.9346 76.2522 19.1318C77.0212 19.3289 77.8691 18.284 78.5789 16.8251C79.1705 17.2391 79.8409 17.5743 80.5507 17.7911C81.0634 17.9291 81.4972 17.8897 81.7732 17.6137C82.1676 17.2194 82.069 16.4702 81.5169 15.4253C81.3197 15.1099 81.1225 14.7944 80.9056 14.4987ZM82.838 12.2512C82.9366 12.5863 82.5028 13.0989 81.6747 13.6312C81.3592 13.8284 81.024 14.0255 80.669 14.1833C80.393 13.8284 80.0972 13.4735 79.7817 13.1186C79.8803 12.6455 79.9395 12.192 79.9986 11.7386C81.6155 11.5809 82.7 11.7977 82.838 12.2512ZM78.1057 15.1296C77.8099 15.2085 77.5338 15.2873 77.2578 15.3465C77.0409 15.169 76.8437 14.9719 76.6268 14.7747C76.4099 14.5776 76.2127 14.3607 76.0353 14.1636C76.0944 13.8875 76.1536 13.6115 76.2324 13.3355C76.3113 13.0595 76.3902 12.7835 76.4691 12.5075C76.7451 12.4089 77.0212 12.33 77.2972 12.2512C77.593 12.1723 77.8691 12.0935 78.1451 12.0343C78.362 12.2117 78.5592 12.4089 78.7761 12.6061C78.993 12.8032 79.1902 13.0201 79.3676 13.2172C79.3085 13.4932 79.2493 13.7692 79.1705 14.0453C79.0916 14.3213 79.0127 14.5973 78.9338 14.8733C78.6578 14.9719 78.3817 15.0507 78.1057 15.1296ZM78.7958 15.3267C78.6775 15.6619 78.5592 15.9773 78.4212 16.2731C78.1648 16.0956 77.8888 15.8788 77.6127 15.6619C77.8099 15.6225 78.0071 15.5633 78.2043 15.5042C78.4014 15.445 78.5986 15.3859 78.7958 15.3267ZM76.8043 15.445C76.4494 15.5239 76.1141 15.5633 75.7987 15.6028C75.8381 15.2873 75.8775 14.9522 75.9367 14.5973C76.0747 14.7353 76.2127 14.8733 76.3508 15.031C76.5085 15.169 76.6465 15.307 76.8043 15.445ZM75.7198 13.8087C75.4832 13.5524 75.286 13.2961 75.0888 13.0398C75.3846 12.9018 75.7001 12.7835 76.0353 12.6652C75.9761 12.8624 75.917 13.0398 75.8775 13.2369C75.8184 13.4144 75.7592 13.6115 75.7198 13.8087ZM76.6268 12.054C76.7451 11.7189 76.8634 11.4034 77.0015 11.1077C77.2578 11.2851 77.5338 11.502 77.8099 11.7189C77.6127 11.7583 77.4155 11.8174 77.2184 11.8766C77.0015 11.9357 76.8043 11.9949 76.6268 12.054ZM78.5986 11.9357C78.9535 11.8569 79.2888 11.8174 79.6042 11.778C79.5648 12.0935 79.5254 12.4286 79.4662 12.7835C79.3282 12.6455 79.1902 12.5075 79.0521 12.3498C78.8944 12.2117 78.7564 12.0737 78.5986 11.9357ZM79.6831 13.5721C79.9197 13.8284 80.1169 14.0847 80.3141 14.341C80.0183 14.479 79.7028 14.5973 79.3676 14.7156C79.4268 14.5184 79.4859 14.341 79.5254 14.1438C79.5845 13.9664 79.6437 13.7692 79.6831 13.5721ZM79.0521 8.60387C79.5254 8.72216 79.7817 9.78678 79.6437 11.4034C79.1902 11.4626 78.7169 11.5414 78.2437 11.64C77.8888 11.3246 77.5141 11.0486 77.1395 10.7725C77.8296 9.31362 78.5789 8.48558 79.0521 8.60387ZM74.2409 11.778C73.7874 10.9303 73.6691 10.2797 73.9057 10.0234C74.0635 9.86564 74.3592 9.84593 74.7536 9.9445C75.4437 10.1614 76.0747 10.4768 76.6663 10.8908C76.4888 11.3049 76.3113 11.7386 76.1733 12.192C75.7001 12.3498 75.2663 12.5272 74.8522 12.7046C74.6353 12.4286 74.4381 12.1132 74.2409 11.778ZM72.5649 15.1296C72.4663 14.7944 72.9001 14.2818 73.7283 13.7495C74.0437 13.5524 74.3789 13.3552 74.7339 13.1975C75.0099 13.5524 75.3057 13.9073 75.6212 14.2621C75.5226 14.7353 75.4634 15.1887 75.4043 15.6422C73.7874 15.7999 72.7029 15.583 72.5649 15.1296ZM76.3508 18.7769C75.8775 18.6586 75.6212 17.594 75.7592 15.9773C76.2127 15.9182 76.686 15.8393 77.1592 15.7408C77.5141 16.0562 77.8888 16.3322 78.2634 16.6082C77.5733 18.0672 76.824 18.8952 76.3508 18.7769ZM81.4775 17.3574C81.1423 17.6926 80.0578 17.3968 78.7169 16.4899C78.8944 16.0759 79.0719 15.6422 79.2099 15.1887C79.6831 15.031 80.1169 14.8536 80.531 14.6761C80.7479 14.9719 80.9451 15.307 81.1423 15.6225C81.6155 16.4505 81.7338 17.1011 81.4775 17.3574Z" fill="black"/>
<path d="M78.4014 13.4932C78.5197 13.8874 78.2831 14.2817 77.8888 14.4C77.4944 14.5182 77.1 14.2817 76.9817 13.8874C76.8634 13.4932 77.1 13.099 77.4944 12.9807C77.8888 12.8821 78.3028 13.099 78.4014 13.4932Z" fill="black"/>
<path d="M18.6721 54.62L19.4213 55.2313L19.3819 55.2707L18.6523 54.6594L18.6721 54.62Z" fill="black"/>
<path d="M20.8404 56.4929L22.1418 57.8728L22.0826 57.9319L20.7812 56.5521L20.8404 56.4929Z" fill="black"/>
<path d="M23.3445 59.3517C23.7191 59.8643 24.0741 60.3966 24.4093 60.9289L24.3107 60.988C23.9755 60.4557 23.6403 59.9234 23.2656 59.4108L23.3445 59.3517Z" fill="black"/>
<path d="M25.3353 62.6044C25.6113 63.1761 25.8677 63.7676 26.0846 64.359L25.9268 64.4182C25.7099 63.8267 25.4733 63.2353 25.1973 62.6635L25.3353 62.6044Z" fill="black"/>
<path d="M26.6579 66.1929C26.8157 66.804 26.934 67.4349 27.0129 68.0658L26.8157 68.0855C26.7368 67.4546 26.6382 66.8435 26.4805 66.2323L26.6579 66.1929Z" fill="black"/>
<path d="M27.1301 69.978C27.1301 70.6089 27.0907 71.2595 27.0118 71.8904L26.7949 71.8707C26.8738 71.2398 26.9132 70.6089 26.9132 69.978H27.1301Z" fill="black"/>
<path d="M26.6967 73.783C26.5587 74.4138 26.3813 75.025 26.1644 75.6165L25.9277 75.5376C26.1249 74.9462 26.3024 74.335 26.4601 73.7238L26.6967 73.783Z" fill="black"/>
<path d="M25.454 77.3912L25.0202 78.2586C24.9413 78.3967 24.8822 78.5544 24.8033 78.6924L24.5667 79.1064L24.3301 78.9684L24.5667 78.5544C24.6456 78.4164 24.7047 78.2784 24.7836 78.1404L25.2174 77.2926L25.454 77.3912Z" fill="black"/>
<path d="M23.5406 80.7031C23.166 81.2157 22.7716 81.7283 22.3575 82.2014L22.1406 82.0043C22.5547 81.5311 22.9491 81.0382 23.3237 80.5256L23.5406 80.7031Z" fill="black"/>
<path d="M21.0194 83.6016C20.5659 84.0353 20.0729 84.4689 19.58 84.8632L19.3828 84.6266C19.8758 84.2324 20.349 83.8184 20.8025 83.3848L21.0194 83.6016Z" fill="black"/>
<path d="M18.0619 86.0066L16.445 87.0514L16.2676 86.7557L17.8647 85.7504L18.0619 86.0066Z" fill="black"/>
<path d="M14.7676 87.9778L13.0521 88.8254L12.9141 88.51L14.6098 87.6821L14.7676 87.9778Z" fill="black"/>
<path d="M11.3166 89.6144L9.6011 90.4029L9.44336 90.0875L11.1786 89.2793L11.3166 89.6144Z" fill="black"/>
<path d="M9.32497 91.211C9.62074 91.2899 9.91651 91.3096 10.232 91.349C10.5475 91.3687 10.863 91.3885 11.1785 91.3885V91.7434C10.863 91.7434 10.5475 91.7237 10.2123 91.704C9.89679 91.6842 9.56158 91.6448 9.24609 91.5659L9.32497 91.211Z" fill="black"/>
<path d="M13.0723 91.3299L14.9652 91.2313L14.9849 91.606L13.092 91.7046L13.0723 91.3299Z" fill="black"/>
<path d="M16.8574 91.0735L18.7504 90.9158L18.7898 91.2904L16.8969 91.4482L16.8574 91.0735Z" fill="black"/>
<path d="M20.6426 90.7185L22.5355 90.5016L22.575 90.8959L20.682 91.0931L20.6426 90.7185Z" fill="black"/>
<path d="M24.4297 90.2845L26.3226 90.0676L26.3621 90.462L24.4691 90.6789L24.4297 90.2845Z" fill="black"/>
<path d="M28.1953 89.831L30.0883 89.5944L30.1474 90.0084L28.2545 90.2253L28.1953 89.831Z" fill="black"/>
<path d="M31.9805 89.358L33.8734 89.1213L33.9128 89.5157L32.0396 89.7523L31.9805 89.358Z" fill="black"/>
<path d="M35.7461 88.8656L37.639 88.629L37.6982 89.0234L35.8052 89.26L35.7461 88.8656Z" fill="black"/>
<path d="M39.5332 88.3725L41.4064 88.1359L41.4656 88.5105L39.5726 88.7668L39.5332 88.3725Z" fill="black"/>
<path d="M43.2988 87.88L45.1918 87.6237L45.2312 87.9983L43.3383 88.2546L43.2988 87.88Z" fill="black"/>
<path d="M47.0664 87.3671L48.9593 87.1107L48.9988 87.4854L47.1256 87.7417L47.0664 87.3671Z" fill="black"/>
<path d="M50.8516 86.874L52.7248 86.6176L52.7839 86.9528L50.891 87.2289L50.8516 86.874Z" fill="black"/>
<path d="M54.6191 86.3816L56.5121 86.1252L56.5515 86.4407L54.6586 86.6971L54.6191 86.3816Z" fill="black"/>
<path d="M58.4023 85.8885L60.2756 85.6322L60.315 85.928L58.4418 86.1843L58.4023 85.8885Z" fill="black"/>
<path d="M62.1699 85.3956L64.0629 85.1589L64.1023 85.435L62.2094 85.6913L62.1699 85.3956Z" fill="black"/>
<path d="M65.9551 84.9226L67.848 84.686L67.8677 84.9424L65.9748 85.1987L65.9551 84.9226Z" fill="black"/>
<path d="M69.7227 84.4685L71.6156 84.2516L71.655 84.4685L69.7621 84.7051L69.7227 84.4685Z" fill="black"/>
<path d="M73.5059 84.0154L75.3988 83.8182L75.4185 84.0154L73.5453 84.252L73.5059 84.0154Z" fill="black"/>
<path d="M77.293 83.6011L79.1859 83.4039L79.2056 83.6011L77.3127 83.7983L77.293 83.6011Z" fill="black"/>
<path d="M81.0801 83.227L82.9927 83.0496V83.2073L81.0998 83.4045L81.0801 83.227Z" fill="black"/>
<path d="M84.8848 82.872L86.7777 82.7142L86.7974 82.8917L84.8848 83.0494V82.872Z" fill="black"/>
<path d="M88.6719 82.5959L90.5845 82.4973V82.6551L88.6916 82.7536L88.6719 82.5959Z" fill="black"/>
<path d="M92.4961 82.4185H94.389V82.5565L92.4961 82.5762V82.4185Z" fill="black"/>
<path d="M96.3008 82.4973C96.9318 82.5565 97.5627 82.6353 98.1937 82.8128L98.1543 82.9508C97.5627 82.7734 96.912 82.6945 96.3008 82.6551V82.4973Z" fill="black"/>
<path d="M99.0228 84.2324C98.9243 84.3704 98.8257 84.4887 98.7271 84.6069C98.6285 84.7252 98.5299 84.8435 98.4116 84.9618C98.1947 85.1983 97.9778 85.4151 97.7412 85.6517L97.6426 85.5531C97.8792 85.3363 98.0961 85.1195 98.313 84.8829C98.4116 84.7646 98.5299 84.6464 98.6285 84.5281C98.7271 84.4098 98.8257 84.2718 98.9243 84.1536L99.0228 84.2324Z" fill="black"/>
<path d="M96.2637 86.874C95.7511 87.2485 95.2187 87.6034 94.6863 87.9385L94.6074 87.8202C95.1398 87.4851 95.6722 87.1303 96.1849 86.7557L96.2637 86.874Z" fill="black"/>
<path d="M93.0283 88.9051L91.3326 89.7724L91.2734 89.6344L92.9495 88.7671L93.0283 88.9051Z" fill="black"/>
<path d="M89.5971 90.5805L87.8619 91.3296L87.8027 91.1916L89.5379 90.4425L89.5971 90.5805Z" fill="black"/>
<path d="M86.0877 92.04L84.3131 92.7299L84.2539 92.5722L86.0285 91.902L86.0877 92.04Z" fill="black"/>
<path d="M82.5176 93.38L80.7232 93.9912L80.6641 93.8138L82.4584 93.2025L82.5176 93.38Z" fill="black"/>
<path d="M78.9103 94.6028L77.0963 95.1746L77.0371 94.9775L78.8512 94.4056L78.9103 94.6028Z" fill="black"/>
<path d="M75.2816 95.7463L73.4675 96.2984L73.3887 96.0815L75.2225 95.5491L75.2816 95.7463Z" fill="black"/>
<path d="M71.6332 96.8304L69.7994 97.3628L69.7402 97.1262L71.574 96.6135L71.6332 96.8304Z" fill="black"/>
<path d="M67.9672 97.8753L66.1334 98.388L66.0742 98.1514L67.908 97.6387L67.9672 97.8753Z" fill="black"/>
<path d="M64.2994 98.9004L62.4656 99.3933L62.3867 99.1173L64.2402 98.644L64.2994 98.9004Z" fill="black"/>
<path d="M60.6314 99.8864L58.7779 100.36L58.7188 100.084L60.5525 99.6104L60.6314 99.8864Z" fill="black"/>
<path d="M56.9439 100.852L55.1101 101.325L55.0312 101.029L56.865 100.556L56.9439 100.852Z" fill="black"/>
<path d="M53.2584 101.817L51.4246 102.291L51.3457 101.975L53.1795 101.502L53.2584 101.817Z" fill="black"/>
<path d="M49.5691 102.764L47.7353 103.237L47.6367 102.902L49.4902 102.429L49.5691 102.764Z" fill="black"/>
<path d="M45.8816 103.71L44.0478 104.183L43.9492 103.848L45.8027 103.375L45.8816 103.71Z" fill="black"/>
<path d="M42.2138 104.677L40.3603 105.15L40.2617 104.795L42.1152 104.302L42.2138 104.677Z" fill="black"/>
<path d="M38.5263 105.643L36.6925 106.135L36.5742 105.741L38.4277 105.268L38.5263 105.643Z" fill="black"/>
<path d="M34.8406 106.629L33.0068 107.121L32.9082 106.727L34.742 106.234L34.8406 106.629Z" fill="black"/>
<path d="M31.1728 107.634L29.339 108.147L29.2207 107.733L31.0742 107.24L31.1728 107.634Z" fill="black"/>
<path d="M27.5046 108.659L25.6906 109.191L25.5723 108.797L27.3863 108.265L27.5046 108.659Z" fill="black"/>
<path d="M23.8564 109.743L22.0423 110.295L21.9043 109.881L23.7381 109.329L23.8564 109.743Z" fill="black"/>
<path d="M20.2294 110.867L18.4154 111.458L18.2773 111.044L20.0914 110.453L20.2294 110.867Z" fill="black"/>
<path d="M16.6201 112.07L14.8257 112.681L14.668 112.267L16.4623 111.636L16.6201 112.07Z" fill="black"/>
<path d="M13.032 113.331C12.4404 113.568 11.8686 113.804 11.3165 114.1L11.0996 113.686C11.6714 113.39 12.263 113.134 12.8545 112.917L13.032 113.331Z" fill="black"/>
<path d="M9.83703 115.106C9.79759 115.165 9.77788 115.205 9.75816 115.244C9.73844 115.283 9.75816 115.303 9.75816 115.323C9.77788 115.362 9.87647 115.461 10.0145 115.52C10.2708 115.658 10.5666 115.737 10.8624 115.816L10.7441 116.269C10.4286 116.19 10.1131 116.092 9.79759 115.934C9.63985 115.835 9.46239 115.757 9.34408 115.52C9.28492 115.382 9.28492 115.244 9.32436 115.126C9.3638 115.007 9.42295 114.929 9.46239 114.85L9.83703 115.106Z" fill="black"/>
<path d="M12.7156 116.171L14.5888 116.408L14.5297 116.881L12.6367 116.644L12.7156 116.171Z" fill="black"/>
<path d="M16.4808 116.604L18.3738 116.743L18.3343 117.235L16.4414 117.078L16.4808 116.604Z" fill="black"/>
<path d="M20.268 116.881L22.1609 116.999L22.1412 117.472L20.2285 117.354L20.268 116.881Z" fill="black"/>
<path d="M24.0549 117.098L25.9675 117.176L25.9478 117.65L24.0352 117.571L24.0549 117.098Z" fill="black"/>
<path d="M27.8596 117.255L29.7919 117.334L29.7722 117.807L27.8398 117.728L27.8596 117.255Z" fill="black"/>
<path d="M31.6979 117.398L31.6816 117.871L33.5932 117.936L33.6094 117.463L31.6979 117.398Z" fill="black"/>
<path d="M35.51 117.531L37.4029 117.59L37.3832 118.063L35.4902 118.004L35.51 117.531Z" fill="black"/>
<path d="M39.3146 117.65L41.2076 117.709V118.162L39.2949 118.103L39.3146 117.65Z" fill="black"/>
<path d="M43.1213 117.748L45.0142 117.807V118.26L43.1016 118.221L43.1213 117.748Z" fill="black"/>
<path d="M46.926 117.866L48.8189 117.906V118.359L46.9062 118.32L46.926 117.866Z" fill="black"/>
<path d="M50.7346 117.965L52.6275 118.004V118.458L50.7148 118.399L50.7346 117.965Z" fill="black"/>
<path d="M54.5392 118.063L56.4322 118.123V118.537L54.5195 118.497L54.5392 118.063Z" fill="black"/>
<path d="M58.3439 118.162L60.2369 118.221V118.635L58.3242 118.596L58.3439 118.162Z" fill="black"/>
<path d="M62.1506 118.28L64.0435 118.34V118.734L62.1309 118.675L62.1506 118.28Z" fill="black"/>
<path d="M65.9553 118.398L67.8482 118.477V118.832L65.9355 118.792L65.9553 118.398Z" fill="black"/>
<path d="M69.76 118.537L71.6529 118.596V118.951L69.7402 118.892L69.76 118.537Z" fill="black"/>
<path d="M73.5666 118.675L75.4595 118.754V119.089L73.5469 119.01L73.5666 118.675Z" fill="black"/>
<path d="M77.3732 118.832L79.2662 118.911L79.2465 119.226L77.3535 119.148L77.3732 118.832Z" fill="black"/>
<path d="M81.1779 119.01L83.0709 119.109L83.0511 119.405L81.1582 119.326L81.1779 119.01Z" fill="black"/>
<path d="M84.9826 119.226L86.8755 119.325L86.8558 119.621L84.9629 119.502L84.9826 119.226Z" fill="black"/>
<path d="M88.7697 119.463L90.6824 119.601L90.6627 119.858L88.75 119.739L88.7697 119.463Z" fill="black"/>
<path d="M92.5744 119.758L94.4673 119.936L94.4476 120.172L92.5547 120.015L92.5744 119.758Z" fill="black"/>
<path d="M96.3615 120.133L98.2545 120.37L98.2347 120.587L96.3418 120.37L96.3615 120.133Z" fill="black"/>
<path d="M100.147 120.646L102.02 121.001L101.981 121.198L100.107 120.863L100.147 120.646Z" fill="black"/>
<path d="M103.874 121.514C104.169 121.612 104.465 121.75 104.761 121.908C104.899 121.987 105.037 122.086 105.175 122.184C105.313 122.283 105.431 122.381 105.55 122.5L105.431 122.618C105.313 122.519 105.195 122.421 105.076 122.322C104.958 122.224 104.82 122.145 104.682 122.066C104.406 121.908 104.11 121.81 103.814 121.691L103.874 121.514Z" fill="black"/>
<path d="M106.377 124.195C106.397 124.53 106.338 124.845 106.239 125.161C106.141 125.476 106.003 125.752 105.825 126.028L105.707 125.949C106.023 125.417 106.239 124.806 106.22 124.195H106.377Z" fill="black"/>
<path d="M104.662 127.546C104.228 128 103.755 128.433 103.262 128.847L103.203 128.768C103.676 128.354 104.15 127.921 104.583 127.467L104.662 127.546Z" fill="black"/>
<path d="M101.744 130.011L100.166 131.076L100.127 131.017L101.704 129.932L101.744 130.011Z" fill="black"/>
<path d="M98.5901 132.08L97.7619 132.554L97.7422 132.534L98.5506 132.041L98.5901 132.08Z" fill="black"/>
<path d="M72.0516 138.526C52.9645 130.344 38.9449 124.311 38.9054 124.292C38.866 124.272 38.8068 124.233 38.8068 124.233C36.8153 123.089 35.8886 121.177 35.5731 120.526C35.2379 119.797 34.3308 117.904 34.7449 115.676C34.7646 115.597 34.7843 115.518 34.7843 115.518C34.8238 115.361 60.8714 64.259 49.4743 50.1627C48.8039 49.3544 47.5223 48.0334 45.0575 47.028C44.8011 47.0082 44.3871 46.9491 44.0321 46.6731C43.4209 46.1999 43.3223 45.4508 43.2434 44.7607C43.1843 44.2876 43.066 42.9666 43.7758 41.4683C43.7758 41.4683 44.3082 40.3839 46.0434 38.9842C46.28 38.8067 46.5955 38.5702 47.0096 38.5899C47.1673 38.5899 47.3054 38.649 47.3842 38.6687C50.1645 35.8297 53.7532 31.3347 55.6658 25.0061C56.0996 23.6063 56.3954 22.246 56.6123 20.9842C57.0461 20.8068 57.5193 20.6491 58.032 20.5111C60.3588 19.8999 62.4489 20.1759 63.8291 20.5111C82.4825 28.476 96.1472 34.6271 99.8147 36.5198C100.603 36.9338 102.141 37.7618 103.226 39.4771C104.527 41.5274 104.527 43.775 104.409 45.1156C103.068 50.8527 101.727 56.5701 100.387 62.3072C100.761 62.3467 101.333 62.4847 101.806 62.9184C102.733 63.7662 102.575 65.1659 102.477 65.9743C102.398 66.7431 101.984 68.8921 100.111 70.0356C99.4992 70.4102 98.9077 70.5679 98.5133 70.6467C93.5838 91.604 88.674 112.541 83.7444 133.499C83.6853 134.07 83.4881 134.958 82.8571 135.766C82.5614 136.16 82.0684 136.653 79.8797 137.481C77.4741 138.408 75.6009 139.098 73.1953 138.763C72.722 138.704 72.3079 138.605 72.0516 138.526Z" fill="#5869DD"/>
<path d="M70.8282 138.112C43.9918 126.5 35.6313 122.774 34.4285 122.103C34.3693 122.064 34.3299 122.044 34.3299 122.044C32.3778 120.94 31.4511 119.087 31.1356 118.436C30.8004 117.727 29.8933 115.873 30.3074 113.724C30.3271 113.646 30.3271 113.586 30.3468 113.567C41.665 61.4397 44.6425 49.6303 50.5776 25.9918C50.7945 25.1244 51.3269 23.1528 53.0227 21.9699C55.2508 20.4321 57.6367 21.0828 57.9522 21.1813C69.9606 26.465 81.9689 31.7487 93.997 37.0126C94.5294 37.19 96.6786 37.9589 97.9997 40.2656C99.242 42.4343 98.9462 44.5438 98.8476 45.1155L78.3013 133.538C78.2225 133.913 77.6703 136.219 75.4028 137.521C73.3126 138.723 71.2422 138.23 70.8282 138.112Z" fill="url(#paint0_linear_2493_10323)"/>
<path d="M70.8282 138.112C43.9918 126.5 35.6313 122.774 34.4285 122.103C34.3693 122.064 34.3299 122.044 34.3299 122.044C32.3778 120.94 31.4511 119.087 31.1356 118.436C30.8004 117.727 29.8933 115.873 30.3074 113.724C30.3271 113.646 30.3271 113.586 30.3468 113.567C41.665 61.4397 44.6425 49.6303 50.5776 25.9918C50.7945 25.1244 51.3269 23.1528 53.0227 21.9699C55.2508 20.4321 57.6367 21.0828 57.9522 21.1813C69.9606 26.465 81.9689 31.7487 93.997 37.0126C94.5294 37.19 96.6786 37.9589 97.9997 40.2656C99.242 42.4343 98.9462 44.5438 98.8476 45.1155L78.3013 133.538C78.2225 133.913 77.6704 136.219 75.4028 137.521C73.3126 138.723 71.2422 138.23 70.8282 138.112Z" stroke="black" stroke-width="0.866693" stroke-miterlimit="10"/>
<path d="M98.5518 70.6464C92.2814 97.5379 84.0196 132.946 83.5069 134.583C83.3097 135.233 82.9153 135.766 82.9153 135.766C82.2055 136.712 81.2196 137.067 79.9379 137.481C76.6055 138.526 74.9492 139.038 73.076 138.743C72.0901 138.585 71.3211 138.309 70.8281 138.112" stroke="black" stroke-width="0.866219" stroke-miterlimit="10"/>
<path d="M53.9297 21.4967C54.9156 20.9644 56.079 20.787 58.4057 20.4321C60.1015 20.1758 60.9888 20.0378 62.0338 20.1561C63.3747 20.2941 64.4395 20.7081 65.1493 21.0236C81.9294 28.6139 94.2533 34.213 98.8279 36.086C99.656 36.4211 101.864 37.3083 103.264 39.4967C104.605 41.6062 104.586 44.0115 104.408 45.569C103.501 49.4529 102.141 55.3477 100.524 62.2677" stroke="black" stroke-width="0.866219" stroke-miterlimit="10"/>
<path d="M82.1661 80.2087C70.8873 75.1616 59.6085 70.1342 48.3495 65.0871C48.2312 65.0477 47.7974 64.8505 47.541 64.3577C47.3241 63.9239 47.3636 63.5296 47.3833 63.3916L54.2255 33.9371C54.2452 33.8386 54.3635 33.4048 54.7973 33.1485C55.1325 32.9317 55.4875 32.9514 55.586 32.9711C58.2874 34.154 88.7914 47.5406 89.6393 48.2504C90.0533 48.5855 90.2505 48.9995 90.2505 48.9995C90.2505 48.9995 90.428 49.3938 90.4477 49.8473C90.4871 50.9513 84.1576 77.2514 83.6844 79.2623C83.5464 79.9524 82.8562 80.3664 82.1661 80.2087Z" stroke="black" stroke-width="0.866219" stroke-miterlimit="10"/>
<path d="M82.4221 79.3014C71.4194 74.3924 60.3969 69.4833 49.3942 64.5742C49.2759 64.5348 48.8618 64.3376 48.6055 63.8645C48.3886 63.4504 48.428 63.0561 48.4478 62.9378L55.0928 34.3311C55.1125 34.2326 55.2308 33.8185 55.6449 33.5622C55.9801 33.3651 56.3153 33.3651 56.4139 33.3848C59.0364 34.5283 88.8502 47.5797 89.6784 48.2698C90.0727 48.5852 90.2699 48.9992 90.2699 48.9992C90.2699 48.9992 90.4474 49.3738 90.4671 49.8273C90.5065 50.8919 84.3742 76.4427 83.901 78.3945C83.7629 79.0451 83.0925 79.4592 82.4221 79.3014Z" fill="#EDEAE2" stroke="black" stroke-width="0.866219" stroke-miterlimit="10"/>
<path d="M47.6596 97.9328C47.2456 99.6874 46.8315 101.442 46.4174 103.197C46.3583 103.414 46.1413 103.552 45.9442 103.492L42.7696 102.172C42.671 102.073 42.5329 101.915 42.4738 101.698C42.4146 101.482 42.4738 101.284 42.4935 101.205C43.0456 99.096 43.7949 96.2767 43.7949 96.2767C43.3217 96.0401 42.8287 95.8233 42.3555 95.5867" stroke="black" stroke-width="0.866219" stroke-miterlimit="10"/>
<path d="M44.7598 91.7617C45.1936 89.9479 45.6076 88.1143 46.0414 86.3006C46.1006 86.0837 46.3175 85.9457 46.5147 86.0048L49.6893 87.3257C49.709 87.3257 49.709 87.3455 49.7287 87.3455C49.9062 87.444 49.9851 87.72 49.9654 87.9369C49.9654 87.9566 49.9654 87.9566 49.9654 87.9763C49.9456 88.1143 49.709 89.1198 48.7428 93.2403" stroke="black" stroke-width="0.866219" stroke-miterlimit="10"/>
<path d="M48.7638 98.3864C48.0342 101.462 47.4821 103.709 47.3243 104.064C47.3046 104.123 47.2257 104.301 47.0483 104.38C46.8314 104.498 46.6145 104.399 46.5948 104.399C45.4314 103.926 44.268 103.433 43.1244 102.96C43.0849 102.941 42.9666 102.881 42.9075 102.783C42.8089 102.605 42.868 102.369 42.9075 102.231" stroke="black" stroke-width="0.866219" stroke-miterlimit="10"/>
<path d="M46.5156 85.9261C46.5551 85.7093 46.6142 85.5121 46.6537 85.2953C46.6734 85.2558 46.7128 85.1573 46.8311 85.0784C46.9691 84.9798 47.1269 84.9995 47.1466 84.9995C48.3888 85.5318 49.6114 86.0839 50.8536 86.6162C50.9128 86.6556 51.0508 86.7345 51.1297 86.9316C51.1888 87.0696 51.1888 87.2076 51.1888 87.2668C50.755 89.12 50.3212 90.9732 49.9071 92.8067C50.5184 93.0433 53.4564 94.2262 53.7719 94.4037C53.831 94.4431 53.8902 94.4628 53.8902 94.4628C54.0085 94.5417 54.186 94.66 54.3043 94.8571C54.3437 94.9163 54.4817 95.1331 54.462 95.3894C54.462 95.488 54.4423 95.5471 54.4423 95.5669C54.1268 96.9272 53.8508 98.2876 53.5156 99.6282C53.5156 99.6676 53.4958 99.7662 53.417 99.8451C53.2592 100.042 52.9635 100.042 52.8649 100.042C52.7466 100.042 52.648 100.022 52.4705 99.9831C52.2733 99.9239 52.017 99.8451 51.7212 99.7071" stroke="black" stroke-width="0.866219" stroke-miterlimit="10"/>
<path d="M46.2402 86.0247C46.7923 85.7683 47.3247 85.5317 47.8768 85.2754" stroke="black" stroke-width="0.866219" stroke-miterlimit="10"/>
<path d="M49.9277 87.5626C50.3418 87.3457 50.7559 87.1091 51.17 86.8922" stroke="black" stroke-width="0.866219" stroke-miterlimit="10"/>
<path d="M45.1348 72.2038C45.5686 72.0461 46.0024 71.8883 46.4362 71.7306" stroke="black" stroke-width="0.866219" stroke-miterlimit="10"/>
<path d="M53.1797 95.5071C53.5938 95.3494 54.0079 95.2113 54.4219 95.0536" stroke="black" stroke-width="0.866219" stroke-miterlimit="10"/>
<path d="M48.7832 93.2013C49.1776 93.0633 49.5916 92.9253 49.986 92.7872" stroke="black" stroke-width="0.866219" stroke-miterlimit="10"/>
<path d="M40.2461 89.6324C40.7588 89.4155 41.2517 89.1986 41.7644 88.9817" stroke="black" stroke-width="0.866219" stroke-miterlimit="10"/>
<path d="M46.2207 103.473C46.4968 103.71 46.7728 103.966 47.0489 104.202" stroke="black" stroke-width="0.866219" stroke-miterlimit="10"/>
<path d="M43.7757 96.2763C41.4095 95.1723 39.7137 94.3442 39.4771 94.2259C39.4377 94.2062 39.3194 94.1471 39.2602 94.0288C39.1814 93.8908 39.2208 93.7528 39.2208 93.7133C39.5166 92.4713 39.7926 91.2292 40.0884 89.9872C40.0884 89.9674 40.1278 89.8294 40.2659 89.7506C40.4039 89.6717 40.5419 89.7112 40.5813 89.7112C41.9813 90.3618 43.3813 91.0321 44.7813 91.6827C44.8405 91.4067 44.8996 91.1306 44.9785 90.8546" stroke="black" stroke-width="0.866219" stroke-miterlimit="10"/>
<path d="M49.0005 92.1752C48.9217 92.53 48.8428 92.8849 48.7442 93.2398C51.0118 94.3241 52.6484 95.1324 52.885 95.231C52.9244 95.2507 53.0427 95.3099 53.1019 95.4282C53.1808 95.5662 53.1413 95.7042 53.1413 95.7436C52.8456 96.9857 52.5695 98.2277 52.2737 99.4698C52.2737 99.4895 52.2343 99.6275 52.0963 99.7064C51.9582 99.7852 51.8202 99.7458 51.7808 99.7458C50.4005 99.1346 49.0202 98.5432 47.6597 97.932C47.6005 98.1686 47.5611 98.3855 47.502 98.622" stroke="black" stroke-width="0.866219" stroke-miterlimit="10"/>
<path d="M44.3474 62.6819C43.8939 62.5833 43.5981 62.1101 43.6967 61.6567L50.4995 32.4191C50.5981 31.9656 51.0713 31.6699 51.5248 31.7685C51.9783 31.8671 52.2741 32.3402 52.1755 32.7937L45.3728 62.0313C45.2742 62.5044 44.8009 62.8002 44.3474 62.6819Z" stroke="black" stroke-width="0.866219" stroke-miterlimit="10"/>
<path d="M50.439 75.8909L50.3602 76.088C50.0052 76.9161 49.039 77.2906 48.2109 76.9358L44.8391 75.4768C44.0109 75.122 43.6363 74.1559 43.9912 73.3279L44.0701 73.1307C44.425 72.3027 45.3912 71.9281 46.2193 72.283L49.5911 73.7419C50.4193 74.0968 50.794 75.0628 50.439 75.8909Z" stroke="black" stroke-width="0.866219" stroke-miterlimit="10"/>
<path d="M44.543 72.5002C44.6218 72.3622 44.8585 71.9481 45.3514 71.751C45.6275 71.6327 45.8838 71.6327 45.943 71.6327C46.1401 71.6327 46.3373 71.6721 46.5345 71.7707C47.757 72.2833 48.9598 72.7959 50.1824 73.3282C50.3795 73.4268 50.8922 73.7028 51.188 74.2942C51.3654 74.6688 51.3852 74.9843 51.4049 75.0631C51.4049 75.2011 51.4049 75.4377 51.326 75.7532C51.2274 76.0686 50.9119 77.2121 50.1035 77.3895C49.7091 77.4881 49.2556 77.3107 48.9204 77.1924C48.7429 77.1332 48.5852 77.0544 48.4866 76.9952" stroke="black" stroke-width="0.866219" stroke-miterlimit="10"/>
<path d="M65.6035 81.3126C66.0373 81.1548 66.4711 80.9971 66.9049 80.8394" stroke="black" stroke-width="0.866219" stroke-miterlimit="10"/>
<path d="M70.9078 84.9799L70.8289 85.177C70.474 86.005 69.5078 86.3796 68.6796 86.0248L65.3078 84.5658C64.4797 84.211 64.105 83.2449 64.4599 82.4169L64.5388 82.2197C64.8937 81.3917 65.8599 81.0171 66.6881 81.372L70.0599 82.8309C70.8881 83.1858 71.2627 84.1715 70.9078 84.9799Z" stroke="black" stroke-width="0.866219" stroke-miterlimit="10"/>
<path d="M65.0117 81.6087C65.0906 81.4707 65.3272 81.0567 65.8202 80.8595C66.0962 80.7412 66.3526 80.7412 66.4117 80.7412C66.6089 80.7412 66.8061 80.7806 67.0033 80.8792C68.2258 81.3918 69.4286 81.9044 70.6511 82.4367C70.8483 82.5353 71.361 82.8113 71.6567 83.4028C71.8342 83.7773 71.8539 84.0928 71.8736 84.1717C71.8736 84.3097 71.8736 84.5462 71.7948 84.8617C71.6962 85.1771 71.3807 86.3206 70.5722 86.498C70.1779 86.5966 69.7244 86.4192 69.3891 86.3009C69.2117 86.2417 69.0539 86.1629 68.9553 86.1037" stroke="black" stroke-width="0.866219" stroke-miterlimit="10"/>
<path d="M76.1523 85.9058C76.5861 85.748 77.0199 85.5903 77.4537 85.4326" stroke="black" stroke-width="0.866219" stroke-miterlimit="10"/>
<path d="M81.4351 89.5935L81.3562 89.7907C81.0013 90.6187 80.0351 90.9933 79.207 90.6384L75.8352 89.1795C75.007 88.8246 74.6324 87.8586 74.9873 87.0305L75.0662 86.8334C75.4211 86.0053 76.3873 85.6308 77.2154 85.9856L80.5872 87.4445C81.4154 87.7994 81.79 88.7655 81.4351 89.5935Z" stroke="black" stroke-width="0.866219" stroke-miterlimit="10"/>
<path d="M75.5391 86.2022C75.6179 86.0642 75.8546 85.6502 76.3475 85.453C76.6236 85.3347 76.8799 85.3347 76.9391 85.3347C77.1362 85.3347 77.3334 85.3741 77.5306 85.4727C78.7531 85.9853 79.9559 86.4979 81.1784 87.0302C81.3756 87.1288 81.8883 87.4048 82.1841 87.9963C82.3615 88.3709 82.3813 88.6863 82.401 88.7652C82.401 88.9032 82.401 89.1397 82.3221 89.4552C82.2235 89.7706 81.908 90.9141 81.0996 91.0916C80.7052 91.1901 80.2517 91.0127 79.9165 90.8944C79.739 90.8353 79.5813 90.7564 79.4827 90.6972" stroke="black" stroke-width="0.866219" stroke-miterlimit="10"/>
<path d="M86.1501 81.4115C85.6966 81.3129 85.4009 80.8398 85.4994 80.3863L92.3022 51.1487C92.4008 50.6952 92.874 50.3995 93.3275 50.4981C93.7811 50.5967 94.0768 51.0698 93.9782 51.5233L87.1755 80.7609C87.0769 81.2341 86.6037 81.5298 86.1501 81.4115Z" stroke="black" stroke-width="0.866219" stroke-miterlimit="10"/>
<path d="M92.8741 50.5962C92.9924 50.5568 93.1699 50.4779 93.4065 50.4779C93.4853 50.4779 93.5839 50.4582 93.722 50.4976C93.9586 50.537 94.2741 50.6948 94.4515 50.9905C94.7079 51.3848 94.6093 51.7791 94.5896 51.858C89.3643 74.5895 87.984 80.4055 87.8657 80.7604C87.846 80.7998 87.8262 80.8393 87.8262 80.8393C87.7277 81.0758 87.5305 81.2927 87.2939 81.4307C87.1953 81.4899 86.8798 81.6673 86.4854 81.6279C86.3474 81.6081 86.2291 81.5687 86.1699 81.549C86.3474 81.549 86.5643 81.5096 86.7417 81.3913C87.0572 81.1744 87.1164 80.7604 87.1361 80.6815C87.2939 79.7943 93.5248 55.7418 93.8797 51.6608C93.8994 51.5031 93.9191 51.1679 93.7022 50.9313C93.5051 50.6356 93.1699 50.5962 92.8741 50.5962Z" fill="black"/>
<path d="M51.2296 31.6696C51.3479 31.6302 51.545 31.5513 51.7619 31.5513C51.8408 31.5513 51.9394 31.5316 52.0774 31.571C52.3141 31.6105 52.6295 31.7682 52.807 32.0639C53.0633 32.4582 52.9647 32.8525 52.945 32.9314C47.7197 55.663 46.3395 61.479 46.2212 61.8338C46.2014 61.8733 46.1817 61.9127 46.1817 61.9127C46.0831 62.1493 45.8859 62.3661 45.6493 62.5041C45.5507 62.5633 45.2352 62.7407 44.8409 62.7013C44.7029 62.6816 44.5845 62.6421 44.5254 62.6224C44.7029 62.6224 44.9198 62.583 45.0972 62.4647C45.4127 62.2478 45.4719 61.8338 45.4916 61.755C45.6099 61.1044 48.3901 49.1767 52.2352 32.7342C52.2549 32.6948 52.3141 32.3005 52.0577 32.0048C51.8803 31.7288 51.5648 31.6105 51.2296 31.6696Z" fill="black"/>
<path d="M71.8936 106.962C71.9725 108.362 73.0767 110.077 74.3781 109.899C75.4231 109.761 76.1527 108.44 76.2907 107.395C76.5076 105.858 75.6006 104.241 74.457 104.004C74.1809 103.945 73.6485 103.906 73.1161 104.221C72.702 104.478 72.4654 104.832 72.3274 105.049C72.3274 105.109 71.8344 105.937 71.8936 106.962Z" stroke="black" stroke-width="0.866219" stroke-miterlimit="10"/>
<path d="M75.7968 103.847C75.2447 103.867 74.7123 103.906 74.1602 103.926" stroke="black" stroke-width="0.866219" stroke-miterlimit="10"/>
<path d="M75.8953 109.86C75.3826 109.86 74.8896 109.88 74.377 109.88" stroke="black" stroke-width="0.866219" stroke-miterlimit="10"/>
<path d="M73.0352 104.261C73.4887 103.808 74.0408 103.492 74.6323 103.492C76.2492 103.472 77.6098 105.621 77.3731 107.455C77.1957 108.697 76.2492 110.116 75.0267 110.215C74.5732 110.254 74.1197 110.097 73.6859 109.821" stroke="black" stroke-width="0.866219" stroke-miterlimit="10"/>
<path d="M68.0889 97.7549C68.1678 99.1547 69.272 100.87 70.5734 100.692C71.6185 100.554 72.348 99.2336 72.4861 98.1887C72.703 96.6509 71.7959 95.0343 70.6523 94.7977C70.3762 94.7385 69.8438 94.6991 69.3114 95.0145C68.8974 95.2708 68.6607 95.6257 68.5227 95.8426C68.5227 95.9017 68.0298 96.7298 68.0889 97.7549Z" stroke="black" stroke-width="0.866219" stroke-miterlimit="10"/>
<path d="M71.9921 94.6598C71.44 94.6795 70.9076 94.7189 70.3555 94.7387" stroke="black" stroke-width="0.866219" stroke-miterlimit="10"/>
<path d="M72.0886 100.673C71.5759 100.673 71.083 100.693 70.5703 100.693" stroke="black" stroke-width="0.866219" stroke-miterlimit="10"/>
<path d="M69.2324 95.0534C69.6859 94.5999 70.238 94.2845 70.8296 94.2845C72.4465 94.2648 73.807 96.4137 73.5704 98.2473C73.3929 99.4893 72.4465 100.909 71.224 101.007C70.7704 101.047 70.3169 100.889 69.8831 100.613" stroke="black" stroke-width="0.866219" stroke-miterlimit="10"/>
<path d="M52.9644 77.7444C53.0433 78.6315 53.7926 79.7159 54.6602 79.6173C55.3503 79.5384 55.8235 78.7104 55.9221 78.0598C56.0601 77.0938 55.4292 76.0686 54.6602 75.8911C54.4827 75.8517 54.108 75.832 53.7728 76.0094C53.4968 76.1671 53.339 76.384 53.2602 76.522C53.2207 76.5812 52.9052 77.1135 52.9644 77.7444Z" stroke="black" stroke-width="0.866219" stroke-miterlimit="10"/>
<path d="M55.5474 75.832C55.1925 75.8517 54.8178 75.8517 54.4629 75.8714" stroke="black" stroke-width="0.866219" stroke-miterlimit="10"/>
<path d="M55.6658 79.6369C55.3306 79.6369 54.9954 79.6369 54.6602 79.6369" stroke="black" stroke-width="0.866219" stroke-miterlimit="10"/>
<path d="M53.6934 76.0684C53.9891 75.7924 54.3638 75.5953 54.7581 75.5953C55.8426 75.5953 56.7694 76.9753 56.6314 78.1188C56.5328 78.9074 55.9018 79.7749 55.0736 79.834C54.7581 79.8538 54.4624 79.7552 54.1863 79.5777" stroke="black" stroke-width="0.866219" stroke-miterlimit="10"/>
<path d="M61.0479 102.073C61.1268 103.472 62.231 105.188 63.5324 105.01C64.5774 104.872 65.307 103.551 65.445 102.506C65.6619 100.969 64.7549 99.352 63.6113 99.1154C63.3352 99.0563 62.8028 99.0168 62.2704 99.3323C61.8563 99.5886 61.6197 99.9434 61.4817 100.16C61.4817 100.219 60.9887 101.048 61.0479 102.073Z" stroke="black" stroke-width="0.866219" stroke-miterlimit="10"/>
<path d="M64.9511 98.9578C64.399 98.9775 63.8666 99.0169 63.3145 99.0366" stroke="black" stroke-width="0.866219" stroke-miterlimit="10"/>
<path d="M65.0495 104.97C64.5369 104.97 64.0439 104.99 63.5312 104.99" stroke="black" stroke-width="0.866219" stroke-miterlimit="10"/>
<path d="M62.1934 99.3716C62.6469 98.9181 63.199 98.6027 63.7905 98.6027C65.4074 98.583 66.768 100.732 66.5313 102.565C66.3539 103.807 65.4074 105.227 64.1849 105.326C63.7314 105.365 63.2779 105.207 62.8441 104.931" stroke="black" stroke-width="0.866219" stroke-miterlimit="10"/>
<path d="M64.9717 111.181C65.0506 112.581 66.1548 114.296 67.4562 114.119C68.5013 113.981 69.2308 112.66 69.3689 111.615C69.5858 110.077 68.6787 108.461 67.5351 108.224C67.259 108.165 66.7266 108.126 66.1942 108.441C65.7802 108.697 65.5435 109.052 65.4055 109.269C65.4055 109.328 64.9126 110.156 64.9717 111.181Z" stroke="black" stroke-width="0.866219" stroke-miterlimit="10"/>
<path d="M68.8768 108.085C68.3247 108.105 67.7923 108.145 67.2402 108.164" stroke="black" stroke-width="0.866219" stroke-miterlimit="10"/>
<path d="M68.9734 114.099C68.4607 114.099 67.9677 114.119 67.4551 114.119" stroke="black" stroke-width="0.866219" stroke-miterlimit="10"/>
<path d="M66.1152 108.48C66.5688 108.027 67.1209 107.711 67.7124 107.711C69.3293 107.691 70.6898 109.84 70.4532 111.674C70.2758 112.916 69.3293 114.335 68.1068 114.434C67.6532 114.473 67.1997 114.316 66.7659 114.04" stroke="black" stroke-width="0.866219" stroke-miterlimit="10"/>
<path d="M45.0766 90.4801C44.9385 90.421 41.7442 88.9423 41.2315 88.7649C41.1921 88.7452 41.0935 88.7255 40.9752 88.7255C40.7189 88.7452 40.5217 88.9423 40.4034 89.1198C40.3837 89.1592 40.3639 89.1986 40.3442 89.2381C40.2654 89.3958 40.1865 89.6718 40.0879 90.0661" stroke="black" stroke-width="0.866219" stroke-miterlimit="10"/>
<path d="M98.2366 66.1512C97.7437 67.4918 97.7831 69.3648 98.5324 69.6999C99.0648 69.9365 99.9916 69.2859 100.425 68.8325C100.603 68.6353 100.761 68.4185 100.839 68.3199C100.859 68.2804 101.254 67.7481 101.47 67.1764C101.786 66.3878 102.2 64.6331 101.352 63.8642C101.273 63.7854 101.135 63.6671 100.918 63.6277C99.9916 63.3714 98.7296 64.8106 98.2366 66.1512Z" stroke="black" stroke-width="0.866219" stroke-miterlimit="10"/>
<path d="M97.5072 65.8951C96.8565 67.6104 96.9354 70.0748 98.0199 70.5676C98.7889 70.9028 99.9917 70.2522 100.544 69.779C100.978 69.4242 101.372 68.8524 101.392 68.8327C101.471 68.7341 101.648 68.4581 101.845 68.0638C101.845 68.0638 102.082 67.5906 102.22 67.0978C102.318 66.7823 103.147 64.0419 101.845 62.9182C101.727 62.8196 101.53 62.6619 101.234 62.583C99.8931 62.2675 98.1776 64.1405 97.5072 65.8951Z" stroke="black" stroke-width="0.866219" stroke-miterlimit="10"/>
<path d="M101.392 62.6424C100.801 62.3664 100.288 62.1495 99.8345 61.9721C99.1049 61.6763 98.7105 61.5383 98.1979 61.4398C98.1782 61.4398 98.1782 61.4398 98.1782 61.4398C98.1782 61.4398 97.981 61.4003 97.7641 61.4398C97.0148 61.5581 96.4232 62.1101 96.4232 62.1101C95.9697 62.5044 94.8655 63.707 94.4317 65.8165C94.2542 66.684 93.9782 68.0641 94.7472 69.0104C94.8458 69.1287 94.9247 69.2075 95.0035 69.2667C95.2007 69.4244 95.3585 69.5033 95.4571 69.5427C95.7528 69.6807 96.719 70.075 98.0401 70.5679" stroke="black" stroke-width="0.866219" stroke-miterlimit="10"/>
<path d="M45.3313 47.1266C44.8581 46.9886 44.5031 46.8703 44.4045 46.8506C44.3848 46.8506 44.3059 46.8308 44.2271 46.7717C44.2271 46.7717 44.2074 46.752 44.1876 46.7323C43.044 45.7071 43.182 43.5384 43.5961 42.1978C44.4243 39.4377 46.8102 38.6096 46.8496 38.6096C46.9285 38.6096 47.0073 38.6096 47.0073 38.6096C47.1256 38.6293 47.2637 38.6688 47.382 38.6885" stroke="black" stroke-width="0.866219" stroke-miterlimit="10"/>
<path d="M49.3742 90.283C49.2953 90.4999 49.2164 90.7167 49.2164 90.9533C49.2164 91.0519 49.2164 91.1307 49.2164 91.2293C49.2164 91.4659 49.1179 91.6828 49.0587 91.9193C48.9207 92.3531 48.8812 92.8065 48.8418 93.2797C48.9601 93.3388 49.0981 93.26 49.2164 93.2008C49.3742 93.1023 49.5122 93.0234 49.67 92.9248C49.7488 92.8657 49.8474 92.8065 49.9066 92.7277C49.9854 92.6488 50.0249 92.5502 50.0643 92.4517C50.5376 91.2687 50.7742 90.007 50.9911 88.7452C51.0699 88.2918 51.1488 87.858 51.2277 87.4046C51.2474 87.2666 51.2474 87.0891 51.1291 87.0497C50.9319 86.9708 50.4587 87.306 50.3009 87.444C50.1038 87.6214 50.0052 87.8777 49.9066 88.1143C49.6502 88.7846 49.5714 89.5535 49.3742 90.283Z" fill="black"/>
<path d="M52.7266 97.716C52.7266 97.716 52.5689 97.992 52.5689 98.2286C52.5689 98.3074 52.5689 98.3666 52.5689 98.4454C52.5689 98.6229 52.4112 98.9777 52.4112 98.9777C52.1943 99.4312 52.2534 100.003 52.3717 100.042C52.4112 100.062 52.4506 99.9832 52.5492 99.9832C52.6281 99.9832 52.6675 100.023 52.7464 100.062C52.8844 100.101 53.0027 100.082 53.1013 100.062C53.1013 100.062 53.2788 100.023 53.4562 99.8846C53.9295 99.4903 53.7126 97.5977 54.3435 96.4936C54.383 96.4345 54.6393 95.981 54.5801 95.4487C54.5604 95.2516 54.521 95.1924 54.4816 95.153C54.2449 94.9558 53.5745 95.2318 53.2393 95.705C53.1407 95.8233 53.121 95.9416 53.0421 96.1585C52.7464 96.9668 52.9238 97.3414 52.7266 97.716Z" fill="black"/>
<path d="M47.0079 101.008C46.9291 101.225 46.8502 101.442 46.8502 101.678C46.8502 101.777 46.8502 101.856 46.8502 101.954C46.8502 102.21 46.6924 102.644 46.6924 102.644C46.6136 102.861 46.4953 103.177 46.377 103.63C46.4755 103.768 46.9488 104.419 47.1854 104.32C47.2643 104.281 47.3037 104.162 47.3826 103.945C47.4615 103.709 47.4417 103.63 47.5206 103.433C47.5798 103.275 47.6389 103.196 47.6784 103.157C48.0333 102.605 48.1319 100.968 48.6051 99.4504C48.7037 99.1152 48.8417 98.7603 48.6643 98.5238C48.4671 98.2675 47.915 98.1492 47.915 98.1492C47.915 98.1492 47.5995 98.6223 47.5206 98.8195C47.284 99.5095 47.1854 100.278 47.0079 101.008Z" fill="black"/>
<path d="M98.3154 69.5428C98.4731 69.6217 98.7295 69.7203 99.0252 69.7203C99.8928 69.7203 100.504 68.8922 100.879 68.3599C100.879 68.3599 102.003 66.8221 101.766 64.9689C101.727 64.614 101.569 64.3577 101.569 64.3577C101.451 64.1606 101.313 64.0029 101.234 63.924C101.194 63.924 101.155 63.924 101.096 63.9043C101.135 64.1212 101.589 66.5461 99.952 68.0839C99.3407 68.6557 98.6703 68.912 98.2168 69.0302C98.2562 69.188 98.2957 69.3654 98.3154 69.5428Z" fill="black"/>
<path d="M65.5422 101.699C65.345 101.817 65.4436 102.152 65.3647 102.724C65.3647 102.724 65.4042 102.98 65.1873 103.453C64.8521 104.183 64.0042 104.616 63.7676 105.366C64.5366 105.287 65.1084 105.03 65.3845 104.774C65.5619 104.616 65.6802 104.439 65.6802 104.439C65.7788 104.281 65.8577 104.124 65.9563 103.946C66.0746 103.729 66.2323 103.532 66.3507 103.315C66.6859 102.665 66.8239 101.758 66.5478 101.6C66.4492 101.541 66.3901 101.639 66.0352 101.679C65.7 101.718 65.6408 101.639 65.5422 101.699Z" fill="black"/>
<path d="M72.4824 97.4008C72.3049 97.5388 72.4232 97.8543 72.4035 98.426C72.4035 98.426 72.4627 98.6823 72.2852 99.1752C72.0289 99.9441 71.2204 100.437 71.043 101.206C71.7923 101.068 72.3444 100.752 72.6007 100.476C72.7584 100.299 72.8768 100.102 72.8768 100.102C72.9753 99.9441 73.0345 99.7667 73.0937 99.5892C73.1922 99.3724 73.3303 99.1555 73.4289 98.9386C73.7049 98.2683 73.7641 97.3417 73.4683 97.2234C73.3697 97.184 73.3106 97.2826 72.9556 97.3417C72.6599 97.4008 72.581 97.3417 72.4824 97.4008Z" fill="black"/>
<path d="M76.3087 106.686C76.1312 106.805 76.2298 107.12 76.1706 107.692C76.1706 107.692 76.2101 107.948 76.0129 108.421C75.7171 109.151 74.8692 109.584 74.6523 110.334C75.4016 110.235 75.9932 109.979 76.2495 109.722C76.4073 109.565 76.5453 109.387 76.5453 109.387C76.6439 109.23 76.703 109.072 76.8016 108.914C76.9199 108.697 77.058 108.52 77.1763 108.303C77.4918 107.652 77.5903 106.765 77.3143 106.627C77.2157 106.568 77.1566 106.686 76.8016 106.706C76.4664 106.706 76.4073 106.627 76.3087 106.686Z" fill="black"/>
<path d="M69.4484 111.082C69.2512 111.181 69.3301 111.516 69.2118 112.068C69.2118 112.068 69.2315 112.324 68.9949 112.778C68.6399 113.468 67.7526 113.843 67.4766 114.572C68.2456 114.533 68.8371 114.335 69.1329 114.099C69.3103 113.961 69.4484 113.783 69.4484 113.783C69.5667 113.645 69.6456 113.488 69.7441 113.33C69.8822 113.133 70.0399 112.955 70.1582 112.738C70.5329 112.127 70.7103 111.24 70.4343 111.082C70.3357 111.023 70.2765 111.122 69.9216 111.122C69.6061 111.102 69.547 111.023 69.4484 111.082Z" fill="black"/>
<path d="M49.4926 77.4685C49.5517 77.5079 49.6503 77.5276 49.7292 77.5474C49.9461 77.5868 50.1827 77.6262 50.3799 77.5474C50.4785 77.5079 50.5574 77.4291 50.6362 77.3502C50.8334 77.1728 51.0109 76.9953 51.1292 76.7785C51.1883 76.6602 51.2278 76.5222 51.2475 76.3842C51.3855 75.8321 51.4841 75.2407 51.2672 74.7281C51.2278 74.6295 51.1489 74.5507 51.07 74.5507C51.0109 74.5507 50.9714 74.5901 50.932 74.6098C50.8137 74.6689 50.6757 74.6887 50.5376 74.6689C50.5968 74.9055 50.6362 75.1421 50.6362 75.3787C50.6165 75.9504 50.2616 76.4433 49.8672 76.8573C49.7095 76.9756 49.1968 77.2714 49.4926 77.4685Z" fill="black"/>
<path d="M69.6645 86.4386C69.7237 86.4977 69.8026 86.5372 69.8814 86.5569C70.0786 86.6357 70.2955 86.7343 70.5124 86.6752C70.611 86.6555 70.7096 86.5963 70.7885 86.5372C71.0054 86.3992 71.2223 86.2809 71.38 86.064C71.4589 85.9457 71.518 85.8274 71.5772 85.7091C71.8138 85.1965 72.0307 84.6445 71.9124 84.0925C71.8927 83.9939 71.8335 83.8953 71.7547 83.8756C71.6955 83.8756 71.6561 83.8953 71.5969 83.915C71.4786 83.9545 71.3209 83.9545 71.2025 83.8953C71.2025 84.1319 71.2223 84.3685 71.1631 84.6051C71.0448 85.1571 70.5913 85.5908 70.118 85.9063C69.9603 86.0246 69.4082 86.1823 69.6645 86.4386Z" fill="black"/>
<path d="M80.1531 91.0718C80.2122 91.131 80.2911 91.1507 80.37 91.1901C80.5671 91.269 80.8038 91.3478 81.0009 91.2887C81.0995 91.269 81.1981 91.2098 81.277 91.1507C81.4939 91.0127 81.7108 90.8747 81.8488 90.6578C81.9277 90.5395 81.9868 90.4212 82.0263 90.3029C82.2432 89.7903 82.4404 89.2186 82.3023 88.6666C82.2826 88.568 82.2235 88.4694 82.1249 88.4497C82.0657 88.4497 82.0263 88.4694 81.9671 88.4891C81.8488 88.5286 81.6911 88.5286 81.5728 88.4891C81.5925 88.7257 81.6122 88.9623 81.553 89.1989C81.4545 89.7509 81.0207 90.2044 80.5671 90.5395C80.4488 90.6381 79.8967 90.8352 80.1531 91.0718Z" fill="black"/>
<path d="M66.6582 50.6813C70.2922 50.1694 72.6408 45.5154 71.904 40.2863C71.1672 35.0572 67.624 31.2331 63.99 31.745C60.3561 32.2569 58.0074 36.9109 58.7442 42.14C59.481 47.3691 63.0242 51.1932 66.6582 50.6813Z" fill="#F2EA86" stroke="black" stroke-width="0.866219" stroke-miterlimit="10"/>
<path d="M61.4023 32.971C62.1714 32.2613 63.315 31.4726 64.7544 31.3149C68.6586 30.8812 72.7994 35.2777 73.4896 39.8713C74.1205 43.9524 71.991 48.0925 69.0333 49.9852C68.56 50.2809 68.1262 50.4978 67.8107 50.6161C67.7516 50.6161 67.6924 50.5964 67.6333 50.5964C67.5741 50.5767 67.515 50.5372 67.4558 50.5175C67.8896 50.3203 68.4812 50.0049 69.1121 49.4923C70.4332 48.4277 71.0445 47.1856 71.3206 46.6336C72.9177 43.3412 71.9121 39.7727 71.5769 38.5898C71.2614 37.4858 70.6896 35.534 68.9741 33.7793C68.3431 33.1287 67.5347 32.3204 66.253 31.9655C63.9065 31.2952 61.8361 32.6556 61.4023 32.971Z" fill="black"/>
<path d="M64.4383 35.4363C63.6495 37.4473 62.8805 39.4582 62.0918 41.4889C63.2946 42.1395 64.5171 42.7704 65.7199 43.421C66.6664 42.5535 67.6129 41.686 68.5593 40.8383C67.1988 39.0245 65.8185 37.2304 64.4383 35.4363Z" fill="black"/>
<path d="M62.4668 42.2774C63.6104 43.7955 64.7344 45.3136 65.878 46.8316C66.647 45.1756 67.416 43.4998 68.1851 41.8437C67.3963 42.5732 66.6076 43.3026 65.8189 44.0321C64.6949 43.4603 63.5907 42.8689 62.4668 42.2774Z" fill="black"/>
<path d="M79.505 66.2975C83.165 62.7362 84.1249 57.7871 81.649 55.2434C79.1732 52.6997 74.1991 53.5248 70.5391 57.0862C66.8791 60.6475 65.9192 65.5966 68.3951 68.1403C70.8709 70.684 75.845 69.8589 79.505 66.2975Z" fill="#F2EA86" stroke="black" stroke-width="0.866219" stroke-miterlimit="10"/>
<path d="M79.2083 53.9302C79.7801 54.0288 81.2196 54.3639 82.4224 55.606C83.5857 56.8086 83.8618 58.1887 83.9604 58.7998C84.7491 63.1569 80.7069 66.9225 80.49 67.1196C77.8083 69.5446 73.6478 70.8852 70.2957 69.584C69.7831 69.3869 69.369 69.1503 69.1126 68.9926C69.0732 68.9334 69.0535 68.894 69.014 68.8349C68.9943 68.7757 68.9943 68.7166 68.9746 68.6574C69.3887 68.8743 69.9605 69.17 70.7098 69.3672C72.307 69.7812 73.6084 69.5643 74.1999 69.446C77.6703 68.8151 79.8787 65.9761 80.6083 65.0495C81.2984 64.1821 82.4815 62.6048 82.8759 60.2785C83.0139 59.4307 83.1914 58.3267 82.7379 57.1043C81.9294 54.9159 79.6816 54.0879 79.2083 53.9302Z" fill="black"/>
<path d="M77.334 63.2156C77.8072 63.1367 78.2804 62.9199 78.6551 62.5453C79.5424 61.6581 79.6015 60.2583 78.8523 59.312L79.7198 58.4445L78.9508 57.6559L78.0832 58.5037L77.5509 57.9713L78.4184 57.1236L77.6494 56.335L76.7818 57.1827L75.4607 55.8421L74.4748 56.8082L75.4016 57.7348L71.4185 61.6778L70.4918 60.7512L69.5059 61.7172L70.827 63.0579L69.9594 63.9056L70.7284 64.6942L71.596 63.8465L72.1284 64.3788L71.2608 65.2265L72.0298 66.0151L72.8974 65.1674L73.2326 65.5025C74.1791 66.4489 75.7171 66.4686 76.6635 65.5223C77.3142 64.8914 77.5311 64.0239 77.334 63.2156ZM77.6692 60.0809C78.0832 60.4949 78.0832 61.1652 77.6692 61.5792C77.2551 61.9932 76.5847 61.9932 76.1706 61.5792L74.8495 60.2583L76.348 58.7797L77.6692 60.0809ZM74.2185 64.5365L72.3847 62.6833L73.8833 61.2046L75.2044 62.5256L75.7171 63.0381C76.1311 63.4522 76.1311 64.1225 75.7171 64.5365C75.303 64.9505 74.6326 64.9505 74.2185 64.5365Z" fill="black"/>
<path d="M107.234 15.1744C111.01 12.034 112.304 7.36424 110.124 4.74412C107.945 2.124 103.117 2.54574 99.3407 5.68611C95.5649 8.82648 94.271 13.4963 96.4508 16.1164C98.6305 18.7365 103.459 18.3148 107.234 15.1744Z" fill="#F2EA86" stroke="black" stroke-width="0.866219" stroke-miterlimit="10"/>
<path d="M107.886 3.31335C108.399 3.41193 109.385 3.66823 110.272 4.45683C110.272 4.45683 111.199 5.38345 111.692 6.70436C112.106 7.7887 111.948 10.7065 110.134 13.5455C109.7 14.2158 107.137 18.2377 102.365 18.8489C100.965 19.0264 98.1851 19.3812 96.3907 17.4294C94.202 15.0636 95.3851 11.436 95.4442 11.2586C95.3457 12.1852 95.3062 13.9398 96.2921 15.6353C96.509 16.0296 96.7654 16.3648 97.002 16.6605C97.3766 16.9168 97.909 17.2126 98.6189 17.4689C100.117 17.9814 101.379 17.8632 101.951 17.804C105.323 17.4491 107.65 14.9059 108.419 14.0778C109.148 13.2892 110.41 11.8895 110.943 9.68136C111.14 8.87303 111.396 7.84785 111.041 6.64522C110.41 4.47655 108.34 3.51051 107.886 3.31335Z" fill="black"/>
<path d="M108.478 9.08895V9.06923L108.458 9.04952C107.847 8.41863 107.235 7.80746 106.624 7.17658C106.604 7.15686 106.585 7.15686 106.545 7.15686C104.495 7.13715 102.464 7.13715 100.413 7.11743C100.373 7.11743 100.354 7.11743 100.354 7.17658C100.354 7.78775 100.354 8.3792 100.334 8.99037C100.334 9.0298 100.354 9.04952 100.393 9.04952C103.075 9.06923 105.737 9.08895 108.418 9.10866C108.438 9.06923 108.458 9.08895 108.478 9.08895Z" fill="black"/>
<path d="M102.247 12.0661C102.247 12.0463 102.247 12.0463 102.247 12.0266V12.0069V11.9872C102.247 11.9872 102.247 11.9872 102.247 11.9675V11.9478V11.9281C102.266 11.9083 102.286 11.9281 102.306 11.9281C103.39 11.9281 104.455 11.9478 105.54 11.9478C105.559 11.9478 105.579 11.9478 105.599 11.9478C105.579 11.9281 105.579 11.9281 105.579 11.9281C104.968 11.2972 104.356 10.686 103.745 10.0551C103.725 10.0354 103.706 10.0354 103.666 10.0354C103.213 10.0354 102.759 10.0354 102.306 10.0354C102.286 10.0354 102.286 10.0354 102.266 10.0354C102.247 10.0354 102.247 10.0354 102.227 10.0354C101.616 10.0354 101.004 10.0354 100.413 10.0157C100.373 10.0157 100.354 10.0354 100.354 10.0748C100.354 10.686 100.354 11.2775 100.334 11.8886C100.334 11.9083 100.334 11.9083 100.334 11.9281C100.334 11.9478 100.334 11.9675 100.334 11.9872C100.334 12.0069 100.334 12.0266 100.334 12.0463V12.0661C100.334 12.4998 100.334 12.9138 100.334 13.3475C100.334 13.3673 100.354 13.387 100.373 13.4067C100.985 14.0179 101.596 14.6488 102.207 15.2796C102.207 15.2796 102.227 15.2994 102.247 15.2994C102.247 15.2796 102.247 15.2599 102.247 15.2599C102.227 14.1559 102.247 13.111 102.247 12.0661Z" fill="black"/>
<path d="M110.757 109.033L114.901 105.999L114.346 100.893L110.201 103.927L110.757 109.033Z" fill="black"/>
<path d="M105.495 101.856L106.05 106.961L110.751 109.033L110.195 103.927M105.495 101.856L110.195 103.927M105.495 101.856L109.639 98.8214L114.34 100.893L110.195 103.927M110.757 109.033L114.901 105.999L114.346 100.893L110.201 103.927L110.757 109.033Z" stroke="black" stroke-width="0.728834" stroke-miterlimit="10" stroke-linecap="round" stroke-linejoin="round"/>
<path d="M99.5812 126.243L95.9693 129.857L99.9475 144.681L107.177 137.447L105.852 132.507L102.239 136.122L102.238 136.119L102.233 136.124L99.5812 126.243Z" fill="black"/>
<path d="M99.5874 126.236L94.6428 124.914L91.0249 128.533L95.9649 129.855L99.58 126.238L99.5812 126.243L99.5874 126.236Z" fill="#F1EFED"/>
<path d="M87.4009 132.155L92.3452 133.477L91.0188 128.535L87.4009 132.155Z" fill="#F1EFED"/>
<path d="M105.857 132.502L100.912 131.179L102.238 136.119L105.851 132.504L105.852 132.507L105.857 132.502Z" fill="#F1EFED"/>
<path d="M95.9693 129.857L95.3983 129.704L91.0188 128.535L92.3452 133.477L92.3453 133.478L87.4006 132.155L88.727 137.098L93.6717 138.42L95.004 143.362L99.9444 144.684L99.9475 144.681L95.9693 129.857Z" fill="#F1EFED"/>
<path d="M91.0246 128.534L90.767 128.276C90.6749 128.368 90.6389 128.502 90.6726 128.628C90.7064 128.754 90.8047 128.852 90.9305 128.886L91.0246 128.534ZM99.5874 126.236L99.8452 126.494C99.9372 126.402 99.9732 126.268 99.9394 126.142C99.9057 126.016 99.8074 125.918 99.6816 125.884L99.5874 126.236ZM94.6428 124.914L94.737 124.562C94.6112 124.528 94.477 124.564 94.385 124.656L94.6428 124.914ZM95.9692 129.856L96.3212 129.762C96.2874 129.636 96.1891 129.538 96.0634 129.504L95.9692 129.856ZM99.9487 144.685L99.8546 145.037C99.9803 145.071 100.114 145.035 100.206 144.943C100.299 144.85 100.334 144.716 100.301 144.591L99.9487 144.685ZM95.004 143.362L94.6522 143.457C94.686 143.582 94.7841 143.68 94.9096 143.714L95.004 143.362ZM91.1187 128.181C90.9243 128.129 90.7245 128.245 90.6725 128.439C90.6205 128.633 90.7359 128.833 90.9304 128.885L91.1187 128.181ZM87.4005 132.155L87.4945 131.802C87.3687 131.769 87.2346 131.805 87.1427 131.897C87.0507 131.989 87.0148 132.123 87.0486 132.249L87.4005 132.155ZM88.727 137.098L88.3751 137.192C88.4088 137.318 88.5071 137.416 88.6329 137.45L88.727 137.098ZM93.6717 138.42L94.0235 138.326C93.9897 138.2 93.8915 138.102 93.7658 138.068L93.6717 138.42ZM87.4006 132.155L87.1427 131.897C87.0508 131.99 87.0149 132.124 87.0486 132.249L87.4006 132.155ZM91.0188 128.535L91.1127 128.183C90.987 128.149 90.853 128.185 90.761 128.277L91.0188 128.535ZM92.3453 133.478L92.2511 133.83C92.3769 133.863 92.511 133.827 92.6031 133.735C92.6951 133.643 92.731 133.509 92.6972 133.383L92.3453 133.478ZM99.9413 144.687L99.8469 145.039C99.9727 145.073 100.107 145.037 100.199 144.945L99.9413 144.687ZM107.177 137.447L107.435 137.704C107.527 137.612 107.563 137.478 107.529 137.352L107.177 137.447ZM105.851 132.504L106.203 132.409C106.169 132.284 106.071 132.185 105.945 132.152C105.819 132.118 105.685 132.154 105.593 132.246L105.851 132.504ZM102.233 136.124L101.881 136.218C101.915 136.344 102.013 136.442 102.139 136.476C102.265 136.51 102.399 136.474 102.491 136.381L102.233 136.124ZM99.58 126.238L99.9319 126.144C99.8982 126.018 99.7999 125.92 99.6742 125.886C99.5484 125.852 99.4142 125.888 99.3222 125.98L99.58 126.238ZM105.857 132.502L106.114 132.76C106.207 132.668 106.242 132.534 106.209 132.408C106.175 132.282 106.077 132.184 105.951 132.15L105.857 132.502ZM100.912 131.179L101.006 130.827C100.881 130.794 100.746 130.83 100.654 130.922C100.562 131.014 100.527 131.148 100.56 131.274L100.912 131.179ZM102.239 136.122L101.887 136.217C101.921 136.343 102.019 136.441 102.145 136.474C102.27 136.508 102.404 136.472 102.497 136.38L102.239 136.122ZM99.6816 125.884L94.737 124.562L94.5486 125.266L99.4933 126.588L99.6816 125.884ZM87.0486 132.249L88.3751 137.192L89.079 137.003L87.7525 132.06L87.0486 132.249ZM88.6329 137.45L93.5775 138.772L93.7658 138.068L88.8212 136.745L88.6329 137.45ZM90.6668 128.629L91.9933 133.572L92.6972 133.383L91.3707 128.44L90.6668 128.629ZM92.4394 133.126L87.4948 131.803L87.3065 132.507L92.2511 133.83L92.4394 133.126ZM105.951 132.15L101.006 130.827L100.818 131.531L105.763 132.854L105.951 132.15ZM93.3198 138.515L94.6522 143.457L95.3559 143.267L94.0235 138.326L93.3198 138.515ZM99.3235 125.985L95.7115 129.599L96.2271 130.114L99.839 126.5L99.3235 125.985ZM95.6173 129.951L99.5956 144.775L100.3 144.586L96.3213 129.762L95.6173 129.951ZM100.205 144.938L107.435 137.704L106.92 137.189L99.6898 144.423L100.205 144.938ZM107.529 137.352L106.204 132.413L105.5 132.602L106.825 137.541L107.529 137.352ZM105.594 132.25L101.981 135.865L102.497 136.38L106.11 132.765L105.594 132.25ZM102.591 136.028L102.59 136.025L101.886 136.213L101.887 136.217L102.591 136.028ZM101.98 135.861L101.975 135.866L102.491 136.381L102.496 136.377L101.98 135.861ZM102.585 136.029L99.9332 126.148L99.2292 126.337L101.881 136.218L102.585 136.029ZM100.56 131.274L101.886 136.213L102.59 136.025L101.264 131.085L100.56 131.274ZM106.11 132.765L106.114 132.76L105.599 132.245L105.594 132.25L106.11 132.765ZM106.204 132.413L106.203 132.409L105.499 132.598L105.5 132.602L106.204 132.413ZM105.593 132.246L101.98 135.861L102.496 136.377L106.109 132.761L105.593 132.246ZM95.6172 129.951L99.5956 144.775L100.3 144.586L96.3212 129.762L95.6172 129.951ZM99.5956 144.775L99.5967 144.779L100.301 144.591L100.3 144.586L99.5956 144.775ZM99.9332 126.148L99.9319 126.144L99.228 126.332L99.2292 126.337L99.9332 126.148ZM99.839 126.5L99.8452 126.494L99.3297 125.979L99.3235 125.985L99.839 126.5ZM94.385 124.656L90.7671 128.276L91.2827 128.791L94.9006 125.171L94.385 124.656ZM90.9307 128.885L95.8708 130.207L96.0591 129.503L91.1191 128.181L90.9307 128.885ZM96.2227 130.113L99.8377 126.496L99.3222 125.98L95.7072 129.597L96.2227 130.113ZM90.9304 128.885L90.9307 128.885L91.1191 128.181L91.1187 128.181L90.9304 128.885ZM95.8708 130.207L95.875 130.208L96.0634 129.504L96.0591 129.503L95.8708 130.207ZM90.7673 128.276L90.767 128.276L91.2823 128.791L91.2826 128.791L90.7673 128.276ZM87.3067 132.507L92.251 133.829L92.4393 133.125L87.495 131.803L87.3067 132.507ZM92.6971 133.383L91.3707 128.44L90.6668 128.629L91.9932 133.572L92.6971 133.383ZM90.761 128.277L87.1431 131.897L87.6586 132.412L91.2765 128.792L90.761 128.277ZM87.6585 132.412L87.6588 132.412L87.143 131.897L87.1427 131.897L87.6585 132.412ZM87.4949 131.803L87.4945 131.802L87.3065 132.507L87.3069 132.507L87.4949 131.803ZM92.4393 133.125L87.4947 131.803L87.3064 132.507L92.251 133.829L92.4393 133.125ZM94.9096 143.714L99.8469 145.039L100.036 144.335L95.0985 143.01L94.9096 143.714ZM96.0635 129.504L95.4924 129.352L95.3041 130.056L95.8751 130.209L96.0635 129.504ZM95.4922 129.352L91.1127 128.183L90.9248 128.887L95.3043 130.056L95.4922 129.352ZM91.9932 133.572L91.9933 133.572L92.6972 133.383L92.6971 133.383L91.9932 133.572ZM87.0486 132.249L88.3751 137.192L89.079 137.003L87.7526 132.06L87.0486 132.249ZM94.9099 143.714L99.8503 145.036L100.039 144.332L95.0982 143.01L94.9099 143.714ZM100.202 144.941L100.205 144.938L99.6897 144.423L99.6866 144.426L100.202 144.941ZM100.043 144.333L100.039 144.332L99.8503 145.036L99.8546 145.037L100.043 144.333ZM100.199 144.945L100.202 144.941L99.6867 144.426L99.6836 144.429L100.199 144.945ZM95.3043 130.056L95.871 130.207L96.0589 129.503L95.4922 129.352L95.3043 130.056ZM90.9305 128.886L95.3041 130.056L95.4924 129.352L91.1188 128.182L90.9305 128.886Z" fill="black"/>
<path d="M11.9873 54.597L16.7 53.5354L19.5738 44.3126L14.8611 45.3741L11.9873 54.597Z" fill="black"/>
<path d="M5.03257 34.7211L14.8578 45.3686L14.8569 45.3715L19.5696 44.3099L9.74228 33.6602L5.03257 34.7211Z" fill="#F1EFED"/>
<path d="M5.0296 34.7217L3.59362 39.3303L10.1435 46.4341L8.70663 51.0455L11.9824 54.5954L14.8562 45.3726L11.6421 41.8876L5.0296 34.7217Z" fill="#F1EFED"/>
<path d="M3.59362 39.3303L3.24569 39.2219C3.20697 39.3461 3.23746 39.4816 3.32568 39.5773L3.59362 39.3303ZM5.03051 34.7188L5.29834 34.4717C5.21005 34.376 5.07743 34.3347 4.95042 34.3633C4.82341 34.392 4.72131 34.4862 4.68258 34.6105L5.03051 34.7188ZM14.8578 45.3686L15.2058 45.4768C15.2445 45.3525 15.2139 45.2171 15.1257 45.1215L14.8578 45.3686ZM13.073 49.8716C13.0131 50.0638 13.1204 50.2681 13.3125 50.3279C13.5047 50.3878 13.709 50.2805 13.7689 50.0884L13.073 49.8716ZM11.8482 41.5755C11.7118 41.4276 11.4812 41.4183 11.3333 41.5548C11.1854 41.6913 11.1761 41.9219 11.3126 42.0698L11.8482 41.5755ZM8.70663 51.0455L8.3587 50.9371C8.31997 51.0614 8.3505 51.197 8.43879 51.2927L8.70663 51.0455ZM11.9824 54.5954L11.7146 54.8426C11.8029 54.9382 11.9355 54.9795 12.0625 54.9509C12.1895 54.9223 12.2916 54.8281 12.3303 54.7038L11.9824 54.5954ZM14.8562 45.3726L15.2041 45.4809C15.2428 45.3567 15.2123 45.2212 15.1241 45.1255L14.8562 45.3726ZM11.9873 54.597L11.6394 54.4886C11.6007 54.6129 11.6312 54.7484 11.7195 54.8441C11.8078 54.9398 11.9404 54.9811 12.0674 54.9525L11.9873 54.597ZM16.7 53.5354L16.7801 53.891C16.9071 53.8623 17.0092 53.7681 17.0479 53.6438L16.7 53.5354ZM19.5738 44.3126L19.9217 44.4209C19.9604 44.2966 19.9299 44.1611 19.8416 44.0655C19.7534 43.9698 19.6207 43.9285 19.4937 43.9571L19.5738 44.3126ZM14.8611 45.3741L14.7811 45.0186C14.654 45.0472 14.5519 45.1414 14.5132 45.2657L14.8611 45.3741ZM19.5696 44.3099L19.6496 44.6654C19.7767 44.6368 19.8788 44.5426 19.9175 44.4183C19.9562 44.294 19.9257 44.1585 19.8374 44.0628L19.5696 44.3099ZM9.74228 33.6602L10.0101 33.4131C9.92183 33.3174 9.78922 33.2761 9.66222 33.3047L9.74228 33.6602ZM5.0296 34.7217L4.94954 34.3662C4.82252 34.3948 4.72041 34.489 4.68167 34.6134L5.0296 34.7217ZM14.8569 45.3715L14.5891 45.6186C14.6774 45.7143 14.81 45.7556 14.937 45.727L14.8569 45.3715ZM10.1435 46.4341L10.4914 46.5425C10.5302 46.4182 10.4997 46.2827 10.4115 46.1871L10.1435 46.4341ZM3.94155 39.4386L5.37843 34.8272L4.68258 34.6105L3.24569 39.2219L3.94155 39.4386ZM14.5099 45.2602L13.073 49.8716L13.7689 50.0884L15.2058 45.477L14.5099 45.2602ZM8.43879 51.2927L11.7146 54.8426L12.2503 54.3483L8.97446 50.7984L8.43879 51.2927ZM12.3303 54.7038L15.2041 45.4809L14.5083 45.2642L11.6345 54.487L12.3303 54.7038ZM15.124 45.1254L11.8482 41.5755L11.3126 42.0698L14.5884 45.6197L15.124 45.1254ZM12.0674 54.9525L16.7801 53.891L16.6199 53.1799L11.9073 54.2415L12.0674 54.9525ZM17.0479 53.6438L19.9217 44.4209L19.2259 44.2042L16.3521 53.4271L17.0479 53.6438ZM19.4937 43.9571L14.7811 45.0186L14.9412 45.7296L19.6538 44.6681L19.4937 43.9571ZM14.5132 45.2657L11.6394 54.4886L12.3353 54.7053L15.2091 45.4825L14.5132 45.2657ZM19.8374 44.0628L10.0101 33.4131L9.47444 33.9073L19.3017 44.5571L19.8374 44.0628ZM14.937 45.727L19.6496 44.6654L19.4895 43.9544L14.7769 45.016L14.937 45.727ZM9.79559 46.3257L8.3587 50.9371L9.05455 51.1539L10.4914 46.5425L9.79559 46.3257ZM3.32568 39.5773L9.87558 46.6811L10.4115 46.1871L3.86156 39.0832L3.32568 39.5773ZM4.76473 34.9682L14.59 45.6157L15.1257 45.1215L5.3004 34.4739L4.76473 34.9682ZM14.5098 45.2604L14.5089 45.2633L15.2049 45.4797L15.2058 45.4768L14.5098 45.2604ZM9.66222 33.3047L4.95251 34.3656L5.11263 35.0766L9.82234 34.0157L9.66222 33.3047ZM4.95251 34.3656L4.94954 34.3662L5.10966 35.0772L5.11263 35.0766L4.95251 34.3656ZM4.76267 34.966L4.76473 34.9682L5.3004 34.4739L5.29834 34.4717L4.76267 34.966ZM4.68167 34.6134L3.24569 39.2219L3.94155 39.4386L5.37753 34.8301L4.68167 34.6134ZM15.1241 45.1255L11.91 41.6405L11.3742 42.1347L14.5883 45.6196L15.1241 45.1255ZM11.9099 41.6405L5.29744 34.4746L4.76177 34.9689L11.3743 42.1347L11.9099 41.6405ZM4.7626 34.9659L11.3742 42.1347L11.91 41.6405L5.29841 34.4718L4.7626 34.9659ZM11.3743 42.1347L14.5891 45.6186L15.1248 45.1244L11.9099 41.6405L11.3743 42.1347Z" fill="black"/>
<defs>
<linearGradient id="paint0_linear_2493_10323" x1="15.2237" y1="103.584" x2="103.32" y2="60.6791" gradientUnits="userSpaceOnUse">
<stop stop-color="#D6FFBB"/>
<stop offset="1" stop-color="#5869DD"/>
</linearGradient>
</defs>
</svg>
