<svg width="18" height="18" viewBox="0 0 18 18" fill="none" xmlns="http://www.w3.org/2000/svg">
<path d="M9.5 4C9.5 3.58579 9.16421 3.25 8.75 3.25C8.33579 3.25 8 3.58579 8 4V9C8 9.25859 8.13321 9.49895 8.3525 9.636L11.3525 11.511C11.7038 11.7305 12.1665 11.6238 12.386 11.2725C12.6055 10.9212 12.4988 10.4585 12.1475 10.239L9.5 8.58431V4Z" fill="#716D6D"/>
<path fill-rule="evenodd" clip-rule="evenodd" d="M8.75 0.25C3.91751 0.25 0 4.16751 0 9C0 13.8325 3.91751 17.75 8.75 17.75C13.5825 17.75 17.5 13.8325 17.5 9C17.5 4.16751 13.5825 0.25 8.75 0.25ZM1.5 9C1.5 4.99594 4.74594 1.75 8.75 1.75C12.7541 1.75 16 4.99594 16 9C16 13.0041 12.7541 16.25 8.75 16.25C4.74594 16.25 1.5 13.0041 1.5 9Z" fill="#716D6D"/>
</svg>
