<svg width="30" height="24" viewBox="0 0 30 24" fill="none" xmlns="http://www.w3.org/2000/svg">
<path d="M26.2659 6.22007C26.2832 6.46985 26.2832 6.71963 26.2832 6.97172C26.2832 14.6527 20.4358 23.5113 9.7436 23.5113V23.5067C6.5851 23.5113 3.4922 22.6066 0.833252 20.9007C1.29252 20.9559 1.7541 20.9836 2.21683 20.9847C4.83434 20.987 7.37703 20.1088 9.43627 18.4915C6.94883 18.4443 4.76757 16.8225 4.00557 14.4548C4.87692 14.6228 5.77475 14.5883 6.62999 14.3546C3.91809 13.8067 1.96705 11.424 1.96705 8.65687C1.96705 8.63154 1.96705 8.60737 1.96705 8.5832C2.77509 9.03326 3.67982 9.28304 4.60527 9.31067C2.05107 7.60365 1.26375 4.20572 2.80617 1.54908C5.75748 5.18067 10.1119 7.3884 14.7864 7.62207C14.3179 5.60311 14.9579 3.48746 16.4681 2.0682C18.8094 -0.132623 22.4916 -0.0198187 24.6924 2.32029C25.9943 2.0636 27.242 1.58591 28.3839 0.909086C27.9499 2.25467 27.0417 3.39768 25.8285 4.124C26.9807 3.98817 28.1065 3.67969 29.1666 3.2089C28.3862 4.37838 27.4032 5.39707 26.2659 6.22007Z" fill="#272C2F"/>
</svg>
