<svg width="22" height="14" viewBox="0 0 22 14" fill="none" xmlns="http://www.w3.org/2000/svg">
<path d="M20.7785 6.4227C21.0738 6.759 21.0738 7.241 20.7785 7.5773C19.4592 9.0806 15.58 13 11 13C6.41995 13 2.54079 9.0806 1.22141 7.5773C0.926196 7.241 0.926196 6.759 1.22141 6.4227C2.54079 4.91942 6.41995 1 11 1C15.58 1 19.4592 4.91942 20.7785 6.4227Z" stroke="#716D6D" stroke-width="1.5"/>
<path d="M11 9C12.1333 9 13.0521 8.10457 13.0521 7C13.0521 5.89543 12.1333 5 11 5C9.86664 5 8.94788 5.89543 8.94788 7C8.94788 8.10457 9.86664 9 11 9Z" stroke="#716D6D" stroke-width="1.5"/>
</svg>
