<svg width="25" height="25" viewBox="0 0 25 25" fill="none" xmlns="http://www.w3.org/2000/svg">
<path d="M24.5833 22.6602H0.41665C0.186328 22.6602 0 22.8465 0 23.0768C0 23.3071 0.186377 23.4935 0.41665 23.4935H24.5833C24.8136 23.4935 24.9999 23.3071 24.9999 23.0768C25 22.8465 24.8136 22.6602 24.5833 22.6602Z" fill="white"/>
<path d="M2.91677 21.6602C2.94402 21.6602 2.9717 21.6574 2.99939 21.652L7.12009 20.8187C7.13674 20.8153 7.15154 20.8069 7.16755 20.8015C7.18171 20.7968 7.19529 20.7928 7.20896 20.7865C7.25412 20.7659 7.2967 20.7401 7.33205 20.7047L20.2599 7.77681C20.2639 7.77309 20.2692 7.77192 20.2731 7.76802C20.277 7.76411 20.2782 7.75879 20.2819 7.75478L22.129 5.90766C22.3682 5.67143 22.5001 5.35693 22.5001 5.02143C22.5001 4.68613 22.3682 4.37163 22.131 4.13745L20.0245 2.03071C19.5525 1.55303 18.7233 1.55464 18.2545 2.0291L3.45554 16.8283C3.42024 16.8636 3.39441 16.9062 3.3738 16.9514C3.36755 16.9651 3.3635 16.9786 3.35881 16.9928C3.35344 17.0088 3.34499 17.0237 3.34163 17.0403L2.50828 21.161C2.48059 21.2977 2.52332 21.4393 2.62219 21.5382C2.70115 21.6171 2.80735 21.6602 2.91677 21.6602ZM18.8453 2.61665C19.0024 2.45796 19.2734 2.45635 19.4337 2.61826L21.5439 4.72866C21.6229 4.80679 21.6668 4.91094 21.6668 5.02143C21.6668 5.13232 21.6229 5.23628 21.5419 5.31645L19.9764 6.88203L17.2782 4.18389L18.8453 2.61665ZM16.689 4.77305L19.3871 7.47119L7.03747 19.821L4.33933 17.1229L16.689 4.77305ZM4.00452 17.9665L6.19392 20.1559L3.44988 20.7105L4.00452 17.9665Z" fill="white"/>
</svg>
