<svg width="16" height="17" viewBox="0 0 16 17" fill="none" xmlns="http://www.w3.org/2000/svg">
<path d="M11.6206 10.7391L11.5447 10.8429L11.6356 10.9338L11.7417 10.8277L11.6356 10.9338L11.6358 10.934L11.6364 10.9346L11.6387 10.9369L11.6478 10.946L11.6834 10.9816L11.8186 11.1168L12.301 11.5991L13.7648 13.0629L15.2286 14.5267L15.711 15.0091L15.7879 15.086L14.5859 16.288L10.4337 12.1357L10.3428 12.0448L10.239 12.1208C9.18819 12.8903 7.89816 13.3502 6.49999 13.3502C2.99886 13.3502 0.15 10.5013 0.15 7.00017C0.15 3.49904 2.99883 0.650183 6.49995 0.650183C10.0011 0.650183 12.8499 3.49904 12.8499 7.00017C12.8499 8.39834 12.3902 9.68825 11.6206 10.7391ZM1.85001 7.00017C1.85001 9.56446 3.9357 11.6501 6.49999 11.6501C9.06424 11.6501 11.15 9.56446 11.15 7.00017C11.15 4.43588 9.06427 2.35019 6.49999 2.35019C3.9357 2.35019 1.85001 4.43588 1.85001 7.00017Z" fill="#8F8E93" stroke="#F1EFED" stroke-width="0.3"/>
</svg>
