<svg width="271" height="788" viewBox="0 0 271 788" fill="none" xmlns="http://www.w3.org/2000/svg">
    <path d="M6.08936 685.312L16.4397 692.688L6.08936 685.312Z" fill="black"/>
    <path d="M26.7669 700.103L37.1293 707.446C37.1405 707.46 37.1564 707.468 37.1736 707.47C37.1908 707.472 37.2081 707.467 37.2219 707.457C37.2296 707.452 37.236 707.445 37.2408 707.438C37.2456 707.43 37.2486 707.422 37.2495 707.413C37.2505 707.404 37.2495 707.395 37.2465 707.386C37.2434 707.378 37.2385 707.37 37.2321 707.364L26.823 700.058C26.815 700.051 26.8051 700.046 26.7945 700.045C26.7839 700.044 26.7733 700.046 26.764 700.051C26.7587 700.059 26.7562 700.068 26.7567 700.078C26.7572 700.087 26.7608 700.096 26.7669 700.103Z" fill="black"/>
    <path d="M47.6027 714.644L58.1874 721.671C58.2004 721.68 58.2151 721.686 58.2305 721.689C58.2459 721.693 58.2617 721.693 58.2771 721.689C58.2925 721.686 58.3071 721.68 58.3201 721.672C58.3332 721.663 58.3443 721.652 58.353 721.638C58.3618 721.625 58.368 721.611 58.3711 721.595C58.3742 721.58 58.3742 721.564 58.3711 721.549C58.368 721.533 58.362 721.519 58.3532 721.506C58.3444 721.493 58.3331 721.481 58.32 721.473L47.7129 714.494C47.6907 714.48 47.6636 714.475 47.6376 714.48C47.6116 714.485 47.5885 714.5 47.5735 714.522C47.5638 714.543 47.5615 714.566 47.5668 714.588C47.5721 714.61 47.5847 714.63 47.6027 714.644Z" fill="black"/>
    <path d="M68.9249 728.466L79.858 734.96C79.8976 734.983 79.9441 734.989 79.9881 734.978C80.0321 734.967 80.0702 734.939 80.0947 734.901C80.1168 734.862 80.123 734.815 80.112 734.771C80.101 734.727 80.0736 734.689 80.0354 734.665L69.0883 728.22C69.0722 728.21 69.0542 728.203 69.0354 728.201C69.0166 728.198 68.9974 728.199 68.9792 728.205C68.9609 728.21 68.944 728.219 68.9294 728.231C68.9149 728.243 68.903 728.258 68.8947 728.276C68.8752 728.305 68.8674 728.342 68.873 728.377C68.8786 728.412 68.8971 728.444 68.9249 728.466Z" fill="black"/>
    <path d="M91.0443 741.02L102.51 746.541C102.535 746.554 102.562 746.562 102.591 746.565C102.619 746.567 102.647 746.564 102.673 746.555C102.7 746.546 102.725 746.531 102.745 746.512C102.766 746.493 102.783 746.47 102.794 746.444C102.819 746.392 102.823 746.333 102.805 746.279C102.787 746.224 102.749 746.179 102.698 746.152L91.2403 740.632C91.1941 740.611 91.1412 740.608 91.0931 740.625C91.045 740.642 91.0055 740.677 90.9831 740.723C90.9631 740.745 90.9485 740.771 90.9406 740.8C90.9327 740.828 90.9317 740.858 90.9376 740.887C90.9436 740.916 90.9565 740.943 90.975 740.966C90.9936 740.989 91.0173 741.008 91.0443 741.02Z" fill="black"/>
    <path d="M114.338 751.247C118.336 752.666 122.426 753.813 126.579 754.679C126.613 754.686 126.648 754.687 126.682 754.68C126.716 754.674 126.749 754.661 126.778 754.642C126.807 754.623 126.832 754.598 126.851 754.57C126.871 754.541 126.884 754.509 126.891 754.475C126.902 754.405 126.885 754.335 126.846 754.277C126.807 754.219 126.747 754.177 126.678 754.161C122.531 753.329 118.447 752.211 114.453 750.816C114.392 750.797 114.326 750.802 114.269 750.831C114.211 750.86 114.168 750.91 114.147 750.97C114.139 751.032 114.155 751.094 114.19 751.145C114.225 751.196 114.278 751.232 114.338 751.247Z" fill="black"/>
    <path d="M139.314 755.695C143.622 755.533 147.824 754.316 151.553 752.153C151.588 752.132 151.618 752.104 151.641 752.071C151.665 752.038 151.682 752.001 151.691 751.961C151.7 751.922 151.701 751.881 151.694 751.841C151.687 751.801 151.673 751.763 151.651 751.729C151.608 751.66 151.54 751.61 151.461 751.59C151.382 751.57 151.298 751.582 151.228 751.623C147.604 753.756 143.514 754.973 139.313 755.166C139.274 755.167 139.237 755.176 139.202 755.192C139.168 755.208 139.137 755.23 139.111 755.259C139.086 755.287 139.066 755.32 139.054 755.356C139.042 755.392 139.037 755.431 139.041 755.469C139.056 755.531 139.091 755.586 139.14 755.627C139.189 755.668 139.25 755.692 139.314 755.695Z" fill="black"/>
    <path d="M160.018 742.708C161.857 738.841 163.067 734.706 163.604 730.458C163.611 730.412 163.61 730.365 163.599 730.319C163.588 730.274 163.568 730.231 163.54 730.193C163.513 730.155 163.478 730.123 163.438 730.099C163.398 730.074 163.354 730.058 163.308 730.051C163.261 730.042 163.212 730.043 163.166 730.054C163.119 730.065 163.075 730.085 163.037 730.114C162.999 730.142 162.967 730.179 162.943 730.22C162.919 730.262 162.904 730.308 162.899 730.355C162.381 734.532 161.207 738.601 159.419 742.412C159.38 742.492 159.373 742.583 159.401 742.667C159.428 742.752 159.487 742.822 159.566 742.863C159.646 742.902 159.739 742.908 159.824 742.879C159.908 742.85 159.978 742.788 160.018 742.708Z" fill="black"/>
    <path d="M164.269 717.708C164.166 713.434 163.802 709.216 163.293 705C163.287 704.947 163.27 704.895 163.244 704.848C163.218 704.801 163.182 704.76 163.14 704.727C163.098 704.693 163.049 704.669 162.997 704.655C162.945 704.64 162.891 704.636 162.838 704.643C162.784 704.649 162.733 704.666 162.686 704.692C162.639 704.719 162.597 704.754 162.564 704.796C162.531 704.839 162.507 704.887 162.492 704.939C162.478 704.991 162.474 705.045 162.481 705.099C163.009 709.3 163.382 713.51 163.499 717.726C163.5 717.776 163.511 717.826 163.531 717.873C163.551 717.919 163.581 717.961 163.617 717.996C163.654 718.031 163.697 718.058 163.745 718.076C163.792 718.095 163.842 718.103 163.893 718.101C163.944 718.101 163.994 718.09 164.04 718.07C164.086 718.049 164.128 718.02 164.163 717.983C164.198 717.947 164.226 717.903 164.244 717.856C164.262 717.809 164.27 717.758 164.269 717.708Z" fill="black"/>
    <path d="M161.547 692.391L159.402 679.854C159.393 679.796 159.372 679.74 159.341 679.691C159.31 679.641 159.269 679.598 159.221 679.564C159.173 679.53 159.119 679.506 159.062 679.494C159.005 679.481 158.945 679.48 158.888 679.49C158.773 679.51 158.67 679.574 158.602 679.668C158.534 679.763 158.506 679.881 158.525 679.996L160.681 692.518C160.7 692.629 160.763 692.727 160.855 692.791C160.947 692.856 161.061 692.881 161.172 692.862C161.228 692.857 161.282 692.841 161.332 692.814C161.381 692.787 161.425 692.751 161.46 692.707C161.495 692.663 161.521 692.612 161.536 692.558C161.551 692.504 161.555 692.447 161.547 692.391Z" fill="black"/>
    <path d="M156.901 667.384L154.065 655.009C154.036 654.887 153.96 654.782 153.854 654.716C153.748 654.65 153.62 654.629 153.498 654.657C153.439 654.67 153.382 654.695 153.332 654.731C153.282 654.766 153.24 654.811 153.207 654.863C153.174 654.915 153.152 654.973 153.142 655.033C153.132 655.093 153.133 655.155 153.147 655.215L156.01 667.584C156.023 667.643 156.049 667.698 156.084 667.747C156.119 667.796 156.163 667.838 156.214 667.869C156.265 667.901 156.322 667.922 156.382 667.932C156.441 667.942 156.502 667.94 156.561 667.926C156.619 667.913 156.674 667.889 156.723 667.855C156.772 667.82 156.813 667.777 156.845 667.726C156.876 667.676 156.898 667.619 156.908 667.561C156.917 667.502 156.915 667.442 156.901 667.384Z" fill="black"/>
    <path d="M150.945 642.646L147.598 630.343C147.582 630.28 147.554 630.221 147.515 630.169C147.476 630.118 147.427 630.074 147.371 630.042C147.315 630.009 147.253 629.989 147.188 629.981C147.124 629.973 147.059 629.978 146.997 629.996C146.933 630.012 146.874 630.041 146.822 630.081C146.77 630.121 146.727 630.171 146.694 630.227C146.662 630.284 146.641 630.347 146.633 630.412C146.625 630.477 146.63 630.542 146.648 630.605L150.014 642.893C150.03 642.954 150.058 643.011 150.096 643.061C150.135 643.111 150.182 643.153 150.237 643.184C150.291 643.216 150.351 643.236 150.414 643.244C150.476 643.252 150.539 643.247 150.6 643.23C150.661 643.215 150.719 643.188 150.77 643.15C150.821 643.113 150.863 643.065 150.896 643.011C150.928 642.956 150.949 642.896 150.957 642.833C150.966 642.771 150.962 642.707 150.945 642.646Z" fill="black"/>
    <path d="M144.049 618.161L140.337 605.989C140.324 605.916 140.295 605.847 140.253 605.786C140.211 605.725 140.156 605.674 140.093 605.635C140.029 605.597 139.958 605.572 139.885 605.563C139.811 605.554 139.736 605.561 139.666 605.583C139.595 605.605 139.529 605.642 139.474 605.69C139.418 605.739 139.373 605.8 139.343 605.867C139.312 605.935 139.296 606.008 139.295 606.082C139.295 606.156 139.31 606.229 139.34 606.297L143.071 618.446C143.118 618.565 143.208 618.662 143.323 618.718C143.438 618.774 143.57 618.784 143.692 618.747C143.814 618.71 143.918 618.628 143.983 618.518C144.048 618.407 144.068 618.277 144.041 618.152L144.049 618.161Z" fill="black"/>
    <path d="M136.555 593.872L132.648 581.772C132.603 581.632 132.505 581.516 132.375 581.449C132.245 581.382 132.093 581.37 131.954 581.414C131.814 581.459 131.698 581.557 131.631 581.687C131.564 581.817 131.552 581.969 131.596 582.108L135.53 594.194C135.552 594.261 135.587 594.323 135.632 594.376C135.678 594.429 135.734 594.473 135.796 594.505C135.859 594.537 135.927 594.556 135.997 594.561C136.067 594.567 136.138 594.558 136.205 594.537C136.271 594.515 136.333 594.48 136.387 594.434C136.44 594.389 136.484 594.333 136.516 594.27C136.547 594.208 136.566 594.14 136.572 594.07C136.577 594 136.569 593.929 136.547 593.862L136.555 593.872Z" fill="black"/>
    <path d="M128.645 569.683L124.667 557.609C124.644 557.537 124.606 557.471 124.557 557.413C124.508 557.356 124.447 557.309 124.379 557.276C124.312 557.242 124.238 557.222 124.162 557.218C124.087 557.213 124.011 557.223 123.94 557.248C123.868 557.272 123.801 557.309 123.743 557.358C123.686 557.407 123.638 557.468 123.604 557.535C123.57 557.603 123.549 557.676 123.543 557.752C123.537 557.827 123.546 557.903 123.57 557.975L127.575 570.035C127.597 570.106 127.634 570.173 127.683 570.23C127.731 570.287 127.791 570.334 127.858 570.367C127.925 570.401 127.998 570.421 128.073 570.425C128.148 570.43 128.223 570.42 128.294 570.395C128.365 570.372 128.43 570.336 128.486 570.288C128.542 570.239 128.588 570.18 128.621 570.114C128.654 570.047 128.673 569.975 128.677 569.901C128.681 569.827 128.67 569.753 128.645 569.683Z" fill="black"/>
    <path d="M120.706 545.541L116.807 533.441C116.783 533.366 116.744 533.296 116.693 533.236C116.642 533.175 116.579 533.125 116.509 533.089C116.439 533.053 116.362 533.031 116.283 533.024C116.204 533.018 116.124 533.027 116.049 533.051C115.973 533.075 115.903 533.114 115.843 533.165C115.783 533.217 115.733 533.279 115.697 533.35C115.66 533.42 115.638 533.497 115.632 533.576C115.625 533.655 115.635 533.734 115.659 533.81L119.593 545.896C119.616 545.969 119.655 546.037 119.705 546.095C119.755 546.154 119.816 546.202 119.884 546.236C119.953 546.271 120.028 546.292 120.104 546.298C120.181 546.304 120.258 546.295 120.331 546.271C120.405 546.247 120.472 546.209 120.531 546.159C120.589 546.109 120.637 546.048 120.672 545.979C120.707 545.911 120.728 545.836 120.734 545.759C120.74 545.682 120.731 545.605 120.707 545.532L120.706 545.541Z" fill="black"/>
    <path d="M112.637 521.401L108.163 509.494C108.102 509.34 107.982 509.215 107.83 509.147C107.679 509.08 107.506 509.074 107.35 509.132C107.272 509.161 107.201 509.205 107.14 509.261C107.079 509.318 107.03 509.385 106.995 509.461C106.961 509.536 106.942 509.618 106.939 509.701C106.936 509.784 106.95 509.867 106.98 509.944L111.482 521.82C111.511 521.898 111.555 521.969 111.611 522.03C111.668 522.091 111.736 522.14 111.812 522.173C111.888 522.207 111.97 522.225 112.053 522.227C112.136 522.228 112.218 522.213 112.295 522.182C112.443 522.122 112.561 522.007 112.625 521.861C112.689 521.715 112.693 521.55 112.637 521.401Z" fill="black"/>
    <path d="M103.581 497.636L99.0525 485.766C98.9902 485.602 98.8654 485.47 98.7054 485.398C98.5455 485.326 98.3634 485.32 98.1994 485.383C98.0355 485.445 97.9029 485.57 97.831 485.73C97.7591 485.89 97.7537 486.072 97.816 486.236L102.37 498.109C102.396 498.193 102.438 498.272 102.495 498.339C102.552 498.407 102.623 498.462 102.702 498.501C102.782 498.54 102.868 498.562 102.956 498.567C103.045 498.571 103.133 498.557 103.216 498.525C103.298 498.494 103.374 498.446 103.437 498.384C103.5 498.322 103.55 498.248 103.584 498.166C103.617 498.084 103.633 497.996 103.631 497.908C103.629 497.819 103.608 497.732 103.571 497.652L103.581 497.636Z" fill="black"/>
    <path d="M94.7015 473.84L90.6507 461.81C90.5934 461.638 90.4704 461.495 90.3084 461.414C90.1465 461.332 89.9588 461.318 89.7863 461.374C89.6148 461.435 89.4738 461.56 89.3937 461.723C89.3136 461.887 89.3007 462.075 89.3579 462.248L93.4078 474.287C93.465 474.456 93.587 474.595 93.747 474.674C93.907 474.753 94.0919 474.766 94.2609 474.709C94.43 474.651 94.5695 474.529 94.6486 474.369C94.7277 474.209 94.74 474.025 94.6828 473.855L94.7015 473.84Z" fill="black"/>
    <path d="M87.058 449.655L84.0877 437.334L84.0923 437.292C84.0709 437.201 84.0316 437.116 83.9769 437.04C83.9221 436.965 83.853 436.901 83.7734 436.853C83.6939 436.805 83.6055 436.772 83.5135 436.758C83.4214 436.744 83.3275 436.749 83.2372 436.772C83.054 436.815 82.8956 436.929 82.7966 437.089C82.6975 437.25 82.6659 437.442 82.7086 437.626L85.7314 450.012C85.7499 450.104 85.7868 450.191 85.8398 450.268C85.8928 450.346 85.9609 450.411 86.0399 450.462C86.1189 450.512 86.2073 450.545 86.2996 450.561C86.392 450.576 86.4865 450.572 86.5775 450.55C86.6684 450.528 86.7539 450.488 86.8289 450.431C86.9039 450.375 86.9667 450.305 87.0137 450.224C87.0607 450.143 87.0908 450.053 87.1023 449.96C87.1138 449.867 87.1063 449.773 87.0805 449.683L87.058 449.655Z" fill="black"/>
    <path d="M81.9789 424.858C81.4446 420.682 81.1403 416.479 81.0672 412.268C81.0644 412.077 80.9858 411.895 80.8485 411.761C80.7113 411.628 80.5267 411.555 80.3353 411.557C80.144 411.56 79.9615 411.639 79.8281 411.776C79.6948 411.913 79.6213 412.098 79.6241 412.289C79.6961 416.554 80.0059 420.812 80.552 425.043C80.5783 425.227 80.6747 425.393 80.821 425.508C80.9673 425.622 81.1522 425.676 81.3371 425.657C81.4324 425.649 81.5249 425.621 81.6092 425.576C81.6936 425.531 81.7679 425.469 81.8278 425.394C81.8877 425.32 81.932 425.234 81.958 425.142C81.9839 425.05 81.991 424.953 81.9789 424.858Z" fill="black"/>
    <path d="M81.7908 399.682C82.0781 397.608 82.4496 395.543 82.9297 393.498C83.3775 391.481 84.053 389.522 84.9432 387.658C84.9961 387.57 85.0301 387.473 85.0433 387.371C85.0564 387.27 85.0483 387.167 85.0195 387.069C84.9907 386.971 84.9418 386.88 84.876 386.802C84.8102 386.724 84.7289 386.66 84.6371 386.615C84.5454 386.57 84.4453 386.544 84.3432 386.54C84.2411 386.536 84.1392 386.553 84.044 386.59C83.9488 386.627 83.8624 386.683 83.7902 386.756C83.718 386.828 83.6616 386.915 83.6247 387.01C82.6905 388.978 81.9804 391.045 81.5077 393.172C81.0232 395.256 80.6359 397.362 80.3455 399.489C80.3244 399.682 80.3805 399.874 80.5015 400.025C80.6224 400.176 80.7983 400.272 80.9905 400.293C81.1826 400.314 81.3753 400.258 81.5261 400.137C81.6768 400.016 81.7734 399.841 81.7945 399.648L81.7908 399.682Z" fill="black"/>
    <path d="M93.8102 380.106C95.8053 379.68 97.8586 379.6 99.8808 379.868C101.934 380.134 103.956 380.602 105.917 381.264C106.009 381.294 106.107 381.307 106.204 381.3C106.301 381.293 106.396 381.267 106.483 381.224C106.57 381.18 106.648 381.12 106.712 381.047C106.776 380.973 106.824 380.888 106.855 380.795C106.886 380.703 106.898 380.606 106.892 380.508C106.885 380.411 106.859 380.316 106.815 380.229C106.772 380.142 106.712 380.065 106.638 380.001C106.565 379.937 106.479 379.888 106.387 379.857C104.331 379.165 102.211 378.678 100.059 378.404C97.8666 378.114 95.6407 378.207 93.4808 378.68C93.3781 378.693 93.2793 378.727 93.1909 378.781C93.1025 378.834 93.0263 378.906 92.9674 378.991C92.9085 379.076 92.8681 379.173 92.8489 379.274C92.8296 379.376 92.832 379.48 92.8559 379.581C92.8797 379.682 92.9245 379.776 92.9873 379.858C93.05 379.941 93.1293 380.009 93.2201 380.058C93.3109 380.108 93.4112 380.138 93.5143 380.146C93.6174 380.154 93.7211 380.141 93.8186 380.106L93.8102 380.106Z" fill="black"/>
    <path d="M117.312 386.517C120.96 388.622 124.499 390.946 127.913 393.392C127.993 393.45 128.083 393.491 128.179 393.513C128.275 393.536 128.374 393.539 128.471 393.523C128.569 393.507 128.662 393.473 128.745 393.421C128.829 393.369 128.902 393.301 128.959 393.221C129.017 393.141 129.058 393.051 129.08 392.955C129.103 392.859 129.106 392.76 129.09 392.663C129.074 392.566 129.04 392.473 128.988 392.389C128.936 392.305 128.868 392.233 128.788 392.175C125.33 389.677 121.746 387.357 118.05 385.225C117.88 385.143 117.686 385.129 117.505 385.185C117.325 385.241 117.173 385.363 117.079 385.527C116.986 385.691 116.958 385.884 117.001 386.067C117.044 386.251 117.155 386.412 117.312 386.517Z" fill="black"/>
    <path d="M137.971 401.093L147.585 409.352C147.741 409.454 147.928 409.496 148.112 409.469C148.296 409.442 148.464 409.349 148.585 409.208C148.705 409.066 148.769 408.885 148.766 408.699C148.762 408.513 148.69 408.335 148.565 408.198L138.887 399.898C138.734 399.78 138.541 399.725 138.348 399.745C138.155 399.765 137.978 399.858 137.852 400.005C137.726 400.152 137.662 400.342 137.672 400.536C137.683 400.729 137.768 400.911 137.909 401.044L137.971 401.093Z" fill="black"/>
    <path d="M157.056 417.833L166.633 426.199C166.706 426.279 166.795 426.342 166.895 426.384C166.994 426.427 167.101 426.448 167.21 426.446C167.318 426.443 167.424 426.418 167.522 426.372C167.619 426.326 167.706 426.259 167.776 426.176C167.846 426.094 167.898 425.998 167.927 425.894C167.957 425.79 167.965 425.681 167.949 425.574C167.934 425.467 167.896 425.364 167.838 425.273C167.779 425.182 167.703 425.104 167.612 425.045L158.063 416.733C157.992 416.65 157.903 416.582 157.803 416.536C157.703 416.49 157.594 416.466 157.483 416.466C157.373 416.466 157.264 416.49 157.164 416.536C157.064 416.583 156.975 416.65 156.904 416.734C156.832 416.818 156.779 416.916 156.75 417.022C156.72 417.128 156.713 417.239 156.73 417.348C156.748 417.457 156.788 417.561 156.85 417.653C156.911 417.744 156.991 417.822 157.085 417.879L157.056 417.833Z" fill="black"/>
    <path d="M176.541 434.251C179.915 436.83 183.385 439.316 186.968 441.627C187.141 441.738 187.351 441.775 187.552 441.731C187.753 441.687 187.927 441.564 188.038 441.391C188.149 441.218 188.186 441.008 188.141 440.807C188.097 440.606 187.975 440.431 187.802 440.321C184.267 438.04 180.828 435.583 177.477 433.024C177.314 432.9 177.109 432.845 176.906 432.873C176.703 432.9 176.519 433.007 176.395 433.169C176.271 433.332 176.217 433.538 176.244 433.74C176.271 433.943 176.378 434.127 176.541 434.251Z" fill="black"/>
    <path d="M198.101 447.943C201.955 449.828 205.973 451.357 210.106 452.509C210.308 452.564 210.524 452.537 210.706 452.433C210.887 452.329 211.02 452.157 211.075 451.955C211.13 451.753 211.102 451.537 210.999 451.355C210.895 451.174 210.723 451.041 210.521 450.986C206.471 449.868 202.533 448.377 198.758 446.532C198.572 446.442 198.356 446.429 198.16 446.497C197.964 446.565 197.803 446.708 197.713 446.895C197.622 447.082 197.609 447.297 197.677 447.493C197.745 447.689 197.888 447.85 198.075 447.941L198.101 447.943Z" fill="black"/>
    <path d="M222.947 454.13C225.17 453.943 227.333 453.311 229.307 452.271C231.265 451.191 232.978 449.715 234.335 447.937C234.466 447.771 234.526 447.559 234.501 447.349C234.476 447.138 234.369 446.946 234.202 446.815C234.036 446.683 233.824 446.623 233.613 446.648C233.403 446.673 233.211 446.781 233.079 446.947C231.858 448.551 230.315 449.883 228.549 450.858C226.767 451.808 224.809 452.385 222.796 452.554C222.587 452.574 222.395 452.676 222.261 452.838C222.127 453 222.063 453.209 222.083 453.418C222.103 453.627 222.206 453.819 222.368 453.953C222.53 454.087 222.738 454.151 222.947 454.13Z" fill="black"/>
    <path d="M239.388 435.984C240.246 431.781 240.715 427.509 240.789 423.221C240.782 423.017 240.697 422.823 240.552 422.679C240.407 422.535 240.213 422.451 240.008 422.445C239.804 422.439 239.605 422.51 239.452 422.646C239.298 422.781 239.202 422.969 239.183 423.173C239.116 427.364 238.672 431.542 237.856 435.653C237.816 435.858 237.859 436.07 237.974 436.244C238.089 436.418 238.268 436.54 238.472 436.583C238.675 436.627 238.888 436.589 239.064 436.477C239.241 436.366 239.366 436.189 239.414 435.986L239.388 435.984Z" fill="black"/>
    <path d="M240.421 410.427L239.086 397.731C239.11 397.601 239.104 397.467 239.068 397.34C239.031 397.213 238.966 397.096 238.876 396.998C238.786 396.901 238.675 396.826 238.551 396.78C238.428 396.733 238.295 396.716 238.163 396.73C238.032 396.744 237.905 396.789 237.794 396.861C237.683 396.932 237.59 397.029 237.523 397.143C237.456 397.257 237.416 397.385 237.408 397.517C237.399 397.649 237.421 397.781 237.473 397.903L237.468 397.945L238.797 410.538L238.792 410.589C238.801 410.695 238.832 410.797 238.882 410.891C238.932 410.985 239 411.068 239.082 411.135C239.165 411.202 239.26 411.252 239.362 411.282C239.464 411.311 239.571 411.32 239.676 411.308C239.889 411.283 240.084 411.177 240.222 411.014C240.36 410.85 240.431 410.64 240.421 410.427Z" fill="black"/>
    <path d="M237.176 385.149C236.851 383.058 236.516 380.984 236.208 378.896L235.357 372.587C235.322 372.375 235.208 372.183 235.037 372.052C234.866 371.921 234.652 371.86 234.437 371.881C234.225 371.916 234.033 372.03 233.902 372.201C233.771 372.372 233.71 372.587 233.731 372.801L234.575 379.092C234.882 381.189 235.23 383.298 235.588 385.401C235.664 385.569 235.794 385.708 235.957 385.796C236.119 385.884 236.306 385.916 236.489 385.888C236.672 385.86 236.84 385.773 236.969 385.64C237.098 385.507 237.179 385.335 237.201 385.152L237.176 385.149Z" fill="black"/>
    <path d="M233.473 360.001L231.39 347.445C231.321 347.26 231.19 347.106 231.02 347.007C230.85 346.909 230.651 346.873 230.457 346.905C230.263 346.937 230.086 347.035 229.957 347.183C229.828 347.331 229.754 347.52 229.748 347.716L231.844 360.24C231.836 360.367 231.857 360.494 231.905 360.612C231.953 360.73 232.026 360.835 232.121 360.921C232.215 361.006 232.327 361.069 232.449 361.105C232.571 361.141 232.7 361.15 232.825 361.129C232.951 361.109 233.07 361.061 233.174 360.988C233.279 360.915 233.365 360.82 233.428 360.709C233.49 360.598 233.527 360.475 233.535 360.348C233.544 360.221 233.523 360.094 233.476 359.976L233.473 360.001Z" fill="black"/>
    <path d="M229.184 334.929L226.925 322.413C226.882 322.194 226.755 322.001 226.571 321.876C226.387 321.75 226.161 321.703 225.942 321.742C225.725 321.786 225.534 321.912 225.409 322.094C225.284 322.276 225.235 322.5 225.272 322.718L227.541 335.218C227.609 335.404 227.741 335.561 227.913 335.66C228.086 335.759 228.287 335.795 228.483 335.76C228.679 335.726 228.856 335.624 228.984 335.472C229.112 335.32 229.183 335.128 229.184 334.929Z" fill="black"/>
    <path d="M224.674 309.904L222.5 297.389C222.461 297.169 222.337 296.974 222.155 296.846C221.973 296.717 221.747 296.666 221.527 296.702C221.306 296.74 221.109 296.863 220.979 297.045C220.849 297.227 220.796 297.454 220.832 297.675L223.02 310.209C223.078 310.409 223.208 310.581 223.385 310.691C223.562 310.801 223.773 310.843 223.979 310.807C224.184 310.772 224.369 310.662 224.499 310.499C224.628 310.335 224.693 310.13 224.68 309.922L224.674 309.904Z" fill="black"/>
    <path d="M220.456 284.858L218.629 272.296C218.568 272.105 218.442 271.942 218.272 271.836C218.102 271.73 217.901 271.687 217.702 271.715C217.504 271.744 217.322 271.841 217.189 271.991C217.056 272.14 216.98 272.332 216.975 272.532L218.798 285.128C218.804 285.246 218.834 285.362 218.886 285.467C218.939 285.573 219.013 285.666 219.103 285.742C219.194 285.817 219.3 285.873 219.413 285.905C219.527 285.937 219.646 285.945 219.763 285.929C219.879 285.912 219.991 285.872 220.092 285.81C220.192 285.747 220.278 285.665 220.345 285.568C220.411 285.47 220.457 285.36 220.478 285.244C220.5 285.128 220.497 285.009 220.469 284.894L220.456 284.858Z" fill="black"/>
    <path d="M217.081 259.696L215.909 247.069C215.852 246.882 215.733 246.72 215.571 246.611C215.409 246.502 215.215 246.452 215.02 246.47C214.826 246.488 214.644 246.572 214.504 246.709C214.365 246.845 214.277 247.026 214.255 247.22L215.421 259.906C215.473 260.099 215.592 260.267 215.756 260.38C215.921 260.494 216.12 260.546 216.319 260.527C216.518 260.508 216.704 260.419 216.844 260.277C216.984 260.134 217.069 259.946 217.084 259.747L217.081 259.696Z" fill="black"/>
    <path d="M215.115 234.402L214.856 221.765C214.886 221.639 214.886 221.508 214.858 221.382C214.829 221.256 214.772 221.138 214.691 221.037C214.61 220.936 214.506 220.855 214.389 220.801C214.272 220.746 214.144 220.719 214.014 220.722C213.885 220.724 213.758 220.757 213.643 220.816C213.528 220.875 213.428 220.96 213.351 221.064C213.274 221.168 213.222 221.288 213.198 221.415C213.175 221.542 213.181 221.673 213.215 221.798L213.504 234.473C213.477 234.598 213.479 234.727 213.509 234.852C213.539 234.976 213.597 235.092 213.678 235.191C213.759 235.289 213.862 235.368 213.978 235.422C214.094 235.475 214.221 235.502 214.349 235.499C214.477 235.497 214.602 235.465 214.716 235.407C214.83 235.35 214.93 235.266 215.007 235.165C215.085 235.063 215.138 234.945 215.163 234.819C215.188 234.694 215.185 234.564 215.153 234.441L215.115 234.402Z" fill="black"/>
    <path d="M215.2 209.074C215.381 204.924 216.257 200.833 217.79 196.971C217.875 196.87 217.936 196.75 217.966 196.622C217.997 196.493 217.997 196.359 217.967 196.23C217.936 196.101 217.876 195.981 217.791 195.88C217.706 195.778 217.599 195.698 217.477 195.646C217.355 195.594 217.223 195.571 217.091 195.579C216.959 195.587 216.831 195.625 216.716 195.692C216.602 195.758 216.505 195.851 216.432 195.962C216.36 196.073 216.315 196.199 216.3 196.33C214.689 200.362 213.767 204.636 213.574 208.973C213.529 209.096 213.514 209.228 213.529 209.359C213.544 209.489 213.589 209.615 213.66 209.725C213.732 209.835 213.828 209.927 213.942 209.993C214.055 210.06 214.182 210.099 214.313 210.108C214.444 210.117 214.576 210.095 214.697 210.044C214.818 209.994 214.926 209.916 215.012 209.816C215.098 209.717 215.159 209.599 215.192 209.472C215.224 209.344 215.227 209.211 215.199 209.083L215.2 209.074Z" fill="black"/>
    <path d="M226.142 189.227C228.127 188.93 230.155 189.123 232.048 189.789C233.984 190.465 235.826 191.386 237.528 192.531C237.616 192.597 237.716 192.644 237.823 192.669C237.93 192.695 238.041 192.698 238.15 192.679C238.258 192.66 238.361 192.619 238.453 192.559C238.545 192.498 238.624 192.42 238.684 192.328C238.744 192.236 238.785 192.132 238.804 192.024C238.822 191.915 238.819 191.804 238.793 191.697C238.767 191.59 238.72 191.49 238.654 191.402C238.587 191.314 238.504 191.241 238.408 191.186C236.592 189.957 234.622 188.973 232.549 188.259C230.415 187.504 228.128 187.289 225.891 187.63C225.732 187.713 225.604 187.844 225.524 188.005C225.445 188.165 225.418 188.346 225.448 188.523C225.478 188.699 225.563 188.862 225.691 188.987C225.819 189.112 225.983 189.194 226.16 189.22L226.142 189.227Z" fill="black"/>
    <path d="M246.872 200.845L255.378 210.269C255.525 210.401 255.715 210.474 255.912 210.474C256.11 210.473 256.3 210.399 256.446 210.267C256.592 210.134 256.684 209.953 256.703 209.756C256.723 209.56 256.669 209.364 256.552 209.205L248.033 199.744C247.963 199.667 247.878 199.603 247.783 199.558C247.688 199.513 247.586 199.487 247.481 199.482C247.376 199.477 247.271 199.493 247.173 199.528C247.074 199.564 246.983 199.618 246.905 199.689C246.826 199.757 246.762 199.841 246.716 199.935C246.67 200.028 246.643 200.13 246.637 200.235C246.631 200.339 246.646 200.444 246.682 200.542C246.717 200.64 246.772 200.731 246.842 200.807L246.872 200.845Z" fill="black"/>
    <path d="M263.556 219.956L271.544 229.827C271.608 229.908 271.687 229.975 271.777 230.025C271.868 230.075 271.967 230.107 272.07 230.118C272.173 230.13 272.277 230.12 272.376 230.091C272.475 230.062 272.567 230.013 272.647 229.948C272.728 229.885 272.795 229.806 272.845 229.716C272.895 229.626 272.926 229.528 272.937 229.426C272.948 229.324 272.939 229.221 272.91 229.122C272.881 229.024 272.832 228.932 272.767 228.853L264.774 218.956C264.709 218.873 264.629 218.804 264.538 218.753C264.447 218.702 264.346 218.669 264.242 218.657C264.138 218.645 264.033 218.654 263.932 218.683C263.832 218.713 263.738 218.762 263.657 218.827C263.575 218.893 263.508 218.975 263.458 219.067C263.408 219.159 263.378 219.26 263.368 219.364C263.358 219.469 263.368 219.574 263.399 219.674C263.43 219.774 263.481 219.866 263.548 219.947L263.556 219.956Z" fill="black"/>
    <path d="M182.834 414.171L149.419 393.234L170.709 433.462L170.747 433.463L182.834 414.171Z" fill="#F1EFED"/>
    <path d="M149.419 393.234L147.996 432.641L170.709 433.462L149.419 393.234Z" fill="#F1EFED"/>
    <path d="M170.718 433.478L170.709 433.462L147.996 432.641L181.356 453.543L170.718 433.478Z" fill="#F1EFED"/>
    <path d="M181.41 453.578L182.834 414.171L170.747 433.463L170.709 433.462L170.718 433.478L181.356 453.543L181.41 453.578Z" fill="black"/>
    <path d="M147.996 432.641L149.419 393.234M147.996 432.641L181.356 453.543M147.996 432.641L170.709 433.462M149.419 393.234L182.834 414.171M149.419 393.234L170.709 433.462M182.834 414.171L181.41 453.578L181.356 453.543M182.834 414.171L170.747 433.463L170.709 433.462M181.382 453.593L181.356 453.543M170.709 433.462L170.718 433.478L181.356 453.543" stroke="black" stroke-width="2" stroke-miterlimit="10" stroke-linecap="round" stroke-linejoin="round"/>
    <path d="M230.909 239.96L210.248 283.591L249.283 287.387L230.909 239.96Z" fill="#F1EFED"/>
    <path d="M195.978 277.644L216.137 320.784L210.248 283.591L195.978 277.644Z" fill="black"/>
    <path d="M210.248 283.591L216.137 320.784L249.283 287.387L210.248 283.591Z" fill="#F1EFED"/>
    <path d="M230.909 239.96L195.978 277.644L210.248 283.591L230.909 239.96Z" fill="#F1EFED"/>
    <path d="M195.978 277.644L230.909 239.96M195.978 277.644L216.137 320.784M195.978 277.644L210.248 283.591M230.909 239.96L210.248 283.591M230.909 239.96L249.283 287.387M216.137 320.784L210.248 283.591M216.137 320.784L249.283 287.387M210.248 283.591L249.283 287.387" stroke="black" stroke-width="2" stroke-linejoin="round"/>
</svg>
