<svg width="143" height="110" viewBox="0 0 143 110" fill="none" xmlns="http://www.w3.org/2000/svg">
    <path d="M87.782 85.6314L64.4012 87.3827L54.2239 108.513L77.6047 106.762L87.782 85.6314Z" fill="black"/>
    <path d="M48.1512 27.4754L61.3642 46.8574L84.7562 45.1058L94.935 23.9721L48.1512 27.4754Z" fill="black"/>
    <path d="M108.171 43.3629L131.566 41.6109L141.747 20.4739L118.351 22.2258L108.171 43.3629Z" fill="black"/>
    <path d="M105.112 2.82916L118.326 22.2139L141.722 20.462L128.507 1.07686L105.112 2.82916Z" fill="#F1EFED"/>
    <path d="M94.9345 23.9599L94.9424 23.9715L94.935 23.9721L108.146 43.351L118.326 22.2139L105.112 2.82916L94.9345 23.9599Z" fill="#F1EFED"/>
    <path d="M81.7273 4.58642L11.5412 9.84262L64.3973 87.3768L87.7851 85.6251L87.782 85.6314L87.7961 85.6304L61.3642 46.8574L61.3606 46.8577L48.1454 27.4726L94.9331 23.969L94.9314 23.9662L94.9345 23.9599L81.7273 4.58642Z" fill="#F1EFED"/>
    <path d="M54.2129 108.508L64.3902 87.3774L64.3973 87.3768L11.5412 9.84262L1.36077 30.9797L54.2129 108.508Z" fill="#F1EFED"/>
    <path d="M64.4012 87.3827L87.782 85.6314M64.4012 87.3827L54.2239 108.513M64.4012 87.3827L64.3973 87.3768M11.5412 9.84262L81.7273 4.58642L94.9345 23.9599M11.5412 9.84262L1.36077 30.9797L54.2129 108.508M11.5412 9.84262L64.3973 87.3768M105.112 2.82916L118.326 22.2139M105.112 2.82916L128.507 1.07686L141.722 20.462L118.326 22.2139M105.112 2.82916L94.9345 23.9599M118.326 22.2139L108.146 43.351L94.935 23.9721M87.782 85.6314L77.6047 106.762L54.2239 108.513M87.782 85.6314L87.7851 85.6251L64.3973 87.3768M87.782 85.6314L87.7961 85.6304L61.3642 46.8574M54.2239 108.513L54.2098 108.514L54.2129 108.508M54.2239 108.513L54.2208 108.52L54.2129 108.508M61.3642 46.8574L48.1512 27.4754L94.935 23.9721M61.3642 46.8574L84.7562 45.1058L94.935 23.9721M61.3642 46.8574L61.3606 46.8577L48.1454 27.4726L94.9331 23.969M94.935 23.9721L94.9366 23.9687L94.9331 23.969M94.935 23.9721L94.9424 23.9715L94.9345 23.9599M94.935 23.9721L94.9331 23.969M94.9345 23.9599L94.9314 23.9662L94.9331 23.969M64.3973 87.3768L64.3902 87.3774L54.2129 108.508M108.171 43.3629L131.566 41.6109L141.747 20.4739L118.351 22.2258L108.171 43.3629Z" stroke="black" stroke-width="2" stroke-miterlimit="10" stroke-linecap="round" stroke-linejoin="round"/>
</svg>
