<svg width="299" height="412" viewBox="0 0 299 412" fill="none" xmlns="http://www.w3.org/2000/svg">
    <path d="M-0.961293 358.557C4.0377 359.079 9.06407 359.295 14.0895 359.203C14.2368 359.202 14.3783 359.145 14.4843 359.043C14.5903 358.941 14.6528 358.802 14.6584 358.654C14.6608 358.506 14.6045 358.364 14.5018 358.257C14.3991 358.15 14.2583 358.089 14.1103 358.086C9.13346 358.201 4.15418 358.019 -0.800955 357.542C-0.867713 357.535 -0.93518 357.541 -0.999494 357.56C-1.06381 357.579 -1.12369 357.611 -1.17573 357.653C-1.22776 357.696 -1.27095 357.748 -1.30275 357.807C-1.33455 357.866 -1.35437 357.931 -1.36107 357.998C-1.37385 358.124 -1.3403 358.25 -1.26671 358.353C-1.19312 358.456 -1.08453 358.528 -0.961293 358.557Z" fill="black"/>
    <path d="M29.1131 357.586C34.0705 356.609 38.8731 354.966 43.39 352.701C43.4676 352.663 43.5368 352.609 43.5933 352.543C43.6499 352.478 43.6927 352.401 43.7193 352.319C43.7458 352.236 43.7556 352.149 43.748 352.063C43.7405 351.976 43.7157 351.892 43.6752 351.816C43.5952 351.661 43.4571 351.544 43.2911 351.49C43.1252 351.437 42.9448 351.451 42.7894 351.531C38.394 353.769 33.7151 355.4 28.8809 356.379C28.7526 356.434 28.6469 356.531 28.5813 356.654C28.5158 356.777 28.4945 356.919 28.5209 357.056C28.5473 357.193 28.6198 357.317 28.7264 357.407C28.833 357.497 28.9672 357.548 29.1066 357.551L29.1131 357.586Z" fill="black"/>
    <path d="M55.545 343.573C57.2741 341.707 58.8399 339.697 60.2254 337.564C61.6168 335.433 62.8362 333.195 63.872 330.871C63.9166 330.779 63.9418 330.679 63.9461 330.578C63.9504 330.476 63.9336 330.374 63.8969 330.28C63.8602 330.185 63.8043 330.098 63.7327 330.026C63.6611 329.954 63.5753 329.897 63.4807 329.859C63.3888 329.818 63.2894 329.795 63.1885 329.792C63.0876 329.789 62.9871 329.806 62.893 329.843C62.7988 329.879 62.7128 329.934 62.6401 330.004C62.5673 330.074 62.5093 330.158 62.4693 330.251C61.4811 332.499 60.3199 334.667 58.9963 336.735C57.6688 338.808 56.1655 340.763 54.5029 342.578C54.439 342.645 54.3892 342.724 54.3564 342.81C54.3236 342.897 54.3085 342.989 54.312 343.081C54.3156 343.174 54.3377 343.265 54.377 343.348C54.4163 343.432 54.4721 343.507 54.541 343.569C54.6066 343.635 54.6846 343.687 54.7706 343.723C54.8566 343.76 54.9488 343.778 55.042 343.779C55.1353 343.779 55.2277 343.761 55.314 343.726C55.4003 343.691 55.4788 343.639 55.545 343.573Z" fill="black"/>
    <path d="M65.0172 315.686C63.6425 310.752 61.3193 306.133 58.1774 302.088C58.1147 301.99 58.0323 301.906 57.9354 301.841C57.8386 301.777 57.7293 301.733 57.6147 301.713C57.5 301.693 57.3824 301.697 57.2694 301.725C57.1563 301.752 57.0503 301.803 56.958 301.874C56.7779 302.008 56.6582 302.208 56.625 302.43C56.5917 302.652 56.6475 302.878 56.7803 303.059C59.8204 306.927 62.0841 311.347 63.4471 316.074C63.5005 316.28 63.6336 316.457 63.8173 316.565C64.0009 316.673 64.2201 316.704 64.4264 316.651C64.6328 316.597 64.8095 316.464 64.9177 316.281C65.0259 316.097 65.0567 315.878 65.0033 315.671L65.0172 315.686Z" fill="black"/>
    <path d="M47.9409 290.929C44.2138 287.54 40.3123 284.347 36.2525 281.364C36.1591 281.296 36.053 281.246 35.9404 281.219C35.8279 281.191 35.7109 281.186 35.5964 281.203C35.4818 281.221 35.3717 281.261 35.2726 281.321C35.1734 281.381 35.0871 281.46 35.0185 281.554C34.9499 281.647 34.9004 281.753 34.8728 281.866C34.8451 281.978 34.8399 282.095 34.8575 282.21C34.8751 282.324 34.9151 282.434 34.9752 282.534C35.0352 282.633 35.1142 282.719 35.2077 282.788C39.2229 285.715 43.0784 288.855 46.7575 292.194C46.9296 292.327 47.145 292.39 47.3613 292.372C47.5777 292.353 47.7794 292.255 47.9268 292.095C48.0742 291.936 48.1566 291.727 48.158 291.51C48.1593 291.293 48.0794 291.083 47.9339 290.922L47.9409 290.929Z" fill="black"/>
    <path d="M23.8381 272.867C21.713 271.541 19.6022 270.2 17.4699 268.881L10.934 265.168C10.8302 265.108 10.7157 265.07 10.597 265.055C10.4783 265.039 10.3577 265.048 10.2422 265.079C10.1267 265.11 10.0185 265.164 9.92378 265.237C9.82906 265.311 9.74969 265.402 9.69018 265.506C9.63067 265.609 9.59219 265.724 9.57694 265.843C9.5617 265.961 9.57 266.082 9.60134 266.197C9.63268 266.313 9.68647 266.421 9.75963 266.516C9.83278 266.61 9.92385 266.69 10.0277 266.749L16.5358 270.434C18.6543 271.739 20.7653 273.065 22.8835 274.384C23.0846 274.489 23.3179 274.513 23.5367 274.454C23.7554 274.394 23.9435 274.253 24.0633 274.061C24.1831 273.868 24.2257 273.637 24.1827 273.415C24.1396 273.192 24.0141 272.994 23.8312 272.86L23.8381 272.867Z" fill="black"/>
    <path d="M-1.53834 257.079C-2.50716 256.318 -3.44742 255.544 -4.31595 254.715C-5.17357 253.936 -5.91856 253.042 -6.52944 252.057C-6.65735 251.837 -6.76431 251.606 -6.84893 251.366C-6.87955 251.261 -6.90355 251.154 -6.92078 251.046C-6.95376 250.953 -6.96403 250.853 -6.95074 250.756C-6.95435 250.571 -6.91197 250.389 -6.82743 250.225C-6.74289 250.061 -6.61885 249.921 -6.46653 249.817C-5.56641 249.218 -4.5447 248.826 -3.47502 248.67C-3.23478 248.609 -3.02581 248.46 -2.88868 248.254C-2.75155 248.047 -2.69604 247.797 -2.73289 247.552C-2.75735 247.431 -2.80551 247.316 -2.87463 247.213C-2.94374 247.11 -3.03242 247.022 -3.13561 246.954C-3.23881 246.886 -3.35448 246.839 -3.47597 246.815C-3.59747 246.792 -3.7224 246.792 -3.84361 246.817C-5.25276 247.023 -6.5907 247.568 -7.74149 248.407L-7.95751 248.615L-8.19515 248.844C-8.33777 249.014 -8.46425 249.196 -8.573 249.389L-8.79722 250.036C-8.84917 250.255 -8.87001 250.481 -8.85917 250.706C-8.88243 250.918 -8.86482 251.132 -8.80728 251.337C-8.77404 251.536 -8.7281 251.733 -8.66974 251.926C-8.55388 252.263 -8.41096 252.589 -8.24241 252.903C-7.5387 254.047 -6.67993 255.089 -5.69055 255.998C-4.74518 256.878 -3.75606 257.688 -2.75949 258.477C-2.56434 258.626 -2.31864 258.693 -2.07491 258.663C-1.83118 258.633 -1.60879 258.509 -1.45533 258.318C-1.30377 258.124 -1.23544 257.877 -1.26536 257.633C-1.29528 257.388 -1.42101 257.165 -1.61493 257.014L-1.53834 257.079Z" fill="black"/>
    <path d="M11.3384 247.598L26.333 247.09C26.5507 247.031 26.7419 246.9 26.8757 246.718C27.0094 246.536 27.0778 246.315 27.0697 246.089C27.0616 245.864 26.9775 245.648 26.8311 245.476C26.6847 245.305 26.4845 245.188 26.2631 245.144L11.2892 245.688C11.1382 245.647 10.9797 245.642 10.8264 245.674C10.6732 245.705 10.5294 245.772 10.4067 245.869C10.2841 245.966 10.1859 246.091 10.1201 246.233C10.0543 246.375 10.0227 246.53 10.0279 246.686C10.0331 246.843 10.0749 246.996 10.15 247.133C10.2251 247.27 10.3312 247.388 10.4601 247.477C10.5889 247.565 10.7368 247.623 10.8918 247.644C11.0468 247.665 11.2046 247.649 11.3526 247.599L11.3384 247.598Z" fill="black"/>
    <path d="M41.3199 246.587C46.3313 246.34 51.3379 245.973 56.3273 245.386C56.4677 245.386 56.6066 245.357 56.735 245.3C56.8633 245.243 56.9782 245.159 57.0722 245.055C57.1662 244.951 57.2372 244.828 57.2806 244.694C57.3239 244.561 57.3386 244.419 57.3237 244.28C57.3088 244.14 57.2647 244.005 57.1942 243.884C57.1237 243.762 57.0284 243.657 56.9145 243.575C56.8006 243.493 56.6707 243.436 56.5332 243.407C56.3958 243.378 56.2538 243.379 56.1166 243.409C51.1549 244.024 46.206 244.336 41.2298 244.591C40.983 244.626 40.7582 244.752 40.5994 244.944C40.4407 245.136 40.3594 245.381 40.3716 245.63C40.3838 245.879 40.4885 246.114 40.6653 246.29C40.842 246.466 41.0781 246.569 41.3271 246.58L41.3199 246.587Z" fill="black"/>
    <path d="M71.2107 242.907C76.1367 241.818 80.9831 240.395 85.7164 238.649C85.8355 238.607 85.945 238.542 86.0385 238.458C86.1319 238.373 86.2074 238.27 86.2603 238.156C86.3133 238.041 86.3426 237.917 86.3467 237.791C86.3507 237.665 86.3293 237.539 86.2837 237.422C86.1873 237.191 86.0078 237.004 85.7806 236.899C85.5535 236.794 85.2952 236.778 85.0567 236.855C80.399 238.556 75.6313 239.94 70.7866 240.997C70.6357 240.996 70.4867 241.03 70.3506 241.095C70.2146 241.16 70.095 241.255 70.0008 241.373C69.9066 241.491 69.8404 241.628 69.807 241.775C69.7735 241.922 69.7738 242.075 69.8078 242.222C69.8418 242.369 69.9086 242.506 70.0032 242.624C70.0978 242.741 70.2177 242.836 70.3541 242.901C70.4904 242.965 70.6396 242.998 70.7904 242.997C70.9413 242.995 71.0898 242.96 71.2251 242.893L71.2107 242.907Z" fill="black"/>
    <path d="M99.4431 232.169C103.8 229.527 107.772 226.297 111.248 222.571C111.414 222.387 111.5 222.144 111.487 221.896C111.475 221.647 111.364 221.415 111.18 221.248C111.09 221.164 110.984 221.1 110.868 221.059C110.752 221.018 110.629 221 110.506 221.007C110.384 221.014 110.263 221.045 110.153 221.099C110.043 221.154 109.944 221.229 109.864 221.322C106.499 224.91 102.655 228.016 98.4405 230.552C98.334 230.615 98.2411 230.7 98.1673 230.799C98.0934 230.899 98.04 231.012 98.0102 231.133C97.9804 231.253 97.9746 231.378 97.9934 231.501C98.0121 231.623 98.055 231.741 98.1195 231.847C98.2592 232.051 98.4697 232.197 98.7103 232.255C98.9509 232.313 99.2045 232.279 99.422 232.161L99.4431 232.169Z" fill="black"/>
    <path d="M119.576 209.829C121.596 205.135 122.847 200.146 123.281 195.054C123.291 194.937 123.279 194.819 123.244 194.707C123.209 194.595 123.152 194.491 123.077 194.401C123.002 194.311 122.909 194.237 122.806 194.183C122.702 194.128 122.588 194.095 122.471 194.084C122.354 194.074 122.237 194.086 122.125 194.121C122.013 194.156 121.909 194.213 121.819 194.288C121.729 194.363 121.654 194.456 121.6 194.559C121.545 194.663 121.512 194.777 121.501 194.894C121.072 199.79 119.861 204.585 117.913 209.098C117.856 209.209 117.822 209.33 117.813 209.454C117.804 209.578 117.821 209.703 117.863 209.82C117.904 209.937 117.969 210.045 118.053 210.136C118.138 210.228 118.241 210.301 118.354 210.351C118.468 210.401 118.591 210.427 118.716 210.428C118.84 210.428 118.964 210.403 119.078 210.354C119.193 210.306 119.296 210.234 119.381 210.143C119.467 210.053 119.533 209.946 119.576 209.829Z" fill="black"/>
    <path d="M122.67 179.891C121.812 174.907 120.487 170.014 118.713 165.278C118.63 165.071 118.47 164.905 118.267 164.814C118.063 164.723 117.832 164.714 117.623 164.79C117.413 164.866 117.241 165.021 117.143 165.221C117.045 165.421 117.029 165.652 117.097 165.864C118.831 170.51 120.122 175.309 120.953 180.199C120.991 180.429 121.119 180.635 121.309 180.771C121.498 180.907 121.735 180.962 121.965 180.924C122.195 180.886 122.401 180.759 122.538 180.569C122.674 180.379 122.729 180.143 122.691 179.912L122.67 179.891Z" fill="black"/>
    <path d="M112.913 151.347L106.959 137.645C106.876 137.456 106.721 137.308 106.529 137.233C106.337 137.158 106.123 137.162 105.934 137.244C105.747 137.329 105.6 137.484 105.525 137.675C105.45 137.867 105.453 138.08 105.533 138.269L111.393 152.061C111.496 152.244 111.662 152.382 111.861 152.45C112.059 152.517 112.275 152.509 112.468 152.426C112.661 152.344 112.816 152.193 112.905 152.003C112.993 151.813 113.008 151.597 112.947 151.397L112.913 151.347Z" fill="black"/>
    <path d="M102.498 123.487C101.468 118.657 101.148 113.703 101.548 108.781C101.565 108.596 101.507 108.411 101.388 108.269C101.268 108.126 101.097 108.036 100.912 108.02C100.726 108.003 100.542 108.061 100.399 108.18C100.256 108.3 100.167 108.471 100.15 108.656C99.7084 113.718 100.004 118.816 101.028 123.792C101.075 123.978 101.192 124.139 101.355 124.242C101.517 124.344 101.712 124.38 101.901 124.343C102.089 124.306 102.256 124.198 102.367 124.041C102.478 123.884 102.525 123.691 102.498 123.501L102.498 123.487Z" fill="black"/>
    <path d="M104.97 94.4373C106.83 89.8443 109.228 85.4878 112.114 81.4586C112.185 81.3272 112.206 81.174 112.172 81.0282C112.138 80.8824 112.052 80.7543 111.929 80.6682C111.807 80.5821 111.657 80.544 111.508 80.5612C111.359 80.5785 111.222 80.6498 111.123 80.7616C108.159 84.8601 105.684 89.2903 103.748 93.9622C103.686 94.1225 103.688 94.3009 103.755 94.4593C103.822 94.6177 103.948 94.7437 104.107 94.8103C104.186 94.8426 104.271 94.8589 104.357 94.8583C104.442 94.8577 104.527 94.8402 104.606 94.8069C104.684 94.7735 104.756 94.7249 104.816 94.6639C104.876 94.6028 104.923 94.5305 104.955 94.4511L104.97 94.4373Z" fill="black"/>
    <path d="M121.725 70.0843C125.234 66.5503 128.939 63.2166 132.822 60.099C132.927 60.0165 132.995 59.8958 133.01 59.7635C133.026 59.6311 132.989 59.498 132.906 59.3933C132.824 59.2886 132.703 59.221 132.571 59.2052C132.438 59.1895 132.305 59.227 132.2 59.3095C128.275 62.4191 124.525 65.7448 120.969 69.2711C120.885 69.3774 120.842 69.5106 120.848 69.646C120.855 69.7815 120.91 69.9099 121.004 70.0075C121.098 70.1052 121.225 70.1654 121.36 70.177C121.495 70.1885 121.63 70.1507 121.739 70.0704L121.725 70.0843Z" fill="black"/>
    <path d="M144.833 51.1604L157.355 42.9407C157.393 42.9183 157.425 42.8884 157.451 42.8528C157.477 42.8171 157.495 42.7766 157.505 42.7336C157.514 42.6907 157.514 42.6462 157.506 42.6031C157.497 42.5599 157.48 42.519 157.455 42.4829C157.432 42.4461 157.401 42.4143 157.366 42.3893C157.33 42.3643 157.29 42.3466 157.247 42.3373C157.205 42.328 157.161 42.3272 157.118 42.3349C157.075 42.3427 157.034 42.3589 156.997 42.3825L144.317 50.4367C144.27 50.4658 144.229 50.504 144.197 50.5491C144.166 50.5942 144.143 50.6453 144.132 50.6992C144.12 50.7531 144.12 50.8088 144.13 50.863C144.141 50.9171 144.162 50.9686 144.193 51.0143C144.221 51.0607 144.259 51.101 144.303 51.1328C144.347 51.1646 144.397 51.1872 144.45 51.1993C144.503 51.2115 144.558 51.213 144.612 51.2037C144.666 51.1943 144.717 51.1744 144.763 51.145L144.833 51.1604Z" fill="black"/>
    <path d="M170.233 35.2704L183.277 27.8663C183.295 27.857 183.311 27.844 183.324 27.8281C183.338 27.8122 183.347 27.7938 183.353 27.774C183.359 27.7542 183.36 27.7334 183.357 27.713C183.355 27.6926 183.348 27.673 183.337 27.6553C183.316 27.6202 183.283 27.5944 183.244 27.5832C183.205 27.572 183.163 27.5761 183.126 27.5949L169.987 34.8416C169.93 34.8748 169.889 34.9287 169.872 34.9919C169.855 35.055 169.864 35.1223 169.896 35.1793C169.911 35.2078 169.931 35.2331 169.956 35.2535C169.981 35.274 170.009 35.2892 170.04 35.2984C170.071 35.3075 170.103 35.3103 170.135 35.3067C170.167 35.3031 170.198 35.2931 170.226 35.2773L170.233 35.2704Z" fill="black"/>
    <path d="M196.335 20.4746L206.605 14.2859L196.266 20.3602C196.25 20.3613 196.234 20.3682 196.222 20.3796C196.21 20.3911 196.203 20.4063 196.201 20.4226C196.204 20.4385 196.211 20.4531 196.222 20.4647C196.234 20.4762 196.248 20.4842 196.264 20.4875L196.335 20.4746Z" fill="black"/>
    <path fill-rule="evenodd" clip-rule="evenodd" d="M117.215 240.838L106.603 262.348L130.537 260.783L141.148 239.273L141.071 239.278L117.234 240.837L117.215 240.838Z" fill="black"/>
    <path fill-rule="evenodd" clip-rule="evenodd" d="M151.704 217.8L141.092 239.311L141.071 239.278L127.77 219.366L127.847 219.361L151.704 217.8Z" fill="black"/>
    <path fill-rule="evenodd" clip-rule="evenodd" d="M66.6636 202.496L66.655 202.513L56.0521 224.006L69.3747 243.95L79.9862 222.44L66.6744 202.512L66.6636 202.496Z" fill="black"/>
    <path fill-rule="evenodd" clip-rule="evenodd" d="M69.3747 243.95L93.3088 242.385L106.631 262.33L117.234 240.837L117.243 240.82L103.92 220.875L79.9862 222.44L69.3747 243.95Z" fill="black"/>
    <path fill-rule="evenodd" clip-rule="evenodd" d="M117.234 240.837L117.215 240.838L103.892 220.894L79.9581 222.459L66.6355 202.514L66.655 202.513L66.6744 202.512L79.9862 222.44L103.92 220.875L117.243 240.82L117.234 240.837ZM141.071 239.278L127.77 219.366L127.847 219.361L141.148 239.273L141.071 239.278Z" fill="black"/>
    <path fill-rule="evenodd" clip-rule="evenodd" d="M66.6744 202.512L66.655 202.513L66.6636 202.496L66.6744 202.512Z" fill="black"/>
    <path d="M151.76 217.763L127.826 219.329L127.847 219.361L127.77 219.366L141.071 239.278L117.234 240.837L117.243 240.82L103.92 220.875L79.9862 222.44L66.6744 202.512L90.5696 200.949L77.247 181.004L101.18 179.439L114.503 199.384L138.437 197.818L151.76 217.763Z" fill="#F1EFED"/>
    <path d="M77.247 181.004L90.5696 200.949L66.6744 202.512L66.6636 202.496L66.655 202.513L66.6355 202.514L77.247 181.004Z" fill="black"/>
    <path d="M117.215 240.838L103.892 220.894L79.9581 222.459L66.6355 202.514M117.215 240.838L106.603 262.348L130.537 260.783L141.148 239.273M117.215 240.838L117.234 240.837M141.148 239.273L127.847 219.361M141.148 239.273L141.071 239.278M77.247 181.004L101.18 179.439L114.503 199.384L138.437 197.818L151.76 217.763L127.826 219.329L127.847 219.361M77.247 181.004L90.5696 200.949L66.6744 202.512M77.247 181.004L66.6355 202.514M66.6355 202.514L66.655 202.513M69.3747 243.95L56.0521 224.006L66.655 202.513M69.3747 243.95L79.9862 222.44M69.3747 243.95L93.3088 242.385L106.631 262.33L117.234 240.837M79.9862 222.44L103.92 220.875L117.243 240.82L117.234 240.837M79.9862 222.44L66.6744 202.512M117.234 240.837L141.071 239.278M66.6744 202.512L66.6636 202.496L66.655 202.513M66.6744 202.512L66.655 202.513M141.071 239.278L127.77 219.366L127.847 219.361M141.071 239.278L141.092 239.311L151.704 217.8L127.847 219.361" stroke="black" stroke-width="2" stroke-miterlimit="10" stroke-linecap="round" stroke-linejoin="round"/>
</svg>
