<svg width="433" height="591" viewBox="0 0 433 591" fill="none" xmlns="http://www.w3.org/2000/svg">
    <path d="M430.456 21.9992C426.957 25.598 423.752 29.511 421.011 33.7359C420.868 33.9564 420.929 34.2611 421.149 34.4035C421.37 34.5459 421.675 34.4855 421.817 34.265C424.503 30.0876 427.642 26.2035 431.082 22.6126C431.251 22.4391 431.244 22.1575 431.07 21.9888C430.897 21.82 430.615 21.8269 430.446 22.0005L430.456 21.9992Z" fill="black"/>
    <path d="M414.16 47.1674C413.249 49.5168 412.454 51.9013 411.755 54.3235C411.035 56.7385 410.491 59.1908 409.959 61.6516C409.896 61.9423 410.076 62.2313 410.366 62.2938C410.657 62.3563 410.946 62.177 411.008 61.8863L411.006 61.8664C411.532 59.4367 412.059 57.0069 412.762 54.6143C413.445 52.2244 414.223 49.8624 415.108 47.5467C415.214 47.2805 415.074 46.9863 414.808 46.8802C414.542 46.7741 414.247 46.9138 414.141 47.18L414.16 47.1674Z" fill="black"/>
    <path d="M408.108 76.6008C407.863 81.626 407.962 86.6562 408.311 91.6637C408.333 91.9836 408.617 92.2285 408.937 92.2064C409.257 92.1844 409.502 91.8999 409.48 91.5801C409.117 86.6148 409.003 81.6268 409.225 76.6551C409.234 76.3412 408.998 76.0799 408.682 76.061C408.369 76.052 408.107 76.2882 408.087 76.5935L408.108 76.6008Z" fill="black"/>
    <path d="M410.083 106.621C410.989 111.575 412.433 116.478 414.696 121.021C414.849 121.334 415.229 121.465 415.552 121.312C415.874 121.158 415.995 120.769 415.842 120.456C413.625 116.038 412.208 111.263 411.293 106.391C411.229 106.056 410.907 105.836 410.573 105.901C410.238 105.965 410.018 106.287 410.083 106.621Z" fill="black"/>
    <path d="M423.243 133.498C426.569 137.295 430.253 140.753 434.143 143.941C434.438 144.185 434.875 144.137 435.109 143.844C435.353 143.55 435.305 143.112 435.012 142.879C431.158 139.736 427.512 136.344 424.237 132.62C424 132.349 423.573 132.324 423.301 132.562C423.03 132.8 422.996 133.228 423.243 133.498Z" fill="black"/>
    <path d="M438.461 268.461L434.747 268.518C433.51 268.55 432.273 268.501 431.037 268.463C428.562 268.356 426.104 268.145 423.642 267.835C423.129 267.771 422.653 268.137 422.589 268.65C422.526 269.162 422.891 269.639 423.404 269.702C425.907 270.017 428.426 270.229 430.952 270.34C432.209 270.386 433.486 270.429 434.742 270.395L438.527 270.339C439.041 270.332 439.448 269.905 439.441 269.391C439.434 268.878 439.007 268.47 438.493 268.477L438.454 268.482L438.461 268.461Z" fill="black"/>
    <path d="M409.071 264.896C404.28 263.602 399.554 262.027 394.887 260.293C394.388 260.106 393.846 260.359 393.66 260.858C393.474 261.357 393.727 261.898 394.225 262.085C398.933 263.824 403.712 265.412 408.575 266.717C409.077 266.853 409.602 266.551 409.737 266.049C409.873 265.547 409.572 265.022 409.07 264.887L409.071 264.896Z" fill="black"/>
    <path d="M381.001 254.73L367.202 248.845C366.711 248.637 366.136 248.865 365.928 249.356C365.721 249.847 365.948 250.423 366.439 250.63L380.246 256.504C380.738 256.712 381.303 256.486 381.511 255.994C381.718 255.503 381.492 254.938 381.001 254.73Z" fill="black"/>
    <path d="M353.296 243.145C348.618 241.332 343.886 239.636 339.073 238.173C338.547 238.011 338.002 238.315 337.838 238.831C337.676 239.356 337.98 239.901 338.496 240.065C343.246 241.516 347.945 243.186 352.59 244.983C353.1 245.178 353.662 244.923 353.858 244.423C354.053 243.913 353.807 243.35 353.297 243.155L353.296 243.145Z" fill="black"/>
    <path d="M324.405 234.559C319.445 233.66 314.399 233.106 309.349 232.975C308.802 232.957 308.344 233.39 308.327 233.948C308.31 234.505 308.742 234.952 309.299 234.969C314.249 235.103 319.182 235.642 324.059 236.521C324.597 236.622 325.124 236.26 325.213 235.713C325.303 235.167 324.953 234.658 324.415 234.558L324.405 234.559Z" fill="black"/>
    <path d="M294.21 233.835C291.669 234.221 289.145 234.897 286.764 235.958C284.381 237.009 282.163 238.471 280.261 240.266C279.867 240.64 279.848 241.258 280.222 241.653C280.597 242.047 281.215 242.066 281.609 241.691C283.35 240.05 285.374 238.723 287.566 237.758C289.757 236.783 292.106 236.161 294.509 235.793C295.054 235.721 295.42 235.209 295.339 234.675C295.268 234.129 294.755 233.763 294.221 233.844L294.21 233.835Z" fill="black"/>
    <path d="M272.539 253.506C271.024 258.386 270.287 263.426 269.777 268.426C269.726 268.957 270.112 269.431 270.633 269.483C271.154 269.535 271.638 269.148 271.689 268.617C272.197 263.678 272.94 258.759 274.39 254.079C274.554 253.563 274.271 253.025 273.755 252.861C273.239 252.698 272.702 252.98 272.538 253.496L272.539 253.506Z" fill="black"/>
    <path d="M268.689 283.419C268.511 285.894 268.299 288.413 268.197 290.928C268.086 293.445 268.045 295.962 268.063 298.471C268.062 298.995 268.49 299.413 269.015 299.414C269.539 299.416 269.957 298.987 269.958 298.463C269.943 295.973 269.989 293.496 270.104 291.01C270.2 288.526 270.41 286.067 270.603 283.55C270.644 283.02 270.251 282.568 269.721 282.527C269.191 282.486 268.739 282.878 268.698 283.408L268.689 283.419Z" fill="black"/>
    <path d="M268.759 313.533L270.37 328.491C270.426 328.998 270.879 329.372 271.396 329.314C271.903 329.257 272.277 328.804 272.219 328.287L272.214 328.248L270.634 313.377L270.628 313.327C270.57 312.81 270.117 312.436 269.6 312.494C269.083 312.552 268.711 313.015 268.767 313.522L268.759 313.533Z" fill="black"/>
    <path d="M273.146 343.332C274.396 348.221 275.966 353.006 277.757 357.712C277.94 358.182 278.465 358.416 278.936 358.243C279.406 358.06 279.64 357.535 279.466 357.063C277.703 352.414 276.151 347.686 274.932 342.884C274.806 342.387 274.303 342.09 273.815 342.215C273.317 342.341 273.021 342.844 273.146 343.332Z" fill="black"/>
    <path d="M283.59 371.582C285.646 376.152 287.796 380.669 289.907 385.202C290.117 385.649 290.648 385.851 291.094 385.641C291.541 385.43 291.743 384.899 291.533 384.453C289.43 379.909 287.291 375.39 285.247 370.838C285.046 370.381 284.505 370.18 284.047 370.381C283.59 370.583 283.389 371.124 283.59 371.582Z" fill="black"/>
    <path d="M296.288 398.775L302.437 412.428L302.441 412.458C302.652 412.904 303.171 413.098 303.609 412.899C304.057 412.698 304.25 412.179 304.05 411.731L297.894 398.028C297.694 397.581 297.163 397.379 296.716 397.579C296.268 397.779 296.066 398.31 296.266 398.758L296.269 398.778L296.288 398.775Z" fill="black"/>
    <path d="M308.039 426.29C309.776 430.963 311.357 435.687 312.735 440.468C312.866 440.925 313.345 441.194 313.802 441.063C314.259 440.932 314.528 440.453 314.397 439.996C313.013 435.166 311.417 430.404 309.675 425.691C309.505 425.24 309.011 425.012 308.558 425.173C308.106 425.343 307.879 425.837 308.039 426.29Z" fill="black"/>
    <path d="M316.202 454.973L317.375 462.332C317.701 464.801 317.986 467.265 318.046 469.708C318.058 470.181 318.449 470.543 318.911 470.532C319.384 470.52 319.746 470.129 319.735 469.667C319.671 467.113 319.379 464.6 319.051 462.111L317.876 454.661C317.805 454.196 317.368 453.871 316.895 453.953C316.43 454.025 316.105 454.461 316.187 454.934L316.194 454.984L316.202 454.973Z" fill="black"/>
    <path d="M314.67 483.635C312.185 487.886 309.133 491.819 305.757 495.432C305.456 495.754 305.473 496.266 305.795 496.567C306.117 496.867 306.63 496.85 306.93 496.528C310.389 492.854 313.532 488.848 316.101 484.465C316.331 484.071 316.204 483.563 315.81 483.333C315.416 483.102 314.909 483.23 314.678 483.623L314.67 483.635Z" fill="black"/>
    <path d="M294.75 505.432C290.837 508.501 286.741 511.321 282.508 513.947C282.154 514.165 282.044 514.634 282.262 514.988C282.481 515.343 282.949 515.452 283.304 515.234C287.575 512.593 291.739 509.753 295.709 506.667C296.047 506.401 296.114 505.908 295.847 505.57C295.581 505.232 295.088 505.166 294.75 505.432Z" fill="black"/>
    <path d="M269.176 520.453C264.534 522.195 259.741 523.564 254.894 524.667C254.513 524.758 254.28 525.132 254.36 525.514C254.451 525.896 254.825 526.129 255.198 526.05C260.107 524.958 264.96 523.591 269.68 521.828C270.055 521.688 270.252 521.269 270.111 520.894C269.971 520.519 269.552 520.322 269.177 520.463L269.176 520.453Z" fill="black"/>
    <path d="M240.185 527.243L225.293 528.744L225.263 528.748C224.905 528.786 224.644 529.102 224.682 529.461C224.719 529.819 225.036 530.08 225.394 530.042L240.361 528.582C240.739 528.542 241.009 528.214 240.969 527.836C240.929 527.458 240.601 527.188 240.223 527.228L240.184 527.233L240.185 527.243Z" fill="black"/>
    <path d="M210.379 529.076C205.403 528.896 200.44 528.431 195.502 527.782C195.173 527.734 194.861 527.967 194.825 528.305C194.789 528.642 195.009 528.936 195.348 528.982C200.319 529.657 205.325 530.137 210.345 530.342C210.69 530.357 210.987 530.085 211.002 529.74C211.017 529.396 210.745 529.098 210.401 529.083L210.379 529.076Z" fill="black"/>
    <path d="M180.743 525.33L166.104 522.168L166.094 522.169C165.792 522.098 165.494 522.289 165.433 522.589C165.372 522.89 165.562 523.188 165.853 523.25L180.52 526.469C180.832 526.539 181.138 526.337 181.208 526.025C181.278 525.713 181.076 525.407 180.764 525.337L180.744 525.34L180.743 525.33Z" fill="black"/>
    <path d="M151.497 518.728L136.902 515.288C136.631 515.223 136.36 515.389 136.285 515.662C136.22 515.932 136.387 516.203 136.659 516.278L151.251 519.769C151.532 519.833 151.822 519.663 151.895 519.371C151.959 519.09 151.789 518.8 151.497 518.728Z" fill="black"/>
    <path d="M122.261 511.962C117.357 510.955 112.409 510.075 107.43 509.492C107.194 509.462 106.984 509.631 106.965 509.866C106.936 510.101 107.103 510.301 107.329 510.332C112.273 510.951 117.192 511.845 122.069 512.875C122.318 512.933 122.569 512.769 122.627 512.519C122.685 512.27 122.52 512.019 122.271 511.961L122.261 511.962Z" fill="black"/>
    <path d="M92.3942 508.752C87.3717 508.91 82.3513 509.542 77.4866 510.82C77.3108 510.863 77.2042 511.049 77.2475 511.225C77.2909 511.4 77.4765 511.507 77.6523 511.464C82.4726 510.232 87.4375 509.638 92.4143 509.516C92.6251 509.508 92.7839 509.336 92.7862 509.124C92.7786 508.913 92.6063 508.754 92.3942 508.752Z" fill="black"/>
    <path d="M64.4554 518.082C61.0339 521.812 58.5361 526.196 55.7538 530.336C55.6777 530.447 55.7085 530.604 55.8194 530.68C55.9303 530.756 56.0877 530.725 56.1638 530.614C58.9772 526.481 61.4987 522.123 64.8811 518.48C64.9869 518.365 64.9832 518.184 64.8671 518.068C64.7509 517.952 64.5712 517.966 64.4554 518.082Z" fill="black"/>
    <path d="M47.3449 542.745L38.9933 555.205C38.9417 555.272 38.9646 555.37 39.0319 555.421C39.0993 555.473 39.1971 555.45 39.2488 555.383L47.6677 542.975C47.7266 542.886 47.7097 542.757 47.6113 542.7C47.5129 542.642 47.3939 542.658 47.3363 542.756L47.3449 542.745Z" fill="black"/>
    <path d="M30.2629 567.398C27.0792 571.247 23.5562 574.819 19.7469 578.055C19.7197 578.079 19.715 578.12 19.7388 578.147C19.7626 578.174 19.8035 578.179 19.8307 578.155C23.6624 574.936 27.2178 571.38 30.4325 567.537C30.4768 567.49 30.4677 567.421 30.4116 567.378C30.3555 567.335 30.296 567.343 30.253 567.399L30.2629 567.398Z" fill="black"/>
    <path d="M7.5955 586.79L0.401662 590.826L7.62051 586.827C7.62051 586.827 7.63774 586.804 7.62652 586.796C7.62521 586.786 7.6041 586.778 7.5955 586.79Z" fill="black"/>
    <path d="M316.695 327.214L284.469 345.819L268.359 336.518V336.52L268.354 336.517L268.355 336.516L284.468 327.214L252.24 308.607L252.223 308.616L236.126 317.91L220.012 308.607L252.24 290L316.695 327.214Z" fill="black"/>
    <path d="M284.473 364.424V345.822L284.469 345.819L316.695 327.214V345.82L284.473 364.424Z" fill="#F1EFED"/>
    <path d="M268.359 355.125V336.52L284.468 345.82L284.468 364.425L268.359 355.125Z" fill="#F1EFED"/>
    <path d="M236.114 317.91V336.514L236.112 336.515L220.001 327.213V308.607L236.114 317.91Z" fill="#F1EFED"/>
    <path d="M236.126 317.91L252.223 308.616V327.213L236.114 336.514L236.126 317.91Z" fill="#F1EFED"/>
    <path d="M284.468 327.214L268.355 336.516L252.223 327.213L252.24 308.626L284.468 327.214Z" fill="#F1EFED"/>
    <path d="M316.695 327.214L252.24 290L220.012 308.607L236.126 317.91M316.695 327.214V345.82L284.473 364.424M316.695 327.214L284.469 345.819M284.468 345.82L268.359 336.52M284.468 345.82L284.469 345.819M284.468 345.82L284.468 364.425M284.468 327.214L252.24 308.607M284.468 327.214L268.359 336.518M284.468 327.214L268.355 336.516M284.468 327.214L252.24 308.626M252.24 308.607L252.223 308.616M252.24 308.607L252.24 308.626M236.126 317.91L252.223 308.616M236.126 317.91L236.114 336.514M236.109 336.517L236.112 336.515M252.223 327.213L268.337 336.517M252.223 327.213V308.616M252.223 327.213L236.114 336.514M252.223 327.213L268.355 336.516M252.223 327.213L252.24 308.626M252.223 308.607V308.616M268.359 336.518L284.469 345.819M268.359 336.518V336.52M268.359 336.518L268.355 336.516M284.469 345.819L284.473 345.822V364.424M268.359 336.52L268.354 336.517L268.355 336.516M268.359 336.52V355.125L284.468 364.425M252.223 308.616L252.24 308.626M284.468 364.425V364.427L284.473 364.424M284.468 364.425L284.473 364.428V364.424M236.114 336.514V317.91L220.001 308.607V327.213L236.112 336.515M236.114 336.514L236.112 336.515M236.114 336.514V336.517L236.112 336.515" stroke="black" stroke-width="2" stroke-miterlimit="10" stroke-linecap="round" stroke-linejoin="round"/>
</svg>
