<svg width="1007" height="789" viewBox="0 0 1007 789" fill="none" xmlns="http://www.w3.org/2000/svg">
<g opacity="0.06">
<path d="M888.334 57.8602L888.726 58.5532L889.125 57.864L890.76 55.0374L890.761 55.0353C891.644 53.4907 893.615 52.9654 895.167 53.8521C896.711 54.7346 897.237 56.7056 896.35 58.2571C896.35 58.2573 896.35 58.2575 896.35 58.2577L880.593 85.5322L880.198 86.2157H880.988H892.385C894.035 86.2157 895.336 87.1808 896.05 88.5208C896.725 89.7888 896.85 91.3477 896.26 92.6536H863.13C861.342 92.6536 859.911 91.2222 859.911 89.4347C859.911 87.6471 861.342 86.2157 863.13 86.2157H872.498H872.761L872.892 85.9878L884.885 65.2025L885.016 64.975L884.885 64.7473L881.141 58.2476C881.141 58.2473 881.141 58.247 881.14 58.2467C880.256 56.6982 880.777 54.7452 882.326 53.8411C883.874 52.9575 885.826 53.4779 886.73 55.0262L888.334 57.8602ZM870.629 102.795L870.628 102.796C869.746 104.341 867.774 104.866 866.223 103.979C864.678 103.097 864.153 101.127 865.039 99.575C865.039 99.5747 865.039 99.5743 865.039 99.5739L867.573 95.1896C868.922 94.7987 870.119 94.7731 871.184 95.0802C872.21 95.3759 873.148 95.9899 874.001 96.9468L870.629 102.795ZM904.589 86.0082L904.72 86.2359H904.983H914.543C916.331 86.2359 917.762 87.6673 917.762 89.4549C917.762 91.2424 916.331 92.6738 914.543 92.6738H909.233H908.445L908.838 93.3569L912.421 99.5739C912.421 99.5741 912.422 99.5744 912.422 99.5746C913.306 101.123 912.786 103.076 911.236 103.98C909.688 104.864 907.735 104.343 906.831 102.794C903.474 96.9716 900.582 91.9657 898.159 87.7709C896.225 84.4225 894.59 81.591 893.254 79.2738L893.253 79.2728C890.488 74.5034 892.172 69.7484 894.046 67.7783C896.072 71.2591 898.879 76.1202 902.477 82.3521C903.153 83.5224 903.857 84.7412 904.589 86.0082Z" fill="#8F8E93" stroke="#8F8E93" stroke-width="0.911227"/>
<path d="M565.431 34.8339C565.431 34.5167 565.456 34.239 565.499 33.9967L589.433 57.9291L565.499 81.8764C565.456 81.6385 565.431 81.3629 565.431 81.0448V34.8339Z" fill="#8F8E93" stroke="#8F8E93" stroke-width="2.73368"/>
<path d="M609.406 56.1073L609.411 56.1099C610.62 56.7916 610.906 57.5033 610.906 57.9288C610.906 58.3567 610.617 59.0742 609.405 59.7665C609.405 59.7667 609.404 59.7668 609.404 59.767L599.91 65.166L592.685 57.9366L599.91 50.7072L609.406 56.1073Z" fill="#8F8E93" stroke="#8F8E93" stroke-width="2.73368"/>
<path d="M567.543 83.3952L591.055 59.8698L597.64 66.4581L568.691 82.9356C568.689 82.9365 568.688 82.9375 568.686 82.9385C568.25 83.1806 567.871 83.3236 567.543 83.3952Z" stroke="#8F8E93" stroke-width="2.73368"/>
<path d="M568.678 32.956L568.678 32.956L568.681 32.9578L597.639 49.4157L591.055 56.0036L567.531 32.4899C567.86 32.5608 568.241 32.7064 568.678 32.956Z" fill="#F1EFED" stroke="#8F8E93" stroke-width="2.73368"/>
<path d="M588.869 201.694L545.722 201.694L553.43 152.373L553.43 152.372C553.437 152.329 553.47 152.294 553.514 152.287C553.557 152.28 553.6 152.301 553.621 152.34L553.626 152.349L553.631 152.358L561.909 167.299L563.107 169.46L564.301 167.297L567.528 161.456L567.535 161.444L567.541 161.432C567.559 161.398 567.594 161.377 567.632 161.377C567.669 161.377 567.704 161.398 567.722 161.431C567.722 161.431 567.722 161.432 567.722 161.432L588.869 201.694Z" fill="#F1EFED" stroke="#8F8E93" stroke-width="2.73368"/>
<path d="M564.064 167.031L545.141 203.061" stroke="#8F8E93" stroke-width="2.73368"/>
<path d="M546.366 202.751L583.519 165.534C583.519 165.534 583.519 165.534 583.519 165.534C583.547 165.507 583.586 165.498 583.62 165.509C583.658 165.521 583.684 165.552 583.691 165.588C583.691 165.589 583.692 165.589 583.692 165.59L589.629 202.333L569.021 213.791L569.018 213.792C568.098 214.306 566.977 214.306 566.056 213.793C566.055 213.793 566.055 213.792 566.054 213.792L546.366 202.751Z" fill="#8F8E93" stroke="#8F8E93" stroke-width="2.73368"/>
<path d="M735.407 213.267C735.642 213.098 735.922 213.004 736.211 212.995H736.255H752.047L734.286 265.618C734.189 265.906 734.003 266.157 733.756 266.334L734.553 267.445L733.756 266.334C733.509 266.512 733.212 266.607 732.908 266.608C732.908 266.608 732.908 266.608 732.908 266.608H719.137H719.136C718.906 266.608 718.679 266.553 718.474 266.448C718.27 266.343 718.093 266.19 717.958 266.003C717.824 265.816 717.736 265.6 717.702 265.372C717.668 265.145 717.689 264.912 717.762 264.694C717.762 264.694 717.762 264.694 717.762 264.694L734.877 213.984L734.877 213.984C734.974 213.695 735.159 213.445 735.407 213.267Z" fill="#F1EFED" stroke="#8F8E93" stroke-width="2.73368"/>
<path d="M766.953 266.607H752.987H752.987C752.615 266.607 752.257 266.466 751.986 266.213C751.985 266.213 751.985 266.213 751.985 266.213L734.08 249.5H760.998L766.953 266.607ZM733.907 249.5H733.909C733.908 249.5 733.908 249.5 733.907 249.5Z" fill="#F1EFED" stroke="#8F8E93" stroke-width="2.73368"/>
<path d="M757.563 213.981L757.563 213.981L774.678 264.693L774.678 264.693C774.752 264.911 774.772 265.144 774.738 265.372C774.704 265.6 774.616 265.816 774.482 266.003L775.592 266.8L774.482 266.003C774.348 266.19 774.171 266.343 773.966 266.448C773.761 266.553 773.534 266.608 773.304 266.608C773.304 266.608 773.304 266.608 773.304 266.608H757.507C757.606 266.34 757.678 266.061 757.72 265.776L756.368 265.574L757.72 265.776C757.819 265.119 757.759 264.448 757.547 263.819C757.547 263.819 757.547 263.819 757.546 263.819L740.431 213.107L740.431 213.107C740.419 213.069 740.405 213.032 740.392 212.995H756.188H756.188C756.492 212.994 756.788 213.09 757.034 213.267C757.281 213.444 757.466 213.694 757.563 213.981Z" fill="#8F8E93" stroke="#8F8E93" stroke-width="2.73368"/>
<path d="M883.172 229.742L883.591 228.032C885.08 221.958 884.078 214.478 880.395 207.44L880.798 207.228L880.395 207.439C880.255 207.173 879.946 207.089 879.694 207.247C879.693 207.247 879.693 207.248 879.693 207.248L868.088 214.507C867.857 214.651 867.787 214.956 867.931 215.188L869.633 217.914L869.633 217.914C869.777 218.145 870.081 218.215 870.312 218.071C870.312 218.071 870.312 218.071 870.312 218.071L877.834 213.366L878.318 213.063L878.506 213.602C878.761 214.335 878.991 215.075 879.187 215.821M883.172 229.742L878.746 215.936M883.172 229.742L884.368 228.45C885.719 226.991 886.949 225.38 888.04 223.631L887.654 223.39L883.172 229.742ZM879.187 215.821L878.746 215.936M879.187 215.821C879.187 215.821 879.187 215.821 879.186 215.821L878.746 215.936M879.187 215.821C879.922 218.619 880.198 221.358 880.001 223.962M878.746 215.936C879.47 218.691 879.739 221.38 879.547 223.927M880.001 223.962L879.547 223.927M880.001 223.962C880.001 223.962 880.001 223.962 880.001 223.962L879.547 223.927M880.001 223.962C879.636 228.804 877.659 232.653 874.358 234.718C872.712 235.748 870.807 236.288 868.751 236.347L868.74 236.347L868.729 236.347C868.715 236.347 868.699 236.347 868.677 236.347L868.673 236.347L879.547 223.927M868.495 236.347L868.484 236.347C866.427 236.288 864.522 235.748 862.876 234.718C859.574 232.653 857.597 228.804 857.232 223.962C857.036 221.358 857.312 218.619 858.047 215.821L858.047 215.821C858.827 212.85 860.09 209.956 861.799 207.218C863.508 204.48 865.553 202.075 867.878 200.071C870.069 198.183 872.407 196.733 874.831 195.769C879.339 193.974 883.662 194.066 886.964 196.131C890.265 198.196 892.242 202.046 892.607 206.888M868.495 236.347L892.607 206.888M868.495 236.347L868.507 236.347M868.495 236.347L868.507 236.347M892.607 206.888C892.804 209.491 892.528 212.23 891.792 215.029M892.607 206.888L891.792 215.029M891.792 215.029C891.792 215.029 891.792 215.029 891.792 215.029L891.352 214.913L891.792 215.029ZM868.507 236.347C868.525 236.346 868.539 236.347 868.559 236.347C868.571 236.347 868.586 236.347 868.605 236.347L868.507 236.347ZM845.441 215.029L845.441 215.029C846.221 217.999 847.485 220.893 849.194 223.631C850.285 225.38 851.515 226.991 852.866 228.451L854.062 229.743L853.643 228.033C851.979 221.247 853.424 212.706 858.24 204.991L857.854 204.75L858.24 204.991C860.057 202.08 862.192 199.547 864.514 197.441L864.998 197.002L864.418 196.7C863.756 196.354 863.084 196.04 862.403 195.769C857.895 193.974 853.571 194.066 850.27 196.131C846.968 198.196 844.991 202.046 844.626 206.888L844.626 206.888C844.43 209.491 844.706 212.23 845.441 215.029ZM868.372 194.13L868.615 194.283L868.858 194.13C875.758 189.78 883.417 188.957 889.187 192.567C893.748 195.419 896.338 200.539 896.793 206.571C897.247 212.603 895.56 219.514 891.599 225.859C885.752 235.226 876.647 240.651 868.623 240.551L868.623 240.551L868.611 240.551C860.587 240.652 851.482 235.226 845.634 225.859C841.674 219.514 839.986 212.603 840.441 206.571C840.896 200.539 843.486 195.42 848.046 192.567L847.806 192.183L848.046 192.567C853.816 188.958 861.473 189.782 868.372 194.13Z" fill="#8F8E93" stroke="#8F8E93" stroke-width="0.911227"/>
<path d="M814.32 340.695L814.32 340.696L814.324 340.698C826.251 347.618 840.957 351.807 856.169 351.807C866.437 351.807 877.712 349.669 888.09 345.282L888.09 345.282L888.101 345.277C888.687 345.011 889.156 345.22 889.352 345.503C889.451 345.646 889.49 345.815 889.453 345.991C889.415 346.168 889.291 346.394 888.984 346.622C879.876 353.349 866.608 356.937 855.19 356.937C839.196 356.937 824.789 351.023 813.907 341.196C813.754 341.058 813.702 340.934 813.689 340.853C813.676 340.771 813.697 340.711 813.728 340.67C813.771 340.612 813.951 340.476 814.32 340.695Z" fill="#8F8E93" stroke="#8F8E93" stroke-width="0.911227"/>
<path d="M893.445 342.344C893.231 342.07 892.921 341.878 892.583 341.74C892.24 341.599 891.838 341.5 891.402 341.43C890.531 341.291 889.471 341.259 888.374 341.285C886.178 341.338 883.759 341.628 882.264 341.81L882.264 341.81L882.263 341.81C882.123 341.827 882.048 341.809 882.017 341.797C882.02 341.778 882.029 341.741 882.06 341.687C882.108 341.601 882.201 341.49 882.36 341.374C884.885 339.603 888.255 338.955 891.15 338.914C892.593 338.893 893.898 339.024 894.895 339.231C895.394 339.335 895.807 339.456 896.117 339.582C896.439 339.714 896.596 339.829 896.648 339.891C896.695 339.952 896.771 340.122 896.819 340.463C896.865 340.79 896.879 341.216 896.852 341.723C896.798 342.736 896.584 344.029 896.187 345.419C895.389 348.208 893.872 351.307 891.507 353.296L891.507 353.296L891.505 353.298C891.357 353.424 891.228 353.486 891.136 353.511C891.081 353.526 891.046 353.527 891.027 353.525C891.023 353.492 891.024 353.415 891.077 353.283C891.077 353.283 891.077 353.283 891.077 353.282L890.654 353.113C891.773 350.344 894.262 344.108 893.087 342.625L893.445 342.344Z" fill="#8F8E93" stroke="#8F8E93" stroke-width="0.911227"/>
<path d="M606.252 357.392L614.909 349.697L606.252 342.002V357.392ZM637.417 326.227C635.878 324.688 632.992 322.764 628.183 322.764C622.989 322.764 617.602 324.111 613.755 325.457V303.527H606.06V336.808L611.446 334.307C611.446 334.307 620.295 330.267 627.99 330.267C631.838 330.267 632.8 332.383 632.8 334.307V357.392H640.495V334.307C640.687 333.73 640.687 329.497 637.417 326.227ZM627.221 316.031H634.916C638.379 311.991 640.11 307.951 640.687 303.527H632.992C632.223 307.951 630.299 311.991 627.221 316.031Z" fill="#8F8E93" stroke="#8F8E93" stroke-width="1.82245"/>
<path d="M704.593 118.33C705.647 115.488 707.285 112.891 709.41 110.709C711.992 108.057 715.208 106.108 718.754 105.044C722.3 103.981 726.058 103.839 729.673 104.632C733.059 105.375 736.215 106.914 738.881 109.117L738.767 110.107L734.355 114.519H733.621C730.866 112.443 727.444 111.437 723.993 111.7C720.496 111.966 717.226 113.515 714.806 116.042C714.653 116.122 714.534 116.214 714.453 116.283C714.261 116.445 714.103 116.632 713.999 116.765C713.995 116.77 713.991 116.775 713.987 116.781L704.593 118.33Z" stroke="#8F8E93" stroke-width="2.73368"/>
<path d="M746.084 120.201L746.217 120.69L746.637 120.975C749.37 122.823 751.434 125.501 752.526 128.613C753.618 131.726 753.68 135.107 752.701 138.257C751.722 141.407 749.756 144.158 747.092 146.103C744.429 148.049 741.21 149.086 737.912 149.06V149.06H737.901H725.605L725.123 148.578V141.991L725.61 141.496H737.901C738.925 141.496 739.939 141.295 740.885 140.903C741.831 140.511 742.691 139.937 743.415 139.212C744.139 138.488 744.713 137.629 745.105 136.683C745.497 135.737 745.699 134.722 745.699 133.698C745.699 132.674 745.497 131.66 745.105 130.714C744.713 129.768 744.139 128.909 743.415 128.184C742.691 127.46 741.831 126.886 740.885 126.494C740.363 126.278 739.821 126.12 739.268 126.021V125.997C739.306 123.85 738.858 121.723 737.956 119.774C737.264 118.278 736.318 116.917 735.164 115.75L740.441 110.474C743.134 113.162 745.083 116.514 746.084 120.201Z" fill="#8F8E93" stroke="#8F8E93" stroke-width="2.73368"/>
<path d="M712.159 148.988L712.153 148.988C709.108 149.001 706.135 148.103 703.613 146.421L703.746 145.889L708.422 141.245L709.437 140.931C710.306 141.256 711.228 141.424 712.159 141.424H712.159H723.655V148.988L712.159 148.988Z" stroke="#8F8E93" stroke-width="2.73368"/>
<path d="M703.258 121.231C705.851 119.356 708.965 118.338 712.164 118.319C714.53 118.31 716.866 118.85 718.989 119.894C720.756 120.763 722.335 121.962 723.644 123.422L718.285 128.781C717.902 128.297 717.461 127.858 716.971 127.475C715.977 126.698 714.809 126.173 713.568 125.947C712.327 125.72 711.05 125.798 709.846 126.174C708.641 126.55 707.546 127.212 706.654 128.104C705.762 128.996 705.1 130.091 704.724 131.296C704.348 132.5 704.27 133.777 704.497 135.018C704.723 136.259 705.248 137.427 706.024 138.421C706.408 138.911 706.847 139.352 707.331 139.735L701.974 145.092C699.905 143.227 698.375 140.828 697.561 138.149C696.629 135.087 696.678 131.81 697.699 128.777C698.721 125.744 700.664 123.106 703.258 121.231Z" fill="#8F8E93" stroke="#8F8E93" stroke-width="2.73368"/>
</g>
<path d="M329.047 146.796H464.82L519.493 72.0757H536.807M613.35 84.8329V142.24H667.112M853.003 58.4073H839.334V108.525H821.11V1H800.354V108.525H779.598V1H758.842V84.8329H738.087V1H717.331V66.6084H696.575V1H675.82V84.8329L655.064 66.6084V1H634.308V37.4491L613.35 19.2245H592.392M309 181.423V206.937H509.47V233.363H546.83M634.308 203.292V233.363H546.83M546.83 233.363V325.397H525.872H562.321M689.893 255.232H667.112M562.321 325.397H580.546V274.368M562.321 325.397V366.402H585.102M667.112 255.232H580.546V274.368M667.112 255.232V188.713H779.598M779.598 188.713H811.997V225.162V305.35H864.849V274.368M779.598 188.713V127.661H890.363M779.598 338.154H738.087M738.087 338.154H696.575V290.77L675.82 274.368H580.546M738.087 338.154L738.087 290.77M1007 1H876.695V26.5144H930.457V58.4073H954.149V127.661H890.363M890.363 127.661V146.796L848.446 154.997" stroke="url(#paint0_linear_4_5594)" stroke-width="1.82245"/>
<g opacity="0.06">
<path d="M668.483 432.414L668.934 433.211L669.393 432.418L671.274 429.166L671.275 429.164C672.291 427.387 674.559 426.783 676.344 427.803C678.12 428.818 678.725 431.085 677.705 432.87C677.705 432.871 677.705 432.871 677.705 432.871L659.577 464.249L659.123 465.035H660.031H673.143C675.041 465.035 676.538 466.145 677.359 467.687C678.136 469.145 678.28 470.939 677.602 472.441H639.487C637.431 472.441 635.784 470.795 635.784 468.738C635.784 466.682 637.431 465.035 639.487 465.035H650.264H650.567L650.718 464.773L664.515 440.861L664.666 440.599L664.515 440.337L660.208 432.86C660.208 432.859 660.208 432.859 660.207 432.859C659.19 431.078 659.788 428.83 661.571 427.79C663.352 426.774 665.598 427.372 666.638 429.153C666.638 429.154 666.639 429.155 666.64 429.156L668.483 432.414ZM648.115 484.108L648.114 484.11C647.098 485.887 644.83 486.491 643.045 485.471C641.269 484.456 640.664 482.189 641.684 480.404C641.684 480.403 641.684 480.403 641.684 480.403L644.598 475.359C646.15 474.909 647.528 474.88 648.753 475.233C649.933 475.573 651.013 476.279 651.994 477.38L648.115 484.108ZM687.183 464.796L687.334 465.058H687.637H698.635C700.691 465.058 702.338 466.705 702.338 468.761C702.338 470.818 700.691 472.464 698.635 472.464H692.526H691.619L692.072 473.25L696.194 480.403C696.194 480.403 696.194 480.403 696.194 480.404C697.211 482.185 696.613 484.432 694.83 485.472C693.049 486.489 690.802 485.889 689.762 484.107C685.9 477.408 682.573 471.649 679.786 466.823C677.561 462.972 675.679 459.714 674.143 457.049L674.142 457.048C670.961 451.561 672.899 446.09 675.054 443.824C677.385 447.828 680.614 453.419 684.752 460.587C685.53 461.935 686.34 463.338 687.183 464.796Z" fill="#8F8E93" stroke="#8F8E93" stroke-width="1.0483"/>
<path d="M297.006 405.924C297.006 405.559 297.035 405.239 297.084 404.96L324.618 432.493L297.084 460.043C297.035 459.769 297.006 459.452 297.006 459.086V405.924Z" fill="#8F8E93" stroke="#8F8E93" stroke-width="3.14491"/>
<path d="M347.596 430.397L347.602 430.4C348.993 431.184 349.322 432.003 349.322 432.493C349.322 432.985 348.99 433.81 347.595 434.607C347.595 434.607 347.594 434.607 347.594 434.607L336.672 440.819L328.36 432.502L336.672 424.185L347.596 430.397Z" fill="#8F8E93" stroke="#8F8E93" stroke-width="3.14491"/>
<path d="M299.436 461.79L326.485 434.725L334.06 442.305L300.75 461.264C300.249 461.543 299.813 461.707 299.436 461.79Z" stroke="#8F8E93" stroke-width="3.14491"/>
<path d="M334.059 422.699L326.484 430.278L299.422 403.227C299.801 403.309 300.239 403.476 300.741 403.763L300.741 403.763L300.745 403.765L334.059 422.699Z" fill="#F1EFED" stroke="#8F8E93" stroke-width="3.14491"/>
<path d="M323.969 597.884L274.331 597.884L283.199 541.144L283.199 541.143C283.207 541.093 283.245 541.054 283.295 541.045C283.345 541.037 283.395 541.061 283.419 541.106L283.424 541.116L283.43 541.126L292.954 558.315L294.331 560.801L295.706 558.313L299.418 551.594L299.425 551.58L299.433 551.565C299.453 551.527 299.493 551.503 299.537 551.503C299.581 551.503 299.621 551.527 299.641 551.566L323.969 597.884Z" fill="#F1EFED" stroke="#8F8E93" stroke-width="3.14491"/>
<path d="M295.433 556.008L273.662 597.457" stroke="#8F8E93" stroke-width="3.14491"/>
<path d="M275.072 599.1L317.814 556.285C317.814 556.285 317.814 556.285 317.814 556.285C317.846 556.253 317.892 556.243 317.931 556.256C317.974 556.27 318.004 556.305 318.012 556.347C318.012 556.348 318.013 556.348 318.013 556.349L324.844 598.619L301.135 611.801L301.132 611.802C300.073 612.393 298.784 612.394 297.725 611.803C297.724 611.803 297.723 611.802 297.722 611.802L275.072 599.1Z" fill="#8F8E93" stroke="#8F8E93" stroke-width="3.14491"/>
<path d="M492.551 611.198C492.821 611.004 493.143 610.895 493.476 610.885H493.527H511.694L491.261 671.424C491.261 671.424 491.261 671.424 491.261 671.424C491.149 671.756 490.936 672.044 490.652 672.249C490.367 672.453 490.026 672.563 489.676 672.563C489.676 672.563 489.676 672.563 489.676 672.563H473.833H473.833C473.568 672.563 473.307 672.5 473.071 672.379C472.835 672.258 472.632 672.083 472.477 671.868C472.323 671.652 472.222 671.404 472.183 671.142C472.143 670.88 472.167 670.612 472.252 670.361L491.941 612.023L491.941 612.023C492.053 611.691 492.266 611.403 492.551 611.198Z" fill="#F1EFED" stroke="#8F8E93" stroke-width="3.14491"/>
<path d="M528.842 672.562H512.775H512.775C512.347 672.562 511.936 672.4 511.623 672.108C511.623 672.108 511.623 672.108 511.623 672.108L491.024 652.882H521.991L528.842 672.562ZM490.825 652.882H490.827C490.826 652.882 490.826 652.882 490.825 652.882V652.882ZM490.825 652.804L490.825 652.804L490.825 652.804Z" fill="#F1EFED" stroke="#8F8E93" stroke-width="3.14491"/>
<path d="M518.04 612.02L518.04 612.02L537.73 670.36L537.73 670.36C537.814 670.611 537.838 670.879 537.799 671.141C537.76 671.403 537.659 671.652 537.504 671.867C537.35 672.083 537.146 672.258 536.911 672.379C536.675 672.5 536.414 672.563 536.149 672.563C536.149 672.563 536.149 672.563 536.149 672.563H517.975C518.09 672.255 518.172 671.934 518.221 671.607C518.334 670.851 518.266 670.079 518.021 669.355C518.021 669.355 518.021 669.355 518.021 669.355L498.331 611.014L498.331 611.014C498.317 610.971 498.302 610.928 498.286 610.885H516.459H516.459C516.808 610.885 517.148 610.994 517.432 611.198C517.716 611.401 517.928 611.689 518.04 612.02Z" fill="#8F8E93" stroke="#8F8E93" stroke-width="3.14491"/>
<path d="M662.545 630.152L663.027 628.184C664.74 621.197 663.587 612.592 659.349 604.494L659.814 604.251L659.349 604.494C659.189 604.187 658.834 604.092 658.543 604.273C658.543 604.273 658.543 604.273 658.543 604.273L645.192 612.625C644.926 612.791 644.845 613.142 645.011 613.409L646.969 616.544L646.969 616.544C647.135 616.811 647.485 616.891 647.75 616.725L656.403 611.312L656.96 610.964L657.176 611.584C657.47 612.427 657.734 613.278 657.96 614.136C658.805 617.356 659.123 620.507 658.897 623.502C658.897 623.502 658.897 623.502 658.897 623.502L658.374 623.463L662.545 630.152ZM662.545 630.152L663.921 628.665C665.475 626.987 666.889 625.133 668.145 623.122C670.111 619.972 671.564 616.643 672.462 613.225M662.545 630.152L672.462 613.225M672.462 613.225C673.308 610.006 673.625 606.854 673.399 603.859M672.462 613.225L645.66 637.751M645.66 637.751L645.647 637.75C643.281 637.683 641.089 637.061 639.195 635.876C635.397 633.501 633.122 629.072 632.703 623.502C632.477 620.507 632.795 617.356 633.64 614.136L633.64 614.136C634.538 610.719 635.991 607.389 637.957 604.24C639.923 601.09 642.275 598.323 644.95 596.017C647.47 593.845 650.161 592.178 652.949 591.068C658.135 589.004 663.108 589.109 666.907 591.485C670.705 593.86 672.979 598.289 673.399 603.859M645.66 637.751L645.673 637.75M645.66 637.751L645.673 637.75M673.399 603.859L672.877 603.899L673.399 603.859C673.399 603.859 673.399 603.859 673.399 603.859ZM645.673 637.75C645.708 637.749 645.73 637.75 645.786 637.75L645.673 637.75ZM619.138 613.225L619.138 613.225C620.036 616.643 621.489 619.972 623.455 623.122C624.711 625.134 626.126 626.987 627.68 628.666L629.056 630.153L628.573 628.185C626.659 620.378 628.322 610.553 633.862 601.677L633.418 601.4L633.862 601.677C635.953 598.328 638.409 595.415 641.08 592.992L641.637 592.487L640.97 592.139C640.208 591.742 639.435 591.38 638.651 591.068C633.465 589.004 628.491 589.109 624.693 591.485C620.895 593.86 618.62 598.289 618.2 603.859L618.2 603.859C617.975 606.854 618.292 610.006 619.138 613.225ZM645.518 589.182L645.798 589.358L646.077 589.182C654.015 584.178 662.826 583.232 669.465 587.384C674.711 590.666 677.691 596.556 678.214 603.496C678.737 610.435 676.796 618.385 672.24 625.684C665.513 636.461 655.038 642.702 645.807 642.587L645.807 642.587L645.794 642.587C636.562 642.703 626.087 636.461 619.36 625.684C614.804 618.385 612.863 610.435 613.386 603.496C613.909 596.556 616.888 590.666 622.135 587.385L621.857 586.94L622.135 587.385C628.773 583.232 637.581 584.18 645.518 589.182Z" fill="#8F8E93" stroke="#8F8E93" stroke-width="1.0483"/>
<path d="M583.335 757.796L583.335 757.796L583.34 757.799C597.061 765.759 613.979 770.578 631.479 770.578C643.291 770.578 656.263 768.12 668.202 763.072L668.202 763.073L668.214 763.067C668.888 762.76 669.429 763.001 669.654 763.327C669.768 763.491 669.813 763.685 669.77 763.888C669.727 764.091 669.584 764.352 669.231 764.613C658.753 772.352 643.488 776.48 630.353 776.48C611.953 776.48 595.378 769.677 582.86 758.372C582.684 758.213 582.624 758.07 582.609 757.976C582.594 757.883 582.617 757.813 582.653 757.766C582.703 757.7 582.91 757.543 583.335 757.796Z" fill="#8F8E93" stroke="#8F8E93" stroke-width="1.0483"/>
<path d="M661.5 759.077L661.5 759.077L661.498 759.078C661.337 759.098 661.251 759.077 661.216 759.063C661.219 759.041 661.23 758.998 661.264 758.937C661.32 758.838 661.428 758.71 661.611 758.577C664.515 756.539 668.392 755.794 671.722 755.746C673.382 755.722 674.884 755.873 676.031 756.111C676.605 756.231 677.08 756.37 677.436 756.515C677.808 756.666 677.987 756.799 678.048 756.871C678.102 756.94 678.189 757.137 678.244 757.529C678.297 757.905 678.313 758.395 678.282 758.978C678.22 760.143 677.974 761.631 677.517 763.23C676.599 766.439 674.854 770.004 672.133 772.292L672.131 772.294C671.96 772.439 671.813 772.511 671.707 772.539C671.643 772.557 671.603 772.557 671.581 772.555C671.576 772.517 671.578 772.428 671.638 772.277C672.281 770.686 673.327 768.074 674.043 765.642C674.401 764.427 674.683 763.235 674.786 762.226C674.838 761.722 674.847 761.245 674.791 760.824C674.736 760.41 674.612 760.008 674.363 759.692C674.117 759.377 673.759 759.156 673.371 758.997C672.977 758.836 672.513 758.722 672.012 758.641C671.01 758.481 669.79 758.444 668.529 758.475C666.002 758.536 663.219 758.869 661.5 759.077Z" fill="#8F8E93" stroke="#8F8E93" stroke-width="1.0483"/>
<path d="M343.967 777.004L353.927 768.151L343.967 759.299V777.004ZM379.821 741.151C378.05 739.381 374.73 737.167 369.197 737.167C363.222 737.167 357.025 738.717 352.599 740.266V715.036H343.746V753.323L349.943 750.446C349.943 750.446 360.123 745.799 368.976 745.799C373.402 745.799 374.509 748.233 374.509 750.446V777.004H383.362V750.446C383.583 749.782 383.583 744.913 379.821 741.151ZM368.091 729.421H376.943C380.927 724.774 382.919 720.126 383.583 715.036H374.73C373.845 720.126 371.632 724.774 368.091 729.421Z" fill="#8F8E93" stroke="#8F8E93" stroke-width="2.09661"/>
<path d="M457.102 501.98C458.315 498.711 460.199 495.723 462.644 493.213C465.615 490.162 469.314 487.919 473.393 486.696C477.472 485.473 481.796 485.309 485.956 486.222C489.85 487.076 493.481 488.846 496.548 491.382L496.417 492.52L491.341 497.596H490.497C487.327 495.208 483.39 494.051 479.42 494.353C475.398 494.659 471.635 496.44 468.852 499.348C468.676 499.44 468.539 499.546 468.445 499.625C468.224 499.811 468.043 500.027 467.923 500.179C467.919 500.186 467.914 500.192 467.909 500.198L457.102 501.98Z" stroke="#8F8E93" stroke-width="3.14491"/>
<path d="M504.835 504.132L504.988 504.695L505.471 505.022C508.614 507.148 510.99 510.229 512.246 513.81C513.502 517.391 513.573 521.28 512.447 524.904C511.321 528.528 509.059 531.693 505.994 533.931C502.93 536.169 499.227 537.362 495.433 537.333V537.332H495.42H481.274L480.72 536.778V529.2L481.281 528.631H495.42C496.598 528.631 497.765 528.399 498.853 527.948C499.942 527.498 500.931 526.837 501.764 526.004C502.597 525.171 503.258 524.182 503.709 523.093C504.159 522.005 504.391 520.838 504.391 519.66C504.391 518.482 504.159 517.316 503.709 516.227C503.258 515.139 502.597 514.15 501.764 513.317C500.931 512.484 499.942 511.823 498.853 511.372C498.253 511.123 497.629 510.941 496.993 510.828V510.8C497.037 508.331 496.521 505.883 495.484 503.641C494.687 501.92 493.599 500.355 492.272 499.012L498.343 492.942C501.441 496.035 503.683 499.891 504.835 504.132Z" fill="#8F8E93" stroke="#8F8E93" stroke-width="3.14491"/>
<path d="M465.806 537.249L465.799 537.25C462.296 537.265 458.876 536.232 455.974 534.297L456.127 533.685L461.507 528.343L462.675 527.981C463.674 528.355 464.735 528.548 465.806 528.548H465.806H479.031V537.25L465.806 537.249Z" stroke="#8F8E93" stroke-width="3.14491"/>
<path d="M455.566 505.317C458.549 503.161 462.131 501.989 465.812 501.967C468.534 501.957 471.222 502.578 473.664 503.779C475.696 504.779 477.513 506.158 479.019 507.838L472.854 514.004C472.413 513.446 471.906 512.941 471.342 512.5C470.198 511.606 468.855 511.003 467.427 510.743C466 510.482 464.53 510.572 463.145 511.004C461.759 511.436 460.499 512.198 459.473 513.224C458.447 514.251 457.685 515.511 457.253 516.896C456.82 518.281 456.731 519.751 456.991 521.179C457.252 522.606 457.855 523.95 458.749 525.093C459.19 525.657 459.695 526.164 460.252 526.605L454.09 532.767C451.709 530.622 449.949 527.863 449.012 524.78C447.941 521.257 447.996 517.488 449.171 513.999C450.346 510.51 452.582 507.474 455.566 505.317Z" fill="#8F8E93" stroke="#8F8E93" stroke-width="3.14491"/>
</g>
<path d="M25.0627 534.728H181.26L244.158 448.768H264.076M352.133 463.444V529.487H413.983M627.837 433.043H612.112V490.7H591.146V367H567.268V490.7H543.39V367H519.512V463.444H495.634V367H471.756V442.478H447.878V367H424V463.444L400.122 442.478V367H376.244V408.932L352.133 387.966H328.022M2 574.564V603.916H232.627V634.317H275.607M376.244 599.723V634.317H275.607M275.607 634.317V740.196H251.496H293.428M440.191 659.477H413.983M293.428 740.196H314.394V681.491M293.428 740.196V787.369H319.636M413.983 659.477H314.394V681.491M413.983 659.477V582.95H543.39M543.39 582.95H580.663V624.883V717.133H641.465V681.491M543.39 582.95V512.714H670.817M543.39 754.872H495.634M495.634 754.872H447.878V700.36L424 681.491H314.394M495.634 754.872L495.634 700.36M805 367H655.093V396.352H716.943V433.043H744.198V512.714H670.817M670.817 512.714V534.728L622.595 544.163" stroke="url(#paint1_linear_4_5594)" stroke-width="2.09661"/>
<g filter="url(#filter0_d_4_5594)">
<circle r="7.7466" transform="matrix(0.00454075 -0.99999 -0.99999 -0.00454075 410.783 74.7818)" fill="#F0EFED"/>
<circle r="7.10105" transform="matrix(0.00454075 -0.99999 -0.99999 -0.00454075 410.783 74.7818)" stroke="black" stroke-width="1.2911"/>
</g>
<g filter="url(#filter1_d_4_5594)">
<circle r="7.7466" transform="matrix(0.00454075 -0.99999 -0.99999 -0.00454075 410.782 275.782)" fill="#F0EFED"/>
<circle r="7.10105" transform="matrix(0.00454075 -0.99999 -0.99999 -0.00454075 410.782 275.782)" stroke="black" stroke-width="1.2911"/>
</g>
<g filter="url(#filter2_d_4_5594)">
<circle r="7.7466" transform="matrix(0.00454075 -0.99999 -0.99999 -0.00454075 410.782 525.782)" fill="#F0EFED"/>
<circle r="7.10105" transform="matrix(0.00454075 -0.99999 -0.99999 -0.00454075 410.782 525.782)" stroke="black" stroke-width="1.2911"/>
</g>
<g opacity="0.5">
<path d="M330.417 132.679H421.898V138.196H330.417V132.679Z" fill="url(#paint2_linear_4_5594)"/>
<path d="M721.013 121.693V174.592H726.529V121.693H721.013Z" fill="url(#paint3_linear_4_5594)"/>
<path d="M644.259 119.637H684.733V116.975H644.259V119.637Z" fill="url(#paint4_linear_4_5594)"/>
<path d="M330.417 159.209H452.392V162.428H330.417V159.209Z" fill="url(#paint5_linear_4_5594)"/>
<path d="M715.249 187.568V181.165H747.542V187.568H715.249Z" fill="url(#paint6_linear_4_5594)"/>
<path d="M747.542 121.693H750.762V187.568H747.542V181.165V121.693Z" fill="url(#paint7_linear_4_5594)"/>
<path d="M425.192 150.645V126.968L459.064 79.007L460.703 80.125L426.83 126.968V132.679V150.645H425.192Z" fill="url(#paint8_linear_4_5594)"/>
<path d="M459.064 79.007L460.703 80.125L469.469 80.125V79.007L459.064 79.007Z" fill="url(#paint9_linear_4_5594)"/>
<path d="M426.83 132.679V150.645H448.428L462.76 132.679H426.83Z" fill="url(#paint10_linear_4_5594)"/>
<path d="M524.341 102.93L524.341 120.895L545.939 120.895L560.271 102.93L524.341 102.93Z" fill="url(#paint11_linear_4_5594)"/>
<path d="M522.702 120.895H524.341L524.341 102.93L524.341 85.6311H522.702V120.895Z" fill="url(#paint12_linear_4_5594)"/>
<path d="M330.417 141.282H421.898V151.585H330.417V141.282Z" fill="url(#paint13_linear_4_5594)"/>
<path d="M498.198 195.009H540.594V196.411H498.198V195.009Z" fill="url(#paint14_linear_4_5594)"/>
<path d="M498.198 191.424H540.594V193.422H498.198V191.424Z" fill="url(#paint15_linear_4_5594)"/>
<path d="M498.198 186.501H537.165H540.594V189.837H498.198V186.501Z" fill="url(#paint16_linear_4_5594)"/>
<path d="M537.165 186.501H540.594V164.85H537.165V186.501Z" fill="url(#paint17_linear_4_5594)"/>
<path d="M729.615 121.693V174.592H739.919V121.693H729.615Z" fill="url(#paint18_linear_4_5594)"/>
<path d="M427.845 127.038H467.029L463.37 131.612H427.845V127.038Z" fill="url(#paint19_linear_4_5594)"/>
<path d="M484.259 187.508V221.203L479.685 215.105V187.508H484.259Z" fill="url(#paint20_linear_4_5594)"/>
<path fill-rule="evenodd" clip-rule="evenodd" d="M458.63 85.7194L460.931 82.3645H470.536L468.308 85.7194H458.63ZM458.107 86.4816H467.801L464.965 90.7508H455.18L458.107 86.4816ZM451.73 95.7821L454.657 91.513H464.459L461.623 95.7821H451.73ZM448.28 100.813L451.207 96.5443H461.117L458.281 100.813H448.28ZM444.83 105.845L447.757 101.576H457.774L454.939 105.845H444.83ZM441.38 110.876L444.307 106.607H454.432L451.596 110.876H441.38ZM437.93 115.907L440.857 111.638H451.09L448.254 115.907H437.93ZM434.48 120.939L437.407 116.67H447.748L444.912 120.939H434.48ZM433.957 121.701H444.405L442.177 125.056H431.657L433.957 121.701Z" fill="url(#paint21_linear_4_5594)"/>
<path fill-rule="evenodd" clip-rule="evenodd" d="M456.524 105.845L459.452 101.576H469.469L466.633 105.845H456.524ZM453.074 110.876L456.001 106.607H466.126L463.291 110.876H453.074ZM449.624 115.907L452.551 111.638H462.784L459.948 115.907H449.624ZM446.174 120.939L449.101 116.67H459.442L456.606 120.939H446.174ZM445.651 121.701H456.1L453.871 125.056H443.351L445.651 121.701Z" fill="url(#paint22_linear_4_5594)"/>
<path d="M454.971 160.014L481.38 182.019H454.971V160.014Z" fill="url(#paint23_linear_4_5594)"/>
<path d="M635.324 126.123L653.194 149.958H635.324V126.123Z" fill="url(#paint24_linear_4_5594)"/>
<path d="M479.685 220.486L495.389 242.491H479.685V220.486Z" fill="url(#paint25_linear_4_5594)"/>
<path d="M531.158 160.014L517.953 182.019H531.158V160.014Z" fill="url(#paint26_linear_4_5594)"/>
<path fill-rule="evenodd" clip-rule="evenodd" d="M567.126 209.963L581.381 221.429V228.43H600.287V236.663H581.381V242.457H600.287V250.385H580.771V249.166H599.068V243.677H580.161V235.443H599.068V229.65H580.161V222.013L566.362 210.914L567.126 209.963Z" fill="url(#paint27_linear_4_5594)"/>
<path d="M732.631 70.7769H746.658V73.0639H732.631V70.7769Z" fill="url(#paint28_linear_4_5594)"/>
<path d="M732.631 74.8935H746.658V77.1806H732.631V74.8935Z" fill="url(#paint29_linear_4_5594)"/>
<path d="M732.631 79.0102H746.658V81.2972H732.631V79.0102Z" fill="url(#paint30_linear_4_5594)"/>
<path d="M732.631 83.1269H746.658V85.4139H732.631V83.1269Z" fill="url(#paint31_linear_4_5594)"/>
<path d="M732.631 87.2435H746.658V89.5306H732.631V87.2435Z" fill="url(#paint32_linear_4_5594)"/>
<path d="M732.631 91.3602H746.658V93.6472H732.631V91.3602Z" fill="url(#paint33_linear_4_5594)"/>
<path d="M732.631 95.4769H746.658V97.7639H732.631V95.4769Z" fill="url(#paint34_linear_4_5594)"/>
<path d="M732.631 99.5935H746.658V101.881H732.631V99.5935Z" fill="url(#paint35_linear_4_5594)"/>
<path d="M732.631 103.71H746.658V105.997H732.631V103.71Z" fill="url(#paint36_linear_4_5594)"/>
<path d="M732.631 107.827H746.658V110.114H732.631V107.827Z" fill="url(#paint37_linear_4_5594)"/>
<path d="M477.486 77.5034C477.486 78.8507 476.394 79.9429 475.047 79.9429C473.699 79.9429 472.607 78.8507 472.607 77.5034C472.607 76.1561 473.699 75.0639 475.047 75.0639C476.394 75.0639 477.486 76.1561 477.486 77.5034Z" fill="url(#paint38_linear_4_5594)"/>
<path d="M564.895 124.132C564.895 125.479 563.803 126.572 562.456 126.572C561.108 126.572 560.016 125.479 560.016 124.132C560.016 122.785 561.108 121.693 562.456 121.693C563.803 121.693 564.895 122.785 564.895 124.132Z" fill="url(#paint39_linear_4_5594)"/>
<path d="M537.256 157.229C537.256 158.576 536.164 159.668 534.817 159.668C533.469 159.668 532.377 158.576 532.377 157.229C532.377 155.881 533.469 154.789 534.817 154.789C536.164 154.789 537.256 155.881 537.256 157.229Z" fill="url(#paint40_linear_4_5594)"/>
<path d="M508.267 273.561C508.267 274.908 507.175 276 505.828 276C504.481 276 503.388 274.908 503.388 273.561C503.388 272.214 504.481 271.121 505.828 271.121C507.175 271.121 508.267 272.214 508.267 273.561Z" fill="url(#paint41_linear_4_5594)"/>
<path d="M607.087 218.047C607.087 219.394 605.994 220.486 604.647 220.486C603.3 220.486 602.208 219.394 602.208 218.047C602.208 216.699 603.3 215.607 604.647 215.607C605.994 215.607 607.087 216.699 607.087 218.047Z" fill="url(#paint42_linear_4_5594)"/>
<path d="M691.546 207.694C691.546 209.041 690.454 210.134 689.107 210.134C687.76 210.134 686.667 209.041 686.667 207.694C686.667 206.347 687.76 205.255 689.107 205.255C690.454 205.255 691.546 206.347 691.546 207.694Z" fill="url(#paint43_linear_4_5594)"/>
<path d="M687.855 67.1098C687.855 68.4571 686.762 69.5494 685.415 69.5494C684.068 69.5494 682.976 68.4571 682.976 67.1098C682.976 65.7625 684.068 64.6703 685.415 64.6703C686.762 64.6703 687.855 65.7625 687.855 67.1098Z" fill="url(#paint44_linear_4_5594)"/>
<path d="M502.454 41.8C502.454 43.1473 501.362 44.2395 500.014 44.2395C498.667 44.2395 497.575 43.1473 497.575 41.8C497.575 40.4527 498.667 39.3605 500.014 39.3605C501.362 39.3605 502.454 40.4527 502.454 41.8Z" fill="url(#paint45_linear_4_5594)"/>
<path d="M560.645 158.599H576.197L570.098 167.747V195.497H560.645V158.599Z" fill="url(#paint46_linear_4_5594)"/>
<path fill-rule="evenodd" clip-rule="evenodd" d="M620.755 141.566C620.807 141.56 620.858 141.559 620.91 141.562L621.067 141.571C621.118 141.574 621.168 141.582 621.217 141.593L621.374 141.629C621.42 141.639 621.464 141.653 621.507 141.67L621.665 141.733C621.702 141.748 621.739 141.765 621.774 141.785L621.932 141.873C621.962 141.89 621.991 141.909 622.019 141.929L622.176 142.042C622.199 142.058 622.222 142.076 622.243 142.095L622.401 142.232C622.418 142.247 622.435 142.263 622.452 142.28L622.609 142.44C622.622 142.454 622.635 142.468 622.648 142.482L622.805 142.663C622.815 142.675 622.825 142.687 622.835 142.699L622.992 142.9C623 142.91 623.007 142.92 623.015 142.93L623.172 143.149C623.178 143.157 623.184 143.166 623.189 143.174L623.347 143.409C623.351 143.416 623.356 143.422 623.36 143.429L623.517 143.678C623.519 143.681 623.521 143.684 623.523 143.687C623.524 143.689 623.526 143.692 623.527 143.694L623.685 143.955L623.692 143.967L623.849 144.237L623.854 144.246L624.015 144.528L624.174 144.812L624.331 145.096L624.331 145.096L624.486 145.375L624.488 145.379L624.64 145.649L624.644 145.655L624.794 145.918L624.945 146.173L625.093 146.414L625.237 146.638L625.378 146.843L625.526 147.043C625.827 147.448 625.741 148.021 625.335 148.322C624.929 148.623 624.357 148.538 624.056 148.132L623.898 147.919C623.892 147.91 623.885 147.902 623.879 147.893L623.722 147.663C623.717 147.656 623.712 147.649 623.707 147.641L623.55 147.397C623.548 147.394 623.545 147.391 623.543 147.387C623.542 147.385 623.54 147.382 623.539 147.38L623.381 147.123L623.373 147.11L623.216 146.843L623.21 146.833L623.049 146.552L622.891 146.271L622.889 146.268L622.732 145.985L622.731 145.984L622.575 145.703L622.574 145.7L622.421 145.427L622.418 145.421L622.266 145.154L622.115 144.895L621.966 144.648L621.82 144.417L621.678 144.205L621.54 144.013L621.408 143.845L621.285 143.703L621.172 143.588L621.073 143.502L620.992 143.444L620.933 143.411L620.897 143.397L620.882 143.393L620.877 143.393L620.871 143.394L620.85 143.399L620.808 143.418L620.742 143.458L620.655 143.524L620.552 143.619L620.436 143.742L620.31 143.892L620.176 144.067L620.037 144.265L619.893 144.483L619.747 144.718L619.597 144.969L619.445 145.232L619.292 145.502L619.29 145.506L619.135 145.784L618.978 146.068L618.818 146.355L618.66 146.634L618.656 146.641L618.498 146.914L618.492 146.925L618.334 147.189L618.326 147.204L618.168 147.457C618.164 147.463 618.16 147.47 618.156 147.476L617.999 147.716C617.994 147.723 617.988 147.731 617.983 147.739L617.826 147.963C617.819 147.973 617.812 147.982 617.805 147.992L617.647 148.199C617.639 148.21 617.63 148.222 617.62 148.233L617.463 148.421C617.452 148.434 617.44 148.448 617.428 148.461L617.27 148.628C617.255 148.644 617.24 148.659 617.224 148.674L617.066 148.819C617.047 148.837 617.026 148.854 617.005 148.87L616.848 148.992C616.822 149.011 616.795 149.03 616.768 149.047L616.61 149.143C616.578 149.164 616.544 149.182 616.508 149.198L616.351 149.269C616.31 149.287 616.268 149.302 616.226 149.315L616.068 149.36C616.021 149.373 615.972 149.383 615.923 149.389L615.766 149.407C615.714 149.413 615.663 149.415 615.611 149.412L615.454 149.403C615.403 149.401 615.353 149.394 615.303 149.383L615.146 149.348C615.101 149.338 615.056 149.324 615.012 149.307L614.855 149.246C614.817 149.231 614.78 149.214 614.744 149.194L614.587 149.107C614.556 149.09 614.527 149.072 614.499 149.051L614.341 148.939C614.318 148.923 614.295 148.905 614.274 148.886L614.116 148.75C614.099 148.734 614.081 148.718 614.065 148.702L613.907 148.543C613.894 148.529 613.881 148.515 613.868 148.5L613.711 148.32C613.7 148.308 613.69 148.296 613.681 148.284L613.523 148.084C613.516 148.074 613.508 148.064 613.501 148.053L613.343 147.835C613.337 147.827 613.331 147.819 613.326 147.81L613.168 147.576C613.164 147.569 613.159 147.562 613.155 147.555L612.998 147.307C612.994 147.302 612.991 147.296 612.988 147.291L612.83 147.031L612.823 147.018L612.665 146.748L612.66 146.74L612.5 146.457L612.342 146.176L612.341 146.173L612.028 145.61L612.026 145.607L611.872 145.333L611.72 145.066L611.569 144.811L611.421 144.569L611.276 144.344L611.135 144.138L611 143.955L610.87 143.795L610.75 143.662L610.642 143.556L610.548 143.48L610.474 143.431L610.423 143.404L610.394 143.395L610.384 143.393L610.38 143.393L610.37 143.395L610.343 143.404L610.292 143.429L610.219 143.477L610.127 143.553L610.019 143.657L609.899 143.789L609.77 143.947L609.635 144.13L609.494 144.335L609.349 144.559L609.201 144.8L609.051 145.055L608.898 145.322L608.745 145.595L608.429 146.163L608.268 146.451L608.111 146.728L608.106 146.736L607.948 147.007L607.941 147.019L607.784 147.279C607.78 147.285 607.777 147.29 607.774 147.295L607.616 147.544C607.612 147.551 607.608 147.558 607.603 147.565L607.446 147.8C607.44 147.808 607.434 147.816 607.428 147.824L607.271 148.043C607.264 148.054 607.256 148.064 607.248 148.073L607.091 148.274C607.081 148.287 607.072 148.299 607.061 148.31L606.904 148.492C606.892 148.506 606.879 148.52 606.865 148.533L606.708 148.693C606.691 148.71 606.674 148.726 606.657 148.741L606.499 148.879C606.478 148.897 606.456 148.915 606.433 148.932L606.275 149.045C606.247 149.065 606.218 149.083 606.188 149.1L606.031 149.188C605.995 149.208 605.959 149.226 605.921 149.241L605.763 149.303C605.72 149.32 605.676 149.334 605.631 149.344L605.473 149.381C605.424 149.392 605.374 149.399 605.324 149.402L605.166 149.412C605.115 149.415 605.063 149.413 605.012 149.408L604.854 149.391C604.805 149.385 604.756 149.376 604.708 149.362L604.551 149.319C604.508 149.307 604.466 149.291 604.425 149.273L604.267 149.203C604.232 149.187 604.197 149.169 604.164 149.149L604.007 149.054C603.979 149.037 603.952 149.018 603.926 148.999L603.769 148.878C603.747 148.862 603.727 148.845 603.707 148.827L603.549 148.683C603.533 148.668 603.517 148.652 603.502 148.636L603.345 148.47C603.332 148.457 603.321 148.444 603.309 148.43L603.152 148.243C603.142 148.232 603.133 148.22 603.124 148.209L602.967 148.002C602.96 147.993 602.953 147.983 602.946 147.974L602.789 147.75C602.783 147.742 602.778 147.734 602.773 147.726L602.615 147.487C602.611 147.481 602.607 147.475 602.603 147.468L602.446 147.216L602.437 147.201L602.279 146.937L602.273 146.926L602.115 146.654L602.111 146.646L601.951 146.362L601.792 146.078L601.636 145.796L601.479 145.516L601.325 145.243L601.173 144.98L601.024 144.729L600.877 144.492L600.733 144.273L600.594 144.075L600.46 143.899L600.333 143.747L600.217 143.623L600.113 143.528L600.026 143.461L599.959 143.42L599.915 143.4L599.893 143.394L599.887 143.393L599.883 143.393L599.799 143.412C599.306 143.521 598.818 143.21 598.708 142.717C598.598 142.224 598.909 141.735 599.402 141.626L599.56 141.591C599.609 141.58 599.659 141.573 599.71 141.57L599.867 141.562C599.919 141.559 599.971 141.561 600.022 141.567L600.179 141.585C600.228 141.591 600.277 141.6 600.324 141.614L600.482 141.659C600.525 141.671 600.567 141.686 600.607 141.705L600.765 141.776C600.8 141.792 600.834 141.81 600.867 141.83L601.024 141.927C601.052 141.944 601.078 141.962 601.104 141.982L601.261 142.103C601.283 142.119 601.303 142.137 601.323 142.155L601.48 142.3C601.496 142.314 601.512 142.33 601.527 142.346L601.684 142.513C601.696 142.526 601.708 142.539 601.719 142.553L601.877 142.741C601.886 142.752 601.895 142.763 601.904 142.775L602.061 142.982C602.068 142.991 602.075 143 602.082 143.01L602.239 143.235C602.245 143.242 602.25 143.25 602.255 143.258L602.412 143.498C602.417 143.504 602.421 143.51 602.424 143.516L602.582 143.77L602.591 143.784L602.748 144.048L602.755 144.059L602.912 144.332L602.917 144.34L603.077 144.623L603.235 144.907L603.391 145.189L603.547 145.469L603.701 145.742L603.853 146.005L604.003 146.255L604.15 146.491L604.293 146.709L604.432 146.907L604.566 147.082L604.692 147.232L604.808 147.355L604.912 147.449L604.998 147.515L605.064 147.555L605.107 147.574L605.127 147.58L605.134 147.581L605.138 147.58L605.154 147.577L605.19 147.563L605.249 147.529L605.33 147.471L605.428 147.385L605.541 147.27L605.665 147.128L605.796 146.96L605.934 146.769L606.076 146.556L606.222 146.325L606.371 146.079L606.522 145.819L606.676 145.549L606.83 145.273L606.832 145.271L607.148 144.702L607.309 144.415L607.466 144.14L607.472 144.13L607.63 143.864L607.638 143.85L607.795 143.594C607.799 143.588 607.802 143.582 607.806 143.576L607.964 143.332C607.968 143.325 607.973 143.317 607.978 143.31L608.136 143.081C608.142 143.072 608.148 143.063 608.155 143.054L608.312 142.842C608.32 142.831 608.328 142.82 608.337 142.81L608.494 142.616C608.505 142.603 608.516 142.59 608.527 142.578L608.685 142.404C608.698 142.389 608.713 142.374 608.728 142.36L608.885 142.208C608.903 142.191 608.922 142.174 608.941 142.158L609.099 142.03C609.123 142.011 609.147 141.993 609.173 141.976L609.33 141.872C609.361 141.852 609.393 141.833 609.426 141.817L609.583 141.738C609.621 141.719 609.661 141.703 609.702 141.689L609.859 141.636C609.905 141.621 609.952 141.609 609.999 141.601L610.157 141.575C610.207 141.567 610.259 141.563 610.31 141.563L610.467 141.564C610.519 141.564 610.57 141.568 610.62 141.577L610.778 141.604C610.825 141.612 610.872 141.624 610.917 141.64L611.074 141.694C611.115 141.707 611.154 141.724 611.192 141.743L611.35 141.823C611.382 141.839 611.414 141.858 611.444 141.878L611.601 141.983C611.627 142 611.651 142.018 611.675 142.037L611.832 142.167C611.851 142.182 611.87 142.199 611.888 142.216L612.045 142.369C612.06 142.383 612.074 142.398 612.088 142.413L612.245 142.587C612.256 142.6 612.267 142.612 612.277 142.625L612.435 142.82C612.443 142.83 612.452 142.841 612.46 142.852L612.617 143.065C612.623 143.074 612.63 143.082 612.636 143.091L612.793 143.321C612.798 143.328 612.803 143.336 612.808 143.343L612.965 143.587C612.969 143.593 612.972 143.599 612.976 143.605L613.133 143.862L613.141 143.875L613.299 144.142L613.305 144.152L613.466 144.434L613.625 144.718L613.939 145.282L613.94 145.285L614.095 145.561L614.248 145.831L614.399 146.09L614.548 146.336L614.694 146.566L614.836 146.777L614.973 146.968L615.105 147.135L615.228 147.276L615.34 147.389L615.438 147.474L615.518 147.531L615.577 147.563L615.612 147.577L615.626 147.58L615.63 147.581L615.637 147.58L615.659 147.574L615.702 147.554L615.769 147.513L615.857 147.446L615.96 147.35L616.077 147.226L616.204 147.075L616.337 146.899L616.477 146.7L616.62 146.481L616.767 146.245L616.917 145.994L617.069 145.73L617.222 145.46L617.224 145.455L617.379 145.179L617.537 144.893L617.697 144.606L617.854 144.328L617.859 144.32L618.016 144.048L618.023 144.036L618.18 143.773L618.189 143.758L618.347 143.505C618.351 143.499 618.355 143.493 618.359 143.486L618.516 143.247C618.521 143.239 618.527 143.231 618.532 143.224L618.69 143C618.696 142.99 618.703 142.981 618.711 142.971L618.868 142.765C618.877 142.753 618.886 142.742 618.895 142.731L619.053 142.544C619.064 142.53 619.076 142.517 619.088 142.503L619.246 142.337C619.261 142.321 619.277 142.306 619.293 142.291L619.45 142.147C619.47 142.129 619.491 142.111 619.512 142.095L619.67 141.975C619.696 141.955 619.723 141.937 619.75 141.92L619.908 141.824C619.941 141.804 619.975 141.786 620.011 141.77L620.168 141.7C620.209 141.682 620.251 141.667 620.295 141.655L620.452 141.611C620.5 141.598 620.549 141.588 620.598 141.583L620.755 141.566Z" fill="url(#paint47_linear_4_5594)"/>
<path fill-rule="evenodd" clip-rule="evenodd" d="M524.416 203.043C524.448 203.04 524.48 203.04 524.512 203.041L524.67 203.047C524.701 203.048 524.733 203.051 524.764 203.056L524.922 203.078C524.952 203.082 524.982 203.088 525.011 203.095L525.169 203.134C525.196 203.141 525.224 203.149 525.25 203.158L525.408 203.213C525.432 203.221 525.456 203.231 525.48 203.241L525.638 203.312C525.659 203.321 525.68 203.331 525.7 203.342L525.857 203.427C525.875 203.437 525.893 203.447 525.91 203.458L526.068 203.557C526.082 203.567 526.097 203.576 526.112 203.587L526.269 203.699C526.281 203.708 526.293 203.717 526.305 203.726L526.463 203.851C526.473 203.859 526.483 203.867 526.492 203.875L526.65 204.011C526.658 204.018 526.666 204.025 526.674 204.032L526.831 204.178C526.837 204.184 526.844 204.19 526.85 204.196L527.008 204.35C527.013 204.355 527.017 204.36 527.022 204.365L527.18 204.527L527.191 204.538L527.348 204.706L527.356 204.714L527.519 204.891L527.678 205.068L527.99 205.415L527.993 205.419L528.144 205.586L528.294 205.748L528.44 205.902L528.584 206.046L528.722 206.18L528.857 206.301L529.001 206.421C529.388 206.745 529.44 207.322 529.116 207.71C528.792 208.097 528.215 208.149 527.827 207.825L527.67 207.693C527.661 207.686 527.652 207.678 527.644 207.671L527.486 207.528C527.479 207.522 527.472 207.516 527.466 207.509L527.308 207.358C527.303 207.353 527.297 207.347 527.292 207.342L527.134 207.183L527.122 207.17L526.964 207.005L526.955 206.995L526.798 206.825L526.792 206.818L526.634 206.645L526.631 206.641L526.318 206.292L526.316 206.289L526.165 206.123L526.16 206.117L526.012 205.955L525.864 205.798L525.72 205.65L525.579 205.512L525.443 205.386L525.312 205.274L525.188 205.175L525.07 205.091L524.961 205.023L524.861 204.969L524.771 204.928L524.691 204.901L524.619 204.883L524.554 204.874L524.492 204.871L524.43 204.876L524.363 204.887L524.289 204.907L524.206 204.939L524.113 204.983L524.01 205.041L523.898 205.114L523.779 205.202L523.652 205.305L523.52 205.422L523.382 205.551L523.241 205.692L523.095 205.843L522.946 206.002L522.797 206.167L522.792 206.171L522.641 206.34L522.639 206.342L522.483 206.516L522.32 206.697L522.163 206.87L522.156 206.877L521.999 207.046L521.989 207.057L521.831 207.22C521.827 207.225 521.822 207.23 521.817 207.234L521.66 207.391C521.654 207.397 521.648 207.403 521.642 207.408L521.485 207.557C521.478 207.564 521.47 207.57 521.463 207.577L521.305 207.716C521.296 207.724 521.287 207.732 521.278 207.74L521.12 207.868C521.109 207.877 521.098 207.886 521.086 207.894L520.929 208.011C520.915 208.021 520.902 208.031 520.888 208.04L520.73 208.143C520.714 208.154 520.697 208.164 520.681 208.174L520.523 208.264C520.504 208.275 520.484 208.285 520.464 208.295L520.307 208.37C520.284 208.381 520.261 208.39 520.238 208.399L520.08 208.459C520.054 208.469 520.028 208.478 520.002 208.485L519.844 208.529C519.815 208.537 519.786 208.544 519.757 208.549L519.599 208.577C519.569 208.582 519.537 208.586 519.506 208.589L519.349 208.6C519.317 208.602 519.285 208.603 519.253 208.602L519.095 208.597C519.063 208.596 519.032 208.593 519 208.589L518.843 208.567C518.813 208.563 518.783 208.557 518.753 208.55L518.596 208.512C518.568 208.505 518.54 208.497 518.514 208.488L518.356 208.434C518.331 208.425 518.307 208.416 518.283 208.405L518.126 208.336C518.105 208.327 518.084 208.316 518.063 208.305L517.906 208.221C517.888 208.211 517.87 208.201 517.853 208.19L517.695 208.092C517.68 208.082 517.665 208.072 517.651 208.062L517.493 207.95C517.481 207.941 517.469 207.932 517.457 207.923L517.299 207.799C517.289 207.791 517.279 207.783 517.27 207.774L517.112 207.639C517.104 207.632 517.096 207.625 517.088 207.617L516.931 207.472C516.924 207.466 516.918 207.46 516.911 207.454L516.754 207.3C516.749 207.295 516.744 207.29 516.739 207.285L516.581 207.124L516.57 207.112L516.413 206.945L516.405 206.936L516.242 206.759L516.085 206.585L516.082 206.582L515.771 206.235L515.768 206.231L515.616 206.064L515.466 205.902L515.32 205.748L515.176 205.603L515.037 205.469L514.903 205.347L514.774 205.239L514.652 205.146L514.537 205.067L514.431 205.003L514.334 204.954L514.247 204.918L514.17 204.894L514.101 204.879L514.037 204.872L513.976 204.872L513.912 204.879L513.843 204.893L513.766 204.917L513.68 204.952L513.584 205.001L513.478 205.064L513.363 205.142L513.241 205.235L513.113 205.342L512.979 205.463L512.84 205.597L512.697 205.741L512.55 205.895L512.4 206.057L512.248 206.226L511.933 206.577L511.77 206.757L511.613 206.929L511.605 206.937L511.447 207.105L511.436 207.116L511.279 207.278C511.274 207.283 511.269 207.288 511.264 207.293L511.106 207.447C511.1 207.453 511.094 207.459 511.087 207.465L510.93 207.611C510.922 207.618 510.914 207.625 510.906 207.632L510.749 207.768C510.739 207.776 510.729 207.784 510.719 207.792L510.562 207.917C510.55 207.926 510.538 207.935 510.525 207.944L510.368 208.056C510.353 208.067 510.339 208.076 510.324 208.086L510.166 208.185C510.149 208.196 510.132 208.206 510.114 208.216L509.956 208.301C509.936 208.312 509.915 208.322 509.894 208.331L509.736 208.402C509.713 208.412 509.689 208.422 509.664 208.43L509.507 208.485C509.48 208.494 509.453 208.502 509.425 208.509L509.268 208.548C509.238 208.555 509.208 208.561 509.178 208.565L509.021 208.587C508.989 208.592 508.958 208.595 508.926 208.596L508.768 208.602C508.736 208.603 508.704 208.602 508.672 208.6L508.515 208.59C508.484 208.587 508.452 208.584 508.421 208.578L508.264 208.551C508.234 208.546 508.205 208.54 508.176 208.532L508.019 208.488C507.992 208.481 507.966 208.472 507.94 208.463L507.783 208.403C507.759 208.395 507.736 208.385 507.713 208.374L507.556 208.299C507.535 208.29 507.516 208.28 507.496 208.269L507.339 208.179C507.322 208.17 507.305 208.159 507.289 208.149L507.131 208.046C507.117 208.036 507.103 208.027 507.09 208.017L506.932 207.901C506.921 207.892 506.909 207.883 506.898 207.874L506.741 207.746C506.731 207.739 506.722 207.731 506.713 207.723L506.555 207.584C506.548 207.577 506.54 207.571 506.533 207.564L506.375 207.415C506.369 207.41 506.363 207.404 506.358 207.398L506.2 207.242C506.196 207.237 506.191 207.232 506.186 207.228L506.029 207.064L506.019 207.054L505.861 206.885L505.854 206.877L505.693 206.7L505.534 206.523L505.378 206.349L505.222 206.176L505.07 206.009L504.921 205.85L504.776 205.698L504.634 205.557L504.496 205.427L504.364 205.31L504.237 205.206L504.117 205.118L504.005 205.044L503.902 204.985L503.808 204.94L503.725 204.909L503.65 204.888L503.583 204.876L503.521 204.871L503.459 204.873L503.349 204.889C502.848 204.958 502.387 204.608 502.318 204.107C502.249 203.607 502.599 203.145 503.099 203.076L503.257 203.054C503.288 203.05 503.32 203.047 503.351 203.046L503.509 203.041C503.541 203.04 503.573 203.041 503.605 203.043L503.762 203.054C503.794 203.057 503.825 203.061 503.856 203.066L504.013 203.094C504.043 203.099 504.072 203.106 504.1 203.114L504.258 203.158C504.284 203.165 504.311 203.174 504.337 203.184L504.494 203.244C504.517 203.253 504.54 203.262 504.563 203.273L504.72 203.348C504.74 203.358 504.76 203.368 504.779 203.379L504.937 203.469C504.954 203.479 504.97 203.489 504.987 203.5L505.144 203.603C505.158 203.612 505.172 203.622 505.185 203.632L505.343 203.749C505.354 203.757 505.366 203.766 505.377 203.775L505.534 203.903C505.543 203.911 505.553 203.919 505.562 203.927L505.719 204.066C505.727 204.073 505.734 204.079 505.741 204.086L505.899 204.235C505.905 204.24 505.911 204.246 505.916 204.252L506.074 204.409C506.078 204.413 506.083 204.418 506.087 204.423L506.245 204.586L506.255 204.597L506.412 204.766L506.419 204.773L506.581 204.951L506.739 205.127L506.896 205.301L506.897 205.303L507.051 205.474L507.203 205.641L507.352 205.8L507.497 205.951L507.639 206.092L507.776 206.221L507.909 206.338L508.035 206.441L508.155 206.529L508.266 206.602L508.369 206.66L508.462 206.704L508.545 206.735L508.619 206.756L508.686 206.767L508.748 206.772L508.81 206.769L508.875 206.76L508.947 206.742L509.027 206.715L509.117 206.674L509.217 206.62L509.327 206.552L509.444 206.468L509.569 206.369L509.699 206.257L509.835 206.131L509.976 205.993L510.12 205.845L510.268 205.688L510.419 205.523L510.572 205.354L510.574 205.351L510.891 204.998L511.048 204.825L511.054 204.818L511.212 204.648L511.221 204.638L511.378 204.473L511.391 204.46L511.548 204.301C511.553 204.296 511.559 204.29 511.564 204.285L511.722 204.134C511.729 204.127 511.736 204.121 511.743 204.115L511.9 203.972C511.909 203.965 511.917 203.957 511.926 203.95L512.083 203.818C512.094 203.81 512.105 203.801 512.115 203.793L512.273 203.673C512.286 203.663 512.299 203.653 512.312 203.644L512.469 203.537C512.485 203.526 512.5 203.516 512.516 203.507L512.674 203.413C512.692 203.402 512.711 203.392 512.73 203.382L512.888 203.302C512.909 203.292 512.931 203.281 512.954 203.272L513.111 203.208C513.136 203.198 513.161 203.189 513.187 203.181L513.344 203.132C513.372 203.123 513.401 203.116 513.429 203.11L513.587 203.077C513.617 203.071 513.648 203.066 513.679 203.063L513.836 203.047C513.868 203.044 513.9 203.042 513.932 203.042L514.089 203.043C514.121 203.043 514.153 203.044 514.185 203.048L514.342 203.065C514.373 203.068 514.404 203.073 514.434 203.079L514.591 203.113C514.62 203.119 514.648 203.126 514.676 203.135L514.833 203.184C514.859 203.192 514.884 203.201 514.909 203.212L515.066 203.277C515.089 203.286 515.11 203.296 515.132 203.307L515.289 203.387C515.308 203.397 515.327 203.407 515.345 203.418L515.503 203.512C515.519 203.522 515.534 203.532 515.549 203.542L515.707 203.65C515.72 203.66 515.733 203.669 515.746 203.679L515.903 203.799C515.914 203.807 515.924 203.816 515.935 203.825L516.092 203.957C516.101 203.964 516.11 203.972 516.118 203.979L516.275 204.122C516.282 204.128 516.289 204.134 516.296 204.141L516.453 204.292C516.459 204.298 516.464 204.303 516.47 204.308L516.627 204.468L516.639 204.48L516.797 204.646L516.806 204.655L516.963 204.826L516.969 204.832L517.13 205.009L517.443 205.359L517.445 205.361L517.598 205.53L517.748 205.695L517.896 205.851L518.04 205.999L518.181 206.136L518.317 206.262L518.447 206.374L518.571 206.472L518.689 206.555L518.797 206.623L518.897 206.676L518.987 206.716L519.067 206.743L519.138 206.761L519.203 206.77L519.265 206.772L519.327 206.767L519.394 206.755L519.468 206.734L519.552 206.703L519.646 206.658L519.749 206.599L519.861 206.525L519.981 206.437L520.107 206.333L520.24 206.216L520.378 206.086L520.519 205.945L520.665 205.793L520.814 205.634L520.966 205.467L521.12 205.295L521.121 205.294L521.278 205.12L521.279 205.118L521.441 204.938L521.598 204.766L521.605 204.758L521.762 204.589L521.773 204.579L521.93 204.415C521.935 204.411 521.939 204.406 521.944 204.401L522.101 204.245C522.107 204.239 522.113 204.233 522.119 204.228L522.277 204.079C522.284 204.072 522.291 204.066 522.299 204.059L522.456 203.92C522.465 203.912 522.475 203.904 522.484 203.897L522.642 203.769C522.653 203.76 522.664 203.751 522.676 203.742L522.833 203.626C522.847 203.616 522.861 203.607 522.875 203.597L523.032 203.494C523.049 203.483 523.065 203.473 523.082 203.464L523.24 203.374C523.259 203.363 523.279 203.353 523.299 203.344L523.457 203.269C523.48 203.258 523.503 203.248 523.526 203.24L523.684 203.18C523.71 203.171 523.736 203.162 523.763 203.155L523.92 203.111C523.949 203.103 523.978 203.097 524.008 203.092L524.165 203.065C524.196 203.059 524.227 203.055 524.259 203.053L524.416 203.043Z" fill="url(#paint48_linear_4_5594)"/>
<path fill-rule="evenodd" clip-rule="evenodd" d="M550.216 208.222C550.248 208.225 550.28 208.225 550.312 208.224L550.469 208.218C550.501 208.217 550.533 208.214 550.564 208.21L550.721 208.187C550.752 208.183 550.781 208.177 550.811 208.17L550.968 208.131C550.996 208.124 551.023 208.116 551.05 208.107L551.208 208.052C551.232 208.044 551.256 208.034 551.28 208.024L551.437 207.954C551.458 207.944 551.479 207.934 551.5 207.923L551.657 207.838C551.675 207.828 551.693 207.818 551.71 207.807L551.867 207.708C551.882 207.699 551.897 207.689 551.911 207.678L552.069 207.566C552.081 207.557 552.093 207.548 552.105 207.539L552.262 207.414C552.272 207.406 552.282 207.398 552.292 207.39L552.449 207.254C552.457 207.247 552.465 207.24 552.473 207.233L552.631 207.087C552.637 207.081 552.644 207.075 552.65 207.069L552.807 206.915C552.812 206.91 552.817 206.905 552.822 206.9L552.98 206.738L552.991 206.727L553.148 206.559L553.156 206.551L553.319 206.374L553.478 206.197L553.789 205.85L553.793 205.846L553.944 205.679L554.094 205.517L554.24 205.363L554.383 205.219L554.522 205.086L554.656 204.965L554.801 204.844C555.188 204.52 555.24 203.943 554.915 203.555C554.591 203.168 554.014 203.116 553.627 203.44L553.469 203.572C553.461 203.579 553.452 203.587 553.443 203.595L553.286 203.737C553.279 203.743 553.272 203.749 553.265 203.756L553.108 203.907C553.102 203.912 553.097 203.918 553.091 203.923L552.934 204.082L552.921 204.095L552.764 204.26L552.755 204.27L552.597 204.44L552.591 204.447L552.434 204.621L552.431 204.624L552.118 204.973L552.115 204.976L551.965 205.142L551.96 205.148L551.812 205.31L551.664 205.467L551.519 205.615L551.379 205.753L551.243 205.879L551.112 205.991L550.987 206.09L550.87 206.174L550.761 206.242L550.661 206.296L550.571 206.337L550.49 206.365L550.419 206.382L550.354 206.391L550.292 206.394L550.229 206.389L550.163 206.378L550.089 206.358L550.005 206.326L549.912 206.282L549.81 206.224L549.698 206.151L549.578 206.063L549.452 205.96L549.32 205.843L549.182 205.714L549.04 205.573L548.895 205.422L548.746 205.263L548.596 205.098L548.592 205.094L548.44 204.925L548.439 204.923L548.283 204.749L548.12 204.568L547.963 204.395L547.956 204.388L547.798 204.219L547.788 204.208L547.631 204.045C547.626 204.04 547.622 204.035 547.617 204.031L547.46 203.874C547.454 203.868 547.448 203.863 547.442 203.857L547.285 203.708C547.277 203.701 547.27 203.695 547.263 203.688L547.105 203.549C547.096 203.541 547.087 203.533 547.077 203.525L546.92 203.397C546.909 203.388 546.898 203.379 546.886 203.371L546.729 203.254C546.715 203.244 546.701 203.234 546.687 203.225L546.53 203.122C546.514 203.111 546.497 203.101 546.48 203.091L546.323 203.001C546.304 202.99 546.284 202.98 546.264 202.97L546.106 202.895C546.084 202.884 546.061 202.875 546.037 202.866L545.88 202.806C545.854 202.796 545.828 202.787 545.801 202.78L545.644 202.736C545.615 202.728 545.586 202.721 545.557 202.716L545.399 202.688C545.368 202.683 545.337 202.679 545.306 202.677L545.148 202.665C545.116 202.663 545.084 202.662 545.052 202.663L544.895 202.668C544.863 202.669 544.831 202.672 544.8 202.676L544.643 202.698C544.612 202.702 544.582 202.708 544.553 202.715L544.395 202.753C544.368 202.76 544.34 202.768 544.313 202.777L544.156 202.831C544.131 202.84 544.107 202.849 544.083 202.86L543.926 202.929C543.904 202.938 543.883 202.949 543.863 202.96L543.706 203.044C543.687 203.054 543.67 203.064 543.652 203.075L543.495 203.173C543.48 203.183 543.465 203.193 543.451 203.203L543.293 203.315C543.281 203.324 543.269 203.333 543.257 203.342L543.099 203.466C543.089 203.474 543.079 203.482 543.069 203.491L542.912 203.626C542.904 203.633 542.896 203.64 542.888 203.648L542.73 203.793C542.724 203.799 542.717 203.805 542.711 203.811L542.554 203.965C542.549 203.97 542.544 203.975 542.539 203.98L542.381 204.141L542.37 204.153L542.212 204.32L542.204 204.329L542.042 204.506L541.884 204.68L541.882 204.683L541.571 205.03L541.568 205.034L541.416 205.201L541.266 205.363L541.119 205.517L540.976 205.662L540.837 205.796L540.703 205.918L540.574 206.026L540.452 206.12L540.337 206.198L540.231 206.262L540.134 206.311L540.047 206.347L539.97 206.371L539.901 206.386L539.837 206.393L539.775 206.393L539.712 206.387L539.643 206.372L539.566 206.348L539.48 206.313L539.383 206.264L539.278 206.201L539.163 206.123L539.041 206.03L538.913 205.923L538.778 205.802L538.64 205.668L538.497 205.524L538.35 205.37L538.2 205.208L538.047 205.039L537.732 204.688L537.57 204.508L537.412 204.336L537.404 204.328L537.247 204.16L537.236 204.149L537.078 203.987C537.074 203.982 537.069 203.977 537.064 203.972L536.906 203.818C536.9 203.812 536.894 203.806 536.887 203.8L536.73 203.654C536.722 203.647 536.714 203.64 536.706 203.633L536.548 203.497C536.539 203.489 536.529 203.481 536.519 203.473L536.361 203.348C536.349 203.339 536.337 203.33 536.325 203.321L536.168 203.209C536.153 203.198 536.138 203.189 536.124 203.179L535.966 203.08C535.949 203.069 535.931 203.059 535.913 203.049L535.756 202.964C535.736 202.953 535.715 202.943 535.694 202.934L535.536 202.863C535.513 202.853 535.488 202.843 535.464 202.835L535.306 202.78C535.28 202.771 535.252 202.763 535.225 202.756L535.067 202.717C535.038 202.71 535.008 202.704 534.978 202.7L534.82 202.678C534.789 202.673 534.757 202.67 534.726 202.669L534.568 202.663C534.536 202.662 534.504 202.663 534.472 202.665L534.315 202.675C534.283 202.678 534.252 202.681 534.221 202.687L534.064 202.714C534.034 202.719 534.005 202.725 533.976 202.733L533.819 202.777C533.792 202.784 533.766 202.793 533.74 202.802L533.582 202.862C533.559 202.871 533.536 202.88 533.513 202.891L533.355 202.966C533.335 202.975 533.315 202.986 533.296 202.997L533.138 203.086C533.121 203.095 533.105 203.106 533.088 203.116L532.931 203.219C532.917 203.229 532.903 203.238 532.889 203.248L532.732 203.364C532.72 203.373 532.709 203.382 532.698 203.391L532.54 203.519C532.531 203.526 532.522 203.534 532.512 203.542L532.355 203.681C532.347 203.688 532.34 203.695 532.333 203.701L532.175 203.85C532.169 203.855 532.163 203.861 532.157 203.867L532 204.023C531.995 204.028 531.991 204.033 531.986 204.037L531.829 204.201L531.818 204.211L531.661 204.38L531.654 204.388L531.492 204.565L531.334 204.742L531.177 204.916L531.022 205.089L530.87 205.256L530.721 205.416L530.575 205.567L530.434 205.708L530.296 205.838L530.163 205.955L530.037 206.059L529.917 206.147L529.805 206.221L529.702 206.28L529.608 206.325L529.524 206.356L529.45 206.377L529.383 206.389L529.321 206.394L529.259 206.392L529.149 206.376C528.648 206.307 528.186 206.657 528.118 207.158C528.049 207.658 528.398 208.12 528.899 208.189L529.056 208.211C529.088 208.215 529.119 208.218 529.151 208.219L529.309 208.224C529.341 208.225 529.373 208.224 529.405 208.222L529.562 208.211C529.593 208.208 529.625 208.204 529.655 208.199L529.813 208.171C529.842 208.166 529.871 208.159 529.9 208.151L530.058 208.107C530.084 208.1 530.11 208.091 530.136 208.081L530.294 208.021C530.317 208.013 530.34 208.003 530.363 207.992L530.52 207.917C530.54 207.907 530.56 207.897 530.579 207.886L530.737 207.796C530.753 207.786 530.77 207.776 530.786 207.766L530.944 207.662C530.958 207.653 530.972 207.643 530.985 207.633L531.142 207.517C531.154 207.508 531.165 207.499 531.176 207.49L531.334 207.362C531.343 207.354 531.352 207.346 531.361 207.338L531.519 207.199C531.526 207.192 531.534 207.186 531.541 207.179L531.699 207.03C531.704 207.025 531.71 207.019 531.716 207.013L531.874 206.856C531.878 206.852 531.883 206.847 531.887 206.843L532.045 206.679L532.055 206.668L532.212 206.499L532.219 206.492L532.38 206.315L532.539 206.138L532.695 205.964L532.697 205.962L532.851 205.791L533.002 205.625L533.151 205.465L533.297 205.314L533.438 205.173L533.576 205.044L533.708 204.927L533.835 204.824L533.954 204.736L534.066 204.663L534.169 204.605L534.262 204.561L534.345 204.53L534.419 204.509L534.486 204.498L534.548 204.493L534.61 204.496L534.675 204.505L534.747 204.523L534.827 204.551L534.917 204.591L535.017 204.645L535.126 204.713L535.244 204.797L535.368 204.896L535.499 205.008L535.635 205.134L535.776 205.272L535.92 205.42L536.068 205.577L536.219 205.742L536.372 205.911L536.374 205.914L536.69 206.267L536.848 206.44L536.854 206.447L537.011 206.617L537.02 206.627L537.178 206.792L537.19 206.805L537.348 206.964C537.353 206.969 537.359 206.975 537.364 206.98L537.522 207.131C537.528 207.138 537.535 207.144 537.542 207.151L537.7 207.293C537.708 207.3 537.717 207.308 537.726 207.315L537.883 207.447C537.894 207.456 537.904 207.464 537.915 207.472L538.073 207.592C538.085 207.602 538.098 207.612 538.112 207.621L538.269 207.728C538.284 207.739 538.3 207.749 538.316 207.758L538.474 207.852C538.492 207.863 538.511 207.873 538.53 207.883L538.687 207.963C538.709 207.974 538.731 207.984 538.753 207.993L538.911 208.057C538.936 208.067 538.961 208.076 538.987 208.084L539.144 208.133C539.172 208.142 539.2 208.149 539.229 208.155L539.387 208.188C539.417 208.194 539.448 208.199 539.478 208.202L539.636 208.218C539.668 208.221 539.7 208.223 539.732 208.223L539.889 208.222C539.921 208.222 539.953 208.221 539.985 208.217L540.142 208.2C540.173 208.197 540.203 208.192 540.234 208.186L540.391 208.152C540.42 208.146 540.448 208.139 540.476 208.13L540.633 208.081C540.659 208.073 540.684 208.064 540.709 208.054L540.866 207.988C540.888 207.979 540.91 207.969 540.932 207.958L541.089 207.878C541.108 207.868 541.127 207.858 541.145 207.847L541.302 207.753C541.318 207.743 541.334 207.733 541.349 207.723L541.507 207.615C541.52 207.606 541.533 207.596 541.545 207.586L541.703 207.466C541.714 207.458 541.724 207.449 541.735 207.44L541.892 207.308C541.901 207.301 541.909 207.294 541.918 207.286L542.075 207.143C542.082 207.137 542.089 207.131 542.096 207.124L542.253 206.973C542.259 206.967 542.264 206.962 542.269 206.957L542.427 206.798L542.439 206.785L542.597 206.619L542.606 206.61L542.763 206.439L542.769 206.433L542.929 206.256L543.242 205.906L543.245 205.904L543.397 205.735L543.548 205.57L543.696 205.414L543.84 205.266L543.981 205.129L544.116 205.003L544.247 204.891L544.371 204.793L544.488 204.71L544.597 204.642L544.697 204.589L544.786 204.549L544.866 204.522L544.938 204.504L545.003 204.496L545.064 204.493L545.127 204.498L545.194 204.51L545.268 204.531L545.352 204.562L545.445 204.607L545.548 204.666L545.66 204.74L545.78 204.828L545.907 204.932L546.04 205.049L546.177 205.179L546.319 205.32L546.465 205.472L546.614 205.631L546.766 205.798L546.92 205.97L546.921 205.971L547.077 206.145L547.079 206.147L547.24 206.327L547.398 206.499L547.405 206.507L547.562 206.676L547.572 206.686L547.73 206.85C547.734 206.855 547.739 206.859 547.744 206.864L547.901 207.02C547.907 207.026 547.913 207.032 547.919 207.037L548.076 207.186C548.084 207.193 548.091 207.199 548.099 207.206L548.256 207.345C548.265 207.353 548.274 207.361 548.284 207.368L548.441 207.496C548.453 207.505 548.464 207.514 548.476 207.523L548.633 207.639C548.647 207.649 548.66 207.659 548.675 207.668L548.832 207.771C548.848 207.782 548.865 207.792 548.882 207.801L549.04 207.891C549.059 207.902 549.079 207.912 549.099 207.921L549.257 207.996C549.279 208.007 549.302 208.017 549.326 208.025L549.483 208.085C549.509 208.094 549.536 208.103 549.562 208.11L549.72 208.154C549.749 208.162 549.778 208.168 549.807 208.173L549.965 208.201C549.996 208.206 550.027 208.21 550.058 208.212L550.216 208.222Z" fill="url(#paint49_linear_4_5594)"/>
<path d="M774.614 210.134V235.451H728.142V217.367H697.16V210.134H774.614Z" fill="url(#paint50_linear_4_5594)"/>
<path d="M555.116 127.038V138.714H533.684V130.374H519.396V127.038H555.116Z" fill="url(#paint51_linear_4_5594)"/>
<path d="M789.861 32.1905V51.4095H743.389V39.4242H700.209V32.1905H789.861Z" fill="url(#paint52_linear_4_5594)"/>
<path fill-rule="evenodd" clip-rule="evenodd" d="M638.1 123.214V116.975H636.27V123.848L656.287 149.255L657.724 148.122L638.1 123.214Z" fill="url(#paint53_linear_4_5594)"/>
<path fill-rule="evenodd" clip-rule="evenodd" d="M699.393 123.07V116.518H701.222V124.602L678.207 128.701L677.886 126.9L699.393 123.07Z" fill="url(#paint54_linear_4_5594)"/>
<path d="M672.335 29.3252H678.047V57.841H672.335V29.3252Z" fill="url(#paint55_linear_4_5594)"/>
<path d="M662.882 29.3252H668.594V98.2412H662.882V29.3252Z" fill="url(#paint56_linear_4_5594)"/>
<path d="M681.706 35.7289H684.978V57.841H681.706V35.7289Z" fill="url(#paint57_linear_4_5594)"/>
<path d="M635.965 157.479H649.382V176.895H635.965V157.479Z" fill="url(#paint58_linear_4_5594)"/>
<path d="M642.953 157.479H649.382V233.309H642.953V157.479Z" fill="url(#paint59_linear_4_5594)"/>
<path d="M593.579 157.479H642.674V159.308H593.579V157.479Z" fill="url(#paint60_linear_4_5594)"/>
<path d="M603.099 161.138H642.674V162.968H603.099V161.138Z" fill="url(#paint61_linear_4_5594)"/>
<path d="M611.875 164.797H642.674V166.627H611.875V164.797Z" fill="url(#paint62_linear_4_5594)"/>
<path d="M607.863 251.197H609.501V233.231V223.861H607.863V251.197Z" fill="url(#paint63_linear_4_5594)"/>
<path d="M609.501 233.231V251.197L615.852 251.197L626.525 233.231L609.501 233.231Z" fill="url(#paint64_linear_4_5594)"/>
<path d="M618.596 251.197L629.269 233.231H632.014L621.341 251.197H618.596Z" fill="url(#paint65_linear_4_5594)"/>
<path d="M624.238 251.197L634.911 233.231H638.113L627.44 251.197H624.238Z" fill="url(#paint66_linear_4_5594)"/>
<path fill-rule="evenodd" clip-rule="evenodd" d="M660.665 225.076V156.465H658.836V226.905H683.84V213.793H682.011V225.076H660.665Z" fill="url(#paint67_linear_4_5594)"/>
<path fill-rule="evenodd" clip-rule="evenodd" d="M665.017 220.791V160.124H663.187V222.621H680.021V214.561H678.191V220.791H665.017Z" fill="url(#paint68_linear_4_5594)"/>
<path fill-rule="evenodd" clip-rule="evenodd" d="M554.547 154.94V195.51L553.632 196.411H547.076L546.444 194.857L552.717 188.963V154.94H554.547Z" fill="url(#paint69_linear_4_5594)"/>
<path fill-rule="evenodd" clip-rule="evenodd" d="M562.17 215.165L572.472 225.686V254.363L571.558 255.265H565.001L564.37 253.71L570.643 247.816V225.686L560.34 215.165H562.17Z" fill="url(#paint70_linear_4_5594)"/>
<path fill-rule="evenodd" clip-rule="evenodd" d="M554.852 216.537H501.64V214.708H554.852V216.537Z" fill="url(#paint71_linear_4_5594)"/>
<path fill-rule="evenodd" clip-rule="evenodd" d="M554.852 218.336H501.64V217.757H554.852V218.336Z" fill="url(#paint72_linear_4_5594)"/>
</g>
<line x1="371" y1="74.5" x2="403.016" y2="74.5" stroke="#8F8E93"/>
<line x1="371" y1="275.5" x2="403.016" y2="275.5" stroke="#8F8E93"/>
<line x1="371" y1="525.5" x2="403.016" y2="525.5" stroke="#8F8E93"/>
<defs>
<filter id="filter0_d_4_5594" x="403.036" y="67.0352" width="24.5309" height="18.0754" filterUnits="userSpaceOnUse" color-interpolation-filters="sRGB">
<feFlood flood-opacity="0" result="BackgroundImageFix"/>
<feColorMatrix in="SourceAlpha" type="matrix" values="0 0 0 0 0 0 0 0 0 0 0 0 0 0 0 0 0 0 127 0" result="hardAlpha"/>
<feOffset dx="9.0377" dy="2.5822"/>
<feComposite in2="hardAlpha" operator="out"/>
<feColorMatrix type="matrix" values="0 0 0 0 0 0 0 0 0 0 0 0 0 0 0 0 0 0 1 0"/>
<feBlend mode="normal" in2="BackgroundImageFix" result="effect1_dropShadow_4_5594"/>
<feBlend mode="normal" in="SourceGraphic" in2="effect1_dropShadow_4_5594" result="shape"/>
</filter>
<filter id="filter1_d_4_5594" x="403.035" y="268.035" width="24.5309" height="18.0754" filterUnits="userSpaceOnUse" color-interpolation-filters="sRGB">
<feFlood flood-opacity="0" result="BackgroundImageFix"/>
<feColorMatrix in="SourceAlpha" type="matrix" values="0 0 0 0 0 0 0 0 0 0 0 0 0 0 0 0 0 0 127 0" result="hardAlpha"/>
<feOffset dx="9.0377" dy="2.5822"/>
<feComposite in2="hardAlpha" operator="out"/>
<feColorMatrix type="matrix" values="0 0 0 0 0 0 0 0 0 0 0 0 0 0 0 0 0 0 1 0"/>
<feBlend mode="normal" in2="BackgroundImageFix" result="effect1_dropShadow_4_5594"/>
<feBlend mode="normal" in="SourceGraphic" in2="effect1_dropShadow_4_5594" result="shape"/>
</filter>
<filter id="filter2_d_4_5594" x="403.035" y="518.035" width="24.5309" height="18.0754" filterUnits="userSpaceOnUse" color-interpolation-filters="sRGB">
<feFlood flood-opacity="0" result="BackgroundImageFix"/>
<feColorMatrix in="SourceAlpha" type="matrix" values="0 0 0 0 0 0 0 0 0 0 0 0 0 0 0 0 0 0 127 0" result="hardAlpha"/>
<feOffset dx="9.0377" dy="2.5822"/>
<feComposite in2="hardAlpha" operator="out"/>
<feColorMatrix type="matrix" values="0 0 0 0 0 0 0 0 0 0 0 0 0 0 0 0 0 0 1 0"/>
<feBlend mode="normal" in2="BackgroundImageFix" result="effect1_dropShadow_4_5594"/>
<feBlend mode="normal" in="SourceGraphic" in2="effect1_dropShadow_4_5594" result="shape"/>
</filter>
<linearGradient id="paint0_linear_4_5594" x1="520.958" y1="496.934" x2="441.762" y2="16.4635" gradientUnits="userSpaceOnUse">
<stop stop-color="#F1EFED"/>
<stop offset="0.534758" stop-color="#DDDDDD" stop-opacity="0.22"/>
<stop offset="1" stop-color="#F1EFED"/>
</linearGradient>
<linearGradient id="paint1_linear_4_5594" x1="245.843" y1="937.537" x2="154.733" y2="384.79" gradientUnits="userSpaceOnUse">
<stop stop-color="#F1EFED"/>
<stop offset="0.534758" stop-color="#DDDDDD" stop-opacity="0.22"/>
<stop offset="1" stop-color="#F1EFED"/>
</linearGradient>
<linearGradient id="paint2_linear_4_5594" x1="656.701" y1="383.948" x2="537.193" y2="-93.0835" gradientUnits="userSpaceOnUse">
<stop offset="0.121234" stop-color="#F1EFED"/>
<stop offset="0.488143" stop-color="#DDDDDD" stop-opacity="0.22"/>
<stop offset="0.897958" stop-color="#F1EFED"/>
</linearGradient>
<linearGradient id="paint3_linear_4_5594" x1="656.701" y1="383.948" x2="537.193" y2="-93.0835" gradientUnits="userSpaceOnUse">
<stop offset="0.121234" stop-color="#F1EFED"/>
<stop offset="0.488143" stop-color="#DDDDDD" stop-opacity="0.22"/>
<stop offset="0.897958" stop-color="#F1EFED"/>
</linearGradient>
<linearGradient id="paint4_linear_4_5594" x1="656.701" y1="383.948" x2="537.193" y2="-93.0835" gradientUnits="userSpaceOnUse">
<stop offset="0.121234" stop-color="#F1EFED"/>
<stop offset="0.488143" stop-color="#DDDDDD" stop-opacity="0.22"/>
<stop offset="0.897958" stop-color="#F1EFED"/>
</linearGradient>
<linearGradient id="paint5_linear_4_5594" x1="656.701" y1="383.948" x2="537.193" y2="-93.0835" gradientUnits="userSpaceOnUse">
<stop offset="0.121234" stop-color="#F1EFED"/>
<stop offset="0.488143" stop-color="#DDDDDD" stop-opacity="0.22"/>
<stop offset="0.897958" stop-color="#F1EFED"/>
</linearGradient>
<linearGradient id="paint6_linear_4_5594" x1="656.701" y1="383.948" x2="537.193" y2="-93.0835" gradientUnits="userSpaceOnUse">
<stop offset="0.121234" stop-color="#F1EFED"/>
<stop offset="0.488143" stop-color="#DDDDDD" stop-opacity="0.22"/>
<stop offset="0.897958" stop-color="#F1EFED"/>
</linearGradient>
<linearGradient id="paint7_linear_4_5594" x1="656.701" y1="383.948" x2="537.193" y2="-93.0835" gradientUnits="userSpaceOnUse">
<stop offset="0.121234" stop-color="#F1EFED"/>
<stop offset="0.488143" stop-color="#DDDDDD" stop-opacity="0.22"/>
<stop offset="0.897958" stop-color="#F1EFED"/>
</linearGradient>
<linearGradient id="paint8_linear_4_5594" x1="656.701" y1="383.948" x2="537.193" y2="-93.0835" gradientUnits="userSpaceOnUse">
<stop offset="0.121234" stop-color="#F1EFED"/>
<stop offset="0.488143" stop-color="#DDDDDD" stop-opacity="0.22"/>
<stop offset="0.897958" stop-color="#F1EFED"/>
</linearGradient>
<linearGradient id="paint9_linear_4_5594" x1="656.701" y1="383.948" x2="537.193" y2="-93.0835" gradientUnits="userSpaceOnUse">
<stop offset="0.121234" stop-color="#F1EFED"/>
<stop offset="0.488143" stop-color="#DDDDDD" stop-opacity="0.22"/>
<stop offset="0.897958" stop-color="#F1EFED"/>
</linearGradient>
<linearGradient id="paint10_linear_4_5594" x1="656.701" y1="383.948" x2="537.193" y2="-93.0835" gradientUnits="userSpaceOnUse">
<stop offset="0.121234" stop-color="#F1EFED"/>
<stop offset="0.488143" stop-color="#DDDDDD" stop-opacity="0.22"/>
<stop offset="0.897958" stop-color="#F1EFED"/>
</linearGradient>
<linearGradient id="paint11_linear_4_5594" x1="656.701" y1="383.948" x2="537.193" y2="-93.0835" gradientUnits="userSpaceOnUse">
<stop offset="0.121234" stop-color="#F1EFED"/>
<stop offset="0.488143" stop-color="#DDDDDD" stop-opacity="0.22"/>
<stop offset="0.897958" stop-color="#F1EFED"/>
</linearGradient>
<linearGradient id="paint12_linear_4_5594" x1="656.701" y1="383.948" x2="537.193" y2="-93.0835" gradientUnits="userSpaceOnUse">
<stop offset="0.121234" stop-color="#F1EFED"/>
<stop offset="0.488143" stop-color="#DDDDDD" stop-opacity="0.22"/>
<stop offset="0.897958" stop-color="#F1EFED"/>
</linearGradient>
<linearGradient id="paint13_linear_4_5594" x1="656.701" y1="383.948" x2="537.193" y2="-93.0835" gradientUnits="userSpaceOnUse">
<stop offset="0.121234" stop-color="#F1EFED"/>
<stop offset="0.488143" stop-color="#DDDDDD" stop-opacity="0.22"/>
<stop offset="0.897958" stop-color="#F1EFED"/>
</linearGradient>
<linearGradient id="paint14_linear_4_5594" x1="656.701" y1="383.948" x2="537.193" y2="-93.0835" gradientUnits="userSpaceOnUse">
<stop offset="0.121234" stop-color="#F1EFED"/>
<stop offset="0.488143" stop-color="#DDDDDD" stop-opacity="0.22"/>
<stop offset="0.897958" stop-color="#F1EFED"/>
</linearGradient>
<linearGradient id="paint15_linear_4_5594" x1="656.701" y1="383.948" x2="537.193" y2="-93.0835" gradientUnits="userSpaceOnUse">
<stop offset="0.121234" stop-color="#F1EFED"/>
<stop offset="0.488143" stop-color="#DDDDDD" stop-opacity="0.22"/>
<stop offset="0.897958" stop-color="#F1EFED"/>
</linearGradient>
<linearGradient id="paint16_linear_4_5594" x1="656.701" y1="383.948" x2="537.193" y2="-93.0835" gradientUnits="userSpaceOnUse">
<stop offset="0.121234" stop-color="#F1EFED"/>
<stop offset="0.488143" stop-color="#DDDDDD" stop-opacity="0.22"/>
<stop offset="0.897958" stop-color="#F1EFED"/>
</linearGradient>
<linearGradient id="paint17_linear_4_5594" x1="656.701" y1="383.948" x2="537.193" y2="-93.0835" gradientUnits="userSpaceOnUse">
<stop offset="0.121234" stop-color="#F1EFED"/>
<stop offset="0.488143" stop-color="#DDDDDD" stop-opacity="0.22"/>
<stop offset="0.897958" stop-color="#F1EFED"/>
</linearGradient>
<linearGradient id="paint18_linear_4_5594" x1="656.701" y1="383.948" x2="537.193" y2="-93.0835" gradientUnits="userSpaceOnUse">
<stop offset="0.121234" stop-color="#F1EFED"/>
<stop offset="0.488143" stop-color="#DDDDDD" stop-opacity="0.22"/>
<stop offset="0.897958" stop-color="#F1EFED"/>
</linearGradient>
<linearGradient id="paint19_linear_4_5594" x1="656.701" y1="383.948" x2="537.193" y2="-93.0835" gradientUnits="userSpaceOnUse">
<stop offset="0.121234" stop-color="#F1EFED"/>
<stop offset="0.488143" stop-color="#DDDDDD" stop-opacity="0.22"/>
<stop offset="0.897958" stop-color="#F1EFED"/>
</linearGradient>
<linearGradient id="paint20_linear_4_5594" x1="656.701" y1="383.948" x2="537.193" y2="-93.0835" gradientUnits="userSpaceOnUse">
<stop offset="0.121234" stop-color="#F1EFED"/>
<stop offset="0.488143" stop-color="#DDDDDD" stop-opacity="0.22"/>
<stop offset="0.897958" stop-color="#F1EFED"/>
</linearGradient>
<linearGradient id="paint21_linear_4_5594" x1="656.701" y1="383.948" x2="537.193" y2="-93.0835" gradientUnits="userSpaceOnUse">
<stop offset="0.121234" stop-color="#F1EFED"/>
<stop offset="0.488143" stop-color="#DDDDDD" stop-opacity="0.22"/>
<stop offset="0.897958" stop-color="#F1EFED"/>
</linearGradient>
<linearGradient id="paint22_linear_4_5594" x1="656.701" y1="383.948" x2="537.193" y2="-93.0835" gradientUnits="userSpaceOnUse">
<stop offset="0.121234" stop-color="#F1EFED"/>
<stop offset="0.488143" stop-color="#DDDDDD" stop-opacity="0.22"/>
<stop offset="0.897958" stop-color="#F1EFED"/>
</linearGradient>
<linearGradient id="paint23_linear_4_5594" x1="656.701" y1="383.948" x2="537.193" y2="-93.0835" gradientUnits="userSpaceOnUse">
<stop offset="0.121234" stop-color="#F1EFED"/>
<stop offset="0.488143" stop-color="#DDDDDD" stop-opacity="0.22"/>
<stop offset="0.897958" stop-color="#F1EFED"/>
</linearGradient>
<linearGradient id="paint24_linear_4_5594" x1="656.701" y1="383.948" x2="537.193" y2="-93.0835" gradientUnits="userSpaceOnUse">
<stop offset="0.121234" stop-color="#F1EFED"/>
<stop offset="0.488143" stop-color="#DDDDDD" stop-opacity="0.22"/>
<stop offset="0.897958" stop-color="#F1EFED"/>
</linearGradient>
<linearGradient id="paint25_linear_4_5594" x1="656.701" y1="383.948" x2="537.193" y2="-93.0835" gradientUnits="userSpaceOnUse">
<stop offset="0.121234" stop-color="#F1EFED"/>
<stop offset="0.488143" stop-color="#DDDDDD" stop-opacity="0.22"/>
<stop offset="0.897958" stop-color="#F1EFED"/>
</linearGradient>
<linearGradient id="paint26_linear_4_5594" x1="656.701" y1="383.948" x2="537.193" y2="-93.0835" gradientUnits="userSpaceOnUse">
<stop offset="0.121234" stop-color="#F1EFED"/>
<stop offset="0.488143" stop-color="#DDDDDD" stop-opacity="0.22"/>
<stop offset="0.897958" stop-color="#F1EFED"/>
</linearGradient>
<linearGradient id="paint27_linear_4_5594" x1="656.701" y1="383.948" x2="537.193" y2="-93.0835" gradientUnits="userSpaceOnUse">
<stop offset="0.121234" stop-color="#F1EFED"/>
<stop offset="0.488143" stop-color="#DDDDDD" stop-opacity="0.22"/>
<stop offset="0.897958" stop-color="#F1EFED"/>
</linearGradient>
<linearGradient id="paint28_linear_4_5594" x1="656.701" y1="383.948" x2="537.193" y2="-93.0835" gradientUnits="userSpaceOnUse">
<stop offset="0.121234" stop-color="#F1EFED"/>
<stop offset="0.488143" stop-color="#DDDDDD" stop-opacity="0.22"/>
<stop offset="0.897958" stop-color="#F1EFED"/>
</linearGradient>
<linearGradient id="paint29_linear_4_5594" x1="656.701" y1="383.948" x2="537.193" y2="-93.0835" gradientUnits="userSpaceOnUse">
<stop offset="0.121234" stop-color="#F1EFED"/>
<stop offset="0.488143" stop-color="#DDDDDD" stop-opacity="0.22"/>
<stop offset="0.897958" stop-color="#F1EFED"/>
</linearGradient>
<linearGradient id="paint30_linear_4_5594" x1="656.701" y1="383.948" x2="537.193" y2="-93.0835" gradientUnits="userSpaceOnUse">
<stop offset="0.121234" stop-color="#F1EFED"/>
<stop offset="0.488143" stop-color="#DDDDDD" stop-opacity="0.22"/>
<stop offset="0.897958" stop-color="#F1EFED"/>
</linearGradient>
<linearGradient id="paint31_linear_4_5594" x1="656.701" y1="383.948" x2="537.193" y2="-93.0835" gradientUnits="userSpaceOnUse">
<stop offset="0.121234" stop-color="#F1EFED"/>
<stop offset="0.488143" stop-color="#DDDDDD" stop-opacity="0.22"/>
<stop offset="0.897958" stop-color="#F1EFED"/>
</linearGradient>
<linearGradient id="paint32_linear_4_5594" x1="656.701" y1="383.948" x2="537.193" y2="-93.0835" gradientUnits="userSpaceOnUse">
<stop offset="0.121234" stop-color="#F1EFED"/>
<stop offset="0.488143" stop-color="#DDDDDD" stop-opacity="0.22"/>
<stop offset="0.897958" stop-color="#F1EFED"/>
</linearGradient>
<linearGradient id="paint33_linear_4_5594" x1="656.701" y1="383.948" x2="537.193" y2="-93.0835" gradientUnits="userSpaceOnUse">
<stop offset="0.121234" stop-color="#F1EFED"/>
<stop offset="0.488143" stop-color="#DDDDDD" stop-opacity="0.22"/>
<stop offset="0.897958" stop-color="#F1EFED"/>
</linearGradient>
<linearGradient id="paint34_linear_4_5594" x1="656.701" y1="383.948" x2="537.193" y2="-93.0835" gradientUnits="userSpaceOnUse">
<stop offset="0.121234" stop-color="#F1EFED"/>
<stop offset="0.488143" stop-color="#DDDDDD" stop-opacity="0.22"/>
<stop offset="0.897958" stop-color="#F1EFED"/>
</linearGradient>
<linearGradient id="paint35_linear_4_5594" x1="656.701" y1="383.948" x2="537.193" y2="-93.0835" gradientUnits="userSpaceOnUse">
<stop offset="0.121234" stop-color="#F1EFED"/>
<stop offset="0.488143" stop-color="#DDDDDD" stop-opacity="0.22"/>
<stop offset="0.897958" stop-color="#F1EFED"/>
</linearGradient>
<linearGradient id="paint36_linear_4_5594" x1="656.701" y1="383.948" x2="537.193" y2="-93.0835" gradientUnits="userSpaceOnUse">
<stop offset="0.121234" stop-color="#F1EFED"/>
<stop offset="0.488143" stop-color="#DDDDDD" stop-opacity="0.22"/>
<stop offset="0.897958" stop-color="#F1EFED"/>
</linearGradient>
<linearGradient id="paint37_linear_4_5594" x1="656.701" y1="383.948" x2="537.193" y2="-93.0835" gradientUnits="userSpaceOnUse">
<stop offset="0.121234" stop-color="#F1EFED"/>
<stop offset="0.488143" stop-color="#DDDDDD" stop-opacity="0.22"/>
<stop offset="0.897958" stop-color="#F1EFED"/>
</linearGradient>
<linearGradient id="paint38_linear_4_5594" x1="656.701" y1="383.948" x2="537.193" y2="-93.0835" gradientUnits="userSpaceOnUse">
<stop offset="0.121234" stop-color="#F1EFED"/>
<stop offset="0.488143" stop-color="#DDDDDD" stop-opacity="0.22"/>
<stop offset="0.897958" stop-color="#F1EFED"/>
</linearGradient>
<linearGradient id="paint39_linear_4_5594" x1="656.701" y1="383.948" x2="537.193" y2="-93.0835" gradientUnits="userSpaceOnUse">
<stop offset="0.121234" stop-color="#F1EFED"/>
<stop offset="0.488143" stop-color="#DDDDDD" stop-opacity="0.22"/>
<stop offset="0.897958" stop-color="#F1EFED"/>
</linearGradient>
<linearGradient id="paint40_linear_4_5594" x1="656.701" y1="383.948" x2="537.193" y2="-93.0835" gradientUnits="userSpaceOnUse">
<stop offset="0.121234" stop-color="#F1EFED"/>
<stop offset="0.488143" stop-color="#DDDDDD" stop-opacity="0.22"/>
<stop offset="0.897958" stop-color="#F1EFED"/>
</linearGradient>
<linearGradient id="paint41_linear_4_5594" x1="656.701" y1="383.948" x2="537.193" y2="-93.0835" gradientUnits="userSpaceOnUse">
<stop offset="0.121234" stop-color="#F1EFED"/>
<stop offset="0.488143" stop-color="#DDDDDD" stop-opacity="0.22"/>
<stop offset="0.897958" stop-color="#F1EFED"/>
</linearGradient>
<linearGradient id="paint42_linear_4_5594" x1="656.701" y1="383.948" x2="537.193" y2="-93.0835" gradientUnits="userSpaceOnUse">
<stop offset="0.121234" stop-color="#F1EFED"/>
<stop offset="0.488143" stop-color="#DDDDDD" stop-opacity="0.22"/>
<stop offset="0.897958" stop-color="#F1EFED"/>
</linearGradient>
<linearGradient id="paint43_linear_4_5594" x1="656.701" y1="383.948" x2="537.193" y2="-93.0835" gradientUnits="userSpaceOnUse">
<stop offset="0.121234" stop-color="#F1EFED"/>
<stop offset="0.488143" stop-color="#DDDDDD" stop-opacity="0.22"/>
<stop offset="0.897958" stop-color="#F1EFED"/>
</linearGradient>
<linearGradient id="paint44_linear_4_5594" x1="656.701" y1="383.948" x2="537.193" y2="-93.0835" gradientUnits="userSpaceOnUse">
<stop offset="0.121234" stop-color="#F1EFED"/>
<stop offset="0.488143" stop-color="#DDDDDD" stop-opacity="0.22"/>
<stop offset="0.897958" stop-color="#F1EFED"/>
</linearGradient>
<linearGradient id="paint45_linear_4_5594" x1="656.701" y1="383.948" x2="537.193" y2="-93.0835" gradientUnits="userSpaceOnUse">
<stop offset="0.121234" stop-color="#F1EFED"/>
<stop offset="0.488143" stop-color="#DDDDDD" stop-opacity="0.22"/>
<stop offset="0.897958" stop-color="#F1EFED"/>
</linearGradient>
<linearGradient id="paint46_linear_4_5594" x1="656.701" y1="383.948" x2="537.193" y2="-93.0835" gradientUnits="userSpaceOnUse">
<stop offset="0.121234" stop-color="#F1EFED"/>
<stop offset="0.488143" stop-color="#DDDDDD" stop-opacity="0.22"/>
<stop offset="0.897958" stop-color="#F1EFED"/>
</linearGradient>
<linearGradient id="paint47_linear_4_5594" x1="656.701" y1="383.948" x2="537.193" y2="-93.0835" gradientUnits="userSpaceOnUse">
<stop offset="0.121234" stop-color="#F1EFED"/>
<stop offset="0.488143" stop-color="#DDDDDD" stop-opacity="0.22"/>
<stop offset="0.897958" stop-color="#F1EFED"/>
</linearGradient>
<linearGradient id="paint48_linear_4_5594" x1="656.701" y1="383.948" x2="537.193" y2="-93.0835" gradientUnits="userSpaceOnUse">
<stop offset="0.121234" stop-color="#F1EFED"/>
<stop offset="0.488143" stop-color="#DDDDDD" stop-opacity="0.22"/>
<stop offset="0.897958" stop-color="#F1EFED"/>
</linearGradient>
<linearGradient id="paint49_linear_4_5594" x1="656.701" y1="383.948" x2="537.193" y2="-93.0835" gradientUnits="userSpaceOnUse">
<stop offset="0.121234" stop-color="#F1EFED"/>
<stop offset="0.488143" stop-color="#DDDDDD" stop-opacity="0.22"/>
<stop offset="0.897958" stop-color="#F1EFED"/>
</linearGradient>
<linearGradient id="paint50_linear_4_5594" x1="656.701" y1="383.948" x2="537.193" y2="-93.0835" gradientUnits="userSpaceOnUse">
<stop offset="0.121234" stop-color="#F1EFED"/>
<stop offset="0.488143" stop-color="#DDDDDD" stop-opacity="0.22"/>
<stop offset="0.897958" stop-color="#F1EFED"/>
</linearGradient>
<linearGradient id="paint51_linear_4_5594" x1="656.701" y1="383.948" x2="537.193" y2="-93.0835" gradientUnits="userSpaceOnUse">
<stop offset="0.121234" stop-color="#F1EFED"/>
<stop offset="0.488143" stop-color="#DDDDDD" stop-opacity="0.22"/>
<stop offset="0.897958" stop-color="#F1EFED"/>
</linearGradient>
<linearGradient id="paint52_linear_4_5594" x1="656.701" y1="383.948" x2="537.193" y2="-93.0835" gradientUnits="userSpaceOnUse">
<stop offset="0.121234" stop-color="#F1EFED"/>
<stop offset="0.488143" stop-color="#DDDDDD" stop-opacity="0.22"/>
<stop offset="0.897958" stop-color="#F1EFED"/>
</linearGradient>
<linearGradient id="paint53_linear_4_5594" x1="656.701" y1="383.948" x2="537.193" y2="-93.0835" gradientUnits="userSpaceOnUse">
<stop offset="0.121234" stop-color="#F1EFED"/>
<stop offset="0.488143" stop-color="#DDDDDD" stop-opacity="0.22"/>
<stop offset="0.897958" stop-color="#F1EFED"/>
</linearGradient>
<linearGradient id="paint54_linear_4_5594" x1="656.701" y1="383.948" x2="537.193" y2="-93.0835" gradientUnits="userSpaceOnUse">
<stop offset="0.121234" stop-color="#F1EFED"/>
<stop offset="0.488143" stop-color="#DDDDDD" stop-opacity="0.22"/>
<stop offset="0.897958" stop-color="#F1EFED"/>
</linearGradient>
<linearGradient id="paint55_linear_4_5594" x1="656.701" y1="383.948" x2="537.193" y2="-93.0835" gradientUnits="userSpaceOnUse">
<stop offset="0.121234" stop-color="#F1EFED"/>
<stop offset="0.488143" stop-color="#DDDDDD" stop-opacity="0.22"/>
<stop offset="0.897958" stop-color="#F1EFED"/>
</linearGradient>
<linearGradient id="paint56_linear_4_5594" x1="656.701" y1="383.948" x2="537.193" y2="-93.0835" gradientUnits="userSpaceOnUse">
<stop offset="0.121234" stop-color="#F1EFED"/>
<stop offset="0.488143" stop-color="#DDDDDD" stop-opacity="0.22"/>
<stop offset="0.897958" stop-color="#F1EFED"/>
</linearGradient>
<linearGradient id="paint57_linear_4_5594" x1="656.701" y1="383.948" x2="537.193" y2="-93.0835" gradientUnits="userSpaceOnUse">
<stop offset="0.121234" stop-color="#F1EFED"/>
<stop offset="0.488143" stop-color="#DDDDDD" stop-opacity="0.22"/>
<stop offset="0.897958" stop-color="#F1EFED"/>
</linearGradient>
<linearGradient id="paint58_linear_4_5594" x1="656.701" y1="383.948" x2="537.193" y2="-93.0835" gradientUnits="userSpaceOnUse">
<stop offset="0.121234" stop-color="#F1EFED"/>
<stop offset="0.488143" stop-color="#DDDDDD" stop-opacity="0.22"/>
<stop offset="0.897958" stop-color="#F1EFED"/>
</linearGradient>
<linearGradient id="paint59_linear_4_5594" x1="656.701" y1="383.948" x2="537.193" y2="-93.0835" gradientUnits="userSpaceOnUse">
<stop offset="0.121234" stop-color="#F1EFED"/>
<stop offset="0.488143" stop-color="#DDDDDD" stop-opacity="0.22"/>
<stop offset="0.897958" stop-color="#F1EFED"/>
</linearGradient>
<linearGradient id="paint60_linear_4_5594" x1="656.701" y1="383.948" x2="537.193" y2="-93.0835" gradientUnits="userSpaceOnUse">
<stop offset="0.121234" stop-color="#F1EFED"/>
<stop offset="0.488143" stop-color="#DDDDDD" stop-opacity="0.22"/>
<stop offset="0.897958" stop-color="#F1EFED"/>
</linearGradient>
<linearGradient id="paint61_linear_4_5594" x1="656.701" y1="383.948" x2="537.193" y2="-93.0835" gradientUnits="userSpaceOnUse">
<stop offset="0.121234" stop-color="#F1EFED"/>
<stop offset="0.488143" stop-color="#DDDDDD" stop-opacity="0.22"/>
<stop offset="0.897958" stop-color="#F1EFED"/>
</linearGradient>
<linearGradient id="paint62_linear_4_5594" x1="656.701" y1="383.948" x2="537.193" y2="-93.0835" gradientUnits="userSpaceOnUse">
<stop offset="0.121234" stop-color="#F1EFED"/>
<stop offset="0.488143" stop-color="#DDDDDD" stop-opacity="0.22"/>
<stop offset="0.897958" stop-color="#F1EFED"/>
</linearGradient>
<linearGradient id="paint63_linear_4_5594" x1="656.701" y1="383.948" x2="537.193" y2="-93.0835" gradientUnits="userSpaceOnUse">
<stop offset="0.121234" stop-color="#F1EFED"/>
<stop offset="0.488143" stop-color="#DDDDDD" stop-opacity="0.22"/>
<stop offset="0.897958" stop-color="#F1EFED"/>
</linearGradient>
<linearGradient id="paint64_linear_4_5594" x1="656.701" y1="383.948" x2="537.193" y2="-93.0835" gradientUnits="userSpaceOnUse">
<stop offset="0.121234" stop-color="#F1EFED"/>
<stop offset="0.488143" stop-color="#DDDDDD" stop-opacity="0.22"/>
<stop offset="0.897958" stop-color="#F1EFED"/>
</linearGradient>
<linearGradient id="paint65_linear_4_5594" x1="656.701" y1="383.948" x2="537.193" y2="-93.0835" gradientUnits="userSpaceOnUse">
<stop offset="0.121234" stop-color="#F1EFED"/>
<stop offset="0.488143" stop-color="#DDDDDD" stop-opacity="0.22"/>
<stop offset="0.897958" stop-color="#F1EFED"/>
</linearGradient>
<linearGradient id="paint66_linear_4_5594" x1="656.701" y1="383.948" x2="537.193" y2="-93.0835" gradientUnits="userSpaceOnUse">
<stop offset="0.121234" stop-color="#F1EFED"/>
<stop offset="0.488143" stop-color="#DDDDDD" stop-opacity="0.22"/>
<stop offset="0.897958" stop-color="#F1EFED"/>
</linearGradient>
<linearGradient id="paint67_linear_4_5594" x1="656.701" y1="383.948" x2="537.193" y2="-93.0835" gradientUnits="userSpaceOnUse">
<stop offset="0.121234" stop-color="#F1EFED"/>
<stop offset="0.488143" stop-color="#DDDDDD" stop-opacity="0.22"/>
<stop offset="0.897958" stop-color="#F1EFED"/>
</linearGradient>
<linearGradient id="paint68_linear_4_5594" x1="656.701" y1="383.948" x2="537.193" y2="-93.0835" gradientUnits="userSpaceOnUse">
<stop offset="0.121234" stop-color="#F1EFED"/>
<stop offset="0.488143" stop-color="#DDDDDD" stop-opacity="0.22"/>
<stop offset="0.897958" stop-color="#F1EFED"/>
</linearGradient>
<linearGradient id="paint69_linear_4_5594" x1="656.701" y1="383.948" x2="537.193" y2="-93.0835" gradientUnits="userSpaceOnUse">
<stop offset="0.121234" stop-color="#F1EFED"/>
<stop offset="0.488143" stop-color="#DDDDDD" stop-opacity="0.22"/>
<stop offset="0.897958" stop-color="#F1EFED"/>
</linearGradient>
<linearGradient id="paint70_linear_4_5594" x1="656.701" y1="383.948" x2="537.193" y2="-93.0835" gradientUnits="userSpaceOnUse">
<stop offset="0.121234" stop-color="#F1EFED"/>
<stop offset="0.488143" stop-color="#DDDDDD" stop-opacity="0.22"/>
<stop offset="0.897958" stop-color="#F1EFED"/>
</linearGradient>
<linearGradient id="paint71_linear_4_5594" x1="656.701" y1="383.948" x2="537.193" y2="-93.0835" gradientUnits="userSpaceOnUse">
<stop offset="0.121234" stop-color="#F1EFED"/>
<stop offset="0.488143" stop-color="#DDDDDD" stop-opacity="0.22"/>
<stop offset="0.897958" stop-color="#F1EFED"/>
</linearGradient>
<linearGradient id="paint72_linear_4_5594" x1="656.701" y1="383.948" x2="537.193" y2="-93.0835" gradientUnits="userSpaceOnUse">
<stop offset="0.121234" stop-color="#F1EFED"/>
<stop offset="0.488143" stop-color="#DDDDDD" stop-opacity="0.22"/>
<stop offset="0.897958" stop-color="#F1EFED"/>
</linearGradient>
</defs>
</svg>
