<svg width="585" height="707" viewBox="0 0 585 707" fill="none" xmlns="http://www.w3.org/2000/svg">
<g clip-path="url(#clip0_3300_10962)">
<g opacity="0.2">
<path d="M505.336 9.67826L505.728 10.3706L506.127 9.68205L507.762 6.85765L507.763 6.85553C508.646 5.31224 510.617 4.78724 512.169 5.67333C513.713 6.55515 514.238 8.52416 513.353 10.0741C513.352 10.0744 513.352 10.0746 513.352 10.0749L497.595 37.3285L497.2 38.0122H497.989H509.387C511.037 38.0122 512.338 38.9766 513.052 40.3154C513.727 41.5823 513.852 43.1398 513.262 44.4444H480.132C478.344 44.4444 476.913 43.014 476.913 41.2283C476.913 39.4427 478.344 38.0122 480.132 38.0122H489.5H489.763L489.894 37.7844L501.887 17.0149L502.018 16.7873L501.887 16.5596L498.143 10.0648C498.143 10.0646 498.142 10.0644 498.142 10.0641C497.258 8.5171 497.778 6.56569 499.328 5.66224C500.876 4.77937 502.828 5.29948 503.732 6.8464L505.336 9.67826ZM487.631 54.5779L487.63 54.5795C486.748 56.1227 484.776 56.6478 483.224 55.7617C481.68 54.8799 481.155 52.9111 482.041 51.3612C482.041 51.3608 482.041 51.3605 482.041 51.3601L484.574 46.9793C485.923 46.5886 487.121 46.563 488.186 46.8698C489.212 47.1653 490.15 47.7788 491.003 48.7348L487.631 54.5779ZM521.591 37.8047L521.722 38.0324H521.985H531.545C533.333 38.0324 534.764 39.4628 534.764 41.2485C534.764 43.0341 533.333 44.4646 531.545 44.4646H526.235H525.446L525.84 45.1478L529.423 51.3601C529.423 51.3602 529.423 51.3604 529.424 51.3605C530.308 52.9076 529.788 54.8591 528.238 55.7626C526.69 56.6458 524.737 56.1251 523.833 54.577C520.476 48.76 517.585 43.7585 515.162 39.5674C513.228 36.2207 511.592 33.3908 510.256 31.0749L510.255 31.0739C507.49 26.3083 509.174 21.5572 511.048 19.5887C513.075 23.067 515.881 27.9247 519.48 34.1521C520.156 35.3214 520.859 36.539 521.591 37.8047Z" fill="#8F8E93" stroke="#8F8E93" stroke-width="0.911227"/>
<path d="M182.429 -13.3299C182.429 -13.6466 182.454 -13.9239 182.497 -14.1658L206.43 9.74771L182.497 33.676C182.454 33.4385 182.429 33.1633 182.429 32.8457V-13.3299Z" fill="#8F8E93" stroke="#8F8E93" stroke-width="2.73368"/>
<path d="M226.406 7.9284L226.411 7.93099C227.621 8.61238 227.906 9.32324 227.906 9.7474C227.906 10.1739 227.618 10.8906 226.406 11.5823C226.405 11.5826 226.405 11.5828 226.405 11.5831L216.91 16.9783L209.686 9.75521L216.91 2.53216L226.406 7.9284Z" fill="#8F8E93" stroke="#8F8E93" stroke-width="2.73368"/>
<path d="M184.544 35.1918L208.053 11.6867L214.637 18.2689L185.689 34.733C185.688 34.7339 185.686 34.7349 185.684 34.7358C185.25 34.9773 184.871 35.1202 184.544 35.1918Z" stroke="#8F8E93" stroke-width="2.73368"/>
<path d="M185.679 -15.2025L214.636 1.2421L208.053 7.8239L184.531 -15.6696C184.86 -15.5985 185.241 -15.4532 185.676 -15.2042L185.676 -15.2042L185.679 -15.2025Z" fill="#F1EFED" stroke="#8F8E93" stroke-width="2.73368"/>
<path d="M205.869 153.403L162.722 153.403L170.43 104.121L170.43 104.121C170.437 104.078 170.47 104.044 170.514 104.036C170.557 104.029 170.601 104.05 170.621 104.089L170.626 104.098L170.631 104.107L178.91 119.036L180.107 121.195L181.301 119.035L184.528 113.198L184.535 113.186L184.541 113.174C184.558 113.141 184.593 113.12 184.632 113.12C184.67 113.12 184.705 113.141 184.722 113.174C184.722 113.174 184.722 113.174 184.722 113.174L205.869 153.403Z" fill="#F1EFED" stroke="#8F8E93" stroke-width="2.73368"/>
<path d="M181.064 118.77L162.141 154.772" stroke="#8F8E93" stroke-width="2.73368"/>
<path d="M163.367 154.459L200.519 117.272C200.519 117.272 200.519 117.272 200.519 117.272C200.547 117.244 200.586 117.236 200.621 117.247L201.037 115.945L200.621 117.247C200.658 117.259 200.684 117.289 200.691 117.325C200.691 117.325 200.692 117.326 200.692 117.327L206.629 154.04L186.021 165.489L186.019 165.49C185.098 166.004 183.976 166.005 183.054 165.491C183.054 165.491 183.054 165.491 183.054 165.49L163.367 154.459Z" fill="#8F8E93" stroke="#8F8E93" stroke-width="2.73368"/>
<path d="M352.407 164.968C352.643 164.799 352.923 164.704 353.212 164.696H353.256H369.047L351.287 217.277C351.19 217.565 351.005 217.815 350.757 217.992C350.51 218.17 350.214 218.265 349.909 218.265C349.909 218.265 349.909 218.265 349.909 218.265H336.138H336.137C335.907 218.265 335.68 218.211 335.475 218.106C335.27 218.001 335.093 217.848 334.959 217.662C334.825 217.475 334.737 217.259 334.703 217.032C334.669 216.805 334.69 216.573 334.763 216.355C334.763 216.355 334.763 216.355 334.763 216.355L351.878 165.684L351.878 165.684C351.975 165.396 352.16 165.145 352.407 164.968Z" fill="#F1EFED" stroke="#8F8E93" stroke-width="2.73368"/>
<path d="M383.954 218.263H369.988H369.988C369.616 218.263 369.258 218.122 368.986 217.869C368.986 217.869 368.986 217.869 368.986 217.869L351.083 201.172H377.999L383.954 218.263ZM350.908 201.172H350.91C350.909 201.172 350.909 201.172 350.908 201.172Z" fill="#F1EFED" stroke="#8F8E93" stroke-width="2.73368"/>
<path d="M374.565 165.68L374.565 165.681L391.68 216.354L391.68 216.354C391.753 216.571 391.774 216.804 391.74 217.031C391.706 217.258 391.618 217.474 391.484 217.661L392.594 218.458L391.484 217.661C391.35 217.848 391.173 218 390.968 218.105C390.763 218.21 390.536 218.265 390.306 218.265C390.306 218.265 390.306 218.265 390.306 218.265H374.509C374.608 217.998 374.68 217.72 374.722 217.436L373.37 217.233L374.722 217.436C374.821 216.779 374.761 216.108 374.548 215.479L357.433 164.806L357.433 164.806C357.421 164.769 357.408 164.732 357.394 164.695H373.19H373.19C373.494 164.695 373.79 164.79 374.037 164.967C374.283 165.144 374.468 165.393 374.565 165.68Z" fill="#8F8E93" stroke="#8F8E93" stroke-width="2.73368"/>
<path d="M500.173 181.429L500.592 179.72C502.081 173.651 501.079 166.177 497.396 159.144L497.799 158.933L497.396 159.144C497.256 158.878 496.947 158.794 496.694 158.952C496.694 158.952 496.694 158.952 496.694 158.952L485.089 166.206C484.858 166.351 484.788 166.655 484.932 166.886C484.932 166.886 484.932 166.886 484.932 166.886L486.634 169.61L486.634 169.61C486.778 169.841 487.082 169.911 487.313 169.767L494.835 165.065L495.319 164.763L495.506 165.302C495.762 166.034 495.992 166.773 496.187 167.518C496.187 167.518 496.187 167.518 496.187 167.518L495.747 167.634C496.471 170.387 496.74 173.074 496.548 175.619L500.173 181.429ZM500.173 181.429L501.369 180.138C502.72 178.68 503.95 177.071 505.041 175.323C506.75 172.588 508.013 169.696 508.793 166.727M500.173 181.429L508.793 166.727M508.793 166.727C509.529 163.931 509.805 161.194 509.608 158.592M508.793 166.727L485.496 188.03M485.496 188.03L485.485 188.029C483.428 187.971 481.523 187.431 479.877 186.402C476.575 184.339 474.598 180.492 474.233 175.653C474.037 173.052 474.313 170.315 475.048 167.518L475.048 167.518C475.828 164.55 477.091 161.658 478.8 158.922C480.509 156.187 482.554 153.783 484.88 151.78M485.496 188.03L485.508 188.029M485.496 188.03L485.508 188.029M484.88 151.78L485.177 152.126M484.88 151.78L485.177 152.126M484.88 151.78C487.07 149.894 489.408 148.446 491.832 147.482C496.34 145.689 500.663 145.78 503.965 147.844C507.266 149.907 509.243 153.754 509.608 158.592M485.177 152.126C482.888 154.097 480.873 156.465 479.187 159.164M485.177 152.126L479.187 159.164M509.608 158.592L509.154 158.627L509.608 158.592C509.608 158.592 509.608 158.592 509.608 158.592ZM479.187 159.164C477.501 161.863 476.257 164.712 475.489 167.634C474.765 170.387 474.495 173.074 474.687 175.619L479.187 159.164ZM485.508 188.029C485.526 188.029 485.54 188.029 485.56 188.029C485.572 188.029 485.587 188.03 485.606 188.03L485.508 188.029ZM479.403 147.482C474.896 145.689 470.572 145.78 467.271 147.844C463.97 149.907 461.992 153.754 461.627 158.592L461.627 158.592C461.431 161.194 461.707 163.931 462.442 166.727L462.442 166.727C463.222 169.696 464.486 172.588 466.195 175.323C467.286 177.071 468.516 178.681 469.867 180.139L471.063 181.431L470.644 179.721C468.98 172.94 470.425 164.406 475.241 156.697L474.855 156.456L475.241 156.697C477.058 153.789 479.193 151.258 481.515 149.154L481.999 148.714L481.419 148.412C480.757 148.067 480.085 147.753 479.403 147.482ZM479.403 147.482L479.235 147.905M479.403 147.482L479.235 147.905M479.235 147.905C479.752 148.111 480.265 148.342 480.775 148.595L467.513 148.23C470.657 146.264 474.82 146.149 479.235 147.905ZM491.359 186.402C494.66 184.339 496.637 180.492 497.002 175.653L485.674 188.03L485.678 188.03C485.7 188.029 485.716 188.029 485.73 188.03L485.741 188.03L485.752 188.029C487.808 187.971 489.713 187.431 491.359 186.402ZM485.373 145.844L485.616 145.997L485.859 145.844C492.759 141.498 500.418 140.676 506.188 144.283C510.749 147.133 513.339 152.249 513.794 158.276C514.248 164.304 512.561 171.209 508.6 177.549C502.753 186.909 493.648 192.33 485.624 192.23L485.624 192.23L485.612 192.23C477.587 192.33 468.483 186.909 462.635 177.549C458.674 171.209 456.987 164.304 457.442 158.277C457.897 152.249 460.487 147.134 465.047 144.283L464.805 143.897L465.047 144.283C470.817 140.677 478.474 141.5 485.373 145.844Z" fill="#8F8E93" stroke="#8F8E93" stroke-width="0.911227"/>
<path d="M431.321 292.302L431.321 292.302L431.325 292.304C443.252 299.219 457.958 303.405 473.17 303.405C483.438 303.405 494.713 301.269 505.091 296.885L505.091 296.885L505.102 296.88C505.688 296.614 506.157 296.823 506.353 297.106C506.452 297.248 506.491 297.417 506.454 297.593C506.416 297.769 506.292 297.995 505.985 298.223C496.877 304.945 483.609 308.53 472.191 308.53C456.197 308.53 441.79 302.621 430.908 292.802C430.755 292.663 430.703 292.54 430.69 292.458C430.677 292.377 430.698 292.317 430.729 292.276C430.772 292.219 430.952 292.082 431.321 292.302Z" fill="#8F8E93" stroke="#8F8E93" stroke-width="0.911227"/>
<path d="M510.447 293.947C510.233 293.673 509.922 293.482 509.584 293.343C509.242 293.203 508.839 293.104 508.404 293.034C507.533 292.895 506.472 292.863 505.376 292.889C503.18 292.942 500.76 293.232 499.266 293.413L499.266 293.413L499.265 293.413C499.125 293.431 499.05 293.413 499.019 293.401C499.022 293.381 499.031 293.345 499.061 293.291C499.11 293.206 499.203 293.094 499.362 292.979C501.887 291.209 505.257 290.561 508.152 290.52C509.595 290.5 510.9 290.63 511.897 290.837C512.397 290.941 512.809 291.062 513.119 291.188C513.442 291.319 513.598 291.434 513.65 291.497C513.697 291.557 513.773 291.728 513.821 292.069C513.867 292.395 513.881 292.82 513.854 293.327C513.8 294.339 513.586 295.632 513.189 297.02C512.391 299.807 510.874 302.904 508.509 304.891L508.509 304.891L508.507 304.893C508.359 305.019 508.231 305.081 508.138 305.106C508.083 305.121 508.048 305.121 508.029 305.119C508.025 305.087 508.026 305.01 508.078 304.879C508.637 303.497 509.547 301.228 510.169 299.115C510.48 298.06 510.725 297.025 510.815 296.148C510.86 295.71 510.868 295.296 510.819 294.931C510.771 294.57 510.664 294.221 510.447 293.947Z" fill="#8F8E93" stroke="#8F8E93" stroke-width="0.911227"/>
<path d="M223.251 308.984L231.908 301.295L223.251 293.606V308.984ZM254.416 277.843C252.877 276.305 249.991 274.383 245.182 274.383C239.988 274.383 234.601 275.729 230.754 277.074V255.16H223.059V288.416L228.445 285.917C228.445 285.917 237.294 281.88 244.99 281.88C248.837 281.88 249.799 283.994 249.799 285.917V308.984H257.494V285.917C257.686 285.34 257.686 281.111 254.416 277.843ZM244.22 267.655H251.915C255.378 263.618 257.109 259.581 257.686 255.16H249.991C249.222 259.581 247.298 263.618 244.22 267.655Z" fill="#8F8E93" stroke="#8F8E93" stroke-width="1.82245"/>
<path d="M321.598 70.104C322.652 67.2654 324.29 64.6707 326.414 62.4913C328.997 59.8416 332.213 57.8934 335.759 56.8308C339.304 55.7683 343.063 55.6264 346.679 56.4188C350.064 57.1607 353.22 58.6985 355.886 60.9004L355.772 61.8879L351.36 66.296H350.626C347.87 64.222 344.448 63.2169 340.998 63.4791C337.501 63.7448 334.231 65.2924 331.811 67.8176C331.659 67.898 331.539 67.9896 331.458 68.0582C331.266 68.2203 331.108 68.4079 331.004 68.5401C331 68.5455 330.996 68.5508 330.992 68.5561L321.598 70.104Z" stroke="#8F8E93" stroke-width="2.73368"/>
<path d="M363.086 71.974L363.219 72.4638L363.64 72.7481C366.372 74.5946 368.437 77.2707 369.528 80.3803C370.62 83.4899 370.682 86.8681 369.703 90.0152C368.725 93.1622 366.758 95.9112 364.095 97.8553C361.431 99.7994 358.212 100.835 354.914 100.81V100.81H354.903H342.606L342.125 100.328V93.7478L342.612 93.2541H354.903C355.927 93.2541 356.941 93.0526 357.887 92.661C358.833 92.2694 359.692 91.6955 360.417 90.9719C361.141 90.2483 361.715 89.3892 362.107 88.4436C362.499 87.498 362.701 86.4845 362.701 85.461C362.701 84.4374 362.499 83.4239 362.107 82.4783C361.715 81.5327 361.141 80.6736 360.417 79.95C359.692 79.2264 358.833 78.6525 357.887 78.2609C357.365 78.045 356.823 77.8869 356.27 77.7885V77.7657C356.308 75.6201 355.86 73.4937 354.958 71.5462C354.266 70.0516 353.32 68.6923 352.167 67.5266L357.443 62.2546C360.136 64.9411 362.085 68.2904 363.086 71.974Z" fill="#8F8E93" stroke="#8F8E93" stroke-width="2.73368"/>
<path d="M329.161 100.738L329.155 100.738C326.11 100.752 323.137 99.8549 320.615 98.174L320.748 97.6442L325.424 93.0043L326.439 92.6897C327.308 93.015 328.23 93.1826 329.161 93.1828H329.161H340.657V100.738L329.161 100.738Z" stroke="#8F8E93" stroke-width="2.73368"/>
<path d="M320.259 73.0037C322.852 71.1304 325.966 70.1129 329.166 70.0935C331.532 70.0853 333.869 70.6241 335.992 71.6676C337.758 72.5356 339.337 73.7333 340.645 75.1921L335.287 80.5465C334.904 80.0622 334.463 79.6233 333.972 79.2403C332.978 78.4639 331.811 77.9402 330.57 77.7139C329.329 77.4876 328.052 77.5655 326.848 77.9409C325.644 78.3163 324.548 78.978 323.656 79.8694C322.764 80.7608 322.102 81.8553 321.726 83.0589C321.35 84.2626 321.272 85.5394 321.499 86.7798C321.725 88.0202 322.25 89.1871 323.027 90.1803C323.41 90.6698 323.848 91.1099 324.332 91.4926L318.976 96.8444C316.907 94.9809 315.377 92.5843 314.562 89.9068C313.631 86.8475 313.68 83.5742 314.701 80.5439C315.723 77.5135 317.666 74.8774 320.259 73.0037Z" fill="#8F8E93" stroke="#8F8E93" stroke-width="2.73368"/>
</g>
<path d="M-53.953 99.7963H81.8198L136.493 25.0757H153.807M230.35 37.8329V95.2402H284.112M470.003 11.4073H456.334V61.5248H438.11V-46H417.354V61.5248H396.598V-46H375.842V37.8329H355.087V-46H334.331V19.6084H313.575V-46H292.82V37.8329L272.064 19.6084V-46H251.308V-9.55091L230.35 -27.7755H209.392M-74 134.423V159.937H126.47V186.363H163.83M251.308 156.292V186.363H163.83M163.83 186.363V278.397H142.872H179.321M306.893 208.232H284.112M179.321 278.397H197.546V227.368M179.321 278.397V319.402H202.102M284.112 208.232H197.546V227.368M284.112 208.232V141.713H396.598M396.598 141.713H428.997V178.162V258.35H481.849V227.368M396.598 141.713V80.6606H507.363M396.598 291.154H355.087M355.087 291.154H313.575V243.77L292.82 227.368H197.546M355.087 291.154L355.087 243.77M624 -46H493.695V-20.4856H547.457V11.4073H571.149V80.6606H507.363M507.363 80.6606V99.7963L465.446 107.997" stroke="url(#paint0_linear_3300_10962)" stroke-width="1.82245"/>
<g opacity="0.2">
<path d="M289.485 384.951L289.936 385.747L290.394 384.955L292.276 381.706L292.277 381.703C293.293 379.928 295.561 379.324 297.346 380.343C299.122 381.358 299.727 383.623 298.708 385.406C298.707 385.406 298.707 385.407 298.707 385.407L280.58 416.76L280.125 417.547H281.033H294.145C296.044 417.547 297.54 418.656 298.361 420.197C299.138 421.654 299.281 423.446 298.604 424.947H260.489C258.432 424.947 256.786 423.301 256.786 421.247C256.786 419.193 258.432 417.547 260.489 417.547H271.266H271.569L271.72 417.285L285.517 393.391L285.668 393.129L285.517 392.867L281.21 385.395C281.209 385.395 281.209 385.395 281.209 385.395C280.192 383.615 280.79 381.37 282.573 380.331C284.354 379.315 286.6 379.913 287.64 381.693C287.64 381.694 287.641 381.695 287.642 381.696L289.485 384.951ZM269.117 436.605L269.116 436.606C268.1 438.382 265.832 438.986 264.047 437.966C262.27 436.952 261.666 434.687 262.686 432.904C262.686 432.903 262.686 432.903 262.686 432.903L265.6 427.863C267.152 427.413 268.529 427.384 269.755 427.737C270.935 428.077 272.015 428.783 272.996 429.882L269.117 436.605ZM308.185 417.308L308.336 417.57H308.639H319.637C321.693 417.57 323.34 419.216 323.34 421.27C323.34 423.324 321.693 424.97 319.637 424.97H313.528H312.62L313.074 425.756L317.196 432.903C317.196 432.903 317.196 432.903 317.196 432.903C318.213 434.683 317.615 436.928 315.833 437.968C314.051 438.984 311.804 438.384 310.764 436.604C306.902 429.91 303.575 424.156 300.788 419.333C298.563 415.484 296.681 412.23 295.145 409.566L295.144 409.565C291.963 404.082 293.901 398.616 296.056 396.352C298.387 400.352 301.615 405.938 305.753 413.099C306.531 414.447 307.342 415.85 308.185 417.308Z" fill="#8F8E93" stroke="#8F8E93" stroke-width="1.0483"/>
<path d="M113.552 563.597C113.823 563.403 114.145 563.294 114.478 563.284H114.529H132.695L112.263 623.775C112.263 623.775 112.263 623.775 112.263 623.775C112.151 624.106 111.938 624.394 111.654 624.598L112.571 625.876L111.654 624.598C111.37 624.802 111.028 624.912 110.678 624.912C110.678 624.912 110.678 624.912 110.678 624.912H94.8348H94.8347C94.5696 624.912 94.3084 624.849 94.0726 624.729L93.4111 626.019L94.0726 624.729C93.8369 624.608 93.6334 624.433 93.4791 624.218C93.3247 624.003 93.2238 623.755 93.1846 623.493C93.1454 623.232 93.169 622.965 93.2536 622.715C93.2536 622.715 93.2536 622.715 93.2536 622.714L112.943 564.421L112.943 564.421C113.054 564.09 113.267 563.802 113.552 563.597Z" fill="#F1EFED" stroke="#8F8E93" stroke-width="3.14491"/>
<path d="M149.847 624.911H133.78H133.78C133.352 624.911 132.94 624.749 132.627 624.457L112.031 605.248H142.996L149.847 624.911ZM111.83 605.248H111.832C111.831 605.248 111.831 605.248 111.83 605.248V605.248Z" fill="#F1EFED" stroke="#8F8E93" stroke-width="3.14491"/>
<path d="M139.043 564.417L139.043 564.417L158.733 622.713L158.733 622.713C158.817 622.964 158.841 623.231 158.802 623.492C158.763 623.754 158.662 624.002 158.508 624.217C158.353 624.432 158.15 624.607 157.914 624.728C157.678 624.849 157.417 624.912 157.152 624.912C157.152 624.912 157.152 624.912 157.152 624.912H138.979C139.093 624.605 139.175 624.285 139.224 623.958C139.337 623.202 139.269 622.431 139.024 621.707C139.024 621.707 139.024 621.707 139.024 621.707L119.334 563.411L119.334 563.411C119.32 563.368 119.305 563.326 119.289 563.283H137.462H137.462C137.811 563.283 138.152 563.393 138.435 563.596C138.719 563.8 138.931 564.087 139.043 564.417Z" fill="#8F8E93" stroke="#8F8E93" stroke-width="3.14491"/>
<path d="M283.548 582.537L284.03 580.57C285.743 573.588 284.59 564.99 280.352 556.899L280.817 556.656L280.352 556.899C280.192 556.592 279.837 556.496 279.546 556.678C279.546 556.678 279.546 556.678 279.546 556.678L266.195 565.023C265.929 565.189 265.848 565.54 266.014 565.806L267.972 568.939L267.972 568.939C268.138 569.205 268.488 569.286 268.754 569.12L277.406 563.711L277.963 563.363L278.179 563.983C278.473 564.825 278.737 565.675 278.963 566.533C278.963 566.533 278.963 566.533 278.963 566.533L278.456 566.666C279.288 569.833 279.598 572.924 279.377 575.852L283.548 582.537ZM283.548 582.537L284.924 581.051C286.478 579.374 287.892 577.522 289.148 575.512C291.114 572.365 292.567 569.038 293.465 565.623M283.548 582.537L292.958 565.49M294.402 556.264C293.982 550.698 291.707 546.272 287.909 543.899C284.111 541.525 279.138 541.419 273.952 543.482C271.164 544.591 268.473 546.257 265.954 548.427C263.278 550.731 260.926 553.496 258.96 556.644C256.994 559.791 255.541 563.118 254.643 566.533L254.643 566.533C253.797 569.75 253.48 572.899 253.706 575.892C254.125 581.458 256.4 585.883 260.198 588.257C262.092 589.441 264.284 590.062 266.65 590.129L266.663 590.13L266.676 590.129C266.711 590.129 266.733 590.13 266.789 590.13C266.804 590.13 266.818 590.13 266.832 590.13C266.847 590.13 266.86 590.13 266.872 590.129C266.88 590.129 266.888 590.129 266.895 590.129C266.909 590.129 266.921 590.129 266.932 590.13L266.945 590.13L266.957 590.129C269.322 590.062 271.514 589.441 273.407 588.257C277.205 585.883 279.48 581.458 279.9 575.892L293.879 556.303M294.402 556.264L293.879 556.303M294.402 556.264C294.402 556.264 294.402 556.264 294.402 556.264L293.879 556.303M294.402 556.264C294.628 559.257 294.311 562.406 293.465 565.623M293.879 556.303C294.101 559.232 293.79 562.323 292.958 565.49M293.465 565.623C293.465 565.623 293.465 565.623 293.465 565.623L292.958 565.49M293.465 565.623L292.958 565.49M284.539 580.695L284.155 580.339C284.363 580.114 284.568 579.887 284.771 579.656C284.701 580.006 284.623 580.352 284.539 580.695ZM284.539 580.695L285.048 580.82C285.123 580.515 285.193 580.207 285.257 579.896C285.021 580.167 284.782 580.433 284.539 580.695ZM277.684 564.155L277.962 564.6L277.858 564.665C277.801 564.495 277.743 564.325 277.684 564.155ZM277.684 564.155L277.189 564.328C277.202 564.365 277.215 564.403 277.228 564.44L277.684 564.155ZM240.141 565.623L240.141 565.623C241.038 569.038 242.492 572.365 244.458 575.512C245.714 577.522 247.129 579.375 248.683 581.052L250.059 582.538L249.576 580.571C247.662 572.77 249.325 562.953 254.865 554.084L254.42 553.806L254.865 554.084C256.955 550.738 259.412 547.826 262.082 545.406L262.64 544.9L261.973 544.552C261.21 544.155 260.438 543.794 259.654 543.482C254.468 541.419 249.494 541.525 245.696 543.899C241.898 546.272 239.623 550.698 239.203 556.264L239.203 556.264C238.978 559.257 239.295 562.406 240.141 565.623ZM266.521 541.599L266.801 541.774L267.08 541.599C275.018 536.599 283.829 535.652 290.468 539.802C295.715 543.081 298.694 548.967 299.217 555.901C299.74 562.834 297.799 570.778 293.243 578.072C286.516 588.84 276.041 595.077 266.81 594.961V594.961L266.797 594.961C257.565 595.077 247.09 588.84 240.363 578.072C235.806 570.778 233.865 562.834 234.389 555.901C234.912 548.967 237.891 543.082 243.138 539.802L243.138 539.802C249.776 535.653 258.584 536.6 266.521 541.599Z" fill="#8F8E93" stroke="#8F8E93" stroke-width="1.0483"/>
<path d="M247.862 680.659C247.686 680.5 247.626 680.357 247.611 680.264C247.596 680.171 247.619 680.101 247.655 680.054C247.705 679.988 247.912 679.831 248.337 680.084L248.337 680.084L248.342 680.087C262.063 688.042 278.981 692.857 296.481 692.857C308.293 692.857 321.265 690.4 333.203 685.357L333.204 685.357L333.216 685.351C333.89 685.045 334.431 685.286 334.656 685.611C334.77 685.775 334.815 685.969 334.772 686.171C334.729 686.374 334.585 686.634 334.232 686.896C323.754 694.629 308.49 698.753 295.355 698.753C276.954 698.753 260.38 691.955 247.862 680.659ZM247.862 680.659L247.511 681.048L247.862 680.659Z" fill="#8F8E93" stroke="#8F8E93" stroke-width="1.0483"/>
<path d="M336.643 694.553C337.286 692.963 338.332 690.353 339.048 687.923C339.406 686.709 339.687 685.518 339.791 684.509C339.843 684.005 339.852 683.529 339.796 683.109C339.741 682.694 339.617 682.292 339.368 681.977C339.122 681.662 338.764 681.441 338.375 681.282C337.982 681.121 337.518 681.007 337.017 680.927C336.015 680.766 334.795 680.73 333.534 680.76C331.007 680.821 328.224 681.154 326.505 681.363L326.505 681.363L326.503 681.363C326.342 681.383 326.256 681.362 326.221 681.349C326.224 681.326 326.235 681.284 326.269 681.223C326.325 681.124 326.432 680.996 326.615 680.863C329.519 678.827 333.396 678.082 336.727 678.035C338.387 678.011 339.889 678.161 341.036 678.399C341.61 678.519 342.085 678.658 342.441 678.803C342.813 678.954 342.992 679.086 343.053 679.159M336.643 694.553C336.643 694.553 336.643 694.553 336.642 694.554L336.156 694.357L336.643 694.552C336.643 694.552 336.643 694.553 336.643 694.553ZM336.643 694.553C336.583 694.704 336.581 694.792 336.585 694.83M336.585 694.83C336.572 694.828 336.565 694.826 336.565 694.826C336.565 694.826 336.565 694.826 336.565 694.826C336.576 694.831 336.583 694.84 336.586 694.844C336.588 694.847 336.589 694.848 336.588 694.844C336.587 694.84 336.586 694.836 336.585 694.83ZM336.585 694.83C336.607 694.832 336.648 694.832 336.712 694.814C336.818 694.786 336.966 694.714 337.136 694.569L337.138 694.567C339.859 692.281 341.604 688.718 342.522 685.512C342.979 683.915 343.225 682.428 343.287 681.264C343.318 680.681 343.302 680.191 343.249 679.816C343.193 679.424 343.107 679.228 343.053 679.159M343.053 679.159C343.053 679.159 343.054 679.16 343.055 679.161L343.46 678.829L343.051 679.156C343.052 679.157 343.052 679.158 343.053 679.159Z" fill="#8F8E93" stroke="#8F8E93" stroke-width="1.0483"/>
<path d="M-35.0287 729.276L-25.0695 720.43L-35.0287 711.585V729.276ZM0.824429 693.451C-0.946095 691.681 -4.26582 689.47 -9.79871 689.47C-15.7742 689.47 -21.9711 691.018 -26.3974 692.566V667.355H-35.25V705.614L-29.0532 702.739C-29.0532 702.739 -18.8726 698.095 -10.02 698.095C-5.59371 698.095 -4.48713 700.527 -4.48713 702.739V729.276H4.36549V702.739C4.58681 702.075 4.58679 697.21 0.824429 693.451ZM-10.9053 681.73H-2.05267C1.93102 677.086 3.92286 672.442 4.5868 667.355H-4.26582C-5.15108 672.442 -7.36424 677.086 -10.9053 681.73Z" fill="#8F8E93" stroke="#8F8E93" stroke-width="2.09661"/>
<path d="M78.1058 454.46C79.3181 451.194 81.2024 448.209 83.6461 445.702C86.6171 442.654 90.3169 440.412 94.396 439.19C98.4752 437.968 102.799 437.804 106.959 438.716C110.853 439.569 114.484 441.339 117.551 443.872L117.42 445.008L112.345 450.079H111.499C108.33 447.693 104.393 446.537 100.424 446.838C96.4011 447.144 92.6386 448.925 89.855 451.829C89.6795 451.922 89.5422 452.027 89.4487 452.106C89.2277 452.293 89.0461 452.509 88.9267 452.661C88.9218 452.667 88.917 452.673 88.9123 452.679L78.1058 454.46Z" stroke="#8F8E93" stroke-width="3.14491"/>
<path d="M125.84 456.613L125.993 457.177L126.476 457.503C129.62 459.628 131.995 462.706 133.251 466.284C134.507 469.861 134.577 473.748 133.452 477.368C132.326 480.989 130.064 484.151 127 486.388C123.936 488.624 120.232 489.816 116.437 489.786V489.786H116.425H102.279L101.725 489.233V481.662L102.285 481.094H116.425C117.603 481.094 118.77 480.862 119.858 480.412C120.946 479.961 121.935 479.301 122.768 478.469C123.601 477.636 124.262 476.648 124.713 475.56C125.164 474.472 125.396 473.306 125.396 472.129C125.396 470.951 125.164 469.785 124.713 468.697C124.262 467.61 123.601 466.621 122.768 465.789C121.935 464.956 120.946 464.296 119.858 463.846C119.258 463.597 118.634 463.415 117.998 463.302V463.276C118.042 460.808 117.526 458.361 116.488 456.121C115.692 454.401 114.605 452.838 113.278 451.497L119.348 445.432C122.446 448.522 124.688 452.375 125.84 456.613Z" fill="#8F8E93" stroke="#8F8E93" stroke-width="3.14491"/>
<path d="M86.8129 489.703L86.8061 489.703C83.3026 489.718 79.8829 488.686 76.9813 486.752L77.1338 486.143L82.5133 480.805L83.6817 480.443C84.6813 480.817 85.7417 481.01 86.8125 481.01H86.8129H100.038V489.703L86.8129 489.703Z" stroke="#8F8E93" stroke-width="3.14491"/>
<path d="M76.57 457.796C79.5533 455.64 83.1357 454.47 86.8171 454.448C89.5393 454.438 92.2267 455.058 94.6694 456.259C96.7011 457.257 98.5175 458.635 100.023 460.313L93.8584 466.473C93.4174 465.916 92.9102 465.411 92.3461 464.97C91.2027 464.077 89.8596 463.475 88.432 463.214C87.0045 462.954 85.5351 463.044 84.1498 463.475C82.7645 463.907 81.5047 464.669 80.4784 465.694C79.4521 466.72 78.69 467.979 78.2577 469.363C77.8253 470.748 77.7356 472.217 77.9962 473.644C78.2569 475.071 78.8601 476.413 79.754 477.556C80.1945 478.119 80.6992 478.625 81.2561 479.066L75.0944 485.223C72.7133 483.079 70.9537 480.322 70.0164 477.241C68.9454 473.722 69.0013 469.956 70.1761 466.47C71.351 462.984 73.5863 459.951 76.57 457.796Z" fill="#8F8E93" stroke="#8F8E93" stroke-width="3.14491"/>
</g>
<g opacity="0.5">
<path d="M-52.582 85.6783H38.8995V91.1948H-52.582V85.6783Z" fill="url(#paint1_linear_3300_10962)"/>
<path d="M338.014 74.6916V127.591H343.53V74.6916H338.014Z" fill="url(#paint2_linear_3300_10962)"/>
<path d="M261.26 72.636H301.734V69.974H261.26V72.636Z" fill="url(#paint3_linear_3300_10962)"/>
<path d="M-52.582 112.208H69.3933V115.427H-52.582V112.208Z" fill="url(#paint4_linear_3300_10962)"/>
<path d="M332.25 140.567V134.164H364.543V140.567H332.25Z" fill="url(#paint5_linear_3300_10962)"/>
<path d="M364.543 74.6916H367.763V140.567H364.543V134.164V74.6916Z" fill="url(#paint6_linear_3300_10962)"/>
<path d="M42.1927 103.644V79.9674L76.0654 32.0061L77.7038 33.1241L43.8311 79.9674V85.6783V103.644H42.1927Z" fill="url(#paint7_linear_3300_10962)"/>
<path d="M76.0654 32.0061L77.7038 33.1241L86.4698 33.1241V32.006L76.0654 32.0061Z" fill="url(#paint8_linear_3300_10962)"/>
<path d="M43.8311 85.6783V103.644H65.4291L79.7612 85.6783H43.8311Z" fill="url(#paint9_linear_3300_10962)"/>
<path d="M141.342 55.9288L141.342 73.8942L162.94 73.8942L177.272 55.9287L141.342 55.9288Z" fill="url(#paint10_linear_3300_10962)"/>
<path d="M139.703 73.8942H141.342L141.342 55.9288L141.342 38.6301H139.703V73.8942Z" fill="url(#paint11_linear_3300_10962)"/>
<path d="M-52.582 94.2809H38.8995V104.585H-52.582V94.2809Z" fill="url(#paint12_linear_3300_10962)"/>
<path d="M115.199 148.008H157.595V149.41H115.199V148.008Z" fill="url(#paint13_linear_3300_10962)"/>
<path d="M115.199 144.423H157.595V146.421H115.199V144.423Z" fill="url(#paint14_linear_3300_10962)"/>
<path d="M115.199 139.5H154.166H157.595V142.836H115.199V139.5Z" fill="url(#paint15_linear_3300_10962)"/>
<path d="M154.166 139.5H157.595V117.849H154.166V139.5Z" fill="url(#paint16_linear_3300_10962)"/>
<path d="M346.616 74.6916V127.591H356.92V74.6916H346.616Z" fill="url(#paint17_linear_3300_10962)"/>
<path d="M44.8457 80.037H84.0303L80.3711 84.6111H44.8457V80.037Z" fill="url(#paint18_linear_3300_10962)"/>
<path d="M101.26 140.507V174.202L96.6856 168.104V140.507H101.26Z" fill="url(#paint19_linear_3300_10962)"/>
<path fill-rule="evenodd" clip-rule="evenodd" d="M75.631 38.7184L77.9315 35.3635H87.5371L85.3085 38.7184H75.631ZM75.1084 39.4806H84.8022L81.9662 43.7498H72.181L75.1084 39.4806ZM68.7309 48.7811L71.6583 44.512H81.4599L78.624 48.7811H68.7309ZM65.2809 53.8124L68.2083 49.5433H78.1177L75.2818 53.8124H65.2809ZM61.8308 58.8438L64.7582 54.5746H74.7754L71.9395 58.8438H61.8308ZM58.3808 63.8751L61.3082 59.606H71.4332L68.5973 63.8751H58.3808ZM54.9307 68.9064L57.8581 64.6373H68.091L65.255 68.9064H54.9307ZM51.4806 73.9378L54.4081 69.6686H64.7487L61.9128 73.9378H51.4806ZM50.958 74.7H61.4065L59.1778 78.0549H48.6575L50.958 74.7Z" fill="url(#paint20_linear_3300_10962)"/>
<path fill-rule="evenodd" clip-rule="evenodd" d="M73.5251 58.8438L76.4525 54.5746H86.4697L83.6338 58.8438H73.5251ZM70.075 63.8751L73.0024 59.606H83.1275L80.2915 63.8751H70.075ZM66.625 68.9064L69.5524 64.6373H79.7852L76.9493 68.9064H66.625ZM63.1749 73.9378L66.1023 69.6686H76.443L73.6071 73.9378H63.1749ZM62.6523 74.7H73.1007L70.8721 78.0549H60.3517L62.6523 74.7Z" fill="url(#paint21_linear_3300_10962)"/>
<path d="M71.9722 113.013L98.3806 135.018H71.9722V113.013Z" fill="url(#paint22_linear_3300_10962)"/>
<path d="M252.325 79.1222L270.195 102.957H252.325V79.1222Z" fill="url(#paint23_linear_3300_10962)"/>
<path d="M96.6856 173.485L112.39 195.49H96.6856V173.485Z" fill="url(#paint24_linear_3300_10962)"/>
<path d="M148.158 113.013L134.954 135.018H148.158V113.013Z" fill="url(#paint25_linear_3300_10962)"/>
<path fill-rule="evenodd" clip-rule="evenodd" d="M184.127 162.962L198.382 174.428V181.429H217.288V189.662H198.382V195.456H217.288V203.384H197.772V202.165H216.068V196.676H197.162V188.442H216.068V182.649H197.162V175.012L183.363 163.913L184.127 162.962Z" fill="url(#paint26_linear_3300_10962)"/>
<path d="M349.632 23.7759H363.659V26.0629H349.632V23.7759Z" fill="url(#paint27_linear_3300_10962)"/>
<path d="M349.632 27.8925H363.659V30.1796H349.632V27.8925Z" fill="url(#paint28_linear_3300_10962)"/>
<path d="M349.632 32.0092H363.659V34.2962H349.632V32.0092Z" fill="url(#paint29_linear_3300_10962)"/>
<path d="M349.632 36.1259H363.659V38.4129H349.632V36.1259Z" fill="url(#paint30_linear_3300_10962)"/>
<path d="M349.632 40.2425H363.659V42.5296H349.632V40.2425Z" fill="url(#paint31_linear_3300_10962)"/>
<path d="M349.632 44.3592H363.659V46.6462H349.632V44.3592Z" fill="url(#paint32_linear_3300_10962)"/>
<path d="M349.632 48.4759H363.659V50.7629H349.632V48.4759Z" fill="url(#paint33_linear_3300_10962)"/>
<path d="M349.632 52.5925H363.659V54.8796H349.632V52.5925Z" fill="url(#paint34_linear_3300_10962)"/>
<path d="M349.632 56.7092H363.659V58.9962H349.632V56.7092Z" fill="url(#paint35_linear_3300_10962)"/>
<path d="M349.632 60.8259H363.659V63.1129H349.632V60.8259Z" fill="url(#paint36_linear_3300_10962)"/>
<path d="M94.4873 30.5024C94.4873 31.8497 93.3951 32.9419 92.0478 32.9419C90.7005 32.9419 89.6082 31.8497 89.6082 30.5024C89.6082 29.1551 90.7005 28.0629 92.0478 28.0629C93.3951 28.0629 94.4873 29.1551 94.4873 30.5024Z" fill="url(#paint37_linear_3300_10962)"/>
<path d="M181.896 77.1311C181.896 78.4784 180.804 79.5706 179.457 79.5706C178.109 79.5706 177.017 78.4784 177.017 77.1311C177.017 75.7838 178.109 74.6916 179.457 74.6916C180.804 74.6916 181.896 75.7838 181.896 77.1311Z" fill="url(#paint38_linear_3300_10962)"/>
<path d="M154.257 110.228C154.257 111.575 153.165 112.667 151.818 112.667C150.47 112.667 149.378 111.575 149.378 110.228C149.378 108.88 150.47 107.788 151.818 107.788C153.165 107.788 154.257 108.88 154.257 110.228Z" fill="url(#paint39_linear_3300_10962)"/>
<path d="M125.268 226.56C125.268 227.907 124.176 228.999 122.829 228.999C121.482 228.999 120.389 227.907 120.389 226.56C120.389 225.213 121.482 224.12 122.829 224.12C124.176 224.12 125.268 225.213 125.268 226.56Z" fill="url(#paint40_linear_3300_10962)"/>
<path d="M224.088 171.046C224.088 172.393 222.995 173.485 221.648 173.485C220.301 173.485 219.208 172.393 219.208 171.046C219.208 169.698 220.301 168.606 221.648 168.606C222.995 168.606 224.088 169.698 224.088 171.046Z" fill="url(#paint41_linear_3300_10962)"/>
<path d="M308.547 160.693C308.547 162.04 307.455 163.133 306.108 163.133C304.761 163.133 303.668 162.04 303.668 160.693C303.668 159.346 304.761 158.254 306.108 158.254C307.455 158.254 308.547 159.346 308.547 160.693Z" fill="url(#paint42_linear_3300_10962)"/>
<path d="M304.856 20.1089C304.856 21.4562 303.763 22.5484 302.416 22.5484C301.069 22.5484 299.977 21.4562 299.977 20.1089C299.977 18.7616 301.069 17.6694 302.416 17.6694C303.763 17.6694 304.856 18.7616 304.856 20.1089Z" fill="url(#paint43_linear_3300_10962)"/>
<path d="M119.455 -5.20101C119.455 -3.8537 118.363 -2.7615 117.015 -2.7615C115.668 -2.7615 114.576 -3.8537 114.576 -5.20101C114.576 -6.54831 115.668 -7.64051 117.015 -7.64051C118.363 -7.64051 119.455 -6.54831 119.455 -5.20101Z" fill="url(#paint44_linear_3300_10962)"/>
<path d="M177.646 111.598H193.198L187.099 120.746V148.496H177.646V111.598Z" fill="url(#paint45_linear_3300_10962)"/>
<path fill-rule="evenodd" clip-rule="evenodd" d="M237.756 94.5647C237.808 94.559 237.859 94.5578 237.911 94.5609L238.068 94.5704C238.119 94.5734 238.169 94.5806 238.218 94.5919L238.375 94.628C238.421 94.6384 238.465 94.6522 238.508 94.6693L238.666 94.7318C238.703 94.7467 238.74 94.7642 238.775 94.784L238.933 94.8723C238.963 94.8891 238.992 94.9075 239.02 94.9276L239.177 95.0408C239.2 95.0575 239.223 95.0752 239.244 95.0939L239.402 95.2311C239.419 95.2464 239.436 95.2624 239.453 95.2791L239.61 95.439C239.623 95.4526 239.636 95.4666 239.649 95.4809L239.806 95.6622C239.816 95.6739 239.826 95.6859 239.836 95.698L239.993 95.8991C240.001 95.9089 240.008 95.9189 240.016 95.9291L240.173 96.1481C240.179 96.1563 240.185 96.1646 240.19 96.1729L240.348 96.408C240.352 96.4146 240.357 96.4214 240.361 96.4281L240.518 96.6771C240.52 96.6799 240.522 96.6828 240.524 96.6856C240.525 96.6881 240.527 96.6906 240.528 96.6931L240.686 96.9537L240.693 96.966L240.85 97.236L240.855 97.2448L241.016 97.5274L241.175 97.8115L241.332 98.0945L241.332 98.0951L241.487 98.3741L241.489 98.3777L241.641 98.6476L241.645 98.6543L241.795 98.9172L241.946 99.1722L242.094 99.4131L242.238 99.6374L242.379 99.8422L242.527 100.042C242.828 100.447 242.742 101.02 242.336 101.321C241.93 101.622 241.358 101.537 241.057 101.131L240.899 100.918C240.893 100.909 240.886 100.901 240.88 100.892L240.723 100.662C240.718 100.655 240.713 100.648 240.708 100.64L240.551 100.397C240.549 100.393 240.546 100.39 240.544 100.386C240.543 100.384 240.541 100.381 240.54 100.379L240.382 100.122L240.374 100.109L240.217 99.8421L240.211 99.832L240.05 99.5506L239.892 99.2704L239.89 99.2668L239.733 98.9836L239.732 98.983L239.576 98.7018L239.575 98.6994L239.422 98.4258L239.419 98.4202L239.267 98.1531L239.116 97.8936L238.967 97.6471L238.821 97.4163L238.679 97.2038L238.541 97.0123L238.409 96.8443L238.286 96.7021L238.173 96.5874L238.074 96.5013L237.993 96.4431L237.934 96.41L237.898 96.3957L237.883 96.3921L237.878 96.3919L237.872 96.3926L237.851 96.3984L237.809 96.4173L237.743 96.4573L237.656 96.5234L237.553 96.6179L237.437 96.7407L237.311 96.8906L237.177 97.0657L237.038 97.2636L236.894 97.4817L236.748 97.7173L236.598 97.9679L236.446 98.2307L236.293 98.5008L236.291 98.5055L236.136 98.7833L235.979 99.0669L235.819 99.354L235.661 99.6328L235.657 99.6405L235.499 99.9132L235.493 99.9242L235.335 100.188L235.327 100.203L235.169 100.456C235.165 100.462 235.161 100.469 235.157 100.475L235 100.715C234.995 100.723 234.989 100.73 234.984 100.738L234.826 100.962C234.82 100.972 234.813 100.981 234.806 100.991L234.648 101.198C234.64 101.209 234.631 101.221 234.621 101.232L234.464 101.42C234.453 101.433 234.441 101.447 234.429 101.46L234.271 101.627C234.256 101.643 234.241 101.658 234.225 101.673L234.067 101.818C234.048 101.836 234.027 101.853 234.006 101.869L233.849 101.991C233.823 102.011 233.796 102.029 233.769 102.046L233.611 102.142C233.579 102.163 233.544 102.181 233.509 102.197L233.352 102.268C233.311 102.286 233.269 102.301 233.227 102.314L233.069 102.359C233.022 102.372 232.973 102.382 232.924 102.388L232.767 102.406C232.715 102.412 232.664 102.414 232.612 102.411L232.455 102.402C232.404 102.4 232.354 102.393 232.304 102.382L232.147 102.347C232.102 102.337 232.057 102.323 232.013 102.306L231.856 102.245C231.818 102.23 231.781 102.213 231.745 102.193L231.588 102.106C231.557 102.089 231.528 102.071 231.5 102.05L231.342 101.938C231.319 101.922 231.296 101.904 231.275 101.885L231.117 101.749C231.099 101.733 231.082 101.717 231.066 101.701L230.908 101.542C230.895 101.528 230.882 101.514 230.869 101.499L230.712 101.319C230.701 101.307 230.691 101.295 230.682 101.283L230.524 101.083C230.517 101.073 230.509 101.063 230.502 101.052L230.344 100.834C230.338 100.826 230.332 100.818 230.327 100.809L230.169 100.575C230.165 100.568 230.16 100.561 230.156 100.554L229.999 100.306C229.995 100.301 229.992 100.295 229.989 100.29L229.831 100.03L229.824 100.017L229.666 99.7475L229.661 99.7386L229.5 99.4561L229.343 99.1746L229.342 99.1721L229.029 98.6091L229.027 98.6056L228.873 98.3321L228.721 98.0653L228.57 97.8099L228.422 97.5683L228.277 97.3433L228.136 97.1375L228.001 96.9536L227.871 96.7939L227.751 96.6607L227.643 96.5555L227.549 96.4789L227.475 96.4296L227.424 96.4035L227.395 96.3937L227.385 96.3919L227.381 96.3919L227.371 96.3936L227.344 96.4028L227.293 96.428L227.22 96.4763L227.128 96.5517L227.02 96.6557L226.9 96.7877L226.771 96.9463L226.635 97.1293L226.495 97.3342L226.35 97.5584L226.202 97.7993L226.052 98.0543L225.899 98.3206L225.746 98.5938L225.43 99.1625L225.269 99.4497L225.112 99.7267L225.107 99.7355L224.949 100.006L224.942 100.018L224.785 100.278C224.781 100.284 224.778 100.289 224.775 100.294L224.617 100.543C224.613 100.55 224.609 100.557 224.604 100.564L224.447 100.799C224.441 100.807 224.435 100.815 224.429 100.823L224.272 101.042C224.265 101.053 224.257 101.063 224.249 101.072L224.092 101.273C224.082 101.286 224.073 101.298 224.062 101.309L223.905 101.491C223.893 101.505 223.88 101.519 223.866 101.532L223.709 101.692C223.692 101.709 223.675 101.725 223.658 101.74L223.5 101.878C223.479 101.896 223.457 101.914 223.434 101.931L223.276 102.044C223.248 102.064 223.219 102.082 223.189 102.099L223.032 102.187C222.996 102.207 222.96 102.225 222.922 102.24L222.764 102.302C222.721 102.319 222.677 102.333 222.632 102.344L222.474 102.38C222.425 102.391 222.375 102.398 222.325 102.401L222.167 102.411C222.116 102.414 222.064 102.412 222.013 102.407L221.855 102.39C221.806 102.384 221.757 102.375 221.709 102.362L221.552 102.318C221.509 102.306 221.467 102.29 221.426 102.272L221.268 102.202C221.233 102.186 221.198 102.168 221.165 102.148L221.008 102.053C220.98 102.036 220.953 102.017 220.927 101.998L220.77 101.877C220.748 101.861 220.728 101.844 220.708 101.826L220.55 101.682C220.534 101.667 220.518 101.651 220.503 101.635L220.346 101.469C220.333 101.456 220.322 101.443 220.31 101.429L220.153 101.242C220.143 101.231 220.134 101.219 220.125 101.208L219.968 101.001C219.961 100.992 219.954 100.982 219.947 100.973L219.79 100.749C219.784 100.741 219.779 100.733 219.774 100.725L219.616 100.486C219.612 100.48 219.608 100.474 219.604 100.467L219.447 100.215L219.438 100.2L219.28 99.9361L219.274 99.9249L219.116 99.6526L219.112 99.6448L218.952 99.3615L218.793 99.0774L218.637 98.7951L218.48 98.5148L218.326 98.2421L218.174 97.9788L218.025 97.7276L217.878 97.4913L217.734 97.2724L217.595 97.0736L217.461 96.8976L217.334 96.7465L217.218 96.6225L217.114 96.5268L217.027 96.4596L216.96 96.4186L216.916 96.3988L216.894 96.3927L216.888 96.3919L216.884 96.3921L216.8 96.4106C216.307 96.5203 215.819 96.2093 215.709 95.7161C215.599 95.2229 215.91 94.7342 216.403 94.6246L216.561 94.5896C216.61 94.5786 216.66 94.5717 216.711 94.569L216.868 94.5607C216.92 94.558 216.972 94.5596 217.023 94.5656L217.18 94.584C217.229 94.5897 217.278 94.5994 217.325 94.613L217.483 94.6579C217.526 94.6701 217.568 94.6855 217.608 94.7039L217.766 94.775C217.801 94.7908 217.835 94.8089 217.868 94.8291L218.025 94.9257C218.053 94.9426 218.079 94.961 218.105 94.9807L218.262 95.1021C218.284 95.1184 218.304 95.1356 218.324 95.1536L218.481 95.2986C218.497 95.3133 218.513 95.3287 218.528 95.3446L218.685 95.5118C218.697 95.5248 218.709 95.538 218.72 95.5517L218.878 95.7397C218.887 95.7508 218.896 95.7621 218.905 95.7736L219.062 95.9808C219.069 95.9901 219.076 95.9995 219.083 96.009L219.24 96.2336C219.246 96.2413 219.251 96.249 219.256 96.2568L219.413 96.4967C219.417 96.5029 219.421 96.5092 219.425 96.5155L219.583 96.7685L219.592 96.7833L219.749 97.0473L219.756 97.0583L219.913 97.331L219.918 97.3387L220.078 97.622L220.236 97.906L220.392 98.1882L220.548 98.4684L220.702 98.7408L220.854 99.0036L221.004 99.2542L221.151 99.4899L221.294 99.7079L221.433 99.9058L221.567 100.081L221.693 100.231L221.809 100.354L221.913 100.448L221.999 100.514L222.065 100.554L222.108 100.573L222.128 100.579L222.135 100.58L222.139 100.579L222.155 100.576L222.19 100.562L222.25 100.528L222.331 100.47L222.429 100.384L222.542 100.269L222.666 100.127L222.797 99.9592L222.935 99.7677L223.077 99.5553L223.223 99.3244L223.372 99.0779L223.523 98.8184L223.677 98.5485L223.831 98.2721L223.833 98.2697L224.149 97.7011L224.31 97.4142L224.467 97.1395L224.473 97.1295L224.63 96.8627L224.639 96.8491L224.796 96.5925C224.8 96.5867 224.803 96.5808 224.807 96.575L224.965 96.3311C224.969 96.3237 224.974 96.3164 224.979 96.3092L225.137 96.08C225.143 96.0709 225.149 96.062 225.156 96.0532L225.313 95.8408C225.321 95.8299 225.329 95.8191 225.338 95.8086L225.495 95.6148C225.506 95.6018 225.517 95.5891 225.528 95.5767L225.686 95.4033C225.699 95.388 225.714 95.3733 225.729 95.359L225.886 95.2074C225.904 95.19 225.923 95.1733 225.942 95.1574L226.1 95.029C226.124 95.0097 226.148 94.9916 226.174 94.9747L226.331 94.8708C226.362 94.8505 226.394 94.8322 226.427 94.8158L226.584 94.7372C226.622 94.718 226.662 94.7015 226.703 94.688L226.86 94.6353C226.906 94.62 226.953 94.6084 227 94.6005L227.158 94.5744C227.208 94.566 227.26 94.5618 227.311 94.562L227.468 94.5626C227.52 94.5628 227.571 94.5673 227.621 94.576L227.779 94.6033C227.826 94.6115 227.873 94.6234 227.918 94.6389L228.075 94.6926C228.116 94.7064 228.155 94.723 228.193 94.7422L228.351 94.8219C228.383 94.8384 228.415 94.8568 228.445 94.877L228.602 94.982C228.628 94.9988 228.652 95.0169 228.676 95.0362L228.833 95.1655C228.852 95.1814 228.871 95.198 228.889 95.2154L229.046 95.3679C229.061 95.3821 229.075 95.3968 229.089 95.4119L229.246 95.5863C229.257 95.5986 229.268 95.6112 229.278 95.624L229.436 95.8187C229.444 95.8292 229.453 95.8398 229.461 95.8506L229.618 96.0638C229.624 96.0726 229.631 96.0814 229.637 96.0903L229.794 96.3202C229.799 96.3274 229.804 96.3346 229.809 96.3419L229.966 96.5864C229.97 96.5922 229.973 96.598 229.977 96.6038L230.134 96.8608L230.142 96.8742L230.3 97.1414L230.306 97.1513L230.467 97.4329L230.626 97.7168L230.94 98.2815L230.941 98.2841L231.096 98.56L231.249 98.8296L231.4 99.0886L231.549 99.3345L231.695 99.5646L231.837 99.7763L231.974 99.9668L232.106 100.134L232.229 100.275L232.341 100.388L232.439 100.473L232.519 100.53L232.578 100.562L232.613 100.576L232.627 100.579L232.631 100.58L232.638 100.579L232.66 100.573L232.703 100.553L232.77 100.512L232.858 100.445L232.961 100.349L233.078 100.225L233.205 100.074L233.338 99.8979L233.478 99.6991L233.621 99.4802L233.768 99.2439L233.918 98.9927L234.07 98.7294L234.223 98.459L234.225 98.4544L234.38 98.1778L234.538 97.8925L234.698 97.6054L234.855 97.3268L234.86 97.319L235.017 97.0466L235.024 97.0354L235.181 96.7718L235.19 96.7569L235.348 96.5043C235.352 96.498 235.356 96.4917 235.36 96.4854L235.517 96.2461C235.522 96.2382 235.528 96.2304 235.533 96.2227L235.691 95.9988C235.697 95.9892 235.704 95.9797 235.711 95.9704L235.869 95.7639C235.878 95.7523 235.887 95.741 235.896 95.7298L236.054 95.5426C236.065 95.5289 236.077 95.5155 236.089 95.5025L236.247 95.3362C236.262 95.3202 236.278 95.3048 236.294 95.2899L236.451 95.1459C236.471 95.1278 236.492 95.1105 236.513 95.0942L236.671 94.9739C236.697 94.9541 236.724 94.9357 236.751 94.9188L236.909 94.8232C236.942 94.8031 236.976 94.785 237.012 94.7693L237.169 94.6993C237.21 94.681 237.252 94.6659 237.296 94.6538L237.453 94.61C237.501 94.5967 237.55 94.5873 237.599 94.5819L237.756 94.5647Z" fill="url(#paint46_linear_3300_10962)"/>
<path fill-rule="evenodd" clip-rule="evenodd" d="M141.417 156.042C141.449 156.04 141.481 156.039 141.513 156.04L141.671 156.046C141.702 156.047 141.734 156.05 141.765 156.055L141.923 156.077C141.953 156.081 141.983 156.087 142.012 156.094L142.17 156.133C142.197 156.14 142.225 156.148 142.251 156.157L142.409 156.212C142.433 156.22 142.457 156.23 142.481 156.24L142.639 156.311C142.66 156.32 142.681 156.33 142.701 156.341L142.858 156.426C142.876 156.436 142.894 156.446 142.911 156.457L143.068 156.556C143.083 156.566 143.098 156.575 143.112 156.586L143.27 156.698C143.282 156.707 143.294 156.716 143.306 156.725L143.464 156.85C143.474 156.858 143.484 156.866 143.493 156.874L143.651 157.01C143.659 157.017 143.667 157.024 143.675 157.031L143.832 157.177C143.838 157.183 143.845 157.189 143.851 157.195L144.008 157.349C144.014 157.354 144.018 157.359 144.023 157.364L144.181 157.526L144.192 157.537L144.349 157.705L144.357 157.713L144.52 157.89L144.679 158.067L144.991 158.414L144.994 158.418L145.145 158.585L145.295 158.747L145.441 158.901L145.585 159.045L145.723 159.179L145.858 159.3L146.002 159.42C146.389 159.744 146.441 160.321 146.117 160.709C145.793 161.096 145.216 161.148 144.828 160.824L144.671 160.692C144.662 160.685 144.653 160.677 144.645 160.67L144.487 160.527C144.48 160.521 144.473 160.515 144.466 160.508L144.309 160.357C144.304 160.352 144.298 160.346 144.293 160.341L144.135 160.182L144.123 160.169L143.965 160.004L143.956 159.994L143.799 159.824L143.793 159.817L143.635 159.644L143.632 159.64L143.319 159.291L143.317 159.288L143.166 159.122L143.161 159.116L143.013 158.954L142.865 158.797L142.721 158.649L142.58 158.511L142.444 158.385L142.313 158.273L142.189 158.174L142.071 158.09L141.962 158.022L141.862 157.968L141.772 157.927L141.692 157.9L141.62 157.882L141.555 157.873L141.493 157.87L141.431 157.875L141.364 157.886L141.29 157.907L141.207 157.938L141.114 157.982L141.011 158.04L140.899 158.113L140.78 158.201L140.653 158.304L140.521 158.421L140.383 158.55L140.242 158.691L140.096 158.842L139.947 159.001L139.798 159.166L139.793 159.17L139.642 159.339L139.64 159.341L139.484 159.515L139.321 159.696L139.164 159.869L139.157 159.876L139 160.045L138.989 160.056L138.832 160.219C138.828 160.224 138.823 160.229 138.818 160.233L138.661 160.39C138.655 160.396 138.649 160.402 138.643 160.407L138.486 160.556C138.479 160.563 138.471 160.569 138.464 160.576L138.306 160.715C138.297 160.723 138.288 160.731 138.279 160.739L138.121 160.867C138.11 160.876 138.099 160.885 138.087 160.893L137.93 161.01C137.916 161.02 137.903 161.03 137.889 161.039L137.731 161.142C137.715 161.153 137.698 161.163 137.682 161.173L137.524 161.263C137.505 161.274 137.485 161.284 137.465 161.294L137.308 161.369C137.285 161.38 137.262 161.389 137.239 161.398L137.081 161.458C137.055 161.468 137.029 161.477 137.003 161.484L136.845 161.528C136.816 161.536 136.787 161.543 136.758 161.548L136.6 161.576C136.57 161.581 136.538 161.585 136.507 161.588L136.35 161.599C136.318 161.601 136.286 161.602 136.254 161.601L136.096 161.596C136.064 161.595 136.033 161.592 136.001 161.588L135.844 161.566C135.814 161.562 135.784 161.556 135.754 161.549L135.597 161.511C135.569 161.504 135.541 161.496 135.514 161.487L135.357 161.433C135.332 161.425 135.308 161.415 135.284 161.405L135.127 161.335C135.106 161.326 135.085 161.315 135.064 161.304L134.907 161.22C134.889 161.21 134.871 161.2 134.854 161.189L134.696 161.091C134.681 161.081 134.666 161.071 134.652 161.061L134.494 160.949C134.482 160.94 134.47 160.931 134.458 160.922L134.3 160.798C134.29 160.79 134.28 160.782 134.271 160.773L134.113 160.638C134.105 160.631 134.097 160.624 134.089 160.616L133.932 160.471C133.925 160.465 133.919 160.459 133.912 160.453L133.755 160.299C133.75 160.294 133.745 160.289 133.74 160.284L133.582 160.123L133.571 160.111L133.414 159.944L133.406 159.935L133.243 159.758L133.086 159.584L133.083 159.581L132.772 159.234L132.769 159.23L132.617 159.063L132.467 158.901L132.321 158.747L132.177 158.602L132.038 158.468L131.904 158.346L131.775 158.238L131.653 158.145L131.538 158.066L131.432 158.002L131.335 157.953L131.248 157.917L131.171 157.893L131.102 157.878L131.038 157.871L130.977 157.871L130.913 157.878L130.844 157.892L130.767 157.916L130.681 157.951L130.585 158L130.479 158.063L130.364 158.141L130.242 158.234L130.114 158.341L129.98 158.463L129.841 158.596L129.698 158.74L129.551 158.894L129.401 159.056L129.249 159.225L128.934 159.576L128.771 159.756L128.614 159.928L128.606 159.936L128.448 160.104L128.437 160.115L128.28 160.277C128.275 160.282 128.27 160.287 128.265 160.292L128.107 160.446C128.101 160.452 128.095 160.458 128.088 160.464L127.931 160.61C127.923 160.617 127.915 160.624 127.907 160.631L127.75 160.767C127.74 160.775 127.73 160.783 127.72 160.791L127.563 160.916C127.551 160.925 127.539 160.934 127.526 160.943L127.369 161.055C127.354 161.066 127.34 161.075 127.325 161.085L127.167 161.184C127.15 161.195 127.133 161.205 127.115 161.215L126.957 161.3C126.937 161.311 126.916 161.321 126.895 161.33L126.737 161.401C126.714 161.411 126.69 161.421 126.665 161.429L126.508 161.484C126.481 161.493 126.454 161.501 126.426 161.508L126.269 161.547C126.239 161.554 126.209 161.56 126.179 161.564L126.022 161.586C125.99 161.591 125.959 161.594 125.927 161.595L125.769 161.601C125.737 161.602 125.705 161.602 125.673 161.599L125.516 161.589C125.485 161.587 125.453 161.583 125.422 161.577L125.265 161.55C125.235 161.545 125.206 161.539 125.177 161.531L125.02 161.487C124.993 161.48 124.967 161.471 124.941 161.462L124.783 161.402C124.76 161.394 124.737 161.384 124.714 161.373L124.557 161.298C124.536 161.289 124.517 161.279 124.497 161.268L124.34 161.178C124.323 161.169 124.306 161.159 124.29 161.148L124.132 161.045C124.118 161.035 124.104 161.026 124.091 161.016L123.933 160.9C123.922 160.891 123.91 160.882 123.899 160.873L123.742 160.745C123.732 160.738 123.723 160.73 123.714 160.722L123.556 160.583C123.549 160.576 123.541 160.57 123.534 160.563L123.376 160.414C123.37 160.409 123.364 160.403 123.359 160.397L123.201 160.241C123.197 160.236 123.192 160.231 123.187 160.227L123.03 160.063L123.02 160.053L122.862 159.884L122.855 159.876L122.694 159.699L122.535 159.522L122.379 159.348L122.223 159.175L122.071 159.008L121.922 158.849L121.777 158.697L121.635 158.556L121.497 158.426L121.365 158.309L121.238 158.205L121.118 158.117L121.006 158.043L120.903 157.984L120.809 157.939L120.726 157.908L120.651 157.887L120.584 157.875L120.522 157.87L120.46 157.872L120.35 157.888C119.849 157.957 119.388 157.607 119.319 157.106C119.25 156.606 119.6 156.144 120.1 156.075L120.258 156.053C120.289 156.049 120.321 156.046 120.352 156.045L120.51 156.04C120.542 156.039 120.574 156.04 120.606 156.042L120.763 156.053C120.795 156.056 120.826 156.06 120.857 156.065L121.014 156.093C121.044 156.098 121.073 156.105 121.101 156.113L121.259 156.157C121.285 156.164 121.312 156.173 121.338 156.183L121.495 156.243C121.518 156.252 121.541 156.261 121.564 156.272L121.721 156.347C121.741 156.357 121.761 156.367 121.78 156.378L121.938 156.468C121.955 156.478 121.971 156.488 121.988 156.499L122.145 156.602C122.159 156.611 122.173 156.621 122.186 156.631L122.344 156.748C122.355 156.756 122.367 156.765 122.378 156.774L122.535 156.902C122.544 156.91 122.554 156.918 122.563 156.926L122.72 157.065C122.728 157.072 122.735 157.078 122.742 157.085L122.9 157.234C122.906 157.239 122.912 157.245 122.917 157.251L123.075 157.408C123.079 157.412 123.084 157.417 123.088 157.422L123.246 157.585L123.256 157.596L123.413 157.765L123.42 157.772L123.582 157.95L123.74 158.126L123.896 158.3L123.898 158.302L124.052 158.473L124.204 158.64L124.353 158.799L124.498 158.95L124.64 159.091L124.777 159.22L124.91 159.337L125.036 159.44L125.156 159.528L125.267 159.601L125.37 159.659L125.463 159.703L125.546 159.734L125.62 159.755L125.687 159.766L125.749 159.771L125.811 159.768L125.876 159.759L125.948 159.741L126.028 159.714L126.118 159.673L126.218 159.619L126.328 159.551L126.445 159.467L126.57 159.368L126.7 159.256L126.836 159.13L126.977 158.992L127.121 158.844L127.269 158.687L127.42 158.522L127.573 158.353L127.575 158.35L127.892 157.997L128.049 157.824L128.055 157.817L128.212 157.647L128.222 157.637L128.379 157.472L128.392 157.459L128.549 157.3C128.554 157.295 128.56 157.289 128.565 157.284L128.723 157.133C128.73 157.126 128.737 157.12 128.744 157.114L128.901 156.971C128.91 156.964 128.918 156.956 128.927 156.949L129.084 156.817C129.095 156.809 129.106 156.8 129.116 156.792L129.274 156.672C129.287 156.662 129.3 156.652 129.313 156.643L129.47 156.536C129.486 156.525 129.501 156.515 129.517 156.506L129.675 156.412C129.693 156.401 129.712 156.391 129.731 156.381L129.889 156.301C129.91 156.291 129.932 156.281 129.955 156.271L130.112 156.207C130.137 156.197 130.162 156.188 130.188 156.18L130.345 156.131C130.373 156.122 130.402 156.115 130.43 156.109L130.588 156.077C130.618 156.07 130.649 156.065 130.68 156.062L130.837 156.046C130.869 156.043 130.901 156.041 130.933 156.041L131.09 156.042C131.122 156.042 131.154 156.043 131.186 156.047L131.343 156.064C131.374 156.067 131.405 156.072 131.435 156.078L131.592 156.112C131.621 156.118 131.649 156.125 131.677 156.134L131.834 156.183C131.86 156.191 131.885 156.2 131.91 156.211L132.067 156.276C132.09 156.285 132.111 156.295 132.133 156.306L132.29 156.386C132.309 156.396 132.328 156.406 132.346 156.417L132.504 156.511C132.52 156.521 132.535 156.531 132.55 156.541L132.708 156.65C132.721 156.659 132.734 156.668 132.747 156.678L132.904 156.798C132.915 156.806 132.925 156.815 132.936 156.824L133.093 156.956C133.102 156.963 133.111 156.971 133.119 156.978L133.276 157.121C133.283 157.127 133.29 157.133 133.297 157.14L133.454 157.291C133.46 157.297 133.465 157.302 133.471 157.307L133.628 157.467L133.64 157.479L133.798 157.645L133.807 157.654L133.964 157.825L133.97 157.831L134.131 158.009L134.444 158.358L134.446 158.36L134.599 158.529L134.749 158.694L134.897 158.85L135.041 158.998L135.182 159.135L135.318 159.261L135.448 159.373L135.572 159.471L135.69 159.554L135.798 159.622L135.898 159.675L135.988 159.715L136.068 159.742L136.139 159.76L136.204 159.769L136.266 159.771L136.328 159.766L136.395 159.754L136.469 159.733L136.553 159.702L136.646 159.657L136.75 159.598L136.862 159.524L136.982 159.436L137.108 159.332L137.241 159.215L137.378 159.085L137.52 158.944L137.666 158.792L137.815 158.633L137.967 158.466L138.121 158.294L138.122 158.293L138.279 158.119L138.28 158.117L138.441 157.937L138.599 157.765L138.606 157.757L138.763 157.588L138.774 157.578L138.931 157.414C138.936 157.41 138.94 157.405 138.945 157.4L139.102 157.244C139.108 157.238 139.114 157.232 139.12 157.227L139.277 157.078C139.285 157.071 139.292 157.065 139.3 157.058L139.457 156.919C139.466 156.911 139.476 156.903 139.485 156.896L139.643 156.768C139.654 156.759 139.665 156.75 139.677 156.741L139.834 156.625C139.848 156.615 139.862 156.606 139.876 156.596L140.033 156.493C140.05 156.483 140.066 156.472 140.083 156.463L140.241 156.373C140.26 156.362 140.28 156.352 140.3 156.343L140.458 156.268C140.48 156.257 140.504 156.247 140.527 156.239L140.685 156.179C140.711 156.17 140.737 156.161 140.764 156.154L140.921 156.11C140.95 156.102 140.979 156.096 141.009 156.091L141.166 156.064C141.197 156.058 141.228 156.054 141.26 156.052L141.417 156.042Z" fill="url(#paint47_linear_3300_10962)"/>
<path fill-rule="evenodd" clip-rule="evenodd" d="M167.217 161.221C167.249 161.224 167.281 161.224 167.313 161.223L167.47 161.217C167.502 161.216 167.534 161.213 167.565 161.209L167.722 161.186C167.753 161.182 167.782 161.176 167.812 161.169L167.969 161.13C167.997 161.123 168.024 161.115 168.051 161.106L168.209 161.051C168.233 161.043 168.257 161.033 168.281 161.023L168.438 160.953C168.459 160.943 168.48 160.933 168.501 160.922L168.658 160.837C168.676 160.827 168.694 160.817 168.711 160.806L168.868 160.707C168.883 160.698 168.898 160.688 168.912 160.677L169.07 160.565C169.082 160.556 169.094 160.547 169.106 160.538L169.263 160.413C169.273 160.405 169.283 160.397 169.293 160.389L169.45 160.253C169.458 160.246 169.466 160.239 169.474 160.232L169.632 160.086C169.638 160.08 169.645 160.074 169.651 160.068L169.808 159.914C169.813 159.909 169.818 159.904 169.823 159.899L169.98 159.737L169.992 159.726L170.149 159.558L170.157 159.55L170.32 159.373L170.479 159.196L170.79 158.849L170.794 158.845L170.945 158.678L171.095 158.516L171.241 158.362L171.384 158.218L171.523 158.085L171.657 157.964L171.802 157.843C172.189 157.519 172.241 156.942 171.916 156.554C171.592 156.167 171.015 156.115 170.628 156.439L170.47 156.571C170.462 156.578 170.453 156.586 170.444 156.594L170.287 156.736C170.28 156.742 170.273 156.748 170.266 156.755L170.109 156.906C170.103 156.911 170.098 156.917 170.092 156.922L169.935 157.081L169.922 157.094L169.765 157.259L169.756 157.269L169.598 157.439L169.592 157.446L169.435 157.62L169.432 157.623L169.119 157.972L169.116 157.975L168.966 158.141L168.961 158.147L168.813 158.309L168.665 158.466L168.52 158.614L168.38 158.752L168.244 158.878L168.113 158.99L167.988 159.089L167.871 159.173L167.762 159.241L167.662 159.295L167.572 159.336L167.491 159.364L167.42 159.381L167.355 159.39L167.293 159.393L167.23 159.389L167.164 159.377L167.09 159.357L167.006 159.325L166.913 159.281L166.811 159.223L166.699 159.15L166.579 159.062L166.453 158.959L166.321 158.842L166.183 158.713L166.041 158.572L165.896 158.421L165.747 158.262L165.597 158.097L165.593 158.093L165.441 157.924L165.44 157.922L165.284 157.748L165.121 157.567L164.964 157.394L164.957 157.387L164.799 157.218L164.789 157.207L164.632 157.044C164.627 157.039 164.623 157.034 164.618 157.03L164.461 156.873C164.455 156.867 164.449 156.862 164.443 156.856L164.286 156.707C164.278 156.7 164.271 156.694 164.264 156.687L164.106 156.548C164.097 156.54 164.088 156.532 164.078 156.524L163.921 156.396C163.91 156.387 163.899 156.378 163.887 156.37L163.73 156.253C163.716 156.243 163.702 156.234 163.688 156.224L163.531 156.121C163.515 156.11 163.498 156.1 163.481 156.09L163.324 156C163.304 155.989 163.285 155.979 163.265 155.969L163.107 155.894C163.085 155.883 163.062 155.874 163.038 155.865L162.881 155.805C162.855 155.795 162.829 155.786 162.802 155.779L162.645 155.735C162.616 155.727 162.587 155.72 162.558 155.715L162.4 155.687C162.369 155.682 162.338 155.678 162.307 155.676L162.149 155.664C162.117 155.662 162.085 155.661 162.053 155.662L161.896 155.667C161.864 155.668 161.832 155.671 161.801 155.676L161.644 155.697C161.613 155.701 161.583 155.707 161.554 155.714L161.396 155.752C161.369 155.759 161.341 155.767 161.314 155.776L161.157 155.83C161.132 155.839 161.108 155.848 161.084 155.859L160.927 155.928C160.905 155.938 160.884 155.948 160.864 155.959L160.706 156.043C160.688 156.053 160.671 156.063 160.653 156.074L160.496 156.172C160.481 156.182 160.466 156.192 160.452 156.202L160.294 156.314C160.282 156.323 160.27 156.332 160.258 156.341L160.1 156.465C160.09 156.473 160.08 156.482 160.07 156.49L159.913 156.625C159.905 156.632 159.897 156.639 159.889 156.647L159.731 156.792C159.725 156.798 159.718 156.804 159.712 156.81L159.555 156.964C159.55 156.969 159.545 156.974 159.54 156.979L159.382 157.14L159.371 157.152L159.213 157.319L159.205 157.328L159.043 157.505L158.885 157.679L158.883 157.682L158.572 158.029L158.568 158.033L158.417 158.2L158.267 158.362L158.12 158.517L157.977 158.661L157.838 158.795L157.704 158.917L157.575 159.025L157.453 159.119L157.338 159.197L157.232 159.261L157.135 159.31L157.048 159.346L156.971 159.37L156.902 159.385L156.838 159.392L156.776 159.392L156.713 159.386L156.644 159.371L156.567 159.347L156.481 159.312L156.384 159.263L156.279 159.2L156.164 159.122L156.042 159.029L155.914 158.922L155.779 158.801L155.641 158.667L155.497 158.523L155.351 158.369L155.201 158.207L155.048 158.038L154.733 157.687L154.571 157.507L154.413 157.335L154.405 157.327L154.248 157.16L154.237 157.148L154.079 156.986C154.074 156.981 154.07 156.976 154.065 156.971L153.907 156.817C153.901 156.811 153.894 156.805 153.888 156.799L153.731 156.653C153.723 156.646 153.715 156.639 153.707 156.632L153.549 156.496C153.54 156.488 153.53 156.48 153.52 156.472L153.362 156.347C153.35 156.338 153.338 156.329 153.326 156.32L153.169 156.208C153.154 156.197 153.139 156.188 153.125 156.178L152.967 156.079C152.95 156.068 152.932 156.058 152.914 156.048L152.757 155.963C152.737 155.952 152.716 155.942 152.695 155.933L152.537 155.862C152.513 155.852 152.489 155.842 152.465 155.834L152.307 155.779C152.281 155.77 152.253 155.762 152.226 155.755L152.068 155.716C152.039 155.709 152.009 155.703 151.979 155.699L151.821 155.677C151.79 155.672 151.758 155.669 151.727 155.668L151.569 155.662C151.537 155.661 151.505 155.662 151.473 155.664L151.316 155.674C151.284 155.677 151.253 155.68 151.222 155.686L151.065 155.713C151.035 155.718 151.006 155.724 150.977 155.732L150.82 155.776C150.793 155.783 150.767 155.792 150.741 155.801L150.583 155.861C150.56 155.87 150.537 155.879 150.514 155.89L150.356 155.965C150.336 155.974 150.316 155.985 150.297 155.996L150.139 156.085C150.122 156.094 150.106 156.105 150.089 156.115L149.932 156.218C149.918 156.228 149.904 156.237 149.89 156.247L149.733 156.363C149.721 156.372 149.71 156.381 149.699 156.39L149.541 156.518C149.532 156.525 149.522 156.533 149.513 156.541L149.356 156.68C149.348 156.687 149.341 156.694 149.333 156.7L149.176 156.849C149.17 156.854 149.164 156.86 149.158 156.866L149.001 157.022C148.996 157.027 148.992 157.032 148.987 157.036L148.83 157.2L148.819 157.21L148.662 157.379L148.655 157.387L148.493 157.564L148.335 157.741L148.178 157.915L148.023 158.088L147.871 158.255L147.722 158.415L147.576 158.566L147.435 158.707L147.297 158.837L147.164 158.954L147.038 159.058L146.918 159.147L146.806 159.22L146.703 159.279L146.609 159.324L146.525 159.355L146.451 159.376L146.384 159.388L146.322 159.393L146.26 159.391L146.15 159.375C145.649 159.307 145.187 159.656 145.119 160.157C145.05 160.657 145.399 161.119 145.9 161.188L146.057 161.21C146.089 161.214 146.12 161.217 146.152 161.218L146.31 161.223C146.342 161.224 146.374 161.223 146.406 161.221L146.563 161.21C146.594 161.207 146.626 161.203 146.656 161.198L146.814 161.17C146.843 161.165 146.872 161.158 146.901 161.15L147.059 161.106C147.085 161.099 147.111 161.09 147.137 161.08L147.295 161.02C147.318 161.012 147.341 161.002 147.364 160.991L147.521 160.916C147.541 160.906 147.561 160.896 147.58 160.885L147.738 160.795C147.754 160.785 147.771 160.775 147.787 160.765L147.945 160.661C147.959 160.652 147.972 160.642 147.986 160.632L148.143 160.516C148.155 160.507 148.166 160.498 148.177 160.489L148.335 160.361C148.344 160.353 148.353 160.345 148.362 160.337L148.52 160.198C148.527 160.191 148.535 160.185 148.542 160.178L148.699 160.029C148.705 160.024 148.711 160.018 148.717 160.012L148.874 159.855C148.879 159.851 148.884 159.846 148.888 159.842L149.046 159.678L149.056 159.667L149.213 159.498L149.22 159.491L149.381 159.314L149.54 159.137L149.696 158.963L149.698 158.961L149.852 158.79L150.003 158.624L150.152 158.464L150.298 158.313L150.439 158.172L150.577 158.043L150.709 157.926L150.836 157.823L150.955 157.735L151.067 157.662L151.17 157.604L151.263 157.56L151.346 157.529L151.42 157.508L151.487 157.497L151.549 157.492L151.611 157.495L151.676 157.504L151.748 157.522L151.828 157.55L151.918 157.59L152.018 157.644L152.127 157.712L152.245 157.796L152.369 157.895L152.5 158.007L152.636 158.133L152.777 158.271L152.921 158.419L153.069 158.576L153.22 158.741L153.373 158.91L153.375 158.913L153.691 159.266L153.849 159.439L153.855 159.446L154.012 159.616L154.021 159.626L154.179 159.791L154.191 159.804L154.349 159.963C154.354 159.968 154.36 159.974 154.365 159.979L154.523 160.13C154.529 160.137 154.536 160.143 154.543 160.15L154.701 160.292C154.709 160.299 154.718 160.307 154.727 160.314L154.884 160.446C154.895 160.455 154.905 160.463 154.916 160.471L155.074 160.591C155.086 160.601 155.099 160.611 155.113 160.62L155.27 160.727C155.285 160.738 155.301 160.748 155.317 160.757L155.475 160.851C155.493 160.862 155.512 160.872 155.531 160.882L155.688 160.962C155.71 160.973 155.732 160.983 155.754 160.992L155.912 161.056C155.937 161.066 155.962 161.075 155.988 161.083L156.145 161.132C156.173 161.141 156.201 161.148 156.23 161.154L156.388 161.187C156.418 161.193 156.449 161.198 156.479 161.201L156.637 161.217C156.669 161.22 156.701 161.222 156.733 161.222L156.89 161.221C156.922 161.221 156.954 161.22 156.986 161.216L157.143 161.199C157.174 161.196 157.204 161.191 157.235 161.185L157.392 161.151C157.421 161.145 157.449 161.138 157.477 161.129L157.634 161.08C157.66 161.072 157.685 161.063 157.71 161.053L157.867 160.987C157.889 160.978 157.911 160.968 157.933 160.957L158.09 160.877C158.109 160.867 158.128 160.857 158.146 160.846L158.303 160.752C158.319 160.742 158.335 160.732 158.35 160.722L158.508 160.614C158.521 160.605 158.534 160.595 158.546 160.586L158.704 160.465C158.715 160.457 158.725 160.448 158.735 160.439L158.893 160.307C158.902 160.3 158.91 160.293 158.919 160.285L159.076 160.142C159.083 160.136 159.09 160.13 159.097 160.123L159.254 159.972C159.26 159.966 159.265 159.961 159.27 159.956L159.428 159.797L159.44 159.784L159.598 159.618L159.606 159.609L159.764 159.438L159.77 159.432L159.93 159.255L160.243 158.905L160.246 158.903L160.398 158.734L160.549 158.57L160.697 158.413L160.841 158.265L160.982 158.128L161.117 158.002L161.248 157.89L161.372 157.792L161.489 157.709L161.598 157.641L161.698 157.588L161.787 157.548L161.867 157.521L161.939 157.503L162.004 157.495L162.065 157.493L162.128 157.497L162.195 157.509L162.269 157.53L162.353 157.561L162.446 157.606L162.549 157.665L162.661 157.739L162.781 157.827L162.908 157.931L163.041 158.048L163.178 158.178L163.32 158.319L163.466 158.471L163.615 158.63L163.767 158.797L163.921 158.969L163.922 158.97L164.078 159.144L164.08 159.146L164.241 159.326L164.399 159.498L164.406 159.506L164.563 159.675L164.573 159.685L164.731 159.849C164.735 159.854 164.74 159.858 164.745 159.863L164.902 160.019C164.908 160.025 164.914 160.031 164.92 160.036L165.077 160.185C165.085 160.192 165.092 160.198 165.1 160.205L165.257 160.344C165.266 160.352 165.275 160.36 165.285 160.367L165.442 160.495C165.454 160.504 165.465 160.513 165.477 160.522L165.634 160.638C165.648 160.648 165.661 160.658 165.676 160.667L165.833 160.77C165.849 160.781 165.866 160.791 165.883 160.8L166.041 160.89C166.06 160.901 166.08 160.911 166.1 160.921L166.257 160.995C166.28 161.006 166.303 161.016 166.327 161.024L166.484 161.084C166.51 161.093 166.537 161.102 166.563 161.109L166.721 161.153C166.75 161.161 166.779 161.167 166.808 161.172L166.966 161.2C166.997 161.205 167.028 161.209 167.059 161.211L167.217 161.221Z" fill="url(#paint48_linear_3300_10962)"/>
<path d="M391.615 163.133V188.45H345.143V170.366H314.161V163.133H391.615Z" fill="url(#paint49_linear_3300_10962)"/>
<path d="M172.117 80.037V91.7128H150.685V83.3729H136.397V80.037H172.117Z" fill="url(#paint50_linear_3300_10962)"/>
<path d="M406.862 -14.8104V4.40857H360.389V-7.57679H317.21V-14.8104H406.862Z" fill="url(#paint51_linear_3300_10962)"/>
<path fill-rule="evenodd" clip-rule="evenodd" d="M255.101 76.2131V69.974H253.271V76.8473L273.288 102.254L274.725 101.121L255.101 76.2131Z" fill="url(#paint52_linear_3300_10962)"/>
<path fill-rule="evenodd" clip-rule="evenodd" d="M316.393 76.0688V69.5166H318.223V77.6014L295.208 81.7L294.887 79.8987L316.393 76.0688Z" fill="url(#paint53_linear_3300_10962)"/>
<path d="M289.336 -17.6758H295.048V10.84H289.336V-17.6758Z" fill="url(#paint54_linear_3300_10962)"/>
<path d="M279.883 -17.6758H285.595V51.2402H279.883V-17.6758Z" fill="url(#paint55_linear_3300_10962)"/>
<path d="M298.707 -11.2721H301.979V10.84H298.707V-11.2721Z" fill="url(#paint56_linear_3300_10962)"/>
<path d="M252.966 110.478H266.383V129.894H252.966V110.478Z" fill="url(#paint57_linear_3300_10962)"/>
<path d="M259.954 110.478H266.383V186.308H259.954V110.478Z" fill="url(#paint58_linear_3300_10962)"/>
<path d="M210.58 110.478H259.675V112.307H210.58V110.478Z" fill="url(#paint59_linear_3300_10962)"/>
<path d="M220.099 114.137H259.675V115.967H220.099V114.137Z" fill="url(#paint60_linear_3300_10962)"/>
<path d="M228.876 117.796H259.675V119.626H228.876V117.796Z" fill="url(#paint61_linear_3300_10962)"/>
<path d="M224.864 204.196H226.502V186.231V176.86H224.864V204.196Z" fill="url(#paint62_linear_3300_10962)"/>
<path d="M226.502 186.231V204.196L232.853 204.196L243.526 186.23L226.502 186.231Z" fill="url(#paint63_linear_3300_10962)"/>
<path d="M235.597 204.196L246.27 186.231H249.015L238.342 204.196H235.597Z" fill="url(#paint64_linear_3300_10962)"/>
<path d="M241.239 204.196L251.912 186.231H255.114L244.441 204.196H241.239Z" fill="url(#paint65_linear_3300_10962)"/>
<path fill-rule="evenodd" clip-rule="evenodd" d="M277.666 178.075V109.464H275.837V179.904H300.841V166.792H299.012V178.075H277.666Z" fill="url(#paint66_linear_3300_10962)"/>
<path fill-rule="evenodd" clip-rule="evenodd" d="M282.018 173.79V113.123H280.188V175.62H297.022V167.56H295.192V173.79H282.018Z" fill="url(#paint67_linear_3300_10962)"/>
<path fill-rule="evenodd" clip-rule="evenodd" d="M171.548 107.939V148.509L170.633 149.41H164.077L163.445 147.856L169.718 141.962V107.939H171.548Z" fill="url(#paint68_linear_3300_10962)"/>
<path fill-rule="evenodd" clip-rule="evenodd" d="M179.171 168.164L189.473 178.685V207.362L188.559 208.264H182.002L181.371 206.709L187.644 200.815V178.685L177.341 168.164H179.171Z" fill="url(#paint69_linear_3300_10962)"/>
<path fill-rule="evenodd" clip-rule="evenodd" d="M171.853 169.536H118.641V167.707H171.853V169.536Z" fill="url(#paint70_linear_3300_10962)"/>
<path fill-rule="evenodd" clip-rule="evenodd" d="M171.853 171.335H118.641V170.756H171.853V171.335Z" fill="url(#paint71_linear_3300_10962)"/>
</g>
<line x1="-12" y1="35.5" x2="20.0156" y2="35.5" stroke="#8F8E93"/>
<line x1="-12" y1="236.5" x2="20.0156" y2="236.5" stroke="#8F8E93"/>
<line x1="-12" y1="486.5" x2="20.0156" y2="486.5" stroke="#8F8E93"/>
<path d="M36.7818 31.0001C32.5035 30.9807 29.0195 34.4331 29.0001 38.7114C28.9807 42.9897 32.4331 46.4737 36.7114 46.4931C40.9897 46.5125 44.4737 43.0601 44.4931 38.7818C44.5125 34.5035 41.0601 31.0195 36.7818 31.0001Z" fill="black"/>
<path d="M20.6456 35.7144C20.6634 31.7926 23.8571 28.6278 27.7788 28.6456C31.7006 28.6634 34.8654 31.8571 34.8476 35.7788C34.8298 39.7006 31.6361 42.8654 27.7144 42.8476C23.7926 42.8298 20.6278 39.6361 20.6456 35.7144Z" fill="#F0EFED" stroke="black" stroke-width="1.2911"/>
<path d="M36.7818 232C32.5035 231.981 29.0195 235.433 29.0001 239.711C28.9807 243.99 32.4331 247.474 36.7114 247.493C40.9897 247.513 44.4737 244.06 44.4931 239.782C44.5125 235.503 41.0601 232.02 36.7818 232Z" fill="black"/>
<path d="M20.6456 236.714C20.6634 232.793 23.8571 229.628 27.7788 229.646C31.7006 229.663 34.8654 232.857 34.8476 236.779C34.8298 240.701 31.6361 243.865 27.7144 243.848C23.7926 243.83 20.6278 240.636 20.6456 236.714Z" fill="#F0EFED" stroke="black" stroke-width="1.2911"/>
<path d="M36.7818 482C32.5035 481.981 29.0195 485.433 29.0001 489.711C28.9807 493.99 32.4331 497.474 36.7114 497.493C40.9897 497.513 44.4737 494.06 44.4931 489.782C44.5125 485.503 41.0601 482.02 36.7818 482Z" fill="black"/>
<path d="M20.6456 486.714C20.6634 482.793 23.8571 479.628 27.7788 479.646C31.7006 479.663 34.8654 482.857 34.8476 486.779C34.8298 490.701 31.6361 493.865 27.7144 493.848C23.7926 493.83 20.6278 490.636 20.6456 486.714Z" fill="#F0EFED" stroke="black" stroke-width="1.2911"/>
</g>
<defs>
<linearGradient id="paint0_linear_3300_10962" x1="137.958" y1="449.934" x2="58.7617" y2="-30.5365" gradientUnits="userSpaceOnUse">
<stop stop-color="#F1EFED"/>
<stop offset="0.534758" stop-color="#DDDDDD" stop-opacity="0.22"/>
<stop offset="1" stop-color="#F1EFED"/>
</linearGradient>
<linearGradient id="paint1_linear_3300_10962" x1="273.702" y1="336.947" x2="154.194" y2="-140.084" gradientUnits="userSpaceOnUse">
<stop offset="0.121234" stop-color="#F1EFED"/>
<stop offset="0.488143" stop-color="#DDDDDD" stop-opacity="0.22"/>
<stop offset="0.897958" stop-color="#F1EFED"/>
</linearGradient>
<linearGradient id="paint2_linear_3300_10962" x1="273.702" y1="336.947" x2="154.194" y2="-140.084" gradientUnits="userSpaceOnUse">
<stop offset="0.121234" stop-color="#F1EFED"/>
<stop offset="0.488143" stop-color="#DDDDDD" stop-opacity="0.22"/>
<stop offset="0.897958" stop-color="#F1EFED"/>
</linearGradient>
<linearGradient id="paint3_linear_3300_10962" x1="273.702" y1="336.947" x2="154.194" y2="-140.084" gradientUnits="userSpaceOnUse">
<stop offset="0.121234" stop-color="#F1EFED"/>
<stop offset="0.488143" stop-color="#DDDDDD" stop-opacity="0.22"/>
<stop offset="0.897958" stop-color="#F1EFED"/>
</linearGradient>
<linearGradient id="paint4_linear_3300_10962" x1="273.702" y1="336.947" x2="154.194" y2="-140.084" gradientUnits="userSpaceOnUse">
<stop offset="0.121234" stop-color="#F1EFED"/>
<stop offset="0.488143" stop-color="#DDDDDD" stop-opacity="0.22"/>
<stop offset="0.897958" stop-color="#F1EFED"/>
</linearGradient>
<linearGradient id="paint5_linear_3300_10962" x1="273.702" y1="336.947" x2="154.194" y2="-140.084" gradientUnits="userSpaceOnUse">
<stop offset="0.121234" stop-color="#F1EFED"/>
<stop offset="0.488143" stop-color="#DDDDDD" stop-opacity="0.22"/>
<stop offset="0.897958" stop-color="#F1EFED"/>
</linearGradient>
<linearGradient id="paint6_linear_3300_10962" x1="273.702" y1="336.947" x2="154.194" y2="-140.084" gradientUnits="userSpaceOnUse">
<stop offset="0.121234" stop-color="#F1EFED"/>
<stop offset="0.488143" stop-color="#DDDDDD" stop-opacity="0.22"/>
<stop offset="0.897958" stop-color="#F1EFED"/>
</linearGradient>
<linearGradient id="paint7_linear_3300_10962" x1="273.702" y1="336.947" x2="154.194" y2="-140.084" gradientUnits="userSpaceOnUse">
<stop offset="0.121234" stop-color="#F1EFED"/>
<stop offset="0.488143" stop-color="#DDDDDD" stop-opacity="0.22"/>
<stop offset="0.897958" stop-color="#F1EFED"/>
</linearGradient>
<linearGradient id="paint8_linear_3300_10962" x1="273.702" y1="336.947" x2="154.194" y2="-140.084" gradientUnits="userSpaceOnUse">
<stop offset="0.121234" stop-color="#F1EFED"/>
<stop offset="0.488143" stop-color="#DDDDDD" stop-opacity="0.22"/>
<stop offset="0.897958" stop-color="#F1EFED"/>
</linearGradient>
<linearGradient id="paint9_linear_3300_10962" x1="273.702" y1="336.947" x2="154.194" y2="-140.084" gradientUnits="userSpaceOnUse">
<stop offset="0.121234" stop-color="#F1EFED"/>
<stop offset="0.488143" stop-color="#DDDDDD" stop-opacity="0.22"/>
<stop offset="0.897958" stop-color="#F1EFED"/>
</linearGradient>
<linearGradient id="paint10_linear_3300_10962" x1="273.702" y1="336.947" x2="154.194" y2="-140.084" gradientUnits="userSpaceOnUse">
<stop offset="0.121234" stop-color="#F1EFED"/>
<stop offset="0.488143" stop-color="#DDDDDD" stop-opacity="0.22"/>
<stop offset="0.897958" stop-color="#F1EFED"/>
</linearGradient>
<linearGradient id="paint11_linear_3300_10962" x1="273.702" y1="336.947" x2="154.194" y2="-140.084" gradientUnits="userSpaceOnUse">
<stop offset="0.121234" stop-color="#F1EFED"/>
<stop offset="0.488143" stop-color="#DDDDDD" stop-opacity="0.22"/>
<stop offset="0.897958" stop-color="#F1EFED"/>
</linearGradient>
<linearGradient id="paint12_linear_3300_10962" x1="273.702" y1="336.947" x2="154.194" y2="-140.084" gradientUnits="userSpaceOnUse">
<stop offset="0.121234" stop-color="#F1EFED"/>
<stop offset="0.488143" stop-color="#DDDDDD" stop-opacity="0.22"/>
<stop offset="0.897958" stop-color="#F1EFED"/>
</linearGradient>
<linearGradient id="paint13_linear_3300_10962" x1="273.702" y1="336.947" x2="154.194" y2="-140.084" gradientUnits="userSpaceOnUse">
<stop offset="0.121234" stop-color="#F1EFED"/>
<stop offset="0.488143" stop-color="#DDDDDD" stop-opacity="0.22"/>
<stop offset="0.897958" stop-color="#F1EFED"/>
</linearGradient>
<linearGradient id="paint14_linear_3300_10962" x1="273.702" y1="336.947" x2="154.194" y2="-140.084" gradientUnits="userSpaceOnUse">
<stop offset="0.121234" stop-color="#F1EFED"/>
<stop offset="0.488143" stop-color="#DDDDDD" stop-opacity="0.22"/>
<stop offset="0.897958" stop-color="#F1EFED"/>
</linearGradient>
<linearGradient id="paint15_linear_3300_10962" x1="273.702" y1="336.947" x2="154.194" y2="-140.084" gradientUnits="userSpaceOnUse">
<stop offset="0.121234" stop-color="#F1EFED"/>
<stop offset="0.488143" stop-color="#DDDDDD" stop-opacity="0.22"/>
<stop offset="0.897958" stop-color="#F1EFED"/>
</linearGradient>
<linearGradient id="paint16_linear_3300_10962" x1="273.702" y1="336.947" x2="154.194" y2="-140.084" gradientUnits="userSpaceOnUse">
<stop offset="0.121234" stop-color="#F1EFED"/>
<stop offset="0.488143" stop-color="#DDDDDD" stop-opacity="0.22"/>
<stop offset="0.897958" stop-color="#F1EFED"/>
</linearGradient>
<linearGradient id="paint17_linear_3300_10962" x1="273.702" y1="336.947" x2="154.194" y2="-140.084" gradientUnits="userSpaceOnUse">
<stop offset="0.121234" stop-color="#F1EFED"/>
<stop offset="0.488143" stop-color="#DDDDDD" stop-opacity="0.22"/>
<stop offset="0.897958" stop-color="#F1EFED"/>
</linearGradient>
<linearGradient id="paint18_linear_3300_10962" x1="273.702" y1="336.947" x2="154.194" y2="-140.084" gradientUnits="userSpaceOnUse">
<stop offset="0.121234" stop-color="#F1EFED"/>
<stop offset="0.488143" stop-color="#DDDDDD" stop-opacity="0.22"/>
<stop offset="0.897958" stop-color="#F1EFED"/>
</linearGradient>
<linearGradient id="paint19_linear_3300_10962" x1="273.702" y1="336.947" x2="154.194" y2="-140.084" gradientUnits="userSpaceOnUse">
<stop offset="0.121234" stop-color="#F1EFED"/>
<stop offset="0.488143" stop-color="#DDDDDD" stop-opacity="0.22"/>
<stop offset="0.897958" stop-color="#F1EFED"/>
</linearGradient>
<linearGradient id="paint20_linear_3300_10962" x1="273.702" y1="336.947" x2="154.194" y2="-140.084" gradientUnits="userSpaceOnUse">
<stop offset="0.121234" stop-color="#F1EFED"/>
<stop offset="0.488143" stop-color="#DDDDDD" stop-opacity="0.22"/>
<stop offset="0.897958" stop-color="#F1EFED"/>
</linearGradient>
<linearGradient id="paint21_linear_3300_10962" x1="273.702" y1="336.947" x2="154.194" y2="-140.084" gradientUnits="userSpaceOnUse">
<stop offset="0.121234" stop-color="#F1EFED"/>
<stop offset="0.488143" stop-color="#DDDDDD" stop-opacity="0.22"/>
<stop offset="0.897958" stop-color="#F1EFED"/>
</linearGradient>
<linearGradient id="paint22_linear_3300_10962" x1="273.702" y1="336.947" x2="154.194" y2="-140.084" gradientUnits="userSpaceOnUse">
<stop offset="0.121234" stop-color="#F1EFED"/>
<stop offset="0.488143" stop-color="#DDDDDD" stop-opacity="0.22"/>
<stop offset="0.897958" stop-color="#F1EFED"/>
</linearGradient>
<linearGradient id="paint23_linear_3300_10962" x1="273.702" y1="336.947" x2="154.194" y2="-140.084" gradientUnits="userSpaceOnUse">
<stop offset="0.121234" stop-color="#F1EFED"/>
<stop offset="0.488143" stop-color="#DDDDDD" stop-opacity="0.22"/>
<stop offset="0.897958" stop-color="#F1EFED"/>
</linearGradient>
<linearGradient id="paint24_linear_3300_10962" x1="273.702" y1="336.947" x2="154.194" y2="-140.084" gradientUnits="userSpaceOnUse">
<stop offset="0.121234" stop-color="#F1EFED"/>
<stop offset="0.488143" stop-color="#DDDDDD" stop-opacity="0.22"/>
<stop offset="0.897958" stop-color="#F1EFED"/>
</linearGradient>
<linearGradient id="paint25_linear_3300_10962" x1="273.702" y1="336.947" x2="154.194" y2="-140.084" gradientUnits="userSpaceOnUse">
<stop offset="0.121234" stop-color="#F1EFED"/>
<stop offset="0.488143" stop-color="#DDDDDD" stop-opacity="0.22"/>
<stop offset="0.897958" stop-color="#F1EFED"/>
</linearGradient>
<linearGradient id="paint26_linear_3300_10962" x1="273.702" y1="336.947" x2="154.194" y2="-140.084" gradientUnits="userSpaceOnUse">
<stop offset="0.121234" stop-color="#F1EFED"/>
<stop offset="0.488143" stop-color="#DDDDDD" stop-opacity="0.22"/>
<stop offset="0.897958" stop-color="#F1EFED"/>
</linearGradient>
<linearGradient id="paint27_linear_3300_10962" x1="273.702" y1="336.947" x2="154.194" y2="-140.084" gradientUnits="userSpaceOnUse">
<stop offset="0.121234" stop-color="#F1EFED"/>
<stop offset="0.488143" stop-color="#DDDDDD" stop-opacity="0.22"/>
<stop offset="0.897958" stop-color="#F1EFED"/>
</linearGradient>
<linearGradient id="paint28_linear_3300_10962" x1="273.702" y1="336.947" x2="154.194" y2="-140.084" gradientUnits="userSpaceOnUse">
<stop offset="0.121234" stop-color="#F1EFED"/>
<stop offset="0.488143" stop-color="#DDDDDD" stop-opacity="0.22"/>
<stop offset="0.897958" stop-color="#F1EFED"/>
</linearGradient>
<linearGradient id="paint29_linear_3300_10962" x1="273.702" y1="336.947" x2="154.194" y2="-140.084" gradientUnits="userSpaceOnUse">
<stop offset="0.121234" stop-color="#F1EFED"/>
<stop offset="0.488143" stop-color="#DDDDDD" stop-opacity="0.22"/>
<stop offset="0.897958" stop-color="#F1EFED"/>
</linearGradient>
<linearGradient id="paint30_linear_3300_10962" x1="273.702" y1="336.947" x2="154.194" y2="-140.084" gradientUnits="userSpaceOnUse">
<stop offset="0.121234" stop-color="#F1EFED"/>
<stop offset="0.488143" stop-color="#DDDDDD" stop-opacity="0.22"/>
<stop offset="0.897958" stop-color="#F1EFED"/>
</linearGradient>
<linearGradient id="paint31_linear_3300_10962" x1="273.702" y1="336.947" x2="154.194" y2="-140.084" gradientUnits="userSpaceOnUse">
<stop offset="0.121234" stop-color="#F1EFED"/>
<stop offset="0.488143" stop-color="#DDDDDD" stop-opacity="0.22"/>
<stop offset="0.897958" stop-color="#F1EFED"/>
</linearGradient>
<linearGradient id="paint32_linear_3300_10962" x1="273.702" y1="336.947" x2="154.194" y2="-140.084" gradientUnits="userSpaceOnUse">
<stop offset="0.121234" stop-color="#F1EFED"/>
<stop offset="0.488143" stop-color="#DDDDDD" stop-opacity="0.22"/>
<stop offset="0.897958" stop-color="#F1EFED"/>
</linearGradient>
<linearGradient id="paint33_linear_3300_10962" x1="273.702" y1="336.947" x2="154.194" y2="-140.084" gradientUnits="userSpaceOnUse">
<stop offset="0.121234" stop-color="#F1EFED"/>
<stop offset="0.488143" stop-color="#DDDDDD" stop-opacity="0.22"/>
<stop offset="0.897958" stop-color="#F1EFED"/>
</linearGradient>
<linearGradient id="paint34_linear_3300_10962" x1="273.702" y1="336.947" x2="154.194" y2="-140.084" gradientUnits="userSpaceOnUse">
<stop offset="0.121234" stop-color="#F1EFED"/>
<stop offset="0.488143" stop-color="#DDDDDD" stop-opacity="0.22"/>
<stop offset="0.897958" stop-color="#F1EFED"/>
</linearGradient>
<linearGradient id="paint35_linear_3300_10962" x1="273.702" y1="336.947" x2="154.194" y2="-140.084" gradientUnits="userSpaceOnUse">
<stop offset="0.121234" stop-color="#F1EFED"/>
<stop offset="0.488143" stop-color="#DDDDDD" stop-opacity="0.22"/>
<stop offset="0.897958" stop-color="#F1EFED"/>
</linearGradient>
<linearGradient id="paint36_linear_3300_10962" x1="273.702" y1="336.947" x2="154.194" y2="-140.084" gradientUnits="userSpaceOnUse">
<stop offset="0.121234" stop-color="#F1EFED"/>
<stop offset="0.488143" stop-color="#DDDDDD" stop-opacity="0.22"/>
<stop offset="0.897958" stop-color="#F1EFED"/>
</linearGradient>
<linearGradient id="paint37_linear_3300_10962" x1="273.702" y1="336.947" x2="154.194" y2="-140.084" gradientUnits="userSpaceOnUse">
<stop offset="0.121234" stop-color="#F1EFED"/>
<stop offset="0.488143" stop-color="#DDDDDD" stop-opacity="0.22"/>
<stop offset="0.897958" stop-color="#F1EFED"/>
</linearGradient>
<linearGradient id="paint38_linear_3300_10962" x1="273.702" y1="336.947" x2="154.194" y2="-140.084" gradientUnits="userSpaceOnUse">
<stop offset="0.121234" stop-color="#F1EFED"/>
<stop offset="0.488143" stop-color="#DDDDDD" stop-opacity="0.22"/>
<stop offset="0.897958" stop-color="#F1EFED"/>
</linearGradient>
<linearGradient id="paint39_linear_3300_10962" x1="273.702" y1="336.947" x2="154.194" y2="-140.084" gradientUnits="userSpaceOnUse">
<stop offset="0.121234" stop-color="#F1EFED"/>
<stop offset="0.488143" stop-color="#DDDDDD" stop-opacity="0.22"/>
<stop offset="0.897958" stop-color="#F1EFED"/>
</linearGradient>
<linearGradient id="paint40_linear_3300_10962" x1="273.702" y1="336.947" x2="154.194" y2="-140.084" gradientUnits="userSpaceOnUse">
<stop offset="0.121234" stop-color="#F1EFED"/>
<stop offset="0.488143" stop-color="#DDDDDD" stop-opacity="0.22"/>
<stop offset="0.897958" stop-color="#F1EFED"/>
</linearGradient>
<linearGradient id="paint41_linear_3300_10962" x1="273.702" y1="336.947" x2="154.194" y2="-140.084" gradientUnits="userSpaceOnUse">
<stop offset="0.121234" stop-color="#F1EFED"/>
<stop offset="0.488143" stop-color="#DDDDDD" stop-opacity="0.22"/>
<stop offset="0.897958" stop-color="#F1EFED"/>
</linearGradient>
<linearGradient id="paint42_linear_3300_10962" x1="273.702" y1="336.947" x2="154.194" y2="-140.084" gradientUnits="userSpaceOnUse">
<stop offset="0.121234" stop-color="#F1EFED"/>
<stop offset="0.488143" stop-color="#DDDDDD" stop-opacity="0.22"/>
<stop offset="0.897958" stop-color="#F1EFED"/>
</linearGradient>
<linearGradient id="paint43_linear_3300_10962" x1="273.702" y1="336.947" x2="154.194" y2="-140.084" gradientUnits="userSpaceOnUse">
<stop offset="0.121234" stop-color="#F1EFED"/>
<stop offset="0.488143" stop-color="#DDDDDD" stop-opacity="0.22"/>
<stop offset="0.897958" stop-color="#F1EFED"/>
</linearGradient>
<linearGradient id="paint44_linear_3300_10962" x1="273.702" y1="336.947" x2="154.194" y2="-140.084" gradientUnits="userSpaceOnUse">
<stop offset="0.121234" stop-color="#F1EFED"/>
<stop offset="0.488143" stop-color="#DDDDDD" stop-opacity="0.22"/>
<stop offset="0.897958" stop-color="#F1EFED"/>
</linearGradient>
<linearGradient id="paint45_linear_3300_10962" x1="273.702" y1="336.947" x2="154.194" y2="-140.084" gradientUnits="userSpaceOnUse">
<stop offset="0.121234" stop-color="#F1EFED"/>
<stop offset="0.488143" stop-color="#DDDDDD" stop-opacity="0.22"/>
<stop offset="0.897958" stop-color="#F1EFED"/>
</linearGradient>
<linearGradient id="paint46_linear_3300_10962" x1="273.702" y1="336.947" x2="154.194" y2="-140.084" gradientUnits="userSpaceOnUse">
<stop offset="0.121234" stop-color="#F1EFED"/>
<stop offset="0.488143" stop-color="#DDDDDD" stop-opacity="0.22"/>
<stop offset="0.897958" stop-color="#F1EFED"/>
</linearGradient>
<linearGradient id="paint47_linear_3300_10962" x1="273.702" y1="336.947" x2="154.194" y2="-140.084" gradientUnits="userSpaceOnUse">
<stop offset="0.121234" stop-color="#F1EFED"/>
<stop offset="0.488143" stop-color="#DDDDDD" stop-opacity="0.22"/>
<stop offset="0.897958" stop-color="#F1EFED"/>
</linearGradient>
<linearGradient id="paint48_linear_3300_10962" x1="273.702" y1="336.947" x2="154.194" y2="-140.084" gradientUnits="userSpaceOnUse">
<stop offset="0.121234" stop-color="#F1EFED"/>
<stop offset="0.488143" stop-color="#DDDDDD" stop-opacity="0.22"/>
<stop offset="0.897958" stop-color="#F1EFED"/>
</linearGradient>
<linearGradient id="paint49_linear_3300_10962" x1="273.702" y1="336.947" x2="154.194" y2="-140.084" gradientUnits="userSpaceOnUse">
<stop offset="0.121234" stop-color="#F1EFED"/>
<stop offset="0.488143" stop-color="#DDDDDD" stop-opacity="0.22"/>
<stop offset="0.897958" stop-color="#F1EFED"/>
</linearGradient>
<linearGradient id="paint50_linear_3300_10962" x1="273.702" y1="336.947" x2="154.194" y2="-140.084" gradientUnits="userSpaceOnUse">
<stop offset="0.121234" stop-color="#F1EFED"/>
<stop offset="0.488143" stop-color="#DDDDDD" stop-opacity="0.22"/>
<stop offset="0.897958" stop-color="#F1EFED"/>
</linearGradient>
<linearGradient id="paint51_linear_3300_10962" x1="273.702" y1="336.947" x2="154.194" y2="-140.084" gradientUnits="userSpaceOnUse">
<stop offset="0.121234" stop-color="#F1EFED"/>
<stop offset="0.488143" stop-color="#DDDDDD" stop-opacity="0.22"/>
<stop offset="0.897958" stop-color="#F1EFED"/>
</linearGradient>
<linearGradient id="paint52_linear_3300_10962" x1="273.702" y1="336.947" x2="154.194" y2="-140.084" gradientUnits="userSpaceOnUse">
<stop offset="0.121234" stop-color="#F1EFED"/>
<stop offset="0.488143" stop-color="#DDDDDD" stop-opacity="0.22"/>
<stop offset="0.897958" stop-color="#F1EFED"/>
</linearGradient>
<linearGradient id="paint53_linear_3300_10962" x1="273.702" y1="336.947" x2="154.194" y2="-140.084" gradientUnits="userSpaceOnUse">
<stop offset="0.121234" stop-color="#F1EFED"/>
<stop offset="0.488143" stop-color="#DDDDDD" stop-opacity="0.22"/>
<stop offset="0.897958" stop-color="#F1EFED"/>
</linearGradient>
<linearGradient id="paint54_linear_3300_10962" x1="273.702" y1="336.947" x2="154.194" y2="-140.084" gradientUnits="userSpaceOnUse">
<stop offset="0.121234" stop-color="#F1EFED"/>
<stop offset="0.488143" stop-color="#DDDDDD" stop-opacity="0.22"/>
<stop offset="0.897958" stop-color="#F1EFED"/>
</linearGradient>
<linearGradient id="paint55_linear_3300_10962" x1="273.702" y1="336.947" x2="154.194" y2="-140.084" gradientUnits="userSpaceOnUse">
<stop offset="0.121234" stop-color="#F1EFED"/>
<stop offset="0.488143" stop-color="#DDDDDD" stop-opacity="0.22"/>
<stop offset="0.897958" stop-color="#F1EFED"/>
</linearGradient>
<linearGradient id="paint56_linear_3300_10962" x1="273.702" y1="336.947" x2="154.194" y2="-140.084" gradientUnits="userSpaceOnUse">
<stop offset="0.121234" stop-color="#F1EFED"/>
<stop offset="0.488143" stop-color="#DDDDDD" stop-opacity="0.22"/>
<stop offset="0.897958" stop-color="#F1EFED"/>
</linearGradient>
<linearGradient id="paint57_linear_3300_10962" x1="273.702" y1="336.947" x2="154.194" y2="-140.084" gradientUnits="userSpaceOnUse">
<stop offset="0.121234" stop-color="#F1EFED"/>
<stop offset="0.488143" stop-color="#DDDDDD" stop-opacity="0.22"/>
<stop offset="0.897958" stop-color="#F1EFED"/>
</linearGradient>
<linearGradient id="paint58_linear_3300_10962" x1="273.702" y1="336.947" x2="154.194" y2="-140.084" gradientUnits="userSpaceOnUse">
<stop offset="0.121234" stop-color="#F1EFED"/>
<stop offset="0.488143" stop-color="#DDDDDD" stop-opacity="0.22"/>
<stop offset="0.897958" stop-color="#F1EFED"/>
</linearGradient>
<linearGradient id="paint59_linear_3300_10962" x1="273.702" y1="336.947" x2="154.194" y2="-140.084" gradientUnits="userSpaceOnUse">
<stop offset="0.121234" stop-color="#F1EFED"/>
<stop offset="0.488143" stop-color="#DDDDDD" stop-opacity="0.22"/>
<stop offset="0.897958" stop-color="#F1EFED"/>
</linearGradient>
<linearGradient id="paint60_linear_3300_10962" x1="273.702" y1="336.947" x2="154.194" y2="-140.084" gradientUnits="userSpaceOnUse">
<stop offset="0.121234" stop-color="#F1EFED"/>
<stop offset="0.488143" stop-color="#DDDDDD" stop-opacity="0.22"/>
<stop offset="0.897958" stop-color="#F1EFED"/>
</linearGradient>
<linearGradient id="paint61_linear_3300_10962" x1="273.702" y1="336.947" x2="154.194" y2="-140.084" gradientUnits="userSpaceOnUse">
<stop offset="0.121234" stop-color="#F1EFED"/>
<stop offset="0.488143" stop-color="#DDDDDD" stop-opacity="0.22"/>
<stop offset="0.897958" stop-color="#F1EFED"/>
</linearGradient>
<linearGradient id="paint62_linear_3300_10962" x1="273.702" y1="336.947" x2="154.194" y2="-140.084" gradientUnits="userSpaceOnUse">
<stop offset="0.121234" stop-color="#F1EFED"/>
<stop offset="0.488143" stop-color="#DDDDDD" stop-opacity="0.22"/>
<stop offset="0.897958" stop-color="#F1EFED"/>
</linearGradient>
<linearGradient id="paint63_linear_3300_10962" x1="273.702" y1="336.947" x2="154.194" y2="-140.084" gradientUnits="userSpaceOnUse">
<stop offset="0.121234" stop-color="#F1EFED"/>
<stop offset="0.488143" stop-color="#DDDDDD" stop-opacity="0.22"/>
<stop offset="0.897958" stop-color="#F1EFED"/>
</linearGradient>
<linearGradient id="paint64_linear_3300_10962" x1="273.702" y1="336.947" x2="154.194" y2="-140.084" gradientUnits="userSpaceOnUse">
<stop offset="0.121234" stop-color="#F1EFED"/>
<stop offset="0.488143" stop-color="#DDDDDD" stop-opacity="0.22"/>
<stop offset="0.897958" stop-color="#F1EFED"/>
</linearGradient>
<linearGradient id="paint65_linear_3300_10962" x1="273.702" y1="336.947" x2="154.194" y2="-140.084" gradientUnits="userSpaceOnUse">
<stop offset="0.121234" stop-color="#F1EFED"/>
<stop offset="0.488143" stop-color="#DDDDDD" stop-opacity="0.22"/>
<stop offset="0.897958" stop-color="#F1EFED"/>
</linearGradient>
<linearGradient id="paint66_linear_3300_10962" x1="273.702" y1="336.947" x2="154.194" y2="-140.084" gradientUnits="userSpaceOnUse">
<stop offset="0.121234" stop-color="#F1EFED"/>
<stop offset="0.488143" stop-color="#DDDDDD" stop-opacity="0.22"/>
<stop offset="0.897958" stop-color="#F1EFED"/>
</linearGradient>
<linearGradient id="paint67_linear_3300_10962" x1="273.702" y1="336.947" x2="154.194" y2="-140.084" gradientUnits="userSpaceOnUse">
<stop offset="0.121234" stop-color="#F1EFED"/>
<stop offset="0.488143" stop-color="#DDDDDD" stop-opacity="0.22"/>
<stop offset="0.897958" stop-color="#F1EFED"/>
</linearGradient>
<linearGradient id="paint68_linear_3300_10962" x1="273.702" y1="336.947" x2="154.194" y2="-140.084" gradientUnits="userSpaceOnUse">
<stop offset="0.121234" stop-color="#F1EFED"/>
<stop offset="0.488143" stop-color="#DDDDDD" stop-opacity="0.22"/>
<stop offset="0.897958" stop-color="#F1EFED"/>
</linearGradient>
<linearGradient id="paint69_linear_3300_10962" x1="273.702" y1="336.947" x2="154.194" y2="-140.084" gradientUnits="userSpaceOnUse">
<stop offset="0.121234" stop-color="#F1EFED"/>
<stop offset="0.488143" stop-color="#DDDDDD" stop-opacity="0.22"/>
<stop offset="0.897958" stop-color="#F1EFED"/>
</linearGradient>
<linearGradient id="paint70_linear_3300_10962" x1="273.702" y1="336.947" x2="154.194" y2="-140.084" gradientUnits="userSpaceOnUse">
<stop offset="0.121234" stop-color="#F1EFED"/>
<stop offset="0.488143" stop-color="#DDDDDD" stop-opacity="0.22"/>
<stop offset="0.897958" stop-color="#F1EFED"/>
</linearGradient>
<linearGradient id="paint71_linear_3300_10962" x1="273.702" y1="336.947" x2="154.194" y2="-140.084" gradientUnits="userSpaceOnUse">
<stop offset="0.121234" stop-color="#F1EFED"/>
<stop offset="0.488143" stop-color="#DDDDDD" stop-opacity="0.22"/>
<stop offset="0.897958" stop-color="#F1EFED"/>
</linearGradient>
<clipPath id="clip0_3300_10962">
<rect width="585" height="707" fill="white"/>
</clipPath>
</defs>
</svg>
