<svg width="375" height="708" viewBox="0 0 375 708" fill="none" xmlns="http://www.w3.org/2000/svg">
<g clip-path="url(#clip0_24683_39240)">
<path d="M244.835 386.043H229.11V443.7H208.144V320H184.266V443.7H160.388V320H136.51V416.444H112.632V320H88.7542V395.478H64.8762V320H40.9982V416.444L17.1202 395.478V320H-6.75781V361.932M-6.75781 587.317V552.723M57.1887 612.477H30.9811V535.95H160.388M160.388 535.95H197.661V577.883V670.133H258.463V634.491M160.388 535.95V465.714H287.815M160.388 707.872H112.632M112.632 707.872H64.8762V653.36L40.9982 634.491M112.632 707.872L112.632 653.36M421.998 320H272.091V349.352H333.941V386.043H361.196V465.714H287.815M287.815 465.714V487.728L239.593 497.163" stroke="url(#paint0_linear_24683_39240)" stroke-width="2.09661"/>
<g opacity="0.2">
<path d="M182.429 -13.3299C182.429 -13.6466 182.454 -13.9239 182.497 -14.1658L206.43 9.74771L182.497 33.676C182.454 33.4385 182.429 33.1633 182.429 32.8457V-13.3299Z" fill="#8F8E93" stroke="#8F8E93" stroke-width="2.73368"/>
<path d="M226.406 7.9284L226.411 7.93099C227.621 8.61238 227.906 9.32324 227.906 9.7474C227.906 10.1739 227.618 10.8906 226.406 11.5823C226.405 11.5826 226.405 11.5828 226.405 11.5831L216.91 16.9783L209.686 9.75521L216.91 2.53216L226.406 7.9284Z" fill="#8F8E93" stroke="#8F8E93" stroke-width="2.73368"/>
<path d="M184.544 35.1918L208.053 11.6867L214.637 18.2689L185.689 34.733C185.688 34.7339 185.686 34.7349 185.684 34.7358C185.25 34.9773 184.871 35.1202 184.544 35.1918Z" stroke="#8F8E93" stroke-width="2.73368"/>
<path d="M185.679 -15.2025L214.636 1.2421L208.053 7.8239L184.531 -15.6696C184.86 -15.5985 185.241 -15.4532 185.676 -15.2042L185.676 -15.2042L185.679 -15.2025Z" fill="#F1EFED" stroke="#8F8E93" stroke-width="2.73368"/>
<path d="M205.869 153.403L162.722 153.403L170.43 104.121L170.43 104.121C170.437 104.078 170.47 104.044 170.514 104.036C170.557 104.029 170.601 104.05 170.621 104.089L170.626 104.098L170.631 104.107L178.91 119.036L180.107 121.195L181.301 119.035L184.528 113.198L184.535 113.186L184.541 113.174C184.558 113.141 184.593 113.12 184.632 113.12C184.67 113.12 184.705 113.141 184.722 113.174C184.722 113.174 184.722 113.174 184.722 113.174L205.869 153.403Z" fill="#F1EFED" stroke="#8F8E93" stroke-width="2.73368"/>
<path d="M181.064 118.77L162.141 154.772" stroke="#8F8E93" stroke-width="2.73368"/>
<path d="M163.367 154.459L200.519 117.272C200.519 117.272 200.519 117.272 200.519 117.272C200.547 117.244 200.586 117.236 200.621 117.247L201.037 115.945L200.621 117.247C200.658 117.259 200.684 117.289 200.691 117.325C200.691 117.325 200.692 117.326 200.692 117.327L206.629 154.04L186.021 165.489L186.019 165.49C185.098 166.004 183.976 166.005 183.054 165.491C183.054 165.491 183.054 165.491 183.054 165.49L163.367 154.459Z" fill="#8F8E93" stroke="#8F8E93" stroke-width="2.73368"/>
<path d="M352.407 164.968C352.643 164.799 352.923 164.704 353.212 164.696H353.256H369.047L351.287 217.277C351.19 217.565 351.005 217.815 350.757 217.992C350.51 218.17 350.214 218.265 349.909 218.265C349.909 218.265 349.909 218.265 349.909 218.265H336.138H336.137C335.907 218.265 335.68 218.211 335.475 218.106C335.27 218.001 335.093 217.848 334.959 217.662C334.825 217.475 334.737 217.259 334.703 217.032C334.669 216.805 334.69 216.573 334.763 216.355C334.763 216.355 334.763 216.355 334.763 216.355L351.878 165.684L351.878 165.684C351.975 165.396 352.16 165.145 352.407 164.968Z" fill="#F1EFED" stroke="#8F8E93" stroke-width="2.73368"/>
<path d="M383.954 218.263H369.988H369.988C369.616 218.263 369.258 218.122 368.986 217.869C368.986 217.869 368.986 217.869 368.986 217.869L351.083 201.172H377.999L383.954 218.263ZM350.908 201.172H350.91C350.909 201.172 350.909 201.172 350.908 201.172Z" fill="#F1EFED" stroke="#8F8E93" stroke-width="2.73368"/>
<path d="M374.565 165.68L374.565 165.681L391.68 216.354L391.68 216.354C391.753 216.571 391.774 216.804 391.74 217.031C391.706 217.258 391.618 217.474 391.484 217.661L392.594 218.458L391.484 217.661C391.35 217.848 391.173 218 390.968 218.105C390.763 218.21 390.536 218.265 390.306 218.265C390.306 218.265 390.306 218.265 390.306 218.265H374.509C374.608 217.998 374.68 217.72 374.722 217.436L373.37 217.233L374.722 217.436C374.821 216.779 374.761 216.108 374.548 215.479L357.433 164.806L357.433 164.806C357.421 164.769 357.408 164.732 357.394 164.695H373.19H373.19C373.494 164.695 373.79 164.79 374.037 164.967C374.283 165.144 374.468 165.393 374.565 165.68Z" fill="#8F8E93" stroke="#8F8E93" stroke-width="2.73368"/>
<path d="M223.255 308.984L231.912 301.295L223.255 293.606V308.984ZM254.42 277.843C252.881 276.305 249.995 274.383 245.186 274.383C239.992 274.383 234.605 275.729 230.758 277.074V255.16H223.062V288.416L228.449 285.917C228.449 285.917 237.298 281.88 244.993 281.88C248.841 281.88 249.803 283.994 249.803 285.917V308.984H257.498V285.917C257.69 285.34 257.69 281.111 254.42 277.843ZM244.224 267.655H251.919C255.382 263.618 257.113 259.581 257.69 255.16H249.995C249.226 259.581 247.302 263.618 244.224 267.655Z" fill="#8F8E93" stroke="#8F8E93" stroke-width="1.82245"/>
<path d="M321.598 70.104C322.652 67.2654 324.29 64.6707 326.414 62.4913C328.997 59.8416 332.213 57.8934 335.759 56.8308C339.304 55.7683 343.063 55.6264 346.679 56.4188C350.064 57.1607 353.22 58.6985 355.886 60.9004L355.772 61.8879L351.36 66.296H350.626C347.87 64.222 344.448 63.2169 340.998 63.4791C337.501 63.7448 334.231 65.2924 331.811 67.8176C331.659 67.898 331.539 67.9896 331.458 68.0582C331.266 68.2203 331.108 68.4079 331.004 68.5401C331 68.5455 330.996 68.5508 330.992 68.5561L321.598 70.104Z" stroke="#8F8E93" stroke-width="2.73368"/>
<path d="M363.086 71.974L363.219 72.4638L363.64 72.7481C366.372 74.5946 368.437 77.2707 369.528 80.3803C370.62 83.4899 370.682 86.8681 369.703 90.0152C368.725 93.1622 366.758 95.9112 364.095 97.8553C361.431 99.7994 358.212 100.835 354.914 100.81V100.81H354.903H342.606L342.125 100.328V93.7478L342.612 93.2541H354.903C355.927 93.2541 356.941 93.0526 357.887 92.661C358.833 92.2694 359.692 91.6955 360.417 90.9719C361.141 90.2483 361.715 89.3892 362.107 88.4436C362.499 87.498 362.701 86.4845 362.701 85.461C362.701 84.4374 362.499 83.4239 362.107 82.4783C361.715 81.5327 361.141 80.6736 360.417 79.95C359.692 79.2264 358.833 78.6525 357.887 78.2609C357.365 78.045 356.823 77.8869 356.27 77.7885V77.7657C356.308 75.6201 355.86 73.4937 354.958 71.5462C354.266 70.0516 353.32 68.6923 352.167 67.5266L357.443 62.2546C360.136 64.9411 362.085 68.2904 363.086 71.974Z" fill="#8F8E93" stroke="#8F8E93" stroke-width="2.73368"/>
<path d="M329.161 100.738L329.155 100.738C326.11 100.752 323.137 99.8549 320.615 98.174L320.748 97.6442L325.424 93.0043L326.439 92.6897C327.308 93.015 328.23 93.1826 329.161 93.1828H329.161H340.657V100.738L329.161 100.738Z" stroke="#8F8E93" stroke-width="2.73368"/>
<path d="M320.259 73.0037C322.852 71.1304 325.966 70.1129 329.166 70.0935C331.532 70.0853 333.869 70.6241 335.992 71.6676C337.758 72.5356 339.337 73.7333 340.645 75.1921L335.287 80.5465C334.904 80.0622 334.463 79.6233 333.972 79.2403C332.978 78.4639 331.811 77.9402 330.57 77.7139C329.329 77.4876 328.052 77.5655 326.848 77.9409C325.644 78.3163 324.548 78.978 323.656 79.8694C322.764 80.7608 322.102 81.8553 321.726 83.0589C321.35 84.2626 321.272 85.5394 321.499 86.7798C321.725 88.0202 322.25 89.1871 323.027 90.1803C323.41 90.6698 323.848 91.1099 324.332 91.4926L318.976 96.8444C316.907 94.9809 315.377 92.5843 314.562 89.9068C313.631 86.8475 313.68 83.5742 314.701 80.5439C315.723 77.5135 317.666 74.8774 320.259 73.0037Z" fill="#8F8E93" stroke="#8F8E93" stroke-width="2.73368"/>
</g>
<path d="M-53.953 99.7963H81.8198L136.493 25.0757H153.807M230.35 37.8329V95.2402H284.112M375.842 -46V37.8329H355.087V-46H334.331V19.6084H313.575V-46H292.82V37.8329L272.064 19.6084V-46H251.308V-9.55091L230.35 -27.7755H209.392M-74 134.423V159.937H126.47V186.363H163.83M251.308 156.292V186.363H163.83M163.83 186.363V278.397H142.872H179.321M306.893 208.232H284.112M179.321 278.397H197.546V227.368M179.321 278.397V319.402H202.102M284.112 208.232H197.546V227.368M284.112 208.232V141.713M355.087 243.77L355.087 291.154H313.575V243.77L292.82 227.368H197.546" stroke="url(#paint1_linear_24683_39240)" stroke-width="1.82245"/>
<g opacity="0.2">
<path d="M289.489 384.951L289.94 385.747L290.398 384.955L292.28 381.706L292.281 381.703C293.296 379.928 295.564 379.324 297.35 380.343C299.126 381.358 299.73 383.623 298.711 385.406C298.711 385.406 298.711 385.407 298.711 385.407L280.583 416.76L280.129 417.547H281.037H294.149C296.047 417.547 297.544 418.656 298.365 420.197C299.142 421.654 299.285 423.446 298.608 424.947H260.493C258.436 424.947 256.79 423.301 256.79 421.247C256.79 419.193 258.436 417.547 260.493 417.547H271.27H271.573L271.724 417.285L285.521 393.391L285.672 393.129L285.521 392.867L281.213 385.395C281.213 385.395 281.213 385.395 281.213 385.395C280.196 383.615 280.794 381.37 282.577 380.331C284.358 379.315 286.604 379.913 287.644 381.693C287.644 381.694 287.645 381.695 287.645 381.696L289.489 384.951ZM269.121 436.605L269.12 436.606C268.104 438.382 265.836 438.986 264.051 437.966C262.274 436.952 261.67 434.687 262.689 432.904C262.69 432.903 262.69 432.903 262.69 432.903L265.604 427.863C267.156 427.413 268.533 427.384 269.759 427.737C270.939 428.077 272.018 428.783 273 429.882L269.121 436.605ZM308.189 417.308L308.34 417.57H308.642H319.64C321.697 417.57 323.344 419.216 323.344 421.27C323.344 423.324 321.697 424.97 319.64 424.97H313.532H312.624L313.078 425.756L317.2 432.903C317.2 432.903 317.2 432.903 317.2 432.903C318.217 434.683 317.619 436.928 315.836 437.968C314.055 438.984 311.808 438.384 310.768 436.604C306.906 429.91 303.579 424.156 300.792 419.333C298.567 415.484 296.685 412.23 295.149 409.566L295.148 409.565C291.967 404.082 293.905 398.616 296.06 396.352C298.391 400.352 301.619 405.938 305.757 413.099C306.535 414.447 307.346 415.85 308.189 417.308Z" fill="#8F8E93" stroke="#8F8E93" stroke-width="1.0483"/>
<path d="M113.552 563.597C113.823 563.403 114.145 563.294 114.478 563.284H114.529H132.695L112.263 623.775C112.263 623.775 112.263 623.775 112.263 623.775C112.151 624.106 111.938 624.394 111.654 624.598L112.571 625.876L111.654 624.598C111.37 624.802 111.028 624.912 110.678 624.912C110.678 624.912 110.678 624.912 110.678 624.912H94.8348H94.8347C94.5696 624.912 94.3084 624.849 94.0726 624.729L93.4111 626.019L94.0726 624.729C93.8369 624.608 93.6334 624.433 93.4791 624.218C93.3247 624.003 93.2238 623.755 93.1846 623.493C93.1454 623.232 93.169 622.965 93.2536 622.715C93.2536 622.715 93.2536 622.715 93.2536 622.714L112.943 564.421L112.943 564.421C113.054 564.09 113.267 563.802 113.552 563.597Z" fill="#F1EFED" stroke="#8F8E93" stroke-width="3.14491"/>
<path d="M149.847 624.911H133.78H133.78C133.352 624.911 132.94 624.749 132.627 624.457L112.031 605.248H142.996L149.847 624.911ZM111.83 605.248H111.832C111.831 605.248 111.831 605.248 111.83 605.248V605.248Z" fill="#F1EFED" stroke="#8F8E93" stroke-width="3.14491"/>
<path d="M139.043 564.417L139.043 564.417L158.733 622.713L158.733 622.713C158.817 622.964 158.841 623.231 158.802 623.492C158.763 623.754 158.662 624.002 158.508 624.217C158.353 624.432 158.15 624.607 157.914 624.728C157.678 624.849 157.417 624.912 157.152 624.912C157.152 624.912 157.152 624.912 157.152 624.912H138.979C139.093 624.605 139.175 624.285 139.224 623.958C139.337 623.202 139.269 622.431 139.024 621.707C139.024 621.707 139.024 621.707 139.024 621.707L119.334 563.411L119.334 563.411C119.32 563.368 119.305 563.326 119.289 563.283H137.462H137.462C137.811 563.283 138.152 563.393 138.435 563.596C138.719 563.8 138.931 564.087 139.043 564.417Z" fill="#8F8E93" stroke="#8F8E93" stroke-width="3.14491"/>
<path d="M283.548 582.537L284.03 580.57C285.743 573.588 284.59 564.99 280.352 556.899L280.817 556.656L280.352 556.899C280.192 556.592 279.837 556.496 279.546 556.678C279.546 556.678 279.546 556.678 279.546 556.678L266.195 565.023C265.929 565.189 265.848 565.54 266.014 565.806L267.972 568.939L267.972 568.939C268.138 569.205 268.488 569.286 268.754 569.12L277.406 563.711L277.963 563.363L278.179 563.983C278.473 564.825 278.737 565.675 278.963 566.533C278.963 566.533 278.963 566.533 278.963 566.533L278.456 566.666C279.288 569.833 279.598 572.924 279.377 575.852L283.548 582.537ZM283.548 582.537L284.924 581.051C286.478 579.374 287.892 577.522 289.148 575.512C291.114 572.365 292.567 569.038 293.465 565.623M283.548 582.537L292.958 565.49M294.402 556.264C293.982 550.698 291.707 546.272 287.909 543.899C284.111 541.525 279.138 541.419 273.952 543.482C271.164 544.591 268.473 546.257 265.954 548.427C263.278 550.731 260.926 553.496 258.96 556.644C256.994 559.791 255.541 563.118 254.643 566.533L254.643 566.533C253.797 569.75 253.48 572.899 253.706 575.892C254.125 581.458 256.4 585.883 260.198 588.257C262.092 589.441 264.284 590.062 266.65 590.129L266.663 590.13L266.676 590.129C266.711 590.129 266.733 590.13 266.789 590.13C266.804 590.13 266.818 590.13 266.832 590.13C266.847 590.13 266.86 590.13 266.872 590.129C266.88 590.129 266.888 590.129 266.895 590.129C266.909 590.129 266.921 590.129 266.932 590.13L266.945 590.13L266.957 590.129C269.322 590.062 271.514 589.441 273.407 588.257C277.205 585.883 279.48 581.458 279.9 575.892L293.879 556.303M294.402 556.264L293.879 556.303M294.402 556.264C294.402 556.264 294.402 556.264 294.402 556.264L293.879 556.303M294.402 556.264C294.628 559.257 294.311 562.406 293.465 565.623M293.879 556.303C294.101 559.232 293.79 562.323 292.958 565.49M293.465 565.623C293.465 565.623 293.465 565.623 293.465 565.623L292.958 565.49M293.465 565.623L292.958 565.49M284.539 580.695L284.155 580.339C284.363 580.114 284.568 579.887 284.771 579.656C284.701 580.006 284.623 580.352 284.539 580.695ZM284.539 580.695L285.048 580.82C285.123 580.515 285.193 580.207 285.257 579.896C285.021 580.167 284.782 580.433 284.539 580.695ZM277.684 564.155L277.962 564.6L277.858 564.665C277.801 564.495 277.743 564.325 277.684 564.155ZM277.684 564.155L277.189 564.328C277.202 564.365 277.215 564.403 277.228 564.44L277.684 564.155ZM240.141 565.623L240.141 565.623C241.038 569.038 242.492 572.365 244.458 575.512C245.714 577.522 247.129 579.375 248.683 581.052L250.059 582.538L249.576 580.571C247.662 572.77 249.325 562.953 254.865 554.084L254.42 553.806L254.865 554.084C256.955 550.738 259.412 547.826 262.082 545.406L262.64 544.9L261.973 544.552C261.21 544.155 260.438 543.794 259.654 543.482C254.468 541.419 249.494 541.525 245.696 543.899C241.898 546.272 239.623 550.698 239.203 556.264L239.203 556.264C238.978 559.257 239.295 562.406 240.141 565.623ZM266.521 541.599L266.801 541.774L267.08 541.599C275.018 536.599 283.829 535.652 290.468 539.802C295.715 543.081 298.694 548.967 299.217 555.901C299.74 562.834 297.799 570.778 293.243 578.072C286.516 588.84 276.041 595.077 266.81 594.961V594.961L266.797 594.961C257.565 595.077 247.09 588.84 240.363 578.072C235.806 570.778 233.865 562.834 234.389 555.901C234.912 548.967 237.891 543.082 243.138 539.802L243.138 539.802C249.776 535.653 258.584 536.6 266.521 541.599Z" fill="#8F8E93" stroke="#8F8E93" stroke-width="1.0483"/>
<path d="M247.858 666.659C247.682 666.5 247.622 666.357 247.607 666.264C247.592 666.171 247.616 666.101 247.651 666.054C247.701 665.988 247.908 665.831 248.333 666.084L248.333 666.084L248.338 666.087C262.059 674.041 278.977 678.857 296.477 678.857C308.289 678.857 321.261 676.4 333.2 671.356L333.2 671.357L333.212 671.351C333.887 671.045 334.427 671.285 334.652 671.61C334.766 671.774 334.811 671.968 334.768 672.171C334.725 672.373 334.582 672.634 334.228 672.896C323.75 680.629 308.486 684.753 295.351 684.753C276.95 684.753 260.376 677.955 247.858 666.659ZM247.858 666.659L247.507 667.048L247.858 666.659Z" fill="#8F8E93" stroke="#8F8E93" stroke-width="1.0483"/>
<path d="M336.635 680.553C337.278 678.963 338.325 676.353 339.04 673.922C339.398 672.709 339.68 671.518 339.783 670.509C339.835 670.005 339.844 669.529 339.788 669.108C339.733 668.694 339.609 668.292 339.36 667.977C339.114 667.661 338.756 667.441 338.367 667.282C337.974 667.121 337.51 667.007 337.009 666.927C336.007 666.766 334.787 666.729 333.526 666.76C330.999 666.821 328.216 667.154 326.497 667.362L326.497 667.362L326.496 667.363C326.334 667.383 326.248 667.362 326.213 667.348C326.216 667.326 326.227 667.284 326.261 667.223C326.317 667.124 326.424 666.996 326.607 666.863C329.512 664.827 333.389 664.082 336.719 664.034C338.379 664.011 339.881 664.161 341.028 664.399C341.603 664.519 342.077 664.658 342.434 664.803C342.805 664.954 342.985 665.086 343.045 665.158M336.635 680.553C336.635 680.553 336.635 680.553 336.635 680.554L336.149 680.357L336.635 680.552C336.635 680.552 336.635 680.552 336.635 680.553ZM336.635 680.553C336.575 680.703 336.573 680.792 336.578 680.829M336.578 680.829C336.564 680.828 336.557 680.825 336.557 680.826C336.557 680.826 336.557 680.826 336.558 680.826C336.568 680.831 336.575 680.84 336.578 680.844C336.58 680.847 336.581 680.847 336.58 680.843C336.579 680.84 336.578 680.835 336.578 680.829ZM336.578 680.829C336.6 680.832 336.64 680.831 336.704 680.814C336.81 680.785 336.958 680.714 337.128 680.569L337.131 680.567C339.851 678.28 341.596 674.718 342.514 671.512C342.971 669.915 343.217 668.428 343.279 667.264C343.31 666.681 343.294 666.191 343.241 665.816C343.186 665.424 343.099 665.227 343.045 665.158M343.045 665.158C343.046 665.159 343.046 665.16 343.047 665.161L343.452 664.828L343.043 665.156C343.044 665.157 343.044 665.158 343.045 665.158Z" fill="#8F8E93" stroke="#8F8E93" stroke-width="1.0483"/>
<path d="M-35.0287 729.276L-25.0695 720.43L-35.0287 711.585V729.276ZM0.824429 693.451C-0.946095 691.681 -4.26582 689.47 -9.79871 689.47C-15.7742 689.47 -21.9711 691.018 -26.3974 692.566V667.355H-35.25V705.614L-29.0532 702.739C-29.0532 702.739 -18.8726 698.095 -10.02 698.095C-5.59371 698.095 -4.48713 700.527 -4.48713 702.739V729.276H4.36549V702.739C4.58681 702.075 4.58679 697.21 0.824429 693.451ZM-10.9053 681.73H-2.05267C1.93102 677.086 3.92286 672.442 4.5868 667.355H-4.26582C-5.15108 672.442 -7.36424 677.086 -10.9053 681.73Z" fill="#8F8E93" stroke="#8F8E93" stroke-width="2.09661"/>
<path d="M78.1058 454.46C79.3181 451.194 81.2024 448.209 83.6461 445.702C86.6171 442.654 90.3169 440.412 94.396 439.19C98.4752 437.968 102.799 437.804 106.959 438.716C110.853 439.569 114.484 441.339 117.551 443.872L117.42 445.008L112.345 450.079H111.499C108.33 447.693 104.393 446.537 100.424 446.838C96.4011 447.144 92.6386 448.925 89.855 451.829C89.6795 451.922 89.5422 452.027 89.4487 452.106C89.2277 452.293 89.0461 452.509 88.9267 452.661C88.9218 452.667 88.917 452.673 88.9123 452.679L78.1058 454.46Z" stroke="#8F8E93" stroke-width="3.14491"/>
<path d="M125.843 456.613L125.997 457.177L126.48 457.503C129.624 459.628 131.999 462.706 133.255 466.284C134.511 469.861 134.581 473.748 133.456 477.368C132.33 480.989 130.068 484.151 127.004 486.388C123.94 488.624 120.236 489.816 116.441 489.786V489.786H116.429H102.283L101.729 489.233V481.662L102.289 481.094H116.429C117.607 481.094 118.774 480.862 119.862 480.412C120.95 479.961 121.939 479.301 122.772 478.469C123.605 477.636 124.266 476.648 124.717 475.56C125.168 474.472 125.4 473.306 125.4 472.129C125.4 470.951 125.168 469.785 124.717 468.697C124.266 467.61 123.605 466.621 122.772 465.789C121.939 464.956 120.95 464.296 119.862 463.846C119.262 463.597 118.638 463.415 118.002 463.302V463.276C118.046 460.808 117.53 458.361 116.492 456.121C115.696 454.401 114.609 452.838 113.282 451.497L119.352 445.432C122.45 448.522 124.692 452.375 125.843 456.613Z" fill="#8F8E93" stroke="#8F8E93" stroke-width="3.14491"/>
<path d="M86.8129 489.703L86.8061 489.703C83.3026 489.718 79.8829 488.686 76.9813 486.752L77.1338 486.143L82.5133 480.805L83.6817 480.443C84.6813 480.817 85.7417 481.01 86.8125 481.01H86.8129H100.038V489.703L86.8129 489.703Z" stroke="#8F8E93" stroke-width="3.14491"/>
<path d="M76.57 457.796C79.5533 455.64 83.1357 454.47 86.8171 454.448C89.5393 454.438 92.2267 455.058 94.6694 456.259C96.7011 457.257 98.5175 458.635 100.023 460.313L93.8584 466.473C93.4174 465.916 92.9102 465.411 92.3461 464.97C91.2027 464.077 89.8596 463.475 88.432 463.214C87.0045 462.954 85.5351 463.044 84.1498 463.475C82.7645 463.907 81.5047 464.669 80.4784 465.694C79.4521 466.72 78.69 467.979 78.2577 469.363C77.8253 470.748 77.7356 472.217 77.9962 473.644C78.2569 475.071 78.8601 476.413 79.754 477.556C80.1945 478.119 80.6992 478.625 81.2561 479.066L75.0944 485.223C72.7133 483.079 70.9537 480.322 70.0164 477.241C68.9454 473.722 69.0013 469.956 70.1761 466.47C71.351 462.984 73.5863 459.951 76.57 457.796Z" fill="#8F8E93" stroke="#8F8E93" stroke-width="3.14491"/>
</g>
<g opacity="0.5">
<path d="M-52.5781 85.6783H38.9034V91.1948H-52.5781V85.6783Z" fill="url(#paint2_linear_24683_39240)"/>
<path d="M338.017 74.6916V127.591H343.534V74.6916H338.017Z" fill="url(#paint3_linear_24683_39240)"/>
<path d="M261.264 72.636H301.738V69.974H261.264V72.636Z" fill="url(#paint4_linear_24683_39240)"/>
<path d="M-52.5781 112.208H69.3972V115.427H-52.5781V112.208Z" fill="url(#paint5_linear_24683_39240)"/>
<path d="M332.254 140.567V134.164H364.547V140.567H332.254Z" fill="url(#paint6_linear_24683_39240)"/>
<path d="M364.547 74.6916H367.767V140.567H364.547V134.164V74.6916Z" fill="url(#paint7_linear_24683_39240)"/>
<path d="M42.1966 103.644V79.9674L76.0693 32.0061L77.7077 33.1241L43.835 79.9674V85.6783V103.644H42.1966Z" fill="url(#paint8_linear_24683_39240)"/>
<path d="M76.0693 32.0061L77.7077 33.1241L86.4737 33.1241V32.006L76.0693 32.0061Z" fill="url(#paint9_linear_24683_39240)"/>
<path d="M43.835 85.6783V103.644H65.433L79.7651 85.6783H43.835Z" fill="url(#paint10_linear_24683_39240)"/>
<path d="M141.346 55.9288L141.346 73.8942L162.944 73.8942L177.276 55.9287L141.346 55.9288Z" fill="url(#paint11_linear_24683_39240)"/>
<path d="M139.707 73.8942H141.346L141.346 55.9288L141.346 38.6301H139.707V73.8942Z" fill="url(#paint12_linear_24683_39240)"/>
<path d="M-52.5781 94.2809H38.9034V104.585H-52.5781V94.2809Z" fill="url(#paint13_linear_24683_39240)"/>
<path d="M115.203 148.008H157.599V149.41H115.203V148.008Z" fill="url(#paint14_linear_24683_39240)"/>
<path d="M115.203 144.423H157.599V146.421H115.203V144.423Z" fill="url(#paint15_linear_24683_39240)"/>
<path d="M115.203 139.5H154.17H157.599V142.836H115.203V139.5Z" fill="url(#paint16_linear_24683_39240)"/>
<path d="M154.17 139.5H157.599V117.849H154.17V139.5Z" fill="url(#paint17_linear_24683_39240)"/>
<path d="M346.62 74.6916V127.591H356.924V74.6916H346.62Z" fill="url(#paint18_linear_24683_39240)"/>
<path d="M44.8497 80.037H84.0342L80.375 84.6111H44.8497V80.037Z" fill="url(#paint19_linear_24683_39240)"/>
<path d="M101.264 140.507V174.202L96.6895 168.104V140.507H101.264Z" fill="url(#paint20_linear_24683_39240)"/>
<path fill-rule="evenodd" clip-rule="evenodd" d="M75.6349 38.7184L77.9355 35.3635H87.541L85.3124 38.7184H75.6349ZM75.1123 39.4806H84.8061L81.9702 43.7498H72.1849L75.1123 39.4806ZM68.7348 48.7811L71.6622 44.512H81.4638L78.6279 48.7811H68.7348ZM65.2848 53.8124L68.2122 49.5433H78.1216L75.2857 53.8124H65.2848ZM61.8347 58.8438L64.7621 54.5746H74.7794L71.9434 58.8438H61.8347ZM58.3847 63.8751L61.3121 59.606H71.4371L68.6012 63.8751H58.3847ZM54.9346 68.9064L57.862 64.6373H68.0949L65.2589 68.9064H54.9346ZM51.4846 73.9378L54.412 69.6686H64.7526L61.9167 73.9378H51.4846ZM50.9619 74.7H61.4104L59.1818 78.0549H48.6614L50.9619 74.7Z" fill="url(#paint21_linear_24683_39240)"/>
<path fill-rule="evenodd" clip-rule="evenodd" d="M73.529 58.8438L76.4564 54.5746H86.4736L83.6377 58.8438H73.529ZM70.0789 63.8751L73.0063 59.606H83.1314L80.2954 63.8751H70.0789ZM66.6289 68.9064L69.5563 64.6373H79.7891L76.9532 68.9064H66.6289ZM63.1788 73.9378L66.1062 69.6686H76.4469L73.611 73.9378H63.1788ZM62.6562 74.7H73.1046L70.876 78.0549H60.3557L62.6562 74.7Z" fill="url(#paint22_linear_24683_39240)"/>
<path d="M71.9761 113.013L98.3845 135.018H71.9761V113.013Z" fill="url(#paint23_linear_24683_39240)"/>
<path d="M252.329 79.1222L270.199 102.957H252.329V79.1222Z" fill="url(#paint24_linear_24683_39240)"/>
<path d="M96.6895 173.485L112.393 195.49H96.6895V173.485Z" fill="url(#paint25_linear_24683_39240)"/>
<path d="M148.162 113.013L134.958 135.018H148.162V113.013Z" fill="url(#paint26_linear_24683_39240)"/>
<path fill-rule="evenodd" clip-rule="evenodd" d="M184.131 162.962L198.386 174.428V181.429H217.292V189.662H198.386V195.456H217.292V203.384H197.776V202.165H216.072V196.676H197.166V188.442H216.072V182.649H197.166V175.012L183.367 163.913L184.131 162.962Z" fill="url(#paint27_linear_24683_39240)"/>
<path d="M349.635 23.7759H363.663V26.0629H349.635V23.7759Z" fill="url(#paint28_linear_24683_39240)"/>
<path d="M349.635 27.8925H363.663V30.1796H349.635V27.8925Z" fill="url(#paint29_linear_24683_39240)"/>
<path d="M349.635 32.0092H363.663V34.2962H349.635V32.0092Z" fill="url(#paint30_linear_24683_39240)"/>
<path d="M349.635 36.1259H363.663V38.4129H349.635V36.1259Z" fill="url(#paint31_linear_24683_39240)"/>
<path d="M349.635 40.2425H363.663V42.5296H349.635V40.2425Z" fill="url(#paint32_linear_24683_39240)"/>
<path d="M349.635 44.3592H363.663V46.6462H349.635V44.3592Z" fill="url(#paint33_linear_24683_39240)"/>
<path d="M349.635 48.4759H363.663V50.7629H349.635V48.4759Z" fill="url(#paint34_linear_24683_39240)"/>
<path d="M349.635 52.5925H363.663V54.8796H349.635V52.5925Z" fill="url(#paint35_linear_24683_39240)"/>
<path d="M349.635 56.7092H363.663V58.9962H349.635V56.7092Z" fill="url(#paint36_linear_24683_39240)"/>
<path d="M349.635 60.8259H363.663V63.1129H349.635V60.8259Z" fill="url(#paint37_linear_24683_39240)"/>
<path d="M94.4912 30.5024C94.4912 31.8497 93.399 32.9419 92.0517 32.9419C90.7044 32.9419 89.6122 31.8497 89.6122 30.5024C89.6122 29.1551 90.7044 28.0629 92.0517 28.0629C93.399 28.0629 94.4912 29.1551 94.4912 30.5024Z" fill="url(#paint38_linear_24683_39240)"/>
<path d="M181.9 77.1311C181.9 78.4784 180.808 79.5706 179.461 79.5706C178.113 79.5706 177.021 78.4784 177.021 77.1311C177.021 75.7838 178.113 74.6916 179.461 74.6916C180.808 74.6916 181.9 75.7838 181.9 77.1311Z" fill="url(#paint39_linear_24683_39240)"/>
<path d="M154.261 110.228C154.261 111.575 153.169 112.667 151.822 112.667C150.474 112.667 149.382 111.575 149.382 110.228C149.382 108.88 150.474 107.788 151.822 107.788C153.169 107.788 154.261 108.88 154.261 110.228Z" fill="url(#paint40_linear_24683_39240)"/>
<path d="M125.272 226.56C125.272 227.907 124.18 228.999 122.833 228.999C121.486 228.999 120.393 227.907 120.393 226.56C120.393 225.213 121.486 224.12 122.833 224.12C124.18 224.12 125.272 225.213 125.272 226.56Z" fill="url(#paint41_linear_24683_39240)"/>
<path d="M224.091 171.046C224.091 172.393 222.999 173.485 221.652 173.485C220.305 173.485 219.212 172.393 219.212 171.046C219.212 169.698 220.305 168.606 221.652 168.606C222.999 168.606 224.091 169.698 224.091 171.046Z" fill="url(#paint42_linear_24683_39240)"/>
<path d="M308.551 160.693C308.551 162.04 307.459 163.133 306.112 163.133C304.764 163.133 303.672 162.04 303.672 160.693C303.672 159.346 304.764 158.254 306.112 158.254C307.459 158.254 308.551 159.346 308.551 160.693Z" fill="url(#paint43_linear_24683_39240)"/>
<path d="M304.86 20.1089C304.86 21.4562 303.767 22.5484 302.42 22.5484C301.073 22.5484 299.981 21.4562 299.981 20.1089C299.981 18.7616 301.073 17.6694 302.42 17.6694C303.767 17.6694 304.86 18.7616 304.86 20.1089Z" fill="url(#paint44_linear_24683_39240)"/>
<path d="M119.459 -5.20101C119.459 -3.8537 118.367 -2.7615 117.019 -2.7615C115.672 -2.7615 114.58 -3.8537 114.58 -5.20101C114.58 -6.54831 115.672 -7.64051 117.019 -7.64051C118.367 -7.64051 119.459 -6.54831 119.459 -5.20101Z" fill="url(#paint45_linear_24683_39240)"/>
<path d="M177.65 111.598H193.202L187.103 120.746V148.496H177.65V111.598Z" fill="url(#paint46_linear_24683_39240)"/>
<path fill-rule="evenodd" clip-rule="evenodd" d="M237.76 94.5647C237.811 94.559 237.863 94.5578 237.915 94.5609L238.072 94.5704C238.123 94.5734 238.173 94.5806 238.222 94.5919L238.379 94.628C238.424 94.6384 238.469 94.6522 238.512 94.6693L238.669 94.7318C238.707 94.7467 238.744 94.7642 238.779 94.784L238.937 94.8723C238.967 94.8891 238.996 94.9075 239.024 94.9276L239.181 95.0408C239.204 95.0575 239.227 95.0752 239.248 95.0939L239.405 95.2311C239.423 95.2464 239.44 95.2624 239.456 95.2791L239.614 95.439C239.627 95.4526 239.64 95.4666 239.653 95.4809L239.81 95.6622C239.82 95.6739 239.83 95.6859 239.84 95.698L239.997 95.8991C240.005 95.9089 240.012 95.9189 240.02 95.9291L240.177 96.1481C240.183 96.1563 240.189 96.1646 240.194 96.1729L240.352 96.408C240.356 96.4146 240.36 96.4214 240.365 96.4281L240.522 96.6771C240.524 96.6799 240.526 96.6828 240.528 96.6856C240.529 96.6881 240.531 96.6906 240.532 96.6931L240.69 96.9537L240.697 96.966L240.854 97.236L240.859 97.2448L241.02 97.5274L241.179 97.8115L241.336 98.0945L241.336 98.0951L241.491 98.3741L241.493 98.3777L241.645 98.6476L241.649 98.6543L241.799 98.9172L241.95 99.1722L242.098 99.4131L242.242 99.6374L242.383 99.8422L242.531 100.042C242.832 100.447 242.746 101.02 242.34 101.321C241.934 101.622 241.361 101.537 241.061 101.131L240.903 100.918C240.897 100.909 240.89 100.901 240.884 100.892L240.727 100.662C240.722 100.655 240.717 100.648 240.712 100.64L240.555 100.397C240.553 100.393 240.55 100.39 240.548 100.386C240.547 100.384 240.545 100.381 240.544 100.379L240.386 100.122L240.378 100.109L240.221 99.8421L240.215 99.832L240.054 99.5506L239.896 99.2704L239.894 99.2668L239.737 98.9836L239.736 98.983L239.58 98.7018L239.579 98.6994L239.426 98.4258L239.423 98.4202L239.271 98.1531L239.12 97.8936L238.971 97.6471L238.825 97.4163L238.683 97.2038L238.545 97.0123L238.413 96.8443L238.29 96.7021L238.177 96.5874L238.078 96.5013L237.997 96.4431L237.938 96.41L237.902 96.3957L237.887 96.3921L237.882 96.3919L237.876 96.3926L237.855 96.3984L237.812 96.4173L237.747 96.4573L237.66 96.5234L237.557 96.6179L237.441 96.7407L237.315 96.8906L237.181 97.0657L237.042 97.2636L236.898 97.4817L236.752 97.7173L236.602 97.9679L236.45 98.2307L236.297 98.5008L236.295 98.5055L236.14 98.7833L235.983 99.0669L235.823 99.354L235.665 99.6328L235.661 99.6405L235.503 99.9132L235.497 99.9242L235.339 100.188L235.33 100.203L235.173 100.456C235.169 100.462 235.165 100.469 235.161 100.475L235.004 100.715C234.998 100.723 234.993 100.73 234.988 100.738L234.83 100.962C234.824 100.972 234.817 100.981 234.81 100.991L234.652 101.198C234.644 101.209 234.635 101.221 234.625 101.232L234.468 101.42C234.457 101.433 234.445 101.447 234.433 101.46L234.275 101.627C234.26 101.643 234.245 101.658 234.229 101.673L234.071 101.818C234.052 101.836 234.031 101.853 234.01 101.869L233.853 101.991C233.827 102.011 233.8 102.029 233.773 102.046L233.615 102.142C233.582 102.163 233.548 102.181 233.513 102.197L233.356 102.268C233.315 102.286 233.273 102.301 233.23 102.314L233.073 102.359C233.025 102.372 232.977 102.382 232.928 102.388L232.77 102.406C232.719 102.412 232.667 102.414 232.616 102.411L232.458 102.402C232.408 102.4 232.358 102.393 232.308 102.382L232.151 102.347C232.105 102.337 232.061 102.323 232.017 102.306L231.86 102.245C231.822 102.23 231.785 102.213 231.749 102.193L231.592 102.106C231.561 102.089 231.532 102.071 231.504 102.05L231.346 101.938C231.323 101.922 231.3 101.904 231.279 101.885L231.121 101.749C231.103 101.733 231.086 101.717 231.07 101.701L230.912 101.542C230.899 101.528 230.886 101.514 230.873 101.499L230.716 101.319C230.705 101.307 230.695 101.295 230.686 101.283L230.528 101.083C230.52 101.073 230.513 101.063 230.505 101.052L230.348 100.834C230.342 100.826 230.336 100.818 230.331 100.809L230.173 100.575C230.169 100.568 230.164 100.561 230.16 100.554L230.002 100.306C229.999 100.301 229.996 100.295 229.992 100.29L229.835 100.03L229.828 100.017L229.67 99.7475L229.665 99.7386L229.504 99.4561L229.347 99.1746L229.346 99.1721L229.033 98.6091L229.031 98.6056L228.877 98.3321L228.725 98.0653L228.574 97.8099L228.426 97.5683L228.281 97.3433L228.14 97.1375L228.004 96.9536L227.875 96.7939L227.755 96.6607L227.646 96.5555L227.553 96.4789L227.479 96.4296L227.428 96.4035L227.399 96.3937L227.389 96.3919L227.385 96.3919L227.375 96.3936L227.348 96.4028L227.297 96.428L227.224 96.4763L227.132 96.5517L227.024 96.6557L226.904 96.7877L226.775 96.9463L226.639 97.1293L226.499 97.3342L226.354 97.5584L226.206 97.7993L226.056 98.0543L225.903 98.3206L225.75 98.5938L225.434 99.1625L225.273 99.4497L225.116 99.7267L225.111 99.7355L224.953 100.006L224.946 100.018L224.788 100.278C224.785 100.284 224.782 100.289 224.779 100.294L224.621 100.543C224.617 100.55 224.612 100.557 224.608 100.564L224.451 100.799C224.445 100.807 224.439 100.815 224.433 100.823L224.276 101.042C224.269 101.053 224.261 101.063 224.253 101.072L224.096 101.273C224.086 101.286 224.077 101.298 224.066 101.309L223.909 101.491C223.896 101.505 223.884 101.519 223.87 101.532L223.713 101.692C223.696 101.709 223.679 101.725 223.662 101.74L223.504 101.878C223.483 101.896 223.461 101.914 223.437 101.931L223.28 102.044C223.252 102.064 223.223 102.082 223.193 102.099L223.036 102.187C223 102.207 222.964 102.225 222.926 102.24L222.768 102.302C222.725 102.319 222.681 102.333 222.636 102.344L222.478 102.38C222.429 102.391 222.379 102.398 222.329 102.401L222.171 102.411C222.12 102.414 222.068 102.412 222.016 102.407L221.859 102.39C221.81 102.384 221.761 102.375 221.713 102.362L221.556 102.318C221.513 102.306 221.47 102.29 221.429 102.272L221.272 102.202C221.237 102.186 221.202 102.168 221.169 102.148L221.012 102.053C220.984 102.036 220.957 102.017 220.931 101.998L220.773 101.877C220.752 101.861 220.731 101.844 220.712 101.826L220.554 101.682C220.538 101.667 220.522 101.651 220.507 101.635L220.35 101.469C220.337 101.456 220.325 101.443 220.314 101.429L220.156 101.242C220.147 101.231 220.138 101.219 220.129 101.208L219.972 101.001C219.965 100.992 219.958 100.982 219.951 100.973L219.793 100.749C219.788 100.741 219.783 100.733 219.777 100.725L219.62 100.486C219.616 100.48 219.612 100.474 219.608 100.467L219.451 100.215L219.441 100.2L219.284 99.9361L219.277 99.9249L219.12 99.6526L219.116 99.6448L218.955 99.3615L218.797 99.0774L218.641 98.7951L218.484 98.5148L218.33 98.2421L218.178 97.9788L218.029 97.7276L217.882 97.4913L217.738 97.2724L217.599 97.0736L217.465 96.8976L217.338 96.7465L217.222 96.6225L217.118 96.5268L217.03 96.4596L216.964 96.4186L216.92 96.3988L216.898 96.3927L216.892 96.3919L216.888 96.3921L216.804 96.4106C216.311 96.5203 215.822 96.2093 215.713 95.7161C215.603 95.2229 215.914 94.7342 216.407 94.6246L216.565 94.5896C216.614 94.5786 216.664 94.5717 216.715 94.569L216.872 94.5607C216.924 94.558 216.976 94.5596 217.027 94.5656L217.184 94.584C217.233 94.5897 217.282 94.5994 217.329 94.613L217.487 94.6579C217.53 94.6701 217.572 94.6855 217.612 94.7039L217.77 94.775C217.805 94.7908 217.839 94.8089 217.872 94.8291L218.029 94.9257C218.057 94.9426 218.083 94.961 218.109 94.9807L218.266 95.1021C218.287 95.1184 218.308 95.1356 218.327 95.1536L218.485 95.2986C218.501 95.3133 218.516 95.3287 218.531 95.3446L218.689 95.5118C218.701 95.5248 218.713 95.538 218.724 95.5517L218.882 95.7397C218.891 95.7508 218.9 95.7621 218.909 95.7736L219.066 95.9808C219.073 95.9901 219.08 95.9995 219.087 96.009L219.244 96.2336C219.25 96.2413 219.255 96.249 219.26 96.2568L219.417 96.4967C219.421 96.5029 219.425 96.5092 219.429 96.5155L219.587 96.7685L219.596 96.7833L219.753 97.0473L219.76 97.0583L219.917 97.331L219.921 97.3387L220.081 97.622L220.24 97.906L220.396 98.1882L220.552 98.4684L220.706 98.7408L220.858 99.0036L221.008 99.2542L221.155 99.4899L221.298 99.7079L221.437 99.9058L221.571 100.081L221.697 100.231L221.813 100.354L221.916 100.448L222.003 100.514L222.069 100.554L222.111 100.573L222.132 100.579L222.139 100.58L222.143 100.579L222.158 100.576L222.194 100.562L222.254 100.528L222.334 100.47L222.433 100.384L222.546 100.269L222.67 100.127L222.801 99.9592L222.939 99.7677L223.081 99.5553L223.227 99.3244L223.376 99.0779L223.527 98.8184L223.681 98.5485L223.835 98.2721L223.837 98.2697L224.152 97.7011L224.314 97.4142L224.471 97.1395L224.477 97.1295L224.634 96.8627L224.643 96.8491L224.8 96.5925C224.804 96.5867 224.807 96.5808 224.811 96.575L224.969 96.3311C224.973 96.3237 224.978 96.3164 224.983 96.3092L225.141 96.08C225.147 96.0709 225.153 96.062 225.16 96.0532L225.317 95.8408C225.325 95.8299 225.333 95.8191 225.342 95.8086L225.499 95.6148C225.51 95.6018 225.521 95.5891 225.532 95.5767L225.689 95.4033C225.703 95.388 225.718 95.3733 225.732 95.359L225.89 95.2074C225.908 95.19 225.927 95.1733 225.946 95.1574L226.104 95.029C226.128 95.0097 226.152 94.9916 226.178 94.9747L226.335 94.8708C226.366 94.8505 226.398 94.8322 226.43 94.8158L226.588 94.7372C226.626 94.718 226.666 94.7015 226.707 94.688L226.864 94.6353C226.91 94.62 226.957 94.6084 227.004 94.6005L227.162 94.5744C227.212 94.566 227.264 94.5618 227.315 94.562L227.472 94.5626C227.523 94.5628 227.575 94.5673 227.625 94.576L227.783 94.6033C227.83 94.6115 227.876 94.6234 227.922 94.6389L228.079 94.6926C228.12 94.7064 228.159 94.723 228.197 94.7422L228.354 94.8219C228.387 94.8384 228.419 94.8568 228.449 94.877L228.606 94.982C228.632 94.9988 228.656 95.0169 228.679 95.0362L228.837 95.1655C228.856 95.1814 228.875 95.198 228.893 95.2154L229.05 95.3679C229.065 95.3821 229.079 95.3968 229.093 95.4119L229.25 95.5863C229.261 95.5986 229.272 95.6112 229.282 95.624L229.44 95.8187C229.448 95.8292 229.456 95.8398 229.464 95.8506L229.622 96.0638C229.628 96.0726 229.635 96.0814 229.641 96.0903L229.798 96.3202C229.803 96.3274 229.808 96.3346 229.813 96.3419L229.97 96.5864C229.974 96.5922 229.977 96.598 229.981 96.6038L230.138 96.8608L230.146 96.8742L230.304 97.1414L230.31 97.1513L230.471 97.4329L230.63 97.7168L230.944 98.2815L230.945 98.2841L231.1 98.56L231.253 98.8296L231.404 99.0886L231.553 99.3345L231.699 99.5646L231.841 99.7763L231.978 99.9668L232.11 100.134L232.233 100.275L232.345 100.388L232.443 100.473L232.523 100.53L232.581 100.562L232.616 100.576L232.631 100.579L232.635 100.58L232.642 100.579L232.664 100.573L232.707 100.553L232.774 100.512L232.861 100.445L232.965 100.349L233.082 100.225L233.208 100.074L233.342 99.8979L233.482 99.6991L233.625 99.4802L233.772 99.2439L233.922 98.9927L234.074 98.7294L234.227 98.459L234.229 98.4544L234.383 98.1778L234.542 97.8925L234.702 97.6054L234.859 97.3268L234.864 97.319L235.021 97.0466L235.028 97.0354L235.185 96.7718L235.194 96.7569L235.352 96.5043C235.356 96.498 235.36 96.4917 235.364 96.4854L235.521 96.2461C235.526 96.2382 235.532 96.2304 235.537 96.2227L235.695 95.9988C235.701 95.9892 235.708 95.9797 235.715 95.9704L235.873 95.7639C235.882 95.7523 235.891 95.741 235.9 95.7298L236.058 95.5426C236.069 95.5289 236.081 95.5155 236.093 95.5025L236.251 95.3362C236.266 95.3202 236.282 95.3048 236.298 95.2899L236.455 95.1459C236.475 95.1278 236.496 95.1105 236.517 95.0942L236.675 94.9739C236.7 94.9541 236.727 94.9357 236.755 94.9188L236.913 94.8232C236.946 94.8031 236.98 94.785 237.016 94.7693L237.173 94.6993C237.214 94.681 237.256 94.6659 237.3 94.6538L237.457 94.61C237.505 94.5967 237.553 94.5873 237.603 94.5819L237.76 94.5647Z" fill="url(#paint47_linear_24683_39240)"/>
<path fill-rule="evenodd" clip-rule="evenodd" d="M141.421 156.042C141.453 156.04 141.485 156.039 141.517 156.04L141.674 156.046C141.706 156.047 141.738 156.05 141.769 156.055L141.927 156.077C141.957 156.081 141.987 156.087 142.016 156.094L142.174 156.133C142.201 156.14 142.228 156.148 142.255 156.157L142.413 156.212C142.437 156.22 142.461 156.23 142.485 156.24L142.642 156.311C142.664 156.32 142.684 156.33 142.705 156.341L142.862 156.426C142.88 156.436 142.898 156.446 142.915 156.457L143.072 156.556C143.087 156.566 143.102 156.575 143.116 156.586L143.274 156.698C143.286 156.707 143.298 156.716 143.31 156.725L143.468 156.85C143.478 156.858 143.487 156.866 143.497 156.874L143.655 157.01C143.663 157.017 143.671 157.024 143.678 157.031L143.836 157.177C143.842 157.183 143.849 157.189 143.855 157.195L144.012 157.349C144.017 157.354 144.022 157.359 144.027 157.364L144.185 157.526L144.196 157.537L144.353 157.705L144.361 157.713L144.524 157.89L144.683 158.067L144.994 158.414L144.998 158.418L145.149 158.585L145.299 158.747L145.445 158.901L145.588 159.045L145.727 159.179L145.861 159.3L146.006 159.42C146.393 159.744 146.445 160.321 146.121 160.709C145.797 161.096 145.22 161.148 144.832 160.824L144.675 160.692C144.666 160.685 144.657 160.677 144.649 160.67L144.491 160.527C144.484 160.521 144.477 160.515 144.47 160.508L144.313 160.357C144.307 160.352 144.302 160.346 144.297 160.341L144.139 160.182L144.127 160.169L143.969 160.004L143.96 159.994L143.803 159.824L143.797 159.817L143.639 159.644L143.636 159.64L143.323 159.291L143.321 159.288L143.17 159.122L143.165 159.116L143.017 158.954L142.869 158.797L142.724 158.649L142.584 158.511L142.448 158.385L142.317 158.273L142.193 158.174L142.075 158.09L141.966 158.022L141.866 157.968L141.776 157.927L141.695 157.9L141.624 157.882L141.559 157.873L141.497 157.87L141.435 157.875L141.368 157.886L141.294 157.907L141.211 157.938L141.118 157.982L141.015 158.04L140.903 158.113L140.784 158.201L140.657 158.304L140.525 158.421L140.387 158.55L140.246 158.691L140.1 158.842L139.951 159.001L139.802 159.166L139.797 159.17L139.645 159.339L139.644 159.341L139.488 159.515L139.325 159.696L139.168 159.869L139.161 159.876L139.003 160.045L138.993 160.056L138.836 160.219C138.831 160.224 138.827 160.229 138.822 160.233L138.665 160.39C138.659 160.396 138.653 160.402 138.647 160.407L138.49 160.556C138.483 160.563 138.475 160.569 138.468 160.576L138.31 160.715C138.301 160.723 138.292 160.731 138.283 160.739L138.125 160.867C138.114 160.876 138.103 160.885 138.091 160.893L137.934 161.01C137.92 161.02 137.907 161.03 137.893 161.039L137.735 161.142C137.719 161.153 137.702 161.163 137.685 161.173L137.528 161.263C137.509 161.274 137.489 161.284 137.469 161.294L137.311 161.369C137.289 161.38 137.266 161.389 137.243 161.398L137.085 161.458C137.059 161.468 137.033 161.477 137.006 161.484L136.849 161.528C136.82 161.536 136.791 161.543 136.762 161.548L136.604 161.576C136.573 161.581 136.542 161.585 136.511 161.588L136.354 161.599C136.322 161.601 136.29 161.602 136.257 161.601L136.1 161.596C136.068 161.595 136.037 161.592 136.005 161.588L135.848 161.566C135.818 161.562 135.788 161.556 135.758 161.549L135.6 161.511C135.573 161.504 135.545 161.496 135.518 161.487L135.361 161.433C135.336 161.425 135.312 161.415 135.288 161.405L135.131 161.335C135.11 161.326 135.089 161.315 135.068 161.304L134.911 161.22C134.893 161.21 134.875 161.2 134.858 161.189L134.7 161.091C134.685 161.081 134.67 161.071 134.656 161.061L134.498 160.949C134.486 160.94 134.474 160.931 134.462 160.922L134.304 160.798C134.294 160.79 134.284 160.782 134.274 160.773L134.117 160.638C134.109 160.631 134.101 160.624 134.093 160.616L133.935 160.471C133.929 160.465 133.923 160.459 133.916 160.453L133.759 160.299C133.754 160.294 133.749 160.289 133.744 160.284L133.586 160.123L133.575 160.111L133.418 159.944L133.409 159.935L133.247 159.758L133.089 159.584L133.087 159.581L132.776 159.234L132.773 159.23L132.621 159.063L132.471 158.901L132.325 158.747L132.181 158.602L132.042 158.468L131.908 158.346L131.779 158.238L131.657 158.145L131.542 158.066L131.436 158.002L131.339 157.953L131.252 157.917L131.175 157.893L131.106 157.878L131.042 157.871L130.981 157.871L130.917 157.878L130.848 157.892L130.771 157.916L130.685 157.951L130.589 158L130.483 158.063L130.368 158.141L130.246 158.234L130.118 158.341L129.984 158.463L129.845 158.596L129.702 158.74L129.555 158.894L129.405 159.056L129.252 159.225L128.937 159.576L128.775 159.756L128.618 159.928L128.61 159.936L128.452 160.104L128.441 160.115L128.284 160.277C128.279 160.282 128.274 160.287 128.269 160.292L128.111 160.446C128.105 160.452 128.099 160.458 128.092 160.464L127.935 160.61C127.927 160.617 127.919 160.624 127.911 160.631L127.753 160.767C127.744 160.775 127.734 160.783 127.724 160.791L127.566 160.916C127.555 160.925 127.542 160.934 127.53 160.943L127.373 161.055C127.358 161.066 127.344 161.075 127.329 161.085L127.171 161.184C127.154 161.195 127.136 161.205 127.119 161.215L126.961 161.3C126.941 161.311 126.92 161.321 126.899 161.33L126.741 161.401C126.718 161.411 126.694 161.421 126.669 161.429L126.512 161.484C126.485 161.493 126.458 161.501 126.43 161.508L126.272 161.547C126.243 161.554 126.213 161.56 126.183 161.564L126.025 161.586C125.994 161.591 125.962 161.594 125.931 161.595L125.773 161.601C125.741 161.602 125.709 161.602 125.677 161.599L125.52 161.589C125.488 161.587 125.457 161.583 125.426 161.577L125.269 161.55C125.239 161.545 125.21 161.539 125.181 161.531L125.024 161.487C124.997 161.48 124.971 161.471 124.945 161.462L124.787 161.402C124.764 161.394 124.741 161.384 124.718 161.373L124.561 161.298C124.54 161.289 124.521 161.279 124.501 161.268L124.344 161.178C124.327 161.169 124.31 161.159 124.294 161.148L124.136 161.045C124.122 161.035 124.108 161.026 124.095 161.016L123.937 160.9C123.925 160.891 123.914 160.882 123.903 160.873L123.745 160.745C123.736 160.738 123.727 160.73 123.718 160.722L123.56 160.583C123.553 160.576 123.545 160.57 123.538 160.563L123.38 160.414C123.374 160.409 123.368 160.403 123.363 160.397L123.205 160.241C123.2 160.236 123.196 160.231 123.191 160.227L123.034 160.063L123.024 160.053L122.866 159.884L122.859 159.876L122.698 159.699L122.539 159.522L122.383 159.348L122.227 159.175L122.075 159.008L121.926 158.849L121.781 158.697L121.639 158.556L121.501 158.426L121.369 158.309L121.242 158.205L121.122 158.117L121.01 158.043L120.907 157.984L120.813 157.939L120.73 157.908L120.655 157.887L120.588 157.875L120.526 157.87L120.464 157.872L120.354 157.888C119.853 157.957 119.392 157.607 119.323 157.106C119.254 156.606 119.604 156.144 120.104 156.075L120.262 156.053C120.293 156.049 120.325 156.046 120.356 156.045L120.514 156.04C120.546 156.039 120.578 156.04 120.61 156.042L120.767 156.053C120.799 156.056 120.83 156.06 120.861 156.065L121.018 156.093C121.047 156.098 121.077 156.105 121.105 156.113L121.263 156.157C121.289 156.164 121.316 156.173 121.341 156.183L121.499 156.243C121.522 156.252 121.545 156.261 121.568 156.272L121.725 156.347C121.745 156.357 121.765 156.367 121.784 156.378L121.942 156.468C121.959 156.478 121.975 156.488 121.991 156.499L122.149 156.602C122.163 156.611 122.177 156.621 122.19 156.631L122.348 156.748C122.359 156.756 122.37 156.765 122.382 156.774L122.539 156.902C122.548 156.91 122.558 156.918 122.567 156.926L122.724 157.065C122.732 157.072 122.739 157.078 122.746 157.085L122.904 157.234C122.91 157.239 122.915 157.245 122.921 157.251L123.079 157.408C123.083 157.412 123.088 157.417 123.092 157.422L123.25 157.585L123.26 157.596L123.417 157.765L123.424 157.772L123.586 157.95L123.744 158.126L123.9 158.3L123.902 158.302L124.056 158.473L124.208 158.64L124.356 158.799L124.502 158.95L124.644 159.091L124.781 159.22L124.913 159.337L125.04 159.44L125.159 159.528L125.271 159.601L125.374 159.659L125.467 159.703L125.55 159.734L125.624 159.755L125.691 159.766L125.753 159.771L125.815 159.768L125.88 159.759L125.952 159.741L126.032 159.714L126.122 159.673L126.222 159.619L126.331 159.551L126.449 159.467L126.573 159.368L126.704 159.256L126.84 159.13L126.981 158.992L127.125 158.844L127.273 158.687L127.424 158.522L127.577 158.353L127.579 158.35L127.895 157.997L128.053 157.824L128.059 157.817L128.216 157.647L128.226 157.637L128.383 157.472L128.395 157.459L128.553 157.3C128.558 157.295 128.564 157.289 128.569 157.284L128.727 157.133C128.734 157.126 128.74 157.12 128.747 157.114L128.905 156.971C128.913 156.964 128.922 156.956 128.931 156.949L129.088 156.817C129.099 156.809 129.109 156.8 129.12 156.792L129.278 156.672C129.291 156.662 129.304 156.652 129.317 156.643L129.474 156.536C129.49 156.525 129.505 156.515 129.521 156.506L129.679 156.412C129.697 156.401 129.716 156.391 129.735 156.381L129.893 156.301C129.914 156.291 129.936 156.281 129.959 156.271L130.116 156.207C130.141 156.197 130.166 156.188 130.192 156.18L130.349 156.131C130.377 156.122 130.406 156.115 130.434 156.109L130.592 156.077C130.622 156.07 130.653 156.065 130.684 156.062L130.841 156.046C130.873 156.043 130.905 156.041 130.937 156.041L131.094 156.042C131.126 156.042 131.158 156.043 131.19 156.047L131.347 156.064C131.378 156.067 131.409 156.072 131.439 156.078L131.596 156.112C131.625 156.118 131.653 156.125 131.681 156.134L131.838 156.183C131.864 156.191 131.889 156.2 131.914 156.211L132.071 156.276C132.093 156.285 132.115 156.295 132.137 156.306L132.294 156.386C132.313 156.396 132.332 156.406 132.35 156.417L132.508 156.511C132.523 156.521 132.539 156.531 132.554 156.541L132.712 156.65C132.725 156.659 132.738 156.668 132.751 156.678L132.908 156.798C132.919 156.806 132.929 156.815 132.94 156.824L133.097 156.956C133.106 156.963 133.114 156.971 133.123 156.978L133.28 157.121C133.287 157.127 133.294 157.133 133.301 157.14L133.458 157.291C133.464 157.297 133.469 157.302 133.474 157.307L133.632 157.467L133.644 157.479L133.802 157.645L133.811 157.654L133.968 157.825L133.974 157.831L134.135 158.009L134.448 158.358L134.45 158.36L134.602 158.529L134.753 158.694L134.901 158.85L135.045 158.998L135.186 159.135L135.322 159.261L135.452 159.373L135.576 159.471L135.693 159.554L135.802 159.622L135.902 159.675L135.992 159.715L136.072 159.742L136.143 159.76L136.208 159.769L136.27 159.771L136.332 159.766L136.399 159.754L136.473 159.733L136.557 159.702L136.65 159.657L136.754 159.598L136.866 159.524L136.985 159.436L137.112 159.332L137.245 159.215L137.382 159.085L137.524 158.944L137.67 158.792L137.819 158.633L137.971 158.466L138.125 158.294L138.126 158.293L138.282 158.119L138.284 158.117L138.445 157.937L138.603 157.765L138.61 157.757L138.767 157.588L138.778 157.578L138.935 157.414C138.94 157.41 138.944 157.405 138.949 157.4L139.106 157.244C139.112 157.238 139.118 157.232 139.124 157.227L139.281 157.078C139.289 157.071 139.296 157.065 139.304 157.058L139.461 156.919C139.47 156.911 139.48 156.903 139.489 156.896L139.647 156.768C139.658 156.759 139.669 156.75 139.681 156.741L139.838 156.625C139.852 156.615 139.866 156.606 139.88 156.596L140.037 156.493C140.054 156.483 140.07 156.472 140.087 156.463L140.245 156.373C140.264 156.362 140.284 156.352 140.304 156.343L140.462 156.268C140.484 156.257 140.508 156.247 140.531 156.239L140.689 156.179C140.714 156.17 140.741 156.161 140.768 156.154L140.925 156.11C140.954 156.102 140.983 156.096 141.013 156.091L141.17 156.064C141.201 156.058 141.232 156.054 141.264 156.052L141.421 156.042Z" fill="url(#paint48_linear_24683_39240)"/>
<path fill-rule="evenodd" clip-rule="evenodd" d="M167.221 161.221C167.253 161.224 167.285 161.224 167.317 161.223L167.474 161.217C167.506 161.216 167.537 161.213 167.569 161.209L167.726 161.186C167.756 161.182 167.786 161.176 167.816 161.169L167.973 161.13C168.001 161.123 168.028 161.115 168.055 161.106L168.212 161.051C168.237 161.043 168.261 161.033 168.285 161.023L168.442 160.953C168.463 160.943 168.484 160.933 168.505 160.922L168.662 160.837C168.68 160.827 168.697 160.817 168.715 160.806L168.872 160.707C168.887 160.698 168.902 160.688 168.916 160.677L169.074 160.565C169.086 160.556 169.098 160.547 169.11 160.538L169.267 160.413C169.277 160.405 169.287 160.397 169.297 160.389L169.454 160.253C169.462 160.246 169.47 160.239 169.478 160.232L169.636 160.086C169.642 160.08 169.648 160.074 169.655 160.068L169.812 159.914C169.817 159.909 169.822 159.904 169.827 159.899L169.984 159.737L169.996 159.726L170.153 159.558L170.161 159.55L170.323 159.373L170.483 159.196L170.794 158.849L170.797 158.845L170.949 158.678L171.098 158.516L171.245 158.362L171.388 158.218L171.527 158.085L171.661 157.964L171.805 157.843C172.193 157.519 172.244 156.942 171.92 156.554C171.596 156.167 171.019 156.115 170.632 156.439L170.474 156.571C170.465 156.578 170.457 156.586 170.448 156.594L170.291 156.736C170.284 156.742 170.277 156.748 170.27 156.755L170.113 156.906C170.107 156.911 170.102 156.917 170.096 156.922L169.939 157.081L169.926 157.094L169.769 157.259L169.76 157.269L169.602 157.439L169.596 157.446L169.439 157.62L169.436 157.623L169.122 157.972L169.12 157.975L168.97 158.141L168.965 158.147L168.817 158.309L168.669 158.466L168.524 158.614L168.384 158.752L168.248 158.878L168.117 158.99L167.992 159.089L167.875 159.173L167.766 159.241L167.666 159.295L167.576 159.336L167.495 159.364L167.424 159.381L167.358 159.39L167.297 159.393L167.234 159.389L167.168 159.377L167.094 159.357L167.01 159.325L166.917 159.281L166.815 159.223L166.703 159.15L166.583 159.062L166.457 158.959L166.324 158.842L166.187 158.713L166.045 158.572L165.9 158.421L165.751 158.262L165.601 158.097L165.597 158.093L165.445 157.924L165.444 157.922L165.288 157.748L165.125 157.567L164.968 157.394L164.961 157.387L164.803 157.218L164.793 157.207L164.636 157.044C164.631 157.039 164.627 157.034 164.622 157.03L164.465 156.873C164.459 156.867 164.453 156.862 164.447 156.856L164.29 156.707C164.282 156.7 164.275 156.694 164.267 156.687L164.11 156.548C164.101 156.54 164.092 156.532 164.082 156.524L163.925 156.396C163.914 156.387 163.903 156.378 163.891 156.37L163.734 156.253C163.72 156.243 163.706 156.234 163.692 156.224L163.535 156.121C163.519 156.11 163.502 156.1 163.485 156.09L163.328 156C163.308 155.989 163.289 155.979 163.269 155.969L163.111 155.894C163.089 155.883 163.066 155.874 163.042 155.865L162.885 155.805C162.859 155.795 162.833 155.786 162.806 155.779L162.649 155.735C162.62 155.727 162.591 155.72 162.561 155.715L162.404 155.687C162.373 155.682 162.342 155.678 162.311 155.676L162.153 155.664C162.121 155.662 162.089 155.661 162.057 155.662L161.9 155.667C161.868 155.668 161.836 155.671 161.805 155.676L161.647 155.697C161.617 155.701 161.587 155.707 161.558 155.714L161.4 155.752C161.372 155.759 161.345 155.767 161.318 155.776L161.161 155.83C161.136 155.839 161.112 155.848 161.088 155.859L160.931 155.928C160.909 155.938 160.888 155.948 160.868 155.959L160.71 156.043C160.692 156.053 160.675 156.063 160.657 156.074L160.5 156.172C160.485 156.182 160.47 156.192 160.455 156.202L160.298 156.314C160.286 156.323 160.273 156.332 160.261 156.341L160.104 156.465C160.094 156.473 160.084 156.482 160.074 156.49L159.917 156.625C159.909 156.632 159.901 156.639 159.893 156.647L159.735 156.792C159.729 156.798 159.722 156.804 159.716 156.81L159.558 156.964C159.553 156.969 159.548 156.974 159.543 156.979L159.386 157.14L159.375 157.152L159.217 157.319L159.209 157.328L159.047 157.505L158.889 157.679L158.887 157.682L158.576 158.029L158.572 158.033L158.421 158.2L158.271 158.362L158.124 158.517L157.981 158.661L157.842 158.795L157.708 158.917L157.579 159.025L157.457 159.119L157.342 159.197L157.236 159.261L157.139 159.31L157.052 159.346L156.975 159.37L156.905 159.385L156.842 159.392L156.78 159.392L156.717 159.386L156.648 159.371L156.571 159.347L156.485 159.312L156.388 159.263L156.282 159.2L156.168 159.122L156.046 159.029L155.917 158.922L155.783 158.801L155.644 158.667L155.501 158.523L155.355 158.369L155.205 158.207L155.052 158.038L154.737 157.687L154.575 157.507L154.417 157.335L154.409 157.327L154.252 157.16L154.241 157.148L154.083 156.986C154.078 156.981 154.073 156.976 154.068 156.971L153.911 156.817C153.905 156.811 153.898 156.805 153.892 156.799L153.735 156.653C153.727 156.646 153.719 156.639 153.711 156.632L153.553 156.496C153.543 156.488 153.534 156.48 153.524 156.472L153.366 156.347C153.354 156.338 153.342 156.329 153.33 156.32L153.172 156.208C153.158 156.197 153.143 156.188 153.128 156.178L152.971 156.079C152.954 156.068 152.936 156.058 152.918 156.048L152.761 155.963C152.74 155.952 152.72 155.942 152.699 155.933L152.541 155.862C152.517 155.852 152.493 155.842 152.469 155.834L152.311 155.779C152.285 155.77 152.257 155.762 152.23 155.755L152.072 155.716C152.043 155.709 152.013 155.703 151.983 155.699L151.825 155.677C151.794 155.672 151.762 155.669 151.731 155.668L151.573 155.662C151.541 155.661 151.509 155.662 151.477 155.664L151.32 155.674C151.288 155.677 151.257 155.68 151.226 155.686L151.069 155.713C151.039 155.718 151.01 155.724 150.981 155.732L150.824 155.776C150.797 155.783 150.77 155.792 150.745 155.801L150.587 155.861C150.564 155.87 150.54 155.879 150.518 155.89L150.36 155.965C150.34 155.974 150.32 155.985 150.301 155.996L150.143 156.085C150.126 156.094 150.11 156.105 150.093 156.115L149.936 156.218C149.922 156.228 149.908 156.237 149.894 156.247L149.737 156.363C149.725 156.372 149.714 156.381 149.703 156.39L149.545 156.518C149.536 156.525 149.526 156.533 149.517 156.541L149.36 156.68C149.352 156.687 149.345 156.694 149.337 156.7L149.18 156.849C149.174 156.854 149.168 156.86 149.162 156.866L149.005 157.022C149 157.027 148.996 157.032 148.991 157.036L148.834 157.2L148.823 157.21L148.666 157.379L148.659 157.387L148.497 157.564L148.338 157.741L148.182 157.915L148.027 158.088L147.875 158.255L147.726 158.415L147.58 158.566L147.438 158.707L147.301 158.837L147.168 158.954L147.041 159.058L146.922 159.147L146.81 159.22L146.706 159.279L146.613 159.324L146.529 159.355L146.455 159.376L146.388 159.388L146.326 159.393L146.264 159.391L146.154 159.375C145.653 159.307 145.191 159.656 145.122 160.157C145.053 160.657 145.403 161.119 145.904 161.188L146.061 161.21C146.093 161.214 146.124 161.217 146.156 161.218L146.314 161.223C146.346 161.224 146.378 161.223 146.41 161.221L146.567 161.21C146.598 161.207 146.629 161.203 146.66 161.198L146.818 161.17C146.847 161.165 146.876 161.158 146.905 161.15L147.062 161.106C147.089 161.099 147.115 161.09 147.141 161.08L147.299 161.02C147.322 161.012 147.345 161.002 147.368 160.991L147.525 160.916C147.545 160.906 147.565 160.896 147.584 160.885L147.741 160.795C147.758 160.785 147.775 160.775 147.791 160.765L147.949 160.661C147.963 160.652 147.976 160.642 147.99 160.632L148.147 160.516C148.159 160.507 148.17 160.498 148.181 160.489L148.339 160.361C148.348 160.353 148.357 160.345 148.366 160.337L148.524 160.198C148.531 160.191 148.539 160.185 148.546 160.178L148.703 160.029C148.709 160.024 148.715 160.018 148.721 160.012L148.878 159.855C148.883 159.851 148.887 159.846 148.892 159.842L149.049 159.678L149.059 159.667L149.217 159.498L149.224 159.491L149.385 159.314L149.544 159.137L149.7 158.963L149.702 158.961L149.855 158.79L150.007 158.624L150.156 158.464L150.302 158.313L150.443 158.172L150.581 158.043L150.713 157.926L150.84 157.823L150.959 157.735L151.071 157.662L151.174 157.604L151.267 157.56L151.35 157.529L151.424 157.508L151.491 157.497L151.553 157.492L151.615 157.495L151.68 157.504L151.751 157.522L151.832 157.55L151.922 157.59L152.022 157.644L152.131 157.712L152.249 157.796L152.373 157.895L152.504 158.007L152.64 158.133L152.78 158.271L152.925 158.419L153.073 158.576L153.224 158.741L153.377 158.91L153.379 158.913L153.695 159.266L153.853 159.439L153.859 159.446L154.016 159.616L154.025 159.626L154.183 159.791L154.195 159.804L154.353 159.963C154.358 159.968 154.363 159.974 154.369 159.979L154.526 160.13C154.533 160.137 154.54 160.143 154.547 160.15L154.705 160.292C154.713 160.299 154.722 160.307 154.731 160.314L154.888 160.446C154.898 160.455 154.909 160.463 154.92 160.471L155.077 160.591C155.09 160.601 155.103 160.611 155.116 160.62L155.274 160.727C155.289 160.738 155.305 160.748 155.321 160.757L155.479 160.851C155.497 160.862 155.516 160.872 155.535 160.882L155.692 160.962C155.714 160.973 155.736 160.983 155.758 160.992L155.916 161.056C155.941 161.066 155.966 161.075 155.992 161.083L156.149 161.132C156.177 161.141 156.205 161.148 156.234 161.154L156.391 161.187C156.422 161.193 156.452 161.198 156.483 161.201L156.641 161.217C156.673 161.22 156.704 161.222 156.736 161.222L156.894 161.221C156.926 161.221 156.958 161.22 156.989 161.216L157.147 161.199C157.178 161.196 157.208 161.191 157.239 161.185L157.396 161.151C157.424 161.145 157.453 161.138 157.481 161.129L157.638 161.08C157.664 161.072 157.689 161.063 157.713 161.053L157.871 160.987C157.893 160.978 157.915 160.968 157.937 160.957L158.094 160.877C158.113 160.867 158.132 160.857 158.15 160.846L158.307 160.752C158.323 160.742 158.339 160.732 158.354 160.722L158.512 160.614C158.525 160.605 158.538 160.595 158.55 160.586L158.708 160.465C158.718 160.457 158.729 160.448 158.739 160.439L158.897 160.307C158.906 160.3 158.914 160.293 158.923 160.285L159.08 160.142C159.087 160.136 159.094 160.13 159.101 160.123L159.258 159.972C159.263 159.966 159.269 159.961 159.274 159.956L159.432 159.797L159.444 159.784L159.601 159.618L159.61 159.609L159.768 159.438L159.774 159.432L159.934 159.255L160.247 158.905L160.25 158.903L160.402 158.734L160.553 158.57L160.701 158.413L160.845 158.265L160.985 158.128L161.121 158.002L161.252 157.89L161.376 157.792L161.493 157.709L161.602 157.641L161.701 157.588L161.791 157.548L161.871 157.521L161.943 157.503L162.007 157.495L162.069 157.493L162.132 157.497L162.199 157.509L162.273 157.53L162.357 157.561L162.45 157.606L162.553 157.665L162.665 157.739L162.785 157.827L162.912 157.931L163.045 158.048L163.182 158.178L163.324 158.319L163.47 158.471L163.619 158.63L163.771 158.797L163.925 158.969L163.926 158.97L164.082 159.144L164.084 159.146L164.245 159.326L164.403 159.498L164.41 159.506L164.567 159.675L164.577 159.685L164.735 159.849C164.739 159.854 164.744 159.858 164.748 159.863L164.906 160.019C164.912 160.025 164.918 160.031 164.924 160.036L165.081 160.185C165.088 160.192 165.096 160.198 165.104 160.205L165.261 160.344C165.27 160.352 165.279 160.36 165.289 160.367L165.446 160.495C165.457 160.504 165.469 160.513 165.48 160.522L165.638 160.638C165.652 160.648 165.665 160.658 165.68 160.667L165.837 160.77C165.853 160.781 165.87 160.791 165.887 160.8L166.044 160.89C166.064 160.901 166.084 160.911 166.104 160.921L166.261 160.995C166.284 161.006 166.307 161.016 166.331 161.024L166.488 161.084C166.514 161.093 166.541 161.102 166.567 161.109L166.725 161.153C166.754 161.161 166.783 161.167 166.812 161.172L166.97 161.2C167.001 161.205 167.032 161.209 167.063 161.211L167.221 161.221Z" fill="url(#paint49_linear_24683_39240)"/>
<path d="M391.619 163.133V188.45H345.146V170.366H314.165V163.133H391.619Z" fill="url(#paint50_linear_24683_39240)"/>
<path d="M172.121 80.037V91.7128H150.689V83.3729H136.401V80.037H172.121Z" fill="url(#paint51_linear_24683_39240)"/>
<path d="M406.866 -14.8104V4.40857H360.393V-7.57679H317.214V-14.8104H406.866Z" fill="url(#paint52_linear_24683_39240)"/>
<path fill-rule="evenodd" clip-rule="evenodd" d="M255.105 76.2131V69.974H253.275V76.8473L273.292 102.254L274.729 101.121L255.105 76.2131Z" fill="url(#paint53_linear_24683_39240)"/>
<path fill-rule="evenodd" clip-rule="evenodd" d="M316.397 76.0688V69.5166H318.227V77.6014L295.212 81.7L294.891 79.8987L316.397 76.0688Z" fill="url(#paint54_linear_24683_39240)"/>
<path d="M289.34 -17.6758H295.052V10.84H289.34V-17.6758Z" fill="url(#paint55_linear_24683_39240)"/>
<path d="M279.887 -17.6758H285.598V51.2402H279.887V-17.6758Z" fill="url(#paint56_linear_24683_39240)"/>
<path d="M298.711 -11.2721H301.983V10.84H298.711V-11.2721Z" fill="url(#paint57_linear_24683_39240)"/>
<path d="M252.97 110.478H266.387V129.894H252.97V110.478Z" fill="url(#paint58_linear_24683_39240)"/>
<path d="M259.958 110.478H266.387V186.308H259.958V110.478Z" fill="url(#paint59_linear_24683_39240)"/>
<path d="M210.584 110.478H259.679V112.307H210.584V110.478Z" fill="url(#paint60_linear_24683_39240)"/>
<path d="M220.103 114.137H259.679V115.967H220.103V114.137Z" fill="url(#paint61_linear_24683_39240)"/>
<path d="M228.88 117.796H259.679V119.626H228.88V117.796Z" fill="url(#paint62_linear_24683_39240)"/>
<path d="M224.867 204.196H226.506V186.231V176.86H224.867V204.196Z" fill="url(#paint63_linear_24683_39240)"/>
<path d="M226.506 186.231V204.196L232.857 204.196L243.53 186.23L226.506 186.231Z" fill="url(#paint64_linear_24683_39240)"/>
<path d="M235.601 204.196L246.274 186.231H249.019L238.346 204.196H235.601Z" fill="url(#paint65_linear_24683_39240)"/>
<path d="M241.243 204.196L251.916 186.231H255.117L244.445 204.196H241.243Z" fill="url(#paint66_linear_24683_39240)"/>
<path fill-rule="evenodd" clip-rule="evenodd" d="M277.67 178.075V109.464H275.84V179.904H300.845V166.792H299.016V178.075H277.67Z" fill="url(#paint67_linear_24683_39240)"/>
<path fill-rule="evenodd" clip-rule="evenodd" d="M282.022 173.79V113.123H280.192V175.62H297.026V167.56H295.196V173.79H282.022Z" fill="url(#paint68_linear_24683_39240)"/>
<path fill-rule="evenodd" clip-rule="evenodd" d="M171.551 107.939V148.509L170.637 149.41H164.081L163.449 147.856L169.722 141.962V107.939H171.551Z" fill="url(#paint69_linear_24683_39240)"/>
<path fill-rule="evenodd" clip-rule="evenodd" d="M179.175 168.164L189.477 178.685V207.362L188.563 208.264H182.006L181.375 206.709L187.648 200.815V178.685L177.345 168.164H179.175Z" fill="url(#paint70_linear_24683_39240)"/>
<path fill-rule="evenodd" clip-rule="evenodd" d="M171.856 169.536H118.645V167.707H171.856V169.536Z" fill="url(#paint71_linear_24683_39240)"/>
<path fill-rule="evenodd" clip-rule="evenodd" d="M171.856 171.335H118.645V170.756H171.856V171.335Z" fill="url(#paint72_linear_24683_39240)"/>
</g>
<line x1="-12" y1="35.5" x2="20.0156" y2="35.5" stroke="#8F8E93"/>
<line x1="-12" y1="236.5" x2="20.0156" y2="236.5" stroke="#8F8E93"/>
<line x1="-12" y1="486.5" x2="20.0156" y2="486.5" stroke="#8F8E93"/>
<circle cx="36.6865" cy="239.28" r="7.68432" transform="rotate(-90.2602 36.6865 239.28)" fill="black"/>
<circle cx="27.7197" cy="236.719" r="7.04396" transform="rotate(-90.2602 27.7197 236.719)" fill="#F0EFED" stroke="black" stroke-width="1.28072"/>
<circle cx="36.6865" cy="489.28" r="7.68432" transform="rotate(-90.2602 36.6865 489.28)" fill="black"/>
<circle cx="27.7197" cy="486.719" r="7.04396" transform="rotate(-90.2602 27.7197 486.719)" fill="#F0EFED" stroke="black" stroke-width="1.28072"/>
<circle cx="36.6865" cy="38.2804" r="7.68432" transform="rotate(-90.2602 36.6865 38.2804)" fill="black"/>
<circle cx="27.7197" cy="35.7191" r="7.04396" transform="rotate(-90.2602 27.7197 35.7191)" fill="#F0EFED" stroke="black" stroke-width="1.28072"/>
</g>
<defs>
<linearGradient id="paint0_linear_24683_39240" x1="123.44" y1="846.431" x2="-14.5818" y2="361.872" gradientUnits="userSpaceOnUse">
<stop stop-color="#F1EFED"/>
<stop offset="0.534758" stop-color="#DDDDDD" stop-opacity="0.22"/>
<stop offset="1" stop-color="#F1EFED"/>
</linearGradient>
<linearGradient id="paint1_linear_24683_39240" x1="62.6014" y1="449.934" x2="-55.873" y2="-13.2895" gradientUnits="userSpaceOnUse">
<stop stop-color="#F1EFED"/>
<stop offset="0.534758" stop-color="#DDDDDD" stop-opacity="0.22"/>
<stop offset="1" stop-color="#F1EFED"/>
</linearGradient>
<linearGradient id="paint2_linear_24683_39240" x1="273.706" y1="336.947" x2="154.198" y2="-140.084" gradientUnits="userSpaceOnUse">
<stop offset="0.121234" stop-color="#F1EFED"/>
<stop offset="0.488143" stop-color="#DDDDDD" stop-opacity="0.22"/>
<stop offset="0.897958" stop-color="#F1EFED"/>
</linearGradient>
<linearGradient id="paint3_linear_24683_39240" x1="273.706" y1="336.947" x2="154.198" y2="-140.084" gradientUnits="userSpaceOnUse">
<stop offset="0.121234" stop-color="#F1EFED"/>
<stop offset="0.488143" stop-color="#DDDDDD" stop-opacity="0.22"/>
<stop offset="0.897958" stop-color="#F1EFED"/>
</linearGradient>
<linearGradient id="paint4_linear_24683_39240" x1="273.706" y1="336.947" x2="154.198" y2="-140.084" gradientUnits="userSpaceOnUse">
<stop offset="0.121234" stop-color="#F1EFED"/>
<stop offset="0.488143" stop-color="#DDDDDD" stop-opacity="0.22"/>
<stop offset="0.897958" stop-color="#F1EFED"/>
</linearGradient>
<linearGradient id="paint5_linear_24683_39240" x1="273.706" y1="336.947" x2="154.198" y2="-140.084" gradientUnits="userSpaceOnUse">
<stop offset="0.121234" stop-color="#F1EFED"/>
<stop offset="0.488143" stop-color="#DDDDDD" stop-opacity="0.22"/>
<stop offset="0.897958" stop-color="#F1EFED"/>
</linearGradient>
<linearGradient id="paint6_linear_24683_39240" x1="273.706" y1="336.947" x2="154.198" y2="-140.084" gradientUnits="userSpaceOnUse">
<stop offset="0.121234" stop-color="#F1EFED"/>
<stop offset="0.488143" stop-color="#DDDDDD" stop-opacity="0.22"/>
<stop offset="0.897958" stop-color="#F1EFED"/>
</linearGradient>
<linearGradient id="paint7_linear_24683_39240" x1="273.706" y1="336.947" x2="154.198" y2="-140.084" gradientUnits="userSpaceOnUse">
<stop offset="0.121234" stop-color="#F1EFED"/>
<stop offset="0.488143" stop-color="#DDDDDD" stop-opacity="0.22"/>
<stop offset="0.897958" stop-color="#F1EFED"/>
</linearGradient>
<linearGradient id="paint8_linear_24683_39240" x1="273.706" y1="336.947" x2="154.198" y2="-140.084" gradientUnits="userSpaceOnUse">
<stop offset="0.121234" stop-color="#F1EFED"/>
<stop offset="0.488143" stop-color="#DDDDDD" stop-opacity="0.22"/>
<stop offset="0.897958" stop-color="#F1EFED"/>
</linearGradient>
<linearGradient id="paint9_linear_24683_39240" x1="273.706" y1="336.947" x2="154.198" y2="-140.084" gradientUnits="userSpaceOnUse">
<stop offset="0.121234" stop-color="#F1EFED"/>
<stop offset="0.488143" stop-color="#DDDDDD" stop-opacity="0.22"/>
<stop offset="0.897958" stop-color="#F1EFED"/>
</linearGradient>
<linearGradient id="paint10_linear_24683_39240" x1="273.706" y1="336.947" x2="154.198" y2="-140.084" gradientUnits="userSpaceOnUse">
<stop offset="0.121234" stop-color="#F1EFED"/>
<stop offset="0.488143" stop-color="#DDDDDD" stop-opacity="0.22"/>
<stop offset="0.897958" stop-color="#F1EFED"/>
</linearGradient>
<linearGradient id="paint11_linear_24683_39240" x1="273.706" y1="336.947" x2="154.198" y2="-140.084" gradientUnits="userSpaceOnUse">
<stop offset="0.121234" stop-color="#F1EFED"/>
<stop offset="0.488143" stop-color="#DDDDDD" stop-opacity="0.22"/>
<stop offset="0.897958" stop-color="#F1EFED"/>
</linearGradient>
<linearGradient id="paint12_linear_24683_39240" x1="273.706" y1="336.947" x2="154.198" y2="-140.084" gradientUnits="userSpaceOnUse">
<stop offset="0.121234" stop-color="#F1EFED"/>
<stop offset="0.488143" stop-color="#DDDDDD" stop-opacity="0.22"/>
<stop offset="0.897958" stop-color="#F1EFED"/>
</linearGradient>
<linearGradient id="paint13_linear_24683_39240" x1="273.706" y1="336.947" x2="154.198" y2="-140.084" gradientUnits="userSpaceOnUse">
<stop offset="0.121234" stop-color="#F1EFED"/>
<stop offset="0.488143" stop-color="#DDDDDD" stop-opacity="0.22"/>
<stop offset="0.897958" stop-color="#F1EFED"/>
</linearGradient>
<linearGradient id="paint14_linear_24683_39240" x1="273.706" y1="336.947" x2="154.198" y2="-140.084" gradientUnits="userSpaceOnUse">
<stop offset="0.121234" stop-color="#F1EFED"/>
<stop offset="0.488143" stop-color="#DDDDDD" stop-opacity="0.22"/>
<stop offset="0.897958" stop-color="#F1EFED"/>
</linearGradient>
<linearGradient id="paint15_linear_24683_39240" x1="273.706" y1="336.947" x2="154.198" y2="-140.084" gradientUnits="userSpaceOnUse">
<stop offset="0.121234" stop-color="#F1EFED"/>
<stop offset="0.488143" stop-color="#DDDDDD" stop-opacity="0.22"/>
<stop offset="0.897958" stop-color="#F1EFED"/>
</linearGradient>
<linearGradient id="paint16_linear_24683_39240" x1="273.706" y1="336.947" x2="154.198" y2="-140.084" gradientUnits="userSpaceOnUse">
<stop offset="0.121234" stop-color="#F1EFED"/>
<stop offset="0.488143" stop-color="#DDDDDD" stop-opacity="0.22"/>
<stop offset="0.897958" stop-color="#F1EFED"/>
</linearGradient>
<linearGradient id="paint17_linear_24683_39240" x1="273.706" y1="336.947" x2="154.198" y2="-140.084" gradientUnits="userSpaceOnUse">
<stop offset="0.121234" stop-color="#F1EFED"/>
<stop offset="0.488143" stop-color="#DDDDDD" stop-opacity="0.22"/>
<stop offset="0.897958" stop-color="#F1EFED"/>
</linearGradient>
<linearGradient id="paint18_linear_24683_39240" x1="273.706" y1="336.947" x2="154.198" y2="-140.084" gradientUnits="userSpaceOnUse">
<stop offset="0.121234" stop-color="#F1EFED"/>
<stop offset="0.488143" stop-color="#DDDDDD" stop-opacity="0.22"/>
<stop offset="0.897958" stop-color="#F1EFED"/>
</linearGradient>
<linearGradient id="paint19_linear_24683_39240" x1="273.706" y1="336.947" x2="154.198" y2="-140.084" gradientUnits="userSpaceOnUse">
<stop offset="0.121234" stop-color="#F1EFED"/>
<stop offset="0.488143" stop-color="#DDDDDD" stop-opacity="0.22"/>
<stop offset="0.897958" stop-color="#F1EFED"/>
</linearGradient>
<linearGradient id="paint20_linear_24683_39240" x1="273.706" y1="336.947" x2="154.198" y2="-140.084" gradientUnits="userSpaceOnUse">
<stop offset="0.121234" stop-color="#F1EFED"/>
<stop offset="0.488143" stop-color="#DDDDDD" stop-opacity="0.22"/>
<stop offset="0.897958" stop-color="#F1EFED"/>
</linearGradient>
<linearGradient id="paint21_linear_24683_39240" x1="273.706" y1="336.947" x2="154.198" y2="-140.084" gradientUnits="userSpaceOnUse">
<stop offset="0.121234" stop-color="#F1EFED"/>
<stop offset="0.488143" stop-color="#DDDDDD" stop-opacity="0.22"/>
<stop offset="0.897958" stop-color="#F1EFED"/>
</linearGradient>
<linearGradient id="paint22_linear_24683_39240" x1="273.706" y1="336.947" x2="154.198" y2="-140.084" gradientUnits="userSpaceOnUse">
<stop offset="0.121234" stop-color="#F1EFED"/>
<stop offset="0.488143" stop-color="#DDDDDD" stop-opacity="0.22"/>
<stop offset="0.897958" stop-color="#F1EFED"/>
</linearGradient>
<linearGradient id="paint23_linear_24683_39240" x1="273.706" y1="336.947" x2="154.198" y2="-140.084" gradientUnits="userSpaceOnUse">
<stop offset="0.121234" stop-color="#F1EFED"/>
<stop offset="0.488143" stop-color="#DDDDDD" stop-opacity="0.22"/>
<stop offset="0.897958" stop-color="#F1EFED"/>
</linearGradient>
<linearGradient id="paint24_linear_24683_39240" x1="273.706" y1="336.947" x2="154.198" y2="-140.084" gradientUnits="userSpaceOnUse">
<stop offset="0.121234" stop-color="#F1EFED"/>
<stop offset="0.488143" stop-color="#DDDDDD" stop-opacity="0.22"/>
<stop offset="0.897958" stop-color="#F1EFED"/>
</linearGradient>
<linearGradient id="paint25_linear_24683_39240" x1="273.706" y1="336.947" x2="154.198" y2="-140.084" gradientUnits="userSpaceOnUse">
<stop offset="0.121234" stop-color="#F1EFED"/>
<stop offset="0.488143" stop-color="#DDDDDD" stop-opacity="0.22"/>
<stop offset="0.897958" stop-color="#F1EFED"/>
</linearGradient>
<linearGradient id="paint26_linear_24683_39240" x1="273.706" y1="336.947" x2="154.198" y2="-140.084" gradientUnits="userSpaceOnUse">
<stop offset="0.121234" stop-color="#F1EFED"/>
<stop offset="0.488143" stop-color="#DDDDDD" stop-opacity="0.22"/>
<stop offset="0.897958" stop-color="#F1EFED"/>
</linearGradient>
<linearGradient id="paint27_linear_24683_39240" x1="273.706" y1="336.947" x2="154.198" y2="-140.084" gradientUnits="userSpaceOnUse">
<stop offset="0.121234" stop-color="#F1EFED"/>
<stop offset="0.488143" stop-color="#DDDDDD" stop-opacity="0.22"/>
<stop offset="0.897958" stop-color="#F1EFED"/>
</linearGradient>
<linearGradient id="paint28_linear_24683_39240" x1="273.706" y1="336.947" x2="154.198" y2="-140.084" gradientUnits="userSpaceOnUse">
<stop offset="0.121234" stop-color="#F1EFED"/>
<stop offset="0.488143" stop-color="#DDDDDD" stop-opacity="0.22"/>
<stop offset="0.897958" stop-color="#F1EFED"/>
</linearGradient>
<linearGradient id="paint29_linear_24683_39240" x1="273.706" y1="336.947" x2="154.198" y2="-140.084" gradientUnits="userSpaceOnUse">
<stop offset="0.121234" stop-color="#F1EFED"/>
<stop offset="0.488143" stop-color="#DDDDDD" stop-opacity="0.22"/>
<stop offset="0.897958" stop-color="#F1EFED"/>
</linearGradient>
<linearGradient id="paint30_linear_24683_39240" x1="273.706" y1="336.947" x2="154.198" y2="-140.084" gradientUnits="userSpaceOnUse">
<stop offset="0.121234" stop-color="#F1EFED"/>
<stop offset="0.488143" stop-color="#DDDDDD" stop-opacity="0.22"/>
<stop offset="0.897958" stop-color="#F1EFED"/>
</linearGradient>
<linearGradient id="paint31_linear_24683_39240" x1="273.706" y1="336.947" x2="154.198" y2="-140.084" gradientUnits="userSpaceOnUse">
<stop offset="0.121234" stop-color="#F1EFED"/>
<stop offset="0.488143" stop-color="#DDDDDD" stop-opacity="0.22"/>
<stop offset="0.897958" stop-color="#F1EFED"/>
</linearGradient>
<linearGradient id="paint32_linear_24683_39240" x1="273.706" y1="336.947" x2="154.198" y2="-140.084" gradientUnits="userSpaceOnUse">
<stop offset="0.121234" stop-color="#F1EFED"/>
<stop offset="0.488143" stop-color="#DDDDDD" stop-opacity="0.22"/>
<stop offset="0.897958" stop-color="#F1EFED"/>
</linearGradient>
<linearGradient id="paint33_linear_24683_39240" x1="273.706" y1="336.947" x2="154.198" y2="-140.084" gradientUnits="userSpaceOnUse">
<stop offset="0.121234" stop-color="#F1EFED"/>
<stop offset="0.488143" stop-color="#DDDDDD" stop-opacity="0.22"/>
<stop offset="0.897958" stop-color="#F1EFED"/>
</linearGradient>
<linearGradient id="paint34_linear_24683_39240" x1="273.706" y1="336.947" x2="154.198" y2="-140.084" gradientUnits="userSpaceOnUse">
<stop offset="0.121234" stop-color="#F1EFED"/>
<stop offset="0.488143" stop-color="#DDDDDD" stop-opacity="0.22"/>
<stop offset="0.897958" stop-color="#F1EFED"/>
</linearGradient>
<linearGradient id="paint35_linear_24683_39240" x1="273.706" y1="336.947" x2="154.198" y2="-140.084" gradientUnits="userSpaceOnUse">
<stop offset="0.121234" stop-color="#F1EFED"/>
<stop offset="0.488143" stop-color="#DDDDDD" stop-opacity="0.22"/>
<stop offset="0.897958" stop-color="#F1EFED"/>
</linearGradient>
<linearGradient id="paint36_linear_24683_39240" x1="273.706" y1="336.947" x2="154.198" y2="-140.084" gradientUnits="userSpaceOnUse">
<stop offset="0.121234" stop-color="#F1EFED"/>
<stop offset="0.488143" stop-color="#DDDDDD" stop-opacity="0.22"/>
<stop offset="0.897958" stop-color="#F1EFED"/>
</linearGradient>
<linearGradient id="paint37_linear_24683_39240" x1="273.706" y1="336.947" x2="154.198" y2="-140.084" gradientUnits="userSpaceOnUse">
<stop offset="0.121234" stop-color="#F1EFED"/>
<stop offset="0.488143" stop-color="#DDDDDD" stop-opacity="0.22"/>
<stop offset="0.897958" stop-color="#F1EFED"/>
</linearGradient>
<linearGradient id="paint38_linear_24683_39240" x1="273.706" y1="336.947" x2="154.198" y2="-140.084" gradientUnits="userSpaceOnUse">
<stop offset="0.121234" stop-color="#F1EFED"/>
<stop offset="0.488143" stop-color="#DDDDDD" stop-opacity="0.22"/>
<stop offset="0.897958" stop-color="#F1EFED"/>
</linearGradient>
<linearGradient id="paint39_linear_24683_39240" x1="273.706" y1="336.947" x2="154.198" y2="-140.084" gradientUnits="userSpaceOnUse">
<stop offset="0.121234" stop-color="#F1EFED"/>
<stop offset="0.488143" stop-color="#DDDDDD" stop-opacity="0.22"/>
<stop offset="0.897958" stop-color="#F1EFED"/>
</linearGradient>
<linearGradient id="paint40_linear_24683_39240" x1="273.706" y1="336.947" x2="154.198" y2="-140.084" gradientUnits="userSpaceOnUse">
<stop offset="0.121234" stop-color="#F1EFED"/>
<stop offset="0.488143" stop-color="#DDDDDD" stop-opacity="0.22"/>
<stop offset="0.897958" stop-color="#F1EFED"/>
</linearGradient>
<linearGradient id="paint41_linear_24683_39240" x1="273.706" y1="336.947" x2="154.198" y2="-140.084" gradientUnits="userSpaceOnUse">
<stop offset="0.121234" stop-color="#F1EFED"/>
<stop offset="0.488143" stop-color="#DDDDDD" stop-opacity="0.22"/>
<stop offset="0.897958" stop-color="#F1EFED"/>
</linearGradient>
<linearGradient id="paint42_linear_24683_39240" x1="273.706" y1="336.947" x2="154.198" y2="-140.084" gradientUnits="userSpaceOnUse">
<stop offset="0.121234" stop-color="#F1EFED"/>
<stop offset="0.488143" stop-color="#DDDDDD" stop-opacity="0.22"/>
<stop offset="0.897958" stop-color="#F1EFED"/>
</linearGradient>
<linearGradient id="paint43_linear_24683_39240" x1="273.706" y1="336.947" x2="154.198" y2="-140.084" gradientUnits="userSpaceOnUse">
<stop offset="0.121234" stop-color="#F1EFED"/>
<stop offset="0.488143" stop-color="#DDDDDD" stop-opacity="0.22"/>
<stop offset="0.897958" stop-color="#F1EFED"/>
</linearGradient>
<linearGradient id="paint44_linear_24683_39240" x1="273.706" y1="336.947" x2="154.198" y2="-140.084" gradientUnits="userSpaceOnUse">
<stop offset="0.121234" stop-color="#F1EFED"/>
<stop offset="0.488143" stop-color="#DDDDDD" stop-opacity="0.22"/>
<stop offset="0.897958" stop-color="#F1EFED"/>
</linearGradient>
<linearGradient id="paint45_linear_24683_39240" x1="273.706" y1="336.947" x2="154.198" y2="-140.084" gradientUnits="userSpaceOnUse">
<stop offset="0.121234" stop-color="#F1EFED"/>
<stop offset="0.488143" stop-color="#DDDDDD" stop-opacity="0.22"/>
<stop offset="0.897958" stop-color="#F1EFED"/>
</linearGradient>
<linearGradient id="paint46_linear_24683_39240" x1="273.706" y1="336.947" x2="154.198" y2="-140.084" gradientUnits="userSpaceOnUse">
<stop offset="0.121234" stop-color="#F1EFED"/>
<stop offset="0.488143" stop-color="#DDDDDD" stop-opacity="0.22"/>
<stop offset="0.897958" stop-color="#F1EFED"/>
</linearGradient>
<linearGradient id="paint47_linear_24683_39240" x1="273.706" y1="336.947" x2="154.198" y2="-140.084" gradientUnits="userSpaceOnUse">
<stop offset="0.121234" stop-color="#F1EFED"/>
<stop offset="0.488143" stop-color="#DDDDDD" stop-opacity="0.22"/>
<stop offset="0.897958" stop-color="#F1EFED"/>
</linearGradient>
<linearGradient id="paint48_linear_24683_39240" x1="273.706" y1="336.947" x2="154.198" y2="-140.084" gradientUnits="userSpaceOnUse">
<stop offset="0.121234" stop-color="#F1EFED"/>
<stop offset="0.488143" stop-color="#DDDDDD" stop-opacity="0.22"/>
<stop offset="0.897958" stop-color="#F1EFED"/>
</linearGradient>
<linearGradient id="paint49_linear_24683_39240" x1="273.706" y1="336.947" x2="154.198" y2="-140.084" gradientUnits="userSpaceOnUse">
<stop offset="0.121234" stop-color="#F1EFED"/>
<stop offset="0.488143" stop-color="#DDDDDD" stop-opacity="0.22"/>
<stop offset="0.897958" stop-color="#F1EFED"/>
</linearGradient>
<linearGradient id="paint50_linear_24683_39240" x1="273.706" y1="336.947" x2="154.198" y2="-140.084" gradientUnits="userSpaceOnUse">
<stop offset="0.121234" stop-color="#F1EFED"/>
<stop offset="0.488143" stop-color="#DDDDDD" stop-opacity="0.22"/>
<stop offset="0.897958" stop-color="#F1EFED"/>
</linearGradient>
<linearGradient id="paint51_linear_24683_39240" x1="273.706" y1="336.947" x2="154.198" y2="-140.084" gradientUnits="userSpaceOnUse">
<stop offset="0.121234" stop-color="#F1EFED"/>
<stop offset="0.488143" stop-color="#DDDDDD" stop-opacity="0.22"/>
<stop offset="0.897958" stop-color="#F1EFED"/>
</linearGradient>
<linearGradient id="paint52_linear_24683_39240" x1="273.706" y1="336.947" x2="154.198" y2="-140.084" gradientUnits="userSpaceOnUse">
<stop offset="0.121234" stop-color="#F1EFED"/>
<stop offset="0.488143" stop-color="#DDDDDD" stop-opacity="0.22"/>
<stop offset="0.897958" stop-color="#F1EFED"/>
</linearGradient>
<linearGradient id="paint53_linear_24683_39240" x1="273.706" y1="336.947" x2="154.198" y2="-140.084" gradientUnits="userSpaceOnUse">
<stop offset="0.121234" stop-color="#F1EFED"/>
<stop offset="0.488143" stop-color="#DDDDDD" stop-opacity="0.22"/>
<stop offset="0.897958" stop-color="#F1EFED"/>
</linearGradient>
<linearGradient id="paint54_linear_24683_39240" x1="273.706" y1="336.947" x2="154.198" y2="-140.084" gradientUnits="userSpaceOnUse">
<stop offset="0.121234" stop-color="#F1EFED"/>
<stop offset="0.488143" stop-color="#DDDDDD" stop-opacity="0.22"/>
<stop offset="0.897958" stop-color="#F1EFED"/>
</linearGradient>
<linearGradient id="paint55_linear_24683_39240" x1="273.706" y1="336.947" x2="154.198" y2="-140.084" gradientUnits="userSpaceOnUse">
<stop offset="0.121234" stop-color="#F1EFED"/>
<stop offset="0.488143" stop-color="#DDDDDD" stop-opacity="0.22"/>
<stop offset="0.897958" stop-color="#F1EFED"/>
</linearGradient>
<linearGradient id="paint56_linear_24683_39240" x1="273.706" y1="336.947" x2="154.198" y2="-140.084" gradientUnits="userSpaceOnUse">
<stop offset="0.121234" stop-color="#F1EFED"/>
<stop offset="0.488143" stop-color="#DDDDDD" stop-opacity="0.22"/>
<stop offset="0.897958" stop-color="#F1EFED"/>
</linearGradient>
<linearGradient id="paint57_linear_24683_39240" x1="273.706" y1="336.947" x2="154.198" y2="-140.084" gradientUnits="userSpaceOnUse">
<stop offset="0.121234" stop-color="#F1EFED"/>
<stop offset="0.488143" stop-color="#DDDDDD" stop-opacity="0.22"/>
<stop offset="0.897958" stop-color="#F1EFED"/>
</linearGradient>
<linearGradient id="paint58_linear_24683_39240" x1="273.706" y1="336.947" x2="154.198" y2="-140.084" gradientUnits="userSpaceOnUse">
<stop offset="0.121234" stop-color="#F1EFED"/>
<stop offset="0.488143" stop-color="#DDDDDD" stop-opacity="0.22"/>
<stop offset="0.897958" stop-color="#F1EFED"/>
</linearGradient>
<linearGradient id="paint59_linear_24683_39240" x1="273.706" y1="336.947" x2="154.198" y2="-140.084" gradientUnits="userSpaceOnUse">
<stop offset="0.121234" stop-color="#F1EFED"/>
<stop offset="0.488143" stop-color="#DDDDDD" stop-opacity="0.22"/>
<stop offset="0.897958" stop-color="#F1EFED"/>
</linearGradient>
<linearGradient id="paint60_linear_24683_39240" x1="273.706" y1="336.947" x2="154.198" y2="-140.084" gradientUnits="userSpaceOnUse">
<stop offset="0.121234" stop-color="#F1EFED"/>
<stop offset="0.488143" stop-color="#DDDDDD" stop-opacity="0.22"/>
<stop offset="0.897958" stop-color="#F1EFED"/>
</linearGradient>
<linearGradient id="paint61_linear_24683_39240" x1="273.706" y1="336.947" x2="154.198" y2="-140.084" gradientUnits="userSpaceOnUse">
<stop offset="0.121234" stop-color="#F1EFED"/>
<stop offset="0.488143" stop-color="#DDDDDD" stop-opacity="0.22"/>
<stop offset="0.897958" stop-color="#F1EFED"/>
</linearGradient>
<linearGradient id="paint62_linear_24683_39240" x1="273.706" y1="336.947" x2="154.198" y2="-140.084" gradientUnits="userSpaceOnUse">
<stop offset="0.121234" stop-color="#F1EFED"/>
<stop offset="0.488143" stop-color="#DDDDDD" stop-opacity="0.22"/>
<stop offset="0.897958" stop-color="#F1EFED"/>
</linearGradient>
<linearGradient id="paint63_linear_24683_39240" x1="273.706" y1="336.947" x2="154.198" y2="-140.084" gradientUnits="userSpaceOnUse">
<stop offset="0.121234" stop-color="#F1EFED"/>
<stop offset="0.488143" stop-color="#DDDDDD" stop-opacity="0.22"/>
<stop offset="0.897958" stop-color="#F1EFED"/>
</linearGradient>
<linearGradient id="paint64_linear_24683_39240" x1="273.706" y1="336.947" x2="154.198" y2="-140.084" gradientUnits="userSpaceOnUse">
<stop offset="0.121234" stop-color="#F1EFED"/>
<stop offset="0.488143" stop-color="#DDDDDD" stop-opacity="0.22"/>
<stop offset="0.897958" stop-color="#F1EFED"/>
</linearGradient>
<linearGradient id="paint65_linear_24683_39240" x1="273.706" y1="336.947" x2="154.198" y2="-140.084" gradientUnits="userSpaceOnUse">
<stop offset="0.121234" stop-color="#F1EFED"/>
<stop offset="0.488143" stop-color="#DDDDDD" stop-opacity="0.22"/>
<stop offset="0.897958" stop-color="#F1EFED"/>
</linearGradient>
<linearGradient id="paint66_linear_24683_39240" x1="273.706" y1="336.947" x2="154.198" y2="-140.084" gradientUnits="userSpaceOnUse">
<stop offset="0.121234" stop-color="#F1EFED"/>
<stop offset="0.488143" stop-color="#DDDDDD" stop-opacity="0.22"/>
<stop offset="0.897958" stop-color="#F1EFED"/>
</linearGradient>
<linearGradient id="paint67_linear_24683_39240" x1="273.706" y1="336.947" x2="154.198" y2="-140.084" gradientUnits="userSpaceOnUse">
<stop offset="0.121234" stop-color="#F1EFED"/>
<stop offset="0.488143" stop-color="#DDDDDD" stop-opacity="0.22"/>
<stop offset="0.897958" stop-color="#F1EFED"/>
</linearGradient>
<linearGradient id="paint68_linear_24683_39240" x1="273.706" y1="336.947" x2="154.198" y2="-140.084" gradientUnits="userSpaceOnUse">
<stop offset="0.121234" stop-color="#F1EFED"/>
<stop offset="0.488143" stop-color="#DDDDDD" stop-opacity="0.22"/>
<stop offset="0.897958" stop-color="#F1EFED"/>
</linearGradient>
<linearGradient id="paint69_linear_24683_39240" x1="273.706" y1="336.947" x2="154.198" y2="-140.084" gradientUnits="userSpaceOnUse">
<stop offset="0.121234" stop-color="#F1EFED"/>
<stop offset="0.488143" stop-color="#DDDDDD" stop-opacity="0.22"/>
<stop offset="0.897958" stop-color="#F1EFED"/>
</linearGradient>
<linearGradient id="paint70_linear_24683_39240" x1="273.706" y1="336.947" x2="154.198" y2="-140.084" gradientUnits="userSpaceOnUse">
<stop offset="0.121234" stop-color="#F1EFED"/>
<stop offset="0.488143" stop-color="#DDDDDD" stop-opacity="0.22"/>
<stop offset="0.897958" stop-color="#F1EFED"/>
</linearGradient>
<linearGradient id="paint71_linear_24683_39240" x1="273.706" y1="336.947" x2="154.198" y2="-140.084" gradientUnits="userSpaceOnUse">
<stop offset="0.121234" stop-color="#F1EFED"/>
<stop offset="0.488143" stop-color="#DDDDDD" stop-opacity="0.22"/>
<stop offset="0.897958" stop-color="#F1EFED"/>
</linearGradient>
<linearGradient id="paint72_linear_24683_39240" x1="273.706" y1="336.947" x2="154.198" y2="-140.084" gradientUnits="userSpaceOnUse">
<stop offset="0.121234" stop-color="#F1EFED"/>
<stop offset="0.488143" stop-color="#DDDDDD" stop-opacity="0.22"/>
<stop offset="0.897958" stop-color="#F1EFED"/>
</linearGradient>
<clipPath id="clip0_24683_39240">
<rect width="375" height="708" fill="white"/>
</clipPath>
</defs>
</svg>
