<svg width="194" height="78" viewBox="0 0 194 78" fill="none" xmlns="http://www.w3.org/2000/svg">
<path d="M20.8304 22.1384C24.3669 25.5127 28.0127 28.7902 31.7579 31.9131C31.8883 32.0139 31.9728 32.1606 31.9932 32.3216C32.0137 32.4825 31.9684 32.6448 31.8671 32.7735C31.8126 32.8374 31.7456 32.89 31.67 32.9285C31.5944 32.9669 31.5117 32.9904 31.4267 32.9976C31.3418 33.0048 31.2562 32.9956 31.1749 32.9704C31.0936 32.9452 31.0183 32.9046 30.9532 32.8509C27.218 29.641 23.6219 26.2765 20.145 22.8152C20.0984 22.7703 20.0615 22.7168 20.0362 22.6579C20.011 22.599 19.998 22.5358 19.998 22.472C19.998 22.4082 20.011 22.345 20.0362 22.2861C20.0615 22.2272 20.0984 22.1737 20.145 22.1288C20.2386 22.0443 20.3621 21.9983 20.4897 22.0001C20.6173 22.0019 20.7393 22.0514 20.8304 22.1384Z" fill="black"/>
<path d="M42.1552 41.0961C46.1442 44.0139 50.2408 46.7672 54.4742 49.2638C54.5852 49.3134 54.685 49.3869 54.7672 49.4797C54.8494 49.5724 54.9122 49.6823 54.9514 49.8021C54.9906 49.922 55.0053 50.0492 54.9947 50.1754C54.9841 50.3017 54.9484 50.4242 54.8898 50.535C54.8312 50.6458 54.7511 50.7424 54.6547 50.8185C54.5583 50.8947 54.4477 50.9487 54.3302 50.9771C54.2126 51.0054 54.0907 51.0075 53.9724 50.9832C53.854 50.9588 53.7418 50.9086 53.6431 50.8357C49.3658 48.2832 45.23 45.4774 41.2558 42.4317C41.1129 42.296 41.0227 42.1097 41.0024 41.9085C40.9821 41.7074 41.0331 41.5054 41.1457 41.3412C41.2583 41.1771 41.4246 41.0624 41.6126 41.0191C41.8007 40.9757 41.9974 41.0068 42.165 41.1063L42.1552 41.0961Z" fill="black"/>
<path d="M67.1721 55.0569C71.4859 56.9826 75.89 58.6777 80.3675 60.136C80.5946 60.2195 80.7826 60.3909 80.893 60.615C81.0034 60.8392 81.0278 61.0991 80.9613 61.3415C80.8817 61.5774 80.7197 61.7728 80.5081 61.8883C80.2964 62.0039 80.0508 62.0309 79.8209 61.964C75.2904 60.4555 70.8574 58.7131 66.5217 56.7368C66.4171 56.6895 66.3224 56.621 66.243 56.5353C66.1636 56.4496 66.1012 56.3483 66.0592 56.2373C66.0171 56.1262 65.9964 56.0076 65.9981 55.8881C65.9999 55.7687 66.0241 55.6508 66.0693 55.5411C66.1605 55.3291 66.3251 55.1612 66.5297 55.0713C66.7344 54.9815 66.9639 54.9763 67.1721 55.0569Z" fill="black"/>
<path d="M94.2537 64.0394L108.378 67.3031C108.594 67.373 108.775 67.5175 108.885 67.7081C108.995 67.8987 109.026 68.1217 108.972 68.3333C108.919 68.5448 108.784 68.7295 108.595 68.8512C108.406 68.9728 108.176 69.0225 107.951 68.9905L93.7291 65.7918C93.4855 65.7324 93.2756 65.5853 93.1434 65.3812C93.0111 65.1772 92.9669 64.9322 93.0199 64.6977C93.0821 64.4653 93.2363 64.2649 93.4501 64.1387C93.6638 64.0125 93.9205 63.9703 94.1662 64.0209H94.2148L94.2537 64.0394Z" fill="black"/>
<path d="M122.994 71.0069L137.319 73.3443C137.424 73.3614 137.524 73.3994 137.614 73.4563C137.704 73.5132 137.782 73.5879 137.844 73.676C137.907 73.7641 137.951 73.864 137.976 73.9699C138.001 74.0758 138.005 74.1857 137.988 74.2933C137.971 74.4053 137.931 74.5125 137.873 74.6085C137.814 74.7044 137.737 74.7871 137.647 74.8516C137.556 74.916 137.454 74.9608 137.346 74.9833C137.238 75.0058 137.127 75.0056 137.019 74.9825L122.733 72.755C122.509 72.7204 122.307 72.5961 122.171 72.4092C122.035 72.2222 121.975 71.9876 122.006 71.7561C122.042 71.5262 122.163 71.3195 122.344 71.1798C122.525 71.0401 122.751 70.9781 122.975 71.0069H122.994Z" fill="black"/>
<path d="M150.866 75L165.515 76.1328C165.654 76.1431 165.783 76.1982 165.873 76.286C165.963 76.3739 166.007 76.4875 165.996 76.6022C165.984 76.7167 165.917 76.8226 165.811 76.8968C165.704 76.9711 165.566 77.0076 165.427 76.9987L150.7 76.1895C150.605 76.1923 150.511 76.1786 150.423 76.1495C150.335 76.1203 150.255 76.0763 150.189 76.0203C150.123 75.9643 150.072 75.8975 150.04 75.8242C150.007 75.7509 149.993 75.6728 150 75.5949C150.006 75.517 150.032 75.441 150.076 75.3719C150.12 75.3028 150.181 75.242 150.255 75.1936C150.33 75.1452 150.415 75.1101 150.507 75.0907C150.599 75.0713 150.695 75.068 150.788 75.0809L150.866 75Z" fill="black"/>
<path d="M179.319 77L193.92 77.794C193.939 77.7937 193.958 77.8041 193.972 77.823C193.986 77.842 193.996 77.8683 193.998 77.8968C193.996 77.9254 193.986 77.9517 193.972 77.9707C193.958 77.9897 193.939 78 193.92 77.9998H179.319C179.277 78.0018 179.234 77.9907 179.195 77.967C179.155 77.9433 179.119 77.9077 179.089 77.8622C179.059 77.8167 179.036 77.7624 179.02 77.7026C179.004 77.6429 178.997 77.5789 178.998 77.5146C178.998 77.4509 179.007 77.3878 179.023 77.3289C179.039 77.2701 179.062 77.2165 179.092 77.1715C179.122 77.1264 179.158 77.0907 179.196 77.0663C179.235 77.0419 179.277 77.0294 179.319 77.0294V77Z" fill="black"/>
<path d="M0.998047 0C4.32563 3.8179 7.63024 7.65651 10.9119 11.5158C10.9389 11.5401 10.9606 11.5703 10.9755 11.6043C10.9903 11.6383 10.998 11.6752 10.998 11.7126C10.998 11.75 10.9903 11.7869 10.9755 11.8209C10.9606 11.8549 10.9389 11.8851 10.9119 11.9094C10.8888 11.9378 10.8601 11.9606 10.8278 11.9762C10.7955 11.9919 10.7604 12 10.7248 12C10.6893 12 10.6542 11.9919 10.6219 11.9762C10.5896 11.9606 10.5609 11.9378 10.5378 11.9094C7.32833 7.94648 4.14842 3.97669 0.998047 0Z" fill="black"/>
</svg>
