<svg width="119" height="50" viewBox="0 0 119 50" fill="none" xmlns="http://www.w3.org/2000/svg">
<path d="M0.998047 50C4.74147 46.9939 8.55176 44.0556 12.3334 41.0883C12.376 41.0546 12.4248 41.0297 12.4769 41.0151C12.529 41.0005 12.5834 40.9964 12.637 41.0032C12.6907 41.0099 12.7425 41.0273 12.7895 41.0544C12.8365 41.0815 12.8779 41.1177 12.9111 41.161C12.9443 41.2043 12.9688 41.2539 12.9832 41.3068C12.9976 41.3597 13.0016 41.415 12.9949 41.4694C12.9883 41.5239 12.9711 41.5765 12.9444 41.6243C12.9178 41.672 12.8821 41.714 12.8395 41.7477C8.87641 44.5114 4.97066 47.2945 0.998047 50Z" fill="black"/>
<path d="M24.2844 31.7455L36.69 24.1277C36.8844 24.0075 37.1181 23.9702 37.3397 24.0242C37.5614 24.0781 37.7527 24.2189 37.8717 24.4155C37.9907 24.6121 38.0275 24.8484 37.9742 25.0725C37.9208 25.2966 37.7815 25.49 37.5871 25.6103H37.5389L25.0465 32.8965C24.9668 32.9463 24.878 32.979 24.7853 32.9927C24.6926 33.0064 24.5982 33.0007 24.5077 32.9761C24.4173 32.9514 24.3329 32.9082 24.2596 32.8493C24.1864 32.7903 24.1259 32.7167 24.0818 32.6331C24.0016 32.4859 23.978 32.314 24.0153 32.1502C24.0527 31.9864 24.1485 31.8423 24.2844 31.7455Z" fill="black"/>
<path d="M49.5289 17.0804C53.9064 14.8641 58.3609 12.824 62.8923 11.0116C63.1101 10.9762 63.3325 11.0223 63.5225 11.1422C63.7125 11.262 63.8585 11.4485 63.9362 11.6703C64.0139 11.8921 64.0185 12.1358 63.9494 12.3609C63.8802 12.5859 63.7414 12.7786 63.5562 12.9068C59.0664 14.7502 54.6568 16.7524 50.3274 18.9134C50.0997 19.0205 49.8422 19.0285 49.6091 18.9359C49.3759 18.8432 49.1852 18.657 49.0767 18.4163C48.9795 18.1736 48.9721 17.9 49.0562 17.6516C49.1402 17.4032 49.3093 17.1989 49.5289 17.0804Z" fill="black"/>
<path d="M76.5597 6.29728C81.0719 5.01667 85.6306 3.91856 90.2359 3.00292C90.4071 2.987 90.5779 3.03653 90.7158 3.14212C90.8538 3.24771 90.9491 3.40192 90.9837 3.57533C91.0183 3.74874 90.9897 3.9292 90.9034 4.08226C90.817 4.23533 90.679 4.35029 90.5156 4.40518C85.9724 5.43607 81.479 6.62704 77.0352 7.97808C76.8253 8.02745 76.605 7.99273 76.419 7.88097C76.233 7.76922 76.0952 7.58878 76.0336 7.37624C75.9719 7.1637 75.991 6.93496 76.087 6.73639C76.1829 6.53782 76.3486 6.38426 76.5504 6.30687L76.5597 6.29728Z" fill="black"/>
<path d="M104.363 0.996816C109.219 0.477203 114.076 0.106049 118.932 6.19637e-06C118.946 -0.000206012 118.959 0.00503877 118.97 0.0147632C118.981 0.0244876 118.988 0.0380371 118.99 0.0530149C118.995 0.0626873 118.998 0.0736579 118.998 0.0848266C118.998 0.0959953 118.995 0.106998 118.99 0.116671C114.134 0.615074 109.278 1.17709 104.538 1.99362C104.477 2.0042 104.415 2.0016 104.356 1.98599C104.296 1.97038 104.24 1.94206 104.19 1.90266C104.141 1.86325 104.099 1.81353 104.067 1.75635C104.035 1.69917 104.013 1.63566 104.004 1.56946C103.994 1.50391 103.997 1.43693 104.011 1.37244C104.025 1.30795 104.052 1.24724 104.088 1.1939C104.124 1.14056 104.169 1.09564 104.222 1.0618C104.274 1.02795 104.332 1.00587 104.392 0.996816H104.363Z" fill="black"/>
</svg>
