<svg width="564" height="596" viewBox="0 0 564 596" fill="none" xmlns="http://www.w3.org/2000/svg">
<path d="M558.062 0C560.371 4.43561 562.358 9.03108 564.008 13.751C562.358 9.03098 560.371 4.43549 558.062 0Z" fill="black"/>
<path d="M554.842 197.343C551.289 200.872 547.549 204.208 543.639 207.337C543.591 207.385 543.532 207.422 543.468 207.447C543.404 207.471 543.335 207.482 543.267 207.478C543.198 207.474 543.131 207.456 543.07 207.424C543.009 207.393 542.955 207.349 542.912 207.296C542.869 207.242 542.838 207.18 542.821 207.114C542.803 207.047 542.8 206.978 542.811 206.91C542.822 206.842 542.847 206.778 542.885 206.72C542.923 206.663 542.972 206.614 543.03 206.577C546.932 203.482 550.662 200.176 554.202 196.673C554.288 196.587 554.405 196.539 554.527 196.539C554.649 196.539 554.765 196.587 554.852 196.673C554.895 196.718 554.93 196.77 554.953 196.828C554.976 196.886 554.988 196.948 554.987 197.01C554.986 197.073 554.973 197.134 554.948 197.191C554.923 197.248 554.887 197.3 554.842 197.343Z" fill="black"/>
<path d="M531.469 216.191C527.272 218.949 522.968 221.517 518.558 223.896C518.435 223.963 518.29 223.979 518.155 223.94C518.02 223.901 517.906 223.809 517.839 223.686C517.771 223.563 517.755 223.418 517.795 223.283C517.834 223.148 517.925 223.034 518.049 222.966C522.439 220.608 526.722 218.066 530.9 215.341C530.955 215.304 531.017 215.279 531.083 215.267C531.148 215.254 531.216 215.255 531.281 215.269C531.346 215.283 531.408 215.31 531.462 215.348C531.517 215.386 531.564 215.435 531.599 215.491C531.637 215.546 531.664 215.607 531.678 215.672C531.691 215.736 531.692 215.803 531.68 215.868C531.668 215.933 531.643 215.995 531.607 216.051C531.571 216.106 531.524 216.154 531.469 216.191Z" fill="black"/>
<path d="M505.065 230.529C500.475 232.527 495.812 234.373 491.075 236.065C491.003 236.1 490.924 236.119 490.843 236.122C490.763 236.124 490.683 236.109 490.609 236.078C490.535 236.047 490.468 236.001 490.413 235.943C490.357 235.884 490.315 235.814 490.289 235.738C490.263 235.662 490.253 235.582 490.26 235.502C490.267 235.422 490.291 235.344 490.331 235.274C490.37 235.204 490.424 235.143 490.488 235.095C490.553 235.047 490.627 235.013 490.706 234.996C495.422 233.35 500.069 231.528 504.646 229.529C504.778 229.472 504.928 229.469 505.063 229.522C505.198 229.574 505.306 229.677 505.365 229.809C505.394 229.876 505.41 229.948 505.41 230.021C505.411 230.094 505.397 230.166 505.369 230.233C505.341 230.3 505.3 230.361 505.247 230.412C505.195 230.463 505.133 230.503 505.065 230.529Z" fill="black"/>
<path d="M476.662 240.374C471.777 241.58 466.805 242.398 461.792 242.822C461.633 242.836 461.475 242.785 461.354 242.682C461.232 242.579 461.156 242.432 461.143 242.273C461.129 242.114 461.18 241.956 461.283 241.834C461.386 241.712 461.533 241.637 461.692 241.623C466.648 241.217 471.563 240.418 476.392 239.235C476.466 239.217 476.543 239.214 476.618 239.226C476.694 239.238 476.766 239.265 476.831 239.304C476.896 239.344 476.952 239.397 476.997 239.459C477.042 239.52 477.074 239.59 477.091 239.665C477.128 239.816 477.103 239.975 477.023 240.108C476.942 240.241 476.812 240.336 476.662 240.374Z" fill="black"/>
<path d="M446.684 242.432L442.947 241.782C441.708 241.552 440.478 241.243 439.259 240.913C436.818 240.25 434.429 239.405 432.114 238.385C432.038 238.35 431.968 238.301 431.91 238.241C431.852 238.18 431.807 238.108 431.777 238.03C431.747 237.951 431.732 237.868 431.735 237.784C431.737 237.7 431.755 237.617 431.79 237.54C431.824 237.463 431.873 237.394 431.933 237.336C431.994 237.278 432.066 237.233 432.144 237.203C432.223 237.173 432.306 237.158 432.39 237.16C432.474 237.163 432.557 237.181 432.634 237.215C434.901 238.216 437.239 239.048 439.629 239.704C440.818 240.023 442.017 240.333 443.236 240.553L446.884 241.203C446.968 241.212 447.049 241.239 447.122 241.281C447.195 241.323 447.259 241.379 447.31 241.446C447.36 241.514 447.397 241.591 447.416 241.673C447.436 241.755 447.439 241.84 447.425 241.923C447.41 242.007 447.379 242.086 447.333 242.157C447.287 242.227 447.227 242.288 447.157 242.335C447.087 242.381 447.007 242.413 446.924 242.428C446.841 242.443 446.756 242.441 446.674 242.422L446.684 242.432Z" fill="black"/>
<path d="M419.86 229.529C418.208 227.546 416.913 225.29 416.033 222.863C415.146 220.423 414.738 217.834 414.834 215.238C414.837 215.15 414.857 215.063 414.894 214.983C414.93 214.902 414.983 214.83 415.048 214.77C415.113 214.711 415.19 214.665 415.273 214.635C415.357 214.606 415.445 214.593 415.534 214.599C415.712 214.607 415.88 214.684 416.002 214.815C416.123 214.946 416.188 215.12 416.183 215.298C416.092 217.716 416.469 220.129 417.292 222.404C418.114 224.689 419.325 226.816 420.87 228.69C420.975 228.823 421.023 228.992 421.005 229.16C420.988 229.328 420.905 229.483 420.774 229.592C420.644 229.7 420.477 229.753 420.308 229.739C420.139 229.726 419.982 229.647 419.87 229.519L419.86 229.529Z" fill="black"/>
<path d="M422.641 202.375C424.778 200.964 427.08 199.819 429.496 198.968C431.887 198.11 434.348 197.458 436.851 197.019C437.036 196.986 437.227 197.028 437.382 197.135C437.536 197.243 437.642 197.408 437.675 197.594C437.708 197.779 437.666 197.97 437.558 198.125C437.451 198.279 437.286 198.385 437.1 198.418C432.24 199.183 427.586 200.927 423.42 203.545C423.344 203.596 423.26 203.632 423.17 203.65C423.081 203.668 422.989 203.669 422.9 203.652C422.81 203.635 422.725 203.6 422.649 203.55C422.572 203.5 422.507 203.435 422.456 203.36C422.404 203.284 422.369 203.199 422.35 203.11C422.332 203.021 422.331 202.929 422.348 202.839C422.366 202.75 422.4 202.664 422.45 202.588C422.5 202.512 422.565 202.447 422.641 202.395V202.375Z" fill="black"/>
<path d="M451.997 196.552C454.539 196.86 457.034 197.484 459.421 198.411C461.799 199.326 464.079 200.478 466.227 201.848C466.386 201.953 466.5 202.115 466.545 202.301C466.589 202.486 466.561 202.682 466.467 202.848C466.36 203.006 466.199 203.118 466.014 203.162C465.829 203.207 465.634 203.18 465.467 203.088C463.405 201.764 461.215 200.649 458.932 199.76C456.654 198.871 454.274 198.27 451.847 197.971C451.752 197.959 451.66 197.928 451.577 197.88C451.493 197.832 451.42 197.768 451.362 197.692C451.303 197.616 451.261 197.529 451.236 197.436C451.211 197.343 451.205 197.247 451.217 197.151C451.228 197.057 451.258 196.965 451.305 196.882C451.352 196.799 451.415 196.726 451.49 196.667C451.565 196.609 451.652 196.566 451.744 196.541C451.836 196.516 451.932 196.509 452.027 196.522L451.997 196.552Z" fill="black"/>
<path d="M477.852 211.54L483.029 216.996L487.935 222.742C488.004 222.819 488.056 222.909 488.089 223.006C488.122 223.103 488.135 223.206 488.127 223.309C488.12 223.411 488.092 223.511 488.045 223.603C487.999 223.694 487.934 223.775 487.855 223.842C487.778 223.91 487.687 223.962 487.589 223.995C487.491 224.029 487.387 224.042 487.284 224.034C487.181 224.027 487.08 223.999 486.988 223.952C486.895 223.905 486.813 223.841 486.746 223.762V223.712L481.92 218.055L476.803 212.609C476.732 212.538 476.675 212.454 476.637 212.362C476.598 212.269 476.578 212.17 476.578 212.069C476.578 211.969 476.598 211.87 476.637 211.777C476.675 211.684 476.732 211.6 476.803 211.53C476.945 211.394 477.134 211.318 477.33 211.32C477.526 211.322 477.714 211.401 477.852 211.54Z" fill="black"/>
<path d="M496.075 235.528C498.313 240.092 499.894 244.951 500.771 249.958C500.808 250.173 500.759 250.394 500.633 250.572C500.508 250.75 500.317 250.871 500.102 250.908C499.887 250.945 499.667 250.895 499.489 250.77C499.311 250.644 499.19 250.453 499.153 250.238C498.312 245.384 496.788 240.674 494.626 236.247C494.58 236.152 494.554 236.049 494.548 235.944C494.542 235.838 494.558 235.733 494.593 235.634C494.628 235.534 494.683 235.443 494.754 235.365C494.824 235.286 494.91 235.223 495.005 235.178C495.098 235.13 495.2 235.101 495.304 235.092C495.409 235.084 495.514 235.096 495.613 235.129C495.713 235.162 495.805 235.214 495.884 235.282C495.963 235.35 496.028 235.434 496.075 235.528Z" fill="black"/>
<path d="M501.649 265.046C501.482 270.071 500.974 275.079 500.13 280.036C500.114 280.149 500.074 280.257 500.014 280.353C499.954 280.45 499.874 280.533 499.78 280.598C499.687 280.663 499.581 280.707 499.469 280.729C499.357 280.751 499.242 280.75 499.131 280.725C499.018 280.709 498.909 280.669 498.812 280.609C498.715 280.549 498.631 280.47 498.566 280.376C498.5 280.283 498.455 280.177 498.431 280.065C498.408 279.953 498.408 279.838 498.431 279.726C499.265 274.836 499.766 269.894 499.93 264.936C499.959 264.727 500.064 264.537 500.225 264.402C500.386 264.267 500.592 264.196 500.802 264.204C501.012 264.211 501.212 264.296 501.363 264.443C501.514 264.589 501.605 264.786 501.619 264.996L501.649 265.046Z" fill="black"/>
<path d="M496.656 294.757C495.218 299.58 493.51 304.318 491.54 308.948C491.495 309.052 491.43 309.146 491.349 309.224C491.269 309.303 491.173 309.365 491.068 309.407C490.963 309.449 490.851 309.469 490.738 309.468C490.625 309.466 490.514 309.443 490.41 309.398C490.307 309.353 490.213 309.289 490.134 309.208C490.055 309.127 489.993 309.031 489.952 308.926C489.91 308.822 489.889 308.709 489.891 308.597C489.892 308.484 489.916 308.372 489.961 308.269C491.909 303.704 493.597 299.033 495.017 294.278C495.049 294.171 495.102 294.071 495.173 293.984C495.243 293.898 495.33 293.826 495.429 293.773C495.527 293.72 495.635 293.687 495.746 293.676C495.857 293.665 495.969 293.676 496.076 293.708C496.291 293.773 496.471 293.919 496.579 294.115C496.688 294.311 496.715 294.542 496.656 294.757Z" fill="black"/>
<path d="M484.889 322.469C482.416 326.851 479.69 331.085 476.725 335.15C476.666 335.258 476.585 335.352 476.487 335.425C476.389 335.499 476.277 335.552 476.158 335.579C476.038 335.607 475.914 335.609 475.794 335.585C475.674 335.561 475.56 335.512 475.46 335.441C475.36 335.37 475.276 335.279 475.214 335.173C475.152 335.068 475.113 334.95 475.099 334.828C475.086 334.707 475.098 334.583 475.135 334.467C475.173 334.35 475.234 334.242 475.316 334.151C478.242 330.142 480.934 325.968 483.38 321.649C483.504 321.471 483.689 321.345 483.9 321.296C484.112 321.247 484.334 321.279 484.523 321.385C484.712 321.492 484.854 321.665 484.922 321.871C484.99 322.077 484.978 322.301 484.889 322.499V322.469Z" fill="black"/>
<path d="M467.089 346.772C463.636 350.445 459.93 353.871 455.997 357.025C455.812 357.162 455.581 357.222 455.352 357.192C455.124 357.162 454.916 357.045 454.773 356.865C454.629 356.685 454.561 356.457 454.582 356.227C454.603 355.998 454.713 355.786 454.888 355.636C458.761 352.543 462.411 349.18 465.81 345.573C465.886 345.478 465.98 345.4 466.088 345.343C466.195 345.287 466.313 345.253 466.434 345.244C466.555 345.236 466.676 345.252 466.791 345.293C466.905 345.333 467.01 345.397 467.098 345.48C467.187 345.563 467.257 345.663 467.305 345.775C467.353 345.886 467.377 346.007 467.376 346.128C467.375 346.249 467.349 346.369 467.3 346.48C467.251 346.591 467.179 346.69 467.089 346.772Z" fill="black"/>
<path d="M443.506 365.532C439.142 368.061 434.592 370.256 429.895 372.097C429.68 372.158 429.45 372.137 429.249 372.038C429.049 371.938 428.892 371.767 428.811 371.558C428.73 371.35 428.73 371.118 428.81 370.909C428.89 370.7 429.046 370.529 429.246 370.428C433.857 368.62 438.327 366.469 442.616 363.993C442.718 363.929 442.831 363.886 442.949 363.867C443.067 363.848 443.188 363.853 443.304 363.881C443.42 363.91 443.529 363.962 443.625 364.034C443.721 364.106 443.801 364.196 443.861 364.3C443.921 364.403 443.959 364.518 443.974 364.637C443.988 364.756 443.979 364.876 443.945 364.991C443.912 365.106 443.856 365.213 443.781 365.306C443.705 365.399 443.612 365.476 443.506 365.532Z" fill="black"/>
<path d="M415.38 376.376C410.408 377.374 405.34 377.809 400.27 377.675C400.152 377.673 400.034 377.647 399.925 377.598C399.817 377.55 399.719 377.481 399.637 377.394C399.555 377.308 399.491 377.206 399.449 377.095C399.407 376.984 399.387 376.865 399.391 376.746C399.395 376.627 399.422 376.509 399.472 376.4C399.521 376.291 399.591 376.193 399.679 376.112C399.766 376.03 399.868 375.966 399.98 375.924C400.092 375.882 400.211 375.863 400.33 375.867C405.262 375.993 410.193 375.568 415.03 374.597C415.266 374.553 415.509 374.604 415.708 374.739C415.906 374.874 416.043 375.082 416.089 375.317C416.113 375.433 416.113 375.553 416.09 375.669C416.066 375.785 416.021 375.896 415.955 375.994C415.889 376.093 415.804 376.177 415.705 376.243C415.607 376.308 415.496 376.354 415.38 376.376Z" fill="black"/>
<path d="M385.436 374.057C383.128 372.844 381.038 371.257 379.25 369.36C377.425 367.435 376.059 365.122 375.253 362.595C375.217 362.479 375.204 362.358 375.215 362.237C375.226 362.117 375.26 361.999 375.316 361.892C375.372 361.785 375.449 361.69 375.542 361.612C375.635 361.535 375.742 361.476 375.857 361.44C375.973 361.404 376.094 361.391 376.215 361.402C376.335 361.413 376.453 361.447 376.56 361.504C376.667 361.56 376.762 361.636 376.84 361.729C376.917 361.822 376.976 361.929 377.012 362.045C377.725 364.309 378.942 366.383 380.569 368.111C382.213 369.862 384.138 371.324 386.265 372.438C386.382 372.489 386.486 372.563 386.573 372.655C386.659 372.748 386.726 372.858 386.768 372.978C386.81 373.098 386.827 373.225 386.817 373.351C386.807 373.478 386.772 373.601 386.712 373.713C386.653 373.825 386.571 373.924 386.471 374.003C386.372 374.082 386.257 374.139 386.134 374.171C386.012 374.204 385.883 374.21 385.758 374.19C385.633 374.171 385.513 374.125 385.406 374.057H385.436Z" fill="black"/>
<path d="M377.237 347.393C378.473 345.073 380.146 343.013 382.163 341.327C383.212 340.474 384.394 339.799 385.661 339.328C386.986 338.843 388.41 338.692 389.808 338.889C390.034 338.946 390.231 339.085 390.36 339.279C390.489 339.474 390.541 339.709 390.506 339.94C390.471 340.171 390.352 340.38 390.171 340.527C389.99 340.675 389.761 340.75 389.528 340.737C388.41 340.627 387.281 340.753 386.216 341.108C385.15 341.462 384.171 342.038 383.342 342.796C381.514 344.328 379.998 346.198 378.875 348.302C378.75 348.504 378.552 348.651 378.323 348.711C378.093 348.772 377.849 348.742 377.64 348.628C377.432 348.514 377.275 348.325 377.201 348.099C377.128 347.873 377.144 347.628 377.247 347.413L377.237 347.393Z" fill="black"/>
<path d="M400.459 349.893C402.363 354.645 403.464 359.68 403.716 364.793C403.735 364.923 403.727 365.056 403.691 365.182C403.656 365.309 403.595 365.427 403.512 365.529C403.429 365.631 403.325 365.714 403.208 365.774C403.091 365.833 402.963 365.868 402.832 365.876C402.701 365.884 402.569 365.864 402.446 365.818C402.323 365.772 402.211 365.701 402.116 365.61C402.022 365.519 401.947 365.408 401.898 365.287C401.848 365.165 401.824 365.034 401.828 364.903C401.591 360.003 400.541 355.177 398.72 350.622C398.673 350.509 398.648 350.387 398.648 350.264C398.649 350.141 398.673 350.02 398.72 349.906C398.768 349.793 398.837 349.69 398.925 349.604C399.012 349.517 399.116 349.449 399.23 349.403C399.458 349.306 399.715 349.303 399.945 349.395C400.175 349.487 400.36 349.666 400.459 349.893Z" fill="black"/>
<path d="M402.082 379.963C401.299 382.445 400.161 384.802 398.705 386.959C397.24 389.094 395.496 391.024 393.518 392.695C393.322 392.851 393.074 392.927 392.824 392.908C392.574 392.89 392.341 392.778 392.169 392.595C392.012 392.397 391.936 392.146 391.956 391.894C391.977 391.642 392.092 391.406 392.279 391.236C394.129 389.681 395.759 387.882 397.126 385.889C398.481 383.893 399.541 381.712 400.273 379.414C400.36 379.181 400.529 378.989 400.749 378.875C400.968 378.76 401.223 378.732 401.463 378.794C401.691 378.88 401.88 379.046 401.994 379.261C402.108 379.477 402.139 379.726 402.082 379.963Z" fill="black"/>
<path d="M380.809 400.948C376.404 403.489 371.706 405.482 366.819 406.884C366.598 406.886 366.382 406.814 366.206 406.68C366.03 406.546 365.904 406.357 365.846 406.143C365.789 405.93 365.805 405.703 365.89 405.499C365.976 405.295 366.127 405.125 366.319 405.016C371.053 403.664 375.604 401.737 379.87 399.279C380.095 399.165 380.356 399.141 380.599 399.211C380.842 399.282 381.049 399.442 381.179 399.659C381.288 399.882 381.31 400.137 381.242 400.375C381.174 400.613 381.019 400.818 380.809 400.948Z" fill="black"/>
<path d="M351.623 405.009C350.549 404.131 349.671 403.039 349.045 401.801C348.438 400.573 348.056 399.246 347.916 397.884C347.714 395.244 348.054 392.592 348.915 390.089C349.023 389.881 349.2 389.718 349.416 389.628C349.632 389.538 349.872 389.526 350.096 389.595C350.319 389.664 350.512 389.809 350.639 390.005C350.767 390.201 350.821 390.436 350.794 390.668C350.029 392.916 349.73 395.296 349.914 397.664C350.023 398.793 350.334 399.893 350.834 400.912C351.338 401.913 352.046 402.798 352.912 403.51C353.047 403.577 353.166 403.673 353.258 403.792C353.351 403.911 353.416 404.05 353.447 404.197C353.479 404.345 353.477 404.497 353.441 404.644C353.405 404.79 353.336 404.927 353.24 405.043C353.144 405.159 353.023 405.252 352.886 405.315C352.749 405.378 352.599 405.409 352.448 405.405C352.298 405.402 352.15 405.365 352.015 405.296C351.881 405.227 351.764 405.129 351.673 405.009H351.623Z" fill="black"/>
<path d="M356.752 376.936C358.645 375.072 360.938 373.664 363.457 372.819C365.948 371.99 368.568 371.615 371.192 371.71C371.457 371.718 371.708 371.831 371.889 372.024C372.071 372.217 372.169 372.474 372.161 372.739C372.153 373.004 372.04 373.255 371.847 373.437C371.654 373.619 371.397 373.716 371.132 373.708C368.76 373.632 366.392 373.97 364.137 374.708C361.885 375.454 359.835 376.705 358.141 378.365C357.954 378.549 357.703 378.651 357.441 378.651C357.18 378.651 356.929 378.549 356.742 378.365C356.562 378.179 356.461 377.93 356.461 377.671C356.461 377.412 356.562 377.163 356.742 376.976L356.752 376.936Z" fill="black"/>
<path d="M385.844 376.333C386.928 377.054 387.96 377.853 388.931 378.721C389.911 379.606 390.795 380.591 391.57 381.659C393.163 383.832 394.131 386.4 394.368 389.084C394.39 389.348 394.306 389.61 394.136 389.812C393.965 390.014 393.722 390.141 393.458 390.164C393.196 390.183 392.937 390.099 392.737 389.928C392.537 389.758 392.412 389.516 392.389 389.254C392.186 386.93 391.346 384.706 389.961 382.828C389.263 381.874 388.469 380.993 387.592 380.2C387.143 379.8 386.693 379.411 386.213 379.051L384.724 378.002H384.654C384.547 377.926 384.457 377.829 384.387 377.718C384.317 377.607 384.27 377.483 384.248 377.353C384.226 377.224 384.23 377.091 384.26 376.963C384.289 376.835 384.343 376.714 384.42 376.608C384.496 376.501 384.592 376.41 384.703 376.34C384.815 376.27 384.938 376.223 385.068 376.201C385.197 376.18 385.33 376.183 385.458 376.213C385.586 376.242 385.707 376.297 385.814 376.373L385.844 376.333Z" fill="black"/>
<path d="M388.836 403.416C387.129 405.362 385.177 407.078 383.03 408.523C380.889 409.991 378.551 411.149 376.085 411.961C375.956 412.035 375.812 412.079 375.664 412.091C375.516 412.103 375.367 412.082 375.228 412.028C375.09 411.975 374.964 411.892 374.862 411.784C374.759 411.677 374.682 411.548 374.636 411.406C374.589 411.265 374.575 411.115 374.594 410.968C374.613 410.821 374.664 410.679 374.745 410.554C374.825 410.429 374.933 410.324 375.059 410.246C375.185 410.167 375.327 410.118 375.475 410.102C380.067 408.535 384.161 405.776 387.337 402.107C387.512 401.911 387.756 401.792 388.018 401.775C388.28 401.759 388.538 401.845 388.736 402.017C388.933 402.19 389.054 402.434 389.073 402.696C389.091 402.958 389.006 403.216 388.836 403.416Z" fill="black"/>
<path d="M361.116 409.215C360.202 408.226 359.437 407.108 358.848 405.897C358.266 404.705 357.82 403.452 357.519 402.16C357.213 400.851 357.109 399.503 357.209 398.162C357.324 396.8 357.683 395.47 358.268 394.235C358.382 394.007 358.58 393.831 358.819 393.744C359.059 393.657 359.323 393.664 359.557 393.765C359.785 393.88 359.961 394.077 360.048 394.317C360.135 394.556 360.128 394.82 360.027 395.054C359.062 397.147 358.85 399.509 359.427 401.74C359.925 404.027 360.998 406.15 362.545 407.906C362.671 407.989 362.776 408.1 362.853 408.23C362.93 408.36 362.977 408.505 362.99 408.656C363.002 408.806 362.981 408.957 362.927 409.098C362.872 409.239 362.787 409.366 362.677 409.469C362.567 409.572 362.435 409.649 362.291 409.694C362.146 409.739 361.994 409.75 361.845 409.728C361.696 409.705 361.553 409.649 361.429 409.564C361.304 409.479 361.201 409.366 361.126 409.235L361.116 409.215Z" fill="black"/>
<path d="M370.42 384.8C372.817 383.922 375.28 383.233 377.785 382.742C380.29 382.236 382.835 381.955 385.39 381.902C385.645 381.902 385.89 381.999 386.076 382.174C386.262 382.348 386.374 382.587 386.389 382.842C386.389 383.097 386.292 383.342 386.118 383.528C385.943 383.714 385.704 383.826 385.45 383.841C383.008 383.892 380.577 384.162 378.185 384.651C375.778 385.119 373.415 385.788 371.12 386.649C370.901 386.669 370.682 386.616 370.497 386.499C370.311 386.382 370.17 386.207 370.093 386.001C370.017 385.795 370.011 385.57 370.075 385.36C370.14 385.151 370.271 384.968 370.45 384.84L370.42 384.8Z" fill="black"/>
<path d="M400.2 385.898C402.353 387.443 404.133 389.451 405.407 391.775C406.646 394.074 407.484 396.568 407.885 399.15C407.905 399.272 407.901 399.397 407.873 399.517C407.845 399.638 407.794 399.752 407.722 399.852C407.65 399.953 407.559 400.039 407.454 400.104C407.349 400.17 407.232 400.214 407.11 400.234C406.988 400.254 406.863 400.25 406.743 400.223C406.622 400.195 406.508 400.143 406.408 400.071C406.307 399.999 406.222 399.908 406.156 399.803C406.091 399.698 406.046 399.582 406.026 399.46C405.651 397.093 404.881 394.806 403.748 392.694C402.604 390.618 401.014 388.823 399.091 387.437C398.984 387.367 398.893 387.276 398.822 387.169C398.751 387.062 398.703 386.942 398.68 386.816C398.657 386.69 398.659 386.561 398.687 386.436C398.715 386.311 398.768 386.193 398.843 386.09C398.918 385.986 399.013 385.898 399.123 385.832C399.232 385.766 399.354 385.722 399.481 385.705C399.608 385.687 399.737 385.695 399.86 385.728C399.984 385.761 400.1 385.819 400.2 385.898Z" fill="black"/>
<path d="M406.481 414.413C404.691 419.203 402.114 423.662 398.857 427.604C398.703 427.797 398.478 427.922 398.233 427.95C397.987 427.978 397.741 427.908 397.547 427.754C397.354 427.6 397.229 427.376 397.201 427.13C397.173 426.885 397.244 426.638 397.398 426.445C400.524 422.657 402.996 418.375 404.712 413.773C404.752 413.656 404.814 413.549 404.895 413.456C404.976 413.364 405.075 413.288 405.186 413.235C405.296 413.181 405.417 413.149 405.54 413.142C405.662 413.135 405.785 413.153 405.902 413.193C406.019 413.234 406.126 413.297 406.219 413.379C406.311 413.461 406.387 413.561 406.441 413.673C406.494 413.784 406.526 413.905 406.533 414.028C406.54 414.152 406.522 414.276 406.481 414.393V414.413Z" fill="black"/>
<path d="M388.334 438.453C384.566 441.802 380.58 444.897 376.402 447.717C376.199 447.852 375.951 447.901 375.711 447.854C375.472 447.808 375.261 447.669 375.123 447.468C375.054 447.368 375.005 447.255 374.98 447.136C374.955 447.017 374.955 446.894 374.978 446.775C375.001 446.656 375.048 446.543 375.116 446.442C375.184 446.341 375.271 446.255 375.373 446.188C379.481 443.415 383.397 440.366 387.094 437.064C387.186 436.983 387.292 436.92 387.407 436.88C387.523 436.84 387.645 436.823 387.767 436.83C387.889 436.837 388.008 436.868 388.119 436.921C388.229 436.974 388.327 437.048 388.409 437.139C388.49 437.23 388.552 437.337 388.593 437.452C388.633 437.568 388.65 437.69 388.643 437.812C388.636 437.934 388.605 438.053 388.552 438.163C388.499 438.273 388.425 438.372 388.334 438.453Z" fill="black"/>
<path d="M363.357 455.322C358.847 457.563 354.209 459.535 349.467 461.228C349.239 461.309 348.988 461.296 348.77 461.192C348.551 461.088 348.383 460.901 348.302 460.673C348.222 460.445 348.235 460.195 348.339 459.976C348.443 459.758 348.629 459.59 348.857 459.509C353.53 457.845 358.099 455.899 362.537 453.683C362.752 453.597 362.99 453.595 363.205 453.677C363.421 453.759 363.598 453.919 363.701 454.125C363.804 454.332 363.826 454.569 363.762 454.791C363.698 455.012 363.554 455.202 363.357 455.322Z" fill="black"/>
<path d="M335.02 465.537C330.133 466.726 325.197 467.685 320.24 468.445C320.119 468.476 319.992 468.481 319.869 468.461C319.745 468.44 319.627 468.394 319.523 468.325C319.418 468.256 319.329 468.166 319.261 468.061C319.193 467.956 319.148 467.838 319.128 467.714C319.109 467.59 319.115 467.464 319.147 467.343C319.179 467.222 319.236 467.109 319.315 467.011C319.393 466.913 319.491 466.833 319.602 466.775C319.713 466.718 319.835 466.684 319.96 466.676C324.877 465.916 329.763 464.967 334.59 463.788C334.705 463.759 334.824 463.754 334.941 463.772C335.058 463.79 335.17 463.831 335.271 463.892C335.372 463.953 335.46 464.034 335.53 464.129C335.6 464.224 335.651 464.332 335.679 464.447C335.707 464.562 335.713 464.681 335.695 464.798C335.677 464.915 335.636 465.027 335.575 465.129C335.514 465.23 335.433 465.318 335.338 465.388C335.243 465.458 335.135 465.508 335.02 465.537Z" fill="black"/>
<path d="M305.366 470.482L290.457 472.191C290.236 472.194 290.022 472.115 289.857 471.969C289.691 471.823 289.585 471.621 289.56 471.402C289.535 471.183 289.593 470.962 289.722 470.783C289.85 470.603 290.041 470.478 290.257 470.432L305.137 468.723C305.258 468.697 305.383 468.697 305.505 468.722C305.627 468.747 305.742 468.798 305.842 468.87C305.943 468.943 306.028 469.035 306.091 469.143C306.154 469.25 306.193 469.369 306.207 469.492C306.221 469.616 306.209 469.74 306.172 469.859C306.135 469.977 306.073 470.087 305.991 470.18C305.909 470.273 305.809 470.348 305.696 470.4C305.583 470.452 305.461 470.48 305.336 470.482H305.366Z" fill="black"/>
<path d="M275.549 473.76L260.66 475.369C260.431 475.394 260.201 475.327 260.021 475.183C259.841 475.038 259.726 474.828 259.701 474.599C259.675 474.37 259.742 474.14 259.887 473.96C260.031 473.78 260.241 473.665 260.47 473.64L275.379 471.981C275.5 471.955 275.625 471.954 275.745 471.979C275.866 472.005 275.98 472.055 276.08 472.127C276.18 472.199 276.264 472.291 276.326 472.398C276.388 472.504 276.427 472.622 276.44 472.745C276.453 472.867 276.441 472.991 276.403 473.109C276.366 473.226 276.304 473.334 276.222 473.426C276.14 473.518 276.039 473.592 275.927 473.642C275.814 473.693 275.693 473.719 275.569 473.72L275.549 473.76Z" fill="black"/>
<path d="M245.825 477.368L231.076 479.796C230.96 479.826 230.839 479.832 230.722 479.813C230.604 479.793 230.491 479.75 230.391 479.685C230.291 479.62 230.206 479.535 230.14 479.435C230.075 479.335 230.031 479.223 230.012 479.105C229.992 478.987 229.997 478.866 230.027 478.751C230.057 478.635 230.11 478.527 230.184 478.433C230.258 478.339 230.35 478.262 230.455 478.206C230.561 478.15 230.677 478.116 230.796 478.107L245.615 475.649C245.832 475.642 246.043 475.717 246.208 475.858C246.373 476 246.478 476.197 246.505 476.412C246.531 476.628 246.476 476.845 246.35 477.022C246.224 477.199 246.037 477.322 245.825 477.368Z" fill="black"/>
<path d="M216.459 482.895C211.622 484.074 206.826 485.407 202.069 486.892C201.857 486.949 201.632 486.922 201.441 486.816C201.249 486.711 201.105 486.535 201.039 486.327C200.973 486.118 200.991 485.892 201.088 485.696C201.185 485.499 201.354 485.348 201.559 485.273C206.349 483.768 211.179 482.435 216.049 481.276C216.265 481.231 216.49 481.271 216.676 481.389C216.862 481.506 216.996 481.691 217.048 481.905C217.097 482.12 217.059 482.345 216.943 482.532C216.827 482.719 216.642 482.853 216.429 482.905L216.459 482.895Z" fill="black"/>
<path d="M187.926 491.751C183.249 493.47 178.622 495.308 174.105 497.377C173.91 497.454 173.692 497.454 173.498 497.375C173.303 497.297 173.146 497.146 173.058 496.955C172.971 496.764 172.961 496.547 173.029 496.348C173.097 496.15 173.239 495.985 173.426 495.888C177.993 493.789 182.649 491.891 187.346 490.182C187.451 490.132 187.566 490.105 187.682 490.102C187.798 490.099 187.914 490.12 188.022 490.164C188.129 490.208 188.227 490.274 188.307 490.358C188.388 490.441 188.451 490.541 188.491 490.65C188.532 490.759 188.549 490.876 188.542 490.992C188.535 491.108 188.504 491.221 188.45 491.325C188.397 491.428 188.323 491.52 188.233 491.593C188.142 491.666 188.038 491.72 187.926 491.751Z" fill="black"/>
<path d="M160.977 504.349C156.772 506.951 152.856 509.993 149.296 513.423C149.15 513.569 148.952 513.65 148.746 513.65C148.54 513.65 148.342 513.569 148.196 513.423C148.051 513.276 147.969 513.076 147.969 512.869C147.969 512.661 148.051 512.462 148.196 512.314C151.827 508.794 155.824 505.672 160.118 503C160.297 502.886 160.514 502.848 160.721 502.894C160.823 502.917 160.92 502.959 161.006 503.02C161.092 503.08 161.166 503.157 161.222 503.245C161.279 503.334 161.317 503.432 161.335 503.536C161.354 503.639 161.351 503.745 161.329 503.848C161.306 503.95 161.263 504.048 161.203 504.134C161.143 504.22 161.066 504.293 160.977 504.349Z" fill="black"/>
<path d="M140.564 525.235C138.375 529.634 137.081 534.424 136.756 539.326C136.741 539.523 136.648 539.706 136.499 539.835C136.349 539.965 136.154 540.029 135.957 540.016C135.86 540.009 135.765 539.984 135.677 539.941C135.59 539.897 135.512 539.837 135.448 539.764C135.384 539.691 135.335 539.605 135.304 539.513C135.273 539.421 135.261 539.323 135.267 539.226C135.594 534.127 136.933 529.143 139.205 524.566C139.296 524.385 139.455 524.249 139.647 524.186C139.84 524.123 140.049 524.139 140.229 524.231C140.409 524.322 140.546 524.482 140.608 524.674C140.671 524.866 140.655 525.075 140.564 525.255V525.235Z" fill="black"/>
<path d="M137.904 554.027C138.938 558.87 140.482 563.59 142.511 568.107C142.585 568.277 142.591 568.47 142.525 568.643C142.46 568.817 142.329 568.958 142.161 569.037C141.99 569.115 141.795 569.122 141.619 569.056C141.443 568.991 141.3 568.858 141.221 568.687C139.119 564.081 137.514 559.263 136.435 554.316C136.403 554.219 136.392 554.116 136.402 554.014C136.413 553.912 136.445 553.813 136.496 553.725C136.547 553.636 136.616 553.559 136.699 553.499C136.782 553.438 136.877 553.396 136.977 553.375C137.077 553.354 137.181 553.354 137.281 553.376C137.381 553.397 137.476 553.44 137.559 553.5C137.641 553.561 137.71 553.638 137.761 553.727C137.812 553.816 137.844 553.915 137.854 554.017L137.904 554.027Z" fill="black"/>
<path d="M149.901 580.904C152.855 584.836 156.688 588.022 161.093 590.208C161.178 590.243 161.254 590.295 161.318 590.36C161.382 590.426 161.431 590.504 161.464 590.59C161.496 590.676 161.51 590.767 161.506 590.858C161.502 590.95 161.478 591.04 161.438 591.122C161.398 591.204 161.341 591.277 161.271 591.336C161.201 591.396 161.12 591.44 161.033 591.467C160.945 591.493 160.853 591.502 160.762 591.492C160.671 591.481 160.583 591.452 160.504 591.407C155.905 589.139 151.898 585.83 148.802 581.743C148.743 581.67 148.7 581.585 148.674 581.494C148.649 581.404 148.642 581.309 148.654 581.216C148.666 581.122 148.697 581.033 148.745 580.951C148.793 580.87 148.856 580.8 148.932 580.744C149.005 580.684 149.089 580.639 149.18 580.613C149.271 580.587 149.366 580.579 149.46 580.592C149.553 580.604 149.643 580.635 149.725 580.684C149.806 580.732 149.876 580.797 149.931 580.874L149.901 580.904Z" fill="black"/>
<path d="M175.279 593.872C180.218 594.186 185.177 593.877 190.039 592.953C190.121 592.937 190.205 592.938 190.287 592.955C190.369 592.972 190.446 593.005 190.515 593.053C190.584 593.1 190.643 593.161 190.688 593.231C190.733 593.302 190.764 593.38 190.778 593.462C190.805 593.628 190.767 593.797 190.672 593.935C190.577 594.072 190.432 594.168 190.268 594.202C185.303 595.164 180.237 595.5 175.189 595.201C175.016 595.189 174.855 595.108 174.74 594.977C174.626 594.846 174.568 594.675 174.579 594.502C174.595 594.33 174.676 594.17 174.806 594.056C174.937 593.943 175.106 593.884 175.279 593.892V593.872Z" fill="black"/>
<path d="M204.338 588.916C208.983 587.159 213.464 584.996 217.728 582.45C217.865 582.37 218.028 582.347 218.181 582.386C218.335 582.425 218.466 582.524 218.548 582.66C218.589 582.727 218.616 582.802 218.628 582.88C218.639 582.958 218.635 583.038 218.616 583.114C218.596 583.191 218.562 583.262 218.514 583.325C218.466 583.388 218.406 583.44 218.338 583.479C214.016 586.064 209.479 588.271 204.777 590.075C204.701 590.104 204.62 590.118 204.539 590.115C204.457 590.113 204.377 590.094 204.303 590.061C204.229 590.027 204.162 589.98 204.106 589.92C204.05 589.861 204.007 589.791 203.978 589.715C203.949 589.639 203.935 589.558 203.938 589.477C203.94 589.395 203.959 589.315 203.992 589.241C204.026 589.167 204.073 589.1 204.132 589.044C204.192 588.988 204.261 588.945 204.338 588.916Z" fill="black"/>
<path d="M229.476 573.454C231.216 571.715 232.761 569.791 234.083 567.717C235.4 565.659 236.366 563.397 236.941 561.022C236.981 560.884 237.072 560.767 237.195 560.695C237.318 560.622 237.465 560.599 237.604 560.631C237.744 560.663 237.865 560.748 237.945 560.867C238.024 560.986 238.055 561.131 238.03 561.272C237.429 563.755 236.415 566.119 235.033 568.267C233.674 570.433 232.082 572.444 230.286 574.263C230.233 574.318 230.169 574.362 230.099 574.392C230.028 574.422 229.953 574.437 229.876 574.437C229.8 574.437 229.724 574.422 229.654 574.392C229.583 574.362 229.52 574.318 229.467 574.263C229.358 574.155 229.297 574.007 229.297 573.854C229.297 573.7 229.358 573.552 229.467 573.444L229.476 573.454Z" fill="black"/>
<path d="M234.464 547.024C233.775 546.025 233.165 544.946 232.466 543.966C231.766 542.987 230.917 542.048 230.077 541.148C228.391 539.349 226.544 537.707 224.561 536.241C224.505 536.201 224.457 536.149 224.42 536.09C224.384 536.03 224.36 535.964 224.349 535.895C224.339 535.826 224.343 535.755 224.36 535.688C224.378 535.62 224.409 535.557 224.451 535.502C224.492 535.446 224.543 535.4 224.602 535.364C224.66 535.329 224.725 535.305 224.793 535.295C224.861 535.285 224.93 535.288 224.997 535.305C225.063 535.321 225.126 535.351 225.181 535.392C227.218 536.885 229.118 538.557 230.857 540.389C231.726 541.318 232.546 542.287 233.315 543.287C234.085 544.286 234.734 545.395 235.454 546.445C235.494 546.504 235.522 546.57 235.536 546.64C235.55 546.71 235.551 546.782 235.537 546.852C235.524 546.922 235.497 546.989 235.458 547.048C235.418 547.108 235.368 547.159 235.309 547.199C235.25 547.239 235.183 547.267 235.113 547.282C235.044 547.296 234.972 547.296 234.902 547.283C234.831 547.269 234.765 547.242 234.705 547.203C234.646 547.164 234.594 547.113 234.554 547.054L234.464 547.024Z" fill="black"/>
<path d="M211.479 529.185C206.839 527.386 202.085 525.894 197.249 524.718C197.133 524.681 197.035 524.602 196.975 524.495C196.916 524.389 196.899 524.264 196.928 524.146C196.957 524.027 197.031 523.925 197.133 523.858C197.235 523.792 197.359 523.767 197.479 523.789C202.362 524.956 207.162 526.445 211.849 528.246C211.974 528.295 212.076 528.392 212.13 528.516C212.184 528.639 212.187 528.78 212.138 528.906C212.085 529.028 211.987 529.125 211.865 529.177C211.742 529.229 211.604 529.232 211.479 529.185Z" fill="black"/>
<path d="M182.632 521.558C177.726 520.669 172.789 519.96 167.833 519.4C167.723 519.387 167.623 519.332 167.554 519.246C167.484 519.16 167.452 519.05 167.463 518.94C167.478 518.832 167.534 518.734 167.62 518.667C167.706 518.6 167.814 518.569 167.923 518.58C172.899 519.12 177.856 519.82 182.792 520.679C182.898 520.711 182.989 520.781 183.047 520.875C183.104 520.969 183.125 521.081 183.106 521.19C183.086 521.299 183.027 521.397 182.939 521.465C182.852 521.533 182.743 521.566 182.632 521.558Z" fill="black"/>
<path d="M152.895 518.194L145.41 518.024L141.673 517.934C140.424 517.934 139.175 517.864 137.936 517.934C137.843 517.934 137.754 517.897 137.688 517.832C137.623 517.766 137.586 517.677 137.586 517.584C137.586 517.492 137.623 517.402 137.688 517.337C137.754 517.271 137.843 517.234 137.936 517.234C139.185 517.234 140.434 517.234 141.683 517.234L145.44 517.294L152.945 517.434C152.995 517.436 153.044 517.447 153.09 517.467C153.135 517.487 153.176 517.516 153.211 517.553C153.245 517.589 153.272 517.632 153.29 517.678C153.308 517.725 153.316 517.774 153.315 517.824C153.31 517.924 153.266 518.018 153.194 518.087C153.121 518.156 153.025 518.194 152.925 518.194H152.895Z" fill="black"/>
<path d="M122.988 518.452C118.005 518.791 113.038 519.288 108.088 519.941C108.05 519.951 108.009 519.953 107.97 519.947C107.93 519.941 107.892 519.926 107.859 519.904C107.826 519.881 107.797 519.852 107.776 519.818C107.755 519.784 107.742 519.746 107.737 519.706C107.732 519.666 107.735 519.626 107.747 519.588C107.759 519.55 107.779 519.514 107.806 519.484C107.832 519.454 107.865 519.431 107.902 519.415C107.938 519.398 107.978 519.39 108.018 519.391C113.015 518.701 117.951 518.192 122.938 517.832C123.02 517.832 123.099 517.865 123.157 517.923C123.215 517.981 123.248 518.06 123.248 518.142C123.248 518.224 123.215 518.303 123.157 518.361C123.099 518.419 123.02 518.452 122.938 518.452H122.988Z" fill="black"/>
<path d="M93.3455 522.47C88.4556 523.496 83.6157 524.715 78.8257 526.128C78.7988 526.135 78.7707 526.137 78.743 526.134C78.7152 526.13 78.6885 526.121 78.6643 526.107C78.6401 526.094 78.6189 526.075 78.602 526.053C78.5851 526.03 78.5729 526.005 78.5659 525.978C78.5567 525.952 78.5531 525.924 78.5553 525.896C78.5575 525.868 78.5654 525.842 78.5786 525.817C78.5917 525.793 78.6099 525.771 78.6318 525.754C78.6537 525.737 78.6789 525.725 78.7058 525.718C83.5024 524.266 88.349 523.02 93.2456 521.981C93.3105 521.969 93.3774 521.983 93.4317 522.021C93.4859 522.058 93.5232 522.116 93.5354 522.18C93.5473 522.244 93.5342 522.31 93.4988 522.364C93.4634 522.418 93.4085 522.456 93.3455 522.47Z" fill="black"/>
<path d="M64.6621 530.982C63.5129 531.452 62.3437 531.901 61.2045 532.391L57.7869 533.94L50.9617 537.028C50.9434 537.036 50.9236 537.041 50.9035 537.041C50.8834 537.042 50.8635 537.038 50.8448 537.03C50.8262 537.023 50.8092 537.012 50.795 536.998C50.7807 536.984 50.7694 536.967 50.7618 536.948C50.7471 536.912 50.7461 536.872 50.759 536.835C50.7719 536.798 50.7978 536.767 50.8318 536.748L57.657 533.62L61.0646 532.061C62.2138 531.562 63.373 531.062 64.5321 530.632C64.5544 530.623 64.5784 530.617 64.6026 530.617C64.6269 530.617 64.651 530.622 64.6734 530.631C64.6958 530.64 64.7161 530.654 64.733 530.672C64.75 530.689 64.7632 530.71 64.772 530.732C64.7816 530.754 64.7866 530.777 64.7867 530.801C64.7868 530.824 64.782 530.847 64.7726 530.869C64.7632 530.891 64.7494 530.91 64.7321 530.926C64.7148 530.942 64.6943 530.954 64.672 530.962L64.6621 530.982Z" fill="black"/>
<path d="M37.7522 544.086L24.9812 551.871C24.9715 551.88 24.9598 551.888 24.9469 551.892C24.934 551.896 24.9203 551.898 24.9068 551.896C24.8933 551.894 24.8803 551.89 24.8689 551.882C24.8575 551.875 24.8479 551.865 24.8409 551.853C24.8339 551.841 24.8297 551.828 24.8285 551.815C24.8273 551.801 24.8292 551.787 24.834 551.775C24.8389 551.762 24.8465 551.751 24.8565 551.741C24.8664 551.732 24.8783 551.725 24.8913 551.721L37.6723 543.886C37.6826 543.875 37.695 543.866 37.7087 543.861C37.7224 543.855 37.7373 543.852 37.7522 543.852C37.7672 543.852 37.782 543.855 37.7958 543.861C37.8095 543.866 37.8219 543.875 37.8322 543.886C37.85 543.909 37.8597 543.937 37.8597 543.966C37.8597 543.995 37.85 544.023 37.8322 544.046L37.7522 544.086Z" fill="black"/>
<path d="M12.4213 560.083L0 568.458L12.3913 560.033C12.4019 560.025 12.4152 560.022 12.4283 560.024C12.4415 560.026 12.4533 560.033 12.4612 560.043C12.4692 560.054 12.4726 560.067 12.4707 560.08C12.4689 560.094 12.4618 560.105 12.4512 560.113L12.4213 560.083Z" fill="black"/>
</svg>
