<svg width="676" height="242" viewBox="0 0 676 242" fill="none" xmlns="http://www.w3.org/2000/svg">
<path d="M610.141 241.91L617.461 228.82L610.141 241.91Z" fill="black"/>
<path d="M624.831 215.752L632.111 202.652C632.125 202.637 632.133 202.618 632.133 202.597C632.133 202.577 632.125 202.557 632.111 202.542C632.104 202.534 632.096 202.527 632.086 202.523C632.077 202.518 632.066 202.516 632.056 202.516C632.045 202.516 632.035 202.518 632.025 202.523C632.016 202.527 632.007 202.534 632.001 202.542L624.771 215.692C624.764 215.703 624.76 215.715 624.76 215.727C624.76 215.74 624.764 215.752 624.771 215.762C624.781 215.767 624.792 215.769 624.803 215.768C624.813 215.766 624.823 215.76 624.831 215.752Z" fill="black"/>
<path d="M639.209 189.436L646.089 176.116C646.098 176.1 646.103 176.082 646.105 176.064C646.107 176.045 646.105 176.027 646.099 176.009C646.093 175.991 646.084 175.975 646.072 175.961C646.06 175.946 646.046 175.935 646.029 175.926C646.013 175.918 645.995 175.912 645.976 175.911C645.958 175.909 645.939 175.911 645.922 175.917C645.904 175.922 645.888 175.931 645.874 175.943C645.859 175.955 645.848 175.97 645.839 175.986L639.019 189.326C639.005 189.354 639.002 189.387 639.012 189.417C639.021 189.446 639.042 189.472 639.069 189.486C639.095 189.495 639.123 189.495 639.148 189.486C639.173 189.477 639.195 189.459 639.209 189.436Z" fill="black"/>
<path d="M652.664 162.646L658.874 148.986C658.895 148.937 658.896 148.881 658.878 148.831C658.859 148.781 658.822 148.74 658.774 148.716C658.725 148.695 658.669 148.694 658.619 148.712C658.569 148.731 658.528 148.768 658.504 148.816L652.354 162.486C652.344 162.506 652.339 162.528 652.338 162.55C652.338 162.573 652.342 162.595 652.35 162.616C652.359 162.637 652.371 162.655 652.387 162.671C652.404 162.686 652.423 162.698 652.444 162.706C652.482 162.725 652.525 162.729 652.566 162.718C652.606 162.707 652.641 162.681 652.664 162.646Z" fill="black"/>
<path d="M664.548 135.089L669.548 120.929C669.561 120.898 669.567 120.865 669.566 120.832C669.566 120.799 669.558 120.766 669.544 120.736C669.53 120.706 669.509 120.679 669.484 120.657C669.459 120.635 669.43 120.619 669.398 120.609C669.335 120.586 669.265 120.589 669.203 120.617C669.141 120.645 669.093 120.696 669.068 120.759L664.068 134.909C664.049 134.966 664.053 135.028 664.079 135.083C664.105 135.137 664.152 135.179 664.208 135.199C664.237 135.22 664.269 135.233 664.304 135.239C664.338 135.245 664.373 135.242 664.407 135.231C664.44 135.22 664.47 135.202 664.495 135.177C664.519 135.153 664.538 135.122 664.548 135.089Z" fill="black"/>
<path d="M673.548 106.449C674.698 101.576 675.517 96.6319 675.998 91.6489C676.003 91.6081 675.999 91.567 675.987 91.5278C675.975 91.4886 675.955 91.4521 675.929 91.4205C675.903 91.3888 675.871 91.3627 675.835 91.3436C675.799 91.3244 675.759 91.3126 675.718 91.3088C675.636 91.3057 675.555 91.3338 675.492 91.3876C675.429 91.4413 675.388 91.5167 675.378 91.5989C674.935 96.5703 674.15 101.505 673.028 106.369C673.013 106.443 673.028 106.52 673.069 106.584C673.11 106.647 673.175 106.692 673.248 106.709C673.322 106.71 673.392 106.683 673.448 106.636C673.503 106.588 673.539 106.521 673.548 106.449Z" fill="black"/>
<path d="M675.546 76.5706C674.801 71.5385 672.834 66.7658 669.816 62.6706C669.787 62.6329 669.75 62.6013 669.709 62.5778C669.667 62.5543 669.621 62.5393 669.574 62.5337C669.526 62.5281 669.478 62.5321 669.432 62.5453C669.386 62.5585 669.344 62.5807 669.306 62.6106C669.231 62.6699 669.181 62.7563 669.168 62.8515C669.155 62.9467 669.179 63.0432 669.236 63.1207C672.206 67.0967 674.159 71.7379 674.926 76.6406C674.932 76.6852 674.947 76.7281 674.97 76.7666C674.994 76.8051 675.024 76.8385 675.061 76.8648C675.097 76.891 675.139 76.9095 675.183 76.9191C675.227 76.9287 675.272 76.9292 675.316 76.9206C675.387 76.8949 675.448 76.8469 675.489 76.7838C675.531 76.7208 675.551 76.646 675.546 76.5706Z" fill="black"/>
<path d="M657.647 53.9625C652.875 52.3032 647.869 51.4154 642.817 51.3325C642.762 51.3298 642.707 51.338 642.655 51.3567C642.603 51.3754 642.555 51.4041 642.514 51.4413C642.473 51.4784 642.44 51.5233 642.416 51.5733C642.393 51.6232 642.38 51.6773 642.377 51.7325C642.373 51.7888 642.38 51.8454 642.399 51.8987C642.418 51.9519 642.447 52.0007 642.486 52.042C642.524 52.0833 642.571 52.1163 642.623 52.1387C642.675 52.1612 642.731 52.1727 642.787 52.1725C647.753 52.2427 652.677 53.0965 657.377 54.7025C657.475 54.7385 657.584 54.7345 657.679 54.6915C657.774 54.6485 657.849 54.5699 657.887 54.4725C657.922 54.373 657.917 54.2636 657.872 54.1681C657.827 54.0725 657.746 53.9987 657.647 53.9625Z" fill="black"/>
<path d="M627.778 52.1998C622.778 52.8698 617.878 53.8398 612.998 54.9798C612.937 54.9939 612.878 55.0202 612.826 55.0571C612.775 55.0939 612.731 55.1407 612.697 55.1947C612.664 55.2486 612.641 55.3087 612.631 55.3713C612.621 55.434 612.624 55.4981 612.638 55.5598C612.653 55.6217 612.679 55.6802 612.716 55.7319C612.753 55.7836 612.799 55.8274 612.853 55.8609C612.907 55.8944 612.967 55.9168 613.03 55.9269C613.093 55.9371 613.157 55.9346 613.218 55.9198C618.078 54.7598 622.968 53.7798 627.898 53.0998C627.958 53.0925 628.015 53.0733 628.067 53.0436C628.119 53.0138 628.164 52.9741 628.2 52.9266C628.237 52.8791 628.263 52.8249 628.278 52.7671C628.293 52.7092 628.297 52.649 628.288 52.5898C628.281 52.5305 628.262 52.4733 628.232 52.4214C628.203 52.3696 628.163 52.3241 628.115 52.2878C628.068 52.2515 628.014 52.2251 627.956 52.21C627.898 52.1948 627.838 52.1914 627.778 52.1998Z" fill="black"/>
<path d="M598.442 58.6515L584.012 62.7815C583.946 62.7999 583.883 62.8314 583.829 62.8742C583.775 62.917 583.729 62.9703 583.696 63.0308C583.662 63.0913 583.641 63.158 583.634 63.2268C583.626 63.2956 583.633 63.3652 583.652 63.4315C583.69 63.564 583.778 63.6763 583.898 63.7438C584.018 63.8112 584.16 63.8284 584.292 63.7915L598.702 59.6515C598.83 59.6143 598.937 59.5281 599.001 59.4119C599.065 59.2956 599.08 59.1588 599.042 59.0315C599.03 58.9663 599.004 58.9044 598.966 58.8496C598.928 58.7949 598.88 58.7483 598.824 58.7127C598.768 58.6772 598.705 58.6535 598.64 58.6429C598.574 58.6324 598.507 58.6353 598.442 58.6515Z" fill="black"/>
<path d="M569.699 67.3159L555.549 72.2358C555.41 72.2856 555.297 72.3881 555.233 72.521C555.17 72.6539 555.161 72.8066 555.209 72.9458C555.233 73.0141 555.27 73.0771 555.318 73.1312C555.365 73.1853 555.424 73.2294 555.489 73.2609C555.554 73.2925 555.624 73.3109 555.696 73.3152C555.769 73.3195 555.841 73.3095 555.909 73.2859L570.049 68.3359C570.116 68.3123 570.178 68.2758 570.231 68.2283C570.284 68.1809 570.327 68.1234 570.357 68.0593C570.388 67.9952 570.406 67.9257 570.409 67.8548C570.413 67.7838 570.403 67.7128 570.379 67.6458C570.357 67.5792 570.321 67.5176 570.275 67.4648C570.228 67.4121 570.172 67.369 570.108 67.3383C570.045 67.3076 569.976 67.2898 569.906 67.286C569.836 67.2821 569.765 67.2923 569.699 67.3159Z" fill="black"/>
<path d="M541.445 77.4837L527.445 82.9937C527.373 83.0202 527.308 83.0609 527.252 83.1133C527.197 83.1657 527.152 83.2288 527.121 83.2987C527.09 83.3687 527.074 83.4442 527.073 83.5206C527.072 83.597 527.086 83.6729 527.115 83.7437C527.143 83.8158 527.184 83.8816 527.238 83.9374C527.291 83.9931 527.355 84.0377 527.426 84.0684C527.497 84.0991 527.573 84.1154 527.65 84.1163C527.727 84.1172 527.804 84.1028 527.875 84.0737L541.855 78.5437C541.924 78.5172 541.988 78.4772 542.041 78.426C542.095 78.3748 542.138 78.3135 542.168 78.2456C542.197 78.1777 542.213 78.1045 542.215 78.0304C542.216 77.9562 542.203 77.8826 542.175 77.8137C542.15 77.7436 542.11 77.6792 542.06 77.6245C542.009 77.5698 541.948 77.5258 541.88 77.495C541.812 77.4643 541.738 77.4474 541.664 77.4455C541.589 77.4436 541.515 77.4565 541.445 77.4837Z" fill="black"/>
<path d="M513.617 88.7244L499.817 94.6444C499.734 94.6697 499.656 94.7123 499.59 94.7697C499.524 94.827 499.471 94.8977 499.434 94.9771C499.397 95.0564 499.378 95.1427 499.377 95.2301C499.375 95.3176 499.393 95.4043 499.428 95.4846C499.462 95.5648 499.514 95.6368 499.578 95.6958C499.643 95.7548 499.719 95.7994 499.802 95.8268C499.886 95.8542 499.973 95.8636 500.06 95.8546C500.147 95.8455 500.232 95.8182 500.307 95.7744L514.077 89.8344C514.211 89.7643 514.313 89.6464 514.364 89.5042C514.414 89.3621 514.409 89.2061 514.35 89.0674C514.291 88.9286 514.182 88.8173 514.044 88.7556C513.906 88.6939 513.75 88.6863 513.607 88.7344L513.617 88.7244Z" fill="black"/>
<path d="M486.092 100.648L472.402 106.788C472.244 106.858 472.12 106.988 472.058 107.149C471.997 107.311 472.001 107.49 472.072 107.648C472.142 107.805 472.272 107.929 472.433 107.991C472.595 108.053 472.774 108.048 472.932 107.978L486.602 101.808C486.677 101.773 486.745 101.725 486.802 101.664C486.859 101.604 486.903 101.533 486.932 101.455C486.961 101.378 486.975 101.295 486.972 101.212C486.97 101.13 486.951 101.048 486.917 100.973C486.882 100.897 486.834 100.829 486.773 100.772C486.713 100.716 486.642 100.671 486.564 100.642C486.487 100.613 486.404 100.599 486.321 100.602C486.239 100.605 486.157 100.623 486.082 100.658L486.092 100.648Z" fill="black"/>
<path d="M458.743 113.035L445.093 119.255C445.011 119.292 444.938 119.344 444.877 119.409C444.816 119.475 444.769 119.552 444.738 119.636C444.707 119.719 444.694 119.809 444.698 119.898C444.702 119.987 444.724 120.074 444.763 120.155C444.799 120.236 444.852 120.31 444.917 120.371C444.982 120.432 445.058 120.48 445.142 120.512C445.226 120.543 445.315 120.558 445.404 120.555C445.493 120.552 445.581 120.532 445.663 120.495L459.293 114.245C459.374 114.209 459.447 114.158 459.508 114.094C459.568 114.029 459.616 113.953 459.646 113.87C459.677 113.787 459.691 113.699 459.687 113.61C459.683 113.522 459.661 113.435 459.623 113.355C459.587 113.275 459.536 113.203 459.472 113.144C459.408 113.084 459.333 113.038 459.251 113.008C459.168 112.978 459.081 112.965 458.994 112.97C458.906 112.974 458.821 112.997 458.743 113.035Z" fill="black"/>
<path d="M431.44 125.456L417.75 131.586C417.664 131.624 417.587 131.679 417.523 131.746C417.459 131.814 417.409 131.894 417.375 131.981C417.342 132.069 417.326 132.162 417.328 132.255C417.331 132.349 417.352 132.441 417.39 132.526C417.428 132.611 417.482 132.688 417.55 132.753C417.618 132.817 417.698 132.867 417.785 132.901C417.873 132.934 417.966 132.95 418.059 132.947C418.152 132.945 418.244 132.924 418.33 132.886L432 126.716C432.083 126.679 432.157 126.625 432.219 126.559C432.281 126.493 432.33 126.415 432.362 126.33C432.394 126.245 432.409 126.155 432.406 126.064C432.403 125.973 432.382 125.884 432.345 125.801C432.307 125.718 432.254 125.644 432.188 125.582C432.122 125.519 432.044 125.471 431.959 125.439C431.874 125.407 431.783 125.392 431.693 125.395C431.602 125.398 431.513 125.419 431.43 125.456L431.44 125.456Z" fill="black"/>
<path d="M404.156 138.031L390.766 144.811C390.593 144.903 390.462 145.059 390.402 145.246C390.342 145.433 390.358 145.636 390.446 145.811C390.49 145.899 390.55 145.977 390.624 146.042C390.698 146.106 390.784 146.155 390.877 146.185C390.97 146.216 391.069 146.228 391.166 146.22C391.264 146.213 391.359 146.186 391.446 146.141L404.796 139.331C404.884 139.288 404.962 139.227 405.026 139.153C405.09 139.079 405.139 138.992 405.168 138.899C405.198 138.806 405.209 138.707 405.2 138.61C405.191 138.512 405.163 138.418 405.116 138.331C405.027 138.166 404.877 138.042 404.697 137.986C404.518 137.93 404.324 137.946 404.156 138.031Z" fill="black"/>
<path d="M377.444 151.709L364.104 158.549C363.92 158.643 363.78 158.807 363.716 159.004C363.653 159.201 363.67 159.415 363.764 159.599C363.858 159.783 364.021 159.923 364.218 159.987C364.415 160.05 364.629 160.033 364.814 159.939L378.154 153.069C378.25 153.028 378.337 152.968 378.408 152.893C378.48 152.817 378.536 152.727 378.571 152.629C378.607 152.531 378.622 152.427 378.616 152.322C378.609 152.218 378.581 152.116 378.534 152.023C378.486 151.931 378.42 151.848 378.34 151.782C378.259 151.716 378.166 151.667 378.065 151.638C377.965 151.61 377.86 151.602 377.756 151.616C377.653 151.63 377.553 151.665 377.464 151.719L377.444 151.709Z" fill="black"/>
<path d="M350.679 165.191L337.089 171.491C336.894 171.58 336.743 171.743 336.668 171.943C336.593 172.144 336.601 172.366 336.689 172.561C336.782 172.754 336.947 172.903 337.149 172.976C337.351 173.049 337.574 173.04 337.769 172.951L351.369 166.651C351.56 166.562 351.708 166.401 351.78 166.203C351.852 166.005 351.843 165.787 351.754 165.596C351.665 165.405 351.504 165.257 351.306 165.185C351.108 165.113 350.89 165.122 350.699 165.211L350.679 165.191Z" fill="black"/>
<path d="M323.284 177.267L309.214 182.337L309.164 182.337C309.061 182.374 308.965 182.431 308.884 182.505C308.803 182.579 308.737 182.668 308.691 182.768C308.644 182.867 308.618 182.975 308.613 183.085C308.609 183.195 308.626 183.304 308.664 183.407C308.739 183.616 308.893 183.787 309.094 183.883C309.294 183.979 309.525 183.991 309.734 183.917L323.874 178.777C323.979 178.744 324.077 178.689 324.161 178.617C324.244 178.545 324.312 178.457 324.361 178.357C324.41 178.258 324.438 178.15 324.444 178.04C324.45 177.93 324.434 177.819 324.396 177.716C324.358 177.612 324.3 177.517 324.224 177.436C324.149 177.355 324.058 177.291 323.957 177.246C323.856 177.201 323.747 177.177 323.636 177.176C323.526 177.174 323.416 177.195 323.314 177.237L323.284 177.267Z" fill="black"/>
<path d="M294.856 186.418C290.026 187.582 285.135 188.48 280.206 189.108C279.982 189.136 279.778 189.251 279.639 189.43C279.5 189.608 279.438 189.834 279.466 190.058C279.494 190.282 279.61 190.486 279.788 190.625C279.966 190.763 280.192 190.826 280.416 190.798C285.41 190.164 290.364 189.253 295.256 188.068C295.468 188.013 295.651 187.879 295.767 187.692C295.882 187.506 295.922 187.282 295.876 187.068C295.854 186.957 295.809 186.852 295.745 186.759C295.681 186.666 295.599 186.587 295.504 186.526C295.409 186.465 295.302 186.425 295.191 186.406C295.08 186.387 294.966 186.391 294.856 186.418Z" fill="black"/>
<path d="M265.356 189.879C262.886 189.809 260.416 189.639 257.956 189.339C255.532 189.073 253.147 188.533 250.846 187.729C250.736 187.678 250.618 187.651 250.497 187.649C250.376 187.646 250.257 187.669 250.145 187.715C250.034 187.762 249.934 187.831 249.85 187.918C249.767 188.005 249.703 188.109 249.662 188.222C249.621 188.336 249.604 188.456 249.612 188.577C249.62 188.697 249.653 188.814 249.709 188.921C249.765 189.028 249.842 189.122 249.936 189.198C250.03 189.273 250.139 189.328 250.256 189.359C252.685 190.202 255.2 190.768 257.756 191.049C260.262 191.349 262.782 191.532 265.316 191.599C265.544 191.599 265.763 191.508 265.924 191.347C266.085 191.186 266.176 190.967 266.176 190.739C266.176 190.511 266.085 190.292 265.924 190.131C265.763 189.97 265.544 189.879 265.316 189.879L265.356 189.879Z" fill="black"/>
<path d="M240.844 178.297C240.088 176.011 239.729 173.613 239.784 171.207C239.832 168.764 240.12 166.332 240.644 163.946C240.668 163.834 240.67 163.718 240.649 163.605C240.629 163.492 240.586 163.384 240.524 163.288C240.462 163.191 240.381 163.108 240.287 163.042C240.192 162.977 240.086 162.931 239.974 162.907C239.861 162.882 239.745 162.88 239.632 162.901C239.519 162.921 239.411 162.964 239.315 163.026C239.218 163.088 239.135 163.169 239.07 163.263C239.004 163.358 238.958 163.464 238.934 163.577C238.386 166.077 238.088 168.627 238.044 171.186C237.985 173.795 238.381 176.394 239.214 178.866C239.242 178.985 239.295 179.097 239.37 179.193C239.444 179.29 239.538 179.37 239.645 179.429C239.752 179.487 239.871 179.522 239.992 179.531C240.114 179.541 240.236 179.524 240.351 179.483C240.466 179.443 240.571 179.378 240.66 179.294C240.748 179.209 240.818 179.108 240.864 178.995C240.911 178.882 240.933 178.76 240.929 178.638C240.926 178.516 240.897 178.397 240.844 178.287L240.844 178.297Z" fill="black"/>
<path d="M245.334 149.905C247.334 145.355 249.604 140.905 252.034 136.585C252.091 136.484 252.128 136.373 252.142 136.257C252.156 136.142 252.147 136.025 252.116 135.913C252.085 135.801 252.032 135.697 251.961 135.605C251.889 135.514 251.8 135.437 251.699 135.38C251.598 135.323 251.487 135.286 251.371 135.272C251.256 135.258 251.139 135.267 251.027 135.298C250.915 135.329 250.811 135.382 250.719 135.453C250.628 135.525 250.551 135.614 250.494 135.715C248.009 140.093 245.749 144.596 243.724 149.205C243.65 149.415 243.658 149.645 243.747 149.849C243.836 150.053 243.999 150.216 244.203 150.305C244.407 150.394 244.637 150.402 244.847 150.328C245.057 150.253 245.231 150.102 245.334 149.905Z" fill="black"/>
<path d="M259.777 123.8L268.227 111.46C268.326 111.264 268.35 111.039 268.296 110.827C268.241 110.614 268.11 110.429 267.928 110.307C267.746 110.184 267.526 110.132 267.308 110.16C267.091 110.188 266.891 110.295 266.747 110.46L258.257 122.88C258.137 123.075 258.098 123.308 258.146 123.532C258.194 123.755 258.326 123.952 258.515 124.08C258.704 124.209 258.935 124.26 259.161 124.222C259.386 124.185 259.589 124.063 259.727 123.88L259.777 123.8Z" fill="black"/>
<path d="M276.952 99.2554L285.532 86.9454C285.616 86.8493 285.678 86.7365 285.715 86.6144C285.752 86.4923 285.763 86.3637 285.746 86.2372C285.73 86.1107 285.687 85.9891 285.62 85.8805C285.553 85.7719 285.463 85.6788 285.358 85.6074C285.252 85.5359 285.132 85.4878 285.007 85.4662C284.881 85.4445 284.752 85.4498 284.628 85.4818C284.505 85.5138 284.39 85.5716 284.29 85.6515C284.191 85.7315 284.109 85.8316 284.052 85.9454L275.532 98.2154C275.442 98.3102 275.375 98.4232 275.334 98.5466C275.293 98.6699 275.279 98.8008 275.293 98.9301C275.307 99.0594 275.349 99.1841 275.416 99.2955C275.483 99.407 275.574 99.5026 275.681 99.5758C275.789 99.649 275.911 99.6979 276.039 99.7194C276.168 99.7408 276.299 99.7341 276.424 99.6999C276.55 99.6656 276.667 99.6046 276.766 99.5209C276.866 99.4373 276.946 99.3331 277.002 99.2154L276.952 99.2554Z" fill="black"/>
<path d="M293.709 74.2887C296.299 69.9987 298.769 65.6086 301.019 61.1086C301.126 60.8912 301.143 60.6399 301.065 60.4102C300.987 60.1804 300.821 59.991 300.604 59.8836C300.386 59.7762 300.135 59.7596 299.905 59.8374C299.676 59.9152 299.486 60.0812 299.379 60.2986C297.159 64.7386 294.719 69.0887 292.149 73.3487C292.024 73.5555 291.987 73.8034 292.045 74.0378C292.103 74.2723 292.252 74.474 292.459 74.5987C292.666 74.7233 292.913 74.7607 293.148 74.7025C293.382 74.6444 293.584 74.4955 293.709 74.2887Z" fill="black"/>
<path d="M306.987 47.2346C308.702 42.4711 309.977 37.5606 310.797 32.5646C310.836 32.3206 310.776 32.0713 310.63 31.8716C310.485 31.6719 310.266 31.5381 310.022 31.4996C309.778 31.4612 309.529 31.5212 309.329 31.6666C309.13 31.8119 308.996 32.0306 308.957 32.2746C308.168 37.169 306.926 41.9796 305.247 46.6446C305.165 46.8754 305.178 47.1293 305.283 47.3506C305.388 47.5719 305.576 47.7424 305.807 47.8246C306.038 47.9068 306.292 47.894 306.513 47.789C306.735 47.684 306.905 47.4954 306.987 47.2646L306.987 47.2346Z" fill="black"/>
<path d="M311.047 17.305C310.541 14.7215 309.521 12.2661 308.047 10.085C306.529 7.92631 304.577 6.10768 302.317 4.74496C302.105 4.61235 301.849 4.56946 301.605 4.62573C301.361 4.68199 301.15 4.8328 301.017 5.04498C300.884 5.25715 300.841 5.51331 300.898 5.7571C300.954 6.0009 301.105 6.21236 301.317 6.34496C303.356 7.57137 305.117 9.20958 306.487 11.155C307.831 13.1238 308.76 15.3456 309.217 17.685C309.267 17.9276 309.412 18.1403 309.619 18.2763C309.826 18.4123 310.079 18.4604 310.322 18.41C310.565 18.3596 310.777 18.2149 310.913 18.0076C311.049 17.8004 311.097 17.5476 311.047 17.305Z" fill="black"/>
<path d="M287.646 0.348795C282.607 -0.116265 277.536 -0.116266 272.496 0.348793C272.258 0.383542 272.041 0.507786 271.891 0.696327C271.74 0.884868 271.667 1.12356 271.686 1.36402C271.705 1.60448 271.815 1.82868 271.993 1.99113C272.172 2.15358 272.405 2.24212 272.646 2.23878C277.571 1.77722 282.528 1.7605 287.456 2.18879C287.702 2.20879 287.945 2.13181 288.134 1.97441C288.323 1.817 288.443 1.59171 288.468 1.3469C288.493 1.1021 288.421 0.857307 288.267 0.665079C288.113 0.472851 287.891 0.348536 287.646 0.318796L287.646 0.348795Z" fill="black"/>
<path d="M257.534 2.42635L242.814 5.62636C242.658 5.61424 242.502 5.63871 242.358 5.6978C242.213 5.7569 242.085 5.84898 241.982 5.96669C241.88 6.0844 241.806 6.22445 241.767 6.37566C241.729 6.52687 241.726 6.68503 241.76 6.83748C241.793 6.98994 241.862 7.13245 241.96 7.25362C242.058 7.37479 242.184 7.47126 242.326 7.5353C242.468 7.59933 242.624 7.62916 242.78 7.6224C242.936 7.61563 243.088 7.57247 243.224 7.49636L243.274 7.49636L257.874 4.31637L257.934 4.31637C258.057 4.29149 258.174 4.24227 258.277 4.17165C258.381 4.10103 258.469 4.0104 258.537 3.90511C258.605 3.79982 258.651 3.68199 258.673 3.55855C258.695 3.43512 258.692 3.30858 258.664 3.18636C258.607 2.94038 258.458 2.72527 258.248 2.58428C258.039 2.4433 257.784 2.38687 257.534 2.42635Z" fill="black"/>
<path d="M228.307 9.49094C225.897 10.1409 223.507 10.8009 221.097 11.4309L213.807 13.2409C213.562 13.3092 213.352 13.4681 213.221 13.6855C213.089 13.9028 213.045 14.1622 213.097 14.4109C213.165 14.6558 213.324 14.8655 213.542 14.9974C213.759 15.1293 214.018 15.1735 214.267 15.1209L221.537 13.321C223.957 12.691 226.387 12.011 228.807 11.321C228.995 11.2096 229.141 11.0399 229.223 10.8377C229.305 10.6356 229.319 10.4121 229.263 10.2013C229.206 9.99053 229.082 9.80408 228.909 9.67041C228.737 9.53674 228.525 9.46316 228.307 9.46094L228.307 9.49094Z" fill="black"/>
<path d="M199.284 17.072L184.824 21.132C184.616 21.2363 184.452 21.4093 184.358 21.6216C184.265 21.8338 184.248 22.0719 184.31 22.2953C184.373 22.5186 184.511 22.7132 184.702 22.8458C184.892 22.9784 185.122 23.0407 185.354 23.022L199.774 18.952C199.924 18.9449 200.07 18.9042 200.202 18.8329C200.334 18.7615 200.448 18.6613 200.536 18.5398C200.624 18.4182 200.684 18.2784 200.711 18.1307C200.737 17.983 200.73 17.8312 200.69 17.6865C200.65 17.5419 200.578 17.4081 200.48 17.2951C200.381 17.1821 200.258 17.0927 200.12 17.0337C199.982 16.9747 199.832 16.9475 199.682 16.9541C199.532 16.9607 199.386 17.001 199.254 17.072L199.284 17.072Z" fill="black"/>
<path d="M170.426 25.3337L156.036 29.5937C155.785 29.6721 155.575 29.8462 155.452 30.0783C155.328 30.3103 155.301 30.5817 155.376 30.8337C155.455 31.0823 155.627 31.2905 155.857 31.4138C156.087 31.5371 156.356 31.5657 156.606 31.4937L170.976 27.2237C171.186 27.1193 171.353 26.9444 171.447 26.7297C171.541 26.5149 171.557 26.2739 171.491 26.0487C171.426 25.8235 171.283 25.6286 171.089 25.4979C170.894 25.3672 170.659 25.309 170.426 25.3337Z" fill="black"/>
<path d="M141.656 33.8407L127.256 38.0007C127.003 38.075 126.79 38.2458 126.663 38.4761C126.536 38.7063 126.504 38.9774 126.576 39.2306C126.648 39.4848 126.818 39.7001 127.048 39.8294C127.279 39.9587 127.551 39.9915 127.806 39.9207L142.226 35.7407C142.453 35.6467 142.638 35.4723 142.744 35.2508C142.851 35.0292 142.873 34.7761 142.805 34.5397C142.737 34.3033 142.584 34.1003 142.376 33.9695C142.167 33.8387 141.918 33.7893 141.676 33.8307L141.656 33.8407Z" fill="black"/>
<path d="M112.816 42.0077L98.3157 45.7677C98.1 45.8638 97.9252 46.0333 97.8224 46.2459C97.7196 46.4586 97.6953 46.7008 97.754 46.9297C97.8127 47.1585 97.9506 47.3591 98.1431 47.4961C98.3356 47.633 98.5703 47.6973 98.8057 47.6777L113.346 43.9177C113.483 43.8962 113.615 43.8462 113.732 43.771C113.849 43.6958 113.949 43.5969 114.026 43.4807C114.103 43.3646 114.154 43.2337 114.177 43.0964C114.201 42.9592 114.195 42.8185 114.161 42.6836C114.126 42.5487 114.064 42.4224 113.978 42.3128C113.893 42.2033 113.785 42.1128 113.662 42.0473C113.539 41.9818 113.404 41.9427 113.265 41.9324C113.126 41.9221 112.987 41.941 112.856 41.9877L112.816 42.0077Z" fill="black"/>
<path d="M83.7342 49.202L69.0742 52.202C68.8623 52.2923 68.6881 52.4529 68.5809 52.6568C68.4738 52.8607 68.4403 53.0953 68.4861 53.321C68.532 53.5468 68.6543 53.7498 68.8326 53.8957C69.0108 54.0416 69.2339 54.1216 69.4642 54.122L84.1942 51.122C84.4136 51.0357 84.5955 50.8746 84.7077 50.6672C84.8199 50.4598 84.8552 50.2194 84.8073 49.9885C84.7595 49.7576 84.6315 49.551 84.4462 49.4053C84.2608 49.2595 84.0299 49.184 83.7942 49.192L83.7342 49.202Z" fill="black"/>
<path d="M54.3251 54.767L39.5351 56.697C39.3836 56.6781 39.2298 56.6942 39.0855 56.744C38.9411 56.7938 38.8102 56.876 38.7025 56.9842C38.5949 57.0925 38.5135 57.224 38.4645 57.3686C38.4155 57.5132 38.4003 57.6671 38.4201 57.8184C38.4398 57.9698 38.4938 58.1147 38.5782 58.2419C38.6626 58.3692 38.775 58.4754 38.9068 58.5525C39.0385 58.6296 39.1862 58.6755 39.3385 58.6866C39.4907 58.6978 39.6435 58.674 39.7851 58.617L54.6151 56.647C54.7652 56.6626 54.9169 56.6441 55.0589 56.5927C55.2008 56.5414 55.3293 56.4586 55.4346 56.3506C55.54 56.2425 55.6196 56.112 55.6673 55.9689C55.7151 55.8257 55.7299 55.6736 55.7105 55.5239C55.6911 55.3742 55.638 55.2309 55.5554 55.1046C55.4727 54.9783 55.3625 54.8724 55.2331 54.7948C55.1037 54.7171 54.9584 54.6698 54.808 54.6563C54.6577 54.6429 54.5063 54.6636 54.3651 54.717L54.3251 54.767Z" fill="black"/>
<path d="M27.6025 58.7318L12.8125 60.6618C12.661 60.643 12.5071 60.6591 12.3628 60.7089C12.2185 60.7586 12.0875 60.8408 11.9799 60.9491C11.8722 61.0573 11.7908 61.1888 11.7418 61.3334C11.6929 61.478 11.6777 61.6319 11.6974 61.7833C11.7171 61.9347 11.7712 62.0795 11.8555 62.2068C11.9399 62.334 12.0523 62.4402 12.1841 62.5173C12.3159 62.5944 12.4635 62.6403 12.6158 62.6515C12.7681 62.6627 12.9208 62.6388 13.0625 62.5818L27.8924 60.6118C28.0426 60.6275 28.1943 60.6089 28.3362 60.5576C28.4781 60.5062 28.6066 60.4235 28.712 60.3154C28.8174 60.2074 28.8969 60.0769 28.9447 59.9337C28.9925 59.7905 29.0072 59.6384 28.9878 59.4887C28.9684 59.3391 28.9154 59.1957 28.8327 59.0695C28.75 58.9432 28.6399 58.8372 28.5105 58.7596C28.381 58.682 28.2357 58.6347 28.0854 58.6212C27.935 58.6077 27.7836 58.6284 27.6424 58.6818L27.6025 58.7318Z" fill="black"/>
<path d="M1.68451 62.079L-13.181 63.2984C-13.3314 63.2723 -13.4858 63.2811 -13.6323 63.3239C-13.7789 63.3667 -13.9136 63.4425 -14.0263 63.5455C-14.139 63.6485 -14.2267 63.7759 -14.2825 63.918C-14.3384 64.0601 -14.3609 64.2131 -14.3484 64.3652C-14.336 64.5174 -14.2889 64.6647 -14.2108 64.7958C-14.1326 64.9269 -14.0254 65.0384 -13.8975 65.1217C-13.7695 65.205 -13.6242 65.258 -13.4727 65.2764C-13.3211 65.2949 -13.1674 65.2784 -13.0232 65.2282L1.88412 63.9707C2.03331 63.9935 2.18574 63.9823 2.32996 63.9378C2.47418 63.8933 2.60649 63.8168 2.71692 63.7139C2.82735 63.6111 2.91306 63.4845 2.96763 63.3438C3.0222 63.2031 3.04421 63.0518 3.03201 62.9014C3.01982 62.751 2.97371 62.6053 2.89718 62.4752C2.82065 62.3451 2.71569 62.234 2.59013 62.1502C2.46456 62.0665 2.32167 62.0123 2.17216 61.9916C2.02266 61.971 1.8704 61.9844 1.72684 62.031L1.68451 62.079Z" fill="black"/>
</svg>
