<svg width="625" height="414" viewBox="0 0 625 414" fill="none" xmlns="http://www.w3.org/2000/svg">
<path d="M64.5893 163.088L60.918 177.629L64.5893 163.088Z" fill="black"/>
<path d="M57.1919 192.162L53.5618 206.702C53.5521 206.72 53.5496 206.741 53.555 206.761C53.5603 206.781 53.5729 206.798 53.5904 206.808C53.5989 206.815 53.6087 206.819 53.6191 206.821C53.6295 206.823 53.6402 206.823 53.6504 206.82C53.6607 206.817 53.6701 206.812 53.6781 206.805C53.6861 206.798 53.6924 206.79 53.6966 206.78L57.2654 192.204C57.2699 192.192 57.2705 192.179 57.2672 192.167C57.264 192.155 57.257 192.144 57.2473 192.136C57.2366 192.134 57.2253 192.135 57.2153 192.14C57.2053 192.144 57.1971 192.152 57.1919 192.162Z" fill="black"/>
<path d="M50.1371 221.315L46.9504 235.965C46.9463 235.983 46.9458 236.002 46.949 236.02C46.9522 236.038 46.959 236.055 46.9689 236.071C46.9789 236.087 46.9919 236.1 47.0071 236.111C47.0224 236.121 47.0395 236.129 47.0577 236.133C47.0757 236.137 47.0945 236.137 47.1127 236.134C47.131 236.131 47.1484 236.124 47.164 236.114C47.1797 236.104 47.1931 236.091 47.2037 236.076C47.2143 236.061 47.2217 236.043 47.2256 236.025L50.3491 221.372C50.3556 221.342 50.3498 221.31 50.333 221.283C50.3163 221.257 50.2898 221.238 50.2593 221.231C50.2324 221.229 50.2057 221.237 50.1835 221.252C50.1613 221.267 50.145 221.29 50.1371 221.315Z" fill="black"/>
<path d="M44.0981 250.685L41.6467 265.489C41.6394 265.542 41.6525 265.595 41.6835 265.639C41.7145 265.683 41.7609 265.713 41.8134 265.723C41.8664 265.731 41.9202 265.718 41.9638 265.687C42.0075 265.656 42.0377 265.609 42.0482 265.557L44.439 250.759C44.4432 250.737 44.4427 250.714 44.4375 250.692C44.4324 250.671 44.4227 250.65 44.4091 250.632C44.3955 250.614 44.3784 250.6 44.3587 250.589C44.3391 250.578 44.3174 250.572 44.295 250.57C44.2538 250.561 44.2108 250.568 44.1744 250.589C44.1381 250.611 44.1109 250.645 44.0981 250.685Z" fill="black"/>
<path d="M39.7728 280.379L38.6197 295.351C38.6156 295.384 38.6183 295.418 38.6277 295.45C38.6371 295.481 38.653 295.511 38.6744 295.536C38.6958 295.562 38.7223 295.582 38.7521 295.597C38.7819 295.612 38.8145 295.62 38.8477 295.621C38.9151 295.627 38.9821 295.606 39.0343 295.563C39.0866 295.52 39.12 295.458 39.1274 295.391L40.2831 280.428C40.2869 280.368 40.267 280.309 40.2277 280.263C40.1883 280.218 40.1326 280.189 40.0726 280.184C40.0401 280.172 40.005 280.167 39.9703 280.17C39.9356 280.174 39.9022 280.186 39.8729 280.205C39.8436 280.224 39.8192 280.249 39.8018 280.28C39.7844 280.31 39.7745 280.344 39.7728 280.379Z" fill="black"/>
<path d="M38.5177 310.367C38.6718 315.371 39.1648 320.359 39.9933 325.296C39.9999 325.337 40.0144 325.375 40.036 325.41C40.0577 325.445 40.086 325.475 40.1193 325.499C40.1527 325.523 40.1904 325.539 40.2303 325.549C40.2702 325.558 40.3116 325.559 40.352 325.552C40.4326 325.533 40.5034 325.485 40.5503 325.417C40.5972 325.349 40.6167 325.265 40.605 325.183C39.7424 320.267 39.2197 315.298 39.0406 310.31C39.0358 310.234 39.0016 310.164 38.9454 310.113C38.8893 310.062 38.8155 310.036 38.7399 310.038C38.6691 310.057 38.6075 310.1 38.5666 310.161C38.5257 310.222 38.5083 310.295 38.5177 310.367Z" fill="black"/>
<path d="M44.3427 339.743C46.3682 344.409 49.5071 348.507 53.4844 351.679C53.5225 351.708 53.5659 351.729 53.6122 351.741C53.6585 351.752 53.7067 351.755 53.754 351.748C53.8013 351.741 53.8467 351.725 53.8877 351.7C53.9286 351.676 53.9642 351.643 53.9924 351.604C54.0501 351.527 54.0755 351.431 54.0634 351.336C54.0513 351.241 54.0026 351.154 53.9277 351.094C50.028 348.025 46.937 344.05 44.9233 339.514C44.9059 339.473 44.8803 339.435 44.848 339.404C44.8156 339.373 44.7772 339.348 44.7351 339.333C44.6931 339.317 44.6482 339.31 44.6033 339.312C44.5584 339.314 44.5144 339.325 44.474 339.345C44.4121 339.388 44.366 339.45 44.3423 339.522C44.3186 339.594 44.3188 339.671 44.3427 339.743Z" fill="black"/>
<path d="M67.4971 356.923C72.5364 357.286 77.6014 356.844 82.5015 355.613C82.5555 355.601 82.6066 355.579 82.652 355.548C82.6973 355.516 82.736 355.476 82.7658 355.429C82.7957 355.383 82.816 355.331 82.8258 355.277C82.8355 355.222 82.8344 355.167 82.8226 355.113C82.8119 355.057 82.79 355.005 82.758 354.958C82.7261 354.911 82.6849 354.872 82.637 354.842C82.5891 354.812 82.5356 354.792 82.4797 354.784C82.4239 354.776 82.3669 354.779 82.3124 354.794C77.4982 356.016 72.5214 356.469 67.5658 356.138C67.4616 356.129 67.358 356.161 67.2771 356.227C67.1962 356.293 67.1445 356.389 67.133 356.493C67.1246 356.598 67.1582 356.702 67.2264 356.783C67.2946 356.863 67.3919 356.914 67.4971 356.923Z" fill="black"/>
<path d="M96.7984 350.874C101.453 348.929 105.933 346.72 110.35 344.353C110.406 344.323 110.456 344.283 110.496 344.234C110.537 344.184 110.567 344.128 110.585 344.067C110.604 344.006 110.61 343.943 110.603 343.879C110.597 343.816 110.578 343.755 110.547 343.699C110.518 343.643 110.477 343.593 110.428 343.553C110.379 343.513 110.322 343.483 110.262 343.464C110.201 343.446 110.137 343.44 110.074 343.446C110.011 343.453 109.95 343.472 109.894 343.502C105.501 345.884 101.033 348.1 96.4489 350.036C96.3936 350.058 96.3432 350.092 96.3009 350.134C96.2585 350.176 96.225 350.226 96.2023 350.282C96.1795 350.337 96.168 350.396 96.1685 350.456C96.1689 350.516 96.1812 350.575 96.2047 350.63C96.2272 350.685 96.2605 350.735 96.3027 350.778C96.3449 350.82 96.3951 350.854 96.4503 350.876C96.5056 350.899 96.5648 350.911 96.6246 350.91C96.6844 350.91 96.7435 350.897 96.7984 350.874Z" fill="black"/>
<path d="M123.454 337.036L136.318 329.302C136.377 329.267 136.429 329.22 136.471 329.165C136.512 329.109 136.542 329.046 136.559 328.979C136.575 328.912 136.578 328.842 136.568 328.774C136.557 328.705 136.533 328.64 136.497 328.581C136.426 328.462 136.312 328.377 136.178 328.343C136.045 328.309 135.904 328.329 135.785 328.399L122.944 336.138C122.83 336.207 122.749 336.318 122.718 336.446C122.686 336.575 122.707 336.711 122.776 336.825C122.806 336.884 122.847 336.937 122.897 336.98C122.948 337.024 123.007 337.056 123.07 337.076C123.133 337.095 123.2 337.102 123.266 337.095C123.332 337.088 123.396 337.068 123.454 337.036Z" fill="black"/>
<path d="M148.962 321.204L161.35 312.78C161.471 312.695 161.554 312.567 161.581 312.422C161.608 312.277 161.577 312.128 161.494 312.006C161.453 311.946 161.401 311.895 161.341 311.855C161.281 311.815 161.213 311.788 161.142 311.774C161.071 311.76 160.998 311.761 160.927 311.775C160.857 311.79 160.789 311.818 160.73 311.859L148.359 320.31C148.301 320.35 148.25 320.401 148.212 320.461C148.173 320.52 148.146 320.587 148.133 320.657C148.12 320.727 148.121 320.798 148.136 320.868C148.151 320.937 148.179 321.003 148.22 321.062C148.259 321.12 148.309 321.17 148.367 321.209C148.426 321.248 148.492 321.275 148.561 321.288C148.63 321.302 148.701 321.301 148.77 321.286C148.839 321.272 148.904 321.244 148.962 321.204Z" fill="black"/>
<path d="M173.614 304.052L185.704 295.097C185.766 295.053 185.819 294.997 185.859 294.932C185.9 294.867 185.926 294.794 185.938 294.719C185.949 294.643 185.946 294.566 185.927 294.492C185.908 294.418 185.874 294.348 185.828 294.287C185.783 294.225 185.725 294.172 185.659 294.132C185.593 294.092 185.52 294.066 185.444 294.054C185.367 294.043 185.29 294.047 185.215 294.066C185.14 294.085 185.07 294.119 185.008 294.166L172.943 303.135C172.883 303.179 172.832 303.234 172.794 303.297C172.755 303.36 172.73 303.431 172.719 303.504C172.708 303.577 172.711 303.652 172.729 303.724C172.747 303.796 172.779 303.864 172.824 303.923C172.866 303.984 172.921 304.036 172.984 304.076C173.048 304.115 173.118 304.142 173.192 304.154C173.265 304.166 173.341 304.163 173.413 304.146C173.486 304.128 173.554 304.097 173.614 304.052Z" fill="black"/>
<path d="M197.567 285.957L209.358 276.657C209.432 276.611 209.496 276.55 209.544 276.477C209.593 276.405 209.626 276.323 209.641 276.237C209.656 276.15 209.653 276.062 209.631 275.977C209.61 275.893 209.57 275.813 209.516 275.745C209.461 275.676 209.393 275.62 209.315 275.58C209.238 275.54 209.152 275.516 209.065 275.512C208.978 275.507 208.89 275.52 208.809 275.552C208.727 275.583 208.653 275.631 208.591 275.693L196.835 285.004C196.724 285.106 196.656 285.247 196.644 285.397C196.632 285.548 196.677 285.697 196.77 285.816C196.864 285.934 196.998 286.013 197.147 286.037C197.296 286.061 197.449 286.028 197.574 285.944L197.567 285.957Z" fill="black"/>
<path d="M221.058 267.309L232.685 257.826C232.819 257.717 232.904 257.559 232.922 257.388C232.94 257.216 232.889 257.044 232.78 256.91C232.671 256.776 232.514 256.69 232.342 256.672C232.17 256.654 231.998 256.705 231.864 256.814L220.264 266.321C220.2 266.374 220.147 266.438 220.108 266.511C220.069 266.585 220.044 266.665 220.036 266.747C220.028 266.83 220.036 266.913 220.061 266.992C220.085 267.071 220.124 267.145 220.177 267.209C220.229 267.273 220.294 267.326 220.367 267.365C220.44 267.405 220.52 267.429 220.603 267.437C220.685 267.445 220.768 267.437 220.848 267.413C220.927 267.389 221.001 267.349 221.065 267.297L221.058 267.309Z" fill="black"/>
<path d="M244.251 248.242L255.818 238.692C255.888 238.635 255.945 238.565 255.987 238.487C256.028 238.408 256.054 238.321 256.062 238.232C256.07 238.143 256.06 238.054 256.033 237.968C256.006 237.883 255.962 237.805 255.904 237.737C255.847 237.668 255.777 237.61 255.698 237.568C255.62 237.526 255.533 237.5 255.444 237.491C255.356 237.482 255.266 237.491 255.18 237.517C255.095 237.543 255.015 237.585 254.946 237.642L243.406 247.216C243.337 247.271 243.279 247.34 243.237 247.418C243.195 247.496 243.169 247.582 243.161 247.67C243.153 247.758 243.163 247.847 243.19 247.931C243.217 248.016 243.26 248.094 243.318 248.161C243.373 248.229 243.441 248.285 243.518 248.326C243.595 248.367 243.68 248.392 243.767 248.4C243.854 248.407 243.942 248.397 244.025 248.37C244.108 248.343 244.185 248.299 244.251 248.242Z" fill="black"/>
<path d="M267.394 229.17L279.024 219.697C279.096 219.638 279.156 219.565 279.201 219.483C279.245 219.401 279.273 219.311 279.283 219.218C279.292 219.125 279.284 219.031 279.257 218.941C279.23 218.852 279.186 218.768 279.127 218.696C279.068 218.623 278.996 218.563 278.913 218.518C278.831 218.474 278.741 218.446 278.648 218.437C278.555 218.427 278.461 218.436 278.372 218.462C278.282 218.489 278.199 218.533 278.126 218.592L266.526 228.099C266.456 228.157 266.398 228.227 266.355 228.308C266.312 228.388 266.286 228.475 266.277 228.566C266.268 228.656 266.277 228.747 266.303 228.834C266.33 228.921 266.373 229.002 266.43 229.072C266.488 229.142 266.559 229.2 266.639 229.243C266.719 229.286 266.807 229.313 266.897 229.322C266.988 229.33 267.079 229.321 267.166 229.295C267.253 229.269 267.333 229.225 267.404 229.168L267.394 229.17Z" fill="black"/>
<path d="M290.477 209.938L301.648 199.915C301.792 199.781 301.878 199.596 301.887 199.4C301.896 199.204 301.828 199.012 301.698 198.866C301.633 198.792 301.554 198.733 301.466 198.69C301.378 198.647 301.282 198.622 301.184 198.617C301.087 198.611 300.989 198.625 300.896 198.658C300.804 198.69 300.719 198.741 300.646 198.807L289.522 208.849C289.448 208.913 289.388 208.992 289.346 209.08C289.303 209.169 289.279 209.265 289.274 209.363C289.27 209.46 289.285 209.558 289.319 209.65C289.353 209.742 289.405 209.826 289.472 209.897C289.601 210.034 289.779 210.115 289.966 210.122C290.154 210.13 290.337 210.064 290.477 209.938Z" fill="black"/>
<path d="M312.726 189.802L323.834 179.734C323.987 179.595 324.079 179.401 324.09 179.195C324.1 178.988 324.028 178.785 323.889 178.632C323.751 178.478 323.557 178.386 323.35 178.376C323.143 178.365 322.941 178.437 322.787 178.576L311.688 188.673C311.605 188.738 311.537 188.818 311.488 188.91C311.438 189.002 311.408 189.103 311.399 189.207C311.39 189.311 311.402 189.415 311.435 189.514C311.469 189.613 311.522 189.704 311.592 189.782C311.662 189.859 311.747 189.921 311.842 189.964C311.937 190.007 312.04 190.03 312.145 190.032C312.249 190.033 312.353 190.013 312.449 189.973C312.545 189.933 312.632 189.873 312.704 189.798L312.726 189.802Z" fill="black"/>
<path d="M335.072 169.829L346.561 160.217C346.726 160.081 346.83 159.884 346.85 159.671C346.87 159.458 346.806 159.246 346.67 159.08C346.53 158.918 346.331 158.817 346.117 158.799C345.903 158.781 345.691 158.847 345.525 158.984L334.027 168.598C333.866 168.734 333.765 168.928 333.746 169.137C333.728 169.347 333.794 169.556 333.929 169.717C334.064 169.878 334.258 169.979 334.468 169.998C334.678 170.016 334.886 169.95 335.048 169.815L335.072 169.829Z" fill="black"/>
<path d="M358.391 151.052L370.662 142.503L370.711 142.49C370.801 142.428 370.878 142.348 370.937 142.256C370.997 142.163 371.037 142.06 371.056 141.952C371.075 141.844 371.073 141.733 371.049 141.625C371.024 141.518 370.979 141.417 370.916 141.327C370.789 141.145 370.596 141.02 370.377 140.979C370.159 140.939 369.933 140.987 369.75 141.113L357.429 149.747C357.336 149.806 357.256 149.884 357.194 149.976C357.132 150.067 357.089 150.17 357.067 150.278C357.046 150.387 357.047 150.498 357.07 150.606C357.093 150.715 357.137 150.817 357.201 150.907C357.264 150.998 357.345 151.075 357.439 151.133C357.533 151.191 357.637 151.23 357.746 151.247C357.856 151.264 357.967 151.259 358.074 151.231C358.181 151.204 358.282 151.156 358.369 151.089L358.391 151.052Z" fill="black"/>
<path d="M383.472 134.833C387.834 132.455 392.324 130.318 396.921 128.432C397.13 128.347 397.297 128.183 397.385 127.975C397.473 127.767 397.474 127.532 397.389 127.323C397.304 127.114 397.139 126.947 396.931 126.859C396.723 126.771 396.489 126.77 396.28 126.855C391.622 128.763 387.074 130.929 382.657 133.343C382.466 133.451 382.324 133.629 382.261 133.839C382.198 134.048 382.218 134.275 382.318 134.47C382.368 134.571 382.438 134.661 382.524 134.734C382.61 134.808 382.71 134.863 382.818 134.897C382.925 134.931 383.039 134.942 383.151 134.931C383.263 134.921 383.372 134.887 383.472 134.833Z" fill="black"/>
<path d="M411.061 123.836C413.464 123.263 415.894 122.786 418.347 122.437C420.756 122.064 423.2 121.967 425.631 122.146C425.75 122.167 425.872 122.162 425.989 122.133C426.106 122.104 426.216 122.051 426.311 121.977C426.407 121.904 426.486 121.811 426.543 121.705C426.601 121.599 426.636 121.483 426.646 121.362C426.657 121.242 426.642 121.121 426.603 121.007C426.564 120.893 426.501 120.788 426.42 120.7C426.338 120.611 426.239 120.54 426.128 120.492C426.018 120.443 425.899 120.419 425.778 120.419C423.214 120.236 420.637 120.341 418.096 120.733C415.598 121.094 413.117 121.571 410.653 122.165C410.432 122.224 410.245 122.368 410.131 122.566C410.017 122.763 409.986 122.998 410.045 123.218C410.105 123.439 410.249 123.626 410.447 123.74C410.644 123.854 410.879 123.885 411.099 123.826L411.061 123.836Z" fill="black"/>
<path d="M437.739 128.655C439.063 130.665 440.031 132.888 440.603 135.226C441.191 137.598 441.544 140.021 441.657 142.461C441.663 142.576 441.691 142.688 441.74 142.792C441.79 142.896 441.859 142.989 441.944 143.066C442.029 143.143 442.129 143.203 442.237 143.241C442.345 143.28 442.46 143.297 442.574 143.291C442.689 143.286 442.802 143.257 442.905 143.208C443.009 143.159 443.102 143.09 443.179 143.005C443.257 142.92 443.316 142.82 443.355 142.712C443.394 142.604 443.411 142.489 443.405 142.374C443.285 139.817 442.911 137.278 442.289 134.794C441.669 132.26 440.612 129.853 439.166 127.681C439.107 127.574 439.027 127.48 438.93 127.406C438.833 127.332 438.722 127.279 438.603 127.25C438.484 127.222 438.361 127.219 438.241 127.241C438.121 127.264 438.007 127.311 437.907 127.381C437.806 127.45 437.722 127.54 437.658 127.644C437.595 127.748 437.554 127.865 437.538 127.986C437.523 128.107 437.533 128.23 437.568 128.347C437.603 128.464 437.662 128.572 437.742 128.664L437.739 128.655Z" fill="black"/>
<path d="M440.773 157.234C440.023 162.147 438.986 167.034 437.76 171.837C437.731 171.949 437.725 172.066 437.741 172.181C437.757 172.296 437.796 172.407 437.855 172.507C437.914 172.607 437.993 172.694 438.085 172.764C438.178 172.834 438.284 172.885 438.396 172.914C438.509 172.942 438.626 172.949 438.741 172.933C438.856 172.916 438.967 172.877 439.067 172.818C439.167 172.759 439.254 172.681 439.324 172.588C439.393 172.495 439.444 172.39 439.473 172.277C440.737 167.404 441.75 162.469 442.51 157.492C442.527 157.27 442.459 157.05 442.32 156.876C442.181 156.702 441.982 156.587 441.762 156.554C441.541 156.522 441.317 156.574 441.133 156.7C440.95 156.826 440.821 157.017 440.773 157.234Z" fill="black"/>
<path d="M433.603 186.211L428.645 200.321C428.6 200.536 428.635 200.76 428.743 200.951C428.851 201.141 429.026 201.286 429.233 201.358C429.441 201.429 429.667 201.422 429.87 201.339C430.073 201.255 430.238 201.1 430.334 200.903L435.309 186.705C435.374 186.486 435.352 186.25 435.247 186.047C435.143 185.843 434.964 185.688 434.748 185.613C434.532 185.538 434.296 185.549 434.088 185.643C433.88 185.738 433.716 185.909 433.63 186.121L433.603 186.211Z" fill="black"/>
<path d="M423.389 214.363L418.298 228.478C418.242 228.592 418.211 228.718 418.207 228.845C418.203 228.973 418.226 229.1 418.274 229.217C418.323 229.335 418.396 229.442 418.489 229.529C418.582 229.617 418.693 229.683 418.813 229.725C418.934 229.766 419.062 229.782 419.189 229.77C419.316 229.758 419.439 229.72 419.55 229.657C419.661 229.594 419.757 229.508 419.833 229.405C419.908 229.302 419.961 229.184 419.987 229.059L425.03 214.998C425.091 214.884 425.127 214.757 425.135 214.627C425.143 214.497 425.122 214.367 425.075 214.246C425.028 214.125 424.955 214.016 424.861 213.925C424.767 213.835 424.655 213.766 424.532 213.723C424.409 213.681 424.279 213.665 424.149 213.678C424.02 213.69 423.895 213.731 423.782 213.796C423.67 213.862 423.573 213.951 423.499 214.058C423.424 214.165 423.374 214.286 423.351 214.414L423.389 214.363Z" fill="black"/>
<path d="M413.686 242.822C412.298 247.637 411.052 252.518 410.048 257.447C410 257.685 410.05 257.932 410.184 258.134C410.319 258.335 410.528 258.475 410.766 258.523C411.004 258.57 411.251 258.521 411.453 258.386C411.655 258.251 411.794 258.042 411.842 257.804C412.833 252.94 414.06 248.106 415.436 243.324C415.503 243.092 415.475 242.843 415.358 242.632C415.241 242.421 415.045 242.264 414.813 242.198C414.58 242.131 414.331 242.159 414.12 242.276C413.909 242.393 413.753 242.589 413.686 242.822Z" fill="black"/>
<path d="M407.886 272.399C407.467 277.445 407.51 282.518 408.015 287.555C408.041 287.801 408.164 288.026 408.356 288.181C408.548 288.336 408.794 288.409 409.04 288.383C409.285 288.356 409.51 288.234 409.666 288.042C409.821 287.849 409.893 287.603 409.867 287.358C409.359 282.426 409.31 277.458 409.72 272.517C409.739 272.273 409.661 272.031 409.502 271.845C409.343 271.658 409.117 271.543 408.873 271.523C408.629 271.504 408.387 271.582 408.2 271.741C408.014 271.9 407.898 272.126 407.878 272.37L407.886 272.399Z" fill="black"/>
<path d="M411.729 302.348C412.888 304.712 414.511 306.818 416.5 308.542C418.527 310.232 420.884 311.482 423.42 312.211C423.66 312.284 423.918 312.259 424.139 312.142C424.36 312.024 424.525 311.824 424.598 311.584C424.671 311.345 424.646 311.086 424.528 310.866C424.41 310.645 424.21 310.48 423.971 310.407C421.683 309.752 419.557 308.627 417.729 307.104C415.921 305.551 414.447 303.647 413.398 301.506C413.286 301.285 413.091 301.117 412.856 301.039C412.62 300.962 412.364 300.981 412.143 301.093C411.921 301.204 411.753 301.399 411.676 301.635C411.598 301.87 411.618 302.127 411.729 302.348Z" fill="black"/>
<path d="M438.729 312.664C443.716 311.805 448.614 310.488 453.36 308.731C453.581 308.636 453.758 308.459 453.854 308.238C453.951 308.017 453.959 307.768 453.879 307.54C453.798 307.313 453.634 307.125 453.419 307.015C453.205 306.904 452.956 306.879 452.724 306.945C448.088 308.669 443.305 309.972 438.435 310.837C438.193 310.882 437.978 311.019 437.836 311.22C437.694 311.421 437.637 311.67 437.677 311.913C437.716 312.156 437.849 312.374 438.047 312.519C438.246 312.665 438.493 312.727 438.737 312.693L438.729 312.664Z" fill="black"/>
<path d="M467.273 302.837L480.658 295.926C480.811 295.897 480.956 295.833 481.08 295.739C481.204 295.644 481.304 295.522 481.373 295.381C481.441 295.241 481.476 295.087 481.474 294.931C481.472 294.775 481.433 294.621 481.362 294.483C481.29 294.344 481.186 294.224 481.06 294.133C480.934 294.041 480.787 293.981 480.633 293.956C480.479 293.931 480.322 293.943 480.173 293.99C480.024 294.037 479.888 294.118 479.776 294.227L479.728 294.24L466.454 301.1L466.396 301.116C466.284 301.172 466.184 301.25 466.102 301.345C466.021 301.44 465.959 301.55 465.92 301.67C465.882 301.789 465.868 301.915 465.879 302.04C465.89 302.164 465.926 302.286 465.984 302.397C466.104 302.619 466.303 302.788 466.542 302.87C466.781 302.952 467.042 302.94 467.273 302.837Z" fill="black"/>
<path d="M493.663 288.421C495.822 287.168 497.958 285.91 500.122 284.676L506.693 281.036C506.911 280.906 507.073 280.698 507.144 280.454C507.215 280.21 507.19 279.948 507.075 279.722C506.945 279.503 506.737 279.342 506.493 279.271C506.249 279.2 505.987 279.224 505.76 279.34L499.207 282.965C497.033 284.202 494.863 285.489 492.705 286.784C492.553 286.94 492.456 287.142 492.429 287.358C492.402 287.575 492.446 287.794 492.556 287.983C492.665 288.172 492.833 288.32 493.035 288.404C493.236 288.488 493.459 288.505 493.671 288.45L493.663 288.421Z" fill="black"/>
<path d="M519.726 273.569L532.636 265.895C532.809 265.741 532.923 265.531 532.959 265.302C532.994 265.072 532.949 264.838 532.83 264.639C532.712 264.439 532.528 264.287 532.309 264.208C532.091 264.13 531.852 264.129 531.634 264.207L518.765 271.881C518.622 271.927 518.491 272.004 518.382 272.107C518.273 272.21 518.189 272.337 518.135 272.477C518.082 272.617 518.06 272.768 518.073 272.917C518.086 273.067 518.132 273.212 518.208 273.341C518.284 273.47 518.388 273.581 518.513 273.664C518.638 273.748 518.78 273.802 518.928 273.823C519.077 273.845 519.228 273.832 519.371 273.787C519.515 273.741 519.646 273.664 519.755 273.562L519.726 273.569Z" fill="black"/>
<path d="M545.452 258.095L558.243 250.245C558.465 250.105 558.623 249.882 558.682 249.626C558.741 249.37 558.697 249.1 558.559 248.877C558.419 248.657 558.198 248.501 557.944 248.441C557.69 248.382 557.423 248.424 557.2 248.559L544.431 256.412C544.255 256.568 544.139 256.78 544.104 257.011C544.069 257.243 544.116 257.48 544.238 257.681C544.36 257.881 544.548 258.032 544.77 258.108C544.992 258.184 545.234 258.179 545.452 258.095Z" fill="black"/>
<path d="M571.024 242.418L583.851 234.663C584.075 234.526 584.236 234.305 584.299 234.05C584.363 233.795 584.323 233.525 584.188 233.299C584.052 233.072 583.832 232.908 583.576 232.843C583.32 232.778 583.049 232.817 582.821 232.951L569.98 240.731C569.785 240.881 569.652 241.097 569.606 241.339C569.561 241.581 569.606 241.831 569.733 242.041C569.86 242.252 570.06 242.408 570.295 242.481C570.53 242.553 570.784 242.536 571.007 242.433L571.024 242.418Z" fill="black"/>
<path d="M596.757 227.056L609.784 219.661C609.968 219.512 610.093 219.303 610.137 219.071C610.181 218.839 610.141 218.599 610.025 218.393C609.909 218.187 609.724 218.029 609.503 217.947C609.281 217.865 609.038 217.864 608.816 217.944L595.75 225.349C595.623 225.405 595.509 225.488 595.415 225.591C595.321 225.694 595.25 225.815 595.206 225.948C595.163 226.08 595.147 226.219 595.16 226.358C595.173 226.497 595.215 226.631 595.283 226.752C595.351 226.874 595.444 226.98 595.555 227.063C595.667 227.147 595.794 227.206 595.93 227.237C596.066 227.269 596.206 227.271 596.343 227.245C596.48 227.219 596.61 227.165 596.724 227.086L596.757 227.056Z" fill="black"/>
<path d="M622.977 212.538L636.356 205.836C636.538 205.693 636.664 205.493 636.715 205.268C636.765 205.043 636.737 204.808 636.634 204.602C636.531 204.396 636.36 204.232 636.15 204.137C635.94 204.042 635.704 204.023 635.481 204.083L622.035 210.803C621.845 210.944 621.712 211.146 621.657 211.376C621.603 211.605 621.631 211.846 621.737 212.057C621.843 212.268 622.02 212.434 622.237 212.526C622.454 212.619 622.697 212.632 622.922 212.563L622.977 212.538Z" fill="black"/>
</svg>
