<svg width="56" height="56" viewBox="0 0 56 56" fill="none" xmlns="http://www.w3.org/2000/svg">
<path d="M33.5634 48.7675L48.6448 33.5972L43.0932 12.8263L28.0118 27.9966L33.5634 48.7675Z" fill="black"/>
<path d="M7.35393 22.4027L27.9869 28.0033L43.0683 12.833L22.4353 7.23239L7.35393 22.4027Z" fill="#F1EFED"/>
<path d="M7.35393 22.4027L12.9055 43.1735L33.5386 48.7742L27.9869 28.0033L7.35393 22.4027Z" fill="#F1EFED"/>
<path d="M7.35393 22.4027L12.9055 43.1735L33.5386 48.7742L27.9869 28.0033M7.35393 22.4027L27.9869 28.0033M7.35393 22.4027L22.4353 7.23239L43.0683 12.833L27.9869 28.0033M33.5634 48.7675L48.6448 33.5972L43.0932 12.8263L28.0118 27.9966L33.5634 48.7675Z" stroke="black" stroke-width="2" stroke-miterlimit="10" stroke-linecap="round" stroke-linejoin="round"/>
</svg>
