<svg width="56" height="56" viewBox="0 0 56 56" fill="none" xmlns="http://www.w3.org/2000/svg">
<path d="M43.3519 40.6095L43.3302 40.6473L43.3113 40.6865C42.5823 42.2004 41.4266 43.5321 39.8866 44.4849L37.9367 45.6914C36.3967 46.6442 34.6881 47.0847 33.0062 47.0622L32.9627 47.0616L32.9193 47.0642C29.9384 47.2424 27.4946 46.1749 26.2815 44.2181C26.1716 44.0406 26.0732 43.8588 25.9861 43.673L25.9331 43.5602L25.858 43.4607C25.6891 43.2372 25.5288 43.0038 25.378 42.7605L12.7533 22.396L30.2291 11.5832L42.8549 31.9495C43.0057 32.1927 43.1434 32.4401 43.2684 32.6907L43.3241 32.8022L43.4016 32.8999C43.5293 33.0605 43.6484 33.2295 43.7584 33.407L44.7698 32.78L43.7584 33.407C44.9713 35.3634 44.8391 38.0236 43.3519 40.6095Z" fill="black" stroke="black" stroke-width="2.38"/>
<path d="M11.7904 21.2867C11.0794 20.1243 11.1072 18.4179 12.1087 16.431C13.0984 14.4676 14.9612 12.4245 17.4975 10.8338C20.0341 9.24282 22.6668 8.46642 24.8361 8.44395C27.0285 8.42123 28.5373 9.15105 29.2447 10.3078C29.9557 11.4702 29.928 13.1766 28.9264 15.1635C27.9368 17.1269 26.0739 19.17 23.5377 20.7607C21.0011 22.3517 18.3683 23.1281 16.199 23.1506C14.0067 23.1733 12.4979 22.4435 11.7904 21.2867Z" fill="#F1EFED" stroke="black" stroke-width="2.38"/>
</svg>
