<svg width="375" height="223" viewBox="0 0 375 223" fill="none" xmlns="http://www.w3.org/2000/svg">
    <g clip-path="url(#clip0_31166_32156)">
        <path opacity="0.25" fill-rule="evenodd" clip-rule="evenodd" d="M510.414 222.734H337.557L355.413 198.642H510.414V222.734ZM302.793 144.875H337.344V128.278H301.943L302.793 144.875ZM324.194 94.0156H532.515V68.3175H324.194V94.0156ZM347.758 115.695H323.803V99.0986H347.758V115.695ZM377.515 144.875H532.515V120.783H377.515V144.875ZM31.3513 211.594H288.727V198.496H31.3513H28.3513V195.496V177.403V174.403H31.3513H291.727V180.403H34.3513V192.496H291.727H294.727V195.496V214.594V217.594H291.727H31.3513V211.594ZM311.968 157.398H487.312V163.398H311.968V157.398ZM532.515 35.3281H321.714V41.3281H532.515V35.3281ZM363.359 144.875V109.005V106.005H366.359H535V112.005H369.359V144.875H363.359ZM532.515 17.125H321.714V23.125H532.515V17.125ZM321.714 0H532.515V6H321.714V0ZM-742.524 46.4844H-757.004L-753.854 51.2554L-747.761 60.4844H-733.281L-742.524 46.4844ZM-723.727 46.4844H-738.207L-735.057 51.2554L-728.965 60.4844H-714.485L-723.727 46.4844ZM-721.227 219.935V177.109H-707.739L-691.041 194.015V219.935H-721.227ZM-678.024 160.633V170.836H-670.583V164.661L-674.699 160.633H-678.024ZM-666.328 170.836V160.633H-663.004L-658.888 164.661V170.836H-666.328ZM-654.641 160.633V170.836H-647.201V164.661L-651.317 160.633H-654.641ZM-694.005 165.736L-694.199 165.508V165.736H-727.031V164.125H-695.375L-679.393 145.329L-678.023 146.94L-694.005 165.736ZM-718.881 67.7054C-718.981 67.7011 -719.081 67.7029 -719.181 67.7106L-719.45 67.7312C-719.545 67.7386 -719.64 67.7514 -719.733 67.7696L-720.001 67.8221C-720.085 67.8385 -720.167 67.8593 -720.247 67.8842L-720.515 67.9681C-720.584 67.9896 -720.651 68.0142 -720.716 68.0417L-720.984 68.1563C-721.038 68.1794 -721.091 68.2045 -721.141 68.2316L-721.409 68.3757C-721.451 68.398 -721.491 68.4216 -721.53 68.4464L-721.798 68.6189C-721.83 68.6392 -721.86 68.6603 -721.889 68.6822L-722.158 68.8815C-722.182 68.8992 -722.205 68.9175 -722.227 68.9363L-722.496 69.1606C-722.514 69.1758 -722.532 69.1913 -722.549 69.2071L-722.817 69.4545C-722.831 69.4673 -722.845 69.4803 -722.858 69.4934L-723.126 69.7617L-723.138 69.7738L-723.157 69.7937L-723.426 70.0804L-723.435 70.0906L-723.449 70.1062L-723.718 70.4089L-723.735 70.4292L-724.004 70.7451L-724.016 70.7604L-724.285 71.0867L-724.293 71.0974L-724.562 71.4312L-724.567 71.4376L-724.837 71.7782L-725.367 72.4486L-725.372 72.4548L-725.632 72.7775L-725.889 73.0914L-726.143 73.3902L-726.391 73.6705L-726.633 73.9292L-726.866 74.1631L-727.088 74.3688L-727.296 74.5436L-727.486 74.6849L-727.65 74.7913L-727.782 74.8628L-727.874 74.9025L-727.896 74.9094L-727.969 74.8811L-728.086 74.8221L-728.239 74.729L-728.42 74.6007L-728.622 74.4383L-728.839 74.2438L-729.069 74.0202L-729.308 73.7704L-729.553 73.4977L-729.805 73.2056L-730.061 72.897L-730.322 72.5751L-730.584 72.2454L-730.587 72.2419L-731.121 71.5656L-731.394 71.2249L-731.401 71.2159L-731.669 70.8864L-731.68 70.8729L-731.949 70.5527L-731.965 70.5344L-732.233 70.2264L-732.246 70.2115L-732.254 70.2027L-732.522 69.9097L-732.536 69.8953L-732.55 69.8801L-732.819 69.6046L-732.839 69.5848L-732.855 69.5684L-733.124 69.3129C-733.134 69.3037 -733.143 69.2946 -733.154 69.2855L-733.172 69.2693L-733.44 69.0361C-733.46 69.0185 -733.481 69.0013 -733.503 68.9845L-733.771 68.7755C-733.798 68.7549 -733.825 68.7348 -733.854 68.7154L-734.122 68.5327C-734.157 68.509 -734.193 68.4862 -734.231 68.4646L-734.499 68.3096C-734.545 68.2833 -734.592 68.2585 -734.642 68.2355L-734.91 68.1097C-734.969 68.0821 -735.03 68.057 -735.093 68.0345L-735.362 67.939C-735.436 67.9127 -735.512 67.89 -735.591 67.8712L-735.859 67.8068C-735.947 67.7856 -736.038 67.7693 -736.13 67.7581L-736.398 67.7255C-736.496 67.7135 -736.596 67.7074 -736.695 67.7071L-736.964 67.7065C-737.064 67.7062 -737.163 67.7119 -737.262 67.7233L-737.53 67.7547C-737.622 67.7655 -737.713 67.7814 -737.802 67.8022L-738.071 67.8653C-738.15 67.8839 -738.227 67.9063 -738.302 67.9325L-738.57 68.0267C-738.634 68.0492 -738.696 68.0742 -738.755 68.1019L-739.024 68.2264C-739.073 68.2494 -739.121 68.2742 -739.167 68.3007L-739.436 68.4544C-739.474 68.4762 -739.51 68.499 -739.546 68.5228L-739.814 68.7045C-739.843 68.7239 -739.871 68.7441 -739.898 68.7649L-740.166 68.9728C-740.188 68.9897 -740.209 69.007 -740.23 69.0247L-740.498 69.257C-740.515 69.2714 -740.531 69.286 -740.546 69.3009L-740.815 69.5555L-740.828 69.5686L-740.837 69.5776L-740.852 69.592L-741.12 69.8667L-741.135 69.8816L-741.149 69.8966L-741.417 70.1889L-741.425 70.1981L-741.438 70.2128L-741.707 70.5202L-741.723 70.5388L-741.991 70.8585L-742.002 70.8722L-742.271 71.2014L-742.278 71.2106L-742.547 71.5463L-743.085 72.2278L-743.088 72.2311L-743.351 72.5615L-743.611 72.8836L-743.868 73.1928L-744.119 73.4858L-744.366 73.7593L-744.605 74.0101L-744.835 74.2349L-745.053 74.4307L-745.255 74.5945L-745.437 74.7243L-745.591 74.8189L-745.711 74.8793L-745.787 74.9095L-745.806 74.9036L-745.897 74.8651L-746.027 74.795L-746.19 74.6901L-746.379 74.5503L-746.586 74.3769L-746.808 74.1723L-747.041 73.9396L-747.282 73.6819L-747.53 73.4024L-747.783 73.1043L-748.041 72.791L-748.302 72.4657L-749.105 71.452L-749.378 71.1117L-749.387 71.1012L-749.655 70.7745L-749.668 70.7594L-749.936 70.443L-749.954 70.4229L-750.222 70.1197L-750.23 70.1109L-750.245 70.0941L-750.514 69.8066C-750.524 69.796 -750.534 69.7854 -750.544 69.7749L-750.813 69.5058C-750.826 69.4928 -750.839 69.4799 -750.853 69.4672L-751.121 69.2189C-751.138 69.2032 -751.156 69.1878 -751.174 69.1727L-751.442 68.9474C-751.464 68.9288 -751.487 68.9106 -751.511 68.8929L-751.779 68.6925C-751.808 68.6708 -751.838 68.6499 -751.87 68.6297L-752.138 68.456C-752.176 68.4313 -752.216 68.4078 -752.257 68.3856L-752.525 68.2402C-752.575 68.2132 -752.627 68.1881 -752.681 68.165L-752.949 68.0492C-753.013 68.0216 -753.079 67.997 -753.147 67.9753L-753.416 67.8901C-753.495 67.865 -753.576 67.844 -753.66 67.8273L-753.928 67.7734C-754.02 67.7549 -754.115 67.7416 -754.21 67.7338L-754.478 67.7118C-754.578 67.7036 -754.679 67.7014 -754.779 67.7051L-755.047 67.7151C-755.145 67.7188 -755.243 67.7281 -755.339 67.7431L-755.607 67.7851C-756.566 67.9349 -757.171 68.6027 -756.957 69.2766C-756.744 69.9504 -755.794 70.3753 -754.835 70.2254L-754.745 70.2113L-754.714 70.221L-754.622 70.2608L-754.49 70.3323L-754.326 70.4386L-754.136 70.5799L-753.928 70.7547L-753.706 70.9605L-753.473 71.1943L-753.231 71.453L-752.983 71.7334L-752.729 72.0322L-752.471 72.346L-752.21 72.6718L-751.407 73.686L-751.402 73.6923L-751.133 74.0262L-751.125 74.0368L-750.856 74.3632L-750.844 74.3785L-750.575 74.6944L-750.557 74.7147L-750.289 75.0173C-750.281 75.026 -750.274 75.0346 -750.266 75.0432L-749.997 75.3299C-749.987 75.3407 -749.977 75.3513 -749.966 75.3619L-749.698 75.6301C-749.685 75.6433 -749.671 75.6562 -749.657 75.669L-749.389 75.9164C-749.372 75.9322 -749.354 75.9477 -749.336 75.9629L-749.067 76.1873C-749.045 76.206 -749.022 76.2243 -748.998 76.2421L-748.729 76.4414C-748.7 76.4632 -748.67 76.4843 -748.638 76.5046L-748.37 76.6771C-748.331 76.7019 -748.291 76.7255 -748.249 76.7478L-747.981 76.892C-747.931 76.919 -747.878 76.9441 -747.824 76.9673L-747.556 77.0818C-747.491 77.1093 -747.424 77.1339 -747.355 77.1554L-747.087 77.2393C-747.007 77.2642 -746.925 77.285 -746.841 77.3014L-746.573 77.3539C-746.48 77.3721 -746.385 77.3849 -746.29 77.3923L-746.021 77.413C-745.921 77.4207 -745.821 77.4224 -745.721 77.4182L-745.452 77.4068C-745.354 77.4026 -745.257 77.3928 -745.161 77.3774L-744.893 77.3341C-744.805 77.3199 -744.719 77.3011 -744.635 77.2777L-744.366 77.2029C-744.293 77.1824 -744.222 77.1585 -744.153 77.1314L-743.884 77.0257C-743.826 77.0027 -743.77 76.9775 -743.715 76.9501L-743.447 76.8144C-743.402 76.7917 -743.359 76.7675 -743.317 76.7419L-743.049 76.5775C-743.014 76.5566 -742.981 76.5347 -742.949 76.512L-742.681 76.3203C-742.655 76.3018 -742.63 76.2827 -742.606 76.263L-742.337 76.0458L-742.316 76.0284C-742.304 76.0181 -742.292 76.0075 -742.28 75.9969L-742.012 75.756C-742.004 75.7491 -741.996 75.7422 -741.989 75.7352C-741.982 75.7285 -741.975 75.7218 -741.968 75.715L-741.699 75.4525C-741.688 75.4414 -741.677 75.4301 -741.666 75.4186L-741.397 75.137L-741.387 75.1264L-741.372 75.1095L-741.104 74.8112C-741.097 74.8039 -741.091 74.7966 -741.084 74.7893L-740.816 74.477L-740.802 74.4603L-740.533 74.1367L-740.524 74.1247L-740.255 73.7927L-740.249 73.7851L-739.981 73.4477L-739.978 73.4444L-739.446 72.7709L-739.442 72.766L-739.181 72.4397L-738.922 72.1222L-738.667 71.8186L-738.417 71.5325L-738.174 71.2672L-737.938 71.0258L-737.712 70.8115L-737.499 70.6274L-737.304 70.4762L-737.132 70.3596L-736.989 70.2781L-736.885 70.2296L-736.842 70.2144L-736.795 70.2311L-736.689 70.2809L-736.545 70.3638L-736.372 70.4819L-736.175 70.6346L-735.962 70.82L-735.736 71.0354L-735.499 71.2779L-735.256 71.5443L-735.006 71.8311L-734.75 72.1353L-734.491 72.4534L-734.23 72.7802L-734.227 72.7849L-733.694 73.4588L-733.691 73.4623L-733.423 73.7995L-733.417 73.8073L-733.148 74.139L-733.138 74.1512L-732.87 74.4743L-732.855 74.4912L-732.587 74.803C-732.581 74.8104 -732.574 74.8178 -732.568 74.8251L-732.299 75.1228L-732.286 75.1369L-732.273 75.1506L-732.005 75.4314C-731.994 75.4429 -731.983 75.4544 -731.971 75.4656L-731.703 75.7272L-731.683 75.7458L-731.674 75.7543L-731.658 75.7685L-731.39 76.0085L-731.371 76.0247C-731.359 76.0359 -731.345 76.0469 -731.332 76.0577L-731.064 76.2739C-731.039 76.2937 -731.014 76.3129 -730.987 76.3315L-730.719 76.5221C-730.687 76.545 -730.653 76.5669 -730.619 76.588L-730.35 76.7512C-730.308 76.7769 -730.264 76.8011 -730.219 76.8239L-729.95 76.9583C-729.895 76.9858 -729.838 77.011 -729.78 77.0339L-729.511 77.1384C-729.442 77.1654 -729.37 77.1891 -729.296 77.2094L-729.027 77.2829C-728.943 77.3061 -728.856 77.3246 -728.767 77.3384L-728.499 77.3804C-728.403 77.3954 -728.305 77.4048 -728.207 77.4084L-727.939 77.4184C-727.839 77.4222 -727.738 77.4199 -727.638 77.4118L-727.37 77.3897C-727.275 77.3819 -727.18 77.3687 -727.088 77.3501L-726.82 77.2963C-726.736 77.2795 -726.655 77.2586 -726.576 77.2335L-726.307 77.1483C-726.239 77.1266 -726.173 77.1019 -726.109 77.0744L-725.841 76.9585C-725.787 76.9354 -725.735 76.9103 -725.685 76.8834L-725.417 76.738C-725.376 76.7157 -725.336 76.6922 -725.298 76.6675L-725.03 76.4939C-724.999 76.4737 -724.968 76.4527 -724.939 76.431L-724.671 76.2306C-724.66 76.2227 -724.65 76.2147 -724.64 76.2066C-724.627 76.1966 -724.614 76.1865 -724.602 76.1762L-724.334 75.9508C-724.322 75.9414 -724.311 75.9318 -724.301 75.9222L-724.281 75.9046L-724.013 75.6563L-723.999 75.6436C-723.99 75.635 -723.981 75.6264 -723.973 75.6177L-723.704 75.3486C-723.694 75.3382 -723.684 75.3276 -723.674 75.3169L-723.405 75.0295L-723.393 75.0161L-723.382 75.0039L-723.114 74.7006L-723.105 74.6908L-723.096 74.6805L-722.828 74.3641L-722.815 74.349L-722.547 74.0223L-722.538 74.0118L-722.27 73.6777L-721.727 72.991L-721.465 72.661L-721.46 72.6547L-721.201 72.3324L-720.943 72.0193L-720.69 71.7211L-720.442 71.4417L-720.201 71.1839L-719.968 70.9512L-719.746 70.7467L-719.539 70.5732L-719.35 70.4334L-719.187 70.3286L-719.057 70.2585L-718.966 70.2199L-718.948 70.214L-718.871 70.2442L-718.751 70.3047L-718.597 70.3992L-718.415 70.529L-718.213 70.6929L-717.995 70.8886L-717.765 71.1135L-717.526 71.3642L-717.28 71.6377L-717.028 71.9307L-716.771 72.24L-716.511 72.5622L-716.248 72.8924L-716.245 72.8957L-715.711 73.5723L-715.707 73.5773L-715.438 73.913L-715.431 73.9222L-715.162 74.2514L-715.151 74.2651L-714.883 74.5848L-714.874 74.5953L-714.867 74.6033L-714.598 74.9107L-714.588 74.9223L-714.577 74.9346L-714.309 75.227L-714.294 75.2428L-714.28 75.2568L-714.012 75.5315L-713.997 75.5463L-713.986 75.5575L-713.975 75.568L-713.706 75.8226C-713.122 76.3773 -712.008 76.4938 -711.219 76.0828C-710.43 75.6718 -710.264 74.889 -710.848 74.3344L-711.098 74.0978L-711.334 73.8564L-711.577 73.591L-711.827 73.3049L-712.082 73.0015L-712.341 72.6837L-712.602 72.3576L-712.606 72.3526L-713.138 71.6792L-713.409 71.3384L-713.415 71.3308L-713.684 70.9988L-713.693 70.9868L-713.962 70.6633L-713.976 70.6465L-714.244 70.3342C-714.251 70.3269 -714.257 70.3196 -714.264 70.3124L-714.532 70.0141L-714.543 70.0023L-714.558 69.9865L-714.826 69.7049C-714.837 69.6935 -714.848 69.6822 -714.859 69.671L-715.128 69.4086C-715.135 69.4011 -715.143 69.3936 -715.151 69.3863L-715.172 69.3675L-715.44 69.1266L-715.461 69.1082L-715.483 69.0899L-715.497 69.0778L-715.766 68.8605C-715.79 68.8409 -715.815 68.8218 -715.841 68.8032L-716.11 68.6115C-716.127 68.5988 -716.146 68.5863 -716.164 68.5741C-716.179 68.5645 -716.194 68.5552 -716.209 68.546L-716.477 68.3816C-716.519 68.356 -716.562 68.3318 -716.607 68.3091L-716.876 68.1735C-716.93 68.1461 -716.986 68.1208 -717.044 68.0979L-717.313 67.9921C-717.382 67.965 -717.453 67.9411 -717.526 67.9207L-717.795 67.8458C-717.879 67.8225 -717.965 67.8036 -718.053 67.7894L-718.321 67.7461C-718.417 67.7307 -718.514 67.7209 -718.612 67.7167L-718.881 67.7054ZM-744.586 100.611V150.484H-736.72L-721.228 131.219V100.611H-744.586ZM-747.281 163.5L-735.955 174.25V228.055H-731.704V171.86L-744.611 159.609L-747.281 163.5ZM-324.633 206.77V200.384H-678.024V186.663H-324.633V180.746H-678.024V177.109H-321.217V190.299H-674.607V196.747H-321.217V210.406H-674.607V217.977H-549.951V221.614H-678.024V206.77H-324.633ZM-696.126 83.941V89.8583H-656.5V103.579H-708.896V99.9426H-659.916V93.4946H-699.542V80.3047H-668.405V83.941H-696.126ZM9.42383 98.4844H-6.75378L-3.2348 92.2701L3.57239 80.2493H19.75L9.42383 98.4844ZM-216.197 211.984H-200.019L-187.992 196.749H-204.17L-216.197 211.984ZM-178.292 211.984H-194.47L-182.443 196.749H-166.266L-178.292 211.984ZM-172.736 211.984H-156.558L-144.531 196.749H-160.709L-172.736 211.984ZM-134.824 211.984H-151.001L-138.974 196.749H-122.797L-134.824 211.984ZM-129.267 211.984H-113.089L-101.062 196.749H-117.24L-129.267 211.984ZM-69.125 211.984H-107.533L-95.5063 196.749H-69.125V211.984ZM-11.5684 98.4844H-27.746L-24.227 92.2701L-17.4198 80.2493H-1.24219L-11.5684 98.4844ZM-60.0526 189.563H-43.875V177.405H-60.0526V185.419V189.563ZM-59.6328 154.313V111.487H-29.4531V111.484H11.4573V115.308H-29.4468V137.407L-46.1454 154.313H-59.6328ZM-57.9375 164.695H-12.9882V166.307H-57.9375V164.695ZM-70.9041 216.195H-217.891V217.807H-70.9041V216.195ZM-222.148 220.813H-70.9103V222.424H-222.148V220.813ZM-70.91 225.422H-227.25V227.033H-70.91V225.422ZM-6.72003 213.007C-6.62024 213 -6.51965 212.998 -6.41943 213.002L-6.151 213.014C-6.0531 213.018 -5.95575 213.028 -5.86011 213.043L-5.59174 213.086C-5.50378 213.101 -5.4176 213.119 -5.33374 213.143L-5.06531 213.218C-5.03693 213.226 -5.00885 213.234 -4.98114 213.243C-4.96021 213.25 -4.93939 213.257 -4.91882 213.264C-4.90802 213.268 -4.89722 213.272 -4.88647 213.276C-4.87482 213.28 -4.86322 213.285 -4.85168 213.289L-4.58325 213.395C-4.55682 213.405 -4.53076 213.416 -4.50513 213.427C-4.47424 213.441 -4.44403 213.455 -4.41437 213.47L-4.146 213.606C-4.10101 213.629 -4.05756 213.653 -4.01587 213.679L-3.74744 213.843C-3.73608 213.85 -3.72485 213.857 -3.71375 213.864C-3.69141 213.878 -3.66962 213.893 -3.64832 213.908L-3.37994 214.1C-3.3678 214.109 -3.35583 214.118 -3.34406 214.127C-3.33069 214.137 -3.3175 214.147 -3.30463 214.157L-3.03619 214.375L-3.01404 214.393L-3.00073 214.404C-2.99335 214.411 -2.98608 214.417 -2.97888 214.424L-2.71045 214.664C-2.69543 214.678 -2.68085 214.692 -2.66663 214.705L-2.39825 214.968C-2.38684 214.979 -2.37561 214.99 -2.36475 215.002L-2.09631 215.283L-2.08588 215.295L-2.0708 215.311L-1.80237 215.609L-1.79871 215.613L-1.7832 215.631L-1.51477 215.943L-1.50067 215.96L-1.2323 216.284L-1.22241 216.296L-0.954041 216.628L-0.947998 216.635L-0.67688 216.976L-0.144653 217.65L-0.140747 217.654L0.120056 217.981L0.37915 218.298L0.633911 218.602L0.883728 218.888L1.12738 219.153L1.36328 219.395L1.61267 219.631C2.19739 220.186 2.03162 220.969 1.24243 221.38C0.453247 221.791 -0.660522 221.674 -1.24524 221.12L-1.51367 220.865L-1.53217 220.847C-1.53845 220.841 -1.54462 220.835 -1.55072 220.828L-1.81909 220.554L-1.83264 220.54L-1.84741 220.524L-2.11578 220.232L-2.12695 220.219L-2.13721 220.208L-2.40564 219.9L-2.4126 219.892L-2.42157 219.882L-2.68994 219.562L-2.70129 219.548L-2.96973 219.219L-2.97717 219.21L-3.24554 218.874L-3.24945 218.869L-3.78418 218.193L-3.78687 218.189L-4.04956 217.859L-4.31 217.537L-4.56653 217.228L-4.81836 216.935L-5.06445 216.661L-5.30347 216.41L-5.53345 216.186L-5.75153 215.99L-5.95398 215.826L-6.13568 215.696L-6.29004 215.602L-6.40961 215.541L-6.48633 215.511L-6.50525 215.517L-6.59558 215.555L-6.72607 215.625L-6.88916 215.73L-7.07751 215.87L-7.28497 216.044L-7.50684 216.248L-7.73969 216.481L-7.98096 216.739L-8.22882 217.018L-8.48218 217.316L-8.73969 217.629L-8.99884 217.952L-9.00391 217.958L-9.2655 218.288L-9.80878 218.975L-10.0772 219.309L-10.0857 219.319L-10.3541 219.646L-10.3667 219.661L-10.6351 219.977L-10.6439 219.988L-10.6525 219.998L-10.921 220.301C-10.9286 220.309 -10.9363 220.318 -10.9442 220.326L-11.2126 220.614C-11.2226 220.625 -11.2328 220.635 -11.2432 220.646L-11.5116 220.915C-11.5247 220.928 -11.538 220.941 -11.5517 220.953L-11.8201 221.202L-11.8316 221.212L-11.8454 221.224C-11.8543 221.232 -11.8633 221.24 -11.8726 221.248L-12.1409 221.473L-12.1584 221.488L-12.1667 221.494C-12.1808 221.506 -12.1951 221.517 -12.2097 221.528L-12.4781 221.728C-12.5072 221.75 -12.5374 221.771 -12.5685 221.791L-12.8369 221.964C-12.854 221.976 -12.8714 221.986 -12.8891 221.997C-12.9109 222.01 -12.9332 222.023 -12.9558 222.035L-13.2242 222.18C-13.274 222.207 -13.3258 222.232 -13.3794 222.255L-13.6478 222.371C-13.7116 222.399 -13.7778 222.424 -13.8461 222.445L-14.1145 222.53C-14.1935 222.555 -14.275 222.576 -14.3584 222.593L-14.6268 222.647C-14.6758 222.657 -14.7254 222.665 -14.7754 222.672C-14.8046 222.676 -14.834 222.68 -14.8635 222.682C-14.8785 222.684 -14.8937 222.685 -14.9088 222.687L-15.1772 222.709C-15.2769 222.717 -15.3774 222.719 -15.4777 222.715L-15.746 222.705C-15.8159 222.703 -15.8854 222.697 -15.9543 222.689C-15.9822 222.686 -16.0101 222.682 -16.0379 222.677L-16.3063 222.635C-16.3483 222.629 -16.3899 222.621 -16.4311 222.612C-16.4579 222.607 -16.4846 222.601 -16.5111 222.594C-16.5295 222.59 -16.5479 222.585 -16.566 222.58L-16.8344 222.506C-16.9084 222.486 -16.9805 222.462 -17.05 222.435L-17.3184 222.331C-17.3459 222.32 -17.3729 222.309 -17.3995 222.297C-17.43 222.284 -17.4598 222.27 -17.4891 222.255L-17.7574 222.121C-17.803 222.098 -17.8469 222.074 -17.8891 222.048L-18.1575 221.885C-18.1921 221.864 -18.2256 221.842 -18.2578 221.819L-18.5261 221.628C-18.5406 221.618 -18.5548 221.608 -18.5687 221.597C-18.5801 221.589 -18.5913 221.58 -18.6024 221.571L-18.8707 221.355C-18.8907 221.339 -18.91 221.322 -18.9288 221.305L-19.1971 221.065C-19.2123 221.052 -19.2271 221.038 -19.2415 221.024L-19.5099 220.763C-19.5215 220.751 -19.5328 220.74 -19.5438 220.728L-19.8122 220.447C-19.821 220.438 -19.8296 220.429 -19.838 220.42L-20.1064 220.122L-20.1183 220.109L-20.1259 220.1L-20.3943 219.788L-20.4086 219.771L-20.677 219.448L-20.687 219.436L-20.9554 219.104L-20.9616 219.096L-21.23 218.759L-21.2328 218.756L-21.7654 218.082L-21.7692 218.077L-22.0302 217.75L-22.2893 217.432L-22.5444 217.128L-22.7944 216.841L-23.0383 216.575L-23.2746 216.332L-23.5009 216.117L-23.7142 215.932L-23.9104 215.779L-24.0839 215.661L-24.2275 215.578L-24.3337 215.528L-24.3805 215.511L-24.4238 215.527L-24.5283 215.575L-24.6705 215.657L-24.8428 215.773L-25.0381 215.924L-25.2509 216.108L-25.4767 216.323L-25.7126 216.564L-25.9562 216.829L-26.2061 217.116L-26.4609 217.419L-26.7198 217.737L-26.9807 218.063L-26.9846 218.068L-27.5168 218.741L-27.5195 218.745L-27.788 219.082L-27.794 219.09L-28.0624 219.422L-28.0722 219.434L-28.3406 219.757L-28.3547 219.774L-28.6232 220.086L-28.6309 220.095L-28.6423 220.108L-28.9108 220.406C-28.9191 220.416 -28.9276 220.425 -28.9363 220.434L-29.2047 220.716C-29.2156 220.727 -29.2268 220.738 -29.2382 220.749L-29.5066 221.012L-29.5275 221.032C-29.535 221.039 -29.5427 221.046 -29.5504 221.053L-29.8188 221.294C-29.8373 221.31 -29.8564 221.327 -29.8762 221.343L-30.1446 221.56C-30.1688 221.58 -30.194 221.599 -30.2199 221.617L-30.4883 221.809C-30.5023 221.819 -30.5165 221.829 -30.5309 221.838C-30.5494 221.851 -30.5682 221.863 -30.5874 221.874L-30.8558 222.039C-30.8976 222.064 -30.941 222.089 -30.9859 222.111L-31.2543 222.247C-31.2685 222.254 -31.2828 222.261 -31.2972 222.268C-31.3096 222.274 -31.322 222.28 -31.3345 222.285C-31.3636 222.298 -31.3932 222.311 -31.4232 222.323L-31.6917 222.428C-31.7605 222.455 -31.8318 222.479 -31.9053 222.5L-32.1736 222.575C-32.2205 222.588 -32.2681 222.599 -32.3163 222.61C-32.3544 222.618 -32.3929 222.625 -32.4317 222.631L-32.7001 222.674C-32.7592 222.684 -32.819 222.691 -32.8792 222.696C-32.9163 222.7 -32.9536 222.702 -32.991 222.704L-33.2594 222.715C-33.3119 222.717 -33.3645 222.718 -33.4171 222.717C-33.4648 222.716 -33.5125 222.714 -33.56 222.71L-33.8284 222.689C-33.8924 222.684 -33.956 222.677 -34.0189 222.667C-34.05 222.662 -34.0809 222.657 -34.1116 222.651L-34.3801 222.598C-34.464 222.582 -34.5461 222.561 -34.6258 222.536L-34.8942 222.452C-34.9631 222.431 -35.03 222.406 -35.0945 222.379L-35.3629 222.264C-35.3842 222.255 -35.4053 222.246 -35.4262 222.236C-35.449 222.225 -35.4714 222.214 -35.4934 222.203L-35.5197 222.189L-35.7881 222.045C-35.8136 222.031 -35.8386 222.017 -35.863 222.002L-35.8912 221.985L-35.9084 221.974L-36.1768 221.802C-36.1899 221.793 -36.2029 221.785 -36.2156 221.776C-36.2244 221.77 -36.2331 221.764 -36.2416 221.758C-36.2506 221.751 -36.2595 221.745 -36.2683 221.738L-36.5367 221.539C-36.5607 221.521 -36.5838 221.503 -36.6063 221.484L-36.8746 221.26L-36.8961 221.242C-36.9068 221.232 -36.9174 221.223 -36.9277 221.213L-37.196 220.966C-37.2036 220.959 -37.2109 220.952 -37.2183 220.945L-37.2366 220.927L-37.505 220.659C-37.5156 220.648 -37.5259 220.638 -37.536 220.627L-37.8044 220.34L-37.8138 220.33L-37.8279 220.314L-38.0963 220.012L-38.114 219.991L-38.3823 219.675L-38.3951 219.66L-38.6635 219.334L-38.6722 219.323L-38.9406 218.989L-38.9457 218.983L-39.7486 217.969L-40.0103 217.643L-40.2681 217.329L-40.5216 217.03L-40.7698 216.75L-41.0114 216.491L-41.2446 216.257L-41.467 216.052L-41.6751 215.877L-41.8644 215.736L-42.0287 215.629L-42.1607 215.558L-42.2529 215.518L-42.2836 215.508L-42.3743 215.522C-43.333 215.672 -44.2831 215.247 -44.4963 214.573C-44.7095 213.9 -44.105 213.232 -43.1462 213.082L-42.8778 213.04C-42.7819 213.025 -42.6842 213.016 -42.586 213.012L-42.3176 213.002C-42.2174 212.998 -42.1169 213.001 -42.0172 213.009L-41.7488 213.031C-41.6534 213.039 -41.5591 213.052 -41.4668 213.07L-41.1984 213.124C-41.115 213.141 -41.0335 213.162 -40.9545 213.187L-40.6861 213.272C-40.6469 213.285 -40.6083 213.298 -40.5704 213.313C-40.5425 213.323 -40.5149 213.334 -40.4877 213.346L-40.2194 213.462C-40.1995 213.47 -40.1799 213.479 -40.1606 213.488C-40.1277 213.504 -40.0956 213.52 -40.0642 213.537L-39.7958 213.682C-39.7747 213.694 -39.7538 213.706 -39.7334 213.718C-39.7238 213.724 -39.7144 213.729 -39.705 213.735C-39.6955 213.741 -39.6862 213.747 -39.6769 213.753L-39.4085 213.927L-39.3882 213.94C-39.3785 213.946 -39.3688 213.953 -39.3592 213.96L-39.3394 213.974L-39.3181 213.989L-39.0497 214.19C-39.026 214.208 -39.0031 214.226 -38.9809 214.244L-38.7125 214.47C-38.7031 214.478 -38.6938 214.486 -38.6848 214.494L-38.6759 214.501L-38.6601 214.516L-38.3917 214.764L-38.3711 214.784L-38.3516 214.803L-38.0832 215.072L-38.0668 215.089L-38.0526 215.104L-37.7842 215.391C-37.7762 215.399 -37.7686 215.408 -37.7609 215.417L-37.4925 215.72L-37.4751 215.74L-37.2067 216.056L-37.1941 216.071L-36.9257 216.398L-36.9172 216.409L-36.6439 216.749L-35.8413 217.763L-35.5798 218.088L-35.3221 218.401L-35.0688 218.699L-34.8209 218.979L-34.5797 219.237L-34.3468 219.469L-34.1249 219.674L-33.9175 219.847L-33.7291 219.987L-33.566 220.092L-33.4355 220.162L-33.3452 220.201L-33.3263 220.206L-33.2495 220.176L-33.13 220.116L-32.9756 220.021L-32.7939 219.891L-32.5915 219.728L-32.3734 219.532L-32.1434 219.307L-31.9044 219.056L-31.6583 218.783L-31.4065 218.49L-31.15 218.181L-30.8896 217.858L-30.6268 217.528L-30.6241 217.525L-30.0855 216.843L-29.8171 216.507L-29.8097 216.498L-29.5413 216.169L-29.5299 216.155L-29.2615 215.836L-29.2456 215.817L-28.9772 215.51C-28.9702 215.502 -28.963 215.494 -28.9557 215.486L-28.6874 215.193C-28.6781 215.183 -28.6687 215.173 -28.6591 215.164L-28.3906 214.889C-28.3786 214.877 -28.3663 214.864 -28.3536 214.852L-28.0852 214.598C-28.0756 214.589 -28.0657 214.58 -28.0557 214.571L-28.0367 214.554L-27.7683 214.322C-27.7479 214.304 -27.7267 214.287 -27.7048 214.27L-27.4364 214.062C-27.4095 214.041 -27.3817 214.021 -27.3529 214.001L-27.0845 213.82C-27.0493 213.796 -27.0126 213.773 -26.9747 213.751L-26.7063 213.598C-26.6795 213.582 -26.652 213.567 -26.624 213.553C-26.6038 213.543 -26.5833 213.533 -26.5625 213.523L-26.2941 213.399C-26.2346 213.371 -26.1727 213.346 -26.1089 213.324L-25.8405 213.229C-25.7659 213.203 -25.6887 213.181 -25.6096 213.162L-25.3412 213.099C-25.2523 213.078 -25.1613 213.062 -25.0688 213.052L-24.8004 213.02C-24.702 213.009 -24.6024 213.003 -24.5027 213.003L-24.2343 213.004C-24.1346 213.004 -24.0353 213.01 -23.9371 213.022L-23.6688 213.055C-23.5768 213.066 -23.4862 213.083 -23.3979 213.104L-23.1295 213.168C-23.051 213.187 -22.9745 213.21 -22.9005 213.236L-22.6321 213.331C-22.6112 213.339 -22.5905 213.347 -22.5701 213.355C-22.5287 213.371 -22.4882 213.388 -22.4488 213.407L-22.1804 213.532C-22.1312 213.555 -22.0837 213.58 -22.0381 213.607L-21.7698 213.761C-21.7322 213.783 -21.696 213.806 -21.6612 213.83L-21.3928 214.012L-21.3745 214.025L-21.3585 214.036C-21.342 214.048 -21.326 214.06 -21.3102 214.072L-21.0419 214.281L-21.0278 214.292L-21.0079 214.309L-21.0001 214.315L-20.9791 214.333L-20.7107 214.566C-20.6942 214.581 -20.6782 214.595 -20.6627 214.61L-20.3943 214.865L-20.3771 214.882C-20.3705 214.888 -20.3641 214.895 -20.3577 214.902L-20.0893 215.177L-20.0767 215.19L-20.0613 215.207L-19.7929 215.5L-19.7817 215.512L-19.7717 215.523L-19.5034 215.831L-19.4876 215.85L-19.2192 216.17L-19.2081 216.183L-18.9396 216.513L-18.9324 216.522L-18.6602 216.863L-18.1257 217.539L-18.1229 217.542L-17.8605 217.872L-17.6001 218.194L-17.3438 218.502L-17.0923 218.795L-16.8464 219.067L-16.6077 219.317L-16.3782 219.541L-16.1606 219.735L-15.959 219.898L-15.7783 220.026L-15.6252 220.119L-15.5073 220.178L-15.4346 220.206L-15.4129 220.199L-15.3208 220.16L-15.1888 220.088L-15.0244 219.982L-14.8352 219.841L-14.627 219.666L-14.4046 219.46L-14.1714 219.226L-13.9298 218.967L-13.6817 218.687L-13.4282 218.388L-13.1703 218.074L-12.9111 217.752L-12.9061 217.746L-12.3758 217.075L-12.1057 216.734L-12.1006 216.728L-11.8323 216.394L-11.8236 216.384L-11.5552 216.057L-11.5424 216.042L-11.274 215.726L-11.2563 215.706L-10.988 215.403C-10.9802 215.394 -10.9724 215.386 -10.9644 215.377L-10.696 215.091L-10.6842 215.078L-10.665 215.059L-10.3966 214.79C-10.3835 214.777 -10.37 214.764 -10.3561 214.751L-10.0877 214.504L-10.0735 214.491C-10.0609 214.48 -10.0479 214.469 -10.0347 214.458L-9.76624 214.233C-9.74384 214.214 -9.72064 214.196 -9.69672 214.178L-9.42834 213.979C-9.39893 213.957 -9.36841 213.936 -9.33679 213.916L-9.06842 213.743L-9.04675 213.73C-9.03851 213.724 -9.03015 213.719 -9.02173 213.714C-8.99774 213.7 -8.97314 213.686 -8.94812 213.673L-8.67975 213.528C-8.64581 213.51 -8.61096 213.493 -8.57526 213.476C-8.55798 213.469 -8.54053 213.461 -8.52289 213.453L-8.25452 213.339L-8.23718 213.331L-8.21252 213.321C-8.19604 213.315 -8.17944 213.308 -8.16266 213.302C-8.12714 213.289 -8.09094 213.277 -8.0542 213.265L-7.78583 213.181C-7.70618 213.156 -7.62402 213.135 -7.5401 213.119L-7.27167 213.067C-7.17889 213.048 -7.08417 213.036 -6.9884 213.028L-6.72003 213.007ZM-54.27 223.734C-51.5111 223.734 -49.2745 221.104 -49.2745 217.859C-49.2745 214.615 -51.5111 211.984 -54.27 211.984C-57.0291 211.984 -59.2656 214.615 -59.2656 217.859C-59.2656 221.104 -57.0291 223.734 -54.27 223.734ZM311.976 174.406H487.32V180.406H311.976V174.406ZM-110.074 36.0469H-113.074V39.0469V59.5469V62.5469V81.047H-202.758V87.047H-113.074V92.0469H-202.758V98.0469H-110.074H-107.074V95.0469V87.047V84.047V65.5469H-29.7199V59.5469H-107.074V54.0625H102.499V48.0625H-107.074V42.0469H-29.7199V36.0469H-110.074ZM-99.8774 98.0469H-42.9065V73.7969H-99.8774V91.1183V98.0469ZM-122.251 140.312H-108.071V120.589H-122.251V130.677V140.312ZM-281.042 222.422H-238.047V174.422H-281.042V202.993H-309.704V222.422H-281.042ZM-138.461 182.078H-190.33V172.443V155.355L-166.947 126.355H-138.461V182.078ZM-80.719 153.391H-101.058V141.703V118.305H-201.11V112.305H-82.0662V112.484H-80.719V153.391ZM-318.891 222.422H-531.469V216.422H-318.891V222.422ZM-125.117 167.18H-78.3503V161.18H-125.117V167.18ZM-78.3503 181.18H-125.117V175.18H-78.3503V181.18Z" fill="url(#paint0_linear_31166_32156)"/>
        <path d="M31.4973 20H-14.0027L-33.0027 38H-64.5391M-64.5391 154.351L-64.5391 38M-64.5391 192.949L-64.5391 38" stroke="#8F8E93" stroke-width="2" stroke-linejoin="round"/>
        <path d="M299 202.625L110.623 202.626L85.2959 179.399M85.2959 179.399L-13.7067 179.399L-63.7098 179.399L-63.347 157.413L0.549689 157.413L11.638 140.781L64.3074 140.781M85.2959 179.399L158.5 179.399" stroke="#8F8E93" stroke-width="2"/>
        <g filter="url(#filter0_d_31166_32156)">
            <ellipse cx="5.99998" cy="6" rx="5.99998" ry="6" transform="matrix(0 -1 0.999999 -0.00173533 29 26.0156)" fill="#F0EFED"/>
            <path d="M35 14.5053C38.0376 14.5 40.5 16.9581 40.5 19.9957C40.5 23.0332 38.0376 25.4999 35 25.5052C31.9624 25.5105 29.5 23.0523 29.5 20.0148C29.5 16.9772 31.9624 14.5105 35 14.5053Z" stroke="black"/>
        </g>
    </g>
    <defs>
        <filter id="filter0_d_31166_32156" x="29" y="14.0052" width="19" height="14" filterUnits="userSpaceOnUse" color-interpolation-filters="sRGB">
            <feFlood flood-opacity="0" result="BackgroundImageFix"/>
            <feColorMatrix in="SourceAlpha" type="matrix" values="0 0 0 0 0 0 0 0 0 0 0 0 0 0 0 0 0 0 127 0" result="hardAlpha"/>
            <feOffset dx="7" dy="2"/>
            <feComposite in2="hardAlpha" operator="out"/>
            <feColorMatrix type="matrix" values="0 0 0 0 0 0 0 0 0 0 0 0 0 0 0 0 0 0 1 0"/>
            <feBlend mode="normal" in2="BackgroundImageFix" result="effect1_dropShadow_31166_32156"/>
            <feBlend mode="normal" in="SourceGraphic" in2="effect1_dropShadow_31166_32156" result="shape"/>
        </filter>
        <linearGradient id="paint0_linear_31166_32156" x1="469.997" y1="228.055" x2="472.349" y2="-11.4343" gradientUnits="userSpaceOnUse">
            <stop stop-color="#F1EFED"/>
            <stop offset="0.503125" stop-color="#A9A5A4" stop-opacity="0.07"/>
            <stop offset="1" stop-color="#F1EFED"/>
        </linearGradient>
        <clipPath id="clip0_31166_32156">
            <rect width="375" height="223" fill="white"/>
        </clipPath>
    </defs>
</svg>
