<svg width="676" height="242" viewBox="0 0 676 242" fill="none" xmlns="http://www.w3.org/2000/svg">
<path d="M610.141 241.91L617.461 228.82L610.141 241.91Z" fill="black"/>
<path d="M624.831 215.752L632.111 202.652C632.125 202.637 632.133 202.618 632.133 202.597C632.133 202.577 632.125 202.557 632.111 202.542C632.104 202.534 632.096 202.527 632.086 202.523C632.077 202.518 632.066 202.516 632.056 202.516C632.045 202.516 632.035 202.518 632.025 202.523C632.016 202.527 632.007 202.534 632.001 202.542L624.771 215.692C624.764 215.703 624.76 215.715 624.76 215.727C624.76 215.74 624.764 215.752 624.771 215.762C624.781 215.767 624.792 215.769 624.803 215.768C624.813 215.766 624.823 215.76 624.831 215.752Z" fill="black"/>
<path d="M639.209 189.44L646.089 176.12C646.098 176.104 646.103 176.086 646.105 176.067C646.107 176.049 646.105 176.03 646.099 176.013C646.093 175.995 646.084 175.979 646.072 175.965C646.06 175.95 646.046 175.939 646.029 175.93C646.013 175.922 645.995 175.916 645.976 175.915C645.958 175.913 645.939 175.915 645.922 175.921C645.904 175.926 645.888 175.935 645.874 175.947C645.859 175.959 645.848 175.974 645.839 175.99L639.019 189.33C639.005 189.358 639.002 189.391 639.012 189.42C639.021 189.45 639.042 189.475 639.069 189.49C639.095 189.499 639.123 189.499 639.148 189.49C639.173 189.481 639.195 189.463 639.209 189.44Z" fill="black"/>
<path d="M652.664 162.642L658.874 148.982C658.895 148.933 658.896 148.877 658.878 148.827C658.859 148.777 658.822 148.736 658.774 148.712C658.725 148.691 658.669 148.69 658.619 148.708C658.569 148.727 658.528 148.764 658.504 148.812L652.354 162.482C652.344 162.502 652.339 162.524 652.338 162.547C652.338 162.569 652.342 162.591 652.35 162.612C652.359 162.633 652.371 162.651 652.387 162.667C652.404 162.682 652.423 162.694 652.444 162.702C652.482 162.721 652.525 162.725 652.566 162.714C652.606 162.703 652.641 162.677 652.664 162.642Z" fill="black"/>
<path d="M664.548 135.089L669.548 120.929C669.561 120.898 669.567 120.865 669.566 120.832C669.566 120.799 669.558 120.766 669.544 120.736C669.53 120.706 669.509 120.679 669.484 120.657C669.459 120.635 669.43 120.619 669.398 120.609C669.335 120.586 669.265 120.589 669.203 120.617C669.141 120.645 669.093 120.696 669.068 120.759L664.068 134.909C664.049 134.966 664.053 135.028 664.079 135.083C664.105 135.137 664.152 135.179 664.208 135.199C664.237 135.22 664.269 135.233 664.304 135.239C664.338 135.245 664.373 135.242 664.407 135.231C664.44 135.22 664.47 135.202 664.495 135.177C664.519 135.153 664.538 135.122 664.548 135.089Z" fill="black"/>
<path d="M673.548 106.453C674.698 101.58 675.517 96.6358 675.998 91.6528C676.003 91.612 675.999 91.5709 675.987 91.5317C675.975 91.4925 675.955 91.456 675.929 91.4244C675.903 91.3928 675.871 91.3666 675.835 91.3475C675.799 91.3283 675.759 91.3165 675.718 91.3127C675.636 91.3096 675.555 91.3378 675.492 91.3915C675.429 91.4452 675.388 91.5206 675.378 91.6028C674.935 96.5743 674.15 101.509 673.028 106.373C673.013 106.447 673.028 106.524 673.069 106.588C673.11 106.651 673.175 106.696 673.248 106.713C673.322 106.713 673.392 106.687 673.448 106.639C673.503 106.592 673.539 106.525 673.548 106.453Z" fill="black"/>
<path d="M675.546 76.5706C674.801 71.5385 672.834 66.7658 669.816 62.6706C669.787 62.6329 669.75 62.6013 669.709 62.5778C669.667 62.5543 669.621 62.5393 669.574 62.5337C669.526 62.5281 669.478 62.5321 669.432 62.5453C669.386 62.5585 669.344 62.5807 669.306 62.6106C669.231 62.6699 669.181 62.7563 669.168 62.8515C669.155 62.9467 669.179 63.0432 669.236 63.1207C672.206 67.0967 674.159 71.7379 674.926 76.6406C674.932 76.6852 674.947 76.7281 674.97 76.7666C674.994 76.8051 675.024 76.8385 675.061 76.8648C675.097 76.891 675.139 76.9095 675.183 76.9191C675.227 76.9287 675.272 76.9292 675.316 76.9206C675.387 76.8949 675.448 76.8469 675.489 76.7838C675.531 76.7208 675.551 76.646 675.546 76.5706Z" fill="black"/>
<path d="M657.647 53.9586C652.875 52.2993 647.869 51.4115 642.817 51.3286C642.762 51.3259 642.707 51.3341 642.655 51.3528C642.603 51.3714 642.555 51.4002 642.514 51.4374C642.473 51.4745 642.44 51.5194 642.416 51.5693C642.393 51.6193 642.38 51.6734 642.377 51.7286C642.373 51.7849 642.38 51.8415 642.399 51.8948C642.418 51.948 642.447 51.9968 642.486 52.0381C642.524 52.0794 642.571 52.1124 642.623 52.1348C642.675 52.1573 642.731 52.1688 642.787 52.1686C647.753 52.2387 652.677 53.0926 657.377 54.6986C657.475 54.7346 657.584 54.7306 657.679 54.6876C657.774 54.6446 657.849 54.566 657.887 54.4686C657.922 54.3691 657.917 54.2597 657.872 54.1642C657.827 54.0686 657.746 53.9948 657.647 53.9586Z" fill="black"/>
<path d="M627.778 52.1998C622.778 52.8698 617.878 53.8398 612.998 54.9798C612.937 54.9939 612.878 55.0202 612.826 55.0571C612.775 55.0939 612.731 55.1407 612.697 55.1947C612.664 55.2486 612.641 55.3087 612.631 55.3713C612.621 55.434 612.624 55.4981 612.638 55.5598C612.653 55.6217 612.679 55.6802 612.716 55.7319C612.753 55.7836 612.799 55.8274 612.853 55.8609C612.907 55.8944 612.967 55.9168 613.03 55.9269C613.093 55.9371 613.157 55.9346 613.218 55.9198C618.078 54.7598 622.968 53.7798 627.898 53.0998C627.958 53.0925 628.015 53.0733 628.067 53.0436C628.119 53.0138 628.164 52.9741 628.2 52.9266C628.237 52.8791 628.263 52.8249 628.278 52.7671C628.293 52.7092 628.297 52.649 628.288 52.5898C628.281 52.5305 628.262 52.4733 628.232 52.4214C628.203 52.3696 628.163 52.3241 628.115 52.2878C628.068 52.2515 628.014 52.2251 627.956 52.21C627.898 52.1948 627.838 52.1914 627.778 52.1998Z" fill="black"/>
<path d="M598.442 58.6554L584.012 62.7854C583.946 62.8038 583.883 62.8353 583.829 62.8781C583.775 62.9209 583.729 62.9742 583.696 63.0347C583.662 63.0952 583.641 63.1619 583.634 63.2307C583.626 63.2995 583.633 63.3691 583.652 63.4354C583.69 63.5679 583.778 63.6802 583.898 63.7477C584.018 63.8151 584.16 63.8323 584.292 63.7954L598.702 59.6554C598.83 59.6182 598.937 59.5321 599.001 59.4158C599.065 59.2995 599.08 59.1627 599.042 59.0354C599.03 58.9702 599.004 58.9083 598.966 58.8536C598.928 58.7988 598.88 58.7522 598.824 58.7167C598.768 58.6811 598.705 58.6574 598.64 58.6468C598.574 58.6363 598.507 58.6392 598.442 58.6554Z" fill="black"/>
<path d="M569.699 67.3198L555.549 72.2397C555.41 72.2896 555.297 72.392 555.233 72.5249C555.17 72.6578 555.161 72.8105 555.209 72.9497C555.233 73.018 555.27 73.081 555.318 73.1351C555.365 73.1892 555.424 73.2333 555.489 73.2648C555.554 73.2964 555.624 73.3148 555.696 73.3191C555.769 73.3234 555.841 73.3134 555.909 73.2898L570.049 68.3398C570.116 68.3162 570.178 68.2797 570.231 68.2322C570.284 68.1848 570.327 68.1273 570.357 68.0632C570.388 67.9991 570.406 67.9296 570.409 67.8587C570.413 67.7877 570.403 67.7167 570.379 67.6498C570.357 67.5831 570.321 67.5216 570.275 67.4688C570.228 67.416 570.172 67.3729 570.108 67.3422C570.045 67.3115 569.976 67.2937 569.906 67.2899C569.836 67.286 569.765 67.2962 569.699 67.3198Z" fill="black"/>
<path d="M541.445 77.4837L527.445 82.9937C527.373 83.0202 527.308 83.0609 527.252 83.1133C527.197 83.1657 527.152 83.2288 527.121 83.2987C527.09 83.3687 527.074 83.4442 527.073 83.5206C527.072 83.597 527.086 83.6729 527.115 83.7437C527.143 83.8158 527.184 83.8816 527.238 83.9374C527.291 83.9931 527.355 84.0377 527.426 84.0684C527.497 84.0991 527.573 84.1154 527.65 84.1163C527.727 84.1172 527.804 84.1028 527.875 84.0737L541.855 78.5437C541.924 78.5172 541.988 78.4772 542.041 78.426C542.095 78.3748 542.138 78.3135 542.168 78.2456C542.197 78.1777 542.213 78.1045 542.215 78.0304C542.216 77.9562 542.203 77.8826 542.175 77.8137C542.15 77.7436 542.11 77.6792 542.06 77.6245C542.009 77.5698 541.948 77.5258 541.88 77.495C541.812 77.4643 541.738 77.4474 541.664 77.4455C541.589 77.4436 541.515 77.4565 541.445 77.4837Z" fill="black"/>
<path d="M513.617 88.7244L499.817 94.6444C499.734 94.6697 499.656 94.7123 499.59 94.7697C499.524 94.827 499.471 94.8977 499.434 94.9771C499.397 95.0564 499.378 95.1427 499.377 95.2301C499.375 95.3176 499.393 95.4043 499.428 95.4846C499.462 95.5648 499.514 95.6368 499.578 95.6958C499.643 95.7548 499.719 95.7994 499.802 95.8268C499.886 95.8542 499.973 95.8636 500.06 95.8546C500.147 95.8455 500.232 95.8182 500.307 95.7744L514.077 89.8344C514.211 89.7643 514.313 89.6464 514.364 89.5042C514.414 89.3621 514.409 89.2061 514.35 89.0674C514.291 88.9286 514.182 88.8173 514.044 88.7556C513.906 88.6939 513.75 88.6863 513.607 88.7344L513.617 88.7244Z" fill="black"/>
<path d="M486.092 100.648L472.402 106.788C472.244 106.858 472.12 106.988 472.058 107.149C471.997 107.311 472.001 107.49 472.072 107.648C472.142 107.805 472.272 107.929 472.433 107.991C472.595 108.053 472.774 108.048 472.932 107.978L486.602 101.808C486.677 101.773 486.745 101.725 486.802 101.664C486.859 101.604 486.903 101.533 486.932 101.455C486.961 101.378 486.975 101.295 486.972 101.212C486.97 101.13 486.951 101.048 486.917 100.973C486.882 100.897 486.834 100.829 486.773 100.772C486.713 100.716 486.642 100.671 486.564 100.642C486.487 100.613 486.404 100.599 486.321 100.602C486.239 100.605 486.157 100.623 486.082 100.658L486.092 100.648Z" fill="black"/>
<path d="M458.743 113.035L445.093 119.255C445.011 119.292 444.938 119.344 444.877 119.409C444.816 119.475 444.769 119.552 444.738 119.636C444.707 119.719 444.694 119.809 444.698 119.898C444.702 119.987 444.724 120.074 444.763 120.155C444.799 120.236 444.852 120.31 444.917 120.371C444.982 120.432 445.058 120.48 445.142 120.512C445.226 120.543 445.315 120.558 445.404 120.555C445.493 120.552 445.581 120.532 445.663 120.495L459.293 114.245C459.374 114.209 459.447 114.158 459.508 114.094C459.568 114.029 459.616 113.953 459.646 113.87C459.677 113.787 459.691 113.699 459.687 113.61C459.683 113.522 459.661 113.435 459.623 113.355C459.587 113.275 459.536 113.203 459.472 113.144C459.408 113.084 459.333 113.038 459.251 113.008C459.168 112.978 459.081 112.965 458.994 112.97C458.906 112.974 458.821 112.997 458.743 113.035Z" fill="black"/>
<path d="M431.44 125.46L417.75 131.59C417.664 131.628 417.587 131.683 417.523 131.75C417.459 131.818 417.409 131.898 417.375 131.985C417.342 132.073 417.326 132.166 417.328 132.259C417.331 132.353 417.352 132.445 417.39 132.53C417.428 132.615 417.482 132.692 417.55 132.757C417.618 132.821 417.698 132.871 417.785 132.905C417.873 132.938 417.966 132.954 418.059 132.951C418.152 132.949 418.244 132.928 418.33 132.89L432 126.72C432.083 126.682 432.157 126.629 432.219 126.563C432.281 126.497 432.33 126.419 432.362 126.334C432.394 126.249 432.409 126.158 432.406 126.068C432.403 125.977 432.382 125.888 432.345 125.805C432.307 125.722 432.254 125.648 432.188 125.586C432.122 125.523 432.044 125.475 431.959 125.443C431.874 125.411 431.783 125.396 431.693 125.399C431.602 125.402 431.513 125.422 431.43 125.46L431.44 125.46Z" fill="black"/>
<path d="M404.156 138.031L390.766 144.811C390.593 144.903 390.462 145.059 390.402 145.246C390.342 145.433 390.358 145.636 390.446 145.811C390.49 145.899 390.55 145.977 390.624 146.042C390.698 146.106 390.784 146.155 390.877 146.185C390.97 146.216 391.069 146.228 391.166 146.22C391.264 146.213 391.359 146.186 391.446 146.141L404.796 139.331C404.884 139.288 404.962 139.227 405.026 139.153C405.09 139.079 405.139 138.992 405.168 138.899C405.198 138.806 405.209 138.707 405.2 138.61C405.191 138.512 405.163 138.418 405.116 138.331C405.027 138.166 404.877 138.042 404.697 137.986C404.518 137.93 404.324 137.946 404.156 138.031Z" fill="black"/>
<path d="M377.444 151.709L364.104 158.549C363.92 158.643 363.78 158.807 363.716 159.004C363.653 159.201 363.67 159.415 363.764 159.599C363.858 159.783 364.021 159.923 364.218 159.987C364.415 160.05 364.629 160.033 364.814 159.939L378.154 153.069C378.25 153.028 378.337 152.968 378.408 152.893C378.48 152.817 378.536 152.727 378.571 152.629C378.607 152.531 378.622 152.427 378.616 152.322C378.609 152.218 378.581 152.116 378.534 152.023C378.486 151.931 378.42 151.848 378.34 151.782C378.259 151.716 378.166 151.667 378.065 151.638C377.965 151.61 377.86 151.602 377.756 151.616C377.653 151.63 377.553 151.665 377.464 151.719L377.444 151.709Z" fill="black"/>
<path d="M350.679 165.195L337.089 171.495C336.894 171.584 336.743 171.747 336.668 171.947C336.593 172.148 336.601 172.37 336.689 172.565C336.782 172.758 336.947 172.907 337.149 172.98C337.351 173.053 337.574 173.044 337.769 172.955L351.369 166.655C351.56 166.566 351.708 166.405 351.78 166.207C351.852 166.009 351.843 165.791 351.754 165.6C351.665 165.409 351.504 165.261 351.306 165.189C351.108 165.117 350.89 165.126 350.699 165.215L350.679 165.195Z" fill="black"/>
<path d="M323.284 177.263L309.214 182.333L309.164 182.333C309.061 182.37 308.965 182.427 308.884 182.501C308.803 182.575 308.737 182.664 308.691 182.764C308.644 182.863 308.618 182.971 308.613 183.081C308.609 183.191 308.626 183.3 308.664 183.403C308.739 183.612 308.893 183.784 309.094 183.879C309.294 183.975 309.525 183.987 309.734 183.913L323.874 178.773C323.979 178.74 324.077 178.685 324.161 178.613C324.244 178.541 324.312 178.453 324.361 178.354C324.41 178.254 324.438 178.146 324.444 178.036C324.45 177.926 324.434 177.815 324.396 177.712C324.358 177.608 324.3 177.513 324.224 177.432C324.149 177.351 324.058 177.287 323.957 177.242C323.856 177.197 323.747 177.173 323.636 177.172C323.526 177.17 323.416 177.191 323.314 177.233L323.284 177.263Z" fill="black"/>
<path d="M294.856 186.414C290.026 187.578 285.135 188.476 280.206 189.104C279.982 189.132 279.778 189.248 279.639 189.426C279.5 189.604 279.438 189.83 279.466 190.054C279.494 190.278 279.61 190.482 279.788 190.621C279.966 190.759 280.192 190.822 280.416 190.794C285.41 190.16 290.364 189.249 295.256 188.064C295.468 188.009 295.651 187.875 295.767 187.689C295.882 187.502 295.922 187.278 295.876 187.064C295.854 186.953 295.809 186.848 295.745 186.755C295.681 186.662 295.599 186.583 295.504 186.522C295.409 186.462 295.302 186.421 295.191 186.402C295.08 186.383 294.966 186.388 294.856 186.414Z" fill="black"/>
<path d="M265.356 189.879C262.886 189.809 260.416 189.639 257.956 189.339C255.532 189.073 253.147 188.533 250.846 187.729C250.736 187.678 250.618 187.651 250.497 187.649C250.376 187.646 250.257 187.669 250.145 187.715C250.034 187.762 249.934 187.831 249.85 187.918C249.767 188.005 249.703 188.109 249.662 188.222C249.621 188.336 249.604 188.456 249.612 188.577C249.62 188.697 249.653 188.814 249.709 188.921C249.765 189.028 249.842 189.122 249.936 189.198C250.03 189.273 250.139 189.328 250.256 189.359C252.685 190.202 255.2 190.768 257.756 191.049C260.262 191.349 262.782 191.532 265.316 191.599C265.544 191.599 265.763 191.508 265.924 191.347C266.085 191.186 266.176 190.967 266.176 190.739C266.176 190.511 266.085 190.292 265.924 190.131C265.763 189.97 265.544 189.879 265.316 189.879L265.356 189.879Z" fill="black"/>
<path d="M240.844 178.293C240.088 176.007 239.729 173.609 239.784 171.203C239.832 168.76 240.12 166.329 240.644 163.943C240.668 163.83 240.67 163.714 240.649 163.601C240.629 163.488 240.586 163.38 240.524 163.284C240.462 163.187 240.381 163.104 240.287 163.038C240.192 162.973 240.086 162.927 239.974 162.903C239.861 162.878 239.745 162.876 239.632 162.897C239.519 162.917 239.411 162.96 239.315 163.022C239.218 163.084 239.135 163.165 239.07 163.259C239.004 163.354 238.958 163.46 238.934 163.573C238.386 166.074 238.088 168.623 238.044 171.183C237.985 173.791 238.381 176.39 239.214 178.863C239.242 178.981 239.295 179.093 239.37 179.19C239.444 179.286 239.538 179.366 239.645 179.425C239.752 179.483 239.871 179.518 239.992 179.527C240.114 179.537 240.236 179.52 240.351 179.48C240.466 179.439 240.571 179.374 240.66 179.29C240.748 179.205 240.818 179.104 240.864 178.991C240.911 178.878 240.933 178.756 240.929 178.634C240.926 178.512 240.897 178.393 240.844 178.283L240.844 178.293Z" fill="black"/>
<path d="M245.334 149.905C247.334 145.355 249.604 140.905 252.034 136.585C252.091 136.484 252.128 136.373 252.142 136.257C252.156 136.142 252.147 136.025 252.116 135.913C252.085 135.801 252.032 135.697 251.961 135.605C251.889 135.514 251.8 135.437 251.699 135.38C251.598 135.323 251.487 135.286 251.371 135.272C251.256 135.258 251.139 135.267 251.027 135.298C250.915 135.329 250.811 135.382 250.719 135.453C250.628 135.525 250.551 135.614 250.494 135.715C248.009 140.093 245.749 144.596 243.724 149.205C243.65 149.415 243.658 149.645 243.747 149.849C243.836 150.053 243.999 150.216 244.203 150.305C244.407 150.394 244.637 150.402 244.847 150.328C245.057 150.253 245.231 150.102 245.334 149.905Z" fill="black"/>
<path d="M259.777 123.804L268.227 111.464C268.326 111.268 268.35 111.043 268.296 110.831C268.241 110.618 268.11 110.433 267.928 110.311C267.746 110.188 267.526 110.135 267.308 110.164C267.091 110.192 266.891 110.299 266.747 110.464L258.257 122.884C258.137 123.079 258.098 123.312 258.146 123.536C258.194 123.759 258.326 123.955 258.515 124.084C258.704 124.213 258.935 124.264 259.161 124.226C259.386 124.189 259.589 124.066 259.727 123.884L259.777 123.804Z" fill="black"/>
<path d="M276.952 99.2554L285.532 86.9454C285.616 86.8493 285.678 86.7365 285.715 86.6144C285.752 86.4923 285.763 86.3637 285.746 86.2372C285.73 86.1107 285.687 85.9891 285.62 85.8805C285.553 85.7719 285.463 85.6788 285.358 85.6074C285.252 85.5359 285.132 85.4878 285.007 85.4662C284.881 85.4445 284.752 85.4498 284.628 85.4818C284.505 85.5138 284.39 85.5716 284.29 85.6515C284.191 85.7315 284.109 85.8316 284.052 85.9454L275.532 98.2154C275.442 98.3102 275.375 98.4232 275.334 98.5466C275.293 98.6699 275.279 98.8008 275.293 98.9301C275.307 99.0594 275.349 99.1841 275.416 99.2955C275.483 99.407 275.574 99.5026 275.681 99.5758C275.789 99.649 275.911 99.6979 276.039 99.7194C276.168 99.7408 276.299 99.7341 276.424 99.6999C276.55 99.6656 276.667 99.6046 276.766 99.5209C276.866 99.4373 276.946 99.3331 277.002 99.2154L276.952 99.2554Z" fill="black"/>
<path d="M293.709 74.2887C296.299 69.9987 298.769 65.6086 301.019 61.1086C301.126 60.8912 301.143 60.6399 301.065 60.4102C300.987 60.1804 300.821 59.991 300.604 59.8836C300.386 59.7762 300.135 59.7596 299.905 59.8374C299.676 59.9152 299.486 60.0812 299.379 60.2986C297.159 64.7386 294.719 69.0887 292.149 73.3487C292.024 73.5555 291.987 73.8034 292.045 74.0378C292.103 74.2723 292.252 74.474 292.459 74.5987C292.666 74.7233 292.913 74.7607 293.148 74.7025C293.382 74.6444 293.584 74.4955 293.709 74.2887Z" fill="black"/>
<path d="M306.987 47.2385C308.702 42.475 309.977 37.5645 310.797 32.5686C310.836 32.3246 310.776 32.0753 310.63 31.8755C310.485 31.6758 310.266 31.542 310.022 31.5035C309.778 31.4651 309.529 31.5251 309.329 31.6705C309.13 31.8158 308.996 32.0345 308.957 32.2785C308.168 37.173 306.926 41.9836 305.247 46.6485C305.165 46.8793 305.178 47.1332 305.283 47.3545C305.388 47.5758 305.576 47.7463 305.807 47.8285C306.038 47.9107 306.292 47.8979 306.513 47.7929C306.735 47.6879 306.905 47.4993 306.987 47.2685L306.987 47.2385Z" fill="black"/>
<path d="M311.047 17.305C310.541 14.7215 309.521 12.2661 308.047 10.085C306.529 7.92631 304.577 6.10768 302.317 4.74496C302.105 4.61235 301.849 4.56946 301.605 4.62573C301.361 4.68199 301.15 4.8328 301.017 5.04498C300.884 5.25715 300.841 5.51331 300.898 5.7571C300.954 6.0009 301.105 6.21236 301.317 6.34496C303.356 7.57137 305.117 9.20958 306.487 11.155C307.831 13.1238 308.76 15.3456 309.217 17.685C309.267 17.9276 309.412 18.1403 309.619 18.2763C309.826 18.4123 310.079 18.4604 310.322 18.41C310.565 18.3596 310.777 18.2149 310.913 18.0076C311.049 17.8004 311.097 17.5476 311.047 17.305Z" fill="black"/>
<path d="M287.646 0.348795C282.607 -0.116265 277.536 -0.116266 272.496 0.348793C272.258 0.383542 272.041 0.507786 271.891 0.696327C271.74 0.884868 271.667 1.12356 271.686 1.36402C271.705 1.60448 271.815 1.82868 271.993 1.99113C272.172 2.15358 272.405 2.24212 272.646 2.23878C277.571 1.77722 282.528 1.7605 287.456 2.18879C287.702 2.20879 287.945 2.13181 288.134 1.97441C288.323 1.817 288.443 1.59171 288.468 1.3469C288.493 1.1021 288.421 0.857307 288.267 0.665079C288.113 0.472851 287.891 0.348536 287.646 0.318796L287.646 0.348795Z" fill="black"/>
<path d="M257.534 2.42635L242.814 5.62636C242.658 5.61424 242.502 5.63871 242.358 5.6978C242.213 5.7569 242.085 5.84898 241.982 5.96669C241.88 6.0844 241.806 6.22445 241.767 6.37566C241.729 6.52687 241.726 6.68503 241.76 6.83748C241.793 6.98994 241.862 7.13245 241.96 7.25362C242.058 7.37479 242.184 7.47126 242.326 7.5353C242.468 7.59933 242.624 7.62916 242.78 7.6224C242.936 7.61563 243.088 7.57247 243.224 7.49636L243.274 7.49636L257.874 4.31637L257.934 4.31637C258.057 4.29149 258.174 4.24227 258.277 4.17165C258.381 4.10103 258.469 4.0104 258.537 3.90511C258.605 3.79982 258.651 3.68199 258.673 3.55855C258.695 3.43512 258.692 3.30858 258.664 3.18636C258.607 2.94038 258.458 2.72527 258.248 2.58428C258.039 2.4433 257.784 2.38687 257.534 2.42635Z" fill="black"/>
<path d="M228.307 9.49094C225.897 10.1409 223.507 10.8009 221.097 11.4309L213.807 13.2409C213.562 13.3092 213.352 13.4681 213.221 13.6855C213.089 13.9028 213.045 14.1622 213.097 14.4109C213.165 14.6558 213.324 14.8655 213.542 14.9974C213.759 15.1293 214.018 15.1735 214.267 15.1209L221.537 13.321C223.957 12.691 226.387 12.011 228.807 11.321C228.995 11.2096 229.141 11.0399 229.223 10.8377C229.305 10.6356 229.319 10.4121 229.263 10.2013C229.206 9.99053 229.082 9.80408 228.909 9.67041C228.737 9.53674 228.525 9.46316 228.307 9.46094L228.307 9.49094Z" fill="black"/>
<path d="M199.284 17.072L184.824 21.132C184.616 21.2363 184.452 21.4093 184.358 21.6216C184.265 21.8338 184.248 22.0719 184.31 22.2953C184.373 22.5186 184.511 22.7132 184.702 22.8458C184.892 22.9784 185.122 23.0407 185.354 23.022L199.774 18.952C199.924 18.9449 200.07 18.9042 200.202 18.8329C200.334 18.7615 200.448 18.6613 200.536 18.5398C200.624 18.4182 200.684 18.2784 200.711 18.1307C200.737 17.983 200.73 17.8312 200.69 17.6865C200.65 17.5419 200.578 17.4081 200.48 17.2951C200.381 17.1821 200.258 17.0927 200.12 17.0337C199.982 16.9747 199.832 16.9475 199.682 16.9541C199.532 16.9607 199.386 17.001 199.254 17.072L199.284 17.072Z" fill="black"/>
<path d="M170.426 25.3337L156.036 29.5937C155.785 29.6721 155.575 29.8462 155.452 30.0783C155.328 30.3103 155.301 30.5817 155.376 30.8337C155.455 31.0823 155.627 31.2905 155.857 31.4138C156.087 31.5371 156.356 31.5657 156.606 31.4937L170.976 27.2237C171.186 27.1193 171.353 26.9444 171.447 26.7297C171.541 26.5149 171.557 26.2739 171.491 26.0487C171.426 25.8235 171.283 25.6286 171.089 25.4979C170.894 25.3672 170.659 25.309 170.426 25.3337Z" fill="black"/>
<path d="M141.656 33.8368L127.256 37.9968C127.003 38.0711 126.79 38.2419 126.663 38.4722C126.536 38.7024 126.504 38.9735 126.576 39.2267C126.648 39.4809 126.818 39.6962 127.048 39.8255C127.279 39.9548 127.551 39.9876 127.806 39.9167L142.226 35.7368C142.453 35.6428 142.638 35.4684 142.744 35.2469C142.851 35.0253 142.873 34.7722 142.805 34.5358C142.737 34.2994 142.584 34.0964 142.376 33.9656C142.167 33.8348 141.918 33.7854 141.676 33.8267L141.656 33.8368Z" fill="black"/>
<path d="M112.816 42.0077L98.3157 45.7677C98.1 45.8638 97.9252 46.0333 97.8224 46.2459C97.7196 46.4586 97.6953 46.7008 97.754 46.9297C97.8127 47.1585 97.9506 47.3591 98.1431 47.4961C98.3356 47.633 98.5703 47.6973 98.8057 47.6777L113.346 43.9177C113.483 43.8962 113.615 43.8462 113.732 43.771C113.849 43.6958 113.949 43.5969 114.026 43.4807C114.103 43.3646 114.154 43.2337 114.177 43.0964C114.201 42.9592 114.195 42.8185 114.161 42.6836C114.126 42.5487 114.064 42.4224 113.978 42.3128C113.893 42.2033 113.785 42.1128 113.662 42.0473C113.539 41.9818 113.404 41.9427 113.265 41.9324C113.126 41.9221 112.987 41.941 112.856 41.9877L112.816 42.0077Z" fill="black"/>
<path d="M83.7342 49.1981L69.0742 52.1981C68.8623 52.2884 68.6881 52.449 68.5809 52.6529C68.4738 52.8568 68.4403 53.0914 68.4861 53.3171C68.532 53.5429 68.6543 53.7458 68.8326 53.8918C69.0108 54.0377 69.2339 54.1177 69.4642 54.1181L84.1942 51.1181C84.4136 51.0318 84.5955 50.8707 84.7077 50.6633C84.8199 50.4559 84.8552 50.2155 84.8073 49.9846C84.7595 49.7537 84.6315 49.5471 84.4462 49.4014C84.2608 49.2556 84.0299 49.1801 83.7942 49.1881L83.7342 49.1981Z" fill="black"/>
<path d="M54.3251 54.7631L39.5351 56.693C39.3836 56.6742 39.2298 56.6903 39.0855 56.7401C38.9411 56.7899 38.8102 56.8721 38.7025 56.9803C38.5949 57.0886 38.5135 57.22 38.4645 57.3646C38.4155 57.5092 38.4003 57.6632 38.4201 57.8145C38.4398 57.9659 38.4938 58.1108 38.5782 58.238C38.6626 58.3653 38.775 58.4715 38.9068 58.5486C39.0385 58.6257 39.1862 58.6716 39.3385 58.6827C39.4907 58.6939 39.6435 58.6701 39.7851 58.6131L54.6151 56.6431C54.7652 56.6587 54.9169 56.6402 55.0589 56.5888C55.2008 56.5375 55.3293 56.4547 55.4346 56.3467C55.54 56.2386 55.6196 56.1081 55.6673 55.965C55.7151 55.8218 55.7299 55.6697 55.7105 55.52C55.6911 55.3703 55.638 55.227 55.5554 55.1007C55.4727 54.9744 55.3625 54.8685 55.2331 54.7909C55.1037 54.7132 54.9584 54.6659 54.808 54.6524C54.6577 54.639 54.5063 54.6597 54.3651 54.7131L54.3251 54.7631Z" fill="black"/>
<path d="M27.6025 58.7318L12.8125 60.6618C12.661 60.643 12.5071 60.6591 12.3628 60.7089C12.2185 60.7586 12.0875 60.8408 11.9799 60.9491C11.8722 61.0573 11.7908 61.1888 11.7418 61.3334C11.6929 61.478 11.6777 61.6319 11.6974 61.7833C11.7171 61.9347 11.7712 62.0795 11.8555 62.2068C11.9399 62.334 12.0523 62.4402 12.1841 62.5173C12.3159 62.5944 12.4635 62.6403 12.6158 62.6515C12.7681 62.6627 12.9208 62.6388 13.0625 62.5818L27.8924 60.6118C28.0426 60.6275 28.1943 60.6089 28.3362 60.5576C28.4781 60.5062 28.6066 60.4235 28.712 60.3154C28.8174 60.2074 28.8969 60.0769 28.9447 59.9337C28.9925 59.7905 29.0072 59.6384 28.9878 59.4887C28.9684 59.3391 28.9154 59.1957 28.8327 59.0695C28.75 58.9432 28.6399 58.8372 28.5105 58.7596C28.381 58.682 28.2357 58.6347 28.0854 58.6212C27.935 58.6077 27.7836 58.6284 27.6424 58.6818L27.6025 58.7318Z" fill="black"/>
<path d="M1.68451 62.079L-13.181 63.2984C-13.3314 63.2723 -13.4858 63.2811 -13.6323 63.3239C-13.7789 63.3667 -13.9136 63.4425 -14.0263 63.5455C-14.139 63.6485 -14.2267 63.7759 -14.2825 63.918C-14.3384 64.0601 -14.3609 64.2131 -14.3484 64.3652C-14.336 64.5174 -14.2889 64.6647 -14.2108 64.7958C-14.1326 64.9269 -14.0254 65.0384 -13.8975 65.1217C-13.7695 65.205 -13.6242 65.258 -13.4727 65.2764C-13.3211 65.2949 -13.1674 65.2784 -13.0232 65.2282L1.88412 63.9707C2.03331 63.9935 2.18574 63.9823 2.32996 63.9378C2.47418 63.8933 2.60649 63.8168 2.71692 63.7139C2.82735 63.6111 2.91306 63.4845 2.96763 63.3438C3.0222 63.2031 3.04421 63.0518 3.03201 62.9014C3.01982 62.751 2.97371 62.6053 2.89718 62.4752C2.82065 62.3451 2.71569 62.234 2.59013 62.1502C2.46456 62.0665 2.32167 62.0123 2.17216 61.9916C2.02266 61.971 1.8704 61.9844 1.72684 62.031L1.68451 62.079Z" fill="black"/>
</svg>
