<svg width="32" height="29" viewBox="0 0 32 29" fill="none" xmlns="http://www.w3.org/2000/svg">
<g id="Group 149093">
<g id="Group 12550">
<g id="Group 12551">
<g id="Ellipse 113">
<path fill-rule="evenodd" clip-rule="evenodd" d="M15.6667 27.8307C23.7668 27.8307 30.3333 21.8612 30.3333 14.4974C30.3333 12.0409 29.6026 9.73951 28.3279 7.76316L2.32035 20.034C4.63323 24.6343 9.73933 27.8307 15.6667 27.8307Z" fill="black"/>
<path d="M15.6667 1.16406C7.56649 1.16406 1 7.1336 1 14.4974C1 16.4727 1.4725 18.3477 2.32035 20.034L28.3279 7.76316C25.7816 3.81511 21.0647 1.16406 15.6667 1.16406Z" fill="#5869DD"/>
<path d="M28.3279 7.76316C25.7816 3.81511 21.0647 1.16406 15.6667 1.16406C7.56649 1.16406 1 7.1336 1 14.4974C1 16.4727 1.4725 18.3477 2.32035 20.034M28.3279 7.76316C29.6026 9.73951 30.3333 12.0409 30.3333 14.4974C30.3333 21.8612 23.7668 27.8307 15.6667 27.8307C9.73933 27.8307 4.63323 24.6343 2.32035 20.034M28.3279 7.76316L2.32035 20.034" stroke="black" stroke-width="2"/>
</g>
<ellipse id="Ellipse 114" cx="13.5043" cy="14.4974" rx="12.5043" ry="13.3333" fill="#F1EFED" stroke="black" stroke-width="2"/>
</g>
</g>
</g>
</svg>
