<svg width="240" height="418" viewBox="0 0 240 418" fill="none" xmlns="http://www.w3.org/2000/svg">
<path d="M232.584 180.052C228.803 179.897 225.001 179.989 221.229 180.462C220.826 180.516 220.535 180.885 220.589 181.288C220.642 181.691 221.011 181.981 221.414 181.928C225.088 181.459 228.813 181.365 232.527 181.517C232.932 181.534 233.27 181.218 233.288 180.813C233.305 180.407 232.989 180.069 232.584 180.052Z" fill="black"/>
<path d="M210.154 183.23C206.598 184.65 203.253 186.651 200.4 189.239C200.091 189.52 200.07 189.993 200.344 190.298C200.618 190.603 201.097 190.628 201.402 190.354C204.107 187.888 207.295 185.979 210.7 184.61C211.082 184.458 211.262 184.025 211.111 183.643C210.959 183.261 210.526 183.08 210.144 183.232L210.154 183.23Z" fill="black"/>
<path d="M193.498 198.39C191.765 201.814 190.608 205.485 189.862 209.21C189.777 209.612 190.04 209.997 190.441 210.082C190.843 210.166 191.228 209.904 191.313 209.502C192.043 205.88 193.169 202.338 194.832 199.064C195.019 198.696 194.871 198.247 194.503 198.06C194.134 197.873 193.685 198.021 193.498 198.39Z" fill="black"/>
<path d="M188.708 220.518C188.643 224.307 188.854 228.083 189.251 231.837C189.298 232.236 189.65 232.526 190.056 232.483C190.455 232.436 190.745 232.084 190.702 231.678C190.312 227.972 190.114 224.247 190.178 220.535C190.185 220.132 189.859 219.797 189.457 219.789C189.054 219.782 188.719 220.108 188.711 220.511L188.708 220.518Z" fill="black"/>
<path d="M190.96 243.026C191.694 246.723 192.563 250.393 193.543 254.024C193.644 254.403 194.041 254.631 194.42 254.53C194.799 254.428 195.027 254.032 194.926 253.653C193.958 250.047 193.093 246.413 192.374 242.751C192.297 242.36 191.916 242.106 191.525 242.183C191.134 242.261 190.879 242.642 190.956 243.033L190.96 243.026Z" fill="black"/>
<path d="M196.818 264.829L200.654 275.441C200.786 275.812 201.192 275.994 201.559 275.868C201.926 275.742 202.112 275.33 201.986 274.963L201.978 274.932L198.176 264.383L198.161 264.348C198.029 263.978 197.62 263.785 197.249 263.918C196.878 264.05 196.686 264.459 196.818 264.829Z" fill="black"/>
<path d="M205 285.858L208.964 294.31L208.994 293.643L207.978 295.283L207.971 295.296C207.767 295.619 207.866 296.049 208.196 296.257C208.52 296.461 208.949 296.362 209.157 296.032L210.19 294.376C210.316 294.172 210.324 293.934 210.231 293.734L210.219 293.71L206.279 285.306L206.267 285.282C206.107 284.929 205.682 284.78 205.337 284.944C204.991 285.108 204.835 285.529 204.999 285.875L205 285.858Z" fill="black"/>
<path d="M201.469 304.342C199.126 307.233 196.622 309.996 193.935 312.568C193.664 312.827 193.655 313.263 193.914 313.534C194.173 313.805 194.61 313.814 194.88 313.555C197.611 310.939 200.16 308.141 202.536 305.209C202.775 304.914 202.731 304.481 202.436 304.242C202.141 304.002 201.708 304.047 201.469 304.342Z" fill="black"/>
<path d="M185.34 319.64C182.288 321.749 179.05 323.579 175.63 324.974C175.289 325.115 175.125 325.505 175.262 325.852C175.399 326.2 175.793 326.358 176.141 326.221C179.67 324.785 182.995 322.91 186.117 320.755C186.422 320.541 186.501 320.119 186.291 319.808C186.078 319.503 185.656 319.424 185.344 319.633L185.34 319.64Z" fill="black"/>
<path d="M164.957 327.646C161.297 327.985 157.582 327.686 154.021 326.774C153.667 326.682 153.308 326.899 153.217 327.253C153.125 327.608 153.342 327.967 153.696 328.058C157.395 329.015 161.268 329.327 165.079 328.98C165.443 328.948 165.718 328.622 165.686 328.257C165.654 327.892 165.328 327.617 164.963 327.649L164.957 327.646Z" fill="black"/>
<path d="M143.902 322.432C140.744 320.507 137.836 318.179 135.156 315.62C134.892 315.372 134.488 315.382 134.234 315.642C133.986 315.906 133.996 316.31 134.256 316.564C136.99 319.18 139.969 321.566 143.216 323.561C143.524 323.747 143.927 323.65 144.12 323.346C144.306 323.038 144.209 322.636 143.905 322.443L143.902 322.432Z" fill="black"/>
<path d="M127.716 307.309C125.428 304.37 123.317 301.291 121.342 298.125C121.152 297.825 120.764 297.731 120.464 297.922C120.164 298.112 120.07 298.5 120.26 298.8C122.25 302 124.382 305.118 126.697 308.099C126.916 308.381 127.319 308.432 127.601 308.213C127.883 307.995 127.934 307.591 127.716 307.309Z" fill="black"/>
<path d="M115.81 288.384L113.338 283.347L112.104 280.834C111.687 279.996 111.319 279.134 110.922 278.29L110.909 278.283C110.77 277.969 110.398 277.832 110.091 277.975C109.783 278.118 109.647 278.49 109.79 278.797C110.182 279.647 110.547 280.516 110.971 281.358L112.211 283.891L114.686 288.965C114.842 289.28 115.217 289.41 115.533 289.254C115.848 289.098 115.978 288.723 115.822 288.408L115.81 288.384Z" fill="black"/>
<path d="M106.563 267.96C105.206 264.475 103.948 260.953 102.837 257.385C102.738 257.077 102.412 256.906 102.107 256.999C101.799 257.098 101.628 257.424 101.721 257.729C102.83 261.33 104.079 264.882 105.439 268.394C105.561 268.707 105.909 268.855 106.218 268.739C106.527 268.623 106.679 268.269 106.563 267.96Z" fill="black"/>
<path d="M99.9993 246.56C99.2395 242.909 98.6874 239.214 98.4656 235.501C98.4501 235.198 98.185 234.967 97.8817 234.982C97.5783 234.998 97.3475 235.263 97.3629 235.566C97.5808 239.346 98.1299 243.091 98.8801 246.789C98.9458 247.095 99.2464 247.294 99.5528 247.229C99.8591 247.163 100.058 246.862 99.9993 246.56Z" fill="black"/>
<path d="M99.0349 224.421C99.7151 220.796 100.978 217.256 103.1 214.254C103.268 214.022 103.214 213.696 102.978 213.534C102.746 213.366 102.42 213.42 102.258 213.656C100.021 216.798 98.6986 220.486 97.9882 224.224C97.934 224.513 98.1254 224.797 98.4145 224.851C98.7036 224.905 98.9871 224.714 99.0414 224.424L99.0349 224.421Z" fill="black"/>
<path d="M111.619 207.648C115.043 206.351 118.813 206.058 122.468 206.522C122.735 206.555 122.975 206.364 123.011 206.107C123.043 205.841 122.859 205.604 122.596 205.565C118.818 205.074 114.887 205.36 111.275 206.714C111.02 206.809 110.885 207.104 110.981 207.358C111.076 207.612 111.371 207.747 111.625 207.652L111.619 207.648Z" fill="black"/>
<path d="M132.927 209.952C136.161 211.731 139.095 214.091 141.413 216.961C141.569 217.155 141.853 217.189 142.047 217.032C142.241 216.876 142.275 216.592 142.119 216.398C139.726 213.416 136.71 210.975 133.383 209.133C133.162 209.005 132.871 209.089 132.75 209.313C132.623 209.534 132.706 209.825 132.931 209.946L132.927 209.952Z" fill="black"/>
<path d="M146.035 226.852C146.361 228.659 146.428 230.508 146.255 232.339C146.075 234.166 145.664 235.99 145.122 237.755C145.055 237.976 145.172 238.208 145.393 238.275C145.614 238.342 145.85 238.218 145.917 237.997C146.479 236.183 146.903 234.323 147.1 232.42C147.288 230.519 147.219 228.583 146.894 226.699C146.854 226.468 146.629 226.303 146.394 226.349C146.163 226.389 145.999 226.615 146.045 226.849L146.035 226.852Z" fill="black"/>
<path d="M140.185 247.684C138.06 250.735 135.543 253.508 132.78 256.001C132.62 256.143 132.609 256.387 132.754 256.541C132.896 256.7 133.141 256.712 133.294 256.566C136.105 254.049 138.669 251.242 140.846 248.143C140.974 247.966 140.929 247.715 140.752 247.586C140.575 247.458 140.323 247.504 140.195 247.681L140.185 247.684Z" fill="black"/>
<path d="M123.814 262.645C120.63 264.592 117.287 266.274 113.835 267.694C113.667 267.762 113.588 267.958 113.655 268.127C113.722 268.296 113.919 268.375 114.081 268.304C117.573 266.889 120.959 265.207 124.187 263.259C124.358 263.158 124.408 262.936 124.307 262.766C124.207 262.595 123.985 262.545 123.814 262.645Z" fill="black"/>
<path d="M103.199 271.209C99.5794 272.125 95.8872 272.792 92.1755 273.222C92.0266 273.24 91.9246 273.371 91.9426 273.52C91.9606 273.669 92.0923 273.771 92.2374 273.76C95.9779 273.355 99.6896 272.699 103.346 271.796C103.506 271.758 103.603 271.589 103.562 271.436C103.524 271.275 103.356 271.178 103.202 271.219L103.199 271.209Z" fill="black"/>
<path d="M80.9801 273.772C77.2397 273.727 73.503 273.45 69.7933 272.946C69.6799 272.933 69.5744 273.011 69.5609 273.124C69.5474 273.237 69.6251 273.343 69.7386 273.356C73.4575 273.874 77.2164 274.173 80.9753 274.246C81.1065 274.244 81.2167 274.143 81.2144 274.011C81.2122 273.88 81.1113 273.77 80.9801 273.772Z" fill="black"/>
<path d="M58.7759 270.823C55.148 269.908 51.5692 268.787 48.062 267.482C47.983 267.454 47.9001 267.492 47.8718 267.571C47.8436 267.65 47.8823 267.733 47.9613 267.761C51.474 269.087 55.0583 270.228 58.6945 271.175C58.7939 271.197 58.8881 271.139 58.9136 271.05C58.9363 270.95 58.8781 270.856 58.7889 270.831L58.7759 270.823Z" fill="black"/>
<path d="M37.7385 263.042C34.3759 261.396 31.094 259.581 27.8909 257.629C27.8454 257.602 27.7942 257.616 27.7679 257.662C27.7417 257.707 27.7554 257.758 27.8009 257.785C30.9928 259.756 34.2738 261.588 37.6381 263.261C37.6966 263.295 37.7655 263.265 37.7993 263.207C37.833 263.148 37.8035 263.079 37.745 263.046L37.7385 263.042Z" fill="black"/>
<path d="M18.5647 251.356C15.5421 249.136 12.614 246.797 9.76642 244.349C9.75343 244.341 9.7367 244.34 9.72271 244.35C9.71521 244.363 9.71421 244.379 9.72346 244.393C12.5533 246.857 15.4739 249.209 18.4852 251.449C18.5112 251.464 18.5484 251.459 18.5699 251.437C18.5849 251.411 18.5804 251.374 18.5582 251.352L18.5647 251.356Z" fill="black"/>
<path d="M96.9181 114.604C98.5594 111.181 100.388 109.937 105.423 109.614C105.986 109.578 106.56 109.685 107.091 109.908L134.734 157.297L131.704 159.563L96.9181 114.604Z" fill="#5869DD"/>
<path d="M142.486 126.88L149.594 160.652L137.392 166.872L131.704 159.563L134.734 157.297L107.091 109.908L139.718 123.598C141.136 124.193 142.182 125.432 142.486 126.88Z" fill="url(#paint0_linear_30263_37373)"/>
<path fill-rule="evenodd" clip-rule="evenodd" d="M109.327 181.178L113.022 179.295L68.0691 159.381C66.8334 162.975 67.0258 164.656 69.3155 166.925L109.327 181.178Z" fill="#5869DD"/>
<path d="M68.0691 159.381L96.9181 114.604L131.704 159.563L137.392 166.872L113.022 179.295L68.0691 159.381Z" fill="url(#paint1_linear_30263_37373)"/>
<path d="M107.091 109.908L139.718 123.598C141.136 124.193 142.182 125.432 142.486 126.88L149.594 160.652L137.392 166.872M107.091 109.908C106.56 109.685 105.986 109.578 105.423 109.614C100.388 109.937 98.5594 111.181 96.9181 114.604M107.091 109.908L134.734 157.297L131.704 159.563M96.9181 114.604L68.0691 159.381M96.9181 114.604L131.704 159.563M68.0691 159.381C66.8334 162.975 67.0258 164.656 69.3155 166.925L109.327 181.178L113.022 179.295M68.0691 159.381L113.022 179.295M131.704 159.563L137.392 166.872M113.022 179.295L137.392 166.872" stroke="black" stroke-width="1.5" stroke-linejoin="round"/>
<path fill-rule="evenodd" clip-rule="evenodd" d="M143.718 177.349C144.414 176.446 145.091 175.567 145.737 174.71C148.803 170.296 150.744 166.421 149.857 163.201C149.425 161.63 148.321 160.216 146.348 158.97C140.754 155.437 135.307 157.595 130.003 162.542C127.784 164.611 125.59 167.168 123.421 170.001C121.359 173.083 116.511 177.13 115.803 179.454L141.92 191.072C142.711 190.406 142.506 187.634 142.302 184.872C142.11 182.279 141.918 179.694 142.552 178.866C142.945 178.353 143.334 177.848 143.718 177.349Z" fill="url(#paint2_linear_30263_37373)"/>
<path d="M115.803 179.454C116.729 176.416 120.588 170.243 122.736 167.437C122.502 167.743 122.768 168.112 123.058 168.515C123.394 168.981 123.762 169.492 123.421 170.001C121.359 173.083 116.511 177.13 115.803 179.454Z" fill="black"/>
<path d="M149.178 157.624C154.055 162.514 150.876 167.897 145.737 174.71C148.803 170.296 150.744 166.421 149.857 163.201L149.178 157.624Z" fill="black"/>
<path fill-rule="evenodd" clip-rule="evenodd" d="M129.105 160.149C134.921 154.548 141.251 151.636 147.433 156.146C148.103 156.635 148.682 157.127 149.178 157.624L149.857 163.201C149.425 161.63 148.321 160.216 146.348 158.97C140.754 155.437 135.307 157.595 130.003 162.542L129.105 160.149Z" fill="#F1EFED"/>
<path d="M123.058 168.515C122.768 168.112 122.502 167.743 122.736 167.437C124.761 164.793 126.896 162.277 129.105 160.149L130.003 162.542C127.784 164.611 125.59 167.168 123.421 170.001C123.762 169.492 123.394 168.981 123.058 168.515Z" fill="black"/>
<path d="M122.736 167.437C120.588 170.243 116.729 176.416 115.803 179.454M122.736 167.437C122.502 167.743 122.768 168.112 123.058 168.515C123.394 168.981 123.762 169.492 123.421 170.001M122.736 167.437C124.761 164.793 126.896 162.277 129.105 160.149M115.803 179.454L141.92 191.072C142.711 190.406 142.506 187.634 142.302 184.872C142.11 182.279 141.918 179.694 142.552 178.866C142.945 178.353 143.334 177.848 143.718 177.349C144.414 176.446 145.091 175.567 145.737 174.71M115.803 179.454C116.511 177.13 121.359 173.083 123.421 170.001M123.421 170.001C125.59 167.168 127.784 164.611 130.003 162.542M140.813 181.32C142.586 179.004 144.287 176.797 145.737 174.71M145.737 174.71C150.876 167.897 154.055 162.514 149.178 157.624M145.737 174.71C148.803 170.296 150.744 166.421 149.857 163.201M149.178 157.624C148.682 157.127 148.103 156.635 147.433 156.146C141.251 151.636 134.921 154.548 129.105 160.149M149.178 157.624L149.857 163.201M149.857 163.201C149.425 161.63 148.321 160.216 146.348 158.97C140.754 155.437 135.307 157.595 130.003 162.542M129.105 160.149L130.003 162.542" stroke="black" stroke-width="1.5"/>
<path d="M147.332 177.939C150.005 175.403 153.057 174.079 154.296 174.883C154.34 174.911 154.381 174.942 154.42 174.975C155.568 175.963 154.257 178.891 151.491 181.515C148.724 184.14 145.293 186.843 144.144 185.855C142.996 184.868 144.566 180.563 147.332 177.939Z" fill="#D9D9D9"/>
<path d="M140.053 164.228C138.843 163.188 135.62 164.472 132.854 167.096C130.087 169.721 128.698 173.64 129.908 174.68L144.144 185.855C142.996 184.868 144.566 180.563 147.332 177.939C150.005 175.403 153.057 174.079 154.296 174.883L140.053 164.228Z" fill="black"/>
<path d="M154.42 174.975C155.568 175.963 154.257 178.891 151.491 181.515C148.724 184.14 145.293 186.843 144.144 185.855M154.42 174.975L154.296 174.883M154.42 174.975C154.381 174.942 154.34 174.911 154.296 174.883M144.144 185.855C142.996 184.868 144.566 180.563 147.332 177.939C150.005 175.403 153.057 174.079 154.296 174.883M144.144 185.855L129.908 174.68C128.698 173.64 130.087 169.721 132.854 167.096C135.62 164.472 138.843 163.188 140.053 164.228L154.296 174.883" stroke="black" stroke-width="1.5"/>
<path fill-rule="evenodd" clip-rule="evenodd" d="M129.972 219.069C121.979 212.718 119.12 201.913 121.679 191.509L162.568 217.697C152.568 225.516 139.253 226.444 129.972 219.069Z" fill="#5869DD"/>
<path d="M166.184 171.772C177.475 180.743 178.521 198.603 168.522 211.664C166.742 213.989 164.732 216.004 162.568 217.697L121.679 191.509C122.735 187.216 124.714 182.992 127.634 179.177C137.634 166.116 151.896 160.419 166.184 171.772Z" fill="url(#paint3_linear_30263_37373)"/>
<path d="M121.679 191.509C122.735 187.216 124.714 182.992 127.634 179.177C137.634 166.116 151.896 160.419 166.184 171.772C177.475 180.743 178.521 198.603 168.522 211.664C166.742 213.989 164.732 216.004 162.568 217.697M121.679 191.509C119.12 201.913 121.979 212.718 129.972 219.069C139.253 226.444 152.568 225.516 162.568 217.697M121.679 191.509L162.568 217.697" stroke="black" stroke-width="1.5"/>
<ellipse cx="23.2298" cy="26.161" rx="23.2298" ry="26.161" transform="matrix(-0.813935 -0.580956 -0.571297 0.820744 188.18 191.328)" fill="black" stroke="black" stroke-width="1.5"/>
<path d="M182.385 319.179L239.992 235.089L270 244.609L214.22 326.033L182.385 319.179Z" fill="#5869DD"/>
<path d="M158.801 162.703L239.992 235.089L182.385 319.179L103.783 243.014L158.801 162.703Z" fill="url(#paint4_linear_30263_37373)"/>
<path d="M239.992 235.089L158.801 162.703L188.809 172.223L270 244.609L239.992 235.089Z" fill="url(#paint5_linear_30263_37373)"/>
<path d="M182.385 319.179L239.992 235.089M182.385 319.179L214.22 326.033L270 244.609M182.385 319.179L103.783 243.014L158.801 162.703M158.801 162.703L239.992 235.089M158.801 162.703L188.809 172.223L270 244.609M239.992 235.089L270 244.609" stroke="black" stroke-width="1.5" stroke-linejoin="round"/>
<path fill-rule="evenodd" clip-rule="evenodd" d="M204.918 318.333L204.948 318.343C204.939 318.34 204.929 318.336 204.918 318.333Z" fill="black"/>
<path d="M189.625 314.538L201.749 296.174L211.801 299.363L224.313 303.539L220.015 307.987L204.948 318.343C204.939 318.34 204.929 318.336 204.918 318.333C203.663 317.93 191.774 316.365 189.625 314.538Z" fill="black"/>
<path d="M204.948 318.343L220.015 307.987L224.313 303.539L211.801 299.363L201.749 296.174L189.625 314.538C191.774 316.365 203.663 317.93 204.918 318.333M204.948 318.343L204.918 318.333M204.948 318.343C204.939 318.34 204.929 318.336 204.918 318.333M195.891 315.282L204.918 318.333" stroke="black" stroke-width="1.5" stroke-linejoin="round"/>
<path d="M226.313 236.262L180.085 303.742L179.243 298.087L200.273 267.389L210.593 257.525L226.313 236.262Z" fill="black"/>
<path d="M180.085 303.742L117.007 242.621L121.853 242.477L179.243 298.087L180.085 303.742Z" fill="black"/>
<path d="M117.007 242.621L161.159 178.173L162.023 183.84L121.853 242.477L117.007 242.621Z" fill="#F1EFED"/>
<path d="M161.159 178.173L226.313 236.262L221.303 236.691L162.023 183.84L161.159 178.173Z" fill="#5869DD"/>
<path d="M179.243 298.087L221.303 236.691L226.313 236.262L210.593 257.525L200.273 267.389L179.243 298.087Z" fill="#5869DD"/>
<path d="M180.085 303.742L226.313 236.262M180.085 303.742L117.007 242.621M180.085 303.742L179.243 298.087M161.159 178.173L226.313 236.262M161.159 178.173L117.007 242.621M161.159 178.173L162.023 183.84M226.313 236.262L221.303 236.691M226.313 236.262L210.593 257.525L200.273 267.389L179.243 298.087M117.007 242.621L121.853 242.477M179.243 298.087L221.303 236.691M179.243 298.087L121.853 242.477M162.023 183.84L221.303 236.691M162.023 183.84L121.853 242.477" stroke="black" stroke-width="1.5" stroke-linejoin="round"/>
<path fill-rule="evenodd" clip-rule="evenodd" d="M144.773 237.145L137.098 248.349L134.912 246.231L142.515 235.132L144.773 237.145Z" fill="#F1EFED"/>
<path d="M146.258 238.469L137.537 251.2L133.913 247.689L134.912 246.231L137.098 248.349L144.773 237.145L146.258 238.469Z" fill="black"/>
<path d="M144.773 237.145L137.098 248.349L134.912 246.231M144.773 237.145L142.515 235.132L134.912 246.231M144.773 237.145L146.258 238.469L137.537 251.2L133.913 247.689L134.912 246.231" stroke="black" stroke-width="1.5" stroke-linejoin="round"/>
<path d="M192.241 315.603L204.366 297.24L224.825 303.836L213.558 320.282L192.241 315.603Z" fill="url(#paint6_linear_30263_37373)" stroke="black" stroke-width="1.5" stroke-linejoin="round"/>
<path d="M211.057 235.716C210.436 236.792 210.951 238.252 212.206 238.977C213.462 239.701 214.984 239.416 215.605 238.34C216.226 237.263 215.711 235.803 214.455 235.079C213.2 234.354 211.807 234.417 211.057 235.716Z" fill="black"/>
<path d="M176.051 287.388C175.43 288.464 175.945 289.924 177.201 290.648C178.456 291.373 179.978 291.088 180.599 290.011C181.22 288.935 180.705 287.475 179.449 286.751C178.194 286.026 176.801 286.089 176.051 287.388Z" fill="black"/>
<path d="M212.118 316.42C211.808 316.959 211.992 317.647 212.531 317.957C213.069 318.267 213.757 318.083 214.067 317.545C214.378 317.007 214.193 316.319 213.655 316.008C213.117 315.698 212.493 315.771 212.118 316.42Z" fill="black"/>
<path d="M196.501 313.475C196.191 314.013 196.375 314.701 196.913 315.012C197.452 315.322 198.14 315.138 198.45 314.599C198.76 314.061 198.576 313.373 198.038 313.063C197.5 312.752 196.876 312.825 196.501 313.475Z" fill="black"/>
<path d="M204.648 300.858C204.337 301.396 204.522 302.084 205.06 302.395C205.598 302.705 206.286 302.52 206.596 301.982C206.907 301.444 206.722 300.756 206.184 300.446C205.646 300.135 205.022 300.208 204.648 300.858Z" fill="black"/>
<path d="M219.515 305.1C219.204 305.638 219.389 306.326 219.927 306.637C220.465 306.947 221.153 306.763 221.464 306.224C221.774 305.686 221.59 304.998 221.051 304.688C220.513 304.377 219.89 304.45 219.515 305.1Z" fill="black"/>
<path d="M161.573 189.414C161.056 190.311 161.363 191.458 162.26 191.975C163.157 192.493 164.304 192.185 164.821 191.288C165.339 190.391 165.031 189.245 164.134 188.727C163.237 188.21 162.354 188.061 161.573 189.414Z" fill="black"/>
<path d="M126.942 240.438C126.425 241.335 126.732 242.481 127.629 242.999C128.526 243.516 129.673 243.209 130.19 242.312C130.708 241.415 130.4 240.268 129.503 239.75C128.606 239.233 127.723 239.084 126.942 240.438Z" fill="black"/>
<path d="M266.428 235.831L236.42 226.31L244.163 215.008L242.97 193.948L247.866 191.686L246.254 216.214L266.428 235.831Z" fill="black"/>
<path d="M209.556 176.823C266.038 162.548 264.847 153.657 247.866 191.686L242.97 193.948L244.163 215.008L236.42 226.31L186.296 181.621L192.259 172.917L209.556 176.823Z" fill="url(#paint7_linear_30263_37373)"/>
<path d="M236.42 226.31L266.428 235.831L246.254 216.214L247.866 191.686M236.42 226.31L186.296 181.621L192.259 172.917M236.42 226.31L244.163 215.008L242.97 193.948M247.866 191.686C264.847 153.657 266.038 162.548 209.556 176.823L192.259 172.917M247.866 191.686L242.97 193.948M192.259 172.917L215.685 178.206L238.452 168.761L258.549 160.941L242.97 193.948" stroke="black" stroke-width="1.5" stroke-linejoin="round"/>
<path d="M237.374 187.134L228.652 199.864L225.028 196.353L233.63 183.796L237.374 187.134Z" fill="black" stroke="black" stroke-width="1.5" stroke-linejoin="round"/>
<path d="M252.801 88.3558C273.458 100.274 281.7 125.827 273.78 148.949C272.621 152.332 268.015 153.874 266.152 157.103C262.657 163.161 261.32 170.098 256.267 174.236L252.392 172.001C257.352 167.808 261.738 162.631 265.233 156.573C270.085 148.164 272.609 139.117 272.987 130.308C273.731 113.005 266.197 96.6173 251.764 87.775C252.111 87.9638 252.457 88.1573 252.801 88.3558Z" fill="black"/>
<path fill-rule="evenodd" clip-rule="evenodd" d="M272.987 130.308C273.731 113.005 266.197 96.6173 251.764 87.775C228.223 74.9712 201.131 86.3651 186.75 111.292C185.991 112.606 185.258 113.801 184.564 114.932C182.06 119.012 180.066 122.26 179.241 127.308C209.227 57.0603 270.034 81.2273 260.158 144.986L272.987 130.308Z" fill="#5869DD"/>
<path d="M265.233 156.573C261.738 162.631 257.352 167.808 252.392 172.001C256.35 162.397 258.863 153.351 260.158 144.986L272.987 130.308C272.609 139.117 270.085 148.164 265.233 156.573Z" fill="black"/>
<path d="M186.75 111.292C201.343 85.9977 228.221 74.1747 250.791 87.1962C251.119 87.3854 251.443 87.5783 251.764 87.775M186.75 111.292C201.131 86.3651 228.223 74.9712 251.764 87.775M186.75 111.292C185.991 112.606 185.258 113.801 184.564 114.932C182.06 119.012 180.066 122.26 179.241 127.308C209.227 57.0603 270.034 81.2273 260.158 144.986M251.764 87.775C252.111 87.9638 252.457 88.1573 252.801 88.3558C273.458 100.274 281.7 125.827 273.78 148.949C272.621 152.332 268.015 153.874 266.152 157.103C262.657 163.161 261.32 170.098 256.267 174.236L252.392 172.001M251.764 87.775C266.197 96.6173 273.731 113.005 272.987 130.308M252.392 172.001C257.352 167.808 261.738 162.631 265.233 156.573C270.085 148.164 272.609 139.117 272.987 130.308M252.392 172.001C256.35 162.397 258.863 153.351 260.158 144.986M272.987 130.308L260.158 144.986" stroke="black" stroke-width="1.5"/>
<path d="M225.807 164.155C224.21 161.368 221.786 147.255 226.733 144.421C225.394 158.995 227.174 164.442 236.084 167.899C229.327 170.259 226.697 165.709 225.807 164.155Z" fill="black"/>
<path d="M195.895 160.73C197.654 157.681 209.5 143.903 214.047 146.526C214.47 146.77 214.788 147.132 215.015 147.59C206.726 150.961 195.534 163.254 198.273 169.364C192.235 165.188 194.865 162.514 195.895 160.73Z" fill="black"/>
<path d="M182.292 139.744C179.205 129.616 185.515 127.666 187.479 127.068C189.737 126.379 198.058 126.617 202.97 128.956C188.153 129.937 180.692 131.237 184.06 142.972C183.293 142.094 182.674 140.997 182.292 139.744Z" fill="black"/>
<path d="M215.846 138.905C212.617 137.042 211.426 133.06 213.186 130.01C214.945 126.961 218.989 125.999 222.218 127.862C214.56 128.378 212.482 134.231 217.977 139.716C217.25 139.567 216.53 139.3 215.846 138.905Z" fill="black"/>
<path d="M235.148 116.706C232.861 118.66 230.676 119.753 229.139 118.867C226.17 117.154 228.39 109.647 230.778 103.793C228.373 116.112 229.553 118.815 236.869 115.101C236.295 115.678 235.718 116.218 235.148 116.706Z" fill="black"/>
<path d="M234.704 132.505C234.04 130.325 235.583 128.087 237.969 126.074C235.827 131.26 237.36 133.886 243.523 138.21C239.442 137.231 235.594 135.425 234.704 132.505Z" fill="black"/>
<path fill-rule="evenodd" clip-rule="evenodd" d="M184.377 111.657C169.784 136.952 174.675 165.373 196.381 177.896C218.088 190.419 244.491 180.054 259.085 154.76C273.678 129.466 270.186 100.121 248.479 87.5971C226.773 75.0737 198.97 86.3634 184.377 111.657ZM213.186 130.01C211.426 133.06 212.617 137.042 215.846 138.905C216.53 139.3 217.25 139.567 217.977 139.716C220.685 140.268 223.492 139.161 224.879 136.757C226.638 133.707 225.447 129.725 222.218 127.862C218.989 125.999 214.945 126.961 213.186 130.01ZM243.007 94.8305C237.16 91.4572 235.734 93.9295 233.975 96.9791C233.364 98.0375 232.047 100.682 230.778 103.793C228.39 109.647 226.17 117.154 229.139 118.867C230.676 119.753 232.861 118.66 235.148 116.706C235.718 116.218 236.295 115.678 236.869 115.101C240.809 111.145 244.651 105.488 245.668 103.726C247.428 100.676 246.236 96.6935 243.007 94.8305ZM200.18 170.563C203.409 172.426 207.453 171.464 209.212 168.414C210.808 165.648 217.227 152.053 215.015 147.59C214.788 147.132 214.47 146.77 214.047 146.526C209.5 143.903 197.654 157.681 195.895 160.73C194.865 162.514 192.235 165.188 198.273 169.364C198.832 169.751 199.464 170.15 200.18 170.563ZM208.292 95.0458C196.887 97.6968 198.354 104.136 198.819 106.136C199.257 108.02 202.454 113.074 206.269 116.485C207.576 117.653 208.955 118.629 210.32 119.218C211.59 119.767 212.847 119.981 214.024 119.708C219.875 118.348 218.397 103.512 217.615 99.4057C217.576 99.2017 217.539 99.0242 217.505 98.8762C217.032 96.8415 215.122 95.4048 212.646 94.9274C211.548 94.7158 210.339 94.6926 209.094 94.8894C208.828 94.9314 208.56 94.9835 208.292 95.0458ZM187.479 127.068C185.515 127.666 179.205 129.616 182.292 139.744C182.674 140.997 183.293 142.094 184.06 142.972C185.664 144.81 187.914 145.694 189.993 145.06C193.066 144.124 208.174 137.817 206.512 132.363C206.071 130.917 204.742 129.8 202.97 128.956C198.058 126.617 189.737 126.379 187.479 127.068ZM239.32 166.39C242.833 164.378 244.385 160.487 242.788 157.699C241.191 154.912 231.679 141.587 226.733 144.421C221.786 147.255 224.21 161.368 225.807 164.155C226.697 165.709 229.327 170.259 236.084 167.899C237.072 167.554 238.148 167.062 239.32 166.39ZM254.064 138.875C256.028 138.277 262.337 136.324 258.924 125.124C257.618 120.841 254.069 118.129 250.996 119.065C249.262 119.594 243.712 121.885 239.535 124.865C238.985 125.257 238.459 125.661 237.969 126.074C235.583 128.087 234.04 130.325 234.704 132.505C235.594 135.425 239.442 137.231 243.523 138.21C245.268 138.629 247.057 138.897 248.675 139.036C251.084 139.243 253.116 139.164 254.064 138.875Z" fill="url(#paint8_linear_30263_37373)"/>
<path d="M198.819 106.136C198.354 104.136 196.887 97.6968 208.292 95.0458C208.56 94.9835 208.828 94.9314 209.094 94.8894C210.339 94.6926 211.548 94.7158 212.646 94.9274C209.472 96.0583 206.953 97.1803 205.164 98.5401C200.776 101.876 200.778 106.643 206.269 116.485C202.454 113.074 199.257 108.02 198.819 106.136Z" fill="black"/>
<path d="M212.646 94.9274C215.122 95.4048 217.032 96.8415 217.505 98.8762C217.539 99.0242 217.576 99.2017 217.615 99.4057C212.769 96.1102 210.037 96.9211 205.164 98.5401C206.953 97.1803 209.472 96.0583 212.646 94.9274Z" fill="black"/>
<path d="M222.218 127.862C225.447 129.725 226.638 133.707 224.879 136.757C223.492 139.161 220.685 140.268 217.977 139.716M222.218 127.862C218.989 125.999 214.945 126.961 213.186 130.01C211.426 133.06 212.617 137.042 215.846 138.905C216.53 139.3 217.25 139.567 217.977 139.716M222.218 127.862C214.56 128.378 212.482 134.231 217.977 139.716M226.733 144.421C231.679 141.587 241.191 154.912 242.788 157.699C244.385 160.487 242.833 164.378 239.32 166.39C238.148 167.062 237.072 167.554 236.084 167.899M226.733 144.421C221.786 147.255 224.21 161.368 225.807 164.155C226.697 165.709 229.327 170.259 236.084 167.899M226.733 144.421C225.394 158.995 227.174 164.442 236.084 167.899M234.704 132.505C234.04 130.325 235.583 128.087 237.969 126.074M234.704 132.505C233.903 129.877 236.31 127.166 239.535 124.865M234.704 132.505C235.594 135.425 239.442 137.231 243.523 138.21M237.969 126.074C235.827 131.26 237.36 133.886 243.523 138.21M237.969 126.074C238.459 125.661 238.985 125.257 239.535 124.865M230.778 103.793C228.39 109.647 226.17 117.154 229.139 118.867C230.676 119.753 232.861 118.66 235.148 116.706C235.718 116.218 236.295 115.678 236.869 115.101M230.778 103.793C232.047 100.682 233.364 98.0375 233.975 96.9791C235.734 93.9295 237.16 91.4572 243.007 94.8305C246.236 96.6935 247.428 100.676 245.668 103.726C244.651 105.488 240.809 111.145 236.869 115.101M230.778 103.793C228.373 116.112 229.553 118.815 236.869 115.101M215.015 147.59C217.227 152.053 210.808 165.648 209.212 168.414C207.453 171.464 203.409 172.426 200.18 170.563C199.464 170.15 198.832 169.751 198.273 169.364M215.015 147.59C214.788 147.132 214.47 146.77 214.047 146.526C209.5 143.903 197.654 157.681 195.895 160.73C194.865 162.514 192.235 165.188 198.273 169.364M215.015 147.59C206.726 150.961 195.534 163.254 198.273 169.364M184.06 142.972C183.293 142.094 182.674 140.997 182.292 139.744C179.205 129.616 185.515 127.666 187.479 127.068C189.737 126.379 198.058 126.617 202.97 128.956M184.06 142.972C185.664 144.81 187.914 145.694 189.993 145.06C193.066 144.124 208.174 137.817 206.512 132.363C206.071 130.917 204.742 129.8 202.97 128.956M184.06 142.972C180.692 131.237 188.153 129.937 202.97 128.956M239.535 124.865C243.712 121.885 249.262 119.594 250.996 119.065C254.069 118.129 257.618 120.841 258.924 125.124C262.337 136.324 256.028 138.277 254.064 138.875C253.116 139.164 251.084 139.243 248.675 139.036C247.057 138.897 245.268 138.629 243.523 138.21M212.646 94.9274C211.548 94.7158 210.339 94.6926 209.094 94.8894C208.828 94.9314 208.56 94.9835 208.292 95.0458C196.887 97.6968 198.354 104.136 198.819 106.136C199.257 108.02 202.454 113.074 206.269 116.485M212.646 94.9274C215.122 95.4048 217.032 96.8415 217.505 98.8762C217.539 99.0242 217.576 99.2017 217.615 99.4057M212.646 94.9274C209.472 96.0583 206.953 97.1803 205.164 98.5401M206.269 116.485C207.576 117.653 208.955 118.629 210.32 119.218C211.59 119.767 212.847 119.981 214.024 119.708C219.875 118.348 218.397 103.512 217.615 99.4057M206.269 116.485C200.778 106.643 200.776 101.876 205.164 98.5401M217.615 99.4057C212.769 96.1102 210.037 96.9211 205.164 98.5401M184.377 111.657C169.784 136.952 174.675 165.373 196.381 177.896C218.088 190.419 244.491 180.054 259.085 154.76C273.678 129.466 270.186 100.121 248.479 87.5971C226.773 75.0737 198.97 86.3634 184.377 111.657Z" stroke="black" stroke-width="1.5"/>
<path d="M292.722 225.662C291.016 222.678 288.437 207.561 293.733 204.52C292.286 220.135 294.185 225.968 303.717 229.663C296.483 232.199 293.673 227.327 292.722 225.662Z" fill="black"/>
<path d="M260.715 222.024C262.601 218.755 275.292 203.982 280.156 206.788C280.608 207.049 280.948 207.436 281.191 207.927C272.317 211.547 260.327 224.729 263.252 231.272C256.794 226.804 259.612 223.937 260.715 222.024Z" fill="black"/>
<path d="M246.18 199.555C242.887 188.707 249.642 186.611 251.744 185.968C254.161 185.229 263.065 185.475 268.32 187.976C252.462 189.042 244.476 190.442 248.069 203.012C247.249 202.071 246.587 200.897 246.18 199.555Z" fill="black"/>
<path d="M282.089 198.622C278.635 196.629 277.365 192.364 279.251 189.095C281.137 185.826 285.466 184.791 288.919 186.783C280.723 187.345 278.494 193.617 284.368 199.487C283.59 199.329 282.82 199.043 282.089 198.622Z" fill="black"/>
<path d="M302.768 174.818C300.318 176.914 297.979 178.088 296.335 177.14C293.16 175.307 295.542 167.263 298.104 160.989C295.518 174.19 296.778 177.084 304.612 173.097C303.996 173.716 303.379 174.295 302.768 174.818Z" fill="black"/>
<path d="M302.276 191.745C301.568 189.41 303.221 187.011 305.777 184.852C303.479 190.41 305.117 193.222 311.708 197.848C307.342 196.803 303.226 194.873 302.276 191.745Z" fill="black"/>
<path fill-rule="evenodd" clip-rule="evenodd" d="M249.089 169.837C233.446 196.951 238.652 227.394 261.868 240.789C281.323 252.013 313.351 243.052 328.994 215.938C344.637 188.824 340.93 157.388 317.714 143.994C294.498 130.599 264.733 142.723 249.089 169.837ZM279.251 189.095C277.365 192.364 278.635 196.629 282.089 198.622C282.82 199.043 283.59 199.329 284.368 199.487C287.266 200.076 290.271 198.888 291.758 196.31C293.644 193.041 292.373 188.776 288.919 186.783C285.466 184.791 281.137 185.826 279.251 189.095ZM311.201 151.374C304.947 147.766 303.418 150.416 301.532 153.685C300.878 154.82 299.466 157.654 298.104 160.989C295.542 167.263 293.16 175.307 296.335 177.14C297.979 178.088 300.318 176.914 302.768 174.818C303.379 174.295 303.996 173.716 304.612 173.097C308.832 168.854 312.949 162.79 314.039 160.901C315.925 157.632 314.654 153.367 311.201 151.374ZM265.29 232.554C268.744 234.546 273.073 233.511 274.959 230.242C276.669 227.278 283.553 212.706 281.191 207.927C280.948 207.436 280.608 207.049 280.156 206.788C275.292 203.982 262.601 218.755 260.715 222.024C259.612 223.937 256.794 226.804 263.252 231.272C263.849 231.685 264.526 232.112 265.29 232.554ZM274.05 151.64C261.842 154.492 263.405 161.39 263.901 163.531C264.368 165.55 267.784 170.96 271.863 174.611C273.26 175.861 274.735 176.905 276.196 177.536C277.553 178.122 278.899 178.351 280.159 178.056C286.421 176.593 284.855 160.701 284.023 156.302C283.981 156.083 283.942 155.893 283.905 155.735C283.401 153.555 281.359 152.018 278.709 151.509C277.535 151.284 276.241 151.26 274.908 151.472C274.623 151.517 274.337 151.573 274.05 151.64ZM251.744 185.968C249.642 186.611 242.887 188.707 246.18 199.555C246.587 200.897 247.249 202.071 248.069 203.012C249.783 204.978 252.19 205.923 254.416 205.242C257.705 204.236 273.879 197.463 272.106 191.622C271.636 190.073 270.215 188.878 268.32 187.976C263.065 185.475 254.161 185.229 251.744 185.968ZM307.181 228.043C310.942 225.883 312.608 221.713 310.902 218.729C309.196 215.744 299.03 201.478 293.733 204.52C288.437 207.561 291.016 222.678 292.722 225.662C293.673 227.327 296.483 232.199 303.717 229.663C304.775 229.293 305.927 228.764 307.181 228.043ZM322.988 198.55C325.09 197.907 331.844 195.808 328.203 183.812C326.81 179.225 323.015 176.323 319.726 177.329C317.869 177.897 311.927 180.358 307.454 183.555C306.866 183.975 306.302 184.409 305.777 184.852C303.221 187.011 301.568 189.41 302.276 191.745C303.226 194.873 307.342 196.803 311.708 197.848C313.576 198.295 315.489 198.58 317.22 198.727C319.799 198.947 321.973 198.861 322.988 198.55Z" fill="url(#paint9_linear_30263_37373)"/>
<path d="M263.901 163.531C263.405 161.39 261.842 154.492 274.05 151.64C274.337 151.573 274.623 151.517 274.908 151.472C276.241 151.26 277.535 151.284 278.709 151.509C275.311 152.724 272.615 153.929 270.699 155.387C265.999 158.965 265.997 164.073 271.863 174.611C267.784 170.96 264.368 165.55 263.901 163.531Z" fill="black"/>
<path d="M278.709 151.509C281.359 152.018 283.401 153.555 283.905 155.735C283.942 155.893 283.981 156.083 284.023 156.302C278.84 152.776 275.916 153.648 270.699 155.387C272.615 153.929 275.311 152.724 278.709 151.509Z" fill="black"/>
<path d="M288.919 186.783C292.373 188.776 293.644 193.041 291.758 196.31C290.271 198.888 287.266 200.076 284.368 199.487M288.919 186.783C285.466 184.791 281.137 185.826 279.251 189.095C277.365 192.364 278.635 196.629 282.089 198.622C282.82 199.043 283.59 199.329 284.368 199.487M288.919 186.783C280.723 187.345 278.494 193.617 284.368 199.487M293.733 204.52C299.03 201.478 309.196 215.744 310.902 218.729C312.608 221.713 310.942 225.883 307.181 228.043C305.927 228.764 304.775 229.293 303.717 229.663M293.733 204.52C288.437 207.561 291.016 222.678 292.722 225.662C293.673 227.327 296.483 232.199 303.717 229.663M293.733 204.52C292.286 220.135 294.185 225.968 303.717 229.663M302.276 191.745C301.568 189.41 303.221 187.011 305.777 184.852M302.276 191.745C301.422 188.93 304 186.023 307.454 183.555M302.276 191.745C303.226 194.873 307.342 196.803 311.708 197.848M305.777 184.852C303.479 190.41 305.117 193.222 311.708 197.848M305.777 184.852C306.302 184.409 306.866 183.975 307.454 183.555M298.104 160.989C295.542 167.263 293.16 175.307 296.335 177.14C297.979 178.088 300.318 176.914 302.768 174.818C303.379 174.295 303.996 173.716 304.612 173.097M298.104 160.989C299.466 157.654 300.878 154.82 301.532 153.685C303.418 150.416 304.947 147.766 311.201 151.374C314.654 153.367 315.925 157.632 314.039 160.901C312.949 162.79 308.832 168.854 304.612 173.097M298.104 160.989C295.518 174.19 296.778 177.084 304.612 173.097M281.191 207.927C283.553 212.706 276.669 227.278 274.959 230.242C273.073 233.511 268.744 234.546 265.29 232.554C264.526 232.112 263.849 231.685 263.252 231.272M281.191 207.927C280.948 207.436 280.608 207.049 280.156 206.788C275.292 203.982 262.601 218.755 260.715 222.024C259.612 223.937 256.794 226.804 263.252 231.272M281.191 207.927C272.317 211.547 260.327 224.729 263.252 231.272M248.069 203.012C247.249 202.071 246.587 200.897 246.18 199.555C242.887 188.707 249.642 186.611 251.744 185.968C254.161 185.229 263.065 185.475 268.32 187.976M248.069 203.012C249.783 204.978 252.19 205.923 254.416 205.242C257.705 204.236 273.879 197.463 272.106 191.622C271.636 190.073 270.215 188.878 268.32 187.976M248.069 203.012C244.476 190.442 252.462 189.042 268.32 187.976M307.454 183.555C311.927 180.358 317.869 177.897 319.726 177.329C323.015 176.323 326.81 179.225 328.203 183.812C331.844 195.808 325.09 197.907 322.988 198.55C321.973 198.861 319.799 198.947 317.22 198.727C315.489 198.58 313.576 198.295 311.708 197.848M278.709 151.509C277.535 151.284 276.241 151.26 274.908 151.472C274.623 151.517 274.337 151.573 274.05 151.64C261.842 154.492 263.405 161.39 263.901 163.531C264.368 165.55 267.784 170.96 271.863 174.611M278.709 151.509C281.359 152.018 283.401 153.555 283.905 155.735C283.942 155.893 283.981 156.083 284.023 156.302M278.709 151.509C275.311 152.724 272.615 153.929 270.699 155.387M271.863 174.611C273.26 175.861 274.735 176.905 276.196 177.536C277.553 178.122 278.899 178.351 280.159 178.056C286.421 176.593 284.855 160.701 284.023 156.302M271.863 174.611C265.997 164.073 265.999 158.965 270.699 155.387M284.023 156.302C278.84 152.776 275.916 153.648 270.699 155.387M249.089 169.837C233.446 196.951 238.652 227.394 261.868 240.789C281.323 252.013 313.351 243.052 328.994 215.938C344.637 188.824 340.93 157.388 317.714 143.994C294.498 130.599 264.733 142.723 249.089 169.837Z" stroke="black" stroke-width="1.5"/>
<path d="M231.987 217.482C231.366 218.558 231.88 220.018 233.136 220.742C234.392 221.467 235.913 221.181 236.534 220.105C237.155 219.029 236.641 217.569 235.385 216.844C234.129 216.12 232.736 216.182 231.987 217.482Z" fill="black"/>
<path d="M190.374 180.055C189.856 180.952 190.164 182.098 191.061 182.616C191.958 183.133 193.105 182.826 193.622 181.929C194.14 181.032 193.832 179.885 192.935 179.368C192.038 178.85 191.155 178.701 190.374 180.055Z" fill="black"/>
<circle cx="4.125" cy="4.125" r="4.125" transform="matrix(-0.866176 -0.499739 -0.499739 0.866176 220.094 191.578)" fill="black" stroke="black" stroke-width="1.125"/>
<circle cx="3.375" cy="3.375" r="3.375" transform="matrix(-0.866176 -0.499739 -0.499739 0.866176 217.77 191.102)" fill="#5869DD" stroke="black" stroke-width="1.125"/>
<path d="M118.349 202.255C116.244 199.988 117.597 194.647 121.517 190.047C125.59 185.269 130.89 183.1 133.356 185.201C135.822 187.303 134.52 192.88 130.448 197.658C126.376 202.436 121.075 204.605 118.609 202.504L118.349 202.255Z" fill="black"/>
<path d="M133.356 185.201C130.89 183.1 125.59 185.269 121.517 190.047C117.597 194.647 116.244 199.988 118.349 202.255L108.515 192.83L108.226 192.553C106.449 190.639 106.912 186.766 109.193 182.937C109.75 182.002 110.416 181.07 111.183 180.169C115.255 175.391 120.663 173.313 123.261 175.527L133.356 185.201Z" fill="url(#paint10_linear_30263_37373)"/>
<path d="M106.442 190.843C103.844 188.629 105.038 182.96 109.11 178.182C113.182 173.404 118.59 171.326 121.188 173.541L123.261 175.527C120.663 173.313 115.255 175.391 111.183 180.169C110.416 181.07 109.75 182.002 109.193 182.937C106.912 186.766 106.449 190.639 108.226 192.553L106.442 190.843Z" fill="#F1EFED"/>
<path d="M121.188 173.541C118.59 171.326 113.182 173.404 109.11 178.182C105.038 182.96 103.844 188.629 106.442 190.843L108.226 192.553M121.188 173.541L133.356 185.201M121.188 173.541L123.261 175.527M118.609 202.504C121.075 204.605 126.376 202.436 130.448 197.658C134.52 192.88 135.822 187.303 133.356 185.201M118.609 202.504L118.349 202.255M118.609 202.504C118.518 202.425 118.431 202.342 118.349 202.255M133.356 185.201C130.89 183.1 125.59 185.269 121.517 190.047C117.597 194.647 116.244 199.988 118.349 202.255M133.356 185.201L123.261 175.527M108.515 192.83C108.413 192.743 108.317 192.651 108.226 192.553M108.515 192.83L118.349 202.255M108.515 192.83L108.226 192.553M123.261 175.527C120.663 173.313 115.255 175.391 111.183 180.169C110.416 181.07 109.75 182.002 109.193 182.937C106.912 186.766 106.449 190.639 108.226 192.553M118.349 202.255L108.226 192.553" stroke="black" stroke-width="1.5"/>
<path d="M136.579 204.824C134.751 207.418 134.064 210.206 134.981 211.188C135.013 211.223 135.047 211.255 135.083 211.285C136.15 212.168 138.548 210.708 140.44 208.023C142.332 205.338 143.002 202.445 141.935 201.562C140.869 200.679 138.471 202.139 136.579 204.824Z" fill="#D9D9D9"/>
<path d="M123.178 200.054C122.054 199.123 122.677 196.192 124.57 193.507C126.462 190.822 128.906 189.4 130.03 190.331L141.935 201.562C140.869 200.679 138.471 202.139 136.579 204.824C134.751 207.418 134.064 210.206 134.981 211.188L123.178 200.054Z" fill="#5869DD"/>
<path d="M135.083 211.285C136.15 212.168 138.548 210.708 140.44 208.023C142.332 205.338 143.002 202.445 141.935 201.562M135.083 211.285L134.981 211.188M135.083 211.285C135.047 211.255 135.013 211.223 134.981 211.188M141.935 201.562C140.869 200.679 138.471 202.139 136.579 204.824C134.751 207.418 134.064 210.206 134.981 211.188M141.935 201.562L130.03 190.331C128.906 189.4 126.462 190.822 124.57 193.507C122.677 196.192 122.054 199.123 123.178 200.054L134.981 211.188" stroke="black" stroke-width="1.5"/>
<path d="M223.988 269.582L216.03 281.875L207.097 282.35L215.805 268.758L223.988 269.582Z" fill="black"/>
<path d="M203.512 249.543L195.704 248.069C193.338 246.498 193.117 245.694 192.469 243.171L200.275 244.646L200.277 244.646C200.925 247.168 201.146 247.972 203.512 249.543Z" fill="black"/>
<path d="M223.988 269.582L215.805 268.758L195.704 248.069L203.512 249.543L223.988 269.582Z" fill="#5869DD"/>
<path d="M192.469 243.171L138.489 193.412L146.295 194.886L200.275 244.646L192.469 243.171Z" fill="#5869DD"/>
<path d="M215.805 268.758L207.097 282.35L186.996 261.661L166.246 251.854L125.029 213.86L138.486 193.412L138.489 193.412L192.469 243.171C193.117 245.694 193.338 246.498 195.704 248.069L215.805 268.758Z" fill="url(#paint11_linear_30263_37373)"/>
<path d="M223.988 269.582L216.03 281.875L207.097 282.35M223.988 269.582L215.805 268.758M223.988 269.582L203.512 249.543M207.097 282.35L215.805 268.758M207.097 282.35L186.996 261.661L166.246 251.854L125.029 213.86M215.805 268.758L195.704 248.069M195.704 248.069L203.512 249.543M195.704 248.069C193.338 246.498 193.117 245.694 192.469 243.171M203.512 249.543C201.146 247.972 200.925 247.168 200.277 244.646L200.275 244.646M192.469 243.171L200.275 244.646M192.469 243.171L138.489 193.412M200.276 244.647L200.275 244.646M125.029 213.86L138.487 193.411L138.489 193.412M125.029 213.86L138.486 193.412L138.489 193.412M200.275 244.646L146.295 194.886L138.489 193.412" stroke="black" stroke-width="1.5" stroke-linejoin="round"/>
<path d="M226.52 293.257L219.823 286.941C219.121 286.188 219.401 284.418 220.391 282.466L227.025 288.724C226.055 290.695 225.817 292.505 226.52 293.257Z" fill="black"/>
<path d="M233.474 283.631C232.408 282.748 235.974 287.678 234.082 290.363C233.653 290.972 232.977 294.53 227.025 288.724L220.391 282.466C220.694 281.868 221.064 281.253 221.493 280.644C223.385 277.959 225.783 276.499 226.85 277.382L233.474 283.631Z" fill="#5869DD"/>
<path d="M214.716 282.123C213.593 281.192 214.216 278.261 216.108 275.576C218 272.891 220.445 271.469 221.568 272.4L226.85 277.382C225.783 276.499 223.385 277.959 221.493 280.644C221.064 281.253 220.694 281.868 220.391 282.466C219.401 284.418 219.121 286.188 219.823 286.941L214.716 282.123Z" fill="#F1EFED"/>
<path d="M214.716 282.123C213.593 281.192 214.216 278.261 216.108 275.576C218 272.891 220.445 271.469 221.568 272.4M214.716 282.123L226.52 293.257M214.716 282.123L219.823 286.941M221.568 272.4L233.474 283.631M221.568 272.4L226.85 277.382M233.474 283.631C232.408 282.748 235.974 287.678 234.082 290.363C233.653 290.972 232.977 294.53 227.025 288.724M233.474 283.631L226.85 277.382M226.52 293.257L226.622 293.354C226.586 293.324 226.552 293.292 226.52 293.257ZM226.52 293.257C225.817 292.505 226.055 290.695 227.025 288.724M226.52 293.257L219.823 286.941M226.85 277.382C225.783 276.499 223.385 277.959 221.493 280.644C221.064 281.253 220.694 281.868 220.391 282.466M219.823 286.941C219.121 286.188 219.401 284.418 220.391 282.466M220.391 282.466L227.025 288.724" stroke="black" stroke-width="1.5"/>
<path d="M234.62 290.723C238.001 286.691 241.33 285.02 243.581 284.431C244.313 284.239 244.9 284.287 245.286 284.611C243.754 283.121 237.627 277.868 227.847 287.753C221.452 295.58 227.458 301.97 228.792 303.64C227.814 301.913 230.442 295.705 234.62 290.723Z" fill="url(#paint12_linear_30263_37373)"/>
<path fill-rule="evenodd" clip-rule="evenodd" d="M243.581 284.431C241.33 285.02 238.001 286.691 234.62 290.723C230.442 295.705 227.814 301.913 228.792 303.64C228.863 303.766 228.951 303.874 229.058 303.963C229.058 303.963 228.959 303.85 228.792 303.64C234.727 301.476 245.694 286.76 243.581 284.431ZM243.581 284.431C244.313 284.239 244.9 284.287 245.286 284.611C245.286 284.611 244.643 284.514 243.581 284.431Z" fill="black"/>
<path d="M240.019 296.675C244.501 291.331 246.859 285.929 245.286 284.611C245.286 284.611 244.643 284.514 243.581 284.431C245.694 286.76 234.727 301.476 228.792 303.64C228.959 303.85 229.058 303.963 229.058 303.963C230.63 305.282 235.538 302.018 240.019 296.675Z" fill="#F1EFED"/>
<path d="M245.286 284.611C246.859 285.929 244.501 291.331 240.019 296.675C235.538 302.018 230.63 305.282 229.058 303.963M245.286 284.611C245.286 284.611 244.643 284.514 243.581 284.431M245.286 284.611C244.9 284.287 244.313 284.239 243.581 284.431M245.286 284.611C243.754 283.121 237.627 277.868 227.847 287.753C221.452 295.58 227.458 301.97 228.792 303.64M229.058 303.963C229.058 303.963 228.959 303.85 228.792 303.64M229.058 303.963C228.951 303.874 228.863 303.766 228.792 303.64M243.581 284.431C241.33 285.02 238.001 286.691 234.62 290.723C230.442 295.705 227.814 301.913 228.792 303.64M243.581 284.431C245.694 286.76 234.727 301.476 228.792 303.64" stroke="black" stroke-width="1.5"/>
<ellipse cx="3" cy="3.375" rx="3" ry="3.375" transform="matrix(-0.866176 -0.499739 -0.499739 0.866176 201.563 259.679)" fill="black" stroke="black" stroke-width="1.2"/>
<ellipse cx="2.625" cy="3.375" rx="2.625" ry="3.375" transform="matrix(-0.866176 -0.499739 -0.499739 0.866176 200.262 258.929)" fill="url(#paint13_linear_30263_37373)" stroke="black" stroke-width="1.2"/>
<path d="M245.729 260.913C246.742 261.498 254.645 253.967 250.961 251.842C250.961 251.842 246.569 248.52 243.529 253.009C240.488 257.498 245.729 260.913 245.729 260.913Z" fill="black" stroke="black" stroke-width="1.5" stroke-linejoin="round"/>
<ellipse cx="3.75" cy="4.875" rx="3.75" ry="4.875" transform="matrix(-0.853212 -0.521564 -0.521564 0.853212 212.061 307.516)" stroke="black" stroke-width="1.2"/>
<ellipse cx="3.75" cy="4.875" rx="3.75" ry="4.875" transform="matrix(-0.853212 -0.521564 -0.521564 0.853212 212.711 307.891)" fill="url(#paint14_linear_30263_37373)" stroke="black" stroke-width="1.2"/>
<path d="M209.081 311.419C209.997 309.919 209.814 308.137 208.671 307.438C208.379 307.26 208.053 307.169 207.715 307.158M209.081 311.419C207.714 311.496 206.927 311.506 204.506 309.862M209.081 311.419C208.376 312.571 207.227 313.221 206.214 313.144M204.506 309.862C204.603 309.533 204.747 309.204 204.941 308.888C205.624 307.771 206.725 307.125 207.715 307.158M204.506 309.862C204.144 311.091 204.448 312.318 205.351 312.869C205.615 313.031 205.909 313.121 206.214 313.144M207.715 307.158C208.902 309.765 208.188 311.012 206.214 313.144" stroke="black" stroke-width="0.75"/>
<path d="M205.773 276.397C205.462 276.935 205.647 277.623 206.185 277.934C206.723 278.244 207.411 278.059 207.721 277.521C208.032 276.983 207.847 276.295 207.309 275.985C206.771 275.674 206.147 275.747 205.773 276.397Z" fill="black"/>
<path d="M210.919 268.975C210.609 269.513 210.793 270.201 211.331 270.512C211.869 270.822 212.557 270.638 212.868 270.099C213.178 269.561 212.994 268.873 212.456 268.563C211.918 268.252 211.294 268.325 210.919 268.975Z" fill="black"/>
<path d="M138.835 198.811C138.525 199.349 138.709 200.037 139.247 200.348C139.786 200.658 140.473 200.474 140.784 199.935C141.094 199.397 140.91 198.709 140.372 198.399C139.834 198.088 139.21 198.161 138.835 198.811Z" fill="black"/>
<path d="M128.267 212.623C127.956 213.162 128.141 213.85 128.679 214.16C129.217 214.471 129.905 214.286 130.216 213.748C130.526 213.21 130.342 212.522 129.803 212.211C129.265 211.901 128.642 211.974 128.267 212.623Z" fill="black"/>
<ellipse cx="9.75" cy="10.125" rx="9.75" ry="10.125" transform="matrix(-0.866176 -0.499739 -0.499739 0.866176 156.463 210.28)" fill="#5869DD" stroke="black" stroke-width="1.5"/>
<path d="M134.7 208.98C132.216 213.286 133.257 218.538 137.024 220.711C137.821 221.171 138.677 221.457 139.553 221.58C140.579 221.724 141.634 221.646 142.66 221.366C143.785 221.059 144.874 220.509 145.85 219.743C146.818 218.983 147.674 218.01 148.343 216.851C149.011 215.692 149.425 214.464 149.598 213.246C149.773 212.018 149.704 210.8 149.407 209.672C148.904 207.766 147.749 206.118 146.019 205.12C142.252 202.947 137.184 204.675 134.7 208.98Z" fill="black"/>
<path d="M148.343 216.851C149.011 215.692 149.425 214.464 149.598 213.246M148.343 216.851L149.598 213.246M148.343 216.851L151.216 219.375M148.343 216.851C147.674 218.01 146.818 218.983 145.85 219.743M149.598 213.246L152.728 213.753M149.598 213.246C149.773 212.018 149.704 210.8 149.407 209.672M147.993 222.71L145.85 219.743M145.85 219.743C144.874 220.509 143.785 221.059 142.66 221.366M144.545 224.185L142.66 221.366M142.66 221.366C141.634 221.646 140.579 221.724 139.553 221.58M139.71 223.56L139.553 221.58M139.553 221.58C138.677 221.457 137.821 221.171 137.024 220.711C133.257 218.538 132.216 213.286 134.7 208.98C137.184 204.675 142.252 202.947 146.019 205.12C147.749 206.118 148.904 207.766 149.407 209.672M149.407 209.672L151.847 209.348" stroke="black" stroke-width="1.5"/>
<ellipse cx="7.125" cy="7.875" rx="7.125" ry="7.875" transform="matrix(-0.866176 -0.499739 -0.499739 0.866176 151.442 209.977)" fill="url(#paint15_linear_30263_37373)"/>
<ellipse cx="5.8065" cy="6.62902" rx="5.8065" ry="6.62902" transform="matrix(-0.907661 -0.419703 -0.419703 0.907661 168.196 226.57)" fill="#5869DD" stroke="black" stroke-width="0.75"/>
<ellipse cx="4.81704" cy="5.38123" rx="4.81704" ry="5.38123" transform="matrix(-0.907661 -0.419703 -0.419703 0.907661 166.342 227.234)" fill="black"/>
<path d="M158.364 234.747C159.788 235.246 160.306 235.01 160.925 234.06C160.195 230.429 160.007 229.037 160.588 225.639C159.663 224.97 159.069 225.026 157.889 225.814C157.008 229.409 157.346 231.281 158.364 234.747Z" fill="url(#paint16_linear_30263_37373)" stroke="black" stroke-width="0.75" stroke-linecap="round" stroke-linejoin="round"/>
<defs>
<linearGradient id="paint0_linear_30263_37373" x1="128.692" y1="102.826" x2="126.886" y2="154.879" gradientUnits="userSpaceOnUse">
<stop stop-color="#D6FFBB"/>
<stop offset="1" stop-color="#5869DD"/>
</linearGradient>
<linearGradient id="paint1_linear_30263_37373" x1="64.9189" y1="75.266" x2="93.6084" y2="169.883" gradientUnits="userSpaceOnUse">
<stop stop-color="#D6FFBB"/>
<stop offset="1" stop-color="#5869DD"/>
</linearGradient>
<linearGradient id="paint2_linear_30263_37373" x1="150.415" y1="115.113" x2="133.702" y2="166.943" gradientUnits="userSpaceOnUse">
<stop stop-color="#D6FFBB"/>
<stop offset="1" stop-color="#5869DD"/>
</linearGradient>
<linearGradient id="paint3_linear_30263_37373" x1="164.587" y1="102.402" x2="135.017" y2="183.739" gradientUnits="userSpaceOnUse">
<stop stop-color="#D6FFBB"/>
<stop offset="1" stop-color="#5869DD"/>
</linearGradient>
<linearGradient id="paint4_linear_30263_37373" x1="141.812" y1="87.0945" x2="202.312" y2="303.4" gradientUnits="userSpaceOnUse">
<stop stop-color="#D6FFBB"/>
<stop offset="1" stop-color="#5869DD"/>
</linearGradient>
<linearGradient id="paint5_linear_30263_37373" x1="178.788" y1="266.883" x2="239.693" y2="217.599" gradientUnits="userSpaceOnUse">
<stop stop-color="#D6FFBB"/>
<stop offset="1" stop-color="#5869DD"/>
</linearGradient>
<linearGradient id="paint6_linear_30263_37373" x1="249.423" y1="305.04" x2="198.314" y2="314.084" gradientUnits="userSpaceOnUse">
<stop stop-color="#D6FFBB"/>
<stop offset="1" stop-color="#5869DD"/>
</linearGradient>
<linearGradient id="paint7_linear_30263_37373" x1="179.47" y1="193.367" x2="254.491" y2="181.736" gradientUnits="userSpaceOnUse">
<stop stop-color="#D6FFBB"/>
<stop offset="1" stop-color="#5869DD"/>
</linearGradient>
<linearGradient id="paint8_linear_30263_37373" x1="151.994" y1="158.781" x2="297.239" y2="106.637" gradientUnits="userSpaceOnUse">
<stop stop-color="#D6FFBB"/>
<stop offset="1" stop-color="#5869DD"/>
</linearGradient>
<linearGradient id="paint9_linear_30263_37373" x1="214.386" y1="220.355" x2="369.997" y2="164.683" gradientUnits="userSpaceOnUse">
<stop stop-color="#D6FFBB"/>
<stop offset="1" stop-color="#5869DD"/>
</linearGradient>
<linearGradient id="paint10_linear_30263_37373" x1="132.297" y1="195.172" x2="107.25" y2="180.721" gradientUnits="userSpaceOnUse">
<stop stop-color="#D6FFBB"/>
<stop offset="1" stop-color="#5869DD"/>
</linearGradient>
<linearGradient id="paint11_linear_30263_37373" x1="134.663" y1="139.256" x2="204.537" y2="289.417" gradientUnits="userSpaceOnUse">
<stop stop-color="#D6FFBB"/>
<stop offset="1" stop-color="#5869DD"/>
</linearGradient>
<linearGradient id="paint12_linear_30263_37373" x1="256.42" y1="277.901" x2="225.174" y2="286.283" gradientUnits="userSpaceOnUse">
<stop stop-color="#D6FFBB"/>
<stop offset="1" stop-color="#5869DD"/>
</linearGradient>
<linearGradient id="paint13_linear_30263_37373" x1="26.25" y1="10.6071" x2="-3.75667" y2="1.70165" gradientUnits="userSpaceOnUse">
<stop stop-color="#D6FFBB"/>
<stop offset="1" stop-color="#5869DD"/>
</linearGradient>
<linearGradient id="paint14_linear_30263_37373" x1="-8.91612" y1="-3.41785" x2="7.5" y2="4.875" gradientUnits="userSpaceOnUse">
<stop stop-color="#D6FFBB"/>
<stop offset="1" stop-color="#5869DD"/>
</linearGradient>
<linearGradient id="paint15_linear_30263_37373" x1="19.125" y1="10.5" x2="-2.25" y2="7.5" gradientUnits="userSpaceOnUse">
<stop stop-color="#D6FFBB"/>
<stop offset="1" stop-color="#5869DD"/>
</linearGradient>
<linearGradient id="paint16_linear_30263_37373" x1="165.072" y1="220.868" x2="159.25" y2="233.96" gradientUnits="userSpaceOnUse">
<stop stop-color="#D6FFBB"/>
<stop offset="1" stop-color="#5869DD"/>
</linearGradient>
</defs>
</svg>
