<svg width="316" height="266" viewBox="0 0 316 266" fill="none" xmlns="http://www.w3.org/2000/svg">
<circle cx="25" cy="52" r="25" fill="#1F5A7B"/>
<path d="M33.9535 60.22V64H16.7455V60.58L25.4575 51.184C26.4895 50.056 27.2455 49.024 27.7255 48.088C28.2055 47.152 28.4455 46.228 28.4455 45.316C28.4455 44.14 28.0975 43.252 27.4015 42.652C26.7295 42.052 25.7575 41.752 24.4855 41.752C22.2295 41.752 19.9135 42.64 17.5375 44.416L15.9895 41.032C16.9975 40.12 18.2935 39.4 19.8775 38.872C21.4615 38.32 23.0575 38.044 24.6655 38.044C27.2335 38.044 29.2615 38.68 30.7495 39.952C32.2615 41.2 33.0175 42.892 33.0175 45.028C33.0175 46.492 32.6935 47.872 32.0455 49.168C31.4215 50.464 30.3655 51.916 28.8775 53.524L22.5775 60.22H33.9535Z" fill="white"/>
<path d="M290.396 188.543L240.987 160.018C235.428 156.807 230.905 148.173 230.905 140.748V9.17318C230.905 5.37442 227.798 4.5456 229.697 3.19877C229.731 3.1297 234.669 0.712315 234.738 0.677781C236.775 -0.116504 238.916 -0.461846 241.574 1.05766L290.948 29.6174C296.507 32.8291 301.03 41.4626 301.03 48.8874V180.462C301.03 184.399 299.753 187.231 297.716 188.509C297.578 188.578 291.811 191.513 291.673 191.548C289.878 192.169 292.813 189.959 290.396 188.543Z" fill="#1F5A7B"/>
<path d="M237.875 1.85179C238.773 1.85179 239.671 2.12807 240.637 2.68061L290.046 31.2058C295.018 34.0721 299.23 42.1876 299.23 48.8873V180.462C299.23 183.57 298.367 185.919 296.813 186.92C296.468 187.093 294.569 188.06 293.015 188.82C292.67 187.922 291.98 187.3 291.289 186.92L241.915 158.43C236.943 155.563 232.731 147.448 232.731 140.748V9.17303C232.731 6.89377 231.833 5.37427 231.246 4.47639C232.489 3.85477 235.044 2.61154 235.458 2.40434C236.39 2.02446 237.15 1.85179 237.875 1.85179ZM237.875 0.0214844C236.77 0.0214844 235.734 0.297757 234.733 0.677633C234.664 0.712167 229.727 3.12956 229.658 3.16409C227.759 4.51092 230.866 5.33974 230.866 9.13849V140.714C230.866 148.138 235.389 156.772 240.948 159.984L290.357 188.509C292.498 189.752 290.46 191.651 291.22 191.651C291.324 191.651 291.462 191.617 291.669 191.548C291.807 191.513 297.608 188.578 297.711 188.509C299.748 187.231 301.026 184.399 301.026 180.462V48.8873C301.026 41.4624 296.503 32.8289 290.944 29.6172L241.57 1.09204C240.223 0.297757 239.015 0.0214844 237.875 0.0214844Z" fill="#0C1033"/>
<path d="M285.663 190.754L236.254 162.229C230.695 159.017 226.172 150.383 226.172 142.958V11.3835C226.172 3.95863 230.695 0.539755 236.254 3.75143L285.663 32.2766C291.222 35.4883 295.745 44.1218 295.745 51.5467V183.122C295.745 190.581 291.256 194 285.663 190.754Z" fill="#0C1033"/>
<path d="M289.666 190.995C288.561 190.995 287.387 190.615 286.144 189.925L236.735 161.4C231.453 158.361 227.137 150.072 227.137 142.993V11.4179C227.137 6.65215 229.139 3.57861 232.212 3.57861C233.317 3.57861 234.491 3.95849 235.7 4.64917L285.108 33.1744C290.391 36.2134 294.707 44.5016 294.707 51.5811V183.156C294.776 187.887 292.773 190.995 289.666 190.995Z" fill="white"/>
<path d="M289.669 191.893C288.426 191.893 287.079 191.479 285.698 190.685L236.29 162.159C230.765 158.948 226.242 150.349 226.242 142.959V11.3835C226.242 6.06523 228.59 2.61182 232.25 2.61182C233.493 2.61182 234.84 3.02623 236.221 3.82051L285.629 32.3457C291.188 35.5574 295.677 44.1564 295.677 51.5467V183.122C295.677 188.474 293.329 191.893 289.669 191.893ZM232.25 4.44213C229.729 4.44213 228.072 7.17032 228.072 11.349V142.924C228.072 149.727 232.181 157.636 237.187 160.536L286.596 189.062C287.701 189.683 288.737 190.029 289.635 190.029C292.155 190.029 293.812 187.3 293.812 183.087V51.5121C293.812 44.7089 289.704 36.8006 284.697 33.8997L235.323 5.40908C234.218 4.75293 233.182 4.44213 232.25 4.44213Z" fill="#0C1033"/>
<path d="M237.494 9.41485C233.627 7.20467 230.52 8.96591 230.52 13.3863V145.928C230.52 150.349 233.627 155.736 237.494 157.981L284.486 185.124C288.353 187.335 291.46 185.573 291.46 181.153V48.5765C291.46 44.1562 288.353 38.7689 284.486 36.5241L237.494 9.41485Z" fill="#97C3F9"/>
<path d="M234.352 10.2786C235.008 10.2786 235.768 10.5203 236.562 11.0038L283.554 38.1131C286.834 40.0124 289.63 44.8127 289.63 48.5769V181.119C289.63 182.051 289.423 184.227 287.628 184.227C286.972 184.227 286.212 183.985 285.418 183.502L238.426 156.358C235.146 154.459 232.349 149.658 232.349 145.894V13.3866C232.349 12.4542 232.522 10.2786 234.352 10.2786ZM234.352 8.44824C232.073 8.44824 230.52 10.244 230.52 13.3866V145.929C230.52 150.349 233.662 155.736 237.494 157.981L284.486 185.125C285.625 185.781 286.661 186.092 287.628 186.092C289.907 186.092 291.46 184.296 291.46 181.153V48.5769C291.46 44.1565 288.353 38.7692 284.486 36.5245L237.494 9.4152C236.355 8.75905 235.284 8.44824 234.352 8.44824Z" fill="#0C1033"/>
<path d="M295.952 141.784C295.537 141.784 295.227 141.301 295.227 140.645V82.7999C295.227 81.3149 296.849 79.45 298.679 78.8284C299.094 78.6903 299.335 78.6558 299.473 78.6558C299.888 78.6558 300.198 79.1392 300.198 79.7954V137.675C300.198 139.16 298.576 141.024 296.746 141.646C296.331 141.75 296.055 141.784 295.952 141.784Z" fill="#0C1033"/>
<path d="M306.93 129.386L268.017 106.732C263.839 104.315 260.387 97.7531 260.387 92.1586V83.9395C260.387 78.345 263.805 75.7549 268.017 78.1723L306.93 100.792C311.107 103.21 314.56 109.771 314.56 115.366V123.619C314.56 129.214 311.142 131.804 306.93 129.386Z" fill="#1F5A7B"/>
<path d="M309.971 131.217C308.866 131.217 307.692 130.872 306.484 130.181L267.572 107.561C263.118 104.971 259.492 98.0987 259.492 92.1933V83.9397C259.492 80.6589 260.632 78.138 262.6 76.9983C264.291 76.0314 266.363 76.1695 268.504 77.3782L307.416 99.9981C311.87 102.588 315.496 109.46 315.496 115.366V123.619C315.496 126.9 314.356 129.421 312.388 130.561C311.663 131.01 310.834 131.217 309.971 131.217ZM307.416 128.592C308.935 129.49 310.386 129.628 311.49 128.972C312.872 128.178 313.666 126.209 313.666 123.619V115.366C313.666 110.151 310.386 103.831 306.518 101.587L267.606 78.9322C266.087 78.0344 264.637 77.8962 263.532 78.5524C262.151 79.3466 261.357 81.3151 261.357 83.9051V92.1588C261.357 97.3735 264.637 103.693 268.538 105.938L307.416 128.592Z" fill="#0C1033"/>
<path d="M287.628 99.0996C288.008 99.3413 288.353 99.5486 288.699 99.7558C289.389 100.205 290.114 100.619 290.77 101.137C292.255 102.311 292.669 103.865 292.359 105.696C292.289 106.179 292.048 106.524 291.461 106.524C291.841 108.32 292.186 110.081 292.566 111.946C291.944 111.566 291.392 111.221 290.839 110.876C290.77 110.841 290.701 110.703 290.701 110.599C290.425 109.115 290.183 107.664 289.942 106.179C289.873 105.834 289.665 105.73 289.355 105.627V109.978C288.733 109.598 288.215 109.287 287.663 108.942C287.594 108.907 287.594 108.769 287.594 108.7C287.594 105.557 287.594 102.415 287.594 99.2723C287.594 99.2723 287.594 99.2032 287.628 99.0996ZM289.389 101.69C289.389 101.828 289.389 101.897 289.389 102C289.389 102.76 289.389 103.485 289.389 104.245C289.389 104.314 289.458 104.418 289.493 104.452C289.7 104.591 289.907 104.729 290.149 104.798C290.46 104.936 290.701 104.832 290.77 104.487C291.012 103.037 290.632 102.173 289.389 101.69Z" fill="white"/>
<path d="M275.751 96.7861C275.751 97.6149 275.786 98.4437 275.751 99.238C275.751 99.5834 275.647 99.9632 275.509 100.274C275.302 100.758 274.888 100.965 274.404 100.792C272.713 100.205 271.539 99.0999 271.124 97.3041C271.021 96.7861 270.952 96.2681 270.952 95.7155C270.917 94.3687 270.917 93.0219 270.952 91.6405C270.952 91.2261 271.021 90.8117 271.124 90.3973C271.297 89.8102 271.711 89.5339 272.298 89.7066C273.852 90.1901 274.957 91.1916 275.475 92.8147C275.716 93.5399 275.751 94.2651 275.751 95.0249V96.7861ZM273.956 95.7155C273.956 94.8522 273.956 93.9888 273.956 93.1255C273.956 92.7456 273.921 92.3312 273.61 92.0549C273.438 91.8822 273.196 91.7441 272.989 91.7441C272.713 91.7786 272.782 92.0895 272.747 92.2967C272.747 92.3312 272.747 92.3312 272.747 92.3657C272.747 94.0924 272.747 95.8191 272.747 97.5458C272.747 97.9603 272.816 98.3401 273.127 98.6509C273.3 98.7891 273.541 98.8581 273.748 98.9272C273.817 98.72 273.921 98.5473 273.99 98.3401C274.025 98.2365 273.99 98.0984 273.99 97.9603C273.956 97.235 273.956 96.4753 273.956 95.7155Z" fill="white"/>
<path d="M281.447 105.178C281.033 104.936 280.688 104.729 280.343 104.487C280.239 104.418 280.204 104.28 280.17 104.142C279.687 102.381 279.203 100.585 278.72 98.8237C278.685 98.7201 278.651 98.651 278.582 98.5474V100.93V103.382C278.064 103.071 277.58 102.795 277.132 102.484C277.097 102.45 277.062 102.346 277.062 102.277C277.062 99.1 277.062 95.9574 277.062 92.7802C277.062 92.7457 277.063 92.7112 277.097 92.6421C277.511 92.8838 277.891 93.1256 278.271 93.3673C278.34 93.4364 278.375 93.5745 278.409 93.7126C278.858 95.3012 279.341 96.9243 279.79 98.5129C279.825 98.651 279.859 98.7546 279.963 98.8928V94.4033C280.239 94.576 280.412 94.7141 280.619 94.7832C281.309 95.0595 281.447 95.5084 281.447 96.2336C281.413 99.0309 281.413 101.863 281.413 104.66V105.178H281.447Z" fill="white"/>
<path d="M302.338 114.329C302.925 114.675 303.443 114.985 303.926 115.296C303.995 115.331 304.064 115.434 304.03 115.503C303.995 116.125 304.03 116.747 303.891 117.368C303.719 118.163 303.235 118.404 302.476 118.128C300.922 117.506 299.852 116.401 299.472 114.709C299.368 114.191 299.299 113.639 299.299 113.121C299.265 111.808 299.265 110.496 299.299 109.184C299.299 108.769 299.368 108.355 299.472 107.975C299.679 107.25 300.163 106.974 300.853 107.25C302.372 107.837 303.719 109.046 303.961 111.049C304.03 111.601 304.03 112.154 304.064 112.775C303.581 112.464 303.166 112.223 302.752 111.981C302.407 111.808 302.269 111.567 302.303 111.187C302.338 110.807 302.303 110.427 302.269 110.047C302.234 109.633 302.027 109.356 301.682 109.149C301.44 109.011 301.267 109.08 301.198 109.356C301.164 109.529 301.129 109.702 301.129 109.874C301.129 111.498 301.129 113.086 301.129 114.709C301.129 115.02 301.164 115.365 301.302 115.642C301.371 115.849 301.578 116.056 301.751 116.194C302.027 116.401 302.234 116.298 302.269 115.952C302.303 115.573 302.303 115.158 302.303 114.778C302.338 114.675 302.338 114.537 302.338 114.329Z" fill="white"/>
<path d="M269.743 91.8821C269.156 91.5368 268.638 91.226 268.12 90.8806C268.051 90.8461 268.017 90.6734 268.017 90.5698C267.982 90.1209 267.982 89.6374 267.948 89.1539C267.913 88.7395 267.706 88.4632 267.361 88.256C267.085 88.1179 266.912 88.187 266.843 88.4632C266.808 88.6359 266.774 88.8086 266.774 88.9467C266.774 90.5698 266.774 92.2275 266.774 93.8506C266.774 94.1614 266.843 94.4722 266.946 94.7484C267.015 94.9556 267.223 95.1628 267.395 95.301C267.672 95.5082 267.879 95.3701 267.913 95.0247C267.948 94.6103 267.948 94.2304 267.948 93.816C267.948 93.7124 267.948 93.6088 267.948 93.4707C268.051 93.5052 268.12 93.5397 268.189 93.5743C268.638 93.816 269.053 94.0923 269.467 94.3686C269.536 94.4031 269.64 94.5067 269.64 94.5758C269.605 95.1974 269.64 95.8535 269.501 96.4751C269.329 97.2694 268.845 97.5112 268.12 97.2004C266.567 96.5787 265.496 95.4737 265.117 93.7815C265.013 93.2635 264.944 92.7109 264.944 92.1929C264.909 90.8806 264.909 89.5683 264.944 88.256C264.944 87.8762 265.013 87.4963 265.082 87.1164C265.289 86.3221 265.807 86.0458 266.532 86.3567C268.707 87.2545 269.536 88.8086 269.605 90.777C269.778 91.1224 269.743 91.4677 269.743 91.8821Z" fill="white"/>
<path d="M295.294 111.566C295.224 111.946 295.19 112.257 295.155 112.533C295.121 112.809 295.052 113.12 295.017 113.466C294.465 113.12 293.947 112.809 293.464 112.499C293.395 112.464 293.395 112.291 293.395 112.188C293.602 111.014 293.809 109.805 294.016 108.631L294.81 103.934C294.845 103.831 294.845 103.727 294.879 103.589C294.983 103.658 295.086 103.658 295.155 103.727C295.639 104.038 296.157 104.314 296.64 104.659C296.778 104.763 296.882 104.936 296.916 105.108C297.193 106.87 297.4 108.596 297.676 110.358C297.918 111.981 298.125 113.604 298.366 115.227C298.366 115.296 298.366 115.4 298.366 115.538C297.849 115.227 297.331 114.916 296.847 114.605C296.778 114.571 296.778 114.433 296.744 114.364C296.675 113.742 296.606 113.155 296.502 112.533C296.502 112.43 296.433 112.291 296.364 112.257C296.053 112.015 295.708 111.808 295.294 111.566ZM296.329 110.876C296.191 109.563 296.053 108.32 295.915 107.077C295.708 108.078 295.604 109.08 295.501 110.081C295.501 110.185 295.535 110.358 295.604 110.392C295.811 110.599 296.019 110.703 296.329 110.876Z" fill="white"/>
<path d="M304.856 109.667C304.994 109.736 305.098 109.771 305.167 109.84C306.375 110.565 307.584 111.325 308.827 112.05C309.034 112.153 309.103 112.292 309.103 112.533C309.103 112.948 309.103 113.328 309.103 113.811C308.689 113.569 308.309 113.362 307.894 113.12V121.34C307.756 121.27 307.653 121.236 307.584 121.167C307.169 120.925 306.79 120.649 306.375 120.442C306.168 120.338 306.099 120.2 306.099 119.958C306.099 117.437 306.099 114.916 306.099 112.361C306.099 112.119 306.064 111.946 305.823 111.843C305.029 111.566 304.683 110.979 304.856 110.116C304.856 110.012 304.856 109.874 304.856 109.667Z" fill="white"/>
<path d="M282.379 95.9917C282.517 96.0608 282.621 96.0953 282.69 96.1644C283.933 96.9241 285.141 97.6493 286.384 98.4091C286.557 98.5127 286.626 98.6508 286.626 98.8235C286.626 99.2379 286.626 99.6523 286.626 100.136C286.211 99.8941 285.832 99.6868 285.417 99.4106V107.63C284.796 107.25 284.278 106.939 283.725 106.594C283.656 106.559 283.656 106.386 283.656 106.248C283.656 103.727 283.656 101.206 283.656 98.6508C283.656 98.3746 283.587 98.2364 283.346 98.0983C283.035 97.9256 282.621 97.7875 282.482 97.5112C282.31 97.2349 282.413 96.786 282.413 96.4061C282.379 96.3025 282.379 96.1644 282.379 95.9917Z" fill="white"/>
<path d="M193.545 151.454L190.575 153.906L188.849 155.184L187.917 156.117C187.917 156.117 186.95 157.325 186.674 157.291C186.398 157.291 186.259 157.187 186.259 157.187L187.019 155.564L188.262 154.217L186.398 154.942L184.809 155.115C184.809 155.115 183.394 155.184 183.083 154.77C182.772 154.39 182.979 154.114 182.979 154.114C182.979 154.114 182.703 153.837 182.703 153.527C182.703 153.216 184.74 152.939 184.74 152.939L185.949 152.352L189.332 150.315L192.474 149.659L193.545 151.454Z" fill="white"/>
<path d="M186.706 158.257C186.672 158.257 186.637 158.257 186.603 158.257C186.188 158.257 185.878 158.119 185.774 158.05C185.36 157.808 185.187 157.29 185.394 156.841L185.809 155.978L184.876 156.082C183.979 156.116 182.839 156.013 182.321 155.425C182.045 155.08 181.942 154.735 181.942 154.389C181.838 154.182 181.734 153.906 181.734 153.595C181.769 152.801 182.425 152.456 184.428 152.145L185.498 151.627L188.812 149.624C188.916 149.555 188.985 149.52 189.089 149.52L192.231 148.864C192.611 148.795 192.99 148.933 193.197 149.278L194.302 151.005C194.544 151.385 194.475 151.903 194.095 152.214L191.126 154.666L189.365 155.978L188.536 156.841C187.431 158.119 187.017 158.257 186.706 158.257ZM183.875 154.251C184.082 154.251 184.462 154.286 184.738 154.286L186.154 154.148L187.915 153.492C188.329 153.319 188.778 153.492 189.02 153.837C189.054 153.871 189.054 153.906 189.089 153.94L190.021 153.25L192.334 151.316L192.024 150.798L189.641 151.281L186.396 153.25L185.118 153.871C185.014 153.906 184.945 153.94 184.842 153.94C184.497 153.975 184.151 154.044 183.841 154.113C183.875 154.148 183.875 154.217 183.875 154.251Z" fill="#0C1033"/>
<path d="M190.711 149.417C190.711 149.417 190.987 150.694 191.609 151.523C192.23 152.352 192.679 152.386 192.679 152.386C192.679 152.386 203.175 141.646 204.177 141.025C205.385 140.3 214.846 133.151 214.846 133.151C214.846 133.151 220.197 117.438 215.571 120.615C210.944 123.758 200.344 137.019 200.344 137.019L190.711 149.417Z" fill="#1F5A7B"/>
<path d="M215.605 122.929C215.364 124.966 214.466 128.558 213.326 132.046C209.666 134.809 204.039 138.987 203.279 139.471C202.347 140.023 197.029 145.376 193.059 149.451L201.829 138.193C204.453 134.843 211.635 126.279 215.605 122.929ZM216.641 120.201C216.365 120.201 216.02 120.339 215.605 120.615C210.979 123.758 200.379 137.019 200.379 137.019L190.711 149.417C190.711 149.417 190.987 150.694 191.609 151.523C192.23 152.352 192.679 152.387 192.679 152.387C192.679 152.387 203.175 141.646 204.177 141.025C205.385 140.3 214.846 133.151 214.846 133.151C214.846 133.151 219.3 120.201 216.641 120.201Z" fill="#0C1033"/>
<path d="M208.048 224.356C209.014 224.425 210.844 223.7 210.844 223.251C210.844 222.836 209.083 221.524 208.807 221.42C208.531 221.317 207.84 221.248 207.84 221.248L207.806 219.176C207.806 219.176 206.494 218.243 205.769 217.656C205.044 217.069 204.215 216.585 204.215 216.585C204.215 216.585 202.316 218.381 201.936 218.934C201.556 219.486 202.316 220.591 203.904 221.42C205.458 222.284 207.53 224.321 208.048 224.356Z" fill="#1F5A7B"/>
<path d="M204.418 218.934C204.487 218.968 204.556 219.037 204.59 219.072C205.005 219.383 205.523 219.797 205.971 220.108V220.591C205.557 220.315 205.143 220.039 204.728 219.797C204.418 219.624 204.176 219.452 203.969 219.314C204.107 219.21 204.245 219.072 204.418 218.934ZM204.176 216.585C204.176 216.585 202.277 218.381 201.897 218.934C201.517 219.486 202.277 220.591 203.865 221.42C205.454 222.284 207.525 224.287 208.009 224.321C208.043 224.321 208.112 224.321 208.147 224.321C209.148 224.321 210.805 223.63 210.805 223.216C210.805 222.802 209.044 221.489 208.768 221.386C208.492 221.282 207.801 221.213 207.801 221.213L207.767 219.141C207.767 219.141 206.455 218.209 205.73 217.621C205.005 217.034 204.176 216.585 204.176 216.585Z" fill="#0C1033"/>
<path d="M201.726 219.106C201.105 219.901 201.415 221.04 202.52 221.593C203.66 222.145 207.32 224.597 207.976 224.839C208.632 225.081 210.738 224.01 210.807 223.665C210.876 223.354 210.807 223.251 210.807 223.251C210.807 223.251 209.253 224.321 208.39 223.976C207.492 223.665 205.075 221.731 204.523 220.971C203.936 220.246 201.726 219.106 201.726 219.106Z" fill="#0C1033"/>
<path d="M216.814 154.079C216.814 154.079 216.124 154.286 215.606 156.047L208.39 152.732L191.229 174.005L175.52 183.709L176.555 187.819C176.555 187.819 194.786 181.05 196.27 180.187C197.168 179.669 207.285 172.451 215.157 166.822C215.261 176.112 215.468 190.754 215.468 190.754L203.556 217.242C203.556 217.242 204.868 218.347 205.835 218.934C206.801 219.521 207.768 219.694 207.768 219.694L223.513 194.104C223.513 194.104 227.759 185.954 229.762 174.73C230.867 168.583 231.454 158.672 231.454 158.672L216.814 154.079Z" fill="#0C1033"/>
<path d="M177.004 187.715C177.004 187.715 174.691 190.927 174.104 192.205C173.482 193.517 171.929 196.763 170.927 196.072C169.926 195.382 175.796 183.882 175.796 183.882L177.004 187.715Z" fill="#0C1033"/>
<path d="M175.624 183.675C177.454 184.503 175.728 187.784 174.83 189.269C173.967 190.754 171.965 196.659 170.894 196.072C169.858 195.485 168.581 193.102 169.133 191.341C169.686 189.58 171.688 187.508 172.206 186.541C172.69 185.574 173.518 182.742 175.624 183.675Z" fill="#0C1033"/>
<path d="M257.488 100.896L260.285 102.139C260.285 102.139 263.047 99.9981 264.187 99.5491C265.326 99.1002 266.811 97.9951 266.431 97.1662C266.051 96.3374 264.532 95.3359 264.532 95.3359C264.532 95.3359 266.776 92.5041 266.949 91.9861C267.121 91.4336 266.673 91.0537 266.673 91.0537C266.673 91.0537 263.254 94.8179 262.944 94.9215C262.633 95.0251 261.528 95.3705 260.768 96.0957C259.974 96.8554 257.488 100.896 257.488 100.896Z" fill="white"/>
<path d="M260.252 103.072C260.114 103.072 260.011 103.037 259.873 103.003L257.076 101.759C256.834 101.656 256.662 101.449 256.558 101.207C256.489 100.965 256.523 100.689 256.662 100.447C257.076 99.7565 259.286 96.2686 260.08 95.5088C260.943 94.68 262.151 94.2656 262.566 94.162C262.738 93.9893 264.465 92.159 265.949 90.5359C266.295 90.156 266.847 90.1215 267.227 90.4668C267.572 90.7431 268.056 91.4683 267.779 92.3662C267.641 92.8497 266.709 94.0929 265.811 95.2671C266.329 95.6815 266.951 96.2686 267.227 96.8902C267.4 97.3046 267.434 97.7535 267.227 98.2025C266.778 99.3076 265.293 100.171 264.499 100.482C263.774 100.758 261.841 102.139 260.805 102.934C260.667 103.003 260.46 103.072 260.252 103.072ZM258.802 100.516L260.114 101.103C260.977 100.447 262.842 99.1004 263.809 98.7205C264.775 98.3406 265.466 97.6845 265.535 97.4427C265.397 97.201 264.603 96.5448 263.981 96.1304C263.774 95.9923 263.636 95.7851 263.602 95.5433C263.36 95.7506 263.256 95.7851 263.187 95.8196C262.842 95.9232 261.944 96.234 261.357 96.7866C260.977 97.1665 259.804 98.9622 258.802 100.516Z" fill="#0C1033"/>
<path d="M261.08 101.794C261.08 101.794 261.08 101.276 259.975 100.447C258.87 99.6186 257.661 99.9639 257.661 99.9639L247.096 113.363L235.46 122.826C234.079 123.965 232.215 124.241 230.523 123.654H230.488C223.963 121.41 218.059 118.129 215.227 121.133C212.396 124.138 204.973 156.496 204.973 156.496C204.973 156.496 210.186 160.468 216.574 163.23C223.1 166.062 231.386 165.682 231.386 165.682C231.386 165.682 233.458 155.529 235.322 146.102C236.772 138.78 240.018 131.943 244.783 126.175C248.063 122.238 251.101 118.578 251.481 118.129C252.482 116.955 261.08 101.794 261.08 101.794Z" fill="#1F5A7B"/>
<path d="M258.559 101.794C258.663 101.829 258.801 101.898 258.87 101.967C254.968 108.839 250.687 116.16 250.065 116.955C249.72 117.334 247.476 120.063 243.367 125.001C238.43 130.975 235.011 138.124 233.492 145.721C232.042 152.974 230.488 160.709 229.832 163.852C227.277 163.817 221.788 163.507 217.264 161.538C212.707 159.57 208.736 156.945 206.975 155.702C210.497 140.507 214.951 124.138 216.505 122.376C216.781 122.1 217.23 121.755 218.3 121.755C220.199 121.755 222.996 122.825 225.931 123.93C227.174 124.414 228.486 124.897 229.867 125.381C230.627 125.623 231.421 125.761 232.215 125.761C233.803 125.761 235.357 125.208 236.6 124.207L248.235 114.744L248.408 114.606L248.546 114.434L258.559 101.794ZM258.248 99.9292C257.903 99.9292 257.661 99.9983 257.661 99.9983L247.096 113.363L235.46 122.825C234.528 123.585 233.389 123.965 232.249 123.965C231.662 123.965 231.075 123.861 230.523 123.689H230.488C225.827 122.1 221.511 119.959 218.369 119.959C217.092 119.959 216.056 120.304 215.227 121.168C212.396 124.172 204.973 156.531 204.973 156.531C204.973 156.531 210.186 160.502 216.574 163.265C221.684 165.475 227.864 165.717 230.316 165.717C231.006 165.717 231.386 165.682 231.386 165.682C231.386 165.682 233.458 155.529 235.322 146.101C236.772 138.78 240.052 131.942 244.817 126.175C248.097 122.238 251.136 118.578 251.516 118.129C252.517 116.955 261.149 101.794 261.149 101.794C261.149 101.794 261.149 101.276 260.044 100.482C259.353 100.033 258.697 99.9292 258.248 99.9292Z" fill="#0C1033"/>
<path d="M232.73 111.498C231.902 109.081 229.934 100.585 222.372 105.938C214.811 111.291 221.198 116.885 221.785 118.129C222.269 119.165 221.509 120.719 221.267 121.168C221.233 121.202 221.198 121.237 221.198 121.306C220.818 122.514 222.476 124.137 224.893 124.897C227.31 125.657 229.623 125.312 230.003 124.068L230.624 119.441C231.004 118.957 233.179 117.507 233.49 116.954C233.801 116.436 233.559 113.915 232.73 111.498Z" fill="white"/>
<path d="M227.348 126.21C226.485 126.21 225.553 126.072 224.62 125.761C223.308 125.346 222.169 124.69 221.34 123.896C220.373 122.963 220.028 121.927 220.304 120.995L220.443 120.684C220.822 119.959 221.133 118.958 220.926 118.474C220.857 118.336 220.684 118.094 220.443 117.818C219.372 116.437 217.37 113.846 217.818 110.738C218.129 108.701 219.476 106.836 221.789 105.178C224.241 103.452 226.416 102.899 228.28 103.521C231.388 104.557 232.631 108.459 233.287 110.531L233.494 111.187C234.15 113.121 234.84 116.333 234.184 117.403C233.943 117.852 233.321 118.336 232.32 119.096C232.044 119.337 231.629 119.648 231.388 119.821L230.801 124.138C230.455 125.243 229.592 125.864 228.246 126.072C228.039 126.175 227.693 126.21 227.348 126.21ZM226.796 105.109C225.691 105.109 224.379 105.627 222.928 106.663C221.029 108.01 219.925 109.461 219.683 111.015C219.338 113.328 220.96 115.435 221.927 116.713C222.238 117.127 222.48 117.438 222.618 117.714C223.274 119.096 222.48 120.891 222.1 121.582C222.031 121.755 222.169 122.135 222.652 122.584C223.239 123.171 224.171 123.689 225.207 123.999C226.243 124.31 227.279 124.414 228.108 124.31C228.764 124.207 229.109 123.965 229.178 123.792L229.799 119.061L229.938 118.854C230.145 118.578 230.594 118.232 231.319 117.645C231.802 117.265 232.596 116.644 232.734 116.437C232.838 116.091 232.665 114.019 231.871 111.74L231.664 111.049C231.077 109.253 230.041 105.938 227.797 105.213C227.452 105.178 227.141 105.109 226.796 105.109Z" fill="#0C1033"/>
<path d="M231.179 102.865C233.631 104.384 228.693 110.359 228.693 110.359C228.693 110.359 229.798 112.88 229.66 113.501C229.522 114.123 228.452 112.085 227.416 113.329C226.38 114.572 226.725 118.785 226.138 119.337C225.344 120.063 222.547 119.545 221.857 118.647C221.304 117.922 215.711 111.464 220.096 106.802C224.446 102.14 228.935 101.449 231.179 102.865Z" fill="#0C1033"/>
<path d="M136.787 243.932L124.116 236.611L117.901 240.202L130.572 247.524L136.787 243.932ZM127.189 249.458L114.517 242.136L107.612 246.108L120.283 253.429L127.189 249.458ZM155.95 232.847L143.278 225.525L138.445 228.323L151.116 235.644L155.95 232.847ZM165.549 227.321L152.877 220L148.699 222.417L161.371 229.739L165.549 227.321ZM146.386 238.407L133.714 231.085L128.19 234.263L140.861 241.584L146.386 238.407ZM129.26 261.165L94.8019 241.273L88 265.102L129.26 261.165Z" fill="#97C3F9"/>
</svg>
