<svg id="Layer_1" data-name="Layer 1" xmlns="http://www.w3.org/2000/svg" viewBox="0 0 316 266"><defs><style>.cls-1{fill:#1f5a7b;}.cls-2{fill:#fff;}.cls-3{fill:#0c1033;}.cls-4{fill:#97c3f9;}</style></defs><title>2 step</title><circle class="cls-1" cx="25" cy="52" r="25"/><path class="cls-2" d="M34,60.22V64H16.75V60.58l8.71-9.4a14.73,14.73,0,0,0,2.27-3.1,6,6,0,0,0,.72-2.77,3.33,3.33,0,0,0-1-2.66,4.24,4.24,0,0,0-2.92-.9,11.67,11.67,0,0,0-6.95,2.66L16,41a10.8,10.8,0,0,1,3.89-2.16A14.46,14.46,0,0,1,24.67,38,9.06,9.06,0,0,1,30.75,40,6.24,6.24,0,0,1,33,45a9.13,9.13,0,0,1-1,4.14,18.66,18.66,0,0,1-3.17,4.36l-6.3,6.7H34Z"/><path class="cls-1" d="M290.4,188.54L241,160c-5.56-3.21-10.08-11.85-10.08-19.27V9.17c0-3.8-3.11-4.63-1.21-6,0-.07,5-2.49,5-2.52a7.25,7.25,0,0,1,6.84.38l49.37,28.56C296.51,32.83,301,41.46,301,48.89V180.46c0,3.94-1.28,6.77-3.31,8-0.14.07-5.9,3-6,3C289.88,192.17,292.81,190,290.4,188.54Z"/><path class="cls-3" d="M237.88,1.85a5.52,5.52,0,0,1,2.76.83L290,31.21c5,2.87,9.18,11,9.18,17.68V180.46c0,3.11-.86,5.46-2.42,6.46-0.35.17-2.24,1.14-3.8,1.9a3.74,3.74,0,0,0-1.73-1.9l-49.37-28.49c-5-2.87-9.18-11-9.18-17.68V9.17a8.23,8.23,0,0,0-1.49-4.7c1.24-.62,3.8-1.86,4.21-2.07A6.33,6.33,0,0,1,237.88,1.85Zm0-1.83a8.81,8.81,0,0,0-3.14.66l-5.07,2.49c-1.9,1.35,1.21,2.18,1.21,6V140.71c0,7.42,4.52,16.06,10.08,19.27l49.41,28.53c2.14,1.24.1,3.14,0.86,3.14a1.55,1.55,0,0,0,.45-0.1c0.14,0,5.94-3,6-3,2-1.28,3.32-4.11,3.32-8V48.89c0-7.42-4.52-16.06-10.08-19.27L241.57,1.09A7.08,7.08,0,0,0,237.88,0Z"/><path class="cls-3" d="M285.66,190.75l-49.41-28.52C230.7,159,226.17,150.38,226.17,143V11.38c0-7.42,4.52-10.84,10.08-7.63l49.41,28.53c5.56,3.21,10.08,11.85,10.08,19.27V183.12C295.74,190.58,291.26,194,285.66,190.75Z"/><path class="cls-2" d="M289.67,191a7.37,7.37,0,0,1-3.52-1.07L236.74,161.4c-5.28-3-9.6-11.33-9.6-18.41V11.42c0-4.77,2-7.84,5.08-7.84a7.14,7.14,0,0,1,3.49,1.07l49.41,28.53c5.28,3,9.6,11.33,9.6,18.41V183.16C294.78,187.89,292.77,191,289.67,191Z"/><path class="cls-3" d="M289.67,191.89a8.08,8.08,0,0,1-4-1.21l-49.41-28.53c-5.52-3.21-10-11.81-10-19.2V11.38c0-5.32,2.35-8.77,6-8.77a8.08,8.08,0,0,1,4,1.21l49.41,28.53c5.56,3.21,10,11.81,10,19.2V183.12C295.68,188.47,293.33,191.89,289.67,191.89ZM232.25,4.44c-2.52,0-4.18,2.73-4.18,6.91V142.92c0,6.8,4.11,14.71,9.11,17.61l49.41,28.53a6.46,6.46,0,0,0,3,1c2.52,0,4.18-2.73,4.18-6.94V51.51c0-6.8-4.11-14.71-9.12-17.61L235.32,5.41A6.09,6.09,0,0,0,232.25,4.44Z"/><path class="cls-4" d="M237.49,9.41c-3.87-2.21-7-.45-7,4V145.93a15.4,15.4,0,0,0,7,12.05l47,27.14c3.87,2.21,7,.45,7-4V48.58a15.4,15.4,0,0,0-7-12.05Z"/><path class="cls-3" d="M234.35,10.28a4.37,4.37,0,0,1,2.21.73l47,27.11a13.64,13.64,0,0,1,6.08,10.46V181.12c0,0.93-.21,3.11-2,3.11a4.38,4.38,0,0,1-2.21-.73l-47-27.14a13.64,13.64,0,0,1-6.08-10.46V13.39C232.35,12.45,232.52,10.28,234.35,10.28Zm0-1.83c-2.28,0-3.83,1.8-3.83,4.94V145.93a15.49,15.49,0,0,0,7,12.05l47,27.14a6.32,6.32,0,0,0,3.14,1c2.28,0,3.83-1.8,3.83-4.94V48.58a15.4,15.4,0,0,0-7-12.05l-47-27.11A6.42,6.42,0,0,0,234.35,8.45Z"/><path class="cls-3" d="M296,141.78a1,1,0,0,1-.73-1.14V82.8c0-1.48,1.62-3.35,3.45-4a2.69,2.69,0,0,1,.79-0.17,1,1,0,0,1,.73,1.14v57.88c0,1.49-1.62,3.35-3.45,4A4,4,0,0,1,296,141.78Z"/><path class="cls-1" d="M306.93,129.39L268,106.73c-4.18-2.42-7.63-9-7.63-14.57V83.94c0-5.59,3.42-8.18,7.63-5.77l38.91,22.62c4.18,2.42,7.63,9,7.63,14.57v8.25C314.56,129.21,311.14,131.8,306.93,129.39Z"/><path class="cls-3" d="M310,131.22a7.06,7.06,0,0,1-3.49-1l-38.91-22.62c-4.45-2.59-8.08-9.46-8.08-15.37V83.94c0-3.28,1.14-5.8,3.11-6.94,1.69-1,3.76-.83,5.9.38L307.42,100c4.45,2.59,8.08,9.46,8.08,15.37v8.25c0,3.28-1.14,5.8-3.11,6.94A4.54,4.54,0,0,1,310,131.22Zm-2.56-2.62a4,4,0,0,0,4.07.38c1.38-.79,2.18-2.76,2.18-5.35v-8.25c0-5.21-3.28-11.53-7.15-13.78L267.61,78.93a4,4,0,0,0-4.07-.38c-1.38.79-2.18,2.76-2.18,5.35v8.25c0,5.21,3.28,11.53,7.18,13.78Z"/><path class="cls-2" d="M287.63,99.1l1.07,0.66c0.69,0.45,1.42.86,2.07,1.38a4.42,4.42,0,0,1,1.59,4.56,0.84,0.84,0,0,1-.9.83c0.38,1.8.73,3.56,1.11,5.42l-1.73-1.07a0.36,0.36,0,0,1-.14-0.28c-0.28-1.48-.52-2.93-0.76-4.42a0.7,0.7,0,0,0-.59-0.55V110l-1.69-1a0.29,0.29,0,0,1-.07-0.24V99.27A0.61,0.61,0,0,1,287.63,99.1Zm1.76,2.59v2.56a0.39,0.39,0,0,0,.1.21,2.36,2.36,0,0,0,.66.35,0.4,0.4,0,0,0,.62-0.31C291,103,290.63,102.17,289.39,101.69Z"/><path class="cls-2" d="M275.75,96.79c0,0.83,0,1.66,0,2.45a2.68,2.68,0,0,1-.24,1,0.83,0.83,0,0,1-1.11.52,4.68,4.68,0,0,1-3.28-3.49,8,8,0,0,1-.17-1.59c0-1.35,0-2.69,0-4.07a5.16,5.16,0,0,1,.17-1.24,0.88,0.88,0,0,1,1.17-.69,4.57,4.57,0,0,1,3.18,3.11,6.84,6.84,0,0,1,.28,2.21v1.76ZM274,95.72V93.13a1.35,1.35,0,0,0-.35-1.07,1,1,0,0,0-.62-0.31c-0.28,0-.21.35-0.24,0.55v5.25a1.45,1.45,0,0,0,.38,1.11,2,2,0,0,0,.62.28c0.07-.21.17-0.38,0.24-0.59a1.37,1.37,0,0,0,0-.38C274,97.23,274,96.48,274,95.72Z"/><path class="cls-2" d="M281.45,105.18c-0.41-.24-0.76-0.45-1.1-0.69a0.55,0.55,0,0,1-.17-0.35c-0.48-1.76-1-3.56-1.45-5.32a1,1,0,0,0-.14-0.28v4.83c-0.52-.31-1-0.59-1.45-0.9a0.37,0.37,0,0,1-.07-0.21v-9.5a0.27,0.27,0,0,1,0-.14c0.41,0.24.79,0.48,1.17,0.73a0.8,0.8,0,0,1,.14.35c0.45,1.59.93,3.21,1.38,4.8a0.93,0.93,0,0,0,.17.38V94.4a3.45,3.45,0,0,0,.66.38,1.29,1.29,0,0,1,.83,1.45c0,2.8,0,5.63,0,8.43v0.52h0Z"/><path class="cls-2" d="M302.34,114.33c0.59,0.35,1.1.66,1.59,1a0.19,0.19,0,0,1,.1.21,11.25,11.25,0,0,1-.14,1.86,0.93,0.93,0,0,1-1.41.76,4.65,4.65,0,0,1-3-3.42,8.25,8.25,0,0,1-.17-1.59q-0.05-2,0-3.94a4.63,4.63,0,0,1,.17-1.21,0.94,0.94,0,0,1,1.38-.72A4.61,4.61,0,0,1,304,111c0.07,0.55.07,1.1,0.1,1.73-0.48-.31-0.9-0.55-1.31-0.79a0.72,0.72,0,0,1-.45-0.79,6.3,6.3,0,0,0,0-1.14,1.1,1.1,0,0,0-.59-0.9,0.29,0.29,0,0,0-.48.21,2.72,2.72,0,0,0-.07.52v4.83a2.14,2.14,0,0,0,.17.93,1.38,1.38,0,0,0,.45.55c0.28,0.21.48,0.1,0.52-.24s0-.79,0-1.17A1.53,1.53,0,0,0,302.34,114.33Z"/><path class="cls-2" d="M269.74,91.88c-0.59-.35-1.11-0.66-1.62-1a0.42,0.42,0,0,1-.1-0.31c0-.45,0-0.93-0.07-1.42a1.1,1.1,0,0,0-.59-0.9q-0.41-.21-0.52.21a2.67,2.67,0,0,0-.07.48v4.9a2.61,2.61,0,0,0,.17.9,1.39,1.39,0,0,0,.45.55c0.28,0.21.48,0.07,0.52-.28s0-.79,0-1.21V93.47l0.24,0.1c0.45,0.24.86,0.52,1.28,0.79a0.34,0.34,0,0,1,.17.21,11.67,11.67,0,0,1-.14,1.9,0.89,0.89,0,0,1-1.38.73,4.64,4.64,0,0,1-3-3.42,8.25,8.25,0,0,1-.17-1.59q-0.05-2,0-3.94a6.43,6.43,0,0,1,.14-1.14,1,1,0,0,1,1.45-.76,4.56,4.56,0,0,1,3.07,4.42A2.33,2.33,0,0,1,269.74,91.88Z"/><path class="cls-2" d="M295.29,111.57c-0.07.38-.1,0.69-0.14,1s-0.1.59-.14,0.93l-1.55-1a0.42,0.42,0,0,1-.07-0.31c0.21-1.17.41-2.38,0.62-3.56l0.79-4.7c0-.1,0-0.21.07-0.35a2,2,0,0,1,.28.14c0.48,0.31,1,.59,1.49.93a0.77,0.77,0,0,1,.28.45c0.28,1.76.48,3.49,0.76,5.25s0.45,3.25.69,4.87v0.31c-0.52-.31-1-0.62-1.52-0.93a0.51,0.51,0,0,1-.1-0.24c-0.07-.62-0.14-1.21-0.24-1.83a0.36,0.36,0,0,0-.14-0.28A9.66,9.66,0,0,0,295.29,111.57Zm1-.69c-0.14-1.31-.28-2.56-0.41-3.8a29.77,29.77,0,0,0-.41,3,0.42,0.42,0,0,0,.1.31A3,3,0,0,0,296.33,110.88Z"/><path class="cls-2" d="M304.86,109.67a1.25,1.25,0,0,1,.31.17c1.21,0.73,2.42,1.49,3.66,2.21a0.46,0.46,0,0,1,.28.48v1.28l-1.21-.69v8.22a1.27,1.27,0,0,1-.31-0.17c-0.42-.24-0.79-0.52-1.21-0.72a0.46,0.46,0,0,1-.28-0.48v-7.6a0.47,0.47,0,0,0-.28-0.52,1.37,1.37,0,0,1-1-1.73v-0.45Z"/><path class="cls-2" d="M282.38,96a1.25,1.25,0,0,1,.31.17l3.69,2.24a0.45,0.45,0,0,1,.24.41v1.31c-0.42-.24-0.79-0.45-1.21-0.73v8.22l-1.69-1a0.47,0.47,0,0,1-.07-0.35v-7.6a0.53,0.53,0,0,0-.31-0.55,2,2,0,0,1-.86-0.59,2.32,2.32,0,0,1-.07-1.11A1.44,1.44,0,0,1,282.38,96Z"/><path class="cls-2" d="M193.54,151.45l-3,2.45-1.73,1.28-0.93.93a4.56,4.56,0,0,1-1.24,1.17,0.73,0.73,0,0,1-.41-0.1l0.76-1.62,1.24-1.35-1.86.73-1.59.17a3,3,0,0,1-1.73-.35,0.53,0.53,0,0,1-.1-0.66,1,1,0,0,1-.28-0.59c0-.31,2-0.59,2-0.59l1.21-.59,3.38-2,3.14-.66Z"/><path class="cls-3" d="M186.71,158.26h-0.1a1.63,1.63,0,0,1-.83-0.21,0.94,0.94,0,0,1-.38-1.21l0.42-.86-0.93.1a3.45,3.45,0,0,1-2.56-.66,1.61,1.61,0,0,1-.38-1,1.78,1.78,0,0,1-.21-0.79c0-.79.69-1.14,2.69-1.45l1.07-.52,3.31-2a0.46,0.46,0,0,1,.28-0.1l3.14-.66a0.9,0.9,0,0,1,1,.41l1.1,1.73a0.92,0.92,0,0,1-.21,1.21l-3,2.45L189.37,156l-0.83.86C187.43,158.12,187,158.26,186.71,158.26Zm-2.83-4c0.21,0,.59,0,0.86,0l1.42-.14,1.76-.66a0.92,0.92,0,0,1,1.11.35s0,0.07.07,0.1l0.93-.69,2.31-1.93L192,150.8l-2.38.48-3.25,2-1.28.62a0.81,0.81,0,0,1-.28.07,8.72,8.72,0,0,0-1,.17A0.21,0.21,0,0,1,183.88,154.25Z"/><path class="cls-1" d="M190.71,149.42a6.36,6.36,0,0,0,.9,2.11,1.81,1.81,0,0,0,1.07.86s10.5-10.74,11.5-11.36c1.21-.72,10.67-7.87,10.67-7.87s5.35-15.71.73-12.54S200.34,137,200.34,137Z"/><path class="cls-3" d="M215.6,122.93a55.73,55.73,0,0,1-2.28,9.12c-3.66,2.76-9.29,6.94-10,7.42-0.93.55-6.25,5.91-10.22,10l8.77-11.26C204.45,134.84,211.63,126.28,215.6,122.93Zm1-2.73a2,2,0,0,0-1,.41C211,123.76,200.38,137,200.38,137l-9.67,12.4a6.36,6.36,0,0,0,.9,2.11,1.82,1.82,0,0,0,1.07.86s10.5-10.74,11.5-11.36c1.21-.72,10.67-7.87,10.67-7.87S219.3,120.2,216.64,120.2Z"/><path class="cls-1" d="M208,224.36c1,0.07,2.8-.66,2.8-1.1s-1.76-1.73-2-1.83a5.77,5.77,0,0,0-1-.17l0-2.07s-1.31-.93-2-1.52a14.27,14.27,0,0,0-1.55-1.07,31.07,31.07,0,0,0-2.28,2.35c-0.38.55,0.38,1.66,2,2.49S207.53,224.32,208,224.36Z"/><path class="cls-3" d="M204.42,218.93a0.71,0.71,0,0,1,.17.14c0.42,0.31.93,0.72,1.38,1v0.48c-0.41-.28-0.83-0.55-1.24-0.79s-0.55-.35-0.76-0.48C204.11,219.21,204.24,219.07,204.42,218.93Zm-0.24-2.35a31.07,31.07,0,0,0-2.28,2.35c-0.38.55,0.38,1.66,2,2.49s3.66,2.87,4.14,2.9h0.14c1,0,2.66-.69,2.66-1.1s-1.76-1.73-2-1.83a5.7,5.7,0,0,0-1-.17l0-2.07s-1.31-.93-2-1.52A11.62,11.62,0,0,0,204.18,216.58Z"/><path class="cls-3" d="M201.73,219.11a1.64,1.64,0,0,0,.79,2.49c1.14,0.55,4.8,3,5.46,3.25a4.2,4.2,0,0,0,2.83-1.17,0.59,0.59,0,0,0,0-.41s-1.55,1.07-2.42.72a14.21,14.21,0,0,1-3.87-3A13.09,13.09,0,0,0,201.73,219.11Z"/><path class="cls-3" d="M216.81,154.08s-0.69.21-1.21,2l-7.22-3.32L191.23,174l-15.71,9.7,1,4.11s18.23-6.77,19.72-7.63c0.9-.52,11-7.74,18.89-13.36,0.1,9.29.31,23.93,0.31,23.93l-11.91,26.49a23.31,23.31,0,0,0,2.28,1.69,6.3,6.3,0,0,0,1.93.76l15.74-25.59a74.61,74.61,0,0,0,6.25-19.37c1.11-6.15,1.69-16.06,1.69-16.06Z"/><path class="cls-3" d="M177,187.71a45.77,45.77,0,0,0-2.9,4.49c-0.62,1.31-2.18,4.56-3.18,3.87s4.87-12.19,4.87-12.19Z"/><path class="cls-3" d="M175.62,183.67c1.83,0.83.1,4.11-.79,5.59s-2.87,7.39-3.94,6.8a4.81,4.81,0,0,1-1.76-4.73c0.55-1.76,2.56-3.83,3.07-4.8S173.52,182.74,175.62,183.67Z"/><path class="cls-2" d="M257.49,100.9l2.8,1.24a27.52,27.52,0,0,1,3.9-2.59c1.14-.45,2.62-1.55,2.24-2.38a6.63,6.63,0,0,0-1.9-1.83A34.66,34.66,0,0,0,266.95,92a0.92,0.92,0,0,0-.28-0.93s-3.42,3.76-3.73,3.87a5.91,5.91,0,0,0-2.18,1.17A48.73,48.73,0,0,0,257.49,100.9Z"/><path class="cls-3" d="M260.25,103.07a1.48,1.48,0,0,1-.38-0.07l-2.8-1.24a1,1,0,0,1-.52-0.55,1,1,0,0,1,.1-0.76,44,44,0,0,1,3.42-4.94,6.13,6.13,0,0,1,2.49-1.35c0.17-.17,1.9-2,3.38-3.63a0.89,0.89,0,0,1,1.28-.07,1.8,1.8,0,0,1,.55,1.9,16.26,16.26,0,0,1-2,2.9,4.91,4.91,0,0,1,1.42,1.62,1.58,1.58,0,0,1,0,1.31,5.21,5.21,0,0,1-2.73,2.28,25,25,0,0,0-3.69,2.45A1.3,1.3,0,0,1,260.25,103.07Zm-1.45-2.56,1.31,0.59a22.39,22.39,0,0,1,3.69-2.38,3.44,3.44,0,0,0,1.73-1.28A7.44,7.44,0,0,0,264,96.13a0.85,0.85,0,0,1-.38-0.59,1.51,1.51,0,0,1-.41.28,5,5,0,0,0-1.83,1A43.17,43.17,0,0,0,258.8,100.52Z"/><path class="cls-1" d="M261.08,101.79a2.17,2.17,0,0,0-1.1-1.35,2.83,2.83,0,0,0-2.31-.48l-10.57,13.4-11.64,9.46a5.09,5.09,0,0,1-4.94.83h0c-6.53-2.24-12.43-5.53-15.26-2.52S205,156.5,205,156.5a62.57,62.57,0,0,0,11.6,6.73c6.53,2.83,14.81,2.45,14.81,2.45s2.07-10.15,3.94-19.58a45,45,0,0,1,9.46-19.93l6.7-8C252.48,117,261.08,101.79,261.08,101.79Z"/><path class="cls-3" d="M258.56,101.79a0.91,0.91,0,0,1,.31.17c-3.9,6.87-8.18,14.19-8.8,15-0.35.38-2.59,3.11-6.7,8a47.12,47.12,0,0,0-9.87,20.72c-1.45,7.25-3,15-3.66,18.13-2.56,0-8-.35-12.57-2.31A60.48,60.48,0,0,1,207,155.7c3.52-15.19,8-31.56,9.53-33.33a2.26,2.26,0,0,1,1.79-.62c1.9,0,4.7,1.07,7.63,2.18q1.86,0.73,3.94,1.45a7.76,7.76,0,0,0,2.35.38,7,7,0,0,0,4.39-1.55l11.63-9.46,0.17-.14,0.14-.17Zm-0.31-1.86a2.35,2.35,0,0,0-.59.07L247.1,113.36l-11.64,9.46a5.07,5.07,0,0,1-3.21,1.14,5.84,5.84,0,0,1-1.73-.28h0c-4.66-1.59-9-3.73-12.12-3.73a4.09,4.09,0,0,0-3.14,1.21c-2.83,3-10.25,35.36-10.25,35.36a62.63,62.63,0,0,0,11.6,6.73c5.11,2.21,11.29,2.45,13.74,2.45,0.69,0,1.07,0,1.07,0s2.07-10.15,3.94-19.58a45,45,0,0,1,9.49-19.93l6.7-8c1-1.17,9.63-16.33,9.63-16.33a2.08,2.08,0,0,0-1.1-1.31A3.29,3.29,0,0,0,258.25,99.93Z"/><path class="cls-2" d="M232.73,111.5c-0.83-2.42-2.8-10.91-10.36-5.56s-1.17,10.95-.59,12.19c0.48,1-.28,2.59-0.52,3a0.18,0.18,0,0,0-.07.14c-0.38,1.21,1.28,2.83,3.7,3.59s4.73,0.41,5.11-.83l0.62-4.63c0.38-.48,2.56-1.93,2.87-2.49S233.56,113.91,232.73,111.5Z"/><path class="cls-3" d="M227.35,126.21a8.67,8.67,0,0,1-2.73-.45,8.44,8.44,0,0,1-3.28-1.86,2.9,2.9,0,0,1-1-2.9l0.14-.31a3.33,3.33,0,0,0,.48-2.21,3.76,3.76,0,0,0-.48-0.66c-1.07-1.38-3.07-4-2.62-7.08,0.31-2,1.66-3.9,4-5.56s4.63-2.28,6.49-1.66c3.11,1,4.35,4.94,5,7l0.21,0.66c0.66,1.93,1.35,5.15.69,6.22a7.19,7.19,0,0,1-1.86,1.69c-0.28.24-.69,0.55-0.93,0.72l-0.59,4.32a2.84,2.84,0,0,1-2.55,1.93A2.24,2.24,0,0,1,227.35,126.21Zm-0.55-21.1a7,7,0,0,0-3.87,1.55c-1.9,1.35-3,2.8-3.24,4.35-0.35,2.31,1.28,4.42,2.24,5.7a7.59,7.59,0,0,1,.69,1c0.66,1.38-.14,3.18-0.52,3.87a1.19,1.19,0,0,0,.55,1,6.24,6.24,0,0,0,2.56,1.42,7.31,7.31,0,0,0,2.9.31,1.4,1.4,0,0,0,1.07-.52l0.62-4.73,0.14-.21a9.88,9.88,0,0,1,1.38-1.21,12.22,12.22,0,0,0,1.41-1.21,12.87,12.87,0,0,0-.86-4.7l-0.21-.69c-0.59-1.8-1.62-5.11-3.87-5.84A9.71,9.71,0,0,0,226.8,105.11Z"/><path class="cls-3" d="M231.18,102.86c2.45,1.52-2.49,7.49-2.49,7.49s1.11,2.52,1,3.14-1.21-1.42-2.24-.17-0.69,5.46-1.28,6c-0.79.73-3.59,0.21-4.28-.69-0.55-.73-6.15-7.18-1.76-11.85S228.93,101.45,231.18,102.86Z"/><path class="cls-4" d="M136.79,243.93l-12.67-7.32-6.21,3.59,12.67,7.32Zm-9.6,5.53-12.67-7.32-6.9,4,12.67,7.32Zm28.76-16.61-12.67-7.32-4.83,2.8,12.67,7.32Zm9.6-5.53L152.88,220l-4.18,2.42,12.67,7.32Zm-19.16,11.09-12.67-7.32-5.52,3.18,12.67,7.32Zm-17.13,22.76L94.8,241.27,88,265.1Z"/></svg>