<svg id="Layer_1" data-name="Layer 1" xmlns="http://www.w3.org/2000/svg" viewBox="0 0 316 266"><defs><style>.cls-1{fill:#97c3f9;}.cls-2{fill:#1f5a7b;}.cls-3{fill:#0c1033;}.cls-4{fill:#fff;}.cls-5{fill:#233862;}</style></defs><title>2 step</title><path class="cls-1" d="M49.77,64.71l15-5L59,54.53,43.95,59.58Zm9.59,8.53,15-5L68,62.5l-15.08,5ZM30.59,47.68l15-5-4.55-4-15,5ZM21,39.15l15-5-3.88-3.48-15,5ZM40.18,56.21l15-5L50,46.6l-15,5ZM91,92.65L89,65.9,48.2,79.52Z"/><path class="cls-2" d="M175,154.58c-3.66-2.39-7.28-3-8.1-1.27s1.53,5,5.22,7.45,7.28,3,8.1,1.27S178.72,157,175,154.58Z"/><path class="cls-3" d="M178.2,163.86a13,13,0,0,1-6.53-2.39c-3.54-2.32-6.68-6.1-5.52-8.53a2.52,2.52,0,0,1,1.64-1.35c1.83-.52,4.81.34,7.73,2.24,3.54,2.32,6.68,6.1,5.52,8.53a2.51,2.51,0,0,1-1.64,1.35A4,4,0,0,1,178.2,163.86ZM169,153.19a4.1,4.1,0,0,0-.71.08,0.67,0.67,0,0,0-.52.37c-0.45,1,1.23,3.93,4.89,6.32,2.8,1.83,5.19,2.32,6.27,2a0.67,0.67,0,0,0,.52-0.37c0.45-1-1.23-3.93-4.89-6.32A11.21,11.21,0,0,0,169,153.19Z"/><path class="cls-2" d="M171.44,87.95c-1.64-1.09-3.25-1.31-3.58-.56s0.67,2.24,2.31,3.29,3.25,1.31,3.58.56S173.08,89,171.44,87.95Z"/><path class="cls-3" d="M172.86,92.55a6.13,6.13,0,0,1-3.17-1.16C168,90.27,166.4,88.4,167,87a1.63,1.63,0,0,1,1-.86,5.24,5.24,0,0,1,3.84,1c1.72,1.12,3.28,3,2.65,4.41a1.63,1.63,0,0,1-1,.86A1.42,1.42,0,0,1,172.86,92.55Zm-4.18-4.71a4.82,4.82,0,0,0,2,2.13,4,4,0,0,0,2.28.86,5.09,5.09,0,0,0-2-2.13A4.08,4.08,0,0,0,168.68,87.84Z"/><path class="cls-2" d="M73.81,105.24c-2.16-.82-4.1-0.64-4.37.37s1.27,2.47,3.43,3.29,4.1,0.64,4.37-.37S76,106.06,73.81,105.24Z"/><path class="cls-3" d="M75.41,110.29a8.27,8.27,0,0,1-2.84-.56c-2.31-.86-4.4-2.62-4-4.34a1.92,1.92,0,0,1,1-1.2c1-.56,2.72-0.45,4.55.22,2.31,0.86,4.4,2.62,4,4.34a1.92,1.92,0,0,1-1,1.2A3.9,3.9,0,0,1,75.41,110.29Zm-4.14-4.68a1.39,1.39,0,0,0-1,.22c-0.07.3,0.9,1.46,2.91,2.24s3.06,0.45,3.21.22-0.9-1.46-2.91-2.24A6.7,6.7,0,0,0,71.27,105.61Z"/><path class="cls-1" d="M104.76,120.31a2.07,2.07,0,0,0-.56-0.41c-1.19-.6-3.58.11-6.08,1.76-3,2-5.26,4.79-4.52,6.14a2,2,0,0,0,.67.71c1.42,0.75,3.69,0,6.23-1.65C103.64,124.8,105.39,122.14,104.76,120.31Z"/><path class="cls-3" d="M95.61,129.66a3.75,3.75,0,0,1-1.72-.41,2.55,2.55,0,0,1-1-1c-1.16-2,1.53-5.16,4.78-7.3,2.84-1.87,5.45-2.54,6.94-1.8a1.63,1.63,0,0,1,1,.94c0.78,2.24-1,5.2-4.55,7.52A10.68,10.68,0,0,1,95.61,129.66Zm7.58-9.09a9.91,9.91,0,0,0-4.59,1.8c-3.17,2.1-4.55,4.38-4.22,4.94a1.12,1.12,0,0,0,.34.37c1,0.52,2.95,0,5.34-1.61,2.57-1.68,4.22-3.93,3.92-5.28a0.82,0.82,0,0,0-.19-0.11A1.32,1.32,0,0,0,103.19,120.57Z"/><path class="cls-1" d="M197.79,135.35a1.54,1.54,0,0,0-.45-0.34c-1-.45-2.95.08-5,1.38-2.5,1.57-4.37,3.74-3.69,4.79a1.59,1.59,0,0,0,.56.56c1.16,0.6,3.06,0,5.15-1.31C196.82,138.87,198.31,136.77,197.79,135.35Z"/><path class="cls-3" d="M190.21,142.87a3,3,0,0,1-1.46-.34,2.4,2.4,0,0,1-.93-0.9c-1.08-1.76,1.31-4.34,4-6,2.39-1.5,4.59-2,5.86-1.42a1.45,1.45,0,0,1,.9.82c0.67,1.87-.82,4.26-3.84,6.17A8.91,8.91,0,0,1,190.21,142.87Zm6.23-7.15a7.89,7.89,0,0,0-3.7,1.38c-2.5,1.57-3.54,3.22-3.43,3.59a0.63,0.63,0,0,0,.22.22c0.78,0.41,2.35-.07,4.25-1.27,2.16-1.35,3.28-3,3.17-3.85,0,0,0,0-.07,0S196.67,135.72,196.45,135.72Z"/><path class="cls-2" d="M67.07,134.83a0.29,0.29,0,0,1-.07-0.15l-0.07-.07-0.19-.11c-0.71-.34-2.13,0-3.62,1-1.75,1.16-2.91,2.73-2.57,3.59l0.15,0.22,0,0a0.4,0.4,0,0,0,.19.11c0.9,0.3,2.16,0,3.62-1C66.33,137.3,67.45,135.69,67.07,134.83Z"/><path class="cls-3" d="M61.62,140.44a2.79,2.79,0,0,1-1-.15,1.52,1.52,0,0,1-.49-0.3l0,0,0,0L60,139.85l-0.22-.37,0-.07c-0.6-1.5,1.08-3.48,2.91-4.64,1.34-.9,3.25-1.65,4.48-1l0.07,0,0.26,0.19a0.55,0.55,0,0,1,.15.15l0,0,0.22,0.34c0.71,1.5-1,3.52-2.87,4.75A6.41,6.41,0,0,1,61.62,140.44Zm-0.26-1.8a4.19,4.19,0,0,0,2.65-.9,5.18,5.18,0,0,0,2.24-2.47,4.41,4.41,0,0,0-2.69.94A5.11,5.11,0,0,0,61.36,138.65Z"/><path class="cls-1" d="M197.16,74.74l0.19-.19a0.29,0.29,0,0,0,.07-0.19l0.07-.3c0.19-1.16-.89-3.14-2.8-4.94-2.31-2.17-5-3.25-6-2.43l-0.26.3,0,0a1.27,1.27,0,0,0-.11.3c0,1.42.86,3.18,2.8,5C193.39,74.55,196.15,75.64,197.16,74.74Z"/><path class="cls-3" d="M196.15,75.94c-1.72,0-4-1.27-5.71-3-2.05-1.91-3.13-3.89-3.06-5.65a1.34,1.34,0,0,1,.19-0.64l0-.07a0.13,0.13,0,0,1,0-.07l0-.07L188,66l0.08,0c1.64-1.23,4.85.3,7.2,2.51,2.13,2,3.32,4.23,3.06,5.76l0,0.11-0.11.41a0.61,0.61,0,0,1-.15.26l0,0a1.06,1.06,0,0,1-.34.37A2.38,2.38,0,0,1,196.15,75.94Zm-7-8.46c0,1.23.9,2.73,2.5,4.23,2.28,2.13,4.48,2.77,4.93,2.36l0,0,0-.15c0.07-.67-0.63-2.36-2.54-4.12-2.28-2.1-4.33-2.69-4.89-2.39Z"/><path class="cls-1" d="M295.72,259v3.89a1.31,1.31,0,0,1-.3.82,1.62,1.62,0,0,1-.82.56,1.09,1.09,0,0,1-.34.08c-0.11,0-.22,0-0.3,0H220.6a1.7,1.7,0,0,1-1.75-1.27v-4.34a1.7,1.7,0,0,1,1.75-1.27H294a0.74,0.74,0,0,1,.3,0,1.09,1.09,0,0,1,.34.08,1.63,1.63,0,0,1,.82.56A1.31,1.31,0,0,1,295.72,259Z"/><path class="cls-3" d="M294,265.62H220.59a3,3,0,0,1-3-2.28c0-.07,0-0.19,0-0.3v-4.12a1.06,1.06,0,0,1,0-.34,3,3,0,0,1,3-2.28H294a2.12,2.12,0,0,1,.49,0l0.52,0.11a3.12,3.12,0,0,1,1.42,1,2.48,2.48,0,0,1,.56,1.61v3.89a2.33,2.33,0,0,1-.6,1.61,3.13,3.13,0,0,1-1.42,1l-0.52.11H294Zm-73.89-2.73a0.62,0.62,0,0,0,.52.26h73.48a0.16,0.16,0,0,0,.11,0,0.82,0.82,0,0,0,.26-0.15,0.07,0.07,0,0,0,0-.08V259a0,0,0,0,0,0,0,0.44,0.44,0,0,0-.26-0.15s-0.08,0-.11,0H220.59a0.59,0.59,0,0,0-.52.22v3.89Z"/><path class="cls-1" d="M259.7,264.38h-39.3a1.58,1.58,0,0,1-1.53-1.12s0-.11,0-0.15v-4.34s0-.11,0-0.15a1.58,1.58,0,0,1,1.53-1.12h34.48A12,12,0,0,0,259.7,264.38Z"/><path class="cls-3" d="M263.7,265.62H220.41a2.86,2.86,0,0,1-2.72-2,1.15,1.15,0,0,1-.08-0.3c0-.07,0-0.19,0-0.3v-4.12a1.06,1.06,0,0,1,0-.34,1.15,1.15,0,0,1,.08-0.3,2.82,2.82,0,0,1,2.72-2h35.41l0.26,0.9a10.81,10.81,0,0,0,4.33,6.17Zm-43.62-2.73v0a0.34,0.34,0,0,0,.34.22h36a12.92,12.92,0,0,1-2.5-4.38H220.41a0.34,0.34,0,0,0-.34.22v3.89Z"/><path class="cls-1" d="M286.8,257.5H286v6.88h0.82V257.5Z"/><path class="cls-3" d="M288.06,256.27h-3.32v9.35h3.32v-9.35Z"/><path class="cls-1" d="M284,257.5h-0.82v6.88H284V257.5Z"/><path class="cls-3" d="M285.23,256.27H281.9v9.35h3.32v-9.35Z"/><path class="cls-1" d="M280.6,257.5h-0.82v6.88h0.82V257.5Z"/><path class="cls-3" d="M281.83,256.27h-3.32v9.35h3.32v-9.35Z"/><path class="cls-1" d="M275.41,257.5h-0.82v6.88h0.82V257.5Z"/><path class="cls-3" d="M276.64,256.27h-3.32v9.35h3.32v-9.35Z"/><path class="cls-1" d="M269.93,257.5h-0.82v6.88h0.82V257.5Z"/><path class="cls-3" d="M271.16,256.27h-3.32v9.35h3.32v-9.35Z"/><path class="cls-1" d="M261.49,257.5h-0.82v6.88h0.82V257.5Z"/><path class="cls-3" d="M262.76,256.27h-3.32v9.35h3.32v-9.35Z"/><path class="cls-1" d="M253.62,257.5H252.8v6.88h0.82V257.5Z"/><path class="cls-3" d="M254.89,256.27h-3.32v9.35h3.32v-9.35Z"/><path class="cls-1" d="M246.6,257.5h-0.82v6.88h0.82V257.5Z"/><path class="cls-3" d="M247.87,256.27h-3.32v9.35h3.32v-9.35Z"/><path class="cls-1" d="M289.48,257.5h-0.82v6.88h0.82V257.5Z"/><path class="cls-3" d="M290.75,256.27h-3.32v9.35h3.32v-9.35Z"/><path class="cls-1" d="M291.23,257.5h-0.82v6.88h0.82V257.5Z"/><path class="cls-3" d="M292.5,256.27h-3.32v9.35h3.32v-9.35Z"/><path class="cls-1" d="M293,257.5h-0.82v6.88H293V257.5Z"/><path class="cls-3" d="M294.22,256.27H290.9v9.35h3.32v-9.35Z"/><path class="cls-1" d="M294.26,257.54v6.81c-0.11,0-.22,0-0.3,0h-0.52V257.5H294C294.07,257.5,294.15,257.54,294.26,257.54Z"/><path class="cls-3" d="M294,265.62h-1.75v-9.35H294a2.12,2.12,0,0,1,.49,0l1,0.15v8.94l-1,.15A1.11,1.11,0,0,1,294,265.62Z"/><path class="cls-1" d="M295.41,258.17v5.54a1.61,1.61,0,0,1-.82.56v-6.66A1.62,1.62,0,0,1,295.41,258.17Z"/><path class="cls-3" d="M293.36,266V255.93l1.6,0.52a3.13,3.13,0,0,1,1.42,1l0.26,0.34v6.44l-0.26.34a3.12,3.12,0,0,1-1.42,1Z"/><path class="cls-1" d="M287.88,252.15V256a1.31,1.31,0,0,1-.3.82,1.61,1.61,0,0,1-.82.56,1.08,1.08,0,0,1-.34.08H212.76a1.7,1.7,0,0,1-1.75-1.27v-4.34a1.7,1.7,0,0,1,1.75-1.27h73.67a1.08,1.08,0,0,1,.34.08h0.11s0,0,0,0a0,0,0,0,1,0,0h0s0,0,.07,0a0.78,0.78,0,0,1,.22.15,0.14,0.14,0,0,1,.08.07l0.19,0.19A1.69,1.69,0,0,1,287.88,252.15Z"/><path class="cls-3" d="M286.12,258.77H212.76a3,3,0,0,1-3-2.28c0-.08,0-0.19,0-0.3V252a1,1,0,0,1,0-.34,3,3,0,0,1,3-2.28h73.63l0.26,0,0.48,0.11,0.41,0.15s0,0,.07,0,0.11,0,.15.08L288.1,250s0.11,0.08.15,0.11a2.47,2.47,0,0,1,.3.34,2.68,2.68,0,0,1,.6,1.61V256a2.48,2.48,0,0,1-.56,1.61,3.13,3.13,0,0,1-1.42,1,1.47,1.47,0,0,1-.52.11,0.47,0.47,0,0,0-.22,0A1.14,1.14,0,0,1,286.12,258.77ZM212.2,256a0.62,0.62,0,0,0,.52.26H286.2a0.14,0.14,0,0,0,.11,0,0.6,0.6,0,0,0,.26-0.15l0,0v-3.89a0.12,0.12,0,0,0,0-.08l0,0,0,0s0,0-.08,0l0,0-0.08,0a0.14,0.14,0,0,1-.11,0H212.76a0.51,0.51,0,0,0-.52.26V256h0Z"/><path class="cls-1" d="M251.87,257.5h-39.3a1.58,1.58,0,0,1-1.53-1.12s0-.11,0-0.15v-4.34s0-.11,0-0.15a1.58,1.58,0,0,1,1.53-1.12h34.48a1.69,1.69,0,0,1,0,.19,12.36,12.36,0,0,0,1.6,3.48A10.8,10.8,0,0,0,251.87,257.5Z"/><path class="cls-3" d="M255.86,258.77H212.57a2.86,2.86,0,0,1-2.72-2,0.87,0.87,0,0,1-.07-0.3c0-.08,0-0.19,0-0.3V252a1,1,0,0,1,0-.34,1.15,1.15,0,0,1,.07-0.3,2.82,2.82,0,0,1,2.72-2h35.38l0.26,0.86s0,0.08,0,.11v0a11,11,0,0,0,4.29,6ZM212.2,256v0a0.34,0.34,0,0,0,.34.22h36.09c-0.34-.41-0.67-0.86-1-1.31a12.67,12.67,0,0,1-1.53-3.1H212.57a0.34,0.34,0,0,0-.34.22V256h0Z"/><path class="cls-1" d="M279,250.65h-0.82v6.88H279v-6.88Z"/><path class="cls-3" d="M280.23,249.42h-3.32v9.35h3.32v-9.35Z"/><path class="cls-1" d="M276.12,250.65H275.3v6.88h0.82v-6.88Z"/><path class="cls-3" d="M277.39,249.42h-3.32v9.35h3.32v-9.35Z"/><path class="cls-1" d="M272.73,250.65h-0.82v6.88h0.82v-6.88Z"/><path class="cls-3" d="M274,249.42h-3.32v9.35H274v-9.35Z"/><path class="cls-1" d="M267.54,250.65h-0.82v6.88h0.82v-6.88Z"/><path class="cls-3" d="M268.81,249.42h-3.32v9.35h3.32v-9.35Z"/><path class="cls-1" d="M262.06,250.65h-0.82v6.88h0.82v-6.88Z"/><path class="cls-3" d="M263.33,249.42H260v9.35h3.32v-9.35Z"/><path class="cls-1" d="M253.66,250.65h-0.82v6.88h0.82v-6.88Z"/><path class="cls-3" d="M254.93,249.42h-3.32v9.35h3.32v-9.35Z"/><path class="cls-1" d="M245.78,250.65H245v6.88h0.82v-6.88Z"/><path class="cls-3" d="M247.05,249.42h-3.32v9.35h3.32v-9.35Z"/><path class="cls-1" d="M238.77,250.65h-0.82v6.88h0.82v-6.88Z"/><path class="cls-3" d="M240,249.42h-3.32v9.35H240v-9.35Z"/><path class="cls-1" d="M281.65,250.65h-0.82v6.88h0.82v-6.88Z"/><path class="cls-3" d="M282.92,249.42h-3.32v9.35h3.32v-9.35Z"/><path class="cls-1" d="M283.4,250.65h-0.82v6.88h0.82v-6.88Z"/><path class="cls-3" d="M284.67,249.42h-3.32v9.35h3.32v-9.35Z"/><path class="cls-1" d="M285.12,250.65h-0.82v6.88h0.82v-6.88Z"/><path class="cls-3" d="M286.38,249.42h-3.32v9.35h3.32v-9.35Z"/><path class="cls-1" d="M286.43,250.65v6.81c-0.11,0-.22,0-0.3,0H285.6v-6.88h0.52A0.81,0.81,0,0,0,286.43,250.65Z"/><path class="cls-3" d="M286.13,258.74h-1.75v-9.35h1.75a2.12,2.12,0,0,1,.49,0l1,0.15v8.94l-1,.15A1.1,1.1,0,0,1,286.13,258.74Z"/><path class="cls-1" d="M287.58,251.29v5.54a1.62,1.62,0,0,1-.82.56v-6.66A2.29,2.29,0,0,1,287.58,251.29Z"/><path class="cls-3" d="M285.53,259.11V249l1.6,0.52a3.12,3.12,0,0,1,1.42,1l0.26,0.34v6.44l-0.26.34a3.12,3.12,0,0,1-1.42,1Z"/><path class="cls-1" d="M291.68,245.45v3.89a1.31,1.31,0,0,1-.3.82,1.63,1.63,0,0,1-.82.56,1.08,1.08,0,0,1-.34.08c-0.11,0-.22,0-0.3,0H216.52a2,2,0,0,1-.82-0.19,1.46,1.46,0,0,1-.93-1.2v-4.27a1.7,1.7,0,0,1,1.75-1.27h73.37a0.72,0.72,0,0,1,.3,0,1.09,1.09,0,0,1,.34.07,1.63,1.63,0,0,1,.82.56A1.32,1.32,0,0,1,291.68,245.45Z"/><path class="cls-3" d="M289.89,252H216.52a3.13,3.13,0,0,1-1.31-.26,2.79,2.79,0,0,1-1.68-2.13c0-.08,0-0.19,0-0.26V245.3c0-.11,0-0.22,0-0.34a2.94,2.94,0,0,1,3-2.28h73.37a2.28,2.28,0,0,1,.49,0l0.52,0.11a3.12,3.12,0,0,1,1.42,1,2.55,2.55,0,0,1,.56,1.61v3.89a2.48,2.48,0,0,1-.56,1.61,3.12,3.12,0,0,1-1.42,1,2.14,2.14,0,0,1-.52.11A1.81,1.81,0,0,1,289.89,252ZM216,249.31a0.38,0.38,0,0,0,.22.19,1.09,1.09,0,0,0,.34.08H290a0.18,0.18,0,0,0,.15,0,0.48,0.48,0,0,0,.26-0.19l0,0v-3.89l0,0a0.45,0.45,0,0,0-.26-0.15s-0.07,0-.11,0H216.52a0.51,0.51,0,0,0-.52.26v3.85Z"/><path class="cls-1" d="M255.63,250.8h-39.3a1.68,1.68,0,0,1-.75-0.19,1.61,1.61,0,0,1-.86-1.2v-4.26s0-.11,0-0.15a1.58,1.58,0,0,1,1.53-1.12h34.52a13.53,13.53,0,0,0,1.08,2.69,11.94,11.94,0,0,0,3.51,4A0.62,0.62,0,0,0,255.63,250.8Z"/><path class="cls-3" d="M259.66,252H216.34a2.89,2.89,0,0,1-1.27-.3,2.69,2.69,0,0,1-1.53-2.13c0-.08,0-0.15,0-0.26v-4.08c0-.11,0-0.22,0-0.34a0.69,0.69,0,0,1,.08-0.26,2.82,2.82,0,0,1,2.72-2h35.41l0.26,0.9a10.65,10.65,0,0,0,1,2.43,10.77,10.77,0,0,0,3.14,3.59c0.07,0,.15.11,0.22,0.15ZM216,249.31a0.25,0.25,0,0,0,.15.22,0.28,0.28,0,0,0,.19,0h36.09a11.42,11.42,0,0,1-1.6-2.36,16.58,16.58,0,0,1-.89-2H216.37a0.34,0.34,0,0,0-.34.22v3.89h0Z"/><path class="cls-1" d="M282.72,244H281.9v6.88h0.82V244Z"/><path class="cls-3" d="M284,242.72h-3.32v9.35H284v-9.35Z"/><path class="cls-1" d="M279.92,244H279.1v6.88h0.82V244Z"/><path class="cls-3" d="M281.15,242.72h-3.32v9.35h3.32v-9.35Z"/><path class="cls-1" d="M276.53,244h-0.82v6.88h0.82V244Z"/><path class="cls-3" d="M277.8,242.72h-3.32v9.35h3.32v-9.35Z"/><path class="cls-1" d="M271.34,244h-0.82v6.88h0.82V244Z"/><path class="cls-3" d="M272.61,242.72h-3.32v9.35h3.32v-9.35Z"/><path class="cls-1" d="M265.86,244H265v6.88h0.82V244Z"/><path class="cls-3" d="M267.13,242.72H263.8v9.35h3.32v-9.35Z"/><path class="cls-1" d="M257.46,244h-0.82v6.88h0.82V244Z"/><path class="cls-3" d="M258.69,242.72h-3.32v9.35h3.32v-9.35Z"/><path class="cls-1" d="M249.59,244h-0.82v6.88h0.82V244Z"/><path class="cls-3" d="M250.81,242.72h-3.32v9.35h3.32v-9.35Z"/><path class="cls-1" d="M242.53,244h-0.82v6.88h0.82V244Z"/><path class="cls-3" d="M243.8,242.72h-3.32v9.35h3.32v-9.35Z"/><path class="cls-1" d="M285.41,244h-0.82v6.88h0.82V244Z"/><path class="cls-3" d="M286.68,242.72h-3.32v9.35h3.32v-9.35Z"/><path class="cls-1" d="M287.2,244h-0.82v6.88h0.82V244Z"/><path class="cls-3" d="M288.47,242.72h-3.32v9.35h3.32v-9.35Z"/><path class="cls-1" d="M288.92,244H288.1v6.88h0.82V244Z"/><path class="cls-3" d="M290.18,242.72h-3.32v9.35h3.32v-9.35Z"/><path class="cls-1" d="M290.23,244v6.81c-0.11,0-.22,0-0.3,0H289.4V244h0.52A0.92,0.92,0,0,1,290.23,244Z"/><path class="cls-3" d="M289.89,252h-1.75v-9.35h1.75a2.11,2.11,0,0,1,.48,0l1,0.15v8.94l-1,.15A1,1,0,0,1,289.89,252Z"/><path class="cls-1" d="M291.38,244.63v5.54a1.62,1.62,0,0,1-.82.56v-6.66A2,2,0,0,1,291.38,244.63Z"/><path class="cls-3" d="M289.29,252.41V242.35l1.6,0.52a3.13,3.13,0,0,1,1.42,1l0.26,0.34v6.44l-0.26.34a3.13,3.13,0,0,1-1.42,1Z"/><path class="cls-1" d="M293.44,238.57v3.89a1.31,1.31,0,0,1-.3.82,0.85,0.85,0,0,1-.19.19,1.5,1.5,0,0,1-.67.37,1.11,1.11,0,0,1-.34.07H218.32a1.7,1.7,0,0,1-1.75-1.27v-4.34A1.65,1.65,0,0,1,218.1,237h73.59a0.72,0.72,0,0,1,.3,0,1.08,1.08,0,0,1,.34.08,1.62,1.62,0,0,1,.82.56A1.5,1.5,0,0,1,293.44,238.57Z"/><path class="cls-3" d="M291.65,245.19H218.32a3,3,0,0,1-3-2.28,0.93,0.93,0,0,1,0-.34v-4.19a0.63,0.63,0,0,1,0-.26A3,3,0,0,1,218,235.8h73.7a2.45,2.45,0,0,1,.52,0l0.52,0.11a3,3,0,0,1,1.38.94,2.52,2.52,0,0,1,.6,1.61v3.89a2.33,2.33,0,0,1-.6,1.61,2.53,2.53,0,0,1-.3.34,3.28,3.28,0,0,1-1.12.64,2.58,2.58,0,0,1-.52.11,0.47,0.47,0,0,0-.22,0h-0.08A0.27,0.27,0,0,1,291.65,245.19Zm-73.89-2.73a0.56,0.56,0,0,0,.52.26h73.48a0.14,0.14,0,0,0,.11,0,0.81,0.81,0,0,0,.19-0.11l0,0,0,0v-3.89a0,0,0,0,0,0,0,0.6,0.6,0,0,0-.26-0.15,0.83,0.83,0,0,0-.15,0H218.24a0.65,0.65,0,0,0-.45.22v0Z"/><path class="cls-1" d="M257.42,244H218.09a1.58,1.58,0,0,1-1.53-1.12s0-.11,0-0.15v-4.34a1.55,1.55,0,0,1,1.38-1.27h34.67a11.6,11.6,0,0,0,.86,2.28A11.92,11.92,0,0,0,257.42,244Z"/><path class="cls-3" d="M261.42,245.19H218.13a2.78,2.78,0,0,1-2.69-2,0.87,0.87,0,0,1-.07-0.3c0-.08,0-0.19,0-0.3v-4.19a0.63,0.63,0,0,1,0-.26,2.74,2.74,0,0,1,2.46-2.28h36V237a11,11,0,0,0,4.29,6Zm-43.66-2.73v0a0.34,0.34,0,0,0,.34.22h36.09a12.75,12.75,0,0,1-1.83-2.77,12.16,12.16,0,0,1-.67-1.61H218.09a0.4,0.4,0,0,0-.3.22v3.89h0Z"/><path class="cls-1" d="M284.49,237.07h-0.82V244h0.82v-6.88Z"/><path class="cls-3" d="M285.75,235.84h-3.32v9.35h3.32v-9.35Z"/><path class="cls-1" d="M281.69,237.07h-0.82V244h0.82v-6.88Z"/><path class="cls-3" d="M283,235.84h-3.32v9.35H283v-9.35Z"/><path class="cls-1" d="M278.29,237.07h-0.82V244h0.82v-6.88Z"/><path class="cls-3" d="M279.56,235.84h-3.32v9.35h3.32v-9.35Z"/><path class="cls-1" d="M273.1,237.07h-0.82V244h0.82v-6.88Z"/><path class="cls-3" d="M274.37,235.84H271v9.35h3.32v-9.35Z"/><path class="cls-1" d="M267.62,237.07H266.8V244h0.82v-6.88Z"/><path class="cls-3" d="M268.89,235.84h-3.32v9.35h3.32v-9.35Z"/><path class="cls-1" d="M259.22,237.07H258.4V244h0.82v-6.88Z"/><path class="cls-3" d="M260.49,235.84h-3.32v9.35h3.32v-9.35Z"/><path class="cls-1" d="M251.35,237.07h-0.82V244h0.82v-6.88Z"/><path class="cls-3" d="M252.61,235.84h-3.32v9.35h3.32v-9.35Z"/><path class="cls-1" d="M244.29,237.07h-0.82V244h0.82v-6.88Z"/><path class="cls-3" d="M245.56,235.84h-3.32v9.35h3.32v-9.35Z"/><path class="cls-1" d="M287.17,237.07h-0.82V244h0.82v-6.88Z"/><path class="cls-3" d="M288.44,235.84h-3.32v9.35h3.32v-9.35Z"/><path class="cls-1" d="M289,237.07h-0.82V244H289v-6.88Z"/><path class="cls-3" d="M290.23,235.84h-3.32v9.35h3.32v-9.35Z"/><path class="cls-1" d="M290.68,237.07h-0.82V244h0.82v-6.88Z"/><path class="cls-3" d="M291.95,235.84h-3.32v9.35h3.32v-9.35Z"/><path class="cls-1" d="M292,237.11v6.81c-0.11,0-.22,0-0.3,0h-0.56v-6.88h0.52C291.76,237.07,291.87,237.11,292,237.11Z"/><path class="cls-3" d="M291.65,245.19H289.9v-9.35h1.75a2.12,2.12,0,0,1,.49,0l1,0.15v9l-1,.15A2,2,0,0,1,291.65,245.19Z"/><path class="cls-1" d="M293.14,237.75v5.54a1.63,1.63,0,0,1-.82.56v-6.66A1.8,1.8,0,0,1,293.14,237.75Z"/><path class="cls-3" d="M291.05,245.57V235.5l1.6,0.52a3.12,3.12,0,0,1,1.42,1l0.26,0.34v6.44l-0.26.34a3.12,3.12,0,0,1-1.42,1Z"/><path class="cls-1" d="M288,231.72v3.89a1.31,1.31,0,0,1-.3.82,1.62,1.62,0,0,1-.82.56,1.08,1.08,0,0,1-.34.08H212.91a1.7,1.7,0,0,1-1.75-1.27v-4.26a1.63,1.63,0,0,1,1.34-1.31h0a1.26,1.26,0,0,1,.37,0h73.67a1.08,1.08,0,0,1,.34.08,1.62,1.62,0,0,1,.82.56A1.72,1.72,0,0,1,288,231.72Z"/><path class="cls-3" d="M286.27,238.34H212.91a3,3,0,0,1-3-2.28c0-.07,0-0.19,0-0.3v-4.3a2.81,2.81,0,0,1,2.24-2.36l0.15,0a3.18,3.18,0,0,1,.6,0h73.78a0.22,0.22,0,0,1,.15,0l0.49,0.11a3.12,3.12,0,0,1,1.42,1,2.49,2.49,0,0,1,.56,1.61v3.89a2.33,2.33,0,0,1-.6,1.61,2.77,2.77,0,0,1-1.42,1,2.15,2.15,0,0,1-.52.11l-0.22,0h-0.11A0.14,0.14,0,0,0,286.27,238.34Zm-73.89-2.73a0.62,0.62,0,0,0,.52.26h73.63a0.52,0.52,0,0,0,.26-0.15s0,0,0-.08v-3.89a0,0,0,0,0,0,0,0.45,0.45,0,0,0-.26-0.15s-0.07,0-.11,0h-73.7a0.63,0.63,0,0,0-.37.22v3.85h0Z"/><path class="cls-1" d="M252,237.11h-39.3a1.58,1.58,0,0,1-1.53-1.12s0-.11,0-0.15v-4.27a1.55,1.55,0,0,1,1.23-1.31h0.07c0.08,0,.19,0,0.3,0h34.48v0a11.81,11.81,0,0,0,4.78,6.85h0Z"/><path class="cls-3" d="M257.91,238.35H212.72a2.86,2.86,0,0,1-2.72-2,0.9,0.9,0,0,1-.07-0.3c0-.08,0-0.19,0-0.3v-4.3a2.73,2.73,0,0,1,2.2-2.39l0.15,0a2,2,0,0,1,.48,0H248.1l0.3,0.86s0,0.07,0,.11a10.82,10.82,0,0,0,4.22,6.06Zm-45.53-2.73v0a0.34,0.34,0,0,0,.34.22h36.09a12.94,12.94,0,0,1-2.5-4.38H212.68a0.33,0.33,0,0,0-.26.22v3.89h0Z"/><path class="cls-1" d="M279.11,230.23h-0.82v6.88h0.82v-6.88Z"/><path class="cls-3" d="M280.38,229h-3.32v9.35h3.32V229Z"/><path class="cls-1" d="M276.27,230.23h-0.82v6.88h0.82v-6.88Z"/><path class="cls-3" d="M277.54,229h-3.32v9.35h3.32V229Z"/><path class="cls-1" d="M272.88,230.23h-0.82v6.88h0.82v-6.88Z"/><path class="cls-3" d="M274.14,229h-3.32v9.35h3.32V229Z"/><path class="cls-1" d="M267.69,230.23h-0.82v6.88h0.82v-6.88Z"/><path class="cls-3" d="M269,229h-3.32v9.35H269V229Z"/><path class="cls-1" d="M262.2,230.23h-0.82v6.88h0.82v-6.88Z"/><path class="cls-3" d="M263.47,229h-3.32v9.35h3.32V229Z"/><path class="cls-1" d="M253.81,230.23H253v6.88h0.82v-6.88Z"/><path class="cls-3" d="M255.07,229h-3.32v9.35h3.32V229Z"/><path class="cls-1" d="M245.93,230.23h-0.82v6.88h0.82v-6.88Z"/><path class="cls-3" d="M247.2,229h-3.32v9.35h3.32V229Z"/><path class="cls-1" d="M238.92,230.23H238.1v6.88h0.82v-6.88Z"/><path class="cls-3" d="M240.18,229h-3.32v9.35h3.32V229Z"/><path class="cls-1" d="M281.8,230.23H281v6.88h0.82v-6.88Z"/><path class="cls-3" d="M283.07,229h-3.32v9.35h3.32V229Z"/><path class="cls-1" d="M283.55,230.23h-0.82v6.88h0.82v-6.88Z"/><path class="cls-3" d="M284.82,229h-3.32v9.35h3.32V229Z"/><path class="cls-1" d="M285.27,230.23h-0.82v6.88h0.82v-6.88Z"/><path class="cls-3" d="M286.53,229h-3.32v9.35h3.32V229Z"/><path class="cls-1" d="M286.57,230.26v6.81c-0.11,0-.22,0-0.3,0h-0.52v-6.88h0.52A0.82,0.82,0,0,1,286.57,230.26Z"/><path class="cls-3" d="M286.27,238.35h-1.75V229h1.75a2.17,2.17,0,0,1,.49,0l1,0.15v8.94l-1,.15A2.17,2.17,0,0,1,286.27,238.35Z"/><path class="cls-1" d="M287.73,230.9v5.54a1.62,1.62,0,0,1-.82.56v-6.66A1.63,1.63,0,0,1,287.73,230.9Z"/><path class="cls-3" d="M285.67,238.68V228.62l1.6,0.52a3.13,3.13,0,0,1,1.42,1l0.26,0.34v6.44l-0.26.34a3.12,3.12,0,0,1-1.42,1Z"/><path class="cls-1" d="M287.88,224.91v3.89a1.31,1.31,0,0,1-.3.82,1.62,1.62,0,0,1-.82.56c-0.07,0-.19,0-0.26.07h-0.08c-0.11,0-.19,0-0.3,0H212.46A1.68,1.68,0,0,1,211,229v-4.3a1.7,1.7,0,0,1,1.75-1.27h73.67a1.08,1.08,0,0,1,.34.08h0.11s0,0,0,0a0,0,0,0,1,0,0,1.79,1.79,0,0,1,.34.22,0.14,0.14,0,0,1,.08.08l0.07,0.08,0,0,0.08,0.07A1.16,1.16,0,0,1,287.88,224.91Z"/><path class="cls-3" d="M286.12,231.54H212.76a1.43,1.43,0,0,1-.37,0,0.4,0.4,0,0,1-.19,0,2.86,2.86,0,0,1-2.43-2.28c0-.08,0-0.19,0-0.26v-4.19a1,1,0,0,1,0-.34,3,3,0,0,1,3-2.28h73.81l0.08,0,0.48,0.11h0.26l0.22,0.19a1.87,1.87,0,0,1,.45.3l0.15,0.11,0.15,0.15,0,0a0.2,0.2,0,0,1,.07.11l0,0.08a2.56,2.56,0,0,1,.56,1.61v3.89a2.56,2.56,0,0,1-.56,1.61,3.13,3.13,0,0,1-1.42,1l-0.41.11-0.15,0A1.34,1.34,0,0,1,286.12,231.54ZM212.64,229h73.7a0.59,0.59,0,0,0,.26-0.15l0,0V225a0,0,0,0,0,0,0l0,0h-0.11l-0.19-.15H212.76a0.51,0.51,0,0,0-.52.26v3.89a0.53,0.53,0,0,0,.41.22V229Z"/><path class="cls-1" d="M251.87,230.26H212.35A1.55,1.55,0,0,1,211,229v-4.3s0-.11,0-0.15a1.58,1.58,0,0,1,1.53-1.12H247a1.64,1.64,0,0,1,0,.19,12.1,12.1,0,0,0,4.7,6.66h0.11Z"/><path class="cls-3" d="M251.87,231.54H212.2a2.74,2.74,0,0,1-2.43-2.32c0-.08,0-0.15,0-0.22V224.8a1,1,0,0,1,0-.34,1.14,1.14,0,0,1,.07-0.3,2.82,2.82,0,0,1,2.72-2h35.38l0.26,0.86s0,0.07,0,.11v0a11,11,0,0,0,4.22,6,0.14,0.14,0,0,1,.08.07l3.1,2.25ZM212.53,229h36.09a13.68,13.68,0,0,1-2.5-4.38H212.57a0.34,0.34,0,0,0-.34.22v3.93A0.26,0.26,0,0,0,212.53,229Z"/><path class="cls-1" d="M279,223.42h-0.82v6.88H279v-6.88Z"/><path class="cls-3" d="M280.23,222.18h-3.32v9.35h3.32v-9.35Z"/><path class="cls-1" d="M276.12,223.42H275.3v6.88h0.82v-6.88Z"/><path class="cls-3" d="M277.39,222.18h-3.32v9.35h3.32v-9.35Z"/><path class="cls-1" d="M272.73,223.42h-0.82v6.88h0.82v-6.88Z"/><path class="cls-3" d="M274,222.18h-3.32v9.35H274v-9.35Z"/><path class="cls-1" d="M267.54,223.42h-0.82v6.88h0.82v-6.88Z"/><path class="cls-3" d="M268.81,222.18h-3.32v9.35h3.32v-9.35Z"/><path class="cls-1" d="M262.06,223.42h-0.82v6.88h0.82v-6.88Z"/><path class="cls-3" d="M263.33,222.18H260v9.35h3.32v-9.35Z"/><path class="cls-1" d="M253.66,223.42h-0.82v6.88h0.82v-6.88Z"/><path class="cls-3" d="M254.93,222.18h-3.32v9.35h3.32v-9.35Z"/><path class="cls-1" d="M245.78,223.42H245v6.88h0.82v-6.88Z"/><path class="cls-3" d="M247.05,222.18h-3.32v9.35h3.32v-9.35Z"/><path class="cls-1" d="M238.77,223.42h-0.82v6.88h0.82v-6.88Z"/><path class="cls-3" d="M240,222.18h-3.32v9.35H240v-9.35Z"/><path class="cls-1" d="M281.65,223.42h-0.82v6.88h0.82v-6.88Z"/><path class="cls-3" d="M282.92,222.18h-3.32v9.35h3.32v-9.35Z"/><path class="cls-1" d="M283.4,223.42h-0.82v6.88h0.82v-6.88Z"/><path class="cls-3" d="M284.67,222.18h-3.32v9.35h3.32v-9.35Z"/><path class="cls-1" d="M285.12,223.42h-0.82v6.88h0.82v-6.88Z"/><path class="cls-3" d="M286.38,222.18h-3.32v9.35h3.32v-9.35Z"/><path class="cls-1" d="M286.43,223.45v6.81c-0.11,0-.22,0-0.3,0H285.6v-6.88h0.52A0.82,0.82,0,0,1,286.43,223.45Z"/><path class="cls-3" d="M286.13,231.54h-1.75v-9.35h1.75a2.44,2.44,0,0,1,.52,0l1,0.15v8.94l-1,.15A2.89,2.89,0,0,1,286.13,231.54Z"/><path class="cls-1" d="M287.58,224.09v5.54a1.63,1.63,0,0,1-.82.56v-6.66A1.63,1.63,0,0,1,287.58,224.09Z"/><path class="cls-3" d="M285.53,231.87V221.81l1.6,0.52a3.12,3.12,0,0,1,1.42,1l0.26,0.34V230l-0.26.34a3.12,3.12,0,0,1-1.42,1Z"/><path class="cls-1" d="M291.68,218.22v3.89a1.31,1.31,0,0,1-.3.82,1.63,1.63,0,0,1-.82.56,1.08,1.08,0,0,1-.34.08,0.22,0.22,0,0,0-.15,0H216.52a2,2,0,0,1-.82-0.19,1.46,1.46,0,0,1-.93-1.2V218a1.7,1.7,0,0,1,1.75-1.27h73.37a0.72,0.72,0,0,1,.3,0,1.12,1.12,0,0,1,.34.07,1.63,1.63,0,0,1,.82.56A1.32,1.32,0,0,1,291.68,218.22Z"/><path class="cls-3" d="M289.89,224.84H216.52a3.14,3.14,0,0,1-1.31-.26,2.79,2.79,0,0,1-1.68-2.13c0-.08,0-0.19,0-0.26V218.1a1,1,0,0,1,0-.34,3,3,0,0,1,3-2.28h73.37a2.44,2.44,0,0,1,.52,0l0.52,0.11a3,3,0,0,1,1.38.94,2.68,2.68,0,0,1,.6,1.61v3.89a2.49,2.49,0,0,1-.56,1.61,3.12,3.12,0,0,1-1.42,1,1.46,1.46,0,0,1-.52.11c-0.07,0-.15,0-0.22,0h-0.07C290,224.8,290,224.84,289.89,224.84ZM216,222.07a0.29,0.29,0,0,0,.22.19,1.09,1.09,0,0,0,.34.07h73.52a0.14,0.14,0,0,0,.11,0,0.34,0.34,0,0,0,.22-0.15l0,0v-3.89a0.12,0.12,0,0,0,0-.07,0.44,0.44,0,0,0-.26-0.15s-0.07,0-.11,0H216.52a0.51,0.51,0,0,0-.52.26v3.85Z"/><path class="cls-1" d="M255.63,223.57h-39.3a1.7,1.7,0,0,1-.75-0.19,1.61,1.61,0,0,1-.86-1.2v-4.26s0-.11,0-0.15a1.58,1.58,0,0,1,1.53-1.12h34.52a11.83,11.83,0,0,0,4.59,6.7A0.64,0.64,0,0,0,255.63,223.57Z"/><path class="cls-3" d="M259.66,224.84H216.34a2.89,2.89,0,0,1-1.27-.3,2.69,2.69,0,0,1-1.53-2.13c0-.08,0-0.15,0-0.26v-4.08c0-.11,0-0.22,0-0.34a0.94,0.94,0,0,1,.08-0.26,2.82,2.82,0,0,1,2.72-2h35.41l0.26,0.9a11,11,0,0,0,4.11,6c0.07,0,.15.11,0.22,0.15ZM216,222.07a0.25,0.25,0,0,0,.15.22,0.28,0.28,0,0,0,.19,0h36.09a12.92,12.92,0,0,1-2.5-4.38H216.37a0.34,0.34,0,0,0-.34.22v3.89h0Z"/><path class="cls-1" d="M282.72,216.72H281.9v6.88h0.82v-6.88Z"/><path class="cls-3" d="M284,215.49h-3.32v9.35H284v-9.35Z"/><path class="cls-1" d="M279.92,216.72H279.1v6.88h0.82v-6.88Z"/><path class="cls-3" d="M281.15,215.49h-3.32v9.35h3.32v-9.35Z"/><path class="cls-1" d="M276.53,216.72h-0.82v6.88h0.82v-6.88Z"/><path class="cls-3" d="M277.8,215.49h-3.32v9.35h3.32v-9.35Z"/><path class="cls-1" d="M271.34,216.72h-0.82v6.88h0.82v-6.88Z"/><path class="cls-3" d="M272.61,215.49h-3.32v9.35h3.32v-9.35Z"/><path class="cls-1" d="M265.86,216.72H265v6.88h0.82v-6.88Z"/><path class="cls-3" d="M267.13,215.49H263.8v9.35h3.32v-9.35Z"/><path class="cls-1" d="M257.46,216.72h-0.82v6.88h0.82v-6.88Z"/><path class="cls-3" d="M258.69,215.49h-3.32v9.35h3.32v-9.35Z"/><path class="cls-1" d="M249.59,216.72h-0.82v6.88h0.82v-6.88Z"/><path class="cls-3" d="M250.81,215.49h-3.32v9.35h3.32v-9.35Z"/><path class="cls-1" d="M242.53,216.72h-0.82v6.88h0.82v-6.88Z"/><path class="cls-3" d="M243.8,215.49h-3.32v9.35h3.32v-9.35Z"/><path class="cls-1" d="M285.41,216.72h-0.82v6.88h0.82v-6.88Z"/><path class="cls-3" d="M286.68,215.49h-3.32v9.35h3.32v-9.35Z"/><path class="cls-1" d="M287.2,216.72h-0.82v6.88h0.82v-6.88Z"/><path class="cls-3" d="M288.47,215.49h-3.32v9.35h3.32v-9.35Z"/><path class="cls-1" d="M288.92,216.72H288.1v6.88h0.82v-6.88Z"/><path class="cls-3" d="M290.18,215.49h-3.32v9.35h3.32v-9.35Z"/><path class="cls-1" d="M290.23,216.76v6.81c-0.11,0-.22,0-0.3,0H289.4v-6.88h0.52A0.92,0.92,0,0,1,290.23,216.76Z"/><path class="cls-3" d="M289.89,224.84h-1.75v-9.35h1.75a2.11,2.11,0,0,1,.48,0l1,0.15v8.94l-1,.15A1.88,1.88,0,0,1,289.89,224.84Z"/><path class="cls-1" d="M291.38,217.39v5.54a1.62,1.62,0,0,1-.82.56v-6.66A2,2,0,0,1,291.38,217.39Z"/><path class="cls-3" d="M289.29,225.18V215.11l1.6,0.52a3.13,3.13,0,0,1,1.42,1l0.26,0.34v6.44l-0.26.34a3.13,3.13,0,0,1-1.42,1Z"/><path class="cls-1" d="M297.66,211.33v3.89a1.31,1.31,0,0,1-.3.82,0.14,0.14,0,0,1-.07.08,1.74,1.74,0,0,1-.75.49,1.09,1.09,0,0,1-.34.08c-0.11,0-.22,0-0.3,0H222.53a1.7,1.7,0,0,1-1.75-1.27v-4.19a1.68,1.68,0,0,1,1.57-1.42h73.59a0.74,0.74,0,0,1,.3,0,1.08,1.08,0,0,1,.34.08,2.1,2.1,0,0,1,.75.45,0.14,0.14,0,0,0,.08.08A1.78,1.78,0,0,1,297.66,211.33Z"/><path class="cls-3" d="M295.9,218H222.53a3,3,0,0,1-3-2.28,0.84,0.84,0,0,1,0-.3v-4.23a2.85,2.85,0,0,1,2.69-2.58h73.7a2.45,2.45,0,0,1,.52,0l0.52,0.11a2.68,2.68,0,0,1,1.23.79,0.51,0.51,0,0,1,.11.15l0,0a2.55,2.55,0,0,1,.56,1.61v3.89a2.48,2.48,0,0,1-.56,1.61,0.67,0.67,0,0,0-.15.19,2.81,2.81,0,0,1-1.27.79,1.32,1.32,0,0,1-.52.11A1.18,1.18,0,0,1,295.9,218ZM222,215.22a0.62,0.62,0,0,0,.52.26H296a0.14,0.14,0,0,0,.11,0,0.78,0.78,0,0,0,.22-0.15l0,0v-3.93a0,0,0,0,0,0,0,0.52,0.52,0,0,0-.26-0.15s-0.08,0-.11,0H222.46a0.47,0.47,0,0,0-.45.26v3.85Z"/><path class="cls-1" d="M261.64,216.72h-39.3a1.58,1.58,0,0,1-1.53-1.12s0-.11,0-0.15v-4.19a0.29,0.29,0,0,1,0-.19,1.52,1.52,0,0,1,1.38-1.2h34.67A11.82,11.82,0,0,0,261.64,216.72Z"/><path class="cls-3" d="M265.63,218H222.34a2.78,2.78,0,0,1-2.69-2c0-.11,0-0.19-0.08-0.3a0.84,0.84,0,0,1,0-.3v-4.19a1.92,1.92,0,0,1,.07-0.41A2.75,2.75,0,0,1,222,208.6h36v1.08a10.88,10.88,0,0,0,4.29,6ZM222,215.22v0a0.34,0.34,0,0,0,.34.22h36.09a13,13,0,0,1-2.5-4.38H222.34a0.33,0.33,0,0,0-.3.22v0Z"/><path class="cls-1" d="M288.73,209.84h-0.82v6.88h0.82v-6.88Z"/><path class="cls-3" d="M290,208.6h-3.32V218H290V208.6Z"/><path class="cls-1" d="M285.9,209.84h-0.82v6.88h0.82v-6.88Z"/><path class="cls-3" d="M287.16,208.6h-3.32V218h3.32V208.6Z"/><path class="cls-1" d="M282.54,209.84h-0.82v6.88h0.82v-6.88Z"/><path class="cls-3" d="M283.77,208.6h-3.32V218h3.32V208.6Z"/><path class="cls-1" d="M277.35,209.84h-0.82v6.88h0.82v-6.88Z"/><path class="cls-3" d="M278.58,208.6h-3.32V218h3.32V208.6Z"/><path class="cls-1" d="M271.87,209.84H271v6.88h0.82v-6.88Z"/><path class="cls-3" d="M273.1,208.6h-3.32V218h3.32V208.6Z"/><path class="cls-1" d="M263.43,209.84h-0.82v6.88h0.82v-6.88Z"/><path class="cls-3" d="M264.7,208.6h-3.32V218h3.32V208.6Z"/><path class="cls-1" d="M255.56,209.84h-0.82v6.88h0.82v-6.88Z"/><path class="cls-3" d="M256.82,208.6H253.5V218h3.32V208.6Z"/><path class="cls-1" d="M248.54,209.84h-0.82v6.88h0.82v-6.88Z"/><path class="cls-3" d="M249.81,208.6h-3.32V218h3.32V208.6Z"/><path class="cls-1" d="M291.42,209.84H290.6v6.88h0.82v-6.88Z"/><path class="cls-3" d="M292.69,208.6h-3.32V218h3.32V208.6Z"/><path class="cls-1" d="M293.17,209.84h-0.82v6.88h0.82v-6.88Z"/><path class="cls-3" d="M294.44,208.6h-3.32V218h3.32V208.6Z"/><path class="cls-1" d="M294.89,209.84h-0.82v6.88h0.82v-6.88Z"/><path class="cls-3" d="M296.16,208.6h-3.32V218h3.32V208.6Z"/><path class="cls-1" d="M296.2,209.87v6.81c-0.11,0-.22,0-0.3,0h-0.52v-6.88h0.52C296,209.84,296.12,209.87,296.2,209.87Z"/><path class="cls-3" d="M295.9,218h-1.75V208.6h1.75a2.11,2.11,0,0,1,.48,0l1,0.15v8.94l-1,.15A1.09,1.09,0,0,1,295.9,218Z"/><path class="cls-1" d="M297.35,210.51V216a1.62,1.62,0,0,1-.82.56v-6.66A1.61,1.61,0,0,1,297.35,210.51Z"/><path class="cls-3" d="M295.3,218.33V208.27l1.6,0.52a3.12,3.12,0,0,1,1.42,1l0.26,0.34v6.44l-0.26.34a3.12,3.12,0,0,1-1.42,1Z"/><path class="cls-1" d="M288,204.49v3.89a1.31,1.31,0,0,1-.3.82,1.63,1.63,0,0,1-.82.56,1.08,1.08,0,0,1-.34.07H212.91a1.7,1.7,0,0,1-1.75-1.27v-4.34a1.7,1.7,0,0,1,1.75-1.27h73.67a1.08,1.08,0,0,1,.34.07s0.08,0,.11,0h0a1.85,1.85,0,0,1,.67.49A2,2,0,0,1,288,204.49Z"/><path class="cls-3" d="M286.46,211.11H212.91a3,3,0,0,1-3-2.28,0.93,0.93,0,0,1,0-.34v-4.15c0-.11,0-0.22,0-0.34a2.94,2.94,0,0,1,3-2.28h73.67a0.47,0.47,0,0,1,.22,0l0.49,0.11h0l0.11,0,0.11,0,0.11,0.08a3.34,3.34,0,0,1,1.08.82,2.56,2.56,0,0,1,.56,1.61v3.89a2.4,2.4,0,0,1-.6,1.61,2.94,2.94,0,0,1-1.42,1,2.14,2.14,0,0,1-.52.11,0.28,0.28,0,0,0-.19,0Zm0,0h0Zm-74-2.73a0.61,0.61,0,0,0,.52.22h73.52a0.14,0.14,0,0,0,.11,0,0.61,0.61,0,0,0,.26-0.15,0.08,0.08,0,0,0,0-.08v-3.89a0.12,0.12,0,0,0,0-.08l0,0h0l-0.19-.11a0.18,0.18,0,0,1-.11,0H212.94a0.59,0.59,0,0,0-.52.22v4h0Z"/><path class="cls-1" d="M252,209.87h-39.3a1.58,1.58,0,0,1-1.53-1.12s0-.11,0-0.15v-4.34s0-.11,0-0.15a1.58,1.58,0,0,1,1.53-1.12H247.2s0,0.11,0,.15a12,12,0,0,0,4.78,6.73h0Z"/><path class="cls-3" d="M257.91,211.11H212.72a2.86,2.86,0,0,1-2.72-2c0-.11,0-0.19-0.07-0.3a0.92,0.92,0,0,1,0-.34v-4.15c0-.11,0-0.22,0-0.34a0.71,0.71,0,0,1,.07-0.26,2.82,2.82,0,0,1,2.72-2h35.42l0.3,1a10.75,10.75,0,0,0,4.22,6Zm-45.53-2.73a0.33,0.33,0,0,0,.34.22h36.09a13.3,13.3,0,0,1-2.5-4.38H212.76a0.34,0.34,0,0,0-.34.22v3.93h0Z"/><path class="cls-1" d="M279.11,203h-0.82v6.88h0.82V203Z"/><path class="cls-3" d="M280.38,201.76h-3.32v9.35h3.32v-9.35Z"/><path class="cls-1" d="M276.27,203h-0.82v6.88h0.82V203Z"/><path class="cls-3" d="M277.54,201.76h-3.32v9.35h3.32v-9.35Z"/><path class="cls-1" d="M272.88,203h-0.82v6.88h0.82V203Z"/><path class="cls-3" d="M274.14,201.76h-3.32v9.35h3.32v-9.35Z"/><path class="cls-1" d="M267.69,203h-0.82v6.88h0.82V203Z"/><path class="cls-3" d="M269,201.76h-3.32v9.35H269v-9.35Z"/><path class="cls-1" d="M262.2,203h-0.82v6.88h0.82V203Z"/><path class="cls-3" d="M263.47,201.76h-3.32v9.35h3.32v-9.35Z"/><path class="cls-1" d="M253.81,203H253v6.88h0.82V203Z"/><path class="cls-3" d="M255.07,201.76h-3.32v9.35h3.32v-9.35Z"/><path class="cls-1" d="M245.93,203h-0.82v6.88h0.82V203Z"/><path class="cls-3" d="M247.2,201.76h-3.32v9.35h3.32v-9.35Z"/><path class="cls-1" d="M238.92,203H238.1v6.88h0.82V203Z"/><path class="cls-3" d="M240.18,201.76h-3.32v9.35h3.32v-9.35Z"/><path class="cls-1" d="M281.8,203H281v6.88h0.82V203Z"/><path class="cls-3" d="M283.07,201.76h-3.32v9.35h3.32v-9.35Z"/><path class="cls-1" d="M283.55,203h-0.82v6.88h0.82V203Z"/><path class="cls-3" d="M284.82,201.76h-3.32v9.35h3.32v-9.35Z"/><path class="cls-1" d="M285.27,203h-0.82v6.88h0.82V203Z"/><path class="cls-3" d="M286.53,201.76h-3.32v9.35h3.32v-9.35Z"/><path class="cls-1" d="M286.57,203v6.81c-0.11,0-.22,0-0.3,0h-0.52V203h0.52A0.82,0.82,0,0,1,286.57,203Z"/><path class="cls-3" d="M286.27,211.11h-1.75v-9.35h1.75a2.12,2.12,0,0,1,.49,0l1,0.15v8.94l-1,.15A2.23,2.23,0,0,1,286.27,211.11Z"/><path class="cls-1" d="M287.73,203.66v5.54a1.63,1.63,0,0,1-.82.56V203.1A1.62,1.62,0,0,1,287.73,203.66Z"/><path class="cls-3" d="M285.67,211.48V201.42l1.6,0.52a3.13,3.13,0,0,1,1.42,1l0.26,0.34v6.44l-0.26.34a3.12,3.12,0,0,1-1.42,1Z"/><path class="cls-1" d="M293.44,197.79v3.89a1.31,1.31,0,0,1-.3.82,1.62,1.62,0,0,1-.82.56,1.11,1.11,0,0,1-.34.07c-0.11,0-.22,0-0.3,0H218.32a2.46,2.46,0,0,1-.78-0.15,1.73,1.73,0,0,1-1-1.08v-4.38a1.65,1.65,0,0,1,1.53-1.27H292a1.08,1.08,0,0,1,.34.08,1.62,1.62,0,0,1,.82.56A1.5,1.5,0,0,1,293.44,197.79Z"/><path class="cls-3" d="M291.65,204.41H218.32a3,3,0,0,1-1.27-.26,2.71,2.71,0,0,1-1.68-2c0-.08,0-0.15,0-0.22v-4.3a0.55,0.55,0,0,1,0-.26A2.87,2.87,0,0,1,218,195.1h74a0.47,0.47,0,0,1,.22,0l0.52,0.11a3,3,0,0,1,1.38.94,2.52,2.52,0,0,1,.6,1.61v3.89a2.33,2.33,0,0,1-.6,1.61,2.52,2.52,0,0,1-1.42.94,1.31,1.31,0,0,1-.52.11A3.85,3.85,0,0,1,291.65,204.41Zm-73.89-2.73a0.38,0.38,0,0,0,.22.19,0.87,0.87,0,0,0,.3.08h73.52a0.14,0.14,0,0,0,.11,0,0.35,0.35,0,0,0,.22-0.15,0.08,0.08,0,0,0,0-.08v-3.89a0,0,0,0,0,0,0,0.61,0.61,0,0,0-.26-0.15s-0.08,0-.11,0H218.24a0.56,0.56,0,0,0-.45.22v0Zm0,0h0Z"/><path class="cls-1" d="M257.43,203.14H218.09a2.17,2.17,0,0,1-.71-0.15,1.55,1.55,0,0,1-.86-1.08v-4.38a1.55,1.55,0,0,1,1.38-1.27h34.67a11.82,11.82,0,0,0,4.59,6.7A0.57,0.57,0,0,0,257.43,203.14Z"/><path class="cls-3" d="M261.38,204.41H218.09a3.44,3.44,0,0,1-1.23-.26,2.68,2.68,0,0,1-1.53-2c0-.08,0-0.15,0-0.22v-4.3a0.55,0.55,0,0,1,0-.26,2.74,2.74,0,0,1,2.46-2.28h36v1.08a10.88,10.88,0,0,0,4.07,5.87c0.08,0,.15.11,0.22,0.15Zm-43.62-2.73a0.28,0.28,0,0,0,.19.22,0.34,0.34,0,0,0,.19,0h36a13,13,0,0,1-2.5-4.38H218.09a0.4,0.4,0,0,0-.3.22v0Zm0,0h0Z"/><path class="cls-1" d="M284.49,196.29h-0.82v6.88h0.82v-6.88Z"/><path class="cls-3" d="M285.75,195.06h-3.32v9.35h3.32v-9.35Z"/><path class="cls-1" d="M281.69,196.29h-0.82v6.88h0.82v-6.88Z"/><path class="cls-3" d="M283,195.06h-3.32v9.35H283v-9.35Z"/><path class="cls-1" d="M278.29,196.29h-0.82v6.88h0.82v-6.88Z"/><path class="cls-3" d="M279.56,195.06h-3.32v9.35h3.32v-9.35Z"/><path class="cls-1" d="M273.1,196.29h-0.82v6.88h0.82v-6.88Z"/><path class="cls-3" d="M274.37,195.06H271v9.35h3.32v-9.35Z"/><path class="cls-1" d="M267.62,196.29H266.8v6.88h0.82v-6.88Z"/><path class="cls-3" d="M268.89,195.06h-3.32v9.35h3.32v-9.35Z"/><path class="cls-1" d="M259.22,196.29H258.4v6.88h0.82v-6.88Z"/><path class="cls-3" d="M260.49,195.06h-3.32v9.35h3.32v-9.35Z"/><path class="cls-1" d="M251.35,196.29h-0.82v6.88h0.82v-6.88Z"/><path class="cls-3" d="M252.61,195.06h-3.32v9.35h3.32v-9.35Z"/><path class="cls-1" d="M244.29,196.29h-0.82v6.88h0.82v-6.88Z"/><path class="cls-3" d="M245.56,195.06h-3.32v9.35h3.32v-9.35Z"/><path class="cls-1" d="M287.17,196.29h-0.82v6.88h0.82v-6.88Z"/><path class="cls-3" d="M288.44,195.06h-3.32v9.35h3.32v-9.35Z"/><path class="cls-1" d="M289,196.29h-0.82v6.88H289v-6.88Z"/><path class="cls-3" d="M290.23,195.06h-3.32v9.35h3.32v-9.35Z"/><path class="cls-1" d="M290.68,196.29h-0.82v6.88h0.82v-6.88Z"/><path class="cls-3" d="M291.95,195.06h-3.32v9.35h3.32v-9.35Z"/><path class="cls-1" d="M292,196.33v6.81c-0.11,0-.22,0-0.3,0h-0.56v-6.88h0.52A1,1,0,0,1,292,196.33Z"/><path class="cls-3" d="M291.65,204.41H289.9v-9.35h1.75a2.12,2.12,0,0,1,.49,0l1,0.15v8.94l-1,.15A1.92,1.92,0,0,1,291.65,204.41Z"/><path class="cls-1" d="M293.14,197v5.54a1.63,1.63,0,0,1-.82.56v-6.66A1.81,1.81,0,0,1,293.14,197Z"/><path class="cls-3" d="M291.05,204.75V194.68l1.6,0.52a3.12,3.12,0,0,1,1.42,1l0.26,0.34V203l-0.26.34a3.12,3.12,0,0,1-1.42,1Z"/><path class="cls-1" d="M295.72,190.94v3.89a1.31,1.31,0,0,1-.3.82,0.85,0.85,0,0,1-.19.19,2,2,0,0,1-.67.37,1.11,1.11,0,0,1-.34.07H220.41a1.69,1.69,0,0,1-1.57-1.27v-4.34a1.7,1.7,0,0,1,1.75-1.27H294a0.72,0.72,0,0,1,.3,0,1.09,1.09,0,0,1,.34.08,1.63,1.63,0,0,1,.82.56A1.41,1.41,0,0,1,295.72,190.94Z"/><path class="cls-3" d="M294,197.53h-73.7a2.92,2.92,0,0,1-2.65-2.24,1.06,1.06,0,0,1,0-.34v-4.12a1.05,1.05,0,0,1,0-.34,3,3,0,0,1,3-2.28H294a2.45,2.45,0,0,1,.52,0l0.52,0.11a3.12,3.12,0,0,1,1.42,1,2.59,2.59,0,0,1,.6,1.61v3.89a2.33,2.33,0,0,1-.6,1.61c-0.11.11-.19,0.22-0.3,0.34a3.46,3.46,0,0,1-1.08.64,2.67,2.67,0,0,1-.52.11c-0.07,0-.11,0-0.19,0h-0.11A0.72,0.72,0,0,0,294,197.53Zm-73.89-2.69a0.5,0.5,0,0,0,.45.22h73.63a0.28,0.28,0,0,0,.11,0l0.22-.11,0,0,0,0v-3.89a0,0,0,0,0,0,0,0.52,0.52,0,0,0-.26-0.15h0a0.29,0.29,0,0,1-.11,0H220.59a0.5,0.5,0,0,0-.52.26v3.85Z"/><path class="cls-1" d="M259.7,196.29H220.22a1.51,1.51,0,0,1-1.38-1.27v-4.34s0-.11,0-0.15a1.58,1.58,0,0,1,1.53-1.12h34.48A11.86,11.86,0,0,0,259.7,196.29Z"/><path class="cls-3" d="M264.92,197.53H220.11a2.74,2.74,0,0,1-2.46-2.28,0.84,0.84,0,0,1,0-.3v-4.12a1.05,1.05,0,0,1,0-.34,1.16,1.16,0,0,1,.08-0.3,2.82,2.82,0,0,1,2.72-2h35.41l0.26,0.9a10.79,10.79,0,0,0,4.25,6.1h0Zm-44.86-2.69a0.29,0.29,0,0,0,.3.22h36.12a13,13,0,0,1-2.5-4.38H220.44a0.34,0.34,0,0,0-.34.22v3.93h0Z"/><path class="cls-1" d="M286.8,189.45H286v6.88h0.82v-6.88Z"/><path class="cls-3" d="M288.06,188.21h-3.32v9.35h3.32v-9.35Z"/><path class="cls-1" d="M284,189.45h-0.82v6.88H284v-6.88Z"/><path class="cls-3" d="M285.23,188.21H281.9v9.35h3.32v-9.35Z"/><path class="cls-1" d="M280.6,189.45h-0.82v6.88h0.82v-6.88Z"/><path class="cls-3" d="M281.83,188.21h-3.32v9.35h3.32v-9.35Z"/><path class="cls-1" d="M275.41,189.45h-0.82v6.88h0.82v-6.88Z"/><path class="cls-3" d="M276.64,188.21h-3.32v9.35h3.32v-9.35Z"/><path class="cls-1" d="M269.93,189.45h-0.82v6.88h0.82v-6.88Z"/><path class="cls-3" d="M271.16,188.21h-3.32v9.35h3.32v-9.35Z"/><path class="cls-1" d="M261.49,189.45h-0.82v6.88h0.82v-6.88Z"/><path class="cls-3" d="M262.76,188.21h-3.32v9.35h3.32v-9.35Z"/><path class="cls-1" d="M253.62,189.45H252.8v6.88h0.82v-6.88Z"/><path class="cls-3" d="M254.89,188.21h-3.32v9.35h3.32v-9.35Z"/><path class="cls-1" d="M246.6,189.45h-0.82v6.88h0.82v-6.88Z"/><path class="cls-3" d="M247.87,188.21h-3.32v9.35h3.32v-9.35Z"/><path class="cls-1" d="M289.48,189.45h-0.82v6.88h0.82v-6.88Z"/><path class="cls-3" d="M290.75,188.21h-3.32v9.35h3.32v-9.35Z"/><path class="cls-1" d="M291.23,189.45h-0.82v6.88h0.82v-6.88Z"/><path class="cls-3" d="M292.5,188.21h-3.32v9.35h3.32v-9.35Z"/><path class="cls-1" d="M293,189.45h-0.82v6.88H293v-6.88Z"/><path class="cls-3" d="M294.22,188.21H290.9v9.35h3.32v-9.35Z"/><path class="cls-1" d="M294.26,189.45v6.81c-0.11,0-.22,0-0.3,0h-0.52v-6.88H294A0.82,0.82,0,0,0,294.26,189.45Z"/><path class="cls-3" d="M294,197.53h-1.75v-9.35H294a2.12,2.12,0,0,1,.49,0l1,0.15v8.94l-1,.15A1.1,1.1,0,0,1,294,197.53Z"/><path class="cls-1" d="M295.41,190.08v5.54a1.62,1.62,0,0,1-.82.56v-6.66A1.89,1.89,0,0,1,295.41,190.08Z"/><path class="cls-3" d="M293.36,197.9V187.84l1.6,0.52a3.12,3.12,0,0,1,1.42,1l0.26,0.34v6.44l-0.26.34a3.13,3.13,0,0,1-1.42,1Z"/><path class="cls-1" d="M207.72,264.61a36.7,36.7,0,1,0-36.61-36.7A36.66,36.66,0,0,0,207.72,264.61Z"/><path class="cls-3" d="M207.72,265.84a37.92,37.92,0,1,1,37.84-37.9A37.94,37.94,0,0,1,207.72,265.84Zm0-73.37a35.43,35.43,0,1,0,35.34,35.43A35.43,35.43,0,0,0,207.72,192.48Z"/><path class="cls-2" d="M207.72,261.77A33.42,33.42,0,1,1,231.3,252,33.07,33.07,0,0,1,207.72,261.77Zm0-64.84a31.43,31.43,0,1,0,31.35,31.43A31.43,31.43,0,0,0,207.72,196.93Z"/><path class="cls-2" d="M212.31,238a5.54,5.54,0,0,0-.08-1.94,4.13,4.13,0,0,0-.82-1.61,9.24,9.24,0,0,0-1.64-1.46,21.32,21.32,0,0,0-2.54-1.42q-2.57-1.29-4.7-2.58a17.1,17.1,0,0,1-3.51-2.84,9.73,9.73,0,0,1-2.05-3.48,10.06,10.06,0,0,1-.37-4.45,10.59,10.59,0,0,1,1.23-3.89,10,10,0,0,1,2.57-2.88,11.26,11.26,0,0,1,3.7-1.76,15.31,15.31,0,0,1,4.63-.52l0.63-5.5,4.44,0.52-0.67,5.57a14.51,14.51,0,0,1,4.18,1.76,10.47,10.47,0,0,1,3,2.88,10.91,10.91,0,0,1,1.68,3.85,14.2,14.2,0,0,1,.19,4.75l-8-.94a6.76,6.76,0,0,0-.82-4.79,4.72,4.72,0,0,0-3.47-2,6.06,6.06,0,0,0-2.2.07,3.8,3.8,0,0,0-1.6.79,3.43,3.43,0,0,0-1,1.31,5.34,5.34,0,0,0-.49,1.76,5.45,5.45,0,0,0,.08,1.76,3.54,3.54,0,0,0,.78,1.53,8.1,8.1,0,0,0,1.64,1.46,25.58,25.58,0,0,0,2.65,1.53c1.72,0.9,3.25,1.76,4.63,2.66a15.79,15.79,0,0,1,3.47,2.88,9.74,9.74,0,0,1,2.05,3.48,10,10,0,0,1,.37,4.41,10.1,10.1,0,0,1-1.27,4,9,9,0,0,1-2.61,2.84,11.36,11.36,0,0,1-3.73,1.68A16.6,16.6,0,0,1,208,248l-0.6,5.12-4.4-.52,0.6-5.09a19.24,19.24,0,0,1-4.33-1.53,11.43,11.43,0,0,1-3.54-2.69,10.29,10.29,0,0,1-2.2-4,13.38,13.38,0,0,1-.37-5.42l8,0.93a7.56,7.56,0,0,0,.15,3.11,5.79,5.79,0,0,0,1.12,2.13,5.22,5.22,0,0,0,1.83,1.27,7.31,7.31,0,0,0,2.2.56,6.7,6.7,0,0,0,2.31-.07,4.4,4.4,0,0,0,1.75-.75,4.16,4.16,0,0,0,1.16-1.27A3.45,3.45,0,0,0,212.31,238Z"/><path class="cls-1" d="M276.79,149.86s-3.88,5.5-7.46,5.57-9-2.54-9-2.54-3.28-7.3-1-10.18a4.78,4.78,0,0,1,4.55.75,5.78,5.78,0,0,1,1.19,1.16,3.73,3.73,0,0,0,1.87,1.27c2.54,0.79,5.56-1,6.68.71a11.87,11.87,0,0,0,2,2.32A11.26,11.26,0,0,0,276.79,149.86Z"/><path class="cls-3" d="M269.22,156.67c-3.81,0-9.14-2.54-9.37-2.66l-0.41-.19-0.19-.41c-0.37-.82-3.51-8.08-0.9-11.45l0.19-.26,0.3-.11a6,6,0,0,1,5.78.9,6.89,6.89,0,0,1,1.42,1.35,2.58,2.58,0,0,0,1.27.86,7.4,7.4,0,0,0,2.87,0c1.53-.19,3.47-0.45,4.52,1.23a10.46,10.46,0,0,0,1.75,2.1,6.28,6.28,0,0,0,1,.79l1.12,0.67-0.75,1.09c-0.45.6-4.37,6-8.43,6.1h-0.19ZM261.31,152c1.31,0.6,5.34,2.28,8,2.24,1.94,0,4.37-2.47,5.71-4.08-0.08-.08-0.19-0.15-0.26-0.22a14.17,14.17,0,0,1-2.16-2.58c-0.22-.34-1-0.26-2.13-0.11a9.09,9.09,0,0,1-3.88-.07,5.25,5.25,0,0,1-2.46-1.65,6.22,6.22,0,0,0-1-1,3.74,3.74,0,0,0-3-.71C259.18,145.56,260.41,149.75,261.31,152Z"/><path class="cls-1" d="M226.12,189.45s13.73-33.37,38.47-34c0,0,22.84,2.54,24.11,34H226.12Z"/><path class="cls-3" d="M290,190.68H224.29L225,189a82.93,82.93,0,0,1,10.11-17.06c8.77-11.34,19-17.43,29.44-17.73h0.15a26.36,26.36,0,0,1,12.2,5.46c5.56,4.34,12.32,13,13,29.74Zm-61.91-2.47h59.34c-0.75-11.86-4.85-21-12-26.6a24.27,24.27,0,0,0-10.86-4.94C244.1,157.27,231.23,181.48,228.06,188.21Z"/><path class="cls-1" d="M257.84,156.45s9.93,2.21,13,.9c0,0,.45-4.15-3.69-3.55-2.87.41-4.7-1-5.82-1.53C259.7,151.47,257.42,154.73,257.84,156.45Z"/><path class="cls-3" d="M267.8,159a54.66,54.66,0,0,1-10.23-1.35l-0.75-.19-0.19-.75c-0.41-1.76.82-4,2.16-5.09a2.74,2.74,0,0,1,3-.49,4.11,4.11,0,0,1,.56.3,6.86,6.86,0,0,0,4.52,1.12,4.33,4.33,0,0,1,3.84,1A4.93,4.93,0,0,1,272,157.5l-0.08.71-0.67.3A8.9,8.9,0,0,1,267.8,159Zm-8.7-3.55c3.32,0.67,8.1,1.35,10.41,1a1.93,1.93,0,0,0-.49-1.08,2.13,2.13,0,0,0-1.79-.34,9.1,9.1,0,0,1-6.08-1.38c-0.15-.08-0.3-0.19-0.45-0.26a2.15,2.15,0,0,0-1,.79A5.89,5.89,0,0,0,259.11,155.44Z"/><path class="cls-4" d="M239.55,180.13c-0.26-.22,9.74-14.74,12.46-14.82s8.92,3.18,13.4,3.59,8.81-.86,9.67,1.8,3.17,12,1.75,13.54S245,184.81,239.55,180.13Z"/><path class="cls-3" d="M269.7,186.12c-3.06,0-6.64-.15-10.11-0.41-6.31-.49-17.39-1.68-20.86-4.68a1.37,1.37,0,0,1-.37-1.42c0.3-.9,3.28-5.16,5.56-8.08,5.71-7.41,7.35-7.48,8-7.52,1.6-.08,3.81.71,6.38,1.61a33.36,33.36,0,0,0,7.17,2,33,33,0,0,0,3.84.08c2.95-.08,6-0.11,6.87,2.58a64.22,64.22,0,0,1,1.75,7.37c0.93,5.28.37,6.7-.3,7.41-0.37.37-.9,0.94-6.53,1C270.71,186.12,270.23,186.12,269.7,186.12Zm-28.55-6.4c2.76,1.53,9.25,2.81,17.91,3.48,8.47,0.67,15.38.49,16.87,0.08,0.52-1.53-.86-8.42-2.05-12.23-0.26-.86-1.64-0.94-4.48-0.86a30.36,30.36,0,0,1-4.1-.08,36.33,36.33,0,0,1-7.76-2.09,21.65,21.65,0,0,0-5.37-1.5h-0.07c-0.15,0-1.64.64-6.23,6.62C243.77,175.87,242,178.45,241.15,179.72Z"/><path class="cls-5" d="M90.2,229.4s-0.37-1.87,3.92-7.59c0.93-1.23,3.73-4.83,3.73-4.83,1.12-.26,3.66,1.35,5.52,1.8a1.08,1.08,0,0,1,.45.52s1.31,5.39-1.83,4.68l-0.3-.08c-3.06-.49-6,2.54-7.31,4.49C93.49,229.63,90.8,229.44,90.2,229.4Z"/><path class="cls-3" d="M98.64,218.82c0.49,0.15,1.12.45,1.6,0.64s1.31,0.56,2,.79a7.11,7.11,0,0,1,.07,1.94c-0.11,0-.22,0-0.34-0.08A7.41,7.41,0,0,0,101,222c-4.22,0-7.46,4.34-8.1,5.28a2.22,2.22,0,0,1-.3.15,29.42,29.42,0,0,1,2.91-4.6C96.18,222,97.74,219.94,98.64,218.82Zm-0.52-1.87a0.82,0.82,0,0,0-.3,0s-2.8,3.59-3.73,4.83c-4.29,5.72-3.92,7.59-3.92,7.59s0.45,0,.86,0c1,0,2.65-.15,3.28-1.08,1.23-1.8,3.88-4.53,6.68-4.53a3.39,3.39,0,0,1,.63,0,0.89,0.89,0,0,1,.3.07,2.86,2.86,0,0,0,.56.08c2.43,0,1.31-4.71,1.31-4.71a1.08,1.08,0,0,0-.45-0.52C101.66,218.33,99.35,216.95,98.12,216.95Z"/><path class="cls-3" d="M90.58,229.4A15.64,15.64,0,0,0,92.44,227c0.93-1.16,1.9-2.24,2.84-3.37A20.18,20.18,0,0,0,98,219.94c0.49-.9.86-1.87,1.27-2.81a2.85,2.85,0,0,0-1.38-.19s-2.8,3.59-3.73,4.83c-4.29,5.72-3.92,7.59-3.92,7.59A1,1,0,0,0,90.58,229.4Z"/><path class="cls-5" d="M109.95,217.77s-0.37-1.87,3.92-7.59c0.93-1.23,3.73-4.83,3.73-4.83,1.12-.26,4.59,1.57,5.49,2.13a2.25,2.25,0,0,0,.45.19s1.31,5.39-1.83,4.68l-0.3-.07c-3.06-.49-6,2.54-7.31,4.49C113.19,218,110.54,217.81,109.95,217.77Z"/><path class="cls-3" d="M118.38,207.18a20.3,20.3,0,0,1,3.58,1.68,6.58,6.58,0,0,1,0,1.68c-0.11,0-.22,0-0.34-0.08a7.23,7.23,0,0,0-.93-0.07c-4.22,0-7.46,4.34-8.1,5.28a2.21,2.21,0,0,1-.3.15,29.42,29.42,0,0,1,2.91-4.6C115.92,210.36,117.49,208.3,118.38,207.18Zm-0.52-1.87a0.55,0.55,0,0,0-.26,0s-2.8,3.59-3.73,4.83c-4.29,5.72-3.92,7.59-3.92,7.59s0.45,0,.86,0c1,0,2.65-.15,3.28-1.08,1.23-1.8,3.88-4.53,6.68-4.53a3.39,3.39,0,0,1,.63,0,0.88,0.88,0,0,1,.3.07,2.85,2.85,0,0,0,.56.08c2.43,0,1.31-4.71,1.31-4.71a2.21,2.21,0,0,1-.45-0.19C122.22,207,119.16,205.31,117.86,205.31Z"/><path class="cls-3" d="M110.32,217.81a15.69,15.69,0,0,0,1.87-2.36c0.93-1.16,1.9-2.25,2.84-3.37a20.18,20.18,0,0,0,2.69-3.74c0.49-.9.86-1.87,1.27-2.81a2.86,2.86,0,0,0-1.38-.19s-2.8,3.59-3.73,4.83c-4.29,5.72-3.92,7.59-3.92,7.59A1.54,1.54,0,0,1,110.32,217.81Z"/><path class="cls-3" d="M157.9,186.19c-0.86-3.78-6.31,2.81-11.27,5.54s2.39,7.41,7.58,24.84l0.22,0.79c-10.49-1.72-31.94-10.21-31.94-10.21a4.43,4.43,0,0,0-1.87,2.28c-0.86,2.13-.26,2.73-0.26,2.73,9.44,2.62,28.51,12.46,36.2,16.39,2.95,1.35,6.38,1.35,7.09-1.27C166,218.63,157.9,186.19,157.9,186.19Z"/><path class="cls-4" d="M156.81,106.88c0.75,1.68,1.31,3.89.82,5.09a4.57,4.57,0,0,0-.41,2.28l-1.19.3-1.42.34a3.41,3.41,0,0,1-.19-0.34c-0.11-.22-0.26-0.52-0.41-0.86a1.29,1.29,0,0,0-.67-0.94A2.78,2.78,0,0,1,152,111c-0.11-.71-0.86-2.06-0.63-2.17,1.34-.71,1.42.82,1.87,0.94s0.48,0,.52-0.07c0.71-1.68-.71-5.24.3-5.5C154.35,104.11,156.48,106.17,156.81,106.88Z"/><path class="cls-3" d="M155.62,108.75a4.87,4.87,0,0,1,.37,2.51,7.26,7.26,0,0,0-.45,1.5,2.78,2.78,0,0,0-1.16-1.42,1.81,1.81,0,0,0,.93-1v0a0,0,0,0,1,0,0v0A3.69,3.69,0,0,0,155.62,108.75Zm-1.6-4.56h0c-1,.22.37,3.78-0.34,5.5a0.23,0.23,0,0,1-.26.11,0.75,0.75,0,0,1-.26,0c-0.37-.08-0.48-1.12-1.23-1.12a1.19,1.19,0,0,0-.63.19c-0.22.11,0.52,1.46,0.63,2.17a2.49,2.49,0,0,0,1.38,1.72,1.29,1.29,0,0,1,.67.94c0.15,0.34.3,0.64,0.41,0.86a3.3,3.3,0,0,0,.19.34l1.42-.34,1.19-.3a4.57,4.57,0,0,1,.41-2.28c0.48-1.16-.08-3.37-0.82-5.09A8,8,0,0,0,154,104.18Z"/><path class="cls-4" d="M79.72,141c1.23,1.35,3,2.77,4.29,2.81a2,2,0,0,1,1.87,1L87,143.32l0.9-1.16s-0.07-.11-0.22-0.3a4,4,0,0,1-1.19-1.72,2.56,2.56,0,0,0-1-1.95c-0.6-.41-1.38-1.53-1.72-1.46-0.93.19,0.34,1.61,0.26,2.06a0.61,0.61,0,0,1-.56.49c-1.83,0-4.37-2.81-5-1.94C78.19,137.59,79.19,140.36,79.72,141Z"/><path class="cls-3" d="M84.79,140.55a3.62,3.62,0,0,0,.86,1.68v0l0,0a3.85,3.85,0,0,0-1.53-.3,4.91,4.91,0,0,1-2-1.27,3.88,3.88,0,0,0,1.31.26h0.11A2.29,2.29,0,0,0,84.79,140.55Zm-1-3.85h0c-1,.19.3,1.61,0.22,2.06a0.67,0.67,0,0,1-.56.49c-1.57,0-3.73-2.13-4.66-2.13a0.36,0.36,0,0,0-.34.15c-0.22.3,0.78,3.11,1.31,3.67,1.23,1.35,3,2.77,4.29,2.81a2,2,0,0,1,1.87,1L87,143.28l0.9-1.16s-0.07-.11-0.22-0.3a4,4,0,0,1-1.19-1.72,2.56,2.56,0,0,0-1-1.95C84.9,137.78,84.15,136.7,83.78,136.7Z"/><path class="cls-3" d="M136.25,193.94c-5.49,1.42-2.39,7.18-1.57,25.37a59.48,59.48,0,0,0,.56,5.95c-8.06-1.61-26.5-5.57-32.77-6.62a4.58,4.58,0,0,0-1.49,2.58,5.59,5.59,0,0,0-.07,2.62L140.73,236c1.38,0.37,2.69-.34,3.73-2.32,4.14-8,5.67-44.18,5.67-44.18C150.21,185.56,141.78,192.48,136.25,193.94Z"/><path class="cls-4" d="M126.74,153.79s1.94-4.9-1.83-11.9l5.34,1.2,3.62,0.82a34.11,34.11,0,0,1,1.38,3.55c0.22,0.6,1,3,1.19,3.78,1.27,0-.56,2-3.17,2.36A38.59,38.59,0,0,1,126.74,153.79Z"/><path class="cls-3" d="M129,154.77a19,19,0,0,1-2.28-.08l-1.23-.08,0.45-1.12c0-.08,1.72-4.68-1.79-11.19l-0.9-1.68,11.27,2.51,0.19,0.37a29.49,29.49,0,0,1,1.42,3.63c0.19,0.52.75,2.36,1.08,3.37a1.19,1.19,0,0,1,.6.94c0.08,1.35-2.28,2.73-4.37,3A31.61,31.61,0,0,1,129,154.77Zm-1.08-1.8a34,34,0,0,0,5.3-.22,5.81,5.81,0,0,0,2.54-1l-0.08-.19c-0.22-.75-1-3.14-1.19-3.74-0.52-1.5-.93-2.54-1.16-3.07l-6.75-1.5A16.7,16.7,0,0,1,127.89,153Z"/><path class="cls-4" d="M136.29,142s-6.19,6.85-10.37,2.92-7.84-5.69-4.07-10.25,6.16-3.89,7.87-2.92S137.79,140.18,136.29,142Z"/><path class="cls-3" d="M128.9,147.1a5.13,5.13,0,0,1-3.62-1.46c-0.63-.6-1.23-1.12-1.83-1.65-3.25-2.84-6-5.28-2.31-9.8,4.11-4.94,6.94-4.26,9-3.1,1.57,0.9,6.57,6.47,7.16,9.58a2.36,2.36,0,0,1-.34,1.94l0,0c-0.15.19-3.88,4.26-7.8,4.41A0.47,0.47,0,0,1,128.9,147.1ZM127.41,132c-1.16,0-2.72.67-4.93,3.29-2.65,3.18-1.27,4.41,2.09,7.33,0.6,0.52,1.23,1.08,1.87,1.68a3.39,3.39,0,0,0,2.58,1c3-.11,6.19-3.44,6.53-3.82a1,1,0,0,0,0-.52c-0.48-2.47-5.08-7.67-6.31-8.38A3.64,3.64,0,0,0,127.41,132Z"/><path class="cls-3" d="M125.54,144.55a1.12,1.12,0,0,0-.3-1.61c-0.93-.9-2-2.25-0.93-2.66s1.57,0.22,1.6-.45-1.23-2.28,1.12-4.34,4-2,4.74-3.4-0.89-5.8-4.48-5.84-4.89,2.92-6.12,4c-2.65,2.39-4.33,4-3.77,6.55S122.37,144.22,125.54,144.55Z"/><path class="cls-2" d="M161.14,126.59a61.59,61.59,0,0,0-3.92-12.8l-3.21-.15a93.91,93.91,0,0,1,1.45,14.25c0,2.77-.56,6.32-0.89,6.77-1,1.35-18.06,14.74-18.06,14.74l-0.49.22c-0.37,1.53-.89,2.62-2.5,3-2.69.71-5.19-.9-7.58,0,0,0-7,1.83-7.87,1.87-4.66.11-13.21-1.53-16.12-2.92s-14.26-9.77-14.26-9.77l-2.09,2.47s8.47,13.32,14.67,16c3.36,1.46,14.59,3.44,20.6,4.75,2.39,0.52,10.37,25.1,11.87,33.11,0,0.3.22,0.52,0.49,0.41,3.69-1.57,17.76-7.48,18.36-7.82,1.79-1,7.5-2.81,7.13-4-2.72-8.23-9.26-31.05-8.1-32.92,3.73-6,11.34-15.79,11.42-17.73A90.72,90.72,0,0,0,161.14,126.59Z"/><path class="cls-3" d="M156.11,115.82a56.61,56.61,0,0,1,3.28,11.07,87.13,87.13,0,0,1,.86,9.13,16.34,16.34,0,0,1-1.83,3.18c-1.08,1.68-2.5,3.7-4,5.84-1.9,2.73-3.92,5.57-5.34,7.89-0.49.79-1.19,1.91,2.39,15.45,1.72,6.51,3.88,13.77,5.26,18.07a29.6,29.6,0,0,1-3.51,1.61c-1,.41-1.87.79-2.5,1.12-0.86.41-12.28,5.24-16.64,7.07-1-4.34-3.1-11.52-5.34-18-4.93-14.33-6.49-14.67-7.54-14.89-1.57-.34-3.51-0.75-5.56-1.16-5.52-1.12-12.39-2.47-14.7-3.52-4.25-1.87-10.37-10.1-13.14-14.29l0.19-.19c3.17,2.32,10.75,7.78,13.21,9,3.13,1.5,11.57,3.1,16.38,3.1h0.56a81,81,0,0,0,8.25-1.94l0.08,0,0.07,0a2.84,2.84,0,0,1,1-.15,11,11,0,0,1,1.83.22,17.67,17.67,0,0,0,2.57.26,6.84,6.84,0,0,0,2-.26,4.75,4.75,0,0,0,3.54-3.55l0.08-.08s4.33-3.4,8.66-6.88c9-7.18,9.44-7.86,9.74-8.19,1-1.42,1.23-7.71,1.23-7.78A85.92,85.92,0,0,0,156.11,115.82ZM154,113.69a94,94,0,0,1,1.46,14.25c0,2.77-.56,6.32-0.9,6.77-1,1.35-18.06,14.74-18.06,14.74l-0.48.22c-0.37,1.53-.9,2.62-2.5,3a5.37,5.37,0,0,1-1.53.19c-1.53,0-3-.49-4.4-0.49a5,5,0,0,0-1.64.26s-7,1.83-7.87,1.87h-0.48c-4.78,0-12.8-1.61-15.6-3s-14.26-9.76-14.26-9.76l-2.09,2.47s8.47,13.32,14.67,16.05c3.36,1.46,14.59,3.44,20.6,4.75,2.39,0.52,10.37,25.1,11.87,33.11a0.44,0.44,0,0,0,.37.41,0.28,0.28,0,0,0,.15,0c3.69-1.57,17.76-7.48,18.36-7.82,1.79-1,7.5-2.81,7.13-4-2.72-8.23-9.26-31.05-8.1-32.92,3.73-6,11.34-15.79,11.42-17.73a73.58,73.58,0,0,0-.9-9.54,61.56,61.56,0,0,0-3.92-12.8Z"/><circle class="cls-2" cx="267.28" cy="24.73" r="24.72"/><path class="cls-4" d="M271.2,23.56a6,6,0,0,1,3.42,2.21,6.37,6.37,0,0,1,1.21,4A6.29,6.29,0,0,1,273.37,35a10.25,10.25,0,0,1-6.55,1.92,15.76,15.76,0,0,1-4.95-.78A10.75,10.75,0,0,1,258,33.92l1.57-3.35a11.37,11.37,0,0,0,7.08,2.63,5.61,5.61,0,0,0,3.6-1,3.5,3.5,0,0,0,1.21-2.92,3.26,3.26,0,0,0-1.21-2.81,6.14,6.14,0,0,0-3.74-.93h-3.35V21.93h2.74q4.91,0,4.91-3.74a3.34,3.34,0,0,0-1.07-2.67,4.42,4.42,0,0,0-3-.93,11.18,11.18,0,0,0-6.83,2.63l-1.53-3.35a11.1,11.1,0,0,1,3.84-2.14,14.5,14.5,0,0,1,4.81-.82A9,9,0,0,1,273,12.78a6,6,0,0,1,2.24,4.88,6.55,6.55,0,0,1-1.1,3.67A5.93,5.93,0,0,1,271.2,23.56Z"/></svg>