<svg width="72" height="36" viewBox="0 0 72 36" fill="none" xmlns="http://www.w3.org/2000/svg">
<path opacity="0.9" d="M27.9727 34.8011C28.1567 34.5416 28.4231 34.3489 28.5713 34.3561C28.7251 34.3636 28.843 34.2894 28.8483 34.1811C28.8532 34.0785 28.6865 33.9847 28.4756 33.9745C28.1508 33.9587 28.0999 33.8305 28.1348 33.1125C28.1728 32.3319 28.216 32.2654 28.7029 32.2377C29.0467 32.2144 29.2588 32.082 29.3106 31.8389C29.3605 31.6357 29.5746 31.3434 29.7881 31.1824C30.4217 30.722 30.1019 30.2495 29.1332 30.2023C28.4095 30.1671 28.332 30.1177 28.4275 29.7967C28.4956 29.5716 28.7316 29.4174 29.0353 29.3979C29.4307 29.3715 29.5687 29.2354 29.7144 28.7056C29.8173 28.3507 29.8645 27.8504 29.8246 27.6142C29.7623 27.2514 29.6174 27.1758 28.8937 27.1406C27.925 27.0934 27.8059 26.842 28.5989 26.5093C29.2404 26.2378 29.4171 25.6581 28.9605 25.2989C28.7791 25.153 28.7049 25.0351 28.8017 25.0398C29.2579 25.0563 40.1595 24.9869 44.4287 24.9376C51.3668 24.8581 65.347 24.5558 65.8255 24.4648C66.3442 24.3701 66.5379 23.9112 66.2075 23.541C66.0126 23.3201 65.6447 23.2508 64.8439 23.2747C63.8428 23.306 63.8778 23.2905 65.2809 23.096C67.2188 22.8305 67.7365 22.6386 67.6721 22.2014C67.6025 21.7525 67.0025 21.7575 61.4132 22.291C58.8309 22.5367 55.7824 22.7368 54.6286 22.7378L52.5323 22.7386L55.3987 22.5239C57.8867 22.3365 65.0318 21.5246 66.9895 21.2029C67.4903 21.1244 67.6679 20.996 67.6817 20.711C67.7053 20.2267 67.6309 20.2288 62.1495 20.8931C59.6211 21.2042 55.9145 21.5494 53.9209 21.6695C49.8711 21.9066 38.4958 22.0843 36.2862 21.9482L34.8627 21.8561L36.0104 21.7463C37.7093 21.5777 51.4706 20.7278 59.2305 20.3113C64.4648 20.0291 66.1917 19.8732 66.7868 19.6165C67.6439 19.2584 68.42 18.4508 68.1703 18.1816C67.986 17.9784 59.9907 18.3035 46.0444 19.0815C39.7614 19.4327 36.0023 19.564 35.4535 19.4573L34.6048 19.2904L35.6597 19.2103C36.2388 19.1643 42.1704 18.8759 48.8341 18.5661C55.4978 18.2562 62.0765 17.9308 63.4457 17.8489C64.8208 17.7616 66.4449 17.7207 67.0888 17.752C68.3026 17.8111 69.303 17.4427 68.6767 17.1667C68.5145 17.0959 63.8349 17.2453 58.2762 17.5004C44.2047 18.1524 40.5948 18.1538 50.5019 17.5105C53.3498 17.3235 56.4341 17.0909 57.387 16.9944C58.3344 16.892 61.3065 16.7339 63.9785 16.6411C71.1534 16.3904 70.9409 16.4143 71.0389 15.8079C71.1452 15.1505 70.8188 15.049 68.9466 15.1407C67.727 15.2013 67.4318 15.1641 67.3067 14.9181C67.1764 14.6604 66.9476 14.6664 65.466 14.9485C63.1714 15.3852 63.2173 15.3817 53.2603 15.6399C38.7226 16.0122 37.2009 15.9439 48.7013 15.4238C58.5532 14.9778 67.286 14.403 67.5829 14.1718C67.7135 14.0697 68.2031 13.985 68.6778 13.9738C69.5182 13.9576 69.5361 13.9413 69.5677 13.2917L69.6002 12.625L67.8374 12.5792L66.0804 12.5337L65.9924 11.7583C65.9443 11.339 65.7928 10.9318 65.6642 10.8741C65.5299 10.8162 61.9098 10.9085 57.6348 11.0776C47.9174 11.4616 38.6169 11.7288 35.2587 11.7197C33.8482 11.7139 32.2989 11.7414 31.8289 11.7756C31.1811 11.8241 31.0229 11.7878 31.1905 11.6303C31.3222 11.5053 35.0581 11.2644 40.553 11.0291C57.1811 10.3072 67.8325 9.74586 68.075 9.57487C68.205 9.4841 68.3121 9.04379 68.3104 8.6096C68.3133 7.96429 68.2358 7.79488 67.9132 7.7335C67.6984 7.68877 59.4409 8.00105 49.5902 8.4243C39.7395 8.84756 31.2242 9.17584 30.6823 9.16091C30.0151 9.13987 29.5642 9.01512 29.2621 8.76624C28.7627 8.34782 28.392 7.27881 28.4602 6.46532C28.4863 6.16386 28.3532 5.729 28.1646 5.49706C27.9759 5.26512 27.7414 4.80247 27.6441 4.45502C27.4829 3.89313 27.5031 3.83128 27.845 3.84791C28.0558 3.85817 28.2784 3.74334 28.3432 3.58656C28.5298 3.15582 28.0679 2.67069 27.5717 2.77221C27.2197 2.84648 27.1161 2.74434 26.9501 2.16507C26.7652 1.50492 26.7153 1.47393 26.027 1.53184C25.4362 1.58307 25.2848 1.5243 25.2252 1.22437C25.1277 0.762682 24.394 0.698428 24.2014 1.13459C24.1242 1.31361 24.188 1.52805 24.3751 1.67424C24.6389 1.88699 24.5137 1.99514 23.3625 2.52746C22.6436 2.86376 21.6118 3.17341 21.09 3.21657C20.5567 3.25916 19.9821 3.32832 19.7856 3.37587C19.4216 3.46098 19.3264 4.0104 19.6248 4.33336C19.7658 4.48873 19.6403 4.60257 19.1943 4.72938C18.8468 4.82672 18.4033 4.90224 18.2039 4.89254C17.8734 4.87646 17.7674 5.05979 17.8165 5.57625C17.8275 5.70245 17.4708 5.87359 17.0093 5.96538C15.3143 6.28846 15.2147 6.34074 15.1175 6.93004C15.0686 7.23039 14.8449 7.6022 14.6149 7.75094C11.4046 9.8681 10.0976 10.5528 9.12302 10.6253C8.03367 10.7094 7.32602 11.1662 7.49509 11.6828C7.5895 11.973 6.69677 12.7121 6.28078 12.6918C6.17821 12.6868 5.73614 12.9681 5.31979 13.3077C3.83337 14.5091 0.709417 16.6133 0.435899 16.6C-0.168131 16.5706 0.161488 17.1921 1.18396 18.0129C2.02505 18.6879 2.25622 18.9847 2.2268 19.3546C2.18864 19.7868 2.24368 19.8295 2.87217 19.8258C3.4035 19.8231 3.72166 19.9756 4.28989 20.5059C6.81305 22.8849 14.1432 27.8966 21.327 32.1587C22.6038 32.9177 23.7607 33.6766 23.8843 33.8368C24.0078 33.997 24.3605 34.1455 24.6682 34.1605C25.0101 34.1771 25.3835 34.3667 25.6212 34.6467C26.227 35.3445 27.5138 35.4299 27.9727 34.8011ZM24.5385 32.8348C24.3066 32.6693 24.3086 32.6294 24.5632 32.5618C25.2171 32.388 26.8404 32.3641 26.8321 32.5351C26.8254 32.6718 26.4612 32.7627 24.9011 33.0123C24.8492 33.0212 24.6876 32.9391 24.5385 32.8348ZM21.8374 31.4125C21.2811 31.1055 20.8226 30.7862 20.8267 30.7007C20.8309 30.6153 21.1305 30.5613 21.4895 30.5788C22.0195 30.6045 22.1524 30.691 22.181 31.0408C22.2057 31.3561 22.3589 31.495 22.7387 31.5534C23.0223 31.5958 23.2107 31.7135 23.1493 31.8019C22.989 32.0454 22.989 32.0454 21.8374 31.4125ZM19.3455 29.8004C19.3477 29.7549 19.5206 29.7233 19.7314 29.7335C19.9423 29.7438 20.1068 29.8832 20.0988 30.0484C20.0874 30.2821 20.0125 30.2956 19.7128 30.1153C19.5075 29.9911 19.3432 29.846 19.3455 29.8004ZM17.8614 28.9571C17.8634 28.9173 18.0474 28.8919 18.2525 28.9019C18.4634 28.9122 18.5846 29.0037 18.5169 29.1033C18.406 29.2692 17.8523 29.1452 17.8614 28.9571ZM24.4384 26.9067C25.0122 26.8546 25.8355 26.8376 26.2512 26.8635L27.0085 26.9118L26.2443 27.006C25.8247 27.0598 25.0013 27.0769 24.4315 27.0491L23.383 26.9981L24.4384 26.9067ZM11.1343 24.7001C9.17723 23.3654 6.97328 21.7046 6.97993 21.5678C6.99324 21.2943 7.71502 21.6036 7.78011 21.9095C7.83115 22.1519 8.08523 22.3299 8.53722 22.4318C8.91569 22.5188 9.20939 22.7044 9.20218 22.8526C9.17861 23.3369 9.91081 23.5496 12.3784 23.7839C14.6923 24.005 14.8527 23.9957 15.0002 23.6658C15.2191 23.1567 15.4873 23.0441 16.3413 23.1028L17.0983 23.1567L16.4512 23.308C16.0816 23.3929 15.7571 23.6056 15.6961 23.8025C15.6155 24.0499 15.3236 24.1785 14.6924 24.2392C14.193 24.2892 13.69 24.4132 13.5477 24.5205C13.2102 24.7668 13.2104 25.5836 13.546 25.7313C13.697 25.7958 13.7699 25.9421 13.7022 26.0417C13.5299 26.296 13.2348 26.1389 11.1343 24.7001ZM14.7936 25.7977C14.9311 25.6731 19.1782 25.3713 22.1533 25.2704C26.7531 25.1172 25.6164 25.3532 20.4968 25.624C15.2057 25.8978 14.6681 25.9116 14.7936 25.7977ZM25.7124 25.1409C25.8913 25.1039 26.2449 25.1154 26.4766 25.1666C26.7082 25.2179 26.5581 25.2505 26.1362 25.2357C25.7199 25.2212 25.5278 25.1776 25.7124 25.1409ZM18.4794 23.064C18.8232 23.0407 19.376 23.0676 19.716 23.1242C20.0559 23.1807 19.7807 23.2016 19.0969 23.1683C18.4074 23.1347 18.1356 23.0873 18.4794 23.064ZM21.7682 22.9727C22.5525 22.9366 23.7177 22.9361 24.3385 22.972L25.4777 23.0389L24.1387 23.088C23.3949 23.1146 22.2581 23.1165 21.5683 23.0886L20.3312 23.0398L21.7682 22.9727ZM26.3025 22.8734C26.4418 22.8288 26.6868 22.8407 26.8724 22.9011C27.0579 22.9615 26.9531 23.0021 26.6283 22.9863C26.3038 22.9648 26.1633 22.918 26.3025 22.8734ZM51.0756 22.742C51.2149 22.6973 51.4599 22.7093 51.6454 22.7697C51.8307 22.8358 51.7262 22.8707 51.4014 22.8549C51.0766 22.8391 50.9361 22.7923 51.0756 22.742ZM33.7753 21.9003C33.9145 21.8557 34.1596 21.8676 34.3451 21.9281C34.5304 21.9942 34.4259 22.0291 34.1011 22.0133C33.782 21.9978 33.6415 21.951 33.7753 21.9003ZM4.90399 19.976C4.57998 19.7089 4.58624 19.6978 4.96815 19.5965C5.19371 19.5389 5.52688 19.6179 5.74705 19.7886C6.11609 20.0693 6.11526 20.0864 5.77462 20.1612C5.58408 20.2033 5.37672 20.2389 5.32516 20.2421C5.27359 20.2453 5.0851 20.1276 4.90399 19.976ZM28.7225 21.0319C28.9979 20.8911 30.2921 20.8227 30.7267 20.9295C31.0935 21.0216 29.9294 21.2335 29.188 21.2088C28.6806 21.1898 28.5233 21.1365 28.7225 21.0319ZM9.59765 19.0677C9.73508 18.943 12.8577 18.6266 19.8379 18.0351C23.434 17.7302 26.4275 17.4875 26.4787 17.49C26.53 17.4924 26.5223 17.652 26.4607 17.8603C26.3929 18.0798 26.1453 18.2391 25.8416 18.2586C25.4978 18.2819 25.3378 18.3998 25.3441 18.6228C25.352 18.8117 25.2824 18.9511 25.1855 18.9464C25.0944 18.942 23.2702 18.9846 21.1538 19.0473C19.0376 19.1043 15.7852 19.1517 13.9579 19.1427C12.1302 19.1395 10.3769 19.1342 10.0684 19.1363C9.76555 19.1387 9.55012 19.1054 9.59765 19.0677ZM2.34975 18.0011L1.22554 17.1582L1.69804 16.8385C2.12927 16.5453 2.17486 16.5475 2.22313 16.8469C2.31021 17.4052 2.74498 17.6262 3.64462 17.5672C4.46419 17.5099 4.48644 17.5225 4.42022 18.0619C4.37996 18.4197 4.22044 18.6462 3.97152 18.714C3.75736 18.7722 3.56056 18.8254 3.52581 18.8351C3.49705 18.8395 2.97803 18.4715 2.34975 18.0011ZM29.9805 19.8308C30.0462 19.7712 30.2117 19.7735 30.3403 19.8312C30.4911 19.9014 30.4493 19.9393 30.2208 19.9396C30.0325 19.9362 29.9207 19.885 29.9805 19.8308ZM43.5892 18.0082C43.768 17.9712 44.1216 17.9827 44.3476 18.0337C44.5793 18.0849 44.4292 18.1176 44.0129 18.1031C43.591 18.0882 43.4046 18.0449 43.5892 18.0082ZM15.8491 16.6644C15.9149 16.6048 16.0804 16.6071 16.2089 16.6648C16.36 16.7292 16.3179 16.7729 16.0894 16.7732C15.9008 16.7754 15.7834 16.724 15.8491 16.6644ZM3.43242 15.7062C3.90465 15.3922 4.19345 15.3263 4.48992 15.4549C4.94289 15.654 5.24087 15.6343 15.0754 14.8389C22.8401 14.2057 23.1492 14.1922 23.1367 14.4486C23.1281 14.6252 15.1867 15.3698 9.06671 15.7747C2.05849 16.2391 2.61206 16.2489 3.43242 15.7062ZM17.0842 16.5189C17.2235 16.4742 17.4685 16.4861 17.6541 16.5466C17.8396 16.607 17.7349 16.6476 17.41 16.6318C17.0912 16.6106 16.945 16.5635 17.0842 16.5189ZM18.5177 16.4058C18.7083 16.3637 18.9932 16.3775 19.1844 16.4382C19.3646 16.4927 19.2088 16.5251 18.8498 16.5076C18.4851 16.4899 18.3331 16.4425 18.5177 16.4058ZM20.9567 16.1703C22.5886 15.9698 23.1838 15.9474 22.9988 16.1097C22.8437 16.245 21.059 16.4152 20.1869 16.3785C19.8222 16.3607 20.1751 16.2694 20.9567 16.1703ZM23.6943 15.9037C23.76 15.844 23.9255 15.8464 24.0541 15.904C24.2052 15.9685 24.1631 16.0122 23.9346 16.0125C23.746 16.0147 23.6342 15.9636 23.6943 15.9037ZM25.0743 15.7138C25.9399 15.5331 26.5496 15.5628 26.408 15.773C26.3404 15.8725 25.8863 15.9304 25.3911 15.8948C24.5942 15.8389 24.5608 15.8202 25.0743 15.7138ZM30.2117 15.0784C30.2774 15.0187 30.4429 15.0211 30.5715 15.0787C30.7223 15.1489 30.6805 15.1868 30.452 15.1872C30.2634 15.1894 30.1516 15.1383 30.2117 15.0784ZM31.5898 14.9284C31.9171 14.8929 32.2646 14.7955 32.4006 14.6993C32.5307 14.6086 34.3357 14.4907 36.4114 14.4432C43.7192 14.2789 44.3318 14.3659 38.2667 14.6991C34.9049 14.884 31.8993 15.0234 31.5859 15.0081L31.0161 14.9804L31.5898 14.9284ZM14.4848 13.3594C14.5506 13.2998 14.7161 13.3021 14.8447 13.3598C14.9955 13.4299 14.9536 13.4679 14.7251 13.4682C14.5365 13.4704 14.4191 13.419 14.4848 13.3594ZM15.908 13.223C16.0416 13.1781 16.2524 13.1883 16.381 13.246C16.5095 13.3037 16.4048 13.3443 16.1369 13.3312C15.8751 13.3128 15.7745 13.2679 15.908 13.223ZM17.2509 13.0941C17.3904 13.0438 17.6354 13.0557 17.8207 13.1218C18.0062 13.1823 17.9015 13.2229 17.5767 13.2071C17.2575 13.1916 17.1113 13.1445 17.2509 13.0941ZM45.0112 14.2561C45.241 14.2273 45.6399 14.2467 45.8659 14.2977C46.1033 14.3492 45.9079 14.374 45.4349 14.351C44.9563 14.3277 44.7699 14.2844 45.0112 14.2561ZM18.7815 12.9801C18.9207 12.9355 19.1658 12.9474 19.3513 13.0078C19.5369 13.0683 19.4321 13.1088 19.1073 13.093C18.7825 13.0772 18.6422 13.0247 18.7815 12.9801ZM47.2025 14.18C47.3814 14.143 47.735 14.1544 47.9667 14.2057C48.1983 14.257 48.0482 14.2896 47.6263 14.2748C47.2098 14.266 47.0177 14.2224 47.2025 14.18ZM33.473 13.4378C34.1607 13.3913 35.9892 13.3774 37.5704 13.3972C39.1513 13.4227 40.0406 13.4603 39.5651 13.4885C38.0589 13.5695 34.167 13.6143 33.1811 13.5664C32.2922 13.5231 32.3099 13.5126 33.473 13.4378ZM20.1183 12.8566C20.2576 12.812 20.5026 12.8239 20.6882 12.8844C20.8737 12.9448 20.769 12.9854 20.4441 12.9696C20.1253 12.9484 19.9848 12.9015 20.1183 12.8566ZM49.1149 14.0845C49.2938 14.0475 49.6474 14.059 49.8734 14.11C50.1051 14.1612 49.955 14.1939 49.5387 14.1794C49.1167 14.1645 48.9247 14.1209 49.1149 14.0845ZM21.5518 12.7436C21.7424 12.7015 22.0273 12.7153 22.2185 12.776C22.3987 12.8305 22.2429 12.8629 21.8839 12.8454C21.5192 12.8277 21.3729 12.7806 21.5518 12.7436ZM51.1191 13.9821C51.3489 13.9533 51.7478 13.9727 51.9738 14.0237C52.2112 14.0752 52.0158 14.1 51.5428 14.0769C51.0699 14.0539 50.8778 14.0103 51.1191 13.9821ZM23.9965 12.5084C25.5481 12.3154 26.4176 12.2892 26.2503 12.441C26.1128 12.5657 24.0419 12.7505 23.2267 12.7165C22.862 12.6988 23.2092 12.6072 23.9965 12.5084ZM53.0258 13.8863C53.2557 13.8575 53.6545 13.8769 53.8805 13.9279C54.1179 13.9795 53.9225 14.0042 53.4495 13.9812C52.9766 13.9582 52.7902 13.9149 53.0258 13.8863ZM41.1503 13.3086C41.5512 13.2881 42.178 13.3186 42.5749 13.3779C42.9605 13.4367 42.6397 13.4553 41.859 13.4174C41.0783 13.3794 40.7552 13.3294 41.1503 13.3086ZM54.7504 13.776C54.986 13.7475 55.4191 13.7686 55.702 13.8223C55.9964 13.8766 55.801 13.9014 55.2711 13.8756C54.7351 13.8553 54.5089 13.81 54.7504 13.776ZM44.4819 13.2765C44.7118 13.2477 45.1107 13.2671 45.3367 13.3181C45.5741 13.3696 45.3787 13.3944 44.9057 13.3714C44.4325 13.3541 44.2461 13.3107 44.4819 13.2765ZM57.6621 13.5693C58.4492 13.4762 60.0924 13.3962 61.2918 13.3974L63.485 13.4013L60.7103 13.609C57.3448 13.868 55.4328 13.8378 57.6621 13.5693ZM59.9621 12.316C60.1014 12.2714 60.3464 12.2833 60.532 12.3437C60.7175 12.4042 60.6127 12.4448 60.2879 12.429C59.9688 12.4134 59.8286 12.3609 59.9621 12.316ZM14.5508 8.83308C14.7455 8.70547 15.0454 8.64581 15.2256 8.70027C15.4 8.75445 16.5219 8.70621 17.7268 8.59347C18.9261 8.48046 21.1058 8.40943 22.5722 8.44079L25.237 8.49617L22.2776 8.62637C20.6575 8.70177 18.3266 8.82828 17.1176 8.90655C14.0056 9.12071 14.1025 9.12543 14.5508 8.83308ZM26.9249 7.1446C26.934 6.95655 27.4972 6.88685 27.5915 7.06279C27.6492 7.16841 27.5196 7.24779 27.3088 7.23753C27.0977 7.23298 26.923 7.18449 26.9249 7.1446ZM20.1844 5.62862C20.3749 5.58648 20.6598 5.60034 20.8511 5.66105C21.0312 5.71551 20.8754 5.74791 20.5164 5.73045C20.1517 5.71271 19.9998 5.66533 20.1844 5.62862ZM21.715 5.51459C21.9055 5.47245 22.1905 5.48631 22.3817 5.54702C22.5618 5.60148 22.406 5.63388 22.0471 5.61642C21.6824 5.59867 21.5304 5.5513 21.715 5.51459ZM23.3373 5.39359C23.5729 5.36507 24.006 5.38614 24.289 5.43989C24.5777 5.49392 24.3879 5.51896 23.858 5.49318C23.328 5.4674 23.1018 5.42212 23.3373 5.39359ZM25.535 5.3063C25.8218 5.28027 26.2948 5.30328 26.5778 5.35703C26.8607 5.41078 26.6197 5.43333 26.0499 5.40561C25.4855 5.38386 25.2481 5.33233 25.535 5.3063ZM21.5705 4.3766C21.7315 4.23593 25.1177 3.90373 25.9898 3.94044C27.295 3.99823 26.6969 4.31755 25.1864 4.36973C24.3856 4.39361 23.5438 4.43833 23.3315 4.45656C22.6311 4.53101 21.4569 4.47961 21.5705 4.3766ZM25.2398 2.56738C26.1349 2.13113 26.4595 2.15263 25.7125 2.59609C25.3772 2.79682 24.999 2.93836 24.8397 2.9249C24.6864 2.90602 24.8714 2.74366 25.2398 2.56738Z" fill="#B1D1F5"/>
</svg>
