<svg width="63" height="70" viewBox="0 0 63 70" fill="none" xmlns="http://www.w3.org/2000/svg">
<path d="M63 26.0331V17.9523L55.1009 12.8272L47.9197 17.4913L39.3152 12.399V5.12513L31.4161 0L23.5248 5.12549V12.4109L15.2453 17.5985L7.89165 12.8272L0 17.9527V26.0328L7.1636 30.691V38.2101L0 42.8629V50.943L7.89165 56.0745L15.0407 51.4306L23.5248 57.5529V64.8681L31.4161 70L39.3152 64.8683V57.5824L48.3264 51.9128L48.0645 51.499L55.1009 56.0744L63 50.9433V42.8625L55.8296 38.2101V30.691L63 26.0331ZM61.5433 25.2459L55.8296 28.9575V23.3831L61.5433 19.6759V25.2459ZM48.666 19.6765L54.3729 23.383V28.9565L48.666 25.2462V19.6765ZM32 2L37.2439 5.51424L31.4168 9.29532L26 6L32 2ZM37.8585 6.8487V12.4187L32.1448 16.1302V10.5559L37.8585 6.8487ZM24.9815 6.84936L30.6881 10.5558V16.1292L24.9815 12.419V6.84936ZM15.7907 18.9722L24.246 13.6745L31.4161 18.3371L38.6048 13.6673L47.2093 18.7596V25.191L38.6343 29.4715L31.4161 24.7878L24.2085 29.4695L15.7907 25.1943V18.9722ZM26.5 30.7558L32.1448 27L37.2437 30.3022L31.4169 34.0834L26.5 30.7558ZM30.6881 35.3439V40.917L24.9815 37.2068V31.6372L30.6881 35.3439ZM32.1448 35.344L37.8585 31.6365V37.2065L32.1448 40.918V35.344ZM8.62037 15L13.7195 18.3415L7.89238 22.1225L2.5 18.9722L8.62037 15ZM14.334 19.6759V25.2459L8.62037 28.9575V23.3831L14.334 19.6759ZM1.45677 25.2462V19.6765L7.16367 23.383V28.9565L1.45677 25.2462ZM7.16367 53.8666L1.45677 50.1564V44.5867L7.16367 48.2935V53.8666ZM3 43.5L8.5 40L13.7195 43.2517L7.89238 47.0331L3 43.5ZM14.334 50.156L8.62037 53.8675V48.2935L14.334 44.5861V50.156ZM15.7907 50.1787V42.8625L8.62037 38.2101V30.691L15.107 26.4773L23.5248 30.7524V37.9934L30.6881 42.6515V52.1353L24.2749 56.3011L15.7907 50.1787ZM30.6881 67.7921L24.9815 64.0815V58.5119L30.6881 62.2186V67.7921ZM26.5 57.5L32 54L37.2437 57.1769L31.4169 60.9581L26.5 57.5ZM37.8585 64.0812L32.1448 67.793V62.2186L37.8585 58.5112V64.0812ZM47.2093 42.8629V50.8982L38.593 56.3194L32.1448 52.1353V42.6515L39.3152 37.9937V30.7558L47.89 26.4754L54.3729 30.691V38.2101L47.2093 42.8629ZM54.3729 53.8666L48.666 50.1564V44.5867L54.3729 48.2935V53.8666ZM61.5433 50.156L55.8296 53.8675V48.2935L61.5433 44.5861V50.156ZM60.9288 43.2517L55.1016 47.0331L50 44L55.8296 40L60.9288 43.2517ZM55.1016 22.1225L50 19L56 15L60.9287 18.3415L55.1016 22.1225Z" fill="black"/>
<path d="M18.0664 9.54883L19.3153 8.8028L20.0638 10.0486L18.8149 10.7946L18.0664 9.54883Z" fill="black"/>
<path d="M13.0703 12.5374L14.3192 11.7913L15.0677 13.0371L13.8188 13.7831L13.0703 12.5374Z" fill="black"/>
<path d="M15.5703 11.0447L16.8192 10.2986L17.5677 11.5444L16.3188 12.2904L15.5703 11.0447Z" fill="black"/>
<path d="M48.1094 11.8118L49.3583 12.5578L48.6099 13.8035L47.3609 13.0575L48.1094 11.8118Z" fill="black"/>
<path d="M44.8828 11.552L45.6313 10.3062L46.8802 11.0523L46.1317 12.298L44.8828 11.552Z" fill="black"/>
<path d="M42.3789 10.0591L43.1274 8.81333L44.3763 9.55936L43.6278 10.8051L42.3789 10.0591Z" fill="black"/>
</svg>
