<svg width="78" height="78" viewBox="0 0 78 78" fill="none" xmlns="http://www.w3.org/2000/svg">
<path d="M20.5905 37.6578C20.1114 37.6555 19.7668 38.0213 19.7564 38.4491C19.7074 40.2688 19.7093 43.0123 19.6849 45.4435C16.1374 45.4685 7.05469 45.7856 7.05469 48.3674C7.05469 48.6268 7.17119 48.8567 7.33994 49.0722C7.41301 51.3073 7.26895 68.4565 7.38 69.6053C7.37663 69.8878 7.50782 70.1649 7.7688 70.3176C14.4904 74.2658 27.1712 74.6545 35.3359 73.47C34.5342 72.3909 33.7324 71.3118 32.9306 70.2327C33.2319 69.0805 33.115 49.6785 33.096 49.0325C33.2455 48.8277 33.3509 48.6109 33.3509 48.3674C33.3509 45.9177 25.1783 45.5076 21.3099 45.4506C21.329 43.5307 21.3324 41.0681 21.3628 39.3018C32.9478 39.5219 44.4538 38.0268 55.9645 38.1794C55.9196 39.7687 55.8769 41.9983 55.862 43.7984C55.8475 43.7984 55.8279 43.7981 55.8137 43.7981C52.7293 43.7981 42.6656 44.0086 42.6656 46.7244C42.6656 46.9837 42.782 47.2135 42.9508 47.4292C43.024 49.6883 42.8749 66.7334 42.9901 67.9595C42.9857 68.2242 43.1398 68.4943 43.4338 68.764C46.0248 71.1413 59.4781 73.49 70.9465 71.8264C67.7642 67.5434 68.5906 68.9004 68.6444 68.0779C68.7621 66.2707 68.7625 49.2946 68.7064 47.3902C68.8562 47.1851 68.9618 46.9682 68.9618 46.7244C68.9618 44.3898 61.5339 43.9077 57.4869 43.8181C57.5044 41.6912 57.5612 38.9533 57.6138 37.4081C57.6292 36.9562 57.2707 36.5769 56.8182 36.5681C50.7138 36.4485 44.552 36.8036 38.4532 37.151L38.446 31.216C38.446 31.2147 38.4452 31.2137 38.4452 31.2125C42.4602 31.184 46.8617 30.5807 50.6419 28.9816C51.2239 28.7359 51.7794 27.7653 51.9363 27.3288C53.16 23.9261 52.7057 13.186 52.6153 10.2171C52.5606 8.45287 52.3222 6.85935 50.7766 5.77114C48.4672 4.09708 40.9283 3.94116 38.328 3.94116C35.2436 3.94116 25.1799 4.15169 25.1799 6.86743C25.1799 7.12676 25.2964 7.35647 25.4651 7.57229C25.5013 8.68928 25.4566 27.5898 25.5046 28.1043C25.5008 28.387 25.6322 28.6648 25.8935 28.8176C28.8495 30.5531 33.4089 31.0846 36.8262 31.1921C36.8259 31.2012 36.821 31.2088 36.821 31.2181L36.8284 37.2412C31.4676 37.5425 25.9859 37.8104 20.5905 37.6578ZM31.519 57.1636C31.5239 59.4223 31.5014 62.0099 31.4524 63.3925C25.49 65.5951 15.408 66.0432 8.94629 63.5398C8.94819 61.9764 8.97827 59.6805 8.98953 57.3243C13.1913 58.7941 23.5246 60.0431 31.519 57.1636ZM8.99046 69.1176C8.96921 67.4571 9.0006 66.9255 8.96593 65.2849C15.2251 67.5263 25.0531 67.3042 31.4624 65.1076C31.5023 66.6134 31.4921 68.003 31.4333 69.161C24.0048 72.0956 13.236 71.3398 8.99046 69.1176ZM31.5088 55.4315C23.1042 58.6438 12.7601 57.0369 8.99198 55.5883C8.98397 52.513 9.01042 51.8179 8.99416 50.0807C13.5356 51.7003 26.9938 51.7081 31.4917 50.0529C31.4926 50.1067 31.5082 55.37 31.5088 55.4315ZM67.1298 55.5237C67.1348 57.7735 67.1128 60.3491 67.0639 61.735C62.6596 63.2534 52.1714 64.9082 44.5567 61.9016C44.5586 60.3352 44.5887 58.0319 44.6 55.6805C48.5841 57.0418 59.23 58.4145 67.1298 55.5237ZM44.601 67.4735C44.5803 65.8321 44.6113 65.3022 44.5772 63.6554C51.9157 66.3675 62.0066 65.0456 67.0723 63.4458C67.1128 64.9562 67.1029 66.3529 67.0436 67.5185C59.6088 70.4561 48.8431 69.6948 44.601 67.4735ZM67.1195 53.7925C58.8787 56.9655 48.4752 55.4224 44.6025 53.9462C44.602 53.7208 44.6067 48.6628 44.6046 48.4373C49.1536 50.0593 62.6122 50.0616 67.1023 48.4099C67.1279 50.0068 67.0809 49.9317 67.1195 53.7925ZM49.4246 8.61952C49.4988 9.97958 49.62 12.5666 49.6338 13.9316C41.6413 16.9933 31.3904 15.7194 27.1167 14.089C27.1089 11.1155 27.1346 10.2728 27.1189 8.58064C31.6285 10.1892 44.806 10.1973 49.4246 8.61952ZM27.071 22.0399C27.0729 20.4758 27.1029 18.1818 27.1142 15.8245C30.7108 17.0562 41.3739 18.6629 49.6442 15.6645C49.6492 17.9225 49.627 20.5093 49.5776 21.8926C43.2553 24.2278 33.1632 24.4001 27.071 22.0399ZM27.1153 27.6177C27.0946 25.9742 27.1258 25.4273 27.0911 23.7853C33.4915 26.0771 43.3507 25.7436 49.5871 23.6074C49.6272 25.1107 49.6171 26.5005 49.558 27.6616C42.1312 30.5943 31.3644 29.8422 27.1153 27.6177Z" fill="black"/>
</svg>
