<svg width="722" height="565" viewBox="0 0 722 565" fill="none" xmlns="http://www.w3.org/2000/svg">
<path d="M6.49814 13.1198C6.24107 9.96157 8.94908 7.3638 12.0939 7.75179L82.1276 16.3923C82.7048 16.4635 83.2899 16.4335 83.8568 16.3036L154.162 0.192042C154.717 0.0649501 155.289 0.0334466 155.854 0.0988888L296.435 16.3766C297.137 16.4579 297.848 16.3894 298.522 16.1756L348.363 0.360796C349.111 0.123597 349.903 0.0655741 350.677 0.191414L450.446 16.4099C450.814 16.4697 451.188 16.4882 451.56 16.4649L597.159 7.365C600.226 7.17333 602.738 9.76711 602.449 12.8261L596.093 80.0125C596.032 80.6645 596.099 81.3222 596.291 81.9484L614.4 141.042C614.785 142.297 614.66 143.652 614.055 144.816L596.65 178.251C596.225 179.068 596.034 179.986 596.097 180.905L599.429 228.968C599.476 229.649 599.383 230.332 599.156 230.975L584.533 272.487C584.186 273.471 584.156 274.538 584.446 275.54L599.101 326.122C599.362 327.022 599.871 327.832 600.569 328.457L617.847 343.916C618.279 344.302 618.641 344.761 618.915 345.271L627.945 362.041C628.617 363.288 629.786 364.192 631.162 364.528L717.5 385.606C722.461 386.817 722.629 393.809 717.733 395.258L687.445 404.22C686.821 404.405 686.239 404.71 685.732 405.117L660.138 425.683C659.091 426.525 657.748 426.91 656.413 426.75L615.81 421.896C613.806 421.656 611.854 422.645 610.862 424.404L590.973 459.662C590.661 460.215 590.457 460.824 590.372 461.454L584.263 507.034C584.094 508.297 583.449 509.447 582.461 510.251L545.378 540.381C544.487 541.105 543.373 541.5 542.225 541.5H476.5H399.661C399.222 541.5 398.785 541.558 398.361 541.672L335.018 558.726C334.347 558.907 333.645 558.945 332.958 558.84L283.071 551.165C282.365 551.056 281.644 551.1 280.957 551.293L235.766 564.003C234.626 564.324 233.409 564.229 232.332 563.737L206.276 551.813C205.134 551.29 203.837 551.216 202.643 551.606L182.582 558.157C180.972 558.683 179.205 558.357 177.887 557.292L144.875 530.611C143.985 529.892 142.876 529.5 141.732 529.5H98.2482C97.7522 529.5 97.2589 529.574 96.7846 529.719L73.9904 536.697C73.3371 536.897 72.6497 536.961 71.9706 536.885L11.459 530.111C8.53067 529.783 6.51937 527.007 7.12035 524.122L28.3505 422.218C28.4496 421.742 28.4788 421.254 28.4372 420.77L16.5669 282.778C16.5226 282.262 16.3985 281.757 16.199 281.279L0.543146 243.8C0.187973 242.95 0.0746715 242.018 0.215751 241.107L16.4097 136.583C16.4697 136.196 16.4839 135.803 16.4521 135.412L6.49814 13.1198Z" fill="white"/>
</svg>
