<svg width="76" height="74" viewBox="0 0 76 74" fill="none" xmlns="http://www.w3.org/2000/svg">
<path d="M73.5097 62.4743C72.3025 60.2108 69.3831 55.1455 67.6574 53.5049C67.7906 52.9293 67.5932 45.8954 67.5779 45.3242C66.883 19.0794 67.1142 27.6474 67.078 25.8905C66.9595 19.9527 66.9289 17.4531 61.0265 17.3793C60.0309 17.3681 51.4161 17.4112 43.2803 17.4598C40.4386 14.1172 36.6053 13.2288 33.1246 14.2481C27.2449 6.8125 19.4887 2.27441 10.312 0.397172C8.02855 -0.067261 5.9216 1.68762 5.95288 4.00965C6.0186 8.60406 6.93984 13.1169 8.61521 17.3435C8.51598 17.4926 8.44789 17.664 8.45515 17.8567C8.66565 23.4657 8.84876 47.8072 9.03729 53.54C7.23055 54.7429 6.31691 56.3842 5.18379 58.2014C4.09749 59.9555 -0.0993943 66.5306 0.31816 68.5059C0.444695 69.8747 1.21779 71.7775 2.62543 72.5645C5.23041 74.0228 3.39922 73.66 67.7368 73.5772C73.4155 73.5703 77.0133 71.9248 75.2655 66.5228C75.1298 65.314 74.4177 64.1567 73.5097 62.4743ZM45.1442 69.0032C40.0153 69.0032 34.9845 68.9805 27.1476 68.8654C27.3144 67.1692 27.3513 67.1263 27.3815 66.8116C27.5991 66.7463 27.4328 66.5935 28.5591 66.5424C33.8041 66.2938 39.1221 66.3813 44.3648 66.8035C44.9003 66.8461 45.3082 67.3235 45.2743 67.8677C45.2279 68.6067 45.1882 68.4689 45.1442 69.0032ZM22.6144 34.6826C22.8713 37.2712 23.591 39.6952 24.7637 41.8371C22.7854 40.7568 20.9245 39.5224 19.5002 37.8726C17.6296 35.7083 16.8619 32.988 17.3032 30.3664C18.9354 31.9555 20.713 33.403 22.6144 34.6826ZM18.1628 39.0277C20.5547 41.7969 24.0251 43.4996 27.0865 45.0009C27.9444 45.422 28.7695 44.353 28.1443 43.6296C26.2965 41.4894 25.0809 38.8428 24.5587 35.9044C26.5523 37.0744 27.8083 37.8764 29.8246 37.5705C30.1806 38.0009 32.7885 39.2178 33.7937 39.8687C34.1143 40.0748 34.5246 40.0522 34.8165 39.8238L41.0014 35.0137C41.3143 34.7709 41.4271 34.3476 41.2764 33.9806C40.898 33.0605 40.0551 30.217 39.6089 29.1033C40.154 27.1137 39.4484 25.5602 38.2941 22.9067C43.0103 24.5906 45.8033 28.2133 46.7049 28.2133C47.2956 28.2133 47.7209 27.6517 47.5614 27.08C47.1947 25.7757 46.817 24.4377 46.3586 23.1308C56.9712 23.0482 60.1704 23.164 61.1042 23.2547C61.161 23.5626 61.7331 37.7507 61.6409 47.433C61.6409 47.6815 61.4366 47.884 61.1772 47.8921C45.4138 48.3817 33.2318 48.0552 15.7693 47.7149C15.5213 47.7114 15.316 47.5251 15.2907 47.2846C14.9689 44.1097 14.4319 32.4727 14.2236 26.9892C14.742 27.6317 15.2814 28.2607 15.8452 28.8725C14.8206 32.3673 15.655 36.125 18.1628 39.0277ZM38.4766 31.2135C38.8471 32.3384 39.1375 33.2594 39.404 34.0174L34.2084 38.0578C33.5363 37.6763 32.7059 37.2461 31.8791 36.7935C32.6603 36.299 37.7504 32.0589 38.4766 31.2135ZM42.1973 18.899C43.5769 20.6129 44.3962 22.7189 45.0626 24.8309C42.6642 22.9513 40.2435 21.4386 37.3 20.776C36.3245 18.8423 35.4252 17.3933 34.2758 15.7816C37.1588 15.2054 40.0494 16.175 42.1973 18.899ZM37.8549 26.6394C38.2966 27.9475 37.8888 29.4236 36.8154 30.4015C34.9977 32.0248 32.9665 33.6895 31.3294 35.031C30.241 35.9364 28.7552 36.1273 27.5392 35.5199C19.5941 31.5799 13.0744 24.5688 9.86016 15.6833C14.9494 13.6086 18.6521 10.2535 20.579 5.97178C29.0191 10.4858 34.9227 17.9098 37.8549 26.6394ZM9.95824 2.12863C13.1071 2.77232 16.1647 3.81062 19.0104 5.16731C19.0091 5.17033 19.0063 5.17206 19.005 5.17508C17.2665 9.09416 13.9993 12.0586 9.30485 13.9982C8.31451 10.7682 7.76854 7.40038 7.72 3.98549C7.70449 2.79988 8.76828 1.89064 9.95824 2.12863ZM12.4249 24.5701C12.2855 25.0895 13.1699 43.8839 13.5328 47.4641C13.6501 48.5962 14.5992 49.4625 15.7388 49.482C33.37 49.8245 45.4164 50.146 61.2342 49.6592C62.4531 49.6189 63.408 48.641 63.408 47.4411C63.4721 40.7585 63.3016 36.5751 63.0421 27.3205C62.9799 25.1146 63.1625 22.5298 62.2794 21.7844C61.9174 21.5014 61.5702 21.2368 45.6687 21.3688C45.1175 20.096 44.8823 19.7404 44.5625 19.2192C62.6746 19.1103 62.5933 19.0283 63.7514 19.5145C64.5147 19.8332 64.8242 20.2865 65.025 21.3818C65.5094 24.0056 65.9263 50.9639 65.9241 52.4497C64.6035 52.0329 65.4391 52.0848 36.4588 52.2006C14.9909 52.2006 13.435 51.7848 10.7801 52.6737C10.6436 47.4303 10.4588 28.5619 10.3062 21.0565C11.0925 22.5435 11.7316 23.5496 12.4249 24.5701ZM2.34097 67.0934C3.66916 63.947 5.15151 61.6088 6.99233 58.6352C10.4192 53.0694 11.558 53.8043 23.0667 53.9343C41.2252 54.1522 64.047 53.5269 65.629 54.2024C66.4761 54.5644 67.1345 55.5334 67.6647 56.2847C70.062 59.672 70.7041 60.9673 72.6445 64.6027C74.3243 67.6983 74.5262 68.8743 64.4112 68.8859C62.5278 68.9256 48.2112 69.0014 46.9849 69.0035C46.9757 68.9396 46.9721 68.8744 46.9493 68.8145C46.9775 68.6466 47.0086 68.4452 47.0379 67.977C47.1305 66.4779 45.995 65.1606 44.5063 65.041C39.1888 64.6142 33.7937 64.5244 28.4756 64.7775C26.804 64.8561 26.682 65.2454 26.3755 65.3516C25.564 65.8006 25.6924 66.171 25.6081 66.7632C25.5075 67.4766 25.4414 68.1589 25.3741 68.8383C17.4702 68.7133 10.0339 68.5386 3.87973 68.3831C2.3519 68.3451 2.06371 68.1427 2.04473 68.1415C2.03552 68.1058 2.00676 67.8849 2.34097 67.0934Z" fill="black"/>
<path d="M64.8467 14.3306L65.239 11.5822C65.4022 10.4332 63.656 10.1633 63.4892 11.3336L63.0969 14.0821C62.9321 15.2426 64.6795 15.4984 64.8467 14.3306Z" fill="black"/>
<path d="M67.932 16.2874L70.0368 12.9165C70.6546 11.9258 69.157 10.9897 68.5377 11.98L66.4329 15.3532C65.809 16.351 67.3247 17.264 67.932 16.2874Z" fill="black"/>
<path d="M69.8791 20.29C71.0141 19.6929 72.2945 19.3765 73.5762 19.4099C74.0622 19.4214 74.466 19.0291 74.4747 18.5413C74.4827 18.0535 74.0939 17.6508 73.6061 17.6428C72.0173 17.6083 70.4538 17.9902 69.0565 18.7254C68.0284 19.2675 68.8413 20.8362 69.8791 20.29Z" fill="black"/>
<path d="M14.5724 9.70452C15.7425 8.64494 15.8828 6.7202 14.8796 5.50185C14.1295 4.59068 13.078 4.19031 12.0057 4.4066C9.71234 4.86342 8.45461 7.68483 10.3594 9.59753C11.4753 10.7167 13.405 10.7624 14.5724 9.70452ZM12.3509 6.13921C12.7898 6.05408 13.1792 6.21514 13.5152 6.62471C13.9161 7.11136 13.8534 7.97191 13.3863 8.39529C12.9186 8.81866 12.0569 8.7968 11.6111 8.35042C10.7643 7.49966 11.3729 6.33436 12.3509 6.13921Z" fill="black"/>
<path d="M37.1314 44.7571C37.3075 45.9141 39.054 45.6473 38.879 44.4925C38.738 43.5652 38.4418 42.677 37.9983 41.851C37.4477 40.8213 35.8868 41.6565 36.4417 42.6862C36.7891 43.3339 37.0215 44.0311 37.1314 44.7571Z" fill="black"/>
<path d="M43.4832 43.6802C44.4354 44.3457 45.4556 42.909 44.5013 42.2352C43.3394 41.4161 42.2596 40.4692 41.2921 39.4235C40.5017 38.5659 39.1986 39.7629 39.9944 40.6223C41.0465 41.7601 42.22 42.7886 43.4832 43.6802Z" fill="black"/>
<path d="M43.2079 37.7471C44.1749 37.6424 45.1884 37.8208 46.0587 38.251C47.1079 38.7684 47.8885 37.1832 46.8411 36.6657C45.6722 36.0893 44.3141 35.8431 43.0158 35.9915C41.8433 36.1195 42.0582 37.8881 43.2079 37.7471Z" fill="black"/>
<path d="M18.0291 58.2694C18.07 58.2715 19.9016 58.3695 19.9424 58.3695C21.0814 58.3695 21.126 56.6652 19.989 56.6035L18.1235 56.5045C16.9756 56.4139 16.8436 58.205 18.0291 58.2694Z" fill="black"/>
<path d="M30.613 58.5558C32.8296 58.8693 32.6959 58.8595 32.8018 58.8595C33.8913 58.8595 34.0055 57.2534 32.9249 57.1016L30.8649 56.8071C30.3846 56.7266 29.9336 57.0717 29.8646 57.556C29.795 58.0381 30.1304 58.4868 30.613 58.5558Z" fill="black"/>
<path d="M45.4689 59.0389C47.5847 59.2623 47.3468 59.2426 47.4293 59.2426C48.5349 59.2426 48.6287 57.6008 47.5225 57.4801L45.6576 57.281C45.1657 57.2247 44.736 57.5801 44.6849 58.0656C44.6325 58.5511 44.984 58.986 45.4689 59.0389Z" fill="black"/>
<path d="M56.3612 58.6639H57.1463C58.315 58.6639 58.3157 56.8967 57.1463 56.8967H56.3612C55.1925 56.8967 55.1918 58.6639 56.3612 58.6639Z" fill="black"/>
<path d="M22.2744 63.8457L22.9612 63.9435C24.1319 64.1038 24.3542 62.3563 23.2074 62.1925L22.5206 62.0947C21.3678 61.93 21.1128 63.6797 22.2744 63.8457Z" fill="black"/>
<path d="M40.0643 62.5904H40.7517C41.9204 62.5904 41.9211 60.8232 40.7517 60.8232H40.0643C38.8956 60.8232 38.8949 62.5904 40.0643 62.5904Z" fill="black"/>
<path d="M54.8382 63.4729L56.5069 63.5707C56.9793 63.6022 57.4114 63.2367 57.44 62.7389C57.4682 62.2523 57.0965 61.8346 56.6093 61.8059L54.9406 61.7081C53.7474 61.6716 53.6936 63.4054 54.8382 63.4729Z" fill="black"/>
<path d="M50.5721 30.5855H57.3685C58.5372 30.5855 58.5379 28.8184 57.3685 28.8184H50.5721C49.4034 28.8184 49.4027 30.5855 50.5721 30.5855Z" fill="black"/>
<path d="M52.7283 34.709C51.5597 34.709 51.5589 36.4761 52.7283 36.4761H57.7824C58.2702 36.4761 58.6659 36.0803 58.6659 35.5925C58.6659 35.1047 58.2702 34.709 57.7824 34.709H52.7283Z" fill="black"/>
<path d="M57.8624 40.4036H51.1609C50.6731 40.4036 50.2773 40.7993 50.2773 41.2871C50.2773 41.7749 50.6731 42.1707 51.1609 42.1707H57.8624C58.3502 42.1707 58.746 41.7749 58.746 41.2871C58.746 40.7993 58.3502 40.4036 57.8624 40.4036Z" fill="black"/>
</svg>
