<svg width="200" height="41" viewBox="0 0 200 41" fill="none" xmlns="http://www.w3.org/2000/svg">
<g clip-path="url(#clip0_1_2)">
<path d="M18.7131 23.4748L15.2176 26.759L0.956482 13.3657L4.45202 10.0815L18.7131 23.4748Z" fill="black"/>
<path d="M15.1862 0L11.6166 3.35241L15.1862 6.70619L18.7558 3.35241L15.1862 0Z" fill="black"/>
<path d="M18.7605 16.8508L15.265 13.568L29.5261 0.17334L33.023 3.45753L18.7605 16.8508Z" fill="black"/>
<path d="M39.43 16.9543L35.8604 13.6006L39.43 10.2495L42.9996 13.6006L39.43 16.9543Z" fill="black"/>
<path d="M25.1223 17.631L28.6192 14.3481L42.8803 27.7401L39.3834 31.0242L25.1223 17.631Z" fill="black"/>
<path d="M25.0773 37.7523L28.5336 40.9983H28.7617L32.2166 37.7523L28.6484 34.3999L25.0773 37.7523Z" fill="black"/>
<path d="M10.7338 37.7146L14.2293 40.9988L28.4904 27.6041L24.9949 24.3213L10.7338 37.7146Z" fill="black"/>
<path d="M-0.000488281 27.6327L3.56914 30.9851L7.13878 27.6327L3.56914 24.2803L-0.000488281 27.6327Z" fill="black"/>
<path d="M67.3208 29.3635C64.5821 29.3635 62.3201 28.4535 60.5348 26.6335C58.7494 24.8135 57.8568 22.5688 57.8568 19.8995C57.8568 17.2128 58.7494 14.9682 60.5348 13.1655C62.3201 11.3455 64.5821 10.4355 67.3208 10.4355C68.9674 10.4355 70.4841 10.8255 71.8708 11.6055C73.2748 12.3682 74.3668 13.4082 75.1468 14.7255L72.0528 16.5195C71.6021 15.7048 70.9608 15.0722 70.1288 14.6215C69.2968 14.1535 68.3608 13.9195 67.3208 13.9195C65.5528 13.9195 64.1228 14.4742 63.0308 15.5835C61.9561 16.6928 61.4188 18.1315 61.4188 19.8995C61.4188 21.6502 61.9561 23.0802 63.0308 24.1895C64.1228 25.2988 65.5528 25.8535 67.3208 25.8535C68.3608 25.8535 69.2968 25.6282 70.1288 25.1775C70.9781 24.7095 71.6194 24.0768 72.0528 23.2795L75.1468 25.0735C74.3668 26.3908 73.2834 27.4395 71.8968 28.2195C70.5101 28.9822 68.9848 29.3635 67.3208 29.3635ZM95.0352 19.2235V20.6275C95.0352 23.2275 94.2032 25.3335 92.5392 26.9455C90.8752 28.5575 88.7258 29.3635 86.0912 29.3635C83.2832 29.3635 80.9518 28.4535 79.0972 26.6335C77.2598 24.7962 76.3412 22.5602 76.3412 19.9255C76.3412 17.2735 77.2512 15.0288 79.0712 13.1915C80.9085 11.3542 83.1792 10.4355 85.8832 10.4355C87.5818 10.4355 89.1332 10.8255 90.5372 11.6055C91.9412 12.3682 93.0332 13.3908 93.8132 14.6735L90.7452 16.4415C90.3118 15.6962 89.6532 15.0895 88.7692 14.6215C87.9025 14.1535 86.9318 13.9195 85.8572 13.9195C84.1238 13.9195 82.6938 14.4915 81.5672 15.6355C80.4578 16.7622 79.9032 18.1922 79.9032 19.9255C79.9032 21.6415 80.4665 23.0628 81.5932 24.1895C82.7372 25.2988 84.2452 25.8535 86.1172 25.8535C87.5038 25.8535 88.6478 25.5502 89.5492 24.9435C90.4678 24.3195 91.0918 23.4702 91.4212 22.3955H85.9092V19.2235H95.0352ZM103.141 29.3635C101.338 29.3635 99.8217 28.9648 98.5911 28.1675C97.3604 27.3528 96.4937 26.2522 95.9911 24.8655L99.0591 23.0715C99.7697 24.9262 101.165 25.8535 103.245 25.8535C104.25 25.8535 104.987 25.6715 105.455 25.3075C105.923 24.9435 106.157 24.4842 106.157 23.9295C106.157 23.2882 105.871 22.7942 105.299 22.4475C104.727 22.0835 103.704 21.6935 102.231 21.2775C101.416 21.0348 100.723 20.7922 100.151 20.5495C99.5964 20.3068 99.0331 19.9862 98.4611 19.5875C97.9064 19.1715 97.4817 18.6515 97.1871 18.0275C96.8924 17.4035 96.7451 16.6755 96.7451 15.8435C96.7451 14.1968 97.3257 12.8882 98.4871 11.9175C99.6657 10.9295 101.078 10.4355 102.725 10.4355C104.198 10.4355 105.49 10.7995 106.599 11.5275C107.726 12.2382 108.601 13.2348 109.225 14.5175L106.209 16.2595C105.481 14.6995 104.32 13.9195 102.725 13.9195C101.98 13.9195 101.39 14.0928 100.957 14.4395C100.541 14.7688 100.333 15.2022 100.333 15.7395C100.333 16.3115 100.567 16.7795 101.035 17.1435C101.52 17.4902 102.439 17.8715 103.791 18.2875C104.346 18.4608 104.762 18.5995 105.039 18.7035C105.334 18.7902 105.724 18.9375 106.209 19.1455C106.712 19.3362 107.093 19.5182 107.353 19.6915C107.63 19.8648 107.942 20.0988 108.289 20.3935C108.636 20.6882 108.896 20.9915 109.069 21.3035C109.26 21.6155 109.416 21.9968 109.537 22.4475C109.676 22.8808 109.745 23.3575 109.745 23.8775C109.745 25.5588 109.13 26.8935 107.899 27.8815C106.686 28.8695 105.1 29.3635 103.141 29.3635ZM118.585 22.7595V19.5355H128.335V22.7595H118.585ZM145.492 19.2235H142.554V24.6315C142.554 25.0822 142.667 25.4115 142.892 25.6195C143.118 25.8275 143.447 25.9488 143.88 25.9835C144.314 26.0008 144.851 25.9922 145.492 25.9575V28.9995C143.187 29.2595 141.558 29.0428 140.604 28.3495C139.668 27.6562 139.2 26.4168 139.2 24.6315V19.2235H136.938V15.9995H139.2V13.3735L142.554 12.3595V15.9995H145.492V19.2235ZM150.285 23.8775C150.735 25.5068 151.957 26.3215 153.951 26.3215C155.233 26.3215 156.204 25.8882 156.863 25.0215L159.567 26.5815C158.284 28.4362 156.395 29.3635 153.899 29.3635C151.749 29.3635 150.025 28.7135 148.725 27.4135C147.425 26.1135 146.775 24.4755 146.775 22.4995C146.775 20.5408 147.416 18.9115 148.699 17.6115C149.981 16.2942 151.628 15.6355 153.639 15.6355C155.545 15.6355 157.114 16.2942 158.345 17.6115C159.593 18.9288 160.217 20.5582 160.217 22.4995C160.217 22.9328 160.173 23.3922 160.087 23.8775H150.285ZM150.233 21.2775H156.863C156.672 20.3935 156.273 19.7348 155.667 19.3015C155.077 18.8682 154.401 18.6515 153.639 18.6515C152.737 18.6515 151.992 18.8855 151.403 19.3535C150.813 19.8042 150.423 20.4455 150.233 21.2775ZM172.337 15.9995H175.691V28.9995H172.337V27.4655C171.331 28.7308 169.919 29.3635 168.099 29.3635C166.365 29.3635 164.875 28.7048 163.627 27.3875C162.396 26.0528 161.781 24.4235 161.781 22.4995C161.781 20.5755 162.396 18.9548 163.627 17.6375C164.875 16.3028 166.365 15.6355 168.099 15.6355C169.919 15.6355 171.331 16.2682 172.337 17.5335V15.9995ZM166.149 25.1515C166.825 25.8275 167.683 26.1655 168.723 26.1655C169.763 26.1655 170.621 25.8275 171.297 25.1515C171.99 24.4582 172.337 23.5742 172.337 22.4995C172.337 21.4248 171.99 20.5495 171.297 19.8735C170.621 19.1802 169.763 18.8335 168.723 18.8335C167.683 18.8335 166.825 19.1802 166.149 19.8735C165.473 20.5495 165.135 21.4248 165.135 22.4995C165.135 23.5742 165.473 24.4582 166.149 25.1515ZM193.11 15.6355C194.601 15.6355 195.788 16.1208 196.672 17.0915C197.573 18.0622 198.024 19.3622 198.024 20.9915V28.9995H194.67V21.2255C194.67 20.4455 194.479 19.8388 194.098 19.4055C193.717 18.9722 193.179 18.7555 192.486 18.7555C191.723 18.7555 191.125 19.0068 190.692 19.5095C190.276 20.0122 190.068 20.7402 190.068 21.6935V28.9995H186.714V21.2255C186.714 20.4455 186.523 19.8388 186.142 19.4055C185.761 18.9722 185.223 18.7555 184.53 18.7555C183.785 18.7555 183.187 19.0068 182.736 19.5095C182.303 20.0122 182.086 20.7402 182.086 21.6935V28.9995H178.732V15.9995H182.086V17.3775C182.866 16.2162 184.071 15.6355 185.7 15.6355C187.295 15.6355 188.473 16.2595 189.236 17.5075C190.103 16.2595 191.394 15.6355 193.11 15.6355Z" fill="black"/>
</g>
<defs>
<clipPath id="clip0_1_2">
<rect width="200" height="41" fill="white"/>
</clipPath>
</defs>
</svg>
