<svg width="64" height="70" viewBox="0 0 64 70" fill="none" xmlns="http://www.w3.org/2000/svg">
<path d="M2.09132 41.1065C4.43895 44.982 10.0148 46.5261 14.4281 44.9658C16.8444 44.1115 18.8724 42.479 20.1347 40.2488C21.513 40.2689 23.0234 40.2391 24.4016 40.2592C24.9935 39.5059 25.5867 38.7767 26.1793 38.0361C26.185 38.0454 26.1912 38.0547 26.1969 38.0639C27.023 39.3999 27.2228 39.6559 27.1481 39.5502C27.3893 39.8916 27.9027 40.0101 28.2776 39.7163C28.6772 39.4014 29.0272 39.0994 29.3594 38.798C28.9291 40.6788 24.3592 61.0352 24.4685 61.638C24.3326 62.5338 24.4609 63.1193 25.2192 63.8359C27.0172 65.534 40.7009 68.5903 42.8941 68.9394C44.4549 69.1932 45.6576 69.5931 46.9327 68.3643C48.3913 67.9971 50.0869 67.5056 51.0538 66.3533C51.4858 65.8385 51.5622 65.3585 51.6971 64.7231C54.5932 51.0812 56.8405 47.4298 62.8342 14.8556C63.3935 11.8154 64.6885 8.14824 63.2568 5.1947C63.0482 4.76453 62.8271 4.34054 62.6041 3.91771C62.6194 2.71415 62.2864 1.94472 61.7853 1.36019C60.6272 0.074764 56.7601 1.25144 54.5537 2.06733C46.4972 5.10099 40.5319 8.39069 38.0122 9.3619C36.2082 10.0438 35.7712 12.0302 35.3851 13.7831C35.0408 15.3456 33.6058 20.801 31.4327 29.958L20.3204 29.2134C19.3507 26.8591 17.5423 24.8716 15.3363 23.7521C8.65524 20.3638 1.24474 25.5246 0.367598 32.206C-0.251817 34.7203 0.120844 37.8533 2.09132 41.1065ZM43.1456 67.3762C41.3313 67.0873 27.6393 63.9428 26.3062 62.685C25.9671 62.3644 25.9315 62.3309 26.0944 61.5408C26.1036 61.4962 25.9376 62.0415 26.8174 57.8312L47.5109 62.4866C47.3823 63.0304 47.2534 63.5828 47.1158 64.1781C46.151 68.3155 45.2561 67.7202 43.1456 67.3762ZM36.9313 14.1232C37.2452 12.6971 37.5705 11.222 38.5765 10.8411C40.7887 9.98894 42.8478 8.83033 44.9733 7.86773C49.5048 5.80432 50.8992 5.13514 55.1072 3.55068C57.51 2.6616 60.1443 2.13279 60.5953 2.40441C61.2604 3.17681 61.0248 4.52461 60.7958 5.53139C60.6238 6.2685 48.0613 60.1332 47.8741 60.945L27.1404 56.2805C28.4019 50.2886 29.706 44.3632 31.0344 38.5722L32.001 40.0189C32.2694 40.4207 32.8396 40.5483 33.3353 40.0127L35.1464 38.0576L36.7556 40.5796C37.1084 41.1323 37.9801 40.9586 38.2673 40.6374L39.3479 39.4269C39.3974 40.8145 39.6737 42.8717 41.0649 42.8717C43.0551 42.8717 44.1006 37.7167 44.4048 35.7461C44.597 34.4958 45.4428 28.2408 43.1765 27.8862C41.9115 27.7032 40.9952 29.5875 40.3928 31.6365C40.3848 31.6279 40.4749 31.7252 39.7762 30.9692C39.6659 30.6965 39.4135 30.493 39.1007 30.472L33.0358 30.0655C35.2976 20.5506 36.5545 15.8267 36.9313 14.1232ZM1.98153 32.013C2.93957 26.764 8.93396 22.279 14.6199 25.1643C16.5196 26.1281 18.0788 27.8553 18.8967 29.903C19.074 30.345 19.3148 30.7331 19.7683 30.7637L38.6245 32.0274C38.9345 32.4122 39.2965 32.6957 40.6346 34.318L40.4043 35.8659L37.6177 38.9872L36.0026 36.4559C35.6705 35.9343 34.8481 36.0493 34.5399 36.3822L32.7596 38.304L31.2072 35.9812C30.9083 35.5344 30.2771 35.447 29.7409 36.1069C29.2063 36.7672 28.6637 37.3242 27.9764 37.914C26.9537 36.2889 26.9057 36.2046 26.6082 35.757C26.2445 35.2087 25.459 35.4353 25.2068 35.6884C24.5329 36.3646 23.7962 36.9849 23.0283 37.5588C22.7522 37.4391 22.9337 37.523 19.4663 37.2543C19.1108 37.1343 18.7148 37.2652 18.5261 37.6047C17.1783 40.0271 14.6487 41.7774 11.9243 42.1728C9.17869 42.5722 6.26921 41.5971 4.33746 39.6313C2.38871 37.6485 1.48571 34.7292 1.98153 32.013Z" fill="black"/>
<path d="M36.8315 62.1427L34.2499 61.551C33.8241 61.4515 33.3994 61.72 33.3015 62.1458C33.2036 62.5715 33.4701 62.9967 33.8963 63.0941L36.479 63.6858C36.8914 63.7826 37.3275 63.5269 37.4268 63.091C37.5243 62.6648 37.2578 62.2401 36.8315 62.1427Z" fill="black"/>
<path d="M45.5957 11.2267L49.5061 9.37481C49.9009 9.18772 50.0695 8.7156 49.8824 8.32029C49.6953 7.92548 49.2263 7.75694 48.8279 7.94404L44.9175 9.7959C44.5227 9.98299 44.3541 10.4551 44.5412 10.8504C44.7287 11.2468 45.2028 11.413 45.5957 11.2267Z" fill="black"/>
<path d="M10.7835 36.6925C13.1739 35.1374 13.5077 31.4201 11.0077 29.5907C9.123 28.2141 6.425 28.6257 5.06346 30.6266C4.0246 30.9421 3.41011 34.3457 5.48506 36.2518C6.89025 37.5431 9.1671 37.7441 10.7835 36.6925ZM5.75977 32.3811C5.91903 32.2966 6.04892 32.1579 6.12056 31.9832C6.76506 30.4181 8.71871 29.8782 10.0732 30.8689C11.687 32.0498 11.3729 34.4198 9.91963 35.3658C8.9151 36.0199 7.43897 35.8951 6.55608 35.086C5.8376 34.4257 5.54021 33.3341 5.75977 32.3811Z" fill="black"/>
<path d="M4.96227 21.906C5.23918 22.2476 5.73747 22.2973 6.07555 22.0235C6.41572 21.7483 6.4683 21.2499 6.19307 20.9102L1.70799 15.3675C1.43379 15.0279 0.934359 14.9758 0.594706 15.25C0.254536 15.5253 0.201965 16.0237 0.477193 16.3633L4.96227 21.906Z" fill="black"/>
<path d="M10.2201 19.4501L11.0777 11.2489C11.123 10.8139 10.8076 10.4248 10.3726 10.3789C9.9474 10.3459 9.54847 10.6495 9.5026 11.084L8.64496 19.2852C8.59961 19.7202 8.91504 20.1093 9.35004 20.1552C9.80851 20.1976 10.1762 19.867 10.2201 19.4501Z" fill="black"/>
<path d="M15.1919 20.5535L18.6116 14.2145C18.8193 13.83 18.6755 13.3497 18.2905 13.142C17.9055 12.9348 17.4252 13.077 17.218 13.4631L13.7982 19.8021C13.5905 20.1866 13.7343 20.6669 14.1193 20.8746C14.5033 21.0815 14.9838 20.9391 15.1919 20.5535Z" fill="black"/>
</svg>
