<svg width="17" height="16" viewBox="0 0 17 16" fill="none" xmlns="http://www.w3.org/2000/svg">
    <path d="M9.10069 0.368147L11.2085 4.57682C11.306 4.77138 11.4943 4.90667 11.7133 4.93798L16.4258 5.61334C16.9748 5.69161 17.1949 6.35802 16.7967 6.7393L13.3866 10.0154C13.2289 10.1675 13.1563 10.3856 13.1937 10.6002L13.9992 15.226C14.0933 15.7649 13.5182 16.1764 13.027 15.9226L8.81254 13.7388C8.61741 13.6382 8.38372 13.6382 8.1886 13.7388L3.97303 15.9226C3.48181 16.1775 2.90665 15.766 3.00081 15.226L3.80626 10.6002C3.8437 10.3856 3.7711 10.1675 3.61341 10.0154L0.203287 6.7393C-0.1949 6.3569 0.0251805 5.69161 0.574249 5.61334L5.2867 4.93798C5.50452 4.90667 5.69397 4.77138 5.79153 4.57682L7.89932 0.368147C8.14435 -0.122716 8.85451 -0.122716 9.10069 0.368147Z"/>
</svg>
