<svg width="162" height="41" viewBox="0 0 162 41" fill="none" xmlns="http://www.w3.org/2000/svg">
<path d="M29.0086 21.9747V4.52413H22.2487L14.5211 0L6.79346 4.52413H0.0335937V21.9747C0.0335937 21.9747 -0.60997 27.4678 3.73653 30.8615C8.08302 34.2552 14.5211 37.4874 14.5211 37.4874C14.5211 37.4874 20.9641 34.2552 25.3081 30.8615C29.6522 27.4678 29.0086 21.9747 29.0086 21.9747Z" fill="#CDCDCD"/>
<path d="M17.5748 8.7962L15.3638 8.40226L14.5179 6.44482L13.672 8.40226L11.4609 8.7962L12.9894 10.0367L12.5019 12.1899L14.5179 11.0815L16.5339 12.1899L16.0463 10.0367L17.5748 8.7962Z" fill="#B2B2B2"/>
<path opacity="0.52" d="M17.6941 40.4993V17.5532L19.5809 40.4993H17.6941ZM24.3589 10.9175V35.246C24.9976 34.304 25.7045 33.3938 26.4115 32.4591L24.3589 10.9175ZM12.9234 40.4993L11.0391 24.277V40.4993H12.9234Z" fill="#B2B2B2"/>
<path d="M11.028 24.2771H6.25V40.4994H11.028V24.2771Z" fill="#B2B2B2"/>
<path d="M17.692 17.5535H12.9141V40.4996H17.692V17.5535Z" fill="#B2B2B2"/>
<path d="M24.2975 10.3843H19.5195V34.9795H24.2975V10.3843Z" fill="#B2B2B2"/>
<path d="M39.3234 4.573H50.459L49.9032 7.77586H46.327L44.74 16.7703H40.7568L42.3437 7.77586H38.7578L39.3234 4.573Z" fill="#B2B2B2"/>
<path d="M54.6028 12.5202L53.8714 16.7703H49.8711L52.0139 4.573H57.7523C59.4977 4.573 60.7442 4.78179 61.4918 5.19938C61.8501 5.38975 62.1464 5.67928 62.3456 6.03362C62.5447 6.38795 62.6385 6.79221 62.6156 7.19841C62.6117 7.48337 62.5831 7.76745 62.5303 8.04745C62.4121 8.74237 62.1183 9.39525 61.6771 9.94372C61.2384 10.4789 60.6404 10.8589 59.9707 11.0277C60.4274 11.1837 60.8496 11.4271 61.2139 11.7446C61.4577 11.9893 61.5845 12.4272 61.5845 13.0487C61.5776 13.4598 61.5327 13.8694 61.4504 14.2721C61.4284 14.4287 61.4041 14.5706 61.3821 14.6954C61.2939 15.1259 61.232 15.5615 61.1969 15.9996C61.1969 16.2712 61.2968 16.4057 61.5016 16.4057L61.4284 16.7703H57.3989V16.6529C57.3884 16.5799 57.3827 16.5063 57.3818 16.4326C57.3962 15.83 57.4581 15.2295 57.5671 14.6367C57.6372 14.3248 57.6772 14.0069 57.6865 13.6873C57.7033 13.5141 57.6748 13.3395 57.6038 13.1808C57.5329 13.022 57.4219 12.8846 57.2818 12.782C57.0113 12.6058 56.5213 12.5202 55.8192 12.5202H54.6028ZM55.0757 9.84341H56.6431C57.15 9.87036 57.656 9.77732 58.1204 9.57181C58.2869 9.48647 58.4301 9.36163 58.5376 9.20812C58.6451 9.05461 58.7136 8.87709 58.7372 8.69096C58.7365 8.64834 58.7397 8.60574 58.7469 8.56373C58.7469 8.49767 58.764 8.45852 58.764 8.44628C58.7726 8.29677 58.7421 8.1476 58.6754 8.01364C58.6086 7.87969 58.5081 7.76564 58.3837 7.68288C58.0688 7.5013 57.7078 7.41625 57.3452 7.4382H55.4901L55.0757 9.84341Z" fill="#B2B2B2"/>
<path d="M63.2579 16.7703L65.4007 4.573H75.3077L74.803 7.41863H68.8769L68.5746 9.16564H73.5866L73.0991 12.0113H68.0846L67.7458 13.9247H73.9084L73.4013 16.7703H63.2579Z" fill="#B2B2B2"/>
<path d="M84.3707 11.2307L84.7095 8.45362L85.3848 4.573H89.1999L87.0546 16.7703H83.3249L80.1558 10.1297L79.8194 12.9092L79.1442 16.7703H75.3242L77.467 4.573H81.1992L84.3707 11.2307Z" fill="#B2B2B2"/>
<path d="M89.3164 16.7703L91.4592 4.573H96.793C98.5384 4.573 99.8832 4.93757 100.827 5.66672C101.772 6.39586 102.245 7.50019 102.246 8.97969C102.243 9.46235 102.197 9.94377 102.11 10.4184C101.959 11.4337 101.639 12.4163 101.164 13.3252C100.756 14.089 100.196 14.7603 99.5184 15.2973C98.8575 15.8099 98.1043 16.1895 97.3 16.4155C96.4059 16.661 95.482 16.7804 94.5551 16.7703H89.3164ZM93.8067 13.9247H94.6502C95.4837 13.9648 96.3005 13.6799 96.9295 13.1295C97.5032 12.5993 97.8916 11.769 98.0947 10.6386C98.1663 10.2247 98.2055 9.80587 98.2117 9.38585C98.2117 8.65181 98.0175 8.14043 97.6291 7.85171C97.2407 7.56299 96.5963 7.41863 95.696 7.41863H94.9378L93.8067 13.9247Z" fill="#B2B2B2"/>
<path d="M46.7524 25.5642V25.3195C46.7666 25.0834 46.7318 24.847 46.6505 24.6251C46.5691 24.4032 46.4428 24.2006 46.2795 24.03C45.9069 23.705 45.4216 23.5406 44.929 23.5725C44.5775 23.5735 44.2309 23.656 43.9164 23.8134C43.6018 23.9709 43.3277 24.1991 43.1153 24.4803C42.6148 25.0838 42.2629 25.9679 42.0598 27.1326C41.9876 27.5521 41.9484 27.9767 41.9428 28.4025C41.9133 28.9381 42.0683 29.4677 42.3816 29.9024C42.6741 30.2694 43.1746 30.4529 43.8832 30.4529C44.4407 30.4719 44.9833 30.2707 45.3946 29.8926C45.8181 29.4782 46.1235 28.9579 46.2795 28.3853H50.1116C49.7306 29.8616 48.8621 31.1645 47.6481 32.0813C46.434 32.9981 44.9461 33.4746 43.4274 33.4331C41.6949 33.4331 40.3534 32.9959 39.4026 32.1216C38.4519 31.2473 37.9766 30.0353 37.9766 28.4857C37.9786 27.986 38.0235 27.4875 38.1106 26.9956C38.2638 26.0684 38.5747 25.1745 39.0297 24.353C39.4575 23.5853 40.0142 22.8974 40.6751 22.3197C41.3133 21.7642 42.0457 21.3283 42.8374 21.0327C43.6173 20.7411 44.4429 20.5919 45.2752 20.5923C47.0092 20.5923 48.3199 20.9789 49.2072 21.7521C50.0946 22.5253 50.5391 23.6239 50.5407 25.0479C50.5407 25.092 50.5407 25.1776 50.5236 25.2926V25.5642H46.7524Z" fill="#B2B2B2"/>
<path d="M61.4 20.9812C62.0175 21.1998 62.5779 21.5553 63.0396 22.0213C63.5013 22.4873 63.8525 23.0517 64.0669 23.6727C64.2843 24.3021 64.3931 24.964 64.3887 25.6301C64.3866 26.0618 64.3467 26.4925 64.2692 26.9172C64.1063 27.8749 63.7815 28.7975 63.3088 29.6453C62.8697 30.4299 62.2914 31.1273 61.6023 31.7031C60.9336 32.2593 60.1706 32.6903 59.3499 32.9754C58.5161 33.2632 57.6402 33.4088 56.7585 33.4061C55.0814 33.4061 53.7674 32.9714 52.8167 32.1019C51.866 31.2325 51.3906 30.0091 51.3906 28.4317C51.393 27.9143 51.4436 27.3982 51.5418 26.8902C51.6875 25.9787 51.9938 25.1005 52.4462 24.2966C52.8772 23.534 53.4401 22.8546 54.1087 22.2903C54.773 21.7297 55.5339 21.2959 56.3539 21.0106C57.2058 20.7137 58.1019 20.5647 59.0037 20.5702C59.8209 20.5573 60.6334 20.6966 61.4 20.9812ZM57.2851 23.8611C56.9424 24.0576 56.6463 24.3264 56.4173 24.649C56.1786 24.9797 55.9852 25.3409 55.8419 25.7231C55.6945 26.1203 55.582 26.5297 55.5055 26.9465C55.4397 27.3272 55.4055 27.7126 55.4031 28.099C55.3744 28.7002 55.5246 29.2965 55.8346 29.8117C56.1198 30.2472 56.6025 30.465 57.2778 30.465C57.6585 30.4762 58.0363 30.3959 58.3798 30.2307C58.7233 30.0656 59.0224 29.8204 59.2523 29.5157C59.799 28.76 60.1523 27.8811 60.2811 26.9563C60.3484 26.6278 60.3827 26.2934 60.3835 25.958C60.4103 25.3523 60.2475 24.7533 59.9179 24.2452C59.6083 23.8048 59.1158 23.5822 58.4406 23.5822C58.0376 23.5709 57.6389 23.6672 57.2851 23.8611Z" fill="#B2B2B2"/>
<path d="M64.8633 33.1028L67.0061 20.9031H71.8157L72.6251 28.5102L76.1037 20.9031H80.9134L78.7706 33.1028H75.192L75.8502 29.3739L76.2378 27.4776L76.8302 25.2755H76.7887L73.1931 33.1053H70.4311L69.6047 25.2755H69.5706L69.4194 27.0715L69.1757 28.9677L68.4443 33.1028H64.8633Z" fill="#B2B2B2"/>
<path d="M80.7969 33.1028L82.9397 20.9031H87.7591L88.5708 28.5102L92.0471 20.9031H96.8567L94.714 33.1028H91.1256L91.7838 29.3739L92.1714 27.4776L92.7638 25.2755H92.7296L89.134 33.1053H86.3647L85.5383 25.2755H85.5042L85.353 27.0715L85.1092 28.9677L84.3779 33.1028H80.7969Z" fill="#B2B2B2"/>
<path d="M95.8984 33.1028L102.397 20.9031H106.449L108.66 33.1028H104.694L104.509 31.4928H100.54L99.8086 33.1028H95.8984ZM103.748 24.5806L101.739 28.9506H104.255L103.748 24.5806Z" fill="#B2B2B2"/>
<path d="M119.058 27.5633L119.397 24.7837L120.07 20.9031H123.885L121.742 33.1028H118.012L114.843 26.4598L114.507 29.2393L113.832 33.1028H110.012L112.154 20.9031H115.884L119.058 27.5633Z" fill="#B2B2B2"/>
<path d="M124.004 33.1028L126.147 20.9031H131.48C133.224 20.9031 134.569 21.2676 135.515 21.9968C136.461 22.7259 136.933 23.8303 136.931 25.3098C136.929 25.7924 136.884 26.2738 136.797 26.7485C136.643 27.764 136.321 28.7465 135.844 29.6553C135.435 30.4185 134.875 31.0897 134.199 31.6274C133.537 32.1405 132.783 32.5202 131.978 32.7456C131.085 32.9922 130.162 33.1125 129.235 33.1028H124.004ZM128.492 30.2572H129.338C130.171 30.2966 130.987 30.0107 131.615 29.4595C132.19 28.9294 132.578 28.0991 132.78 26.9687C132.852 26.5549 132.892 26.136 132.899 25.7159C132.899 24.9819 132.705 24.4705 132.317 24.1818C131.929 23.8955 131.283 23.7512 130.383 23.7512H129.623L128.492 30.2572Z" fill="#B2B2B2"/>
<path d="M137.32 33.1028L139.463 20.9031H149.37L148.865 23.7512H142.939L142.637 25.4957H147.649L147.161 28.3414H142.147L141.808 30.2572H147.968L147.461 33.1028H137.32Z" fill="#B2B2B2"/>
<path d="M153.981 28.8503L153.249 33.1028H149.254L151.397 20.9031H157.135C158.881 20.9031 160.127 21.1127 160.875 21.5319C161.233 21.7221 161.529 22.0117 161.728 22.3662C161.927 22.7206 162.02 23.1249 161.996 23.5309C161.993 23.815 161.965 24.0983 161.913 24.3775C161.795 25.0724 161.501 25.7253 161.06 26.2738C160.621 26.8086 160.023 27.1885 159.353 27.3577C159.812 27.5112 160.237 27.7531 160.604 28.0698C160.849 28.3193 160.973 28.754 160.975 29.3739C160.968 29.785 160.923 30.1945 160.84 30.5973C160.816 30.7563 160.794 30.8958 160.772 31.0206C160.684 31.4511 160.622 31.8866 160.587 32.3247C160.587 32.5963 160.687 32.7309 160.889 32.7309L160.823 33.1053H156.782V32.9854C156.771 32.9124 156.765 32.8389 156.765 32.7652C156.779 32.1626 156.841 31.562 156.95 30.9692C157.019 30.658 157.059 30.341 157.069 30.0223C157.087 29.8487 157.058 29.6736 156.987 29.5144C156.916 29.3552 156.805 29.2173 156.665 29.1145C156.393 28.94 155.906 28.8527 155.202 28.8527L153.981 28.8503ZM154.451 26.1808H156.014C156.521 26.2078 157.027 26.1147 157.491 25.9092C157.658 25.8239 157.801 25.699 157.908 25.5455C158.016 25.392 158.084 25.2145 158.108 25.0284C158.109 24.983 158.114 24.9379 158.125 24.8938C158.125 24.8253 158.142 24.7861 158.142 24.7739C158.15 24.6248 158.12 24.476 158.053 24.3425C157.986 24.209 157.886 24.0953 157.762 24.013C157.447 23.8302 157.086 23.745 156.723 23.7683H154.868L154.451 26.1808Z" fill="#B2B2B2"/>
</svg>
