<svg width="253" height="236" viewBox="0 0 253 236" fill="none" xmlns="http://www.w3.org/2000/svg">
<circle cx="228" cy="30" r="25" fill="#1F5A7B"/>
<path d="M237.043 38.22V42H221.239V38.22H226.855V21.696L221.635 24.828V20.688L228.763 16.368H231.463V38.22H237.043Z" fill="white"/>
<path d="M191.095 160.822C191.095 159.967 191.325 159.275 192.083 159.045C194.191 158.452 194.553 161.25 194.915 162.205C195.245 163.192 196.858 165.43 197.122 167.175C197.385 168.919 195.837 170.993 194.783 171.388C193.73 171.915 192.741 168.59 192.346 167.307C191.951 165.99 190.238 162.666 190.238 162.666L191.095 160.822Z" fill="#0C1033"/>
<path d="M142.943 94.9264C143.305 96.2101 145.775 96.6051 148.476 95.848C151.176 95.091 153.087 93.4453 152.724 92.1616C152.362 90.8779 149.892 90.4829 147.191 91.24C144.491 92.0299 142.58 93.6757 142.943 94.9264Z" fill="white"/>
<path d="M143.468 94.301C143.798 95.4859 145.972 95.9138 148.31 95.2555C150.648 94.5972 152.262 93.116 151.933 91.9311C151.604 90.7462 149.43 90.3183 147.091 90.9766C144.753 91.6019 143.139 93.116 143.468 94.301Z" fill="#FFD4C0"/>
<path d="M143.009 89.8574L143.471 94.268L151.935 91.8981C151.935 91.8981 150.881 90.022 151.474 88.87C152.067 87.7179 158.325 82.5832 151.276 77.251C144.228 71.9188 142.12 79.9829 141.231 82.2541C140.342 84.5252 140.045 86.8951 140.342 87.4217C140.638 87.9484 142.647 89.3966 143.009 89.8574Z" fill="white"/>
<path d="M143.471 95.1567C143.306 95.1567 143.142 95.0908 142.977 94.9921C142.779 94.8604 142.615 94.63 142.615 94.3667L142.187 90.2523C141.989 90.0548 141.594 89.7586 141.33 89.5282C140.408 88.7712 139.848 88.2775 139.618 87.8496C139.058 86.7963 139.782 83.7681 140.474 81.9578L140.705 81.3653C141.396 79.3904 142.714 75.704 145.711 74.8153C147.522 74.2886 149.597 74.8811 151.87 76.5927C154.044 78.2384 155.262 80.0487 155.493 82.0236C155.855 84.986 153.846 87.3887 152.792 88.7053C152.561 88.9687 152.397 89.1991 152.298 89.3307C152.034 89.8244 152.397 90.9436 152.726 91.536C152.858 91.7664 152.858 92.0627 152.759 92.2931C152.66 92.5235 152.463 92.721 152.199 92.7868L143.735 95.1567C143.636 95.1567 143.537 95.1567 143.471 95.1567ZM150.75 91.3385C150.486 90.5486 150.256 89.3966 150.717 88.4749C150.849 88.2116 151.079 87.9483 151.409 87.5533C152.364 86.3684 153.978 84.4264 153.714 82.1882C153.549 80.7399 152.561 79.2917 150.783 77.9422C148.971 76.5927 147.423 76.066 146.172 76.461C144.031 77.1193 142.911 80.2462 142.318 81.9249L142.088 82.5832C141.264 84.7226 141.034 86.6646 141.133 87.0267C141.264 87.2242 142.022 87.8496 142.45 88.2116C143.142 88.7712 143.537 89.1003 143.735 89.3966C143.833 89.5282 143.899 89.6599 143.899 89.8244L144.262 93.2147L150.75 91.3385Z" fill="#0C1033"/>
<path d="M142.978 74.0584C140.607 75.4408 145.119 81.2668 145.119 81.2668C145.119 81.2668 143.999 83.6366 144.098 84.2291C144.197 84.8216 145.283 82.9125 146.239 84.1304C147.194 85.3482 146.733 89.3638 147.26 89.8905C147.984 90.6146 150.685 90.2196 151.377 89.3638C151.936 88.6726 157.47 82.6821 153.419 78.1399C149.4 73.5647 145.152 72.7747 142.978 74.0584Z" fill="#0C1033"/>
<path d="M178.02 122.081L180.786 124.517L182.4 125.801L183.256 126.722C183.256 126.722 184.146 127.907 184.409 127.907C184.673 127.907 184.804 127.841 184.804 127.841L184.113 126.261L182.96 124.945L184.706 125.702L186.221 125.932C186.221 125.932 187.571 126.031 187.9 125.669C188.23 125.307 187.999 125.076 187.999 125.076C187.999 125.076 188.296 124.813 188.296 124.55C188.296 124.254 186.385 123.924 186.385 123.924L185.265 123.332L182.137 121.258L179.172 120.534L178.02 122.081Z" fill="white"/>
<path d="M184.377 128.763C184.08 128.763 183.685 128.763 182.598 127.315L181.841 126.492L180.194 125.175L177.427 122.74C177.098 122.443 177.032 121.95 177.295 121.588L178.382 119.975C178.58 119.679 178.975 119.547 179.304 119.613L182.269 120.337C182.368 120.37 182.466 120.403 182.532 120.469L185.628 122.476L186.649 123.036C188.527 123.398 189.152 123.76 189.152 124.484C189.152 124.78 189.054 125.044 188.922 125.241C188.922 125.57 188.79 125.9 188.527 126.229C188.033 126.788 186.946 126.821 186.089 126.755L185.2 126.624L185.562 127.447C185.76 127.874 185.562 128.368 185.167 128.566C185.068 128.631 184.805 128.763 184.377 128.763ZM187.11 125.044C187.11 125.011 187.11 124.978 187.11 124.945C186.847 124.879 186.485 124.813 186.188 124.748C186.089 124.748 186.023 124.715 185.925 124.649L184.739 123.99L181.709 122.016L179.469 121.456L179.14 121.917L181.281 123.826L182.137 124.517C182.17 124.484 182.17 124.451 182.203 124.418C182.433 124.089 182.895 123.958 183.257 124.122L184.904 124.813L186.254 125.011C186.517 125.044 186.814 125.011 187.011 125.011H187.11V125.044Z" fill="#0C1033"/>
<path d="M165.572 125.208L178.713 147.722L192.151 159.11L190.603 162.83C190.603 162.83 185.465 159.999 180.755 157.333C179.701 156.74 178.68 156.148 177.725 155.621C176.77 155.062 175.913 154.568 175.189 154.14C174.102 153.515 173.344 153.021 173.114 152.857C172.521 152.396 167.284 147.294 161.85 142.06C155.724 136.103 149.367 129.915 149.367 129.915L165.572 125.208Z" fill="#0C1033"/>
<path d="M175.485 175.37C175.386 174.515 175.518 173.79 176.242 173.494C178.284 172.638 178.943 175.403 179.404 176.325C179.865 177.247 181.709 179.287 182.171 180.999C182.632 182.71 181.347 184.949 180.326 185.442C179.338 186.068 177.955 182.908 177.428 181.657C176.901 180.406 174.793 177.279 174.793 177.279L175.485 175.37Z" fill="#0C1033"/>
<path d="M147.588 125.044L154.471 121.39C154.471 121.39 156.184 121.588 157.271 127.446C158.358 133.305 162.178 155.49 162.178 155.49L178.448 174.35C178.448 174.35 177.427 175.634 176.604 176.325C176.505 176.424 176.406 176.49 176.308 176.555C176.242 176.588 176.176 176.654 176.11 176.687C176.044 176.753 175.945 176.786 175.879 176.852C175.781 176.918 175.682 176.983 175.583 177.049C175.517 177.082 175.451 177.115 175.385 177.148C175.287 177.214 175.221 177.247 175.155 177.28C175.122 177.313 175.089 177.313 175.056 177.313C174.99 177.345 174.924 177.378 174.924 177.378L155.163 160.065C155.163 160.065 149.761 153.153 145.908 143.015C143.8 137.453 141.527 128.269 141.527 128.269L147.588 125.044Z" fill="#0C1033"/>
<path d="M149.595 133.207L151.934 134.984L154.042 137.222L155.063 137.979C155.063 137.979 156.314 138.736 156.347 139C156.38 139.23 156.314 139.395 156.314 139.395L154.668 138.868L153.712 138.407L154.338 139.065C154.338 139.065 156.611 140.777 156.281 141.139C155.952 141.501 155.656 141.534 155.656 141.534C155.656 141.534 155.162 141.764 154.898 141.797C154.602 141.83 151.901 140.415 151.901 140.415L149.859 137.946L147.883 135.543L149.595 133.207Z" fill="white"/>
<path d="M154.931 141.994C154.602 141.994 153.054 141.237 151.835 140.579L147.652 135.51L149.563 132.877L152.132 134.819L154.207 137.024L155.195 137.781C156.545 138.604 156.578 138.867 156.578 138.966C156.611 139.262 156.545 139.427 156.545 139.46L156.479 139.657L154.832 139.131C155.458 139.625 156.545 140.546 156.578 141.007C156.578 141.139 156.545 141.237 156.479 141.27C156.183 141.599 155.853 141.698 155.755 141.731C155.623 141.764 155.228 141.961 154.931 141.994ZM156.117 141.007C156.051 140.744 155.195 139.954 154.207 139.197L152.757 137.65L154.766 138.637L156.15 139.065C156.15 139.032 156.15 139.032 156.15 138.999C156.084 138.867 155.491 138.44 154.931 138.11L153.877 137.32L151.802 135.115L149.628 133.469L148.179 135.477L152.033 140.184C153.284 140.842 154.668 141.501 154.865 141.534C155.063 141.501 155.425 141.336 155.557 141.27L155.623 141.237C155.656 141.27 155.886 141.237 156.117 141.007Z" fill="#0C1033"/>
<path d="M156.707 97.6257C155.95 93.9063 155.653 90.2198 158.025 91.9314C162.339 95.0912 171.99 108.093 171.99 108.093L180.783 120.238C180.783 120.238 180.454 121.456 179.861 122.213C179.235 123.003 178.807 123.003 178.807 123.003C178.807 123.003 169.19 112.404 168.235 111.779C167.115 111.055 158.321 103.912 158.321 103.912C158.321 103.912 157.333 100.753 156.707 97.6257Z" fill="#1F5A7B"/>
<path d="M157.963 94.1366C161.652 97.461 168.173 105.854 170.577 109.113L178.548 120.139C174.892 116.124 169.985 110.857 169.128 110.298C168.404 109.837 163.2 105.657 159.807 102.892C159.511 101.905 158.885 99.5676 158.424 97.2964C158.128 95.8482 157.996 94.8607 157.963 94.1366ZM157.008 91.5034C155.789 91.5034 156.086 94.5645 156.711 97.6256C157.337 100.753 158.292 103.912 158.292 103.912C158.292 103.912 167.086 111.055 168.206 111.779C169.161 112.404 178.778 123.003 178.778 123.003C178.778 123.003 179.207 123.003 179.832 122.213C180.458 121.456 180.755 120.238 180.755 120.238L171.961 108.093C171.961 108.093 162.278 95.1241 157.996 91.9313C157.601 91.6351 157.271 91.5034 157.008 91.5034Z" fill="#0C1033"/>
<path d="M139.713 118.395C139.615 117.868 139.549 117.341 139.45 116.848C139.417 116.617 139.384 116.354 139.318 116.124C138.264 109.639 137.276 103.484 137.078 101.608C136.519 96.4404 142.085 94.8276 143.699 94.3339H143.731C150.022 92.4248 155.786 89.4954 158.355 92.4577C160.957 95.4201 166.951 126.492 166.951 126.492C166.951 126.492 161.846 130.079 155.654 132.515C152.361 133.799 148.935 134.325 146.366 134.523C143.995 134.72 142.381 134.655 142.381 134.655C142.381 134.655 141.195 127.545 139.911 119.843C139.911 119.81 139.911 119.744 139.878 119.678C139.845 119.25 139.779 118.823 139.713 118.395Z" fill="#1F5A7B"/>
<path d="M155.196 92.9188C156.348 92.9188 156.809 93.2809 157.073 93.5771C158.489 95.3216 162.178 111.055 165.043 125.669C163.331 126.788 159.444 129.158 155.031 130.87C151.869 132.12 148.51 132.581 146.237 132.779C145.315 132.845 144.491 132.877 143.866 132.91C143.438 130.442 142.581 125.142 141.659 119.547L139.913 119.679L141.626 119.382L141.428 118.099L141.198 116.749L141.165 116.519L141.066 116.025L141.033 115.795C139.749 107.928 138.991 102.925 138.794 101.378C138.53 98.8435 140.144 97.1977 144.129 95.9799L143.734 94.2683L144.228 95.947C145.512 95.552 146.764 95.1241 147.983 94.6962C150.782 93.8075 153.351 92.9188 155.196 92.9188ZM155.196 91.1743C152.231 91.1743 148.114 92.9846 143.767 94.3012H143.734C142.087 94.795 136.554 96.4078 137.114 101.575C137.311 103.452 138.3 109.607 139.353 116.091C139.386 116.321 139.419 116.585 139.485 116.815C139.584 117.342 139.65 117.868 139.749 118.362C139.815 118.79 139.88 119.218 139.946 119.646C139.946 119.712 139.946 119.744 139.979 119.81C141.231 127.512 142.449 134.622 142.449 134.622C142.449 134.622 142.746 134.622 143.306 134.622C143.997 134.622 145.117 134.589 146.435 134.49C149.004 134.293 152.429 133.766 155.723 132.482C161.915 130.047 167.02 126.459 167.02 126.459C167.02 126.459 160.992 95.3874 158.39 92.4251C157.6 91.5364 156.48 91.1743 155.196 91.1743Z" fill="#0C1033"/>
<path d="M137.08 99.7976C137.08 99.7976 135.532 118.855 135.895 120.731C136.257 122.608 148.674 136.926 148.674 136.926L151.408 134.062C151.408 134.062 141.626 119.942 141.56 118.954C141.494 117.967 144.689 101.575 144.985 99.5014C145.249 97.4607 138.563 92.9513 137.08 99.7976Z" fill="#1F5A7B"/>
<path d="M140.572 97.8885C141.724 97.8885 142.976 98.9418 143.207 99.4355C143.075 100.357 142.548 103.122 142.021 105.986C140.176 115.959 139.748 118.394 139.814 119.086C139.847 119.612 139.913 120.501 149.168 133.864L148.773 134.292C143.569 128.203 138.266 121.686 137.64 120.304C137.476 118.822 138.134 108.948 138.859 100.028C139.32 97.8885 140.242 97.8885 140.572 97.8885ZM140.572 96.144C139.09 96.144 137.706 97.0657 137.08 99.7976C137.08 99.7976 135.532 118.855 135.895 120.731C136.257 122.608 148.674 136.926 148.674 136.926L151.408 134.062C151.408 134.062 141.626 119.941 141.56 118.954C141.494 117.967 144.689 101.575 144.985 99.5014C145.15 98.2835 142.778 96.144 140.572 96.144Z" fill="#0C1033"/>
<path d="M198.569 209.668L186.844 216.449L192.608 219.773L204.333 212.993L198.569 209.668ZM202.094 225.237L213.852 218.456L207.462 214.77L195.704 221.55L202.094 225.237ZM180.85 199.399L169.092 206.179L173.571 208.779L185.296 201.999L180.85 199.399ZM171.957 194.297L160.199 201.077L164.053 203.316L175.811 196.535L171.957 194.297ZM189.71 204.533L177.952 211.314L183.057 214.276L194.815 207.496L189.71 204.533ZM225.709 213.98L193.827 232.379L231.999 236L225.709 213.98Z" fill="#97C3F9"/>
<path d="M31.9104 24.4892C39.4198 20.309 49.7287 21.0002 61.0916 27.5832L98.4408 49.1424L79.7333 60.0044L42.3511 38.4122C31.3505 32.0596 21.338 31.2038 13.8945 34.9561L31.9104 24.4892Z" fill="#1F5A7B"/>
<path d="M79.7368 60.8601C79.5721 60.8601 79.4404 60.8272 79.3086 60.7284L41.9265 39.1692C31.5517 33.1787 21.7368 31.9608 14.2933 35.746C13.8651 35.9435 13.3711 35.8119 13.1405 35.384C12.91 34.9561 13.0747 34.4624 13.4699 34.199L31.4858 23.7321C31.5187 23.6992 31.5517 23.6992 31.5846 23.6663C39.6539 19.2228 50.2922 20.3419 61.5233 26.7932L98.8725 48.3524C99.136 48.517 99.3007 48.7803 99.3007 49.1095C99.3007 49.4057 99.136 49.702 98.8725 49.8665L80.1649 60.7284C80.0332 60.7943 79.8685 60.8601 79.7368 60.8601ZM60.6669 28.3402C49.9628 22.1522 39.8844 21.066 32.3421 25.2791C32.3092 25.2791 32.2763 25.312 32.2763 25.312L20.6828 32.0267C27.3029 31.2038 34.9441 33.1129 42.8157 37.6551L79.7368 58.951L96.6987 49.1095L60.6669 28.3402Z" fill="#0C1033"/>
<path d="M79.7344 59.9717L99.2324 71.2286L79.7344 59.9717Z" fill="#1F5A7B"/>
<path d="M99.2332 72.084C99.5297 72.084 99.8261 71.9194 99.9908 71.6561C100.057 71.5244 100.123 71.3598 100.123 71.2282C100.123 70.9319 99.9578 70.6357 99.6944 70.4711L80.1963 59.2142C79.7682 58.9838 79.2412 59.1155 79.0106 59.5434C78.9448 59.675 78.8789 59.8396 78.8789 59.9713C78.8789 60.2675 79.0436 60.5637 79.3071 60.7283L98.8051 71.9852C98.9368 72.051 99.0686 72.084 99.2332 72.084Z" fill="#0C1033"/>
<path d="M42.3529 38.4125L79.7022 59.9718L79.5375 60.0705V89.2331L42.3529 67.7726C33.592 62.7037 26.4779 66.7852 26.4779 76.8242C26.4779 76.9558 26.4779 77.0875 26.4779 77.2192L0.886719 62.5391C0.886719 62.3746 0.886719 62.21 0.886719 62.0454C0.886719 35.7793 19.4625 25.1807 42.3529 38.4125Z" fill="#1F5A7B"/>
<path d="M79.5713 90.1213C79.4066 90.1213 79.2748 90.0884 79.1431 89.9896L41.9586 68.5291C37.9733 66.2251 34.2845 65.8301 31.5838 67.41C28.883 68.957 27.4009 72.3143 27.4009 76.8237V77.0211C27.4009 77.0211 27.4009 77.1857 27.4009 77.2186C27.4009 77.5478 27.2362 77.8111 26.9728 77.9757C26.7093 78.1403 26.3799 78.1403 26.0835 77.9757L0.459416 63.2956C0.195929 63.1311 0.03125 62.8677 0.03125 62.5386V62.0449C0.03125 49.0764 4.47759 39.3665 12.5139 34.6926C20.6491 30.0187 31.4191 31.0391 42.8149 37.622L80.1641 59.1813C80.4276 59.3459 80.5923 59.6092 80.5923 59.9383C80.5923 60.1358 80.5264 60.3004 80.4276 60.465V89.2326C80.4276 89.5617 80.2629 89.825 79.9994 89.9896C79.8677 90.0884 79.703 90.1213 79.5713 90.1213ZM41.9256 39.169C31.0897 32.9152 20.9455 31.8619 13.3703 36.2396C5.89383 40.5515 1.74391 49.7347 1.74391 62.0449L25.6224 75.7375C25.8529 71.1294 27.6315 67.6733 30.6616 65.9288C33.9551 64.0198 38.2697 64.4147 42.7819 67.0479L78.682 87.7514V60.3991L41.9256 39.169Z" fill="#0C1033"/>
<path d="M79.735 59.9717L99.233 71.2286V78.9636V100.589L79.5703 89.233V60.0704L79.735 59.9717Z" fill="#1F5A7B"/>
<path d="M99.2339 101.477C99.0692 101.477 98.9374 101.444 98.8057 101.345L79.143 89.9897C78.8795 89.8251 78.7148 89.5618 78.7148 89.2326V60.07C78.7148 59.7409 78.8795 59.4776 79.143 59.313L79.3077 59.2143C79.5712 59.0497 79.9005 59.0497 80.197 59.2143L99.695 70.4711C99.9585 70.6357 100.123 70.899 100.123 71.2282V100.588C100.123 100.917 99.9585 101.181 99.695 101.345C99.5303 101.411 99.3656 101.477 99.2339 101.477ZM80.4275 61.3866V88.7389L98.3446 99.0742V71.7219L80.4275 61.3866Z" fill="#0C1033"/>
<path d="M26.4818 77.2191C26.6464 87.1923 33.6947 99.2062 42.3568 104.209L79.5743 125.67V155.03L42.3568 133.569C19.5982 120.436 1.12118 88.7393 0.890625 62.5391L26.4818 77.2191Z" fill="#97C3F9"/>
<path d="M79.573 155.918C79.4083 155.918 79.2766 155.886 79.1448 155.787L41.9603 134.326C19.0369 121.127 0.230551 88.9367 0 62.5719C0 62.2427 0.164679 61.9794 0.428166 61.8148C0.691653 61.6503 1.02101 61.6503 1.31743 61.8148L26.9415 76.4949C27.205 76.6594 27.3697 76.9228 27.3697 77.2519C27.5344 86.896 34.4509 98.6795 42.8166 103.485L80.0341 124.946C80.2976 125.11 80.4622 125.406 80.4622 125.703C80.4622 125.736 80.4622 125.768 80.4622 125.801V155.063C80.4622 155.392 80.2976 155.655 80.0341 155.82C79.8694 155.886 79.7047 155.918 79.573 155.918ZM41.9273 104.966C33.1005 99.8644 26.0193 88.0151 25.6241 77.7456L1.77854 64.086C2.70074 89.595 20.8484 120.14 42.8166 132.812L78.7167 153.516V126.163L41.9273 104.966Z" fill="#0C1033"/>
<path d="M99.233 125.669H79.5703V166.385H99.233V125.669Z" fill="url(#paint0_linear)"/>
<path d="M79.5703 125.669L99.233 137.025V166.385L79.5703 155.03V125.669Z" fill="white"/>
<path d="M99.2339 167.241C99.0692 167.241 98.9374 167.208 98.8057 167.109L79.143 155.754C78.8795 155.589 78.7148 155.326 78.7148 154.997V125.67C78.7148 125.373 78.8795 125.077 79.143 124.912C79.4065 124.748 79.7359 124.748 80.0323 124.912L99.695 136.235C99.9585 136.4 100.123 136.663 100.123 136.992V166.352C100.123 166.681 99.9585 166.945 99.695 167.109C99.5303 167.208 99.3656 167.241 99.2339 167.241ZM80.4275 127.184V154.536L98.3446 164.871V137.519L80.4275 127.184Z" fill="#0C1033"/>
<path d="M26.4805 77.2188C26.4805 77.0871 26.4805 76.9555 26.4805 76.8238C26.4805 66.7848 33.5946 62.7363 42.3555 67.7722L42.9154 68.1014L26.4805 77.2188Z" fill="#1F5A7B"/>
<path d="M26.5801 78.0417C26.4155 78.0417 26.2837 78.0088 26.152 77.943C25.8226 77.8113 25.625 77.4164 25.625 77.0872V76.8239C25.625 71.6563 27.4365 67.7723 30.6971 65.8961C33.9907 63.9871 38.3053 64.3821 42.8175 67.0153L43.3774 67.3444C43.6409 67.509 43.8056 67.8052 43.8056 68.1014C43.8056 68.4306 43.6409 68.6939 43.3445 68.8585L27.0083 77.943C26.8766 78.0088 26.7448 78.0417 26.5801 78.0417ZM41.1048 68.1014C37.449 66.1924 34.0566 65.962 31.5205 67.4432C29.0503 68.8585 27.6011 71.7879 27.3706 75.7377L41.1048 68.1014Z" fill="#0C1033"/>
<path d="M26.5117 77.2185L42.9138 68.1011L45.5157 69.5822C46.9319 78.7984 53.3874 88.9033 61.0943 93.3468L98.2789 114.807L79.5713 125.669L42.3539 104.209C33.7247 99.2056 26.6764 87.1917 26.5117 77.2185Z" fill="#97C3F9"/>
<path d="M79.5739 126.558C79.4092 126.558 79.2775 126.526 79.1457 126.427L41.9282 104.966C32.9697 99.7986 25.8226 87.6201 25.625 77.2519C25.625 76.9886 25.7238 76.7582 25.9214 76.5936L25.9544 76.5607C26.0202 76.5278 26.0532 76.462 26.119 76.429L42.5211 67.3116C42.7846 67.147 43.1139 67.18 43.3774 67.3116L45.9793 68.7928C46.2099 68.9245 46.3746 69.1549 46.4075 69.4182C47.7908 78.5685 54.1804 88.3113 61.558 92.5573L98.7425 114.018C99.006 114.182 99.1707 114.446 99.1707 114.775C99.1707 115.071 99.006 115.367 98.7425 115.532L80.035 126.394C79.8703 126.526 79.7386 126.558 79.5739 126.558ZM60.6687 94.1373C52.9617 89.6938 46.3087 79.6547 44.7278 70.1752L42.9163 69.1219L27.4035 77.7456C27.7988 87.291 34.6494 98.7453 42.8175 103.485L79.5739 124.682L96.5358 114.841L60.6687 94.1373Z" fill="#0C1033"/>
<path d="M99.233 166.319L117.973 155.359V126.097L98.2779 114.84L79.5703 125.669L99.233 136.959V166.319Z" fill="white"/>
<path d="M99.2339 167.208C99.0692 167.208 98.9374 167.175 98.8057 167.076C98.5422 166.911 98.3775 166.648 98.3775 166.319V137.453L79.143 126.426C78.8795 126.262 78.7148 125.998 78.7148 125.669C78.7148 125.34 78.8795 125.077 79.143 124.912L97.8835 114.05C98.147 113.886 98.4763 113.886 98.7398 114.05L118.435 125.307C118.699 125.472 118.864 125.735 118.864 126.064V155.325C118.864 155.622 118.699 155.918 118.435 156.082L99.662 167.076C99.5303 167.175 99.3656 167.208 99.2339 167.208ZM117.118 126.591L98.3117 115.828L81.3168 125.669L99.662 136.202C99.9255 136.366 100.09 136.663 100.09 136.959V164.805L117.118 154.832V126.591Z" fill="#0C1033"/>
<path d="M117.53 125.333L98.7812 136.199L99.657 137.708L118.405 126.842L117.53 125.333Z" fill="#0C1033"/>
<path d="M79.7383 60.0044L99.401 71.3271V100.72L79.7383 89.3645V60.0044Z" fill="white"/>
<path d="M99.4018 101.576C99.2371 101.576 99.1054 101.543 98.9737 101.444L79.311 90.1211C79.0475 89.9566 78.8828 89.6932 78.8828 89.3641V60.004C78.8828 59.7078 79.0475 59.4115 79.311 59.247C79.5745 59.0824 79.9038 59.0824 80.2002 59.247L99.8629 70.5697C100.126 70.7343 100.291 70.9976 100.291 71.3267V100.687C100.291 101.016 100.126 101.279 99.8629 101.444C99.6983 101.543 99.5336 101.576 99.4018 101.576ZM80.5955 61.5181V88.8704L98.5126 99.2056V71.8534L80.5955 61.5181Z" fill="#0C1033"/>
<path d="M99.401 100.654L118.141 89.6935V60.4322L98.4458 49.1753L79.7383 60.0043L99.401 71.2941V100.654Z" fill="white"/>
<path d="M99.4018 101.543C99.2372 101.543 99.1054 101.51 98.9737 101.411C98.7102 101.246 98.5455 100.95 98.5455 100.654V71.7876L79.311 60.7611C79.0475 60.5966 78.8828 60.3333 78.8828 60.0041C78.8828 59.675 79.0475 59.4116 79.311 59.2471L98.0515 48.3851C98.315 48.2206 98.6443 48.2206 98.9078 48.3851L118.603 59.642C118.867 59.8066 119.032 60.0699 119.032 60.3991V89.6604C119.032 89.9567 118.867 90.2529 118.603 90.4175L99.83 101.411C99.6983 101.51 99.5336 101.543 99.4018 101.543ZM117.286 60.9257L98.4796 50.1626L81.4847 60.0041L99.83 70.5369C100.093 70.7014 100.258 70.9977 100.258 71.2939V99.1399L117.286 89.1667V60.9257Z" fill="#0C1033"/>
<path d="M117.684 59.6708L98.9375 70.5366L99.8133 72.0456L118.559 61.1798L117.684 59.6708Z" fill="#0C1033"/>
<defs>
<linearGradient id="paint0_linear" x1="177.126" y1="146.024" x2="79.5554" y2="146.024" gradientUnits="userSpaceOnUse">
<stop stop-color="#BBC4DA"/>
<stop offset="0.2622" stop-color="#D4DAF0"/>
<stop offset="0.4141" stop-color="#E5E9FF"/>
<stop offset="0.7975" stop-color="#F5F6FF"/>
<stop offset="1" stop-color="white"/>
</linearGradient>
</defs>
</svg>
