<svg id="Layer_1" data-name="Layer 1" xmlns="http://www.w3.org/2000/svg" xmlns:xlink="http://www.w3.org/1999/xlink" viewBox="0 0 316 266"><defs><style>.cls-1{fill:#1f5a7b;}.cls-2{fill:#fff;}.cls-3{fill:#0c1033;}.cls-4{fill:#ffd4c0;}.cls-5{fill:#97c3f9;}.cls-6{fill:url(#linear-gradient);}</style><linearGradient id="linear-gradient" x1="207.54" y1="105.59" x2="109.97" y2="105.59" gradientTransform="matrix(1, 0, 0, -1, 0, 265.89)" gradientUnits="userSpaceOnUse"><stop offset="0" stop-color="#bbc4da"/><stop offset="0.26" stop-color="#d4daf0"/><stop offset="0.41" stop-color="#e5e9ff"/><stop offset="0.8" stop-color="#f5f6ff"/><stop offset="1" stop-color="#fff"/></linearGradient></defs><title>2 step</title><circle class="cls-1" cx="258.41" cy="44.27" r="25"/><path class="cls-2" d="M267.46,52.49v3.78h-15.8V52.49h5.62V36L252,39.1V35l7.13-4.32h2.7V52.49h5.58Z"/><path class="cls-3" d="M221.51,175.09a1.6,1.6,0,0,1,1-1.78c2.11-.59,2.47,2.21,2.83,3.16s1.94,3.22,2.21,5a4.6,4.6,0,0,1-2.34,4.21c-1.05.53-2-2.8-2.44-4.08a45,45,0,0,0-2.11-4.64Z"/><path class="cls-2" d="M173.36,109.19c0.36,1.28,2.83,1.68,5.53.92s4.61-2.4,4.25-3.69-2.83-1.68-5.53-.92S173,107.94,173.36,109.19Z"/><path class="cls-4" d="M173.88,108.57c0.33,1.18,2.5,1.61,4.84,1s4-2.14,3.62-3.32-2.5-1.61-4.84-1S173.55,107.38,173.88,108.57Z"/><path class="cls-2" d="M173.42,104.13l0.46,4.41,8.46-2.37s-1.05-1.88-.46-3,6.85-6.29-.2-11.62-9.16,2.73-10,5-1.19,4.64-.89,5.17S173.06,103.67,173.42,104.13Z"/><path class="cls-3" d="M173.88,109.43a1,1,0,0,1-.49-0.16,0.78,0.78,0,0,1-.36-0.63l-0.43-4.11c-0.2-.2-0.59-0.49-0.86-0.72a7.34,7.34,0,0,1-1.71-1.68c-0.56-1.05.16-4.08,0.86-5.89l0.23-.59c0.69-2,2-5.66,5-6.55,1.81-.53,3.89.07,6.16,1.78s3.39,3.46,3.62,5.43c0.36,3-1.65,5.37-2.7,6.68-0.23.26-.4,0.49-0.49,0.63a3.08,3.08,0,0,0,.43,2.21,0.87,0.87,0,0,1,0,.76,0.84,0.84,0,0,1-.56.49l-8.46,2.37h-0.26Zm7.28-3.82a3.9,3.9,0,0,1,0-2.86,5.48,5.48,0,0,1,.69-0.92c1-1.18,2.57-3.13,2.31-5.37C184,95,183,93.56,181.2,92.21s-3.36-1.88-4.61-1.48c-2.14.66-3.26,3.79-3.85,5.46l-0.23.66a11.82,11.82,0,0,0-1,4.44,13.45,13.45,0,0,0,1.32,1.18,6.85,6.85,0,0,1,1.29,1.18,0.7,0.7,0,0,1,.16.43l0.36,3.39Z"/><path class="cls-3" d="M173.39,88.33c-2.37,1.38,2.14,7.21,2.14,7.21a11.29,11.29,0,0,0-1,3c0.1,0.59,1.18-1.32,2.14-.1s0.49,5.23,1,5.76c0.72,0.72,3.43.33,4.12-.53,0.56-.69,6.09-6.68,2-11.22S175.57,87,173.39,88.33Z"/><path class="cls-2" d="M208.43,136.35l2.77,2.44,1.61,1.28,0.86,0.92a4.84,4.84,0,0,0,1.15,1.18,1,1,0,0,0,.4-0.07l-0.69-1.58-1.15-1.32,1.75,0.76,1.51,0.23a3.11,3.11,0,0,0,1.68-.26,0.41,0.41,0,0,0,.1-0.59,0.89,0.89,0,0,0,.3-0.53c0-.3-1.91-0.63-1.91-0.63l-1.12-.59-3.13-2.07-3-.72Z"/><path class="cls-3" d="M214.79,143c-0.3,0-.69,0-1.78-1.45l-0.76-.82-1.65-1.32L207.84,137a0.86,0.86,0,0,1-.13-1.15l1.09-1.61a0.92,0.92,0,0,1,.92-0.36l3,0.72a0.66,0.66,0,0,1,.26.13l3.1,2,1,0.56c1.88,0.36,2.5.72,2.5,1.45a1.37,1.37,0,0,1-.23.76,1.58,1.58,0,0,1-.4,1,3.13,3.13,0,0,1-2.44.53l-0.89-.13,0.36,0.82a0.86,0.86,0,0,1-.39,1.12A1.46,1.46,0,0,1,214.79,143Zm2.73-3.72v-0.1l-0.92-.2a0.43,0.43,0,0,1-.26-0.1l-1.19-.66-3-2-2.24-.56-0.33.46,2.14,1.91,0.86,0.69s0-.07.07-0.1a0.88,0.88,0,0,1,1.05-.3l1.65,0.69,1.35,0.2a5.77,5.77,0,0,0,.76,0h0.1v0Z"/><path class="cls-3" d="M196,139.48L209.13,162l13.44,11.39L221,177.1s-5.14-2.83-9.85-5.5c-1.05-.59-2.08-1.18-3-1.71l-2.54-1.48c-1.09-.62-1.85-1.12-2.07-1.28-0.59-.46-5.83-5.56-11.26-10.8l-12.48-12.15Z"/><path class="cls-3" d="M205.9,189.64a1.58,1.58,0,0,1,.76-1.88c2-.86,2.7,1.91,3.16,2.83s2.3,3,2.77,4.67a4.52,4.52,0,0,1-1.85,4.44c-1,.63-2.37-2.53-2.9-3.79a43.25,43.25,0,0,0-2.63-4.38Z"/><path class="cls-3" d="M178,139.31l6.88-3.65s1.71,0.2,2.8,6.06,4.91,28,4.91,28l16.27,18.86a17.11,17.11,0,0,1-1.84,2,1.79,1.79,0,0,1-.3.23c-0.07,0-.13.1-0.2,0.13s-0.16.1-.23,0.17l-0.3.2-0.2.1-0.23.13a0.12,0.12,0,0,1-.1,0l-0.13.07-19.76-17.31a72,72,0,0,1-9.25-17.05c-2.11-5.56-4.38-14.75-4.38-14.75Z"/><path class="cls-2" d="M180,147.48l2.34,1.78,2.11,2.24,1,0.76a4.82,4.82,0,0,1,1.28,1,0.84,0.84,0,0,1,0,.4l-1.65-.53-1-.46,0.63,0.66s2.27,1.71,1.94,2.07a1.12,1.12,0,0,1-.62.39,3.66,3.66,0,0,1-.76.26,23.54,23.54,0,0,1-3-1.38l-2-2.47-2-2.4Z"/><path class="cls-3" d="M185.34,156.26a16,16,0,0,1-3.1-1.42l-4.18-5.07,1.91-2.63,2.57,1.94,2.07,2.21,1,0.76c1.35,0.82,1.38,1.09,1.38,1.18a1.38,1.38,0,0,1,0,.49l-0.07.2-1.65-.53c0.63,0.49,1.71,1.42,1.75,1.88a0.28,0.28,0,0,1-.1.26,1.61,1.61,0,0,1-.72.46A4.89,4.89,0,0,1,185.34,156.26Zm1.19-1a7.74,7.74,0,0,0-1.91-1.81l-1.45-1.55,2,1,1.38,0.43v-0.07a5.44,5.44,0,0,0-1.22-.89l-1.05-.79-2.07-2.21L180,147.74l-1.45,2,3.85,4.71a27.15,27.15,0,0,0,2.83,1.35,3.37,3.37,0,0,0,.69-0.26l0.07,0A0.58,0.58,0,0,0,186.53,155.28Z"/><path class="cls-1" d="M187.12,111.89c-0.76-3.72-1.05-7.41,1.32-5.69,4.31,3.16,14,16.16,14,16.16l8.79,12.14a6.59,6.59,0,0,1-.92,2,1.65,1.65,0,0,1-1.05.79s-9.62-10.6-10.57-11.22c-1.12-.72-9.91-7.87-9.91-7.87S187.75,115,187.12,111.89Z"/><path class="cls-3" d="M188.38,108.41c3.69,3.32,10.21,11.72,12.61,15l8,11c-3.66-4-8.56-9.28-9.42-9.84s-5.93-4.64-9.32-7.41c-0.3-1-.92-3.32-1.38-5.6A21.18,21.18,0,0,1,188.38,108.41Zm-1-2.63c-1.22,0-.92,3.06-0.3,6.12s1.58,6.29,1.58,6.29,8.79,7.14,9.91,7.87c1,0.63,10.57,11.22,10.57,11.22a1.65,1.65,0,0,0,1.05-.79,5.79,5.79,0,0,0,.92-2l-8.79-12.14s-9.68-13-14-16.16A1.76,1.76,0,0,0,187.42,105.77Z"/><path class="cls-1" d="M170.13,132.66c-0.1-.53-0.16-1.05-0.26-1.55a5.53,5.53,0,0,0-.13-0.72c-1.05-6.49-2-12.64-2.24-14.52-0.56-5.17,5-6.78,6.62-7.27h0c6.29-1.91,12.05-4.84,14.62-1.88s8.6,34,8.6,34a61,61,0,0,1-11.3,6,33.12,33.12,0,0,1-9.29,2,35.85,35.85,0,0,1-4,.13l-2.47-14.81a0.36,0.36,0,0,0,0-.17C170.26,133.52,170.19,133.09,170.13,132.66Z"/><path class="cls-3" d="M185.61,107.19a2.25,2.25,0,0,1,1.88.66c1.42,1.74,5.1,17.48,8,32.09a57.3,57.3,0,0,1-10,5.2,32,32,0,0,1-8.79,1.91c-0.92.07-1.75,0.1-2.37,0.13-0.43-2.47-1.29-7.77-2.21-13.36l-1.75.13,1.71-.3-0.2-1.28L171.61,131l0-.23-0.1-.49,0-.23c-1.28-7.87-2-12.87-2.24-14.42-0.26-2.53,1.35-4.18,5.33-5.4l-0.4-1.71,0.49,1.68c1.28-.39,2.54-0.82,3.76-1.25C181.2,108.08,183.76,107.19,185.61,107.19Zm0-1.74c-3,0-7.08,1.81-11.43,3.13h0c-1.65.49-7.18,2.11-6.62,7.27,0.2,1.88,1.19,8,2.24,14.52a5.57,5.57,0,0,0,.13.72c0.1,0.53.16,1.05,0.26,1.55l0.2,1.28a0.29,0.29,0,0,0,0,.16c1.25,7.7,2.47,14.81,2.47,14.81h0.86c0.69,0,1.81,0,3.13-.13a33.09,33.09,0,0,0,9.29-2,61,61,0,0,0,11.3-6s-6-31.07-8.63-34A4.08,4.08,0,0,0,185.61,105.44Z"/><path class="cls-1" d="M167.49,114.07s-1.55,19.06-1.18,20.93,12.78,16.19,12.78,16.19l2.73-2.86S172,134.21,172,133.22s3.13-17.38,3.43-19.45S169,107.22,167.49,114.07Z"/><path class="cls-3" d="M171,112.16a3.6,3.6,0,0,1,2.63,1.55c-0.13.92-.66,3.69-1.19,6.55-1.85,10-2.27,12.41-2.21,13.1,0,0.53.1,1.42,9.35,14.78l-0.4.43c-5.2-6.09-10.51-12.61-11.13-14-0.16-1.48.49-11.36,1.22-20.28C169.73,112.16,170.66,112.16,171,112.16Zm0-1.74c-1.48,0-2.87.92-3.49,3.65,0,0-1.55,19.06-1.18,20.93s12.78,16.19,12.78,16.19l2.73-2.86S172,134.21,172,133.22s3.13-17.38,3.43-19.45C175.56,112.55,173.19,110.41,171,110.41Z"/><path class="cls-5" d="M229,223.94l-11.73,6.78L223,234l11.72-6.78Zm3.52,15.57,11.76-6.78L237.88,229l-11.76,6.78Zm-21.24-25.84-11.76,6.78L204,223l11.73-6.78Zm-8.89-5.1-11.76,6.78,3.85,2.24,11.76-6.78Zm17.75,10.24-11.76,6.78,5.11,3,11.76-6.78Zm36,9.45-31.88,18.4,38.17,3.62Z"/><path class="cls-1" d="M62.32,38.76c7.51-4.18,17.82-3.49,29.18,3.09l37.35,21.56L110.15,74.27,72.76,52.68c-11-6.35-21-7.21-28.46-3.46Z"/><path class="cls-3" d="M110.15,75.13a0.66,0.66,0,0,1-.43-0.13L72.34,53.44C62,47.45,52.15,46.23,44.71,50a0.86,0.86,0,0,1-1.15-.36,0.9,0.9,0,0,1,.33-1.18L61.9,38S62,38,62,37.93c8.07-4.44,18.71-3.32,29.94,3.13l37.35,21.56a0.87,0.87,0,0,1,.43.76,0.91,0.91,0,0,1-.43.76L110.58,75A1.07,1.07,0,0,1,110.15,75.13ZM91.08,42.61c-10.7-6.19-20.78-7.27-28.32-3.06a0.11,0.11,0,0,0-.07,0L51.1,46.3c6.62-.82,14.26,1.09,22.13,5.63l36.92,21.3,17-9.84Z"/><path class="cls-1" d="M110.15,74.24l19.5,11.26Z"/><path class="cls-3" d="M129.65,86.35a0.91,0.91,0,0,0,.76-0.43,1.07,1.07,0,0,0,.13-0.43,0.91,0.91,0,0,0-.43-0.76l-19.5-11.26a0.86,0.86,0,0,0-1.19.33,1.07,1.07,0,0,0-.13.43,0.91,0.91,0,0,0,.43.76l19.5,11.26A0.91,0.91,0,0,0,129.65,86.35Z"/><path class="cls-1" d="M72.77,52.68l37.35,21.56-0.16.1V103.5L72.77,82C64,77,56.89,81.05,56.89,91.09v0.39L31.3,76.81V76.31C31.3,50,49.88,39.45,72.77,52.68Z"/><path class="cls-3" d="M110,104.39a0.66,0.66,0,0,1-.43-0.13L72.37,82.8c-4-2.3-7.67-2.7-10.37-1.12s-4.18,4.9-4.18,9.41v0.39a0.87,0.87,0,0,1-.43.76,0.86,0.86,0,0,1-.89,0L30.87,77.56a0.87,0.87,0,0,1-.43-0.76V76.31c0-13,4.45-22.68,12.48-27.35s18.91-3.65,30.3,2.93l37.35,21.56a0.87,0.87,0,0,1,.43.76,1,1,0,0,1-.16.53V103.5a0.87,0.87,0,0,1-.43.76A0.72,0.72,0,0,1,110,104.39Zm-37.65-51c-10.84-6.25-21-7.31-28.56-2.93S32.16,64,32.16,76.31L56,90c0.23-4.61,2-8.06,5-9.81,3.29-1.91,7.61-1.51,12.12,1.12L109.1,102V74.67Z"/><path class="cls-1" d="M110.15,74.24l19.5,11.26v29.36L110,103.5V74.34Z"/><path class="cls-3" d="M129.65,115.75a0.66,0.66,0,0,1-.43-0.13l-19.66-11.36a0.87,0.87,0,0,1-.43-0.76V74.34a0.87,0.87,0,0,1,.43-0.76l0.16-.1a0.86,0.86,0,0,1,.89,0l19.5,11.26a0.87,0.87,0,0,1,.43.76v29.36a0.87,0.87,0,0,1-.43.76A1.41,1.41,0,0,1,129.65,115.75ZM110.84,75.66V103l17.92,10.34V86Z"/><path class="cls-5" d="M56.9,91.49c0.16,10,7.21,22,15.88,27L110,139.94V169.3L72.77,147.84C50,134.7,31.53,103,31.3,76.81Z"/><path class="cls-3" d="M110,170.19a0.66,0.66,0,0,1-.43-0.13L72.37,148.59c-22.92-13.2-41.73-45.39-42-71.75a0.87,0.87,0,0,1,1.32-.76L57.35,90.76a0.87,0.87,0,0,1,.43.76c0.16,9.64,7.08,21.43,15.45,26.23l37.22,21.46a0.91,0.91,0,0,1,.43.76v29.36a0.87,0.87,0,0,1-.43.76A1.29,1.29,0,0,1,110,170.19Zm-37.65-51c-8.83-5.1-15.91-17-16.3-27.22L32.19,78.35c0.92,25.51,19.07,56.05,41,68.73l35.9,20.7V140.43Z"/><path class="cls-6" d="M129.65,139.94H110v40.72h19.66V139.94Z"/><path class="cls-2" d="M110,139.94l19.66,11.36v29.36L110,169.3V139.94Z"/><path class="cls-3" d="M129.65,181.51a0.66,0.66,0,0,1-.43-0.13L109.56,170a0.87,0.87,0,0,1-.43-0.76V139.94a0.91,0.91,0,0,1,.43-0.76,0.86,0.86,0,0,1,.89,0l19.66,11.32a0.87,0.87,0,0,1,.43.76v29.36a0.87,0.87,0,0,1-.43.76A0.9,0.9,0,0,1,129.65,181.51Zm-18.81-40.06V168.8l17.92,10.34V151.79Z"/><path class="cls-1" d="M56.89,91.49v-0.4C56.89,81.05,64,77,72.77,82l0.56,0.33Z"/><path class="cls-3" d="M57,92.31a0.91,0.91,0,0,1-.43-0.1A1,1,0,0,1,56,91.36V91.09c0-5.17,1.81-9.05,5.07-10.93s7.61-1.51,12.12,1.12l0.56,0.33a0.91,0.91,0,0,1,.43.76,0.84,0.84,0,0,1-.46.76L57.42,92.21A0.91,0.91,0,0,1,57,92.31Zm14.52-9.94c-3.66-1.91-7-2.14-9.58-.66S58,86.06,57.78,90Z"/><path class="cls-5" d="M56.93,91.49l16.4-9.12,2.6,1.48c1.42,9.22,7.87,19.32,15.58,23.76l37.18,21.46L110,139.94,72.77,118.48C64.14,113.47,57.09,101.46,56.93,91.49Z"/><path class="cls-3" d="M110,140.83a0.66,0.66,0,0,1-.43-0.13L72.34,119.23c-9-5.17-16.11-17.35-16.3-27.71a0.83,0.83,0,0,1,.3-0.66l0,0c0.07,0,.1-0.1.16-0.13l16.4-9.12a0.88,0.88,0,0,1,.86,0l2.6,1.48a0.85,0.85,0,0,1,.43.63c1.38,9.15,7.77,18.89,15.15,23.14l37.18,21.46a0.87,0.87,0,0,1,.43.76,0.91,0.91,0,0,1-.43.76l-18.71,10.86A0.66,0.66,0,0,1,110,140.83ZM91.08,108.41c-7.71-4.44-14.36-14.48-15.94-24l-1.81-1.05L57.82,92c0.4,9.55,7.25,21,15.41,25.74L110,139l17-9.84Z"/><path class="cls-2" d="M129.65,180.59l18.74-11V140.37l-19.7-11.26L110,139.94l19.66,11.29v29.36Z"/><path class="cls-3" d="M129.65,181.48a0.66,0.66,0,0,1-.43-0.13,0.87,0.87,0,0,1-.43-0.76V151.72l-19.23-11a0.88,0.88,0,0,1,0-1.51l18.74-10.86a0.81,0.81,0,0,1,.86,0l19.7,11.26a0.87,0.87,0,0,1,.43.76v29.26a0.91,0.91,0,0,1-.43.76l-18.77,11A0.72,0.72,0,0,1,129.65,181.48Zm17.88-40.62L128.73,130.1l-17,9.84,18.35,10.53a0.91,0.91,0,0,1,.43.76v27.85l17-10V140.86Z"/><path class="cls-3" d="M147.94,139.6l-18.75,10.87,0.88,1.51,18.75-10.87Z"/><path class="cls-2" d="M110.15,74.27L129.81,85.6V115l-19.66-11.36V74.27Z"/><path class="cls-3" d="M129.82,115.84a0.66,0.66,0,0,1-.43-0.13l-19.66-11.32a0.87,0.87,0,0,1-.43-0.76V74.27a0.91,0.91,0,0,1,.43-0.76,0.86,0.86,0,0,1,.89,0l19.66,11.32a0.87,0.87,0,0,1,.43.76V115a0.87,0.87,0,0,1-.43.76A0.9,0.9,0,0,1,129.82,115.84ZM111,75.79v27.35l17.92,10.34V86.12Z"/><path class="cls-2" d="M129.81,114.92l18.74-11V74.7l-19.7-11.26L110.15,74.27l19.66,11.29v29.36Z"/><path class="cls-3" d="M129.82,115.81a0.66,0.66,0,0,1-.43-0.13,0.91,0.91,0,0,1-.43-0.76V86.06L109.72,75a0.88,0.88,0,0,1,0-1.51l18.74-10.86a0.8,0.8,0,0,1,.86,0L149,73.91a0.87,0.87,0,0,1,.43.76v29.26a0.91,0.91,0,0,1-.43.76l-18.77,11A0.72,0.72,0,0,1,129.82,115.81ZM147.7,75.19L128.89,64.43l-17,9.84,18.35,10.53a0.91,0.91,0,0,1,.43.76v27.85l17-10V75.19Z"/><path class="cls-3" d="M148.1,73.94L129.35,84.81l0.88,1.51L149,75.45Z"/></svg>