<svg width="285" height="274" viewBox="0 0 285 274" fill="none" xmlns="http://www.w3.org/2000/svg">
<path d="M33.0233 70.4311L48.2329 65.361L42.3831 60.1396L27.1357 65.2475L33.0233 70.4311ZM42.7227 79.0578L57.9323 73.9877L51.4409 68.1987L36.1936 73.2688L42.7227 79.0578ZM13.6245 53.2155L28.8341 48.1455L24.2297 44.0591L9.05782 49.1292L13.6245 53.2155ZM3.92506 44.5889L19.1347 39.5188L15.2096 36L0 41.0701L3.92506 44.5889ZM23.3239 61.8422L38.4958 56.7722L33.2875 52.1183L18.1156 57.1884L23.3239 61.8422ZM74.7271 98.6948L72.689 71.6418L31.4382 85.4143L74.7271 98.6948Z" fill="#97C3F9"/>
<path d="M159.703 161.323C156.005 158.901 152.344 158.296 151.513 160.036C150.721 161.739 153.061 165.107 156.797 167.566C160.496 169.987 164.157 170.593 164.987 168.852C165.78 167.112 163.44 163.744 159.703 161.323Z" fill="#1F5A7B"/>
<path d="M162.91 170.707C161.099 170.707 158.683 169.836 156.305 168.285C152.72 165.939 149.55 162.118 150.72 159.658C151.022 159.015 151.588 158.523 152.38 158.296C154.23 157.767 157.249 158.637 160.193 160.566C163.778 162.912 166.948 166.734 165.778 169.193C165.477 169.836 164.91 170.328 164.118 170.555C163.74 170.669 163.363 170.707 162.91 170.707ZM153.588 159.923C153.324 159.923 153.097 159.961 152.871 159.999C152.456 160.112 152.343 160.339 152.343 160.377C151.89 161.361 153.588 164.35 157.287 166.772C160.117 168.626 162.533 169.117 163.627 168.815C164.042 168.701 164.156 168.474 164.156 168.436C164.609 167.453 162.91 164.464 159.212 162.042C156.909 160.529 154.834 159.923 153.588 159.923Z" fill="#0C1033"/>
<path d="M156.075 93.9371C154.414 92.8398 152.792 92.6128 152.452 93.3695C152.112 94.1263 153.131 95.6397 154.792 96.6991C156.452 97.7964 158.075 98.0234 158.415 97.2667C158.755 96.51 157.736 94.9965 156.075 93.9371Z" fill="#1F5A7B"/>
<path d="M157.51 98.5908C156.604 98.5908 155.434 98.1746 154.302 97.4179C152.566 96.2828 150.981 94.391 151.622 92.9532C151.811 92.537 152.188 92.2343 152.679 92.083C153.66 91.8181 155.094 92.1965 156.566 93.1424C158.302 94.2775 159.887 96.1693 159.246 97.6071C159.057 98.0233 158.68 98.326 158.189 98.4773C157.963 98.5908 157.736 98.5908 157.51 98.5908ZM153.283 93.8234C153.396 94.2018 153.962 95.1099 155.283 95.9801C156.415 96.7368 157.246 96.8882 157.585 96.8503C157.472 96.472 156.868 95.5639 155.585 94.6937C154.453 93.9369 153.585 93.7856 153.283 93.8234Z" fill="#0C1033"/>
<path d="M57.3357 111.423C55.1467 110.591 53.1842 110.78 52.92 111.802C52.6558 112.823 54.2032 114.299 56.3922 115.131C58.5811 115.964 60.5437 115.774 60.8078 114.753C61.072 113.731 59.5246 112.256 57.3357 111.423Z" fill="#1F5A7B"/>
<path d="M58.9591 116.531C58.091 116.531 57.1098 116.342 56.0908 115.963C53.7508 115.093 51.6373 113.315 52.0525 111.574C52.1657 111.044 52.5431 110.666 53.0337 110.363C54.0905 109.796 55.7888 109.909 57.6381 110.59C59.9781 111.461 62.0916 113.239 61.6764 114.979C61.5632 115.509 61.1858 115.887 60.6952 116.19C60.2423 116.417 59.6384 116.531 58.9591 116.531ZM54.7698 111.801C54.2037 111.801 53.864 111.915 53.7886 112.028C53.7131 112.331 54.6943 113.504 56.7324 114.298C58.6194 115.017 59.8271 114.752 59.9781 114.525C60.0536 114.223 59.0723 113.05 57.0343 112.255C56.0908 111.915 55.3359 111.801 54.7698 111.801Z" fill="#0C1033"/>
<path d="M88.6338 126.665C88.5584 126.514 88.0677 126.249 88.0677 126.249C86.86 125.644 84.4446 126.362 81.916 128.027C78.859 130.033 76.5945 132.87 77.3493 134.232C77.4626 134.422 77.689 134.762 78.0287 134.951C79.4628 135.708 81.765 134.951 84.3314 133.287C87.5016 131.206 89.2754 128.519 88.6338 126.665Z" fill="#97C3F9"/>
<path d="M79.3859 136.124C78.7443 136.124 78.1782 135.973 77.6498 135.708C77.1215 135.443 76.7818 134.989 76.5931 134.649C75.4231 132.643 78.1405 129.427 81.4239 127.27C84.2922 125.379 86.9341 124.698 88.4437 125.454C89.274 125.871 89.425 126.249 89.4627 126.4C90.2553 128.67 88.4437 131.66 84.8583 134.005C82.7071 135.405 80.8578 136.124 79.3859 136.124ZM87.0473 126.93C86.066 126.93 84.3677 127.498 82.4052 128.746C79.1972 130.865 77.8008 133.173 78.1405 133.741C78.2537 133.93 78.3669 134.043 78.4801 134.119C79.4991 134.649 81.4617 134.081 83.8771 132.492C86.4812 130.789 88.1418 128.519 87.8399 127.157C87.8021 127.119 87.7267 127.081 87.6512 127.043C87.5002 126.968 87.3115 126.93 87.0473 126.93Z" fill="#0C1033"/>
<path d="M182.722 141.876C182.684 141.762 182.269 141.535 182.269 141.535C181.25 141.081 179.288 141.611 177.212 142.935C174.683 144.524 172.796 146.719 173.476 147.778C173.551 147.929 173.778 148.194 174.042 148.346C175.212 148.951 177.137 148.346 179.25 147.021C181.741 145.432 183.251 143.313 182.722 141.876Z" fill="#97C3F9"/>
<path d="M175.06 149.481C174.494 149.481 174.003 149.367 173.588 149.14C173.135 148.913 172.833 148.535 172.645 148.232C171.55 146.454 173.966 143.843 176.683 142.14C179.098 140.627 181.325 140.097 182.608 140.703C183.288 141.043 183.439 141.308 183.514 141.535C184.193 143.427 182.684 145.848 179.627 147.778C177.853 148.913 176.306 149.481 175.06 149.481ZM181.363 142.254C180.646 142.254 179.363 142.594 177.626 143.654C175.098 145.243 174.041 146.908 174.154 147.286C174.23 147.4 174.305 147.475 174.381 147.513C175.173 147.929 176.758 147.438 178.683 146.227C180.872 144.865 182.004 143.238 181.891 142.33C181.853 142.33 181.853 142.292 181.816 142.292C181.74 142.292 181.589 142.254 181.363 142.254Z" fill="#0C1033"/>
<path d="M50.5227 141.353C50.485 141.315 50.4472 141.239 50.4472 141.201C50.4095 141.164 50.3718 141.126 50.3718 141.126L50.183 141.012C49.466 140.672 48.0318 141.05 46.5222 141.996C44.7484 143.169 43.5784 144.758 43.9181 145.628L44.069 145.855L44.1068 145.893C44.1068 145.893 44.22 146.007 44.2955 146.007C45.2012 146.309 46.4844 146.007 47.9563 145.023C49.7679 143.85 50.9001 142.223 50.5227 141.353Z" fill="#1F5A7B"/>
<path d="M45.0112 147.028C44.6715 147.028 44.3319 146.99 44.0299 146.877C43.9167 146.839 43.7657 146.763 43.5393 146.574L43.5016 146.536L43.4638 146.498L43.3883 146.423L43.1619 146.044L43.1242 145.969C42.5203 144.455 44.2186 142.45 46.0679 141.277C47.4266 140.369 49.3514 139.612 50.5969 140.218L50.6723 140.255L50.9365 140.445C51.012 140.482 51.0498 140.558 51.0875 140.596L51.1252 140.634C51.2007 140.747 51.2762 140.861 51.3517 140.974C52.0688 142.488 50.3327 144.531 48.4456 145.779C47.1624 146.612 46.0302 147.028 45.0112 147.028ZM44.747 145.212C45.4264 145.325 46.3699 144.985 47.4266 144.304C48.974 143.282 49.6533 142.147 49.6911 141.807C49.3514 141.731 48.2947 141.882 46.9737 142.753C45.4641 143.736 44.8225 144.834 44.747 145.212Z" fill="#0C1033"/>
<path d="M182.08 80.5806C182.155 80.5049 182.193 80.4671 182.269 80.3914C182.306 80.3536 182.344 80.2779 182.344 80.2022L182.419 79.8996C182.608 78.7266 181.514 76.7213 179.589 74.9051C177.249 72.7106 174.532 71.6134 173.475 72.4458L173.211 72.7485L173.173 72.7863C173.173 72.7863 173.06 73.0133 173.06 73.089C173.022 74.5268 173.928 76.3051 175.89 78.1212C178.268 80.3914 181.061 81.4887 182.08 80.5806Z" fill="#97C3F9"/>
<path d="M181.06 81.7914C179.324 81.7914 177.06 80.505 175.286 78.8023C173.21 76.8727 172.116 74.8673 172.191 73.089C172.191 73.0134 172.191 72.8242 172.38 72.4458L172.418 72.3701C172.418 72.3323 172.455 72.2945 172.455 72.2945L172.493 72.2188L172.87 71.7648L172.946 71.7269C174.607 70.4783 177.852 72.0296 180.23 74.262C182.381 76.2673 183.589 78.5375 183.325 80.0888L183.287 80.2023L183.174 80.6185C183.136 80.732 183.098 80.8076 183.023 80.8833L182.985 80.9212C182.91 81.0725 182.796 81.186 182.645 81.2995C182.23 81.64 181.702 81.7914 181.06 81.7914ZM173.965 73.2404C173.965 74.489 174.871 76.0024 176.494 77.5159C178.796 79.6726 181.023 80.3158 181.475 79.8996C181.475 79.8996 181.475 79.8996 181.513 79.8617L181.551 79.7104C181.626 79.0293 180.909 77.3267 178.985 75.5484C176.682 73.4296 174.607 72.8242 174.04 73.1269L173.965 73.2404Z" fill="#0C1033"/>
<path d="M281.758 266.924V270.859C281.758 271.162 281.645 271.464 281.456 271.691C281.267 271.956 280.965 272.146 280.626 272.259C280.513 272.297 280.399 272.335 280.286 272.335C280.173 272.335 280.06 272.373 279.984 272.373H205.786C204.88 272.373 204.125 271.805 204.012 271.086C204.012 271.048 204.012 270.973 204.012 270.935V266.848C204.012 266.811 204.012 266.735 204.012 266.697C204.125 265.978 204.88 265.411 205.786 265.411H279.984C280.097 265.411 280.211 265.411 280.286 265.448C280.399 265.448 280.513 265.486 280.626 265.524C280.965 265.638 281.267 265.827 281.456 266.092C281.645 266.319 281.758 266.621 281.758 266.924Z" fill="#97C3F9"/>
<path d="M279.982 273.621H205.784C204.274 273.621 203.028 272.638 202.764 271.313C202.764 271.238 202.727 271.124 202.727 271.011V270.973V266.849C202.727 266.735 202.727 266.622 202.764 266.508C203.028 265.184 204.274 264.2 205.784 264.2H279.982C280.133 264.2 280.322 264.2 280.473 264.238C280.662 264.276 280.85 264.314 281.001 264.352C281.567 264.541 282.058 264.881 282.435 265.335C282.813 265.789 283.002 266.357 283.002 266.962V270.897C283.002 271.503 282.813 272.07 282.398 272.524C282.02 272.978 281.53 273.319 280.964 273.508C280.813 273.546 280.624 273.584 280.435 273.621C280.322 273.621 280.171 273.621 279.982 273.621ZM205.255 270.859C205.293 270.935 205.482 271.124 205.784 271.124H279.982C280.02 271.124 280.058 271.124 280.095 271.124C280.171 271.124 280.209 271.086 280.209 271.086C280.397 271.011 280.473 270.935 280.473 270.935C280.511 270.897 280.511 270.897 280.511 270.859V266.924C280.511 266.924 280.511 266.887 280.473 266.887C280.435 266.811 280.322 266.773 280.209 266.735C280.171 266.735 280.133 266.697 280.095 266.697C280.058 266.697 280.02 266.697 279.945 266.697H205.784C205.444 266.697 205.255 266.887 205.255 266.924V270.859Z" fill="#0C1033"/>
<path d="M245.338 272.373H205.597C204.842 272.373 204.238 271.881 204.049 271.237C204.049 271.2 204.012 271.124 204.012 271.086C204.012 271.048 204.012 270.973 204.012 270.935V266.848C204.012 266.811 204.012 266.735 204.012 266.697C204.012 266.659 204.049 266.584 204.049 266.546C204.238 265.903 204.842 265.411 205.597 265.411H240.469C240.998 267.454 242.319 270.292 245.338 272.373Z" fill="#97C3F9"/>
<path d="M249.374 273.621H205.595C204.312 273.621 203.217 272.789 202.84 271.616C202.802 271.503 202.764 271.389 202.764 271.313C202.764 271.238 202.727 271.124 202.727 271.011V270.973V266.849C202.727 266.735 202.727 266.622 202.764 266.508C202.764 266.433 202.802 266.319 202.84 266.206C203.179 265.033 204.312 264.2 205.595 264.2H241.411L241.675 265.108C242.166 266.924 243.336 269.497 246.053 271.351L249.374 273.621ZM205.255 270.859V270.897C205.293 271.011 205.406 271.124 205.595 271.124H242.053C240.769 269.649 239.977 268.06 239.524 266.697H205.595C205.406 266.697 205.293 266.811 205.255 266.924V266.962V270.859Z" fill="#0C1033"/>
<path d="M272.737 265.411H271.906V272.372H272.737V265.411Z" fill="#97C3F9"/>
<path d="M274.019 264.162H270.66V273.621H274.019V264.162Z" fill="#0C1033"/>
<path d="M269.865 265.411H269.035V272.372H269.865V265.411Z" fill="#97C3F9"/>
<path d="M271.148 264.162H267.789V273.621H271.148V264.162Z" fill="#0C1033"/>
<path d="M266.471 265.411H265.641V272.372H266.471V265.411Z" fill="#97C3F9"/>
<path d="M267.714 264.162H264.355V273.621H267.714V264.162Z" fill="#0C1033"/>
<path d="M261.225 265.411H260.395V272.372H261.225V265.411Z" fill="#97C3F9"/>
<path d="M262.468 264.162H259.109V273.621H262.468V264.162Z" fill="#0C1033"/>
<path d="M255.678 265.411H254.848V272.372H255.678V265.411Z" fill="#97C3F9"/>
<path d="M256.921 264.162H253.562V273.621H256.921V264.162Z" fill="#0C1033"/>
<path d="M247.147 265.411H246.316V272.372H247.147V265.411Z" fill="#97C3F9"/>
<path d="M248.429 264.162H245.07V273.621H248.429V264.162Z" fill="#0C1033"/>
<path d="M239.182 265.411H238.352V272.372H239.182V265.411Z" fill="#97C3F9"/>
<path d="M240.464 264.162H237.105V273.621H240.464V264.162Z" fill="#0C1033"/>
<path d="M232.088 265.411H231.258V272.372H232.088V265.411Z" fill="#97C3F9"/>
<path d="M233.371 264.162H230.012V273.621H233.371V264.162Z" fill="#0C1033"/>
<path d="M275.455 265.411H274.625V272.372H275.455V265.411Z" fill="#97C3F9"/>
<path d="M276.738 264.162H273.379V273.621H276.738V264.162Z" fill="#0C1033"/>
<path d="M277.225 265.411H276.395V272.372H277.225V265.411Z" fill="#97C3F9"/>
<path d="M278.507 264.162H275.148V273.621H278.507V264.162Z" fill="#0C1033"/>
<path d="M278.963 265.411H278.133V272.372H278.963V265.411Z" fill="#97C3F9"/>
<path d="M280.246 264.162H276.887V273.621H280.246V264.162Z" fill="#0C1033"/>
<path d="M280.283 265.448V272.335C280.17 272.335 280.057 272.372 279.981 272.372H279.453V265.411H279.981C280.095 265.411 280.17 265.448 280.283 265.448Z" fill="#97C3F9"/>
<path d="M279.981 273.621H278.207V264.162H279.981C280.132 264.162 280.321 264.162 280.472 264.2L281.528 264.351V273.394L280.472 273.546C280.321 273.621 280.132 273.621 279.981 273.621Z" fill="#0C1033"/>
<path d="M281.451 266.092V271.692C281.263 271.957 280.961 272.146 280.621 272.259V265.524C280.961 265.638 281.263 265.827 281.451 266.092Z" fill="#97C3F9"/>
<path d="M279.375 274V263.822L280.998 264.351C281.564 264.541 282.055 264.881 282.432 265.335L282.696 265.676V272.184L282.432 272.524C282.055 272.978 281.564 273.319 280.998 273.508L279.375 274Z" fill="#0C1033"/>
<path d="M273.832 260V263.935C273.832 264.238 273.719 264.541 273.53 264.768C273.342 265.033 273.04 265.222 272.7 265.335C272.587 265.373 272.474 265.411 272.36 265.411C272.323 265.411 272.247 265.411 272.209 265.411C272.172 265.411 272.096 265.411 272.058 265.411H197.86C196.954 265.411 196.199 264.844 196.086 264.125C196.086 264.087 196.086 264.011 196.086 263.973C196.086 263.935 196.086 263.935 196.086 263.898V259.963C196.086 259.925 196.086 259.925 196.086 259.887C196.086 259.849 196.086 259.773 196.086 259.736C196.199 259.017 196.954 258.449 197.86 258.449H272.058C272.096 258.449 272.172 258.449 272.209 258.449H272.247C272.285 258.449 272.285 258.449 272.323 258.449H272.36C272.474 258.449 272.587 258.487 272.7 258.525H272.738H272.776H272.813C272.851 258.525 272.851 258.525 272.851 258.563C272.851 258.563 272.889 258.563 272.889 258.601H272.927C272.964 258.601 272.964 258.638 273.002 258.638C273.077 258.676 273.153 258.714 273.228 258.79C273.266 258.828 273.304 258.828 273.304 258.865C273.379 258.941 273.417 258.979 273.493 259.055C273.719 259.395 273.832 259.698 273.832 260Z" fill="#97C3F9"/>
<path d="M272.056 266.698H197.858C196.348 266.698 195.103 265.714 194.839 264.39C194.839 264.314 194.801 264.2 194.801 264.087V264.011C194.801 264.011 194.801 263.973 194.801 263.936V260.001C194.801 259.963 194.801 259.925 194.801 259.887V259.849C194.801 259.736 194.801 259.622 194.839 259.509C195.103 258.184 196.348 257.201 197.858 257.201H272.056C272.132 257.201 272.207 257.201 272.245 257.201C272.283 257.201 272.283 257.201 272.321 257.201L272.585 257.239C272.736 257.276 272.924 257.314 273.075 257.352L273.491 257.503C273.528 257.503 273.528 257.541 273.566 257.541C273.604 257.579 273.679 257.579 273.717 257.617C273.83 257.693 273.944 257.768 274.057 257.844C274.094 257.882 274.17 257.92 274.208 257.957C274.321 258.071 274.434 258.184 274.51 258.298C274.887 258.79 275.113 259.357 275.113 259.925V263.86C275.113 264.465 274.925 265.033 274.547 265.487C274.17 265.941 273.679 266.281 273.113 266.471C272.925 266.546 272.736 266.584 272.585 266.584C272.509 266.584 272.434 266.584 272.358 266.622C272.245 266.66 272.132 266.698 272.056 266.698ZM197.292 263.898C197.329 263.973 197.518 264.163 197.82 264.163H272.019H272.056C272.094 264.163 272.132 264.163 272.132 264.163C272.17 264.163 272.207 264.163 272.245 264.125C272.358 264.087 272.434 264.049 272.509 263.973L272.547 263.936V260.001C272.547 260.001 272.547 259.963 272.509 259.925L272.472 259.887L272.434 259.849C272.396 259.849 272.396 259.811 272.358 259.811L272.321 259.774L272.245 259.736C272.207 259.736 272.17 259.736 272.132 259.698H272.056H272.019H197.858C197.518 259.698 197.329 259.887 197.329 259.963C197.329 259.963 197.329 259.963 197.329 260.001V263.898H197.292Z" fill="#0C1033"/>
<path d="M237.412 265.411H197.671C196.916 265.411 196.312 264.919 196.124 264.276C196.124 264.238 196.086 264.162 196.086 264.125C196.086 264.087 196.086 264.011 196.086 263.973C196.086 263.935 196.086 263.935 196.086 263.898V259.963C196.086 259.925 196.086 259.925 196.086 259.887C196.086 259.849 196.086 259.773 196.086 259.736C196.086 259.698 196.124 259.622 196.124 259.584C196.312 258.941 196.916 258.449 197.671 258.449H232.544C232.544 258.487 232.581 258.563 232.581 258.638C232.883 259.698 233.374 260.909 234.204 262.157C234.959 263.33 235.978 264.465 237.412 265.411Z" fill="#97C3F9"/>
<path d="M241.449 266.698H197.669C196.386 266.698 195.291 265.865 194.914 264.692C194.876 264.579 194.839 264.503 194.839 264.39C194.839 264.314 194.801 264.2 194.801 264.087V264.011C194.801 264.011 194.801 263.973 194.801 263.936V260.001C194.801 259.963 194.801 259.925 194.801 259.887V259.849C194.801 259.736 194.801 259.622 194.839 259.509C194.839 259.433 194.876 259.32 194.914 259.206C195.254 258.033 196.386 257.201 197.669 257.201H233.448L233.712 258.071C233.712 258.109 233.749 258.147 233.749 258.184V258.222C234.089 259.395 234.58 260.455 235.221 261.401C235.976 262.536 236.957 263.519 238.09 264.314L241.449 266.698ZM197.292 263.898V263.936C197.329 264.049 197.443 264.163 197.631 264.163H234.127C233.787 263.746 233.448 263.292 233.146 262.838C232.504 261.892 231.976 260.833 231.598 259.698H197.669C197.48 259.698 197.367 259.811 197.329 259.925V259.963V263.898H197.292Z" fill="#0C1033"/>
<path d="M264.811 258.487H263.98V265.449H264.811V258.487Z" fill="#97C3F9"/>
<path d="M266.093 257.238H262.734V266.697H266.093V257.238Z" fill="#0C1033"/>
<path d="M261.944 258.487H261.113V265.449H261.944V258.487Z" fill="#97C3F9"/>
<path d="M263.226 257.238H259.867V266.697H263.226V257.238Z" fill="#0C1033"/>
<path d="M258.51 258.487H257.68V265.449H258.51V258.487Z" fill="#97C3F9"/>
<path d="M259.793 257.238H256.434V266.697H259.793V257.238Z" fill="#0C1033"/>
<path d="M253.264 258.487H252.434V265.449H253.264V258.487Z" fill="#97C3F9"/>
<path d="M254.546 257.238H251.188V266.697H254.546V257.238Z" fill="#0C1033"/>
<path d="M247.717 258.487H246.887V265.449H247.717V258.487Z" fill="#97C3F9"/>
<path d="M249 257.238H245.641V266.697H249V257.238Z" fill="#0C1033"/>
<path d="M239.225 258.487H238.395V265.449H239.225V258.487Z" fill="#97C3F9"/>
<path d="M240.507 257.238H237.148V266.697H240.507V257.238Z" fill="#0C1033"/>
<path d="M231.26 258.487H230.43V265.449H231.26V258.487Z" fill="#97C3F9"/>
<path d="M232.543 257.238H229.184V266.697H232.543V257.238Z" fill="#0C1033"/>
<path d="M224.166 258.487H223.336V265.449H224.166V258.487Z" fill="#97C3F9"/>
<path d="M225.41 257.238H222.051V266.697H225.41V257.238Z" fill="#0C1033"/>
<path d="M267.529 258.487H266.699V265.449H267.529V258.487Z" fill="#97C3F9"/>
<path d="M268.812 257.238H265.453V266.697H268.812V257.238Z" fill="#0C1033"/>
<path d="M269.303 258.487H268.473V265.449H269.303V258.487Z" fill="#97C3F9"/>
<path d="M270.586 257.238H267.227V266.697H270.586V257.238Z" fill="#0C1033"/>
<path d="M271.037 258.487H270.207V265.449H271.037V258.487Z" fill="#97C3F9"/>
<path d="M272.32 257.238H268.961V266.697H272.32V257.238Z" fill="#0C1033"/>
<path d="M272.362 258.487V265.373C272.248 265.373 272.135 265.411 272.06 265.411H271.531V258.449H272.06C272.173 258.487 272.248 258.487 272.362 258.487Z" fill="#97C3F9"/>
<path d="M272.059 266.66H270.285V257.201H272.059C272.21 257.201 272.399 257.201 272.55 257.239L273.606 257.39V266.433L272.55 266.584C272.399 266.66 272.21 266.66 272.059 266.66Z" fill="#0C1033"/>
<path d="M273.53 259.13V264.73C273.341 264.995 273.039 265.184 272.699 265.297V258.562C273.039 258.714 273.341 258.903 273.53 259.13Z" fill="#97C3F9"/>
<path d="M271.453 267.038V256.86L273.076 257.39C273.642 257.579 274.133 257.919 274.51 258.373L274.774 258.714V265.222L274.51 265.562C274.133 266.016 273.642 266.357 273.076 266.546L271.453 267.038Z" fill="#0C1033"/>
<path d="M277.679 253.227V257.162C277.679 257.465 277.565 257.767 277.377 257.994C277.188 258.259 276.886 258.448 276.546 258.562C276.433 258.6 276.32 258.638 276.207 258.638C276.093 258.638 275.98 258.676 275.905 258.676H201.668C201.366 258.676 201.102 258.6 200.838 258.486C200.31 258.259 199.932 257.805 199.895 257.276C199.895 257.238 199.895 257.238 199.895 257.2C199.895 257.162 199.895 257.162 199.895 257.124V253.189C199.895 253.151 199.895 253.151 199.895 253.114C199.895 253.076 199.895 253 199.895 252.962C200.008 252.243 200.763 251.676 201.668 251.676H275.867C275.98 251.676 276.093 251.676 276.169 251.714C276.282 251.714 276.395 251.751 276.509 251.789C276.848 251.903 277.15 252.092 277.339 252.357C277.565 252.622 277.679 252.924 277.679 253.227Z" fill="#97C3F9"/>
<path d="M275.865 259.886H201.666C201.213 259.886 200.761 259.811 200.345 259.621C199.44 259.205 198.76 258.411 198.647 257.465C198.647 257.389 198.609 257.276 198.609 257.2C198.609 257.2 198.609 257.162 198.609 257.124V253.189C198.609 253.151 198.609 253.114 198.609 253.114V253.076C198.609 252.962 198.647 252.849 198.647 252.735C198.874 251.411 200.157 250.427 201.666 250.427H275.865C276.016 250.427 276.167 250.427 276.356 250.465C276.544 250.503 276.695 250.541 276.884 250.579C277.45 250.768 277.941 251.108 278.318 251.562C278.696 252.054 278.884 252.584 278.884 253.189V257.124C278.884 257.73 278.696 258.297 278.318 258.751C277.941 259.205 277.45 259.546 276.884 259.735C276.733 259.773 276.544 259.848 276.356 259.848C276.243 259.886 276.054 259.886 275.865 259.886ZM201.138 257.124C201.138 257.162 201.213 257.238 201.364 257.313C201.478 257.351 201.591 257.389 201.704 257.389H275.903C275.978 257.389 275.978 257.389 276.016 257.389C276.092 257.389 276.129 257.389 276.167 257.351C276.28 257.313 276.393 257.238 276.431 257.162C276.469 257.124 276.469 257.124 276.469 257.124V253.189L276.431 253.151C276.393 253.076 276.28 253.038 276.167 253C276.129 253 276.092 252.962 276.054 252.962C276.016 252.962 275.978 252.962 275.941 252.962H201.666C201.327 252.962 201.138 253.151 201.138 253.227C201.138 253.227 201.138 253.227 201.138 253.265V257.124Z" fill="#0C1033"/>
<path d="M241.22 258.637H201.478C201.214 258.637 200.95 258.562 200.724 258.448C200.271 258.221 199.931 257.767 199.855 257.237C199.855 257.2 199.855 257.2 199.855 257.162C199.855 257.124 199.855 257.124 199.855 257.086V253.151C199.855 253.113 199.855 253.113 199.855 253.075C199.855 253.038 199.855 252.962 199.855 252.924C199.855 252.886 199.893 252.811 199.893 252.773C200.082 252.13 200.686 251.638 201.441 251.638H236.351C236.577 252.432 236.917 253.378 237.445 254.362C238.2 255.762 239.332 257.2 240.993 258.41C241.069 258.524 241.144 258.6 241.22 258.637Z" fill="#97C3F9"/>
<path d="M245.295 259.886H201.478C201.025 259.886 200.572 259.773 200.194 259.584C199.326 259.167 198.76 258.373 198.647 257.427C198.647 257.351 198.609 257.276 198.609 257.162C198.609 257.162 198.609 257.124 198.609 257.086V253.151C198.609 253.114 198.609 253.076 198.609 253.076V253.038C198.609 252.924 198.647 252.811 198.647 252.697C198.647 252.622 198.685 252.508 198.723 252.433C199.062 251.26 200.194 250.427 201.478 250.427H237.294L237.558 251.335C237.784 252.206 238.124 253.038 238.539 253.795C239.332 255.232 240.389 256.481 241.71 257.427C241.785 257.465 241.86 257.54 241.936 257.578L245.295 259.886ZM201.138 257.124C201.138 257.238 201.213 257.313 201.289 257.351C201.327 257.389 201.402 257.389 201.478 257.389H237.973C237.332 256.67 236.803 255.876 236.35 255.005C236.011 254.362 235.709 253.681 235.445 252.962H201.515C201.327 252.962 201.213 253.076 201.176 253.189V253.227V257.124H201.138Z" fill="#0C1033"/>
<path d="M268.619 251.714H267.789V258.676H268.619V251.714Z" fill="#97C3F9"/>
<path d="M269.902 250.465H266.543V259.924H269.902V250.465Z" fill="#0C1033"/>
<path d="M265.787 251.714H264.957V258.676H265.787V251.714Z" fill="#97C3F9"/>
<path d="M267.031 250.465H263.672V259.924H267.031V250.465Z" fill="#0C1033"/>
<path d="M262.354 251.714H261.523V258.676H262.354V251.714Z" fill="#97C3F9"/>
<path d="M263.636 250.465H260.277V259.924H263.636V250.465Z" fill="#0C1033"/>
<path d="M257.108 251.714H256.277V258.676H257.108V251.714Z" fill="#97C3F9"/>
<path d="M258.39 250.465H255.031V259.924H258.39V250.465Z" fill="#0C1033"/>
<path d="M251.561 251.714H250.73V258.676H251.561V251.714Z" fill="#97C3F9"/>
<path d="M252.843 250.465H249.484V259.924H252.843V250.465Z" fill="#0C1033"/>
<path d="M243.069 251.714H242.238V258.676H243.069V251.714Z" fill="#97C3F9"/>
<path d="M244.312 250.465H240.953V259.924H244.312V250.465Z" fill="#0C1033"/>
<path d="M235.104 251.714H234.273V258.676H235.104V251.714Z" fill="#97C3F9"/>
<path d="M236.347 250.465H232.988V259.924H236.347V250.465Z" fill="#0C1033"/>
<path d="M227.971 251.714H227.141V258.676H227.971V251.714Z" fill="#97C3F9"/>
<path d="M229.253 250.465H225.895V259.924H229.253V250.465Z" fill="#0C1033"/>
<path d="M271.338 251.714H270.508V258.676H271.338V251.714Z" fill="#97C3F9"/>
<path d="M272.621 250.465H269.262V259.924H272.621V250.465Z" fill="#0C1033"/>
<path d="M273.147 251.714H272.316V258.676H273.147V251.714Z" fill="#97C3F9"/>
<path d="M274.429 250.465H271.07V259.924H274.429V250.465Z" fill="#0C1033"/>
<path d="M274.881 251.714H274.051V258.676H274.881V251.714Z" fill="#97C3F9"/>
<path d="M276.164 250.465H272.805V259.924H276.164V250.465Z" fill="#0C1033"/>
<path d="M276.205 251.752V258.638C276.092 258.638 275.979 258.676 275.903 258.676H275.375V251.714H275.903C275.979 251.714 276.092 251.714 276.205 251.752Z" fill="#97C3F9"/>
<path d="M275.864 259.886H274.09V250.427H275.864C276.015 250.427 276.203 250.427 276.354 250.465L277.411 250.616V259.659L276.354 259.811C276.203 259.886 276.052 259.886 275.864 259.886Z" fill="#0C1033"/>
<path d="M277.373 252.395V257.994C277.185 258.259 276.883 258.449 276.543 258.562V251.827C276.845 251.941 277.147 252.13 277.373 252.395Z" fill="#97C3F9"/>
<path d="M275.258 260.265V250.087L276.881 250.617C277.447 250.806 277.937 251.146 278.315 251.6L278.579 251.941V258.449L278.315 258.789C277.937 259.243 277.447 259.584 276.881 259.773L275.258 260.265Z" fill="#0C1033"/>
<path d="M279.457 246.266V250.201C279.457 250.503 279.344 250.806 279.155 251.033C279.118 251.109 279.042 251.147 278.967 251.222C278.778 251.411 278.551 251.525 278.287 251.601C278.174 251.638 278.061 251.676 277.948 251.676C277.91 251.676 277.834 251.676 277.797 251.676C277.759 251.676 277.683 251.676 277.646 251.676H203.485C202.579 251.676 201.824 251.109 201.711 250.39C201.711 250.352 201.711 250.276 201.711 250.238C201.711 250.201 201.711 250.201 201.711 250.163V246.228C201.711 246.19 201.711 246.19 201.711 246.152C201.711 246.114 201.711 246.076 201.711 246.001C201.824 245.32 202.466 244.79 203.258 244.714C203.334 244.714 203.409 244.714 203.485 244.714H277.683C277.797 244.714 277.91 244.714 277.985 244.752C278.099 244.752 278.212 244.79 278.325 244.828C278.665 244.941 278.967 245.131 279.155 245.395C279.344 245.66 279.457 245.963 279.457 246.266Z" fill="#97C3F9"/>
<path d="M277.644 252.963H203.483C201.973 252.963 200.728 251.979 200.464 250.655C200.426 250.541 200.426 250.466 200.426 250.314V250.239C200.426 250.239 200.426 250.201 200.426 250.163V246.228C200.426 246.19 200.426 246.152 200.426 246.114V246.077C200.426 246.001 200.426 245.887 200.464 245.812C200.69 244.563 201.784 243.617 203.143 243.466C203.256 243.466 203.37 243.466 203.483 243.466H277.681C277.87 243.466 278.021 243.466 278.21 243.504C278.399 243.541 278.549 243.579 278.738 243.617C279.304 243.806 279.795 244.147 280.135 244.563C280.512 245.017 280.738 245.585 280.738 246.19V250.125C280.738 250.73 280.55 251.298 280.135 251.752C280.059 251.865 279.946 251.979 279.833 252.093C279.531 252.357 279.153 252.584 278.7 252.736C278.512 252.774 278.361 252.849 278.172 252.849C278.097 252.849 278.021 252.849 277.946 252.887H277.87C277.795 252.963 277.719 252.963 277.644 252.963ZM202.917 250.201C202.954 250.276 203.105 250.466 203.445 250.466H277.644C277.681 250.466 277.681 250.466 277.719 250.466C277.757 250.466 277.757 250.466 277.757 250.466C277.795 250.466 277.832 250.466 277.87 250.428C277.946 250.39 278.021 250.352 278.059 250.314C278.097 250.276 278.097 250.276 278.097 250.276L278.134 250.239V246.304C278.134 246.304 278.134 246.266 278.097 246.266C278.021 246.19 277.946 246.152 277.832 246.114C277.795 246.114 277.757 246.077 277.681 246.077C277.644 246.077 277.606 246.077 277.568 246.077H203.483C203.445 246.077 203.407 246.077 203.407 246.077C203.143 246.114 202.954 246.266 202.954 246.304V246.341L202.917 250.201Z" fill="#0C1033"/>
<path d="M243.032 251.714H203.253C202.498 251.714 201.894 251.222 201.706 250.579C201.706 250.541 201.668 250.465 201.668 250.427C201.668 250.39 201.668 250.314 201.668 250.276C201.668 250.238 201.668 250.238 201.668 250.2V246.265C201.668 246.228 201.668 246.228 201.668 246.19C201.668 246.152 201.668 246.114 201.668 246.038C201.781 245.357 202.347 244.828 203.064 244.752C203.14 244.752 203.178 244.752 203.253 244.752H238.126C238.314 245.471 238.579 246.228 238.994 247.06C239.786 248.649 241.032 250.352 243.032 251.714Z" fill="#97C3F9"/>
<path d="M247.071 252.963H203.292C202.008 252.963 200.914 252.13 200.574 250.957C200.536 250.844 200.499 250.768 200.499 250.655C200.499 250.579 200.461 250.466 200.461 250.352V250.276C200.461 250.276 200.461 250.239 200.461 250.201V246.266C200.461 246.228 200.461 246.19 200.461 246.152V246.114C200.461 246.039 200.461 245.925 200.499 245.85C200.687 244.639 201.706 243.655 202.99 243.542C203.103 243.542 203.216 243.542 203.329 243.542H239.372V244.639C239.561 245.32 239.825 245.963 240.127 246.568C240.957 248.233 242.165 249.633 243.712 250.693L247.071 252.963ZM202.914 250.201V250.239C202.952 250.352 203.065 250.466 203.254 250.466H239.749C239.032 249.633 238.391 248.687 237.9 247.666C237.636 247.136 237.409 246.606 237.221 246.039H203.292C203.254 246.039 203.254 246.039 203.254 246.039C203.103 246.077 202.952 246.19 202.952 246.266V246.304V250.201H202.914Z" fill="#0C1033"/>
<path d="M270.401 244.752H269.57V251.714H270.401V244.752Z" fill="#97C3F9"/>
<path d="M271.683 243.504H268.324V252.963H271.683V243.504Z" fill="#0C1033"/>
<path d="M267.569 244.752H266.738V251.714H267.569V244.752Z" fill="#97C3F9"/>
<path d="M268.851 243.504H265.492V252.963H268.851V243.504Z" fill="#0C1033"/>
<path d="M264.135 244.752H263.305V251.714H264.135V244.752Z" fill="#97C3F9"/>
<path d="M265.418 243.504H262.059V252.963H265.418V243.504Z" fill="#0C1033"/>
<path d="M258.889 244.752H258.059V251.714H258.889V244.752Z" fill="#97C3F9"/>
<path d="M260.171 243.504H256.812V252.963H260.171V243.504Z" fill="#0C1033"/>
<path d="M253.342 244.752H252.512V251.714H253.342V244.752Z" fill="#97C3F9"/>
<path d="M254.625 243.504H251.266V252.963H254.625V243.504Z" fill="#0C1033"/>
<path d="M244.85 244.752H244.02V251.714H244.85V244.752Z" fill="#97C3F9"/>
<path d="M246.132 243.504H242.773V252.963H246.132V243.504Z" fill="#0C1033"/>
<path d="M236.885 244.752H236.055V251.714H236.885V244.752Z" fill="#97C3F9"/>
<path d="M238.168 243.504H234.809V252.963H238.168V243.504Z" fill="#0C1033"/>
<path d="M229.752 244.752H228.922V251.714H229.752V244.752Z" fill="#97C3F9"/>
<path d="M231.035 243.504H227.676V252.963H231.035V243.504Z" fill="#0C1033"/>
<path d="M273.119 244.752H272.289V251.714H273.119V244.752Z" fill="#97C3F9"/>
<path d="M274.402 243.504H271.043V252.963H274.402V243.504Z" fill="#0C1033"/>
<path d="M274.928 244.752H274.098V251.714H274.928V244.752Z" fill="#97C3F9"/>
<path d="M276.211 243.504H272.852V252.963H276.211V243.504Z" fill="#0C1033"/>
<path d="M276.662 244.752H275.832V251.714H276.662V244.752Z" fill="#97C3F9"/>
<path d="M277.945 243.504H274.586V252.963H277.945V243.504Z" fill="#0C1033"/>
<path d="M277.985 244.79V251.677C277.872 251.677 277.759 251.714 277.683 251.714H277.117V244.752H277.646C277.759 244.752 277.872 244.79 277.985 244.79Z" fill="#97C3F9"/>
<path d="M277.645 252.963H275.871V243.504H277.645C277.796 243.504 277.985 243.504 278.136 243.542L279.192 243.693V252.774L278.136 252.925C277.985 252.963 277.834 252.963 277.645 252.963Z" fill="#0C1033"/>
<path d="M279.155 245.433V251.033C278.966 251.298 278.664 251.487 278.324 251.601V244.866C278.664 244.979 278.928 245.168 279.155 245.433Z" fill="#97C3F9"/>
<path d="M277.039 253.341V243.163L278.662 243.693C279.228 243.882 279.719 244.223 280.096 244.677L280.36 245.017V251.525L280.096 251.865C279.719 252.319 279.228 252.66 278.662 252.849L277.039 253.341Z" fill="#0C1033"/>
<path d="M273.985 239.341V243.276C273.985 243.579 273.871 243.882 273.683 244.109C273.494 244.374 273.192 244.563 272.852 244.676C272.739 244.714 272.626 244.752 272.513 244.752C272.475 244.752 272.437 244.752 272.399 244.752C272.362 244.752 272.324 244.752 272.286 244.752C272.249 244.752 272.211 244.752 272.173 244.752H198.012C197.106 244.752 196.352 244.184 196.238 243.465C196.238 243.428 196.238 243.352 196.238 243.314V239.228C196.238 239.19 196.238 239.19 196.238 239.152C196.314 238.509 196.88 237.979 197.597 237.828H197.635C197.748 237.79 197.899 237.79 198.012 237.79H272.211C272.248 237.79 272.324 237.79 272.362 237.79C272.399 237.79 272.399 237.79 272.437 237.79C272.475 237.79 272.475 237.79 272.513 237.79C272.626 237.79 272.739 237.828 272.852 237.866C273.192 237.979 273.494 238.168 273.683 238.433C273.871 238.736 273.985 239.039 273.985 239.341Z" fill="#97C3F9"/>
<path d="M272.209 246.038H198.01C196.501 246.038 195.255 245.055 194.991 243.73C194.991 243.655 194.953 243.541 194.953 243.428V243.352V239.077C195.066 237.941 196.01 236.958 197.218 236.693L197.369 236.655C197.557 236.617 197.784 236.617 197.972 236.617H272.209C272.284 236.617 272.36 236.617 272.435 236.617H272.511C272.548 236.617 272.586 236.617 272.586 236.617C272.624 236.617 272.699 236.617 272.737 236.655C272.888 236.693 273.077 236.731 273.228 236.769C273.794 236.958 274.285 237.298 274.662 237.752C275.039 238.206 275.228 238.774 275.228 239.379V243.314C275.228 243.92 275.039 244.487 274.624 244.941C274.285 245.395 273.794 245.736 273.19 245.925C273.039 245.963 272.85 246.038 272.662 246.038L272.435 246.076C272.397 246.076 272.36 246.076 272.322 246.076C272.284 246.038 272.247 246.038 272.209 246.038ZM197.482 243.276C197.52 243.352 197.708 243.541 198.01 243.541H272.209H272.36C272.398 243.541 272.435 243.541 272.435 243.541H272.473C272.624 243.503 272.699 243.428 272.737 243.39C272.737 243.352 272.775 243.352 272.775 243.314V239.379C272.775 239.379 272.775 239.341 272.737 239.341C272.699 239.266 272.586 239.228 272.473 239.19C272.435 239.19 272.398 239.152 272.36 239.152H272.247H272.209H198.01C197.972 239.152 197.897 239.152 197.859 239.152H197.821C197.595 239.19 197.482 239.341 197.444 239.379V243.276H197.482Z" fill="#0C1033"/>
<path d="M237.565 244.79H197.823C197.069 244.79 196.465 244.298 196.276 243.655C196.276 243.617 196.238 243.541 196.238 243.504C196.238 243.466 196.238 243.39 196.238 243.352V239.266C196.238 239.228 196.238 239.228 196.238 239.19C196.314 238.547 196.804 238.017 197.484 237.866C197.521 237.866 197.521 237.866 197.559 237.866C197.635 237.866 197.748 237.828 197.861 237.828H232.734V237.866C233.262 239.909 234.545 242.709 237.565 244.79C237.565 244.752 237.565 244.79 237.565 244.79Z" fill="#97C3F9"/>
<path d="M243.526 246.039H197.821C196.538 246.039 195.444 245.206 195.066 244.033C195.029 243.92 194.991 243.844 194.991 243.731C194.991 243.655 194.953 243.541 194.953 243.428V243.352V239.077C195.066 237.866 195.972 236.92 197.18 236.655L197.331 236.617C197.482 236.58 197.633 236.58 197.821 236.58H233.6L233.902 237.45C233.902 237.488 233.939 237.525 233.939 237.563C234.43 239.342 235.562 241.839 238.204 243.693L243.526 246.039ZM197.482 243.277V243.314C197.52 243.428 197.633 243.541 197.821 243.541H234.317C233.034 242.066 232.241 240.477 231.788 239.115H197.859C197.821 239.115 197.821 239.115 197.784 239.115C197.633 239.152 197.52 239.266 197.52 239.342V243.277H197.482Z" fill="#0C1033"/>
<path d="M264.963 237.828H264.133V244.79H264.963V237.828Z" fill="#97C3F9"/>
<path d="M266.246 236.58H262.887V246.039H266.246V236.58Z" fill="#0C1033"/>
<path d="M262.092 237.828H261.262V244.79H262.092V237.828Z" fill="#97C3F9"/>
<path d="M263.375 236.58H260.016V246.039H263.375V236.58Z" fill="#0C1033"/>
<path d="M258.658 237.828H257.828V244.79H258.658V237.828Z" fill="#97C3F9"/>
<path d="M259.941 236.58H256.582V246.039H259.941V236.58Z" fill="#0C1033"/>
<path d="M253.412 237.828H252.582V244.79H253.412V237.828Z" fill="#97C3F9"/>
<path d="M254.695 236.58H251.336V246.039H254.695V236.58Z" fill="#0C1033"/>
<path d="M247.865 237.828H247.035V244.79H247.865V237.828Z" fill="#97C3F9"/>
<path d="M249.148 236.58H245.789V246.039H249.148V236.58Z" fill="#0C1033"/>
<path d="M239.373 237.828H238.543V244.79H239.373V237.828Z" fill="#97C3F9"/>
<path d="M240.656 236.58H237.297V246.039H240.656V236.58Z" fill="#0C1033"/>
<path d="M231.408 237.828H230.578V244.79H231.408V237.828Z" fill="#97C3F9"/>
<path d="M232.691 236.58H229.332V246.039H232.691V236.58Z" fill="#0C1033"/>
<path d="M224.315 237.828H223.484V244.79H224.315V237.828Z" fill="#97C3F9"/>
<path d="M225.597 236.58H222.238V246.039H225.597V236.58Z" fill="#0C1033"/>
<path d="M267.682 237.828H266.852V244.79H267.682V237.828Z" fill="#97C3F9"/>
<path d="M268.964 236.58H265.605V246.039H268.964V236.58Z" fill="#0C1033"/>
<path d="M269.451 237.828H268.621V244.79H269.451V237.828Z" fill="#97C3F9"/>
<path d="M270.734 236.58H267.375V246.039H270.734V236.58Z" fill="#0C1033"/>
<path d="M271.19 237.828H270.359V244.79H271.19V237.828Z" fill="#97C3F9"/>
<path d="M272.472 236.58H269.113V246.039H272.472V236.58Z" fill="#0C1033"/>
<path d="M272.51 237.866V244.752C272.397 244.752 272.284 244.79 272.208 244.79H271.68V237.828H272.208C272.321 237.828 272.397 237.828 272.51 237.866Z" fill="#97C3F9"/>
<path d="M272.207 246.039H270.434V236.58H272.207C272.358 236.58 272.547 236.58 272.698 236.617L273.755 236.769V245.812L272.698 245.963C272.547 246.001 272.358 246.039 272.207 246.039Z" fill="#0C1033"/>
<path d="M273.678 238.509V244.109C273.489 244.374 273.187 244.563 272.848 244.676V237.941C273.187 238.055 273.489 238.244 273.678 238.509Z" fill="#97C3F9"/>
<path d="M271.602 246.379V236.201L273.224 236.731C273.791 236.92 274.281 237.261 274.659 237.715L274.923 238.055V244.563L274.659 244.904C274.281 245.358 273.791 245.698 273.224 245.887L271.602 246.379Z" fill="#0C1033"/>
<path d="M273.832 232.456V236.391C273.832 236.693 273.719 236.996 273.53 237.223C273.342 237.488 273.04 237.677 272.7 237.791C272.625 237.828 272.511 237.828 272.436 237.866C272.398 237.866 272.398 237.866 272.36 237.866C272.247 237.866 272.172 237.904 272.058 237.904H197.86C197.784 237.904 197.709 237.904 197.633 237.904C197.596 237.904 197.558 237.904 197.558 237.904C196.803 237.791 196.199 237.261 196.086 236.618C196.086 236.58 196.086 236.542 196.086 236.504C196.086 236.466 196.086 236.466 196.086 236.428V232.493C196.086 232.456 196.086 232.456 196.086 232.418C196.086 232.38 196.086 232.304 196.086 232.266C196.199 231.548 196.954 230.98 197.86 230.98H272.058C272.096 230.98 272.172 230.98 272.209 230.98H272.247C272.285 230.98 272.285 230.98 272.323 230.98H272.36C272.474 230.98 272.587 231.018 272.7 231.056H272.738H272.776H272.813C272.851 231.056 272.851 231.056 272.851 231.093C272.851 231.093 272.889 231.093 272.889 231.131C273.002 231.207 273.115 231.245 273.228 231.358C273.266 231.396 273.304 231.396 273.304 231.434C273.342 231.472 273.342 231.472 273.379 231.51L273.417 231.548C273.455 231.585 273.455 231.585 273.493 231.623C273.719 231.85 273.832 232.153 273.832 232.456Z" fill="#97C3F9"/>
<path d="M272.056 239.152H197.858C197.745 239.152 197.631 239.152 197.48 239.115C197.443 239.115 197.367 239.115 197.292 239.077C196.008 238.85 195.027 237.942 194.839 236.769C194.839 236.693 194.801 236.58 194.801 236.504V236.428C194.801 236.428 194.801 236.39 194.801 236.353V232.418C194.801 232.38 194.801 232.342 194.801 232.304V232.266C194.801 232.153 194.801 232.039 194.839 231.926C195.103 230.601 196.348 229.618 197.858 229.618H272.056C272.132 229.618 272.17 229.618 272.245 229.618H272.509L272.585 229.656C272.736 229.693 272.887 229.731 273.075 229.769H273.113H273.34L273.566 229.958C273.717 230.034 273.906 230.147 274.019 230.261C274.057 230.299 274.132 230.337 274.17 230.374C274.208 230.412 274.283 230.488 274.321 230.526L274.359 230.564C274.396 230.601 274.434 230.639 274.434 230.677L274.472 230.753C274.849 231.245 275.038 231.774 275.038 232.38V236.315C275.038 236.92 274.849 237.45 274.472 237.942C274.094 238.396 273.604 238.736 273.038 238.925C272.924 238.963 272.774 239.001 272.623 239.039L272.472 239.077C272.358 239.115 272.207 239.152 272.056 239.152ZM197.745 236.617C197.782 236.617 197.82 236.617 197.82 236.617H272.019C272.056 236.617 272.094 236.617 272.132 236.617H272.17H272.245H272.283C272.396 236.58 272.472 236.542 272.547 236.466L272.585 236.428V232.493C272.585 232.493 272.585 232.455 272.547 232.455L272.509 232.418H272.396L272.207 232.266H272.17H272.132H271.868H197.858C197.518 232.266 197.329 232.455 197.329 232.531V232.569V236.466C197.329 236.504 197.48 236.655 197.745 236.693V236.617Z" fill="#0C1033"/>
<path d="M237.411 237.866H197.67C197.632 237.866 197.594 237.866 197.557 237.866C197.519 237.866 197.481 237.866 197.443 237.866C196.726 237.79 196.16 237.261 196.047 236.58C196.047 236.542 196.047 236.504 196.047 236.466C196.047 236.428 196.047 236.428 196.047 236.39V232.455C196.047 232.418 196.047 232.418 196.047 232.38C196.047 232.342 196.047 232.266 196.047 232.228C196.047 232.191 196.085 232.115 196.085 232.077C196.273 231.434 196.877 230.942 197.632 230.942H232.505C232.505 230.98 232.542 231.055 232.542 231.131C233.109 233.136 234.429 235.861 237.298 237.866C237.373 237.866 237.373 237.866 237.411 237.866Z" fill="#97C3F9"/>
<path d="M237.41 239.152H197.669C197.631 239.152 197.594 239.152 197.556 239.152H197.48C197.405 239.152 197.367 239.152 197.292 239.152C196.008 239.001 194.989 238.017 194.839 236.807C194.839 236.731 194.801 236.655 194.801 236.58V236.504C194.801 236.504 194.801 236.466 194.801 236.428V232.493C194.801 232.455 194.801 232.418 194.801 232.38V232.342C194.801 232.228 194.801 232.115 194.839 232.001C194.839 231.926 194.876 231.812 194.914 231.699C195.254 230.526 196.386 229.693 197.669 229.693H233.447L233.712 230.564C233.712 230.601 233.749 230.639 233.749 230.677V230.715C234.24 232.455 235.41 234.915 238.014 236.769C238.052 236.807 238.09 236.807 238.09 236.844L241.222 239.115L237.41 239.152ZM197.631 236.617H234.127C232.844 235.104 232.051 233.515 231.598 232.191H197.669C197.48 232.191 197.367 232.304 197.329 232.418V232.455C197.329 232.455 197.329 232.455 197.329 232.493V236.39C197.329 236.504 197.443 236.617 197.631 236.617Z" fill="#0C1033"/>
<path d="M264.811 230.942H263.98V237.904H264.811V230.942Z" fill="#97C3F9"/>
<path d="M266.093 229.693H262.734V239.152H266.093V229.693Z" fill="#0C1033"/>
<path d="M261.944 230.942H261.113V237.904H261.944V230.942Z" fill="#97C3F9"/>
<path d="M263.226 229.693H259.867V239.152H263.226V229.693Z" fill="#0C1033"/>
<path d="M258.51 230.942H257.68V237.904H258.51V230.942Z" fill="#97C3F9"/>
<path d="M259.793 229.693H256.434V239.152H259.793V229.693Z" fill="#0C1033"/>
<path d="M253.264 230.942H252.434V237.904H253.264V230.942Z" fill="#97C3F9"/>
<path d="M254.546 229.693H251.188V239.152H254.546V229.693Z" fill="#0C1033"/>
<path d="M247.717 230.942H246.887V237.904H247.717V230.942Z" fill="#97C3F9"/>
<path d="M249 229.693H245.641V239.152H249V229.693Z" fill="#0C1033"/>
<path d="M239.225 230.942H238.395V237.904H239.225V230.942Z" fill="#97C3F9"/>
<path d="M240.507 229.693H237.148V239.152H240.507V229.693Z" fill="#0C1033"/>
<path d="M231.26 230.942H230.43V237.904H231.26V230.942Z" fill="#97C3F9"/>
<path d="M232.543 229.693H229.184V239.152H232.543V229.693Z" fill="#0C1033"/>
<path d="M224.166 230.942H223.336V237.904H224.166V230.942Z" fill="#97C3F9"/>
<path d="M225.41 229.693H222.051V239.152H225.41V229.693Z" fill="#0C1033"/>
<path d="M267.529 230.942H266.699V237.904H267.529V230.942Z" fill="#97C3F9"/>
<path d="M268.812 229.693H265.453V239.152H268.812V229.693Z" fill="#0C1033"/>
<path d="M269.303 230.942H268.473V237.904H269.303V230.942Z" fill="#97C3F9"/>
<path d="M270.586 229.693H267.227V239.152H270.586V229.693Z" fill="#0C1033"/>
<path d="M271.037 230.942H270.207V237.904H271.037V230.942Z" fill="#97C3F9"/>
<path d="M272.32 229.693H268.961V239.152H272.32V229.693Z" fill="#0C1033"/>
<path d="M272.362 230.98V237.866C272.248 237.866 272.135 237.904 272.06 237.904H271.531V230.942H272.06C272.173 230.942 272.248 230.942 272.362 230.98Z" fill="#97C3F9"/>
<path d="M272.059 239.152H270.285V229.693H272.059C272.248 229.693 272.399 229.693 272.587 229.731L273.644 229.883V238.925L272.587 239.077C272.399 239.115 272.21 239.152 272.059 239.152Z" fill="#0C1033"/>
<path d="M273.53 231.623V237.223C273.341 237.487 273.039 237.677 272.699 237.79V231.055C273.039 231.169 273.341 231.358 273.53 231.623Z" fill="#97C3F9"/>
<path d="M271.453 239.493V229.315L273.076 229.845C273.642 230.034 274.133 230.374 274.51 230.828L274.774 231.169V237.639L274.51 237.979C274.133 238.434 273.642 238.774 273.076 238.963L271.453 239.493Z" fill="#0C1033"/>
<path d="M277.679 225.682V229.617C277.679 229.92 277.565 230.223 277.377 230.45C277.188 230.714 276.886 230.904 276.546 231.017C276.433 231.055 276.32 231.093 276.207 231.093C276.169 231.093 276.093 231.093 276.056 231.131C276.018 231.131 275.943 231.131 275.905 231.131H201.668C201.366 231.131 201.102 231.055 200.838 230.941C200.31 230.714 199.932 230.26 199.895 229.731C199.895 229.693 199.895 229.693 199.895 229.655C199.895 229.617 199.895 229.617 199.895 229.579V225.644C199.895 225.606 199.895 225.606 199.895 225.569C199.895 225.531 199.895 225.455 199.895 225.417C200.008 224.698 200.763 224.131 201.668 224.131H275.867C275.98 224.131 276.093 224.131 276.169 224.169C276.282 224.169 276.395 224.207 276.509 224.244C276.848 224.358 277.15 224.547 277.339 224.812C277.565 225.077 277.679 225.379 277.679 225.682Z" fill="#97C3F9"/>
<path d="M275.865 232.38H201.666C201.213 232.38 200.761 232.304 200.345 232.115C199.44 231.698 198.76 230.904 198.647 229.958C198.647 229.882 198.609 229.769 198.609 229.693C198.609 229.693 198.609 229.655 198.609 229.617V225.682C198.609 225.645 198.609 225.607 198.609 225.607V225.569C198.609 225.455 198.609 225.342 198.647 225.228C198.911 223.904 200.157 222.92 201.666 222.92H275.865C276.054 222.92 276.205 222.92 276.393 222.958C276.582 222.996 276.733 223.034 276.922 223.072C277.488 223.261 277.979 223.601 278.318 224.018C278.696 224.51 278.922 225.077 278.922 225.645V229.58C278.922 230.185 278.733 230.753 278.356 231.207C277.979 231.661 277.488 232.001 276.922 232.19C276.733 232.266 276.544 232.304 276.393 232.304C276.318 232.304 276.242 232.342 276.167 232.342H276.092C275.978 232.342 275.941 232.38 275.865 232.38ZM201.138 229.58C201.138 229.617 201.213 229.731 201.364 229.769C201.478 229.807 201.591 229.844 201.704 229.844H275.903C275.941 229.844 275.941 229.844 275.978 229.844H276.054C276.092 229.844 276.129 229.844 276.167 229.807C276.28 229.769 276.356 229.731 276.393 229.655L276.431 229.617V225.682C276.431 225.682 276.431 225.645 276.393 225.607C276.356 225.531 276.243 225.493 276.129 225.455C276.092 225.455 276.054 225.418 276.016 225.418C275.978 225.418 275.941 225.418 275.903 225.418H201.666C201.327 225.418 201.138 225.607 201.138 225.682V229.58Z" fill="#0C1033"/>
<path d="M241.22 231.093H201.478C201.214 231.093 200.95 231.017 200.724 230.904C200.271 230.677 199.931 230.223 199.855 229.693C199.855 229.655 199.855 229.655 199.855 229.617C199.855 229.58 199.855 229.58 199.855 229.542V225.607C199.855 225.569 199.855 225.569 199.855 225.531C199.855 225.493 199.855 225.418 199.855 225.38C199.855 225.342 199.893 225.266 199.893 225.228C200.082 224.585 200.686 224.093 201.441 224.093H236.351C236.879 226.099 238.125 228.823 240.993 230.866C241.069 230.979 241.144 231.055 241.22 231.093Z" fill="#97C3F9"/>
<path d="M245.295 232.38H201.478C201.025 232.38 200.572 232.266 200.194 232.077C199.326 231.661 198.76 230.866 198.647 229.92C198.647 229.844 198.609 229.769 198.609 229.655C198.609 229.655 198.609 229.617 198.609 229.58V225.645C198.609 225.607 198.609 225.569 198.609 225.569V225.531C198.609 225.418 198.647 225.304 198.647 225.191C198.647 225.115 198.685 225.039 198.723 224.926C199.062 223.753 200.194 222.92 201.478 222.92H237.294L237.558 223.828C238.049 225.569 239.143 228.066 241.71 229.92C241.785 229.958 241.86 230.034 241.936 230.072L245.295 232.38ZM201.138 229.58C201.138 229.693 201.213 229.769 201.289 229.807C201.327 229.844 201.402 229.844 201.478 229.844H237.973C236.69 228.369 235.897 226.78 235.445 225.418H201.515C201.327 225.418 201.213 225.531 201.176 225.645V225.682V229.58H201.138Z" fill="#0C1033"/>
<path d="M268.619 224.169H267.789V231.131H268.619V224.169Z" fill="#97C3F9"/>
<path d="M269.902 222.92H266.543V232.38H269.902V222.92Z" fill="#0C1033"/>
<path d="M265.787 224.169H264.957V231.131H265.787V224.169Z" fill="#97C3F9"/>
<path d="M267.031 222.92H263.672V232.38H267.031V222.92Z" fill="#0C1033"/>
<path d="M262.354 224.169H261.523V231.131H262.354V224.169Z" fill="#97C3F9"/>
<path d="M263.636 222.92H260.277V232.38H263.636V222.92Z" fill="#0C1033"/>
<path d="M257.108 224.169H256.277V231.131H257.108V224.169Z" fill="#97C3F9"/>
<path d="M258.39 222.92H255.031V232.38H258.39V222.92Z" fill="#0C1033"/>
<path d="M251.561 224.169H250.73V231.131H251.561V224.169Z" fill="#97C3F9"/>
<path d="M252.843 222.92H249.484V232.38H252.843V222.92Z" fill="#0C1033"/>
<path d="M243.069 224.169H242.238V231.131H243.069V224.169Z" fill="#97C3F9"/>
<path d="M244.312 222.92H240.953V232.38H244.312V222.92Z" fill="#0C1033"/>
<path d="M235.104 224.169H234.273V231.131H235.104V224.169Z" fill="#97C3F9"/>
<path d="M236.347 222.92H232.988V232.38H236.347V222.92Z" fill="#0C1033"/>
<path d="M227.971 224.169H227.141V231.131H227.971V224.169Z" fill="#97C3F9"/>
<path d="M229.253 222.92H225.895V232.38H229.253V222.92Z" fill="#0C1033"/>
<path d="M271.338 224.169H270.508V231.131H271.338V224.169Z" fill="#97C3F9"/>
<path d="M272.621 222.92H269.262V232.38H272.621V222.92Z" fill="#0C1033"/>
<path d="M273.147 224.169H272.316V231.131H273.147V224.169Z" fill="#97C3F9"/>
<path d="M274.429 222.92H271.07V232.38H274.429V222.92Z" fill="#0C1033"/>
<path d="M274.881 224.169H274.051V231.131H274.881V224.169Z" fill="#97C3F9"/>
<path d="M276.164 222.92H272.805V232.38H276.164V222.92Z" fill="#0C1033"/>
<path d="M276.205 224.207V231.093C276.092 231.093 275.979 231.131 275.903 231.131H275.375V224.169H275.903C275.979 224.169 276.092 224.169 276.205 224.207Z" fill="#97C3F9"/>
<path d="M275.864 232.38H274.09V222.92H275.864C276.015 222.92 276.203 222.92 276.354 222.958L277.411 223.11V232.153L276.354 232.304C276.203 232.342 276.052 232.38 275.864 232.38Z" fill="#0C1033"/>
<path d="M277.373 224.85V230.45C277.185 230.714 276.883 230.904 276.543 231.017V224.282C276.845 224.396 277.147 224.585 277.373 224.85Z" fill="#97C3F9"/>
<path d="M275.258 232.72V222.542L276.881 223.072C277.447 223.261 277.937 223.601 278.315 224.055L278.579 224.396V230.904L278.315 231.244C277.937 231.698 277.447 232.039 276.881 232.228L275.258 232.72Z" fill="#0C1033"/>
<path d="M283.719 218.721V222.656C283.719 222.959 283.606 223.261 283.417 223.488C283.379 223.526 283.379 223.564 283.342 223.564C283.153 223.791 282.889 223.942 282.587 224.056C282.474 224.094 282.36 224.132 282.247 224.132C282.134 224.132 282.021 224.169 281.945 224.169H207.746C206.841 224.169 206.086 223.602 205.973 222.883C205.973 222.845 205.973 222.769 205.973 222.732C205.973 222.694 205.973 222.694 205.973 222.656V218.721C205.973 218.683 205.973 218.683 205.973 218.645C206.01 217.926 206.69 217.321 207.558 217.208C207.633 217.208 207.709 217.208 207.784 217.208H281.983C282.096 217.208 282.209 217.208 282.285 217.245C282.398 217.245 282.511 217.283 282.624 217.321C282.926 217.435 283.191 217.586 283.379 217.775C283.417 217.813 283.417 217.851 283.455 217.851C283.606 218.116 283.719 218.418 283.719 218.721Z" fill="#97C3F9"/>
<path d="M281.943 225.418H207.745C206.235 225.418 204.989 224.434 204.725 223.11C204.688 222.996 204.688 222.921 204.688 222.807V222.731C204.688 222.731 204.688 222.694 204.688 222.656V218.721C204.688 218.683 204.688 218.645 204.688 218.607V218.532C204.763 217.17 205.895 216.072 207.405 215.921C207.518 215.921 207.631 215.921 207.745 215.921H281.943C282.132 215.921 282.283 215.921 282.472 215.959C282.66 215.997 282.811 216.034 283 216.072C283.491 216.224 283.906 216.488 284.245 216.867C284.283 216.905 284.321 216.942 284.359 217.018L284.396 217.056C284.774 217.548 284.962 218.078 284.962 218.683V222.618C284.962 223.223 284.774 223.791 284.396 224.245C284.321 224.321 284.283 224.358 284.245 224.434C283.906 224.812 283.453 225.077 282.962 225.229C282.774 225.304 282.623 225.342 282.434 225.342C282.245 225.418 282.094 225.418 281.943 225.418ZM207.216 222.656C207.254 222.731 207.443 222.921 207.745 222.921H281.943C281.981 222.921 282.019 222.921 282.094 222.921C282.132 222.921 282.17 222.921 282.207 222.883C282.283 222.845 282.358 222.807 282.434 222.731L282.472 222.694V222.656V218.721C282.472 218.721 282.472 218.683 282.434 218.683C282.396 218.645 282.321 218.569 282.17 218.532C282.132 218.532 282.094 218.494 282.056 218.494C282.019 218.494 281.981 218.494 281.905 218.494H207.745C207.707 218.494 207.669 218.494 207.669 218.494C207.367 218.532 207.216 218.683 207.216 218.759C207.216 218.759 207.216 218.759 207.216 218.796V222.656Z" fill="#0C1033"/>
<path d="M247.295 224.17H207.554C206.799 224.17 206.195 223.678 206.006 223.035C206.006 222.997 205.969 222.921 205.969 222.883C205.969 222.845 205.969 222.77 205.969 222.732C205.969 222.694 205.969 222.694 205.969 222.656V218.721C205.969 218.683 205.969 218.683 205.969 218.646C205.969 218.57 205.969 218.494 206.006 218.456C206.12 217.813 206.686 217.321 207.403 217.246C207.478 217.246 207.516 217.246 207.592 217.246H242.464C242.993 219.289 244.276 222.089 247.295 224.17Z" fill="#97C3F9"/>
<path d="M251.333 225.418H207.553C206.27 225.418 205.176 224.586 204.836 223.413C204.798 223.299 204.798 223.224 204.76 223.11C204.723 222.997 204.723 222.921 204.723 222.807V222.732C204.723 222.732 204.723 222.694 204.723 222.656V218.721C204.723 218.683 204.723 218.645 204.723 218.608V218.57C204.723 218.456 204.76 218.305 204.798 218.153C205.025 216.981 206.006 216.11 207.251 215.959C207.365 215.959 207.478 215.959 207.591 215.959H243.709V217.056C244.237 218.872 245.407 221.332 248.049 223.148L251.333 225.418ZM207.214 222.656V222.694C207.251 222.807 207.365 222.921 207.553 222.921H244.049C242.766 221.445 241.973 219.856 241.52 218.494H207.591H207.553C207.402 218.494 207.289 218.608 207.251 218.721V218.759L207.214 222.656Z" fill="#0C1033"/>
<path d="M274.697 217.208H273.867V224.169H274.697V217.208Z" fill="#97C3F9"/>
<path d="M275.98 215.959H272.621V225.418H275.98V215.959Z" fill="#0C1033"/>
<path d="M271.826 217.208H270.996V224.169H271.826V217.208Z" fill="#97C3F9"/>
<path d="M273.109 215.959H269.75V225.418H273.109V215.959Z" fill="#0C1033"/>
<path d="M268.432 217.208H267.602V224.169H268.432V217.208Z" fill="#97C3F9"/>
<path d="M269.675 215.959H266.316V225.418H269.675V215.959Z" fill="#0C1033"/>
<path d="M263.186 217.208H262.355V224.169H263.186V217.208Z" fill="#97C3F9"/>
<path d="M264.429 215.959H261.07V225.418H264.429V215.959Z" fill="#0C1033"/>
<path d="M257.639 217.208H256.809V224.169H257.639V217.208Z" fill="#97C3F9"/>
<path d="M258.882 215.959H255.523V225.418H258.882V215.959Z" fill="#0C1033"/>
<path d="M249.108 217.208H248.277V224.169H249.108V217.208Z" fill="#97C3F9"/>
<path d="M250.39 215.959H247.031V225.418H250.39V215.959Z" fill="#0C1033"/>
<path d="M241.143 217.208H240.312V224.169H241.143V217.208Z" fill="#97C3F9"/>
<path d="M242.425 215.959H239.066V225.418H242.425V215.959Z" fill="#0C1033"/>
<path d="M234.049 217.208H233.219V224.169H234.049V217.208Z" fill="#97C3F9"/>
<path d="M235.332 215.959H231.973V225.418H235.332V215.959Z" fill="#0C1033"/>
<path d="M277.416 217.208H276.586V224.169H277.416V217.208Z" fill="#97C3F9"/>
<path d="M278.699 215.959H275.34V225.418H278.699V215.959Z" fill="#0C1033"/>
<path d="M279.186 217.208H278.355V224.169H279.186V217.208Z" fill="#97C3F9"/>
<path d="M280.468 215.959H277.109V225.418H280.468V215.959Z" fill="#0C1033"/>
<path d="M280.924 217.208H280.094V224.169H280.924V217.208Z" fill="#97C3F9"/>
<path d="M282.207 215.959H278.848V225.418H282.207V215.959Z" fill="#0C1033"/>
<path d="M282.244 217.245V224.132C282.131 224.132 282.018 224.169 281.942 224.169H281.414V217.208H281.942C282.056 217.208 282.169 217.245 282.244 217.245Z" fill="#97C3F9"/>
<path d="M281.942 225.418H280.168V215.959H281.942C282.093 215.959 282.281 215.959 282.432 215.997L283.489 216.148V225.191L282.432 225.342C282.281 225.418 282.093 225.418 281.942 225.418Z" fill="#0C1033"/>
<path d="M283.412 217.888V223.488C283.224 223.753 282.922 223.942 282.582 224.056V217.321C282.922 217.434 283.224 217.623 283.412 217.888Z" fill="#97C3F9"/>
<path d="M281.336 225.796V215.618L282.959 216.148C283.525 216.337 284.016 216.678 284.393 217.132L284.657 217.472V223.98L284.393 224.321C284.016 224.775 283.525 225.115 282.959 225.304L281.336 225.796Z" fill="#0C1033"/>
<path d="M273.985 211.797V215.732C273.985 216.035 273.871 216.337 273.683 216.564C273.494 216.829 273.192 217.018 272.852 217.132C272.739 217.17 272.626 217.207 272.513 217.207C272.475 217.207 272.437 217.207 272.399 217.207H272.362C272.362 217.207 272.362 217.207 272.324 217.207H272.286H198.012C197.106 217.207 196.352 216.64 196.238 215.921C196.238 215.883 196.238 215.808 196.238 215.77V211.683C196.238 211.646 196.238 211.57 196.238 211.532C196.352 210.813 197.106 210.246 198.012 210.246H272.211C272.248 210.246 272.286 210.246 272.324 210.246C272.362 210.246 272.362 210.246 272.399 210.246C272.437 210.246 272.475 210.246 272.513 210.246C272.626 210.246 272.739 210.283 272.852 210.321C272.89 210.321 272.928 210.359 272.966 210.359H273.003C273.267 210.473 273.532 210.662 273.683 210.851C273.871 211.192 273.985 211.494 273.985 211.797Z" fill="#97C3F9"/>
<path d="M272.398 218.494H198.01C196.501 218.494 195.255 217.51 194.991 216.186C194.953 216.072 194.953 215.997 194.953 215.845V215.77V211.646C194.953 211.532 194.991 211.419 194.991 211.305C195.217 209.981 196.501 208.997 198.01 208.997H272.209C272.247 208.997 272.284 208.997 272.322 208.997H272.398C272.435 208.997 272.473 208.997 272.511 208.997C272.586 208.997 272.662 208.997 272.737 209.035C272.926 209.073 273.077 209.111 273.228 209.148H273.266L273.379 209.186L273.492 209.224L273.605 209.3C274.02 209.489 274.398 209.792 274.7 210.132C275.077 210.624 275.266 211.154 275.266 211.759V215.694C275.266 216.299 275.077 216.829 274.662 217.321C274.322 217.775 273.794 218.116 273.228 218.305C273.077 218.343 272.888 218.418 272.699 218.418C272.624 218.418 272.548 218.418 272.511 218.456L272.398 218.494ZM272.36 218.494C272.322 218.494 272.322 218.494 272.36 218.494V218.494ZM197.482 215.732C197.52 215.808 197.708 215.959 198.01 215.959H272.247H272.36C272.398 215.959 272.435 215.959 272.473 215.921C272.586 215.883 272.662 215.845 272.737 215.77C272.775 215.732 272.775 215.732 272.775 215.694V211.759C272.775 211.759 272.775 211.721 272.737 211.683L272.699 211.646H272.662L272.473 211.532C272.435 211.532 272.435 211.532 272.36 211.494H272.247H198.048C197.708 211.494 197.52 211.683 197.52 211.721V215.732H197.482Z" fill="#0C1033"/>
<path d="M237.565 217.246H197.823C197.069 217.246 196.465 216.754 196.276 216.11C196.276 216.073 196.238 215.997 196.238 215.959C196.238 215.921 196.238 215.846 196.238 215.808V211.721C196.238 211.684 196.238 211.608 196.238 211.57C196.238 211.532 196.276 211.457 196.276 211.419C196.465 210.776 197.069 210.284 197.823 210.284H232.696C232.696 210.322 232.734 210.397 232.734 210.435C233.3 212.478 234.621 215.202 237.565 217.246C237.565 217.208 237.565 217.246 237.565 217.246Z" fill="#97C3F9"/>
<path d="M243.526 218.494H197.821C196.538 218.494 195.444 217.662 195.066 216.489C195.029 216.375 195.029 216.3 194.991 216.186C194.953 216.073 194.953 215.997 194.953 215.846V215.77V211.646C194.953 211.532 194.991 211.419 194.991 211.305C194.991 211.23 195.029 211.116 195.066 211.04C195.406 209.868 196.538 209.035 197.821 209.035H233.638L233.939 210.095C234.43 211.873 235.6 214.332 238.204 216.148L243.526 218.494ZM197.482 215.732C197.52 215.884 197.67 215.959 197.821 215.959H234.317C233.034 214.446 232.241 212.894 231.788 211.532H197.859C197.67 211.532 197.557 211.646 197.52 211.759V211.797V215.732H197.482Z" fill="#0C1033"/>
<path d="M264.963 210.284H264.133V217.246H264.963V210.284Z" fill="#97C3F9"/>
<path d="M266.246 209.035H262.887V218.494H266.246V209.035Z" fill="#0C1033"/>
<path d="M262.092 210.284H261.262V217.246H262.092V210.284Z" fill="#97C3F9"/>
<path d="M263.375 209.035H260.016V218.494H263.375V209.035Z" fill="#0C1033"/>
<path d="M258.658 210.284H257.828V217.246H258.658V210.284Z" fill="#97C3F9"/>
<path d="M259.941 209.035H256.582V218.494H259.941V209.035Z" fill="#0C1033"/>
<path d="M253.412 210.284H252.582V217.246H253.412V210.284Z" fill="#97C3F9"/>
<path d="M254.695 209.035H251.336V218.494H254.695V209.035Z" fill="#0C1033"/>
<path d="M247.865 210.284H247.035V217.246H247.865V210.284Z" fill="#97C3F9"/>
<path d="M249.148 209.035H245.789V218.494H249.148V209.035Z" fill="#0C1033"/>
<path d="M239.373 210.284H238.543V217.246H239.373V210.284Z" fill="#97C3F9"/>
<path d="M240.656 209.035H237.297V218.494H240.656V209.035Z" fill="#0C1033"/>
<path d="M231.408 210.284H230.578V217.246H231.408V210.284Z" fill="#97C3F9"/>
<path d="M232.691 209.035H229.332V218.494H232.691V209.035Z" fill="#0C1033"/>
<path d="M224.315 210.284H223.484V217.246H224.315V210.284Z" fill="#97C3F9"/>
<path d="M225.597 209.035H222.238V218.494H225.597V209.035Z" fill="#0C1033"/>
<path d="M267.682 210.284H266.852V217.246H267.682V210.284Z" fill="#97C3F9"/>
<path d="M268.964 209.035H265.605V218.494H268.964V209.035Z" fill="#0C1033"/>
<path d="M269.451 210.284H268.621V217.246H269.451V210.284Z" fill="#97C3F9"/>
<path d="M270.734 209.035H267.375V218.494H270.734V209.035Z" fill="#0C1033"/>
<path d="M271.19 210.284H270.359V217.246H271.19V210.284Z" fill="#97C3F9"/>
<path d="M272.472 209.035H269.113V218.494H272.472V209.035Z" fill="#0C1033"/>
<path d="M272.51 210.322V217.208C272.397 217.208 272.284 217.246 272.208 217.246H271.68V210.284H272.208C272.321 210.284 272.397 210.284 272.51 210.322Z" fill="#97C3F9"/>
<path d="M272.207 218.494H270.434V209.035H272.207C272.358 209.035 272.547 209.035 272.698 209.073L273.755 209.224V218.267L272.698 218.419C272.547 218.456 272.358 218.494 272.207 218.494Z" fill="#0C1033"/>
<path d="M273.678 210.965V216.564C273.489 216.829 273.187 217.018 272.848 217.132V210.397C273.187 210.51 273.489 210.7 273.678 210.965Z" fill="#97C3F9"/>
<path d="M271.602 218.872V208.694L273.224 209.224C273.791 209.413 274.281 209.754 274.659 210.208L274.923 210.548V217.056L274.659 217.397C274.281 217.851 273.791 218.191 273.224 218.38L271.602 218.872Z" fill="#0C1033"/>
<path d="M279.453 205.024V208.959C279.453 209.261 279.34 209.564 279.151 209.791C278.963 210.056 278.661 210.245 278.321 210.359C278.208 210.396 278.095 210.434 277.981 210.434C277.868 210.434 277.755 210.472 277.68 210.472H203.481C203.179 210.472 202.915 210.396 202.688 210.321C202.198 210.094 201.82 209.678 201.707 209.224C201.707 209.186 201.707 209.148 201.707 209.11C201.707 209.072 201.707 209.072 201.707 209.034C201.707 208.997 201.707 208.997 201.707 208.959V205.024C201.707 204.986 201.707 204.986 201.707 204.948C201.707 204.91 201.707 204.872 201.707 204.797C201.82 204.116 202.462 203.586 203.254 203.51C203.33 203.51 203.405 203.51 203.481 203.51H277.68C277.755 203.51 277.831 203.51 277.868 203.51C277.906 203.51 277.944 203.51 277.981 203.51C278.095 203.51 278.208 203.548 278.321 203.586C278.661 203.699 278.963 203.889 279.151 204.153C279.34 204.418 279.453 204.721 279.453 205.024Z" fill="#97C3F9"/>
<path d="M277.641 211.721H203.48C203.027 211.721 202.612 211.645 202.197 211.456C201.291 211.078 200.65 210.321 200.499 209.451C200.499 209.375 200.461 209.3 200.461 209.224C200.461 209.148 200.461 209.11 200.461 209.035C200.461 209.035 200.461 208.997 200.461 208.959V205.024C200.461 204.986 200.461 204.948 200.461 204.911V204.873C200.461 204.759 200.461 204.684 200.499 204.608C200.725 203.359 201.82 202.413 203.178 202.3C203.291 202.3 203.405 202.3 203.518 202.3H277.717C277.83 202.3 277.905 202.3 278.019 202.3C278.094 202.3 278.17 202.3 278.245 202.338C278.434 202.375 278.622 202.413 278.773 202.451C279.34 202.64 279.83 202.981 280.17 203.397C280.547 203.851 280.774 204.419 280.774 205.024V208.959C280.774 209.564 280.585 210.132 280.17 210.586C279.83 211.04 279.339 211.381 278.736 211.532C278.547 211.608 278.396 211.645 278.207 211.645C277.981 211.683 277.792 211.721 277.641 211.721ZM202.914 208.959C202.914 208.997 202.99 209.073 203.141 209.148C203.254 209.186 203.329 209.224 203.442 209.224H277.641C277.679 209.224 277.717 209.224 277.792 209.224C277.83 209.224 277.868 209.224 277.905 209.186C278.019 209.148 278.094 209.11 278.132 209.035C278.17 208.997 278.17 208.997 278.17 208.959V205.024C278.17 205.024 278.17 204.986 278.132 204.986C278.056 204.911 277.981 204.873 277.868 204.835C277.83 204.835 277.792 204.797 277.754 204.797H277.679C277.641 204.797 277.641 204.797 277.603 204.797H203.48C203.442 204.797 203.442 204.797 203.405 204.797C203.103 204.835 202.952 204.986 202.952 205.024V205.062L202.914 208.959ZM202.914 208.959C202.914 208.997 202.914 208.959 202.914 208.959V208.959Z" fill="#0C1033"/>
<path d="M243.036 210.435H203.257C202.993 210.435 202.766 210.359 202.54 210.283C202.087 210.056 201.747 209.64 201.672 209.186C201.672 209.148 201.672 209.11 201.672 209.072C201.672 209.035 201.672 209.035 201.672 208.997C201.672 208.959 201.672 208.959 201.672 208.921V204.986C201.672 204.948 201.672 204.948 201.672 204.91C201.672 204.873 201.672 204.835 201.672 204.759C201.785 204.078 202.351 203.548 203.068 203.473C203.144 203.473 203.182 203.473 203.257 203.473H238.13C238.658 205.478 239.903 208.202 242.772 210.245C242.885 210.359 242.923 210.397 243.036 210.435Z" fill="#97C3F9"/>
<path d="M247.036 211.721H203.256C202.841 211.721 202.388 211.608 202.011 211.456C201.181 211.078 200.614 210.321 200.464 209.451C200.464 209.375 200.426 209.3 200.426 209.224C200.426 209.148 200.426 209.11 200.426 209.035C200.426 209.035 200.426 208.997 200.426 208.959V205.024C200.426 204.986 200.426 204.948 200.426 204.911V204.873C200.426 204.759 200.426 204.684 200.464 204.608C200.652 203.397 201.671 202.413 202.954 202.3C203.068 202.3 203.181 202.3 203.294 202.3H239.374V203.397C239.865 205.138 240.997 207.521 243.488 209.337C243.564 209.375 243.639 209.451 243.715 209.489L247.036 211.721ZM202.917 208.959C202.917 209.073 202.992 209.11 203.105 209.186C203.181 209.224 203.219 209.224 203.294 209.224H239.752C238.469 207.748 237.676 206.159 237.223 204.797H203.294H203.256C203.105 204.835 202.954 204.948 202.954 205.024V205.062L202.917 208.959ZM202.917 208.959C202.917 208.997 202.917 208.959 202.917 208.959V208.959Z" fill="#0C1033"/>
<path d="M270.401 203.511H269.57V210.473H270.401V203.511Z" fill="#97C3F9"/>
<path d="M271.683 202.262H268.324V211.721H271.683V202.262Z" fill="#0C1033"/>
<path d="M267.569 203.511H266.738V210.473H267.569V203.511Z" fill="#97C3F9"/>
<path d="M268.851 202.262H265.492V211.721H268.851V202.262Z" fill="#0C1033"/>
<path d="M264.135 203.511H263.305V210.473H264.135V203.511Z" fill="#97C3F9"/>
<path d="M265.418 202.262H262.059V211.721H265.418V202.262Z" fill="#0C1033"/>
<path d="M258.889 203.511H258.059V210.473H258.889V203.511Z" fill="#97C3F9"/>
<path d="M260.171 202.262H256.812V211.721H260.171V202.262Z" fill="#0C1033"/>
<path d="M253.342 203.511H252.512V210.473H253.342V203.511Z" fill="#97C3F9"/>
<path d="M254.625 202.262H251.266V211.721H254.625V202.262Z" fill="#0C1033"/>
<path d="M244.85 203.511H244.02V210.473H244.85V203.511Z" fill="#97C3F9"/>
<path d="M246.132 202.262H242.773V211.721H246.132V202.262Z" fill="#0C1033"/>
<path d="M236.885 203.511H236.055V210.473H236.885V203.511Z" fill="#97C3F9"/>
<path d="M238.168 202.262H234.809V211.721H238.168V202.262Z" fill="#0C1033"/>
<path d="M229.752 203.511H228.922V210.473H229.752V203.511Z" fill="#97C3F9"/>
<path d="M231.035 202.262H227.676V211.721H231.035V202.262Z" fill="#0C1033"/>
<path d="M273.119 203.511H272.289V210.473H273.119V203.511Z" fill="#97C3F9"/>
<path d="M274.402 202.262H271.043V211.721H274.402V202.262Z" fill="#0C1033"/>
<path d="M274.928 203.511H274.098V210.473H274.928V203.511Z" fill="#97C3F9"/>
<path d="M276.211 202.262H272.852V211.721H276.211V202.262Z" fill="#0C1033"/>
<path d="M276.662 203.511H275.832V210.473H276.662V203.511Z" fill="#97C3F9"/>
<path d="M277.945 202.262H274.586V211.721H277.945V202.262Z" fill="#0C1033"/>
<path d="M277.985 203.549V210.435C277.872 210.435 277.759 210.473 277.683 210.473H277.117V203.511H277.646C277.759 203.511 277.872 203.511 277.985 203.549Z" fill="#97C3F9"/>
<path d="M277.645 211.721H275.871V202.262H277.645C277.796 202.262 277.985 202.262 278.136 202.3L279.192 202.451V211.494L278.136 211.646C277.985 211.683 277.834 211.721 277.645 211.721Z" fill="#0C1033"/>
<path d="M279.155 204.192V209.791C278.966 210.056 278.664 210.245 278.324 210.359V203.624C278.664 203.738 278.928 203.927 279.155 204.192Z" fill="#97C3F9"/>
<path d="M277.039 212.062V201.884L278.662 202.414C279.228 202.603 279.719 202.943 280.096 203.397L280.36 203.738V210.246L280.096 210.586C279.719 211.04 279.228 211.381 278.662 211.57L277.039 212.062Z" fill="#0C1033"/>
<path d="M281.758 198.1V202.035C281.758 202.337 281.645 202.64 281.456 202.867C281.418 202.943 281.343 202.981 281.267 203.056C281.079 203.208 280.852 203.359 280.588 203.435C280.475 203.472 280.362 203.51 280.248 203.51C280.211 203.51 280.173 203.51 280.135 203.51H280.097C280.06 203.51 279.984 203.51 279.909 203.51H205.786C205.71 203.51 205.672 203.51 205.597 203.51C204.804 203.435 204.125 202.905 204.012 202.224C204.012 202.186 204.012 202.11 204.012 202.072V197.986C204.012 197.948 204.012 197.873 204.012 197.835C204.125 197.116 204.88 196.548 205.786 196.548H279.984C280.097 196.548 280.211 196.548 280.286 196.586C280.399 196.586 280.513 196.624 280.626 196.662C280.965 196.775 281.267 196.965 281.456 197.229C281.645 197.494 281.758 197.759 281.758 198.1Z" fill="#97C3F9"/>
<path d="M279.982 204.759H205.784C205.67 204.759 205.557 204.759 205.444 204.759C204.123 204.646 202.991 203.7 202.764 202.489C202.727 202.375 202.727 202.262 202.727 202.148V202.111V197.986C202.727 197.873 202.727 197.759 202.764 197.646C203.028 196.322 204.274 195.338 205.784 195.338H279.982C280.171 195.338 280.322 195.338 280.511 195.376C280.699 195.414 280.85 195.451 281.039 195.489C281.605 195.678 282.096 196.019 282.473 196.473C282.851 196.965 283.077 197.495 283.077 198.1V202.035C283.077 202.64 282.888 203.208 282.473 203.662C282.36 203.775 282.284 203.889 282.171 204.002C281.869 204.267 281.492 204.494 281.077 204.646C280.888 204.683 280.737 204.759 280.548 204.759C280.473 204.759 280.435 204.797 280.36 204.797C280.322 204.797 280.284 204.797 280.246 204.797C280.133 204.759 280.058 204.759 279.982 204.759ZM205.255 202.035C205.293 202.111 205.444 202.262 205.708 202.262C205.746 202.262 205.784 202.262 205.784 202.262H279.982C280.02 202.262 280.02 202.262 280.058 202.262H280.171C280.171 202.262 280.209 202.262 280.284 202.224C280.36 202.186 280.435 202.148 280.511 202.111C280.548 202.073 280.548 202.073 280.548 202.073C280.586 202.035 280.586 202.035 280.586 202.035V198.1C280.586 198.1 280.586 198.062 280.548 198.062C280.511 198.024 280.435 197.949 280.284 197.911H280.246C280.246 197.911 280.209 197.911 280.133 197.873C280.095 197.873 280.058 197.873 279.982 197.873H205.784C205.482 197.873 205.255 198.024 205.255 198.138V202.035Z" fill="#0C1033"/>
<path d="M245.334 203.51H205.593C205.517 203.51 205.48 203.51 205.404 203.51C204.687 203.435 204.083 202.905 204.008 202.224C204.008 202.186 204.008 202.11 204.008 202.072V197.986C204.008 197.948 204.008 197.873 204.008 197.835C204.008 197.797 204.046 197.721 204.046 197.683C204.234 197.04 204.838 196.548 205.593 196.548H240.466C240.994 198.629 242.315 201.429 245.334 203.51Z" fill="#97C3F9"/>
<path d="M250.617 204.759H205.592C205.479 204.759 205.366 204.759 205.29 204.759C204.007 204.608 202.988 203.7 202.799 202.451C202.762 202.338 202.762 202.262 202.762 202.148V202.111V197.986C202.762 197.873 202.762 197.759 202.799 197.646C202.799 197.57 202.837 197.457 202.875 197.343C203.215 196.17 204.347 195.338 205.63 195.338H241.446L241.71 196.246C242.201 198.024 243.333 200.559 246.013 202.413H246.051L250.617 204.759ZM205.253 202.035C205.253 202.148 205.404 202.262 205.555 202.262H205.592H242.088C240.805 200.786 240.012 199.197 239.559 197.835H205.63C205.441 197.835 205.328 197.949 205.29 198.062V198.1V202.035H205.253Z" fill="#0C1033"/>
<path d="M272.737 196.586H271.906V203.548H272.737V196.586Z" fill="#97C3F9"/>
<path d="M274.019 195.338H270.66V204.797H274.019V195.338Z" fill="#0C1033"/>
<path d="M269.865 196.586H269.035V203.548H269.865V196.586Z" fill="#97C3F9"/>
<path d="M271.148 195.338H267.789V204.797H271.148V195.338Z" fill="#0C1033"/>
<path d="M266.471 196.586H265.641V203.548H266.471V196.586Z" fill="#97C3F9"/>
<path d="M267.714 195.338H264.355V204.797H267.714V195.338Z" fill="#0C1033"/>
<path d="M261.225 196.586H260.395V203.548H261.225V196.586Z" fill="#97C3F9"/>
<path d="M262.468 195.338H259.109V204.797H262.468V195.338Z" fill="#0C1033"/>
<path d="M255.678 196.586H254.848V203.548H255.678V196.586Z" fill="#97C3F9"/>
<path d="M256.921 195.338H253.562V204.797H256.921V195.338Z" fill="#0C1033"/>
<path d="M247.147 196.586H246.316V203.548H247.147V196.586Z" fill="#97C3F9"/>
<path d="M248.429 195.338H245.07V204.797H248.429V195.338Z" fill="#0C1033"/>
<path d="M239.182 196.586H238.352V203.548H239.182V196.586Z" fill="#97C3F9"/>
<path d="M240.464 195.338H237.105V204.797H240.464V195.338Z" fill="#0C1033"/>
<path d="M232.088 196.586H231.258V203.548H232.088V196.586Z" fill="#97C3F9"/>
<path d="M233.371 195.338H230.012V204.797H233.371V195.338Z" fill="#0C1033"/>
<path d="M275.455 196.586H274.625V203.548H275.455V196.586Z" fill="#97C3F9"/>
<path d="M276.738 195.338H273.379V204.797H276.738V195.338Z" fill="#0C1033"/>
<path d="M277.225 196.586H276.395V203.548H277.225V196.586Z" fill="#97C3F9"/>
<path d="M278.507 195.338H275.148V204.797H278.507V195.338Z" fill="#0C1033"/>
<path d="M278.963 196.586H278.133V203.548H278.963V196.586Z" fill="#97C3F9"/>
<path d="M280.246 195.338H276.887V204.797H280.246V195.338Z" fill="#0C1033"/>
<path d="M280.283 196.586V203.472C280.17 203.472 280.057 203.51 279.981 203.51H279.453V196.548H279.981C280.095 196.586 280.17 196.586 280.283 196.586Z" fill="#97C3F9"/>
<path d="M279.981 204.759H278.207V195.3H279.981C280.132 195.3 280.321 195.3 280.472 195.338L281.528 195.489V204.532L280.472 204.683C280.321 204.759 280.132 204.759 279.981 204.759Z" fill="#0C1033"/>
<path d="M281.451 197.23V202.829C281.263 203.094 280.961 203.283 280.621 203.397V196.662C280.961 196.776 281.263 197.003 281.451 197.23Z" fill="#97C3F9"/>
<path d="M279.375 205.137V194.959L280.998 195.489C281.564 195.678 282.055 196.019 282.432 196.473L282.696 196.813V203.321L282.432 203.662C282.055 204.116 281.564 204.456 280.998 204.646L279.375 205.137Z" fill="#0C1033"/>
<path d="M192.762 272.6C213.21 272.6 229.786 255.982 229.786 235.482C229.786 214.983 213.21 198.365 192.762 198.365C172.314 198.365 155.738 214.983 155.738 235.482C155.738 255.982 172.314 272.6 192.762 272.6Z" fill="#97C3F9"/>
<path d="M192.761 273.849C171.664 273.849 154.492 256.633 154.492 235.483C154.492 214.332 171.664 197.154 192.761 197.154C213.859 197.154 231.031 214.37 231.031 235.52C231.031 256.671 213.859 273.849 192.761 273.849ZM192.761 199.651C173.061 199.651 157.021 215.732 157.021 235.483C157.021 255.233 173.061 271.314 192.761 271.314C212.462 271.314 228.502 255.233 228.502 235.483C228.54 215.732 212.5 199.651 192.761 199.651Z" fill="#0C1033"/>
<path d="M192.76 269.725C183.74 269.725 175.286 266.206 168.908 259.812C162.529 253.417 159.02 244.942 159.02 235.899C159.02 226.856 162.529 218.381 168.908 211.986C175.286 205.592 183.74 202.073 192.76 202.073C201.78 202.073 210.234 205.592 216.612 211.986C222.99 218.381 226.5 226.856 226.5 235.899C226.5 244.942 222.99 253.417 216.612 259.812C210.234 266.206 201.78 269.725 192.76 269.725ZM192.76 204.154C175.286 204.154 161.058 218.419 161.058 235.937C161.058 253.455 175.286 267.719 192.76 267.719C210.234 267.719 224.462 253.455 224.462 235.937C224.462 218.419 210.234 204.154 192.76 204.154Z" fill="#1F5A7B"/>
<path d="M197.403 245.736C197.478 245.017 197.478 244.336 197.327 243.769C197.176 243.201 196.912 242.634 196.497 242.142C196.082 241.65 195.516 241.158 194.836 240.666C194.157 240.212 193.289 239.72 192.27 239.228C190.534 238.358 188.949 237.488 187.515 236.618C186.118 235.747 184.91 234.764 183.967 233.742C183.023 232.683 182.306 231.51 181.891 230.223C181.438 228.937 181.325 227.423 181.514 225.721C181.702 224.245 182.118 222.921 182.759 221.786C183.439 220.651 184.307 219.667 185.363 218.872C186.458 218.078 187.703 217.472 189.1 217.094C190.534 216.678 192.081 216.527 193.78 216.564L194.421 211.002L198.912 211.532L198.233 217.17C199.818 217.586 201.215 218.154 202.46 218.948C203.705 219.743 204.687 220.726 205.479 221.861C206.272 222.997 206.838 224.283 207.178 225.759C207.517 227.196 207.555 228.823 207.366 230.564L199.29 229.618C199.554 227.537 199.252 225.91 198.459 224.775C197.667 223.64 196.497 222.959 194.949 222.77C194.119 222.656 193.364 222.694 192.723 222.845C192.081 222.997 191.553 223.261 191.1 223.64C190.647 224.018 190.307 224.434 190.081 224.964C189.817 225.494 189.666 226.099 189.59 226.742C189.515 227.386 189.553 227.991 189.666 228.521C189.779 229.05 190.043 229.58 190.458 230.072C190.873 230.564 191.402 231.056 192.119 231.548C192.836 232.039 193.704 232.531 194.799 233.099C196.535 234.007 198.082 234.877 199.478 235.785C200.875 236.655 202.045 237.639 202.988 238.699C203.932 239.758 204.649 240.931 205.064 242.217C205.517 243.504 205.63 245.017 205.441 246.682C205.253 248.196 204.838 249.558 204.158 250.693C203.479 251.828 202.611 252.812 201.516 253.568C200.46 254.325 199.176 254.893 197.742 255.271C196.308 255.649 194.761 255.801 193.062 255.763L192.459 260.946L188.005 260.417L188.609 255.271C187.062 254.93 185.627 254.401 184.231 253.72C182.835 253.039 181.665 252.131 180.646 250.995C179.627 249.898 178.91 248.536 178.419 246.985C177.928 245.396 177.815 243.58 178.042 241.499L186.118 242.444C185.967 243.693 186.005 244.715 186.269 245.585C186.533 246.455 186.911 247.174 187.401 247.742C187.93 248.309 188.534 248.725 189.251 249.028C189.968 249.331 190.685 249.52 191.477 249.595C192.345 249.709 193.138 249.671 193.817 249.52C194.497 249.368 195.1 249.141 195.591 248.763C196.082 248.423 196.459 247.969 196.761 247.477C197.138 246.985 197.327 246.379 197.403 245.736Z" fill="#1F5A7B"/>
<path d="M262.62 156.556C262.62 156.556 258.695 162.118 255.072 162.194C251.486 162.269 245.976 159.621 245.976 159.621C245.976 159.621 242.655 152.243 244.919 149.329C244.919 149.329 247.184 148.345 249.524 150.086C249.939 150.389 250.354 150.767 250.731 151.259C251.297 151.94 251.939 152.356 252.618 152.545C255.185 153.34 258.242 151.486 259.374 153.264C260.053 154.286 260.77 155.08 261.374 155.61C262.129 156.253 262.62 156.556 262.62 156.556Z" fill="#97C3F9"/>
<path d="M254.958 163.442C251.109 163.442 245.712 160.869 245.485 160.756L245.07 160.566L244.881 160.15C244.504 159.318 241.334 151.978 243.975 148.572L244.164 148.307L244.466 148.194C244.579 148.156 247.41 146.945 250.316 149.102C250.844 149.48 251.335 149.934 251.75 150.464C252.128 150.918 252.543 151.183 253.033 151.334C253.901 151.599 254.92 151.448 255.939 151.334C257.487 151.145 259.449 150.88 260.506 152.583C260.997 153.378 261.601 154.059 262.28 154.702C262.846 155.232 263.299 155.496 263.299 155.496L264.431 156.177L263.676 157.275C263.223 157.88 259.261 163.329 255.147 163.442C255.071 163.442 254.996 163.442 254.958 163.442ZM246.957 158.675C248.278 159.28 252.354 160.983 255.071 160.945C257.034 160.907 259.487 158.448 260.846 156.821C260.77 156.745 260.657 156.669 260.581 156.594C259.751 155.799 258.996 154.929 258.393 153.983C258.166 153.642 257.411 153.718 256.241 153.869C255.034 154.021 253.675 154.21 252.316 153.794C251.335 153.491 250.505 152.923 249.825 152.129C249.523 151.751 249.184 151.448 248.806 151.145C247.523 150.199 246.315 150.313 245.749 150.426C244.806 152.205 246.051 156.442 246.957 158.675Z" fill="#0C1033"/>
<path d="M211.371 196.587C211.371 196.587 225.26 162.837 250.282 162.193C250.282 162.193 273.379 164.766 274.663 196.587H211.371Z" fill="#97C3F9"/>
<path d="M275.944 197.835H209.52L210.237 196.095C210.388 195.754 213.86 187.392 220.464 178.841C229.334 167.377 239.637 161.209 250.242 160.907H250.317H250.393C250.657 160.945 256.582 161.626 262.734 166.431C268.358 170.82 275.189 179.598 275.868 196.511L275.944 197.835ZM213.331 195.338H273.339C272.585 183.344 268.433 174.074 261.225 168.436C255.979 164.35 250.884 163.517 250.242 163.442C229.56 164.047 216.539 188.527 213.331 195.338Z" fill="#0C1033"/>
<path d="M243.448 163.215C243.448 163.215 253.487 165.447 256.581 164.123C256.581 164.123 257.034 159.923 252.845 160.528C249.939 160.945 248.09 159.545 246.958 158.977C245.335 158.183 243.032 161.474 243.448 163.215Z" fill="#97C3F9"/>
<path d="M253.526 165.788C249.412 165.788 243.977 164.615 243.185 164.426L242.43 164.237L242.241 163.48C241.826 161.702 243.072 159.431 244.43 158.334C245.449 157.54 246.544 157.351 247.487 157.842C247.676 157.918 247.865 158.032 248.053 158.145C249.11 158.75 250.582 159.545 252.62 159.28C254.696 158.977 255.866 159.696 256.507 160.302C258.017 161.777 257.791 164.01 257.753 164.275L257.677 164.993L256.998 165.296C256.168 165.675 254.922 165.788 253.526 165.788ZM244.732 162.194C248.091 162.875 252.922 163.556 255.262 163.177C255.186 162.799 255.073 162.345 254.771 162.08C254.432 161.74 253.79 161.626 252.96 161.74C250.054 162.156 248.016 161.021 246.808 160.34C246.657 160.264 246.506 160.15 246.355 160.075C246.204 160.113 245.827 160.302 245.374 160.869C245.072 161.361 244.845 161.815 244.732 162.194Z" fill="#0C1033"/>
<path d="M224.954 187.165C224.69 186.938 234.805 172.258 237.56 172.182C240.353 172.069 246.58 175.398 251.109 175.814C255.638 176.231 260.016 174.944 260.884 177.63C261.752 180.317 264.092 189.814 262.658 191.327C261.186 192.841 230.502 191.895 224.954 187.165Z" fill="white"/>
<path d="M255.449 193.219C252.355 193.219 248.732 193.068 245.222 192.803C238.843 192.311 227.634 191.101 224.124 188.074C223.822 187.809 223.558 187.279 223.747 186.636C224.049 185.728 227.068 181.414 229.37 178.463C235.145 170.972 236.805 170.896 237.485 170.858C239.108 170.782 241.334 171.577 243.938 172.485C246.316 173.317 249.033 174.301 251.185 174.49C252.506 174.604 253.789 174.604 255.072 174.566C258.054 174.49 261.148 174.452 262.016 177.177C262.431 178.501 263.262 181.566 263.79 184.63C264.734 189.965 264.168 191.403 263.488 192.122C263.111 192.5 262.582 193.068 256.884 193.182C256.468 193.219 255.978 193.219 255.449 193.219ZM226.578 186.749C229.37 188.301 235.937 189.587 244.693 190.268C253.26 190.949 260.243 190.76 261.752 190.344C262.281 188.792 260.884 181.831 259.676 177.971C259.412 177.101 258.016 177.025 255.147 177.101C253.864 177.139 252.43 177.177 250.996 177.025C248.543 176.798 245.674 175.777 243.146 174.907C241.032 174.15 238.881 173.393 237.711 173.393C237.673 173.393 237.673 173.393 237.636 173.393C237.485 173.431 235.975 174.036 231.333 180.09C229.219 182.852 227.408 185.463 226.578 186.749Z" fill="#0C1033"/>
<path d="M73.9145 236.996C73.9145 236.996 73.5371 235.105 77.8773 229.316C78.8209 228.067 81.6514 224.435 81.6514 224.435C82.7837 224.17 85.35 225.797 87.2371 226.251C87.4635 226.289 87.69 226.781 87.69 226.781C87.69 226.781 89.0109 232.229 85.8407 231.51C85.7274 231.472 85.652 231.472 85.5387 231.434C82.444 230.943 79.5002 234.007 78.1415 235.975C77.2357 237.223 74.5184 237.034 73.9145 236.996Z" fill="#233862"/>
<path d="M82.4466 226.289C82.9372 226.44 83.5788 226.743 84.0694 226.932C84.711 227.197 85.3904 227.5 86.0697 227.727C86.1829 228.445 86.2207 229.24 86.1452 229.694C86.032 229.656 85.9187 229.656 85.8055 229.618C85.5036 229.581 85.2017 229.543 84.862 229.543C80.5973 229.543 77.3138 233.932 76.6722 234.878C76.6345 234.915 76.5212 234.953 76.3703 235.029C76.8609 234.007 77.7667 232.456 79.3141 230.375C79.9557 229.505 81.5408 227.424 82.4466 226.289ZM81.9182 224.397C81.805 224.397 81.7295 224.397 81.6163 224.435C81.6163 224.435 78.7857 228.067 77.8422 229.316C73.502 235.105 73.8794 236.996 73.8794 236.996C74.0303 236.996 74.3323 237.034 74.7474 237.034C75.8042 237.034 77.427 236.883 78.0686 235.937C79.3141 234.121 81.9937 231.359 84.8243 231.359C85.0507 231.359 85.2771 231.359 85.4659 231.397C85.5791 231.397 85.6546 231.435 85.7678 231.472C85.9565 231.51 86.1452 231.548 86.3339 231.548C88.7871 231.548 87.6548 226.781 87.6548 226.781C87.6548 226.781 87.4284 226.289 87.2019 226.251C85.5036 225.797 83.1637 224.397 81.9182 224.397Z" fill="#0C1033"/>
<path d="M74.2919 236.996C75.0468 236.353 75.6129 235.331 76.179 234.612C77.1225 233.44 78.1038 232.342 79.0473 231.207C80.0663 229.996 81.0476 228.824 81.7646 227.424C82.2553 226.516 82.6327 225.532 83.0478 224.586C82.4817 224.397 81.9533 224.321 81.6514 224.397C81.6514 224.397 78.8208 228.029 77.8773 229.278C73.5371 235.067 73.9145 236.958 73.9145 236.958C73.99 236.996 74.141 236.996 74.2919 236.996Z" fill="#0C1033"/>
<path d="M93.8833 225.23C93.8833 225.23 93.5059 223.338 97.8461 217.549C98.7896 216.3 101.62 212.668 101.62 212.668C102.752 212.403 106.262 214.257 107.168 214.825C107.357 214.938 107.621 215.014 107.621 215.014C107.621 215.014 108.942 220.462 105.772 219.743C105.658 219.705 105.583 219.705 105.47 219.668C102.375 219.176 99.4312 222.24 98.0725 224.208C97.1667 225.457 94.4871 225.267 93.8833 225.23Z" fill="#233862"/>
<path d="M102.413 214.522C103.356 214.824 104.979 215.581 106.036 216.224C106.111 216.905 106.149 217.549 106.074 217.927C105.96 217.889 105.847 217.889 105.734 217.851C105.432 217.813 105.13 217.776 104.79 217.776C100.526 217.776 97.2422 222.165 96.6006 223.111C96.5629 223.148 96.4497 223.186 96.2987 223.262C96.7893 222.24 97.6951 220.689 99.2425 218.608C99.9218 217.738 101.507 215.657 102.413 214.522ZM101.884 212.63C101.771 212.63 101.696 212.63 101.62 212.668C101.62 212.668 98.7896 216.3 97.8461 217.549C93.5059 223.338 93.8833 225.229 93.8833 225.229C94.0342 225.229 94.3362 225.267 94.7513 225.267C95.8081 225.267 97.4309 225.116 98.0725 224.17C99.318 222.354 101.998 219.592 104.828 219.592C105.055 219.592 105.281 219.592 105.47 219.63C105.583 219.63 105.658 219.667 105.772 219.705C105.96 219.743 106.149 219.781 106.338 219.781C108.791 219.781 107.659 215.014 107.659 215.014C107.659 215.014 107.395 214.938 107.206 214.824C106.3 214.295 103.205 212.63 101.884 212.63Z" fill="#0C1033"/>
<path d="M94.2607 225.267C95.0155 224.624 95.5816 223.602 96.1477 222.884C97.0913 221.711 98.0725 220.613 99.016 219.478C100.035 218.267 101.016 217.095 101.733 215.695C102.224 214.787 102.601 213.803 103.017 212.857C102.45 212.668 101.922 212.592 101.62 212.668C101.62 212.668 98.7896 216.3 97.8461 217.549C93.5059 223.338 93.8833 225.229 93.8833 225.229C93.9588 225.229 94.1097 225.229 94.2607 225.267Z" fill="#0C1033"/>
<path d="M142.375 193.295C141.507 189.474 135.997 196.133 130.977 198.895C125.92 201.657 133.393 206.387 138.639 224.019C138.714 224.283 138.79 224.548 138.865 224.813C128.26 223.073 106.559 214.484 106.559 214.484C106.559 214.484 105.351 215.089 104.672 216.792C103.804 218.949 104.408 219.554 104.408 219.554C113.956 222.202 133.242 232.153 141.016 236.126C143.998 237.488 147.47 237.488 148.187 234.84C150.565 226.1 142.375 193.295 142.375 193.295Z" fill="#0C1033"/>
<path d="M141.281 113.082C142.036 114.785 142.602 117.017 142.112 118.228C141.546 119.552 141.697 120.536 141.697 120.536L140.489 120.838L139.055 121.179C139.055 121.179 138.979 121.065 138.866 120.838C138.753 120.611 138.602 120.309 138.451 119.968C138.451 119.968 138.375 119.325 137.772 119.022C137.168 118.72 136.526 118.001 136.375 117.282C136.262 116.563 135.507 115.201 135.734 115.087C137.092 114.368 137.168 115.92 137.621 116.033C138.036 116.109 138.111 116.033 138.149 115.958C138.866 114.255 137.432 110.66 138.451 110.396C138.791 110.282 140.942 112.363 141.281 113.082Z" fill="white"/>
<path d="M140.076 114.974C140.529 116.298 140.567 117.244 140.454 117.509C140.227 118.077 140.076 118.568 140.001 119.022C139.812 118.493 139.435 117.963 138.831 117.585C139.322 117.358 139.623 116.941 139.774 116.525V116.487C139.774 116.487 139.774 116.45 139.812 116.45V116.412C140.001 115.958 140.076 115.466 140.076 114.974ZM138.453 110.358C138.416 110.358 138.416 110.358 138.453 110.358C137.397 110.585 138.831 114.179 138.114 115.92C138.114 115.958 138.038 116.033 137.85 116.033C137.774 116.033 137.699 116.033 137.585 115.996C137.208 115.92 137.095 114.86 136.34 114.86C136.151 114.86 135.963 114.898 135.698 115.05C135.472 115.163 136.227 116.525 136.34 117.244C136.453 117.963 137.095 118.72 137.736 118.985C138.34 119.287 138.416 119.931 138.416 119.931C138.567 120.271 138.718 120.574 138.831 120.801C138.944 121.028 139.02 121.141 139.02 121.141L140.454 120.801L141.661 120.498C141.661 120.498 141.51 119.514 142.077 118.19C142.567 117.017 142.001 114.785 141.246 113.044C140.982 112.363 138.906 110.358 138.453 110.358Z" fill="#0C1033"/>
<path d="M63.3103 147.551C64.5557 148.913 66.3673 150.351 67.6505 150.389C69.0846 150.427 69.5375 151.41 69.5375 151.41L70.6698 149.935L71.5755 148.762C71.5755 148.762 71.5001 148.648 71.3491 148.459C71.1981 148.27 70.1791 147.4 70.1414 146.719C70.1414 146.038 69.6885 145.13 69.0846 144.751C68.4808 144.335 67.6882 143.2 67.3486 143.276C66.405 143.465 67.6882 144.903 67.6128 145.357C67.5373 145.773 67.1221 145.848 67.0466 145.848C65.1973 145.811 62.631 143.011 61.9894 143.881C61.7629 144.146 62.7819 146.946 63.3103 147.551Z" fill="white"/>
<path d="M68.4405 147.135C68.5537 147.816 68.9311 148.384 69.3085 148.838V148.875L69.2708 148.913C68.8179 148.724 68.3272 148.611 67.7234 148.611C67.4592 148.611 66.6666 148.194 65.6854 147.324C66.1005 147.475 66.5534 147.589 67.0063 147.589H67.0441H67.0818H67.1195C67.5347 147.589 68.0253 147.438 68.4405 147.135ZM67.4215 143.238C67.3837 143.238 67.3837 143.238 67.4215 143.238C66.4402 143.427 67.7234 144.865 67.6479 145.319C67.5724 145.697 67.1573 145.811 67.0818 145.811C65.4967 145.773 63.3077 143.654 62.3642 143.654C62.2132 143.654 62.1 143.692 62.0245 143.805C61.7981 144.108 62.8171 146.946 63.3454 147.513C64.5909 148.875 66.4025 150.313 67.6857 150.351C69.1198 150.389 69.5727 151.373 69.5727 151.373L70.7049 149.897L71.6107 148.724C71.6107 148.724 71.5352 148.611 71.3843 148.421C71.2333 148.232 70.2143 147.362 70.1766 146.681C70.1766 146 69.7237 145.092 69.1198 144.713C68.5537 144.335 67.7989 143.238 67.4215 143.238Z" fill="#0C1033"/>
<path d="M120.488 201.127C114.94 202.565 118.072 208.392 118.903 226.78C118.978 228.861 119.205 230.867 119.469 232.796C111.317 231.169 92.6727 227.159 86.3323 226.099C86.3323 226.099 85.2755 226.856 84.8226 228.71C84.4452 230.337 84.7472 231.359 84.7472 231.359L125.017 243.655C126.413 244.034 127.734 243.315 128.791 241.309C132.98 233.25 134.527 196.625 134.527 196.625C134.603 192.652 126.073 199.652 120.488 201.127Z" fill="#0C1033"/>
<path d="M110.865 160.529C110.865 160.529 112.827 155.572 109.016 148.497L114.413 149.708L118.073 150.54C118.073 150.54 118.677 151.789 119.47 154.135C119.696 154.74 120.451 157.199 120.678 157.956C121.961 157.994 120.111 159.961 117.47 160.34C114.526 160.756 110.865 160.529 110.865 160.529Z" fill="white"/>
<path d="M113.129 161.513C111.845 161.513 110.902 161.475 110.826 161.437L109.581 161.361L110.034 160.226C110.071 160.15 111.77 155.497 108.222 148.913L107.316 147.21L118.714 149.745L118.903 150.124C118.941 150.162 119.544 151.448 120.337 153.794C120.526 154.324 121.092 156.178 121.432 157.199C121.809 157.426 121.998 157.767 122.035 158.145C122.111 159.507 119.733 160.907 117.62 161.21C116.11 161.437 114.412 161.513 113.129 161.513ZM112.034 159.696C113.317 159.734 115.506 159.734 117.393 159.469C118.563 159.28 119.469 158.788 119.96 158.41L119.884 158.221C119.658 157.464 118.903 155.043 118.676 154.437C118.148 152.924 117.733 151.864 117.506 151.335L110.675 149.821C112.638 154.362 112.374 157.956 112.034 159.696Z" fill="#0C1033"/>
<path d="M120.529 148.649C120.529 148.649 114.264 155.573 110.037 151.6C105.772 147.627 102.111 145.849 105.923 141.233C109.735 136.617 112.15 137.298 113.886 138.282C115.623 139.303 122.038 146.757 120.529 148.649Z" fill="white"/>
<path d="M113.053 153.757C111.657 153.757 110.449 153.265 109.392 152.281C108.751 151.676 108.147 151.146 107.543 150.616C104.26 147.741 101.429 145.281 105.203 140.703C109.355 135.709 112.223 136.39 114.299 137.563C115.884 138.471 120.941 144.108 121.545 147.249C121.696 148.081 121.583 148.724 121.205 149.216L121.168 149.254C121.017 149.443 117.243 153.567 113.28 153.719C113.204 153.757 113.129 153.757 113.053 153.757ZM111.544 138.508C110.374 138.508 108.789 139.19 106.562 141.838C103.882 145.054 105.279 146.303 108.675 149.254C109.279 149.784 109.921 150.351 110.562 150.957C111.317 151.676 112.185 151.978 113.167 151.94C116.186 151.827 119.432 148.459 119.771 148.081C119.809 148.043 119.809 147.892 119.771 147.551C119.281 145.054 114.638 139.795 113.393 139.076C112.978 138.849 112.374 138.508 111.544 138.508Z" fill="#0C1033"/>
<path d="M109.657 151.184C109.657 151.184 110.298 150.465 109.355 149.557C108.411 148.648 107.354 147.286 108.411 146.87C109.43 146.454 109.996 147.097 110.034 146.416C110.072 145.773 108.789 144.108 111.166 142.027C113.544 139.946 115.242 140.022 115.959 138.584C116.676 137.146 115.054 132.719 111.43 132.682C107.807 132.644 106.486 135.633 105.241 136.73C102.561 139.152 100.863 140.778 101.429 143.351C101.957 146 106.449 150.843 109.657 151.184Z" fill="#0C1033"/>
<path d="M145.661 133.022C144.68 126.855 141.698 120.082 141.698 120.082L138.453 119.931C138.453 119.931 140 128.482 139.924 134.346C139.887 137.146 139.358 140.741 139.019 141.195C138 142.557 120.752 156.102 120.752 156.102L120.261 156.329C119.884 157.881 119.356 158.978 117.733 159.394C115.015 160.113 112.487 158.486 110.071 159.356C110.071 159.356 102.976 161.21 102.108 161.248C97.3904 161.361 88.7478 159.697 85.804 158.297C82.8602 156.897 71.3869 148.421 71.3869 148.421L69.2734 150.919C69.2734 150.919 77.8406 164.388 84.1056 167.15C87.5023 168.626 98.8623 170.631 104.939 171.956C107.354 172.485 115.431 197.344 116.94 205.441C116.978 205.744 117.167 205.971 117.431 205.857C121.167 204.268 135.396 198.29 135.999 197.949C137.811 196.965 143.585 195.111 143.208 193.939C140.453 185.615 133.848 162.534 135.018 160.643C138.792 154.551 146.491 144.676 146.567 142.708C146.567 141.649 146.227 136.579 145.661 133.022Z" fill="#1F5A7B"/>
<path d="M140.566 122.125C141.434 124.319 143.208 129.011 143.887 133.324C144.416 136.692 144.755 141.459 144.755 142.557C144.68 142.746 144.416 143.502 142.906 145.773C141.812 147.475 140.377 149.518 138.868 151.675C136.943 154.437 134.905 157.313 133.471 159.659C132.98 160.453 132.263 161.588 135.886 175.285C137.622 181.869 139.811 189.209 141.208 193.56C140.34 194.09 138.604 194.809 137.66 195.187C136.641 195.603 135.773 195.982 135.131 196.322C134.263 196.738 122.715 201.619 118.299 203.473C117.318 199.084 115.166 191.82 112.902 185.236C107.92 170.745 106.335 170.404 105.278 170.177C103.693 169.837 101.731 169.42 99.6549 169.004C94.0692 167.869 87.1249 166.507 84.785 165.448C80.4825 163.556 74.293 155.232 71.5002 150.994L71.6889 150.805C74.8968 153.151 82.5582 158.675 85.0491 159.886C88.2194 161.399 96.7488 163.026 101.617 163.026C101.806 163.026 101.995 163.026 102.184 163.026C103.052 162.988 107.203 161.967 110.524 161.059L110.6 161.021L110.675 160.983C110.977 160.869 111.317 160.832 111.694 160.832C112.26 160.832 112.902 160.945 113.544 161.059C114.336 161.172 115.204 161.323 116.148 161.323C116.865 161.323 117.506 161.248 118.148 161.059C120.375 160.453 121.28 159.015 121.733 157.464L121.809 157.388C121.847 157.351 126.187 153.945 130.565 150.427C139.623 143.162 140.113 142.481 140.415 142.14C141.472 140.703 141.661 134.346 141.661 134.27C141.698 130.335 141.019 125.152 140.566 122.125ZM138.415 119.968C138.415 119.968 139.962 128.519 139.887 134.384C139.849 137.184 139.321 140.778 138.981 141.232C137.962 142.594 120.714 156.14 120.714 156.14L120.224 156.367C119.846 157.918 119.318 159.015 117.695 159.432C117.167 159.583 116.676 159.621 116.148 159.621C114.6 159.621 113.128 159.129 111.694 159.129C111.128 159.129 110.6 159.205 110.034 159.394C110.034 159.394 102.938 161.248 102.07 161.286C101.919 161.286 101.731 161.286 101.58 161.286C96.7488 161.286 88.6345 159.659 85.804 158.296C82.8602 156.897 71.3869 148.421 71.3869 148.421L69.2734 150.918C69.2734 150.918 77.8406 164.388 84.1056 167.15C87.5023 168.626 98.8623 170.631 104.939 171.955C107.354 172.485 115.431 197.344 116.94 205.441C116.978 205.668 117.129 205.857 117.318 205.857C117.355 205.857 117.393 205.857 117.469 205.819C121.205 204.23 135.433 198.252 136.037 197.911C137.849 196.927 143.623 195.073 143.246 193.901C140.491 185.577 133.886 162.496 135.056 160.605C138.83 154.513 146.529 144.638 146.605 142.67C146.642 141.611 146.303 136.578 145.699 133.022C144.718 126.854 141.736 120.082 141.736 120.082L138.415 119.968Z" fill="#0C1033"/>
<circle cx="253" cy="30" r="25" fill="#1F5A7B"/>
<path d="M256.967 28.824C258.479 29.232 259.631 29.976 260.423 31.056C261.239 32.136 261.647 33.468 261.647 35.052C261.647 37.284 260.819 39.048 259.163 40.344C257.531 41.64 255.323 42.288 252.539 42.288C250.811 42.288 249.143 42.024 247.535 41.496C245.951 40.968 244.643 40.236 243.611 39.3L245.195 35.916C247.475 37.692 249.863 38.58 252.359 38.58C253.991 38.58 255.203 38.256 255.995 37.608C256.811 36.96 257.219 35.976 257.219 34.656C257.219 33.36 256.811 32.412 255.995 31.812C255.179 31.188 253.919 30.876 252.215 30.876H248.831V27.168H251.603C254.915 27.168 256.571 25.908 256.571 23.388C256.571 22.212 256.211 21.312 255.491 20.688C254.771 20.064 253.763 19.752 252.467 19.752C250.163 19.752 247.859 20.64 245.555 22.416L244.007 19.032C245.039 18.12 246.335 17.4 247.895 16.872C249.479 16.32 251.099 16.044 252.755 16.044C255.275 16.044 257.279 16.668 258.767 17.916C260.279 19.14 261.035 20.784 261.035 22.848C261.011 24.264 260.639 25.5 259.919 26.556C259.223 27.588 258.239 28.344 256.967 28.824Z" fill="white"/>
</svg>
