<svg xmlns="http://www.w3.org/2000/svg" width="226" height="87" fill="none"><path fill="#0C1033" d="m37.992 49.686-7.095 6.946-28.958-28.34 7.095-6.947 28.958 28.34ZM30.836 0l-7.247 7.095 7.247 7.095 7.247-7.095L30.836 0ZM67.04 7.314 59.946.368l-28.958 28.35 7.095 6.946L67.04 7.314Zm21.792 21.335-7.247-7.095-7.247 7.095 7.247 7.095 7.247-7.095Zm-8.881 37.006 7.094-6.946L58.1 30.368l-7.095 6.946 28.948 28.34ZM58.16 87l7.247-7.095-7.247-7.095-7.248 7.095L58.16 87Zm-36.368-7.175 7.095 6.946 28.958-28.35-7.095-6.946-28.958 28.35ZM0 58.48l7.247 7.095 7.247-7.095-7.247-7.095L0 58.48Zm154.625-2.852v-2.772h5.319v-1.888h-5.319v-2.415h5.755v-1.958h-7.744v10.971h7.846v-1.928h-5.857v-.01Zm-35.017-14.985c1.4 0 2.537-.487 3.369-1.44.681-.786 1.097-1.76 1.218-2.912l.041-.388h-1.969l-.051.288c-.122.626-.304 1.143-.548 1.51-.436.686-1.055 1.014-1.888 1.014-.923 0-1.603-.318-2.06-.974-.487-.685-.731-1.6-.731-2.722 0-1.382.264-2.405.792-3.051.517-.626 1.177-.934 2.02-.934.68 0 1.207.159 1.573.487.375.338.629.805.751 1.39l.061.28h1.959l-.031-.378c-.081-.954-.487-1.809-1.218-2.554-.741-.756-1.786-1.133-3.095-1.133-1.543 0-2.771.576-3.655 1.719-.801 1.024-1.197 2.355-1.197 3.935 0 2.087.538 3.657 1.614 4.68.802.786 1.827 1.183 3.045 1.183Zm12.636-11.517c1.817 0 3.188.636 4.081 1.898.68.964 1.025 2.206 1.025 3.687 0 1.6-.396 2.95-1.157 4.024-.924 1.282-2.264 1.938-3.959 1.938-1.593 0-2.862-.577-3.776-1.7-.812-1.073-1.218-2.424-1.218-4.034 0-1.45.346-2.713 1.026-3.756.893-1.361 2.233-2.057 3.978-2.057Zm.132 9.6c1.026 0 1.736-.378 2.183-1.144.477-.814.72-1.778.72-2.852 0-1.122-.274-2.027-.812-2.692-.528-.656-1.228-.974-2.152-.974-.893 0-1.603.318-2.161.974-.569.655-.863 1.669-.863 3 0 1.064.254 1.968.751 2.684.477.675 1.238 1.003 2.334 1.003Zm12.81-9.322c1.441 0 2.578.557 3.38 1.65.69.964 1.045 2.196 1.045 3.676 0 1.133-.203 2.177-.609 3.09-.741 1.69-2.02 2.555-3.826 2.555h-4.253v-10.97h4.263Zm-2.233 9.083h1.969c.396 0 .72-.04.974-.13.426-.148.772-.447 1.056-.904.233-.367.406-.864.507-1.47.061-.368.092-.706.092-1.014 0-1.193-.224-2.127-.65-2.773-.406-.606-1.056-.894-1.989-.894h-1.959v7.185Zm12.403-2.813h5.319v-1.888h-5.319v-2.414h5.755v-1.968h-7.744v10.97h7.846v-1.927h-5.847v-2.773h-.01Zm-35.799 17.54h3.004c-.061.914-.314 1.59-.751 2.007-.507.477-1.126.705-1.908.705-1.015 0-1.715-.318-2.152-.983-.467-.706-.69-1.64-.69-2.793 0-1.321.274-2.315.832-2.961.548-.636 1.188-.944 1.98-.944.669 0 1.228.15 1.664.447.416.288.69.755.832 1.421l.061.278h2l-.061-.407c-.233-1.45-.883-2.474-1.928-3.07-.711-.398-1.564-.607-2.528-.607-1.421 0-2.598.527-3.502 1.58-.923 1.074-1.4 2.534-1.4 4.333 0 1.808.477 3.25 1.451 4.322.883.855 1.959 1.282 3.197 1.282.944 0 1.746-.188 2.365-.566.244-.149.508-.358.802-.646l.224.934h1.481v-6.2h-4.953v1.868h-.02Zm11.053-.368h5.319v-1.888h-5.319v-2.415h5.755v-1.967h-7.744v10.97h7.846v-1.928h-5.847v-2.772h-.01Zm15.936 1.083-4.304-7.343h-2.111v10.97h1.969v-7.353l4.375 7.353h2.03v-10.97h-1.959v7.343Zm26.065 2.335c.041.15.101.338.223.388l.203.1v.804h-2.182l-.101-.199a1.509 1.509 0 0 1-.132-.427c-.031-.159-.051-.457-.071-.864l-.082-1.71c-.02-.546-.193-.884-.507-1.053-.132-.07-.416-.149-1.005-.149h-2.609v4.402h-2.019v-10.97h4.821c.792 0 1.451.129 1.979.377 1.035.497 1.563 1.421 1.563 2.743 0 .675-.142 1.242-.406 1.69a2.982 2.982 0 0 1-.639.734c.193.14.345.289.477.467.233.328.355.815.385 1.481l.041 1.381c-.01.448.031.686.061.805Zm-1.989-6.429c0-.596-.183-.984-.559-1.183-.213-.109-.517-.169-.893-.169h-2.832v2.803h2.66c.527 0 .944-.11 1.238-.318.264-.189.386-.577.386-1.133Zm10.809-3.25 3.736 10.971h-2.193l-.974-3.07h-3.289l-1.045 3.07h-2.101l3.877-10.97h1.989Zm-1.065 3.011-1.046 3.041h2.03l-.984-3.04Zm6.019-1.083h3.248v9.043h2.05v-9.043h3.248v-1.927h-8.536v1.927h-.01Zm11.987 9.043h2.04v-10.97h-2.04v10.97Zm10.647-11.249c1.817 0 3.187.636 4.08 1.898.68.964 1.026 2.206 1.026 3.687 0 1.6-.396 2.951-1.158 4.024-.923 1.282-2.263 1.938-3.958 1.938-1.594 0-2.862-.576-3.776-1.699-.812-1.073-1.218-2.425-1.218-4.035 0-1.45.345-2.712 1.025-3.756.883-1.371 2.223-2.057 3.979-2.057Zm.132 9.6c1.025 0 1.736-.378 2.182-1.143.477-.815.721-1.779.721-2.852 0-1.123-.274-2.027-.812-2.693-.528-.656-1.228-.974-2.152-.974-.893 0-1.604.318-2.162.974-.568.656-.863 1.67-.863 3 0 1.064.254 1.968.751 2.684.478.676 1.239 1.004 2.335 1.004Zm14.89-9.321v7.343l-4.304-7.343h-2.111v10.97h1.969v-7.353l4.375 7.353H226v-10.97h-1.959Zm-117.436-28.57h-1.015v51.107h1.015V18.016Z"/></svg>