<svg width="219" height="133" viewBox="0 0 219 133" fill="none" xmlns="http://www.w3.org/2000/svg">
<path d="M214.898 38.4633C214.898 38.4633 210.349 37.9606 211.281 43.099L153.261 9.47604C149.458 7.57706 144.946 7.70738 141.273 9.84838L15.4813 82.2141C10.3915 79.8869 5.71186 79.1236 3.60508 82.5492C-0.198312 88.7488 2.35593 92.1372 4.49999 94.2223C5.00338 94.7808 5.65593 95.3021 6.45762 95.7489C6.5322 95.7862 6.56948 95.8048 6.56948 95.8048L66.9017 130.694C70.6491 132.555 75.0678 132.425 78.6847 130.321L213.873 52.4822C213.873 52.4822 222.822 47.0459 214.898 38.4633Z" fill="#0C1033"/>
<path d="M72.4576 132.835C70.444 132.835 68.4118 132.369 66.5474 131.439L6.17794 96.5124C5.22709 95.9725 4.48133 95.4139 3.90336 94.7623C1.57285 92.5096 -1.11189 88.6931 2.91523 82.1211C4.94743 78.7886 9.17963 78.5094 15.444 81.302L140.863 9.12243C144.797 6.85111 149.569 6.70217 153.634 8.73146L210.349 41.5911C210.386 40.4741 210.722 39.5618 211.375 38.873C212.736 37.4208 214.917 37.6442 215.01 37.6442L215.308 37.6815L215.514 37.9049C218.18 40.7906 219.317 43.6763 218.925 46.4875C218.329 50.695 214.469 53.078 214.302 53.1711L79.1135 131.029C77.044 132.22 74.7508 132.835 72.4576 132.835ZM8.22879 81.0413C6.42031 81.0413 5.11523 81.6929 4.31353 82.9775C0.9576 88.451 2.82201 91.4298 5.07794 93.6267C5.58133 94.1666 6.15929 94.632 6.86777 95.023L67.3118 129.986C70.7796 131.718 74.8813 131.587 78.2746 129.614L213.463 51.7562C213.481 51.7562 216.819 49.6711 217.285 46.2455C217.602 44.03 216.669 41.6842 214.525 39.2639C214.059 39.2639 213.127 39.3756 212.549 39.99C211.99 40.5858 211.841 41.5725 212.083 42.9316L212.4 44.6816L152.851 10.1836C149.327 8.41497 145.132 8.54529 141.702 10.556L15.5186 83.1265L15.1271 82.9403C12.3491 81.6743 10.0373 81.0413 8.22879 81.0413Z" fill="#0C1033"/>
<path d="M5.52538 80.5946L141.217 2.53198C144.89 0.390979 149.402 0.260657 153.205 2.15963L213.537 37.123C216.651 39.3944 217.266 43.937 213.817 45.9291L78.6288 123.787C75.0118 125.891 70.5745 126.021 66.8457 124.159L6.51352 89.2517C2.18809 86.6825 2.43046 82.6425 5.52538 80.5946Z" fill="white"/>
<path d="M213.5 40.2134L153.168 5.24996C149.364 3.35099 144.853 3.48131 141.18 5.62231L5.48812 83.6849C4.59321 84.2807 3.97795 85.0626 3.60507 85.9004C4.07117 86.9988 4.98473 88.06 6.4949 88.9536L66.8271 123.861C70.5746 125.723 74.9932 125.593 78.6102 123.489L213.798 45.6496C214.824 45.0539 215.458 44.2161 215.812 43.3039C215.383 42.1123 214.6 41.0325 213.5 40.2134Z" fill="#97C3F9"/>
<path d="M72.4017 126.3C70.3881 126.3 68.3559 125.835 66.4915 124.904L6.10336 89.9592C3.77286 88.5815 2.46777 86.6825 2.41184 84.616C2.35591 82.7729 3.3254 81.0601 5.0593 79.9058L5.09659 79.8686L140.807 1.82457C144.741 -0.446745 149.514 -0.595684 153.578 1.43361L213.966 36.4156C215.961 37.8678 217.08 40.0833 216.986 42.2615C216.893 44.1232 215.924 45.6871 214.246 46.6552L79.039 124.494C76.9881 125.686 74.6949 126.3 72.4017 126.3ZM5.95421 81.2835C4.70506 82.1213 4.01523 83.3128 4.05252 84.5602C4.08981 86.0309 5.11523 87.4459 6.9237 88.5257L67.2373 123.415C70.7051 125.146 74.8068 125.016 78.2 123.042L213.407 45.2217C214.581 44.5514 215.253 43.453 215.327 42.1684C215.402 40.5487 214.544 38.8731 213.053 37.7933L152.776 2.86715C149.253 1.0985 145.058 1.22882 141.627 3.23949L5.95421 81.2835Z" fill="#0C1033"/>
<path d="M168.997 17.5377L168.922 17.5005C168.531 17.2771 168.586 16.8861 169.034 16.6255C169.481 16.3648 170.153 16.3276 170.544 16.551L170.619 16.5882C171.01 16.8116 170.954 17.2026 170.507 17.4632C170.059 17.7239 169.37 17.7611 168.997 17.5377Z" fill="#0C1033"/>
<path d="M184.602 26.4553L171.178 18.7849C170.786 18.5615 170.842 18.1705 171.29 17.9099C171.737 17.6492 172.408 17.612 172.8 17.8354L186.224 25.5058C186.615 25.7292 186.559 26.1201 186.112 26.3808C185.664 26.6414 184.993 26.6787 184.602 26.4553Z" fill="#0C1033"/>
<path d="M180.146 70.3736C180.034 70.3736 179.903 70.355 179.791 70.3177C178.934 70.0757 178.505 69.0704 178.803 68.0092C178.971 67.4506 179.549 66.8921 179.661 66.799L186.429 62.8708C186.802 62.6846 187.156 62.6474 187.491 62.7405C187.846 62.8335 188.144 63.0942 188.33 63.4293C188.591 63.8761 188.629 64.4719 188.461 65.0304C188.293 65.6448 187.883 66.1474 187.38 66.3708L180.891 70.1502C180.612 70.3177 180.369 70.3736 180.146 70.3736ZM187.119 63.8016C187.063 63.8016 187.007 63.8203 186.951 63.8389L180.314 67.6927C180.22 67.8044 179.922 68.1395 179.866 68.3257C179.736 68.7911 179.885 69.2193 180.108 69.2752C180.164 69.2938 180.239 69.2752 180.332 69.2379L186.876 65.4214C187.1 65.3097 187.305 65.1049 187.417 64.7511C187.491 64.4719 187.491 64.174 187.38 63.9692C187.342 63.9134 187.286 63.8203 187.193 63.8016C187.175 63.8016 187.156 63.8016 187.119 63.8016Z" fill="white"/>
<path d="M190.437 64.5464C190.325 64.5464 190.214 64.5278 190.102 64.4906C189.244 64.2485 188.815 63.2246 189.114 62.182C189.281 61.6235 189.859 61.065 189.971 60.9719L196.739 57.0436C197.112 56.8575 197.447 56.8202 197.802 56.9133C198.156 57.0064 198.454 57.267 198.641 57.6022C198.902 58.049 198.939 58.6447 198.771 59.2032C198.603 59.8176 198.193 60.3203 197.69 60.5437L191.202 64.323C190.903 64.472 190.661 64.5464 190.437 64.5464ZM197.41 57.9559C197.354 57.9559 197.298 57.9745 197.242 57.9931L190.605 61.8469C190.493 61.9586 190.214 62.2937 190.158 62.4799C190.027 62.9453 190.176 63.3735 190.4 63.4294C190.456 63.448 190.549 63.448 190.624 63.3921L197.168 59.5756C197.429 59.4453 197.615 59.2032 197.708 58.9054C197.783 58.6261 197.783 58.3282 197.671 58.1234C197.634 58.049 197.578 57.9745 197.485 57.9559C197.447 57.9559 197.429 57.9559 197.41 57.9559Z" fill="white"/>
<path d="M174.814 73.3895C174.72 73.3895 174.627 73.3709 174.534 73.3523C174.105 73.2219 173.751 72.8868 173.583 72.4214C173.415 71.9932 173.415 71.5091 173.546 71.0437C173.714 70.4852 174.049 70.0197 174.497 69.7777L176.137 68.8655C176.417 68.7724 176.846 68.6607 177.181 68.7538C177.536 68.8655 177.834 69.1075 178.02 69.4426C178.281 69.8894 178.319 70.4852 178.151 71.0437C177.983 71.6581 177.312 72.2166 177.181 72.3097L175.559 73.2219C175.373 73.315 175.093 73.3895 174.814 73.3895ZM176.902 69.815C176.827 69.815 176.678 69.8336 176.585 69.8708L175.056 70.7272C174.869 70.8389 174.702 71.0809 174.608 71.3602C174.534 71.6022 174.534 71.8629 174.608 72.049C174.646 72.1235 174.702 72.2724 174.832 72.3097C174.869 72.3097 175.037 72.2725 175.13 72.2538L176.585 71.4347C176.715 71.323 177.051 70.9692 177.107 70.7644C177.181 70.4852 177.181 70.1873 177.069 69.9825C177.051 69.908 176.995 69.8336 176.902 69.815Z" fill="white"/>
<path d="M203.917 41.8706L145.486 8.28482C142.82 6.94437 139.669 7.05608 137.097 8.54547L15.5 78.4165C13.3373 79.85 13.1695 82.6798 16.1898 84.4857L74.6203 118.034C77.2491 119.337 80.3441 119.244 82.8796 117.774L204.103 48.0701C206.527 46.6366 206.415 43.1179 203.917 41.8706Z" fill="white"/>
<path d="M78.5169 119.486C77.1 119.486 75.683 119.17 74.3779 118.518L15.9288 84.9512C14.3068 83.9831 13.3932 82.6613 13.3559 81.2278C13.3186 79.9432 13.9898 78.7516 15.2017 77.9511L136.817 8.08012C139.558 6.47903 142.895 6.38594 145.729 7.80086L204.178 41.3866C205.52 42.0754 206.359 43.3787 206.397 44.8867C206.452 46.3947 205.688 47.7537 204.383 48.517L83.1593 118.239C81.7237 119.077 80.1203 119.486 78.5169 119.486ZM141.534 7.89395C140.098 7.89395 138.663 8.26629 137.358 9.02961L15.7796 78.882C14.922 79.4591 14.4373 80.2969 14.4559 81.1905C14.4932 82.2331 15.2017 83.2384 16.4881 84.0017L74.9 117.532C77.3237 118.742 80.2322 118.649 82.6 117.271L203.824 47.5676C204.775 47.009 205.334 46.0223 205.297 44.9239C205.259 43.8255 204.644 42.8574 203.656 42.3733L203.637 42.3547L145.225 8.76896C144.051 8.19182 142.802 7.89395 141.534 7.89395Z" fill="#0C1033"/>
<path d="M74.1915 132.221L73.1847 131.792C74.3779 128.981 73.1847 125.686 73.1847 125.649L74.2101 125.276C74.266 125.425 75.5525 129.018 74.1915 132.221Z" fill="white"/>
<path d="M39.3085 113.566C39.0661 113.566 38.8051 113.491 38.5627 113.361L33.6034 110.513C32.783 110.047 32.1491 108.837 32.1491 107.776C32.1491 107.124 32.3915 106.603 32.839 106.342C33.2305 106.119 33.7152 106.138 34.1627 106.398L39.122 109.247C39.9424 109.712 40.5763 110.922 40.5763 111.983C40.5763 112.635 40.3339 113.156 39.8864 113.417C39.7 113.51 39.5135 113.566 39.3085 113.566ZM39.1034 112.393C39.2339 112.468 39.3085 112.468 39.3271 112.449C39.383 112.412 39.4576 112.263 39.4576 111.965C39.4576 111.295 39.0288 110.457 38.5441 110.178L33.5847 107.329C33.4542 107.255 33.3796 107.255 33.361 107.273C33.3051 107.311 33.2305 107.459 33.2305 107.757C33.2305 108.428 33.6593 109.265 34.1441 109.545L39.1034 112.393Z" fill="white"/>
</svg>
