<svg width="479" height="450" viewBox="0 0 479 450" fill="none" xmlns="http://www.w3.org/2000/svg">
<path d="M46.3956 194.39L53.4514 191.45L53.8428 191.712L46.8013 194.551L46.3956 194.39Z" fill="#8F8E93"/>
<path d="M67.4298 185.147L83.691 179.714L84.2934 180.15L68.0323 185.583L67.4298 185.147Z" fill="#8F8E93"/>
<path d="M101.449 175.013C107.352 173.531 113.454 172.198 119.538 170.985L120.098 171.673C114.014 172.886 107.929 174.1 102.025 175.582L101.449 175.013Z" fill="#8F8E93"/>
<path d="M136.512 168.567C143.015 167.6 149.715 166.795 156.378 166.254L156.874 167.402C150.212 167.942 143.53 168.615 137.027 169.582L136.512 168.567Z" fill="#8F8E93"/>
<path d="M177.521 166.501C184.36 166.569 191.384 166.887 198.378 167.425L198.439 168.556C191.446 168.018 184.653 167.62 177.814 167.552L177.521 166.501Z" fill="#8F8E93"/>
<path d="M218.661 169.511C225.521 170.479 232.562 171.71 239.356 173.145L238.961 174.396C232.167 172.962 225.34 171.76 218.48 170.792L218.661 169.511Z" fill="#8F8E93"/>
<path d="M258.59 178.622C265.421 180.311 272.007 182.173 278.347 184.207L277.309 185.304C270.954 183.371 264.368 181.509 257.768 179.749L258.59 178.622Z" fill="#8F8E93"/>
<path d="M297.436 189.711L306.529 193.724C307.968 194.423 309.638 195.031 311.076 195.73L315.391 197.827L313.678 199.073L309.364 196.976C307.925 196.277 306.47 195.7 305.032 195L296.153 191.019L297.436 189.711Z" fill="#8F8E93"/>
<path d="M331.386 206.836C336.539 209.725 341.676 212.726 346.378 215.779L344.108 216.711C339.406 213.657 334.479 210.686 329.326 207.797L331.386 206.836Z" fill="#8F8E93"/>
<path d="M360.962 225.907C365.261 229.033 369.53 232.373 373.376 235.653L370.689 236.369C366.843 233.089 362.771 229.886 358.472 226.76L360.962 225.907Z" fill="#8F8E93"/>
<path d="M384.509 245.974L394.382 256.468L391.093 257.003L381.625 246.677L384.509 245.974Z" fill="#8F8E93"/>
<path d="M402.991 267.032L410.378 278.357L406.986 278.705L399.787 267.526L402.991 267.032Z" fill="#8F8E93"/>
<path d="M418.462 291.099L425.393 302.251L421.928 302.697L414.805 291.402L418.462 291.099Z" fill="#8F8E93"/>
<path d="M284.494 220.174L294.737 224.035L296.484 234.8L286.24 230.939L284.494 220.174Z" fill="black"/>
<path d="M309.995 199.455L301.494 206.359L291.246 202.498L289.499 191.731L309.995 199.455Z" fill="black"/>
<path d="M280.986 198.637L270.736 194.774L268.989 184.006L279.239 187.868L280.986 198.637Z" fill="black"/>
<path d="M289.501 191.726L297.998 184.824L328.747 196.411L294.74 224.033L284.493 220.171L284.494 220.174L284.488 220.172L301.494 206.359L301.496 206.36L309.998 199.454L289.5 191.73L289.501 191.729L289.501 191.726Z" fill="#F1EFED"/>
<path d="M296.489 234.799L294.743 224.034L294.74 224.033L328.747 196.411L330.495 207.18L296.489 234.799Z" fill="#F1EFED"/>
<path d="M279.252 187.866L287.754 180.961L289.501 191.726L289.495 191.73L289.499 191.731L280.999 198.635L279.252 187.866Z" fill="#F1EFED"/>
<path d="M287.754 180.961L279.252 187.866L269.002 184.004L277.504 177.098L287.754 180.961Z" fill="#F1EFED"/>
<path d="M284.488 220.172L284.307 220.651C284.135 220.587 284.011 220.435 283.982 220.254C283.953 220.073 284.022 219.89 284.165 219.775L284.488 220.172ZM309.995 199.455L310.176 198.975C310.347 199.04 310.471 199.192 310.501 199.373C310.53 199.554 310.461 199.737 310.318 199.852L309.995 199.455ZM289.495 191.73L289.315 192.209C289.143 192.145 289.019 191.993 288.99 191.812C288.96 191.631 289.03 191.448 289.173 191.332L289.495 191.73ZM297.998 184.824L297.675 184.426C297.817 184.312 298.008 184.28 298.179 184.345L297.998 184.824ZM328.747 196.411L328.928 195.932C329.1 195.997 329.224 196.148 329.253 196.329L328.747 196.411ZM294.743 224.034L294.924 223.554C295.095 223.619 295.219 223.771 295.248 223.952L294.743 224.034ZM296.49 234.802L296.996 234.72C297.025 234.9 296.956 235.083 296.814 235.198C296.673 235.314 296.481 235.346 296.31 235.281L296.49 234.802ZM286.24 230.939L286.06 231.419C285.888 231.354 285.764 231.203 285.735 231.022L286.24 230.939ZM284.493 220.171L283.988 220.253C283.958 220.073 284.027 219.89 284.169 219.775C284.31 219.659 284.503 219.627 284.674 219.692L284.493 220.171ZM296.484 234.803L296.807 235.201C296.665 235.316 296.473 235.347 296.302 235.282C296.131 235.216 296.008 235.065 295.979 234.885L296.484 234.803ZM330.495 207.18L331 207.098C331.03 207.279 330.96 207.462 330.817 207.577L330.495 207.18ZM289.498 191.729L288.993 191.811C288.964 191.631 289.033 191.449 289.174 191.333C289.316 191.217 289.508 191.186 289.679 191.25L289.498 191.729ZM291.246 202.498L291.065 202.977C290.893 202.912 290.769 202.761 290.74 202.58L291.246 202.498ZM301.496 206.36L301.818 206.758C301.677 206.872 301.486 206.904 301.315 206.839L301.496 206.36ZM309.998 199.454L310.179 198.975C310.35 199.04 310.474 199.191 310.504 199.372C310.533 199.553 310.463 199.736 310.321 199.852L309.998 199.454ZM287.754 180.961L287.934 180.481C288.106 180.546 288.23 180.698 288.259 180.879L287.754 180.961ZM280.999 198.635L281.322 199.032C281.18 199.148 280.987 199.178 280.816 199.113C280.646 199.048 280.522 198.897 280.493 198.717L280.999 198.635ZM289.501 191.729L290.007 191.647C290.035 191.818 289.974 191.992 289.845 192.109L289.501 191.729ZM277.504 177.098L277.181 176.701C277.323 176.586 277.515 176.555 277.685 176.619L277.504 177.098ZM269.002 184.004L268.821 184.483C268.649 184.419 268.525 184.267 268.496 184.086C268.467 183.905 268.536 183.722 268.679 183.606L269.002 184.004ZM280.986 198.637L281.492 198.555C281.521 198.735 281.452 198.917 281.31 199.033C281.169 199.149 280.977 199.181 280.806 199.116L280.986 198.637ZM270.736 194.774L270.556 195.254C270.384 195.189 270.26 195.037 270.231 194.856L270.736 194.774ZM268.989 184.006L268.483 184.088C268.454 183.908 268.523 183.725 268.665 183.61C268.806 183.494 268.999 183.462 269.17 183.527L268.989 184.006ZM279.239 187.868L279.42 187.389C279.591 187.454 279.715 187.605 279.745 187.786L279.239 187.868ZM298.179 184.345L328.928 195.932L328.567 196.891L297.817 185.303L298.179 184.345ZM329.989 207.262L328.242 196.493L329.253 196.329L331 207.098L329.989 207.262ZM301.173 205.962L309.675 199.057L310.321 199.852L301.818 206.758L301.173 205.962ZM288.077 181.358L279.575 188.264L278.929 187.469L287.431 180.563L288.077 181.358ZM279.757 187.784L281.504 198.553L280.493 198.717L278.746 187.948L279.757 187.784ZM287.573 181.44L277.324 177.577L277.685 176.619L287.934 180.481L287.573 181.44ZM277.827 177.496L269.325 184.402L268.679 183.606L277.181 176.701L277.827 177.496ZM269.182 183.525L279.432 187.387L279.071 188.346L268.821 184.483L269.182 183.525ZM280.806 199.116L270.556 195.254L270.917 194.295L281.167 198.157L280.806 199.116ZM270.231 194.856L268.483 184.088L269.495 183.924L271.242 194.692L270.231 194.856ZM269.17 183.527L279.42 187.389L279.058 188.348L268.808 184.485L269.17 183.527ZM279.745 187.786L281.492 198.555L280.481 198.719L278.733 187.951L279.745 187.786ZM284.674 219.695L294.918 223.555L294.556 224.514L284.313 220.654L284.674 219.695ZM295.243 223.953L296.989 234.718L295.978 234.882L294.232 224.117L295.243 223.953ZM296.303 235.279L286.06 231.419L286.421 230.46L296.664 234.32L296.303 235.279ZM285.735 231.022L283.988 220.257L284.999 220.092L286.746 230.857L285.735 231.022ZM296.31 235.281L296.303 235.279L296.664 234.32L296.67 234.323L296.31 235.281ZM296.989 234.718L296.99 234.721L295.979 234.885L295.978 234.882L296.989 234.718ZM283.988 220.257L283.988 220.253L284.999 220.089L284.999 220.092L283.988 220.257ZM284.313 220.654L284.307 220.651L284.668 219.693L284.675 219.695L284.313 220.654ZM310.318 199.852L301.817 206.757L301.171 205.962L309.672 199.057L310.318 199.852ZM301.313 206.839L291.065 202.977L291.426 202.018L301.675 205.88L301.313 206.839ZM290.74 202.58L288.993 191.813L290.004 191.649L291.751 202.416L290.74 202.58ZM289.679 191.252L310.176 198.975L309.815 199.934L289.318 192.21L289.679 191.252ZM290.004 191.647L290.004 191.649L288.993 191.813L288.993 191.811L290.004 191.647ZM289.318 192.21L289.315 192.209L289.676 191.25L289.679 191.252L289.318 192.21ZM280.676 198.237L289.176 191.333L289.822 192.129L281.322 199.032L280.676 198.237ZM301.674 205.88L301.676 205.881L301.315 206.839L301.314 206.839L301.674 205.88ZM284.165 219.775L301.171 205.962L301.817 206.757L284.811 220.57L284.165 219.775ZM289.178 191.328L297.675 184.426L298.321 185.222L289.823 192.123L289.178 191.328ZM329.07 196.809L295.063 224.43L294.417 223.635L328.424 196.014L329.07 196.809ZM294.559 224.512L284.313 220.651L284.674 219.692L294.92 223.553L294.559 224.512ZM309.818 199.934L289.319 192.209L289.681 191.251L310.179 198.975L309.818 199.934ZM289.156 191.35L289.157 191.349L289.845 192.109L289.844 192.11L289.156 191.35ZM288.995 191.811L288.995 191.808L290.006 191.644L290.007 191.647L288.995 191.811ZM289.155 191.351L289.156 191.35L289.844 192.11L289.843 192.111L289.155 191.351ZM289.319 192.209L289.318 192.209L289.679 191.25L289.681 191.251L289.319 192.209ZM294.921 223.553L294.924 223.554L294.562 224.513L294.559 224.512L294.921 223.553ZM295.063 224.43L295.06 224.432L294.414 223.637L294.417 223.635L295.063 224.43ZM288.995 191.808L287.248 181.043L288.259 180.879L290.006 191.644L288.995 191.808ZM289.173 191.332L289.178 191.328L289.823 192.123L289.818 192.127L289.173 191.332ZM295.984 234.881L294.237 224.116L295.248 223.952L296.995 234.717L295.984 234.881ZM330.817 207.577L296.812 235.196L296.167 234.401L330.172 206.782L330.817 207.577ZM296.162 234.405L296.167 234.401L296.812 235.196L296.807 235.201L296.162 234.405ZM296.995 234.717L296.996 234.72L295.984 234.884L295.984 234.881L296.995 234.717Z" fill="black"/>
</svg>
