<svg width="106" height="32" viewBox="0 0 106 32" fill="none" xmlns="http://www.w3.org/2000/svg">
<path d="M14.7969 18.3209L12.033 20.8843L0.756836 10.4306L3.52075 7.86719L14.7969 18.3209Z" fill="black"/>
<path d="M12.008 0L9.18555 2.61663L12.008 5.23433L14.8305 2.61663L12.008 0Z" fill="black"/>
<path d="M14.8342 13.1529L12.0703 10.5905L23.3465 0.135742L26.1116 2.69912L14.8342 13.1529Z" fill="black"/>
<path d="M31.177 13.2333L28.3545 10.6156L31.177 8L33.9995 10.6156L31.177 13.2333Z" fill="black"/>
<path d="M19.8643 13.7606L22.6293 11.1982L33.9055 21.6509L31.1405 24.2143L19.8643 13.7606Z" fill="black"/>
<path d="M19.8291 29.4662L22.562 31.9998H22.7423L25.4741 29.4662L22.6527 26.8496L19.8291 29.4662Z" fill="black"/>
<path d="M8.4873 29.4362L11.2512 31.9995L22.5274 21.5447L19.7635 18.9824L8.4873 29.4362Z" fill="black"/>
<path d="M0 21.5678L2.8225 24.1844L5.64499 21.5678L2.8225 18.9512L0 21.5678Z" fill="black"/>
<path d="M43.54 15.6711C43.54 14.8711 43.728 14.1431 44.104 13.4871C44.488 12.8231 45.008 12.3031 45.664 11.9271C46.32 11.5431 47.048 11.3511 47.848 11.3511C48.464 11.3511 49.04 11.4711 49.576 11.7111C50.112 11.9431 50.572 12.2791 50.956 12.7191C51.348 13.1511 51.636 13.6551 51.82 14.2311H50.488C50.24 13.6951 49.888 13.2751 49.432 12.9711C48.984 12.6591 48.456 12.5031 47.848 12.5031C47.28 12.5031 46.764 12.6431 46.3 12.9231C45.836 13.2031 45.468 13.5871 45.196 14.0751C44.932 14.5551 44.8 15.0871 44.8 15.6711C44.8 16.2551 44.932 16.7911 45.196 17.2791C45.468 17.7591 45.836 18.1391 46.3 18.4191C46.764 18.6991 47.28 18.8391 47.848 18.8391C48.456 18.8391 48.984 18.6871 49.432 18.3831C49.888 18.0711 50.24 17.6471 50.488 17.1111H51.82C51.636 17.6871 51.348 18.1951 50.956 18.6351C50.572 19.0671 50.112 19.4031 49.576 19.6431C49.04 19.8751 48.464 19.9911 47.848 19.9911C47.048 19.9911 46.32 19.8031 45.664 19.4271C45.008 19.0431 44.488 18.5231 44.104 17.8671C43.728 17.2031 43.54 16.4711 43.54 15.6711ZM61.1144 15.5511V19.8711H60.0344V18.4551C59.7064 18.9271 59.2824 19.3031 58.7624 19.5831C58.2504 19.8551 57.6664 19.9911 57.0104 19.9911C56.2264 19.9911 55.5104 19.8031 54.8624 19.4271C54.2144 19.0431 53.7024 18.5231 53.3264 17.8671C52.9584 17.2031 52.7744 16.4711 52.7744 15.6711C52.7744 14.8711 52.9624 14.1431 53.3384 13.4871C53.7224 12.8231 54.2424 12.3031 54.8984 11.9271C55.5544 11.5431 56.2824 11.3511 57.0824 11.3511C57.9224 11.3511 58.6784 11.5791 59.3504 12.0351C60.0304 12.4911 60.5184 13.1031 60.8144 13.8711H59.4464C59.1984 13.4471 58.8704 13.1151 58.4624 12.8751C58.0544 12.6271 57.5944 12.5031 57.0824 12.5031C56.5144 12.5031 55.9984 12.6431 55.5344 12.9231C55.0704 13.2031 54.7024 13.5871 54.4304 14.0751C54.1664 14.5551 54.0344 15.0871 54.0344 15.6711C54.0344 16.2551 54.1664 16.7911 54.4304 17.2791C54.6944 17.7591 55.0544 18.1391 55.5104 18.4191C55.9664 18.6991 56.4704 18.8391 57.0224 18.8391C57.7664 18.8391 58.3864 18.6311 58.8824 18.2151C59.3864 17.7911 59.7184 17.2671 59.8784 16.6431H56.8904V15.5511H61.1144ZM65.9692 19.9911C64.9932 19.9911 64.1692 19.7511 63.4972 19.2711C62.8332 18.7831 62.4292 18.1071 62.2852 17.2431H63.4852C63.6852 17.7951 63.9852 18.1991 64.3852 18.4551C64.7932 18.7111 65.3332 18.8391 66.0052 18.8391C66.6532 18.8391 67.1772 18.7231 67.5772 18.4911C67.9772 18.2511 68.1772 17.9431 68.1772 17.5671C68.1772 17.2391 68.0292 16.9751 67.7332 16.7751C67.4372 16.5671 66.9492 16.3951 66.2692 16.2591L65.3572 16.0911C64.4052 15.9231 63.6932 15.6351 63.2212 15.2271C62.7492 14.8111 62.5132 14.2991 62.5132 13.6911C62.5132 13.2271 62.6532 12.8191 62.9332 12.4671C63.2132 12.1151 63.6052 11.8431 64.1092 11.6511C64.6132 11.4511 65.1932 11.3511 65.8492 11.3511C66.7052 11.3511 67.4492 11.5631 68.0812 11.9871C68.7132 12.4031 69.1292 12.9911 69.3292 13.7511H68.0692C67.9092 13.3431 67.6212 13.0351 67.2052 12.8271C66.7972 12.6111 66.3252 12.5031 65.7892 12.5031C65.1572 12.5031 64.6572 12.6151 64.2892 12.8391C63.9292 13.0551 63.7492 13.3551 63.7492 13.7391C63.7492 14.0511 63.8932 14.3031 64.1812 14.4951C64.4772 14.6871 64.9412 14.8391 65.5732 14.9511L66.4852 15.1071C67.4932 15.2751 68.2332 15.5631 68.7052 15.9711C69.1772 16.3791 69.4132 16.9031 69.4132 17.5431C69.4132 18.0231 69.2652 18.4471 68.9692 18.8151C68.6812 19.1831 68.2772 19.4711 67.7572 19.6791C67.2372 19.8871 66.6412 19.9911 65.9692 19.9911ZM74.0973 15.7311V16.8111H70.6173V15.7311H74.0973ZM77.3936 14.9511V18.1191C77.3936 18.3751 77.4536 18.5711 77.5736 18.7071C77.7016 18.8431 77.9176 18.9111 78.2216 18.9111C78.5096 18.9111 78.7536 18.8871 78.9536 18.8391V19.8831C78.7376 19.9551 78.4736 19.9911 78.1616 19.9911C76.8896 19.9911 76.2536 19.3671 76.2536 18.1191V14.9511H75.0536V13.8711H76.2536V12.3111H77.3936V13.8711H79.0736V14.9511H77.3936ZM82.8084 13.7511C83.4244 13.7511 83.9604 13.8831 84.4164 14.1471C84.8804 14.4111 85.2364 14.7871 85.4844 15.2751C85.7324 15.7551 85.8564 16.3191 85.8564 16.9671C85.8564 17.1351 85.8524 17.2591 85.8444 17.3391H80.9244C81.0044 17.8031 81.2204 18.1871 81.5724 18.4911C81.9324 18.7871 82.3484 18.9351 82.8204 18.9351C83.5964 18.9351 84.1484 18.6511 84.4764 18.0831H85.6524C85.4604 18.6431 85.1044 19.1031 84.5844 19.4631C84.0644 19.8151 83.4764 19.9911 82.8204 19.9911C82.2364 19.9911 81.7084 19.8591 81.2364 19.5951C80.7644 19.3231 80.3964 18.9511 80.1324 18.4791C79.8684 17.9991 79.7364 17.4631 79.7364 16.8711C79.7364 16.2791 79.8684 15.7471 80.1324 15.2751C80.3964 14.7951 80.7604 14.4231 81.2244 14.1591C81.6964 13.8871 82.2244 13.7511 82.8084 13.7511ZM82.7844 14.7591C82.3124 14.7591 81.9044 14.9071 81.5604 15.2031C81.2244 15.4991 81.0164 15.8791 80.9364 16.3431H84.6204C84.5724 15.8631 84.3764 15.4791 84.0324 15.1911C83.6964 14.9031 83.2804 14.7591 82.7844 14.7591ZM92.7559 13.8711V19.8711H91.6159V18.9711C91.3679 19.2911 91.0679 19.5431 90.7159 19.7271C90.3639 19.9031 89.9879 19.9911 89.5879 19.9911C89.0599 19.9911 88.5799 19.8591 88.1479 19.5951C87.7159 19.3231 87.3759 18.9511 87.1279 18.4791C86.8799 18.0071 86.7559 17.4711 86.7559 16.8711C86.7559 16.2711 86.8799 15.7351 87.1279 15.2631C87.3759 14.7911 87.7159 14.4231 88.1479 14.1591C88.5799 13.8871 89.0599 13.7511 89.5879 13.7511C90.0039 13.7511 90.3919 13.8471 90.7519 14.0391C91.1119 14.2311 91.4199 14.4991 91.6759 14.8431V13.8711H92.7559ZM89.7799 18.9351C90.1319 18.9351 90.4519 18.8471 90.7399 18.6711C91.0279 18.4951 91.2519 18.2511 91.4119 17.9391C91.5719 17.6191 91.6519 17.2631 91.6519 16.8711C91.6519 16.4791 91.5719 16.1271 91.4119 15.8151C91.2519 15.4951 91.0279 15.2471 90.7399 15.0711C90.4519 14.8951 90.1319 14.8071 89.7799 14.8071C89.4279 14.8071 89.1119 14.8951 88.8319 15.0711C88.5519 15.2471 88.3319 15.4951 88.1719 15.8151C88.0119 16.1271 87.9319 16.4791 87.9319 16.8711C87.9319 17.2631 88.0119 17.6191 88.1719 17.9391C88.3319 18.2511 88.5519 18.4951 88.8319 18.6711C89.1119 18.8471 89.4279 18.9351 89.7799 18.9351ZM102.059 13.7511C102.539 13.7511 102.967 13.8551 103.343 14.0631C103.727 14.2711 104.027 14.5871 104.243 15.0111C104.467 15.4271 104.579 15.9391 104.579 16.5471V19.8711H103.439V16.5711C103.439 16.0431 103.287 15.6231 102.983 15.3111C102.687 14.9991 102.311 14.8431 101.855 14.8431C101.359 14.8431 100.959 15.0191 100.655 15.3711C100.351 15.7231 100.199 16.1551 100.199 16.6671V19.8711H99.0588V16.5711C99.0588 16.0431 98.9068 15.6231 98.6028 15.3111C98.3068 14.9991 97.9308 14.8431 97.4748 14.8431C96.9788 14.8431 96.5788 15.0191 96.2748 15.3711C95.9708 15.7231 95.8188 16.1551 95.8188 16.6671V19.8711H94.6788V13.8711H95.7588V14.8191C95.9748 14.4911 96.2508 14.2311 96.5868 14.0391C96.9308 13.8471 97.2948 13.7511 97.6788 13.7511C98.1508 13.7511 98.5748 13.8551 98.9508 14.0631C99.3348 14.2631 99.6308 14.5631 99.8388 14.9631C100.071 14.5951 100.383 14.3031 100.775 14.0871C101.175 13.8631 101.603 13.7511 102.059 13.7511Z" fill="black"/>
</svg>
