<svg width="126" height="32" viewBox="0 0 126 32" fill="none" xmlns="http://www.w3.org/2000/svg">
<path d="M14.7968 18.3212L12.0329 20.8846L0.756656 10.4309L3.52057 7.8675L14.7968 18.3212Z" fill="black"/>
<path d="M12.0079 0L9.18541 2.61663L12.0079 5.23433L14.8304 2.61663L12.0079 0Z" fill="black"/>
<path d="M14.8343 13.1525L12.0704 10.5902L23.3466 0.13542L26.1117 2.6988L14.8343 13.1525Z" fill="black"/>
<path d="M31.1775 13.2336L28.355 10.6159L31.1775 8.00031L34 10.6159L31.1775 13.2336Z" fill="black"/>
<path d="M19.8643 13.7607L22.6293 11.1984L33.9055 21.651L31.1405 24.2144L19.8643 13.7607Z" fill="black"/>
<path d="M19.8292 29.4664L22.5621 32H22.7424L25.4742 29.4664L22.6528 26.8498L19.8292 29.4664Z" fill="black"/>
<path d="M8.48745 29.4366L11.2514 32L22.5276 21.5452L19.7636 18.9829L8.48745 29.4366Z" fill="black"/>
<path d="M0 21.5679L2.8225 24.1845L5.64499 21.5679L2.8225 18.9513L0 21.5679Z" fill="black"/>
<path d="M43.72 16.2713C43.72 15.2047 43.9707 14.234 44.472 13.3593C44.984 12.474 45.6773 11.7807 46.552 11.2793C47.4267 10.7673 48.3973 10.5113 49.464 10.5113C50.2853 10.5113 51.0533 10.6713 51.768 10.9913C52.4827 11.3007 53.096 11.7487 53.608 12.3353C54.1307 12.9113 54.5147 13.5833 54.76 14.3513H52.984C52.6533 13.6367 52.184 13.0767 51.576 12.6713C50.9787 12.2553 50.2747 12.0473 49.464 12.0473C48.7067 12.0473 48.0187 12.234 47.4 12.6073C46.7813 12.9807 46.2907 13.4927 45.928 14.1433C45.576 14.7833 45.4 15.4927 45.4 16.2713C45.4 17.05 45.576 17.7647 45.928 18.4153C46.2907 19.0553 46.7813 19.562 47.4 19.9353C48.0187 20.3087 48.7067 20.4953 49.464 20.4953C50.2747 20.4953 50.9787 20.2927 51.576 19.8873C52.184 19.4713 52.6533 18.906 52.984 18.1913H54.76C54.5147 18.9593 54.1307 19.6367 53.608 20.2233C53.096 20.7993 52.4827 21.2473 51.768 21.5673C51.0533 21.8767 50.2853 22.0313 49.464 22.0313C48.3973 22.0313 47.4267 21.7807 46.552 21.2793C45.6773 20.7673 44.984 20.074 44.472 19.1993C43.9707 18.314 43.72 17.338 43.72 16.2713Z" fill="black"/>
<path d="M67.1525 16.1113V21.8713H65.7125V19.9833C65.2752 20.6127 64.7098 21.114 64.0165 21.4873C63.3338 21.85 62.5552 22.0313 61.6805 22.0313C60.6352 22.0313 59.6805 21.7807 58.8165 21.2793C57.9525 20.7673 57.2698 20.074 56.7685 19.1993C56.2778 18.314 56.0325 17.338 56.0325 16.2713C56.0325 15.2047 56.2832 14.234 56.7845 13.3593C57.2965 12.474 57.9898 11.7807 58.8645 11.2793C59.7392 10.7673 60.7098 10.5113 61.7765 10.5113C62.8965 10.5113 63.9045 10.8153 64.8005 11.4233C65.7072 12.0313 66.3578 12.8473 66.7525 13.8713H64.9285C64.5978 13.306 64.1605 12.8633 63.6165 12.5433C63.0725 12.2127 62.4592 12.0473 61.7765 12.0473C61.0192 12.0473 60.3312 12.234 59.7125 12.6073C59.0938 12.9807 58.6032 13.4927 58.2405 14.1433C57.8885 14.7833 57.7125 15.4927 57.7125 16.2713C57.7125 17.05 57.8885 17.7647 58.2405 18.4153C58.5925 19.0553 59.0725 19.562 59.6805 19.9353C60.2885 20.3087 60.9605 20.4953 61.6965 20.4953C62.6885 20.4953 63.5152 20.218 64.1765 19.6633C64.8485 19.098 65.2912 18.3993 65.5045 17.5673H61.5205V16.1113H67.1525Z" fill="black"/>
<path d="M73.6256 22.0313C72.3243 22.0313 71.2256 21.7113 70.3296 21.0713C69.4443 20.4207 68.9056 19.5193 68.7136 18.3673H70.3136C70.5803 19.1033 70.9803 19.642 71.5136 19.9833C72.0576 20.3247 72.7776 20.4953 73.6736 20.4953C74.5376 20.4953 75.2363 20.3407 75.7696 20.0313C76.303 19.7113 76.5696 19.3007 76.5696 18.7993C76.5696 18.362 76.3723 18.01 75.9776 17.7433C75.583 17.466 74.9323 17.2367 74.0256 17.0553L72.8096 16.8313C71.5403 16.6073 70.591 16.2233 69.9616 15.6793C69.3323 15.1247 69.0176 14.442 69.0176 13.6313C69.0176 13.0127 69.2043 12.4687 69.5776 11.9993C69.951 11.53 70.4736 11.1673 71.1456 10.9113C71.8176 10.6447 72.591 10.5113 73.4656 10.5113C74.607 10.5113 75.599 10.794 76.4416 11.3593C77.2843 11.914 77.839 12.698 78.1056 13.7113H76.4256C76.2123 13.1673 75.8283 12.7567 75.2736 12.4793C74.7296 12.1913 74.1003 12.0473 73.3856 12.0473C72.543 12.0473 71.8763 12.1967 71.3856 12.4953C70.9056 12.7833 70.6656 13.1833 70.6656 13.6953C70.6656 14.1113 70.8576 14.4473 71.2416 14.7033C71.6363 14.9593 72.255 15.162 73.0976 15.3113L74.3136 15.5193C75.6576 15.7433 76.6443 16.1273 77.2736 16.6713C77.903 17.2153 78.2176 17.914 78.2176 18.7673C78.2176 19.4073 78.0203 19.9727 77.6256 20.4633C77.2416 20.954 76.703 21.338 76.0096 21.6153C75.3163 21.8927 74.5216 22.0313 73.6256 22.0313Z" fill="black"/>
<path d="M84.4631 16.3513V17.7913H79.8231V16.3513H84.4631Z" fill="black"/>
<path d="M88.8581 15.3113V19.5353C88.8581 19.8767 88.9381 20.138 89.0981 20.3193C89.2688 20.5007 89.5568 20.5913 89.9621 20.5913C90.3461 20.5913 90.6715 20.5593 90.9381 20.4953V21.8873C90.6501 21.9833 90.2981 22.0313 89.8821 22.0313C88.1861 22.0313 87.3381 21.1993 87.3381 19.5353V15.3113H85.7381V13.8713H87.3381V11.7913H88.8581V13.8713H91.0981V15.3113H88.8581Z" fill="black"/>
<path d="M96.0779 13.7113C96.8992 13.7113 97.6139 13.8873 98.2219 14.2393C98.8405 14.5913 99.3152 15.0927 99.6459 15.7433C99.9765 16.3833 100.142 17.1353 100.142 17.9993C100.142 18.2233 100.137 18.3887 100.126 18.4953H93.5659C93.6725 19.114 93.9605 19.626 94.4299 20.0313C94.9099 20.426 95.4645 20.6233 96.0939 20.6233C97.1285 20.6233 97.8645 20.2447 98.3019 19.4873H99.8699C99.6139 20.234 99.1392 20.8473 98.4459 21.3273C97.7525 21.7967 96.9685 22.0313 96.0939 22.0313C95.3152 22.0313 94.6112 21.8553 93.9819 21.5033C93.3525 21.1407 92.8619 20.6447 92.5099 20.0153C92.1579 19.3753 91.9819 18.6607 91.9819 17.8713C91.9819 17.082 92.1579 16.3727 92.5099 15.7433C92.8619 15.1033 93.3472 14.6073 93.9659 14.2553C94.5952 13.8927 95.2992 13.7113 96.0779 13.7113ZM96.0459 15.0553C95.4165 15.0553 94.8725 15.2527 94.4139 15.6473C93.9659 16.042 93.6885 16.5487 93.5819 17.1673H98.4939C98.4299 16.5273 98.1685 16.0153 97.7099 15.6313C97.2619 15.2473 96.7072 15.0553 96.0459 15.0553Z" fill="black"/>
<path d="M109.341 13.8713V21.8713H107.821V20.6713C107.491 21.098 107.091 21.434 106.621 21.6793C106.152 21.914 105.651 22.0313 105.117 22.0313C104.413 22.0313 103.773 21.8553 103.197 21.5033C102.621 21.1407 102.168 20.6447 101.837 20.0153C101.507 19.386 101.341 18.6713 101.341 17.8713C101.341 17.0713 101.507 16.3567 101.837 15.7273C102.168 15.098 102.621 14.6073 103.197 14.2553C103.773 13.8927 104.413 13.7113 105.117 13.7113C105.672 13.7113 106.189 13.8393 106.669 14.0953C107.149 14.3513 107.56 14.7087 107.901 15.1673V13.8713H109.341ZM105.373 20.6233C105.843 20.6233 106.269 20.506 106.653 20.2713C107.037 20.0367 107.336 19.7113 107.549 19.2953C107.763 18.8687 107.869 18.394 107.869 17.8713C107.869 17.3487 107.763 16.8793 107.549 16.4633C107.336 16.0367 107.037 15.706 106.653 15.4713C106.269 15.2367 105.843 15.1193 105.373 15.1193C104.904 15.1193 104.483 15.2367 104.109 15.4713C103.736 15.706 103.443 16.0367 103.229 16.4633C103.016 16.8793 102.909 17.3487 102.909 17.8713C102.909 18.394 103.016 18.8687 103.229 19.2953C103.443 19.7113 103.736 20.0367 104.109 20.2713C104.483 20.506 104.904 20.6233 105.373 20.6233Z" fill="black"/>
<path d="M121.745 13.7113C122.385 13.7113 122.956 13.85 123.457 14.1273C123.969 14.4047 124.369 14.826 124.657 15.3913C124.956 15.946 125.105 16.6287 125.105 17.4393V21.8713H123.585V17.4713C123.585 16.7673 123.382 16.2073 122.977 15.7913C122.582 15.3753 122.081 15.1673 121.473 15.1673C120.812 15.1673 120.278 15.402 119.873 15.8713C119.468 16.3407 119.265 16.9167 119.265 17.5993V21.8713H117.745V17.4713C117.745 16.7673 117.542 16.2073 117.137 15.7913C116.742 15.3753 116.241 15.1673 115.633 15.1673C114.972 15.1673 114.438 15.402 114.033 15.8713C113.628 16.3407 113.425 16.9167 113.425 17.5993V21.8713H111.905V13.8713H113.345V15.1353C113.633 14.698 114.001 14.3513 114.449 14.0953C114.908 13.8393 115.393 13.7113 115.905 13.7113C116.534 13.7113 117.1 13.85 117.601 14.1273C118.113 14.394 118.508 14.794 118.785 15.3273C119.094 14.8367 119.51 14.4473 120.033 14.1593C120.566 13.8607 121.137 13.7113 121.745 13.7113Z" fill="black"/>
</svg>
