<svg width="143" height="29" viewBox="0 0 143 29" fill="none" xmlns="http://www.w3.org/2000/svg">
<path d="M13.2871 16.6049L10.8052 18.9279L0.679688 9.45437L3.16155 7.13135L13.2871 16.6049Z" fill="black"/>
<path d="M10.7825 0L8.24805 2.37128L10.7825 4.74352L13.317 2.37128L10.7825 0Z" fill="black"/>
<path d="M13.3198 11.9191L10.8379 9.59705L20.9634 0.122559L23.4463 2.44558L13.3198 11.9191Z" fill="black"/>
<path d="M27.9954 11.9926L25.4609 9.62031L27.9954 7.25L30.5299 9.62031L27.9954 11.9926Z" fill="black"/>
<path d="M17.8379 12.471L20.3208 10.1489L30.4463 19.6215L27.9634 21.9445L17.8379 12.471Z" fill="black"/>
<path d="M17.8047 26.7033L20.2587 28.9993H20.4207L22.8736 26.7033L20.3402 24.332L17.8047 26.7033Z" fill="black"/>
<path d="M7.62109 26.6771L10.103 29.0002L20.2285 19.5257L17.7466 17.2036L7.62109 26.6771Z" fill="black"/>
<path d="M0 19.5456L2.53447 21.9169L5.06895 19.5456L2.53447 17.1743L0 19.5456Z" fill="black"/>
<path d="M41.2807 16.2371C41.2807 15.0371 41.5627 13.9451 42.1267 12.9611C42.7027 11.9651 43.4827 11.1851 44.4667 10.6211C45.4507 10.0451 46.5427 9.75711 47.7427 9.75711C48.6667 9.75711 49.5307 9.93711 50.3347 10.2971C51.1387 10.6451 51.8287 11.1491 52.4047 11.8091C52.9927 12.4571 53.4247 13.2131 53.7007 14.0771H51.7027C51.3307 13.2731 50.8027 12.6431 50.1187 12.1871C49.4467 11.7191 48.6547 11.4851 47.7427 11.4851C46.8907 11.4851 46.1167 11.6951 45.4207 12.1151C44.7247 12.5351 44.1727 13.1111 43.7647 13.8431C43.3687 14.5631 43.1707 15.3611 43.1707 16.2371C43.1707 17.1131 43.3687 17.9171 43.7647 18.6491C44.1727 19.3691 44.7247 19.9391 45.4207 20.3591C46.1167 20.7791 46.8907 20.9891 47.7427 20.9891C48.6547 20.9891 49.4467 20.7611 50.1187 20.3051C50.8027 19.8371 51.3307 19.2011 51.7027 18.3971H53.7007C53.4247 19.2611 52.9927 20.0231 52.4047 20.6831C51.8287 21.3311 51.1387 21.8351 50.3347 22.1951C49.5307 22.5431 48.6667 22.7171 47.7427 22.7171C46.5427 22.7171 45.4507 22.4351 44.4667 21.8711C43.4827 21.2951 42.7027 20.5151 42.1267 19.5311C41.5627 18.5351 41.2807 17.4371 41.2807 16.2371ZM67.6423 16.0571V22.5371H66.0223V20.4131C65.5303 21.1211 64.8943 21.6851 64.1143 22.1051C63.3463 22.5131 62.4703 22.7171 61.4863 22.7171C60.3103 22.7171 59.2363 22.4351 58.2643 21.8711C57.2923 21.2951 56.5243 20.5151 55.9603 19.5311C55.4083 18.5351 55.1323 17.4371 55.1323 16.2371C55.1323 15.0371 55.4143 13.9451 55.9783 12.9611C56.5543 11.9651 57.3343 11.1851 58.3183 10.6211C59.3023 10.0451 60.3943 9.75711 61.5943 9.75711C62.8543 9.75711 63.9883 10.0991 64.9963 10.7831C66.0163 11.4671 66.7483 12.3851 67.1923 13.5371H65.1403C64.7683 12.9011 64.2763 12.4031 63.6643 12.0431C63.0523 11.6711 62.3623 11.4851 61.5943 11.4851C60.7423 11.4851 59.9683 11.6951 59.2723 12.1151C58.5763 12.5351 58.0243 13.1111 57.6163 13.8431C57.2203 14.5631 57.0223 15.3611 57.0223 16.2371C57.0223 17.1131 57.2203 17.9171 57.6163 18.6491C58.0123 19.3691 58.5523 19.9391 59.2363 20.3591C59.9203 20.7791 60.6763 20.9891 61.5043 20.9891C62.6203 20.9891 63.5503 20.6771 64.2943 20.0531C65.0503 19.4171 65.5483 18.6311 65.7883 17.6951H61.3063V16.0571H67.6423ZM74.9245 22.7171C73.4605 22.7171 72.2245 22.3571 71.2165 21.6371C70.2205 20.9051 69.6145 19.8911 69.3985 18.5951H71.1985C71.4985 19.4231 71.9485 20.0291 72.5485 20.4131C73.1605 20.7971 73.9705 20.9891 74.9785 20.9891C75.9505 20.9891 76.7365 20.8151 77.3365 20.4671C77.9365 20.1071 78.2365 19.6451 78.2365 19.0811C78.2365 18.5891 78.0145 18.1931 77.5705 17.8931C77.1265 17.5811 76.3945 17.3231 75.3745 17.1191L74.0065 16.8671C72.5785 16.6151 71.5105 16.1831 70.8025 15.5711C70.0945 14.9471 69.7405 14.1791 69.7405 13.2671C69.7405 12.5711 69.9505 11.9591 70.3705 11.4311C70.7905 10.9031 71.3785 10.4951 72.1345 10.2071C72.8905 9.90711 73.7605 9.75711 74.7445 9.75711C76.0285 9.75711 77.1445 10.0751 78.0925 10.7111C79.0405 11.3351 79.6645 12.2171 79.9645 13.3571H78.0745C77.8345 12.7451 77.4025 12.2831 76.7785 11.9711C76.1665 11.6471 75.4585 11.4851 74.6545 11.4851C73.7065 11.4851 72.9565 11.6531 72.4045 11.9891C71.8645 12.3131 71.5945 12.7631 71.5945 13.3391C71.5945 13.8071 71.8105 14.1851 72.2425 14.4731C72.6865 14.7611 73.3825 14.9891 74.3305 15.1571L75.6985 15.3911C77.2105 15.6431 78.3205 16.0751 79.0285 16.6871C79.7365 17.2991 80.0905 18.0851 80.0905 19.0451C80.0905 19.7651 79.8685 20.4011 79.4245 20.9531C78.9925 21.5051 78.3865 21.9371 77.6065 22.2491C76.8265 22.5611 75.9325 22.7171 74.9245 22.7171ZM92.1616 16.3271V17.9471H86.9416V16.3271H92.1616ZM102.151 15.1571V19.9091C102.151 20.2931 102.241 20.5871 102.421 20.7911C102.613 20.9951 102.937 21.0971 103.393 21.0971C103.825 21.0971 104.191 21.0611 104.491 20.9891V22.5551C104.167 22.6631 103.771 22.7171 103.303 22.7171C101.395 22.7171 100.441 21.7811 100.441 19.9091V15.1571H98.6409V13.5371H100.441V11.1971H102.151V13.5371H104.671V15.1571H102.151ZM110.273 13.3571C111.197 13.3571 112.001 13.5551 112.685 13.9511C113.381 14.3471 113.915 14.9111 114.287 15.6431C114.659 16.3631 114.845 17.2091 114.845 18.1811C114.845 18.4331 114.839 18.6191 114.827 18.7391H107.447C107.567 19.4351 107.891 20.0111 108.419 20.4671C108.959 20.9111 109.583 21.1331 110.291 21.1331C111.455 21.1331 112.283 20.7071 112.775 19.8551H114.539C114.251 20.6951 113.717 21.3851 112.937 21.9251C112.157 22.4531 111.275 22.7171 110.291 22.7171C109.415 22.7171 108.623 22.5191 107.915 22.1231C107.207 21.7151 106.655 21.1571 106.259 20.4491C105.863 19.7291 105.665 18.9251 105.665 18.0371C105.665 17.1491 105.863 16.3511 106.259 15.6431C106.655 14.9231 107.201 14.3651 107.897 13.9691C108.605 13.5611 109.397 13.3571 110.273 13.3571ZM110.237 14.8691C109.529 14.8691 108.917 15.0911 108.401 15.5351C107.897 15.9791 107.585 16.5491 107.465 17.2451H112.991C112.919 16.5251 112.625 15.9491 112.109 15.5171C111.605 15.0851 110.981 14.8691 110.237 14.8691ZM125.194 13.5371V22.5371H123.484V21.1871C123.112 21.6671 122.662 22.0451 122.134 22.3211C121.606 22.5851 121.042 22.7171 120.442 22.7171C119.65 22.7171 118.93 22.5191 118.282 22.1231C117.634 21.7151 117.124 21.1571 116.752 20.4491C116.38 19.7411 116.194 18.9371 116.194 18.0371C116.194 17.1371 116.38 16.3331 116.752 15.6251C117.124 14.9171 117.634 14.3651 118.282 13.9691C118.93 13.5611 119.65 13.3571 120.442 13.3571C121.066 13.3571 121.648 13.5011 122.188 13.7891C122.728 14.0771 123.19 14.4791 123.574 14.9951V13.5371H125.194ZM120.73 21.1331C121.258 21.1331 121.738 21.0011 122.17 20.7371C122.602 20.4731 122.938 20.1071 123.178 19.6391C123.418 19.1591 123.538 18.6251 123.538 18.0371C123.538 17.4491 123.418 16.9211 123.178 16.4531C122.938 15.9731 122.602 15.6011 122.17 15.3371C121.738 15.0731 121.258 14.9411 120.73 14.9411C120.202 14.9411 119.728 15.0731 119.308 15.3371C118.888 15.6011 118.558 15.9731 118.318 16.4531C118.078 16.9211 117.958 17.4491 117.958 18.0371C117.958 18.6251 118.078 19.1591 118.318 19.6391C118.558 20.1071 118.888 20.4731 119.308 20.7371C119.728 21.0011 120.202 21.1331 120.73 21.1331ZM139.149 13.3571C139.869 13.3571 140.511 13.5131 141.075 13.8251C141.651 14.1371 142.101 14.6111 142.425 15.2471C142.761 15.8711 142.929 16.6391 142.929 17.5511V22.5371H141.219V17.5871C141.219 16.7951 140.991 16.1651 140.535 15.6971C140.091 15.2291 139.527 14.9951 138.843 14.9951C138.099 14.9951 137.499 15.2591 137.043 15.7871C136.587 16.3151 136.359 16.9631 136.359 17.7311V22.5371H134.649V17.5871C134.649 16.7951 134.421 16.1651 133.965 15.6971C133.521 15.2291 132.957 14.9951 132.273 14.9951C131.529 14.9951 130.929 15.2591 130.473 15.7871C130.017 16.3151 129.789 16.9631 129.789 17.7311V22.5371H128.079V13.5371H129.699V14.9591C130.023 14.4671 130.437 14.0771 130.941 13.7891C131.457 13.5011 132.003 13.3571 132.579 13.3571C133.287 13.3571 133.923 13.5131 134.487 13.8251C135.063 14.1251 135.507 14.5751 135.819 15.1751C136.167 14.6231 136.635 14.1851 137.223 13.8611C137.823 13.5251 138.465 13.3571 139.149 13.3571Z" fill="black"/>
</svg>
