<svg width="426" height="289" viewBox="0 0 426 289" fill="none" xmlns="http://www.w3.org/2000/svg">
<mask id="path-1-inside-1_1681_4870" fill="white">
<path d="M7 289H426V151H7V289Z"/>
<path d="M426 13H7V151H426V13Z"/>
</mask>
<path d="M7 289H426V151H7V289Z" fill="black"/>
<path d="M426 150.528H7V151.472H426V150.528ZM7 13V12.0566H6.05664V13H7ZM426 13H426.943V12.0566H426V13ZM426 289V289.943H426.943V289H426ZM7 289H6.05664V289.943H7V289ZM7 13.9434H426V12.0566H7V13.9434ZM426 288.057H7V289.943H426V288.057ZM425.057 13V151H426.943V13H425.057ZM425.057 151V289H426.943V151H425.057ZM7.94336 289V151H6.05664V289H7.94336ZM7.94336 151V13H6.05664V151H7.94336Z" fill="black" mask="url(#path-1-inside-1_1681_4870)"/>
<rect x="0.47168" y="0.47168" width="418.057" height="275.057" fill="#F1EFED" stroke="black" stroke-width="0.94336"/>
<path d="M21.0951 34.4929L21.113 39.6846L19.0457 39.1199L19.0374 36.7196C19.0332 35.5129 18.7561 34.3287 18.2327 33.2537L19.833 33.2433C20.5276 33.2388 21.0927 33.7982 21.0951 34.4929ZM19.4229 40.5278L21.1176 40.9908L21.1367 46.5346C21.1391 47.2293 20.578 47.7961 19.8833 47.8006L19.0378 47.8061L19.0681 47.5971L19.8796 42.0099L19.9023 41.8539L19.8488 41.7059L19.4229 40.5278Z" fill="black" stroke="black" stroke-width="1.25781"/>
<rect x="0.631062" y="0.624811" width="11.2043" height="14.5574" rx="1.25781" transform="matrix(0.999979 -0.0065065 0.00344815 0.999994 6.76153 32.7031)" fill="#F1EFED" stroke="black" stroke-width="1.25781"/>
<path d="M49.3959 34.488L49.4138 39.6797L47.3464 39.115L47.3381 36.7147C47.334 35.508 47.0569 34.3238 46.5335 33.2488L48.1337 33.2384C48.8284 33.2339 49.3935 33.7933 49.3959 34.488ZM47.7237 40.5229L49.4183 40.9859L49.4375 46.5297C49.4399 47.2244 48.8787 47.7912 48.1841 47.7957L47.3386 47.8012L47.3689 47.5922L48.1804 42.005L48.2031 41.849L48.1495 41.701L47.7237 40.5229Z" fill="black" stroke="black" stroke-width="1.25781"/>
<rect x="0.631062" y="0.624811" width="11.2043" height="14.5574" rx="1.25781" transform="matrix(0.999979 -0.0065065 0.00344815 0.999994 35.0623 32.6982)" fill="#F1EFED" stroke="black" stroke-width="1.25781"/>
<path d="M77.6967 34.4826L77.7146 39.6744L75.6472 39.1096L75.6389 36.7094C75.6348 35.5027 75.3577 34.3185 74.8343 33.2434L76.4345 33.233C77.1292 33.2285 77.6943 33.788 77.6967 34.4826ZM76.0244 40.5176L77.7191 40.9805L77.7383 46.5244C77.7407 47.219 77.1795 47.7858 76.4849 47.7904L75.6393 47.7958L75.6697 47.5868L76.4812 41.9996L76.5038 41.8437L76.4503 41.6957L76.0244 40.5176Z" fill="black" stroke="black" stroke-width="1.25781"/>
<rect x="0.631062" y="0.624811" width="11.2043" height="14.5574" rx="1.25781" transform="matrix(0.999979 -0.0065065 0.00344815 0.999994 63.3631 32.6928)" fill="#F1EFED" stroke="black" stroke-width="1.25781"/>
<path d="M105.997 34.477L106.015 39.6688L103.948 39.104L103.94 36.7037C103.936 35.4971 103.658 34.3129 103.135 33.2378L104.735 33.2274C105.43 33.2229 105.995 33.7824 105.997 34.477ZM104.325 40.512L106.02 40.9749L106.039 46.5188C106.041 47.2134 105.48 47.7802 104.786 47.7847L103.94 47.7902L103.97 47.5812L104.782 41.994L104.805 41.838L104.751 41.69L104.325 40.512Z" fill="black" stroke="black" stroke-width="1.25781"/>
<rect x="0.631062" y="0.624811" width="11.2043" height="14.5574" rx="1.25781" transform="matrix(0.999979 -0.0065065 0.00344815 0.999994 91.6639 32.6872)" fill="#F1EFED" stroke="black" stroke-width="1.25781"/>
<path d="M134.298 34.4714L134.316 39.6631L132.249 39.0984L132.24 36.6981C132.236 35.4914 131.959 34.3072 131.436 33.2322L133.036 33.2218C133.731 33.2173 134.296 33.7767 134.298 34.4714ZM132.626 40.5063L134.321 40.9693L134.34 46.5131C134.342 47.2078 133.781 47.7746 133.086 47.7791L132.241 47.7846L132.271 47.5756L133.083 41.9884L133.105 41.8324L133.052 41.6844L132.626 40.5063Z" fill="black" stroke="black" stroke-width="1.25781"/>
<rect x="0.631062" y="0.624811" width="11.2043" height="14.5574" rx="1.25781" transform="matrix(0.999979 -0.0065065 0.00344815 0.999994 119.965 32.6816)" fill="#F1EFED" stroke="black" stroke-width="1.25781"/>
<path d="M162.599 34.4665L162.617 39.6583L160.55 39.0935L160.541 36.6932C160.537 35.4866 160.26 34.3024 159.737 33.2273L161.337 33.2169C162.032 33.2124 162.597 33.7719 162.599 34.4665ZM160.927 40.5015L162.621 40.9644L162.641 46.5083C162.643 47.2029 162.082 47.7697 161.387 47.7742L160.542 47.7797L160.572 47.5707L161.384 41.9835L161.406 41.8275L161.353 41.6795L160.927 40.5015Z" fill="black" stroke="black" stroke-width="1.25781"/>
<rect x="0.631062" y="0.624811" width="11.2043" height="14.5574" rx="1.25781" transform="matrix(0.999979 -0.0065065 0.00344815 0.999994 148.265 32.6767)" fill="#F1EFED" stroke="black" stroke-width="1.25781"/>
<path d="M190.9 34.4612L190.918 39.6529L188.85 39.0881L188.842 36.6879C188.838 35.4812 188.561 34.297 188.037 33.2219L189.638 33.2115C190.332 33.207 190.897 33.7665 190.9 34.4612ZM189.228 40.4961L190.922 40.959L190.941 46.5029C190.944 47.1976 190.383 47.7644 189.688 47.7689L188.842 47.7744L188.873 47.5653L189.684 41.9781L189.707 41.8222L189.653 41.6742L189.228 40.4961Z" fill="black" stroke="black" stroke-width="1.25781"/>
<rect x="0.631062" y="0.624811" width="11.2043" height="14.5574" rx="1.25781" transform="matrix(0.999979 -0.0065065 0.00344815 0.999994 176.566 32.6713)" fill="#F1EFED" stroke="black" stroke-width="1.25781"/>
<path d="M219.201 34.4553L219.219 39.647L217.151 39.0823L217.143 36.682C217.139 35.4753 216.862 34.2911 216.338 33.2161L217.938 33.2057C218.633 33.2012 219.198 33.7606 219.201 34.4553ZM217.528 40.4902L219.223 40.9532L219.242 46.497C219.245 47.1917 218.683 47.7585 217.989 47.763L217.143 47.7685L217.174 47.5595L217.985 41.9723L218.008 41.8163L217.954 41.6683L217.528 40.4902Z" fill="black" stroke="black" stroke-width="1.25781"/>
<rect x="0.631062" y="0.624811" width="11.2043" height="14.5574" rx="1.25781" transform="matrix(0.999979 -0.0065065 0.00344815 0.999994 204.867 32.6655)" fill="#F1EFED" stroke="black" stroke-width="1.25781"/>
<path d="M247.501 34.4499L247.519 39.6417L245.452 39.0769L245.444 36.6766C245.439 35.47 245.162 34.2858 244.639 33.2107L246.239 33.2003C246.934 33.1958 247.499 33.7553 247.501 34.4499ZM245.829 40.4849L247.524 40.9478L247.543 46.4917C247.545 47.1863 246.984 47.7531 246.29 47.7576L245.444 47.7631L245.474 47.5541L246.286 41.9669L246.309 41.8109L246.255 41.6629L245.829 40.4849Z" fill="black" stroke="black" stroke-width="1.25781"/>
<rect x="0.631062" y="0.624811" width="11.2043" height="14.5574" rx="1.25781" transform="matrix(0.999979 -0.0065065 0.00344815 0.999994 233.168 32.6601)" fill="#F1EFED" stroke="black" stroke-width="1.25781"/>
<path d="M275.802 34.445L275.82 39.6368L273.753 39.072L273.744 36.6718C273.74 35.4651 273.463 34.2809 272.94 33.2058L274.54 33.1954C275.235 33.1909 275.8 33.7504 275.802 34.445ZM274.13 40.48L275.825 40.9429L275.844 46.4868C275.846 47.1814 275.285 47.7482 274.59 47.7528L273.745 47.7582L273.775 47.5492L274.587 41.962L274.609 41.8061L274.556 41.6581L274.13 40.48Z" fill="black" stroke="black" stroke-width="1.25781"/>
<rect x="0.631062" y="0.624811" width="11.2043" height="14.5574" rx="1.25781" transform="matrix(0.999979 -0.0065065 0.00344815 0.999994 261.469 32.6552)" fill="#F1EFED" stroke="black" stroke-width="1.25781"/>
<path d="M304.103 34.4397L304.121 39.6314L302.053 39.0666L302.045 36.6664C302.041 35.4597 301.764 34.2755 301.241 33.2004L302.841 33.19C303.535 33.1855 304.101 33.745 304.103 34.4397ZM302.431 40.4746L304.125 40.9376L304.145 46.4814C304.147 47.1761 303.586 47.7429 302.891 47.7474L302.046 47.7529L302.076 47.5439L302.887 41.9566L302.91 41.8007L302.857 41.6527L302.431 40.4746Z" fill="black" stroke="black" stroke-width="1.25781"/>
<rect x="0.631062" y="0.624811" width="11.2043" height="14.5574" rx="1.25781" transform="matrix(0.999979 -0.0065065 0.00344815 0.999994 289.769 32.6499)" fill="#F1EFED" stroke="black" stroke-width="1.25781"/>
<path d="M332.404 34.4338L332.422 39.6255L330.354 39.0608L330.346 36.6605C330.342 35.4538 330.065 34.2696 329.541 33.1946L331.142 33.1842C331.836 33.1797 332.401 33.7392 332.404 34.4338ZM330.731 40.4687L332.426 40.9317L332.445 46.4755C332.448 47.1702 331.887 47.737 331.192 47.7415L330.346 47.747L330.377 47.538L331.188 41.9508L331.211 41.7948L331.157 41.6468L330.731 40.4687Z" fill="black" stroke="black" stroke-width="1.25781"/>
<rect x="0.631062" y="0.624811" width="11.2043" height="14.5574" rx="1.25781" transform="matrix(0.999979 -0.0065065 0.00344815 0.999994 318.07 32.644)" fill="#F1EFED" stroke="black" stroke-width="1.25781"/>
<path d="M360.704 34.4284L360.722 39.6202L358.655 39.0554L358.647 36.6552C358.643 35.4485 358.365 34.2643 357.842 33.1892L359.442 33.1788C360.137 33.1743 360.702 33.7338 360.704 34.4284ZM359.032 40.4634L360.727 40.9263L360.746 46.4702C360.749 47.1648 360.187 47.7316 359.493 47.7362L358.647 47.7416L358.678 47.5326L359.489 41.9454L359.512 41.7895L359.458 41.6415L359.032 40.4634Z" fill="black" stroke="black" stroke-width="1.25781"/>
<rect x="0.631062" y="0.624811" width="11.2043" height="14.5574" rx="1.25781" transform="matrix(0.999979 -0.0065065 0.00344815 0.999994 346.371 32.6386)" fill="#F1EFED" stroke="black" stroke-width="1.25781"/>
<path d="M389.005 34.4236L389.023 39.6153L386.956 39.0505L386.948 36.6503C386.943 35.4436 386.666 34.2594 386.143 33.1843L387.743 33.1739C388.438 33.1694 389.003 33.7289 389.005 34.4236ZM387.333 40.4585L389.028 40.9215L389.047 46.4653C389.049 47.16 388.488 47.7268 387.793 47.7313L386.948 47.7368L386.978 47.5278L387.79 41.9405L387.812 41.7846L387.759 41.6366L387.333 40.4585Z" fill="black" stroke="black" stroke-width="1.25781"/>
<rect x="0.631062" y="0.624811" width="11.2043" height="14.5574" rx="1.25781" transform="matrix(0.999979 -0.0065065 0.00344815 0.999994 374.671 32.6337)" fill="#F1EFED" stroke="black" stroke-width="1.25781"/>
</svg>
