<svg width="1195" height="506" viewBox="0 0 1195 506" fill="none" xmlns="http://www.w3.org/2000/svg">
<path d="M376.056 505.715L368.736 492.626L376.056 505.715Z" fill="black"/>
<path d="M361.366 479.558L354.086 466.46C354.072 466.445 354.064 466.425 354.064 466.405C354.064 466.384 354.072 466.365 354.086 466.35C354.093 466.342 354.101 466.335 354.111 466.33C354.12 466.326 354.131 466.323 354.141 466.323C354.152 466.323 354.162 466.326 354.172 466.33C354.181 466.335 354.19 466.342 354.196 466.35L361.426 479.498C361.434 479.508 361.438 479.52 361.438 479.533C361.438 479.546 361.434 479.558 361.426 479.568C361.417 479.573 361.406 479.575 361.395 479.573C361.384 479.571 361.374 479.566 361.366 479.558Z" fill="black"/>
<path d="M346.988 453.252L340.108 439.934C340.099 439.918 340.094 439.9 340.092 439.881C340.091 439.863 340.093 439.844 340.098 439.827C340.104 439.809 340.113 439.793 340.125 439.779C340.137 439.764 340.152 439.753 340.168 439.744C340.184 439.736 340.202 439.73 340.221 439.729C340.239 439.727 340.258 439.729 340.276 439.735C340.293 439.74 340.31 439.749 340.324 439.761C340.338 439.773 340.35 439.788 340.358 439.804L347.178 453.142C347.192 453.17 347.195 453.203 347.186 453.232C347.176 453.262 347.156 453.287 347.128 453.302C347.102 453.311 347.075 453.311 347.049 453.302C347.024 453.292 347.002 453.275 346.988 453.252Z" fill="black"/>
<path d="M333.527 426.466L327.317 412.808C327.297 412.759 327.295 412.703 327.314 412.653C327.332 412.603 327.369 412.562 327.417 412.538C327.467 412.517 327.522 412.516 327.572 412.535C327.622 412.553 327.664 412.59 327.687 412.638L333.837 426.306C333.847 426.326 333.853 426.348 333.853 426.371C333.854 426.393 333.85 426.415 333.841 426.436C333.833 426.457 333.82 426.475 333.804 426.491C333.788 426.506 333.768 426.518 333.747 426.526C333.71 426.545 333.667 426.549 333.626 426.538C333.585 426.527 333.55 426.501 333.527 426.466Z" fill="black"/>
<path d="M321.647 398.91L316.647 384.752C316.634 384.722 316.628 384.688 316.629 384.655C316.63 384.622 316.637 384.589 316.652 384.559C316.666 384.529 316.686 384.502 316.711 384.481C316.736 384.459 316.765 384.442 316.797 384.432C316.861 384.409 316.931 384.412 316.992 384.44C317.054 384.468 317.102 384.519 317.127 384.582L322.127 398.73C322.146 398.787 322.142 398.849 322.116 398.904C322.09 398.958 322.044 399 321.987 399.02C321.959 399.041 321.926 399.055 321.892 399.06C321.857 399.066 321.822 399.063 321.789 399.052C321.755 399.042 321.725 399.023 321.701 398.998C321.676 398.974 321.658 398.943 321.647 398.91Z" fill="black"/>
<path d="M312.647 370.275C311.497 365.403 310.678 360.459 310.197 355.477C310.193 355.436 310.197 355.395 310.209 355.356C310.22 355.317 310.24 355.28 310.266 355.249C310.292 355.217 310.324 355.191 310.36 355.172C310.396 355.153 310.436 355.141 310.477 355.137C310.56 355.134 310.64 355.162 310.703 355.216C310.766 355.269 310.807 355.345 310.817 355.427C311.26 360.398 312.045 365.332 313.167 370.195C313.182 370.269 313.167 370.346 313.126 370.409C313.085 370.473 313.021 370.518 312.947 370.535C312.874 370.535 312.803 370.509 312.748 370.461C312.692 370.414 312.657 370.347 312.647 370.275Z" fill="black"/>
<path d="M310.647 340.409C311.392 335.378 313.359 330.606 316.377 326.511C316.406 326.473 316.443 326.442 316.485 326.418C316.526 326.395 316.572 326.38 316.62 326.374C316.667 326.368 316.715 326.372 316.761 326.386C316.807 326.399 316.85 326.421 316.887 326.451C316.963 326.51 317.012 326.597 317.025 326.692C317.038 326.787 317.014 326.883 316.957 326.961C313.988 330.936 312.035 335.577 311.267 340.479C311.261 340.523 311.246 340.566 311.223 340.605C311.2 340.643 311.169 340.677 311.133 340.703C311.096 340.729 311.054 340.748 311.011 340.757C310.967 340.767 310.921 340.767 310.877 340.759C310.806 340.733 310.745 340.685 310.704 340.622C310.663 340.559 310.643 340.484 310.647 340.409Z" fill="black"/>
<path d="M328.546 317.802C333.318 316.143 338.325 315.256 343.376 315.173C343.432 315.17 343.487 315.178 343.539 315.197C343.591 315.216 343.638 315.244 343.679 315.282C343.72 315.319 343.753 315.364 343.777 315.414C343.8 315.463 343.814 315.518 343.816 315.573C343.82 315.629 343.813 315.686 343.794 315.739C343.775 315.792 343.746 315.841 343.707 315.882C343.669 315.923 343.622 315.956 343.571 315.979C343.519 316.001 343.463 316.013 343.406 316.013C338.44 316.083 333.516 316.936 328.816 318.542C328.718 318.578 328.61 318.574 328.514 318.531C328.419 318.488 328.344 318.409 328.306 318.312C328.271 318.212 328.276 318.103 328.321 318.008C328.366 317.912 328.447 317.838 328.546 317.802Z" fill="black"/>
<path d="M358.417 316.033C363.417 316.703 368.317 317.672 373.197 318.812C373.259 318.826 373.317 318.852 373.369 318.889C373.421 318.926 373.464 318.973 373.498 319.027C373.531 319.081 373.554 319.141 373.564 319.203C373.574 319.266 373.572 319.33 373.557 319.392C373.543 319.454 373.516 319.512 373.48 319.564C373.443 319.615 373.396 319.659 373.342 319.693C373.288 319.726 373.228 319.749 373.165 319.759C373.103 319.769 373.039 319.767 372.977 319.752C368.117 318.592 363.227 317.612 358.297 316.933C358.238 316.925 358.18 316.906 358.128 316.876C358.077 316.847 358.031 316.807 357.995 316.759C357.959 316.712 357.932 316.658 357.917 316.6C357.902 316.542 357.898 316.482 357.907 316.423C357.914 316.363 357.933 316.306 357.963 316.254C357.993 316.203 358.033 316.157 358.08 316.121C358.128 316.085 358.182 316.058 358.24 316.043C358.297 316.028 358.358 316.024 358.417 316.033Z" fill="black"/>
<path d="M387.757 322.482L402.187 326.61C402.253 326.629 402.316 326.66 402.37 326.703C402.425 326.746 402.47 326.799 402.503 326.86C402.537 326.92 402.558 326.987 402.565 327.055C402.573 327.124 402.567 327.194 402.547 327.26C402.509 327.393 402.421 327.505 402.301 327.572C402.181 327.64 402.039 327.657 401.907 327.62L387.497 323.481C387.369 323.444 387.262 323.358 387.198 323.242C387.135 323.125 387.12 322.989 387.157 322.861C387.17 322.796 387.196 322.734 387.233 322.68C387.271 322.625 387.319 322.578 387.375 322.543C387.431 322.507 387.494 322.484 387.56 322.473C387.625 322.462 387.692 322.465 387.757 322.482Z" fill="black"/>
<path d="M416.498 331.15L430.648 336.069C430.787 336.119 430.9 336.221 430.964 336.354C431.028 336.487 431.036 336.639 430.988 336.779C430.965 336.847 430.928 336.91 430.88 336.964C430.832 337.018 430.774 337.062 430.709 337.094C430.644 337.125 430.573 337.144 430.501 337.148C430.429 337.152 430.356 337.142 430.288 337.119L416.148 332.17C416.081 332.146 416.019 332.11 415.967 332.062C415.914 332.015 415.871 331.958 415.84 331.894C415.809 331.829 415.792 331.76 415.788 331.689C415.784 331.618 415.794 331.547 415.818 331.48C415.841 331.414 415.876 331.352 415.923 331.299C415.969 331.246 416.026 331.203 416.089 331.173C416.152 331.142 416.221 331.124 416.291 331.12C416.362 331.117 416.432 331.127 416.498 331.15Z" fill="black"/>
<path d="M444.748 341.319L458.748 346.827C458.82 346.854 458.886 346.894 458.941 346.947C458.997 346.999 459.041 347.062 459.072 347.132C459.103 347.202 459.119 347.277 459.12 347.354C459.121 347.43 459.107 347.506 459.078 347.577C459.051 347.649 459.009 347.715 458.956 347.77C458.902 347.826 458.838 347.871 458.768 347.901C458.697 347.932 458.621 347.948 458.543 347.949C458.466 347.95 458.39 347.936 458.318 347.907L444.338 342.378C444.269 342.352 444.206 342.312 444.152 342.261C444.098 342.21 444.055 342.148 444.026 342.08C443.996 342.012 443.98 341.939 443.979 341.865C443.977 341.791 443.991 341.717 444.018 341.649C444.044 341.578 444.083 341.514 444.134 341.459C444.185 341.405 444.246 341.361 444.314 341.33C444.382 341.299 444.455 341.282 444.53 341.28C444.604 341.279 444.679 341.292 444.748 341.319Z" fill="black"/>
<path d="M472.578 352.557L486.378 358.476C486.462 358.502 486.539 358.544 486.605 358.602C486.671 358.659 486.725 358.73 486.761 358.809C486.798 358.888 486.818 358.975 486.819 359.062C486.82 359.15 486.802 359.236 486.768 359.317C486.733 359.397 486.681 359.469 486.617 359.528C486.552 359.587 486.476 359.631 486.393 359.659C486.31 359.686 486.222 359.696 486.135 359.687C486.048 359.677 485.964 359.65 485.888 359.606L472.118 353.667C471.984 353.597 471.882 353.479 471.832 353.337C471.781 353.195 471.786 353.039 471.845 352.9C471.904 352.762 472.014 352.65 472.151 352.589C472.289 352.527 472.445 352.519 472.588 352.567L472.578 352.557Z" fill="black"/>
<path d="M500.108 364.475L513.798 370.614C513.955 370.685 514.079 370.815 514.141 370.976C514.203 371.137 514.198 371.316 514.128 371.474C514.057 371.632 513.927 371.755 513.766 371.817C513.605 371.879 513.425 371.874 513.268 371.804L499.598 365.635C499.522 365.601 499.454 365.552 499.397 365.492C499.341 365.431 499.296 365.36 499.267 365.283C499.238 365.205 499.224 365.123 499.227 365.04C499.23 364.957 499.248 364.876 499.283 364.8C499.317 364.725 499.365 364.657 499.426 364.6C499.486 364.543 499.557 364.499 499.635 364.47C499.712 364.441 499.795 364.427 499.878 364.43C499.961 364.432 500.042 364.451 500.118 364.485L500.108 364.475Z" fill="black"/>
<path d="M527.457 376.863L541.107 383.082C541.188 383.119 541.261 383.171 541.322 383.237C541.383 383.302 541.43 383.379 541.461 383.463C541.492 383.547 541.506 383.636 541.501 383.725C541.497 383.814 541.475 383.902 541.437 383.982C541.4 384.064 541.348 384.137 541.282 384.198C541.217 384.259 541.141 384.307 541.057 384.339C540.974 384.37 540.885 384.385 540.795 384.382C540.706 384.379 540.618 384.359 540.537 384.322L526.907 378.073C526.826 378.037 526.752 377.986 526.692 377.921C526.631 377.857 526.584 377.781 526.553 377.698C526.522 377.615 526.508 377.527 526.512 377.438C526.517 377.35 526.538 377.263 526.577 377.183C526.612 377.103 526.663 377.031 526.727 376.972C526.791 376.912 526.866 376.866 526.949 376.836C527.031 376.806 527.118 376.793 527.205 376.798C527.293 376.802 527.378 376.825 527.457 376.863Z" fill="black"/>
<path d="M554.757 389.282L568.447 395.411C568.533 395.449 568.61 395.503 568.674 395.571C568.738 395.639 568.789 395.719 568.822 395.806C568.856 395.893 568.871 395.986 568.869 396.08C568.866 396.173 568.846 396.265 568.807 396.351C568.769 396.436 568.715 396.513 568.647 396.577C568.579 396.642 568.499 396.692 568.412 396.725C568.325 396.759 568.232 396.775 568.138 396.772C568.045 396.77 567.953 396.749 567.867 396.711L554.197 390.541C554.115 390.504 554.04 390.451 553.978 390.384C553.916 390.318 553.868 390.24 553.835 390.155C553.803 390.071 553.788 389.98 553.791 389.889C553.794 389.799 553.815 389.709 553.852 389.627C553.89 389.544 553.943 389.469 554.009 389.407C554.076 389.345 554.154 389.297 554.239 389.265C554.323 389.233 554.414 389.218 554.505 389.221C554.595 389.223 554.685 389.244 554.767 389.282H554.757Z" fill="black"/>
<path d="M582.027 401.85L595.417 408.629C595.591 408.721 595.722 408.877 595.782 409.064C595.841 409.251 595.825 409.454 595.737 409.629C595.694 409.717 595.633 409.795 595.559 409.859C595.485 409.923 595.399 409.972 595.306 410.003C595.213 410.034 595.115 410.045 595.017 410.038C594.92 410.03 594.825 410.004 594.737 409.959L581.387 403.15C581.299 403.107 581.221 403.046 581.157 402.972C581.093 402.898 581.045 402.811 581.015 402.718C580.985 402.625 580.975 402.526 580.984 402.429C580.992 402.331 581.021 402.236 581.067 402.15C581.157 401.985 581.307 401.861 581.486 401.805C581.666 401.749 581.86 401.765 582.027 401.85Z" fill="black"/>
<path d="M608.738 415.528L622.078 422.367C622.262 422.461 622.402 422.625 622.465 422.821C622.529 423.018 622.512 423.232 622.418 423.417C622.324 423.601 622.16 423.74 621.963 423.804C621.766 423.868 621.552 423.851 621.368 423.757L608.028 416.888C607.932 416.847 607.845 416.787 607.773 416.711C607.701 416.636 607.646 416.546 607.61 416.448C607.575 416.35 607.559 416.245 607.566 416.141C607.572 416.037 607.6 415.935 607.648 415.842C607.695 415.749 607.761 415.667 607.842 415.601C607.923 415.535 608.016 415.486 608.117 415.457C608.217 415.429 608.322 415.421 608.426 415.435C608.529 415.449 608.629 415.484 608.718 415.538L608.738 415.528Z" fill="black"/>
<path d="M635.507 429.006L649.097 435.305C649.291 435.394 649.442 435.557 649.517 435.757C649.592 435.958 649.585 436.18 649.497 436.375C649.403 436.568 649.238 436.717 649.036 436.79C648.834 436.863 648.612 436.854 648.417 436.765L634.817 430.466C634.626 430.377 634.478 430.216 634.406 430.018C634.333 429.82 634.343 429.602 634.432 429.411C634.52 429.22 634.681 429.072 634.879 429C635.077 428.928 635.296 428.937 635.487 429.026L635.507 429.006Z" fill="black"/>
<path d="M662.897 441.084L676.968 446.153H677.017C677.121 446.19 677.216 446.247 677.297 446.321C677.379 446.395 677.445 446.484 677.491 446.584C677.538 446.683 677.564 446.791 677.568 446.901C677.573 447.01 677.556 447.12 677.517 447.223C677.443 447.432 677.288 447.603 677.088 447.699C676.887 447.794 676.657 447.807 676.448 447.733L662.308 442.594C662.202 442.56 662.105 442.506 662.021 442.434C661.937 442.362 661.869 442.273 661.82 442.174C661.772 442.075 661.743 441.967 661.738 441.857C661.732 441.747 661.748 441.636 661.786 441.532C661.823 441.429 661.882 441.333 661.957 441.253C662.033 441.172 662.124 441.107 662.225 441.063C662.326 441.018 662.435 440.994 662.545 440.993C662.656 440.991 662.765 441.012 662.867 441.054L662.897 441.084Z" fill="black"/>
<path d="M691.328 450.233C696.158 451.397 701.049 452.295 705.978 452.922C706.202 452.95 706.406 453.066 706.544 453.244C706.683 453.422 706.745 453.648 706.718 453.872C706.69 454.096 706.574 454.3 706.396 454.438C706.218 454.577 705.992 454.639 705.768 454.612C700.774 453.978 695.82 453.067 690.928 451.882C690.715 451.828 690.532 451.693 690.417 451.507C690.301 451.321 690.262 451.097 690.308 450.883C690.33 450.772 690.375 450.667 690.438 450.574C690.502 450.481 690.584 450.402 690.68 450.341C690.775 450.28 690.881 450.24 690.993 450.221C691.104 450.202 691.218 450.206 691.328 450.233Z" fill="black"/>
<path d="M720.828 453.692C723.298 453.622 725.768 453.452 728.228 453.152C730.651 452.886 733.036 452.347 735.338 451.542C735.447 451.492 735.566 451.464 735.687 451.462C735.807 451.46 735.927 451.482 736.038 451.529C736.149 451.575 736.25 451.644 736.333 451.731C736.416 451.819 736.481 451.922 736.522 452.036C736.563 452.149 736.58 452.27 736.572 452.39C736.563 452.51 736.53 452.627 736.475 452.734C736.419 452.841 736.341 452.935 736.247 453.011C736.153 453.086 736.044 453.141 735.928 453.172C733.499 454.014 730.983 454.581 728.428 454.862C725.921 455.161 723.401 455.345 720.868 455.411C720.64 455.411 720.421 455.321 720.26 455.16C720.098 454.998 720.008 454.78 720.008 454.552C720.008 454.324 720.098 454.105 720.26 453.944C720.421 453.782 720.64 453.692 720.868 453.692H720.828Z" fill="black"/>
<path d="M745.338 442.114C746.094 439.829 746.452 437.431 746.398 435.025C746.35 432.583 746.062 430.151 745.538 427.766C745.514 427.653 745.512 427.537 745.532 427.424C745.553 427.311 745.595 427.204 745.658 427.107C745.72 427.01 745.8 426.927 745.895 426.862C745.989 426.796 746.096 426.75 746.208 426.726C746.32 426.702 746.436 426.7 746.549 426.72C746.662 426.741 746.77 426.783 746.867 426.845C746.963 426.908 747.047 426.988 747.112 427.083C747.178 427.177 747.224 427.283 747.248 427.396C747.796 429.896 748.094 432.445 748.138 435.005C748.197 437.613 747.801 440.211 746.968 442.683C746.94 442.802 746.886 442.914 746.812 443.01C746.738 443.107 746.644 443.187 746.537 443.245C746.429 443.304 746.311 443.339 746.189 443.348C746.068 443.357 745.945 443.341 745.83 443.3C745.715 443.259 745.61 443.195 745.522 443.11C745.433 443.026 745.364 442.925 745.317 442.812C745.271 442.699 745.249 442.577 745.252 442.455C745.256 442.333 745.285 442.214 745.338 442.104V442.114Z" fill="black"/>
<path d="M740.848 413.728C738.848 409.179 736.578 404.729 734.148 400.41C734.09 400.309 734.054 400.198 734.04 400.082C734.026 399.967 734.034 399.85 734.066 399.738C734.097 399.626 734.149 399.522 734.221 399.43C734.293 399.339 734.381 399.262 734.483 399.205C734.584 399.148 734.695 399.111 734.81 399.097C734.926 399.083 735.043 399.092 735.154 399.123C735.266 399.154 735.371 399.207 735.462 399.279C735.554 399.35 735.63 399.439 735.688 399.54C738.173 403.918 740.432 408.42 742.458 413.028C742.532 413.238 742.523 413.468 742.435 413.672C742.346 413.876 742.183 414.039 741.979 414.128C741.774 414.217 741.544 414.225 741.334 414.151C741.125 414.076 740.951 413.925 740.848 413.728Z" fill="black"/>
<path d="M726.407 387.622L717.957 375.284C717.858 375.088 717.833 374.863 717.888 374.651C717.943 374.438 718.074 374.253 718.256 374.13C718.437 374.008 718.658 373.955 718.875 373.984C719.093 374.012 719.293 374.119 719.437 374.284L727.927 386.702C728.046 386.897 728.086 387.13 728.038 387.354C727.99 387.577 727.857 387.773 727.668 387.902C727.479 388.03 727.248 388.081 727.023 388.044C726.797 388.007 726.595 387.884 726.457 387.702L726.407 387.622Z" fill="black"/>
<path d="M709.228 363.086L700.648 350.778C700.564 350.682 700.502 350.569 700.465 350.447C700.427 350.325 700.417 350.196 700.433 350.07C700.45 349.943 700.493 349.822 700.56 349.713C700.627 349.604 700.716 349.511 700.822 349.44C700.928 349.368 701.047 349.32 701.173 349.299C701.299 349.277 701.428 349.282 701.551 349.314C701.675 349.346 701.79 349.404 701.89 349.484C701.989 349.564 702.07 349.664 702.128 349.778L710.648 362.046C710.737 362.141 710.805 362.254 710.846 362.377C710.887 362.5 710.901 362.631 710.887 362.761C710.873 362.89 710.83 363.015 710.763 363.126C710.696 363.237 710.606 363.333 710.498 363.406C710.391 363.479 710.269 363.528 710.14 363.55C710.012 363.571 709.881 363.565 709.755 363.53C709.63 363.496 709.513 363.435 709.414 363.351C709.314 363.268 709.234 363.163 709.178 363.046L709.228 363.086Z" fill="black"/>
<path d="M692.477 338.119C689.887 333.83 687.417 329.441 685.167 324.941C685.059 324.724 685.043 324.473 685.121 324.243C685.198 324.013 685.364 323.824 685.582 323.717C685.799 323.609 686.051 323.593 686.28 323.67C686.51 323.748 686.699 323.914 686.807 324.132C689.027 328.571 691.467 332.92 694.037 337.18C694.162 337.386 694.199 337.634 694.141 337.869C694.083 338.103 693.934 338.305 693.727 338.429C693.52 338.554 693.272 338.591 693.038 338.533C692.803 338.475 692.601 338.326 692.477 338.119Z" fill="black"/>
<path d="M679.196 311.073C677.482 306.31 676.206 301.401 675.386 296.405C675.348 296.161 675.408 295.912 675.553 295.712C675.699 295.513 675.917 295.379 676.161 295.34C676.405 295.302 676.655 295.362 676.854 295.507C677.054 295.653 677.188 295.871 677.226 296.115C678.016 301.009 679.258 305.819 680.936 310.483C681.019 310.714 681.006 310.968 680.901 311.189C680.796 311.41 680.607 311.581 680.376 311.663C680.146 311.745 679.892 311.732 679.67 311.627C679.449 311.522 679.279 311.334 679.196 311.103V311.073Z" fill="black"/>
<path d="M675.137 281.138C675.642 278.555 676.663 276.1 678.137 273.919C679.655 271.761 681.607 269.942 683.867 268.58C684.079 268.447 684.335 268.404 684.579 268.461C684.823 268.517 685.034 268.668 685.167 268.88C685.299 269.092 685.342 269.348 685.286 269.592C685.23 269.836 685.079 270.047 684.867 270.18C682.828 271.406 681.067 273.044 679.697 274.989C678.353 276.957 677.424 279.179 676.967 281.518C676.916 281.761 676.772 281.973 676.564 282.109C676.357 282.245 676.104 282.293 675.862 282.243C675.619 282.192 675.406 282.048 675.27 281.841C675.134 281.633 675.086 281.381 675.137 281.138Z" fill="black"/>
<path d="M698.537 264.191C703.577 263.726 708.648 263.726 713.687 264.191C713.926 264.225 714.143 264.35 714.293 264.538C714.443 264.727 714.517 264.965 714.497 265.206C714.478 265.446 714.369 265.67 714.19 265.833C714.012 265.995 713.779 266.084 713.537 266.081C708.612 265.619 703.655 265.602 698.727 266.031C698.482 266.051 698.239 265.974 698.05 265.816C697.861 265.659 697.741 265.434 697.716 265.189C697.691 264.944 697.763 264.699 697.917 264.507C698.07 264.315 698.293 264.19 698.537 264.161V264.191Z" fill="black"/>
<path d="M728.648 266.27L743.368 269.469C743.523 269.457 743.679 269.481 743.824 269.541C743.968 269.6 744.097 269.692 744.199 269.809C744.302 269.927 744.375 270.067 744.414 270.218C744.453 270.369 744.456 270.528 744.422 270.68C744.389 270.832 744.32 270.975 744.222 271.096C744.123 271.217 743.998 271.314 743.856 271.378C743.713 271.442 743.558 271.471 743.402 271.465C743.246 271.458 743.094 271.415 742.958 271.339H742.908L728.308 268.16H728.248C728.125 268.135 728.008 268.085 727.905 268.015C727.801 267.944 727.713 267.854 727.645 267.748C727.577 267.643 727.53 267.525 727.508 267.402C727.487 267.279 727.49 267.152 727.518 267.03C727.575 266.784 727.724 266.569 727.933 266.428C728.143 266.287 728.398 266.231 728.648 266.27Z" fill="black"/>
<path d="M757.877 273.329C760.287 273.979 762.677 274.638 765.087 275.268L772.377 277.078C772.621 277.146 772.831 277.305 772.963 277.522C773.095 277.739 773.139 277.999 773.087 278.247C773.018 278.492 772.859 278.702 772.642 278.834C772.425 278.966 772.165 279.01 771.917 278.957L764.647 277.158C762.227 276.528 759.797 275.848 757.377 275.158C757.189 275.047 757.043 274.877 756.96 274.675C756.878 274.473 756.864 274.25 756.921 274.039C756.978 273.828 757.102 273.642 757.274 273.508C757.447 273.375 757.658 273.301 757.877 273.299V273.329Z" fill="black"/>
<path d="M786.898 280.908L801.358 284.967C801.565 285.071 801.73 285.244 801.823 285.456C801.917 285.668 801.934 285.906 801.871 286.13C801.809 286.353 801.67 286.547 801.48 286.68C801.29 286.813 801.059 286.875 800.828 286.856L786.408 282.787C786.258 282.78 786.112 282.74 785.98 282.668C785.848 282.597 785.733 282.497 785.645 282.375C785.557 282.254 785.498 282.114 785.471 281.966C785.444 281.819 785.451 281.667 785.491 281.522C785.531 281.378 785.603 281.244 785.702 281.131C785.801 281.018 785.924 280.929 786.062 280.87C786.2 280.811 786.349 280.783 786.499 280.79C786.649 280.797 786.796 280.837 786.928 280.908H786.898Z" fill="black"/>
<path d="M815.757 289.167L830.147 293.425C830.398 293.504 830.608 293.678 830.732 293.91C830.855 294.142 830.882 294.413 830.807 294.665C830.729 294.914 830.556 295.122 830.327 295.245C830.097 295.368 829.828 295.397 829.577 295.325L815.207 291.056C814.997 290.952 814.831 290.777 814.737 290.562C814.642 290.348 814.627 290.107 814.692 289.882C814.758 289.656 814.9 289.461 815.095 289.331C815.29 289.2 815.524 289.142 815.757 289.167Z" fill="black"/>
<path d="M844.528 297.676L858.928 301.834C859.18 301.909 859.393 302.079 859.521 302.31C859.648 302.54 859.679 302.811 859.608 303.064C859.536 303.318 859.366 303.533 859.135 303.663C858.905 303.792 858.633 303.825 858.378 303.754L843.958 299.575C843.731 299.481 843.546 299.307 843.439 299.085C843.332 298.864 843.311 298.611 843.379 298.374C843.447 298.138 843.6 297.935 843.808 297.804C844.016 297.674 844.266 297.624 844.508 297.666L844.528 297.676Z" fill="black"/>
<path d="M873.368 305.844L887.868 309.603C888.084 309.699 888.258 309.868 888.361 310.081C888.464 310.294 888.488 310.536 888.43 310.765C888.371 310.993 888.233 311.194 888.041 311.331C887.848 311.468 887.613 311.532 887.378 311.512L872.838 307.754C872.7 307.732 872.569 307.682 872.452 307.607C872.335 307.532 872.234 307.433 872.158 307.317C872.081 307.201 872.029 307.07 872.006 306.932C871.983 306.795 871.989 306.655 872.023 306.52C872.057 306.385 872.119 306.259 872.205 306.149C872.291 306.04 872.399 305.949 872.522 305.884C872.644 305.818 872.78 305.779 872.918 305.769C873.057 305.759 873.197 305.777 873.328 305.824L873.368 305.844Z" fill="black"/>
<path d="M902.447 313.043L917.107 316.042C917.319 316.133 917.494 316.293 917.601 316.497C917.708 316.701 917.741 316.935 917.695 317.161C917.65 317.387 917.527 317.59 917.349 317.736C917.171 317.881 916.948 317.961 916.717 317.962L901.987 314.963C901.768 314.876 901.586 314.715 901.474 314.508C901.362 314.301 901.326 314.06 901.374 313.83C901.422 313.599 901.55 313.392 901.735 313.247C901.921 313.101 902.152 313.025 902.387 313.033L902.447 313.043Z" fill="black"/>
<path d="M931.857 318.602L946.647 320.531C946.798 320.512 946.952 320.529 947.096 320.578C947.24 320.628 947.371 320.71 947.479 320.819C947.587 320.927 947.668 321.058 947.717 321.203C947.766 321.347 947.781 321.501 947.762 321.652C947.742 321.804 947.688 321.949 947.603 322.076C947.519 322.203 947.407 322.309 947.275 322.386C947.143 322.463 946.995 322.509 946.843 322.52C946.691 322.532 946.538 322.508 946.397 322.451L931.567 320.481C931.416 320.497 931.265 320.478 931.123 320.427C930.981 320.376 930.852 320.293 930.747 320.185C930.642 320.077 930.562 319.947 930.514 319.803C930.467 319.66 930.452 319.508 930.471 319.359C930.491 319.209 930.544 319.066 930.626 318.939C930.709 318.813 930.819 318.707 930.949 318.63C931.078 318.552 931.223 318.505 931.374 318.491C931.524 318.478 931.675 318.499 931.817 318.552L931.857 318.602Z" fill="black"/>
<path d="M961.577 321.762C966.469 322.083 971.38 321.583 976.107 320.282C976.237 320.195 976.385 320.14 976.54 320.12C976.695 320.101 976.852 320.118 976.999 320.17C977.146 320.222 977.279 320.308 977.387 320.421C977.495 320.534 977.575 320.67 977.621 320.819C977.667 320.969 977.677 321.127 977.65 321.281C977.624 321.434 977.562 321.58 977.469 321.706C977.377 321.831 977.256 321.933 977.116 322.004C976.977 322.074 976.823 322.111 976.667 322.112C971.731 323.482 966.599 324.013 961.487 323.681C961.336 323.718 961.179 323.719 961.028 323.685C960.877 323.65 960.736 323.581 960.616 323.483C960.496 323.385 960.401 323.26 960.337 323.119C960.274 322.977 960.244 322.823 960.251 322.668C960.257 322.514 960.3 322.362 960.375 322.227C960.45 322.091 960.555 321.975 960.683 321.887C960.81 321.799 960.957 321.742 961.11 321.72C961.263 321.698 961.42 321.713 961.567 321.762H961.577Z" fill="black"/>
<path d="M986.267 311.483C986.87 309.194 986.905 306.791 986.367 304.485C985.823 302.127 984.98 299.849 983.857 297.706C983.791 297.594 983.748 297.47 983.732 297.341C983.716 297.212 983.726 297.082 983.762 296.957C983.799 296.832 983.86 296.716 983.943 296.617C984.026 296.517 984.128 296.435 984.244 296.376C984.359 296.317 984.486 296.282 984.615 296.274C984.745 296.266 984.875 296.285 984.997 296.329C985.119 296.373 985.231 296.441 985.325 296.53C985.42 296.619 985.495 296.727 985.547 296.846C986.755 299.134 987.656 301.571 988.227 304.095C988.837 306.694 988.796 309.404 988.107 311.983C987.989 312.159 987.819 312.293 987.621 312.365C987.422 312.438 987.206 312.446 987.003 312.388C986.8 312.331 986.62 312.21 986.489 312.044C986.359 311.878 986.284 311.675 986.277 311.463L986.267 311.483Z" fill="black"/>
<path d="M975.306 285.677L965.346 274.489C965.211 274.3 965.15 274.067 965.176 273.836C965.202 273.605 965.312 273.392 965.487 273.237C965.661 273.083 965.886 272.999 966.119 273.001C966.352 273.003 966.575 273.092 966.746 273.249L976.746 284.457C976.829 284.55 976.892 284.658 976.933 284.775C976.973 284.892 976.99 285.015 976.983 285.139C976.975 285.263 976.944 285.383 976.889 285.495C976.835 285.606 976.759 285.705 976.666 285.787C976.576 285.871 976.47 285.936 976.354 285.978C976.238 286.02 976.115 286.038 975.992 286.032C975.868 286.025 975.748 285.994 975.637 285.94C975.526 285.886 975.427 285.81 975.346 285.717L975.306 285.677Z" fill="black"/>
<path d="M955.037 263.651L944.487 253.012C944.4 252.927 944.331 252.825 944.284 252.712C944.237 252.6 944.213 252.479 944.213 252.357C944.213 252.235 944.237 252.115 944.284 252.002C944.331 251.89 944.4 251.788 944.487 251.702C944.572 251.616 944.673 251.547 944.784 251.5C944.896 251.453 945.016 251.429 945.137 251.429C945.258 251.429 945.378 251.453 945.489 251.5C945.601 251.547 945.702 251.616 945.787 251.702L956.367 262.351C956.455 262.437 956.526 262.54 956.574 262.653C956.623 262.767 956.648 262.889 956.648 263.013C956.649 263.136 956.625 263.259 956.578 263.373C956.531 263.487 956.461 263.59 956.374 263.677C956.286 263.764 956.182 263.833 956.067 263.879C955.953 263.926 955.83 263.949 955.707 263.947C955.583 263.946 955.461 263.919 955.348 263.87C955.235 263.821 955.132 263.75 955.047 263.661L955.037 263.651Z" fill="black"/>
<path d="M933.808 242.494L923.128 231.965C923.042 231.881 922.974 231.781 922.928 231.671C922.881 231.561 922.856 231.442 922.855 231.322C922.855 231.203 922.877 231.084 922.922 230.973C922.967 230.862 923.034 230.761 923.118 230.675C923.202 230.59 923.302 230.522 923.412 230.475C923.522 230.429 923.641 230.404 923.761 230.403C923.88 230.402 923.999 230.425 924.11 230.47C924.221 230.515 924.322 230.581 924.408 230.665L935.098 241.184C935.198 241.264 935.28 241.365 935.338 241.479C935.397 241.593 935.431 241.718 935.439 241.846C935.447 241.974 935.428 242.102 935.383 242.222C935.338 242.342 935.268 242.452 935.179 242.543C935.089 242.635 934.981 242.707 934.862 242.755C934.743 242.802 934.615 242.824 934.487 242.82C934.359 242.815 934.233 242.784 934.118 242.727C934.003 242.671 933.9 242.592 933.818 242.494H933.808Z" fill="black"/>
<path d="M912.538 221.307L902.168 210.499C902.071 210.416 901.993 210.314 901.938 210.199C901.883 210.084 901.853 209.959 901.85 209.832C901.846 209.705 901.87 209.578 901.918 209.461C901.967 209.343 902.039 209.237 902.131 209.149C902.223 209.061 902.333 208.994 902.453 208.951C902.573 208.908 902.7 208.891 902.827 208.9C902.954 208.909 903.077 208.945 903.19 209.005C903.302 209.065 903.4 209.148 903.478 209.249L913.828 220.067C913.913 220.151 913.98 220.251 914.026 220.36C914.072 220.47 914.095 220.588 914.095 220.707C914.095 220.826 914.072 220.944 914.026 221.054C913.98 221.164 913.913 221.263 913.828 221.347C913.744 221.432 913.643 221.499 913.532 221.545C913.422 221.591 913.303 221.615 913.183 221.615C913.063 221.615 912.945 221.591 912.834 221.545C912.723 221.499 912.623 221.432 912.538 221.347V221.307Z" fill="black"/>
<path d="M892.127 199.26L887.296 193.501C886.496 192.501 885.676 191.602 884.896 190.612L882.586 187.612C882.515 187.52 882.462 187.414 882.432 187.301C882.401 187.188 882.393 187.07 882.408 186.954C882.422 186.838 882.46 186.726 882.518 186.625C882.576 186.523 882.654 186.434 882.746 186.362C882.839 186.291 882.945 186.238 883.058 186.207C883.171 186.177 883.289 186.169 883.405 186.183C883.521 186.198 883.633 186.236 883.734 186.294C883.836 186.352 883.925 186.43 883.996 186.522L886.266 189.462C887.036 190.462 887.867 191.372 888.657 192.331L893.467 198.061C893.617 198.246 893.689 198.483 893.666 198.72C893.644 198.958 893.529 199.177 893.347 199.33C893.257 199.406 893.153 199.464 893.041 199.5C892.929 199.535 892.811 199.548 892.694 199.538C892.576 199.528 892.462 199.495 892.358 199.44C892.254 199.385 892.162 199.311 892.086 199.22L892.127 199.26Z" fill="black"/>
<path d="M874.058 175.174L866.318 162.286C866.258 162.187 866.219 162.077 866.201 161.963C866.184 161.848 866.189 161.731 866.217 161.619C866.274 161.392 866.418 161.197 866.618 161.076C866.818 160.956 867.058 160.919 867.285 160.976C867.512 161.032 867.707 161.176 867.828 161.376V161.426L875.518 174.204V174.254C875.623 174.455 875.648 174.688 875.587 174.907C875.527 175.125 875.385 175.312 875.191 175.429C874.997 175.547 874.765 175.586 874.544 175.538C874.322 175.491 874.127 175.361 873.998 175.174H874.058Z" fill="black"/>
<path d="M859.547 148.818C857.424 144.205 855.85 139.359 854.857 134.38C854.82 134.153 854.873 133.921 855.006 133.733C855.139 133.546 855.341 133.419 855.568 133.38C855.679 133.36 855.794 133.362 855.905 133.386C856.015 133.411 856.12 133.457 856.213 133.522C856.306 133.587 856.385 133.67 856.446 133.765C856.507 133.861 856.548 133.968 856.568 134.08C857.541 138.909 859.079 143.607 861.148 148.078C861.222 148.288 861.213 148.518 861.125 148.722C861.036 148.926 860.873 149.089 860.669 149.177C860.464 149.266 860.234 149.274 860.024 149.2C859.814 149.126 859.64 148.975 859.538 148.778L859.547 148.818Z" fill="black"/>
<path d="M860.357 120.692C862.902 119.979 865.573 119.842 868.177 120.292C870.701 120.667 873.189 121.249 875.617 122.031C875.726 122.065 875.826 122.119 875.913 122.192C876.001 122.264 876.073 122.353 876.126 122.453C876.179 122.553 876.211 122.663 876.222 122.776C876.232 122.889 876.221 123.003 876.187 123.111C876.154 123.219 876.099 123.32 876.027 123.407C875.954 123.495 875.865 123.567 875.765 123.62C875.665 123.673 875.555 123.705 875.442 123.716C875.329 123.726 875.216 123.714 875.107 123.681C872.77 122.927 870.376 122.365 867.947 122.001C865.618 121.6 863.229 121.713 860.947 122.331C860.837 122.376 860.718 122.397 860.599 122.394C860.48 122.391 860.363 122.363 860.255 122.313C860.147 122.263 860.05 122.191 859.971 122.102C859.892 122.013 859.832 121.908 859.795 121.795C859.758 121.682 859.745 121.562 859.756 121.444C859.767 121.325 859.802 121.21 859.86 121.106C859.917 121.001 859.995 120.91 860.089 120.837C860.184 120.764 860.292 120.711 860.407 120.682L860.357 120.692Z" fill="black"/>
<path d="M889.417 128.221L902.687 135.22C902.888 135.326 903.038 135.507 903.104 135.724C903.171 135.94 903.149 136.175 903.042 136.375C902.936 136.575 902.755 136.725 902.538 136.791C902.322 136.858 902.088 136.836 901.887 136.73L888.627 129.731C888.438 129.618 888.299 129.437 888.239 129.225C888.18 129.013 888.203 128.786 888.306 128.591C888.409 128.396 888.582 128.248 888.791 128.177C889 128.107 889.227 128.119 889.427 128.211L889.417 128.221Z" fill="black"/>
<path d="M915.918 142.279L929.158 149.278C929.334 149.392 929.46 149.567 929.513 149.77C929.566 149.973 929.541 150.188 929.443 150.373C929.346 150.559 929.182 150.701 928.985 150.772C928.788 150.843 928.572 150.838 928.378 150.757L915.118 143.758C914.921 143.654 914.773 143.475 914.707 143.261C914.641 143.047 914.663 142.816 914.768 142.619C914.873 142.421 915.052 142.273 915.266 142.208C915.479 142.142 915.711 142.164 915.908 142.269L915.918 142.279Z" fill="black"/>
<path d="M942.448 156.126L955.828 162.855C955.929 162.898 956.02 162.96 956.096 163.039C956.172 163.118 956.231 163.211 956.269 163.314C956.307 163.416 956.324 163.526 956.319 163.635C956.313 163.744 956.285 163.851 956.236 163.949C956.187 164.047 956.119 164.134 956.035 164.205C955.952 164.276 955.855 164.328 955.75 164.36C955.645 164.391 955.535 164.401 955.426 164.388C955.317 164.375 955.212 164.34 955.118 164.285L941.708 157.586C941.514 157.488 941.368 157.317 941.3 157.111C941.233 156.905 941.25 156.68 941.348 156.486C941.394 156.39 941.46 156.304 941.54 156.234C941.621 156.163 941.715 156.11 941.816 156.076C941.918 156.042 942.025 156.03 942.132 156.038C942.239 156.047 942.343 156.077 942.438 156.126H942.448Z" fill="black"/>
<path d="M969.297 169.395L982.887 175.704C983.054 175.8 983.179 175.955 983.237 176.139C983.295 176.323 983.282 176.522 983.2 176.697C983.119 176.872 982.974 177.009 982.796 177.083C982.617 177.156 982.418 177.16 982.237 177.093L968.647 170.814C968.466 170.729 968.325 170.578 968.253 170.392C968.18 170.206 968.182 169.999 968.257 169.814C968.344 169.635 968.495 169.496 968.68 169.424C968.866 169.351 969.072 169.352 969.257 169.425L969.297 169.395Z" fill="black"/>
<path d="M996.648 181.713L1010.53 187.352C1010.62 187.391 1010.7 187.448 1010.77 187.52C1010.84 187.591 1010.9 187.676 1010.94 187.769C1010.97 187.862 1010.99 187.961 1010.99 188.061C1010.99 188.161 1010.97 188.26 1010.93 188.352C1010.89 188.447 1010.84 188.533 1010.77 188.605C1010.69 188.678 1010.61 188.734 1010.52 188.772C1010.42 188.81 1010.32 188.827 1010.22 188.824C1010.12 188.82 1010.02 188.796 1009.93 188.752L995.998 183.133C995.902 183.098 995.815 183.043 995.741 182.973C995.667 182.903 995.609 182.818 995.569 182.724C995.53 182.63 995.51 182.53 995.512 182.428C995.513 182.326 995.536 182.226 995.578 182.133C995.615 182.039 995.67 181.954 995.741 181.881C995.812 181.809 995.896 181.752 995.989 181.713C996.082 181.674 996.182 181.654 996.283 181.654C996.384 181.654 996.484 181.674 996.578 181.713H996.648Z" fill="black"/>
<path d="M1024.56 192.501L1038.86 196.89C1039.04 196.947 1039.18 197.073 1039.27 197.239C1039.36 197.405 1039.38 197.599 1039.33 197.779C1039.3 197.868 1039.25 197.949 1039.2 198.02C1039.14 198.091 1039.06 198.15 1038.98 198.192C1038.9 198.235 1038.81 198.261 1038.72 198.269C1038.63 198.277 1038.53 198.267 1038.45 198.239L1024.06 193.851C1023.97 193.823 1023.88 193.778 1023.81 193.718C1023.73 193.658 1023.67 193.584 1023.63 193.5C1023.59 193.417 1023.56 193.325 1023.55 193.231C1023.54 193.137 1023.55 193.041 1023.58 192.951C1023.6 192.86 1023.65 192.776 1023.71 192.703C1023.77 192.629 1023.84 192.569 1023.93 192.524C1024.01 192.48 1024.1 192.452 1024.2 192.443C1024.29 192.434 1024.39 192.443 1024.48 192.471L1024.56 192.501Z" fill="black"/>
<path d="M1053.42 200.13C1058.3 201.009 1063.26 201.438 1068.22 201.41C1068.31 201.399 1068.41 201.407 1068.5 201.436C1068.59 201.465 1068.68 201.512 1068.75 201.576C1068.82 201.64 1068.88 201.718 1068.92 201.806C1068.96 201.894 1068.98 201.989 1068.98 202.085C1068.98 202.182 1068.96 202.277 1068.92 202.365C1068.88 202.452 1068.82 202.531 1068.75 202.594C1068.68 202.658 1068.59 202.706 1068.5 202.735C1068.41 202.763 1068.31 202.772 1068.22 202.76C1063.18 202.795 1058.15 202.374 1053.19 201.5C1053.01 201.471 1052.85 201.371 1052.74 201.223C1052.63 201.075 1052.59 200.891 1052.62 200.71C1052.65 200.529 1052.75 200.368 1052.9 200.261C1053.05 200.155 1053.24 200.111 1053.42 200.14V200.13Z" fill="black"/>
<path d="M1082.47 198.36C1084.62 197.266 1086.53 195.729 1088.05 193.851C1089.54 191.94 1090.63 189.756 1091.28 187.422C1091.3 187.338 1091.33 187.259 1091.39 187.19C1091.44 187.12 1091.5 187.062 1091.58 187.018C1091.65 186.975 1091.73 186.947 1091.82 186.936C1091.91 186.925 1091.99 186.931 1092.08 186.955C1092.16 186.979 1092.24 187.019 1092.3 187.073C1092.37 187.128 1092.43 187.195 1092.47 187.271C1092.51 187.348 1092.53 187.431 1092.54 187.517C1092.55 187.603 1092.53 187.69 1092.51 187.772C1091.83 190.276 1090.66 192.619 1089.06 194.661C1087.42 196.69 1085.38 198.349 1083.06 199.53C1082.9 199.605 1082.73 199.617 1082.56 199.563C1082.4 199.509 1082.26 199.394 1082.18 199.242C1082.1 199.089 1082.09 198.912 1082.14 198.747C1082.19 198.583 1082.3 198.444 1082.45 198.36H1082.47Z" fill="black"/>
<path d="M1091.74 172.795C1091.55 171.575 1091.36 170.345 1091.11 169.125C1090.86 167.905 1090.63 166.685 1090.35 165.476C1089.81 163.046 1089.18 160.646 1088.48 158.257C1088.45 158.18 1088.45 158.099 1088.45 158.02C1088.46 157.94 1088.49 157.862 1088.52 157.792C1088.56 157.721 1088.61 157.659 1088.68 157.608C1088.74 157.558 1088.81 157.52 1088.89 157.497C1088.96 157.474 1089.04 157.466 1089.12 157.474C1089.2 157.483 1089.28 157.506 1089.35 157.544C1089.42 157.582 1089.48 157.634 1089.54 157.696C1089.59 157.758 1089.62 157.83 1089.65 157.907C1090.36 160.316 1091 162.756 1091.56 165.206C1091.84 166.425 1092.1 167.655 1092.33 168.895C1092.56 170.135 1092.78 171.365 1092.98 172.615C1093 172.699 1093 172.787 1092.99 172.872C1092.97 172.958 1092.94 173.04 1092.89 173.112C1092.84 173.185 1092.78 173.246 1092.71 173.293C1092.63 173.34 1092.55 173.372 1092.47 173.386C1092.38 173.4 1092.29 173.396 1092.21 173.374C1092.12 173.352 1092.04 173.313 1091.98 173.259C1091.91 173.206 1091.85 173.139 1091.81 173.062C1091.77 172.985 1091.74 172.901 1091.74 172.815V172.795Z" fill="black"/>
<path d="M1083.49 144.178C1081.58 139.579 1079.44 135.08 1077.14 130.66C1077.1 130.532 1077.11 130.395 1077.16 130.271C1077.21 130.148 1077.3 130.046 1077.42 129.982C1077.54 129.919 1077.67 129.898 1077.8 129.923C1077.93 129.948 1078.05 130.018 1078.14 130.12C1080.47 134.56 1082.63 139.119 1084.56 143.728C1084.59 143.799 1084.61 143.875 1084.61 143.953C1084.61 144.03 1084.59 144.107 1084.57 144.179C1084.54 144.25 1084.49 144.315 1084.44 144.37C1084.38 144.425 1084.32 144.469 1084.25 144.498C1084.18 144.529 1084.1 144.546 1084.02 144.546C1083.94 144.547 1083.86 144.532 1083.79 144.502C1083.72 144.472 1083.65 144.428 1083.6 144.373C1083.54 144.317 1083.5 144.251 1083.47 144.178H1083.49Z" fill="black"/>
<path d="M1069.77 117.633L1061.77 105.014C1061.72 104.954 1061.68 104.885 1061.66 104.81C1061.64 104.735 1061.64 104.657 1061.65 104.58C1061.66 104.504 1061.69 104.431 1061.73 104.366C1061.78 104.301 1061.83 104.246 1061.9 104.204C1061.96 104.162 1062.04 104.135 1062.11 104.123C1062.19 104.112 1062.27 104.117 1062.34 104.137C1062.42 104.158 1062.49 104.195 1062.55 104.244C1062.61 104.293 1062.65 104.355 1062.69 104.425L1070.79 117.073C1070.83 117.134 1070.86 117.202 1070.87 117.275C1070.89 117.348 1070.89 117.422 1070.87 117.494C1070.85 117.567 1070.82 117.635 1070.78 117.695C1070.74 117.754 1070.68 117.805 1070.62 117.843C1070.56 117.883 1070.49 117.911 1070.42 117.924C1070.34 117.937 1070.27 117.936 1070.2 117.92C1070.13 117.904 1070.06 117.874 1070 117.832C1069.94 117.789 1069.89 117.735 1069.85 117.673L1069.77 117.633Z" fill="black"/>
<path d="M1053.24 92.6462L1044.59 80.398C1044.51 80.2843 1044.48 80.1461 1044.51 80.012C1044.53 79.878 1044.61 79.7584 1044.72 79.6781C1044.77 79.6386 1044.83 79.6106 1044.9 79.5958C1044.97 79.5809 1045.03 79.5795 1045.1 79.5917C1045.17 79.6038 1045.23 79.6293 1045.29 79.6664C1045.34 79.7036 1045.39 79.7518 1045.43 79.8081L1054.11 92.0462C1054.17 92.1604 1054.19 92.2944 1054.16 92.4224C1054.13 92.5503 1054.06 92.6631 1053.95 92.7389C1053.85 92.8148 1053.71 92.8483 1053.58 92.833C1053.45 92.8177 1053.33 92.7547 1053.25 92.6562L1053.24 92.6462Z" fill="black"/>
<path d="M1036.02 68.0798L1027.8 55.5217C1027.76 55.4706 1027.74 55.4135 1027.73 55.3535C1027.72 55.2936 1027.72 55.232 1027.73 55.1725C1027.75 55.1129 1027.77 55.0566 1027.81 55.0067C1027.84 54.9568 1027.89 54.9143 1027.94 54.8818C1028.04 54.8163 1028.16 54.7933 1028.28 54.8175C1028.4 54.8418 1028.51 54.9114 1028.58 55.0118L1036.84 67.5199C1036.91 67.6309 1036.93 67.7644 1036.91 67.8929C1036.88 68.0214 1036.8 68.1349 1036.7 68.2098C1036.59 68.2822 1036.45 68.3081 1036.32 68.2818C1036.19 68.2556 1036.08 68.1794 1036.01 68.0698L1036.02 68.0798Z" fill="black"/>
<path d="M1028.85 45.783C1031.29 46.4005 1033.7 47.1752 1036.05 48.1023C1038.4 49.0021 1040.71 49.9718 1043.05 50.9715C1043.15 51.0153 1043.22 51.0967 1043.26 51.198C1043.3 51.2992 1043.3 51.4119 1043.26 51.5113C1043.24 51.5602 1043.21 51.6044 1043.17 51.6415C1043.13 51.6785 1043.09 51.7077 1043.04 51.7272C1042.99 51.7468 1042.93 51.7563 1042.88 51.7553C1042.83 51.7542 1042.78 51.7427 1042.73 51.7212C1040.43 50.7215 1038.12 49.7818 1035.79 48.9021C1033.48 47.9945 1031.11 47.2397 1028.7 46.6428C1028.64 46.631 1028.59 46.608 1028.54 46.5754C1028.49 46.5427 1028.45 46.5009 1028.42 46.4524C1028.39 46.404 1028.37 46.3498 1028.36 46.2933C1028.35 46.2367 1028.35 46.1788 1028.37 46.1229C1028.38 46.0664 1028.4 46.0129 1028.44 45.9657C1028.47 45.9185 1028.51 45.8784 1028.56 45.8477C1028.61 45.817 1028.67 45.7964 1028.72 45.787C1028.78 45.7777 1028.84 45.7797 1028.9 45.793L1028.85 45.783Z" fill="black"/>
<path d="M1056.65 57.2911L1070.11 63.9101C1070.15 63.9292 1070.19 63.9569 1070.22 63.9913C1070.25 64.0258 1070.27 64.0663 1070.29 64.1104C1070.3 64.1544 1070.31 64.2011 1070.31 64.2475C1070.3 64.2939 1070.29 64.339 1070.27 64.38C1070.25 64.4224 1070.22 64.4605 1070.19 64.4918C1070.15 64.523 1070.11 64.5469 1070.07 64.5619C1070.02 64.5769 1069.98 64.5827 1069.93 64.5789C1069.88 64.5752 1069.84 64.5619 1069.8 64.54L1056.31 57.971C1056.26 57.9493 1056.22 57.9189 1056.19 57.8816C1056.15 57.8442 1056.13 57.8006 1056.11 57.7533C1056.09 57.7059 1056.09 57.6558 1056.09 57.6056C1056.09 57.5555 1056.11 57.5064 1056.13 57.4611C1056.15 57.4158 1056.18 57.3752 1056.22 57.3416C1056.25 57.3081 1056.3 57.2822 1056.34 57.2654C1056.39 57.2487 1056.44 57.2415 1056.49 57.2442C1056.54 57.2469 1056.59 57.2594 1056.64 57.2811L1056.65 57.2911Z" fill="black"/>
<path d="M1084.03 69.37L1098.22 74.1685C1098.29 74.1958 1098.35 74.2502 1098.39 74.3208C1098.42 74.3914 1098.43 74.4728 1098.41 74.5484C1098.38 74.6222 1098.33 74.6824 1098.25 74.7161C1098.18 74.7497 1098.1 74.7542 1098.03 74.7284L1083.79 69.9798C1083.75 69.9667 1083.71 69.9458 1083.68 69.9183C1083.65 69.8909 1083.62 69.8574 1083.6 69.8198C1083.58 69.7822 1083.57 69.7412 1083.57 69.6992C1083.56 69.6572 1083.57 69.6149 1083.58 69.5749C1083.6 69.5349 1083.62 69.4978 1083.64 69.4658C1083.67 69.4339 1083.7 69.4076 1083.74 69.3886C1083.78 69.3696 1083.82 69.3581 1083.86 69.3549C1083.91 69.3517 1083.95 69.3569 1083.99 69.37H1084.03Z" fill="black"/>
<path d="M1112.7 77.9684C1117.57 79.0376 1122.51 79.8189 1127.48 80.3084C1127.51 80.3109 1127.54 80.3196 1127.57 80.3341C1127.6 80.3486 1127.62 80.3684 1127.64 80.3926C1127.66 80.4168 1127.68 80.4448 1127.69 80.4749C1127.7 80.5051 1127.7 80.5369 1127.7 80.5684C1127.69 80.6311 1127.66 80.6887 1127.61 80.7295C1127.56 80.7703 1127.5 80.7914 1127.44 80.7884C1122.45 80.3124 1117.49 79.5444 1112.59 78.4884C1112.53 78.4645 1112.48 78.4208 1112.45 78.3649C1112.42 78.309 1112.41 78.2443 1112.43 78.1824C1112.44 78.1204 1112.47 78.065 1112.52 78.0259C1112.57 77.9868 1112.63 77.9664 1112.7 77.9684Z" fill="black"/>
<path d="M1142.42 80.5173C1147.4 80.147 1152.3 79.1114 1157.01 77.4383C1157.05 77.421 1157.1 77.4224 1157.15 77.4421C1157.19 77.4618 1157.23 77.4982 1157.24 77.5432C1157.26 77.5883 1157.26 77.6384 1157.24 77.6824C1157.22 77.7265 1157.18 77.7609 1157.14 77.7782C1152.41 79.4753 1147.47 80.5376 1142.46 80.9372C1142.4 80.9402 1142.35 80.9224 1142.31 80.8872C1142.26 80.852 1142.24 80.802 1142.23 80.7473C1142.22 80.7197 1142.23 80.6918 1142.24 80.6653C1142.24 80.6388 1142.26 80.6141 1142.27 80.5927C1142.29 80.5713 1142.31 80.5537 1142.34 80.5407C1142.36 80.5278 1142.39 80.5199 1142.42 80.5173Z" fill="black"/>
<path d="M1169.92 70.0192C1171.83 68.419 1173.59 66.6376 1175.16 64.7C1176.72 62.763 1178.12 60.6958 1179.34 58.521C1179.35 58.506 1179.36 58.4927 1179.37 58.4819C1179.38 58.4712 1179.4 58.4632 1179.41 58.4585C1179.43 58.4538 1179.44 58.4525 1179.46 58.4546C1179.48 58.4568 1179.49 58.4623 1179.51 58.471C1179.52 58.4821 1179.53 58.4954 1179.53 58.5099C1179.54 58.5245 1179.54 58.5402 1179.54 58.556C1179.54 58.5718 1179.54 58.5874 1179.53 58.602C1179.53 58.6166 1179.52 58.6298 1179.51 58.6409C1178.29 60.8359 1176.89 62.9231 1175.32 64.88C1173.74 66.8313 1171.98 68.6291 1170.07 70.2492C1170.05 70.2643 1170.04 70.2764 1170.02 70.2847C1170 70.293 1169.98 70.2972 1169.96 70.2972C1169.94 70.2972 1169.92 70.293 1169.9 70.2847C1169.88 70.2764 1169.86 70.2643 1169.85 70.2492C1169.82 70.2201 1169.81 70.1828 1169.81 70.1442C1169.81 70.1056 1169.82 70.0684 1169.85 70.0392L1169.92 70.0192Z" fill="black"/>
<path d="M1184.86 44.6433C1186.13 39.8112 1187.06 34.8968 1187.65 29.9355C1187.65 29.9355 1187.65 29.8755 1187.72 29.8755C1187.73 29.88 1187.75 29.8904 1187.76 29.9049C1187.77 29.9195 1187.78 29.9373 1187.78 29.9555C1187.2 34.9265 1186.28 39.8511 1185.02 44.6933C1185.02 44.7083 1185.02 44.7242 1185.02 44.7399C1185.02 44.7555 1185.01 44.7703 1185 44.7831C1184.99 44.7959 1184.98 44.8063 1184.97 44.8135C1184.95 44.8207 1184.94 44.8245 1184.92 44.8245C1184.91 44.8245 1184.89 44.8207 1184.88 44.8135C1184.86 44.8063 1184.85 44.7959 1184.84 44.7831C1184.83 44.7703 1184.83 44.7555 1184.82 44.7399C1184.82 44.7242 1184.82 44.7083 1184.83 44.6933L1184.86 44.6433Z" fill="black"/>
<mask id="path-69-inside-1_75_6250" fill="white">
<path d="M10.9424 368.665H677.207V251.957H10.9424V368.665Z"/>
<path d="M677.207 135.249H10.9424V251.957H677.207V135.249Z"/>
</mask>
<path d="M10.9424 368.665H677.207V251.957H10.9424V368.665Z" fill="black"/>
<path d="M677.207 251.207H10.9424V252.707H677.207V251.207ZM10.9424 135.249V133.749H9.44238V135.249H10.9424ZM677.207 135.249H678.707V133.749H677.207V135.249ZM677.207 368.665V370.165H678.707V368.665H677.207ZM10.9424 368.665H9.44238V370.165H10.9424V368.665ZM10.9424 136.749H677.207V133.749H10.9424V136.749ZM677.207 367.165H10.9424V370.165H677.207V367.165ZM675.707 135.249V251.957H678.707V135.249H675.707ZM675.707 251.957V368.665H678.707V251.957H675.707ZM12.4424 368.665V251.957H9.44238V368.665H12.4424ZM12.4424 251.957V135.249H9.44238V251.957H12.4424Z" fill="black" mask="url(#path-69-inside-1_75_6250)"/>
<rect x="0.75" y="124.75" width="664.765" height="231.916" fill="#F1EFED" stroke="black" stroke-width="1.5"/>
<path d="M43.0812 139.334L43.1098 147.588L39.8225 146.69L39.8093 142.874C39.8027 140.956 39.3621 139.073 38.53 137.364L41.0743 137.348C42.1789 137.34 43.0774 138.23 43.0812 139.334ZM40.4224 148.928L43.1169 149.664L43.1474 158.477C43.1512 159.582 42.2589 160.483 41.1544 160.49L39.81 160.499L39.8582 160.167L41.1485 151.284L41.1846 151.036L41.0995 150.801L40.4224 148.928Z" fill="black" stroke="black" stroke-width="2"/>
<rect x="1.00343" y="0.993489" width="17.8155" height="23.1428" rx="2" transform="matrix(0.999979 -0.00650538 0.00344874 0.999994 20.2897 136.488)" fill="#F1EFED" stroke="black" stroke-width="2"/>
<path d="M88.0812 139.327L88.1098 147.58L84.8225 146.682L84.8093 142.866C84.8027 140.948 84.3621 139.065 83.53 137.356L86.0743 137.34C87.1789 137.333 88.0774 138.222 88.0812 139.327ZM85.4224 148.921L88.1169 149.657L88.1474 158.469C88.1512 159.574 87.2589 160.475 86.1544 160.482L84.81 160.491L84.8582 160.159L86.1485 151.277L86.1846 151.029L86.0995 150.793L85.4224 148.921Z" fill="black" stroke="black" stroke-width="2"/>
<rect x="1.00343" y="0.993489" width="17.8155" height="23.1428" rx="2" transform="matrix(0.999979 -0.00650538 0.00344874 0.999994 65.2897 136.481)" fill="#F1EFED" stroke="black" stroke-width="2"/>
<path d="M133.081 139.318L133.11 147.571L129.823 146.673L129.809 142.858C129.803 140.939 129.362 139.057 128.53 137.347L131.074 137.331C132.179 137.324 133.077 138.213 133.081 139.318ZM130.422 148.912L133.117 149.648L133.147 158.461C133.151 159.565 132.259 160.466 131.154 160.474L129.81 160.482L129.858 160.15L131.149 151.268L131.185 151.02L131.099 150.784L130.422 148.912Z" fill="black" stroke="black" stroke-width="2"/>
<rect x="1.00343" y="0.993489" width="17.8155" height="23.1428" rx="2" transform="matrix(0.999979 -0.00650538 0.00344874 0.999994 110.29 136.472)" fill="#F1EFED" stroke="black" stroke-width="2"/>
<path d="M178.081 139.309L178.11 147.562L174.823 146.664L174.809 142.849C174.803 140.93 174.362 139.048 173.53 137.339L176.074 137.322C177.179 137.315 178.077 138.205 178.081 139.309ZM175.422 148.903L178.117 149.639L178.147 158.452C178.151 159.556 177.259 160.458 176.154 160.465L174.81 160.474L174.858 160.141L176.149 151.259L176.185 151.011L176.099 150.776L175.422 148.903Z" fill="black" stroke="black" stroke-width="2"/>
<rect x="1.00343" y="0.993489" width="17.8155" height="23.1428" rx="2" transform="matrix(0.999979 -0.00650538 0.00344874 0.999994 155.29 136.463)" fill="#F1EFED" stroke="black" stroke-width="2"/>
<path d="M223.081 139.3L223.11 147.553L219.823 146.655L219.809 142.84C219.803 140.922 219.362 139.039 218.53 137.33L221.074 137.313C222.179 137.306 223.077 138.196 223.081 139.3ZM220.422 148.894L223.117 149.63L223.147 158.443C223.151 159.548 222.259 160.449 221.154 160.456L219.81 160.465L219.858 160.133L221.149 151.25L221.185 151.002L221.099 150.767L220.422 148.894Z" fill="black" stroke="black" stroke-width="2"/>
<rect x="1.00343" y="0.993489" width="17.8155" height="23.1428" rx="2" transform="matrix(0.999979 -0.00650538 0.00344874 0.999994 200.29 136.454)" fill="#F1EFED" stroke="black" stroke-width="2"/>
<path d="M268.081 139.293L268.11 147.546L264.823 146.648L264.809 142.832C264.803 140.914 264.362 139.031 263.53 137.322L266.074 137.306C267.179 137.298 268.077 138.188 268.081 139.293ZM265.422 148.886L268.117 149.622L268.147 158.435C268.151 159.54 267.259 160.441 266.154 160.448L264.81 160.457L264.858 160.125L266.149 151.242L266.185 150.994L266.099 150.759L265.422 148.886Z" fill="black" stroke="black" stroke-width="2"/>
<rect x="1.00343" y="0.993489" width="17.8155" height="23.1428" rx="2" transform="matrix(0.999979 -0.00650538 0.00344874 0.999994 245.29 136.446)" fill="#F1EFED" stroke="black" stroke-width="2"/>
<path d="M313.081 139.284L313.11 147.537L309.823 146.639L309.809 142.823C309.803 140.905 309.362 139.022 308.53 137.313L311.074 137.297C312.179 137.29 313.077 138.179 313.081 139.284ZM310.422 148.878L313.117 149.614L313.147 158.426C313.151 159.531 312.259 160.432 311.154 160.439L309.81 160.448L309.858 160.116L311.149 151.234L311.185 150.986L311.099 150.75L310.422 148.878Z" fill="black" stroke="black" stroke-width="2"/>
<rect x="1.00343" y="0.993489" width="17.8155" height="23.1428" rx="2" transform="matrix(0.999979 -0.00650538 0.00344874 0.999994 290.29 136.438)" fill="#F1EFED" stroke="black" stroke-width="2"/>
<path d="M358.081 139.275L358.11 147.528L354.823 146.63L354.809 142.815C354.803 140.896 354.362 139.014 353.53 137.304L356.074 137.288C357.179 137.281 358.077 138.17 358.081 139.275ZM355.422 148.869L358.117 149.605L358.147 158.418C358.151 159.522 357.259 160.423 356.154 160.431L354.81 160.439L354.858 160.107L356.149 151.225L356.185 150.977L356.099 150.741L355.422 148.869Z" fill="black" stroke="black" stroke-width="2"/>
<rect x="1.00343" y="0.993489" width="17.8155" height="23.1428" rx="2" transform="matrix(0.999979 -0.00650538 0.00344874 0.999994 335.29 136.429)" fill="#F1EFED" stroke="black" stroke-width="2"/>
<path d="M403.081 139.266L403.11 147.519L399.823 146.621L399.809 142.806C399.803 140.887 399.362 139.005 398.53 137.296L401.074 137.279C402.179 137.272 403.077 138.162 403.081 139.266ZM400.422 148.86L403.117 149.596L403.147 158.409C403.151 159.513 402.259 160.415 401.154 160.422L399.81 160.431L399.858 160.099L401.149 151.216L401.185 150.968L401.099 150.733L400.422 148.86Z" fill="black" stroke="black" stroke-width="2"/>
<rect x="1.00343" y="0.993489" width="17.8155" height="23.1428" rx="2" transform="matrix(0.999979 -0.00650538 0.00344874 0.999994 380.29 136.42)" fill="#F1EFED" stroke="black" stroke-width="2"/>
<path d="M448.081 139.258L448.11 147.511L444.823 146.614L444.809 142.798C444.803 140.88 444.362 138.997 443.53 137.288L446.074 137.271C447.179 137.264 448.077 138.154 448.081 139.258ZM445.422 148.852L448.117 149.588L448.147 158.401C448.151 159.506 447.259 160.407 446.154 160.414L444.81 160.423L444.858 160.091L446.149 151.208L446.185 150.96L446.099 150.725L445.422 148.852Z" fill="black" stroke="black" stroke-width="2"/>
<rect x="1.00343" y="0.993489" width="17.8155" height="23.1428" rx="2" transform="matrix(0.999979 -0.00650538 0.00344874 0.999994 425.29 136.412)" fill="#F1EFED" stroke="black" stroke-width="2"/>
<path d="M493.081 139.25L493.11 147.503L489.822 146.605L489.809 142.789C489.803 140.871 489.362 138.988 488.53 137.279L491.074 137.263C492.179 137.255 493.077 138.145 493.081 139.25ZM490.422 148.843L493.117 149.579L493.147 158.392C493.151 159.497 492.259 160.398 491.154 160.405L489.81 160.414L489.858 160.082L491.148 151.199L491.185 150.951L491.099 150.716L490.422 148.843Z" fill="black" stroke="black" stroke-width="2"/>
<rect x="1.00343" y="0.993489" width="17.8155" height="23.1428" rx="2" transform="matrix(0.999979 -0.00650538 0.00344874 0.999994 470.29 136.404)" fill="#F1EFED" stroke="black" stroke-width="2"/>
<path d="M538.081 139.241L538.11 147.494L534.822 146.596L534.809 142.78C534.803 140.862 534.362 138.979 533.53 137.27L536.074 137.254C537.179 137.247 538.077 138.136 538.081 139.241ZM535.422 148.835L538.117 149.571L538.147 158.383C538.151 159.488 537.259 160.389 536.154 160.396L534.81 160.405L534.858 160.073L536.148 151.191L536.185 150.943L536.099 150.707L535.422 148.835Z" fill="black" stroke="black" stroke-width="2"/>
<rect x="1.00343" y="0.993489" width="17.8155" height="23.1428" rx="2" transform="matrix(0.999979 -0.00650538 0.00344874 0.999994 515.29 136.395)" fill="#F1EFED" stroke="black" stroke-width="2"/>
<path d="M583.081 139.232L583.11 147.485L579.822 146.587L579.809 142.772C579.803 140.853 579.362 138.971 578.53 137.261L581.074 137.245C582.179 137.238 583.077 138.127 583.081 139.232ZM580.422 148.826L583.117 149.562L583.147 158.375C583.151 159.479 582.259 160.38 581.154 160.388L579.81 160.396L579.858 160.064L581.148 151.182L581.185 150.934L581.099 150.698L580.422 148.826Z" fill="black" stroke="black" stroke-width="2"/>
<rect x="1.00343" y="0.993489" width="17.8155" height="23.1428" rx="2" transform="matrix(0.999979 -0.00650538 0.00344874 0.999994 560.29 136.386)" fill="#F1EFED" stroke="black" stroke-width="2"/>
<path d="M628.081 139.224L628.11 147.477L624.822 146.579L624.809 142.764C624.803 140.845 624.362 138.963 623.53 137.254L626.074 137.237C627.179 137.23 628.077 138.12 628.081 139.224ZM625.422 148.818L628.117 149.554L628.147 158.367C628.151 159.471 627.259 160.373 626.154 160.38L624.81 160.389L624.858 160.057L626.148 151.174L626.185 150.926L626.099 150.691L625.422 148.818Z" fill="black" stroke="black" stroke-width="2"/>
<rect x="1.00343" y="0.993489" width="17.8155" height="23.1428" rx="2" transform="matrix(0.999979 -0.00650538 0.00344874 0.999994 605.29 136.378)" fill="#F1EFED" stroke="black" stroke-width="2"/>
<path d="M590.187 360.812L589.917 361.358L607.786 363.023L644.353 234.527L625.41 231.315L625.309 231.716L625.144 232.287L624.958 232.854L624.754 233.416L624.53 233.974L624.288 234.527L624.028 235.076L623.753 235.621L623.462 236.163L623.158 236.701L622.841 237.237L622.514 237.769L622.178 238.3L621.835 238.829L621.487 239.357L621.135 239.884L620.782 240.411L620.429 240.937L620.078 241.464L619.731 241.993L619.39 242.522L619.057 243.054L618.734 243.587L618.421 244.124L618.122 244.663L617.836 245.206L617.566 245.753L617.313 246.303L617.077 246.858L616.859 247.417L616.661 247.98L616.483 248.549L616.324 249.122L616.186 249.7L616.068 250.283L615.971 250.871L615.893 251.463L615.834 252.06L615.793 252.662L615.771 253.267L615.764 253.877L615.774 254.49L615.797 255.107L615.833 255.727L615.88 256.349L615.937 256.974L616.001 257.6L616.072 258.228L616.146 258.857L616.223 259.486L616.3 260.116L616.375 260.745L616.447 261.373L616.513 262L616.573 262.625L616.623 263.248L616.663 263.869L616.69 264.487L616.704 265.101L616.703 265.712L616.686 266.319L616.651 266.922L616.598 267.52L616.526 268.114L616.435 268.703L616.324 269.288L616.192 269.867L616.04 270.442L615.868 271.012L615.676 271.577L615.465 272.138L615.235 272.694L614.987 273.246L614.722 273.793L614.441 274.337L614.146 274.878L613.837 275.415L613.517 275.95L613.187 276.482L612.849 277.012L612.503 277.541L612.154 278.068L611.801 278.595L611.448 279.121L611.095 279.648L610.745 280.176L610.4 280.704L610.062 281.234L609.732 281.767L609.412 282.301L609.104 282.838L608.809 283.379L608.528 283.923L608.263 284.471L608.016 285.023L607.786 285.579L607.575 286.139L607.383 286.705L607.211 287.275L607.06 287.85L606.928 288.429L606.817 289.014L606.726 289.603L606.655 290.197L606.602 290.795L606.568 291.398L606.55 292.005L606.55 292.616L606.564 293.231L606.591 293.848L606.631 294.469L606.682 295.092L606.741 295.717L606.808 296.344L606.88 296.973L606.955 297.602L607.032 298.231L607.109 298.861L607.183 299.49L607.253 300.117L607.318 300.744L607.374 301.369L607.421 301.991L607.457 302.611L607.48 303.227L607.489 303.84L607.483 304.45L607.46 305.056L607.419 305.657L607.36 306.254L607.282 306.846L607.184 307.434L607.066 308.017L606.927 308.595L606.769 309.168L606.59 309.736L606.391 310.3L606.174 310.859L605.938 311.413L605.684 311.964L605.414 312.51L605.128 313.053L604.828 313.592L604.516 314.129L604.192 314.663L603.859 315.194L603.518 315.724L603.171 316.252L602.82 316.779L602.467 317.306L602.114 317.832L601.762 318.359L601.413 318.887L601.07 319.416L600.735 319.947L600.408 320.48L600.091 321.015L599.787 321.554L599.497 322.095L599.222 322.64L598.963 323.19L598.721 323.743L598.497 324.3L598.292 324.863L598.107 325.429L597.942 326.001L597.797 326.577L597.673 327.159L597.568 327.745L597.484 328.336L597.419 328.931L597.372 329.531L597.344 330.135L597.332 330.744L597.336 331.356L597.355 331.971L597.387 332.59L597.431 333.212L597.484 333.836L597.546 334.462L597.615 335.089L597.688 335.718L597.764 336.347L597.841 336.976L597.918 337.606L597.991 338.234L598.059 338.862L598.121 339.488L598.175 340.111L598.218 340.733L598.25 341.352L598.269 341.967L598.273 342.579L598.261 343.187L598.232 343.792L598.185 344.392L598.12 344.987L598.035 345.578L597.93 346.164L597.805 346.745L597.66 347.322L597.495 347.893L597.31 348.46L597.105 349.022L596.881 349.579L596.639 350.133L596.379 350.682L596.104 351.227L595.813 351.769L595.509 352.307L595.192 352.842L594.866 353.375L594.53 353.906L594.187 354.435L593.838 354.963L593.486 355.49L593.133 356.016L592.78 356.543L592.429 357.07L592.082 357.598L591.741 358.128L591.408 358.659L591.085 359.193L590.772 359.73L590.473 360.269L590.187 360.812Z" fill="black"/>
<path d="M589.21 363.023L589.428 362.463L589.664 361.909L589.917 361.358M589.917 361.358L590.187 360.812L590.473 360.269L590.772 359.73L591.085 359.193L591.408 358.659L591.741 358.128L592.082 357.598L592.429 357.07L592.78 356.543L593.133 356.016L593.486 355.49L593.838 354.963L594.187 354.435L594.53 353.906L594.866 353.375L595.192 352.842L595.509 352.307L595.813 351.769L596.104 351.227L596.379 350.682L596.639 350.133L596.881 349.579L597.105 349.022L597.31 348.46L597.495 347.893L597.66 347.322L597.805 346.745L597.93 346.164L598.035 345.578L598.12 344.987L598.185 344.392L598.232 343.792L598.261 343.187L598.273 342.579L598.269 341.967L598.25 341.352L598.218 340.733L598.175 340.111L598.121 339.488L598.059 338.862L597.991 338.234L597.918 337.606L597.841 336.976L597.764 336.347L597.688 335.718L597.615 335.089L597.546 334.462L597.484 333.836L597.431 333.212L597.387 332.59L597.355 331.971L597.336 331.356L597.332 330.744L597.344 330.135L597.372 329.531L597.419 328.931L597.484 328.336L597.568 327.745L597.673 327.159L597.797 326.577L597.942 326.001L598.107 325.429L598.292 324.863L598.497 324.3L598.721 323.743L598.963 323.19L599.222 322.64L599.497 322.095L599.787 321.554L600.091 321.015L600.408 320.48L600.735 319.947L601.07 319.416L601.413 318.887L601.762 318.359L602.114 317.832L602.467 317.306L602.82 316.779L603.171 316.252L603.518 315.724L603.859 315.194L604.192 314.663L604.516 314.129L604.828 313.592L605.128 313.053L605.414 312.51L605.684 311.964L605.938 311.413L606.174 310.859L606.391 310.3L606.59 309.736L606.769 309.168L606.927 308.595L607.066 308.017L607.184 307.434L607.282 306.846L607.36 306.254L607.419 305.657L607.46 305.056L607.483 304.45L607.489 303.84L607.48 303.227L607.457 302.611L607.421 301.991L607.374 301.369L607.318 300.744L607.253 300.117L607.183 299.49L607.109 298.861L607.032 298.231L606.955 297.602L606.88 296.973L606.808 296.344L606.741 295.717L606.682 295.092L606.631 294.469L606.591 293.848L606.564 293.231L606.55 292.616L606.55 292.005L606.568 291.398L606.602 290.795L606.655 290.197L606.726 289.603L606.817 289.014L606.928 288.429L607.06 287.85L607.211 287.275L607.383 286.705L607.575 286.139L607.786 285.579L608.016 285.023L608.263 284.471L608.528 283.923L608.809 283.379L609.104 282.838L609.412 282.301L609.732 281.767L610.062 281.234L610.4 280.704L610.745 280.176L611.095 279.648L611.448 279.121L611.801 278.595L612.154 278.068L612.503 277.541L612.849 277.012L613.187 276.482L613.517 275.95L613.837 275.415L614.146 274.878L614.441 274.337L614.722 273.793L614.987 273.246L615.235 272.694L615.465 272.138L615.676 271.577L615.868 271.012L616.04 270.442L616.192 269.867L616.324 269.288L616.435 268.703L616.526 268.114L616.598 267.52L616.651 266.922L616.686 266.319L616.703 265.712L616.704 265.101L616.69 264.487L616.663 263.869L616.623 263.248L616.573 262.625L616.513 262L616.447 261.373L616.375 260.745L616.3 260.116L616.223 259.486L616.146 258.857L616.072 258.228L616.001 257.6L615.937 256.974L615.88 256.349L615.833 255.727L615.797 255.107L615.774 254.49L615.764 253.877L615.771 253.267L615.793 252.662L615.834 252.06L615.893 251.463L615.971 250.871L616.068 250.283L616.186 249.7L616.324 249.122L616.483 248.549L616.661 247.98L616.859 247.417L617.077 246.858L617.313 246.303L617.566 245.753L617.836 245.206L618.122 244.663L618.421 244.124L618.734 243.587L619.057 243.054L619.39 242.522L619.731 241.993L620.078 241.464L620.429 240.937L620.782 240.411L621.135 239.884L621.487 239.357L621.835 238.829L622.178 238.3L622.514 237.769L622.841 237.237L623.158 236.701L623.462 236.163L623.753 235.621L624.028 235.076L624.288 234.527L624.53 233.974L624.754 233.416L624.958 232.854L625.144 232.287L625.309 231.716L625.41 231.315M589.917 361.358L607.786 363.023L644.353 234.527L625.41 231.315M625.91 227.582L625.881 228.186L625.834 228.786L625.769 229.381L625.684 229.972L625.579 230.558L625.454 231.139L625.41 231.315M625.91 227.582L625.921 226.973L625.917 226.361L625.899 225.746L625.867 225.127L625.824 224.506L625.77 223.882L625.708 223.256L625.64 222.629L625.566 222L625.49 221.371L625.413 220.741L625.337 220.112L625.264 219.483L625.195 218.856L625.133 218.23L625.08 217.606L625.036 216.984L625.004 216.366L624.985 215.75L624.981 215.138L624.993 214.53L625.021 213.925L625.068 213.325L625.133 212.73L625.217 212.139L625.322 211.553L625.446 210.972L625.591 210.395L625.756 209.824L625.941 209.257L626.146 208.695L626.37 208.137L626.611 207.584L626.871 207.035L627.146 206.489L627.436 205.948L627.74 205.409L628.057 204.874L628.383 204.341L628.719 203.81L629.062 203.281L629.411 202.753L629.762 202.226L630.116 201.7L630.469 201.173L630.82 200.646L631.167 200.118L631.508 199.588L631.841 199.057L632.164 198.523L632.477 197.987L632.777 197.447L633.062 196.905L633.333 196.358L633.587 195.808L633.823 195.253L634.04 194.694L634.239 194.13L634.417 193.562L634.576 192.989L634.714 192.411L634.833 191.828L634.931 191.24L635.009 190.648L635.068 190.051L635.109 189.45L635.132 188.844L635.138 188.235L635.129 187.621L635.106 187.005L635.07 186.385L635.023 185.763L634.967 185.138L634.902 184.512L634.832 183.884L634.758 183.255L634.681 182.626L634.604 181.996L634.529 181.367L634.457 180.739L634.39 180.112L634.331 179.486L634.28 178.863L634.24 178.243L634.213 177.625L634.198 177.01L634.199 176.4L634.216 175.793L634.251 175.19L634.303 174.591L634.375 173.997L634.466 173.408L634.577 172.823L634.709 172.244L634.86 171.669L635.032 171.099L635.224 170.534L635.435 169.973L635.664 169.417L635.912 168.865L636.177 168.317L636.457 167.773L636.752 167.233L637.061 166.695L637.381 166.161L637.711 165.629L638.049 165.098L638.394 164.57L638.744 164.042L639.096 163.516L639.45 162.989L639.803 162.462L640.152 161.935L640.497 161.406L640.836 160.876L641.166 160.344L641.486 159.809L641.795 159.272L642.09 158.732L642.371 158.188L642.636 157.64L642.884 157.088L643.114 156.532L643.325 155.971L643.517 155.406L643.689 154.836L643.841 154.261L643.972 153.682L644.084 153.097L644.175 152.508L644.247 151.914L644.3 151.316L644.335 150.713L644.352 150.106L644.353 149.495L644.339 148.881L644.312 148.263L644.272 147.643L644.221 147.02L644.162 146.394L644.096 145.767L644.024 145.139L643.948 144.51L643.872 143.88L643.795 143.251L643.72 142.622L643.65 141.994L643.586 141.368L643.529 140.743L643.482 140.121L643.446 139.501L643.423 138.884L643.413 138.271L643.419 137.662L643.442 137.056L643.483 136.454L643.541 135.857L643.619 135.265L643.717 134.677L643.835 134.094L643.973 133.516L644.132 132.943L644.31 132.375M625.91 227.582L625.41 231.315" stroke="black" stroke-width="2" stroke-miterlimit="10" stroke-linecap="round" stroke-linejoin="round"/>
<mask id="path-102-inside-2_75_6250" fill="white">
<path fill-rule="evenodd" clip-rule="evenodd" d="M774.101 141.384L672.28 116.756C668.844 115.925 665.388 118.047 664.576 121.488L610.838 349.138C610.216 351.775 611.322 354.51 613.624 355.939C623.913 362.322 652.62 379.664 670.608 385.915C680.347 389.3 696.151 388.296 710.834 386.099L774.101 141.384Z"/>
<path d="M743.102 379.451C745.303 378.882 746.992 377.151 747.558 374.95L803.997 155.267C804.882 151.822 802.777 148.32 799.321 147.484L774.101 141.384L710.834 386.099C724.48 384.058 737.158 380.987 743.102 379.451Z"/>
</mask>
<path fill-rule="evenodd" clip-rule="evenodd" d="M774.101 141.384L672.28 116.756C668.844 115.925 665.388 118.047 664.576 121.488L610.838 349.138C610.216 351.775 611.322 354.51 613.624 355.939C623.913 362.322 652.62 379.664 670.608 385.915C680.347 389.3 696.151 388.296 710.834 386.099L774.101 141.384Z" fill="url(#paint0_linear_75_6250)"/>
<path d="M743.102 379.451C745.303 378.882 746.992 377.151 747.558 374.95L803.997 155.267C804.882 151.822 802.777 148.32 799.321 147.484L774.101 141.384L710.834 386.099C724.48 384.058 737.158 380.987 743.102 379.451Z" fill="#5869DD"/>
<path d="M772.949 141.086L709.682 385.801L711.986 386.397L775.253 141.681L772.949 141.086ZM670.608 385.915L671.39 383.667L670.608 385.915ZM710.834 386.099L711.187 388.453L710.834 386.099ZM613.624 355.939L614.879 353.916L613.624 355.939ZM747.558 374.95L749.863 375.542L747.558 374.95ZM803.997 155.267L801.691 154.674L803.997 155.267ZM801.691 154.674L745.253 374.358L749.863 375.542L806.302 155.859L801.691 154.674ZM613.155 349.685L666.892 122.034L662.26 120.941L608.522 348.591L613.155 349.685ZM671.39 383.667C653.699 377.519 625.224 360.335 614.879 353.916L612.369 357.961C622.602 364.31 651.542 381.809 669.827 388.164L671.39 383.667ZM671.72 119.069L773.542 143.697L774.661 139.07L672.839 114.442L671.72 119.069ZM773.542 143.697L798.761 149.797L799.88 145.17L774.661 139.07L773.542 143.697ZM742.507 377.147C736.6 378.672 724.012 381.721 710.482 383.745L711.187 388.453C724.948 386.394 737.715 383.301 743.697 381.755L742.507 377.147ZM710.482 383.745C703.201 384.834 695.693 385.62 688.832 385.72C681.932 385.822 675.871 385.225 671.39 383.667L669.827 388.164C675.084 389.991 681.794 390.584 688.902 390.48C696.049 390.375 703.784 389.56 711.187 388.453L710.482 383.745ZM608.522 348.591C607.669 352.206 609.183 355.985 612.369 357.961L614.879 353.916C613.461 353.036 612.763 351.343 613.155 349.685L608.522 348.591ZM745.253 374.358C744.897 375.742 743.846 376.801 742.507 377.147L743.697 381.755C746.76 380.964 749.088 378.56 749.863 375.542L745.253 374.358ZM806.302 155.859C807.517 151.128 804.627 146.318 799.88 145.17L798.761 149.797C800.927 150.321 802.246 152.516 801.691 154.674L806.302 155.859ZM666.892 122.034C667.401 119.878 669.567 118.548 671.72 119.069L672.839 114.442C668.121 113.301 663.375 116.216 662.26 120.941L666.892 122.034Z" fill="black" mask="url(#path-102-inside-2_75_6250)"/>
<path d="M806.037 139.126C803.494 149.791 792.578 157.71 776.328 161.612C760.151 165.496 739.047 165.287 716.875 159.998C694.703 154.71 675.777 145.37 663.095 134.602C650.356 123.786 644.19 111.793 646.733 101.128C649.277 90.4638 660.193 82.5449 676.442 78.6432C692.62 74.7588 713.724 74.9677 735.896 80.2562C758.067 85.5447 776.994 94.8842 789.676 105.652C802.415 116.469 808.581 128.462 806.037 139.126Z" fill="#5869DD" stroke="black" stroke-width="2.38"/>
<mask id="path-105-inside-3_75_6250" fill="white">
<path fill-rule="evenodd" clip-rule="evenodd" d="M806.227 143.689C807.009 142.154 807.609 140.546 808.014 138.867C813.483 116.202 781.415 89.2232 736.389 78.6068C691.363 67.9905 650.429 77.7572 644.96 100.421C644.292 103.19 644.184 106.024 644.592 108.884C654.362 89.7064 692.544 82.0617 734.234 91.8914C773.759 101.211 803.299 123.139 806.227 143.689Z"/>
</mask>
<path fill-rule="evenodd" clip-rule="evenodd" d="M806.227 143.689C807.009 142.154 807.609 140.546 808.014 138.867C813.483 116.202 781.415 89.2232 736.389 78.6068C691.363 67.9905 650.429 77.7572 644.96 100.421C644.292 103.19 644.184 106.024 644.592 108.884C654.362 89.7064 692.544 82.0617 734.234 91.8914C773.759 101.211 803.299 123.139 806.227 143.689Z" fill="black"/>
<path d="M808.014 138.867L810.328 139.425L810.328 139.425L808.014 138.867ZM806.227 143.689L803.871 144.025L804.933 151.473L808.348 144.769L806.227 143.689ZM736.389 78.6068L736.935 76.2903L736.389 78.6068ZM644.96 100.421L647.274 100.98L644.96 100.421ZM644.592 108.884L642.236 109.219L643.297 116.668L646.713 109.964L644.592 108.884ZM734.234 91.8914L734.78 89.575L734.234 91.8914ZM805.701 138.308C805.34 139.802 804.806 141.236 804.107 142.608L808.348 144.769C809.212 143.073 809.878 141.289 810.328 139.425L805.701 138.308ZM735.843 80.9233C758.072 86.1645 776.985 95.4224 789.605 106.04C802.342 116.756 808.111 128.32 805.701 138.308L810.328 139.425C813.386 126.749 805.856 113.492 792.67 102.398C779.366 91.2054 759.733 81.6655 736.935 76.2903L735.843 80.9233ZM647.274 100.98C649.686 90.9818 660.128 83.2296 676.393 79.3489C692.508 75.504 713.614 75.6822 735.843 80.9233L736.935 76.2903C714.138 70.9151 692.265 70.6685 675.288 74.7189C658.463 78.7335 645.703 87.1968 642.647 99.8631L647.274 100.98ZM646.948 108.548C646.58 105.968 646.68 103.439 647.274 100.98L642.647 99.8631C641.904 102.942 641.788 106.079 642.236 109.219L646.948 108.548ZM646.713 109.964C651.098 101.356 662.178 94.876 677.893 91.8469C693.488 88.8412 713.112 89.3565 733.688 94.2079L734.78 89.575C713.666 84.5966 693.354 84.0194 676.993 87.1729C660.752 90.3031 647.856 97.2344 642.471 107.803L646.713 109.964ZM733.688 94.2079C753.192 98.8067 770.158 106.502 782.556 115.505C795.034 124.565 802.54 134.685 803.871 144.025L808.584 143.353C806.986 132.143 798.258 121.024 785.353 111.653C772.368 102.224 754.801 94.2955 734.78 89.575L733.688 94.2079Z" fill="black" mask="url(#path-105-inside-3_75_6250)"/>
<path d="M761.905 140.714C760.985 145.011 756.288 148.455 748.62 150.21C741.056 151.942 731.04 151.905 720.391 149.627C709.741 147.349 700.586 143.287 694.393 138.613C688.113 133.874 685.235 128.811 686.154 124.513C687.073 120.216 691.77 116.772 699.439 115.016C707.003 113.285 717.018 113.322 727.668 115.6C738.318 117.877 747.472 121.939 753.666 126.614C759.946 131.352 762.824 136.416 761.905 140.714Z" fill="url(#paint1_linear_75_6250)" stroke="black" stroke-width="2.38"/>
<path d="M702.364 89.3782L765.852 104.251L758.985 131.744C757.988 135.737 755.407 139.026 751.677 140.187C745.024 142.258 733.58 144.301 719.849 140.465C706.435 136.718 699.325 130.786 695.841 126.793C693.81 124.466 693.516 121.162 694.427 117.892L702.364 89.3782Z" fill="url(#paint2_linear_75_6250)" stroke="black" stroke-width="2.38"/>
<path d="M767.078 102.103C766.296 105.759 762.3 108.741 755.663 110.274C749.129 111.783 740.467 111.762 731.25 109.791C722.033 107.819 714.12 104.296 708.775 100.246C703.345 96.1325 700.918 91.7766 701.7 88.1207C702.482 84.4649 706.478 81.4826 713.115 79.9495C719.65 78.44 728.312 78.4617 737.528 80.4329C746.745 82.404 754.658 85.9272 760.004 89.9772C765.433 94.0909 767.86 98.4469 767.078 102.103Z" fill="url(#paint3_linear_75_6250)" stroke="black" stroke-width="2.38"/>
<path d="M759.283 100.613C759.096 101.553 758.4 102.482 757.012 103.314C755.624 104.147 753.655 104.81 751.197 105.232C746.292 106.073 739.696 105.911 732.596 104.497C725.496 103.084 719.341 100.709 715.132 98.0533C713.023 96.723 711.458 95.3569 710.494 94.0558C709.531 92.7549 709.243 91.6304 709.43 90.691C709.617 89.7516 710.313 88.8228 711.701 87.99C713.09 87.1571 715.059 86.4944 717.516 86.0729C722.422 85.2312 729.017 85.3937 736.117 86.8069C743.217 88.22 749.372 90.5952 753.582 93.2511C755.69 94.5813 757.256 95.9475 758.219 97.2486C759.183 98.5494 759.47 99.674 759.283 100.613Z" fill="url(#paint4_linear_75_6250)" stroke="black" stroke-width="2.38"/>
<path fill-rule="evenodd" clip-rule="evenodd" d="M646.576 97.3438C646.013 98.4597 644.277 107.161 643.219 112.463L643.219 112.464C642.823 114.447 642.522 115.954 642.413 116.411C640.272 125.388 643.97 135.046 651.991 144.099L603.91 349.701C602.605 353.266 601.581 356.929 600.846 360.657C600.224 363.811 601.118 367.107 603.477 369.291C615.649 380.56 634.163 389.8 656.603 395.241C700.675 405.927 742.687 395.385 748.002 372.732C748.652 369.964 751.581 356.336 751.177 353.475C741.65 372.636 706.112 382.044 665.304 372.149C648.108 367.979 632.387 360.28 619.973 351.208L667.058 157.05C679.316 165.377 695.319 172.393 713.436 176.715C758.066 187.36 798.627 177.621 804.032 154.961C804.693 152.192 807.673 138.561 807.266 135.7C797.598 154.871 755.104 163.607 713.78 153.75C674.604 144.406 649.494 117.894 646.576 97.3438Z" fill="url(#paint5_linear_75_6250)"/>
<path d="M713.437 176.715C696.716 172.726 681.796 166.442 669.959 158.951C668.97 158.326 668.003 157.691 667.058 157.05L620.475 349.139C620.171 350.391 620.648 351.706 621.702 352.447C633.833 360.979 648.897 368.171 665.304 372.149C701.852 381.011 734.172 374.39 747.367 359.147C748.905 357.37 750.183 355.475 751.178 353.475C751.337 354.605 750.977 357.413 750.443 360.568C749.624 365.404 748.396 371.057 748.003 372.732C742.688 395.385 700.675 405.927 656.604 395.241C634.164 389.8 615.649 380.56 603.477 369.29C601.118 367.106 600.225 363.811 600.846 360.657C601.581 356.929 602.606 353.266 603.911 349.701L651.992 144.099C643.97 135.046 640.272 125.388 642.413 116.411C642.522 115.954 642.823 114.446 643.219 112.463L643.219 112.463L643.219 112.462C643.692 110.094 644.3 107.048 644.878 104.302C645.594 100.901 647.265 97.9611 647.576 97.3436C647.888 99.5377 647.452 101.8 648.26 104.102C655.017 123.359 678.787 145.404 713.78 153.75C751.042 162.638 789.255 156.409 803.496 141.043C805.049 139.368 806.316 137.584 807.267 135.699C807.423 136.796 807.081 139.476 806.563 142.52C805.729 147.416 804.44 153.254 804.033 154.961C798.628 177.621 758.067 187.36 713.437 176.715Z" stroke="black" stroke-width="2.38"/>
<path d="M707.961 361.983C707.631 363.237 707.045 364.214 706.202 364.916C705.351 365.604 704.346 365.895 703.188 365.788L703.593 364.247C704.369 364.176 704.989 363.927 705.453 363.5C705.92 363.062 706.266 362.411 706.493 361.548C706.712 360.716 706.739 360.003 706.576 359.411C706.403 358.816 706.075 358.456 705.592 358.329C705.17 358.218 704.781 358.319 704.424 358.632C704.057 358.942 703.672 359.511 703.268 360.339L702.744 361.453C702.207 362.62 701.597 363.437 700.914 363.906C700.22 364.372 699.483 364.502 698.702 364.297C698.106 364.141 697.629 363.823 697.271 363.345C696.913 362.866 696.696 362.271 696.619 361.559C696.533 360.844 696.6 360.065 696.821 359.222C697.11 358.123 697.633 357.238 698.391 356.57C699.139 355.898 700.034 355.562 701.078 355.561L700.653 357.18C700.075 357.248 699.582 357.514 699.175 357.978C698.759 358.43 698.462 358.999 698.281 359.688C698.067 360.5 698.043 361.18 698.206 361.728C698.362 362.264 698.687 362.596 699.18 362.726C699.581 362.831 699.953 362.731 700.297 362.426C700.644 362.11 700.996 361.565 701.353 360.791L701.861 359.672C702.417 358.434 703.036 357.581 703.72 357.112C704.403 356.643 705.156 356.517 705.978 356.733C706.594 356.895 707.089 357.228 707.462 357.732C707.838 358.226 708.071 358.843 708.163 359.581C708.255 360.319 708.187 361.12 707.961 361.983ZM704.122 354.011C703.094 353.741 702.222 353.254 701.507 352.55C700.783 351.833 700.29 350.989 700.029 350.02C699.757 349.047 699.756 348.047 700.026 347.02C700.233 346.228 700.582 345.529 701.071 344.921C701.55 344.311 702.137 343.833 702.832 343.489C703.519 343.131 704.263 342.931 705.065 342.889L704.616 344.6C703.844 344.738 703.185 345.048 702.641 345.531C702.089 346.002 701.711 346.627 701.506 347.408C701.314 348.138 701.32 348.848 701.523 349.539C701.726 350.229 702.095 350.831 702.63 351.346C703.158 351.847 703.797 352.196 704.547 352.393C705.297 352.59 706.03 352.601 706.746 352.426C707.455 352.239 708.067 351.894 708.583 351.393C709.099 350.891 709.453 350.276 709.645 349.546C709.85 348.765 709.833 348.035 709.594 347.357C709.347 346.666 708.921 346.071 708.316 345.571L708.765 343.86C709.443 344.291 709.998 344.832 710.431 345.484C710.857 346.123 711.133 346.828 711.261 347.597C711.378 348.364 711.333 349.143 711.125 349.935C710.855 350.962 710.368 351.834 709.664 352.55C708.949 353.263 708.105 353.756 707.133 354.028C706.153 354.287 705.15 354.281 704.122 354.011ZM714.548 336.9C714.275 337.938 713.784 338.825 713.074 339.562C712.354 340.295 711.508 340.798 710.536 341.07C709.553 341.34 708.548 341.339 707.521 341.069C706.493 340.8 705.622 340.307 704.909 339.593C704.186 338.875 703.696 338.022 703.44 337.032C703.173 336.039 703.176 335.023 703.449 333.985C703.721 332.947 704.218 332.061 704.938 331.328C705.647 330.591 706.493 330.088 707.476 329.819C708.448 329.547 709.448 329.546 710.476 329.816C711.504 330.086 712.379 330.58 713.103 331.297C713.816 332.011 714.306 332.865 714.572 333.858C714.829 334.848 714.82 335.862 714.548 336.9ZM713.068 336.512C713.262 335.772 713.259 335.051 713.059 334.35C712.861 333.639 712.5 333.028 711.975 332.517C711.442 331.992 710.801 331.632 710.051 331.435C709.301 331.238 708.57 331.238 707.859 331.436C707.14 331.621 706.52 331.974 705.998 332.496C705.479 333.008 705.123 333.634 704.929 334.374C704.734 335.114 704.736 335.839 704.934 336.551C705.134 337.251 705.501 337.864 706.033 338.388C706.558 338.9 707.195 339.254 707.946 339.451C708.696 339.648 709.43 339.654 710.149 339.469C710.86 339.271 711.475 338.917 711.994 338.405C712.516 337.883 712.874 337.251 713.068 336.512ZM713.167 323.333L712.637 325.352L717.107 326.526L716.703 328.068L705.912 325.234L707.15 320.517C707.339 319.798 707.64 319.217 708.052 318.776C708.457 318.322 708.936 318.025 709.49 317.885C710.035 317.732 710.611 317.735 711.217 317.894C712.029 318.107 712.66 318.531 713.108 319.165C713.547 319.796 713.713 320.565 713.607 321.471L719.067 319.065L718.557 321.008L713.167 323.333ZM711.234 324.984L712.044 321.901C712.206 321.284 712.181 320.772 711.969 320.365C711.75 319.945 711.358 319.661 710.792 319.512C710.227 319.364 709.751 319.42 709.364 319.681C708.969 319.929 708.691 320.361 708.529 320.978L707.719 324.061L711.234 324.984ZM710.816 312.456L714.038 313.302L715.415 308.061L716.864 308.441L715.487 313.683L718.709 314.529L720.207 308.825L721.656 309.206L719.753 316.451L708.962 313.617L710.865 306.372L712.314 306.752L710.816 312.456Z" fill="black"/>
<path d="M669.901 210.909C669.684 211.751 669.125 212.449 668.36 213.017L667.585 212.631L667.556 212.616C666.724 212.236 665.385 211.366 665.776 209.849C666.068 208.71 667.232 208.022 668.371 208.315C669.505 208.61 670.193 209.774 669.901 210.909ZM663.685 209.311C663.186 211.25 664.06 213.077 665.975 214.22C664.334 214.794 662.472 215.067 660.95 215.117L660.413 217.204L665.844 218.6C666.914 218.875 667.563 219.972 667.288 221.042C667.013 222.112 665.915 222.76 664.845 222.485L659.415 221.09L658.878 223.177L664.309 224.573C666.531 225.152 668.821 223.811 669.393 221.587C669.965 219.364 668.605 217.084 666.381 216.513L665.47 216.279C666.421 216.09 667.402 215.813 668.316 215.404L673.999 218.228L674.548 216.092L670.426 214.045C671.154 213.367 671.721 212.517 671.996 211.447C672.584 209.159 671.188 206.814 668.9 206.226C666.615 205.639 664.273 207.023 663.685 209.311L663.685 209.311Z" fill="black"/>
<path d="M666.624 198.852L672.401 198.9L667.351 196.021L667.806 194.253L675.068 198.55L674.613 200.319L668.788 200.314L673.891 203.114L673.436 204.882L665.002 205.146L665.456 203.378L671.268 203.29L666.184 200.547L666.62 198.851L666.624 198.852L666.624 198.852ZM668.658 189.961C668.068 192.257 669.454 194.595 671.746 195.184C674.042 195.774 676.38 194.389 676.97 192.097C677.56 189.802 676.179 187.461 673.883 186.871C671.587 186.281 669.248 187.666 668.658 189.961ZM675.262 191.658C674.914 193.009 673.541 193.821 672.19 193.474C670.838 193.127 670.027 191.749 670.374 190.402C670.721 189.051 672.095 188.239 673.446 188.587C674.793 188.933 675.609 190.308 675.262 191.658ZM673.018 181.264C672.713 182.452 673.43 183.659 674.614 183.964L678.553 184.976L678.096 186.756L670.251 184.74L670.709 182.96L671.916 183.27C671.916 183.27 670.9 182.2 671.301 180.641L671.442 180.094L673.203 180.547L673.018 181.264ZM676.413 175.769C676.025 174.323 674.89 173.117 673.338 172.718L672.88 174.498C674.19 174.834 674.979 176.169 674.643 177.479L674.581 177.718L668.426 176.136L667.968 177.915L679.6 180.905L680.057 179.125L676.361 178.175L676.416 177.963C676.461 177.788 676.633 177.59 676.8 177.523L680.892 175.881L681.44 173.748L676.413 175.769Z" fill="black"/>
<path d="M659.785 326.71L653.565 348.731C652.919 351.019 653.945 353.479 656.087 354.576C662.125 357.668 666.46 359.202 672.891 359.006C676.568 358.894 679.482 356.202 680.452 352.82L687.262 329.074C688.201 325.8 686.664 322.105 683.249 320.973C679.192 319.629 676.322 319.509 674.038 319.661C673.349 319.707 672.666 319.784 672.063 319.852C671.728 319.889 671.417 319.924 671.143 319.95C670.317 320.026 669.647 320.041 668.999 319.923C668.135 319.767 667.391 319.8 666.741 320.036C666.083 320.276 665.648 320.681 665.339 321.042C664.832 321.632 664.173 322.102 663.386 322.663C663.115 322.857 662.829 323.061 662.528 323.284C661.47 324.072 660.235 325.118 659.785 326.71Z" fill="#5869DD" stroke="black" stroke-width="2.38"/>
<path d="M660.829 320.303L655.002 344.051C654.395 346.525 655.718 349.066 658.085 349.996L658.52 348.889L658.085 349.996C663.694 352.2 665.97 353.021 670.729 353.216C673.976 353.349 676.742 351.079 677.522 348.017L683.023 326.427C683.825 323.28 681.526 320.383 678.525 319.875C676.318 319.501 674.732 318.98 672.977 318.395L672.889 318.366C671.147 317.786 669.244 317.152 666.506 316.599C663.881 316.069 661.442 317.801 660.829 320.303Z" fill="url(#paint6_linear_75_6250)" stroke="black" stroke-width="2.38"/>
<path d="M665.588 341.741C665.863 340.507 666.414 339.632 667.241 339.115C668.067 338.599 669.037 338.465 670.15 338.713C670.868 338.874 671.463 339.182 671.935 339.637C672.407 340.093 672.726 340.658 672.894 341.333C673.055 341.995 673.047 342.721 672.871 343.51C672.719 344.187 672.448 344.785 672.056 345.303C671.657 345.809 671.176 346.201 670.615 346.479C670.044 346.755 669.436 346.885 668.792 346.868L669.127 345.366C669.774 345.277 670.303 345.045 670.716 344.67C671.131 344.284 671.411 343.768 671.556 343.121C671.723 342.372 671.646 341.739 671.326 341.222C671.009 340.694 670.486 340.349 669.757 340.187C669.049 340.029 668.438 340.126 667.924 340.479C667.412 340.821 667.07 341.382 666.896 342.16C666.792 342.626 666.785 343.06 666.876 343.462C666.957 343.863 667.114 344.206 667.347 344.491L666.985 346.115L661.437 344.064L662.883 337.586L664.279 337.897L663.081 343.268L666.012 344.337C665.796 343.97 665.651 343.55 665.576 343.077C665.494 342.591 665.497 342.146 665.588 341.741ZM672.714 335.644L674.383 336.017L674.011 337.686L672.342 337.313L672.714 335.644ZM675.906 329.909C675.702 330.82 675.302 331.569 674.703 332.158C674.094 332.744 673.338 333.133 672.436 333.324C671.523 333.514 670.52 333.486 669.427 333.242C668.335 332.999 667.421 332.598 666.685 332.041C665.939 331.482 665.42 330.808 665.129 330.021C664.827 329.232 664.778 328.382 664.981 327.472C665.184 326.561 665.59 325.813 666.199 325.227C666.797 324.638 667.553 324.249 668.466 324.06C669.369 323.869 670.366 323.895 671.459 324.139C672.551 324.382 673.471 324.784 674.217 325.343C674.952 325.9 675.471 326.574 675.773 327.363C676.064 328.15 676.109 328.999 675.906 329.909ZM674.494 329.595C674.704 328.654 674.51 327.835 673.911 327.139C673.315 326.432 672.385 325.938 671.12 325.656C669.856 325.374 668.804 325.426 667.964 325.812C667.126 326.187 666.602 326.846 666.392 327.786C666.182 328.727 666.375 329.551 666.972 330.257C667.57 330.954 668.502 331.443 669.766 331.725C671.03 332.007 672.082 331.96 672.919 331.585C673.759 331.199 674.285 330.535 674.494 329.595Z" fill="black"/>
<path d="M900.982 304.492L901.013 304.461L901.041 304.427C902.94 302.158 905.375 301.123 907.617 301.58C907.82 301.621 908.019 301.674 908.213 301.738L908.331 301.776L908.454 301.79C908.731 301.82 909.009 301.863 909.288 301.92L932.634 306.677L928.569 326.629L905.223 321.872C904.944 321.815 904.671 321.746 904.405 321.666L904.286 321.63L904.162 321.619C903.959 321.602 903.755 321.573 903.552 321.532C901.309 321.075 899.474 319.169 898.614 316.338L898.601 316.296L898.586 316.256C897.986 314.7 897.809 312.962 898.167 311.205L898.621 308.976C898.979 307.219 899.822 305.689 900.982 304.492Z" fill="#F1EFED" stroke="black" stroke-width="2.38"/>
<path d="M937.287 318.015C936.696 320.917 935.464 323.343 934.012 324.929C932.541 326.535 931.011 327.126 929.735 326.867C928.46 326.607 927.282 325.463 926.557 323.41C925.842 321.383 925.657 318.668 926.249 315.766C926.84 312.864 928.072 310.438 929.523 308.853C930.994 307.247 932.525 306.655 933.8 306.915C935.076 307.175 936.253 308.318 936.978 310.371C937.694 312.398 937.878 315.113 937.287 318.015Z" fill="black" stroke="black" stroke-width="2.38"/>
<path d="M1080.97 124.396L1080.99 124.355L1081.01 124.316C1082.33 121.666 1082.3 119.02 1080.98 117.15C1080.86 116.981 1080.73 116.82 1080.59 116.668L1080.51 116.575L1080.45 116.468C1080.31 116.226 1080.16 115.989 1079.99 115.756L1066.27 96.2837L1049.62 108.017L1063.35 127.489C1063.52 127.722 1063.69 127.944 1063.87 128.156L1063.95 128.251L1064.01 128.36C1064.11 128.539 1064.22 128.714 1064.34 128.883C1065.65 130.754 1068.14 131.67 1071.08 131.321L1071.12 131.315L1071.16 131.313C1072.83 131.238 1074.49 130.703 1075.96 129.669L1077.81 128.359C1079.28 127.326 1080.34 125.939 1080.97 124.396Z" fill="black" stroke="black" stroke-width="2.38"/>
<path d="M1054.01 96.5748C1051.59 98.2812 1049.86 100.384 1049 102.35C1048.12 104.341 1048.19 105.981 1048.94 107.045C1049.69 108.109 1051.21 108.728 1053.38 108.567C1055.52 108.409 1058.08 107.488 1060.5 105.781C1062.92 104.075 1064.65 101.973 1065.52 100.006C1066.4 98.0151 1066.33 96.3754 1065.58 95.3115C1064.83 94.2476 1063.31 93.6286 1061.14 93.7889C1058.99 93.9472 1056.43 94.8683 1054.01 96.5748Z" fill="#F1EFED" stroke="black" stroke-width="2.38"/>
<defs>
<linearGradient id="paint0_linear_75_6250" x1="605.709" y1="232.214" x2="736.79" y2="328.131" gradientUnits="userSpaceOnUse">
<stop stop-color="#D6FFBB"/>
<stop offset="1" stop-color="#5869DD"/>
</linearGradient>
<linearGradient id="paint1_linear_75_6250" x1="674.363" y1="126.556" x2="743.254" y2="91.4291" gradientUnits="userSpaceOnUse">
<stop stop-color="#D6FFBB"/>
<stop offset="1" stop-color="#5869DD"/>
</linearGradient>
<linearGradient id="paint2_linear_75_6250" x1="681.116" y1="118.559" x2="721.745" y2="195.676" gradientUnits="userSpaceOnUse">
<stop stop-color="#D6FFBB"/>
<stop offset="1" stop-color="#5869DD"/>
</linearGradient>
<linearGradient id="paint3_linear_75_6250" x1="703.071" y1="132.168" x2="784.738" y2="86.899" gradientUnits="userSpaceOnUse">
<stop stop-color="#D6FFBB"/>
<stop offset="1" stop-color="#5869DD"/>
</linearGradient>
<linearGradient id="paint4_linear_75_6250" x1="711.851" y1="118.663" x2="764.96" y2="80.7951" gradientUnits="userSpaceOnUse">
<stop stop-color="#5869DD"/>
<stop offset="1" stop-color="#D6FFBB"/>
</linearGradient>
<linearGradient id="paint5_linear_75_6250" x1="612.266" y1="219.138" x2="733.605" y2="260.222" gradientUnits="userSpaceOnUse">
<stop stop-color="#D6FFBB"/>
<stop offset="1" stop-color="#5869DD"/>
</linearGradient>
<linearGradient id="paint6_linear_75_6250" x1="653.103" y1="327.981" x2="675.103" y2="354.255" gradientUnits="userSpaceOnUse">
<stop stop-color="#D6FFBB"/>
<stop offset="1" stop-color="#5869DD"/>
</linearGradient>
</defs>
</svg>
