<svg width="467" height="434" viewBox="0 0 467 434" fill="none" xmlns="http://www.w3.org/2000/svg">
<path d="M44.4053 184.194L51.5044 181.364L51.8918 181.633L44.8085 184.362L44.4053 184.194Z" fill="#8F8E93"/>
<path d="M65.4423 174.952L80.8355 169.624L81.3907 170.064L65.9974 175.391L65.4423 174.952Z" fill="#8F8E93"/>
<path d="M98.4632 166.819C104.079 165.38 109.878 164.092 115.659 162.923L116.172 163.614C110.392 164.783 104.611 165.952 98.9955 167.391L98.4632 166.819Z" fill="#8F8E93"/>
<path d="M134.509 160.527C140.978 159.969 147.644 159.554 154.276 159.358L154.782 160.338C148.15 160.533 141.501 160.838 135.033 161.397L134.509 160.527Z" fill="#8F8E93"/>
<path d="M173.543 159.308C180.38 159.482 187.398 159.909 194.382 160.557L194.426 161.688C187.442 161.041 180.657 160.538 173.821 160.363L173.543 159.308Z" fill="#8F8E93"/>
<path d="M213.698 162.32C220.542 163.395 227.563 164.736 234.334 166.276L233.92 167.521C227.149 165.981 220.342 164.674 213.498 163.598L213.698 162.32Z" fill="#8F8E93"/>
<path d="M254.656 171.446C261.46 173.242 268.016 175.206 274.325 177.339L273.27 178.42C266.945 176.388 260.389 174.423 253.817 172.56L254.656 171.446Z" fill="#8F8E93"/>
<path d="M291.545 183.549L300.577 187.703C302.004 188.424 303.665 189.058 305.092 189.78L309.374 191.944L307.643 193.164L303.361 190.999C301.934 190.278 300.487 189.678 299.06 188.956L290.244 184.836L291.545 183.549Z" fill="#8F8E93"/>
<path d="M324.404 199.672C329.21 202.594 333.999 205.627 338.374 208.71L336.207 209.624C331.831 206.541 327.24 203.539 322.435 200.617L324.404 199.672Z" fill="#8F8E93"/>
<path d="M352.954 219.746C356.915 222.893 360.842 226.254 364.375 229.553L361.836 230.251C358.304 226.952 354.557 223.73 350.596 220.583L352.954 219.746Z" fill="#8F8E93"/>
<path d="M375.66 240.844L385.372 251.492L382.076 251.975L372.766 241.502L375.66 240.844Z" fill="#8F8E93"/>
<path d="M393.156 260.91L400.37 272.349L396.973 272.645L389.946 261.353L393.156 260.91Z" fill="#8F8E93"/>
<path d="M407.626 283.984L414.386 295.243L410.916 295.636L403.965 284.229L407.626 283.984Z" fill="#8F8E93"/>
<path d="M226.617 175.207L238.211 187.365L254.76 183.471L243.165 171.314L226.617 175.207Z" fill="black"/>
<path d="M248.114 155.243L243.161 171.294L254.755 183.452L259.709 167.401L248.114 155.243Z" fill="#F1EFED"/>
<path d="M248.114 155.243L231.566 159.136L226.612 175.187L243.161 171.294L248.114 155.243Z" fill="#F1EFED"/>
<path d="M231.566 159.136L231.449 158.638C231.272 158.679 231.13 158.812 231.077 158.985L231.566 159.136ZM248.114 155.243L248.485 154.89C248.359 154.758 248.174 154.703 247.997 154.745L248.114 155.243ZM226.612 175.187L226.123 175.036C226.069 175.212 226.113 175.403 226.238 175.537C226.363 175.671 226.551 175.728 226.73 175.686L226.612 175.187ZM226.617 175.207L226.5 174.708C226.321 174.75 226.178 174.885 226.126 175.061C226.074 175.237 226.12 175.427 226.246 175.56L226.617 175.207ZM238.211 187.365L237.841 187.718C237.966 187.85 238.152 187.905 238.329 187.863L238.211 187.365ZM254.76 183.471L254.877 183.97C255.056 183.928 255.198 183.793 255.251 183.617C255.303 183.441 255.257 183.251 255.13 183.118L254.76 183.471ZM243.165 171.314L243.536 170.96C243.41 170.829 243.225 170.773 243.048 170.815L243.165 171.314ZM254.755 183.452L254.384 183.805C254.51 183.937 254.695 183.992 254.872 183.95C255.049 183.909 255.191 183.777 255.244 183.603L254.755 183.452ZM259.709 167.401L260.198 167.552C260.253 167.375 260.207 167.182 260.079 167.047L259.709 167.401ZM231.683 159.635L248.232 155.742L247.997 154.745L231.449 158.638L231.683 159.635ZM247.625 155.092L242.671 171.143L243.65 171.445L248.604 155.394L247.625 155.092ZM243.043 170.795L226.495 174.689L226.73 175.686L243.278 171.793L243.043 170.795ZM227.102 175.338L232.055 159.287L231.077 158.985L226.123 175.036L227.102 175.338ZM226.246 175.56L237.841 187.718L238.582 187.011L226.988 174.853L226.246 175.56ZM238.329 187.863L254.877 183.97L254.642 182.973L238.094 186.866L238.329 187.863ZM255.13 183.118L243.536 170.96L242.794 171.667L254.389 183.825L255.13 183.118ZM243.048 170.815L226.5 174.708L226.734 175.706L243.283 171.812L243.048 170.815ZM242.79 171.648L254.384 183.805L255.126 183.098L243.531 170.941L242.79 171.648ZM255.244 183.603L260.198 167.552L259.219 167.25L254.266 183.301L255.244 183.603ZM260.079 167.047L248.485 154.89L247.744 155.597L259.338 167.754L260.079 167.047Z" fill="black"/>
<path d="M309.648 187.914L309.668 187.904L309.687 187.892C311.883 186.513 314.273 186.262 316.13 187.299C316.297 187.392 316.457 187.494 316.61 187.603L316.661 187.64L316.719 187.666C316.946 187.767 317.17 187.879 317.391 188.002L335.344 198.018L326.564 213.616L308.607 203.597C308.386 203.474 308.173 203.342 307.969 203.202L307.917 203.166L307.858 203.142C307.684 203.07 307.514 202.987 307.347 202.894C305.491 201.859 304.459 199.7 304.493 197.118L304.494 197.095L304.492 197.073C304.403 195.602 304.722 194.092 305.498 192.712L306.436 191.046C307.213 189.666 308.341 188.607 309.648 187.914Z" fill="#F1EFED" stroke="black" stroke-width="1.21911"/>
<path d="M335.684 208.169C334.452 210.375 332.785 212.029 331.116 212.935C329.439 213.845 327.846 213.963 326.648 213.29C325.45 212.617 324.719 211.193 324.617 209.283C324.516 207.382 325.053 205.093 326.285 202.888C327.518 200.683 329.184 199.029 330.854 198.123C332.531 197.213 334.124 197.095 335.322 197.768C336.519 198.441 337.251 199.865 337.352 201.775C337.453 203.675 336.916 205.964 335.684 208.169Z" fill="black" stroke="black" stroke-width="1.21911"/>
</svg>
