<svg width="34" height="34" viewBox="0 0 34 34" fill="none" xmlns="http://www.w3.org/2000/svg">
    <path d="M17.8461 5.55389C17.9717 5.16732 18.2428 4.91432 18.559 4.79491C18.9792 4.6362 19.4788 4.71344 19.8216 5.02663C19.9674 5.15975 20.0848 5.33551 20.1558 5.5539L22.545 12.9073C22.7076 13.4076 23.1738 13.7463 23.6999 13.7463L30.3609 13.7463H31.4317C31.7803 13.7463 32.0685 13.8785 32.2768 14.0826C32.7713 14.567 32.815 15.4565 32.1454 15.943L25.8903 20.4876C25.4647 20.7968 25.2866 21.3449 25.4491 21.8452L27.8384 29.1986C28.2019 30.3174 26.9215 31.2477 25.9698 30.5562L19.7146 26.0116C19.2891 25.7024 18.7128 25.7024 18.2872 26.0116L12.032 30.5562C11.4871 30.9522 10.8343 30.8163 10.4442 30.4179C10.153 30.1205 10.0081 29.6768 10.1634 29.1986L10.4772 28.2328L12.5527 21.8452C12.7152 21.3449 12.5371 20.7968 12.1116 20.4876L5.85639 15.943C5.80303 15.9042 5.75419 15.8629 5.70976 15.8194C5.70263 15.8124 5.69562 15.8054 5.68872 15.7983C5.47384 15.5778 5.36809 15.3053 5.35493 15.0317C5.32413 14.3919 5.79975 13.7463 6.57013 13.7463L14.3019 13.7463C14.828 13.7463 15.2942 13.4076 15.4568 12.9073L17.8461 5.55389Z" fill="black"/>
    <path d="M15.8461 3.55389C16.1426 2.64122 17.2506 2.47311 17.8461 3.04958C17.8552 3.05844 17.8642 3.06748 17.8731 3.0767C17.995 3.2028 18.0934 3.36187 18.1558 3.5539L18.559 4.79491L20.545 10.9073C20.7076 11.4076 21.1738 11.7463 21.6999 11.7463L29.4317 11.7463C29.7388 11.7463 29.999 11.8489 30.199 12.0128C30.2586 12.0617 30.3129 12.1159 30.3614 12.1746C30.7199 12.6076 30.7674 13.2781 30.3609 13.7463C30.2996 13.817 30.2279 13.8831 30.1454 13.943L23.8903 18.4876C23.4647 18.7968 23.2866 19.3449 23.4491 19.8452L25.8384 27.1986C26.2019 28.3174 24.9215 29.2477 23.9698 28.5562L17.7146 24.0116C17.2891 23.7024 16.7128 23.7024 16.2872 24.0116L10.4772 28.2328L10.032 28.5562C9.50691 28.9377 8.88173 28.8255 8.48783 28.4603C8.46437 28.4386 8.44172 28.4159 8.41997 28.3924C8.14507 28.0955 8.01242 27.6633 8.16341 27.1986L10.5527 19.8452C10.7152 19.3449 10.5371 18.7968 10.1116 18.4876L5.35493 15.0317L3.85639 13.943C3.8233 13.919 3.79196 13.8939 3.76232 13.868C3.71806 13.8293 3.67762 13.7887 3.64088 13.7463C2.9947 13.0019 3.4958 11.7463 4.57013 11.7463L12.3019 11.7463C12.828 11.7463 13.2942 11.4076 13.4568 10.9073L15.8461 3.55389Z" fill="#F2EA86"/>
    <path d="M18.1558 3.5539L18.559 4.79491C18.9792 4.6362 19.4788 4.71344 19.8216 5.02663L17.8731 3.0767C17.995 3.2028 18.0934 3.36187 18.1558 3.5539Z" fill="#F2EA86"/>
    <path d="M30.3609 13.7463H31.4317C31.7803 13.7463 32.0685 13.8785 32.2768 14.0826L30.3614 12.1746C30.7199 12.6076 30.7674 13.2781 30.3609 13.7463Z" fill="#F2EA86"/>
    <path d="M5.35493 15.0317L3.85639 13.943C3.8233 13.919 3.79196 13.8939 3.76232 13.868L5.68872 15.7983C5.47384 15.5778 5.36809 15.3053 5.35493 15.0317Z" fill="#F2EA86"/>
    <path d="M10.1634 29.1986L10.4772 28.2328L10.032 28.5562C9.50691 28.9377 8.88173 28.8255 8.48783 28.4603L10.4442 30.4179C10.153 30.1205 10.0081 29.6768 10.1634 29.1986Z" fill="#F2EA86"/>
    <path d="M11.0753 19.1167C10.9897 18.7107 10.7576 18.339 10.4054 18.0831L5.87492 14.7915C5.94882 14.4881 6.20822 14.2463 6.57013 14.2463L14.3019 14.2463C15.0446 14.2463 15.7028 13.7681 15.9323 13.0618L18.3216 5.7084C18.323 5.70407 18.3244 5.69977 18.3259 5.69551L20.0695 11.0618C20.299 11.7681 20.9572 12.2463 21.6999 12.2463H21.8045L22.0695 13.0618C22.299 13.7681 22.9572 14.2463 23.6999 14.2463L28.8773 14.2463L23.5964 18.0831C22.9955 18.5197 22.7441 19.2934 22.9736 19.9998L25.3629 27.3531C25.5767 28.0112 24.8235 28.5585 24.2637 28.1517L18.0085 23.6071C17.4077 23.1706 16.5941 23.1706 15.9933 23.6071L11.4283 26.9237L13.0282 21.9998C13.2577 21.2934 13.0063 20.5197 12.4054 20.0831L11.0753 19.1167ZM6.57013 13.2463C5.84316 13.2463 5.30744 13.6538 5.04155 14.186L4.15028 13.5385C4.1292 13.5232 4.10961 13.5075 4.09142 13.4916C4.06426 13.4679 4.04004 13.4434 4.01847 13.4186C3.63848 12.9808 3.94686 12.2463 4.57013 12.2463L12.3019 12.2463C13.0446 12.2463 13.7028 11.7681 13.9323 11.0618L16.3216 3.7084C16.492 3.1838 17.1405 3.06247 17.4983 3.40882C17.5035 3.41384 17.5086 3.41897 17.5137 3.42421C17.5818 3.49473 17.6409 3.58749 17.6802 3.70841L17.9576 4.56193C17.6969 4.76014 17.4869 5.04127 17.3705 5.39938L14.9813 12.7528C14.8856 13.0471 14.6114 13.2463 14.3019 13.2463L6.57013 13.2463ZM19.233 5.25118C19.326 5.28136 19.4123 5.32994 19.4844 5.3958C19.5655 5.46987 19.6357 5.57138 19.6802 5.70841L21.4669 11.2073C21.2592 11.1356 21.0912 10.9701 21.0205 10.7528L19.233 5.25118ZM23.0205 12.7528L22.856 12.2463L29.4317 12.2463C29.6221 12.2463 29.7706 12.3082 29.8821 12.3996C29.9162 12.4275 29.9477 12.459 29.9763 12.4934C30.1529 12.7068 30.1972 13.0023 30.0917 13.2463L23.6999 13.2463C23.3904 13.2463 23.1162 13.0471 23.0205 12.7528ZM30.4393 14.3475C30.4837 14.3153 30.526 14.2815 30.5664 14.2463H31.4317C31.6463 14.2463 31.8098 14.325 31.9269 14.4397C32.2316 14.7382 32.2368 15.2586 31.8515 15.5385L25.5964 20.0831C24.9955 20.5197 24.7441 21.2934 24.9736 21.9998L27.3629 29.3531C27.5767 30.0112 26.8235 30.5585 26.2637 30.1517L25.0328 29.2574C25.9469 29.0582 26.6609 28.112 26.3139 27.0441L23.9247 19.6907C23.829 19.3964 23.9338 19.074 24.1841 18.8921L30.4393 14.3475ZM17.4208 24.4161L18.6572 25.3144C18.4226 25.3624 18.1958 25.4599 17.9933 25.6071L11.7381 30.1517C11.4202 30.3827 11.042 30.3138 10.8014 30.0681C10.6292 29.8922 10.5459 29.6395 10.6389 29.3531L10.9026 28.5418L16.5811 24.4161C16.8314 24.2342 17.1704 24.2342 17.4208 24.4161ZM12.0771 21.6907L10.0519 27.9237L9.73811 28.1517C9.43081 28.375 9.06982 28.3181 8.82776 28.0937C8.81358 28.0805 8.79994 28.0669 8.78689 28.0528L8.41997 28.3924L8.78688 28.0528C8.62509 27.878 8.54829 27.6321 8.63894 27.3531L10.9444 20.2577L11.8177 20.8921C12.068 21.074 12.1728 21.3964 12.0771 21.6907Z" stroke="black"/>
    <path d="M16.3207 3.70878C16.5345 3.05071 17.4655 3.0507 17.6793 3.70878L20.0686 11.0622L20.5441 10.9077L20.0686 11.0622C20.2981 11.7685 20.9563 12.2467 21.699 12.2467L29.4308 12.2467C30.1227 12.2467 30.4104 13.1322 29.8506 13.5389L23.5955 18.0835C22.9946 18.52 22.7432 19.2938 22.9727 20.0001L25.362 27.3535C25.5758 28.0116 24.8226 28.5588 24.2628 28.1521L18.0076 23.6075C17.4068 23.1709 16.5932 23.1709 15.9924 23.6075L9.7372 28.1521C9.17741 28.5588 8.42421 28.0116 8.63803 27.3535L11.0273 20.0001C11.2568 19.2938 11.0054 18.52 10.4045 18.0835L4.14938 13.5389C3.58958 13.1322 3.87728 12.2467 4.56922 12.2467L12.301 12.2467C13.0437 12.2467 13.7019 11.7685 13.9314 11.0622L16.3207 3.70878Z" fill="#F2EA86" stroke="black"/>
</svg>
