<svg width="486" height="621" viewBox="0 0 486 621" fill="none" xmlns="http://www.w3.org/2000/svg">
<path d="M338.858 99.8502C356.977 94.8131 367.083 74.2529 361.431 53.9277C355.778 33.6025 336.508 21.2091 318.39 26.2462C300.271 31.2833 290.165 51.8435 295.817 72.1687C301.47 92.4939 320.74 104.887 338.858 99.8502Z" fill="black"/>
<path d="M338.043 94.8678C355.853 89.9167 365.778 69.6769 360.211 49.661C354.645 29.6452 335.695 17.4328 317.886 22.3839C300.077 27.335 290.152 47.5747 295.718 67.5906C301.284 87.6065 320.234 99.8189 338.043 94.8678Z" fill="#F2EA86" stroke="black" stroke-width="2.377" stroke-miterlimit="10"/>
<path d="M341.403 62.0497C342.815 61.3855 344.226 60.6382 345.555 59.8078C349.791 57.0676 351.701 54.4936 351.119 52.2516C350.206 49.0963 344.642 48.1829 337.749 48.8472C338.247 42.0383 337.25 36.558 334.012 35.7276C330.773 34.8973 327.202 39.2981 324.212 45.4427C318.482 41.6231 313.167 39.7963 310.841 42.1213C309.18 43.782 309.596 46.9374 311.921 51.3382C312.668 52.6668 313.499 53.9953 314.412 55.2409C313.001 55.9052 311.589 56.6525 310.26 57.4828C306.025 60.223 304.114 62.7971 304.696 65.039C305.111 66.5336 306.606 67.5301 308.848 68.1113C311.921 68.6926 314.994 68.8586 318.066 68.4435C317.568 75.2523 318.565 80.7327 321.804 81.563C325.042 82.3934 328.613 77.9925 331.603 71.8479C334.095 73.5916 336.918 75.0032 339.908 75.9166C342.067 76.4979 343.894 76.3318 345.057 75.1693C346.718 73.5086 346.303 70.3533 343.977 65.9524C343.147 64.6238 342.316 63.2953 341.403 62.0497ZM349.541 52.5837C349.957 53.9953 348.13 56.1543 344.642 58.3962C343.313 59.2266 341.901 60.0569 340.406 60.7212C339.244 59.2266 337.998 57.7319 336.669 56.2373C337.084 54.2444 337.333 52.3346 337.583 50.4248C344.392 49.7606 348.96 50.6739 349.541 52.5837ZM329.61 64.7069C328.364 65.039 327.202 65.3712 326.039 65.6203C325.125 64.8729 324.295 64.0426 323.381 63.2122C322.468 62.3819 321.637 61.4685 320.89 60.6382C321.139 59.4757 321.388 58.3132 321.72 57.1507C322.053 55.9882 322.385 54.8257 322.717 53.6632C323.88 53.248 325.042 52.9159 326.205 52.5837C327.451 52.2516 328.613 51.9195 329.776 51.6704C330.69 52.4177 331.52 53.248 332.434 54.0784C333.347 54.9087 334.178 55.8221 334.925 56.6525C334.676 57.815 334.427 58.9775 334.095 60.1399C333.762 61.3024 333.43 62.4649 333.098 63.6274C331.935 64.0426 330.773 64.3747 329.61 64.7069ZM332.517 65.5372C332.018 66.9488 331.52 68.2774 330.939 69.5229C329.859 68.7756 328.696 67.8622 327.534 66.9488C328.364 66.7827 329.195 66.5336 330.025 66.2845C330.856 66.0354 331.686 65.7863 332.517 65.5372ZM324.129 66.0354C322.634 66.3676 321.222 66.5336 319.893 66.6997C320.06 65.3711 320.226 63.9596 320.475 62.4649C321.056 63.0462 321.637 63.6274 322.219 64.2917C322.883 64.8729 323.465 65.4542 324.129 66.0354ZM319.561 59.1435C318.565 58.0641 317.734 56.9846 316.904 55.9051C318.149 55.3239 319.478 54.8257 320.89 54.3275C320.641 55.1578 320.392 55.9051 320.226 56.7355C319.977 57.4828 319.727 58.3132 319.561 59.1435ZM323.381 51.7534C323.88 50.3418 324.378 49.0132 324.959 47.7677C326.039 48.515 327.202 49.4284 328.364 50.3418C327.534 50.5079 326.703 50.757 325.873 51.0061C324.959 51.2552 324.129 51.5043 323.381 51.7534ZM331.686 51.2552C333.181 50.923 334.593 50.757 335.922 50.5909C335.756 51.9195 335.589 53.3311 335.34 54.8257C334.759 54.2444 334.178 53.6632 333.596 52.9989C332.932 52.4177 332.351 51.8364 331.686 51.2552ZM336.254 58.1471C337.25 59.2266 338.081 60.306 338.911 61.3855C337.666 61.9667 336.337 62.4649 334.925 62.9631C335.174 62.1328 335.423 61.3855 335.589 60.5551C335.839 59.8078 336.088 58.9774 336.254 58.1471ZM333.596 37.2222C335.589 37.7205 336.669 42.2044 336.088 49.0132C334.178 49.2623 332.184 49.5945 330.191 50.0097C328.696 48.6811 327.119 47.5186 325.541 46.3561C328.447 40.2115 331.603 36.724 333.596 37.2222ZM313.333 50.5909C311.423 47.0204 310.924 44.2802 311.921 43.2008C312.585 42.5365 313.831 42.4535 315.492 42.8686C318.399 43.782 321.056 45.1106 323.548 46.8543C322.8 48.5981 322.053 50.4248 321.471 52.3346C319.478 52.9989 317.651 53.7462 315.907 54.4936C314.994 53.3311 314.163 52.0025 313.333 50.5909ZM306.274 64.7069C305.858 63.2953 307.685 61.1364 311.173 58.8944C312.502 58.0641 313.914 57.2337 315.409 56.5694C316.572 58.0641 317.817 59.5587 319.146 61.0533C318.731 63.0462 318.482 64.956 318.233 66.8658C311.423 67.5301 306.855 66.6167 306.274 64.7069ZM322.219 80.0684C320.226 79.5702 319.146 75.0863 319.727 68.2774C321.637 68.0283 323.631 67.6961 325.624 67.281C327.119 68.6095 328.696 69.772 330.274 70.9345C327.368 77.0791 324.212 80.5666 322.219 80.0684ZM343.811 74.0898C342.399 75.5014 337.832 74.2559 332.184 70.4363C332.932 68.6926 333.679 66.8658 334.261 64.956C336.254 64.2917 338.081 63.5444 339.825 62.7971C340.738 64.0426 341.569 65.4542 342.399 66.7828C344.392 70.2702 344.891 73.0104 343.811 74.0898Z" fill="black"/>
<path d="M330.855 57.8144C331.353 59.4748 330.357 61.1353 328.696 61.6334C327.035 62.1315 325.374 61.1353 324.876 59.4748C324.377 57.8144 325.374 56.1539 327.035 55.6558C328.696 55.2407 330.44 56.1539 330.855 57.8144Z" fill="black"/>
<path d="M79.3037 231.026L82.4596 233.601L82.2935 233.767L79.2207 231.192L79.3037 231.026Z" fill="black"/>
<path d="M88.4396 238.915L93.9207 244.726L93.6716 244.975L88.1904 239.164L88.4396 238.915Z" fill="black"/>
<path d="M98.9865 250.955C100.564 253.114 102.059 255.355 103.471 257.597L103.056 257.846C101.644 255.605 100.232 253.363 98.6543 251.204L98.9865 250.955Z" fill="black"/>
<path d="M107.374 264.655C108.537 267.063 109.617 269.554 110.53 272.045L109.866 272.294C108.952 269.803 107.956 267.312 106.793 264.904L107.374 264.655Z" fill="black"/>
<path d="M112.939 279.768C113.603 282.342 114.101 284.999 114.434 287.656L113.603 287.739C113.271 285.082 112.856 282.508 112.191 279.934L112.939 279.768Z" fill="black"/>
<path d="M114.931 295.71C114.931 298.367 114.765 301.107 114.433 303.765L113.52 303.682C113.852 301.024 114.018 298.367 114.018 295.71H114.931Z" fill="black"/>
<path d="M113.104 311.736C112.523 314.394 111.775 316.968 110.862 319.459L109.865 319.127C110.696 316.635 111.443 314.061 112.108 311.487L113.104 311.736Z" fill="black"/>
<path d="M107.872 326.932L106.045 330.585C105.713 331.167 105.464 331.831 105.132 332.412L104.135 334.156L103.139 333.575L104.135 331.831C104.467 331.25 104.717 330.668 105.049 330.087L106.876 326.517L107.872 326.932Z" fill="black"/>
<path d="M99.8173 340.882C98.2394 343.041 96.5784 345.199 94.8344 347.192L93.9209 346.362C95.6649 344.369 97.3258 342.293 98.9038 340.134L99.8173 340.882Z" fill="black"/>
<path d="M89.1869 353.088C87.2768 354.914 85.2006 356.741 83.1244 358.401L82.2939 357.405C84.3701 355.745 86.3633 354.001 88.2734 352.175L89.1869 353.088Z" fill="black"/>
<path d="M76.7302 363.218L69.9203 367.618L69.1729 366.373L75.8997 362.138L76.7302 363.218Z" fill="black"/>
<path d="M62.8612 371.521L55.636 375.091L55.0547 373.763L62.1968 370.276L62.8612 371.521Z" fill="black"/>
<path d="M48.327 378.413L41.1019 381.734L40.4375 380.406L47.7457 377.002L48.327 378.413Z" fill="black"/>
<path d="M39.9396 385.139C41.1853 385.471 42.431 385.554 43.7598 385.72C45.0886 385.804 46.4173 385.887 47.7461 385.887V387.381C46.4173 387.381 45.0886 387.298 43.6768 387.215C42.348 387.132 40.9362 386.966 39.6074 386.634L39.9396 385.139Z" fill="black"/>
<path d="M55.7188 385.637L63.6913 385.222L63.7744 386.8L55.8018 387.215L55.7188 385.637Z" fill="black"/>
<path d="M71.6641 384.558L79.6366 383.894L79.8027 385.472L71.8302 386.136L71.6641 384.558Z" fill="black"/>
<path d="M87.6084 383.063L95.581 382.15L95.7471 383.811L87.7745 384.641L87.6084 383.063Z" fill="black"/>
<path d="M103.554 381.237L111.526 380.323L111.692 381.984L103.72 382.897L103.554 381.237Z" fill="black"/>
<path d="M119.416 379.327L127.389 378.33L127.638 380.074L119.665 380.988L119.416 379.327Z" fill="black"/>
<path d="M135.361 377.334L143.334 376.338L143.5 377.999L135.61 378.995L135.361 377.334Z" fill="black"/>
<path d="M151.224 375.258L159.196 374.262L159.445 375.923L151.473 376.919L151.224 375.258Z" fill="black"/>
<path d="M167.169 373.182L175.058 372.186L175.308 373.763L167.335 374.843L167.169 373.182Z" fill="black"/>
<path d="M183.03 371.106L191.003 370.027L191.169 371.605L183.196 372.684L183.03 371.106Z" fill="black"/>
<path d="M198.893 368.948L206.865 367.868L207.031 369.446L199.142 370.525L198.893 368.948Z" fill="black"/>
<path d="M214.838 366.872L222.727 365.792L222.977 367.204L215.004 368.366L214.838 366.872Z" fill="black"/>
<path d="M230.7 364.796L238.673 363.716L238.839 365.045L230.866 366.125L230.7 364.796Z" fill="black"/>
<path d="M246.645 362.72L254.534 361.64L254.7 362.886L246.811 363.966L246.645 362.72Z" fill="black"/>
<path d="M262.507 360.644L270.479 359.647L270.645 360.81L262.673 361.89L262.507 360.644Z" fill="black"/>
<path d="M278.452 358.651L286.425 357.655L286.508 358.734L278.535 359.814L278.452 358.651Z" fill="black"/>
<path d="M294.314 356.741L302.287 355.828L302.453 356.741L294.481 357.738L294.314 356.741Z" fill="black"/>
<path d="M310.259 354.831L318.231 354.001L318.314 354.831L310.425 355.828L310.259 354.831Z" fill="black"/>
<path d="M326.204 353.088L334.177 352.258L334.26 353.088L326.287 353.919L326.204 353.088Z" fill="black"/>
<path d="M342.149 351.51L350.205 350.763V351.427L342.232 352.258L342.149 351.51Z" fill="black"/>
<path d="M358.178 350.015L366.15 349.351L366.233 350.098L358.178 350.763V350.015Z" fill="black"/>
<path d="M374.123 348.853L382.179 348.438V349.102L374.206 349.517L374.123 348.853Z" fill="black"/>
<path d="M390.234 348.106H398.207V348.687L390.234 348.77V348.106Z" fill="black"/>
<path d="M406.262 348.438C408.919 348.687 411.577 349.019 414.234 349.767L414.068 350.348C411.577 349.6 408.836 349.268 406.262 349.102V348.438Z" fill="black"/>
<path d="M417.723 355.745C417.307 356.326 416.892 356.824 416.477 357.322C416.062 357.821 415.646 358.319 415.148 358.817C414.235 359.813 413.321 360.726 412.324 361.723L411.909 361.307C412.906 360.394 413.819 359.481 414.733 358.485C415.148 357.987 415.646 357.488 416.062 356.99C416.477 356.492 416.892 355.911 417.307 355.413L417.723 355.745Z" fill="black"/>
<path d="M406.096 366.871C403.937 368.449 401.695 369.943 399.452 371.355L399.12 370.857C401.362 369.445 403.605 367.951 405.764 366.373L406.096 366.871Z" fill="black"/>
<path d="M392.476 375.424L385.334 379.077L385.085 378.496L392.144 374.843L392.476 375.424Z" fill="black"/>
<path d="M378.026 382.482L370.718 385.637L370.469 385.056L377.777 381.901L378.026 382.482Z" fill="black"/>
<path d="M363.244 388.627L355.77 391.533L355.521 390.868L362.995 388.046L363.244 388.627Z" fill="black"/>
<path d="M348.213 394.273L340.655 396.848L340.406 396.1L347.964 393.526L348.213 394.273Z" fill="black"/>
<path d="M333.015 399.421L325.374 401.83L325.125 400.999L332.765 398.591L333.015 399.421Z" fill="black"/>
<path d="M317.733 404.237L310.093 406.563L309.761 405.649L317.484 403.407L317.733 404.237Z" fill="black"/>
<path d="M302.37 408.804L294.647 411.046L294.397 410.05L302.121 407.891L302.37 408.804Z" fill="black"/>
<path d="M286.924 413.205L279.2 415.364L278.951 414.368L286.675 412.208L286.924 413.205Z" fill="black"/>
<path d="M271.476 417.523L263.753 419.599L263.421 418.436L271.227 416.443L271.476 417.523Z" fill="black"/>
<path d="M256.029 421.675L248.223 423.668L247.974 422.505L255.697 420.512L256.029 421.675Z" fill="black"/>
<path d="M240.5 425.744L232.777 427.737L232.444 426.491L240.168 424.498L240.5 425.744Z" fill="black"/>
<path d="M224.97 429.812L217.246 431.805L216.914 430.477L224.637 428.483L224.97 429.812Z" fill="black"/>
<path d="M209.439 433.798L201.716 435.79L201.301 434.379L209.107 432.386L209.439 433.798Z" fill="black"/>
<path d="M193.91 437.783L186.187 439.776L185.771 438.364L193.578 436.372L193.91 437.783Z" fill="black"/>
<path d="M178.463 441.852L170.656 443.844L170.241 442.35L178.048 440.274L178.463 441.852Z" fill="black"/>
<path d="M162.933 445.921L155.209 447.996L154.711 446.336L162.517 444.343L162.933 445.921Z" fill="black"/>
<path d="M147.403 450.073L139.68 452.148L139.265 450.488L146.988 448.412L147.403 450.073Z" fill="black"/>
<path d="M131.956 454.307L124.233 456.466L123.734 454.722L131.541 452.647L131.956 454.307Z" fill="black"/>
<path d="M116.51 458.625L108.869 460.867L108.371 459.206L116.011 456.965L116.51 458.625Z" fill="black"/>
<path d="M101.146 463.192L93.5052 465.517L92.9238 463.773L100.647 461.448L101.146 463.192Z" fill="black"/>
<path d="M85.8653 467.925L78.2249 470.416L77.6436 468.672L85.2839 466.181L85.8653 467.925Z" fill="black"/>
<path d="M70.667 472.99L63.1097 475.564L62.4453 473.82L70.0026 471.164L70.667 472.99Z" fill="black"/>
<path d="M55.5517 478.305C53.0603 479.301 50.6519 480.297 48.3266 481.542L47.4131 479.799C49.8215 478.554 52.3129 477.474 54.8043 476.561L55.5517 478.305Z" fill="black"/>
<path d="M42.0982 485.777C41.9321 486.026 41.8491 486.192 41.766 486.358C41.683 486.524 41.766 486.608 41.766 486.691C41.8491 486.857 42.2643 487.272 42.8457 487.521C43.9253 488.102 45.171 488.434 46.4167 488.766L45.9184 490.676C44.5897 490.344 43.2609 489.928 41.9321 489.264C41.2678 488.849 40.5203 488.517 40.022 487.521C39.7729 486.94 39.7729 486.358 39.939 485.86C40.1051 485.362 40.3542 485.03 40.5203 484.698L42.0982 485.777Z" fill="black"/>
<path d="M54.2238 490.262L62.1133 491.258L61.8642 493.251L53.8916 492.255L54.2238 490.262Z" fill="black"/>
<path d="M70.086 492.088L78.0586 492.67L77.8925 494.746L69.9199 494.082L70.086 492.088Z" fill="black"/>
<path d="M86.0313 493.251L94.0039 493.749L93.9208 495.742L85.8652 495.244L86.0313 493.251Z" fill="black"/>
<path d="M101.976 494.165L110.031 494.497L109.948 496.49L101.893 496.158L101.976 494.165Z" fill="black"/>
<path d="M118.004 494.829L126.143 495.161L126.06 497.154L117.921 496.822L118.004 494.829Z" fill="black"/>
<path d="M134.167 495.428L134.099 497.42L142.149 497.696L142.218 495.704L134.167 495.428Z" fill="black"/>
<path d="M150.227 495.991L158.199 496.24L158.116 498.233L150.144 497.984L150.227 495.991Z" fill="black"/>
<path d="M166.255 496.489L174.227 496.738V498.649L166.172 498.399L166.255 496.489Z" fill="black"/>
<path d="M182.283 496.905L190.256 497.154V499.064L182.2 498.898L182.283 496.905Z" fill="black"/>
<path d="M198.312 497.403L206.284 497.569V499.479L198.229 499.313L198.312 497.403Z" fill="black"/>
<path d="M214.339 497.818L222.311 497.984V499.894L214.256 499.645L214.339 497.818Z" fill="black"/>
<path d="M230.368 498.233L238.341 498.482V500.226L230.285 500.06L230.368 498.233Z" fill="black"/>
<path d="M246.396 498.648L254.368 498.897V500.641L246.312 500.475L246.396 498.648Z" fill="black"/>
<path d="M262.424 499.146L270.396 499.396V501.057L262.341 500.807L262.424 499.146Z" fill="black"/>
<path d="M278.452 499.645L286.425 499.977V501.472L278.369 501.305L278.452 499.645Z" fill="black"/>
<path d="M294.481 500.226L302.453 500.475V501.97L294.397 501.721L294.481 500.226Z" fill="black"/>
<path d="M310.508 500.807L318.48 501.139V502.551L310.425 502.219L310.508 500.807Z" fill="black"/>
<path d="M326.537 501.471L334.51 501.804L334.427 503.132L326.454 502.8L326.537 501.471Z" fill="black"/>
<path d="M342.564 502.219L350.537 502.634L350.454 503.88L342.481 503.548L342.564 502.219Z" fill="black"/>
<path d="M358.593 503.132L366.565 503.548L366.482 504.793L358.51 504.295L358.593 503.132Z" fill="black"/>
<path d="M374.538 504.128L382.594 504.71L382.511 505.789L374.455 505.291L374.538 504.128Z" fill="black"/>
<path d="M390.566 505.374L398.539 506.121L398.456 507.118L390.483 506.454L390.566 505.374Z" fill="black"/>
<path d="M406.512 506.952L414.484 507.948L414.401 508.862L406.429 507.948L406.512 506.952Z" fill="black"/>
<path d="M422.456 509.11L430.346 510.605L430.18 511.436L422.29 510.024L422.456 509.11Z" fill="black"/>
<path d="M438.152 512.764C439.398 513.179 440.644 513.76 441.89 514.425C442.471 514.757 443.052 515.172 443.634 515.587C444.215 516.002 444.713 516.417 445.211 516.915L444.713 517.413C444.215 516.998 443.717 516.583 443.218 516.168C442.72 515.753 442.139 515.421 441.557 515.089C440.395 514.425 439.149 514.009 437.903 513.511L438.152 512.764Z" fill="black"/>
<path d="M448.7 524.057C448.783 525.468 448.534 526.797 448.118 528.126C447.703 529.454 447.122 530.617 446.374 531.779L445.876 531.447C447.205 529.205 448.118 526.631 448.035 524.057H448.7Z" fill="black"/>
<path d="M441.475 538.173C439.648 540.082 437.654 541.909 435.578 543.652L435.329 543.32C437.322 541.577 439.315 539.75 441.142 537.841L441.475 538.173Z" fill="black"/>
<path d="M429.183 548.552L422.539 553.036L422.373 552.786L429.017 548.22L429.183 548.552Z" fill="black"/>
<path d="M415.896 557.271L412.408 559.264L412.325 559.181L415.73 557.105L415.896 557.271Z" fill="black"/>
<path d="M304.113 584.424C223.723 549.964 164.677 524.556 164.51 524.473C164.344 524.389 164.095 524.223 164.095 524.223C155.707 519.407 151.804 511.353 150.475 508.613C149.064 505.541 145.243 497.569 146.987 488.186C147.071 487.854 147.154 487.522 147.154 487.522C147.32 486.858 257.025 271.631 209.024 212.261C206.2 208.856 200.802 203.293 190.421 199.058C189.342 198.975 187.598 198.726 186.103 197.563C183.528 195.57 183.113 192.415 182.781 189.509C182.532 187.516 182.034 181.953 185.023 175.642C185.023 175.642 187.266 171.075 194.574 165.18C195.57 164.432 196.899 163.436 198.643 163.519C199.307 163.519 199.889 163.768 200.221 163.851C211.931 151.894 227.045 132.962 235.101 106.308C236.928 100.412 238.174 94.6829 239.087 89.3686C240.914 88.6213 242.907 87.957 245.067 87.3758C254.866 84.8017 263.669 85.9642 269.483 87.3758C348.046 120.922 405.597 146.829 421.044 154.8C424.366 156.544 430.844 160.031 435.412 167.256C440.893 175.891 440.893 185.357 440.394 191.004C434.747 215.167 429.1 239.247 423.453 263.41C425.031 263.576 427.439 264.158 429.432 265.984C433.335 269.555 432.671 275.45 432.256 278.855C431.924 282.093 430.18 291.144 422.29 295.96C419.716 297.538 417.224 298.202 415.563 298.534C394.801 386.8 374.122 474.984 353.361 563.25C353.111 565.658 352.281 569.395 349.623 572.799C348.378 574.46 346.302 576.536 337.083 580.023C326.951 583.926 319.062 586.832 308.93 585.42C306.937 585.171 305.193 584.756 304.113 584.424Z" fill="#5869DD"/>
<path d="M298.965 582.68C185.937 533.772 150.725 518.079 145.659 515.255C145.41 515.089 145.244 515.006 145.244 515.006C137.022 510.356 133.119 502.551 131.79 499.811C130.378 496.822 126.558 489.016 128.302 479.966C128.385 479.633 128.385 479.384 128.468 479.301C176.137 259.756 188.677 210.018 213.675 110.459C214.588 106.806 216.831 98.5022 223.973 93.5201C233.357 87.0434 243.406 89.7836 244.735 90.1987C295.311 112.452 345.886 134.706 396.545 156.876C398.788 157.623 407.84 160.862 413.404 170.577C418.636 179.711 417.39 188.595 416.975 191.003L330.44 563.416C330.107 564.993 327.782 574.709 318.232 580.189C309.429 585.254 300.709 583.178 298.965 582.68Z" fill="url(#paint0_linear_4481_7478)"/>
<path d="M298.965 582.68C185.937 533.772 150.725 518.079 145.659 515.256C145.41 515.09 145.244 515.007 145.244 515.007C137.022 510.357 133.119 502.551 131.79 499.811C130.378 496.822 126.558 489.017 128.302 479.966C128.385 479.634 128.385 479.384 128.468 479.301C176.137 259.757 188.677 210.019 213.675 110.46C214.588 106.806 216.831 98.5025 223.973 93.5204C233.357 87.0436 243.406 89.7838 244.735 90.199C295.311 112.452 345.886 134.706 396.545 156.876C398.788 157.623 407.84 160.862 413.404 170.577C418.636 179.711 417.39 188.596 416.975 191.004L330.44 563.416C330.107 564.994 327.782 574.709 318.232 580.189C309.429 585.254 300.709 583.178 298.965 582.68Z" stroke="black" stroke-width="2.3783" stroke-miterlimit="10"/>
<path d="M415.73 298.534C389.321 411.794 354.524 560.925 352.364 567.817C351.534 570.557 349.873 572.799 349.873 572.799C346.883 576.785 342.731 578.279 337.333 580.023C323.298 584.424 316.322 586.583 308.432 585.337C304.28 584.673 301.041 583.51 298.965 582.68" stroke="black" stroke-width="2.377" stroke-miterlimit="10"/>
<path d="M227.793 91.5274C231.945 89.2855 236.845 88.5382 246.645 87.0435C253.787 85.9641 257.524 85.3828 261.925 85.881C267.573 86.4623 272.057 88.206 275.047 89.5346C345.72 121.503 397.625 145.085 416.892 152.973C420.38 154.385 429.682 158.122 435.578 167.338C441.225 176.223 441.142 186.354 440.395 192.913C436.574 209.271 430.844 234.099 424.034 263.244" stroke="black" stroke-width="2.377" stroke-miterlimit="10"/>
<path d="M346.717 338.806C299.214 317.549 251.711 296.375 204.291 275.118C203.792 274.952 201.965 274.122 200.886 272.046C199.972 270.219 200.138 268.558 200.221 267.977L229.039 143.923C229.122 143.507 229.62 141.681 231.447 140.601C232.859 139.688 234.354 139.771 234.769 139.854C246.146 144.836 374.621 201.217 378.192 204.206C379.936 205.618 380.767 207.361 380.767 207.361C380.767 207.361 381.514 209.022 381.597 210.932C381.763 215.582 355.105 326.351 353.112 334.82C352.53 337.726 349.624 339.47 346.717 338.806Z" stroke="black" stroke-width="2.377" stroke-miterlimit="10"/>
<path d="M347.796 334.986C301.456 314.311 255.032 293.635 208.692 272.959C208.194 272.793 206.45 271.963 205.37 269.97C204.456 268.226 204.623 266.565 204.706 266.067L232.693 145.583C232.776 145.168 233.274 143.424 235.018 142.345C236.43 141.515 237.842 141.515 238.257 141.598C249.302 146.414 374.87 201.383 378.358 204.289C380.019 205.618 380.849 207.361 380.849 207.361C380.849 207.361 381.597 208.939 381.68 210.849C381.846 215.333 356.018 322.946 354.025 331.167C353.444 333.907 350.62 335.651 347.796 334.986Z" fill="#EDEAE2" stroke="black" stroke-width="2.377" stroke-miterlimit="10"/>
<path d="M201.384 413.454C199.64 420.845 197.896 428.235 196.152 435.625C195.903 436.538 194.989 437.119 194.159 436.87L180.788 431.307C180.373 430.892 179.791 430.228 179.542 429.314C179.293 428.401 179.542 427.57 179.625 427.238C181.951 418.353 185.106 406.479 185.106 406.479C183.113 405.483 181.037 404.57 179.044 403.573" stroke="black" stroke-width="2.377" stroke-miterlimit="10"/>
<path d="M189.176 387.465C191.003 379.825 192.747 372.103 194.574 364.464C194.823 363.55 195.737 362.969 196.567 363.218L209.938 368.782C210.021 368.782 210.021 368.865 210.104 368.865C210.851 369.28 211.183 370.442 211.1 371.356C211.1 371.439 211.1 371.439 211.1 371.522C211.017 372.103 210.021 376.338 205.951 393.692" stroke="black" stroke-width="2.377" stroke-miterlimit="10"/>
<path d="M206.035 415.364C202.962 428.318 200.637 437.784 199.972 439.278C199.889 439.528 199.557 440.275 198.81 440.607C197.896 441.105 196.983 440.69 196.9 440.69C192 438.697 187.1 436.621 182.283 434.628C182.117 434.545 181.619 434.296 181.37 433.881C180.955 433.134 181.204 432.137 181.37 431.556" stroke="black" stroke-width="2.377" stroke-miterlimit="10"/>
<path d="M196.567 362.886C196.733 361.973 196.983 361.142 197.149 360.229C197.232 360.063 197.398 359.648 197.896 359.315C198.477 358.9 199.142 358.983 199.225 358.983C204.457 361.225 209.606 363.55 214.838 365.792C215.087 365.958 215.668 366.29 216 367.121C216.25 367.702 216.25 368.283 216.25 368.532C214.423 376.338 212.596 384.143 210.852 391.865C213.426 392.862 225.8 397.844 227.129 398.591C227.378 398.757 227.627 398.84 227.627 398.84C228.125 399.172 228.873 399.671 229.371 400.501C229.537 400.75 230.119 401.663 230.036 402.743C230.036 403.158 229.952 403.407 229.952 403.49C228.624 409.22 227.461 414.949 226.049 420.595C226.049 420.761 225.966 421.177 225.634 421.509C224.97 422.339 223.724 422.339 223.309 422.339C222.81 422.339 222.395 422.256 221.648 422.09C220.817 421.841 219.738 421.509 218.492 420.928" stroke="black" stroke-width="2.377" stroke-miterlimit="10"/>
<path d="M195.404 363.302C197.73 362.222 199.972 361.226 202.297 360.146" stroke="black" stroke-width="2.377" stroke-miterlimit="10"/>
<path d="M210.935 369.779C212.679 368.865 214.423 367.869 216.167 366.955" stroke="black" stroke-width="2.377" stroke-miterlimit="10"/>
<path d="M190.754 305.094C192.581 304.43 194.408 303.765 196.235 303.101" stroke="black" stroke-width="2.377" stroke-miterlimit="10"/>
<path d="M224.637 403.242C226.381 402.577 228.125 401.996 229.869 401.332" stroke="black" stroke-width="2.377" stroke-miterlimit="10"/>
<path d="M206.117 393.526C207.778 392.945 209.522 392.364 211.183 391.782" stroke="black" stroke-width="2.377" stroke-miterlimit="10"/>
<path d="M170.157 378.497C172.316 377.584 174.393 376.67 176.552 375.757" stroke="black" stroke-width="2.377" stroke-miterlimit="10"/>
<path d="M195.321 436.787C196.484 437.784 197.647 438.864 198.809 439.86" stroke="black" stroke-width="2.377" stroke-miterlimit="10"/>
<path d="M185.023 406.479C175.058 401.829 167.916 398.342 166.919 397.844C166.753 397.761 166.255 397.512 166.005 397.013C165.673 396.432 165.839 395.851 165.839 395.685C167.085 390.454 168.248 385.222 169.493 379.991C169.493 379.908 169.66 379.327 170.241 378.995C170.822 378.663 171.404 378.829 171.57 378.829C177.466 381.569 183.362 384.392 189.259 387.132C189.508 385.97 189.757 384.807 190.089 383.645" stroke="black" stroke-width="2.377" stroke-miterlimit="10"/>
<path d="M207.031 389.208C206.699 390.703 206.367 392.197 205.952 393.692C215.502 398.259 222.395 401.663 223.392 402.078C223.558 402.161 224.056 402.411 224.305 402.909C224.637 403.49 224.471 404.071 224.471 404.237C223.226 409.469 222.063 414.7 220.817 419.931C220.817 420.014 220.651 420.595 220.07 420.927C219.488 421.26 218.907 421.094 218.741 421.094C212.928 418.519 207.114 416.028 201.384 413.454C201.135 414.451 200.969 415.364 200.72 416.36" stroke="black" stroke-width="2.377" stroke-miterlimit="10"/>
<path d="M187.432 264.988C185.522 264.573 184.276 262.58 184.691 260.67L213.343 137.529C213.758 135.619 215.751 134.373 217.661 134.789C219.571 135.204 220.817 137.197 220.402 139.106L191.75 262.248C191.335 264.24 189.342 265.486 187.432 264.988Z" stroke="black" stroke-width="2.377" stroke-miterlimit="10"/>
<path d="M213.093 320.621L212.761 321.452C211.266 324.939 207.197 326.517 203.709 325.022L189.508 318.878C186.02 317.383 184.442 313.314 185.936 309.827L186.269 308.996C187.764 305.509 191.833 303.931 195.321 305.426L209.522 311.57C213.01 313.065 214.588 317.134 213.093 320.621Z" stroke="black" stroke-width="2.377" stroke-miterlimit="10"/>
<path d="M188.262 306.339C188.594 305.758 189.59 304.014 191.667 303.184C192.829 302.686 193.909 302.686 194.158 302.686C194.989 302.686 195.819 302.852 196.65 303.267C201.798 305.426 206.864 307.585 212.013 309.827C212.844 310.242 215.003 311.404 216.249 313.896C216.996 315.473 217.079 316.802 217.162 317.134C217.162 317.715 217.162 318.712 216.83 320.04C216.415 321.369 215.086 326.185 211.681 326.932C210.02 327.347 208.11 326.6 206.698 326.102C205.951 325.853 205.286 325.52 204.871 325.271" stroke="black" stroke-width="2.377" stroke-miterlimit="10"/>
<path d="M276.957 343.456C278.784 342.792 280.611 342.128 282.438 341.463" stroke="black" stroke-width="2.377" stroke-miterlimit="10"/>
<path d="M299.297 358.9L298.965 359.73C297.47 363.218 293.401 364.796 289.913 363.301L275.712 357.156C272.224 355.662 270.646 351.593 272.141 348.106L272.473 347.275C273.968 343.788 278.037 342.21 281.525 343.705L295.726 349.849C299.214 351.344 300.792 355.496 299.297 358.9Z" stroke="black" stroke-width="2.377" stroke-miterlimit="10"/>
<path d="M274.466 344.701C274.798 344.12 275.795 342.376 277.871 341.546C279.033 341.048 280.113 341.048 280.362 341.048C281.193 341.048 282.023 341.214 282.854 341.629C288.003 343.788 293.068 345.947 298.217 348.189C299.048 348.604 301.207 349.766 302.453 352.257C303.2 353.835 303.283 355.164 303.366 355.496C303.366 356.077 303.366 357.073 303.034 358.402C302.619 359.73 301.29 364.547 297.885 365.294C296.224 365.709 294.314 364.962 292.902 364.463C292.155 364.214 291.491 363.882 291.075 363.633" stroke="black" stroke-width="2.377" stroke-miterlimit="10"/>
<path d="M321.387 362.803C323.214 362.139 325.041 361.475 326.868 360.81" stroke="black" stroke-width="2.377" stroke-miterlimit="10"/>
<path d="M343.644 378.331L343.312 379.161C341.817 382.648 337.747 384.226 334.259 382.731L320.058 376.587C316.57 375.092 314.992 371.023 316.487 367.536L316.819 366.706C318.314 363.218 322.384 361.64 325.872 363.135L340.073 369.28C343.561 370.774 345.139 374.843 343.644 378.331Z" stroke="black" stroke-width="2.377" stroke-miterlimit="10"/>
<path d="M318.812 364.049C319.145 363.467 320.141 361.724 322.217 360.893C323.38 360.395 324.46 360.395 324.709 360.395C325.539 360.395 326.37 360.561 327.2 360.976C332.349 363.135 337.415 365.294 342.564 367.536C343.395 367.951 345.554 369.114 346.8 371.605C347.547 373.182 347.63 374.511 347.713 374.843C347.713 375.424 347.713 376.421 347.381 377.749C346.966 379.078 345.637 383.894 342.232 384.641C340.571 385.056 338.661 384.309 337.249 383.811C336.502 383.562 335.837 383.23 335.422 382.981" stroke="black" stroke-width="2.377" stroke-miterlimit="10"/>
<path d="M363.492 343.871C361.582 343.456 360.337 341.463 360.752 339.553L389.403 216.412C389.818 214.503 391.812 213.257 393.722 213.672C395.632 214.087 396.877 216.08 396.462 217.99L367.811 341.131C367.396 343.124 365.402 344.369 363.492 343.871Z" stroke="black" stroke-width="2.377" stroke-miterlimit="10"/>
<path d="M391.811 214.087C392.31 213.921 393.057 213.589 394.054 213.589C394.386 213.589 394.801 213.506 395.382 213.672C396.379 213.838 397.708 214.503 398.455 215.748C399.535 217.409 399.12 219.069 399.036 219.402C377.029 315.141 371.216 339.636 370.717 341.131C370.634 341.297 370.551 341.463 370.551 341.463C370.136 342.46 369.305 343.373 368.309 343.954C367.894 344.203 366.565 344.951 364.904 344.785C364.323 344.702 363.824 344.535 363.575 344.452C364.323 344.452 365.236 344.286 365.984 343.788C367.312 342.875 367.561 341.131 367.645 340.799C368.309 337.062 394.552 235.759 396.047 218.571C396.13 217.907 396.213 216.495 395.299 215.499C394.469 214.253 393.057 214.087 391.811 214.087Z" fill="black"/>
<path d="M216.415 134.373C216.913 134.207 217.744 133.875 218.657 133.875C218.989 133.875 219.405 133.792 219.986 133.958C220.982 134.124 222.311 134.789 223.059 136.034C224.138 137.695 223.723 139.356 223.64 139.688C201.632 235.427 195.819 259.923 195.321 261.417C195.238 261.583 195.155 261.749 195.155 261.749C194.739 262.746 193.909 263.659 192.912 264.24C192.497 264.489 191.168 265.237 189.507 265.071C188.926 264.988 188.428 264.822 188.179 264.739C188.926 264.739 189.84 264.572 190.587 264.074C191.916 263.161 192.165 261.417 192.248 261.085C192.746 258.345 204.456 208.109 220.65 138.857C220.733 138.691 220.982 137.031 219.903 135.785C219.155 134.623 217.827 134.124 216.415 134.373Z" fill="black"/>
<path d="M303.448 451.484C303.781 457.38 308.431 464.604 313.912 463.857C318.314 463.275 321.387 457.712 321.968 453.311C322.882 446.834 319.061 440.026 314.245 439.029C313.082 438.78 310.84 438.614 308.597 439.943C306.853 441.022 305.857 442.517 305.276 443.43C305.276 443.679 303.199 447.167 303.448 451.484Z" stroke="black" stroke-width="2.377" stroke-miterlimit="10"/>
<path d="M319.892 438.365C317.567 438.448 315.324 438.614 312.999 438.697" stroke="black" stroke-width="2.377" stroke-miterlimit="10"/>
<path d="M320.308 463.691C318.149 463.691 316.072 463.774 313.913 463.774" stroke="black" stroke-width="2.377" stroke-miterlimit="10"/>
<path d="M308.266 440.109C310.176 438.199 312.501 436.871 314.992 436.871C321.802 436.788 327.533 445.838 326.536 453.561C325.789 458.792 321.802 464.77 316.653 465.186C314.743 465.352 312.833 464.687 311.006 463.525" stroke="black" stroke-width="2.377" stroke-miterlimit="10"/>
<path d="M287.421 412.707C287.753 418.603 292.404 425.827 297.885 425.079C302.287 424.498 305.359 418.935 305.941 414.534C306.854 408.057 303.034 401.248 298.217 400.252C297.055 400.003 294.812 399.837 292.57 401.165C290.826 402.245 289.83 403.739 289.248 404.653C289.248 404.902 287.172 408.389 287.421 412.707Z" stroke="black" stroke-width="2.377" stroke-miterlimit="10"/>
<path d="M303.865 399.671C301.539 399.754 299.297 399.92 296.972 400.003" stroke="black" stroke-width="2.377" stroke-miterlimit="10"/>
<path d="M304.279 424.997C302.12 424.997 300.044 425.08 297.885 425.08" stroke="black" stroke-width="2.377" stroke-miterlimit="10"/>
<path d="M292.238 401.331C294.148 399.421 296.474 398.093 298.965 398.093C305.775 398.01 311.505 407.061 310.509 414.783C309.761 420.014 305.775 425.993 300.626 426.408C298.716 426.574 296.806 425.91 294.979 424.747" stroke="black" stroke-width="2.377" stroke-miterlimit="10"/>
<path d="M223.723 328.426C224.056 332.163 227.211 336.73 230.865 336.315C233.772 335.983 235.765 332.495 236.181 329.755C236.762 325.686 234.104 321.368 230.865 320.621C230.118 320.455 228.54 320.372 227.128 321.119C225.966 321.784 225.301 322.697 224.969 323.278C224.803 323.527 223.474 325.769 223.723 328.426Z" stroke="black" stroke-width="2.377" stroke-miterlimit="10"/>
<path d="M234.603 320.372C233.108 320.455 231.53 320.455 230.035 320.538" stroke="black" stroke-width="2.377" stroke-miterlimit="10"/>
<path d="M235.101 336.398C233.689 336.398 232.277 336.398 230.865 336.398" stroke="black" stroke-width="2.377" stroke-miterlimit="10"/>
<path d="M226.796 321.369C228.042 320.206 229.62 319.376 231.28 319.376C235.848 319.376 239.751 325.188 239.17 330.004C238.755 333.326 236.097 336.979 232.609 337.228C231.28 337.311 230.035 336.896 228.872 336.149" stroke="black" stroke-width="2.377" stroke-miterlimit="10"/>
<path d="M257.773 430.892C258.105 436.787 262.756 444.011 268.237 443.264C272.638 442.683 275.711 437.119 276.292 432.719C277.206 426.242 273.386 419.433 268.569 418.437C267.406 418.187 265.164 418.021 262.922 419.35C261.178 420.429 260.181 421.924 259.6 422.837C259.6 423.087 257.524 426.574 257.773 430.892Z" stroke="black" stroke-width="2.377" stroke-miterlimit="10"/>
<path d="M274.216 417.772C271.891 417.855 269.649 418.021 267.323 418.104" stroke="black" stroke-width="2.377" stroke-miterlimit="10"/>
<path d="M274.632 443.098C272.473 443.098 270.397 443.181 268.237 443.181" stroke="black" stroke-width="2.377" stroke-miterlimit="10"/>
<path d="M262.59 419.516C264.5 417.606 266.825 416.278 269.317 416.278C276.127 416.195 281.857 425.245 280.86 432.968C280.113 438.199 276.127 444.177 270.978 444.593C269.068 444.759 267.157 444.094 265.33 442.932" stroke="black" stroke-width="2.377" stroke-miterlimit="10"/>
<path d="M274.299 469.254C274.631 475.15 279.282 482.374 284.763 481.626C289.165 481.045 292.237 475.482 292.819 471.081C293.732 464.604 289.912 457.795 285.095 456.799C283.933 456.55 281.69 456.384 279.448 457.712C277.704 458.792 276.707 460.286 276.126 461.2C276.126 461.449 274.05 464.936 274.299 469.254Z" stroke="black" stroke-width="2.377" stroke-miterlimit="10"/>
<path d="M290.743 456.218C288.417 456.301 286.175 456.467 283.85 456.55" stroke="black" stroke-width="2.377" stroke-miterlimit="10"/>
<path d="M291.158 481.543C288.999 481.543 286.923 481.626 284.764 481.626" stroke="black" stroke-width="2.377" stroke-miterlimit="10"/>
<path d="M279.116 457.878C281.026 455.969 283.352 454.64 285.843 454.64C292.653 454.557 298.383 463.608 297.387 471.33C296.639 476.561 292.653 482.54 287.504 482.955C285.594 483.121 283.684 482.457 281.857 481.294" stroke="black" stroke-width="2.377" stroke-miterlimit="10"/>
<path d="M190.505 382.067C189.924 381.818 176.47 375.59 174.311 374.843C174.145 374.76 173.73 374.677 173.231 374.677C172.152 374.76 171.321 375.59 170.823 376.338C170.74 376.504 170.657 376.67 170.574 376.836C170.242 377.5 169.909 378.663 169.494 380.323" stroke="black" stroke-width="2.377" stroke-miterlimit="10"/>
<path d="M414.4 279.602C412.324 285.248 412.49 293.136 415.646 294.548C417.888 295.545 421.792 292.804 423.619 290.895C424.366 290.064 425.031 289.151 425.363 288.736C425.446 288.57 427.107 286.328 428.02 283.92C429.349 280.598 431.093 273.208 427.522 269.97C427.19 269.638 426.608 269.139 425.695 268.973C421.792 267.894 416.477 273.955 414.4 279.602Z" stroke="black" stroke-width="2.377" stroke-miterlimit="10"/>
<path d="M411.328 278.522C408.588 285.746 408.92 296.126 413.487 298.202C416.726 299.613 421.792 296.873 424.118 294.88C425.945 293.385 427.606 290.977 427.689 290.894C428.021 290.479 428.768 289.317 429.599 287.656C429.599 287.656 430.595 285.663 431.177 283.587C431.592 282.259 435.08 270.717 429.599 265.984C429.1 265.569 428.27 264.904 427.024 264.572C421.377 263.244 414.152 271.132 411.328 278.522Z" stroke="black" stroke-width="2.377" stroke-miterlimit="10"/>
<path d="M427.688 264.822C425.196 263.659 423.037 262.746 421.127 261.999C418.054 260.753 416.393 260.172 414.234 259.757C414.151 259.757 414.151 259.757 414.151 259.757C414.151 259.757 413.321 259.591 412.407 259.757C409.251 260.255 406.76 262.58 406.76 262.58C404.85 264.241 400.199 269.306 398.372 278.19C397.625 281.844 396.462 287.656 399.701 291.642C400.116 292.14 400.448 292.472 400.781 292.722C401.611 293.386 402.275 293.718 402.691 293.884C403.936 294.465 408.006 296.126 413.57 298.202" stroke="black" stroke-width="2.377" stroke-miterlimit="10"/>
<path d="M191.584 199.473C189.591 198.891 188.096 198.393 187.681 198.31C187.598 198.31 187.266 198.227 186.934 197.978C186.934 197.978 186.851 197.895 186.768 197.812C181.951 193.494 182.532 184.36 184.276 178.714C187.764 167.089 197.813 163.602 197.979 163.602C198.311 163.602 198.644 163.602 198.644 163.602C199.142 163.685 199.723 163.851 200.221 163.934" stroke="black" stroke-width="2.377" stroke-miterlimit="10"/>
<path d="M208.609 381.237C208.276 382.15 207.944 383.064 207.944 384.06C207.944 384.475 207.944 384.807 207.944 385.222C207.944 386.219 207.529 387.132 207.28 388.129C206.698 389.955 206.532 391.865 206.366 393.858C206.864 394.107 207.446 393.775 207.944 393.526C208.609 393.111 209.19 392.779 209.854 392.364C210.186 392.114 210.602 391.865 210.851 391.533C211.183 391.201 211.349 390.786 211.515 390.371C213.508 385.389 214.505 380.074 215.418 374.76C215.751 372.85 216.083 371.023 216.415 369.114C216.498 368.532 216.498 367.785 216 367.619C215.169 367.287 213.176 368.698 212.512 369.28C211.681 370.027 211.266 371.107 210.851 372.103C209.771 374.926 209.439 378.164 208.609 381.237Z" fill="black"/>
<path d="M222.727 412.541C222.727 412.541 222.062 413.704 222.062 414.7C222.062 415.032 222.062 415.281 222.062 415.614C222.062 416.361 221.398 417.855 221.398 417.855C220.485 419.765 220.734 422.173 221.232 422.339C221.398 422.422 221.564 422.09 221.979 422.09C222.312 422.09 222.478 422.256 222.81 422.422C223.391 422.588 223.89 422.505 224.305 422.422C224.305 422.422 225.052 422.256 225.8 421.675C227.793 420.014 226.879 412.043 229.537 407.393C229.703 407.144 230.782 405.234 230.533 402.992C230.45 402.162 230.284 401.913 230.118 401.747C229.122 400.916 226.298 402.079 224.886 404.072C224.471 404.57 224.388 405.068 224.056 405.981C222.81 409.386 223.557 410.964 222.727 412.541Z" fill="black"/>
<path d="M198.643 426.408C198.311 427.321 197.979 428.235 197.979 429.231C197.979 429.646 197.979 429.978 197.979 430.393C197.979 431.473 197.314 433.3 197.314 433.3C196.982 434.213 196.484 435.542 195.985 437.451C196.401 438.033 198.394 440.773 199.39 440.358C199.722 440.192 199.889 439.693 200.221 438.78C200.553 437.784 200.47 437.451 200.802 436.621C201.051 435.957 201.3 435.625 201.466 435.459C202.961 433.134 203.377 426.242 205.37 419.848C205.785 418.436 206.366 416.942 205.619 415.945C204.788 414.866 202.463 414.368 202.463 414.368C202.463 414.368 201.134 416.36 200.802 417.191C199.806 420.097 199.39 423.335 198.643 426.408Z" fill="black"/>
<path d="M414.733 293.884C415.397 294.216 416.477 294.631 417.722 294.631C421.376 294.631 423.951 291.144 425.529 288.902C425.529 288.902 430.263 282.425 429.266 274.62C429.1 273.125 428.435 272.046 428.435 272.046C427.937 271.215 427.356 270.551 427.024 270.219C426.858 270.219 426.691 270.219 426.442 270.136C426.608 271.049 428.519 281.263 421.626 287.739C419.051 290.147 416.227 291.227 414.317 291.725C414.483 292.389 414.65 293.137 414.733 293.884Z" fill="black"/>
<path d="M276.708 429.314C275.877 429.812 276.292 431.224 275.96 433.632C275.96 433.632 276.126 434.711 275.213 436.704C273.801 439.777 270.23 441.603 269.233 444.759C272.472 444.427 274.881 443.347 276.043 442.268C276.791 441.603 277.289 440.856 277.289 440.856C277.704 440.192 278.036 439.527 278.452 438.78C278.95 437.867 279.614 437.036 280.113 436.123C281.524 433.383 282.106 429.563 280.943 428.899C280.528 428.65 280.279 429.065 278.784 429.231C277.372 429.397 277.123 429.065 276.708 429.314Z" fill="black"/>
<path d="M305.94 411.212C305.193 411.794 305.691 413.122 305.608 415.53C305.608 415.53 305.857 416.61 305.11 418.686C304.03 421.924 300.625 424 299.878 427.238C303.034 426.657 305.359 425.328 306.439 424.166C307.103 423.419 307.601 422.588 307.601 422.588C308.017 421.924 308.266 421.177 308.515 420.429C308.93 419.516 309.511 418.603 309.927 417.689C311.089 414.866 311.338 410.963 310.093 410.465C309.678 410.299 309.428 410.714 307.934 410.963C306.688 411.212 306.356 410.963 305.94 411.212Z" fill="black"/>
<path d="M322.052 450.322C321.305 450.82 321.72 452.149 321.471 454.557C321.471 454.557 321.637 455.636 320.806 457.629C319.561 460.701 315.99 462.528 315.076 465.684C318.232 465.268 320.723 464.189 321.803 463.109C322.467 462.445 323.049 461.698 323.049 461.698C323.464 461.034 323.713 460.369 324.128 459.705C324.627 458.792 325.208 458.044 325.706 457.131C327.035 454.391 327.45 450.654 326.288 450.073C325.872 449.824 325.623 450.322 324.128 450.405C322.717 450.405 322.467 450.073 322.052 450.322Z" fill="black"/>
<path d="M293.151 468.839C292.321 469.254 292.653 470.666 292.155 472.991C292.155 472.991 292.238 474.07 291.241 475.98C289.746 478.886 286.009 480.464 284.847 483.536C288.086 483.37 290.577 482.54 291.823 481.543C292.57 480.962 293.151 480.215 293.151 480.215C293.65 479.634 293.982 478.969 294.397 478.305C294.978 477.475 295.643 476.727 296.141 475.814C297.719 473.24 298.466 469.503 297.304 468.839C296.889 468.59 296.639 469.005 295.145 469.005C293.816 468.922 293.567 468.59 293.151 468.839Z" fill="black"/>
<path d="M209.108 327.264C209.357 327.43 209.772 327.513 210.104 327.596C211.018 327.762 212.014 327.928 212.845 327.596C213.26 327.43 213.592 327.098 213.924 326.766C214.755 326.019 215.502 325.271 216.001 324.358C216.25 323.86 216.416 323.278 216.499 322.697C217.08 320.372 217.495 317.881 216.582 315.722C216.416 315.307 216.084 314.975 215.751 314.975C215.502 314.975 215.336 315.141 215.17 315.224C214.672 315.473 214.09 315.556 213.509 315.473C213.758 316.469 213.924 317.466 213.924 318.462C213.841 320.87 212.346 322.946 210.685 324.69C210.021 325.188 207.862 326.434 209.108 327.264Z" fill="black"/>
<path d="M294.065 365.045C294.314 365.294 294.646 365.46 294.978 365.543C295.809 365.875 296.722 366.29 297.636 366.041C298.051 365.958 298.466 365.709 298.799 365.46C299.712 364.879 300.626 364.381 301.29 363.467C301.622 362.969 301.871 362.471 302.12 361.972C303.117 359.814 304.031 357.489 303.532 355.164C303.449 354.748 303.2 354.333 302.868 354.25C302.619 354.25 302.453 354.333 302.204 354.416C301.705 354.582 301.041 354.582 300.543 354.333C300.543 355.33 300.626 356.326 300.376 357.323C299.878 359.648 297.968 361.474 295.975 362.803C295.311 363.301 292.985 363.965 294.065 365.045Z" fill="black"/>
<path d="M338.246 384.558C338.495 384.807 338.827 384.89 339.159 385.056C339.99 385.388 340.986 385.721 341.817 385.471C342.232 385.388 342.647 385.139 342.979 384.89C343.893 384.309 344.806 383.728 345.388 382.814C345.72 382.316 345.969 381.818 346.135 381.32C347.049 379.161 347.879 376.753 347.298 374.428C347.215 374.013 346.966 373.597 346.55 373.514C346.301 373.514 346.135 373.597 345.886 373.68C345.388 373.847 344.723 373.847 344.225 373.68C344.308 374.677 344.391 375.673 344.142 376.67C343.727 378.995 341.9 380.905 339.99 382.316C339.491 382.731 337.166 383.562 338.246 384.558Z" fill="black"/>
<path d="M281.408 214.445C296.714 212.289 306.605 192.688 303.502 170.664C300.399 148.64 285.476 132.534 270.171 134.69C254.865 136.846 244.974 156.447 248.077 178.471C251.18 200.495 266.103 216.601 281.408 214.445Z" fill="#F2EA86" stroke="black" stroke-width="2.377" stroke-miterlimit="10"/>
<path d="M259.27 139.854C262.508 136.864 267.325 133.543 273.388 132.879C289.831 131.052 307.271 149.569 310.178 168.916C312.835 186.104 303.866 203.542 291.409 211.513C289.416 212.759 287.589 213.672 286.26 214.17C286.011 214.17 285.762 214.087 285.513 214.087C285.263 214.004 285.014 213.838 284.765 213.755C286.592 212.925 289.084 211.596 291.741 209.437C297.305 204.953 299.88 199.722 301.042 197.397C307.769 183.53 303.534 168.501 302.122 163.519C300.793 158.869 298.385 150.648 291.16 143.258C288.502 140.518 285.097 137.114 279.699 135.619C269.817 132.796 261.097 138.525 259.27 139.854Z" fill="black"/>
<path d="M272.058 150.233C268.737 158.702 265.498 167.172 262.176 175.725C267.242 178.465 272.391 181.122 277.457 183.862C281.443 180.209 285.429 176.555 289.415 172.985C283.685 165.345 277.872 157.789 272.058 150.233Z" fill="black"/>
<path d="M263.753 179.046C268.57 185.44 273.303 191.834 278.12 198.227C281.359 191.252 284.598 184.194 287.837 177.219C284.515 180.292 281.193 183.364 277.871 186.436C273.137 184.028 268.487 181.537 263.753 179.046Z" fill="black"/>
<path d="M335.514 280.208C350.929 265.209 354.972 244.364 344.544 233.651C334.116 222.938 313.167 226.413 297.752 241.412C282.337 256.412 278.294 277.256 288.722 287.969C299.15 298.683 320.099 295.208 335.514 280.208Z" fill="#F2EA86" stroke="black" stroke-width="2.377" stroke-miterlimit="10"/>
<path d="M334.261 228.12C336.669 228.535 342.732 229.947 347.798 235.178C352.697 240.243 353.86 246.055 354.275 248.63C357.597 266.98 340.572 282.84 339.659 283.67C328.364 293.884 310.841 299.53 296.723 294.05C294.564 293.219 292.82 292.223 291.741 291.559C291.574 291.31 291.491 291.144 291.325 290.894C291.242 290.645 291.242 290.396 291.159 290.147C292.903 291.06 295.312 292.306 298.467 293.136C305.194 294.88 310.675 293.967 313.167 293.468C327.783 290.811 337.084 278.854 340.157 274.952C343.064 271.298 348.047 264.655 349.708 254.857C350.289 251.287 351.036 246.637 349.126 241.489C345.721 232.272 336.254 228.784 334.261 228.12Z" fill="black"/>
<path d="M326.371 267.229C328.364 266.897 330.358 265.984 331.935 264.406C335.673 260.67 335.922 254.774 332.766 250.788L336.42 247.135L333.181 243.814L329.527 247.384L327.285 245.142L330.939 241.572L327.7 238.25L324.046 241.821L318.482 236.174L314.329 240.243L318.233 244.146L301.457 260.753L297.554 256.85L293.401 260.919L298.966 266.565L295.311 270.136L298.55 273.457L302.204 269.887L304.447 272.129L300.793 275.699L304.031 279.02L307.686 275.45L309.097 276.862C313.084 280.847 319.561 280.93 323.548 276.945C326.288 274.287 327.202 270.634 326.371 267.229ZM327.783 254.027C329.527 255.771 329.527 258.594 327.783 260.338C326.039 262.081 323.215 262.081 321.471 260.338L315.907 254.774L322.219 248.547L327.783 254.027ZM313.25 272.793L305.526 264.988L311.838 258.76L317.402 264.323L319.561 266.482C321.305 268.226 321.305 271.049 319.561 272.793C317.817 274.537 314.994 274.537 313.25 272.793Z" fill="black"/>
<path d="M452.29 64.8945C468.193 51.6681 473.643 32.0002 464.462 20.9649C455.281 9.92966 434.947 11.7059 419.044 24.9323C403.141 38.1587 397.691 57.8267 406.872 68.862C416.053 79.8972 436.387 78.1209 452.29 64.8945Z" fill="#F2EA86" stroke="black" stroke-width="2.377" stroke-miterlimit="10"/>
<path d="M455.036 14.9373C457.195 15.3524 461.348 16.4319 465.085 19.7533C465.085 19.7533 468.988 23.6559 471.064 29.2193C472.808 33.7862 472.144 46.0754 464.503 58.0325C462.676 60.8557 451.88 77.7948 431.783 80.3689C425.886 81.1162 414.177 82.6109 406.619 74.3904C397.401 64.4262 402.384 49.1477 402.633 48.4004C402.218 52.303 402.052 59.6932 406.204 66.8342C407.118 68.4949 408.197 69.9065 409.194 71.152C410.772 72.2315 413.014 73.477 416.004 74.5565C422.315 76.7154 427.63 76.2172 430.039 75.968C444.24 74.4734 454.039 63.7619 457.278 60.2744C460.351 56.953 465.666 51.0575 467.908 41.7576C468.739 38.3532 469.818 34.0353 468.324 28.9702C465.666 19.8363 456.946 15.7676 455.036 14.9373Z" fill="black"/>
<path d="M457.527 39.2664V39.1834L457.444 39.1003C454.87 36.4432 452.295 33.8691 449.721 31.212C449.638 31.129 449.555 31.129 449.388 31.129C440.752 31.0459 432.198 31.0459 423.561 30.9629C423.395 30.9629 423.312 30.9629 423.312 31.212C423.312 33.7861 423.312 36.2771 423.229 38.8512C423.229 39.0173 423.312 39.1003 423.478 39.1003C434.772 39.1834 445.984 39.2664 457.278 39.3494C457.361 39.1834 457.444 39.2664 457.527 39.2664Z" fill="black"/>
<path d="M431.284 51.8048C431.284 51.7218 431.284 51.7218 431.284 51.6388V51.5557V51.4727C431.284 51.4727 431.284 51.4727 431.284 51.3897V51.3066V51.2236C431.367 51.1406 431.45 51.2236 431.533 51.2236C436.101 51.2236 440.585 51.3066 445.153 51.3066C445.236 51.3066 445.319 51.3066 445.402 51.3066C445.319 51.2236 445.319 51.2236 445.319 51.2236C442.745 48.5665 440.17 45.9924 437.596 43.3353C437.513 43.2522 437.43 43.2522 437.264 43.2522C435.353 43.2522 433.443 43.2522 431.533 43.2522C431.45 43.2522 431.45 43.2522 431.367 43.2522C431.284 43.2522 431.284 43.2522 431.201 43.2522C428.627 43.2522 426.052 43.2522 423.561 43.1692C423.395 43.1692 423.312 43.2522 423.312 43.4183C423.312 45.9924 423.312 48.4834 423.229 51.0575C423.229 51.1406 423.229 51.1406 423.229 51.2236C423.229 51.3066 423.229 51.3897 423.229 51.4727C423.229 51.5557 423.229 51.6388 423.229 51.7218V51.8048C423.229 53.6316 423.229 55.3753 423.229 57.2021C423.229 57.2852 423.312 57.3682 423.395 57.4512C425.969 60.0253 428.544 62.6824 431.118 65.3396C431.118 65.3396 431.201 65.4226 431.284 65.4226C431.284 65.3396 431.284 65.2565 431.284 65.2565C431.201 60.6066 431.284 56.2057 431.284 51.8048Z" fill="black"/>
<path d="M467.138 460.2L484.595 447.422L482.255 425.917L464.798 438.696L467.138 460.2Z" fill="black"/>
<path d="M444.976 429.972L447.316 451.477L467.112 460.203L464.772 438.698M444.976 429.972L464.772 438.698M444.976 429.972L462.432 417.194L482.229 425.92L464.772 438.698M467.138 460.2L484.595 447.422L482.255 425.917L464.798 438.696L467.138 460.2Z" stroke="black" stroke-width="2" stroke-miterlimit="10" stroke-linecap="round" stroke-linejoin="round"/>
<path d="M420.072 532.686L404.859 547.907L421.614 610.342L452.065 579.875L446.482 559.07L431.264 574.297L431.26 574.283L431.24 574.303L420.072 532.686Z" fill="black"/>
<path d="M420.098 532.66L399.272 527.088L384.035 542.334L404.841 547.9L420.066 532.666L420.072 532.686L420.098 532.66Z" fill="#F1EFED"/>
<path d="M368.771 557.586L389.595 563.157L384.009 542.34L368.771 557.586Z" fill="#F1EFED"/>
<path d="M446.502 559.05L425.677 553.478L431.26 574.283L446.478 559.056L446.482 559.07L446.502 559.05Z" fill="#F1EFED"/>
<path d="M404.859 547.907L402.454 547.263L384.009 542.34L389.595 563.157L389.596 563.158L368.77 557.587L374.357 578.404L395.182 583.975L400.794 604.789L421.601 610.355L421.614 610.342L404.859 547.907Z" fill="#F1EFED"/>
<path d="M384.033 542.335L383.326 541.628C383.074 541.88 382.975 542.249 383.068 542.594C383.16 542.939 383.43 543.209 383.775 543.301L384.033 542.335ZM420.098 532.66L420.805 533.367C421.058 533.114 421.156 532.746 421.064 532.401C420.971 532.055 420.701 531.786 420.356 531.694L420.098 532.66ZM399.272 527.088L399.531 526.122C399.185 526.03 398.817 526.129 398.565 526.381L399.272 527.088ZM404.859 547.905L405.824 547.646C405.732 547.301 405.462 547.031 405.117 546.939L404.859 547.905ZM421.619 610.36L421.361 611.326C421.706 611.418 422.074 611.32 422.327 611.067C422.579 610.814 422.678 610.446 422.585 610.101L421.619 610.36ZM400.794 604.789L399.828 605.049C399.921 605.393 400.19 605.662 400.534 605.754L400.794 604.789ZM384.291 541.367C383.758 541.225 383.21 541.541 383.067 542.075C382.924 542.608 383.241 543.157 383.775 543.299L384.291 541.367ZM368.77 557.585L369.028 556.619C368.682 556.527 368.314 556.626 368.062 556.879C367.81 557.131 367.711 557.499 367.804 557.844L368.77 557.585ZM374.357 578.404L373.391 578.663C373.483 579.008 373.753 579.277 374.098 579.37L374.357 578.404ZM395.182 583.975L396.148 583.715C396.055 583.37 395.785 583.101 395.44 583.009L395.182 583.975ZM368.77 557.587L368.062 556.88C367.81 557.133 367.712 557.501 367.804 557.846L368.77 557.587ZM384.009 542.34L384.267 541.374C383.922 541.282 383.554 541.381 383.301 541.633L384.009 542.34ZM389.596 563.158L389.337 564.124C389.682 564.217 390.05 564.118 390.303 563.865C390.555 563.612 390.654 563.244 390.561 562.899L389.596 563.158ZM421.588 610.368L421.329 611.334C421.674 611.427 422.043 611.328 422.295 611.075L421.588 610.368ZM452.065 579.875L452.772 580.582C453.025 580.329 453.123 579.961 453.031 579.616L452.065 579.875ZM446.478 559.056L447.444 558.797C447.351 558.452 447.082 558.183 446.736 558.09C446.391 557.998 446.023 558.097 445.771 558.35L446.478 559.056ZM431.24 574.303L430.274 574.562C430.367 574.907 430.636 575.177 430.982 575.269C431.327 575.361 431.695 575.263 431.947 575.01L431.24 574.303ZM420.066 532.666L421.032 532.407C420.94 532.062 420.67 531.793 420.325 531.7C419.98 531.608 419.611 531.707 419.359 531.959L420.066 532.666ZM446.502 559.05L447.21 559.757C447.462 559.504 447.561 559.136 447.468 558.791C447.375 558.446 447.106 558.176 446.761 558.084L446.502 559.05ZM425.677 553.478L425.936 552.512C425.591 552.42 425.222 552.519 424.97 552.771C424.717 553.024 424.619 553.392 424.712 553.737L425.677 553.478ZM431.264 574.297L430.298 574.556C430.391 574.901 430.661 575.17 431.006 575.263C431.351 575.355 431.719 575.256 431.972 575.004L431.264 574.297ZM420.356 531.694L399.531 526.122L399.014 528.054L419.839 533.626L420.356 531.694ZM367.804 557.844L373.391 578.663L375.322 578.145L369.735 557.326L367.804 557.844ZM374.098 579.37L394.924 584.941L395.44 583.009L374.615 577.438L374.098 579.37ZM383.043 542.599L388.63 563.417L390.561 562.899L384.975 542.081L383.043 542.599ZM389.854 562.192L369.028 556.621L368.512 558.553L389.337 564.124L389.854 562.192ZM446.761 558.084L425.936 552.512L425.419 554.444L446.244 560.016L446.761 558.084ZM394.216 584.235L399.828 605.049L401.759 604.528L396.148 583.715L394.216 584.235ZM419.364 531.979L404.152 547.2L405.566 548.613L420.779 533.393L419.364 531.979ZM403.893 548.166L420.649 610.601L422.58 610.083L405.825 547.647L403.893 548.166ZM422.322 611.049L452.772 580.582L451.358 579.168L420.907 609.635L422.322 611.049ZM453.031 579.616L447.448 558.811L445.516 559.33L451.099 580.134L453.031 579.616ZM445.774 558.364L430.557 573.59L431.972 575.004L447.189 559.777L445.774 558.364ZM432.23 574.038L432.226 574.024L430.295 574.542L430.298 574.556L432.23 574.038ZM430.553 573.576L430.533 573.596L431.947 575.01L431.968 574.99L430.553 573.576ZM432.206 574.044L421.037 532.427L419.106 532.945L430.274 574.562L432.206 574.044ZM424.712 553.737L430.295 574.542L432.226 574.024L426.643 553.219L424.712 553.737ZM447.189 559.777L447.21 559.757L445.795 558.343L445.774 558.364L447.189 559.777ZM447.448 558.811L447.444 558.797L445.512 559.316L445.516 559.33L447.448 558.811ZM445.771 558.35L430.553 573.576L431.968 574.99L447.185 559.763L445.771 558.35ZM403.893 548.164L420.649 610.601L422.58 610.083L405.824 547.646L403.893 548.164ZM420.649 610.601L420.653 610.619L422.585 610.101L422.58 610.083L420.649 610.601ZM421.037 532.427L421.032 532.407L419.1 532.925L419.106 532.945L421.037 532.427ZM420.779 533.393L420.805 533.367L419.39 531.953L419.364 531.979L420.779 533.393ZM398.565 526.381L383.327 541.627L384.742 543.041L399.979 527.795L398.565 526.381ZM383.776 543.3L404.582 548.866L405.099 546.934L384.293 541.368L383.776 543.3ZM405.548 548.607L420.774 533.373L419.359 531.959L404.133 547.193L405.548 548.607ZM383.775 543.299L383.776 543.3L384.293 541.368L384.291 541.367L383.775 543.299ZM404.582 548.866L404.6 548.871L405.117 546.939L405.099 546.934L404.582 548.866ZM383.328 541.627L383.326 541.628L384.74 543.042L384.742 543.041L383.328 541.627ZM368.513 558.552L389.337 564.123L389.854 562.191L369.03 556.62L368.513 558.552ZM390.561 562.898L384.975 542.081L383.043 542.599L388.629 563.416L390.561 562.898ZM383.301 541.633L368.064 556.879L369.478 558.293L384.716 543.047L383.301 541.633ZM369.478 558.293L369.479 558.292L368.063 556.879L368.062 556.88L369.478 558.293ZM369.029 556.62L369.028 556.619L368.512 558.551L368.513 558.552L369.029 556.62ZM389.854 562.191L369.028 556.619L368.511 558.551L389.337 564.123L389.854 562.191ZM400.534 605.754L421.329 611.334L421.847 609.403L401.053 603.823L400.534 605.754ZM405.117 546.941L402.712 546.297L402.196 548.229L404.601 548.873L405.117 546.941ZM402.712 546.297L384.267 541.374L383.751 543.306L402.196 548.229L402.712 546.297ZM388.629 563.416L388.63 563.417L390.561 562.899L390.561 562.898L388.629 563.416ZM367.804 557.846L373.391 578.663L375.322 578.145L369.736 557.328L367.804 557.846ZM400.535 605.755L421.343 611.321L421.86 609.389L401.052 603.823L400.535 605.755ZM422.309 611.062L422.322 611.049L420.907 609.635L420.894 609.649L422.309 611.062ZM421.877 609.394L421.86 609.389L421.343 611.321L421.361 611.326L421.877 609.394ZM422.295 611.075L422.309 611.062L420.894 609.648L420.881 609.661L422.295 611.075ZM402.196 548.229L404.583 548.866L405.099 546.934L402.712 546.297L402.196 548.229ZM383.775 543.301L402.196 548.229L402.712 546.297L384.292 541.369L383.775 543.301Z" fill="black"/>
<path d="M51.1445 230.934L70.9929 226.463L83.0965 187.619L63.2481 192.09L51.1445 230.934Z" fill="black"/>
<path d="M21.8528 147.222L63.2342 192.066L63.2304 192.079L83.0789 187.608L41.6889 142.754L21.8528 147.222Z" fill="#F1EFED"/>
<path d="M21.8403 147.225L15.7923 166.635L43.3788 196.554L37.327 215.976L51.1237 230.927L63.2273 192.083L49.6904 177.405L21.8403 147.225Z" fill="#F1EFED"/>
<path d="M15.7923 166.635L14.8376 166.337C14.7313 166.678 14.815 167.05 15.0571 167.312L15.7923 166.635ZM21.8441 147.213L22.5791 146.534C22.3368 146.272 21.9729 146.158 21.6243 146.237C21.2758 146.316 20.9956 146.574 20.8894 146.915L21.8441 147.213ZM63.2342 192.066L64.1891 192.363C64.2952 192.022 64.2113 191.651 63.9692 191.388L63.2342 192.066ZM56.2277 211.191C56.0634 211.718 56.3577 212.279 56.885 212.443C57.4123 212.607 57.9729 212.313 58.1372 211.786L56.2277 211.191ZM50.1656 176.454C49.791 176.048 49.1584 176.022 48.7525 176.397C48.3465 176.771 48.3211 177.404 48.6956 177.81L50.1656 176.454ZM37.327 215.976L36.3722 215.679C36.2659 216.02 36.3497 216.392 36.592 216.654L37.327 215.976ZM51.1237 230.927L50.3888 231.606C50.631 231.868 50.995 231.982 51.3435 231.903C51.692 231.824 51.9722 231.566 52.0785 231.225L51.1237 230.927ZM63.2273 192.083L64.1821 192.381C64.2883 192.04 64.2046 191.668 63.9625 191.405L63.2273 192.083ZM51.1445 230.934L50.1897 230.637C50.0835 230.978 50.1672 231.349 50.4095 231.612C50.6517 231.875 51.0157 231.988 51.3642 231.909L51.1445 230.934ZM70.9929 226.463L71.2126 227.439C71.5612 227.36 71.8414 227.102 71.9477 226.761L70.9929 226.463ZM83.0965 187.619L84.0513 187.916C84.1576 187.575 84.0738 187.203 83.8316 186.941C83.5893 186.678 83.2254 186.565 82.8768 186.643L83.0965 187.619ZM63.2481 192.09L63.0284 191.114C62.6798 191.193 62.3996 191.451 62.2933 191.792L63.2481 192.09ZM83.0789 187.608L83.2986 188.583C83.6471 188.505 83.9273 188.246 84.0336 187.905C84.1399 187.564 84.0561 187.192 83.8138 186.93L83.0789 187.608ZM41.6889 142.754L42.4238 142.076C42.1816 141.813 41.8177 141.7 41.4692 141.778L41.6889 142.754ZM21.8403 147.225L21.6206 146.249C21.2721 146.328 20.9918 146.586 20.8856 146.927L21.8403 147.225ZM63.2304 192.079L62.4954 192.757C62.7377 193.019 63.1016 193.133 63.4501 193.054L63.2304 192.079ZM43.3788 196.554L44.3335 196.851C44.4398 196.51 44.3561 196.139 44.114 195.876L43.3788 196.554ZM16.7471 166.932L22.7989 147.51L20.8894 146.915L14.8376 166.337L16.7471 166.932ZM62.2795 191.769L56.2277 211.191L58.1372 211.786L64.189 192.364L62.2795 191.769ZM36.592 216.654L50.3888 231.606L51.8587 230.249L38.0619 215.298L36.592 216.654ZM52.0785 231.225L64.1821 192.381L62.2726 191.786L50.169 230.63L52.0785 231.225ZM63.9623 191.405L50.1656 176.454L48.6956 177.81L62.4923 192.761L63.9623 191.405ZM51.3642 231.909L71.2126 227.439L70.7732 225.488L50.9248 229.958L51.3642 231.909ZM71.9477 226.761L84.0513 187.916L82.1418 187.321L70.0382 226.166L71.9477 226.761ZM82.8768 186.643L63.0284 191.114L63.4678 193.065L83.3162 188.594L82.8768 186.643ZM62.2933 191.792L50.1897 230.637L52.0992 231.231L64.2028 192.387L62.2933 191.792ZM83.8138 186.93L42.4238 142.076L40.9539 143.432L82.3439 188.286L83.8138 186.93ZM63.4501 193.054L83.2986 188.583L82.8592 186.632L63.0107 191.103L63.4501 193.054ZM42.424 196.257L36.3722 215.679L38.2817 216.274L44.3335 196.851L42.424 196.257ZM15.0571 167.312L42.6435 197.232L44.114 195.876L16.5276 165.957L15.0571 167.312ZM21.1178 147.9L62.4992 192.745L63.9692 191.388L22.5878 146.544L21.1178 147.9ZM62.2793 191.77L62.2755 191.782L64.1853 192.376L64.1891 192.363L62.2793 191.77ZM41.4692 141.778L21.6331 146.246L22.0725 148.197L41.9085 143.729L41.4692 141.778ZM21.6331 146.246L21.6206 146.249L22.06 148.2L22.0725 148.197L21.6331 146.246ZM21.1091 147.891L21.1178 147.9L22.5878 146.544L22.5791 146.534L21.1091 147.891ZM20.8856 146.927L14.8376 166.337L16.7471 166.932L22.7951 147.522L20.8856 146.927ZM63.9625 191.405L50.4255 176.728L48.9552 178.083L62.4922 192.761L63.9625 191.405ZM50.4253 176.727L22.5753 146.547L21.1053 147.903L48.9554 178.084L50.4253 176.727ZM21.109 147.89L48.9552 178.083L50.4255 176.728L22.5793 146.535L21.109 147.89ZM48.9554 178.084L62.4954 192.757L63.9654 191.401L50.4253 176.727L48.9554 178.084Z" fill="black"/>
<defs>
<linearGradient id="paint0_linear_4481_7478" x1="64.7735" y1="437.258" x2="435.812" y2="256.553" gradientUnits="userSpaceOnUse">
<stop stop-color="#D6FFBB"/>
<stop offset="1" stop-color="#5869DD"/>
</linearGradient>
</defs>
</svg>
