<svg width="388" height="344" viewBox="0 0 388 344" fill="none" xmlns="http://www.w3.org/2000/svg">
<path d="M385.015 116.026L367.873 110.564L367.225 111L384.367 116.462L385.015 116.026Z" fill="#8F8E93"/>
<path d="M350.998 105.892C344.804 104.395 338.398 103.047 332.007 101.819L331.404 102.507C337.794 103.735 344.185 104.963 350.379 106.461L350.998 105.892Z" fill="#8F8E93"/>
<path d="M310.941 97.4452C304.451 96.4168 297.763 95.549 291.11 94.9456L290.6 96.0886C297.253 96.692 303.924 97.4276 310.414 98.456L310.941 97.4452Z" fill="#8F8E93"/>
<path d="M269.89 95.0485C262.694 94.8003 255.31 94.8759 247.963 95.2454L247.926 96.7446C255.272 96.3751 262.411 96.1825 269.606 96.4307L269.89 95.0485Z" fill="#8F8E93"/>
<path d="M225.804 98.3874C218.609 99.3346 211.218 100.545 204.083 101.959L204.473 103.213C211.609 101.799 218.774 100.618 225.97 99.6708L225.804 98.3874Z" fill="#8F8E93"/>
<path d="M182.738 106.502C175.583 108.349 168.687 110.421 162.051 112.717L163.157 114.123C169.809 111.954 176.705 109.882 183.617 107.938L182.738 106.502Z" fill="#8F8E93"/>
<path d="M142.086 118.57L132.949 122.498C131.503 123.184 129.826 123.777 128.38 124.462L124.043 126.52L125.74 127.783L130.078 125.725C131.523 125.039 132.985 124.475 134.431 123.79L143.353 119.89L142.086 118.57Z" fill="#8F8E93"/>
<path d="M105.041 136.699C99.5533 139.581 94.0799 142.575 89.0641 145.622L91.439 146.559C96.4548 143.512 101.707 140.548 107.194 137.666L105.041 136.699Z" fill="#8F8E93"/>
<path d="M74.3075 155.779C69.7184 159.178 65.1602 162.816 61.0514 166.395L63.9025 167.235C68.0113 163.656 72.3602 160.167 76.9493 156.768L74.3075 155.779Z" fill="#8F8E93"/>
<path d="M48.5269 176.873L37.0578 188.38L40.8024 188.985L51.8063 177.66L48.5269 176.873Z" fill="#8F8E93"/>
<path d="M29.3182 200.9L21.0666 212.255L24.727 212.6L32.7714 201.39L29.3182 200.9Z" fill="#8F8E93"/>
<path d="M12.6793 222.976L5.04209 235.066L8.78942 235.592L16.6366 223.347L12.6793 222.976Z" fill="#8F8E93"/>
<path d="M129.102 158.103L133.651 137.474L125.906 130.295L125.906 130.295L125.904 130.293L123.63 140.608L108.136 126.246L108.138 126.236L110.41 115.931L102.663 108.751L98.1148 129.38L129.102 158.103Z" fill="black"/>
<path d="M143.671 134.343L133.652 137.476L133.651 137.474L129.102 158.103L139.123 154.969L143.671 134.343Z" fill="#F1EFED"/>
<path d="M143.671 134.34L135.927 127.161L125.906 130.295L133.651 137.473L143.671 134.34Z" fill="#F1EFED"/>
<path d="M110.408 115.925L120.428 112.792L120.428 112.79L112.682 105.611L102.661 108.745L110.408 115.925Z" fill="#F1EFED"/>
<path d="M108.136 126.246L123.63 140.608L125.901 130.284L118.154 123.103L108.138 126.236L108.136 126.246Z" fill="#F1EFED"/>
<path d="M129.102 158.103L128.754 158.478C128.889 158.603 129.08 158.646 129.255 158.592L129.102 158.103ZM125.904 130.293L126.252 129.917C126.117 129.792 125.926 129.749 125.751 129.804C125.576 129.859 125.443 130.003 125.404 130.182L125.904 130.293ZM123.63 140.608L123.281 140.983C123.416 141.108 123.607 141.151 123.783 141.096C123.958 141.042 124.09 140.897 124.13 140.718L123.63 140.608ZM108.136 126.246L107.636 126.136C107.597 126.313 107.654 126.498 107.788 126.622L108.136 126.246ZM110.41 115.931L110.91 116.042C110.949 115.864 110.892 115.679 110.758 115.556L110.41 115.931ZM102.663 108.751L103.011 108.375C102.877 108.251 102.686 108.207 102.51 108.262C102.335 108.317 102.203 108.462 102.163 108.641L102.663 108.751ZM98.1148 129.38L97.6145 129.27C97.5754 129.448 97.6332 129.633 97.7665 129.756L98.1148 129.38ZM110.408 115.925L110.06 116.301C110.195 116.426 110.386 116.469 110.561 116.414L110.408 115.925ZM120.429 112.791L120.582 113.28C120.757 113.226 120.889 113.082 120.929 112.904C120.969 112.726 120.912 112.54 120.778 112.416L120.429 112.791ZM112.682 105.611L113.031 105.235C112.896 105.11 112.705 105.067 112.53 105.122L112.682 105.611ZM102.661 108.745L102.508 108.256C102.334 108.311 102.202 108.454 102.162 108.632C102.121 108.81 102.179 108.997 102.313 109.121L102.661 108.745ZM120.929 112.899C120.99 112.622 120.815 112.349 120.539 112.288C120.262 112.227 119.989 112.402 119.928 112.678L120.929 112.899ZM107.98 125.749C107.71 125.833 107.56 126.12 107.644 126.39C107.729 126.66 108.016 126.811 108.286 126.726L107.98 125.749ZM125.901 130.284L126.401 130.394C126.44 130.217 126.383 130.032 126.249 129.908L125.901 130.284ZM133.652 137.476L133.304 137.852C133.439 137.977 133.63 138.02 133.805 137.965L133.652 137.476ZM143.674 134.342L143.826 134.831C144.001 134.776 144.133 134.633 144.173 134.455C144.213 134.277 144.156 134.09 144.022 133.966L143.674 134.342ZM135.927 127.161L136.275 126.786C136.14 126.661 135.949 126.618 135.774 126.672L135.927 127.161ZM125.906 130.295L125.753 129.807C125.578 129.861 125.446 130.004 125.406 130.183C125.366 130.361 125.423 130.547 125.557 130.671L125.906 130.295ZM143.672 134.339L144.172 134.45C144.212 134.271 144.153 134.085 144.018 133.962C143.884 133.838 143.693 133.796 143.519 133.85L143.672 134.339ZM139.123 154.969L139.276 155.457C139.452 155.403 139.584 155.258 139.624 155.079L139.123 154.969ZM125.404 130.182L123.129 140.497L124.13 140.718L126.404 130.403L125.404 130.182ZM123.978 140.232L108.484 125.871L107.788 126.622L123.281 140.983L123.978 140.232ZM110.758 115.556L103.011 108.375L102.315 109.127L110.062 116.307L110.758 115.556ZM102.163 108.641L97.6145 129.27L98.615 129.491L103.163 108.861L102.163 108.641ZM97.7665 129.756L128.754 158.478L129.451 157.727L98.463 129.005L97.7665 129.756ZM112.53 105.122L102.508 108.256L102.814 109.234L112.835 106.1L112.53 105.122ZM102.313 109.121L110.06 116.301L110.756 115.55L103.01 108.369L102.313 109.121ZM117.806 123.479L125.553 130.66L126.249 129.908L118.502 122.728L117.806 123.479ZM138.971 154.48L128.949 157.614L129.255 158.592L139.276 155.457L138.971 154.48ZM129.603 158.213L134.151 137.585L133.15 137.364L128.602 157.992L129.603 158.213ZM133.999 137.099L126.254 129.92L125.557 130.671L133.302 137.85L133.999 137.099ZM126.058 130.784L126.059 130.784L125.753 129.806L125.753 129.807L126.058 130.784ZM126.255 129.919L126.252 129.917L125.556 130.668L125.558 130.671L126.255 129.919ZM108.636 126.357L108.638 126.346L107.638 126.126L107.636 126.136L108.636 126.357ZM108.638 126.346L110.91 116.042L109.91 115.821L107.638 126.126L108.638 126.346ZM118.001 122.614L107.985 125.747L108.291 126.725L118.307 123.592L118.001 122.614ZM107.985 125.747L107.98 125.749L108.286 126.726L108.291 126.725L107.985 125.747ZM135.774 126.672L125.753 129.806L126.059 130.784L136.08 127.65L135.774 126.672ZM133.999 137.098L126.255 129.919L125.558 130.671L133.303 137.849L133.999 137.098ZM133.302 137.85L133.304 137.852L134.001 137.1L133.999 137.099L133.302 137.85ZM134.151 137.585L134.151 137.584L133.151 137.363L133.15 137.364L134.151 137.585ZM143.518 133.854L133.5 136.987L133.805 137.965L143.824 134.831L143.518 133.854ZM139.624 155.079L144.171 134.453L143.171 134.232L138.623 154.858L139.624 155.079ZM143.172 134.229L143.171 134.232L144.171 134.453L144.172 134.45L143.172 134.229ZM143.824 134.831L143.826 134.831L143.521 133.853L143.518 133.854L143.824 134.831ZM144.019 133.964L136.275 126.786L135.578 127.537L143.323 134.715L144.019 133.964ZM133.804 137.962L143.824 134.828L143.518 133.851L133.498 136.985L133.804 137.962ZM143.824 134.828L143.825 134.828L143.519 133.85L143.518 133.851L143.824 134.828ZM144.022 133.966L144.019 133.964L143.323 134.715L143.325 134.718L144.022 133.966ZM110.561 116.414L120.581 113.281L120.275 112.303L110.255 115.437L110.561 116.414ZM120.928 112.902L120.928 112.9L119.928 112.68L119.927 112.682L120.928 112.902ZM120.776 112.414L113.031 105.235L112.334 105.987L120.08 113.166L120.776 112.414ZM120.778 112.416L120.776 112.415L120.08 113.166L120.081 113.167L120.778 112.416ZM119.928 112.678L119.928 112.68L120.928 112.9L120.929 112.899L119.928 112.678ZM119.927 112.681L117.654 122.993L118.654 123.214L120.928 112.902L119.927 112.681ZM120.581 113.281L120.582 113.28L120.276 112.302L120.275 112.303L120.581 113.281ZM124.13 140.718L126.401 130.394L125.401 130.174L123.129 140.498L124.13 140.718ZM118.001 122.614L107.98 125.749L108.286 126.726L118.307 123.592L118.001 122.614Z" fill="black"/>
<path d="M234.3 120.039L256.528 103.369L240.52 105.297L240.504 105.276L240.499 105.288L234.294 119.994L234.3 120.039Z" fill="black"/>
<path d="M256.528 103.369L252.959 75.8138L240.504 105.276L240.52 105.297L256.528 103.369Z" fill="#F1EFED"/>
<path d="M252.959 75.8138L230.731 92.4836L240.504 105.276L252.959 75.8138Z" fill="#F1EFED"/>
<path d="M240.499 105.288L240.504 105.276L230.731 92.4836L234.294 119.994L240.499 105.288Z" fill="#F1EFED"/>
<path d="M230.731 92.4836L230.423 92.0738C230.276 92.1846 230.199 92.3663 230.223 92.5494L230.731 92.4836ZM252.959 75.8138L253.467 75.748C253.443 75.5674 253.326 75.4127 253.158 75.3419C252.99 75.271 252.797 75.2947 252.651 75.404L252.959 75.8138ZM256.528 103.369L256.836 103.779C256.983 103.668 257.06 103.486 257.036 103.303L256.528 103.369ZM234.3 120.039L233.792 120.105C233.816 120.285 233.933 120.44 234.101 120.511C234.269 120.582 234.462 120.558 234.608 120.449L234.3 120.039ZM240.52 105.297L240.113 105.608C240.223 105.752 240.401 105.827 240.581 105.806L240.52 105.297ZM240.499 105.288L240.027 105.089L240.027 105.089L240.499 105.288ZM233.807 119.831C233.697 120.092 233.819 120.392 234.08 120.502C234.341 120.612 234.641 120.49 234.751 120.229L233.807 119.831ZM231.038 92.8935L253.266 76.2236L252.651 75.404L230.423 92.0738L231.038 92.8935ZM252.451 75.8796L256.02 103.435L257.036 103.303L253.467 75.748L252.451 75.8796ZM256.221 102.959L233.993 119.629L234.608 120.449L256.836 103.779L256.221 102.959ZM256.467 102.861L240.458 104.789L240.581 105.806L256.589 103.878L256.467 102.861ZM240.927 104.986L240.911 104.965L240.097 105.587L240.113 105.608L240.927 104.986ZM240.032 105.077L240.027 105.089L240.97 105.488L240.976 105.476L240.032 105.077ZM240.027 105.089L233.822 119.795L234.766 120.193L240.971 105.487L240.027 105.089ZM233.786 120.06L233.792 120.105L234.808 119.973L234.802 119.928L233.786 120.06ZM233.822 119.795L233.807 119.831L234.751 120.229L234.766 120.193L233.822 119.795ZM234.802 119.928L231.239 92.4179L230.223 92.5494L233.786 120.06L234.802 119.928ZM240.976 105.476L253.431 76.0133L252.487 75.6143L240.032 105.077L240.976 105.476ZM240.911 104.965L231.138 92.1727L230.324 92.7946L240.097 105.587L240.911 104.965Z" fill="black"/>
</svg>
