<svg width="690" height="378" viewBox="0 0 690 378" fill="none" xmlns="http://www.w3.org/2000/svg">
<path d="M73.0297 87.7789L87.8698 85.5701C87.9384 85.5613 88.0079 85.5792 88.0637 85.6201C88.1195 85.661 88.1575 85.7218 88.1697 85.7899C88.1785 85.8586 88.1606 85.928 88.1197 85.9838C88.0787 86.0396 88.0179 86.0775 87.9497 86.0898L73.0997 88.2287C73.0682 88.2383 73.035 88.241 73.0024 88.2367C72.9697 88.2323 72.9384 88.221 72.9105 88.2035C72.8826 88.186 72.8588 88.1627 72.8406 88.1352C72.8225 88.1077 72.8105 88.0767 72.8055 88.0441C72.8004 88.0116 72.8024 87.9783 72.8113 87.9466C72.8202 87.9149 72.8358 87.8855 72.8571 87.8604C72.8783 87.8352 72.9048 87.815 72.9346 87.8009C72.9643 87.7868 72.9968 87.7793 73.0297 87.7789Z" fill="black"/>
<path d="M102.68 83.3518L117.54 81.1029C117.625 81.0977 117.708 81.1245 117.774 81.1781C117.84 81.2316 117.884 81.3079 117.897 81.392C117.909 81.476 117.89 81.5618 117.842 81.6322C117.795 81.7027 117.722 81.7528 117.64 81.7726L102.79 83.9315C102.712 83.9404 102.634 83.9196 102.571 83.8733C102.507 83.8269 102.464 83.7584 102.45 83.6816C102.44 83.6079 102.459 83.5334 102.501 83.4724C102.544 83.4115 102.607 83.3685 102.68 83.3518Z" fill="black"/>
<path d="M132.37 78.8741L147.2 76.6352C147.253 76.6253 147.308 76.6262 147.361 76.6381C147.414 76.65 147.464 76.6725 147.508 76.7043C147.552 76.7361 147.589 76.7765 147.616 76.823C147.644 76.8696 147.662 76.9213 147.67 76.9751C147.684 77.082 147.657 77.1906 147.594 77.278C147.53 77.3655 147.436 77.4253 147.33 77.4448L132.49 79.6137C132.441 79.6209 132.391 79.6185 132.344 79.6066C132.296 79.5947 132.251 79.5735 132.212 79.5443C132.172 79.515 132.139 79.4783 132.114 79.4362C132.089 79.3941 132.072 79.3474 132.065 79.2989C132.057 79.2503 132.06 79.2008 132.072 79.1532C132.084 79.1055 132.105 79.0607 132.134 79.0213C132.163 78.9818 132.2 78.9485 132.242 78.9233C132.284 78.898 132.331 78.8813 132.38 78.8741H132.37Z" fill="black"/>
<path d="M162.04 74.3958L176.87 72.1569C176.932 72.1469 176.996 72.1494 177.057 72.1641C177.119 72.1788 177.177 72.2055 177.228 72.2427C177.279 72.2798 177.322 72.3267 177.355 72.3806C177.388 72.4344 177.41 72.4943 177.42 72.5567C177.43 72.6198 177.427 72.6842 177.412 72.7462C177.396 72.8082 177.369 72.8665 177.331 72.9177C177.292 72.9689 177.244 73.012 177.189 73.0444C177.134 73.0768 177.073 73.0979 177.01 73.1064L162.17 75.2753C162.052 75.2898 161.934 75.2584 161.839 75.1877C161.744 75.1169 161.68 75.0123 161.66 74.8955C161.651 74.8377 161.655 74.7787 161.669 74.7222C161.684 74.6656 161.71 74.6125 161.745 74.5659C161.78 74.5194 161.825 74.4804 161.875 74.4511C161.926 74.4219 161.982 74.4031 162.04 74.3958Z" fill="black"/>
<path d="M191.679 69.9283L206.519 67.7195C206.651 67.7158 206.78 67.7604 206.881 67.8449C206.982 67.9295 207.049 68.0481 207.069 68.1784C207.088 68.3087 207.059 68.4417 206.988 68.5524C206.916 68.663 206.806 68.7436 206.679 68.7789L191.829 70.9378C191.706 70.9399 191.586 70.8971 191.491 70.8173C191.397 70.7374 191.335 70.626 191.316 70.5038C191.298 70.3815 191.325 70.2568 191.391 70.1528C191.458 70.0488 191.561 69.9725 191.679 69.9383V69.9283Z" fill="black"/>
<path d="M221.379 65.5303L236.219 63.3415C236.37 63.3214 236.523 63.3616 236.645 63.4532C236.766 63.5449 236.847 63.6806 236.869 63.8312C236.881 63.9054 236.877 63.9811 236.859 64.0539C236.841 64.1268 236.809 64.1954 236.765 64.2557C236.72 64.3161 236.664 64.3671 236.599 64.4057C236.535 64.4443 236.464 64.4699 236.389 64.4809L221.539 66.6198C221.394 66.6372 221.248 66.5982 221.13 66.5108C221.013 66.4233 220.934 66.2942 220.909 66.15C220.9 66.0785 220.904 66.0057 220.922 65.9358C220.94 65.866 220.972 65.8004 221.016 65.7428C221.06 65.6853 221.114 65.6369 221.177 65.6004C221.239 65.564 221.308 65.5402 221.379 65.5303Z" fill="black"/>
<path d="M251.07 61.183L265.91 59.0441C266.073 59.024 266.237 59.0681 266.368 59.167C266.498 59.2659 266.585 59.4118 266.61 59.5738C266.623 59.6534 266.619 59.7348 266.6 59.813C266.58 59.8912 266.545 59.9647 266.497 60.0291C266.448 60.0934 266.387 60.1474 266.317 60.1876C266.247 60.2279 266.17 60.2537 266.09 60.2634L251.23 62.3624C251.148 62.3841 251.062 62.3881 250.978 62.3742C250.894 62.3602 250.814 62.3286 250.743 62.2814C250.673 62.2342 250.613 62.1725 250.568 62.1004C250.523 62.0283 250.493 61.9474 250.482 61.8632C250.471 61.779 250.477 61.6933 250.501 61.6118C250.526 61.5303 250.567 61.4549 250.623 61.3905C250.678 61.3262 250.747 61.2745 250.824 61.2387C250.901 61.2029 250.985 61.1839 251.07 61.183Z" fill="black"/>
<path d="M280.77 56.9446L295.68 54.8757C295.77 54.8532 295.864 54.8499 295.955 54.866C296.046 54.8821 296.133 54.9172 296.21 54.969C296.286 55.0208 296.351 55.0882 296.4 55.1668C296.449 55.2454 296.481 55.3334 296.494 55.4251C296.507 55.5169 296.5 55.6102 296.474 55.6991C296.448 55.7881 296.404 55.8706 296.344 55.9413C296.284 56.0121 296.21 56.0694 296.127 56.1097C296.044 56.1499 295.953 56.1722 295.86 56.175L281 58.1739C280.833 58.1968 280.664 58.153 280.529 58.0519C280.394 57.9509 280.305 57.8008 280.28 57.6342C280.266 57.4797 280.307 57.3253 280.397 57.1988C280.487 57.0723 280.619 56.9821 280.77 56.9446Z" fill="black"/>
<path d="M310.489 52.8473L325.369 50.8483C325.46 50.8365 325.553 50.8428 325.642 50.8668C325.731 50.8908 325.814 50.932 325.887 50.9882C325.96 51.0443 326.021 51.1143 326.067 51.194C326.113 51.2738 326.142 51.3618 326.154 51.453C326.166 51.5442 326.16 51.6369 326.136 51.7257C326.112 51.8145 326.07 51.8977 326.014 51.9706C325.958 52.0434 325.888 52.1045 325.808 52.1503C325.729 52.1961 325.64 52.2258 325.549 52.2376L310.679 54.1966C310.5 54.2204 310.319 54.1722 310.176 54.0626C310.032 53.9529 309.938 53.7908 309.914 53.6119C309.89 53.433 309.939 53.2519 310.048 53.1085C310.158 52.9651 310.32 52.8712 310.499 52.8473H310.489Z" fill="black"/>
<path d="M340.259 49.0095L355.169 47.2404C355.362 47.2213 355.555 47.2789 355.706 47.4007C355.858 47.5225 355.955 47.6987 355.977 47.8915C355.999 48.0842 355.945 48.278 355.826 48.4311C355.706 48.5841 355.532 48.6842 355.339 48.7097L340.439 50.4388C340.345 50.4499 340.249 50.4421 340.157 50.4159C340.065 50.3896 339.98 50.3455 339.905 50.286C339.831 50.2265 339.769 50.1528 339.723 50.0692C339.678 49.9856 339.649 49.8938 339.639 49.7991C339.627 49.7063 339.633 49.612 339.657 49.5217C339.682 49.4314 339.724 49.3469 339.782 49.2733C339.84 49.1997 339.912 49.1384 339.994 49.0931C340.076 49.0478 340.166 49.0194 340.259 49.0095Z" fill="black"/>
<path d="M370.099 45.6411L377.569 44.9515L385.049 44.3218C385.248 44.3206 385.44 44.3945 385.587 44.5289C385.734 44.6632 385.825 44.8479 385.841 45.0462C385.858 45.2445 385.799 45.4417 385.676 45.5983C385.553 45.7549 385.376 45.8594 385.179 45.891L377.709 46.4907L370.249 47.1603C370.149 47.1695 370.049 47.159 369.953 47.1293C369.857 47.0996 369.768 47.0514 369.691 46.9873C369.614 46.9233 369.551 46.8447 369.504 46.756C369.457 46.6674 369.428 46.5704 369.419 46.4707C369.41 46.3709 369.421 46.2703 369.45 46.1747C369.48 46.079 369.528 45.9901 369.592 45.9131C369.656 45.836 369.735 45.7724 369.824 45.7257C369.912 45.6791 370.009 45.6503 370.109 45.6411H370.099Z" fill="black"/>
<path d="M400.02 43.2326L415.02 42.363C415.128 42.3571 415.235 42.3725 415.337 42.4082C415.439 42.444 415.533 42.4994 415.613 42.5713C415.693 42.6432 415.759 42.7302 415.805 42.8274C415.852 42.9246 415.879 43.03 415.885 43.1376C415.891 43.2453 415.875 43.353 415.84 43.4547C415.804 43.5564 415.748 43.6501 415.676 43.7303C415.605 43.8106 415.517 43.876 415.42 43.9226C415.323 43.9692 415.218 43.9963 415.11 44.0022L400.11 44.8318C400.004 44.8385 399.898 44.8242 399.797 44.7895C399.697 44.7548 399.605 44.7006 399.526 44.6299C399.447 44.5592 399.382 44.4735 399.337 44.3777C399.291 44.282 399.265 44.1781 399.26 44.0722C399.254 43.9671 399.27 43.8621 399.305 43.763C399.34 43.6639 399.395 43.5728 399.466 43.4948C399.536 43.4168 399.621 43.3535 399.717 43.3085C399.812 43.2635 399.915 43.2377 400.02 43.2326Z" fill="black"/>
<path d="M460.04 41.3628L475.04 41.6426C475.155 41.6452 475.267 41.6703 475.372 41.7164C475.476 41.7625 475.571 41.8288 475.65 41.9114C475.729 41.994 475.791 42.0914 475.832 42.1979C475.873 42.3044 475.893 42.418 475.89 42.5322C475.888 42.6451 475.863 42.7563 475.817 42.8596C475.772 42.9629 475.706 43.0562 475.624 43.1342C475.543 43.2122 475.446 43.2733 475.341 43.314C475.236 43.3548 475.123 43.3744 475.01 43.3718L460.01 43.0819C459.782 43.0819 459.564 42.9913 459.402 42.8301C459.241 42.6689 459.15 42.4503 459.15 42.2224C459.15 41.9944 459.241 41.7757 459.402 41.6145C459.564 41.4533 459.782 41.3628 460.01 41.3628H460.04Z" fill="black"/>
<path d="M490.07 42.2727L505.07 43.1523C505.303 43.1655 505.522 43.2709 505.678 43.4452C505.833 43.6196 505.913 43.8485 505.9 44.0818C505.887 44.3151 505.781 44.5335 505.607 44.6891C505.433 44.8447 505.203 44.9246 504.97 44.9114L489.97 44.0118C489.856 44.0046 489.744 43.975 489.641 43.9246C489.539 43.8743 489.447 43.8041 489.371 43.7183C489.295 43.6324 489.237 43.5325 489.2 43.4243C489.163 43.316 489.148 43.2015 489.155 43.0873C489.162 42.9731 489.192 42.8615 489.242 42.7587C489.293 42.656 489.363 42.5642 489.449 42.4885C489.535 42.4129 489.635 42.3549 489.743 42.3179C489.851 42.2809 489.966 42.2655 490.08 42.2727H490.07Z" fill="black"/>
<path d="M520.03 44.3715L534.96 46.2006C535.179 46.2473 535.374 46.3742 535.504 46.5564C535.635 46.7387 535.693 46.9632 535.666 47.1858C535.64 47.4085 535.532 47.6134 535.362 47.7602C535.193 47.9071 534.974 47.9853 534.75 47.9797H534.68L519.86 46.1206C519.642 46.0745 519.449 45.9481 519.319 45.7665C519.19 45.5849 519.134 45.3613 519.161 45.14C519.189 44.9188 519.299 44.716 519.469 44.5718C519.639 44.4276 519.857 44.3526 520.08 44.3616L520.03 44.3715Z" fill="black"/>
<path d="M549.78 48.9489C554.688 50.0367 559.537 51.371 564.31 52.9468C564.538 53.0242 564.726 53.1886 564.832 53.404C564.939 53.6194 564.956 53.8683 564.88 54.0962C564.844 54.2093 564.786 54.314 564.708 54.4042C564.631 54.4944 564.537 54.5682 564.43 54.6213C564.324 54.6744 564.208 54.7057 564.09 54.7134C563.971 54.721 563.852 54.7049 563.74 54.6659C559.024 53.0933 554.231 51.759 549.38 50.668C549.147 50.615 548.944 50.4715 548.817 50.269C548.689 50.0666 548.647 49.8218 548.7 49.5886C548.753 49.3553 548.897 49.1526 549.099 49.0252C549.302 48.8977 549.547 48.8559 549.78 48.9089V48.9489Z" fill="black"/>
<path d="M578.291 58.7643C580.541 59.9037 582.751 61.1431 584.901 62.4824C587.123 63.7832 589.179 65.3507 591.021 67.15C591.19 67.3263 591.283 67.5627 591.279 67.8074C591.274 68.052 591.172 68.2847 590.996 68.4543C590.819 68.624 590.583 68.7167 590.338 68.712C590.093 68.7073 589.86 68.6056 589.691 68.4293C587.953 66.7278 586.012 65.2473 583.911 64.0216C581.821 62.7123 579.661 61.5029 577.451 60.3835C577.344 60.329 577.248 60.254 577.17 60.1627C577.092 60.0715 577.033 59.9658 576.996 59.8516C576.959 59.7375 576.945 59.6171 576.954 59.4974C576.963 59.3777 576.996 59.2611 577.051 59.1541C577.105 59.0472 577.18 58.9519 577.272 58.874C577.363 58.796 577.469 58.7367 577.583 58.6996C577.697 58.6625 577.818 58.6482 577.937 58.6576C578.057 58.667 578.174 58.6999 578.281 58.7543L578.291 58.7643Z" fill="black"/>
<path d="M594.229 81.9018C593.249 84.3077 591.922 86.5571 590.289 88.5783C588.698 90.5678 586.96 92.4354 585.089 94.1655C585 94.2495 584.895 94.3151 584.781 94.3585C584.666 94.402 584.544 94.4224 584.421 94.4187C584.299 94.415 584.178 94.3872 584.066 94.3369C583.954 94.2866 583.854 94.2147 583.769 94.1255C583.685 94.0362 583.62 93.9313 583.576 93.8167C583.533 93.7021 583.512 93.5801 583.516 93.4575C583.52 93.335 583.548 93.2145 583.598 93.1027C583.648 92.9909 583.72 92.8902 583.809 92.8061C585.609 91.1417 587.28 89.3442 588.809 87.4289C590.33 85.558 591.567 83.4734 592.479 81.2421C592.522 81.1283 592.586 81.0241 592.669 80.9356C592.752 80.847 592.852 80.776 592.963 80.7266C593.074 80.6773 593.193 80.6506 593.315 80.6481C593.436 80.6457 593.557 80.6675 593.669 80.7124C593.901 80.7959 594.091 80.9681 594.196 81.1912C594.301 81.4142 594.313 81.6698 594.229 81.9018Z" fill="black"/>
<path d="M573.19 103.521L570.06 105.61C569.06 106.32 567.94 106.96 566.88 107.609L560.49 111.607C560.277 111.719 560.03 111.747 559.798 111.684C559.566 111.621 559.367 111.472 559.24 111.268C559.113 111.064 559.068 110.82 559.115 110.584C559.161 110.348 559.295 110.139 559.49 109.998L565.84 106.05C566.84 105.39 567.97 104.751 568.99 104.051L572.1 101.982C572.306 101.888 572.539 101.872 572.756 101.937C572.973 102.001 573.16 102.142 573.282 102.333C573.403 102.524 573.452 102.752 573.418 102.976C573.385 103.2 573.272 103.404 573.1 103.551L573.19 103.521Z" fill="black"/>
<path d="M547.379 118.983L533.939 125.729C533.825 125.834 533.689 125.91 533.54 125.953C533.391 125.996 533.234 126.003 533.082 125.975C532.93 125.947 532.786 125.884 532.663 125.791C532.539 125.698 532.438 125.578 532.369 125.439C532.3 125.301 532.264 125.149 532.264 124.994C532.263 124.839 532.299 124.686 532.368 124.548C532.437 124.409 532.537 124.289 532.66 124.195C532.784 124.102 532.927 124.039 533.079 124.01L546.449 117.304C546.661 117.267 546.879 117.299 547.07 117.396C547.262 117.492 547.417 117.648 547.514 117.839C547.61 118.031 547.642 118.248 547.606 118.46C547.569 118.671 547.465 118.865 547.309 119.013L547.379 118.983Z" fill="black"/>
<path d="M520.26 131.956L506.4 137.753C506.176 137.795 505.944 137.759 505.743 137.651C505.542 137.543 505.384 137.369 505.296 137.159C505.207 136.949 505.193 136.715 505.255 136.496C505.318 136.277 505.454 136.085 505.64 135.954L519.46 130.187C519.699 130.096 519.964 130.1 520.201 130.199C520.437 130.297 520.626 130.483 520.73 130.717C520.817 130.945 520.817 131.197 520.73 131.425C520.644 131.654 520.476 131.842 520.26 131.956Z" fill="black"/>
<path d="M492.41 143.221L478.34 148.458C478.214 148.53 478.074 148.573 477.93 148.585C477.786 148.598 477.64 148.578 477.504 148.529C477.368 148.479 477.244 148.401 477.142 148.299C477.039 148.197 476.959 148.074 476.909 147.939C476.858 147.803 476.838 147.658 476.849 147.514C476.86 147.37 476.902 147.229 476.972 147.103C477.043 146.977 477.14 146.867 477.257 146.782C477.374 146.696 477.508 146.638 477.65 146.609L491.65 141.382C491.776 141.306 491.917 141.258 492.063 141.242C492.209 141.227 492.357 141.244 492.496 141.292C492.635 141.34 492.762 141.418 492.867 141.521C492.972 141.623 493.054 141.748 493.105 141.885C493.157 142.023 493.178 142.17 493.166 142.317C493.154 142.463 493.11 142.605 493.037 142.733C492.964 142.861 492.863 142.97 492.743 143.055C492.622 143.139 492.485 143.196 492.34 143.221H492.41Z" fill="black"/>
<path d="M464.24 153.575L450.13 158.673C450.004 158.734 449.867 158.767 449.727 158.772C449.587 158.776 449.448 158.751 449.319 158.699C449.189 158.646 449.072 158.567 448.975 158.466C448.878 158.365 448.803 158.246 448.756 158.114C448.708 157.983 448.688 157.843 448.698 157.704C448.707 157.564 448.746 157.428 448.812 157.305C448.877 157.181 448.968 157.073 449.078 156.987C449.188 156.9 449.315 156.838 449.45 156.804L463.56 151.706C463.686 151.646 463.823 151.612 463.963 151.607C464.103 151.603 464.242 151.628 464.371 151.68C464.501 151.733 464.618 151.812 464.715 151.913C464.812 152.014 464.887 152.134 464.935 152.265C464.982 152.396 465.002 152.536 464.993 152.675C464.983 152.815 464.944 152.951 464.879 153.074C464.813 153.198 464.722 153.306 464.613 153.393C464.503 153.479 464.376 153.541 464.24 153.575Z" fill="black"/>
<path d="M435.99 163.72L421.81 168.627C421.563 168.708 421.295 168.689 421.062 168.575C420.828 168.461 420.648 168.261 420.56 168.018C420.48 167.771 420.498 167.503 420.612 167.269C420.726 167.036 420.926 166.857 421.17 166.768L435.34 161.861C435.576 161.815 435.821 161.856 436.03 161.975C436.238 162.095 436.396 162.286 436.475 162.514C436.554 162.741 436.549 162.989 436.46 163.212C436.371 163.436 436.204 163.619 435.99 163.73V163.72Z" fill="black"/>
<path d="M407.68 173.494L393.51 178.412C393.384 178.499 393.239 178.556 393.086 178.579C392.934 178.601 392.779 178.588 392.633 178.54C392.486 178.493 392.353 178.412 392.243 178.305C392.133 178.198 392.049 178.066 391.998 177.921C391.947 177.776 391.93 177.622 391.949 177.469C391.967 177.316 392.021 177.17 392.105 177.042C392.19 176.913 392.303 176.806 392.435 176.728C392.568 176.65 392.717 176.604 392.87 176.593L407.04 171.655C407.283 171.577 407.547 171.594 407.777 171.704C408.008 171.814 408.188 172.007 408.28 172.245C408.361 172.49 408.344 172.758 408.232 172.991C408.12 173.224 407.922 173.404 407.68 173.494Z" fill="black"/>
<path d="M379.359 183.48L365.359 188.767C365.161 188.764 364.968 188.703 364.805 188.59C364.642 188.478 364.516 188.319 364.443 188.135C364.37 187.951 364.354 187.749 364.396 187.556C364.438 187.362 364.536 187.185 364.679 187.048L378.679 181.721C378.918 181.64 379.179 181.653 379.409 181.757C379.639 181.861 379.821 182.048 379.919 182.28C379.999 182.519 379.986 182.78 379.883 183.01C379.779 183.24 379.592 183.422 379.359 183.52V183.48Z" fill="black"/>
<path d="M351.46 194.384L337.76 200.381C337.532 200.482 337.273 200.488 337.04 200.398C336.808 200.308 336.62 200.129 336.52 199.901C336.419 199.673 336.413 199.415 336.503 199.182C336.593 198.95 336.772 198.763 337 198.662L350.76 192.605C350.875 192.55 351 192.518 351.127 192.512C351.255 192.506 351.382 192.526 351.502 192.571C351.622 192.615 351.731 192.683 351.824 192.771C351.917 192.858 351.991 192.964 352.042 193.081C352.093 193.198 352.12 193.324 352.121 193.451C352.123 193.579 352.098 193.705 352.049 193.823C352.001 193.941 351.929 194.048 351.838 194.138C351.747 194.227 351.638 194.297 351.52 194.344L351.46 194.384Z" fill="black"/>
<path d="M324.29 206.918L311.13 214.034C310.917 214.125 310.677 214.134 310.458 214.057C310.239 213.981 310.056 213.825 309.946 213.621C309.835 213.417 309.805 213.179 309.862 212.954C309.918 212.729 310.057 212.533 310.25 212.405L323.48 205.249C323.698 205.131 323.953 205.103 324.191 205.173C324.429 205.242 324.63 205.402 324.75 205.618C324.853 205.84 324.871 206.091 324.801 206.325C324.731 206.559 324.577 206.759 324.37 206.888L324.29 206.918Z" fill="black"/>
<path d="M298.38 221.81C294.2 224.529 290.12 227.38 286.14 230.366C285.946 230.511 285.703 230.574 285.462 230.541C285.222 230.507 285.006 230.379 284.86 230.186C284.714 229.992 284.651 229.749 284.685 229.509C284.718 229.269 284.846 229.052 285.04 228.906C289.04 225.888 293.15 223.009 297.37 220.271C297.471 220.204 297.584 220.158 297.702 220.136C297.821 220.113 297.943 220.114 298.061 220.14C298.18 220.165 298.292 220.213 298.391 220.282C298.49 220.351 298.575 220.439 298.64 220.541C298.773 220.744 298.82 220.991 298.771 221.229C298.723 221.467 298.582 221.676 298.38 221.81Z" fill="black"/>
<path d="M274.539 239.761C270.788 242.978 267.352 246.545 264.279 250.415C264.133 250.605 263.918 250.729 263.681 250.759C263.444 250.79 263.204 250.726 263.014 250.58C262.825 250.434 262.701 250.219 262.67 249.982C262.639 249.745 262.703 249.505 262.849 249.316C265.992 245.347 269.508 241.689 273.349 238.391C273.532 238.255 273.76 238.193 273.987 238.216C274.214 238.24 274.424 238.348 274.575 238.519C274.726 238.69 274.807 238.912 274.802 239.14C274.798 239.368 274.707 239.586 274.549 239.751L274.539 239.761Z" fill="black"/>
<path d="M258.88 263.419C258.944 264.554 259.233 265.664 259.73 266.687C260.241 267.719 260.917 268.66 261.73 269.476C263.427 271.184 265.402 272.593 267.57 273.643C267.686 273.688 267.791 273.757 267.879 273.845C267.967 273.933 268.036 274.038 268.08 274.154C268.125 274.27 268.145 274.394 268.138 274.519C268.132 274.643 268.1 274.764 268.044 274.875C267.987 274.986 267.909 275.084 267.812 275.163C267.716 275.241 267.604 275.299 267.484 275.332C267.364 275.364 267.238 275.372 267.115 275.353C266.992 275.334 266.875 275.29 266.77 275.223C264.426 274.089 262.292 272.565 260.46 270.715C259.499 269.77 258.702 268.672 258.1 267.467C257.508 266.234 257.168 264.895 257.1 263.529C257.092 263.412 257.107 263.294 257.144 263.183C257.181 263.072 257.24 262.97 257.317 262.882C257.395 262.793 257.488 262.721 257.593 262.669C257.699 262.617 257.813 262.587 257.93 262.579C258.167 262.565 258.4 262.646 258.578 262.803C258.756 262.961 258.864 263.182 258.88 263.419Z" fill="black"/>
<path d="M281.679 277.622C286.603 278.259 291.565 278.557 296.529 278.512C296.76 278.512 296.981 278.603 297.144 278.766C297.308 278.929 297.399 279.151 297.399 279.381C297.399 279.612 297.308 279.833 297.144 279.996C296.981 280.159 296.76 280.251 296.529 280.251C291.485 280.304 286.443 280.006 281.439 279.361C281.22 279.317 281.026 279.19 280.896 279.008C280.767 278.825 280.712 278.601 280.743 278.379C280.773 278.157 280.887 277.956 281.061 277.815C281.235 277.675 281.456 277.606 281.679 277.622Z" fill="black"/>
<path d="M311.48 278.002L326.38 276.722H326.43C326.647 276.72 326.858 276.8 327.018 276.946C327.179 277.093 327.279 277.295 327.296 277.512C327.314 277.728 327.249 277.944 327.114 278.114C326.979 278.285 326.785 278.398 326.57 278.431L311.57 279.721C311.342 279.739 311.115 279.666 310.941 279.518C310.767 279.37 310.658 279.159 310.64 278.931C310.621 278.703 310.694 278.477 310.842 278.303C310.99 278.128 311.201 278.02 311.43 278.002H311.48Z" fill="black"/>
<path d="M341.21 274.732L355.96 272.153C356.071 272.126 356.187 272.122 356.3 272.141C356.413 272.16 356.52 272.203 356.616 272.265C356.712 272.327 356.795 272.408 356.858 272.504C356.922 272.599 356.965 272.706 356.985 272.819C357.006 272.931 357.003 273.047 356.977 273.158C356.951 273.27 356.903 273.375 356.835 273.467C356.767 273.559 356.681 273.636 356.582 273.694C356.483 273.752 356.374 273.789 356.26 273.802L341.46 276.411C341.347 276.439 341.23 276.443 341.116 276.423C341.001 276.404 340.892 276.361 340.795 276.298C340.697 276.235 340.614 276.152 340.55 276.056C340.486 275.959 340.442 275.85 340.422 275.736C340.401 275.622 340.404 275.505 340.431 275.392C340.457 275.279 340.507 275.173 340.576 275.079C340.645 274.986 340.732 274.908 340.833 274.85C340.933 274.792 341.045 274.755 341.16 274.742L341.21 274.732Z" fill="black"/>
<path d="M370.68 269.156L385.3 265.858C385.506 265.81 385.724 265.846 385.904 265.959C386.084 266.071 386.212 266.251 386.26 266.457C386.307 266.664 386.271 266.881 386.158 267.061C386.046 267.241 385.866 267.369 385.66 267.417L371.02 270.755C370.807 270.803 370.585 270.764 370.401 270.648C370.217 270.532 370.087 270.348 370.04 270.135C369.992 269.923 370.03 269.701 370.147 269.517C370.263 269.334 370.447 269.204 370.66 269.156H370.68Z" fill="black"/>
<path d="M399.849 262.409L414.449 258.95C414.645 258.908 414.85 258.944 415.02 259.051C415.19 259.157 415.312 259.325 415.359 259.52C415.404 259.716 415.369 259.922 415.262 260.093C415.156 260.263 414.985 260.384 414.789 260.43L400.209 263.928C400.107 263.962 399.999 263.975 399.891 263.965C399.784 263.955 399.68 263.923 399.585 263.871C399.491 263.819 399.408 263.748 399.342 263.663C399.277 263.577 399.23 263.479 399.204 263.374C399.178 263.269 399.175 263.16 399.193 263.054C399.212 262.948 399.252 262.847 399.312 262.757C399.372 262.667 399.449 262.591 399.54 262.533C399.631 262.474 399.733 262.435 399.839 262.419L399.849 262.409Z" fill="black"/>
<path d="M429.08 255.623L443.78 252.554C443.966 252.516 444.159 252.553 444.317 252.657C444.476 252.761 444.586 252.923 444.625 253.109C444.663 253.294 444.627 253.488 444.522 253.646C444.418 253.804 444.256 253.915 444.07 253.953L429.41 257.062C429.219 257.1 429.021 257.062 428.858 256.956C428.695 256.849 428.581 256.682 428.54 256.492C428.519 256.398 428.518 256.3 428.536 256.205C428.553 256.11 428.59 256.019 428.643 255.938C428.696 255.857 428.764 255.788 428.845 255.733C428.925 255.679 429.015 255.642 429.11 255.623H429.08Z" fill="black"/>
<path d="M458.57 249.895L473.45 247.787C473.537 247.774 473.626 247.779 473.711 247.801C473.797 247.823 473.877 247.861 473.948 247.914C474.018 247.967 474.078 248.033 474.123 248.109C474.168 248.185 474.197 248.269 474.21 248.356C474.222 248.444 474.217 248.532 474.195 248.618C474.173 248.703 474.135 248.783 474.082 248.854C474.029 248.925 473.963 248.984 473.887 249.029C473.811 249.074 473.727 249.103 473.64 249.116L458.82 251.255C458.729 251.269 458.637 251.265 458.549 251.242C458.46 251.22 458.377 251.18 458.304 251.125C458.232 251.07 458.171 251.001 458.125 250.922C458.08 250.843 458.051 250.756 458.04 250.665C458.025 250.576 458.029 250.484 458.051 250.397C458.073 250.309 458.112 250.226 458.166 250.153C458.22 250.081 458.288 250.02 458.366 249.974C458.444 249.928 458.53 249.898 458.62 249.885L458.57 249.895Z" fill="black"/>
<path d="M488.42 246.388L503.42 245.848C503.503 245.842 503.587 245.853 503.665 245.881C503.744 245.908 503.816 245.951 503.878 246.007C503.939 246.063 503.989 246.131 504.024 246.207C504.059 246.282 504.078 246.364 504.08 246.448C504.086 246.616 504.025 246.779 503.911 246.903C503.797 247.026 503.638 247.1 503.47 247.108L488.52 247.688C488.361 247.668 488.213 247.59 488.107 247.47C488 247.349 487.941 247.194 487.941 247.033C487.941 246.872 488 246.716 488.107 246.595C488.213 246.475 488.361 246.397 488.52 246.377L488.42 246.388Z" fill="black"/>
<path d="M518.479 246.277C523.548 246.531 528.55 247.541 533.32 249.276C533.447 249.344 533.544 249.457 533.594 249.592C533.643 249.728 533.642 249.877 533.589 250.011C533.536 250.146 533.435 250.256 533.306 250.321C533.177 250.386 533.029 250.402 532.89 250.365C528.228 248.698 523.345 247.731 518.399 247.497C518.319 247.492 518.241 247.471 518.169 247.435C518.097 247.4 518.032 247.351 517.979 247.29C517.927 247.23 517.886 247.16 517.86 247.083C517.835 247.007 517.824 246.927 517.83 246.847C517.835 246.767 517.855 246.689 517.891 246.616C517.926 246.544 517.976 246.48 518.036 246.427C518.096 246.374 518.167 246.334 518.243 246.308C518.319 246.282 518.399 246.272 518.479 246.277Z" fill="black"/>
<path d="M544.54 259.28C545.506 261.676 545.969 264.244 545.9 266.826C545.838 269.374 545.466 271.905 544.79 274.362C544.777 274.437 544.748 274.508 544.706 274.571C544.663 274.634 544.608 274.688 544.544 274.729C544.48 274.77 544.408 274.797 544.333 274.809C544.258 274.82 544.181 274.816 544.108 274.797C544.035 274.778 543.966 274.743 543.906 274.696C543.847 274.649 543.798 274.59 543.762 274.523C543.727 274.455 543.706 274.382 543.7 274.306C543.694 274.23 543.705 274.154 543.73 274.082C544.375 271.712 544.731 269.272 544.79 266.816C544.85 264.386 544.407 261.971 543.49 259.72C543.435 259.58 543.436 259.425 543.491 259.286C543.547 259.146 543.654 259.034 543.79 258.97C543.931 258.914 544.088 258.914 544.228 258.972C544.368 259.03 544.48 259.141 544.54 259.28Z" fill="black"/>
<path d="M538.87 288.246C536.39 292.613 533.67 296.821 530.87 300.949C530.789 301.046 530.675 301.11 530.549 301.128C530.424 301.146 530.296 301.116 530.191 301.045C530.087 300.974 530.012 300.866 529.982 300.743C529.952 300.62 529.969 300.491 530.03 300.38C532.85 296.262 535.55 292.064 538.03 287.726C538.106 287.622 538.218 287.549 538.344 287.521C538.47 287.493 538.602 287.512 538.715 287.575C538.828 287.637 538.914 287.739 538.958 287.861C539.001 287.983 538.998 288.116 538.95 288.236L538.87 288.246Z" fill="black"/>
<path d="M521.91 313.033L512.49 324.716C512.418 324.807 512.314 324.865 512.199 324.878C512.085 324.891 511.97 324.858 511.88 324.786C511.79 324.715 511.732 324.61 511.719 324.496C511.706 324.382 511.738 324.267 511.81 324.177L521.15 312.463C521.189 312.414 521.237 312.374 521.291 312.344C521.345 312.314 521.405 312.295 521.467 312.288C521.529 312.281 521.591 312.286 521.651 312.303C521.711 312.32 521.766 312.349 521.815 312.388C521.864 312.427 521.904 312.474 521.934 312.529C521.964 312.583 521.983 312.643 521.99 312.705C521.997 312.766 521.992 312.829 521.975 312.889C521.958 312.948 521.929 313.004 521.89 313.053L521.91 313.033Z" fill="black"/>
<path d="M502.91 336.261C501.27 338.171 499.56 339.99 497.91 341.859C496.26 343.728 494.62 345.617 493.08 347.566C493.021 347.641 492.934 347.691 492.839 347.704C492.744 347.717 492.647 347.692 492.57 347.636C492.496 347.575 492.448 347.488 492.437 347.393C492.426 347.298 492.452 347.202 492.51 347.126C494.06 345.127 495.68 343.238 497.34 341.359C499 339.48 500.69 337.641 502.34 335.742C502.371 335.695 502.412 335.655 502.459 335.625C502.507 335.595 502.56 335.575 502.616 335.567C502.671 335.559 502.728 335.563 502.782 335.578C502.836 335.593 502.887 335.62 502.93 335.656C502.973 335.692 503.008 335.737 503.033 335.787C503.057 335.838 503.071 335.893 503.073 335.949C503.075 336.005 503.065 336.061 503.044 336.114C503.023 336.166 502.991 336.213 502.95 336.252L502.91 336.261Z" fill="black"/>
<path d="M486.051 360.508C485.796 361.7 485.735 362.925 485.871 364.136C486.018 365.337 486.413 366.494 487.031 367.535C488.4 369.576 490.336 371.174 492.601 372.132C492.634 372.148 492.664 372.17 492.689 372.198C492.714 372.225 492.733 372.257 492.746 372.292C492.758 372.327 492.764 372.364 492.762 372.4C492.76 372.437 492.751 372.474 492.736 372.507C492.72 372.541 492.698 372.571 492.67 372.596C492.643 372.62 492.611 372.64 492.576 372.652C492.541 372.665 492.504 372.67 492.467 372.669C492.43 372.667 492.394 372.658 492.361 372.642C489.981 371.656 487.949 369.987 486.521 367.845C485.843 366.736 485.409 365.496 485.251 364.206C485.102 362.93 485.159 361.637 485.421 360.378C485.429 360.337 485.445 360.298 485.469 360.263C485.493 360.227 485.523 360.197 485.559 360.174C485.594 360.151 485.633 360.135 485.675 360.127C485.717 360.119 485.759 360.12 485.801 360.128C485.842 360.136 485.881 360.151 485.916 360.174C485.951 360.196 485.981 360.226 486.004 360.26C486.028 360.295 486.044 360.334 486.052 360.375C486.06 360.415 486.059 360.458 486.051 360.498V360.508Z" fill="black"/>
<path d="M507.08 375.351C512.08 375.761 517.08 375.751 522.08 375.671C522.107 375.67 522.134 375.674 522.159 375.683C522.185 375.693 522.208 375.707 522.228 375.726C522.247 375.745 522.263 375.767 522.274 375.792C522.284 375.817 522.29 375.844 522.29 375.871C522.291 375.899 522.287 375.926 522.278 375.952C522.268 375.978 522.254 376.002 522.235 376.023C522.217 376.043 522.194 376.06 522.169 376.071C522.144 376.083 522.117 376.09 522.09 376.091C517.09 376.191 512.09 376.231 507.09 375.841C507.053 375.849 507.016 375.848 506.98 375.839C506.944 375.83 506.91 375.813 506.882 375.79C506.853 375.766 506.83 375.737 506.814 375.703C506.798 375.67 506.79 375.633 506.79 375.596C506.79 375.559 506.798 375.523 506.814 375.489C506.83 375.456 506.853 375.426 506.882 375.403C506.91 375.379 506.944 375.362 506.98 375.353C507.016 375.345 507.053 375.344 507.09 375.351H507.08Z" fill="black"/>
<path d="M537.049 375.611L552.049 375.351C552.085 375.353 552.12 375.369 552.146 375.395C552.171 375.42 552.187 375.455 552.189 375.491C552.189 375.509 552.186 375.527 552.178 375.543C552.171 375.56 552.161 375.574 552.148 375.587C552.134 375.599 552.119 375.608 552.102 375.614C552.085 375.62 552.067 375.622 552.049 375.621L537.049 375.951C537.026 375.952 537.003 375.949 536.981 375.941C536.959 375.933 536.939 375.921 536.922 375.905C536.906 375.889 536.892 375.87 536.883 375.849C536.874 375.827 536.869 375.804 536.869 375.781C536.869 375.736 536.887 375.693 536.919 375.661C536.951 375.629 536.994 375.611 537.039 375.611H537.049Z" fill="black"/>
<path d="M567.049 375.151L582.049 375.301C582.065 375.301 582.08 375.307 582.092 375.319C582.103 375.33 582.109 375.345 582.109 375.361C582.109 375.377 582.103 375.392 582.092 375.404C582.08 375.415 582.065 375.421 582.049 375.421L567.049 375.351C567.023 375.349 566.999 375.338 566.981 375.319C566.963 375.301 566.951 375.277 566.949 375.251C566.949 375.225 566.96 375.199 566.979 375.18C566.997 375.162 567.023 375.151 567.049 375.151Z" fill="black"/>
<path d="M597.029 376.091L606.029 377.001L597.029 376.141V376.091Z" fill="black"/>
<path fill-rule="evenodd" clip-rule="evenodd" d="M547.993 319.379C618.511 319.186 676.036 306.72 676.479 291.535C676.921 276.351 620.114 264.199 549.597 264.392C534.827 264.432 520.627 265.011 507.402 266.041L421.139 293.016C422.628 307.834 478.689 319.569 547.993 319.379Z" fill="black"/>
<path d="M421.111 292.235C421.104 292.496 421.113 292.757 421.139 293.016L507.402 266.041C457.486 269.926 421.461 280.231 421.111 292.235Z" fill="#F1EFED"/>
<path d="M421.139 293.016L420.144 293.147L421.139 293.016ZM675.479 291.538C675.433 293.1 674.656 294.721 673.018 296.397C671.376 298.078 668.928 299.749 665.705 301.375C659.261 304.625 649.922 307.591 638.332 310.102C615.169 315.122 583.232 318.283 548.022 318.379L547.964 320.378C583.272 320.282 615.357 317.113 638.696 312.055C650.358 309.528 659.89 306.518 666.56 303.154C669.894 301.473 672.564 299.678 674.428 297.77C676.296 295.857 677.413 293.767 677.479 291.533L675.479 291.538ZM549.568 265.391C584.777 265.295 616.535 268.282 639.409 273.175C650.854 275.623 660.021 278.538 666.277 281.753C669.406 283.362 671.757 285.02 673.301 286.692C674.841 288.36 675.524 289.977 675.479 291.538L677.479 291.533C677.544 289.298 676.548 287.214 674.791 285.311C673.038 283.413 670.473 281.633 667.236 279.969C660.761 276.641 651.403 273.683 639.887 271.219C616.839 266.289 584.934 263.296 549.626 263.392L549.568 265.391ZM548.022 318.379C513.419 318.474 482.149 315.591 459.369 310.846C447.973 308.473 438.748 305.643 432.303 302.512C429.079 300.946 426.592 299.324 424.88 297.68C423.165 296.034 422.29 294.427 422.135 292.885L420.144 293.147C420.361 295.31 421.563 297.311 423.47 299.142C425.379 300.975 428.057 302.7 431.382 304.315C438.032 307.546 447.434 310.416 458.901 312.804C481.85 317.584 513.263 320.473 547.964 320.378L548.022 318.379ZM422.135 292.885C422.113 292.668 422.105 292.45 422.111 292.232L420.111 292.238C420.103 292.542 420.113 292.846 420.144 293.147L422.135 292.885ZM422.111 292.232C422.183 289.76 424.112 287.127 428.246 284.459C432.334 281.821 438.323 279.32 445.928 277.051C461.122 272.517 482.529 268.977 507.448 267.037L507.356 265.044C482.36 266.99 460.796 270.546 445.412 275.136C437.726 277.43 431.524 279.998 427.199 282.79C422.92 285.552 420.214 288.708 420.111 292.238L422.111 292.232ZM507.448 267.037C520.647 266.01 534.822 265.432 549.568 265.391L549.626 263.392C534.832 263.433 520.607 264.013 507.356 265.044L507.448 267.037ZM421.41 293.969L507.673 266.994L507.132 265.088L420.868 292.063L421.41 293.969Z" fill="black"/>
<ellipse rx="126.707" ry="36.8769" transform="matrix(0.991072 0.13333 -0.266427 0.963855 554.415 270.303)" fill="#F1EFED" stroke="black" stroke-width="2" stroke-linejoin="round"/>
<path d="M471.204 256.869C471.954 256.959 472.581 257.188 473.082 257.557C473.596 257.927 473.929 258.436 474.083 259.084C474.24 259.721 474.181 260.473 473.905 261.343L472.4 266.096L470.702 265.893L472.197 261.174C472.436 260.419 472.394 259.79 472.07 259.288C471.747 258.786 471.234 258.493 470.531 258.409C470.054 258.352 469.581 258.42 469.112 258.613C468.643 258.806 468.23 259.095 467.873 259.48C467.532 259.854 467.287 260.276 467.138 260.745L465.698 265.293L464 265.089L467.831 252.991L469.44 253.184L467.962 257.852C468.434 257.493 468.958 257.223 469.535 257.043C470.111 256.862 470.668 256.804 471.204 256.869ZM480.391 258.149L477.675 266.729L475.977 266.525L478.694 257.945L480.391 258.149ZM481.585 254.729L480.988 256.617L479.093 256.39L479.691 254.502L481.585 254.729ZM491.035 263.486C490.803 264.218 490.415 264.86 489.869 265.412C489.323 265.964 488.64 266.363 487.82 266.609C488.341 266.838 488.682 267.128 488.843 267.48C489.016 267.833 489.033 268.227 488.895 268.662C488.678 269.348 488.238 269.878 487.577 270.249C486.923 270.634 486.185 270.777 485.363 270.679L482.986 270.394C482.176 270.296 481.576 270.005 481.185 269.519C480.795 269.033 480.705 268.458 480.915 267.794C481.205 266.879 481.956 266.304 483.168 266.069C482.579 265.702 482.194 265.181 482.012 264.506C481.842 263.832 481.871 263.135 482.099 262.414C482.335 261.671 482.739 261.019 483.312 260.458C483.901 259.887 484.591 259.466 485.383 259.192C486.174 258.919 486.975 258.831 487.785 258.928C488.929 259.065 489.766 259.605 490.296 260.547L490.671 259.363L492.28 259.556L491.035 263.486ZM485.698 265.696C486.234 265.76 486.755 265.698 487.26 265.509C487.765 265.32 488.201 265.034 488.57 264.651C488.951 264.269 489.223 263.821 489.386 263.306C489.545 262.803 489.563 262.336 489.44 261.905C489.328 261.476 489.094 261.122 488.738 260.841C488.381 260.561 487.935 260.389 487.399 260.325C486.6 260.229 485.859 260.401 485.176 260.842C484.508 261.272 484.052 261.871 483.81 262.637C483.563 263.415 483.615 264.092 483.964 264.669C484.325 265.246 484.903 265.589 485.698 265.696ZM485.633 269.357C486.014 269.403 486.361 269.344 486.673 269.179C486.996 269.016 487.203 268.792 487.294 268.506C487.392 268.197 487.348 267.924 487.163 267.688C486.978 267.452 486.689 267.311 486.296 267.264L484.187 267.011C483.794 266.964 483.439 267.028 483.124 267.204C482.809 267.38 482.602 267.622 482.504 267.931C482.414 268.217 482.463 268.472 482.651 268.697C482.852 268.923 483.143 269.059 483.524 269.104L485.633 269.357ZM500.151 260.34C500.902 260.43 501.528 260.659 502.03 261.028C502.543 261.398 502.877 261.907 503.03 262.555C503.187 263.191 503.128 263.944 502.853 264.814L501.348 269.567L499.65 269.364L501.144 264.645C501.383 263.89 501.341 263.261 501.018 262.759C500.694 262.257 500.181 261.964 499.478 261.88C499.002 261.823 498.529 261.891 498.06 262.084C497.59 262.277 497.177 262.566 496.82 262.951C496.479 263.325 496.234 263.747 496.086 264.216L494.646 268.764L492.948 268.56L496.779 256.462L498.387 256.655L496.909 261.323C497.382 260.964 497.906 260.694 498.483 260.514C499.059 260.333 499.615 260.275 500.151 260.34ZM511.467 261.696C512.384 261.806 513.122 262.091 513.682 262.55C514.254 263.01 514.613 263.612 514.762 264.354C514.914 265.084 514.843 265.913 514.55 266.84C514.474 267.08 514.412 267.257 514.363 267.37L507.036 266.491C506.945 267.169 507.093 267.757 507.479 268.254C507.882 268.742 508.434 269.028 509.137 269.112C510.293 269.25 511.243 268.943 511.989 268.189L513.741 268.399C513.201 269.166 512.463 269.76 511.525 270.182C510.591 270.592 509.636 270.739 508.659 270.622C507.789 270.518 507.062 270.235 506.479 269.773C505.899 269.3 505.52 268.702 505.34 267.98C505.164 267.246 505.21 266.456 505.479 265.61C505.747 264.763 506.184 264.026 506.791 263.398C507.402 262.759 508.112 262.292 508.923 261.997C509.749 261.692 510.597 261.592 511.467 261.696ZM510.974 263.134C510.271 263.049 509.597 263.188 508.95 263.55C508.316 263.913 507.834 264.42 507.505 265.069L512.991 265.727C513.137 265.032 513.019 264.448 512.637 263.974C512.267 263.502 511.713 263.222 510.974 263.134ZM523.514 263.141C523.8 263.175 524.062 263.225 524.302 263.289L523.796 264.885C523.596 264.813 523.264 264.75 522.799 264.694C522.275 264.631 521.774 264.69 521.297 264.87C520.831 265.052 520.423 265.323 520.074 265.685C519.74 266.037 519.5 266.442 519.355 266.899L517.883 271.55L516.185 271.346L518.902 262.766L520.51 262.959L520.092 264.28C520.571 263.863 521.108 263.553 521.703 263.351C522.314 263.14 522.918 263.07 523.514 263.141ZM534.599 266.251L533.164 270.782C533.048 271.148 533.049 271.439 533.166 271.655C533.295 271.872 533.586 272.008 534.039 272.062C534.468 272.114 534.842 272.123 535.162 272.09L534.689 273.583C534.335 273.647 533.925 273.652 533.46 273.596C531.566 273.369 530.901 272.363 531.467 270.578L532.901 266.048L531.114 265.833L531.603 264.289L533.39 264.503L534.096 262.272L535.794 262.476L535.088 264.707L537.59 265.007L537.101 266.551L534.599 266.251ZM545.061 265.725C545.347 265.759 545.61 265.808 545.849 265.873L545.344 267.468C545.144 267.397 544.811 267.333 544.347 267.278C543.823 267.215 543.322 267.274 542.844 267.454C542.378 267.635 541.971 267.907 541.621 268.269C541.287 268.621 541.048 269.026 540.903 269.483L539.43 274.134L537.733 273.93L540.449 265.35L542.058 265.543L541.64 266.864C542.118 266.446 542.655 266.137 543.251 265.935C543.862 265.723 544.465 265.653 545.061 265.725ZM556.09 267.225L553.373 275.805L551.675 275.602L552.082 274.315C551.568 274.728 551.007 275.035 550.4 275.235C549.796 275.424 549.196 275.483 548.6 275.411C547.814 275.317 547.159 275.042 546.635 274.588C546.115 274.122 545.777 273.529 545.621 272.81C545.465 272.09 545.523 271.302 545.795 270.444C546.067 269.586 546.494 268.841 547.077 268.211C547.66 267.58 548.333 267.114 549.096 266.814C549.863 266.502 550.639 266.394 551.426 266.488C552.045 266.562 552.58 266.769 553.029 267.108C553.478 267.446 553.815 267.885 554.041 268.422L554.481 267.032L556.09 267.225ZM549.364 273.935C549.888 273.998 550.405 273.93 550.914 273.729C551.422 273.529 551.866 273.22 552.246 272.803C552.629 272.373 552.909 271.879 553.087 271.318C553.264 270.758 553.305 270.24 553.208 269.765C553.114 269.279 552.893 268.884 552.544 268.581C552.194 268.278 551.758 268.095 551.233 268.032C550.709 267.969 550.199 268.039 549.702 268.24C549.205 268.442 548.765 268.757 548.382 269.187C548.003 269.604 547.724 270.093 547.547 270.654C547.369 271.214 547.327 271.738 547.42 272.224C547.517 272.699 547.735 273.087 548.072 273.389C548.409 273.69 548.84 273.873 549.364 273.935ZM564.458 268.051C565.185 268.138 565.788 268.364 566.265 268.73C566.755 269.098 567.07 269.605 567.212 270.251C567.369 270.887 567.31 271.64 567.035 272.51L565.53 277.263L563.832 277.059L565.326 272.34C565.565 271.585 565.523 270.957 565.2 270.455C564.876 269.953 564.363 269.66 563.66 269.576C563.148 269.514 562.657 269.58 562.188 269.773C561.734 269.956 561.337 270.235 560.995 270.61C560.666 270.986 560.427 271.409 560.279 271.878L558.828 276.459L557.13 276.256L559.847 267.676L561.455 267.869L561.021 269.241C561.503 268.812 562.043 268.491 562.643 268.278C563.257 268.055 563.863 267.979 564.458 268.051ZM572.197 278.241C571.077 278.106 570.21 277.741 569.595 277.145C568.995 276.539 568.779 275.776 568.946 274.858L570.644 275.062C570.643 275.572 570.813 275.973 571.154 276.263C571.51 276.543 572.034 276.725 572.725 276.808C573.369 276.885 573.918 276.85 574.372 276.702C574.831 276.544 575.111 276.304 575.212 275.984C575.314 275.663 575.256 275.395 575.04 275.179C574.84 274.954 574.394 274.74 573.704 274.538L572.739 274.245C570.711 273.621 569.901 272.663 570.31 271.371C570.549 270.615 571.087 270.051 571.923 269.676C572.762 269.29 573.742 269.164 574.862 269.298C575.875 269.419 576.666 269.752 577.236 270.295C577.81 270.827 578.065 271.505 578.002 272.328L576.197 272.112C576.163 271.752 575.972 271.456 575.625 271.224C575.281 270.981 574.865 270.83 574.377 270.772C573.757 270.697 573.234 270.73 572.807 270.868C572.395 270.997 572.14 271.216 572.042 271.525C571.955 271.799 572.02 272.045 572.236 272.26C572.456 272.465 572.855 272.649 573.433 272.814L574.416 273.11C575.569 273.45 576.326 273.873 576.685 274.379C577.048 274.874 577.117 275.476 576.892 276.185C576.653 276.94 576.108 277.51 575.256 277.895C574.42 278.27 573.401 278.385 572.197 278.241ZM586.582 270.703C587.369 270.798 588.022 271.078 588.542 271.544C589.066 271.999 589.406 272.586 589.561 273.305C589.717 274.024 589.659 274.813 589.387 275.671C589.116 276.529 588.688 277.273 588.105 277.904C587.522 278.534 586.847 279.006 586.081 279.318C585.318 279.618 584.543 279.721 583.757 279.627C583.161 279.555 582.641 279.362 582.196 279.048C581.755 278.722 581.423 278.308 581.198 277.806L579.867 282.01L578.169 281.807L581.81 270.309L583.418 270.502L582.978 271.892C583.515 271.446 584.095 271.118 584.718 270.907C585.341 270.697 585.963 270.629 586.582 270.703ZM583.949 278.082C584.473 278.145 584.984 278.076 585.48 277.874C585.977 277.672 586.415 277.363 586.795 276.945C587.178 276.516 587.458 276.021 587.636 275.461C587.813 274.9 587.854 274.382 587.757 273.908C587.663 273.422 587.448 273.028 587.11 272.726C586.773 272.424 586.342 272.242 585.818 272.179C585.294 272.116 584.777 272.185 584.269 272.385C583.76 272.585 583.314 272.9 582.931 273.329C582.552 273.747 582.273 274.236 582.096 274.796C581.918 275.357 581.876 275.88 581.969 276.367C582.066 276.841 582.289 277.23 582.639 277.533C582.988 277.836 583.425 278.019 583.949 278.082ZM601.918 272.72L599.201 281.3L597.503 281.097L597.911 279.81C597.396 280.223 596.835 280.53 596.228 280.73C595.624 280.919 595.024 280.978 594.428 280.906C593.642 280.812 592.987 280.538 592.463 280.083C591.943 279.617 591.605 279.024 591.449 278.305C591.294 277.585 591.352 276.797 591.623 275.939C591.895 275.081 592.322 274.336 592.905 273.706C593.489 273.075 594.162 272.61 594.925 272.309C595.691 271.997 596.468 271.889 597.254 271.983C597.873 272.057 598.408 272.264 598.857 272.603C599.306 272.941 599.644 273.38 599.869 273.917L600.309 272.527L601.918 272.72ZM595.192 279.43C595.717 279.493 596.233 279.425 596.742 279.224C597.25 279.024 597.694 278.715 598.074 278.298C598.457 277.869 598.738 277.374 598.915 276.813C599.093 276.253 599.133 275.735 599.036 275.26C598.942 274.774 598.721 274.379 598.372 274.076C598.023 273.773 597.586 273.59 597.062 273.527C596.537 273.464 596.027 273.534 595.53 273.736C595.034 273.937 594.594 274.253 594.21 274.682C593.831 275.099 593.552 275.588 593.375 276.149C593.197 276.709 593.155 277.233 593.249 277.719C593.346 278.194 593.563 278.582 593.9 278.884C594.237 279.185 594.668 279.368 595.192 279.43ZM610.287 273.546C610.573 273.58 610.835 273.629 611.075 273.693L610.569 275.289C610.369 275.218 610.037 275.154 609.572 275.099C609.048 275.036 608.547 275.094 608.07 275.275C607.604 275.456 607.196 275.728 606.847 276.09C606.513 276.442 606.273 276.846 606.129 277.304L604.656 281.955L602.958 281.751L605.675 273.171L607.284 273.364L606.865 274.685C607.344 274.267 607.881 273.958 608.476 273.756C609.088 273.544 609.691 273.474 610.287 273.546ZM617.009 274.352C617.926 274.462 618.665 274.746 619.224 275.205C619.796 275.665 620.156 276.267 620.304 277.009C620.456 277.74 620.385 278.568 620.092 279.495C620.016 279.735 619.954 279.912 619.906 280.025L612.578 279.146C612.487 279.824 612.635 280.412 613.022 280.909C613.424 281.397 613.976 281.683 614.679 281.767C615.835 281.906 616.786 281.598 617.531 280.844L619.283 281.054C618.743 281.821 618.005 282.415 617.067 282.837C616.133 283.248 615.178 283.394 614.201 283.277C613.331 283.173 612.605 282.89 612.021 282.428C611.441 281.955 611.062 281.357 610.882 280.635C610.706 279.901 610.753 279.111 611.021 278.265C611.289 277.418 611.726 276.681 612.333 276.053C612.944 275.414 613.654 274.947 614.465 274.652C615.291 274.347 616.139 274.247 617.009 274.352ZM616.516 275.789C615.814 275.704 615.139 275.843 614.492 276.205C613.858 276.568 613.376 277.075 613.047 277.724L618.534 278.382C618.679 277.687 618.561 277.103 618.18 276.629C617.81 276.158 617.255 275.877 616.516 275.789ZM629.056 275.796C629.783 275.883 630.385 276.11 630.862 276.476C631.352 276.843 631.668 277.35 631.809 277.997C631.967 278.633 631.907 279.386 631.632 280.255L630.127 285.009L628.429 284.805L629.923 280.086C630.163 279.331 630.12 278.702 629.797 278.201C629.474 277.699 628.96 277.406 628.257 277.321C627.745 277.26 627.254 277.326 626.785 277.519C626.331 277.702 625.934 277.981 625.593 278.355C625.263 278.732 625.024 279.154 624.876 279.623L623.425 284.205L621.727 284.001L624.444 275.421L626.053 275.614L625.618 276.987C626.1 276.558 626.641 276.237 627.24 276.024C627.855 275.801 628.46 275.725 629.056 275.796ZM634.258 281.051C634.518 280.227 634.964 279.503 635.595 278.878C636.229 278.242 636.972 277.772 637.821 277.471C638.675 277.157 639.543 277.054 640.424 277.159C641.413 277.278 642.212 277.665 642.821 278.319C643.445 278.964 643.741 279.748 643.709 280.67L641.85 280.447C641.793 279.965 641.579 279.566 641.21 279.248C640.856 278.921 640.405 278.724 639.857 278.659C639.297 278.592 638.755 278.663 638.231 278.873C637.71 279.072 637.252 279.385 636.857 279.813C636.466 280.229 636.183 280.712 636.009 281.261C635.835 281.81 635.801 282.328 635.906 282.816C636.015 283.292 636.248 283.688 636.606 284.004C636.967 284.309 637.428 284.495 637.988 284.562C638.536 284.628 639.072 284.555 639.596 284.345C640.136 284.125 640.579 283.798 640.927 283.365L642.785 283.587C642.253 284.45 641.498 285.113 640.523 285.578C639.562 286.033 638.588 286.201 637.599 286.083C636.717 285.977 635.974 285.686 635.371 285.21C634.771 284.722 634.369 284.116 634.166 283.391C633.966 282.655 633.997 281.875 634.258 281.051ZM655.81 279.182L646.933 290.052L645.092 289.831L647.477 286.929L645.784 277.98L647.804 278.222L648.919 285.303L653.934 278.957L655.81 279.182Z" fill="black"/>
<path fill-rule="evenodd" clip-rule="evenodd" d="M18.3593 87.5051C23.2053 105.417 78.4074 113.095 141.657 104.652C164.85 101.556 185.905 96.723 203.032 90.9593C224.055 83.8848 239.159 75.4088 245.037 67.0244C247.429 63.6119 248.293 60.2145 247.405 56.933L124.108 39.7857C110.373 41.619 97.3887 44.0616 85.5255 46.9458C65.4398 51.8292 48.569 57.9788 36.7166 64.5806C23.3321 72.0359 16.3473 80.068 18.3593 87.5051Z" fill="black"/>
<path d="M124.108 39.7857C187.357 31.3435 242.559 39.0206 247.405 56.933L124.108 39.7857Z" fill="#F1EFED"/>
<path d="M36.7166 64.5806L37.3113 65.4368L36.7166 64.5806ZM203.032 90.9593L202.59 90.036L203.032 90.9593ZM85.5255 46.9458L85.8893 47.8919L85.5255 46.9458ZM245.037 67.0244L244.163 66.4189L245.037 67.0244ZM141.396 103.687C109.837 107.899 80.3238 108.084 58.1328 104.998C47.0302 103.454 37.8211 101.099 31.1209 98.0579C24.3838 95.0001 20.4317 91.3689 19.3505 87.3727L17.3681 87.6374C18.71 92.5974 23.4753 96.643 30.4281 99.7987C37.4178 102.971 46.8709 105.367 58.0807 106.926C80.5146 110.045 110.227 109.848 141.918 105.618L141.396 103.687ZM124.369 40.751C155.927 36.5388 185.441 36.3541 207.632 39.4402C218.734 40.9843 227.944 43.3391 234.644 46.3801C241.381 49.4379 245.333 53.0691 246.414 57.0653L248.396 56.8007C247.055 51.8407 242.289 47.795 235.336 44.6393C228.347 41.4669 218.894 39.0715 207.684 37.5125C185.25 34.3926 155.538 34.5904 123.847 38.8204L124.369 40.751ZM19.3505 87.3727C18.4533 84.0562 19.5216 80.4664 22.6017 76.7038C25.6767 72.9476 30.6672 69.1377 37.3113 65.4368L36.1219 63.7245C29.3815 67.4789 24.1874 71.4127 20.9269 75.3956C17.6715 79.3721 16.2534 83.5169 17.3681 87.6374L19.3505 87.3727ZM202.59 90.036C185.529 95.7776 164.535 100.598 141.396 103.687L141.918 105.618C165.165 102.515 186.282 97.6685 203.475 91.8826L202.59 90.036ZM37.3113 65.4368C49.0692 58.8876 65.8538 52.7631 85.8893 47.8919L85.1617 45.9998C65.0257 50.8954 48.0688 57.0699 36.1219 63.7245L37.3113 65.4368ZM85.8893 47.8919C97.7175 45.0161 110.668 42.5798 124.369 40.751L123.847 38.8204C110.079 40.6581 97.0599 43.107 85.1617 45.9998L85.8893 47.8919ZM246.414 57.0653C247.206 59.9929 246.468 63.1297 244.163 66.4189L245.911 67.63C248.39 64.094 249.38 60.4361 248.396 56.8007L246.414 57.0653ZM244.163 66.4189C241.325 70.4663 236.203 74.6068 229.113 78.6303C222.037 82.6462 213.062 86.5119 202.59 90.036L203.475 91.8826C214.025 88.3322 223.113 84.4227 230.315 80.3358C237.502 76.2566 242.871 71.9669 245.911 67.63L244.163 66.4189ZM247.431 55.9691L124.134 38.8219L124.082 40.7496L247.379 57.8968L247.431 55.9691Z" fill="black"/>
<ellipse rx="113.524" ry="34.8411" transform="matrix(0.967 -0.254775 0.471117 0.882071 126.192 59.6555)" fill="#F1EFED" stroke="black" stroke-width="2" stroke-linejoin="round"/>
<path d="M44.1008 74.9382L46.3253 83.6585L44.6687 84.0826L42.4442 75.3623L44.1008 74.9382ZM43.3157 71.4233L43.805 73.3418L41.9566 73.815L41.4672 71.8965L43.3157 71.4233ZM58.441 71.081C59.1386 70.9024 59.7991 70.8943 60.4226 71.0567C61.0578 71.2161 61.6109 71.5638 62.082 72.0997C62.5617 72.6209 62.9143 73.3234 63.1397 74.207L64.3721 79.0381L62.7154 79.4622L61.492 74.6661C61.2962 73.8987 60.9196 73.3448 60.3622 73.0045C59.8163 72.6611 59.2121 72.5743 58.5494 72.744C57.8286 72.9285 57.3126 73.3331 57.0013 73.9578C56.6901 74.5825 56.6293 75.2669 56.8192 76.0111L58.007 80.6677L56.3504 81.0918L55.1269 76.2957C54.9312 75.5283 54.5546 74.9744 53.9971 74.6341C53.4513 74.2907 52.8471 74.2039 52.1844 74.3736C51.4636 74.5581 50.9476 74.9627 50.6363 75.5874C50.325 76.2121 50.2643 76.8965 50.4541 77.6406L51.642 82.2973L49.9854 82.7214L47.7609 74.0011L49.3303 73.5993L49.6818 74.9771C49.8741 74.4201 50.1788 73.9395 50.5959 73.5354C51.0246 73.1284 51.518 72.8534 52.076 72.7106C52.7619 72.535 53.4166 72.5284 54.0401 72.6908C54.6723 72.8386 55.2137 73.1645 55.6643 73.6684C55.865 73.0473 56.2101 72.5068 56.6997 72.047C57.1979 71.5726 57.7784 71.2506 58.441 71.081ZM70.1877 68.0735C70.955 67.8771 71.703 67.8962 72.4316 68.1308C73.1573 68.3537 73.7878 68.7621 74.3232 69.3558C74.8586 69.9495 75.2375 70.6824 75.46 71.5544C75.6824 72.4265 75.7009 73.2516 75.5155 74.0299C75.3301 74.8081 74.9739 75.4753 74.447 76.0313C73.9171 76.5758 73.2685 76.9462 72.5012 77.1426C71.9199 77.2915 71.3409 77.3035 70.7641 77.1786C70.1844 77.0422 69.655 76.7875 69.1759 76.4147L70.2659 80.6877L68.6093 81.1118L65.6285 69.4266L67.1979 69.0248L67.5583 70.4375C67.8028 69.8423 68.151 69.3382 68.603 68.9252C69.055 68.5122 69.5832 68.2283 70.1877 68.0735ZM71.8307 75.6793C72.3422 75.5483 72.7688 75.3029 73.1104 74.9429C73.4521 74.5829 73.6813 74.1465 73.7982 73.6335C73.912 73.1089 73.8963 72.5617 73.751 71.992C73.6056 71.4222 73.3589 70.9404 73.0107 70.5465C72.6595 70.1409 72.2479 69.8623 71.7757 69.7107C71.3036 69.5591 70.8118 69.5488 70.3002 69.6797C69.7887 69.8107 69.3563 70.0577 69.003 70.4206C68.6498 70.7836 68.4162 71.2273 68.3023 71.7519C68.1855 72.2649 68.1997 72.8063 68.3451 73.376C68.4904 73.9457 68.7386 74.4334 69.0898 74.8389C69.438 75.2329 69.854 75.5041 70.3377 75.6528C70.8215 75.8014 71.3192 75.8103 71.8307 75.6793ZM81.6315 65.1437C81.9105 65.0722 82.1765 65.0227 82.4295 64.9951L82.8433 66.6171C82.6222 66.6241 82.2849 66.6857 81.8315 66.8018C81.32 66.9328 80.8962 67.1651 80.5603 67.4988C80.236 67.8296 80.0138 68.2209 79.8937 68.6728C79.7823 69.1101 79.786 69.5612 79.9046 70.0263L81.1103 74.7527L79.4536 75.1769L77.2291 66.4566L78.7986 66.0548L79.1412 67.3977C79.348 66.8493 79.6673 66.3773 80.099 65.9819C80.5394 65.5719 81.0502 65.2925 81.6315 65.1437ZM90.6782 72.4889C89.8179 72.7092 88.9828 72.7124 88.1728 72.4987C87.3598 72.2733 86.6624 71.8697 86.0805 71.2878C85.4956 70.6944 85.0964 69.9791 84.8828 69.142C84.6693 68.3048 84.6785 67.4911 84.9104 66.701C85.1393 65.8992 85.5579 65.2098 86.1663 64.633C86.7716 64.0444 87.5044 63.6401 88.3647 63.4198C89.2134 63.2025 90.0384 63.2081 90.8398 63.4364C91.6498 63.6502 92.3472 64.0538 92.9321 64.6472C93.514 65.2291 93.9117 65.9385 94.1252 66.7757C94.3388 67.6128 94.3311 68.4323 94.1022 69.2341C93.8703 70.0243 93.4516 70.7136 92.8463 71.3021C92.2496 71.876 91.5269 72.2716 90.6782 72.4889ZM90.2867 70.9541C90.8215 70.8172 91.2771 70.5643 91.6537 70.1954C92.0272 69.8149 92.284 69.3652 92.4241 68.8462C92.5613 68.3157 92.5586 67.7713 92.4163 67.2132C92.2739 66.6551 92.017 66.1821 91.6456 65.7941C91.2712 65.3945 90.8304 65.1234 90.3234 64.9807C89.8134 64.8264 89.291 64.8177 88.7563 64.9546C88.2098 65.0945 87.7441 65.3562 87.3589 65.7397C86.9824 66.1086 86.7255 66.5583 86.5884 67.0889C86.4483 67.6078 86.4495 68.1463 86.5918 68.7044C86.7342 69.2625 86.9926 69.7414 87.367 70.141C87.7384 70.5289 88.1791 70.8001 88.6891 70.9544C89.2078 71.0941 89.7403 71.094 90.2867 70.9541ZM103.983 59.6069L102.458 69.2871L100.296 69.8407L94.3222 62.0803L96.1707 61.6071L100.994 67.9156L102.187 60.0668L103.983 59.6069ZM109.723 57.9517C110.618 57.7225 111.446 57.7149 112.206 57.9289C112.979 58.14 113.635 58.554 114.177 59.171C114.715 59.7763 115.104 60.5499 115.344 61.4917C115.407 61.7359 115.447 61.9176 115.465 62.0368L108.315 63.8673C108.603 64.5119 109.06 64.9897 109.684 65.3005C110.317 65.5968 110.976 65.6571 111.662 65.4815C112.79 65.1928 113.487 64.5747 113.753 63.6271L115.462 63.1896C115.39 64.0749 115.044 64.8759 114.421 65.5926C113.796 66.2977 113.007 66.7722 112.054 67.0163C111.205 67.2336 110.389 67.2382 109.605 67.0301C108.818 66.8104 108.146 66.4066 107.587 65.8189C107.025 65.2195 106.635 64.4896 106.415 63.6292C106.196 62.7688 106.19 61.9464 106.399 61.1622C106.605 60.3664 106.996 59.6903 107.572 59.134C108.157 58.563 108.874 58.1689 109.723 57.9517ZM110.062 59.4256C109.376 59.6012 108.838 59.9681 108.448 60.5263C108.069 61.0815 107.908 61.7112 107.963 62.4153L113.317 61.0447C113.069 60.3649 112.642 59.8797 112.035 59.5891C111.44 59.2956 110.782 59.2411 110.062 59.4256ZM124.183 50.6265L127.319 62.9221L125.663 63.3462L125.329 62.0382C125.087 62.5955 124.745 63.0734 124.302 63.4718C123.855 63.8586 123.342 64.1263 122.76 64.2752C121.993 64.4716 121.246 64.4583 120.521 64.2354C119.792 64.0008 119.16 63.5866 118.625 62.9929C118.089 62.3992 117.71 61.6663 117.488 60.7943C117.266 59.9222 117.247 59.0971 117.432 58.3188C117.618 57.5406 117.975 56.8792 118.505 56.3348C119.032 55.7788 119.679 55.4025 120.447 55.2061C121.051 55.0513 121.651 55.0465 122.245 55.1916C122.839 55.3367 123.386 55.6116 123.886 56.0163L122.613 51.0283L124.183 50.6265ZM122.648 62.669C123.159 62.538 123.592 62.291 123.945 61.9281C124.298 61.5651 124.533 61.1272 124.65 60.6142C124.764 60.0896 124.748 59.5424 124.603 58.9727C124.458 58.403 124.211 57.9211 123.863 57.5272C123.511 57.1217 123.094 56.8446 122.61 56.6959C122.126 56.5473 121.629 56.5384 121.117 56.6694C120.606 56.8004 120.179 57.0458 119.838 57.4058C119.496 57.7658 119.268 58.2081 119.154 58.7327C119.037 59.2457 119.052 59.787 119.197 60.3567C119.342 60.9265 119.591 61.4141 119.942 61.8197C120.29 62.2136 120.7 62.4864 121.172 62.638C121.644 62.7896 122.136 62.7999 122.648 62.669ZM139.859 59.8975C138.766 60.1773 137.776 60.1582 136.89 59.84C136.013 59.5073 135.399 58.8966 135.048 58.0078L136.705 57.5836C136.984 58.0449 137.357 58.3455 137.827 58.4855C138.304 58.6109 138.881 58.5873 139.555 58.4147C140.183 58.2539 140.663 58.0256 140.996 57.7298C141.327 57.4223 141.45 57.1057 141.367 56.7802C141.284 56.4546 141.085 56.233 140.77 56.1155C140.464 55.9833 139.942 55.9498 139.203 56.0151L138.164 56.0952C135.977 56.2589 134.715 55.6838 134.38 54.37C134.185 53.6026 134.364 52.9 134.92 52.2623C135.473 51.613 136.296 51.1484 137.388 50.8686C138.377 50.6156 139.279 50.6324 140.095 50.9189C140.908 51.1937 141.512 51.7143 141.905 52.4806L140.144 52.9315C139.915 52.6184 139.58 52.4195 139.137 52.3346C138.691 52.2382 138.23 52.2509 137.754 52.373C137.149 52.5278 136.69 52.7443 136.377 53.0226C136.073 53.2863 135.961 53.5751 136.041 53.889C136.112 54.1681 136.305 54.3664 136.62 54.484C136.932 54.5899 137.396 54.6135 138.013 54.5547L139.069 54.4702C140.305 54.3642 141.225 54.4755 141.829 54.8039C142.43 55.1208 142.822 55.6396 143.006 56.3605C143.202 57.1279 143.018 57.8377 142.454 58.49C141.898 59.1278 141.033 59.5969 139.859 59.8975ZM147.985 48.1556C148.88 47.9264 149.708 47.9188 150.469 48.1329C151.241 48.3439 151.898 48.7579 152.439 49.3749C152.977 49.9803 153.367 50.7538 153.607 51.6956C153.669 51.9398 153.709 52.1215 153.727 52.2408L146.578 54.0713C146.866 54.7159 147.322 55.1936 147.946 55.5045C148.579 55.8007 149.239 55.8611 149.925 55.6854C151.052 55.3967 151.749 54.7786 152.015 53.831L153.724 53.3935C153.653 54.2788 153.306 55.0798 152.684 55.7965C152.059 56.5016 151.269 56.9761 150.316 57.2202C149.467 57.4375 148.651 57.4421 147.867 57.234C147.081 57.0143 146.408 56.6106 145.849 56.0228C145.288 55.4234 144.897 54.6935 144.678 53.8331C144.458 52.9727 144.453 52.1504 144.661 51.3662C144.867 50.5703 145.258 49.8942 145.835 49.3379C146.42 48.767 147.137 48.3729 147.985 48.1556ZM148.324 49.6295C147.638 49.8051 147.1 50.172 146.71 50.7302C146.331 51.2854 146.17 51.9151 146.226 52.6192L151.579 51.2486C151.332 50.5688 150.904 50.0836 150.298 49.7931C149.703 49.4995 149.045 49.445 148.324 49.6295ZM155.75 50.9982C155.537 50.1611 155.546 49.3474 155.778 48.5572C156.007 47.7554 156.426 47.0661 157.034 46.4892C157.639 45.9007 158.372 45.4963 159.232 45.2761C160.197 45.029 161.136 45.0921 162.049 45.4654C162.97 45.8241 163.668 46.4256 164.144 47.27L162.33 47.7344C162.014 47.3199 161.601 47.0355 161.091 46.8812C160.589 46.7122 160.071 46.6962 159.537 46.8331C158.99 46.973 158.536 47.2318 158.174 47.6093C157.809 47.9752 157.564 48.422 157.439 48.9496C157.31 49.4655 157.317 50.0026 157.459 50.5607C157.602 51.1188 157.854 51.5991 158.217 52.0017C158.577 52.3926 159.006 52.6668 159.504 52.824C160 52.9697 160.521 52.9726 161.067 52.8327C161.602 52.6958 162.05 52.4386 162.412 52.061C162.783 51.6689 163.008 51.2149 163.087 50.6993L164.9 50.2349C164.887 51.2043 164.564 52.0736 163.931 52.8428C163.306 53.5973 162.511 54.0981 161.546 54.3452C160.686 54.5654 159.85 54.5687 159.04 54.3549C158.227 54.1295 157.53 53.7259 156.948 53.1441C156.363 52.5506 155.964 51.8353 155.75 50.9982ZM173.972 41.6881L176.197 50.4083L174.627 50.8102L174.272 49.4149C174.068 49.975 173.747 50.4658 173.31 50.8874C172.881 51.2945 172.376 51.5724 171.795 51.7212C171.085 51.9028 170.407 51.9153 169.761 51.7589C169.126 51.5995 168.562 51.2606 168.071 50.7423C167.588 50.2094 167.234 49.5011 167.009 48.6175L165.776 43.7864L167.433 43.3623L168.656 48.1585C168.852 48.9258 169.235 49.4782 169.804 49.8156C170.373 50.153 171 50.2338 171.686 50.0582C172.186 49.9303 172.592 49.7024 172.905 49.3746C173.226 49.0322 173.434 48.6322 173.528 48.1747C173.633 47.7142 173.625 47.2455 173.504 46.7688L172.316 42.1122L173.972 41.6881ZM182.039 39.4371C182.318 39.3656 182.584 39.3161 182.837 39.2885L183.251 40.9104C183.03 40.9175 182.692 40.9791 182.239 41.0952C181.727 41.2261 181.304 41.4585 180.968 41.7922C180.643 42.123 180.421 42.5143 180.301 42.9662C180.19 43.4034 180.193 43.8546 180.312 44.3197L181.518 49.0461L179.861 49.4702L177.637 40.75L179.206 40.3481L179.549 41.6911C179.755 41.1426 180.075 40.6707 180.506 40.2753C180.947 39.8653 181.458 39.5859 182.039 39.4371ZM187.147 38.315L189.372 47.0353L187.715 47.4594L185.491 38.7391L187.147 38.315ZM186.362 34.8001L186.852 36.7185L185.003 37.1918L184.514 35.2733L186.362 34.8001ZM193.388 38.3895L194.562 42.9938C194.657 43.3659 194.823 43.6269 195.059 43.777C195.307 43.924 195.67 43.9365 196.146 43.8145C196.588 43.7014 196.963 43.5683 197.27 43.4152L197.657 44.9325C197.347 45.1235 196.959 45.2785 196.494 45.3975C195.541 45.6416 194.762 45.5994 194.158 45.271C193.551 44.9309 193.134 44.3132 192.905 43.4179L191.731 38.8136L189.987 39.2601L189.587 37.6904L191.33 37.244L190.752 34.9767L192.409 34.5526L192.987 36.8198L197.347 35.7037L197.747 37.2733L193.388 38.3895ZM206.457 33.3711L204.329 46.3645L202.533 46.8243L203.114 43.3498L196.674 35.8758L198.645 35.3713L203.536 41.365L204.626 33.8399L206.457 33.3711Z" fill="black"/>
<path fill-rule="evenodd" clip-rule="evenodd" d="M111.195 229.982C111.971 252.251 158.605 269.14 215.355 267.705C244.144 266.976 270.006 261.672 288.4 253.715C306.265 245.987 317.087 235.756 316.704 224.784L271.825 192.881C268.779 192.125 265.617 191.434 262.349 190.813C247.525 187.994 230.543 186.606 212.544 187.062C155.794 188.497 110.418 207.713 111.195 229.982Z" fill="black"/>
<path d="M316.704 224.784C317.087 235.756 306.265 245.987 288.4 253.715C270.006 261.672 244.144 266.976 215.355 267.705C158.605 269.14 111.971 252.251 111.195 229.982C110.418 207.713 155.794 188.497 212.544 187.062C230.543 186.606 247.525 187.994 262.349 190.813C265.617 191.434 268.779 192.125 271.825 192.881M316.704 224.784C316.228 211.135 298.525 199.507 271.825 192.881M316.704 224.784L271.825 192.881" stroke="black" stroke-width="2"/>
<ellipse rx="101.599" ry="33.0492" transform="matrix(0.963288 -0.268703 0.322846 0.94638 206.317 206.112)" fill="#F1EFED" stroke="black" stroke-width="2" stroke-linejoin="round"/>
<path d="M136.361 224.379L139.08 232.958L137.45 233.474L134.73 224.895L136.361 224.379ZM135.376 220.915L135.974 222.802L134.155 223.378L133.557 221.491L135.376 220.915ZM144.284 221.681C144.982 221.46 145.653 221.411 146.296 221.534C146.951 221.654 147.535 221.966 148.047 222.471C148.568 222.961 148.966 223.64 149.241 224.51L150.748 229.262L149.118 229.779L147.622 225.06C147.382 224.305 146.969 223.776 146.381 223.471C145.794 223.166 145.162 223.121 144.487 223.334C143.995 223.49 143.599 223.748 143.297 224.108C143.004 224.452 142.817 224.858 142.738 225.323C142.671 225.785 142.711 226.251 142.86 226.719L144.313 231.3L142.682 231.817L139.962 223.238L141.507 222.749L141.942 224.122C142.114 223.551 142.402 223.051 142.807 222.62C143.22 222.175 143.712 221.862 144.284 221.681ZM157.257 227.389C156.181 227.73 155.192 227.766 154.289 227.499C153.394 227.216 152.745 226.641 152.344 225.773L153.975 225.257C154.279 225.702 154.67 225.981 155.147 226.094C155.631 226.193 156.205 226.137 156.869 225.926C157.486 225.731 157.953 225.476 158.269 225.162C158.581 224.836 158.687 224.514 158.585 224.193C158.484 223.873 158.272 223.663 157.951 223.563C157.638 223.449 157.114 223.445 156.38 223.551L155.347 223.69C153.172 223.976 151.879 223.473 151.47 222.18C151.23 221.425 151.37 220.714 151.888 220.046C152.403 219.367 153.198 218.857 154.274 218.517C155.246 218.209 156.148 218.175 156.98 218.415C157.808 218.643 158.44 219.129 158.877 219.872L157.144 220.421C156.897 220.121 156.551 219.941 156.104 219.882C155.653 219.81 155.193 219.849 154.724 219.998C154.129 220.186 153.684 220.428 153.387 220.723C153.098 221.003 153.003 221.298 153.101 221.607C153.188 221.881 153.392 222.068 153.713 222.168C154.031 222.256 154.496 222.254 155.108 222.161L156.158 222.017C157.386 221.842 158.312 221.901 158.934 222.195C159.552 222.477 159.973 222.973 160.198 223.682C160.438 224.437 160.294 225.156 159.768 225.839C159.249 226.507 158.412 227.023 157.257 227.389ZM163.603 217.45L165.039 221.979C165.155 222.345 165.329 222.598 165.563 222.739C165.807 222.875 166.147 222.874 166.582 222.737C166.994 222.606 167.332 222.461 167.596 222.302L168.069 223.795C167.793 223.996 167.432 224.167 166.986 224.308C165.166 224.884 163.974 224.28 163.408 222.496L161.972 217.966L160.256 218.51L159.767 216.966L161.483 216.422L160.775 214.192L162.406 213.675L163.113 215.906L165.515 215.145L166.005 216.689L163.603 217.45ZM175.902 211.855L178.622 220.434L176.991 220.95L176.584 219.663C176.374 220.233 176.059 220.729 175.639 221.152C175.216 221.563 174.718 221.859 174.146 222.04C173.391 222.279 172.644 222.308 171.907 222.126C171.166 221.933 170.511 221.555 169.942 220.993C169.374 220.43 168.953 219.72 168.681 218.862C168.409 218.004 168.344 217.182 168.484 216.395C168.625 215.607 168.945 214.927 169.443 214.354C169.937 213.77 170.562 213.358 171.317 213.118C171.912 212.93 172.51 212.892 173.112 213.003C173.714 213.114 174.276 213.358 174.798 213.734L174.357 212.344L175.902 211.855ZM173.942 220.443C174.445 220.284 174.863 220.013 175.195 219.631C175.527 219.249 175.737 218.799 175.824 218.28C175.908 217.75 175.861 217.205 175.683 216.644C175.505 216.084 175.231 215.617 174.861 215.243C174.487 214.858 174.054 214.605 173.563 214.484C173.071 214.363 172.574 214.382 172.07 214.541C171.567 214.701 171.155 214.97 170.834 215.348C170.514 215.727 170.311 216.181 170.228 216.711C170.14 217.229 170.185 217.769 170.363 218.329C170.541 218.89 170.817 219.363 171.19 219.748C171.561 220.121 171.986 220.371 172.466 220.495C172.946 220.62 173.438 220.603 173.942 220.443ZM183.831 209.155C184.529 208.934 185.2 208.885 185.843 209.008C186.498 209.128 187.082 209.441 187.594 209.945C188.115 210.435 188.513 211.115 188.788 211.984L190.295 216.736L188.665 217.253L187.169 212.535C186.93 211.78 186.516 211.25 185.929 210.945C185.341 210.64 184.71 210.595 184.035 210.809C183.543 210.964 183.146 211.222 182.845 211.582C182.551 211.927 182.365 212.332 182.286 212.797C182.218 213.259 182.259 213.725 182.407 214.194L183.86 218.775L182.23 219.291L179.51 210.712L181.054 210.223L181.489 211.596C181.661 211.025 181.949 210.525 182.354 210.095C182.767 209.649 183.259 209.336 183.831 209.155ZM193.477 207.988L194.913 212.517C195.029 212.883 195.204 213.136 195.437 213.277C195.681 213.413 196.021 213.412 196.456 213.275C196.868 213.144 197.206 212.999 197.47 212.84L197.943 214.333C197.667 214.534 197.306 214.705 196.86 214.846C195.041 215.422 193.848 214.818 193.283 213.034L191.846 208.504L190.13 209.048L189.641 207.504L191.357 206.96L190.65 204.73L192.28 204.213L192.987 206.444L195.39 205.683L195.879 207.227L193.477 207.988ZM206.438 203.883L207.874 208.412C207.99 208.778 208.165 209.031 208.398 209.171C208.643 209.308 208.982 209.307 209.417 209.169C209.829 209.039 210.167 208.894 210.431 208.735L210.905 210.228C210.628 210.428 210.267 210.599 209.821 210.741C208.002 211.317 206.809 210.713 206.244 208.929L204.808 204.399L203.092 204.943L202.602 203.398L204.318 202.855L203.611 200.624L205.241 200.108L205.948 202.339L208.351 201.578L208.84 203.122L206.438 203.883ZM215.418 199.15C215.693 199.063 215.956 198.999 216.207 198.957L216.713 200.553C216.492 200.572 216.159 200.653 215.713 200.794C215.209 200.953 214.8 201.209 214.483 201.561C214.178 201.909 213.979 202.312 213.884 202.77C213.798 203.213 213.828 203.663 213.973 204.121L215.447 208.77L213.817 209.286L211.097 200.708L212.641 200.219L213.06 201.54C213.235 200.981 213.527 200.492 213.936 200.073C214.352 199.639 214.846 199.332 215.418 199.15ZM226.115 195.951L228.834 204.53L227.204 205.046L226.796 203.759C226.587 204.329 226.272 204.825 225.852 205.248C225.428 205.659 224.93 205.955 224.358 206.136C223.603 206.376 222.857 206.404 222.119 206.222C221.378 206.029 220.724 205.651 220.155 205.089C219.586 204.526 219.166 203.816 218.894 202.958C218.622 202.1 218.556 201.278 218.697 200.491C218.838 199.704 219.157 199.023 219.655 198.45C220.15 197.866 220.775 197.454 221.53 197.215C222.125 197.026 222.723 196.988 223.325 197.099C223.927 197.211 224.489 197.454 225.011 197.83L224.57 196.441L226.115 195.951ZM224.154 204.54C224.658 204.38 225.075 204.109 225.407 203.727C225.739 203.345 225.949 202.895 226.037 202.376C226.12 201.846 226.073 201.301 225.896 200.741C225.718 200.18 225.444 199.713 225.074 199.34C224.7 198.954 224.267 198.701 223.775 198.58C223.284 198.459 222.786 198.478 222.283 198.638C221.78 198.797 221.367 199.066 221.047 199.444C220.726 199.823 220.524 200.277 220.44 200.807C220.353 201.326 220.398 201.865 220.576 202.426C220.753 202.986 221.029 203.459 221.403 203.844C221.773 204.218 222.199 204.467 222.679 204.592C223.159 204.716 223.651 204.699 224.154 204.54ZM230.31 199.342C230.049 198.519 230.012 197.706 230.198 196.905C230.381 196.092 230.76 195.38 231.334 194.77C231.905 194.149 232.614 193.704 233.461 193.436C234.41 193.135 235.351 193.145 236.284 193.467C237.225 193.773 237.957 194.334 238.48 195.15L236.695 195.715C236.355 195.319 235.926 195.059 235.408 194.933C234.898 194.793 234.38 194.806 233.853 194.973C233.316 195.143 232.877 195.427 232.537 195.824C232.193 196.21 231.974 196.669 231.879 197.203C231.78 197.725 231.818 198.261 231.992 198.81C232.166 199.359 232.446 199.824 232.831 200.206C233.213 200.575 233.657 200.825 234.163 200.954C234.667 201.072 235.187 201.045 235.725 200.875C236.251 200.708 236.684 200.426 237.024 200.029C237.372 199.617 237.57 199.151 237.62 198.632L239.404 198.067C239.447 199.035 239.174 199.921 238.585 200.724C238.004 201.512 237.239 202.057 236.289 202.358C235.443 202.626 234.609 202.676 233.788 202.508C232.963 202.329 232.243 201.965 231.629 201.417C231.011 200.858 230.571 200.166 230.31 199.342ZM244.522 195.181L243.686 196.654L244.6 199.536L242.97 200.053L239.135 187.957L240.765 187.441L243.088 194.767L245.879 189.691L248.041 189.006L245.382 193.663L251.122 197.471L248.942 198.161L244.522 195.181ZM252.341 187.645L255.061 196.223L253.431 196.739L250.711 188.161L252.341 187.645ZM251.356 184.18L251.955 186.068L250.136 186.644L249.537 184.757L251.356 184.18ZM260.265 184.946C260.963 184.725 261.633 184.676 262.277 184.8C262.932 184.92 263.515 185.232 264.028 185.737C264.548 186.226 264.946 186.906 265.222 187.775L266.729 192.528L265.098 193.044L263.602 188.326C263.363 187.571 262.95 187.041 262.362 186.736C261.774 186.432 261.143 186.386 260.468 186.6C259.976 186.756 259.579 187.013 259.278 187.373C258.984 187.718 258.798 188.123 258.719 188.589C258.652 189.051 258.692 189.516 258.841 189.985L260.293 194.566L258.663 195.082L255.943 186.504L257.488 186.015L257.923 187.387C258.094 186.817 258.383 186.316 258.788 185.886C259.2 185.441 259.693 185.127 260.265 184.946ZM276.491 184.3C276.724 185.032 276.762 185.75 276.608 186.453C276.453 187.157 276.085 187.783 275.504 188.332C276.104 188.319 276.58 188.432 276.934 188.672C277.298 188.909 277.549 189.245 277.687 189.68C277.905 190.366 277.831 191.006 277.465 191.6C277.115 192.202 276.545 192.628 275.755 192.878L273.473 193.601C272.695 193.848 271.987 193.839 271.35 193.575C270.712 193.311 270.288 192.848 270.078 192.184C269.788 191.269 270.111 190.462 271.047 189.763C270.305 189.683 269.65 189.387 269.085 188.874C268.531 188.357 268.139 187.738 267.911 187.018C267.675 186.274 267.644 185.542 267.818 184.819C268 184.082 268.361 183.433 268.9 182.872C269.44 182.311 270.099 181.907 270.877 181.66C271.975 181.313 273.042 181.441 274.077 182.044L273.701 180.86L275.246 180.371L276.491 184.3ZM273.072 188.404C273.586 188.241 274.012 187.974 274.347 187.604C274.683 187.233 274.9 186.805 274.998 186.321C275.108 185.833 275.081 185.332 274.918 184.817C274.759 184.314 274.495 183.9 274.128 183.576C273.772 183.248 273.352 183.035 272.868 182.937C272.383 182.838 271.884 182.871 271.369 183.034C270.602 183.277 270.047 183.729 269.703 184.392C269.367 185.04 269.321 185.747 269.564 186.513C269.81 187.291 270.261 187.859 270.916 188.218C271.583 188.573 272.301 188.635 273.072 188.404ZM275.205 191.618C275.571 191.502 275.843 191.309 276.022 191.038C276.212 190.764 276.261 190.484 276.171 190.198C276.073 189.889 275.871 189.67 275.566 189.54C275.26 189.41 274.919 189.405 274.541 189.525L272.516 190.166C272.138 190.286 271.862 190.486 271.687 190.768C271.512 191.05 271.474 191.346 271.572 191.655C271.662 191.94 271.859 192.143 272.161 192.261C272.474 192.376 272.814 192.375 273.18 192.259L275.205 191.618Z" fill="black"/>
<path fill-rule="evenodd" clip-rule="evenodd" d="M529.286 113.203C587 113.83 633.919 102.038 634.084 86.865C634.249 71.6925 587.597 58.885 529.883 58.2587C517.795 58.1275 506.181 58.541 495.37 59.4164L425.118 85.3778C426.529 100.206 472.566 112.588 529.286 113.203Z" fill="black"/>
<path d="M425.118 85.3778C426.529 100.206 472.566 112.588 529.286 113.203C587 113.83 633.919 102.038 634.084 86.865C634.249 71.6925 587.597 58.885 529.883 58.2587C517.795 58.1275 506.181 58.541 495.37 59.4164M425.118 85.3778C425.094 85.1182 425.082 84.8578 425.085 84.5968C425.216 72.6021 454.566 62.7202 495.37 59.4164M425.118 85.3778L495.37 59.4164" stroke="black" stroke-width="2"/>
<ellipse rx="104.504" ry="36.0908" transform="matrix(0.981497 0.191479 -0.191669 0.981459 532.978 65.8827)" fill="#F1EFED" stroke="black" stroke-width="2" stroke-linejoin="round"/>
<path d="M462.918 48.3101C463.695 48.4638 464.362 48.8037 464.918 49.3296C465.477 49.8439 465.87 50.4843 466.097 51.251C466.325 52.0177 466.351 52.8425 466.176 53.7254C466.001 54.6082 465.663 55.3608 465.16 55.9831C464.658 56.6054 464.049 57.0538 463.334 57.3283C462.621 57.591 461.877 57.6455 461.1 57.4918C460.511 57.3754 459.984 57.1365 459.517 56.775C459.053 56.4018 458.684 55.9437 458.413 55.4007L458.151 56.7249L456.473 56.3931L458.938 43.9448L460.527 44.2592L459.527 49.3091C460.004 48.8775 460.536 48.5728 461.121 48.3951C461.707 48.2174 462.306 48.189 462.918 48.3101ZM461.125 55.8821C461.643 55.9846 462.134 55.9471 462.597 55.7696C463.06 55.5922 463.455 55.2972 463.781 54.8847C464.11 54.4604 464.331 53.9598 464.446 53.383C464.56 52.8062 464.545 52.265 464.4 51.7593C464.258 51.2419 464.007 50.813 463.646 50.4725C463.285 50.132 462.846 49.9105 462.328 49.8081C461.81 49.7056 461.313 49.7419 460.838 49.9171C460.363 50.0922 459.961 50.3919 459.633 50.8162C459.306 51.2287 459.086 51.7234 458.972 52.3002C458.857 52.877 458.871 53.4241 459.014 53.9415C459.158 54.4472 459.417 54.8714 459.789 55.2142C460.162 55.557 460.607 55.7797 461.125 55.8821ZM473.815 50.4658C474.721 50.6451 475.472 50.9953 476.066 51.5165C476.672 52.04 477.086 52.6969 477.309 53.4872C477.534 54.2657 477.552 55.1316 477.363 56.0851C477.314 56.3323 477.272 56.5136 477.237 56.629L469.997 55.1968C469.98 55.9029 470.186 56.5308 470.615 57.0805C471.059 57.6209 471.628 57.9597 472.322 58.0971C473.464 58.323 474.359 58.0658 475.007 57.3255L476.738 57.6678C476.292 58.436 475.634 59.0092 474.764 59.3875C473.896 59.7541 472.98 59.8419 472.014 59.651C471.155 59.481 470.417 59.133 469.799 58.6072C469.184 58.0696 468.751 57.4151 468.5 56.6437C468.251 55.8606 468.213 55.0335 468.385 54.1624C468.558 53.2913 468.907 52.5469 469.433 51.9293C469.961 51.2998 470.605 50.8584 471.365 50.605C472.139 50.3422 472.956 50.2958 473.815 50.4658ZM473.486 51.942C472.791 51.8046 472.148 51.9036 471.555 52.239C470.975 52.5767 470.558 53.0753 470.305 53.7348L475.726 54.8072C475.795 54.0869 475.619 53.4648 475.196 52.9409C474.786 52.4193 474.216 52.0864 473.486 51.942ZM482.986 54.1149L482.063 58.7764C481.989 59.1531 482.026 59.4601 482.174 59.6975C482.335 59.9372 482.656 60.1048 483.139 60.2003C483.586 60.2888 483.982 60.3303 484.325 60.3249L484.021 61.861C483.659 61.8994 483.242 61.8721 482.771 61.7789C481.806 61.588 481.122 61.2141 480.718 60.6572C480.317 60.0885 480.206 59.351 480.386 58.4446L481.309 53.7831L479.543 53.4338L479.858 51.8446L481.623 52.1939L482.078 49.8985L483.755 50.2304L483.301 52.5258L487.715 53.3991L487.401 54.9882L482.986 54.1149ZM490.267 55.5551L489.344 60.2166C489.269 60.5933 489.3 60.8992 489.437 61.1342C489.586 61.3716 489.884 61.5345 490.331 61.623C490.755 61.7068 491.121 61.7426 491.429 61.7301L491.125 63.2663C490.786 63.3094 490.387 63.2855 489.928 63.1947C488.056 62.8244 487.302 61.7211 487.666 59.8848L488.589 55.2233L486.823 54.874L487.138 53.2848L488.904 53.6342L489.358 51.3387L491.036 51.6706L490.581 53.966L493.053 54.455L492.739 56.0442L490.267 55.5551ZM499.467 55.5403C500.373 55.7196 501.124 56.0698 501.718 56.591C502.324 57.1146 502.738 57.7714 502.961 58.5617C503.186 59.3402 503.204 60.2061 503.015 61.1596C502.966 61.4068 502.924 61.5881 502.889 61.7035L495.649 60.2713C495.632 60.9774 495.838 61.6053 496.267 62.1551C496.711 62.6954 497.28 63.0343 497.974 63.1716C499.116 63.3975 500.011 63.1403 500.659 62.4L502.39 62.7424C501.944 63.5105 501.286 64.0837 500.416 64.462C499.548 64.8286 498.632 64.9164 497.666 64.7255C496.807 64.5555 496.069 64.2076 495.451 63.6817C494.836 63.1441 494.403 62.4896 494.152 61.7182C493.903 60.9351 493.865 60.108 494.038 59.2369C494.21 58.3658 494.559 57.6214 495.085 57.0038C495.614 56.3743 496.258 55.9329 497.017 55.6795C497.791 55.4167 498.608 55.3703 499.467 55.5403ZM499.138 57.0165C498.443 56.8791 497.8 56.9781 497.208 57.3135C496.627 57.6512 496.21 58.1498 495.957 58.8093L501.378 59.8817C501.447 59.1614 501.271 58.5393 500.849 58.0154C500.438 57.4938 499.868 57.1609 499.138 57.0165ZM511.37 57.8949C511.652 57.9508 511.914 58.0208 512.154 58.105L511.829 59.7471C511.626 59.6581 511.295 59.5682 510.836 59.4774C510.318 59.375 509.836 59.4018 509.389 59.5581C508.954 59.7167 508.585 59.974 508.282 60.3299C507.993 60.6765 507.802 61.0852 507.709 61.556L506.761 66.3411L505.084 66.0093L506.832 57.1807L508.421 57.4951L508.152 58.8547C508.575 58.449 509.066 58.1609 509.626 57.9903C510.2 57.8102 510.781 57.7784 511.37 57.8949ZM524.378 60.4681C525.284 60.6474 526.034 60.9977 526.628 61.5189C527.234 62.0424 527.649 62.6993 527.871 63.4895C528.096 64.268 528.114 65.134 527.926 66.0874C527.877 66.3346 527.835 66.5159 527.8 66.6313L520.56 65.1992C520.542 65.9052 520.748 66.5331 521.178 67.0829C521.621 67.6232 522.19 67.9621 522.885 68.0995C524.027 68.3254 524.922 68.0682 525.57 67.3279L527.3 67.6702C526.855 68.4383 526.197 69.0115 525.327 69.3899C524.459 69.7564 523.542 69.8443 522.577 69.6533C521.718 69.4833 520.979 69.1354 520.362 68.6095C519.746 68.0719 519.313 67.4174 519.062 66.6461C518.814 65.8629 518.776 65.0358 518.948 64.1647C519.121 63.2936 519.47 62.5493 519.996 61.9316C520.524 61.3022 521.168 60.8607 521.928 60.6074C522.702 60.3445 523.518 60.2981 524.378 60.4681ZM524.049 61.9443C523.354 61.8069 522.711 61.9059 522.118 62.2413C521.537 62.5791 521.121 63.0777 520.868 63.7371L526.289 64.8095C526.358 64.0892 526.181 63.4672 525.759 62.9432C525.349 62.4217 524.778 62.0887 524.049 61.9443ZM536.712 64.7429L533.639 64.1351L532.206 71.3746L530.528 71.0427L531.962 63.8033L530.196 63.454L530.511 61.8648L532.277 62.2141L532.465 61.2607C532.645 60.3543 533.039 59.7228 533.648 59.3661C534.271 59.0001 535.094 58.9183 536.119 59.1209C536.425 59.1815 536.727 59.2597 537.026 59.3555C537.325 59.4514 537.536 59.5298 537.659 59.5907L537.354 61.1269C537.039 60.9911 536.54 60.8556 535.857 60.7206C535.304 60.6111 534.895 60.6343 534.632 60.7902C534.381 60.9484 534.217 61.2158 534.143 61.5925L533.954 62.546L537.027 63.1538L536.712 64.7429ZM546.613 66.7016L540.609 65.5139L539.176 72.7534L537.498 72.4215L538.932 65.1821L537.166 64.8328L537.481 63.2437L539.247 63.593L539.435 62.6395C539.615 61.7331 540.009 61.1016 540.618 60.7449C541.241 60.3789 542.064 60.2971 543.089 60.4997C543.395 60.5603 543.697 60.6385 543.996 60.7344C544.295 60.8302 544.506 60.9086 544.629 60.9695L544.324 62.5057C544.009 62.3699 543.51 62.2344 542.827 62.0994C542.274 61.9899 541.865 62.0131 541.602 62.169C541.351 62.3272 541.187 62.5946 541.113 62.9713L540.924 63.9248L546.928 65.1124L546.613 66.7016ZM547.895 65.3037L546.146 74.1323L544.469 73.8005L546.217 64.9719L547.895 65.3037ZM548.7 61.7933L548.315 63.7356L546.444 63.3653L546.828 61.423L548.7 61.7933ZM549.932 70.294C550.1 69.4464 550.459 68.7162 551.008 68.1031C551.56 67.4784 552.235 67.0369 553.032 66.7787C553.832 66.5088 554.667 66.46 555.538 66.6323C556.515 66.8256 557.335 67.2875 557.998 68.0179C558.675 68.739 559.046 69.5831 559.111 70.5501L557.275 70.1869C557.168 69.6764 556.918 69.2416 556.524 68.8823C556.144 68.5137 555.684 68.2758 555.142 68.1686C554.589 68.0592 554.068 68.0968 553.579 68.2813C553.092 68.4541 552.678 68.7515 552.338 69.1735C551.999 69.5837 551.774 70.0713 551.663 70.6363C551.551 71.2013 551.572 71.7437 551.726 72.2635C551.882 72.7715 552.151 73.2039 552.533 73.5608C552.917 73.906 553.386 74.1332 553.939 74.2427C554.481 74.3498 554.996 74.3111 555.485 74.1265C555.989 73.9325 556.387 73.6198 556.68 73.1886L558.517 73.5518C558.088 74.4211 557.422 75.0661 556.519 75.4869C555.63 75.8982 554.697 76.0073 553.72 75.814C552.849 75.6417 552.094 75.2844 551.455 74.7421C550.819 74.188 550.363 73.523 550.089 72.747C549.816 71.9592 549.764 71.1415 549.932 70.294ZM564.111 68.5116L562.363 77.3402L560.685 77.0084L562.433 68.1798L564.111 68.5116ZM564.916 65.0012L564.532 66.9435L562.66 66.5732L563.045 64.6309L564.916 65.0012ZM571.578 69.8052C572.484 69.9846 573.235 70.3348 573.829 70.856C574.434 71.3795 574.849 72.0364 575.071 72.8267C575.297 73.6051 575.315 74.4711 575.126 75.4246C575.077 75.6718 575.035 75.8531 575 75.9685L567.76 74.5363C567.743 75.2423 567.949 75.8702 568.378 76.42C568.821 76.9604 569.39 77.2992 570.085 77.4366C571.227 77.6625 572.122 77.4053 572.77 76.665L574.5 77.0073C574.055 77.7754 573.397 78.3487 572.527 78.727C571.659 79.0936 570.743 79.1814 569.777 78.9904C568.918 78.8204 568.179 78.4725 567.562 77.9467C566.947 77.409 566.513 76.7546 566.262 75.9832C566.014 75.2001 565.976 74.373 566.148 73.5019C566.321 72.6308 566.67 71.8864 567.196 71.2687C567.724 70.6393 568.368 70.1979 569.128 69.9445C569.902 69.6817 570.718 69.6352 571.578 69.8052ZM571.249 71.2815C570.554 71.1441 569.911 71.2431 569.318 71.5785C568.738 71.9162 568.321 72.4148 568.068 73.0743L573.489 74.1466C573.558 73.4264 573.382 72.8043 572.959 72.2804C572.549 71.7588 571.979 71.4258 571.249 71.2815ZM583.481 72.1598C584.199 72.3019 584.81 72.5818 585.314 72.9997C585.831 73.4198 586.192 73.9745 586.398 74.6636C586.618 75.3432 586.639 76.1303 586.462 77.025L585.494 81.916L583.816 81.5842L584.778 76.7284C584.932 75.9515 584.824 75.2881 584.456 74.7382C584.088 74.1883 583.557 73.8447 582.862 73.7073C582.356 73.6071 581.884 73.6422 581.447 73.8126C581.023 73.9735 580.665 74.239 580.372 74.6091C580.09 74.9815 579.901 75.409 579.806 75.8916L578.872 80.6061L577.195 80.2742L578.943 71.4457L580.532 71.7601L580.252 73.1726C580.678 72.7552 581.171 72.4553 581.733 72.2729C582.31 72.0811 582.892 72.0434 583.481 72.1598ZM589.107 78.0435C589.275 77.196 589.633 76.4657 590.183 75.8527C590.735 75.2279 591.409 74.7865 592.207 74.5283C593.006 74.2583 593.842 74.2095 594.713 74.3818C595.69 74.5751 596.51 75.037 597.173 75.7675C597.85 76.4886 598.221 77.3326 598.286 78.2997L596.45 77.9364C596.343 77.426 596.092 76.9911 595.699 76.6319C595.319 76.2632 594.859 76.0253 594.317 75.9182C593.764 75.8088 593.243 75.8463 592.753 76.0309C592.266 76.2037 591.853 76.5011 591.512 76.9231C591.174 77.3332 590.949 77.8208 590.837 78.3859C590.726 78.9509 590.747 79.4933 590.901 80.013C591.057 80.521 591.326 80.9535 591.708 81.3104C592.092 81.6555 592.561 81.8828 593.114 81.9923C593.656 82.0994 594.171 82.0607 594.66 81.8761C595.164 81.6821 595.562 81.3694 595.855 80.9381L597.692 81.3014C597.263 82.1707 596.597 82.8157 595.694 83.2365C594.805 83.6478 593.872 83.7568 592.895 83.5636C592.024 83.3912 591.269 83.0339 590.63 82.4917C589.993 81.9376 589.538 81.2726 589.263 80.4965C588.991 79.7088 588.939 78.8911 589.107 78.0435ZM609.933 77.5762L602.417 88.3831L600.598 88.0233L602.619 85.1386L600.027 75.6166L602.023 76.0113L603.855 83.5299L608.079 77.2095L609.933 77.5762Z" fill="black"/>
</svg>
