<svg width="1440" height="240" viewBox="0 0 1440 240" fill="none" xmlns="http://www.w3.org/2000/svg">
<g clip-path="url(#clip0_3622_11265)">
<path opacity="0.25" fill-rule="evenodd" clip-rule="evenodd" d="M1470.53 233.236H1267.24L1288.24 209.144H1470.53V233.236ZM1226.36 155.375H1266.99V138.779H1225.36L1226.36 155.375ZM1251.54 104.514H1496.53V78.816H1251.54V104.514ZM1279.24 126.197H1251.07V109.6H1279.24V126.197ZM1314.24 155.375H1496.53V131.283H1314.24V155.375ZM907.137 222.092H1210.35V208.994H907.137H904.137V205.994V187.901V184.901H907.137H1213.35V190.901H910.137V202.994H1213.35H1216.35V205.994V225.092V228.092H1213.35H907.137V222.092ZM1237.16 167.901H1443.37V173.901H1237.16V167.901ZM1496.53 45.835H1248.62V51.835H1496.53V45.835ZM1298.12 155.375V119.505V116.505H1301.12H1499.45V122.505H1304.12V155.375H1298.12ZM1496.53 27.6323H1248.62V33.6323H1496.53V27.6323ZM1248.62 10.5H1496.53V16.5H1248.62V10.5ZM-2.97102 56.9858H-20L-16.2958 61.7568L-9.13043 70.9858H7.89855L-2.97102 56.9858ZM19.1306 56.9858H2.10156L5.80575 61.7568L12.9711 70.9858H30.0001L19.1306 56.9858ZM22.0685 230.436V187.61H37.9302L57.5685 204.516V230.436H22.0685ZM72.881 171.134V181.338H81.631V175.162L76.7906 171.134H72.881ZM86.631 181.338V171.134H90.5406L95.381 175.162V181.338H86.631ZM100.381 171.134V181.338H109.131V175.162L104.291 171.134H100.381ZM54.0839 176.236L53.8624 176.014V176.236H15.2501V174.625H52.4728L71.2687 155.829L72.8798 157.44L54.0839 176.236ZM24.8304 78.2029C24.7125 78.1987 24.5943 78.2004 24.4769 78.2081L24.1612 78.2288C24.0486 78.2362 23.9372 78.249 23.8281 78.2672L23.5124 78.3197C23.4137 78.3361 23.3171 78.3569 23.2234 78.3817L22.9078 78.4657C22.8268 78.4872 22.7481 78.5118 22.6723 78.5393L22.3566 78.6539C22.2929 78.677 22.2313 78.7021 22.1721 78.7291L21.8565 78.8733C21.8076 78.8956 21.7604 78.9192 21.7151 78.944L21.3994 79.1165C21.3623 79.1368 21.3264 79.1579 21.2918 79.1797L20.9762 79.379C20.948 79.3968 20.9207 79.4151 20.8944 79.4338L20.5787 79.6582C20.5573 79.6734 20.5365 79.6889 20.5163 79.7047L20.2007 79.9521C20.1844 79.9649 20.1685 79.9778 20.153 79.991L19.8374 80.2592C19.825 80.2698 19.8128 80.2804 19.8009 80.2912L19.4853 80.5779L19.4715 80.5907L19.4576 80.6038L19.142 80.9064L19.1324 80.9157L19.1212 80.9267L18.8056 81.2426L18.7905 81.2579L18.4749 81.5843L18.4647 81.5949L18.149 81.9288L18.1431 81.9351L17.8254 82.2757L17.2017 82.9462L17.196 82.9523L16.891 83.2751L16.5878 83.5889L16.2897 83.8877L15.9979 84.1681L15.7138 84.4268L15.4395 84.6606L15.1779 84.8664L14.9331 85.0412L14.7106 85.1825L14.5173 85.2888L14.362 85.3603L14.2537 85.4001L14.2281 85.407L14.1426 85.3787L14.004 85.3197L13.824 85.2266L13.6115 85.0983L13.3743 84.9358L13.1185 84.7414L12.8485 84.5177L12.5679 84.268L12.2787 83.9953L11.9829 83.7031L11.6815 83.3945L11.3752 83.0727L11.0666 82.743L11.0633 82.7394L10.4347 82.0632L10.1146 81.7225L10.1061 81.7135L9.79043 81.384L9.77728 81.3704L9.46163 81.0503L9.44315 81.0319L9.1275 80.724C9.11935 80.716 9.11103 80.7081 9.10259 80.7003L8.78697 80.4073C8.77623 80.3973 8.76526 80.3874 8.75406 80.3777L8.43841 80.1022L8.41713 80.084L8.39532 80.066L8.07967 79.8105C8.06142 79.7957 8.04262 79.7812 8.0233 79.7669L7.70765 79.5337C7.68383 79.516 7.65921 79.4988 7.63382 79.482L7.31815 79.2731C7.28692 79.2524 7.25457 79.2324 7.2211 79.213L6.90543 79.0302C6.86444 79.0065 6.82185 78.9838 6.77775 78.9621L6.46211 78.8072C6.40845 78.7808 6.35265 78.7561 6.29488 78.7331L5.97921 78.6073C5.9099 78.5797 5.83791 78.5545 5.76359 78.5321L5.44795 78.4365C5.36095 78.4102 5.27098 78.3876 5.1787 78.3687L4.86303 78.3044C4.75913 78.2832 4.65261 78.2669 4.54445 78.2557L4.2288 78.223C4.11339 78.2111 3.99651 78.205 3.87938 78.2047L3.56373 78.204C3.44645 78.2038 3.32933 78.2094 3.21362 78.2209L2.89795 78.2522C2.78923 78.263 2.68213 78.2789 2.57761 78.2998L2.26194 78.3629C2.16891 78.3814 2.0782 78.4039 1.99044 78.4301L1.6748 78.5243C1.59973 78.5467 1.52699 78.5718 1.45696 78.5994L1.14132 78.724C1.08291 78.747 1.02645 78.7718 0.972198 78.7982L0.656555 78.952C0.611935 78.9737 0.568836 78.9965 0.527367 79.0204L0.211721 79.202C0.177864 79.2215 0.145113 79.2417 0.113527 79.2625L-0.202116 79.4703C-0.227808 79.4872 -0.252722 79.5046 -0.276821 79.5223L-0.592464 79.7546L-0.603901 79.7631L-0.620281 79.7755C-0.630161 79.7831 -0.639894 79.7907 -0.649477 79.7985L-0.96512 80.0531L-0.98527 80.0696L-0.993551 80.0766L-1.0087 80.0896L-1.32437 80.3643L-1.33839 80.3766L-1.35764 80.3941L-1.67328 80.6864C-1.68184 80.6944 -1.69023 80.7023 -1.69848 80.7104L-2.01415 81.0177L-2.03287 81.0363L-2.34851 81.356L-2.36187 81.3697L-2.67751 81.6989L-2.68627 81.7081L-3.00194 82.0438L-3.6354 82.7253L-3.63854 82.7287L-3.94757 83.059L-4.25384 83.3812L-4.55547 83.6904L-4.85158 83.9834L-5.14106 84.2569L-5.42213 84.5077L-5.69256 84.7325L-5.94905 84.9282L-6.18713 85.0921L-6.4008 85.2219L-6.5824 85.3164L-6.72295 85.3768L-6.81321 85.4071L-6.83547 85.4012L-6.94168 85.3626L-7.09515 85.2925L-7.28697 85.1877L-7.50848 85.0478L-7.75245 84.8744L-8.01339 84.6699L-8.28721 84.4372L-8.57096 84.1795L-8.86251 83.8999L-9.16033 83.6019L-9.46339 83.2886L-9.77099 82.9632L-10.7148 81.9495L-11.0362 81.6093L-11.0463 81.5988L-11.3619 81.2721L-11.3767 81.257L-11.6924 80.9406L-11.7048 80.9283L-11.7129 80.9205L-12.0285 80.6172L-12.0435 80.603L-12.0559 80.5916L-12.3715 80.3042C-12.3832 80.2935 -12.3953 80.2829 -12.4075 80.2725L-12.7232 80.0034C-12.7385 79.9903 -12.7542 79.9775 -12.7703 79.9648L-13.086 79.7165C-13.1059 79.7008 -13.1265 79.6854 -13.1476 79.6703L-13.4633 79.4449C-13.4893 79.4263 -13.5163 79.4082 -13.5441 79.3905L-13.8598 79.1901C-13.894 79.1684 -13.9294 79.1474 -13.9661 79.1272L-14.2818 78.9536C-14.3267 78.9289 -14.3733 78.9054 -14.4216 78.8831L-14.7373 78.7377C-14.7958 78.7108 -14.8567 78.6857 -14.9197 78.6626L-15.2354 78.5467C-15.3105 78.5192 -15.3884 78.4945 -15.4686 78.4728L-15.7843 78.3876C-15.8772 78.3625 -15.9731 78.3415 -16.0711 78.3248L-16.3868 78.271C-16.4953 78.2524 -16.6063 78.2392 -16.7184 78.2314L-17.0341 78.2093C-17.1513 78.2012 -17.2695 78.1989 -17.3874 78.2027L-17.703 78.2127C-17.8185 78.2163 -17.9333 78.2257 -18.0462 78.2407L-18.3619 78.2827C-19.4894 78.4325 -20.2003 79.1002 -19.9496 79.7741C-19.6989 80.448 -18.5816 80.8728 -17.454 80.723L-17.3473 80.7088L-17.3112 80.7186L-17.2029 80.7583L-17.0476 80.8298L-16.8544 80.9362L-16.6318 81.0775L-16.387 81.2523L-16.1254 81.458L-15.8511 81.6919L-15.567 81.9506L-15.2752 82.2309L-14.9771 82.5297L-14.6739 82.8436L-14.3661 83.1694L-13.4218 84.1835L-13.4159 84.1898L-13.1002 84.5237L-13.09 84.5344L-12.7744 84.8607L-12.7593 84.876L-12.4437 85.1919L-12.4334 85.202L-12.4229 85.2122L-12.1073 85.5149L-12.096 85.5256L-12.0796 85.5407L-11.764 85.8274C-11.7521 85.8382 -11.74 85.8489 -11.7275 85.8594L-11.4119 86.1277C-11.3964 86.1408 -11.3805 86.1538 -11.3642 86.1666L-11.0486 86.414C-11.0284 86.4298 -11.0076 86.4453 -10.9862 86.4605L-10.6706 86.6848C-10.6442 86.7036 -10.6169 86.7219 -10.5888 86.7396L-10.2731 86.9389C-10.2385 86.9608 -10.2026 86.9819 -10.1655 87.0022L-9.84986 87.1747C-9.80447 87.1995 -9.75728 87.2231 -9.70841 87.2454L-9.39274 87.3895C-9.33354 87.4166 -9.27197 87.4417 -9.20828 87.4648L-8.89263 87.5793C-8.81682 87.6069 -8.73815 87.6315 -8.65711 87.653L-8.34146 87.7369C-8.2478 87.7618 -8.15123 87.7825 -8.05247 87.799L-7.7368 87.8515C-7.62769 87.8697 -7.51629 87.8825 -7.4037 87.8899L-7.08805 87.9105C-6.97066 87.9182 -6.85238 87.92 -6.73449 87.9157L-6.41885 87.9044C-6.30367 87.9002 -6.18925 87.8904 -6.07678 87.875L-5.76114 87.8317C-5.65773 87.8175 -5.55629 87.7986 -5.45767 87.7752L-5.142 87.7004C-5.05569 87.6799 -4.97177 87.6561 -4.89077 87.6289L-4.57513 87.5232C-4.50659 87.5003 -4.44028 87.475 -4.37649 87.4476L-4.06082 87.312C-4.00796 87.2892 -3.9569 87.2651 -3.90782 87.2395L-3.59217 87.0751C-3.55193 87.0541 -3.51306 87.0323 -3.47562 87.0095L-3.15998 86.8179C-3.12946 86.7993 -3.09991 86.7802 -3.07138 86.7606L-2.75574 86.5434C-2.73256 86.5274 -2.71005 86.5111 -2.68826 86.4945L-2.37261 86.2536L-2.34985 86.2359C-2.34011 86.2281 -2.33053 86.2204 -2.32109 86.2125L-2.00545 85.9501C-1.992 85.9389 -1.97885 85.9276 -1.96603 85.9162L-1.65038 85.6346L-1.63667 85.6222L-1.62036 85.607L-1.30471 85.3087L-1.2971 85.3015L-1.28212 85.2869L-0.966448 84.9745L-0.949854 84.9578L-0.634209 84.6343L-0.622669 84.6223L-0.307024 84.2903L-0.299875 84.2827L0.0157681 83.9453L0.0189095 83.9419L0.644886 83.2685L0.649483 83.2635L0.956242 82.9373L1.26078 82.6197L1.56052 82.3161L1.85428 82.0301L2.14082 81.7647L2.41825 81.5233L2.68385 81.3091L2.93403 81.125L3.16373 80.9737L3.36635 80.8571L3.53363 80.7757L3.65647 80.7272L3.70743 80.712L3.76247 80.7286L3.88737 80.7784L4.05631 80.8614L4.26023 80.9794L4.49093 81.1321L4.74185 81.3176L5.00802 81.533L5.28588 81.7755L5.57277 82.0418L5.86679 82.3287L6.16673 82.6329L6.4715 82.951L6.77849 83.2777L6.78293 83.2825L7.40924 83.9563L7.41254 83.9599L7.72818 84.2971L7.73551 84.3049L8.05115 84.6365L8.0629 84.6487L8.37854 84.9719L8.39537 84.9888L8.71104 85.3006L8.72236 85.3117L8.73391 85.3227L9.04958 85.6203L9.06556 85.6352L9.07994 85.6481L9.39558 85.929L9.40755 85.9395C9.41669 85.9475 9.42599 85.9554 9.43544 85.9632L9.75111 86.2247C9.768 86.2387 9.78537 86.2525 9.80322 86.2661L10.1189 86.506C10.1298 86.5144 10.141 86.5226 10.1523 86.5308C10.1637 86.539 10.1753 86.5472 10.1871 86.5553L10.5028 86.7715C10.5316 86.7912 10.5615 86.8105 10.5924 86.8291L10.908 87.0197C10.9459 87.0425 10.9852 87.0645 11.0259 87.0855L11.3416 87.2488C11.3912 87.2744 11.4429 87.2987 11.4964 87.3215L11.812 87.4559C11.8765 87.4833 11.9435 87.5086 12.0127 87.5315L12.3284 87.6359C12.4101 87.663 12.4948 87.6867 12.5819 87.707L12.8976 87.7805C12.9969 87.8036 13.099 87.8222 13.203 87.836L13.5187 87.8779C13.6316 87.8929 13.7464 87.9023 13.8619 87.906L14.1776 87.916C14.2954 87.9197 14.4136 87.9175 14.5308 87.9093L14.8465 87.8873C14.9586 87.8795 15.0696 87.8662 15.1781 87.8477L15.4938 87.7938C15.5918 87.7771 15.6877 87.7561 15.7806 87.731L16.0963 87.6458C16.1765 87.6241 16.2545 87.5995 16.3295 87.5719L16.6452 87.4561C16.7082 87.433 16.7691 87.4079 16.8276 87.3809L17.1433 87.2355C17.1916 87.2133 17.2382 87.1898 17.2831 87.1651L17.5988 86.9914C17.6355 86.9712 17.6709 86.9503 17.7051 86.9286L18.0208 86.7282C18.0486 86.7105 18.0756 86.6923 18.1017 86.6737L18.4173 86.4484C18.4297 86.4395 18.4419 86.4306 18.4539 86.4215L18.4673 86.4113L18.479 86.4022L18.7946 86.1538C18.8107 86.1412 18.8264 86.1283 18.8417 86.1153L19.1574 85.8462L19.1713 85.8341C19.1788 85.8276 19.1862 85.8211 19.1934 85.8145L19.509 85.527C19.5183 85.5186 19.5274 85.51 19.5364 85.5014L19.8521 85.1982L19.8622 85.1883L19.8725 85.1781L20.1882 84.8617L20.203 84.8466L20.5187 84.5199L20.5287 84.5094L20.8444 84.1753L21.4832 83.4886L21.7909 83.1586L21.7969 83.1523L22.1017 82.83L22.4045 82.5168L22.7025 82.2187L22.9939 81.9392L23.2777 81.6815L23.5515 81.4487L23.8124 81.2442L24.0564 81.0708L24.2779 80.931L24.4698 80.8261L24.6232 80.756L24.7294 80.7175L24.7517 80.7116L24.8419 80.7418L24.9825 80.8022L25.1641 80.8968L25.3778 81.0266L25.6159 81.1904L25.8723 81.3862L26.1428 81.611L26.4239 81.8618L26.7133 82.1353L27.0094 82.4283L27.3111 82.7376L27.6175 83.0597L27.9264 83.3899L27.9295 83.3933L28.5584 84.0699L28.563 84.0748L28.8786 84.4105L28.8874 84.4197L29.203 84.7489L29.2164 84.7626L29.532 85.0823L29.5425 85.0928L29.5508 85.1009L29.8664 85.4083L29.8785 85.4199L29.8916 85.4322L30.2073 85.7245L30.2246 85.7403L30.2405 85.7544L30.5562 86.0291L30.5786 86.0482L30.5998 86.0656L30.9154 86.3202C31.6031 86.8749 32.913 86.9913 33.8411 86.5804C34.7692 86.1694 34.9641 85.3866 34.2765 84.8319L33.9832 84.5953L33.7057 84.3539L33.4192 84.0885L33.1254 83.8025L32.8258 83.499L32.5211 83.1813L32.2144 82.8551L32.2098 82.8502L31.5838 82.1767L31.265 81.8359L31.2579 81.8284L30.9422 81.4964L30.9307 81.4844L30.615 81.1608L30.5984 81.1441L30.2828 80.8318C30.2754 80.8245 30.2679 80.8172 30.2602 80.8099L29.9445 80.5116L29.9321 80.5001L29.9145 80.4841L29.5989 80.2025C29.586 80.191 29.5729 80.1797 29.5595 80.1686L29.2438 79.9061L29.2313 79.8959C29.2186 79.8855 29.2056 79.8752 29.1923 79.8651L28.8766 79.6242C28.8548 79.6076 28.8324 79.5913 28.8092 79.5753L28.4935 79.3581C28.4841 79.3516 28.4746 79.3452 28.465 79.3388C28.4454 79.3259 28.4254 79.3132 28.4049 79.3008L28.0893 79.1091C28.0519 79.0864 28.013 79.0645 27.9727 79.0436L27.6571 78.8792C27.608 78.8536 27.5569 78.8294 27.5041 78.8067L27.1884 78.671C27.1246 78.6436 27.0583 78.6184 26.9898 78.5954L26.6741 78.4897C26.5931 78.4626 26.5092 78.4387 26.4229 78.4182L26.1072 78.3434C26.0086 78.32 25.9072 78.3012 25.8038 78.287L25.4881 78.2437C25.3757 78.2283 25.2612 78.2184 25.146 78.2143L24.8304 78.2029ZM-5.40028 111.112V160.986H3.85024L22.0695 141.721V111.112H-5.40028ZM-8.5702 174.005L4.74985 184.754V238.559H9.74985V182.364L-5.4301 170.114L-8.5702 174.005ZM488.482 217.271V210.885H72.881V197.164H488.482V191.247H72.881V187.61H492.5V200.8H76.8986V207.248H492.5V220.907H76.8986V228.478H223.5V232.115H72.881V217.271H488.482ZM51.59 94.4415V100.359H98.1915V114.079H36.5724V110.443H94.1739V103.995H47.5724V90.8052H84.1915V94.4415H51.59ZM862.33 108.986H881.356L893.5 90.7505H874.474L866.469 102.771L862.33 108.986ZM635.036 222.486H616.01L630.154 207.25H649.18L635.036 222.486ZM641.569 222.485H660.594L674.738 207.25H655.713L641.569 222.485ZM686.153 222.486H667.127L681.271 207.25H700.297L686.153 222.486ZM692.682 222.486H711.708L725.852 207.25H706.826L692.682 222.486ZM737.266 222.486H718.241L732.385 207.25H751.41L737.266 222.486ZM743.797 222.485H788.967V207.25H757.941L743.797 222.485ZM837.635 108.986H856.661L868.805 90.7505H849.779L841.774 102.771L837.635 108.986ZM818.662 200.059H799.637V195.916V187.901H818.662V200.059ZM800.137 121.985V164.811H815.998L835.637 147.905V125.809H883.749V121.985H835.637H800.137ZM853.61 175.197H802.137V176.809H854.999V176.587L855.221 176.809L880.734 151.295L879.123 149.684L853.61 175.197ZM614.012 226.697H786.874V228.309H614.012V226.697ZM786.874 231.309H609.012V232.92H786.874V231.309ZM603.012 235.92H786.874V237.531H603.012V235.92ZM862.363 223.509C862.481 223.502 862.599 223.5 862.717 223.504L863.033 223.516C863.148 223.52 863.262 223.53 863.375 223.545L863.69 223.588C863.794 223.603 863.895 223.621 863.994 223.645L864.309 223.72C864.396 223.74 864.48 223.764 864.561 223.791L864.876 223.897C864.945 223.92 865.011 223.945 865.075 223.972L865.391 224.108C865.409 224.116 865.428 224.124 865.446 224.133C865.46 224.139 865.472 224.145 865.485 224.151C865.505 224.161 865.525 224.171 865.544 224.181L865.859 224.345C865.9 224.366 865.938 224.388 865.976 224.41L866.292 224.602C866.322 224.621 866.352 224.64 866.38 224.659L866.696 224.877C866.719 224.893 866.741 224.909 866.763 224.926L867.079 225.166C867.087 225.173 867.096 225.18 867.104 225.186L867.115 225.194L867.13 225.207L867.446 225.47L867.47 225.49L867.485 225.504L867.801 225.785C867.811 225.795 867.821 225.804 867.831 225.813L868.147 226.111L868.155 226.119L868.169 226.133L868.485 226.445L868.502 226.462L868.817 226.786L868.829 226.798L869.145 227.13L869.152 227.137L869.47 227.478L870.096 228.152L870.101 228.156L870.408 228.483L870.712 228.8L871.012 229.104L871.306 229.39L871.592 229.655L871.87 229.897L872.163 230.133C872.851 230.688 872.656 231.471 871.728 231.882C870.8 232.293 869.49 232.176 868.802 231.622L868.486 231.367L868.464 231.349L868.443 231.33L868.127 231.056L868.111 231.042L868.094 231.026L867.778 230.734L867.765 230.721L867.753 230.71L867.437 230.402L867.429 230.394L867.419 230.384L867.103 230.064L867.09 230.05L866.774 229.721L866.765 229.712L866.45 229.376L866.445 229.371L865.816 228.695L865.813 228.691L865.504 228.361L865.198 228.039L864.896 227.73L864.6 227.437L864.31 227.163L864.029 226.912L863.759 226.688L863.502 226.492L863.264 226.328L863.051 226.198L862.869 226.104L862.729 226.043L862.638 226.013L862.616 226.019L862.51 226.057L862.356 226.127L862.165 226.232L861.943 226.372L861.699 226.546L861.438 226.75L861.164 226.983L860.88 227.241L860.589 227.52L860.291 227.818L859.988 228.131L859.683 228.454L859.678 228.46L859.37 228.79L858.731 229.477L858.415 229.811L858.405 229.821L858.09 230.148L858.075 230.163L857.759 230.479L857.749 230.49L857.739 230.5L857.423 230.803L857.407 230.818L857.396 230.828L857.08 231.116C857.068 231.127 857.056 231.137 857.044 231.148L856.728 231.417C856.713 231.43 856.697 231.443 856.681 231.455L856.366 231.704C856.356 231.711 856.346 231.719 856.336 231.726L856.32 231.738L856.304 231.75L855.988 231.975L855.971 231.988L855.95 232.001C855.936 232.011 855.922 232.02 855.907 232.03L855.592 232.23C855.574 232.241 855.557 232.252 855.538 232.263L855.518 232.274C855.508 232.28 855.496 232.287 855.485 232.293L855.17 232.466C855.125 232.491 855.078 232.515 855.03 232.537L854.714 232.682C854.656 232.709 854.595 232.734 854.532 232.757L854.216 232.873C854.182 232.886 854.148 232.898 854.113 232.909C854.095 232.915 854.076 232.92 854.057 232.926L854.023 232.936C854.01 232.94 853.996 232.944 853.983 232.947L853.667 233.032C853.574 233.057 853.478 233.078 853.38 233.095L853.065 233.149C852.956 233.168 852.845 233.181 852.733 233.189L852.417 233.211C852.3 233.219 852.182 233.221 852.064 233.217L851.748 233.207C851.633 233.204 851.518 233.194 851.405 233.179L851.09 233.137C850.986 233.124 850.883 233.105 850.784 233.082L850.469 233.008C850.381 232.988 850.297 232.964 850.215 232.937L849.899 232.833C849.87 232.823 849.842 232.813 849.814 232.803C849.786 232.793 849.758 232.782 849.731 232.771L849.699 232.757L849.383 232.623C849.352 232.61 849.322 232.596 849.292 232.582C849.271 232.572 849.249 232.561 849.228 232.55L848.913 232.387L848.89 232.375C848.879 232.369 848.868 232.363 848.857 232.357C848.836 232.345 848.815 232.333 848.795 232.321L848.479 232.13C848.448 232.112 848.418 232.093 848.389 232.073L848.074 231.857L848.062 231.848L848.045 231.837L848.03 231.826L848.005 231.807L847.69 231.567C847.672 231.554 847.655 231.54 847.638 231.526L847.322 231.265L847.303 231.249L847.282 231.23L846.967 230.949L846.947 230.932L846.936 230.922L846.62 230.624L846.606 230.61L846.598 230.602L846.282 230.29L846.265 230.273L845.95 229.95L845.938 229.938L845.622 229.606L845.615 229.598L845.299 229.261L845.296 229.258L844.67 228.584L844.665 228.579L844.358 228.252L844.053 227.934L843.753 227.63L843.459 227.343L843.172 227.077L842.895 226.834L842.628 226.619L842.378 226.434L842.147 226.281L841.943 226.163L841.774 226.08L841.649 226.03L841.594 226.013L841.543 226.029L841.42 226.077L841.253 226.159L841.05 226.275L840.821 226.426L840.57 226.61L840.305 226.825L840.027 227.066L839.741 227.331L839.447 227.618L839.147 227.921L838.843 228.239L838.536 228.565L838.531 228.57L837.906 229.243L837.902 229.247L837.587 229.584L837.58 229.592L837.264 229.924L837.252 229.936L836.937 230.259L836.92 230.276L836.604 230.588L836.582 230.61L836.266 230.908C836.256 230.918 836.246 230.927 836.236 230.936L835.921 231.218L835.901 231.235L835.881 231.251L835.566 231.514C835.557 231.521 835.547 231.529 835.538 231.536L835.514 231.555L835.198 231.796C835.177 231.812 835.154 231.829 835.131 231.845L834.815 232.062C834.787 232.082 834.757 232.101 834.727 232.119L834.411 232.311C834.374 232.334 834.335 232.356 834.294 232.376L833.979 232.541C833.966 232.548 833.952 232.555 833.939 232.561L833.917 232.572L833.902 232.579C833.877 232.591 833.852 232.602 833.826 232.613L833.51 232.749C833.446 232.776 833.38 232.802 833.311 232.825L832.996 232.93C832.945 232.947 832.894 232.963 832.841 232.977C832.809 232.986 832.777 232.994 832.745 233.002L832.429 233.077C832.33 233.1 832.229 233.119 832.125 233.133L831.81 233.176C831.743 233.185 831.675 233.193 831.608 233.198C831.561 233.201 831.515 233.204 831.468 233.206L831.152 233.217C831.034 233.221 830.916 233.22 830.799 233.212L830.483 233.191C830.432 233.188 830.382 233.183 830.332 233.178C830.271 233.171 830.21 233.163 830.15 233.153L829.834 233.1C829.815 233.097 829.795 233.094 829.776 233.09C829.697 233.076 829.62 233.058 829.545 233.038L829.229 232.954C829.148 232.933 829.07 232.908 828.994 232.881L828.678 232.766C828.615 232.743 828.553 232.718 828.494 232.691L828.178 232.547C828.162 232.539 828.146 232.532 828.13 232.524C828.116 232.517 828.101 232.51 828.087 232.503L828.06 232.489L828.037 232.476L827.721 232.304L827.697 232.29L827.672 232.276L827.647 232.261L827.626 232.248L827.614 232.24L827.298 232.041C827.27 232.023 827.242 232.005 827.216 231.986L826.9 231.762L826.878 231.746C826.865 231.736 826.851 231.726 826.838 231.715L826.522 231.468C826.512 231.46 826.501 231.451 826.491 231.443L826.475 231.429L826.159 231.161C826.147 231.15 826.135 231.14 826.123 231.129L825.807 230.842C825.798 230.834 825.788 230.825 825.779 230.816L825.464 230.514L825.453 230.503L825.443 230.493L825.127 230.177L825.112 230.162L824.797 229.836L824.786 229.825L824.471 229.491L824.465 229.485L823.521 228.471L823.213 228.145L822.909 227.831L822.611 227.532L822.32 227.252L822.035 226.993L821.761 226.759L821.5 226.554L821.255 226.379L821.032 226.238L820.839 226.131L820.684 226.06L820.575 226.02L820.539 226.01L820.433 226.024C819.305 226.174 818.188 225.749 817.937 225.075C817.686 224.402 818.397 223.734 819.525 223.584L819.84 223.542C819.953 223.527 820.068 223.518 820.184 223.514L820.499 223.504C820.617 223.5 820.735 223.503 820.853 223.511L821.168 223.533C821.205 223.535 821.242 223.538 821.278 223.542C821.328 223.547 821.377 223.553 821.426 223.561C821.451 223.564 821.475 223.568 821.5 223.572L821.815 223.626C821.914 223.643 822.009 223.664 822.102 223.689L822.418 223.774C822.447 223.782 822.476 223.79 822.505 223.799C822.555 223.814 822.604 223.831 822.651 223.848L822.967 223.964C822.993 223.974 823.019 223.984 823.045 223.994C823.08 224.008 823.115 224.023 823.149 224.039L823.465 224.184C823.49 224.196 823.514 224.208 823.538 224.22C823.56 224.231 823.583 224.243 823.605 224.255L823.92 224.429C823.937 224.438 823.953 224.447 823.968 224.456C823.988 224.467 824.008 224.479 824.027 224.491L824.342 224.692C824.356 224.7 824.369 224.709 824.382 224.718C824.396 224.727 824.41 224.737 824.423 224.746L824.739 224.972L824.761 224.988L824.773 224.996L824.786 225.007L824.801 225.018L825.116 225.266L825.133 225.279L825.142 225.287L825.163 225.305L825.479 225.574C825.491 225.584 825.503 225.595 825.515 225.606L825.831 225.893L825.839 225.9L825.858 225.919L826.174 226.222L826.194 226.242L826.51 226.558L826.525 226.573L826.84 226.9L826.85 226.911L827.172 227.251L828.116 228.265L828.423 228.59L828.726 228.903L829.024 229.201L829.316 229.481L829.599 229.739L829.873 229.971L830.134 230.176L830.378 230.349L830.6 230.489L830.791 230.594L830.945 230.664L831.051 230.703L831.073 230.708L831.164 230.678L831.304 230.618L831.486 230.523L831.699 230.393L831.938 230.23L832.194 230.034L832.464 229.809L832.746 229.558L833.035 229.285L833.331 228.992L833.633 228.683L833.939 228.36L834.248 228.03L834.251 228.027L834.885 227.345L835.2 227.009L835.209 227L835.525 226.671L835.538 226.657L835.854 226.338L835.872 226.319L836.188 226.012C836.196 226.004 836.205 225.996 836.213 225.988L836.529 225.695C836.54 225.685 836.551 225.675 836.562 225.666L836.878 225.391C836.892 225.379 836.907 225.366 836.922 225.354L837.237 225.1C837.256 225.085 837.275 225.07 837.294 225.056L837.61 224.824C837.623 224.814 837.637 224.804 837.651 224.794C837.662 224.787 837.673 224.779 837.685 224.772L838 224.564L838.024 224.548L838.052 224.531C838.067 224.522 838.083 224.512 838.098 224.503L838.414 224.322C838.455 224.298 838.499 224.275 838.543 224.253L838.859 224.1C838.913 224.073 838.969 224.048 839.028 224.025L839.344 223.901C839.366 223.892 839.389 223.883 839.413 223.875L839.448 223.862C839.485 223.849 839.523 223.837 839.561 223.826L839.877 223.731C839.916 223.72 839.955 223.709 839.995 223.699C840.045 223.686 840.096 223.675 840.149 223.664L840.464 223.601C840.522 223.59 840.581 223.58 840.64 223.571C840.688 223.564 840.736 223.558 840.785 223.554L841.1 223.522C841.216 223.511 841.333 223.505 841.45 223.505L841.766 223.506C841.883 223.506 842 223.512 842.115 223.524L842.431 223.557C842.492 223.563 842.552 223.571 842.612 223.581C842.637 223.585 842.661 223.589 842.685 223.593C842.707 223.597 842.728 223.601 842.75 223.606L843.065 223.67C843.158 223.689 843.248 223.712 843.335 223.738L843.65 223.833C843.688 223.845 843.725 223.857 843.761 223.87C843.797 223.882 843.832 223.895 843.866 223.909L844.182 224.034C844.239 224.057 844.295 224.082 844.349 224.109L844.664 224.263C844.708 224.285 844.751 224.308 844.792 224.332L845.108 224.514C845.122 224.523 845.136 224.531 845.149 224.539L845.171 224.553L845.18 224.558L845.205 224.574L845.52 224.783C845.546 224.8 845.57 224.817 845.594 224.835L845.91 225.068L845.936 225.088L845.958 225.105L845.966 225.112L846.282 225.367L846.299 225.381C846.308 225.388 846.316 225.396 846.325 225.404L846.641 225.679L846.656 225.693L846.666 225.702L846.674 225.709L846.989 226.002L847.006 226.017L847.014 226.025L847.33 226.333L847.348 226.352L847.664 226.672L847.677 226.685L847.993 227.015L848.001 227.024L848.321 227.365L848.95 228.041L848.953 228.044L849.262 228.374L849.568 228.696L849.87 229.004L850.165 229.297L850.454 229.569L850.735 229.819L851.005 230.043L851.261 230.237L851.498 230.4L851.711 230.528L851.891 230.621L852.029 230.68L852.115 230.708L852.14 230.701L852.249 230.662L852.404 230.59L852.597 230.484L852.82 230.343L853.065 230.168L853.326 229.962L853.6 229.728L853.884 229.469L854.176 229.189L854.474 228.89L854.778 228.576L855.083 228.254L855.088 228.248L855.712 227.577L856.03 227.236L856.036 227.23L856.351 226.896L856.361 226.886L856.677 226.559L856.692 226.544L857.008 226.228L857.029 226.208L857.344 225.905C857.353 225.896 857.362 225.888 857.372 225.879L857.688 225.593C857.699 225.582 857.712 225.571 857.724 225.561L858.04 225.292C858.055 225.279 858.071 225.266 858.087 225.253L858.403 225.006L858.426 224.988C858.439 224.978 858.452 224.969 858.465 224.96L858.781 224.735C858.797 224.724 858.813 224.713 858.829 224.702C858.84 224.695 858.851 224.688 858.863 224.68L859.178 224.481C859.197 224.47 859.215 224.458 859.234 224.447C859.251 224.437 859.268 224.427 859.286 224.418L859.602 224.245C859.621 224.235 859.64 224.225 859.659 224.215C859.687 224.201 859.715 224.188 859.743 224.175L860.059 224.03C860.118 224.003 860.18 223.978 860.243 223.955L860.559 223.841C860.574 223.835 860.589 223.83 860.604 223.825C860.627 223.817 860.65 223.809 860.674 223.802C860.687 223.798 860.7 223.794 860.714 223.79L860.743 223.781L860.761 223.776L860.794 223.767L861.11 223.683L861.139 223.676L861.166 223.669C861.182 223.665 861.198 223.661 861.214 223.658C861.24 223.651 861.267 223.646 861.294 223.64C861.329 223.633 861.364 223.627 861.399 223.621L861.715 223.569C861.756 223.562 861.797 223.556 861.839 223.55C861.866 223.547 861.894 223.544 861.922 223.541C861.94 223.539 861.959 223.537 861.977 223.536L862.015 223.533L862.048 223.53L862.363 223.509ZM806.439 234.235C809.684 234.235 812.314 231.605 812.314 228.36C812.314 225.116 809.684 222.485 806.439 222.485C803.195 222.485 800.564 225.116 800.564 228.36C800.564 231.605 803.195 234.235 806.439 234.235ZM1237.16 184.901H1443.37V190.901H1237.16V184.901ZM740.805 46.5508H737.805V49.5508V70.0508V73.0508V91.5509H631.805V97.5509H737.805V102.551H631.805V108.551H740.805H743.805V105.551V97.5509V94.5509V76.0508H835.305V70.0508H743.805V64.5667H990.805V58.5667H743.805V52.5508H835.305V46.5508H740.805ZM752.805 108.551H819.805V84.3008H752.805V101.622V108.551ZM726.488 150.811H743.164V131.088H726.488V141.176V150.811ZM539.742 232.92H590.305V184.92H539.742V213.492H506.033V232.92H539.742ZM707.422 192.582H646.422V182.947V165.859L673.922 136.859H707.422V192.582ZM775.328 163.893H751.409V152.205V128.809H633.75V122.809H773.75V122.986H775.328V163.893ZM495.23 232.92H245.23V226.92H495.23V232.92ZM723.113 177.683H778.113V171.683H723.113V177.683ZM778.113 191.683H723.113V185.683H778.113V191.683Z" fill="url(#paint0_linear_3622_11265)"/>
<path d="M107 84.4795H44.4138L25.4483 52.9863H-8M-8 52.9863V164.516L13.4368 179.986M-8 52.9863V1H10.5H55.477L81.3966 16.5H110M107 152.913H81.3966M81.3966 152.913H44.4138M81.3966 152.913L55.477 179.986H13.4368M13.4368 179.986V239.06H81.3966H593L625 203.06H794.705M909.705 84.9863H847.118L828.153 115.374M828.153 115.374H794.705V164.516V179.986M828.153 115.374H884.101M909.705 152.913H884.101L858.182 179.986H816.141H794.705M794.705 203.06V239.06H1354M794.705 203.06V179.986M1454 203.06H1284.3L1252.3 239.06" stroke="#8F8E93" stroke-width="2" stroke-linejoin="round"/>
<path d="M793.5 1.5H846.999L857.999 17.5H917.999" stroke="#8F8E93" stroke-width="2"/>
<path d="M794.5 117V1" stroke="#8F8E93" stroke-width="2"/>
<circle cx="118" cy="18" r="5.5" fill="black" stroke="black"/>
<circle cx="111" cy="16" r="5.5" fill="#F0EFED" stroke="black"/>
<circle cx="118" cy="86" r="5.5" fill="black" stroke="black"/>
<circle cx="111" cy="84" r="5.5" fill="#F0EFED" stroke="black"/>
<circle cx="922" cy="19" r="5.5" fill="black" stroke="black"/>
<circle cx="915" cy="17" r="5.5" fill="#F0EFED" stroke="black"/>
<circle cx="922" cy="87" r="5.5" fill="black" stroke="black"/>
<circle cx="915" cy="85" r="5.5" fill="#F0EFED" stroke="black"/>
<circle cx="922" cy="155" r="5.5" fill="black" stroke="black"/>
<circle cx="915" cy="153" r="5.5" fill="#F0EFED" stroke="black"/>
<circle cx="118" cy="155" r="5.5" fill="black" stroke="black"/>
<circle cx="111" cy="153" r="5.5" fill="#F0EFED" stroke="black"/>
</g>
<defs>
<linearGradient id="paint0_linear_3622_11265" x1="1423" y1="238.559" x2="1425" y2="-0.940923" gradientUnits="userSpaceOnUse">
<stop stop-color="#F1EFED"/>
<stop offset="0.503125" stop-color="#A9A5A4" stop-opacity="0.07"/>
<stop offset="1" stop-color="#F1EFED"/>
</linearGradient>
<clipPath id="clip0_3622_11265">
<rect width="1440" height="240" fill="white"/>
</clipPath>
</defs>
</svg>
