<svg width="1520" height="230" viewBox="0 0 1520 230" fill="none" xmlns="http://www.w3.org/2000/svg">
<path opacity="0.25" fill-rule="evenodd" clip-rule="evenodd" d="M1490.53 222.736H1287.24L1308.24 198.644H1490.53V222.736ZM1246.36 144.875H1286.99V128.279H1245.36L1246.36 144.875ZM1271.54 94.0142H1516.53V68.316H1271.54V94.0142ZM1299.24 115.697H1271.07V99.1001H1299.24V115.697ZM1334.24 144.875H1516.53V120.783H1334.24V144.875ZM927.137 211.592H1230.35V198.494H927.137H924.137V195.494V177.401V174.401H927.137H1233.35V180.401H930.137V192.494H1233.35H1236.35V195.494V214.592V217.592H1233.35H927.137V211.592ZM1257.16 157.401H1463.37V163.401H1257.16V157.401ZM1516.53 35.335H1268.62V41.335H1516.53V35.335ZM1318.12 144.875V109.005V106.005H1321.12H1519.45V112.005H1324.12V144.875H1318.12ZM1516.53 17.1323H1268.62V23.1323H1516.53V17.1323ZM1268.62 0H1516.53V6H1268.62V0ZM17.029 46.4859H0L3.70419 51.2569L10.8696 60.4859H27.8986L17.029 46.4859ZM39.1306 46.4859H22.1016L25.8058 51.2569L32.9711 60.4859H50.0001L39.1306 46.4859ZM42.0685 219.936V177.11H57.9302L77.5685 194.016V219.936H42.0685ZM92.881 160.634V170.838H101.631V164.662L96.7906 160.634H92.881ZM106.631 170.838V160.634H110.541L115.381 164.662V170.838H106.631ZM120.381 160.634V170.838H129.131V164.662L124.291 160.634H120.381ZM74.0849 165.736L73.8624 165.513V165.736H35.2501V164.125H72.4737L91.2696 145.329L92.8808 146.94L74.0849 165.736ZM44.8304 67.703C44.7125 67.6987 44.5943 67.7005 44.4769 67.7082L44.1612 67.7288C44.0486 67.7362 43.9372 67.749 43.8281 67.7672L43.5124 67.8197C43.4137 67.8361 43.3171 67.8569 43.2234 67.8818L42.9078 67.9657C42.8268 67.9872 42.7481 68.0118 42.6723 68.0393L42.3566 68.1539C42.2929 68.177 42.2313 68.2021 42.1721 68.2292L41.8565 68.3733C41.8076 68.3956 41.7604 68.4192 41.7151 68.444L41.3994 68.6165C41.3623 68.6368 41.3264 68.6579 41.2918 68.6797L40.9762 68.8791C40.948 68.8968 40.9207 68.9151 40.8944 68.9338L40.5787 69.1582C40.5573 69.1734 40.5365 69.1889 40.5163 69.2047L40.2007 69.4521C40.1844 69.4649 40.1685 69.4779 40.153 69.491L39.8374 69.7593C39.825 69.7698 39.8128 69.7805 39.8009 69.7913L39.4853 70.078L39.4715 70.0907L39.4576 70.1038L39.142 70.4065L39.1324 70.4157L39.1212 70.4268L38.8056 70.7427L38.7905 70.758L38.4749 71.0843L38.4647 71.095L38.149 71.4288L38.1431 71.4352L37.8254 71.7758L37.2017 72.4462L37.196 72.4524L36.891 72.7751L36.5878 73.089L36.2897 73.3878L35.9979 73.6681L35.7138 73.9268L35.4395 74.1607L35.1779 74.3664L34.9331 74.5412L34.7106 74.6825L34.5173 74.7888L34.362 74.8604L34.2537 74.9001L34.2281 74.907L34.1426 74.8787L34.004 74.8197L33.824 74.7266L33.6115 74.5983L33.3743 74.4358L33.1185 74.2414L32.8485 74.0177L32.5679 73.768L32.2787 73.4953L31.9829 73.2032L31.6815 72.8946L31.3752 72.5727L31.0666 72.243L31.0633 72.2395L30.4347 71.5632L30.1146 71.2225L30.1061 71.2135L29.7904 70.884L29.7773 70.8705L29.4616 70.5503L29.4431 70.5319L29.1275 70.224C29.1194 70.216 29.111 70.2082 29.1026 70.2003L28.787 69.9073C28.7762 69.8973 28.7653 69.8875 28.7541 69.8777L28.4384 69.6022L28.4171 69.584L28.3953 69.566L28.0797 69.3105C28.0614 69.2957 28.0426 69.2812 28.0233 69.2669L27.7077 69.0337C27.6838 69.0161 27.6592 68.9989 27.6338 68.9821L27.3181 68.7731C27.2869 68.7525 27.2546 68.7324 27.2211 68.713L26.9054 68.5303C26.8644 68.5065 26.8219 68.4838 26.7778 68.4622L26.4621 68.3072C26.4085 68.2809 26.3526 68.2561 26.2949 68.2331L25.9792 68.1073C25.9099 68.0797 25.8379 68.0546 25.7636 68.0321L25.448 67.9366C25.361 67.9102 25.271 67.8876 25.1787 67.8688L24.863 67.8044C24.7591 67.7832 24.6526 67.7669 24.5444 67.7557L24.2288 67.7231C24.1134 67.7111 23.9965 67.705 23.8794 67.7047L23.5637 67.7041C23.4464 67.7038 23.3293 67.7094 23.2136 67.7209L22.898 67.7523C22.7892 67.763 22.6821 67.779 22.5776 67.7998L22.2619 67.8629C22.1689 67.8815 22.0782 67.9039 21.9904 67.9301L21.6748 68.0243C21.5997 68.0467 21.527 68.0718 21.457 68.0995L21.1413 68.224C21.0829 68.247 21.0265 68.2718 20.9722 68.2982L20.6566 68.452C20.6119 68.4737 20.5688 68.4966 20.5274 68.5204L20.2117 68.702C20.1779 68.7215 20.1451 68.7417 20.1135 68.7625L19.7979 68.9704C19.7722 68.9873 19.7473 69.0046 19.7232 69.0223L19.4075 69.2546L19.3961 69.2631L19.3797 69.2755C19.3698 69.2831 19.3601 69.2908 19.3505 69.2985L19.0349 69.5531L19.0147 69.5696L19.0064 69.5766L18.9913 69.5896L18.6756 69.8643L18.6616 69.8766L18.6424 69.8942L18.3267 70.1865C18.3182 70.1944 18.3098 70.2024 18.3015 70.2104L17.9858 70.5178L17.9671 70.5364L17.6515 70.8561L17.6381 70.8698L17.3225 71.1989L17.3137 71.2081L16.9981 71.5439L16.3646 72.2254L16.3615 72.2287L16.0524 72.5591L15.7462 72.8812L15.4445 73.1904L15.1484 73.4834L14.8589 73.7569L14.5779 74.0077L14.3074 74.2325L14.051 74.4283L13.8129 74.5921L13.5992 74.7219L13.4176 74.8165L13.277 74.8769L13.1868 74.9071L13.1645 74.9012L13.0583 74.8626L12.9049 74.7926L12.713 74.6877L12.4915 74.5479L12.2475 74.3745L11.9866 74.1699L11.7128 73.9372L11.429 73.6795L11.1375 73.4L10.8397 73.1019L10.5366 72.7886L10.229 72.4633L9.28522 71.4496L8.96378 71.1093L8.95374 71.0988L8.6381 70.7721L8.62327 70.757L8.30762 70.4406L8.29519 70.4283L8.28714 70.4205L7.9715 70.1173L7.9565 70.1031L7.94413 70.0917L7.62849 69.8042C7.61675 69.7935 7.60474 69.783 7.59246 69.7725L7.27682 69.5034C7.26152 69.4904 7.2458 69.4775 7.22969 69.4648L6.91404 69.2165C6.8941 69.2008 6.87354 69.1854 6.85238 69.1703L6.53674 68.945C6.51067 68.9263 6.48372 68.9082 6.45588 68.8905L6.14022 68.6901C6.10604 68.6684 6.07056 68.6474 6.03386 68.6273L5.71822 68.4536C5.67334 68.4289 5.62668 68.4054 5.57837 68.3831L5.26272 68.2378C5.20417 68.2108 5.14326 68.1857 5.08026 68.1626L4.76462 68.0468C4.68955 68.0192 4.61163 67.9945 4.53135 67.9729L4.21571 67.8876C4.12279 67.8626 4.02693 67.8416 3.92889 67.8249L3.61323 67.771C3.50465 67.7525 3.39375 67.7392 3.28159 67.7314L2.96595 67.7094C2.8487 67.7012 2.73051 67.699 2.61263 67.7027L2.29698 67.7127C2.18148 67.7164 2.06669 67.7257 1.95378 67.7407L1.63814 67.7827C0.510554 67.9325 -0.200291 68.6003 0.0504195 69.2742C0.30113 69.948 1.41845 70.3729 2.54603 70.223L2.65268 70.2089L2.68877 70.2186L2.79713 70.2584L2.95239 70.3299L3.14563 70.4362L3.36822 70.5775L3.61303 70.7523L3.87458 70.9581L4.14887 71.1919L4.43298 71.4506L4.7248 71.731L5.02288 72.0298L5.32614 72.3436L5.63392 72.6694L6.57816 73.6835L6.58411 73.6899L6.89977 74.0238L6.90998 74.0344L7.22563 74.3608L7.24067 74.3761L7.55631 74.6919L7.56656 74.7021L7.57707 74.7123L7.89271 75.0149L7.90404 75.0257L7.92039 75.0407L8.23603 75.3275C8.2479 75.3382 8.26005 75.3489 8.27246 75.3595L8.58811 75.6277C8.60358 75.6409 8.61947 75.6538 8.63578 75.6666L8.95142 75.914C8.97158 75.9298 8.99239 75.9453 9.01379 75.9605L9.32944 76.1849C9.3558 76.2036 9.38308 76.2219 9.41124 76.2397L9.72688 76.439C9.76147 76.4608 9.79737 76.4819 9.8345 76.5022L10.1501 76.6747C10.1955 76.6995 10.2427 76.7231 10.2916 76.7454L10.6073 76.8896C10.6665 76.9166 10.728 76.9417 10.7917 76.9648L11.1074 77.0794C11.1832 77.1069 11.2619 77.1315 11.3429 77.153L11.6585 77.2369C11.7522 77.2618 11.8488 77.2826 11.9475 77.299L12.2632 77.3515C12.3723 77.3697 12.4837 77.3825 12.5963 77.3899L12.9119 77.4106C13.0293 77.4183 13.1476 77.42 13.2655 77.4157L13.5812 77.4044C13.6963 77.4002 13.8107 77.3904 13.9232 77.375L14.2389 77.3317C14.3423 77.3175 14.4437 77.2987 14.5423 77.2753L14.858 77.2004C14.9443 77.18 15.0282 77.1561 15.1092 77.129L15.4249 77.0233C15.4934 77.0003 15.5597 76.9751 15.6235 76.9477L15.9392 76.812C15.992 76.7893 16.0431 76.7651 16.0922 76.7395L16.4078 76.5751C16.4481 76.5542 16.4869 76.5323 16.5244 76.5096L16.84 76.3179C16.8705 76.2994 16.9001 76.2803 16.9286 76.2606L17.2443 76.0434C17.2674 76.0274 17.2899 76.0111 17.3117 75.9945L17.6274 75.7536L17.6502 75.7359C17.6599 75.7282 17.6695 75.7204 17.6789 75.7126L17.9946 75.4501C18.008 75.439 18.0212 75.4277 18.034 75.4162L18.3496 75.1346L18.3633 75.1222L18.3796 75.107L18.6953 74.8088L18.7029 74.8015L18.7179 74.7869L19.0336 74.4746L19.0501 74.4579L19.3658 74.1343L19.3773 74.1223L19.693 73.7903L19.7001 73.7827L20.0158 73.4453L20.0189 73.442L20.6449 72.7685L20.6495 72.7636L20.9562 72.4373L21.2608 72.1198L21.5605 71.8162L21.8543 71.5301L22.1408 71.2648L22.4182 71.0234L22.6838 70.8091L22.934 70.625L23.1637 70.4738L23.3664 70.3572L23.5336 70.2757L23.6565 70.2272L23.7074 70.212L23.7625 70.2287L23.8874 70.2785L24.0563 70.3614L24.2602 70.4795L24.4909 70.6322L24.7419 70.8176L25.008 71.033L25.2859 71.2755L25.5728 71.5418L25.8668 71.8287L26.1667 72.1329L26.4715 72.451L26.7785 72.7777L26.7829 72.7825L27.4092 73.4564L27.4125 73.4599L27.7282 73.7971L27.7355 73.8049L28.0512 74.1366L28.0629 74.1488L28.3785 74.4719L28.3954 74.4888L28.711 74.8006L28.7224 74.8117L28.7339 74.8227L29.0496 75.1203L29.0656 75.1352L29.0799 75.1482L29.3956 75.429L29.4076 75.4395C29.4167 75.4475 29.426 75.4554 29.4354 75.4632L29.7511 75.7248C29.768 75.7388 29.7854 75.7526 29.8032 75.7661L30.1189 76.0061C30.1298 76.0144 30.141 76.0227 30.1523 76.0308C30.1637 76.0391 30.1753 76.0472 30.1871 76.0553L30.5028 76.2715C30.5316 76.2913 30.5615 76.3105 30.5924 76.3291L30.908 76.5197C30.9459 76.5425 30.9852 76.5645 31.0259 76.5856L31.3416 76.7488C31.3912 76.7745 31.4429 76.7987 31.4964 76.8215L31.812 76.9559C31.8765 76.9834 31.9435 77.0086 32.0127 77.0315L32.3284 77.1359C32.4101 77.163 32.4948 77.1867 32.5819 77.207L32.8976 77.2805C32.9969 77.3036 33.099 77.3222 33.203 77.336L33.5187 77.378C33.6316 77.393 33.7464 77.4024 33.8619 77.406L34.1776 77.416C34.2954 77.4198 34.4136 77.4175 34.5308 77.4093L34.8465 77.3873C34.9586 77.3795 35.0696 77.3662 35.1781 77.3477L35.4938 77.2939C35.5918 77.2771 35.6877 77.2561 35.7806 77.2311L36.0963 77.1458C36.1765 77.1242 36.2545 77.0995 36.3295 77.0719L36.6452 76.9561C36.7082 76.933 36.7691 76.9079 36.8276 76.881L37.1433 76.7356C37.1916 76.7133 37.2382 76.6898 37.2831 76.6651L37.5988 76.4915C37.6355 76.4713 37.6709 76.4503 37.7051 76.4286L38.0208 76.2282C38.0486 76.2105 38.0756 76.1924 38.1017 76.1738L38.4173 75.9484C38.4297 75.9395 38.4419 75.9306 38.4539 75.9215L38.4673 75.9113L38.479 75.9022L38.7946 75.6539C38.8107 75.6412 38.8264 75.6283 38.8417 75.6153L39.1574 75.3462L39.1713 75.3342C39.1788 75.3277 39.1862 75.3211 39.1934 75.3145L39.509 75.027C39.5183 75.0186 39.5274 75.01 39.5364 75.0014L39.8521 74.6982L39.8622 74.6884L39.8725 74.6781L40.1882 74.3617L40.203 74.3466L40.5187 74.0199L40.5287 74.0094L40.8444 73.6753L41.4832 72.9886L41.7909 72.6586L41.7969 72.6523L42.1017 72.33L42.4045 72.0169L42.7025 71.7187L42.9939 71.4392L43.2777 71.1815L43.5515 70.9488L43.8124 70.7443L44.0564 70.5708L44.2779 70.431L44.4698 70.3262L44.6232 70.2561L44.7294 70.2175L44.7517 70.2116L44.8419 70.2418L44.9825 70.3022L45.1641 70.3968L45.3778 70.5266L45.6159 70.6905L45.8723 70.8862L46.1428 71.111L46.4239 71.3618L46.7133 71.6353L47.0094 71.9283L47.3111 72.2376L47.6175 72.5598L47.9264 72.89L47.9295 72.8933L48.5584 73.5699L48.563 73.5749L48.8786 73.9106L48.8874 73.9198L49.203 74.2489L49.2164 74.2627L49.532 74.5823L49.5425 74.5928L49.5508 74.6009L49.8664 74.9083L49.8785 74.9199L49.8916 74.9322L50.2073 75.2246L50.2246 75.2404L50.2405 75.2544L50.5562 75.5291L50.5786 75.5482L50.5998 75.5656L50.9154 75.8202C51.6031 76.3749 52.913 76.4914 53.8411 76.0804C54.7692 75.6694 54.9641 74.8866 54.2765 74.3319L53.9832 74.0954L53.7057 73.854L53.4192 73.5886L53.1254 73.3025L52.8258 72.999L52.5211 72.6813L52.2144 72.3551L52.2098 72.3502L51.5838 71.6768L51.265 71.336L51.2579 71.3284L50.9422 70.9964L50.9307 70.9844L50.615 70.6609L50.5984 70.6441L50.2828 70.3318C50.2754 70.3245 50.2679 70.3172 50.2602 70.31L49.9445 70.0117L49.9321 70.0001L49.9145 69.9841L49.5989 69.7025C49.586 69.6911 49.5729 69.6798 49.5595 69.6686L49.2438 69.4062L49.2313 69.3959C49.2186 69.3855 49.2056 69.3753 49.1923 69.3651L48.8766 69.1242C48.8548 69.1076 48.8324 69.0913 48.8092 69.0753L48.4935 68.8581C48.4841 68.8516 48.4746 68.8452 48.465 68.8389C48.4454 68.8259 48.4254 68.8132 48.4049 68.8008L48.0893 68.6091C48.0519 68.5864 48.013 68.5645 47.9727 68.5436L47.6571 68.3792C47.608 68.3536 47.5569 68.3294 47.5041 68.3067L47.1884 68.1711C47.1246 68.1436 47.0583 68.1184 46.9898 68.0955L46.6741 67.9897C46.5931 67.9626 46.5092 67.9387 46.4229 67.9183L46.1072 67.8434C46.0086 67.8201 45.9072 67.8012 45.8038 67.787L45.4881 67.7437C45.3757 67.7283 45.2612 67.7185 45.146 67.7143L44.8304 67.703ZM14.5997 100.612V150.486H23.8502L42.0695 131.221V100.612H14.5997ZM11.4298 163.505L24.7498 174.254V228.059H29.7498V171.864L14.5699 159.614L11.4298 163.505ZM508.482 206.771V200.385H92.881V186.664H508.482V180.747H92.881V177.11H512.5V190.3H96.8986V196.748H512.5V210.407H96.8986V217.978H243.5V221.615H92.881V206.771H508.482ZM71.5891 83.9416V89.8588H118.191V103.579H56.5714V99.9431H114.173V93.4951H67.5714V80.3052H104.191V83.9416H71.5891ZM882.33 98.4859H901.356L913.5 80.2507H894.474L886.469 92.2716L882.33 98.4859ZM655.038 211.986H636.012L650.156 196.751H669.182L655.038 211.986ZM661.57 211.986H680.595L694.739 196.751H675.714L661.57 211.986ZM706.153 211.986H687.127L701.271 196.751H720.297L706.153 211.986ZM712.684 211.986H731.71L745.854 196.751H726.828L712.684 211.986ZM757.266 211.986H738.241L752.385 196.751H771.41L757.266 211.986ZM763.798 211.986H808.968V196.751H777.942L763.798 211.986ZM857.637 98.4861H876.663L888.807 80.2509H869.781L861.776 92.2718L857.637 98.4861ZM838.663 189.559H819.638V185.416V177.402H838.663V189.559ZM820.138 111.486V154.311H835.999L855.638 137.405V115.309H903.75V111.486H855.638H820.138ZM873.611 164.698H822.138V166.309H875V166.086L875.222 166.309L900.736 140.795L899.125 139.184L873.611 164.698ZM634.013 216.198H806.875V217.809H634.013V216.198ZM806.875 220.809H629.013V222.42H806.875V220.809ZM623.013 225.42H806.875V227.032H623.013V225.42ZM882.364 213.01C882.408 213.007 882.451 213.005 882.495 213.004C882.531 213.003 882.566 213.002 882.601 213.002C882.627 213.003 882.652 213.003 882.677 213.003L882.718 213.005L883.034 213.016C883.149 213.02 883.263 213.03 883.376 213.045L883.691 213.089C883.795 213.103 883.896 213.122 883.995 213.145L884.31 213.22C884.397 213.24 884.481 213.264 884.562 213.292L884.877 213.397C884.946 213.42 885.012 213.445 885.076 213.473L885.392 213.608C885.41 213.617 885.429 213.625 885.447 213.633L885.469 213.643L885.486 213.652C885.506 213.661 885.526 213.671 885.545 213.681L885.86 213.845C885.901 213.866 885.939 213.888 885.977 213.911L886.292 214.103L886.315 214.117L886.342 214.133C886.355 214.142 886.368 214.151 886.381 214.16L886.697 214.377L886.709 214.386L886.73 214.4L886.747 214.413L886.764 214.426L887.08 214.667C887.088 214.673 887.097 214.68 887.105 214.687L887.115 214.695L887.131 214.708L887.447 214.97L887.471 214.99L887.486 215.004L887.802 215.286C887.812 215.295 887.822 215.304 887.832 215.313L888.148 215.612L888.156 215.62L888.17 215.634L888.486 215.946L888.503 215.963L888.818 216.286L888.83 216.298L889.146 216.63L889.153 216.638L889.471 216.979L890.097 217.652L890.102 217.657L890.409 217.983L890.713 218.301L891.013 218.604L891.307 218.89L891.593 219.156L891.871 219.397L892.164 219.634C892.852 220.188 892.657 220.971 891.729 221.382C890.801 221.793 889.491 221.677 888.803 221.122L888.487 220.867L888.465 220.849L888.444 220.831L888.128 220.556L888.112 220.542L888.095 220.526L887.779 220.234L887.766 220.222L887.754 220.21L887.438 219.903L887.43 219.895L887.42 219.884L887.104 219.564L887.091 219.551L886.775 219.222L886.766 219.212L886.451 218.877L886.446 218.872L885.817 218.195L885.814 218.192L885.505 217.862L885.199 217.539L884.897 217.23L884.601 216.937L884.311 216.664L884.03 216.413L883.76 216.188L883.503 215.992L883.265 215.828L883.052 215.699L882.87 215.604L882.729 215.544L882.639 215.513L882.617 215.519L882.511 215.558L882.357 215.628L882.166 215.733L881.944 215.873L881.7 216.046L881.439 216.251L881.165 216.483L880.881 216.741L880.59 217.02L880.292 217.319L879.989 217.632L879.684 217.954L879.679 217.96L879.371 218.29L878.732 218.977L878.416 219.311L878.406 219.322L878.091 219.648L878.076 219.663L877.76 219.98L877.75 219.99L877.74 220L877.424 220.303C877.415 220.312 877.406 220.32 877.397 220.329L877.081 220.616C877.069 220.627 877.057 220.638 877.045 220.648L876.729 220.917C876.714 220.93 876.698 220.943 876.682 220.956L876.367 221.204C876.357 221.212 876.347 221.219 876.337 221.227L876.321 221.238L876.305 221.25L875.989 221.476C875.963 221.494 875.936 221.512 875.908 221.53L875.593 221.73L875.567 221.746L875.54 221.763C875.522 221.773 875.504 221.783 875.486 221.793L875.171 221.967C875.126 221.992 875.079 222.015 875.031 222.037L874.715 222.183C874.657 222.21 874.596 222.235 874.533 222.258L874.217 222.374C874.183 222.386 874.149 222.398 874.114 222.409C874.096 222.415 874.077 222.421 874.059 222.426L874.023 222.437L873.984 222.448L873.668 222.533C873.634 222.542 873.599 222.551 873.564 222.559C873.504 222.573 873.443 222.585 873.381 222.596L873.066 222.649C872.957 222.668 872.846 222.681 872.734 222.689L872.418 222.711C872.301 222.719 872.183 222.722 872.065 222.718L871.749 222.708C871.703 222.706 871.657 222.704 871.611 222.701C871.542 222.696 871.474 222.689 871.406 222.68L871.091 222.638C870.987 222.624 870.884 222.605 870.785 222.582L870.469 222.509C870.382 222.488 870.298 222.465 870.216 222.438L869.9 222.333L869.886 222.328L869.849 222.316L869.815 222.303C869.787 222.293 869.759 222.282 869.732 222.271L869.7 222.258L869.384 222.123L869.348 222.108L869.325 222.097L869.293 222.082C869.272 222.072 869.25 222.061 869.229 222.051L868.914 221.887L868.891 221.875L868.869 221.864L868.858 221.858C868.837 221.846 868.816 221.834 868.796 221.821L868.48 221.631C868.449 221.612 868.419 221.593 868.39 221.573L868.075 221.357L868.063 221.349L868.046 221.337L868.028 221.324L868.006 221.308L867.691 221.068C867.673 221.054 867.656 221.041 867.639 221.027L867.323 220.765C867.309 220.754 867.296 220.742 867.283 220.731L866.968 220.45L866.948 220.433L866.937 220.422L866.621 220.124C866.614 220.117 866.606 220.11 866.599 220.102L866.283 219.791L866.266 219.774L865.951 219.451L865.939 219.438L865.623 219.107L865.616 219.099L865.3 218.762L865.297 218.758L864.671 218.084L864.666 218.079L864.359 217.753L864.054 217.435L863.754 217.13L863.46 216.844L863.173 216.577L862.896 216.335L862.629 216.119L862.379 215.934L862.148 215.781L861.944 215.663L861.775 215.58L861.65 215.53L861.595 215.514L861.544 215.529L861.421 215.577L861.254 215.659L861.051 215.776L860.822 215.927L860.571 216.111L860.306 216.325L860.028 216.567L859.742 216.832L859.448 217.118L859.148 217.422L858.844 217.739L858.537 218.065L858.532 218.07L857.906 218.744L857.903 218.747L857.588 219.085L857.581 219.092L857.265 219.424L857.253 219.436L856.938 219.76L856.921 219.776L856.605 220.089L856.583 220.111L856.267 220.409C856.257 220.418 856.247 220.427 856.237 220.436L855.922 220.718C855.909 220.729 855.896 220.741 855.882 220.752L855.567 221.014L855.556 221.023L855.537 221.038L855.515 221.055L855.199 221.296C855.178 221.313 855.155 221.329 855.132 221.345L854.816 221.562C854.802 221.572 854.788 221.581 854.774 221.591C854.759 221.6 854.743 221.61 854.728 221.62L854.412 221.811C854.375 221.834 854.336 221.856 854.295 221.877L853.98 222.041C853.955 222.054 853.93 222.067 853.904 222.079C853.879 222.091 853.853 222.102 853.827 222.114L853.511 222.249C853.447 222.277 853.381 222.302 853.312 222.325L852.997 222.431C852.916 222.458 852.832 222.482 852.746 222.502L852.43 222.577C852.401 222.584 852.372 222.59 852.343 222.596C852.272 222.611 852.2 222.623 852.126 222.633L851.811 222.677C851.698 222.692 851.584 222.702 851.469 222.706L851.153 222.717C851.035 222.722 850.917 222.72 850.8 222.712L850.484 222.692C850.432 222.688 850.381 222.684 850.33 222.678L850.3 222.675C850.25 222.669 850.2 222.661 850.151 222.653L849.835 222.601C849.774 222.591 849.714 222.579 849.655 222.566C849.619 222.557 849.582 222.548 849.546 222.539L849.23 222.455C849.149 222.433 849.071 222.409 848.995 222.381L848.679 222.267L848.651 222.256C848.626 222.247 848.602 222.237 848.578 222.227C848.55 222.216 848.522 222.204 848.495 222.191L848.179 222.047C848.163 222.04 848.147 222.032 848.131 222.025C848.099 222.009 848.068 221.993 848.038 221.976L847.722 221.804L847.698 221.791L847.673 221.776C847.653 221.765 847.634 221.753 847.615 221.741L847.299 221.541C847.279 221.529 847.26 221.517 847.242 221.504L847.217 221.487L846.901 221.262L846.879 221.246C846.866 221.236 846.852 221.226 846.839 221.216L846.523 220.968L846.506 220.955C846.496 220.946 846.486 220.938 846.476 220.929L846.16 220.661C846.148 220.651 846.135 220.64 846.124 220.629L845.808 220.342L845.791 220.326L845.78 220.317L845.465 220.014L845.454 220.003L845.444 219.994L845.128 219.678L845.113 219.663L844.798 219.336L844.787 219.326L844.472 218.992L844.466 218.985L843.521 217.971L843.214 217.645L842.91 217.332L842.612 217.033L842.321 216.752L842.036 216.494L841.762 216.26L841.501 216.054L841.256 215.879L841.033 215.738L840.84 215.632L840.685 215.56L840.576 215.52L840.54 215.511L840.434 215.525C839.306 215.675 838.189 215.25 837.938 214.576C837.687 213.902 838.398 213.234 839.526 213.084L839.841 213.042C839.954 213.027 840.069 213.018 840.185 213.014L840.5 213.004C840.564 213.002 840.628 213.002 840.692 213.004C840.746 213.005 840.8 213.007 840.854 213.011L841.169 213.033C841.281 213.041 841.392 213.054 841.501 213.073L841.816 213.127C841.914 213.143 842.01 213.164 842.103 213.189L842.419 213.275C842.448 213.283 842.477 213.291 842.506 213.3C842.556 213.315 842.604 213.331 842.652 213.349L842.968 213.464C842.99 213.473 843.012 213.481 843.034 213.49C843.048 213.495 843.061 213.501 843.075 213.506C843.1 213.517 843.126 213.528 843.15 213.54L843.466 213.685L843.495 213.698C843.51 213.705 843.524 213.713 843.539 213.72C843.561 213.731 843.584 213.743 843.606 213.755L843.921 213.929C843.938 213.938 843.953 213.947 843.969 213.956C843.98 213.962 843.99 213.968 844 213.975L844.028 213.992L844.343 214.192C844.357 214.201 844.37 214.209 844.383 214.218C844.397 214.227 844.411 214.237 844.424 214.247L844.74 214.472L844.762 214.488L844.774 214.497L844.787 214.507L844.802 214.518L845.117 214.767C845.126 214.774 845.135 214.781 845.143 214.788L845.164 214.805L845.48 215.074C845.492 215.085 845.504 215.095 845.516 215.106L845.832 215.393L845.84 215.401L845.859 215.419L846.175 215.722L846.195 215.742L846.511 216.059L846.526 216.074L846.841 216.401L846.851 216.411L847.173 216.751L848.117 217.765L848.424 218.09L848.727 218.404L849.025 218.702L849.317 218.981L849.6 219.239L849.874 219.472L850.135 219.676L850.379 219.85L850.601 219.989L850.792 220.094L850.946 220.164L851.052 220.203L851.074 220.209L851.165 220.179L851.305 220.118L851.487 220.024L851.7 219.894L851.939 219.73L852.195 219.534L852.465 219.309L852.747 219.059L853.036 218.785L853.332 218.492L853.634 218.183L853.94 217.861L854.249 217.531L854.252 217.527L854.886 216.846L855.201 216.51L855.21 216.501L855.526 216.172L855.539 216.158L855.855 215.838L855.873 215.82L856.189 215.512C856.197 215.504 856.206 215.496 856.214 215.488L856.53 215.196C856.541 215.186 856.552 215.176 856.563 215.166L856.879 214.891C856.893 214.879 856.908 214.867 856.922 214.855L857.238 214.6C857.257 214.585 857.276 214.571 857.295 214.556L857.611 214.324C857.624 214.314 857.638 214.304 857.652 214.295C857.663 214.287 857.674 214.28 857.685 214.272L858.001 214.064L858.025 214.049C858.034 214.043 858.044 214.037 858.053 214.031C858.068 214.022 858.084 214.013 858.099 214.004L858.415 213.822C858.456 213.798 858.5 213.775 858.544 213.754L858.86 213.6C858.914 213.574 858.97 213.549 859.029 213.526L859.345 213.401C859.366 213.393 859.387 213.385 859.408 213.377C859.422 213.372 859.436 213.367 859.449 213.362C859.486 213.35 859.524 213.338 859.562 213.326L859.878 213.232C859.903 213.225 859.927 213.218 859.952 213.211C859.967 213.207 859.981 213.203 859.996 213.199C860.046 213.187 860.097 213.175 860.15 213.165L860.465 213.102C860.57 213.081 860.677 213.065 860.786 213.054L861.101 213.023C861.217 213.011 861.334 213.006 861.451 213.006L861.767 213.007C861.824 213.007 861.881 213.008 861.938 213.011C861.963 213.012 861.988 213.014 862.013 213.016C862.047 213.018 862.082 213.021 862.116 213.025L862.432 213.057C862.54 213.069 862.647 213.085 862.751 213.106L863.066 213.171C863.098 213.177 863.13 213.184 863.161 213.191C863.186 213.197 863.212 213.204 863.237 213.21C863.251 213.214 863.266 213.218 863.28 213.222C863.299 213.227 863.317 213.233 863.336 213.238L863.651 213.334C863.689 213.345 863.726 213.357 863.762 213.37C863.798 213.382 863.833 213.395 863.867 213.409L864.182 213.535C864.24 213.558 864.296 213.583 864.35 213.609L864.665 213.764C864.683 213.772 864.7 213.781 864.717 213.79C864.731 213.797 864.745 213.805 864.759 213.813C864.77 213.819 864.782 213.825 864.793 213.832L865.109 214.015C865.12 214.021 865.131 214.028 865.142 214.035C865.164 214.048 865.185 214.061 865.206 214.075L865.521 214.284L865.543 214.298L865.551 214.304C865.566 214.314 865.581 214.325 865.595 214.335L865.911 214.569L865.937 214.588L865.959 214.605L865.967 214.612L866.283 214.868L866.3 214.881L866.313 214.893L866.326 214.904L866.642 215.179L866.649 215.186L866.658 215.194L866.675 215.209L866.99 215.502L867.007 215.518L867.015 215.526L867.331 215.834L867.349 215.852L867.665 216.172L867.678 216.186L867.994 216.515L868.002 216.524L868.322 216.865L868.951 217.541L868.954 217.545L869.263 217.874L869.569 218.196L869.87 218.505L870.166 218.797L870.455 219.07L870.736 219.32L871.006 219.543L871.262 219.738L871.499 219.9L871.712 220.028L871.892 220.121L872.03 220.18L872.116 220.209L872.141 220.202L872.25 220.162L872.405 220.091L872.598 219.984L872.821 219.843L873.065 219.668L873.327 219.462L873.601 219.229L873.885 218.97L874.177 218.69L874.475 218.391L874.779 218.077L875.084 217.754L875.089 217.748L875.713 217.078L876.031 216.737L876.037 216.731L876.352 216.397L876.362 216.386L876.678 216.06L876.693 216.044L877.009 215.729L877.03 215.708L877.345 215.406C877.354 215.397 877.363 215.388 877.373 215.38L877.689 215.093C877.7 215.082 877.713 215.072 877.725 215.061L878.041 214.793C878.056 214.78 878.072 214.767 878.088 214.754L878.404 214.506L878.427 214.488C878.44 214.479 878.453 214.469 878.466 214.46L878.782 214.236L878.802 214.222L878.817 214.211L878.843 214.194L878.864 214.181L879.179 213.981L879.197 213.971L879.21 213.962L879.235 213.947L879.266 213.93L879.287 213.918L879.603 213.746C879.622 213.735 879.641 213.725 879.66 213.715C879.688 213.701 879.716 213.688 879.744 213.675L880.06 213.531C880.119 213.504 880.181 213.479 880.244 213.456L880.56 213.341C880.598 213.327 880.636 213.314 880.675 213.302C880.715 213.29 880.755 213.278 880.795 213.267L881.111 213.184C881.205 213.159 881.301 213.138 881.4 213.121L881.716 213.069C881.757 213.062 881.798 213.056 881.84 213.051C881.867 213.047 881.895 213.044 881.923 213.041C881.965 213.037 882.007 213.033 882.049 213.031L882.364 213.01ZM826.44 223.736C829.685 223.736 832.315 221.106 832.315 217.861C832.315 214.616 829.685 211.986 826.44 211.986C823.196 211.986 820.565 214.616 820.565 217.861C820.565 221.106 823.196 223.736 826.44 223.736ZM1257.16 174.401H1463.37V180.401H1257.16V174.401ZM760.806 36.0508H757.806V39.0508V59.5508V62.5508V81.0509H651.806V87.0509H757.806V92.0508H651.806V98.0508H760.806H763.806V95.0508V87.0509V84.0509V65.5508H855.306V59.5508H763.806V54.0668H1010.81V48.0668H763.806V42.0508H855.306V36.0508H760.806ZM772.806 98.0508H839.806V73.8008H772.806V91.1222V98.0508ZM746.488 140.311H763.164V120.588H746.488V130.676V140.311ZM559.742 222.42H610.305V174.42H559.742V202.992H526.033V222.42H559.742ZM727.423 182.083H666.423V172.447V155.359L693.923 126.359H727.423V182.083ZM795.33 153.393H771.411V141.705V118.309H653.75V112.309H793.75V112.486H795.33V153.393ZM515.231 222.42H265.231V216.42H515.231V222.42ZM743.115 167.183H798.115V161.183H743.115V167.183ZM798.115 181.183H743.115V175.183H798.115V181.183Z" fill="url(#paint0_linear_204_10508)"/>
<path d="M127 73.9795H64.4138L45.4483 42.4863H12V154.016L33.4368 169.486M127 142.413H101.397M101.397 142.413H64.4138M101.397 142.413L75.477 169.486H33.4368M33.4368 169.486V228.56H101.397H613L645 192.56H814.705M929.705 74.4863H867.118L848.153 104.874M848.153 104.874H814.705V154.016V169.486M848.153 104.874H904.101M929.705 142.413H904.101L878.182 169.486H836.141H814.705M814.705 192.56V228.56H1374M814.705 192.56V169.486M1474 192.56H1304.3L1272.3 228.56" stroke="#8F8E93" stroke-width="2" stroke-linejoin="round"/>
<path d="M134.029 70.2711C130.79 70.2564 128.152 72.87 128.138 76.1088C128.123 79.3476 130.737 81.9851 133.976 81.9998C137.214 82.0145 139.852 79.4009 139.867 76.1621C139.881 72.9233 137.268 70.2858 134.029 70.2711Z" fill="black"/>
<path d="M121.813 73.84C121.826 70.8711 124.244 68.4753 127.213 68.4888C130.182 68.5022 132.578 70.9199 132.564 73.8889C132.551 76.8578 130.133 79.2536 127.164 79.2401C124.195 79.2267 121.799 76.8089 121.813 73.84Z" fill="#F0EFED" stroke="black" stroke-width="0.977408"/>
<path d="M133.705 139.271C130.466 139.256 127.828 141.87 127.814 145.109C127.799 148.348 130.412 150.985 133.651 151C136.89 151.015 139.528 148.401 139.542 145.162C139.557 141.923 136.943 139.286 133.705 139.271Z" fill="black"/>
<path d="M121.489 142.84C121.502 139.871 123.92 137.475 126.889 137.489C129.858 137.502 132.254 139.92 132.24 142.889C132.227 145.858 129.809 148.254 126.84 148.24C123.871 148.227 121.475 145.809 121.489 142.84Z" fill="#F0EFED" stroke="black" stroke-width="0.977408"/>
<path d="M938.029 70.2711C934.79 70.2564 932.152 72.87 932.138 76.1088C932.123 79.3476 934.737 81.9851 937.976 81.9998C941.214 82.0145 943.852 79.4009 943.867 76.1621C943.881 72.9233 941.268 70.2858 938.029 70.2711Z" fill="black"/>
<path d="M925.813 73.84C925.826 70.8711 928.244 68.4753 931.213 68.4888C934.182 68.5022 936.578 70.9199 936.564 73.8889C936.551 76.8578 934.133 79.2536 931.164 79.2401C928.195 79.2267 925.799 76.8089 925.813 73.84Z" fill="#F0EFED" stroke="black" stroke-width="0.977408"/>
<path d="M937.705 139.271C934.466 139.256 931.828 141.87 931.814 145.109C931.799 148.348 934.412 150.985 937.651 151C940.89 151.015 943.528 148.401 943.542 145.162C943.557 141.923 940.943 139.286 937.705 139.271Z" fill="black"/>
<path d="M925.489 142.84C925.502 139.871 927.92 137.475 930.889 137.489C933.858 137.502 936.254 139.92 936.24 142.889C936.227 145.858 933.809 148.254 930.84 148.24C927.871 148.227 925.475 145.809 925.489 142.84Z" fill="#F0EFED" stroke="black" stroke-width="0.977408"/>
<defs>
<linearGradient id="paint0_linear_204_10508" x1="1443" y1="228.059" x2="1445" y2="-11.4409" gradientUnits="userSpaceOnUse">
<stop stop-color="#F1EFED"/>
<stop offset="0.503125" stop-color="#A9A5A4" stop-opacity="0.07"/>
<stop offset="1" stop-color="#F1EFED"/>
</linearGradient>
</defs>
</svg>
