<svg width="1520" height="241" viewBox="0 0 1520 241" fill="none" xmlns="http://www.w3.org/2000/svg">
<path opacity="0.25" fill-rule="evenodd" clip-rule="evenodd" d="M1490.53 233.236H1287.24L1308.24 209.144H1490.53V233.236ZM1246.36 155.375H1286.99V138.779H1245.36L1246.36 155.375ZM1271.54 104.514H1516.53V78.816H1271.54V104.514ZM1299.24 126.197H1271.07V109.6H1299.24V126.197ZM1334.24 155.375H1516.53V131.283H1334.24V155.375ZM927.137 222.092H1230.35V208.994H927.137H924.137V205.994V187.901V184.901H927.137H1233.35V190.901H930.137V202.994H1233.35H1236.35V205.994V225.092V228.092H1233.35H927.137V222.092ZM1257.16 167.901H1463.37V173.901H1257.16V167.901ZM1516.53 45.835H1268.62V51.835H1516.53V45.835ZM1318.12 155.375V119.505V116.505H1321.12H1519.45V122.505H1324.12V155.375H1318.12ZM1516.53 27.6323H1268.62V33.6323H1516.53V27.6323ZM1268.62 10.5H1516.53V16.5H1268.62V10.5ZM17.029 56.9858H0L3.70419 61.7568L10.8696 70.9858H27.8986L17.029 56.9858ZM39.1306 56.9858H22.1016L25.8058 61.7568L32.9711 70.9858H50.0001L39.1306 56.9858ZM42.0685 230.436V187.61H57.9302L77.5685 204.516V230.436H42.0685ZM92.881 171.134V181.338H101.631V175.162L96.7906 171.134H92.881ZM106.631 181.338V171.134H110.541L115.381 175.162V181.338H106.631ZM120.381 171.134V181.338H129.131V175.162L124.291 171.134H120.381ZM74.0839 176.236L73.8624 176.014V176.236H35.2501V174.625H72.4728L91.2687 155.829L92.8798 157.44L74.0839 176.236ZM44.8304 78.2029C44.7125 78.1987 44.5943 78.2004 44.4769 78.2081L44.1612 78.2288C44.0486 78.2362 43.9372 78.249 43.8281 78.2672L43.5124 78.3197C43.4137 78.3361 43.3171 78.3569 43.2234 78.3817L42.9078 78.4657C42.8268 78.4872 42.7481 78.5118 42.6723 78.5393L42.3566 78.6539C42.2929 78.677 42.2313 78.7021 42.1721 78.7291L41.8565 78.8733C41.8076 78.8956 41.7604 78.9192 41.7151 78.944L41.3994 79.1165C41.3623 79.1368 41.3264 79.1579 41.2918 79.1797L40.9762 79.379C40.948 79.3968 40.9207 79.4151 40.8944 79.4338L40.5787 79.6582C40.5573 79.6734 40.5365 79.6889 40.5163 79.7047L40.2007 79.9521C40.1844 79.9649 40.1685 79.9778 40.153 79.991L39.8374 80.2592C39.825 80.2698 39.8128 80.2804 39.8009 80.2912L39.4853 80.5779L39.4715 80.5907L39.4576 80.6038L39.142 80.9064L39.1324 80.9157L39.1212 80.9267L38.8056 81.2426L38.7905 81.2579L38.4749 81.5843L38.4647 81.5949L38.149 81.9288L38.1431 81.9351L37.8254 82.2757L37.2017 82.9462L37.196 82.9523L36.891 83.2751L36.5878 83.5889L36.2897 83.8877L35.9979 84.1681L35.7138 84.4268L35.4395 84.6606L35.1779 84.8664L34.9331 85.0412L34.7106 85.1825L34.5173 85.2888L34.362 85.3603L34.2537 85.4001L34.2281 85.407L34.1426 85.3787L34.004 85.3197L33.824 85.2266L33.6115 85.0983L33.3743 84.9358L33.1185 84.7414L32.8485 84.5177L32.5679 84.268L32.2787 83.9953L31.9829 83.7031L31.6815 83.3945L31.3752 83.0727L31.0666 82.743L31.0633 82.7394L30.4347 82.0632L30.1146 81.7225L30.1061 81.7135L29.7904 81.384L29.7773 81.3704L29.4616 81.0503L29.4431 81.0319L29.1275 80.724C29.1194 80.716 29.111 80.7081 29.1026 80.7003L28.787 80.4073C28.7762 80.3973 28.7653 80.3874 28.7541 80.3777L28.4384 80.1022L28.4171 80.084L28.3953 80.066L28.0797 79.8105C28.0614 79.7957 28.0426 79.7812 28.0233 79.7669L27.7077 79.5337C27.6838 79.516 27.6592 79.4988 27.6338 79.482L27.3181 79.2731C27.2869 79.2524 27.2546 79.2324 27.2211 79.213L26.9054 79.0302C26.8644 79.0065 26.8219 78.9838 26.7778 78.9621L26.4621 78.8072C26.4085 78.7808 26.3526 78.7561 26.2949 78.7331L25.9792 78.6073C25.9099 78.5797 25.8379 78.5545 25.7636 78.5321L25.448 78.4365C25.361 78.4102 25.271 78.3876 25.1787 78.3687L24.863 78.3044C24.7591 78.2832 24.6526 78.2669 24.5444 78.2557L24.2288 78.223C24.1134 78.2111 23.9965 78.205 23.8794 78.2047L23.5637 78.204C23.4464 78.2038 23.3293 78.2094 23.2136 78.2209L22.898 78.2522C22.7892 78.263 22.6821 78.2789 22.5776 78.2998L22.2619 78.3629C22.1689 78.3814 22.0782 78.4039 21.9904 78.4301L21.6748 78.5243C21.5997 78.5467 21.527 78.5718 21.457 78.5994L21.1413 78.724C21.0829 78.747 21.0265 78.7718 20.9722 78.7982L20.6566 78.952C20.6119 78.9737 20.5688 78.9965 20.5274 79.0204L20.2117 79.202C20.1779 79.2215 20.1451 79.2417 20.1135 79.2625L19.7979 79.4703C19.7722 79.4872 19.7473 79.5046 19.7232 79.5223L19.4075 79.7546L19.3961 79.7631L19.3797 79.7755C19.3698 79.7831 19.3601 79.7907 19.3505 79.7985L19.0349 80.0531L19.0147 80.0696L19.0064 80.0766L18.9913 80.0896L18.6756 80.3643L18.6616 80.3766L18.6424 80.3941L18.3267 80.6864C18.3182 80.6944 18.3098 80.7023 18.3015 80.7104L17.9858 81.0177L17.9671 81.0363L17.6515 81.356L17.6381 81.3697L17.3225 81.6989L17.3137 81.7081L16.9981 82.0438L16.3646 82.7253L16.3615 82.7287L16.0524 83.059L15.7462 83.3812L15.4445 83.6904L15.1484 83.9834L14.8589 84.2569L14.5779 84.5077L14.3074 84.7325L14.051 84.9282L13.8129 85.0921L13.5992 85.2219L13.4176 85.3164L13.277 85.3768L13.1868 85.4071L13.1645 85.4012L13.0583 85.3626L12.9049 85.2925L12.713 85.1877L12.4915 85.0478L12.2475 84.8744L11.9866 84.6699L11.7128 84.4372L11.429 84.1795L11.1375 83.8999L10.8397 83.6019L10.5366 83.2886L10.229 82.9632L9.28522 81.9495L8.96378 81.6093L8.95374 81.5988L8.6381 81.2721L8.62327 81.257L8.30762 80.9406L8.29519 80.9283L8.28714 80.9205L7.9715 80.6172L7.9565 80.603L7.94413 80.5916L7.62849 80.3042C7.61675 80.2935 7.60474 80.2829 7.59246 80.2725L7.27682 80.0034C7.26152 79.9903 7.2458 79.9775 7.22969 79.9648L6.91404 79.7165C6.8941 79.7008 6.87354 79.6854 6.85238 79.6703L6.53674 79.4449C6.51067 79.4263 6.48372 79.4082 6.45588 79.3905L6.14022 79.1901C6.10604 79.1684 6.07056 79.1474 6.03386 79.1272L5.71822 78.9536C5.67334 78.9289 5.62668 78.9054 5.57837 78.8831L5.26272 78.7377C5.20417 78.7108 5.14326 78.6857 5.08026 78.6626L4.76462 78.5467C4.68955 78.5192 4.61163 78.4945 4.53135 78.4728L4.21571 78.3876C4.12279 78.3625 4.02693 78.3415 3.92889 78.3248L3.61323 78.271C3.50465 78.2524 3.39375 78.2392 3.28159 78.2314L2.96595 78.2093C2.8487 78.2012 2.73051 78.1989 2.61263 78.2027L2.29698 78.2127C2.18148 78.2163 2.06669 78.2257 1.95378 78.2407L1.63814 78.2827C0.510554 78.4325 -0.200291 79.1002 0.0504195 79.7741C0.30113 80.448 1.41845 80.8728 2.54603 80.723L2.65268 80.7088L2.68877 80.7186L2.79713 80.7583L2.95239 80.8298L3.14563 80.9362L3.36822 81.0775L3.61303 81.2523L3.87458 81.458L4.14887 81.6919L4.43298 81.9506L4.7248 82.2309L5.02288 82.5297L5.32614 82.8436L5.63392 83.1694L6.57816 84.1835L6.58411 84.1898L6.89977 84.5237L6.90998 84.5344L7.22563 84.8607L7.24067 84.876L7.55631 85.1919L7.56656 85.202L7.57707 85.2122L7.89271 85.5149L7.90404 85.5256L7.92039 85.5407L8.23603 85.8274C8.2479 85.8382 8.26005 85.8489 8.27246 85.8594L8.58811 86.1277C8.60358 86.1408 8.61947 86.1538 8.63578 86.1666L8.95142 86.414C8.97158 86.4298 8.99239 86.4453 9.01379 86.4605L9.32944 86.6848C9.3558 86.7036 9.38308 86.7219 9.41124 86.7396L9.72688 86.9389C9.76147 86.9608 9.79737 86.9819 9.8345 87.0022L10.1501 87.1747C10.1955 87.1995 10.2427 87.2231 10.2916 87.2454L10.6073 87.3895C10.6665 87.4166 10.728 87.4417 10.7917 87.4648L11.1074 87.5793C11.1832 87.6069 11.2619 87.6315 11.3429 87.653L11.6585 87.7369C11.7522 87.7618 11.8488 87.7825 11.9475 87.799L12.2632 87.8515C12.3723 87.8697 12.4837 87.8825 12.5963 87.8899L12.9119 87.9105C13.0293 87.9182 13.1476 87.92 13.2655 87.9157L13.5812 87.9044C13.6963 87.9002 13.8107 87.8904 13.9232 87.875L14.2389 87.8317C14.3423 87.8175 14.4437 87.7986 14.5423 87.7752L14.858 87.7004C14.9443 87.6799 15.0282 87.6561 15.1092 87.6289L15.4249 87.5232C15.4934 87.5003 15.5597 87.475 15.6235 87.4476L15.9392 87.312C15.992 87.2892 16.0431 87.2651 16.0922 87.2395L16.4078 87.0751C16.4481 87.0541 16.4869 87.0323 16.5244 87.0095L16.84 86.8179C16.8705 86.7993 16.9001 86.7802 16.9286 86.7606L17.2443 86.5434C17.2674 86.5274 17.2899 86.5111 17.3117 86.4945L17.6274 86.2536L17.6502 86.2359C17.6599 86.2281 17.6695 86.2204 17.6789 86.2125L17.9946 85.9501C18.008 85.9389 18.0212 85.9276 18.034 85.9162L18.3496 85.6346L18.3633 85.6222L18.3796 85.607L18.6953 85.3087L18.7029 85.3015L18.7179 85.2869L19.0336 84.9745L19.0501 84.9578L19.3658 84.6343L19.3773 84.6223L19.693 84.2903L19.7001 84.2827L20.0158 83.9453L20.0189 83.9419L20.6449 83.2685L20.6495 83.2635L20.9562 82.9373L21.2608 82.6197L21.5605 82.3161L21.8543 82.0301L22.1408 81.7647L22.4182 81.5233L22.6838 81.3091L22.934 81.125L23.1637 80.9737L23.3664 80.8571L23.5336 80.7757L23.6565 80.7272L23.7074 80.712L23.7625 80.7286L23.8874 80.7784L24.0563 80.8614L24.2602 80.9794L24.4909 81.1321L24.7419 81.3176L25.008 81.533L25.2859 81.7755L25.5728 82.0418L25.8668 82.3287L26.1667 82.6329L26.4715 82.951L26.7785 83.2777L26.7829 83.2825L27.4092 83.9563L27.4125 83.9599L27.7282 84.2971L27.7355 84.3049L28.0512 84.6365L28.0629 84.6487L28.3785 84.9719L28.3954 84.9888L28.711 85.3006L28.7224 85.3117L28.7339 85.3227L29.0496 85.6203L29.0656 85.6352L29.0799 85.6481L29.3956 85.929L29.4076 85.9395C29.4167 85.9475 29.426 85.9554 29.4354 85.9632L29.7511 86.2247C29.768 86.2387 29.7854 86.2525 29.8032 86.2661L30.1189 86.506C30.1298 86.5144 30.141 86.5226 30.1523 86.5308C30.1637 86.539 30.1753 86.5472 30.1871 86.5553L30.5028 86.7715C30.5316 86.7912 30.5615 86.8105 30.5924 86.8291L30.908 87.0197C30.9459 87.0425 30.9852 87.0645 31.0259 87.0855L31.3416 87.2488C31.3912 87.2744 31.4429 87.2987 31.4964 87.3215L31.812 87.4559C31.8765 87.4833 31.9435 87.5086 32.0127 87.5315L32.3284 87.6359C32.4101 87.663 32.4948 87.6867 32.5819 87.707L32.8976 87.7805C32.9969 87.8036 33.099 87.8222 33.203 87.836L33.5187 87.8779C33.6316 87.8929 33.7464 87.9023 33.8619 87.906L34.1776 87.916C34.2954 87.9197 34.4136 87.9175 34.5308 87.9093L34.8465 87.8873C34.9586 87.8795 35.0696 87.8662 35.1781 87.8477L35.4938 87.7938C35.5918 87.7771 35.6877 87.7561 35.7806 87.731L36.0963 87.6458C36.1765 87.6241 36.2545 87.5995 36.3295 87.5719L36.6452 87.4561C36.7082 87.433 36.7691 87.4079 36.8276 87.3809L37.1433 87.2355C37.1916 87.2133 37.2382 87.1898 37.2831 87.1651L37.5988 86.9914C37.6355 86.9712 37.6709 86.9503 37.7051 86.9286L38.0208 86.7282C38.0486 86.7105 38.0756 86.6923 38.1017 86.6737L38.4173 86.4484C38.4297 86.4395 38.4419 86.4306 38.4539 86.4215L38.4673 86.4113L38.479 86.4022L38.7946 86.1538C38.8107 86.1412 38.8264 86.1283 38.8417 86.1153L39.1574 85.8462L39.1713 85.8341C39.1788 85.8276 39.1862 85.8211 39.1934 85.8145L39.509 85.527C39.5183 85.5186 39.5274 85.51 39.5364 85.5014L39.8521 85.1982L39.8622 85.1883L39.8725 85.1781L40.1882 84.8617L40.203 84.8466L40.5187 84.5199L40.5287 84.5094L40.8444 84.1753L41.4832 83.4886L41.7909 83.1586L41.7969 83.1523L42.1017 82.83L42.4045 82.5168L42.7025 82.2187L42.9939 81.9392L43.2777 81.6815L43.5515 81.4487L43.8124 81.2442L44.0564 81.0708L44.2779 80.931L44.4698 80.8261L44.6232 80.756L44.7294 80.7175L44.7517 80.7116L44.8419 80.7418L44.9825 80.8022L45.1641 80.8968L45.3778 81.0266L45.6159 81.1904L45.8723 81.3862L46.1428 81.611L46.4239 81.8618L46.7133 82.1353L47.0094 82.4283L47.3111 82.7376L47.6175 83.0597L47.9264 83.3899L47.9295 83.3933L48.5584 84.0699L48.563 84.0748L48.8786 84.4105L48.8874 84.4197L49.203 84.7489L49.2164 84.7626L49.532 85.0823L49.5425 85.0928L49.5508 85.1009L49.8664 85.4083L49.8785 85.4199L49.8916 85.4322L50.2073 85.7245L50.2246 85.7403L50.2405 85.7544L50.5562 86.0291L50.5786 86.0482L50.5998 86.0656L50.9154 86.3202C51.6031 86.8749 52.913 86.9913 53.8411 86.5804C54.7692 86.1694 54.9641 85.3866 54.2765 84.8319L53.9832 84.5953L53.7057 84.3539L53.4192 84.0885L53.1254 83.8025L52.8258 83.499L52.5211 83.1813L52.2144 82.8551L52.2098 82.8502L51.5838 82.1767L51.265 81.8359L51.2579 81.8284L50.9422 81.4964L50.9307 81.4844L50.615 81.1608L50.5984 81.1441L50.2828 80.8318C50.2754 80.8245 50.2679 80.8172 50.2602 80.8099L49.9445 80.5116L49.9321 80.5001L49.9145 80.4841L49.5989 80.2025C49.586 80.191 49.5729 80.1797 49.5595 80.1686L49.2438 79.9061L49.2313 79.8959C49.2186 79.8855 49.2056 79.8752 49.1923 79.8651L48.8766 79.6242C48.8548 79.6076 48.8324 79.5913 48.8092 79.5753L48.4935 79.3581C48.4841 79.3516 48.4746 79.3452 48.465 79.3388C48.4454 79.3259 48.4254 79.3132 48.4049 79.3008L48.0893 79.1091C48.0519 79.0864 48.013 79.0645 47.9727 79.0436L47.6571 78.8792C47.608 78.8536 47.5569 78.8294 47.5041 78.8067L47.1884 78.671C47.1246 78.6436 47.0583 78.6184 46.9898 78.5954L46.6741 78.4897C46.5931 78.4626 46.5092 78.4387 46.4229 78.4182L46.1072 78.3434C46.0086 78.32 45.9072 78.3012 45.8038 78.287L45.4881 78.2437C45.3757 78.2283 45.2612 78.2184 45.146 78.2143L44.8304 78.2029ZM14.5997 111.112V160.986H23.8502L42.0695 141.721V111.112H14.5997ZM11.4298 174.005L24.7498 184.754V238.559H29.7498V182.364L14.5699 170.114L11.4298 174.005ZM508.482 217.271V210.885H92.881V197.164H508.482V191.247H92.881V187.61H512.5V200.8H96.8986V207.248H512.5V220.907H96.8986V228.478H243.5V232.115H92.881V217.271H508.482ZM71.59 94.4415V100.359H118.192V114.079H56.5724V110.443H114.174V103.995H67.5724V90.8052H104.192V94.4415H71.59ZM882.33 108.986H901.356L913.5 90.7505H894.474L886.469 102.771L882.33 108.986ZM655.036 222.486H636.01L650.154 207.25H669.18L655.036 222.486ZM661.569 222.485H680.594L694.738 207.25H675.713L661.569 222.485ZM706.153 222.486H687.127L701.271 207.25H720.297L706.153 222.486ZM712.682 222.486H731.708L745.852 207.25H726.826L712.682 222.486ZM757.266 222.486H738.241L752.385 207.25H771.41L757.266 222.486ZM763.797 222.485H808.967V207.25H777.941L763.797 222.485ZM857.635 108.986H876.661L888.805 90.7505H869.779L861.774 102.771L857.635 108.986ZM838.662 200.059H819.637V195.916V187.901H838.662V200.059ZM820.137 121.985V164.811H835.998L855.637 147.905V125.809H903.749V121.985H855.637H820.137ZM873.61 175.197H822.137V176.809H874.999V176.587L875.221 176.809L900.734 151.295L899.123 149.684L873.61 175.197ZM634.012 226.697H806.874V228.309H634.012V226.697ZM806.874 231.309H629.012V232.92H806.874V231.309ZM623.012 235.92H806.874V237.531H623.012V235.92ZM882.363 223.509C882.481 223.502 882.599 223.5 882.717 223.504L883.033 223.516C883.148 223.52 883.262 223.53 883.375 223.545L883.69 223.588C883.794 223.603 883.895 223.621 883.994 223.645L884.309 223.72C884.396 223.74 884.48 223.764 884.561 223.791L884.876 223.897C884.945 223.92 885.011 223.945 885.075 223.972L885.391 224.108C885.409 224.116 885.428 224.124 885.446 224.133C885.46 224.139 885.472 224.145 885.485 224.151C885.505 224.161 885.525 224.171 885.544 224.181L885.859 224.345C885.9 224.366 885.938 224.388 885.976 224.41L886.292 224.602C886.322 224.621 886.352 224.64 886.38 224.659L886.696 224.877C886.719 224.893 886.741 224.909 886.763 224.926L887.079 225.166C887.087 225.173 887.096 225.18 887.104 225.186L887.115 225.194L887.13 225.207L887.446 225.47L887.47 225.49L887.485 225.504L887.801 225.785C887.811 225.795 887.821 225.804 887.831 225.813L888.147 226.111L888.155 226.119L888.169 226.133L888.485 226.445L888.502 226.462L888.817 226.786L888.829 226.798L889.145 227.13L889.152 227.137L889.47 227.478L890.096 228.152L890.101 228.156L890.408 228.483L890.712 228.8L891.012 229.104L891.306 229.39L891.592 229.655L891.87 229.897L892.163 230.133C892.851 230.688 892.656 231.471 891.728 231.882C890.8 232.293 889.49 232.176 888.802 231.622L888.486 231.367L888.464 231.349L888.443 231.33L888.127 231.056L888.111 231.042L888.094 231.026L887.778 230.734L887.765 230.721L887.753 230.71L887.437 230.402L887.429 230.394L887.419 230.384L887.103 230.064L887.09 230.05L886.774 229.721L886.765 229.712L886.45 229.376L886.445 229.371L885.816 228.695L885.813 228.691L885.504 228.361L885.198 228.039L884.896 227.73L884.6 227.437L884.31 227.163L884.029 226.912L883.759 226.688L883.502 226.492L883.264 226.328L883.051 226.198L882.869 226.104L882.729 226.043L882.638 226.013L882.616 226.019L882.51 226.057L882.356 226.127L882.165 226.232L881.943 226.372L881.699 226.546L881.438 226.75L881.164 226.983L880.88 227.241L880.589 227.52L880.291 227.818L879.988 228.131L879.683 228.454L879.678 228.46L879.37 228.79L878.731 229.477L878.415 229.811L878.405 229.821L878.09 230.148L878.075 230.163L877.759 230.479L877.749 230.49L877.739 230.5L877.423 230.803L877.407 230.818L877.396 230.828L877.08 231.116C877.068 231.127 877.056 231.137 877.044 231.148L876.728 231.417C876.713 231.43 876.697 231.443 876.681 231.455L876.366 231.704C876.356 231.711 876.346 231.719 876.336 231.726L876.32 231.738L876.304 231.75L875.988 231.975L875.971 231.988L875.95 232.001C875.936 232.011 875.922 232.02 875.907 232.03L875.592 232.23C875.574 232.241 875.557 232.252 875.538 232.263L875.518 232.274C875.508 232.28 875.496 232.287 875.485 232.293L875.17 232.466C875.125 232.491 875.078 232.515 875.03 232.537L874.714 232.682C874.656 232.709 874.595 232.734 874.532 232.757L874.216 232.873C874.182 232.886 874.148 232.898 874.113 232.909C874.095 232.915 874.076 232.92 874.057 232.926L874.023 232.936C874.01 232.94 873.996 232.944 873.983 232.947L873.667 233.032C873.574 233.057 873.478 233.078 873.38 233.095L873.065 233.149C872.956 233.168 872.845 233.181 872.733 233.189L872.417 233.211C872.3 233.219 872.182 233.221 872.064 233.217L871.748 233.207C871.633 233.204 871.518 233.194 871.405 233.179L871.09 233.137C870.986 233.124 870.883 233.105 870.784 233.082L870.469 233.008C870.381 232.988 870.297 232.964 870.215 232.937L869.899 232.833C869.87 232.823 869.842 232.813 869.814 232.803C869.786 232.793 869.758 232.782 869.731 232.771L869.699 232.757L869.383 232.623C869.352 232.61 869.322 232.596 869.292 232.582C869.271 232.572 869.249 232.561 869.228 232.55L868.913 232.387L868.89 232.375C868.879 232.369 868.868 232.363 868.857 232.357C868.836 232.345 868.815 232.333 868.795 232.321L868.479 232.13C868.448 232.112 868.418 232.093 868.389 232.073L868.074 231.857L868.062 231.848L868.045 231.837L868.03 231.826L868.005 231.807L867.69 231.567C867.672 231.554 867.655 231.54 867.638 231.526L867.322 231.265L867.303 231.249L867.282 231.23L866.967 230.949L866.947 230.932L866.936 230.922L866.62 230.624L866.606 230.61L866.598 230.602L866.282 230.29L866.265 230.273L865.95 229.95L865.938 229.938L865.622 229.606L865.615 229.598L865.299 229.261L865.296 229.258L864.67 228.584L864.665 228.579L864.358 228.252L864.053 227.934L863.753 227.63L863.459 227.343L863.172 227.077L862.895 226.834L862.628 226.619L862.378 226.434L862.147 226.281L861.943 226.163L861.774 226.08L861.649 226.03L861.594 226.013L861.543 226.029L861.42 226.077L861.253 226.159L861.05 226.275L860.821 226.426L860.57 226.61L860.305 226.825L860.027 227.066L859.741 227.331L859.447 227.618L859.147 227.921L858.843 228.239L858.536 228.565L858.531 228.57L857.906 229.243L857.902 229.247L857.587 229.584L857.58 229.592L857.264 229.924L857.252 229.936L856.937 230.259L856.92 230.276L856.604 230.588L856.582 230.61L856.266 230.908C856.256 230.918 856.246 230.927 856.236 230.936L855.921 231.218L855.901 231.235L855.881 231.251L855.566 231.514C855.557 231.521 855.547 231.529 855.538 231.536L855.514 231.555L855.198 231.796C855.177 231.812 855.154 231.829 855.131 231.845L854.815 232.062C854.787 232.082 854.757 232.101 854.727 232.119L854.411 232.311C854.374 232.334 854.335 232.356 854.294 232.376L853.979 232.541C853.966 232.548 853.952 232.555 853.939 232.561L853.917 232.572L853.902 232.579C853.877 232.591 853.852 232.602 853.826 232.613L853.51 232.749C853.446 232.776 853.38 232.802 853.311 232.825L852.996 232.93C852.945 232.947 852.894 232.963 852.841 232.977C852.809 232.986 852.777 232.994 852.745 233.002L852.429 233.077C852.33 233.1 852.229 233.119 852.125 233.133L851.81 233.176C851.743 233.185 851.675 233.193 851.608 233.198C851.561 233.201 851.515 233.204 851.468 233.206L851.152 233.217C851.034 233.221 850.916 233.22 850.799 233.212L850.483 233.191C850.432 233.188 850.382 233.183 850.332 233.178C850.271 233.171 850.21 233.163 850.15 233.153L849.834 233.1C849.815 233.097 849.795 233.094 849.776 233.09C849.697 233.076 849.62 233.058 849.545 233.038L849.229 232.954C849.148 232.933 849.07 232.908 848.994 232.881L848.678 232.766C848.615 232.743 848.553 232.718 848.494 232.691L848.178 232.547C848.162 232.539 848.146 232.532 848.13 232.524C848.116 232.517 848.101 232.51 848.087 232.503L848.06 232.489L848.037 232.476L847.721 232.304L847.697 232.29L847.672 232.276L847.647 232.261L847.626 232.248L847.614 232.24L847.298 232.041C847.27 232.023 847.242 232.005 847.216 231.986L846.9 231.762L846.878 231.746C846.865 231.736 846.851 231.726 846.838 231.715L846.522 231.468C846.512 231.46 846.501 231.451 846.491 231.443L846.475 231.429L846.159 231.161C846.147 231.15 846.135 231.14 846.123 231.129L845.807 230.842C845.798 230.834 845.788 230.825 845.779 230.816L845.464 230.514L845.453 230.503L845.443 230.493L845.127 230.177L845.112 230.162L844.797 229.836L844.786 229.825L844.471 229.491L844.465 229.485L843.521 228.471L843.213 228.145L842.909 227.831L842.611 227.532L842.32 227.252L842.035 226.993L841.761 226.759L841.5 226.554L841.255 226.379L841.032 226.238L840.839 226.131L840.684 226.06L840.575 226.02L840.539 226.01L840.433 226.024C839.305 226.174 838.188 225.749 837.937 225.075C837.686 224.402 838.397 223.734 839.525 223.584L839.84 223.542C839.953 223.527 840.068 223.518 840.184 223.514L840.499 223.504C840.617 223.5 840.735 223.503 840.853 223.511L841.168 223.533C841.205 223.535 841.242 223.538 841.278 223.542C841.328 223.547 841.377 223.553 841.426 223.561C841.451 223.564 841.475 223.568 841.5 223.572L841.815 223.626C841.914 223.643 842.009 223.664 842.102 223.689L842.418 223.774C842.447 223.782 842.476 223.79 842.505 223.799C842.555 223.814 842.604 223.831 842.651 223.848L842.967 223.964C842.993 223.974 843.019 223.984 843.045 223.994C843.08 224.008 843.115 224.023 843.149 224.039L843.465 224.184C843.49 224.196 843.514 224.208 843.538 224.22C843.56 224.231 843.583 224.243 843.605 224.255L843.92 224.429C843.937 224.438 843.953 224.447 843.968 224.456C843.988 224.467 844.008 224.479 844.027 224.491L844.342 224.692C844.356 224.7 844.369 224.709 844.382 224.718C844.396 224.727 844.41 224.737 844.423 224.746L844.739 224.972L844.761 224.988L844.773 224.996L844.786 225.007L844.801 225.018L845.116 225.266L845.133 225.279L845.142 225.287L845.163 225.305L845.479 225.574C845.491 225.584 845.503 225.595 845.515 225.606L845.831 225.893L845.839 225.9L845.858 225.919L846.174 226.222L846.194 226.242L846.51 226.558L846.525 226.573L846.84 226.9L846.85 226.911L847.172 227.251L848.116 228.265L848.423 228.59L848.726 228.903L849.024 229.201L849.316 229.481L849.599 229.739L849.873 229.971L850.134 230.176L850.378 230.349L850.6 230.489L850.791 230.594L850.945 230.664L851.051 230.703L851.073 230.708L851.164 230.678L851.304 230.618L851.486 230.523L851.699 230.393L851.938 230.23L852.194 230.034L852.464 229.809L852.746 229.558L853.035 229.285L853.331 228.992L853.633 228.683L853.939 228.36L854.248 228.03L854.251 228.027L854.885 227.345L855.2 227.009L855.209 227L855.525 226.671L855.538 226.657L855.854 226.338L855.872 226.319L856.188 226.012C856.196 226.004 856.205 225.996 856.213 225.988L856.529 225.695C856.54 225.685 856.551 225.675 856.562 225.666L856.878 225.391C856.892 225.379 856.907 225.366 856.922 225.354L857.237 225.1C857.256 225.085 857.275 225.07 857.294 225.056L857.61 224.824C857.623 224.814 857.637 224.804 857.651 224.794C857.662 224.787 857.673 224.779 857.685 224.772L858 224.564L858.024 224.548L858.052 224.531C858.067 224.522 858.083 224.512 858.098 224.503L858.414 224.322C858.455 224.298 858.499 224.275 858.543 224.253L858.859 224.1C858.913 224.073 858.969 224.048 859.028 224.025L859.344 223.901C859.366 223.892 859.389 223.883 859.413 223.875L859.448 223.862C859.485 223.849 859.523 223.837 859.561 223.826L859.877 223.731C859.916 223.72 859.955 223.709 859.995 223.699C860.045 223.686 860.096 223.675 860.149 223.664L860.464 223.601C860.522 223.59 860.581 223.58 860.64 223.571C860.688 223.564 860.736 223.558 860.785 223.554L861.1 223.522C861.216 223.511 861.333 223.505 861.45 223.505L861.766 223.506C861.883 223.506 862 223.512 862.115 223.524L862.431 223.557C862.492 223.563 862.552 223.571 862.612 223.581C862.637 223.585 862.661 223.589 862.685 223.593C862.707 223.597 862.728 223.601 862.75 223.606L863.065 223.67C863.158 223.689 863.248 223.712 863.335 223.738L863.65 223.833C863.688 223.845 863.725 223.857 863.761 223.87C863.797 223.882 863.832 223.895 863.866 223.909L864.182 224.034C864.239 224.057 864.295 224.082 864.349 224.109L864.664 224.263C864.708 224.285 864.751 224.308 864.792 224.332L865.108 224.514C865.122 224.523 865.136 224.531 865.149 224.539L865.171 224.553L865.18 224.558L865.205 224.574L865.52 224.783C865.546 224.8 865.57 224.817 865.594 224.835L865.91 225.068L865.936 225.088L865.958 225.105L865.966 225.112L866.282 225.367L866.299 225.381C866.308 225.388 866.316 225.396 866.325 225.404L866.641 225.679L866.656 225.693L866.666 225.702L866.674 225.709L866.989 226.002L867.006 226.017L867.014 226.025L867.33 226.333L867.348 226.352L867.664 226.672L867.677 226.685L867.993 227.015L868.001 227.024L868.321 227.365L868.95 228.041L868.953 228.044L869.262 228.374L869.568 228.696L869.87 229.004L870.165 229.297L870.454 229.569L870.735 229.819L871.005 230.043L871.261 230.237L871.498 230.4L871.711 230.528L871.891 230.621L872.029 230.68L872.115 230.708L872.14 230.701L872.249 230.662L872.404 230.59L872.597 230.484L872.82 230.343L873.065 230.168L873.326 229.962L873.6 229.728L873.884 229.469L874.176 229.189L874.474 228.89L874.778 228.576L875.083 228.254L875.088 228.248L875.712 227.577L876.03 227.236L876.036 227.23L876.351 226.896L876.361 226.886L876.677 226.559L876.692 226.544L877.008 226.228L877.029 226.208L877.344 225.905C877.353 225.896 877.362 225.888 877.372 225.879L877.688 225.593C877.699 225.582 877.712 225.571 877.724 225.561L878.04 225.292C878.055 225.279 878.071 225.266 878.087 225.253L878.403 225.006L878.426 224.988C878.439 224.978 878.452 224.969 878.465 224.96L878.781 224.735C878.797 224.724 878.813 224.713 878.829 224.702C878.84 224.695 878.851 224.688 878.863 224.68L879.178 224.481C879.197 224.47 879.215 224.458 879.234 224.447C879.251 224.437 879.268 224.427 879.286 224.418L879.602 224.245C879.621 224.235 879.64 224.225 879.659 224.215C879.687 224.201 879.715 224.188 879.743 224.175L880.059 224.03C880.118 224.003 880.18 223.978 880.243 223.955L880.559 223.841C880.574 223.835 880.589 223.83 880.604 223.825C880.627 223.817 880.65 223.809 880.674 223.802C880.687 223.798 880.7 223.794 880.714 223.79L880.743 223.781L880.761 223.776L880.794 223.767L881.11 223.683L881.139 223.676L881.166 223.669C881.182 223.665 881.198 223.661 881.214 223.658C881.24 223.651 881.267 223.646 881.294 223.64C881.329 223.633 881.364 223.627 881.399 223.621L881.715 223.569C881.756 223.562 881.797 223.556 881.839 223.55C881.866 223.547 881.894 223.544 881.922 223.541C881.94 223.539 881.959 223.537 881.977 223.536L882.015 223.533L882.048 223.53L882.363 223.509ZM826.439 234.235C829.684 234.235 832.314 231.605 832.314 228.36C832.314 225.116 829.684 222.485 826.439 222.485C823.195 222.485 820.564 225.116 820.564 228.36C820.564 231.605 823.195 234.235 826.439 234.235ZM1257.16 184.901H1463.37V190.901H1257.16V184.901ZM760.805 46.5508H757.805V49.5508V70.0508V73.0508V91.5509H651.805V97.5509H757.805V102.551H651.805V108.551H760.805H763.805V105.551V97.5509V94.5509V76.0508H855.305V70.0508H763.805V64.5667H1010.8V58.5667H763.805V52.5508H855.305V46.5508H760.805ZM772.805 108.551H839.805V84.3008H772.805V101.622V108.551ZM746.488 150.811H763.164V131.088H746.488V141.176V150.811ZM559.742 232.92H610.305V184.92H559.742V213.492H526.033V232.92H559.742ZM727.422 192.582H666.422V182.947V165.859L693.922 136.859H727.422V192.582ZM795.328 163.893H771.409V152.205V128.809H653.75V122.809H793.75V122.986H795.328V163.893ZM515.23 232.92H265.23V226.92H515.23V232.92ZM743.113 177.683H798.113V171.683H743.113V177.683ZM798.113 191.683H743.113V185.683H798.113V191.683Z" fill="url(#paint0_linear_3555_11368)"/>
<path d="M127 84.4795H64.4138L45.4483 52.9863H12M12 52.9863V164.516L33.4368 179.986M12 52.9863V1H30.5H75.477L101.397 16.5H130M127 152.913H101.397M101.397 152.913H64.4138M101.397 152.913L75.477 179.986H33.4368M33.4368 179.986V239.06H101.397H613L645 203.06H814.705M929.705 84.9863H867.118L848.153 115.374M848.153 115.374H814.705V164.516V179.986M848.153 115.374H904.101M929.705 152.913H904.101L878.182 179.986H836.141H814.705M814.705 203.06V239.06H1374M814.705 203.06V179.986M1474 203.06H1304.3L1272.3 239.06" stroke="#8F8E93" stroke-width="2" stroke-linejoin="round"/>
<path d="M813.5 1.5H866.999L877.999 17.5H937.999" stroke="#8F8E93" stroke-width="2"/>
<path d="M814.5 117V1" stroke="#8F8E93" stroke-width="2"/>
<circle cx="138" cy="18" r="5.5" fill="black" stroke="black"/>
<circle cx="131" cy="16" r="5.5" fill="#F0EFED" stroke="black"/>
<circle cx="138" cy="86" r="5.5" fill="black" stroke="black"/>
<circle cx="131" cy="84" r="5.5" fill="#F0EFED" stroke="black"/>
<circle cx="942" cy="19" r="5.5" fill="black" stroke="black"/>
<circle cx="935" cy="17" r="5.5" fill="#F0EFED" stroke="black"/>
<circle cx="942" cy="87" r="5.5" fill="black" stroke="black"/>
<circle cx="935" cy="85" r="5.5" fill="#F0EFED" stroke="black"/>
<circle cx="942" cy="155" r="5.5" fill="black" stroke="black"/>
<circle cx="935" cy="153" r="5.5" fill="#F0EFED" stroke="black"/>
<circle cx="138" cy="155" r="5.5" fill="black" stroke="black"/>
<circle cx="131" cy="153" r="5.5" fill="#F0EFED" stroke="black"/>
<defs>
<linearGradient id="paint0_linear_3555_11368" x1="1443" y1="238.559" x2="1445" y2="-0.940923" gradientUnits="userSpaceOnUse">
<stop stop-color="#F1EFED"/>
<stop offset="0.503125" stop-color="#A9A5A4" stop-opacity="0.07"/>
<stop offset="1" stop-color="#F1EFED"/>
</linearGradient>
</defs>
</svg>
