<svg width="375" height="254" viewBox="0 0 375 254" fill="none" xmlns="http://www.w3.org/2000/svg">
<path d="M21.3135 28.113L12.4253 31.1751L21.3135 28.113Z" fill="black"/>
<path d="M-3.78486 64.8324L5.59463 64.0545C5.6079 64.0521 5.62151 64.0526 5.63456 64.056C5.64762 64.0594 5.65979 64.0655 5.67027 64.074C5.68074 64.0825 5.68927 64.0931 5.69527 64.1052C5.70127 64.1173 5.70461 64.1305 5.70506 64.1439C5.70625 64.1711 5.69699 64.1977 5.67919 64.2183C5.66139 64.2389 5.63639 64.2519 5.60931 64.2546L-3.77097 65.0137C-3.78297 65.0151 -3.79511 65.014 -3.80665 65.0104C-3.81819 65.0069 -3.82887 65.001 -3.83804 64.9932C-3.8472 64.9853 -3.85465 64.9756 -3.85991 64.9648C-3.86517 64.9539 -3.86814 64.9421 -3.86861 64.93C-3.86967 64.9061 -3.8616 64.8828 -3.84605 64.8646C-3.83049 64.8465 -3.80861 64.835 -3.78486 64.8324V64.8324Z" fill="black"/>
<path d="M14.9237 62.9516L17.2592 62.6838C18.0392 62.5819 18.8211 62.5239 19.6036 62.4784L24.3024 62.1549C24.3356 62.1535 24.368 62.1654 24.3925 62.1879C24.417 62.2104 24.4315 62.2417 24.4329 62.2749C24.4344 62.291 24.4327 62.3073 24.4277 62.3227C24.4227 62.3381 24.4147 62.3523 24.4041 62.3645C24.3934 62.3767 24.3804 62.3866 24.3658 62.3936C24.3512 62.4006 24.3353 62.4045 24.3192 62.4052V62.4052L19.6387 62.7153C18.8557 62.7483 18.0743 62.8189 17.3005 62.9205L14.9645 63.1758C14.9497 63.1781 14.9346 63.1775 14.9201 63.174C14.9056 63.1705 14.8919 63.1642 14.8799 63.1554C14.8678 63.1465 14.8577 63.1354 14.8499 63.1226C14.8422 63.1098 14.8371 63.0956 14.835 63.0808C14.8316 63.0522 14.8388 63.0233 14.8551 62.9996C14.8714 62.9758 14.8957 62.9588 14.9237 62.9516V62.9516Z" fill="black"/>
<path d="M33.7111 62.213L43.1041 62.6519C43.1239 62.6526 43.1434 62.6573 43.1614 62.6656C43.1794 62.6739 43.1957 62.6857 43.2091 62.7003C43.2225 62.7149 43.233 62.732 43.2398 62.7507C43.2466 62.7693 43.2496 62.7891 43.2487 62.8089C43.2456 62.8479 43.2275 62.8842 43.1981 62.91C43.1688 62.9359 43.1305 62.9492 43.0914 62.9473L33.7039 62.4894C33.6666 62.4878 33.6315 62.4718 33.6058 62.4448C33.5801 62.4178 33.5658 62.3819 33.566 62.3446C33.5668 62.3264 33.5712 62.3086 33.579 62.2921C33.5867 62.2756 33.5976 62.2609 33.6111 62.2486C33.6246 62.2364 33.6404 62.2269 33.6575 62.2208C33.6747 62.2147 33.6929 62.2121 33.7111 62.213V62.213Z" fill="black"/>
<path d="M52.4969 62.9477C55.6334 62.9731 58.7692 62.841 61.8925 62.5519C61.9379 62.5483 61.983 62.5624 62.0181 62.5914C62.0533 62.6203 62.0759 62.6618 62.081 62.7071C62.0846 62.7525 62.0705 62.7976 62.0415 62.8328C62.0125 62.868 61.9711 62.8905 61.9258 62.8956V62.8956C58.8005 63.1841 55.6671 63.2785 52.5286 63.2538C52.4864 63.2524 52.4464 63.2346 52.417 63.2043C52.3876 63.1739 52.3712 63.1333 52.3712 63.091C52.3724 63.0563 52.3855 63.023 52.4084 62.9969C52.4314 62.9708 52.4626 62.9534 52.4969 62.9477V62.9477Z" fill="black"/>
<path d="M56.7612 61.2315L66.0075 59.5233C66.0553 59.5192 66.103 59.5331 66.1412 59.5621C66.1795 59.5912 66.2056 59.6334 66.2146 59.6806C66.2236 59.7278 66.2148 59.7767 66.19 59.8178C66.1651 59.8589 66.1259 59.8894 66.0799 59.9033V59.9033L56.8203 61.5932C56.7726 61.6007 56.7238 61.5895 56.6841 61.5619C56.6444 61.5344 56.6168 61.4926 56.607 61.4452C56.6025 61.4215 56.6028 61.397 56.6078 61.3734C56.6128 61.3497 56.6225 61.3273 56.6362 61.3074C56.65 61.2875 56.6676 61.2706 56.688 61.2576C56.7083 61.2446 56.7311 61.2358 56.7549 61.2318L56.7612 61.2315Z" fill="black"/>
<path d="M89.6515 57.7565L98.937 56.235C98.965 56.2294 98.9938 56.2296 99.0216 56.2357C99.0494 56.2418 99.0757 56.2535 99.0988 56.2702C99.1219 56.2869 99.1413 56.3083 99.1558 56.3328C99.1703 56.3574 99.1795 56.3847 99.183 56.413C99.1925 56.47 99.1792 56.5285 99.1459 56.5757C99.1127 56.6229 99.0622 56.6552 99.0053 56.6654V56.6654L89.7313 58.1613C89.7047 58.1668 89.6772 58.1669 89.6505 58.1615C89.6239 58.1561 89.5986 58.1453 89.5762 58.1298C89.5538 58.1143 89.5348 58.0944 89.5204 58.0713C89.5059 58.0482 89.4963 58.0224 89.4922 57.9955C89.4842 57.943 89.4961 57.8893 89.5256 57.8451C89.5551 57.8009 89.6 57.7693 89.6515 57.7565V57.7565Z" fill="black"/>
<path d="M108.3 55.2377C109.873 55.1714 111.431 55.0682 113.004 55.0395L117.709 54.8413C117.772 54.8387 117.833 54.8612 117.88 54.904C117.926 54.9467 117.954 55.0062 117.957 55.0693C117.958 55.1331 117.934 55.1948 117.89 55.2412C117.846 55.2875 117.786 55.315 117.722 55.3177L113.023 55.4842C111.457 55.5502 109.893 55.6161 108.332 55.6819C108.271 55.6861 108.212 55.6667 108.165 55.6276C108.119 55.5885 108.09 55.5329 108.084 55.4727C108.085 55.4137 108.107 55.3571 108.147 55.3137C108.187 55.2702 108.242 55.2432 108.3 55.2377V55.2377Z" fill="black"/>
<path d="M127.113 54.6145L136.523 54.5695C136.558 54.5696 136.592 54.5766 136.624 54.59C136.656 54.6034 136.685 54.623 136.709 54.6476C136.733 54.6722 136.753 54.7014 136.766 54.7335C136.779 54.7656 136.785 54.7999 136.785 54.8345C136.786 54.8688 136.78 54.9029 136.767 54.9348C136.754 54.9666 136.735 54.9956 136.711 55.02C136.687 55.0445 136.658 55.0638 136.626 55.0769C136.595 55.09 136.561 55.0966 136.526 55.0964L127.115 55.1164C127.082 55.1162 127.049 55.1094 127.019 55.0966C126.989 55.0838 126.961 55.065 126.938 55.0415C126.915 55.018 126.896 54.9902 126.884 54.9596C126.872 54.929 126.866 54.8963 126.866 54.8633C126.865 54.8307 126.871 54.7982 126.883 54.7679C126.896 54.7376 126.914 54.71 126.937 54.6868C126.96 54.6636 126.987 54.6453 127.017 54.6328C127.048 54.6204 127.08 54.6142 127.113 54.6145Z" fill="black"/>
<path d="M145.936 54.7581L155.336 55.2224C155.411 55.2287 155.481 55.2635 155.532 55.3198C155.582 55.3761 155.609 55.4496 155.606 55.525C155.605 55.5628 155.596 55.5999 155.58 55.6342C155.563 55.6684 155.541 55.699 155.512 55.7242C155.484 55.7494 155.451 55.7687 155.415 55.7809C155.38 55.7931 155.342 55.7979 155.304 55.7952V55.7952L145.915 55.3053C145.843 55.3004 145.775 55.2672 145.727 55.2128C145.679 55.1584 145.654 55.0872 145.658 55.0147C145.662 54.944 145.693 54.8775 145.745 54.8295C145.797 54.7815 145.865 54.7558 145.936 54.7581V54.7581Z" fill="black"/>
<path d="M164.714 56.0384L174.058 57.2398C174.099 57.2451 174.139 57.2585 174.175 57.2792C174.211 57.2999 174.243 57.3276 174.269 57.3606C174.294 57.3937 174.313 57.4314 174.324 57.4717C174.335 57.512 174.338 57.5541 174.333 57.5956C174.328 57.637 174.314 57.677 174.294 57.7133C174.273 57.7496 174.245 57.7815 174.212 57.807C174.179 57.8326 174.141 57.8515 174.101 57.8625C174.061 57.8735 174.019 57.8764 173.977 57.8712L164.651 56.6313C164.58 56.6136 164.517 56.5701 164.475 56.5092C164.434 56.4483 164.416 56.3742 164.425 56.301C164.434 56.2278 164.47 56.1605 164.526 56.112C164.581 56.0635 164.653 56.0371 164.727 56.0379L164.714 56.0384Z" fill="black"/>
<path d="M183.343 58.7481L185.662 59.1339L187.997 59.4563L192.655 60.0953C192.697 60.101 192.738 60.1151 192.774 60.1366C192.811 60.1582 192.842 60.1868 192.868 60.2208C192.893 60.2548 192.912 60.2935 192.922 60.3347C192.932 60.3758 192.934 60.4186 192.928 60.4606C192.923 60.5031 192.909 60.5443 192.888 60.5815C192.867 60.6187 192.838 60.6514 192.804 60.6774C192.77 60.7034 192.731 60.7223 192.69 60.733C192.648 60.7437 192.605 60.746 192.563 60.7397L187.899 60.0947L185.563 59.7661L183.244 59.3802C183.161 59.3656 183.088 59.3191 183.039 59.2506C182.991 59.1822 182.971 59.0973 182.984 59.0144C182.99 58.9732 183.004 58.9335 183.025 58.8977C183.046 58.8619 183.074 58.8308 183.108 58.806C183.141 58.7812 183.179 58.7633 183.22 58.7534C183.26 58.7434 183.302 58.7416 183.343 58.7481V58.7481Z" fill="black"/>
<path d="M201.882 62.0956C203.401 62.5808 204.864 63.2242 206.249 64.0153C207.67 64.8015 208.896 65.8982 209.835 67.2239C209.884 67.2984 209.902 67.3896 209.885 67.4774C209.867 67.5652 209.816 67.6425 209.742 67.6925C209.705 67.7178 209.664 67.7356 209.62 67.7446C209.576 67.7536 209.531 67.7538 209.488 67.7451C209.444 67.7364 209.403 67.719 209.366 67.6939C209.329 67.6689 209.298 67.6366 209.273 67.5992V67.5992C208.392 66.3587 207.242 65.3337 205.909 64.6011C204.568 63.8321 203.149 63.2057 201.677 62.7322C201.593 62.7049 201.522 62.6452 201.482 62.5663C201.442 62.4873 201.434 62.3955 201.462 62.3111C201.489 62.2267 201.548 62.1565 201.627 62.1161C201.706 62.0757 201.798 62.0683 201.882 62.0956V62.0956Z" fill="black"/>
<path d="M211.004 76.6481C210.571 78.2098 209.82 79.6652 208.799 80.9232C207.78 82.162 206.595 83.2537 205.277 84.1674C205.201 84.2202 205.107 84.2407 205.016 84.2246C204.925 84.2084 204.844 84.1569 204.791 84.0812C204.764 84.0438 204.744 84.0013 204.734 83.9563C204.724 83.9114 204.723 83.8648 204.731 83.8194C204.739 83.774 204.756 83.7306 204.781 83.6919C204.806 83.6532 204.839 83.6199 204.877 83.594V83.594C206.144 82.7223 207.283 81.6765 208.26 80.4875C209.227 79.3061 209.941 77.9379 210.356 76.4681C210.368 76.4244 210.388 76.3835 210.416 76.3478C210.444 76.312 210.478 76.2822 210.518 76.26C210.557 76.2379 210.6 76.2239 210.645 76.2188C210.69 76.2137 210.736 76.2177 210.779 76.2305C210.863 76.2582 210.933 76.3169 210.974 76.3946C211.016 76.4722 211.027 76.5629 211.004 76.6481V76.6481Z" fill="black"/>
<path d="M196.931 88.6317L188.456 92.7126C188.368 92.7545 188.268 92.7601 188.177 92.728C188.085 92.696 188.01 92.6289 187.968 92.5416C187.926 92.4542 187.921 92.3538 187.953 92.2623C187.985 92.1709 188.052 92.0959 188.139 92.054V92.054L196.615 87.9919C196.657 87.9716 196.703 87.9599 196.749 87.9574C196.796 87.9549 196.842 87.9616 196.886 87.9773C196.93 87.993 196.97 88.0173 197.005 88.0487C197.039 88.0802 197.067 88.1181 197.086 88.1605C197.126 88.2439 197.133 88.3397 197.104 88.4276C197.074 88.5154 197.012 88.5886 196.931 88.6317V88.6317Z" fill="black"/>
<path d="M179.972 96.7245L171.457 100.732C171.412 100.753 171.363 100.764 171.314 100.766C171.264 100.769 171.215 100.761 171.169 100.744C171.122 100.727 171.08 100.701 171.043 100.667C171.007 100.634 170.977 100.594 170.956 100.549C170.936 100.504 170.924 100.455 170.922 100.406C170.92 100.356 170.927 100.307 170.944 100.26C170.961 100.214 170.987 100.171 171.021 100.135C171.054 100.098 171.094 100.069 171.139 100.048V100.048L179.656 96.0596C179.742 96.0288 179.837 96.0311 179.921 96.0661C180.006 96.1011 180.075 96.1662 180.114 96.249C180.154 96.3317 180.161 96.4261 180.135 96.514C180.109 96.6018 180.051 96.6768 179.972 96.7245V96.7245Z" fill="black"/>
<path d="M162.942 104.75L154.46 108.813C154.413 108.835 154.363 108.848 154.312 108.852C154.261 108.855 154.21 108.848 154.161 108.831C154.113 108.815 154.068 108.789 154.03 108.755C153.991 108.721 153.96 108.68 153.937 108.634C153.915 108.588 153.902 108.538 153.898 108.486C153.895 108.435 153.902 108.384 153.919 108.335C153.935 108.287 153.961 108.242 153.995 108.204C154.029 108.165 154.07 108.134 154.116 108.111V108.111L162.605 104.061C162.65 104.039 162.699 104.025 162.75 104.022C162.8 104.019 162.85 104.026 162.898 104.043C162.945 104.06 162.989 104.086 163.026 104.12C163.064 104.154 163.094 104.195 163.115 104.241C163.157 104.332 163.163 104.435 163.13 104.53C163.098 104.625 163.031 104.704 162.942 104.75V104.75Z" fill="black"/>
<path d="M146.01 112.935L137.609 117.157C137.514 117.204 137.404 117.212 137.303 117.177C137.202 117.143 137.119 117.071 137.072 116.975C137.024 116.88 137.017 116.77 137.051 116.669C137.085 116.568 137.158 116.484 137.253 116.437L145.672 112.22C145.765 112.181 145.869 112.178 145.964 112.213C146.059 112.248 146.136 112.318 146.181 112.409C146.226 112.499 146.234 112.603 146.205 112.7C146.175 112.796 146.11 112.878 146.022 112.928L146.01 112.935Z" fill="black"/>
<path d="M129.273 121.499L121.022 125.991C120.974 126.023 120.92 126.044 120.864 126.054C120.807 126.064 120.749 126.062 120.693 126.048C120.638 126.034 120.585 126.009 120.54 125.974C120.494 125.939 120.457 125.895 120.429 125.844C120.402 125.794 120.385 125.738 120.38 125.681C120.375 125.624 120.383 125.566 120.401 125.512C120.42 125.457 120.45 125.408 120.489 125.365C120.528 125.323 120.575 125.289 120.628 125.266L128.904 120.78C128.951 120.754 129.002 120.738 129.056 120.733C129.109 120.727 129.163 120.732 129.214 120.748C129.265 120.763 129.313 120.788 129.355 120.822C129.396 120.856 129.431 120.898 129.456 120.945C129.482 120.992 129.498 121.044 129.503 121.097C129.509 121.15 129.504 121.204 129.488 121.256C129.473 121.307 129.448 121.355 129.414 121.396C129.38 121.438 129.339 121.472 129.291 121.498L129.273 121.499Z" fill="black"/>
<path d="M112.873 130.673L104.886 135.606C104.788 135.665 104.672 135.682 104.561 135.655C104.451 135.628 104.356 135.558 104.296 135.462C104.238 135.366 104.22 135.251 104.246 135.141C104.272 135.032 104.34 134.938 104.435 134.878V134.878L112.46 129.937C112.554 129.879 112.667 129.86 112.775 129.885C112.883 129.909 112.977 129.976 113.036 130.07C113.094 130.166 113.113 130.281 113.087 130.39C113.061 130.499 112.993 130.594 112.898 130.653L112.873 130.673Z" fill="black"/>
<path d="M97.1188 140.886C94.5853 142.714 92.1054 144.62 89.7244 146.642C89.6803 146.681 89.6289 146.711 89.573 146.73C89.5171 146.749 89.4581 146.756 89.3993 146.752C89.3406 146.747 89.2833 146.731 89.231 146.704C89.1787 146.676 89.1324 146.639 89.0949 146.593C89.055 146.55 89.0244 146.498 89.0051 146.442C88.9859 146.386 88.9783 146.327 88.9829 146.268C88.9874 146.209 89.0041 146.151 89.0317 146.099C89.0594 146.047 89.0975 146 89.1437 145.963V145.963C91.568 143.927 94.0466 141.989 96.5994 140.173C96.6931 140.106 96.8096 140.079 96.9234 140.098C97.0371 140.117 97.1388 140.18 97.206 140.274C97.2731 140.367 97.3004 140.484 97.2816 140.598C97.2629 140.712 97.1997 140.813 97.106 140.881L97.1188 140.886Z" fill="black"/>
<path d="M81.2241 150.844C80.4399 150.996 79.6546 151.124 78.8549 151.207C78.4603 151.224 78.061 151.279 77.6523 151.258L77.3391 151.271L77.17 151.278C77.0824 151.276 76.9954 151.263 76.9111 151.239C76.9111 151.239 76.9111 151.239 76.744 151.146C76.6834 151.093 76.6368 151.025 76.6085 150.95C76.5801 150.875 76.5709 150.793 76.5815 150.713C76.6091 150.601 76.6734 150.501 76.7641 150.43C76.7994 150.4 76.8384 150.375 76.8802 150.356L77.0229 150.318L77.1983 150.311L77.5115 150.298C79.1173 150.136 80.6786 150.108 82.2531 150.098C82.3124 150.095 82.3715 150.105 82.4272 150.125C82.4829 150.145 82.534 150.176 82.5776 150.217C82.6212 150.257 82.6565 150.305 82.6815 150.359C82.7065 150.413 82.7206 150.471 82.7231 150.53C82.7256 150.589 82.7164 150.648 82.696 150.704C82.6757 150.76 82.6445 150.811 82.6044 150.854C82.5643 150.898 82.516 150.933 82.4622 150.958C82.4085 150.983 82.3503 150.997 82.2911 151V151C80.7301 151.034 79.1566 151.069 77.6372 151.196L77.3615 151.208L77.2488 151.212L77.3344 151.159C77.3751 151.12 77.4073 151.073 77.4289 151.022C77.4505 150.97 77.461 150.914 77.4598 150.858C77.4733 150.784 77.4672 150.707 77.4422 150.635C77.4172 150.564 77.3741 150.5 77.3171 150.45C77.143 150.338 77.2015 150.386 77.1822 150.374C77.1629 150.363 77.1822 150.374 77.2198 150.373L77.345 150.367L77.6206 150.356C77.9902 150.34 78.3785 150.324 78.7593 150.277C79.5216 150.2 80.2821 150.081 81.0413 149.929C81.1576 149.906 81.2784 149.93 81.3771 149.996C81.4758 150.062 81.5443 150.164 81.5675 150.281C81.5907 150.397 81.5667 150.518 81.5008 150.616C81.435 150.715 81.3326 150.784 81.2162 150.807L81.2241 150.844Z" fill="black"/>
<path d="M91.6468 149.815L101.036 149.263C101.097 149.26 101.157 149.27 101.215 149.291C101.272 149.311 101.324 149.343 101.369 149.385C101.414 149.426 101.45 149.476 101.476 149.531C101.502 149.586 101.516 149.646 101.519 149.707C101.521 149.768 101.512 149.828 101.491 149.886C101.47 149.943 101.438 149.995 101.397 150.04C101.356 150.085 101.306 150.121 101.251 150.147C101.195 150.173 101.136 150.187 101.075 150.19V150.19L91.6855 150.736C91.5721 150.727 91.4658 150.678 91.3867 150.596C91.3075 150.514 91.2612 150.406 91.2564 150.293C91.2516 150.179 91.2888 150.068 91.3607 149.98C91.4327 149.892 91.5345 149.833 91.6468 149.815V149.815Z" fill="black"/>
<path d="M110.385 148.477L119.76 147.612C119.823 147.606 119.887 147.612 119.947 147.631C120.007 147.65 120.063 147.68 120.112 147.721C120.16 147.761 120.2 147.811 120.229 147.867C120.258 147.924 120.276 147.985 120.281 148.048C120.287 148.11 120.28 148.173 120.262 148.232C120.243 148.292 120.213 148.347 120.173 148.395C120.133 148.443 120.084 148.483 120.029 148.511C119.973 148.54 119.913 148.557 119.851 148.562V148.562L110.475 149.422C110.357 149.42 110.244 149.374 110.158 149.294C110.072 149.214 110.018 149.105 110.008 148.987C109.997 148.87 110.031 148.753 110.102 148.659C110.172 148.565 110.275 148.5 110.391 148.477L110.385 148.477Z" fill="black"/>
<path d="M129.125 146.798L138.512 146.189C138.633 146.197 138.747 146.25 138.832 146.338C138.917 146.425 138.966 146.54 138.972 146.662C138.977 146.784 138.937 146.903 138.86 146.997C138.782 147.091 138.673 147.153 138.553 147.172V147.172L129.166 147.762C129.102 147.767 129.038 147.758 128.977 147.738C128.917 147.717 128.861 147.685 128.813 147.642C128.765 147.6 128.726 147.548 128.698 147.491C128.67 147.433 128.654 147.371 128.651 147.307C128.646 147.242 128.655 147.177 128.677 147.115C128.699 147.054 128.733 146.997 128.777 146.949C128.822 146.902 128.876 146.864 128.935 146.837C128.995 146.811 129.06 146.798 129.125 146.798V146.798Z" fill="black"/>
<path d="M147.937 145.934L157.345 145.833C157.47 145.842 157.587 145.896 157.674 145.986C157.761 146.075 157.812 146.194 157.818 146.319C157.823 146.444 157.782 146.566 157.703 146.663C157.623 146.759 157.511 146.823 157.388 146.842V146.842L147.979 146.931C147.856 146.922 147.741 146.869 147.655 146.78C147.569 146.692 147.518 146.575 147.513 146.451C147.508 146.328 147.548 146.207 147.627 146.112C147.705 146.016 147.815 145.953 147.937 145.934Z" fill="black"/>
<path d="M166.75 145.784L176.193 145.775C176.261 145.774 176.328 145.786 176.391 145.811C176.454 145.837 176.511 145.874 176.56 145.922C176.608 145.97 176.646 146.026 176.672 146.089C176.698 146.152 176.711 146.219 176.71 146.287C176.711 146.355 176.698 146.423 176.672 146.486C176.646 146.549 176.608 146.606 176.56 146.654C176.511 146.703 176.454 146.741 176.391 146.767C176.328 146.792 176.261 146.805 176.192 146.805V146.805L166.78 146.8C166.713 146.801 166.646 146.789 166.584 146.764C166.522 146.739 166.465 146.702 166.418 146.654C166.37 146.607 166.333 146.551 166.307 146.489C166.282 146.427 166.269 146.361 166.269 146.294C166.27 146.164 166.32 146.039 166.409 145.944C166.498 145.849 166.62 145.792 166.75 145.784Z" fill="black"/>
<path d="M185.6 145.814L195.016 145.9C195.085 145.901 195.154 145.915 195.218 145.942C195.281 145.969 195.339 146.008 195.388 146.057C195.437 146.106 195.475 146.165 195.501 146.229C195.528 146.293 195.541 146.362 195.54 146.431C195.54 146.5 195.526 146.569 195.499 146.633C195.472 146.697 195.433 146.754 195.384 146.803C195.335 146.852 195.276 146.89 195.212 146.917C195.148 146.943 195.08 146.956 195.01 146.956V146.956L185.594 146.856C185.525 146.856 185.458 146.842 185.395 146.815C185.332 146.789 185.275 146.75 185.227 146.701C185.129 146.603 185.075 146.47 185.076 146.332C185.077 146.263 185.09 146.196 185.117 146.132C185.144 146.069 185.182 146.012 185.231 145.964C185.329 145.867 185.462 145.813 185.6 145.814V145.814Z" fill="black"/>
<path d="M204.417 146.048L213.839 146.279C213.909 146.281 213.978 146.296 214.043 146.325C214.107 146.353 214.165 146.394 214.213 146.444C214.262 146.495 214.3 146.555 214.325 146.62C214.35 146.686 214.363 146.756 214.361 146.826C214.359 146.896 214.344 146.965 214.316 147.029C214.287 147.094 214.247 147.152 214.196 147.2C214.145 147.249 214.086 147.287 214.02 147.312C213.955 147.337 213.885 147.35 213.815 147.348V147.348L204.393 147.117C204.261 147.102 204.138 147.038 204.051 146.938C203.963 146.838 203.916 146.708 203.919 146.575C203.922 146.441 203.975 146.314 204.067 146.218C204.159 146.121 204.284 146.063 204.418 146.055L204.417 146.048Z" fill="black"/>
<path d="M223.226 146.602L232.655 147.021C232.729 147.02 232.802 147.034 232.87 147.062C232.938 147.09 233 147.132 233.051 147.184C233.103 147.237 233.143 147.3 233.169 147.369C233.195 147.438 233.207 147.512 233.204 147.585C233.2 147.659 233.182 147.731 233.15 147.797C233.117 147.864 233.072 147.922 233.016 147.97C232.96 148.018 232.895 148.054 232.824 148.076C232.754 148.098 232.68 148.105 232.607 148.097V148.097L223.214 147.676C223.073 147.67 222.939 147.607 222.844 147.502C222.748 147.397 222.698 147.259 222.704 147.117C222.711 146.975 222.773 146.842 222.878 146.746C222.983 146.65 223.122 146.6 223.263 146.607L223.226 146.602Z" fill="black"/>
<path d="M242.029 147.577L251.413 148.399C251.486 148.405 251.558 148.425 251.623 148.459C251.688 148.492 251.746 148.539 251.792 148.596C251.838 148.653 251.873 148.719 251.893 148.789C251.913 148.86 251.919 148.934 251.909 149.007C251.903 149.079 251.883 149.15 251.849 149.215C251.815 149.28 251.768 149.337 251.711 149.383C251.655 149.43 251.589 149.464 251.519 149.485C251.449 149.505 251.375 149.512 251.303 149.503V149.503L241.95 148.679C241.879 148.672 241.811 148.652 241.748 148.619C241.685 148.586 241.629 148.541 241.584 148.486C241.538 148.431 241.504 148.368 241.483 148.3C241.462 148.232 241.454 148.161 241.461 148.09C241.467 148.02 241.488 147.951 241.521 147.888C241.554 147.825 241.599 147.769 241.654 147.724C241.708 147.678 241.771 147.644 241.839 147.623C241.907 147.602 241.978 147.594 242.049 147.601L242.029 147.577Z" fill="black"/>
<path d="M260.773 149.694L270.011 151.521C270.154 151.549 270.279 151.633 270.36 151.754C270.441 151.875 270.471 152.023 270.443 152.166C270.415 152.308 270.331 152.434 270.21 152.515C270.09 152.596 269.942 152.626 269.799 152.598L260.592 150.769C260.454 150.737 260.335 150.652 260.258 150.533C260.181 150.414 260.154 150.27 260.181 150.131C260.209 149.992 260.289 149.869 260.406 149.789C260.522 149.708 260.665 149.676 260.805 149.699L260.773 149.694Z" fill="black"/>
<path d="M279.174 153.794C282.213 154.66 285.192 155.724 288.092 156.979C288.225 157.038 288.329 157.147 288.381 157.283C288.434 157.418 288.431 157.569 288.374 157.702C288.346 157.769 288.305 157.829 288.253 157.88C288.201 157.93 288.14 157.97 288.072 157.996C288.005 158.022 287.933 158.035 287.861 158.033C287.788 158.031 287.717 158.014 287.651 157.984V157.984C284.792 156.75 281.855 155.703 278.86 154.85C278.733 154.799 278.629 154.703 278.569 154.579C278.509 154.456 278.497 154.314 278.535 154.183C278.573 154.051 278.659 153.938 278.776 153.866C278.893 153.795 279.033 153.769 279.167 153.795L279.174 153.794Z" fill="black"/>
<path d="M296.327 161.783C297.592 162.784 298.733 163.931 299.728 165.201C300.733 166.493 301.513 167.947 302.036 169.499C302.058 169.568 302.067 169.641 302.062 169.714C302.056 169.786 302.037 169.857 302.004 169.922C301.971 169.987 301.926 170.045 301.871 170.092C301.815 170.14 301.752 170.176 301.682 170.199C301.613 170.221 301.54 170.23 301.468 170.225C301.395 170.219 301.325 170.199 301.26 170.167C301.195 170.134 301.137 170.088 301.09 170.033C301.042 169.978 301.006 169.914 300.984 169.845V169.845C300.502 168.414 299.782 167.075 298.853 165.884C297.914 164.681 296.834 163.594 295.636 162.648C295.579 162.603 295.531 162.547 295.495 162.484C295.46 162.421 295.437 162.351 295.429 162.279C295.42 162.207 295.427 162.134 295.447 162.064C295.467 161.994 295.501 161.929 295.547 161.873C295.639 161.758 295.773 161.684 295.919 161.667C296.065 161.65 296.212 161.692 296.327 161.783V161.783Z" fill="black"/>
<path d="M300.594 178.962C298.991 181.741 296.942 184.237 294.53 186.351C294.419 186.45 294.274 186.502 294.125 186.494C293.976 186.486 293.837 186.42 293.738 186.309C293.638 186.198 293.587 186.052 293.594 185.904C293.602 185.755 293.669 185.615 293.779 185.516V185.516C296.1 183.49 298.071 181.094 299.612 178.425V178.425C299.647 178.361 299.695 178.305 299.752 178.259C299.809 178.214 299.875 178.18 299.945 178.16C300.016 178.14 300.089 178.134 300.162 178.143C300.235 178.152 300.305 178.175 300.368 178.211C300.495 178.285 300.589 178.405 300.629 178.547C300.669 178.688 300.652 178.839 300.582 178.968L300.594 178.962Z" fill="black"/>
<path d="M286.112 179.711C283.353 181.242 280.529 182.642 277.642 183.91C277.508 183.959 277.36 183.956 277.228 183.9C277.097 183.844 276.991 183.74 276.933 183.609C276.875 183.479 276.869 183.331 276.916 183.196C276.962 183.06 277.058 182.948 277.185 182.881V182.881C280.037 181.618 282.84 180.238 285.57 178.76C285.635 178.724 285.705 178.702 285.778 178.693C285.852 178.685 285.926 178.691 285.997 178.712C286.067 178.732 286.133 178.766 286.191 178.812C286.249 178.858 286.297 178.915 286.332 178.979C286.368 179.044 286.391 179.114 286.399 179.188C286.407 179.261 286.401 179.335 286.381 179.406C286.36 179.477 286.326 179.543 286.28 179.6C286.235 179.658 286.178 179.706 286.113 179.742L286.112 179.711Z" fill="black"/>
<path fill-rule="evenodd" clip-rule="evenodd" d="M10.788 65.457C13.826 76.6664 48.4337 81.4706 88.0864 76.1875C102.627 74.2502 115.827 71.2255 126.564 67.6186C139.744 63.1915 149.213 57.8873 152.898 52.6405C154.398 50.5049 154.94 48.3789 154.383 46.3254L77.0846 35.5948C68.474 36.742 60.3336 38.2706 52.8963 40.0755C40.304 43.1315 29.7272 46.9798 22.2967 51.1112C13.9056 55.7766 9.52663 60.803 10.788 65.457Z" fill="black"/>
<path d="M77.0846 35.5948C116.737 30.3118 151.345 35.116 154.383 46.3254L77.0846 35.5948Z" fill="#F1EFED"/>
<path d="M22.2967 51.1112L22.6695 51.6481L22.6695 51.6481L22.2967 51.1112ZM126.564 67.6186L126.287 67.0398L126.564 67.6186ZM52.8963 40.0755L53.1245 40.6686L52.8963 40.0755ZM152.898 52.6405L152.35 52.2604L152.35 52.2604L152.898 52.6405ZM87.9224 75.5824C68.1376 78.2184 49.6347 78.334 35.7225 76.4027C28.7619 75.4365 22.9884 73.9629 18.7879 72.0598C14.564 70.1461 12.0869 67.874 11.4094 65.3742L10.1666 65.5398C11.0081 68.6447 13.9963 71.1766 18.3549 73.1513C22.7369 75.1365 28.6633 76.6355 35.6909 77.6111C49.7552 79.5635 68.3825 79.4397 88.2504 76.7926L87.9224 75.5824ZM77.2486 36.1999C97.0334 33.5639 115.536 33.4483 129.449 35.3796C136.409 36.3459 142.183 37.8195 146.383 39.7226C150.607 41.6362 153.084 43.9084 153.762 46.4081L155.004 46.2426C154.163 43.1377 151.175 40.6058 146.816 38.6311C142.434 36.6458 136.508 35.1468 129.48 34.1712C115.416 32.2188 96.7885 32.3427 76.9206 34.9897L77.2486 36.1999ZM11.4094 65.3742C10.8472 63.2996 11.5165 61.0535 13.4476 58.6989C15.3754 56.3483 18.5041 53.9641 22.6695 51.6481L21.9238 50.5743C17.6982 52.9237 14.4419 55.3854 12.3977 57.8779C10.3569 60.3663 9.46747 62.9604 10.1666 65.5398L11.4094 65.3742ZM126.287 67.0398C115.591 70.6328 102.429 73.6496 87.9224 75.5824L88.2504 76.7926C102.825 74.8508 116.063 71.8182 126.842 68.1975L126.287 67.0398ZM22.6695 51.6481C30.0408 47.5496 40.5637 43.7169 53.1245 40.6686L52.668 39.4824C40.0443 42.546 29.4136 46.41 21.9238 50.5743L22.6695 51.6481ZM53.1245 40.6686C60.5399 38.869 68.6589 37.3444 77.2486 36.1999L76.9206 34.9897C68.2892 36.1397 60.1273 37.6722 52.668 39.4824L53.1245 40.6686ZM153.762 46.4081C154.258 48.2394 153.796 50.2021 152.35 52.2604L153.446 53.0206C155 50.8078 155.621 48.5183 155.004 46.2426L153.762 46.4081ZM152.35 52.2604C150.571 54.7932 147.36 57.3843 142.915 59.9022C138.479 62.4153 132.852 64.8344 126.287 67.0398L126.842 68.1975C133.456 65.9757 139.154 63.5292 143.668 60.9717C148.174 58.419 151.54 55.7346 153.446 53.0206L152.35 52.2604ZM154.399 45.7212L77.1004 34.9906L77.0689 36.199L154.367 46.9295L154.399 45.7212Z" fill="black"/>
<path fill-rule="evenodd" clip-rule="evenodd" d="M281.334 96.2793C325.543 96.1582 361.607 88.339 361.885 78.8147C362.162 69.2904 326.549 61.6677 282.339 61.7889C273.08 61.8143 264.177 62.1773 255.887 62.8231L201.806 79.7435C202.739 89.0378 237.885 96.3984 281.334 96.2793Z" fill="black"/>
<path d="M201.788 79.2535C201.784 79.4174 201.789 79.5807 201.806 79.7435L255.887 62.8231C224.593 65.2603 202.008 71.7241 201.788 79.2535Z" fill="#F1EFED"/>
<path d="M201.806 79.7435L201.182 79.8256L201.806 79.7435ZM361.258 78.8164C361.229 79.796 360.742 80.813 359.715 81.8644C358.686 82.9187 357.151 83.9673 355.13 84.987C351.09 87.0255 345.236 88.8856 337.97 90.4609C323.448 93.6094 303.426 95.5922 281.352 95.6527L281.316 96.906C303.451 96.8453 323.566 94.8579 338.198 91.6854C345.509 90.1003 351.485 88.2122 355.667 86.1021C357.757 85.0475 359.431 83.9217 360.599 82.7249C361.771 81.5252 362.471 80.2144 362.512 78.813L361.258 78.8164ZM282.321 62.4155C304.395 62.355 324.305 64.2283 338.645 67.2977C345.82 68.8335 351.567 70.6618 355.489 72.6784C357.451 73.6872 358.925 74.7276 359.893 75.7764C360.858 76.8223 361.287 77.8368 361.258 78.8164L362.512 78.813C362.553 77.4115 361.929 76.1043 360.827 74.9109C359.728 73.7203 358.12 72.6035 356.091 71.5602C352.031 69.4727 346.164 67.6171 338.945 66.0718C324.495 62.979 304.493 61.1015 282.358 61.1622L282.321 62.4155ZM281.352 95.6527C259.658 95.7121 240.055 93.9038 225.773 90.9278C218.628 89.4389 212.845 87.6637 208.805 85.6998C206.784 84.7175 205.225 83.7005 204.151 82.6691C203.076 81.6365 202.527 80.6288 202.43 79.6613L201.182 79.8256C201.318 81.1817 202.071 82.4372 203.267 83.5857C204.463 84.7353 206.143 85.8173 208.227 86.8302C212.397 88.8567 218.29 90.6569 225.48 92.1551C239.867 95.1532 259.561 96.9656 281.316 96.906L281.352 95.6527ZM202.43 79.6613C202.416 79.525 202.411 79.3886 202.415 79.2518L201.161 79.2552C201.156 79.4463 201.163 79.6365 201.182 79.8256L202.43 79.6613ZM202.415 79.2518C202.461 77.7007 203.67 76.0491 206.262 74.3757C208.824 72.721 212.579 71.152 217.346 69.7287C226.872 66.8848 240.293 64.6646 255.915 63.4478L255.858 62.1983C240.187 63.4188 226.668 65.6491 217.023 68.5287C212.205 69.9672 208.317 71.5783 205.605 73.3294C202.922 75.0617 201.226 77.0416 201.161 79.2552L202.415 79.2518ZM255.915 63.4478C264.19 62.8034 273.076 62.4409 282.321 62.4155L282.358 61.1622C273.083 61.1876 264.165 61.5513 255.858 62.1983L255.915 63.4478ZM201.976 80.341L256.056 63.4206L255.717 62.2255L201.636 79.146L201.976 80.341Z" fill="black"/>
<ellipse rx="71.1629" ry="21.812" transform="matrix(0.967114 -0.254342 0.471783 0.881715 78.3905 48.0272)" fill="#F1EFED" stroke="black" stroke-width="1.25385" stroke-linejoin="round"/>
<ellipse rx="79.4366" ry="23.1302" transform="matrix(0.991063 0.133397 -0.2663 0.96389 285.358 65.4975)" fill="#F1EFED" stroke="black" stroke-width="1.25385" stroke-linejoin="round"/>
<path d="M225.665 59.6673C226.166 59.7273 226.583 59.8803 226.917 60.1262C227.26 60.3731 227.482 60.7125 227.585 61.1444C227.689 61.5686 227.65 62.0706 227.467 62.6503L226.464 65.8193L225.332 65.6835L226.328 62.5373C226.487 62.034 226.459 61.615 226.243 61.2803C226.027 60.9457 225.685 60.7503 225.217 60.6941C224.899 60.6559 224.584 60.7013 224.271 60.83C223.958 60.9587 223.683 61.1513 223.445 61.4078C223.217 61.6576 223.054 61.9388 222.955 62.2515L221.996 65.2833L220.864 65.1475L223.416 57.0818L224.489 57.2105L223.504 60.3223C223.819 60.083 224.168 59.9033 224.553 59.7832C224.937 59.663 225.308 59.6244 225.665 59.6673ZM231.79 60.5208L229.98 66.2412L228.848 66.1054L230.658 60.385L231.79 60.5208ZM232.586 58.2412L232.188 59.4997L230.925 59.3482L231.323 58.0897L232.586 58.2412ZM238.887 64.0796C238.732 64.5678 238.473 64.9959 238.109 65.3639C237.745 65.7319 237.29 65.9979 236.743 66.1619C237.091 66.3145 237.318 66.508 237.425 66.7425C237.541 66.978 237.552 67.2406 237.46 67.5305C237.316 67.9881 237.023 68.3409 236.581 68.5888C236.146 68.8453 235.654 68.9406 235.106 68.8749L233.521 68.6848C232.981 68.62 232.581 68.4255 232.321 68.1014C232.06 67.7772 232 67.394 232.14 66.9516C232.334 66.3414 232.834 65.9582 233.642 65.8018C233.25 65.5568 232.993 65.2093 232.871 64.7593C232.758 64.3102 232.777 63.8455 232.929 63.365C233.086 62.8692 233.356 62.4344 233.738 62.0607C234.13 61.6803 234.59 61.399 235.118 61.2169C235.645 61.0348 236.179 60.9761 236.719 61.0409C237.482 61.1324 238.04 61.4922 238.394 62.1205L238.643 61.3311L239.716 61.4597L238.887 64.0796ZM235.329 65.5528C235.686 65.5957 236.033 65.5542 236.37 65.4283C236.706 65.3025 236.998 65.1118 237.243 64.8563C237.497 64.6017 237.678 64.3028 237.787 63.9596C237.893 63.624 237.905 63.3127 237.823 63.0258C237.748 62.7397 237.592 62.5033 237.355 62.3165C237.117 62.1296 236.819 62.0148 236.462 61.9719C235.93 61.908 235.436 62.0229 234.98 62.3166C234.535 62.6036 234.231 63.0026 234.069 63.5136C233.905 64.0323 233.94 64.4837 234.173 64.8679C234.413 65.253 234.799 65.4813 235.329 65.5528ZM235.286 67.9939C235.54 68.0244 235.771 67.9849 235.979 67.8752C236.194 67.7665 236.332 67.6168 236.393 67.4261C236.458 67.2202 236.429 67.0386 236.306 66.8813C236.182 66.724 235.989 66.6296 235.727 66.5982L234.321 66.4295C234.059 66.3981 233.823 66.441 233.613 66.5583C233.403 66.6755 233.265 66.8371 233.2 67.0431C233.139 67.2337 233.172 67.4039 233.298 67.5536C233.432 67.7042 233.626 67.7948 233.88 67.8253L235.286 67.9939ZM244.964 61.9824C245.464 62.0425 245.881 62.1955 246.216 62.4414C246.558 62.6883 246.78 63.0277 246.883 63.4596C246.988 63.8838 246.948 64.3858 246.765 64.9654L245.762 68.1345L244.63 67.9987L245.626 64.8525C245.785 64.3491 245.757 63.9301 245.541 63.5955C245.326 63.2609 244.984 63.0655 244.515 63.0092C244.197 62.9711 243.882 63.0164 243.569 63.1451C243.256 63.2739 242.981 63.4665 242.743 63.7229C242.516 63.9727 242.353 64.254 242.254 64.5667L241.294 67.5985L240.162 67.4627L242.715 59.397L243.787 59.5256L242.802 62.6375C243.117 62.3982 243.467 62.2185 243.851 62.0983C244.235 61.9782 244.606 61.9395 244.964 61.9824ZM252.507 62.8874C253.119 62.9608 253.611 63.1504 253.984 63.4565C254.365 63.7634 254.605 64.1643 254.704 64.6591C254.805 65.1463 254.758 65.6987 254.563 66.3165C254.512 66.4767 254.471 66.5945 254.439 66.6698L249.554 66.0837C249.493 66.5356 249.592 66.9275 249.849 67.2592C250.118 67.5843 250.486 67.775 250.955 67.8312C251.725 67.9236 252.359 67.7186 252.856 67.2162L254.024 67.3562C253.664 67.8673 253.172 68.2634 252.547 68.5447C251.924 68.8184 251.287 68.9161 250.636 68.838C250.056 68.7684 249.572 68.5797 249.183 68.2718C248.796 67.9562 248.543 67.5577 248.423 67.0763C248.306 66.5872 248.337 66.0605 248.515 65.496C248.694 64.9316 248.986 64.4402 249.39 64.0216C249.797 63.5954 250.271 63.2841 250.811 63.0877C251.362 62.8846 251.927 62.8178 252.507 62.8874ZM252.179 63.8455C251.71 63.7893 251.261 63.8818 250.83 64.1231C250.407 64.3652 250.086 64.7027 249.866 65.1356L253.524 65.5744C253.621 65.1111 253.542 64.7216 253.288 64.4061C253.041 64.0915 252.671 63.9046 252.179 63.8455ZM260.538 63.8509C260.729 63.8737 260.904 63.9066 261.064 63.9495L260.727 65.0135C260.593 64.9658 260.372 64.9234 260.062 64.8863C259.713 64.8443 259.379 64.8835 259.06 65.0036C258.75 65.1247 258.478 65.3058 258.245 65.5471C258.023 65.7816 257.863 66.0514 257.767 66.3565L256.785 69.4569L255.653 69.3212L257.464 63.6008L258.536 63.7294L258.257 64.6104C258.576 64.332 258.934 64.1255 259.331 63.9911C259.739 63.85 260.141 63.8032 260.538 63.8509ZM267.929 65.925L266.973 68.9453C266.895 69.1894 266.896 69.3834 266.974 69.5274C267.06 69.6723 267.254 69.7628 267.556 69.799C267.842 69.8333 268.091 69.8395 268.304 69.8176L267.989 70.8129C267.753 70.8558 267.48 70.8587 267.17 70.8216C265.907 70.67 265.464 69.9994 265.841 68.8095L266.797 65.7892L265.605 65.6463L265.931 64.6166L267.123 64.7595L267.593 63.2722L268.725 63.408L268.254 64.8953L269.922 65.0954L269.597 66.1251L267.929 65.925ZM274.903 65.5742C275.094 65.5971 275.269 65.63 275.429 65.6728L275.092 66.7368C274.958 66.6892 274.737 66.6468 274.427 66.6096C274.078 66.5677 273.744 66.6068 273.425 66.7269C273.115 66.848 272.843 67.0292 272.61 67.2704C272.388 67.5049 272.228 67.7748 272.132 68.0798L271.15 71.1803L270.018 71.0445L271.829 65.3241L272.901 65.4528L272.622 66.3337C272.941 66.0553 273.299 65.8489 273.696 65.7144C274.104 65.5733 274.506 65.5266 274.903 65.5742ZM282.255 66.575L280.445 72.2953L279.313 72.1596L279.585 71.3015C279.242 71.577 278.868 71.7816 278.463 71.9151C278.06 72.0409 277.661 72.08 277.263 72.0324C276.739 71.9695 276.302 71.7865 275.953 71.4833C275.606 71.1726 275.381 70.7774 275.277 70.2978C275.173 69.8183 275.212 69.2925 275.393 68.7205C275.574 68.1484 275.859 67.6522 276.247 67.2317C276.636 66.8113 277.085 66.5009 277.593 66.3007C278.104 66.0928 278.622 66.0203 279.146 66.0832C279.559 66.1328 279.916 66.2705 280.215 66.4965C280.515 66.7224 280.739 67.0146 280.89 67.373L281.183 66.4463L282.255 66.575ZM277.773 71.0485C278.122 71.0904 278.466 71.0446 278.805 70.9111C279.145 70.7776 279.441 70.5717 279.694 70.2933C279.949 70.0073 280.136 69.6774 280.254 69.3037C280.372 68.9299 280.399 68.5848 280.334 68.2683C280.272 67.9441 280.125 67.681 279.892 67.4789C279.659 67.2768 279.368 67.1548 279.018 67.1129C278.669 67.071 278.328 67.1172 277.997 67.2517C277.666 67.3861 277.373 67.5963 277.118 67.8824C276.865 68.1608 276.679 68.4868 276.561 68.8606C276.442 69.2343 276.414 69.5832 276.477 69.9074C276.541 70.2239 276.686 70.4827 276.911 70.6839C277.136 70.885 277.423 71.0066 277.773 71.0485ZM287.835 67.1256C288.319 67.1837 288.721 67.3348 289.039 67.5788C289.366 67.8238 289.576 68.1618 289.671 68.5927C289.775 69.0169 289.736 69.5189 289.553 70.0986L288.55 73.2676L287.418 73.1319L288.414 69.9857C288.573 69.4823 288.545 69.0633 288.329 68.7286C288.113 68.394 287.771 68.1986 287.303 68.1424C286.961 68.1014 286.634 68.1453 286.321 68.274C286.019 68.396 285.754 68.582 285.526 68.8318C285.307 69.0825 285.147 69.3642 285.049 69.677L284.082 72.7316L282.95 72.5958L284.76 66.8755L285.833 67.0041L285.543 67.9194C285.864 67.6334 286.225 67.4193 286.624 67.2772C287.034 67.1285 287.438 67.0779 287.835 67.1256ZM292.995 73.9197C292.248 73.8301 291.67 73.5865 291.26 73.189C290.86 72.7848 290.716 72.2766 290.827 71.6646L291.959 71.8004C291.958 72.1407 292.072 72.4077 292.299 72.6012C292.537 72.788 292.886 72.9091 293.347 72.9644C293.776 73.0158 294.142 72.9924 294.445 72.8942C294.75 72.7884 294.937 72.6287 295.004 72.4151C295.072 72.2016 295.034 72.0228 294.89 71.8788C294.756 71.7282 294.459 71.5857 293.999 71.4513L293.356 71.2554C292.003 70.8398 291.463 70.2011 291.736 69.3392C291.895 68.8358 292.254 68.4592 292.811 68.2094C293.371 67.952 294.024 67.868 294.77 67.9576C295.446 68.0386 295.973 68.2602 296.353 68.6225C296.736 68.9771 296.906 69.429 296.864 69.9782L295.661 69.8338C295.638 69.5936 295.511 69.3962 295.279 69.2418C295.05 69.0797 294.773 68.9792 294.447 68.9401C294.034 68.8905 293.685 68.912 293.4 69.0045C293.126 69.0903 292.956 69.2362 292.891 69.4421C292.833 69.6252 292.876 69.7887 293.02 69.9326C293.166 70.069 293.433 70.1919 293.818 70.3015L294.473 70.4989C295.242 70.7257 295.747 71.0079 295.986 71.3454C296.228 71.6752 296.274 72.0766 296.124 72.5495C295.965 73.0529 295.602 73.4328 295.034 73.6893C294.477 73.9391 293.797 74.0159 292.995 73.9197ZM302.584 68.895C303.108 68.9579 303.544 69.1447 303.89 69.4555C304.24 69.7586 304.466 70.15 304.57 70.6295C304.674 71.1091 304.635 71.6349 304.454 72.2069C304.273 72.7789 303.988 73.2752 303.6 73.6956C303.211 74.1161 302.761 74.4303 302.25 74.6381C301.742 74.8384 301.225 74.907 300.701 74.8441C300.304 74.7965 299.957 74.6678 299.661 74.4581C299.367 74.2407 299.145 73.9648 298.995 73.6301L298.108 76.4331L296.976 76.2973L299.402 68.632L300.474 68.7607L300.181 69.6874C300.539 69.3899 300.926 69.1711 301.341 69.0309C301.757 68.8907 302.171 68.8454 302.584 68.895ZM300.829 73.8145C301.179 73.8564 301.519 73.8102 301.85 73.6757C302.181 73.5413 302.473 73.3349 302.726 73.0565C302.981 72.7704 303.168 72.4405 303.287 72.0668C303.405 71.6931 303.432 71.348 303.367 71.0314C303.305 70.7073 303.161 70.4447 302.936 70.2435C302.711 70.0424 302.424 69.9208 302.075 69.8789C301.725 69.837 301.381 69.8827 301.042 70.0162C300.703 70.1497 300.405 70.3595 300.15 70.6455C299.897 70.9239 299.711 71.25 299.593 71.6237C299.475 71.9974 299.447 72.3464 299.509 72.6705C299.574 72.987 299.723 73.2464 299.955 73.4485C300.188 73.6506 300.48 73.7726 300.829 73.8145ZM312.807 70.2402L310.997 75.9606L309.865 75.8248L310.137 74.9667C309.794 75.2423 309.42 75.4468 309.015 75.5803C308.612 75.7062 308.213 75.7453 307.815 75.6976C307.291 75.6348 306.854 75.4517 306.505 75.1486C306.158 74.8378 305.933 74.4426 305.829 73.9631C305.725 73.4836 305.764 72.9578 305.945 72.3857C306.126 71.8137 306.411 71.3174 306.8 70.897C307.188 70.4765 307.637 70.1662 308.145 69.9659C308.656 69.7581 309.174 69.6856 309.698 69.7485C310.111 69.798 310.468 69.9358 310.767 70.1617C311.067 70.3876 311.291 70.6798 311.442 71.0383L311.735 70.1116L312.807 70.2402ZM308.325 74.7137C308.674 74.7557 309.018 74.7099 309.357 74.5764C309.697 74.4429 309.993 74.2369 310.246 73.9585C310.501 73.6725 310.688 73.3426 310.806 72.9689C310.924 72.5952 310.951 72.2501 310.886 71.9335C310.824 71.6094 310.677 71.3463 310.444 71.1442C310.211 70.9421 309.92 70.8201 309.57 70.7781C309.221 70.7362 308.88 70.7825 308.549 70.9169C308.218 71.0513 307.925 71.2616 307.67 71.5476C307.417 71.826 307.231 72.1521 307.113 72.5258C306.994 72.8995 306.966 73.2485 307.029 73.5726C307.093 73.8891 307.238 74.148 307.463 74.3491C307.688 74.5503 307.975 74.6718 308.325 74.7137ZM318.387 70.7908C318.577 70.8137 318.752 70.8466 318.912 70.8895L318.575 71.9534C318.442 71.9058 318.22 71.8634 317.911 71.8262C317.561 71.7843 317.227 71.8234 316.909 71.9435C316.598 72.0646 316.327 72.2458 316.094 72.487C315.871 72.7215 315.712 72.9914 315.615 73.2964L314.634 76.3969L313.502 76.2611L315.312 70.5407L316.385 70.6694L316.106 71.5503C316.425 71.2719 316.783 71.0655 317.18 70.931C317.587 70.7899 317.99 70.7432 318.387 70.7908ZM322.868 71.3284C323.48 71.4018 323.972 71.5915 324.345 71.8975C324.726 72.2045 324.966 72.6053 325.065 73.1001C325.167 73.5873 325.119 74.1398 324.924 74.7576C324.873 74.9178 324.832 75.0355 324.8 75.1108L319.915 74.5248C319.854 74.9767 319.953 75.3685 320.211 75.7003C320.479 76.0254 320.847 76.216 321.316 76.2722C322.086 76.3647 322.72 76.1597 323.217 75.6572L324.385 75.7973C324.025 76.3083 323.533 76.7045 322.908 76.9857C322.285 77.2594 321.648 77.3572 320.997 77.279C320.417 77.2095 319.933 77.0207 319.544 76.7128C319.157 76.3973 318.904 75.9988 318.784 75.5173C318.667 75.0282 318.698 74.5015 318.876 73.9371C319.055 73.3727 319.347 72.8812 319.751 72.4626C320.158 72.0365 320.632 71.7252 321.172 71.5287C321.723 71.3256 322.288 71.2589 322.868 71.3284ZM322.54 72.2866C322.071 72.2304 321.622 72.3229 321.191 72.5641C320.768 72.8063 320.447 73.1438 320.227 73.5766L323.885 74.0154C323.982 73.5521 323.903 73.1627 323.649 72.8471C323.402 72.5325 323.032 72.3457 322.54 72.2866ZM330.899 72.2919C331.384 72.35 331.785 72.5011 332.104 72.7452C332.43 72.9902 332.641 73.3281 332.735 73.7591C332.84 74.1833 332.801 74.6853 332.617 75.2649L331.614 78.434L330.482 78.2982L331.478 75.152C331.638 74.6486 331.609 74.2296 331.394 73.895C331.178 73.5604 330.836 73.3649 330.367 73.3087C330.026 73.2678 329.699 73.3116 329.386 73.4403C329.083 73.5624 328.818 73.7483 328.591 73.9981C328.371 74.2489 328.212 74.5306 328.113 74.8433L327.146 77.898L326.015 77.7622L327.825 72.0418L328.897 72.1705L328.608 73.0857C328.929 72.7997 329.289 72.5857 329.689 72.4436C330.099 72.2948 330.502 72.2443 330.899 72.2919ZM334.368 75.7955C334.542 75.2464 334.839 74.7635 335.259 74.3468C335.682 73.9226 336.177 73.6098 336.743 73.4086C337.312 73.1998 337.891 73.1306 338.478 73.2012C339.138 73.2803 339.67 73.5381 340.076 73.9747C340.493 74.4047 340.69 74.9271 340.669 75.542L339.429 75.3934C339.391 75.0721 339.249 74.8056 339.002 74.594C338.766 74.3757 338.466 74.2446 338.1 74.2008C337.727 74.156 337.366 74.2037 337.016 74.3439C336.669 74.4764 336.364 74.6852 336.101 74.9703C335.84 75.2477 335.651 75.5695 335.535 75.9356C335.419 76.3017 335.397 76.6473 335.467 76.9724C335.54 77.2899 335.695 77.554 335.933 77.7646C336.174 77.9677 336.481 78.0916 336.855 78.1364C337.22 78.1802 337.577 78.1321 337.927 77.9919C338.287 77.8451 338.582 77.6272 338.814 77.3383L340.053 77.487C339.698 78.0619 339.195 78.5043 338.545 78.8142C337.905 79.1174 337.255 79.2294 336.596 79.1503C336.008 79.0798 335.513 78.8858 335.11 78.5684C334.71 78.2433 334.442 77.8391 334.307 77.3557C334.174 76.8648 334.194 76.3447 334.368 75.7955ZM348.736 74.5505L342.819 81.7969L341.592 81.6497L343.181 79.7147L342.052 73.7486L343.398 73.9101L344.142 78.6307L347.485 74.4004L348.736 74.5505Z" fill="black"/>
<path d="M26.0381 65.0094L27.5237 70.8226L26.4192 71.1049L24.9336 65.2917L26.0381 65.0094ZM25.5136 62.6663L25.8405 63.9452L24.6081 64.2602L24.2813 62.9813L25.5136 62.6663ZM35.5988 62.4423C36.0638 62.3234 36.5043 62.3182 36.9201 62.4266C37.3436 62.5331 37.7125 62.765 38.0268 63.1223C38.3468 63.4699 38.5821 63.9382 38.7326 64.5273L39.5556 67.7478L38.4511 68.03L37.6341 64.8328C37.5033 64.3212 37.2521 63.9519 36.8803 63.7249C36.5162 63.4959 36.1133 63.4379 35.6715 63.5508C35.191 63.6736 34.847 63.9432 34.6396 64.3595C34.4322 64.7758 34.3919 65.232 34.5187 65.728L35.312 68.8323L34.2075 69.1145L33.3904 65.9173C33.2597 65.4057 33.0084 65.0364 32.6367 64.8094C32.2726 64.5804 31.8697 64.5224 31.4279 64.6353C30.9474 64.7581 30.6034 65.0276 30.396 65.444C30.1886 65.8603 30.1483 66.3165 30.2751 66.8125L31.0684 69.9167L29.9639 70.199L28.4783 64.3858L29.5247 64.1184L29.7594 65.0369C29.8875 64.6656 30.0905 64.3454 30.3685 64.0762C30.6542 63.805 30.9831 63.6218 31.3552 63.5268C31.8125 63.4099 32.249 63.4057 32.6648 63.5141C33.0864 63.6128 33.4474 63.8302 33.748 64.1662C33.8817 63.7522 34.1117 63.3921 34.438 63.0857C34.77 62.7697 35.157 62.5552 35.5988 62.4423ZM43.4304 60.4408C43.942 60.3101 44.4407 60.323 44.9266 60.4796C45.4105 60.6284 45.831 60.9008 46.1882 61.2967C46.5453 61.6926 46.7982 62.1812 46.9467 62.7625C47.0953 63.3438 47.1079 63.8938 46.9845 64.4125C46.8611 64.9312 46.6237 65.3758 46.2725 65.7463C45.9194 66.1091 45.487 66.3558 44.9754 66.4865C44.5879 66.5856 44.2018 66.5934 43.8172 66.5101C43.4306 66.4189 43.0775 66.2491 42.758 66.0004L43.486 68.8489L42.3815 69.1312L40.3908 61.3415L41.4371 61.0741L41.6778 62.0158C41.8407 61.6192 42.0727 61.2832 42.374 61.0081C42.6752 60.7329 43.0274 60.5438 43.4304 60.4408ZM44.5279 65.511C44.869 65.4238 45.1534 65.2603 45.3811 65.0205C45.6088 64.7806 45.7615 64.4897 45.8393 64.1478C45.9151 63.7982 45.9044 63.4335 45.8074 63.0537C45.7103 62.6739 45.5456 62.3526 45.3134 62.09C45.0791 61.8196 44.8046 61.6337 44.4897 61.5326C44.1748 61.4314 43.8469 61.4243 43.5059 61.5115C43.1648 61.5987 42.8766 61.7632 42.6411 62.005C42.4057 62.2468 42.25 62.5425 42.1743 62.8922C42.0965 63.2341 42.1061 63.5949 42.2032 63.9747C42.3003 64.3545 42.4659 64.6796 42.7002 64.9501C42.9324 65.2127 43.2099 65.3937 43.5325 65.4929C43.8551 65.5921 44.1869 65.5981 44.5279 65.511ZM51.06 58.491C51.246 58.4435 51.4234 58.4106 51.5921 58.3922L51.8684 59.4735C51.721 59.4781 51.4961 59.5191 51.1939 59.5963C50.8528 59.6835 50.5703 59.8382 50.3464 60.0606C50.1303 60.281 49.9822 60.5418 49.9023 60.8429C49.8281 61.1344 49.8307 61.4351 49.9099 61.7451L50.7151 64.8959L49.6106 65.1781L48.125 59.365L49.1714 59.0975L49.4002 59.9928C49.538 59.6273 49.7507 59.3128 50.0384 59.0494C50.3319 58.7762 50.6725 58.5901 51.06 58.491ZM57.0942 63.3895C56.5206 63.5361 55.9638 63.538 55.4236 63.3953C54.8815 63.2449 54.4163 62.9757 54.0282 62.5877C53.638 62.192 53.3717 61.7151 53.2291 61.157C53.0864 60.5989 53.0923 60.0566 53.2467 59.5299C53.3992 58.9956 53.6781 58.5362 54.0836 58.1518C54.4871 57.7597 54.9756 57.4904 55.5491 57.3438C56.115 57.1992 56.6651 57.2031 57.1994 57.3556C57.7396 57.4983 58.2047 57.7675 58.5949 58.1632C58.983 58.5512 59.2484 59.0242 59.391 59.5823C59.5336 60.1403 59.5287 60.6865 59.3763 61.2209C59.2219 61.7476 58.9429 62.2069 58.5395 62.599C58.1418 62.9814 57.66 63.2449 57.0942 63.3895ZM56.8327 62.3664C57.1893 62.2753 57.493 62.1068 57.744 61.861C57.9929 61.6075 58.1641 61.3078 58.2573 60.9619C58.3486 60.6083 58.3467 60.2455 58.2516 59.8734C58.1566 59.5014 57.9851 59.186 57.7374 58.9273C57.4876 58.6608 57.1937 58.48 56.8556 58.3847C56.5155 58.2817 56.1672 58.2758 55.8106 58.3669C55.4463 58.46 55.1358 58.6343 54.8791 58.8898C54.6281 59.1356 54.457 59.4353 54.3657 59.789C54.2725 60.1348 54.2734 60.4938 54.3684 60.8658C54.4635 61.2379 54.6359 61.5571 54.8857 61.8236C55.1335 62.0823 55.4274 62.2631 55.7675 62.3661C56.1133 62.4594 56.4684 62.4595 56.8327 62.3664ZM65.9621 54.8065L64.948 61.2585L63.5064 61.627L59.5211 56.4526L60.7535 56.1376L63.9712 60.3439L64.7646 55.1126L65.9621 54.8065ZM69.7887 53.7048C70.3855 53.5522 70.9375 53.5474 71.4447 53.6903C71.9596 53.8312 72.3976 54.1073 72.7587 54.5187C73.1178 54.9224 73.3776 55.4381 73.5381 56.0659C73.5797 56.2287 73.6065 56.3498 73.6186 56.4293L68.8518 57.6475C69.0441 58.0773 69.3485 58.3958 69.7648 58.6032C70.1869 58.8009 70.6266 58.8412 71.0839 58.7244C71.8357 58.5322 72.3002 58.1204 72.4774 57.4889L73.6167 57.1977C73.5694 57.7878 73.3384 58.3216 72.9237 58.7992C72.507 59.269 71.9809 59.5851 71.3454 59.7475C70.7795 59.8921 70.2353 59.8949 69.7126 59.756C69.188 59.6094 68.7393 59.3401 68.3667 58.9481C67.9921 58.5484 67.7314 58.0618 67.5849 57.4882C67.4383 56.9147 67.4345 56.3666 67.5734 55.8439C67.7103 55.3135 67.9709 54.8629 68.355 54.4923C68.745 54.1119 69.2229 53.8494 69.7887 53.7048ZM70.015 54.6873C69.5577 54.8042 69.1991 55.0486 68.9391 55.4206C68.6868 55.7905 68.5794 56.2102 68.6168 56.6796L72.1861 55.7674C72.0207 55.3142 71.7357 54.9907 71.3311 54.7969C70.9343 54.601 70.4956 54.5645 70.015 54.6873ZM79.4284 48.8261L81.5231 57.0226L80.4186 57.3049L80.1958 56.4329C80.0347 56.8044 79.8065 57.1228 79.511 57.3882C79.2135 57.6459 78.871 57.8242 78.4835 57.9233C77.9719 58.054 77.4742 58.045 76.9903 57.8962C76.5044 57.7396 76.0828 57.4634 75.7257 57.0675C75.3686 56.6716 75.1157 56.183 74.9671 55.6016C74.8186 55.0203 74.806 54.4703 74.9294 53.9516C75.0528 53.4329 75.2911 52.9922 75.6443 52.6294C75.9955 52.2589 76.4269 52.0083 76.9384 51.8776C77.3415 51.7746 77.7412 51.7715 78.1375 51.8684C78.5338 51.9653 78.8986 52.1487 79.2318 52.4186L78.382 49.0935L79.4284 48.8261ZM78.408 56.8526C78.7491 56.7655 79.0373 56.601 79.2728 56.3592C79.5082 56.1173 79.6648 55.8255 79.7426 55.4836C79.8184 55.1339 79.8078 54.7692 79.7107 54.3894C79.6136 54.0096 79.449 53.6884 79.2167 53.4257C78.9825 53.1553 78.704 52.9705 78.3814 52.8713C78.0588 52.772 77.727 52.766 77.3859 52.8532C77.0449 52.9403 76.7605 53.1038 76.5328 53.3437C76.3051 53.5835 76.1534 53.8783 76.0776 54.2279C75.9998 54.5698 76.0095 54.9307 76.1065 55.3105C76.2036 55.6903 76.3692 56.0154 76.6035 56.2858C76.8358 56.5485 77.1093 56.7304 77.4242 56.8316C77.739 56.9328 78.067 56.9398 78.408 56.8526ZM89.8832 55.01C89.1546 55.1962 88.4948 55.1831 87.9039 54.9709C87.3187 54.7488 86.9091 54.3416 86.6751 53.7491L87.7796 53.4668C87.9655 53.7743 88.2149 53.9748 88.5278 54.0683C88.8465 54.152 89.2306 54.1364 89.6801 54.0215C90.0987 53.9145 90.419 53.7625 90.6411 53.5654C90.8612 53.3605 90.9436 53.1495 90.8881 52.9325C90.8326 52.7155 90.6999 52.5677 90.49 52.4893C90.2858 52.4011 89.9374 52.3786 89.4448 52.422L88.7523 52.4751C87.2938 52.5836 86.4526 52.1999 86.2288 51.3241C86.098 50.8125 86.2178 50.3443 86.5882 49.9193C86.9565 49.4867 87.505 49.1772 88.2335 48.991C88.8924 48.8227 89.4939 48.8341 90.0382 49.0253C90.5805 49.2087 90.983 49.5559 91.2457 50.0667L90.0714 50.3668C89.919 50.1581 89.6951 50.0253 89.3999 49.9687C89.1027 49.9043 88.7952 49.9127 88.4774 49.9939C88.0744 50.0969 87.7686 50.2411 87.56 50.4265C87.3572 50.6022 87.2825 50.7947 87.336 51.0039C87.3835 51.19 87.5123 51.3222 87.7222 51.4007C87.9302 51.4714 88.2398 51.4872 88.6509 51.4482L89.355 51.3921C90.1792 51.3219 90.7928 51.3963 91.1956 51.6154C91.5964 51.8267 91.8582 52.1726 91.981 52.6532C92.1117 53.1648 91.989 53.6379 91.6129 54.0725C91.2426 54.4974 90.666 54.8099 89.8832 55.01ZM95.2985 47.1855C95.8954 47.033 96.4474 47.0282 96.9545 47.171C97.4694 47.3119 97.9075 47.5881 98.2686 47.9995C98.6277 48.4031 98.8875 48.9189 99.0479 49.5467C99.0895 49.7095 99.1163 49.8306 99.1284 49.9101L94.3616 51.1283C94.554 51.558 94.8583 51.8766 95.2747 52.084C95.6967 52.2816 96.1364 52.322 96.5937 52.2051C97.3456 52.013 97.8101 51.6012 97.9872 50.9696L99.1266 50.6785C99.0792 51.2686 98.8482 51.8024 98.4335 52.2799C98.0169 52.7497 97.4908 53.0658 96.8552 53.2282C96.2894 53.3728 95.7451 53.3757 95.2225 53.2368C94.6978 53.0901 94.2492 52.8208 93.8765 52.4289C93.5019 52.0292 93.2413 51.5426 93.0947 50.969C92.9481 50.3954 92.9443 49.8473 93.0832 49.3246C93.2201 48.7942 93.4807 48.3437 93.8649 47.973C94.2548 47.5926 94.7327 47.3301 95.2985 47.1855ZM95.5249 48.1681C95.0676 48.2849 94.7089 48.5294 94.4489 48.9013C94.1967 49.2713 94.0892 49.691 94.1266 50.1603L97.6959 49.2482C97.5305 48.795 97.2456 48.4715 96.841 48.2776C96.4441 48.0818 96.0054 48.0453 95.5249 48.1681ZM100.477 49.0824C100.334 48.5243 100.34 47.982 100.495 47.4554C100.647 46.921 100.926 46.4616 101.332 46.0772C101.735 45.6851 102.224 45.4158 102.797 45.2692C103.44 45.1048 104.066 45.1471 104.675 45.3962C105.289 45.6355 105.755 46.0367 106.072 46.5996L104.863 46.9086C104.652 46.6323 104.377 46.4426 104.037 46.3396C103.702 46.2269 103.357 46.2161 103 46.3072C102.636 46.4003 102.333 46.5726 102.092 46.8242C101.849 47.068 101.686 47.3657 101.602 47.7173C101.517 48.0612 101.521 48.4192 101.616 48.7912C101.711 49.1633 101.88 49.4835 102.122 49.7519C102.362 50.0126 102.648 50.1955 102.981 50.3004C103.311 50.3977 103.658 50.3997 104.023 50.3066C104.379 50.2155 104.678 50.0442 104.919 49.7926C105.166 49.5313 105.316 49.2288 105.368 48.8851L106.578 48.5761C106.569 49.2223 106.354 49.8016 105.932 50.3141C105.515 50.8169 104.985 51.1505 104.342 51.3149C103.769 51.4615 103.212 51.4634 102.672 51.3207C102.129 51.1703 101.664 50.9011 101.276 50.5131C100.886 50.1174 100.62 49.6405 100.477 49.0824ZM112.624 42.8816L114.11 48.6948L113.064 48.9622L112.826 48.0321C112.69 48.4053 112.476 48.7324 112.185 49.0133C111.899 49.2845 111.563 49.4697 111.175 49.5687C110.702 49.6895 110.25 49.6977 109.819 49.5932C109.395 49.4868 109.02 49.2608 108.692 48.9152C108.37 48.5598 108.134 48.0876 107.983 47.4986L107.16 44.2781L108.265 43.9958L109.082 47.193C109.212 47.7046 109.468 48.0729 109.847 48.2979C110.227 48.523 110.645 48.5771 111.102 48.4602C111.436 48.375 111.706 48.2232 111.915 48.0048C112.129 47.7767 112.267 47.5101 112.33 47.2052C112.4 46.8982 112.394 46.5859 112.313 46.2681L111.52 43.1639L112.624 42.8816ZM118.002 41.3834C118.188 41.3358 118.366 41.3029 118.534 41.2845L118.811 42.3658C118.663 42.3704 118.438 42.4114 118.136 42.4886C117.795 42.5758 117.513 42.7306 117.289 42.9529C117.073 43.1733 116.925 43.4341 116.845 43.7353C116.77 44.0267 116.773 44.3274 116.852 44.6375L117.657 47.7882L116.553 48.0705L115.067 42.2573L116.114 41.9899L116.342 42.8851C116.48 42.5196 116.693 42.2051 116.981 41.9417C117.274 41.6685 117.615 41.4824 118.002 41.3834ZM121.408 40.6368L122.894 46.45L121.789 46.7323L120.304 40.9191L121.408 40.6368ZM120.884 38.2937L121.211 39.5726L119.978 39.8876L119.651 38.6087L120.884 38.2937ZM125.569 40.6882L126.354 43.7575C126.417 44.0056 126.527 44.1796 126.685 44.2797C126.851 44.3778 127.092 44.3862 127.41 44.305C127.704 44.2297 127.954 44.1411 128.159 44.0392L128.418 45.0506C128.211 45.1778 127.953 45.2811 127.642 45.3603C127.007 45.5227 126.488 45.4944 126.085 45.2753C125.68 45.0485 125.402 44.6366 125.249 44.0398L124.465 40.9705L123.302 41.2676L123.035 40.2212L124.197 39.9241L123.811 38.4127L124.915 38.1304L125.302 39.6418L128.208 38.899L128.476 39.9454L125.569 40.6882ZM134.282 37.3467L132.867 46.0069L131.669 46.313L132.056 43.9971L127.76 39.0136L129.074 38.6778L132.337 42.6743L133.062 37.6587L134.282 37.3467Z" fill="black"/>
<path fill-rule="evenodd" clip-rule="evenodd" d="M29.9036 154.448C32.6248 168.157 63.1817 173.924 98.1545 167.328C115.896 163.982 131.366 158.097 141.948 151.321C152.225 144.739 157.892 137.317 156.551 130.562L125.57 115.324C123.609 115.162 121.582 115.052 119.498 114.996C110.041 114.742 99.3928 115.59 88.3004 117.682C53.3276 124.278 27.1825 140.739 29.9036 154.448Z" fill="black"/>
<path d="M156.551 130.562C157.892 137.317 152.225 144.739 141.948 151.321C131.366 158.097 115.896 163.982 98.1545 167.328C63.1817 173.924 32.6248 168.157 29.9036 154.448C27.1825 140.739 53.3276 124.278 88.3004 117.682C99.3928 115.59 110.041 114.742 119.498 114.996C121.582 115.052 123.609 115.162 125.57 115.324M156.551 130.562C154.883 122.16 142.759 116.741 125.57 115.324M156.551 130.562L125.57 115.324" stroke="black" stroke-width="1.25385"/>
<ellipse rx="63.7014" ry="25.5684" transform="matrix(0.94056 -0.339626 0.392141 0.919905 88.0625 132.644)" fill="#F1EFED" stroke="black" stroke-width="1.25385" stroke-linejoin="round"/>
<path d="M46.1754 150.374L48.0691 155.689L47.0593 156.049L45.1656 150.733L46.1754 150.374ZM45.4817 148.225L45.8984 149.394L44.7716 149.796L44.3549 148.626L45.4817 148.225ZM51.0793 148.507C51.5116 148.353 51.9307 148.307 52.3365 148.37C52.7494 148.431 53.122 148.614 53.4542 148.918C53.791 149.214 54.0554 149.631 54.2473 150.169L55.2964 153.114L54.2865 153.474L53.245 150.55C53.0783 150.083 52.8076 149.76 52.4327 149.582C52.0579 149.404 51.6614 149.389 51.2433 149.538C50.9385 149.647 50.6958 149.817 50.5149 150.049C50.3386 150.272 50.2309 150.53 50.1917 150.824C50.1596 151.114 50.1953 151.405 50.2988 151.696L51.3101 154.534L50.3002 154.894L48.4065 149.579L49.3632 149.238L49.6662 150.088C49.7611 149.727 49.9307 149.407 50.1748 149.128C50.4235 148.84 50.725 148.633 51.0793 148.507ZM59.3324 151.796C58.6663 152.033 58.0473 152.078 57.4756 151.93C56.9084 151.773 56.4897 151.427 56.2193 150.892L57.2292 150.532C57.4299 150.804 57.6808 150.97 57.9818 151.031C58.2874 151.082 58.6458 151.034 59.0568 150.887C59.4395 150.751 59.7263 150.581 59.9172 150.377C60.1057 150.166 60.1645 149.962 60.0938 149.763C60.0231 149.565 59.8861 149.438 59.6827 149.383C59.4838 149.318 59.1557 149.327 58.6981 149.41L58.0543 149.52C56.6979 149.747 55.877 149.461 55.5917 148.66C55.4251 148.192 55.4968 147.743 55.8068 147.314C56.1143 146.877 56.6012 146.539 57.2673 146.302C57.8697 146.087 58.434 146.046 58.9602 146.178C59.4839 146.303 59.8908 146.593 60.1809 147.049L59.1072 147.431C58.9465 147.249 58.7254 147.144 58.444 147.117C58.1602 147.082 57.873 147.116 57.5824 147.22C57.2139 147.351 56.94 147.513 56.7607 147.704C56.586 147.886 56.5327 148.073 56.6009 148.264C56.6615 148.435 56.7935 148.547 56.9968 148.603C57.1977 148.651 57.489 148.639 57.8706 148.567L58.525 148.453C59.2908 148.316 59.8717 148.333 60.2678 148.503C60.6614 148.667 60.9365 148.968 61.093 149.407C61.2597 149.875 61.1857 150.329 60.8711 150.768C60.5611 151.198 60.0482 151.541 59.3324 151.796ZM63.0877 145.426L64.0876 148.233C64.1683 148.459 64.2834 148.614 64.4326 148.697C64.5889 148.777 64.8017 148.769 65.071 148.673C65.3261 148.582 65.5347 148.484 65.6967 148.378L66.0262 149.303C65.8576 149.435 65.6351 149.55 65.3587 149.648C64.2319 150.05 63.4716 149.698 63.0777 148.592L62.0778 145.786L61.0148 146.165L60.6739 145.208L61.737 144.829L61.2446 143.447L62.2545 143.088L62.7468 144.469L64.235 143.939L64.5759 144.896L63.0877 145.426ZM70.6687 141.647L72.5624 146.962L71.5526 147.322L71.2685 146.525C71.1498 146.886 70.9636 147.204 70.7099 147.478C70.4536 147.745 70.1483 147.942 69.794 148.068C69.3262 148.235 68.8594 148.269 68.3934 148.172C67.9248 148.067 67.5062 147.845 67.1376 147.505C66.7689 147.165 66.4899 146.73 66.3005 146.198C66.1112 145.667 66.0518 145.153 66.1226 144.656C66.1933 144.16 66.3783 143.727 66.6777 143.356C66.9745 142.979 67.3568 142.707 67.8245 142.541C68.193 142.409 68.567 142.372 68.9465 142.428C69.326 142.485 69.6835 142.625 70.0188 142.849L69.712 141.988L70.6687 141.647ZM69.6308 147.072C69.9426 146.961 70.1983 146.782 70.3978 146.535C70.5974 146.289 70.7188 146.002 70.7621 145.675C70.8028 145.341 70.7613 145 70.6376 144.653C70.5139 144.306 70.3319 144.019 70.0917 143.793C69.849 143.56 69.5723 143.411 69.2616 143.346C68.951 143.281 68.6397 143.304 68.3279 143.415C68.0161 143.527 67.7639 143.704 67.5714 143.948C67.3789 144.193 67.2623 144.482 67.2216 144.816C67.1783 145.143 67.2186 145.48 67.3423 145.827C67.466 146.174 67.6492 146.464 67.892 146.697C68.1322 146.923 68.4041 147.07 68.7077 147.138C69.0112 147.205 69.3189 147.183 69.6308 147.072ZM75.5764 139.779C76.0087 139.625 76.4277 139.579 76.8335 139.642C77.2464 139.703 77.619 139.885 77.9513 140.19C78.2881 140.486 78.5524 140.903 78.7443 141.441L79.7934 144.386L78.7836 144.746L77.742 141.822C77.5754 141.355 77.3046 141.032 76.9298 140.854C76.5549 140.676 76.1584 140.661 75.7403 140.81C75.4356 140.919 75.1928 141.089 75.012 141.321C74.8357 141.544 74.728 141.802 74.6888 142.095C74.6567 142.386 74.6924 142.677 74.7959 142.968L75.8071 145.806L74.7973 146.166L72.9036 140.851L73.8603 140.51L74.1633 141.36C74.2582 140.999 74.4277 140.679 74.6718 140.4C74.9205 140.112 75.222 139.905 75.5764 139.779ZM81.5928 138.833L82.5927 141.639C82.6735 141.866 82.7885 142.021 82.9377 142.103C83.094 142.184 83.3068 142.176 83.5761 142.08C83.8313 141.989 84.0398 141.89 84.2019 141.785L84.5314 142.71C84.3627 142.842 84.1402 142.957 83.8639 143.055C82.7371 143.457 81.9767 143.105 81.5828 141.999L80.583 139.193L79.5199 139.572L79.1791 138.615L80.2421 138.236L79.7497 136.854L80.7596 136.494L81.252 137.876L82.7402 137.346L83.081 138.303L81.5928 138.833ZM89.6215 135.973L90.6213 138.779C90.7021 139.006 90.8172 139.16 90.9664 139.243C91.1227 139.323 91.3355 139.315 91.6048 139.219C91.8599 139.128 92.0685 139.03 92.2305 138.924L92.56 139.849C92.3914 139.981 92.1689 140.096 91.8925 140.195C90.7657 140.596 90.0054 140.244 89.6115 139.139L88.6116 136.332L87.5486 136.711L87.2077 135.754L88.2707 135.376L87.7784 133.994L88.7882 133.634L89.2806 135.016L90.7688 134.486L91.1097 135.442L89.6215 135.973ZM95.1425 132.807C95.3125 132.747 95.4758 132.701 95.6322 132.669L95.9844 133.658C95.8467 133.675 95.6397 133.732 95.3633 133.831C95.0515 133.942 94.8004 134.111 94.6099 134.339C94.4266 134.564 94.3105 134.821 94.2617 135.11C94.2174 135.389 94.2458 135.671 94.3468 135.954L95.3732 138.835L94.3633 139.195L92.4696 133.88L93.4264 133.539L93.718 134.357C93.8154 134.003 93.9875 133.69 94.2341 133.419C94.4853 133.137 94.7881 132.934 95.1425 132.807ZM101.772 130.565L103.666 135.88L102.656 136.24L102.372 135.443C102.253 135.805 102.067 136.122 101.813 136.397C101.557 136.664 101.252 136.86 100.897 136.986C100.43 137.153 99.9629 137.188 99.4969 137.09C99.0283 136.985 98.6097 136.763 98.2411 136.423C97.8724 136.084 97.5934 135.648 97.404 135.116C97.2147 134.585 97.1553 134.071 97.2261 133.575C97.2968 133.078 97.4818 132.645 97.7812 132.275C98.078 131.897 98.4603 131.625 98.928 131.459C99.2965 131.327 99.6705 131.29 100.05 131.346C100.43 131.403 100.787 131.543 101.122 131.767L100.816 130.906L101.772 130.565ZM100.734 135.99C101.046 135.879 101.302 135.7 101.501 135.453C101.701 135.207 101.822 134.92 101.866 134.593C101.906 134.259 101.865 133.918 101.741 133.571C101.617 133.224 101.435 132.937 101.195 132.711C100.953 132.478 100.676 132.329 100.365 132.264C100.054 132.199 99.7432 132.222 99.4314 132.334C99.1196 132.445 98.8674 132.622 98.6749 132.867C98.4825 133.111 98.3658 133.4 98.3251 133.734C98.2818 134.061 98.3221 134.398 98.4458 134.745C98.5695 135.092 98.7527 135.383 98.9955 135.616C99.2357 135.841 99.5076 135.988 99.8112 136.056C100.115 136.123 100.422 136.101 100.734 135.99ZM104.476 132.597C104.294 132.087 104.252 131.578 104.351 131.072C104.448 130.558 104.67 130.104 105.016 129.709C105.36 129.307 105.794 129.012 106.318 128.826C106.907 128.616 107.496 128.602 108.088 128.782C108.684 128.953 109.155 129.289 109.501 129.788L108.395 130.182C108.174 129.942 107.899 129.788 107.572 129.721C107.249 129.644 106.925 129.664 106.599 129.78C106.266 129.899 105.997 130.086 105.793 130.343C105.586 130.592 105.459 130.885 105.411 131.221C105.361 131.551 105.396 131.886 105.517 132.226C105.639 132.566 105.824 132.851 106.074 133.082C106.321 133.305 106.605 133.451 106.925 133.521C107.243 133.584 107.568 133.555 107.901 133.437C108.227 133.321 108.493 133.134 108.697 132.878C108.905 132.612 109.019 132.316 109.039 131.989L110.144 131.595C110.193 132.201 110.041 132.762 109.69 133.279C109.343 133.786 108.876 134.144 108.288 134.353C107.763 134.54 107.242 134.59 106.724 134.503C106.203 134.409 105.745 134.197 105.348 133.868C104.948 133.531 104.657 133.107 104.476 132.597ZM113.287 129.673L112.796 130.615L113.432 132.401L112.422 132.761L109.752 125.266L110.762 124.906L112.379 129.446L114.015 126.203L115.354 125.726L113.792 128.703L117.471 130.961L116.121 131.442L113.287 129.673ZM118.018 124.777L119.912 130.092L118.902 130.452L117.008 125.137L118.018 124.777ZM117.324 122.628L117.741 123.798L116.614 124.199L116.198 123.03L117.324 122.628ZM122.922 122.91C123.354 122.756 123.773 122.71 124.179 122.774C124.592 122.834 124.965 123.017 125.297 123.322C125.634 123.617 125.898 124.034 126.09 124.572L127.139 127.517L126.129 127.877L125.088 124.954C124.921 124.486 124.65 124.163 124.275 123.985C123.901 123.807 123.504 123.793 123.086 123.942C122.781 124.05 122.538 124.221 122.358 124.453C122.181 124.675 122.074 124.933 122.034 125.227C122.002 125.518 122.038 125.809 122.141 126.099L123.153 128.937L122.143 129.297L120.249 123.982L121.206 123.641L121.509 124.492C121.604 124.13 121.773 123.81 122.017 123.532C122.266 123.243 122.568 123.036 122.922 122.91ZM133.073 122.144C133.234 122.598 133.275 123.047 133.193 123.491C133.112 123.935 132.895 124.336 132.543 124.693C132.919 124.671 133.22 124.732 133.447 124.874C133.68 125.015 133.845 125.22 133.941 125.489C134.092 125.914 134.06 126.317 133.844 126.697C133.638 127.082 133.291 127.362 132.802 127.536L131.388 128.04C130.906 128.211 130.462 128.222 130.057 128.071C129.652 127.92 129.376 127.638 129.229 127.227C129.028 126.661 129.212 126.148 129.783 125.688C129.316 125.655 128.9 125.484 128.534 125.175C128.176 124.864 127.917 124.485 127.758 124.038C127.594 123.578 127.558 123.119 127.651 122.663C127.749 122.197 127.96 121.782 128.286 121.418C128.611 121.055 129.015 120.787 129.497 120.615C130.177 120.373 130.848 120.429 131.51 120.785L131.249 120.051L132.206 119.71L133.073 122.144ZM131.021 124.792C131.34 124.679 131.601 124.502 131.803 124.262C132.005 124.022 132.131 123.75 132.182 123.444C132.24 123.136 132.212 122.822 132.099 122.504C131.988 122.192 131.813 121.938 131.576 121.743C131.346 121.546 131.078 121.422 130.773 121.371C130.467 121.32 130.155 121.351 129.836 121.465C129.361 121.634 129.023 121.93 128.823 122.353C128.626 122.766 128.613 123.21 128.782 123.685C128.954 124.167 129.249 124.513 129.667 124.724C130.093 124.931 130.544 124.954 131.021 124.792ZM132.429 126.758C132.655 126.678 132.822 126.551 132.928 126.377C133.041 126.201 133.066 126.024 133.002 125.847C132.934 125.656 132.803 125.523 132.609 125.448C132.415 125.374 132.2 125.378 131.967 125.462L130.712 125.909C130.478 125.992 130.31 126.124 130.206 126.304C130.103 126.485 130.085 126.671 130.154 126.862C130.217 127.039 130.344 127.162 130.536 127.229C130.735 127.294 130.948 127.286 131.174 127.205L132.429 126.758Z" fill="black"/>
<path fill-rule="evenodd" clip-rule="evenodd" d="M302.618 192.691C338.8 193.084 368.215 185.688 368.318 176.171C368.422 166.654 339.174 158.62 302.992 158.228C295.414 158.145 288.132 158.405 281.355 158.954L237.312 175.238C238.197 184.539 267.058 192.305 302.618 192.691Z" fill="black"/>
<path d="M237.312 175.238C238.197 184.539 267.058 192.305 302.618 192.691C338.8 193.084 368.215 185.688 368.318 176.171C368.422 166.654 339.174 158.62 302.992 158.228C295.414 158.145 288.132 158.405 281.355 158.954M237.312 175.238C237.297 175.075 237.29 174.912 237.291 174.748C237.373 167.224 255.774 161.026 281.355 158.954M237.312 175.238L281.355 158.954" stroke="black" stroke-width="1.25385"/>
<ellipse cx="304.934" cy="163.008" rx="65.5174" ry="22.6375" transform="rotate(11.0447 304.934 163.008)" fill="#F1EFED" stroke="black" stroke-width="1.25385" stroke-linejoin="round"/>
<path d="M258.118 156.137C258.636 156.239 259.081 156.466 259.452 156.816C259.824 157.159 260.086 157.586 260.238 158.097C260.39 158.609 260.407 159.158 260.291 159.747C260.174 160.336 259.948 160.837 259.613 161.252C259.279 161.667 258.873 161.966 258.396 162.149C257.921 162.324 257.425 162.36 256.907 162.258C256.514 162.18 256.163 162.021 255.851 161.78C255.542 161.531 255.296 161.226 255.115 160.864L254.941 161.746L253.822 161.525L255.465 153.226L256.524 153.436L255.858 156.802C256.176 156.515 256.53 156.312 256.92 156.193C257.311 156.075 257.71 156.056 258.118 156.137ZM256.923 161.185C257.269 161.253 257.596 161.228 257.905 161.11C258.213 160.991 258.477 160.795 258.694 160.52C258.913 160.237 259.061 159.903 259.137 159.519C259.213 159.134 259.203 158.773 259.107 158.436C259.012 158.091 258.844 157.805 258.604 157.578C258.363 157.351 258.07 157.204 257.725 157.135C257.38 157.067 257.049 157.091 256.732 157.208C256.415 157.325 256.147 157.524 255.928 157.807C255.711 158.082 255.564 158.412 255.488 158.796C255.412 159.181 255.421 159.546 255.516 159.891C255.612 160.228 255.785 160.511 256.033 160.739C256.281 160.968 256.578 161.116 256.923 161.185ZM265.383 157.574C265.987 157.694 266.487 157.928 266.883 158.275C267.287 158.624 267.563 159.062 267.712 159.589C267.862 160.108 267.874 160.685 267.748 161.321C267.716 161.486 267.688 161.607 267.664 161.684L262.838 160.728C262.826 161.199 262.964 161.618 263.25 161.984C263.546 162.344 263.925 162.57 264.388 162.662C265.149 162.813 265.746 162.641 266.178 162.148L267.332 162.376C267.034 162.888 266.596 163.27 266.016 163.523C265.437 163.767 264.826 163.825 264.183 163.698C263.61 163.585 263.118 163.353 262.706 163.002C262.296 162.644 262.007 162.207 261.84 161.693C261.674 161.171 261.648 160.619 261.763 160.039C261.878 159.458 262.111 158.962 262.462 158.55C262.814 158.13 263.243 157.836 263.75 157.667C264.265 157.492 264.81 157.461 265.383 157.574ZM265.163 158.559C264.7 158.467 264.271 158.533 263.877 158.756C263.489 158.982 263.212 159.314 263.043 159.754L266.657 160.469C266.703 159.989 266.585 159.574 266.304 159.225C266.03 158.877 265.65 158.655 265.163 158.559ZM271.497 160.008L270.882 163.116C270.832 163.367 270.857 163.571 270.956 163.73C271.063 163.889 271.277 164.001 271.599 164.065C271.897 164.124 272.161 164.152 272.39 164.148L272.187 165.172C271.946 165.198 271.668 165.179 271.354 165.117C270.711 164.99 270.254 164.741 269.985 164.369C269.718 163.99 269.644 163.498 269.764 162.894L270.379 159.786L269.201 159.553L269.411 158.494L270.588 158.727L270.891 157.197L272.01 157.418L271.707 158.948L274.65 159.531L274.44 160.59L271.497 160.008ZM276.35 160.968L275.735 164.076C275.686 164.327 275.706 164.531 275.798 164.688C275.897 164.846 276.096 164.955 276.394 165.014C276.676 165.07 276.92 165.094 277.126 165.085L276.923 166.109C276.697 166.138 276.431 166.122 276.125 166.062C274.878 165.815 274.375 165.079 274.617 163.855L275.232 160.747L274.055 160.514L274.265 159.455L275.442 159.688L275.745 158.157L276.863 158.379L276.56 159.909L278.208 160.235L277.998 161.295L276.35 160.968ZM282.484 160.959C283.088 161.079 283.588 161.312 283.984 161.66C284.388 162.009 284.664 162.447 284.813 162.974C284.963 163.493 284.975 164.07 284.849 164.706C284.817 164.87 284.789 164.991 284.765 165.068L279.939 164.113C279.927 164.584 280.065 165.002 280.351 165.369C280.647 165.729 281.026 165.955 281.489 166.047C282.25 166.197 282.847 166.026 283.279 165.532L284.433 165.761C284.136 166.273 283.697 166.655 283.117 166.907C282.539 167.152 281.928 167.21 281.284 167.083C280.711 166.969 280.219 166.737 279.807 166.387C279.397 166.028 279.108 165.592 278.941 165.078C278.775 164.555 278.75 164.004 278.864 163.423C278.979 162.843 279.212 162.346 279.563 161.935C279.915 161.515 280.344 161.221 280.851 161.052C281.367 160.877 281.911 160.846 282.484 160.959ZM282.265 161.943C281.802 161.852 281.373 161.918 280.978 162.141C280.591 162.366 280.313 162.699 280.144 163.138L283.758 163.854C283.804 163.373 283.686 162.959 283.405 162.609C283.131 162.262 282.751 162.04 282.265 161.943ZM290.419 162.53C290.607 162.567 290.781 162.614 290.942 162.67L290.725 163.765C290.59 163.705 290.369 163.645 290.063 163.585C289.718 163.516 289.396 163.534 289.098 163.638C288.808 163.744 288.562 163.916 288.36 164.153C288.168 164.384 288.041 164.656 287.979 164.97L287.347 168.16L286.229 167.939L287.394 162.053L288.453 162.263L288.274 163.169C288.556 162.899 288.883 162.707 289.256 162.593C289.639 162.473 290.026 162.452 290.419 162.53ZM299.091 164.246C299.695 164.366 300.195 164.599 300.591 164.947C300.995 165.296 301.271 165.734 301.42 166.26C301.57 166.779 301.582 167.357 301.456 167.993C301.424 168.157 301.396 168.278 301.372 168.355L296.546 167.4C296.534 167.871 296.672 168.289 296.958 168.656C297.253 169.016 297.633 169.242 298.096 169.334C298.857 169.484 299.454 169.313 299.886 168.819L301.039 169.048C300.742 169.56 300.304 169.942 299.724 170.194C299.145 170.438 298.534 170.497 297.891 170.37C297.318 170.256 296.826 170.024 296.414 169.673C296.004 169.315 295.715 168.879 295.548 168.364C295.382 167.842 295.356 167.291 295.471 166.71C295.586 166.129 295.819 165.633 296.17 165.221C296.522 164.802 296.951 164.507 297.457 164.339C297.973 164.163 298.518 164.133 299.091 164.246ZM298.871 165.23C298.408 165.138 297.979 165.204 297.584 165.428C297.197 165.653 296.92 165.985 296.751 166.425L300.365 167.14C300.411 166.66 300.293 166.245 300.012 165.896C299.738 165.548 299.358 165.326 298.871 165.23ZM307.313 167.097L305.265 166.691L304.31 171.518L303.191 171.296L304.147 166.47L302.97 166.237L303.179 165.177L304.356 165.41L304.482 164.775C304.602 164.171 304.865 163.75 305.27 163.512C305.686 163.268 306.235 163.213 306.917 163.348C307.122 163.389 307.323 163.441 307.523 163.505C307.722 163.569 307.863 163.621 307.944 163.662L307.742 164.686C307.531 164.595 307.198 164.505 306.743 164.415C306.374 164.342 306.102 164.357 305.927 164.461C305.759 164.567 305.65 164.745 305.601 164.996L305.475 165.632L307.523 166.037L307.313 167.097ZM313.914 168.403L309.912 167.611L308.956 172.437L307.838 172.216L308.793 167.39L307.616 167.157L307.826 166.097L309.003 166.33L309.129 165.694C309.248 165.09 309.511 164.669 309.917 164.431C310.332 164.187 310.881 164.133 311.564 164.268C311.768 164.309 311.97 164.361 312.169 164.425C312.369 164.489 312.509 164.541 312.591 164.581L312.388 165.606C312.178 165.515 311.845 165.425 311.39 165.335C311.021 165.262 310.749 165.277 310.573 165.381C310.406 165.486 310.297 165.665 310.247 165.916L310.121 166.551L314.124 167.344L313.914 168.403ZM314.768 167.471L313.603 173.357L312.485 173.136L313.65 167.25L314.768 167.471ZM315.305 165.131L315.049 166.426L313.801 166.179L314.057 164.884L315.305 165.131ZM316.127 170.798C316.239 170.233 316.478 169.746 316.844 169.338C317.212 168.921 317.662 168.627 318.193 168.455C318.726 168.275 319.283 168.242 319.864 168.357C320.515 168.486 321.062 168.794 321.504 169.281C321.955 169.762 322.202 170.325 322.246 170.97L321.022 170.727C320.95 170.387 320.784 170.097 320.521 169.858C320.268 169.612 319.961 169.453 319.6 169.382C319.231 169.309 318.884 169.334 318.558 169.457C318.233 169.572 317.957 169.77 317.73 170.051C317.505 170.325 317.355 170.65 317.28 171.027C317.206 171.403 317.22 171.765 317.323 172.111C317.427 172.45 317.606 172.738 317.861 172.976C318.117 173.207 318.43 173.358 318.798 173.431C319.159 173.503 319.503 173.477 319.829 173.354C320.165 173.224 320.43 173.016 320.626 172.728L321.85 172.971C321.564 173.55 321.12 173.98 320.518 174.261C319.926 174.535 319.304 174.608 318.652 174.479C318.072 174.364 317.568 174.125 317.142 173.764C316.718 173.394 316.414 172.951 316.231 172.434C316.05 171.908 316.015 171.363 316.127 170.798ZM325.579 169.611L324.414 175.497L323.296 175.275L324.461 169.39L325.579 169.611ZM326.116 167.271L325.859 168.565L324.611 168.318L324.868 167.024L326.116 167.271ZM330.557 170.474C331.161 170.593 331.661 170.827 332.057 171.174C332.461 171.523 332.737 171.961 332.886 172.488C333.036 173.007 333.048 173.585 332.922 174.22C332.89 174.385 332.862 174.506 332.838 174.583L328.012 173.628C328 174.098 328.138 174.517 328.424 174.884C328.72 175.244 329.099 175.47 329.562 175.561C330.323 175.712 330.92 175.541 331.352 175.047L332.506 175.276C332.208 175.788 331.77 176.17 331.19 176.422C330.611 176.666 330 176.725 329.357 176.597C328.784 176.484 328.292 176.252 327.88 175.901C327.47 175.543 327.181 175.107 327.014 174.592C326.848 174.07 326.822 173.519 326.937 172.938C327.052 172.357 327.285 171.861 327.636 171.449C327.988 171.03 328.417 170.735 328.924 170.566C329.439 170.391 329.984 170.36 330.557 170.474ZM330.337 171.458C329.874 171.366 329.445 171.432 329.051 171.656C328.663 171.881 328.386 172.213 328.217 172.653L331.831 173.368C331.877 172.888 331.759 172.473 331.478 172.124C331.204 171.776 330.824 171.554 330.337 171.458ZM338.492 172.044C338.97 172.139 339.378 172.326 339.714 172.604C340.058 172.884 340.299 173.254 340.437 173.714C340.583 174.167 340.598 174.692 340.48 175.288L339.834 178.549L338.716 178.327L339.357 175.09C339.459 174.572 339.388 174.13 339.142 173.763C338.897 173.397 338.543 173.168 338.08 173.076C337.742 173.009 337.428 173.032 337.136 173.146C336.854 173.253 336.615 173.43 336.419 173.677C336.232 173.925 336.106 174.21 336.042 174.532L335.42 177.675L334.302 177.454L335.467 171.568L336.526 171.778L336.34 172.719C336.623 172.441 336.952 172.241 337.327 172.12C337.711 171.992 338.099 171.967 338.492 172.044ZM342.243 175.967C342.355 175.402 342.594 174.915 342.96 174.507C343.328 174.09 343.778 173.796 344.309 173.624C344.842 173.444 345.399 173.411 345.98 173.526C346.631 173.655 347.178 173.963 347.62 174.45C348.071 174.931 348.318 175.494 348.362 176.139L347.138 175.896C347.067 175.556 346.9 175.266 346.637 175.027C346.384 174.781 346.077 174.622 345.716 174.551C345.347 174.478 345 174.503 344.674 174.626C344.349 174.741 344.073 174.939 343.846 175.22C343.621 175.494 343.471 175.819 343.396 176.196C343.322 176.572 343.336 176.934 343.439 177.28C343.543 177.619 343.722 177.907 343.977 178.145C344.233 178.375 344.546 178.527 344.915 178.6C345.276 178.671 345.619 178.646 345.945 178.523C346.281 178.393 346.546 178.185 346.742 177.897L347.966 178.14C347.68 178.719 347.236 179.149 346.634 179.43C346.042 179.704 345.42 179.777 344.768 179.648C344.188 179.533 343.684 179.294 343.258 178.933C342.834 178.563 342.53 178.12 342.347 177.603C342.166 177.077 342.131 176.532 342.243 175.967ZM356.127 175.657L351.117 182.861L349.904 182.621L351.251 180.698L349.523 174.35L350.853 174.613L352.075 179.626L354.891 175.412L356.127 175.657Z" fill="black"/>
<path d="M378.503 238.767L371.501 239.036C371.449 239.03 371.4 239.006 371.364 238.967C371.328 238.928 371.307 238.878 371.305 238.825C371.304 238.772 371.321 238.72 371.354 238.679C371.387 238.638 371.434 238.61 371.486 238.601V238.601L378.482 238.35C378.509 238.349 378.536 238.354 378.561 238.363C378.586 238.373 378.609 238.387 378.629 238.406C378.648 238.424 378.664 238.447 378.674 238.471C378.685 238.496 378.691 238.523 378.691 238.55C378.693 238.577 378.689 238.603 378.68 238.629C378.671 238.654 378.657 238.677 378.639 238.697C378.621 238.717 378.599 238.733 378.574 238.743C378.549 238.754 378.523 238.76 378.496 238.76L378.503 238.767Z" fill="black"/>
<path d="M364.513 239.464L357.486 239.966C357.423 239.969 357.362 239.948 357.315 239.906C357.268 239.864 357.24 239.805 357.236 239.743C357.233 239.712 357.237 239.681 357.247 239.651C357.257 239.622 357.272 239.595 357.293 239.571C357.313 239.548 357.338 239.529 357.366 239.515C357.393 239.501 357.424 239.493 357.455 239.491L364.445 239.026C364.505 239.024 364.564 239.045 364.61 239.085C364.655 239.125 364.683 239.182 364.687 239.242C364.687 239.293 364.67 239.343 364.638 239.383C364.607 239.424 364.563 239.452 364.513 239.464V239.464Z" fill="black"/>
<path d="M350.518 240.313L343.531 240.898C343.464 240.903 343.397 240.882 343.346 240.838C343.295 240.794 343.263 240.731 343.258 240.664C343.253 240.597 343.274 240.53 343.318 240.479C343.362 240.428 343.424 240.396 343.492 240.39V240.39L350.496 239.811C350.527 239.808 350.559 239.812 350.59 239.821C350.62 239.831 350.648 239.847 350.673 239.867C350.697 239.888 350.717 239.913 350.731 239.942C350.745 239.971 350.754 240.002 350.756 240.033C350.761 240.097 350.74 240.161 350.698 240.209C350.657 240.258 350.598 240.288 350.534 240.294L350.518 240.313Z" fill="black"/>
<path d="M336.572 241.637L329.622 242.521C329.588 242.525 329.553 242.522 329.52 242.513C329.486 242.504 329.455 242.489 329.428 242.467C329.401 242.446 329.378 242.42 329.361 242.39C329.344 242.36 329.333 242.327 329.329 242.292C329.322 242.224 329.341 242.154 329.384 242.1C329.426 242.045 329.488 242.009 329.557 242V242L336.517 241.129C336.584 241.121 336.652 241.14 336.705 241.181C336.758 241.222 336.793 241.283 336.802 241.35C336.807 241.383 336.805 241.417 336.796 241.449C336.788 241.482 336.773 241.512 336.752 241.539C336.732 241.565 336.706 241.588 336.677 241.604C336.648 241.621 336.615 241.631 336.582 241.635L336.572 241.637Z" fill="black"/>
<path d="M322.686 243.497L315.758 244.547C315.698 244.542 315.64 244.517 315.595 244.475C315.55 244.434 315.52 244.38 315.509 244.32C315.499 244.259 315.508 244.198 315.537 244.144C315.565 244.09 315.61 244.046 315.665 244.021V244.021L322.601 242.989C322.665 242.989 322.727 243.012 322.775 243.053C322.824 243.095 322.855 243.152 322.865 243.215C322.875 243.278 322.861 243.343 322.828 243.397C322.794 243.451 322.742 243.491 322.681 243.51L322.686 243.497Z" fill="black"/>
<path d="M308.829 245.632L301.896 246.729C301.856 246.741 301.814 246.743 301.774 246.738C301.733 246.732 301.694 246.717 301.659 246.695C301.625 246.673 301.595 246.644 301.573 246.609C301.55 246.575 301.535 246.536 301.529 246.495C301.523 246.454 301.525 246.413 301.536 246.373C301.547 246.333 301.566 246.297 301.593 246.265C301.619 246.233 301.652 246.208 301.689 246.19C301.726 246.172 301.766 246.162 301.807 246.161L308.736 245.092C308.81 245.08 308.886 245.099 308.946 245.143C309.007 245.187 309.047 245.253 309.058 245.327C309.07 245.401 309.052 245.477 309.007 245.537C308.963 245.598 308.897 245.638 308.823 245.65L308.829 245.632Z" fill="black"/>
<path d="M294.972 247.752L288.031 248.753C287.952 248.764 287.871 248.743 287.807 248.694C287.743 248.645 287.701 248.573 287.69 248.494C287.679 248.415 287.699 248.336 287.747 248.272C287.794 248.209 287.865 248.167 287.943 248.155V248.155L294.882 247.174C294.921 247.168 294.96 247.17 294.997 247.18C295.035 247.189 295.07 247.206 295.101 247.23C295.133 247.253 295.159 247.283 295.178 247.316C295.198 247.35 295.211 247.387 295.216 247.426C295.226 247.501 295.207 247.578 295.161 247.639C295.115 247.701 295.047 247.741 294.972 247.752V247.752Z" fill="black"/>
<path d="M281.074 249.66L274.103 250.448C274.061 250.455 274.017 250.454 273.976 250.444C273.934 250.434 273.895 250.415 273.861 250.39C273.827 250.364 273.798 250.332 273.777 250.295C273.756 250.258 273.742 250.217 273.738 250.174C273.733 250.132 273.737 250.089 273.749 250.048C273.762 250.007 273.782 249.969 273.81 249.936C273.838 249.904 273.872 249.877 273.91 249.858C273.948 249.839 273.99 249.828 274.033 249.826L280.995 249.05C281.037 249.042 281.08 249.042 281.122 249.051C281.164 249.061 281.203 249.078 281.237 249.104C281.272 249.129 281.301 249.161 281.322 249.198C281.344 249.235 281.357 249.276 281.362 249.318C281.367 249.361 281.363 249.404 281.35 249.445C281.337 249.485 281.316 249.523 281.288 249.555C281.26 249.588 281.226 249.614 281.187 249.632C281.148 249.65 281.106 249.66 281.064 249.661L281.074 249.66Z" fill="black"/>
<path d="M267.112 251.085L260.107 251.535C260.02 251.541 259.934 251.512 259.868 251.455C259.803 251.397 259.763 251.316 259.757 251.229C259.751 251.141 259.78 251.056 259.838 250.99C259.895 250.924 259.977 250.884 260.064 250.879V250.879L267.052 250.447C267.132 250.451 267.207 250.484 267.264 250.54C267.321 250.596 267.355 250.671 267.359 250.75C267.364 250.83 267.34 250.908 267.29 250.971C267.24 251.033 267.169 251.075 267.091 251.088L267.112 251.085Z" fill="black"/>
<path d="M253.088 251.754L246.063 251.713C245.979 251.703 245.902 251.662 245.847 251.599C245.792 251.536 245.762 251.454 245.763 251.37C245.764 251.286 245.796 251.205 245.853 251.143C245.91 251.081 245.988 251.042 246.071 251.034V251.034L253.067 251.09C253.111 251.09 253.154 251.099 253.194 251.116C253.235 251.132 253.271 251.157 253.302 251.188C253.333 251.219 253.357 251.256 253.373 251.297C253.39 251.337 253.398 251.381 253.398 251.424C253.398 251.509 253.366 251.59 253.309 251.651C253.251 251.712 253.172 251.749 253.088 251.754V251.754Z" fill="black"/>
<path d="M239.049 251.359L232.055 250.657C232.009 250.653 231.965 250.639 231.924 250.617C231.883 250.595 231.847 250.565 231.818 250.529C231.789 250.494 231.767 250.452 231.753 250.408C231.74 250.364 231.735 250.317 231.74 250.271C231.745 250.225 231.758 250.18 231.78 250.139C231.802 250.098 231.832 250.062 231.868 250.033C231.904 250.004 231.945 249.982 231.989 249.968C232.034 249.955 232.08 249.951 232.126 249.955L239.081 250.669C239.126 250.673 239.171 250.687 239.211 250.708C239.251 250.73 239.287 250.759 239.315 250.795C239.344 250.831 239.366 250.871 239.378 250.915C239.391 250.959 239.395 251.005 239.39 251.051C239.382 251.135 239.343 251.214 239.279 251.271C239.216 251.328 239.134 251.36 239.049 251.359V251.359Z" fill="black"/>
<path d="M225.108 249.562L221.666 248.855C220.51 248.591 219.374 248.245 218.266 247.82C218.175 247.789 218.099 247.723 218.057 247.636C218.014 247.549 218.008 247.449 218.039 247.358C218.07 247.266 218.136 247.191 218.223 247.148C218.309 247.105 218.41 247.099 218.501 247.13V247.13C219.575 247.545 220.678 247.882 221.8 248.14L225.221 248.851C225.268 248.86 225.312 248.878 225.351 248.904C225.39 248.93 225.424 248.963 225.45 249.003C225.476 249.042 225.494 249.086 225.503 249.132C225.512 249.178 225.512 249.226 225.502 249.272C225.485 249.362 225.435 249.441 225.362 249.495C225.289 249.549 225.198 249.573 225.108 249.562V249.562Z" fill="black"/>
<path d="M211.905 244.735C209.87 243.556 207.907 242.256 206.027 240.842C205.987 240.812 205.954 240.775 205.929 240.732C205.904 240.69 205.887 240.643 205.88 240.594C205.866 240.495 205.892 240.394 205.952 240.315C206.012 240.235 206.101 240.182 206.199 240.168C206.298 240.154 206.398 240.18 206.478 240.24V240.24C208.333 241.637 210.27 242.923 212.277 244.091C212.362 244.142 212.424 244.223 212.449 244.319C212.475 244.414 212.462 244.516 212.414 244.602C212.364 244.687 212.282 244.749 212.187 244.774C212.091 244.799 211.99 244.785 211.905 244.735V244.735Z" fill="black"/>
<path d="M200.636 236.304C198.927 234.681 197.337 232.936 195.88 231.083C195.844 231.043 195.816 230.996 195.799 230.945C195.782 230.894 195.775 230.839 195.78 230.785C195.785 230.732 195.8 230.679 195.826 230.632C195.852 230.584 195.887 230.543 195.93 230.509C195.972 230.476 196.022 230.452 196.074 230.439C196.126 230.425 196.181 230.423 196.234 230.432C196.287 230.44 196.338 230.46 196.384 230.489C196.429 230.519 196.468 230.557 196.498 230.602C197.928 232.428 199.488 234.148 201.165 235.748C201.202 235.783 201.231 235.826 201.251 235.872C201.272 235.919 201.282 235.969 201.283 236.02C201.284 236.071 201.274 236.121 201.255 236.168C201.236 236.215 201.208 236.258 201.172 236.294C201.138 236.33 201.097 236.359 201.051 236.379C201.005 236.399 200.956 236.41 200.906 236.411C200.856 236.412 200.807 236.403 200.76 236.384C200.714 236.366 200.672 236.339 200.636 236.304Z" fill="black"/>
<path d="M192.08 225.102C191.009 222.97 190.288 220.679 189.944 218.318C189.936 218.266 189.94 218.213 189.953 218.162C189.966 218.111 189.99 218.064 190.022 218.022C190.054 217.981 190.094 217.946 190.14 217.92C190.185 217.894 190.236 217.878 190.288 217.872C190.393 217.86 190.498 217.889 190.581 217.953C190.665 218.017 190.719 218.112 190.734 218.216V218.216C191.064 220.494 191.76 222.702 192.795 224.757C192.817 224.804 192.831 224.854 192.834 224.906C192.838 224.957 192.831 225.009 192.814 225.058C192.798 225.107 192.771 225.152 192.737 225.191C192.703 225.23 192.662 225.262 192.615 225.284C192.568 225.308 192.517 225.322 192.465 225.325C192.412 225.329 192.359 225.322 192.31 225.305C192.26 225.288 192.214 225.262 192.174 225.227C192.135 225.192 192.103 225.149 192.08 225.102Z" fill="black"/>
<path d="M190.567 211.209C190.95 210.072 191.457 208.98 192.078 207.954C192.382 207.442 192.714 206.949 193.075 206.476L194.14 205.055C194.205 204.97 194.3 204.913 194.406 204.898C194.512 204.883 194.62 204.911 194.705 204.976C194.791 205.04 194.847 205.136 194.862 205.242C194.877 205.348 194.849 205.456 194.785 205.541V205.541L194.776 205.568L193.741 206.954C193.385 207.405 193.06 207.878 192.766 208.371C192.176 209.346 191.694 210.383 191.33 211.464C191.313 211.514 191.287 211.56 191.253 211.6C191.218 211.639 191.177 211.672 191.13 211.696C191.083 211.719 191.031 211.733 190.979 211.737C190.926 211.74 190.874 211.733 190.824 211.716C190.774 211.7 190.727 211.674 190.687 211.639C190.647 211.605 190.614 211.563 190.591 211.516C190.567 211.469 190.552 211.417 190.548 211.365C190.544 211.312 190.551 211.259 190.567 211.209Z" fill="black"/>
<path d="M199.163 200.057C200.995 198.563 202.939 197.213 204.979 196.02C205.024 195.989 205.076 195.968 205.13 195.958C205.185 195.948 205.24 195.95 205.294 195.962C205.348 195.974 205.399 195.997 205.443 196.03C205.488 196.062 205.525 196.104 205.554 196.151C205.582 196.199 205.6 196.251 205.607 196.306C205.614 196.361 205.61 196.417 205.595 196.47C205.58 196.523 205.554 196.572 205.519 196.615C205.484 196.658 205.441 196.693 205.392 196.719C203.393 197.901 201.486 199.233 199.688 200.705C199.605 200.772 199.499 200.804 199.393 200.794C199.286 200.784 199.188 200.732 199.12 200.65C199.081 200.609 199.052 200.561 199.033 200.508C199.014 200.455 199.007 200.399 199.011 200.344C199.015 200.288 199.03 200.233 199.057 200.184C199.083 200.135 199.119 200.091 199.163 200.057Z" fill="black"/>
<path d="M211.222 192.771C213.366 191.807 215.55 190.945 217.766 190.163C217.865 190.138 217.97 190.152 218.06 190.201C218.15 190.249 218.219 190.33 218.253 190.427C218.287 190.524 218.283 190.63 218.243 190.724C218.203 190.818 218.129 190.894 218.036 190.937V190.937C215.842 191.711 213.676 192.565 211.56 193.519C211.463 193.554 211.356 193.551 211.261 193.511C211.165 193.47 211.089 193.396 211.046 193.301C211.003 193.207 210.998 193.1 211.03 193.002C211.063 192.904 211.131 192.821 211.222 192.771V192.771Z" fill="black"/>
<path d="M224.475 188.04L231.279 186.292C231.386 186.266 231.499 186.283 231.593 186.339C231.687 186.395 231.756 186.486 231.784 186.592C231.811 186.699 231.795 186.812 231.739 186.907C231.682 187.002 231.591 187.07 231.484 187.097V187.097L224.702 188.824C224.65 188.837 224.595 188.84 224.541 188.832C224.488 188.825 224.436 188.806 224.39 188.779C224.343 188.751 224.303 188.714 224.27 188.671C224.238 188.627 224.215 188.578 224.201 188.525C224.179 188.425 224.195 188.32 224.245 188.23C224.296 188.141 224.378 188.073 224.475 188.04V188.04Z" fill="black"/>
<path d="M238.15 184.825L245.06 183.566C245.165 183.555 245.271 183.585 245.356 183.649C245.44 183.712 245.498 183.806 245.517 183.91C245.536 184.015 245.514 184.123 245.457 184.212C245.4 184.301 245.311 184.366 245.208 184.392V184.392L238.321 185.644C238.212 185.664 238.1 185.639 238.009 185.576C237.918 185.513 237.855 185.417 237.835 185.308C237.816 185.199 237.84 185.086 237.903 184.995C237.966 184.904 238.062 184.842 238.171 184.822L238.15 184.825Z" fill="black"/>
<path d="M251.983 182.453L258.923 181.408C258.978 181.4 259.034 181.402 259.088 181.416C259.141 181.429 259.192 181.453 259.236 181.485C259.281 181.518 259.319 181.559 259.347 181.607C259.376 181.654 259.395 181.707 259.403 181.762C259.411 181.816 259.409 181.872 259.395 181.926C259.382 181.98 259.358 182.03 259.326 182.075C259.293 182.119 259.252 182.157 259.204 182.186C259.157 182.214 259.104 182.233 259.05 182.241L252.114 183.288C252.003 183.305 251.891 183.277 251.801 183.211C251.711 183.145 251.651 183.045 251.634 182.935C251.617 182.824 251.645 182.712 251.711 182.622C251.778 182.532 251.877 182.472 251.987 182.455L251.983 182.453Z" fill="black"/>
</svg>
