<svg width="429" height="253" viewBox="0 0 429 253" fill="none" xmlns="http://www.w3.org/2000/svg">
<path d="M43.3157 27.1457L34.4275 30.2078L43.3157 27.1457Z" fill="black"/>
<path d="M9.71005 43.4314C8.54593 44.4793 7.45286 45.6037 6.43811 46.797C5.92969 47.3899 5.44111 48.007 4.98464 48.6417C4.52818 49.2763 4.12914 49.9336 3.69826 50.5797C3.69378 50.5853 3.68817 50.5898 3.68181 50.593C3.67545 50.5962 3.6685 50.598 3.66139 50.5983C3.65428 50.5986 3.64718 50.5974 3.64058 50.5947C3.63397 50.5921 3.62802 50.588 3.62309 50.5829C3.61738 50.5779 3.61273 50.5717 3.60945 50.5649C3.60617 50.558 3.60431 50.5505 3.60399 50.5429C3.60366 50.5353 3.60489 50.5277 3.60758 50.5205C3.61028 50.5134 3.61439 50.5069 3.61967 50.5014V50.5014C4.05055 49.8553 4.46889 49.2097 4.9123 48.5631C5.35572 47.9164 5.86363 47.311 6.37831 46.7179C7.39043 45.528 8.48164 44.4079 9.64451 43.3651C9.64842 43.3608 9.65316 43.3573 9.65844 43.3548C9.66372 43.3523 9.66944 43.3509 9.67527 43.3506C9.6811 43.3504 9.68694 43.3513 9.69241 43.3533C9.69788 43.3554 9.7029 43.3585 9.70715 43.3625C9.71636 43.3714 9.72179 43.3835 9.72233 43.3964C9.72287 43.4092 9.71847 43.4217 9.71005 43.4314V43.4314Z" fill="black"/>
<path d="M1.42449 59.4985C1.58171 60.2591 1.91939 60.9707 2.40905 61.5733C2.91865 62.1593 3.55098 62.6258 4.26111 62.9396C4.97466 63.2483 5.72646 63.4595 6.49627 63.5676C7.26677 63.6858 8.05289 63.7281 8.82834 63.8147C8.83885 63.815 8.84919 63.8175 8.85869 63.822C8.86818 63.8266 8.87662 63.833 8.88346 63.841C8.8903 63.849 8.89539 63.8584 8.8984 63.8685C8.90141 63.8785 8.90228 63.8891 8.90094 63.8996C8.89987 63.9104 8.89664 63.9209 8.89146 63.9305C8.88627 63.94 8.87923 63.9484 8.87074 63.9552C8.86226 63.962 8.85252 63.9671 8.84207 63.97C8.83161 63.973 8.82067 63.9738 8.80989 63.9725V63.9725C8.02818 63.8861 7.24805 63.8373 6.46502 63.7196C5.68338 63.609 4.92054 63.3918 4.19775 63.0741C3.46691 62.7573 2.81795 62.2778 2.30026 61.6721C1.79766 61.0508 1.45062 60.3183 1.288 59.5357C1.28583 59.527 1.28552 59.518 1.28709 59.5093C1.28866 59.5005 1.29207 59.4922 1.29711 59.4849C1.30214 59.4775 1.30867 59.4713 1.31628 59.4667C1.32388 59.4621 1.33238 59.4591 1.34121 59.4581C1.35763 59.4533 1.37525 59.4548 1.39064 59.4622C1.40603 59.4697 1.41809 59.4826 1.42449 59.4985V59.4985Z" fill="black"/>
<path d="M18.2173 63.8651L27.5968 63.0872C27.6101 63.0848 27.6237 63.0854 27.6368 63.0887C27.6498 63.0921 27.662 63.0982 27.6725 63.1067C27.6829 63.1152 27.6915 63.1258 27.6975 63.1379C27.7035 63.15 27.7068 63.1632 27.7073 63.1767C27.7084 63.2038 27.6992 63.2305 27.6814 63.251C27.6636 63.2716 27.6386 63.2846 27.6115 63.2874L18.2312 64.0465C18.2192 64.0478 18.2071 64.0467 18.1955 64.0432C18.184 64.0396 18.1733 64.0337 18.1642 64.0259C18.155 64.018 18.1475 64.0084 18.1423 63.9975C18.137 63.9866 18.1341 63.9748 18.1336 63.9627C18.1325 63.9389 18.1406 63.9155 18.1561 63.8973C18.1717 63.8792 18.1936 63.8677 18.2173 63.8651V63.8651Z" fill="black"/>
<path d="M36.9259 61.9843L39.2614 61.7165C40.0414 61.6146 40.8233 61.5566 41.6058 61.5111L46.3046 61.1876C46.3378 61.1862 46.3702 61.1981 46.3947 61.2206C46.4192 61.2431 46.4337 61.2744 46.4351 61.3076C46.4366 61.3237 46.4349 61.34 46.4299 61.3554C46.4249 61.3708 46.4169 61.385 46.4063 61.3972C46.3956 61.4094 46.3826 61.4193 46.368 61.4263C46.3534 61.4333 46.3375 61.4373 46.3214 61.4379V61.4379L41.6409 61.748C40.8579 61.781 40.0765 61.8516 39.3027 61.9532L36.9667 62.2085C36.9519 62.2108 36.9368 62.2103 36.9223 62.2068C36.9078 62.2033 36.8941 62.1969 36.8821 62.1881C36.87 62.1792 36.8599 62.1681 36.8521 62.1553C36.8444 62.1425 36.8393 62.1283 36.8372 62.1135C36.8338 62.0849 36.8409 62.056 36.8573 62.0323C36.8736 62.0085 36.8979 61.9915 36.9259 61.9843V61.9843Z" fill="black"/>
<path d="M55.7133 61.2457L65.1063 61.6846C65.1261 61.6854 65.1456 61.69 65.1636 61.6983C65.1816 61.7066 65.1979 61.7184 65.2113 61.733C65.2247 61.7476 65.2352 61.7647 65.242 61.7834C65.2488 61.802 65.2518 61.8218 65.2509 61.8417C65.2478 61.8806 65.2297 61.9169 65.2003 61.9427C65.171 61.9686 65.1327 61.982 65.0936 61.9801L55.7061 61.5221C55.6688 61.5205 55.6337 61.5045 55.608 61.4775C55.5823 61.4505 55.568 61.4146 55.5682 61.3774C55.569 61.3592 55.5734 61.3413 55.5812 61.3248C55.5889 61.3083 55.5998 61.2936 55.6133 61.2813C55.6268 61.2691 55.6426 61.2597 55.6597 61.2535C55.6769 61.2474 55.6951 61.2448 55.7133 61.2457V61.2457Z" fill="black"/>
<path d="M74.4991 61.9804C77.6356 62.0058 80.7714 61.8737 83.8947 61.5846C83.9401 61.581 83.9852 61.5951 84.0203 61.6241C84.0555 61.653 84.078 61.6946 84.0832 61.7398C84.0868 61.7852 84.0727 61.8303 84.0437 61.8655C84.0147 61.9007 83.9733 61.9232 83.928 61.9283V61.9283C80.8027 62.2169 77.6693 62.3112 74.5308 62.2866C74.4886 62.2851 74.4486 62.2673 74.4192 62.237C74.3898 62.2066 74.3734 62.166 74.3734 62.1238C74.3746 62.089 74.3877 62.0558 74.4106 62.0296C74.4336 62.0035 74.4648 61.9861 74.4991 61.9804V61.9804Z" fill="black"/>
<path d="M78.7634 60.2642L88.0097 58.556C88.0575 58.552 88.1052 58.5658 88.1434 58.5949C88.1817 58.6239 88.2078 58.6661 88.2168 58.7133C88.2258 58.7605 88.217 58.8094 88.1922 58.8505C88.1673 58.8916 88.1281 58.9221 88.0821 58.936V58.936L78.8225 60.6259C78.7748 60.6334 78.726 60.6222 78.6863 60.5947C78.6466 60.5671 78.619 60.5253 78.6092 60.4779C78.6047 60.4542 78.605 60.4298 78.61 60.4061C78.615 60.3824 78.6247 60.36 78.6384 60.3401C78.6522 60.3203 78.6698 60.3033 78.6902 60.2903C78.7105 60.2774 78.7333 60.2686 78.7571 60.2645L78.7634 60.2642Z" fill="black"/>
<path d="M111.654 56.7892L120.939 55.2677C120.967 55.2621 120.996 55.2623 121.024 55.2684C121.052 55.2745 121.078 55.2862 121.101 55.3029C121.124 55.3197 121.144 55.341 121.158 55.3655C121.172 55.3901 121.182 55.4174 121.185 55.4457C121.195 55.5027 121.181 55.5612 121.148 55.6084C121.115 55.6557 121.064 55.6879 121.008 55.6981V55.6981L111.734 57.194C111.707 57.1995 111.679 57.1996 111.653 57.1942C111.626 57.1888 111.601 57.178 111.578 57.1625C111.556 57.147 111.537 57.1271 111.523 57.104C111.508 57.0809 111.499 57.0551 111.494 57.0282C111.486 56.9757 111.498 56.922 111.528 56.8778C111.557 56.8336 111.602 56.802 111.654 56.7892V56.7892Z" fill="black"/>
<path d="M130.303 54.2704C131.875 54.2042 133.433 54.1009 135.007 54.0722L139.711 53.8741C139.774 53.8714 139.835 53.8939 139.882 53.9367C139.928 53.9794 139.956 54.0389 139.959 54.1021C139.96 54.1658 139.936 54.2275 139.892 54.2739C139.848 54.3203 139.788 54.3477 139.724 54.3504L135.025 54.517C133.459 54.5829 131.896 54.6488 130.334 54.7146C130.273 54.7189 130.214 54.6994 130.168 54.6603C130.121 54.6212 130.092 54.5656 130.087 54.5054C130.087 54.4464 130.11 54.3898 130.149 54.3464C130.189 54.303 130.244 54.2759 130.303 54.2704V54.2704Z" fill="black"/>
<path d="M149.115 53.6472L158.525 53.6022C158.56 53.6023 158.594 53.6093 158.626 53.6227C158.658 53.6361 158.687 53.6557 158.711 53.6803C158.736 53.7049 158.755 53.7341 158.768 53.7662C158.781 53.7983 158.788 53.8326 158.787 53.8672C158.788 53.9015 158.782 53.9356 158.769 53.9675C158.756 53.9994 158.737 54.0283 158.713 54.0528C158.689 54.0772 158.66 54.0965 158.629 54.1096C158.597 54.1227 158.563 54.1294 158.528 54.1291L149.117 54.1491C149.084 54.1489 149.052 54.1422 149.021 54.1293C148.991 54.1165 148.963 54.0978 148.94 54.0743C148.917 54.0507 148.899 54.0229 148.886 53.9923C148.874 53.9617 148.868 53.929 148.868 53.896C148.867 53.8634 148.873 53.8309 148.886 53.8006C148.898 53.7703 148.916 53.7427 148.939 53.7195C148.962 53.6963 148.989 53.678 149.02 53.6656C149.05 53.6531 149.082 53.6469 149.115 53.6472Z" fill="black"/>
<path d="M167.938 53.7908L177.339 54.2551C177.414 54.2614 177.484 54.2963 177.534 54.3526C177.584 54.4089 177.611 54.4823 177.609 54.5577C177.607 54.5955 177.598 54.6326 177.582 54.6669C177.566 54.7011 177.543 54.7317 177.515 54.7569C177.486 54.7821 177.453 54.8014 177.418 54.8136C177.382 54.8258 177.344 54.8307 177.306 54.8279V54.8279L167.917 54.338C167.845 54.3331 167.777 54.2999 167.729 54.2455C167.681 54.1911 167.656 54.1199 167.66 54.0474C167.664 53.9767 167.695 53.9102 167.747 53.8622C167.799 53.8142 167.867 53.7885 167.938 53.7908V53.7908Z" fill="black"/>
<path d="M186.716 55.0711L196.06 56.2725C196.101 56.2778 196.141 56.2912 196.177 56.3119C196.214 56.3326 196.245 56.3603 196.271 56.3933C196.297 56.4264 196.315 56.4641 196.326 56.5044C196.337 56.5448 196.34 56.5868 196.335 56.6283C196.33 56.6697 196.316 56.7098 196.296 56.746C196.275 56.7823 196.247 56.8142 196.214 56.8398C196.181 56.8654 196.144 56.8842 196.103 56.8952C196.063 56.9062 196.021 56.9091 195.98 56.9039L186.653 55.664C186.582 55.6463 186.519 55.6028 186.477 55.542C186.436 55.4811 186.418 55.407 186.427 55.3337C186.436 55.2605 186.472 55.1932 186.528 55.1447C186.584 55.0962 186.655 55.0698 186.729 55.0706L186.716 55.0711Z" fill="black"/>
<path d="M205.345 57.7808L207.664 58.1666L210 58.489L214.657 59.128C214.699 59.1337 214.74 59.1478 214.776 59.1694C214.813 59.1909 214.845 59.2195 214.87 59.2535C214.895 59.2875 214.914 59.3262 214.924 59.3674C214.934 59.4085 214.936 59.4513 214.93 59.4933C214.925 59.5358 214.911 59.577 214.89 59.6142C214.869 59.6515 214.841 59.6841 214.807 59.7101C214.773 59.7361 214.734 59.7551 214.692 59.7658C214.651 59.7765 214.607 59.7787 214.565 59.7724L209.901 59.1274L207.565 58.7988L205.246 58.4129C205.164 58.3983 205.09 58.3518 205.041 58.2833C204.993 58.2149 204.973 58.13 204.986 58.0471C204.992 58.0059 205.006 57.9662 205.027 57.9304C205.048 57.8947 205.077 57.8635 205.11 57.8387C205.143 57.8139 205.181 57.796 205.222 57.7861C205.262 57.7761 205.304 57.7743 205.345 57.7808V57.7808Z" fill="black"/>
<path d="M223.885 61.1283C225.403 61.6135 226.867 62.257 228.251 63.048C229.672 63.8342 230.898 64.9309 231.837 66.2566C231.887 66.3312 231.905 66.4223 231.887 66.5101C231.87 66.5979 231.818 66.6753 231.744 66.7252C231.707 66.7505 231.666 66.7683 231.622 66.7773C231.579 66.7864 231.534 66.7865 231.49 66.7778C231.446 66.7691 231.405 66.7517 231.368 66.7266C231.331 66.7016 231.3 66.6693 231.276 66.6319V66.6319C230.395 65.3914 229.245 64.3664 227.912 63.6338C226.57 62.8648 225.151 62.2384 223.679 61.7649C223.595 61.7376 223.525 61.678 223.484 61.599C223.444 61.52 223.437 61.4282 223.464 61.3438C223.491 61.2594 223.551 61.1893 223.63 61.1488C223.708 61.1084 223.8 61.101 223.885 61.1283V61.1283Z" fill="black"/>
<path d="M233.006 75.6808C232.573 77.2425 231.822 78.6979 230.801 79.9559C229.782 81.1947 228.597 82.2864 227.28 83.2002C227.203 83.2529 227.11 83.2735 227.018 83.2573C226.927 83.2412 226.846 83.1896 226.793 83.1139C226.766 83.0765 226.747 83.034 226.736 82.9891C226.726 82.9441 226.725 82.8975 226.733 82.8521C226.741 82.8067 226.758 82.7633 226.783 82.7246C226.808 82.6859 226.841 82.6526 226.879 82.6267V82.6267C228.147 81.755 229.285 80.7093 230.262 79.5202C231.23 78.3389 231.943 76.9706 232.358 75.5009C232.37 75.4571 232.39 75.4162 232.418 75.3805C232.446 75.3447 232.48 75.3149 232.52 75.2928C232.559 75.2706 232.603 75.2566 232.648 75.2515C232.692 75.2465 232.738 75.2504 232.781 75.2633C232.865 75.2909 232.935 75.3496 232.977 75.4273C233.018 75.505 233.029 75.5957 233.006 75.6808V75.6808Z" fill="black"/>
<path d="M218.933 87.6644L210.458 91.7453C210.37 91.7873 210.27 91.7928 210.179 91.7608C210.087 91.7287 210.012 91.6616 209.971 91.5743C209.929 91.4869 209.923 91.3865 209.955 91.2951C209.987 91.2036 210.054 91.1287 210.141 91.0867V91.0867L218.617 87.0246C218.659 87.0043 218.705 86.9926 218.751 86.9901C218.798 86.9876 218.844 86.9944 218.888 87.01C218.932 87.0257 218.972 87.05 219.007 87.0814C219.041 87.1129 219.069 87.1509 219.089 87.1932C219.129 87.2766 219.135 87.3724 219.106 87.4603C219.077 87.5482 219.015 87.6213 218.933 87.6644V87.6644Z" fill="black"/>
<path d="M201.975 95.7572L193.459 99.7644C193.414 99.7853 193.365 99.7971 193.316 99.7992C193.267 99.8012 193.217 99.7936 193.171 99.7766C193.124 99.7596 193.082 99.7336 193.045 99.7001C193.009 99.6666 192.979 99.6263 192.959 99.5814C192.938 99.5365 192.926 99.4879 192.924 99.4385C192.922 99.389 192.929 99.3396 192.946 99.2931C192.963 99.2467 192.989 99.204 193.023 99.1675C193.056 99.1311 193.097 99.1016 193.141 99.0807V99.0807L201.658 95.0923C201.744 95.0615 201.839 95.0638 201.924 95.0988C202.008 95.1338 202.077 95.1989 202.116 95.2817C202.156 95.3644 202.163 95.4589 202.137 95.5467C202.111 95.6345 202.053 95.7095 201.975 95.7572V95.7572Z" fill="black"/>
<path d="M184.944 103.783L176.462 107.845C176.416 107.868 176.366 107.881 176.315 107.884C176.263 107.888 176.212 107.881 176.164 107.864C176.115 107.847 176.07 107.821 176.032 107.787C175.994 107.754 175.962 107.712 175.94 107.666C175.917 107.62 175.904 107.57 175.901 107.519C175.897 107.468 175.904 107.417 175.921 107.368C175.938 107.32 175.963 107.275 175.997 107.236C176.031 107.198 176.072 107.166 176.118 107.144V107.144L184.607 103.094C184.652 103.071 184.702 103.058 184.752 103.055C184.802 103.052 184.853 103.059 184.9 103.076C184.948 103.092 184.991 103.119 185.029 103.152C185.066 103.186 185.096 103.228 185.117 103.273C185.159 103.364 185.165 103.468 185.133 103.563C185.1 103.658 185.033 103.737 184.944 103.783V103.783Z" fill="black"/>
<path d="M168.012 111.967L159.612 116.189C159.516 116.237 159.406 116.244 159.305 116.21C159.204 116.176 159.121 116.103 159.074 116.008C159.027 115.913 159.019 115.802 159.053 115.701C159.087 115.6 159.16 115.517 159.255 115.47L167.674 111.253C167.767 111.213 167.872 111.211 167.966 111.246C168.061 111.281 168.138 111.351 168.183 111.441C168.228 111.532 168.236 111.636 168.207 111.733C168.177 111.829 168.112 111.911 168.024 111.961L168.012 111.967Z" fill="black"/>
<path d="M151.275 120.531L143.024 125.024C142.976 125.055 142.922 125.077 142.866 125.087C142.809 125.097 142.751 125.095 142.696 125.081C142.64 125.067 142.588 125.042 142.542 125.007C142.497 124.972 142.459 124.927 142.431 124.877C142.404 124.827 142.387 124.771 142.383 124.714C142.378 124.656 142.385 124.599 142.403 124.544C142.422 124.49 142.452 124.44 142.491 124.398C142.53 124.356 142.577 124.322 142.63 124.299L150.906 119.812C150.953 119.787 151.005 119.771 151.058 119.765C151.111 119.76 151.165 119.765 151.216 119.78C151.268 119.796 151.315 119.821 151.357 119.855C151.399 119.889 151.433 119.93 151.459 119.977C151.484 120.025 151.5 120.076 151.505 120.13C151.511 120.183 151.506 120.237 151.491 120.288C151.475 120.34 151.45 120.387 151.416 120.429C151.382 120.471 151.341 120.505 151.294 120.531L151.275 120.531Z" fill="black"/>
<path d="M134.875 129.706L126.888 134.639C126.79 134.697 126.674 134.715 126.564 134.688C126.453 134.661 126.358 134.591 126.298 134.494C126.24 134.398 126.222 134.283 126.248 134.174C126.274 134.065 126.342 133.97 126.437 133.911V133.911L134.462 128.97C134.556 128.911 134.669 128.892 134.777 128.917C134.885 128.942 134.979 129.009 135.038 129.103C135.097 129.198 135.115 129.314 135.089 129.423C135.063 129.532 134.995 129.627 134.9 129.686L134.875 129.706Z" fill="black"/>
<path d="M119.121 139.919C116.588 141.746 114.108 143.653 111.727 145.675C111.683 145.714 111.631 145.744 111.575 145.763C111.519 145.782 111.46 145.789 111.402 145.784C111.343 145.78 111.286 145.763 111.233 145.736C111.181 145.709 111.135 145.672 111.097 145.626C111.057 145.582 111.027 145.531 111.007 145.475C110.988 145.419 110.98 145.36 110.985 145.301C110.99 145.242 111.006 145.184 111.034 145.132C111.062 145.079 111.1 145.033 111.146 144.996V144.996C113.57 142.96 116.049 141.022 118.602 139.206C118.695 139.139 118.812 139.112 118.926 139.13C119.039 139.149 119.141 139.212 119.208 139.306C119.275 139.4 119.303 139.517 119.284 139.63C119.265 139.744 119.202 139.846 119.108 139.913L119.121 139.919Z" fill="black"/>
<path d="M103.226 149.877C102.442 150.029 101.657 150.156 100.857 150.24C100.463 150.257 100.063 150.311 99.6545 150.291L99.3413 150.304L99.1722 150.311C99.0846 150.309 98.9976 150.296 98.9133 150.272C98.9133 150.272 98.9133 150.272 98.7462 150.178C98.6856 150.125 98.639 150.058 98.6107 149.983C98.5823 149.907 98.5731 149.826 98.5837 149.746C98.6113 149.634 98.6756 149.534 98.7663 149.462C98.8016 149.433 98.8406 149.408 98.8824 149.388L99.0251 149.351L99.2005 149.344L99.5137 149.33C101.12 149.169 102.681 149.141 104.255 149.131C104.315 149.128 104.374 149.137 104.429 149.158C104.485 149.178 104.536 149.209 104.58 149.249C104.623 149.289 104.659 149.338 104.684 149.392C104.709 149.445 104.723 149.503 104.725 149.563C104.728 149.622 104.719 149.681 104.698 149.737C104.678 149.792 104.647 149.843 104.607 149.887C104.567 149.931 104.518 149.966 104.464 149.991C104.411 150.016 104.353 150.03 104.293 150.033V150.033C102.732 150.067 101.159 150.102 99.6393 150.229L99.3637 150.24L99.251 150.245L99.3366 150.191C99.3773 150.153 99.4095 150.106 99.4311 150.054C99.4527 150.003 99.4632 149.947 99.462 149.891C99.4755 149.816 99.4694 149.74 99.4444 149.668C99.4194 149.597 99.3763 149.533 99.3193 149.483C99.1452 149.371 99.2037 149.419 99.1844 149.407C99.1651 149.395 99.1844 149.407 99.2219 149.405L99.3472 149.4L99.6228 149.389C99.9924 149.373 100.381 149.357 100.761 149.309C101.524 149.233 102.284 149.113 103.043 148.962C103.16 148.939 103.281 148.963 103.379 149.029C103.478 149.095 103.546 149.197 103.57 149.313C103.593 149.43 103.569 149.55 103.503 149.649C103.437 149.748 103.335 149.816 103.218 149.839L103.226 149.877Z" fill="black"/>
<path d="M113.649 148.848L123.038 148.295C123.099 148.293 123.16 148.302 123.217 148.323C123.274 148.344 123.327 148.376 123.371 148.417C123.416 148.459 123.453 148.508 123.478 148.564C123.504 148.619 123.518 148.679 123.521 148.739C123.524 148.8 123.514 148.861 123.493 148.918C123.472 148.976 123.44 149.028 123.399 149.073C123.358 149.118 123.308 149.154 123.253 149.18C123.198 149.205 123.138 149.22 123.077 149.222V149.222L113.688 149.769C113.574 149.76 113.468 149.71 113.389 149.629C113.31 149.547 113.263 149.439 113.259 149.325C113.254 149.212 113.291 149.1 113.363 149.012C113.435 148.924 113.537 148.866 113.649 148.848V148.848Z" fill="black"/>
<path d="M132.387 147.51L141.763 146.644C141.825 146.638 141.889 146.645 141.949 146.664C142.01 146.682 142.066 146.713 142.114 146.753C142.163 146.794 142.202 146.844 142.231 146.9C142.26 146.956 142.278 147.018 142.283 147.081C142.289 147.143 142.283 147.206 142.264 147.265C142.246 147.325 142.215 147.38 142.175 147.428C142.135 147.476 142.086 147.515 142.031 147.544C141.975 147.573 141.915 147.59 141.853 147.595V147.595L132.477 148.455C132.359 148.453 132.246 148.407 132.16 148.327C132.074 148.247 132.02 148.137 132.01 148.02C132 147.903 132.033 147.786 132.104 147.691C132.174 147.597 132.278 147.533 132.393 147.51L132.387 147.51Z" fill="black"/>
<path d="M151.127 145.83L160.514 145.222C160.635 145.23 160.749 145.283 160.834 145.37C160.919 145.458 160.969 145.573 160.974 145.695C160.979 145.816 160.939 145.936 160.862 146.03C160.785 146.124 160.675 146.186 160.555 146.205V146.205L151.168 146.795C151.104 146.799 151.04 146.791 150.98 146.77C150.919 146.75 150.863 146.717 150.815 146.675C150.767 146.633 150.728 146.581 150.7 146.524C150.673 146.466 150.656 146.404 150.653 146.34C150.648 146.275 150.657 146.209 150.679 146.148C150.701 146.086 150.735 146.03 150.78 145.982C150.824 145.934 150.878 145.896 150.938 145.87C150.997 145.844 151.062 145.83 151.127 145.83V145.83Z" fill="black"/>
<path d="M169.94 144.967L179.348 144.866C179.472 144.875 179.589 144.929 179.676 145.018C179.763 145.108 179.815 145.227 179.82 145.352C179.825 145.476 179.784 145.599 179.705 145.696C179.626 145.792 179.513 145.856 179.39 145.875V145.875L169.981 145.964C169.858 145.955 169.743 145.902 169.657 145.813C169.571 145.725 169.521 145.607 169.515 145.484C169.51 145.361 169.551 145.24 169.629 145.145C169.707 145.049 169.818 144.986 169.94 144.967Z" fill="black"/>
<path d="M188.752 144.816L198.195 144.808C198.263 144.807 198.33 144.819 198.393 144.844C198.456 144.869 198.514 144.907 198.562 144.955C198.61 145.002 198.648 145.059 198.674 145.122C198.7 145.185 198.713 145.252 198.712 145.32C198.713 145.388 198.7 145.456 198.674 145.519C198.648 145.582 198.61 145.639 198.562 145.687C198.514 145.735 198.456 145.773 198.393 145.799C198.33 145.825 198.263 145.838 198.195 145.838V145.838L188.782 145.832C188.715 145.834 188.649 145.821 188.586 145.796C188.524 145.771 188.468 145.734 188.42 145.687C188.372 145.64 188.335 145.584 188.309 145.522C188.284 145.46 188.271 145.393 188.271 145.326C188.272 145.196 188.322 145.071 188.411 144.977C188.501 144.882 188.622 144.825 188.752 144.816Z" fill="black"/>
<path d="M207.602 144.846L217.018 144.933C217.088 144.934 217.156 144.948 217.22 144.974C217.284 145.001 217.342 145.04 217.39 145.09C217.439 145.139 217.477 145.197 217.504 145.262C217.53 145.326 217.543 145.394 217.543 145.464C217.542 145.533 217.528 145.602 217.501 145.665C217.475 145.729 217.435 145.787 217.386 145.836C217.337 145.885 217.279 145.923 217.215 145.949C217.15 145.975 217.082 145.989 217.013 145.988V145.988L207.596 145.889C207.528 145.889 207.46 145.875 207.397 145.848C207.334 145.821 207.277 145.783 207.229 145.734C207.132 145.636 207.078 145.503 207.078 145.364C207.079 145.296 207.093 145.228 207.119 145.165C207.146 145.102 207.184 145.045 207.233 144.997C207.331 144.9 207.464 144.845 207.602 144.846V144.846Z" fill="black"/>
<path d="M226.419 145.081L235.841 145.312C235.911 145.314 235.981 145.329 236.045 145.357C236.109 145.386 236.167 145.426 236.215 145.477C236.264 145.528 236.302 145.588 236.327 145.653C236.353 145.719 236.365 145.788 236.363 145.858C236.362 145.929 236.346 145.998 236.318 146.062C236.29 146.126 236.249 146.184 236.198 146.233C236.148 146.281 236.088 146.319 236.022 146.345C235.957 146.37 235.887 146.382 235.817 146.381V146.381L226.395 146.15C226.263 146.135 226.141 146.071 226.053 145.971C225.965 145.87 225.918 145.741 225.921 145.607C225.924 145.474 225.977 145.347 226.069 145.25C226.162 145.154 226.287 145.096 226.42 145.087L226.419 145.081Z" fill="black"/>
<path d="M245.228 145.635L254.658 146.054C254.731 146.053 254.804 146.066 254.873 146.094C254.941 146.123 255.002 146.164 255.054 146.217C255.105 146.27 255.145 146.333 255.171 146.402C255.197 146.471 255.209 146.544 255.206 146.618C255.202 146.692 255.184 146.764 255.152 146.83C255.119 146.896 255.074 146.955 255.018 147.003C254.962 147.051 254.897 147.087 254.826 147.109C254.756 147.131 254.682 147.138 254.609 147.13V147.13L245.216 146.709C245.075 146.703 244.941 146.64 244.846 146.535C244.75 146.43 244.7 146.292 244.707 146.15C244.713 146.008 244.776 145.874 244.881 145.779C244.985 145.683 245.124 145.633 245.266 145.639L245.228 145.635Z" fill="black"/>
<path d="M264.031 146.609L273.415 147.432C273.489 147.437 273.56 147.458 273.625 147.491C273.69 147.525 273.748 147.572 273.794 147.629C273.841 147.686 273.875 147.751 273.895 147.822C273.915 147.893 273.921 147.966 273.912 148.039C273.905 148.112 273.885 148.183 273.851 148.248C273.817 148.313 273.77 148.37 273.713 148.416C273.657 148.462 273.592 148.497 273.521 148.517C273.451 148.538 273.378 148.544 273.305 148.536V148.536L263.952 147.712C263.881 147.705 263.813 147.685 263.75 147.652C263.687 147.618 263.631 147.573 263.586 147.519C263.54 147.464 263.506 147.401 263.485 147.333C263.464 147.265 263.457 147.194 263.463 147.123C263.47 147.052 263.49 146.983 263.523 146.921C263.556 146.858 263.601 146.802 263.656 146.756C263.71 146.711 263.774 146.677 263.841 146.656C263.909 146.635 263.98 146.627 264.051 146.634L264.031 146.609Z" fill="black"/>
<path d="M282.775 148.726L292.013 150.554C292.156 150.582 292.282 150.666 292.363 150.787C292.443 150.907 292.473 151.055 292.445 151.198C292.417 151.341 292.333 151.467 292.213 151.548C292.092 151.629 291.944 151.659 291.801 151.63L282.594 149.802C282.457 149.769 282.337 149.685 282.26 149.566C282.183 149.447 282.156 149.303 282.184 149.164C282.211 149.025 282.291 148.902 282.408 148.821C282.524 148.741 282.667 148.708 282.807 148.731L282.775 148.726Z" fill="black"/>
<path d="M301.176 152.827C304.215 153.692 307.194 154.756 310.095 156.012C310.227 156.071 310.331 156.18 310.384 156.315C310.436 156.451 310.433 156.601 310.376 156.735C310.348 156.801 310.307 156.862 310.255 156.912C310.203 156.963 310.142 157.003 310.074 157.029C310.007 157.055 309.935 157.068 309.863 157.065C309.791 157.063 309.719 157.047 309.654 157.016V157.016C306.794 155.782 303.858 154.736 300.863 153.883C300.735 153.832 300.631 153.735 300.571 153.612C300.511 153.489 300.499 153.347 300.537 153.215C300.575 153.084 300.662 152.971 300.778 152.899C300.895 152.827 301.035 152.802 301.17 152.827L301.176 152.827Z" fill="black"/>
<path d="M318.33 160.816C319.594 161.817 320.736 162.964 321.73 164.233C322.736 165.526 323.516 166.979 324.038 168.532C324.061 168.601 324.07 168.674 324.064 168.746C324.059 168.819 324.039 168.89 324.006 168.955C323.973 169.02 323.928 169.078 323.873 169.125C323.818 169.172 323.754 169.209 323.685 169.231C323.616 169.254 323.543 169.263 323.47 169.257C323.398 169.252 323.327 169.232 323.262 169.199C323.197 169.166 323.14 169.121 323.092 169.066C323.045 169.011 323.009 168.947 322.986 168.878V168.878C322.504 167.446 321.784 166.107 320.855 164.917C319.916 163.713 318.836 162.627 317.638 161.68C317.581 161.636 317.533 161.58 317.498 161.517C317.462 161.454 317.439 161.384 317.431 161.312C317.423 161.239 317.429 161.166 317.449 161.097C317.47 161.027 317.504 160.962 317.549 160.905C317.641 160.791 317.775 160.717 317.921 160.7C318.067 160.683 318.214 160.725 318.33 160.816V160.816Z" fill="black"/>
<path d="M322.597 177.994C320.993 180.773 318.944 183.27 316.532 185.384C316.421 185.483 316.276 185.535 316.127 185.527C315.979 185.519 315.839 185.452 315.74 185.342C315.64 185.231 315.589 185.085 315.597 184.936C315.604 184.788 315.671 184.648 315.782 184.549V184.549C318.102 182.522 320.073 180.127 321.614 177.458V177.458C321.649 177.394 321.697 177.337 321.754 177.292C321.811 177.246 321.877 177.213 321.947 177.193C322.018 177.173 322.092 177.167 322.164 177.176C322.237 177.185 322.307 177.208 322.37 177.244C322.497 177.318 322.591 177.438 322.631 177.579C322.671 177.721 322.654 177.872 322.584 178.001L322.597 177.994Z" fill="black"/>
<path d="M308.114 178.743C305.355 180.274 302.532 181.674 299.644 182.943C299.51 182.992 299.362 182.988 299.231 182.932C299.099 182.876 298.994 182.773 298.936 182.642C298.878 182.511 298.871 182.364 298.918 182.228C298.964 182.093 299.061 181.981 299.187 181.914V181.914C302.039 180.651 304.842 179.27 307.572 177.793C307.637 177.757 307.708 177.734 307.781 177.726C307.854 177.718 307.928 177.724 307.999 177.744C308.07 177.765 308.136 177.799 308.193 177.845C308.251 177.891 308.299 177.947 308.334 178.012C308.37 178.076 308.393 178.147 308.401 178.22C308.409 178.294 308.403 178.368 308.383 178.439C308.363 178.509 308.329 178.576 308.283 178.633C308.237 178.691 308.18 178.739 308.116 178.775L308.114 178.743Z" fill="black"/>
<path fill-rule="evenodd" clip-rule="evenodd" d="M32.7904 64.4892C35.8285 75.6986 70.4362 80.5028 110.089 75.2198C124.63 73.2825 137.829 70.2577 148.567 66.6509C161.746 62.2237 171.216 56.9195 174.901 51.6727C176.4 49.5372 176.942 47.4111 176.385 45.3576L99.0871 34.627C90.4765 35.7743 82.336 37.3028 74.8987 39.1077C62.3064 42.1637 51.7297 46.012 44.2991 50.1434C35.908 54.8088 31.5291 59.8352 32.7904 64.4892Z" fill="black"/>
<path d="M99.0871 34.627C138.74 29.344 173.347 34.1482 176.385 45.3576L99.0871 34.627Z" fill="#F1EFED"/>
<path d="M44.2991 50.1434L44.6719 50.6803L44.6719 50.6803L44.2991 50.1434ZM148.567 66.6509L148.289 66.072L148.567 66.6509ZM74.8987 39.1077L75.127 39.7008L74.8987 39.1077ZM174.901 51.6727L174.353 51.2926L174.353 51.2926L174.901 51.6727ZM109.925 74.6147C90.1401 77.2507 71.6372 77.3663 57.7249 75.435C50.7643 74.4687 44.9909 72.9951 40.7903 71.092C36.5664 69.1784 34.0894 66.9062 33.4119 64.4064L32.169 64.572C33.0105 67.6769 35.9987 70.2088 40.3574 72.1835C44.7393 74.1688 50.6657 75.6678 57.6934 76.6433C71.7577 78.5957 90.3849 78.4719 110.253 75.8249L109.925 74.6147ZM99.2511 35.2321C119.036 32.5962 137.539 32.4805 151.451 34.4118C158.412 35.3781 164.185 36.8517 168.386 38.7548C172.609 40.6684 175.087 42.9406 175.764 45.4404L177.007 45.2748C176.165 42.1699 173.177 39.638 168.819 37.6633C164.437 35.6781 158.51 34.179 151.483 33.2035C137.418 31.2511 118.791 31.3749 98.9231 34.022L99.2511 35.2321ZM33.4119 64.4064C32.8496 62.3318 33.5189 60.0857 35.45 57.7311C37.3778 55.3805 40.5065 52.9963 44.6719 50.6803L43.9263 49.6065C39.7006 51.956 36.4443 54.4176 34.4002 56.9101C32.3594 59.3985 31.4699 61.9926 32.169 64.572L33.4119 64.4064ZM148.289 66.072C137.593 69.665 124.432 72.6818 109.925 74.6147L110.253 75.8249C124.827 73.8831 138.066 70.8504 148.844 67.2297L148.289 66.072ZM44.6719 50.6803C52.0433 46.5819 62.5661 42.7492 75.127 39.7008L74.6704 38.5147C62.0467 41.5783 51.4161 45.4422 43.9263 49.6065L44.6719 50.6803ZM75.127 39.7008C82.5424 37.9012 90.6613 36.3766 99.2511 35.2321L98.9231 34.022C90.2916 35.1719 82.1297 36.7044 74.6704 38.5147L75.127 39.7008ZM175.764 45.4404C176.26 47.2717 175.798 49.2343 174.353 51.2926L175.449 52.0528C177.003 49.84 177.624 47.5506 177.007 45.2748L175.764 45.4404ZM174.353 51.2926C172.574 53.8254 169.362 56.4165 164.918 58.9344C160.481 61.4475 154.855 63.8667 148.289 66.072L148.844 67.2297C155.459 65.0079 161.156 62.5614 165.671 60.0039C170.177 57.4512 173.543 54.7668 175.449 52.0528L174.353 51.2926ZM176.401 44.7534L99.1028 34.0229L99.0713 35.2312L176.37 45.9618L176.401 44.7534Z" fill="black"/>
<path fill-rule="evenodd" clip-rule="evenodd" d="M303.336 95.3116C347.546 95.1904 383.61 87.3712 383.887 77.8469C384.165 68.3226 348.551 60.6999 304.342 60.8211C295.082 60.8465 286.18 61.2096 277.889 61.8553L223.808 78.7757C224.741 88.0701 259.888 95.4307 303.336 95.3116Z" fill="black"/>
<path d="M223.791 78.2858C223.786 78.4496 223.792 78.613 223.808 78.7757L277.889 61.8553C246.595 64.2925 224.01 70.7563 223.791 78.2858Z" fill="#F1EFED"/>
<path d="M223.808 78.7757L223.184 78.8579L223.808 78.7757ZM383.26 77.8486C383.232 78.8282 382.744 79.8452 381.718 80.8967C380.688 81.9509 379.154 82.9995 377.133 84.0192C373.093 86.0577 367.238 87.9178 359.972 89.4932C345.451 92.6416 325.429 94.6244 303.355 94.6849L303.318 95.9382C325.454 95.8775 345.568 93.8901 360.201 90.7176C367.512 89.1325 373.488 87.2444 377.669 85.1343C379.759 84.0798 381.433 82.954 382.602 81.7571C383.773 80.5574 384.473 79.2467 384.514 77.8452L383.26 77.8486ZM304.323 61.4478C326.397 61.3873 346.307 63.2606 360.647 66.3299C367.822 67.8657 373.57 69.694 377.491 71.7107C379.453 72.7195 380.927 73.7598 381.895 74.8086C382.861 75.8545 383.289 76.869 383.26 77.8486L384.514 77.8452C384.555 76.4437 383.931 75.1366 382.83 73.9431C381.73 72.7525 380.122 71.6357 378.093 70.5924C374.034 68.5049 368.167 66.6493 360.947 65.104C346.497 62.0112 326.495 60.1338 304.36 60.1944L304.323 61.4478ZM303.355 94.6849C281.661 94.7444 262.057 92.9361 247.776 89.96C240.631 88.4712 234.848 86.696 230.807 84.732C228.786 83.7498 227.227 82.7327 226.153 81.7013C225.079 80.6687 224.529 79.661 224.432 78.6935L223.184 78.8579C223.32 80.214 224.074 81.4694 225.269 82.618C226.466 83.7676 228.145 84.8495 230.23 85.8625C234.399 87.889 240.293 89.6891 247.482 91.1873C261.87 94.1854 281.563 95.9979 303.318 95.9382L303.355 94.6849ZM224.432 78.6935C224.419 78.5573 224.414 78.4208 224.418 78.284L223.164 78.2875C223.158 78.4785 223.165 78.6687 223.184 78.8579L224.432 78.6935ZM224.418 78.284C224.463 76.7329 225.672 75.0814 228.264 73.4079C230.827 71.7532 234.582 70.1842 239.349 68.7609C248.874 65.917 262.295 63.6968 277.918 62.48L277.86 61.2305C262.189 62.451 248.67 64.6813 239.025 67.561C234.207 68.9994 230.319 70.6105 227.607 72.3616C224.924 74.0939 223.228 76.0739 223.164 78.2875L224.418 78.284ZM277.918 62.48C286.192 61.8356 295.079 61.4731 304.323 61.4478L304.36 60.1944C295.085 60.2199 286.167 60.5835 277.86 61.2305L277.918 62.48ZM223.978 79.3732L278.059 62.4528L277.719 61.2578L223.638 78.1782L223.978 79.3732Z" fill="black"/>
<ellipse rx="71.1629" ry="21.812" transform="matrix(0.967114 -0.254342 0.471783 0.881715 100.393 47.0595)" fill="#F1EFED" stroke="black" stroke-width="1.25385" stroke-linejoin="round"/>
<ellipse rx="79.4366" ry="23.1302" transform="matrix(0.991063 0.133397 -0.2663 0.96389 307.361 64.5297)" fill="#F1EFED" stroke="black" stroke-width="1.25385" stroke-linejoin="round"/>
<path d="M249.176 53.9325C249.677 53.9925 250.094 54.1455 250.429 54.3915C250.771 54.6384 250.993 54.9778 251.096 55.4097C251.201 55.8339 251.161 56.3359 250.978 56.9155L249.975 60.0846L248.843 59.9488L249.839 56.8026C249.998 56.2992 249.97 55.8802 249.754 55.5456C249.538 55.211 249.196 55.0155 248.728 54.9593C248.41 54.9212 248.095 54.9665 247.782 55.0952C247.469 55.224 247.194 55.4166 246.956 55.673C246.729 55.9228 246.565 56.2041 246.466 56.5168L245.507 59.5486L244.375 59.4128L246.928 51.3471L248 51.4757L247.015 54.5876C247.33 54.3483 247.679 54.1686 248.064 54.0484C248.448 53.9283 248.819 53.8896 249.176 53.9325ZM255.301 54.7861L253.491 60.5064L252.359 60.3706L254.169 54.6503L255.301 54.7861ZM256.097 52.5065L255.699 53.765L254.436 53.6135L254.834 52.355L256.097 52.5065ZM262.398 58.3449C262.243 58.833 261.984 59.2611 261.62 59.6292C261.256 59.9972 260.801 60.2632 260.255 60.4272C260.602 60.5797 260.829 60.7732 260.937 61.0078C261.052 61.2432 261.063 61.5059 260.972 61.7957C260.827 62.2534 260.534 62.6061 260.093 62.854C259.657 63.1105 259.165 63.2059 258.617 63.1401L257.032 62.95C256.492 62.8852 256.092 62.6908 255.832 62.3666C255.572 62.0425 255.511 61.6592 255.651 61.2169C255.845 60.6067 256.345 60.2234 257.153 60.067C256.761 59.822 256.504 59.4745 256.382 59.0245C256.269 58.5755 256.288 58.1107 256.44 57.6302C256.597 57.1345 256.867 56.6997 257.249 56.326C257.641 55.9455 258.101 55.6643 258.629 55.4821C259.157 55.3 259.69 55.2414 260.23 55.3062C260.993 55.3976 261.551 55.7575 261.905 56.3858L262.154 55.5963L263.227 55.725L262.398 58.3449ZM258.84 59.8181C259.197 59.861 259.544 59.8195 259.881 59.6936C260.217 59.5677 260.509 59.377 260.754 59.1215C261.008 58.867 261.189 58.5681 261.298 58.2248C261.404 57.8893 261.416 57.578 261.334 57.291C261.259 57.005 261.103 56.7686 260.866 56.5817C260.628 56.3949 260.33 56.28 259.973 56.2371C259.441 56.1733 258.947 56.2882 258.491 56.5819C258.046 56.8689 257.742 57.2679 257.581 57.7789C257.416 58.2975 257.451 58.749 257.684 59.1332C257.925 59.5183 258.31 59.7466 258.84 59.8181ZM258.797 62.2592C259.051 62.2897 259.282 62.2501 259.49 62.1405C259.706 62.0318 259.844 61.8821 259.904 61.6914C259.969 61.4855 259.94 61.3039 259.817 61.1466C259.693 60.9893 259.501 60.8949 259.238 60.8634L257.833 60.6948C257.57 60.6633 257.334 60.7062 257.124 60.8235C256.914 60.9408 256.776 61.1024 256.711 61.3083C256.65 61.499 256.683 61.6692 256.809 61.8189C256.943 61.9695 257.137 62.06 257.391 62.0905L258.797 62.2592ZM268.475 56.2477C268.975 56.3077 269.393 56.4607 269.727 56.7067C270.069 56.9536 270.292 57.293 270.394 57.7248C270.499 58.1491 270.46 58.651 270.276 59.2307L269.273 62.3998L268.141 62.264L269.137 59.1178C269.296 58.6144 269.268 58.1954 269.052 57.8608C268.837 57.5261 268.495 57.3307 268.026 57.2745C267.708 57.2364 267.393 57.2817 267.08 57.4104C266.767 57.5391 266.492 57.7317 266.254 57.9882C266.027 58.238 265.864 58.5193 265.765 58.832L264.805 61.8638L263.673 61.728L266.226 53.6623L267.298 53.7909L266.313 56.9028C266.628 56.6635 266.978 56.4837 267.362 56.3636C267.746 56.2434 268.117 56.2048 268.475 56.2477ZM276.018 57.1526C276.63 57.226 277.122 57.4157 277.495 57.7217C277.876 58.0287 278.116 58.4296 278.215 58.9244C278.317 59.4115 278.269 59.964 278.074 60.5818C278.023 60.742 277.982 60.8597 277.95 60.935L273.065 60.349C273.004 60.8009 273.103 61.1927 273.361 61.5245C273.629 61.8496 273.997 62.0402 274.466 62.0965C275.236 62.1889 275.87 61.9839 276.367 61.4814L277.535 61.6215C277.175 62.1325 276.683 62.5287 276.058 62.81C275.435 63.0836 274.798 63.1814 274.147 63.1032C273.567 63.0337 273.083 62.8449 272.694 62.537C272.307 62.2215 272.054 61.823 271.934 61.3415C271.817 60.8525 271.848 60.3257 272.026 59.7613C272.205 59.1969 272.497 58.7054 272.901 58.2869C273.308 57.8607 273.782 57.5494 274.322 57.3529C274.873 57.1498 275.438 57.0831 276.018 57.1526ZM275.69 58.1108C275.221 58.0546 274.772 58.1471 274.341 58.3883C273.918 58.6305 273.597 58.968 273.377 59.4009L277.035 59.8397C277.132 59.3763 277.053 58.9869 276.799 58.6713C276.552 58.3567 276.182 58.1699 275.69 58.1108ZM284.049 58.1161C284.24 58.139 284.415 58.1719 284.575 58.2148L284.238 59.2788C284.105 59.2311 283.883 59.1887 283.573 59.1515C283.224 59.1096 282.89 59.1487 282.572 59.2689C282.261 59.39 281.989 59.5711 281.756 59.8123C281.534 60.0469 281.374 60.3167 281.278 60.6218L280.296 63.7222L279.165 63.5864L280.975 57.8661L282.047 57.9947L281.768 58.8756C282.087 58.5972 282.445 58.3908 282.842 58.2564C283.25 58.1152 283.652 58.0685 284.049 58.1161ZM291.44 60.1902L290.484 63.2106C290.407 63.4547 290.407 63.6487 290.485 63.7926C290.571 63.9375 290.765 64.0281 291.067 64.0643C291.353 64.0986 291.602 64.1048 291.815 64.0829L291.5 65.0782C291.264 65.1211 290.991 65.124 290.681 65.0868C289.419 64.9353 288.975 64.2646 289.352 63.0748L290.308 60.0545L289.116 59.9115L289.442 58.8819L290.634 59.0248L291.104 57.5375L292.236 57.6733L291.766 59.1606L293.434 59.3607L293.108 60.3904L291.44 60.1902ZM298.414 59.8395C298.605 59.8623 298.78 59.8952 298.94 59.9381L298.603 61.0021C298.47 60.9544 298.248 60.912 297.938 60.8749C297.589 60.8329 297.255 60.872 296.936 60.9922C296.626 61.1133 296.354 61.2944 296.121 61.5357C295.899 61.7702 295.739 62.04 295.643 62.3451L294.661 65.4455L293.529 65.3097L295.34 59.5894L296.412 59.718L296.133 60.599C296.452 60.3206 296.81 60.1141 297.207 59.9797C297.615 59.8386 298.017 59.7918 298.414 59.8395ZM305.767 60.8402L303.956 66.5606L302.824 66.4248L303.096 65.5668C302.753 65.8423 302.379 66.0468 301.974 66.1803C301.572 66.3062 301.172 66.3453 300.774 66.2977C300.25 66.2348 299.813 66.0517 299.464 65.7486C299.117 65.4378 298.892 65.0427 298.788 64.5631C298.684 64.0836 298.723 63.5578 298.904 62.9857C299.085 62.4137 299.37 61.9175 299.759 61.497C300.147 61.0765 300.596 60.7662 301.104 60.566C301.615 60.3581 302.133 60.2856 302.657 60.3485C303.07 60.398 303.427 60.5358 303.726 60.7617C304.026 60.9876 304.251 61.2798 304.401 61.6383L304.694 60.7116L305.767 60.8402ZM301.284 65.3137C301.633 65.3557 301.978 65.3099 302.317 65.1764C302.656 65.0429 302.952 64.837 303.205 64.5586C303.46 64.2725 303.647 63.9427 303.765 63.5689C303.883 63.1952 303.91 62.8501 303.846 62.5336C303.783 62.2094 303.636 61.9463 303.403 61.7442C303.17 61.5421 302.879 61.4201 302.529 61.3781C302.18 61.3362 301.84 61.3825 301.508 61.5169C301.177 61.6514 300.884 61.8616 300.629 62.1476C300.376 62.426 300.19 62.7521 300.072 63.1258C299.953 63.4996 299.925 63.8485 299.988 64.1726C300.052 64.4892 300.197 64.748 300.422 64.9491C300.647 65.1503 300.934 65.2718 301.284 65.3137ZM311.346 61.3908C311.83 61.449 312.232 61.6 312.55 61.8441C312.877 62.0891 313.087 62.427 313.182 62.858C313.287 63.2822 313.247 63.7842 313.064 64.3638L312.061 67.5329L310.929 67.3971L311.925 64.2509C312.084 63.7475 312.056 63.3285 311.84 62.9939C311.625 62.6593 311.282 62.4639 310.814 62.4076C310.472 62.3667 310.145 62.4105 309.832 62.5393C309.53 62.6613 309.265 62.8472 309.037 63.097C308.818 63.3478 308.659 63.6295 308.56 63.9422L307.593 66.9969L306.461 66.8611L308.271 61.1407L309.344 61.2694L309.054 62.1846C309.375 61.8986 309.736 61.6846 310.135 61.5425C310.545 61.3937 310.949 61.3432 311.346 61.3908ZM316.506 68.1849C315.759 68.0953 315.181 67.8518 314.771 67.4543C314.371 67.0501 314.227 66.5419 314.338 65.9298L315.47 66.0656C315.469 66.406 315.583 66.6729 315.81 66.8664C316.048 67.0533 316.397 67.1743 316.858 67.2296C317.287 67.2811 317.653 67.2577 317.956 67.1595C318.261 67.0536 318.448 66.8939 318.516 66.6804C318.583 66.4668 318.545 66.2881 318.401 66.1441C318.267 65.9935 317.97 65.851 317.51 65.7166L316.867 65.5207C315.514 65.1051 314.974 64.4664 315.247 63.6045C315.406 63.1011 315.765 62.7245 316.322 62.4747C316.882 62.2172 317.535 62.1333 318.281 62.2229C318.957 62.3039 319.484 62.5255 319.864 62.8878C320.247 63.2424 320.417 63.6943 320.375 64.2434L319.172 64.0991C319.149 63.8588 319.022 63.6615 318.79 63.507C318.561 63.345 318.284 63.2444 317.958 63.2054C317.545 63.1558 317.196 63.1773 316.911 63.2698C316.637 63.3556 316.467 63.5015 316.402 63.7074C316.344 63.8905 316.387 64.054 316.531 64.1979C316.678 64.3342 316.944 64.4572 317.329 64.5668L317.984 64.7641C318.753 64.991 319.258 65.2731 319.497 65.6106C319.739 65.9405 319.785 66.3419 319.636 66.8147C319.476 67.3181 319.113 67.6981 318.545 67.9546C317.988 68.2044 317.308 68.2812 316.506 68.1849ZM326.095 63.1602C326.619 63.2231 327.055 63.41 327.402 63.7207C327.751 64.0239 327.977 64.4152 328.081 64.8948C328.185 65.3743 328.146 65.9001 327.965 66.4722C327.784 67.0442 327.499 67.5404 327.111 67.9609C326.722 68.3814 326.272 68.6955 325.761 68.9034C325.253 69.1036 324.736 69.1723 324.212 69.1094C323.815 69.0618 323.468 68.9331 323.172 68.7234C322.878 68.506 322.656 68.23 322.506 67.8954L321.619 70.6984L320.487 70.5626L322.913 62.8973L323.986 63.0259L323.692 63.9526C324.05 63.6552 324.437 63.4363 324.852 63.2962C325.268 63.156 325.682 63.1107 326.095 63.1602ZM324.34 68.0798C324.69 68.1217 325.03 68.0754 325.361 67.941C325.692 67.8065 325.984 67.6001 326.237 67.3217C326.493 67.0357 326.679 66.7058 326.798 66.3321C326.916 65.9583 326.943 65.6132 326.878 65.2967C326.816 64.9726 326.672 64.7099 326.447 64.5088C326.222 64.3076 325.935 64.1861 325.586 64.1442C325.236 64.1022 324.892 64.148 324.553 64.2815C324.214 64.415 323.917 64.6248 323.661 64.9108C323.408 65.1892 323.222 65.5152 323.104 65.889C322.986 66.2627 322.958 66.6116 323.02 66.9358C323.085 67.2523 323.234 67.5116 323.467 67.7137C323.699 67.9158 323.991 68.0378 324.34 68.0798ZM336.319 64.5055L334.508 70.2259L333.376 70.0901L333.648 69.232C333.305 69.5076 332.931 69.7121 332.526 69.8456C332.124 69.9714 331.724 70.0106 331.327 69.9629C330.802 69.9 330.366 69.717 330.016 69.4138C329.669 69.1031 329.444 68.7079 329.34 68.2284C329.236 67.7488 329.275 67.223 329.456 66.651C329.637 66.079 329.922 65.5827 330.311 65.1622C330.699 64.7418 331.148 64.4314 331.656 64.2312C332.167 64.0233 332.685 63.9508 333.209 64.0137C333.622 64.0633 333.979 64.201 334.278 64.427C334.578 64.6529 334.803 64.9451 334.953 65.3036L335.246 64.3769L336.319 64.5055ZM331.836 68.979C332.185 69.0209 332.53 68.9751 332.869 68.8416C333.208 68.7082 333.504 68.5022 333.757 68.2238C334.012 67.9378 334.199 67.6079 334.317 67.2342C334.436 66.8604 334.462 66.5153 334.398 66.1988C334.335 65.8747 334.188 65.6115 333.955 65.4094C333.722 65.2073 333.431 65.0853 333.081 65.0434C332.732 65.0015 332.392 65.0477 332.06 65.1822C331.729 65.3166 331.436 65.5268 331.181 65.8129C330.928 66.0913 330.742 66.4173 330.624 66.7911C330.505 67.1648 330.477 67.5137 330.54 67.8379C330.604 68.1544 330.749 68.4132 330.974 68.6144C331.199 68.8155 331.486 68.9371 331.836 68.979ZM341.898 65.0561C342.088 65.0789 342.264 65.1118 342.423 65.1547L342.086 66.2187C341.953 66.171 341.732 66.1286 341.422 66.0915C341.072 66.0495 340.738 66.0886 340.42 66.2088C340.11 66.3299 339.838 66.511 339.605 66.7523C339.382 66.9868 339.223 67.2566 339.126 67.5617L338.145 70.6621L337.013 70.5264L338.823 64.806L339.896 64.9346L339.617 65.8156C339.936 65.5372 340.294 65.3307 340.691 65.1963C341.098 65.0552 341.501 65.0084 341.898 65.0561ZM346.379 65.5937C346.991 65.6671 347.483 65.8567 347.856 66.1628C348.237 66.4697 348.477 66.8706 348.576 67.3654C348.678 67.8526 348.631 68.4051 348.435 69.0229C348.384 69.183 348.343 69.3008 348.311 69.3761L343.426 68.79C343.365 69.242 343.464 69.6338 343.722 69.9655C343.99 70.2906 344.358 70.4813 344.827 70.5375C345.597 70.6299 346.231 70.4249 346.728 69.9225L347.896 70.0625C347.536 70.5736 347.044 70.9697 346.419 71.251C345.796 71.5247 345.16 71.6224 344.508 71.5443C343.928 71.4747 343.444 71.286 343.055 70.9781C342.668 70.6625 342.415 70.264 342.296 69.7826C342.178 69.2935 342.209 68.7668 342.388 68.2024C342.566 67.6379 342.858 67.1465 343.262 66.7279C343.669 66.3017 344.143 65.9904 344.683 65.794C345.234 65.5909 345.799 65.5241 346.379 65.5937ZM346.051 66.5518C345.582 66.4956 345.133 66.5881 344.702 66.8294C344.279 67.0715 343.958 67.4091 343.738 67.8419L347.396 68.2807C347.493 67.8174 347.415 67.4279 347.16 67.1124C346.913 66.7978 346.544 66.6109 346.051 66.5518ZM354.41 66.5572C354.895 66.6153 355.296 66.7664 355.615 67.0104C355.941 67.2554 356.152 67.5934 356.246 68.0243C356.351 68.4486 356.312 68.9505 356.128 69.5302L355.125 72.6993L353.994 72.5635L354.989 69.4173C355.149 68.9139 355.12 68.4949 354.905 68.1603C354.689 67.8256 354.347 67.6302 353.878 67.574C353.537 67.533 353.21 67.5769 352.897 67.7056C352.594 67.8277 352.329 68.0136 352.102 68.2634C351.882 68.5141 351.723 68.7959 351.624 69.1086L350.658 72.1632L349.526 72.0275L351.336 66.3071L352.408 66.4357L352.119 67.351C352.44 67.065 352.8 66.8509 353.2 66.7088C353.61 66.5601 354.013 66.5095 354.41 66.5572ZM357.879 70.0608C358.053 69.5116 358.35 69.0287 358.77 68.6121C359.193 68.1878 359.688 67.8751 360.254 67.6739C360.823 67.4651 361.402 67.3959 361.99 67.4664C362.649 67.5455 363.181 67.8034 363.587 68.24C364.004 68.6699 364.201 69.1924 364.18 69.8073L362.941 69.6587C362.902 69.3374 362.76 69.0709 362.513 68.8593C362.277 68.641 361.977 68.5099 361.611 68.4661C361.238 68.4213 360.877 68.469 360.527 68.6091C360.18 68.7417 359.875 68.9505 359.612 69.2356C359.351 69.513 359.162 69.8348 359.046 70.2009C358.931 70.567 358.908 70.9126 358.978 71.2377C359.051 71.5551 359.206 71.8192 359.445 72.0299C359.685 72.233 359.992 72.3569 360.366 72.4017C360.731 72.4455 361.089 72.3973 361.438 72.2572C361.798 72.1103 362.093 71.8925 362.325 71.6036L363.564 71.7522C363.209 72.3271 362.706 72.7695 362.056 73.0794C361.416 73.3826 360.766 73.4947 360.107 73.4156C359.519 73.3451 359.024 73.1511 358.621 72.8336C358.221 72.5086 357.953 72.1044 357.818 71.621C357.685 71.13 357.705 70.61 357.879 70.0608ZM372.247 68.8157L366.33 76.0622L365.103 75.915L366.692 73.98L365.563 68.0139L366.909 68.1754L367.654 72.896L370.996 68.6656L372.247 68.8157Z" fill="black"/>
<path d="M46.8026 59.1974L48.2882 65.0105L47.1837 65.2928L45.6981 59.4796L46.8026 59.1974ZM46.2781 56.8543L46.6049 58.1332L45.3725 58.4481L45.0457 57.1692L46.2781 56.8543ZM56.3632 56.6302C56.8283 56.5113 57.2687 56.5061 57.6845 56.6146C58.108 56.721 58.4769 56.9529 58.7912 57.3102C59.1112 57.6578 59.3465 58.1261 59.4971 58.7152L60.3201 61.9357L59.2156 62.2179L58.3985 59.0207C58.2678 58.5091 58.0165 58.1399 57.6447 57.9128C57.2807 57.6838 56.8778 57.6258 56.436 57.7387C55.9554 57.8615 55.6114 58.1311 55.4041 58.5474C55.1967 58.9637 55.1564 59.4199 55.2831 59.9159L56.0765 63.0202L54.972 63.3024L54.1549 60.1052C54.0241 59.5936 53.7729 59.2243 53.4011 58.9973C53.0371 58.7683 52.6341 58.7103 52.1923 58.8232C51.7118 58.946 51.3678 59.2156 51.1604 59.6319C50.9531 60.0482 50.9128 60.5044 51.0395 61.0004L51.8328 64.1047L50.7283 64.3869L49.2427 58.5738L50.2891 58.3063L50.5238 59.2248C50.6519 58.8536 50.8549 58.5333 51.1329 58.2641C51.4187 57.9929 51.7476 57.8098 52.1196 57.7147C52.5769 57.5978 53.0135 57.5936 53.4293 57.702C53.8508 57.8007 54.2119 58.0181 54.5124 58.3541C54.6461 57.9401 54.8761 57.58 55.2024 57.2737C55.5345 56.9576 55.9214 56.7431 56.3632 56.6302ZM64.1948 54.6288C64.7064 54.498 65.2051 54.5109 65.691 54.6675C66.1749 54.8163 66.5955 55.0887 66.9526 55.4846C67.3098 55.8805 67.5626 56.3691 67.7112 56.9504C67.8597 57.5317 67.8723 58.0817 67.7489 58.6004C67.6255 59.1192 67.3882 59.5638 67.037 59.9342C66.6838 60.297 66.2514 60.5437 65.7399 60.6745C65.3523 60.7735 64.9662 60.7813 64.5816 60.698C64.195 60.6069 63.842 60.437 63.5225 60.1884L64.2504 63.0368L63.1459 63.3191L61.1552 55.5294L62.2016 55.262L62.4422 56.2037C62.6051 55.8071 62.8371 55.4712 63.1384 55.196C63.4397 54.9208 63.7918 54.7318 64.1948 54.6288ZM65.2924 59.6989C65.6334 59.6117 65.9178 59.4482 66.1455 59.2084C66.3732 58.9685 66.5259 58.6777 66.6037 58.3358C66.6795 57.9861 66.6689 57.6214 66.5718 57.2416C66.4747 56.8618 66.3101 56.5406 66.0778 56.2779C65.8436 56.0075 65.569 55.8217 65.2541 55.7205C64.9393 55.6193 64.6113 55.6123 64.2703 55.6994C63.9293 55.7866 63.641 55.9511 63.4055 56.1929C63.1701 56.4347 63.0145 56.7305 62.9387 57.0801C62.8609 57.422 62.8706 57.7829 62.9676 58.1627C63.0647 58.5425 63.2303 58.8676 63.4646 59.138C63.6969 59.4006 63.9743 59.5816 64.2969 59.6808C64.6195 59.78 64.9513 59.786 65.2924 59.6989ZM71.8245 52.679C72.0105 52.6314 72.1878 52.5985 72.3566 52.5801L72.6329 53.6614C72.4854 53.666 72.2606 53.707 71.9583 53.7842C71.6172 53.8714 71.3348 54.0261 71.1109 54.2485C70.8947 54.4689 70.7467 54.7297 70.6667 55.0308C70.5926 55.3223 70.5951 55.623 70.6744 55.933L71.4796 59.0838L70.3751 59.366L68.8894 53.5529L69.9358 53.2855L70.1646 54.1807C70.3024 53.8152 70.5152 53.5007 70.8029 53.2373C71.0964 52.9641 71.4369 52.778 71.8245 52.679ZM77.8586 57.5774C77.285 57.724 76.7282 57.7259 76.188 57.5832C75.6459 57.4328 75.1808 57.1636 74.7926 56.7756C74.4025 56.3799 74.1361 55.903 73.9935 55.3449C73.8509 54.7868 73.8568 54.2445 74.0112 53.7179C74.1636 53.1835 74.4426 52.7241 74.848 52.3398C75.2515 51.9476 75.74 51.6783 76.3136 51.5317C76.8794 51.3871 77.4295 51.391 77.9639 51.5435C78.504 51.6862 78.9692 51.9554 79.3593 52.3511C79.7475 52.7391 80.0128 53.2121 80.1555 53.7702C80.2981 54.3282 80.2932 54.8745 80.1407 55.4088C79.9863 55.9355 79.7074 56.3948 79.3039 56.7869C78.9062 57.1693 78.4244 57.4328 77.8586 57.5774ZM77.5971 56.5543C77.9537 56.4632 78.2574 56.2947 78.5084 56.0489C78.7574 55.7954 78.9285 55.4957 79.0218 55.1498C79.113 54.7962 79.1112 54.4334 79.0161 54.0613C78.921 53.6893 78.7496 53.3739 78.5018 53.1152C78.252 52.8488 77.9581 52.6679 77.62 52.5727C77.2799 52.4697 76.9316 52.4637 76.5751 52.5548C76.2108 52.6479 75.9003 52.8222 75.6435 53.0778C75.3926 53.3236 75.2214 53.6233 75.1302 53.9769C75.0369 54.3227 75.0378 54.6817 75.1329 55.0537C75.228 55.4258 75.4004 55.745 75.6501 56.0115C75.8979 56.2702 76.1918 56.451 76.5319 56.554C76.8778 56.6473 77.2329 56.6474 77.5971 56.5543ZM86.7265 48.9945L85.7125 55.4464L84.2708 55.8149L80.2855 50.6405L81.5179 50.3256L84.7356 54.5318L85.529 49.3005L86.7265 48.9945ZM90.5531 47.8927C91.15 47.7402 91.7019 47.7353 92.2091 47.8782C92.724 48.0191 93.162 48.2952 93.5232 48.7066C93.8823 49.1103 94.1421 49.626 94.3025 50.2539C94.3441 50.4166 94.3709 50.5378 94.383 50.6172L89.6162 51.8354C89.8086 52.2652 90.1129 52.5837 90.5292 52.7911C90.9513 52.9888 91.391 53.0292 91.8483 52.9123C92.6002 52.7202 93.0647 52.3083 93.2418 51.6768L94.3812 51.3856C94.3338 51.9757 94.1028 52.5095 93.6881 52.9871C93.2715 53.4569 92.7454 53.773 92.1098 53.9354C91.544 54.08 90.9997 54.0829 90.4771 53.9439C89.9524 53.7973 89.5038 53.528 89.1311 53.136C88.7565 52.7364 88.4959 52.2497 88.3493 51.6762C88.2027 51.1026 88.1989 50.5545 88.3378 50.0318C88.4747 49.5014 88.7353 49.0508 89.1195 48.6802C89.5094 48.2998 89.9873 48.0373 90.5531 47.8927ZM90.7795 48.8752C90.3222 48.9921 89.9635 49.2365 89.7035 49.6085C89.4513 49.9785 89.3438 50.3981 89.3812 50.8675L92.9505 49.9553C92.7851 49.5022 92.5002 49.1786 92.0956 48.9848C91.6987 48.7889 91.26 48.7524 90.7795 48.8752ZM100.193 43.014L102.288 51.2105L101.183 51.4928L100.96 50.6208C100.799 50.9923 100.571 51.3107 100.275 51.5761C99.978 51.8338 99.6355 52.0122 99.2479 52.1112C98.7364 52.2419 98.2386 52.2329 97.7547 52.0841C97.2688 51.9275 96.8473 51.6513 96.4901 51.2554C96.133 50.8595 95.8801 50.3709 95.7316 49.7896C95.583 49.2082 95.5704 48.6582 95.6939 48.1395C95.8173 47.6208 96.0556 47.1801 96.4087 46.8173C96.7599 46.4468 97.1913 46.1962 97.7029 46.0655C98.1059 45.9625 98.5056 45.9594 98.902 46.0563C99.2983 46.1532 99.663 46.3366 99.9963 46.6065L99.1465 43.2814L100.193 43.014ZM99.1725 51.0405C99.5135 50.9534 99.8018 50.7889 100.037 50.5471C100.273 50.3052 100.429 50.0134 100.507 49.6715C100.583 49.3218 100.572 48.9571 100.475 48.5773C100.378 48.1975 100.213 47.8763 99.9811 47.6136C99.7469 47.3432 99.4685 47.1584 99.1458 47.0592C98.8232 46.96 98.4914 46.9539 98.1504 47.0411C97.8093 47.1282 97.525 47.2917 97.2973 47.5316C97.0696 47.7714 96.9178 48.0662 96.842 48.4158C96.7643 48.7577 96.7739 49.1186 96.871 49.4984C96.968 49.8782 97.1337 50.2033 97.3679 50.4737C97.6002 50.7364 97.8738 50.9183 98.1886 51.0195C98.5035 51.1207 98.8314 51.1277 99.1725 51.0405ZM110.648 49.1979C109.919 49.3841 109.259 49.3711 108.668 49.1588C108.083 48.9368 107.674 48.5295 107.44 47.937L108.544 47.6547C108.73 47.9622 108.979 48.1627 109.292 48.2562C109.611 48.3399 109.995 48.3243 110.445 48.2094C110.863 48.1024 111.183 47.9504 111.406 47.7533C111.626 47.5484 111.708 47.3374 111.653 47.1204C111.597 46.9034 111.464 46.7556 111.254 46.6772C111.05 46.589 110.702 46.5666 110.209 46.6099L109.517 46.663C108.058 46.7715 107.217 46.3878 106.993 45.512C106.862 45.0004 106.982 44.5322 107.353 44.1073C107.721 43.6746 108.269 43.3651 108.998 43.179C109.657 43.0106 110.258 43.022 110.803 43.2132C111.345 43.3966 111.747 43.7438 112.01 44.2546L110.836 44.5547C110.683 44.346 110.46 44.2133 110.164 44.1566C109.867 44.0922 109.56 44.1006 109.242 44.1818C108.839 44.2848 108.533 44.429 108.324 44.6144C108.122 44.7901 108.047 44.9826 108.1 45.1919C108.148 45.3779 108.277 45.5101 108.487 45.5886C108.695 45.6593 109.004 45.6751 109.415 45.6361L110.119 45.58C110.944 45.5098 111.557 45.5842 111.96 45.8033C112.361 46.0146 112.623 46.3606 112.745 46.8411C112.876 47.3527 112.753 47.8258 112.377 48.2604C112.007 48.6854 111.43 48.9978 110.648 49.1979ZM116.063 41.3734C116.66 41.2209 117.212 41.2161 117.719 41.359C118.234 41.4999 118.672 41.776 119.033 42.1874C119.392 42.591 119.652 43.1068 119.812 43.7346C119.854 43.8974 119.881 44.0185 119.893 44.098L115.126 45.3162C115.318 45.7459 115.623 46.0645 116.039 46.2719C116.461 46.4695 116.901 46.5099 117.358 46.393C118.11 46.2009 118.574 45.7891 118.752 45.1575L119.891 44.8664C119.844 45.4565 119.613 45.9903 119.198 46.4678C118.781 46.9376 118.255 47.2537 117.62 47.4162C117.054 47.5608 116.51 47.5636 115.987 47.4247C115.462 47.278 115.014 47.0087 114.641 46.6168C114.266 46.2171 114.006 45.7305 113.859 45.1569C113.713 44.5833 113.709 44.0352 113.848 43.5126C113.985 42.9821 114.245 42.5316 114.629 42.1609C115.019 41.7805 115.497 41.518 116.063 41.3734ZM116.289 42.356C115.832 42.4729 115.473 42.7173 115.213 43.0892C114.961 43.4592 114.854 43.8789 114.891 44.3482L118.46 43.4361C118.295 42.9829 118.01 42.6594 117.605 42.4655C117.209 42.2697 116.77 42.2332 116.289 42.356ZM121.241 43.2703C121.099 42.7122 121.105 42.1699 121.259 41.6433C121.412 41.1089 121.69 40.6495 122.096 40.2652C122.499 39.873 122.988 39.6037 123.562 39.4571C124.205 39.2927 124.831 39.335 125.439 39.5841C126.054 39.8234 126.52 40.2246 126.837 40.7876L125.628 41.0966C125.417 40.8202 125.141 40.6305 124.801 40.5275C124.467 40.4148 124.121 40.404 123.765 40.4951C123.401 40.5882 123.098 40.7605 122.857 41.0121C122.613 41.2559 122.45 41.5536 122.366 41.9052C122.281 42.2491 122.286 42.6071 122.381 42.9791C122.476 43.3512 122.644 43.6714 122.886 43.9399C123.126 44.2005 123.413 44.3834 123.745 44.4884C124.075 44.5856 124.423 44.5877 124.787 44.4946C125.143 44.4034 125.442 44.2321 125.684 43.9805C125.931 43.7192 126.08 43.4167 126.133 43.073L127.342 42.764C127.334 43.4102 127.119 43.9895 126.696 44.502C126.28 45.0048 125.75 45.3384 125.107 45.5028C124.533 45.6494 123.976 45.6513 123.436 45.5086C122.894 45.3582 122.429 45.089 122.041 44.701C121.65 44.3053 121.384 43.8284 121.241 43.2703ZM133.389 37.0695L134.874 42.8827L133.828 43.1501L133.59 42.22C133.455 42.5932 133.241 42.9203 132.949 43.2013C132.664 43.4724 132.327 43.6576 131.939 43.7566C131.467 43.8774 131.015 43.8856 130.583 43.7812C130.16 43.6747 129.784 43.4487 129.456 43.1031C129.134 42.7477 128.898 42.2755 128.748 41.6865L127.924 38.466L129.029 38.1837L129.846 41.381C129.977 41.8925 130.232 42.2608 130.611 42.4858C130.991 42.7109 131.409 42.765 131.867 42.6481C132.2 42.5629 132.471 42.4111 132.679 42.1927C132.893 41.9646 133.032 41.698 133.094 41.3931C133.164 41.0862 133.159 40.7738 133.078 40.456L132.284 37.3518L133.389 37.0695ZM138.767 35.5713C138.953 35.5237 139.13 35.4908 139.299 35.4725L139.575 36.5537C139.428 36.5584 139.203 36.5993 138.901 36.6766C138.56 36.7637 138.277 36.9185 138.053 37.1408C137.837 37.3612 137.689 37.622 137.609 37.9232C137.535 38.2146 137.537 38.5153 137.617 38.8254L138.422 41.9761L137.317 42.2584L135.832 36.4452L136.878 36.1778L137.107 37.073C137.245 36.7075 137.457 36.3931 137.745 36.1296C138.039 35.8564 138.379 35.6703 138.767 35.5713ZM142.173 34.8247L143.658 40.6379L142.554 40.9202L141.068 35.107L142.173 34.8247ZM141.648 32.4816L141.975 33.7605L140.743 34.0755L140.416 32.7966L141.648 32.4816ZM146.334 34.8761L147.118 37.9455C147.181 38.1935 147.292 38.3675 147.45 38.4676C147.615 38.5657 147.857 38.5741 148.174 38.4929C148.469 38.4177 148.719 38.329 148.924 38.2271L149.182 39.2386C148.975 39.3658 148.717 39.469 148.407 39.5482C147.771 39.7106 147.252 39.6823 146.849 39.4632C146.445 39.2364 146.166 38.8245 146.013 38.2277L145.229 35.1584L144.066 35.4555L143.799 34.4091L144.962 34.112L144.575 32.6006L145.68 32.3183L146.066 33.8297L148.973 33.0869L149.24 34.1333L146.334 34.8761ZM155.047 31.5346L153.631 40.1949L152.434 40.5009L152.82 38.185L148.524 33.2015L149.838 32.8657L153.101 36.8622L153.826 31.8466L155.047 31.5346Z" fill="black"/>
<path fill-rule="evenodd" clip-rule="evenodd" d="M51.9061 153.48C54.6272 167.19 85.1842 172.956 120.157 166.36C137.898 163.014 153.368 157.129 163.95 150.353C174.228 143.772 179.894 136.349 178.554 129.594L147.572 114.356C145.611 114.194 143.585 114.084 141.5 114.028C132.043 113.774 121.395 114.623 110.303 116.715C75.33 123.311 49.1849 139.771 51.9061 153.48Z" fill="black"/>
<path d="M178.554 129.594C179.894 136.349 174.228 143.772 163.95 150.353C153.368 157.129 137.898 163.014 120.157 166.36C85.1842 172.956 54.6272 167.19 51.9061 153.48C49.1849 139.771 75.33 123.311 110.303 116.715C121.395 114.623 132.043 113.774 141.5 114.028C143.585 114.084 145.611 114.194 147.572 114.356M178.554 129.594C176.886 121.192 164.761 115.773 147.572 114.356M178.554 129.594L147.572 114.356" stroke="black" stroke-width="1.25385"/>
<ellipse rx="63.7014" ry="25.5684" transform="matrix(0.94056 -0.339626 0.392141 0.919905 110.065 131.676)" fill="#F1EFED" stroke="black" stroke-width="1.25385" stroke-linejoin="round"/>
<path d="M66.4998 144.696L68.3935 150.011L67.3836 150.371L65.4899 145.056L66.4998 144.696ZM65.8061 142.547L66.2227 143.716L65.0959 144.118L64.6793 142.949L65.8061 142.547ZM71.4037 142.829C71.8359 142.675 72.255 142.629 72.6608 142.692C73.0737 142.753 73.4463 142.936 73.7785 143.241C74.1153 143.536 74.3797 143.953 74.5716 144.491L75.6207 147.436L74.6108 147.796L73.5693 144.873C73.4027 144.405 73.1319 144.082 72.7571 143.904C72.3822 143.726 71.9857 143.712 71.5676 143.861C71.2629 143.969 71.0201 144.14 70.8392 144.372C70.663 144.594 70.5552 144.852 70.516 145.146C70.4839 145.437 70.5197 145.727 70.6232 146.018L71.6344 148.856L70.6245 149.216L68.7308 143.901L69.6876 143.56L69.9906 144.411C70.0855 144.049 70.255 143.729 70.4991 143.451C70.7478 143.162 71.0493 142.955 71.4037 142.829ZM79.6568 146.118C78.9906 146.355 78.3717 146.4 77.7999 146.252C77.2327 146.095 76.814 145.749 76.5437 145.214L77.5535 144.855C77.7542 145.127 78.0051 145.293 78.3062 145.353C78.6118 145.404 78.9701 145.356 79.3811 145.21C79.7638 145.073 80.0506 144.903 80.2416 144.7C80.43 144.489 80.4888 144.284 80.4181 144.086C80.3474 143.887 80.2104 143.76 80.007 143.705C79.8082 143.64 79.48 143.649 79.0224 143.732L78.3787 143.842C77.0222 144.07 76.2014 143.783 75.9161 142.982C75.7494 142.514 75.8211 142.066 76.1311 141.636C76.4386 141.199 76.9255 140.862 77.5916 140.624C78.194 140.41 78.7583 140.368 79.2845 140.5C79.8082 140.625 80.2151 140.915 80.5052 141.371L79.4316 141.754C79.2708 141.571 79.0497 141.466 78.7684 141.439C78.4845 141.404 78.1973 141.439 77.9067 141.542C77.5382 141.674 77.2643 141.835 77.085 142.027C76.9103 142.209 76.857 142.395 76.9252 142.587C76.9858 142.757 77.1178 142.87 77.3212 142.925C77.522 142.973 77.8133 142.961 78.1949 142.889L78.8493 142.776C79.6151 142.639 80.1961 142.655 80.5922 142.826C80.9858 142.989 81.2608 143.29 81.4174 143.73C81.584 144.197 81.51 144.651 81.1954 145.09C80.8854 145.52 80.3725 145.863 79.6568 146.118ZM83.412 139.748L84.4119 142.555C84.4927 142.782 84.6077 142.936 84.7569 143.019C84.9132 143.099 85.126 143.091 85.3953 142.995C85.6504 142.904 85.859 142.806 86.021 142.7L86.3505 143.625C86.1819 143.757 85.9594 143.872 85.683 143.971C84.5562 144.372 83.7959 144.02 83.402 142.915L82.4021 140.108L81.3391 140.487L80.9983 139.53L82.0613 139.152L81.5689 137.77L82.5788 137.41L83.0711 138.792L84.5594 138.262L84.9002 139.218L83.412 139.748ZM90.9931 135.969L92.8868 141.284L91.8769 141.644L91.5929 140.847C91.4742 141.209 91.2879 141.527 91.0342 141.801C90.7779 142.068 90.4726 142.264 90.1183 142.39C89.6506 142.557 89.1837 142.592 88.7177 142.494C88.2492 142.39 87.8306 142.167 87.4619 141.827C87.0932 141.488 86.8142 141.052 86.6249 140.52C86.4355 139.989 86.3762 139.475 86.4469 138.979C86.5176 138.482 86.7026 138.049 87.002 137.679C87.2988 137.301 87.6811 137.029 88.1488 136.863C88.5174 136.732 88.8914 136.694 89.2709 136.751C89.6504 136.807 90.0078 136.947 90.3431 137.171L90.0364 136.31L90.9931 135.969ZM89.9551 141.394C90.2669 141.283 90.5226 141.104 90.7222 140.858C90.9217 140.611 91.0432 140.324 91.0864 139.997C91.1272 139.663 91.0857 139.322 90.962 138.975C90.8382 138.628 90.6563 138.341 90.4161 138.116C90.1733 137.883 89.8966 137.734 89.586 137.669C89.2753 137.604 88.964 137.627 88.6522 137.738C88.3404 137.849 88.0883 138.026 87.8958 138.271C87.7033 138.515 87.5867 138.804 87.5459 139.138C87.5027 139.465 87.5429 139.802 87.6666 140.149C87.7903 140.497 87.9736 140.787 88.2163 141.02C88.4565 141.246 88.7284 141.392 89.032 141.46C89.3356 141.527 89.6433 141.506 89.9551 141.394ZM95.9007 134.101C96.333 133.947 96.752 133.901 97.1579 133.964C97.5708 134.025 97.9433 134.208 98.2756 134.513C98.6124 134.808 98.8767 135.225 99.0686 135.763L100.118 138.708L99.1079 139.068L98.0664 136.145C97.8997 135.677 97.629 135.354 97.2541 135.176C96.8792 134.998 96.4828 134.984 96.0646 135.133C95.7599 135.241 95.5171 135.412 95.3363 135.644C95.16 135.866 95.0523 136.124 95.0131 136.418C94.981 136.709 95.0167 136.999 95.1202 137.29L96.1315 140.128L95.1216 140.488L93.2279 135.173L94.1846 134.832L94.4876 135.683C94.5825 135.321 94.752 135.001 94.9962 134.723C95.2448 134.434 95.5464 134.227 95.9007 134.101ZM101.917 133.155L102.917 135.962C102.998 136.188 103.113 136.343 103.262 136.426C103.418 136.506 103.631 136.498 103.9 136.402C104.156 136.311 104.364 136.213 104.526 136.107L104.856 137.032C104.687 137.164 104.465 137.279 104.188 137.378C103.061 137.779 102.301 137.427 101.907 136.321L100.907 133.515L99.8443 133.894L99.5034 132.937L100.566 132.558L100.074 131.176L101.084 130.817L101.576 132.199L103.064 131.668L103.405 132.625L101.917 133.155ZM109.946 130.295L110.946 133.101C111.026 133.328 111.141 133.483 111.291 133.565C111.447 133.645 111.66 133.637 111.929 133.541C112.184 133.45 112.393 133.352 112.555 133.247L112.884 134.171C112.716 134.303 112.493 134.419 112.217 134.517C111.09 134.918 110.33 134.566 109.936 133.461L108.936 130.655L107.873 131.033L107.532 130.077L108.595 129.698L108.103 128.316L109.113 127.956L109.605 129.338L111.093 128.808L111.434 129.765L109.946 130.295ZM115.467 127.13C115.637 127.069 115.8 127.023 115.957 126.991L116.309 127.98C116.171 127.997 115.964 128.055 115.688 128.153C115.376 128.264 115.125 128.434 114.934 128.661C114.751 128.886 114.635 129.143 114.586 129.432C114.542 129.711 114.57 129.993 114.671 130.276L115.698 133.157L114.688 133.517L112.794 128.202L113.751 127.861L114.042 128.679C114.14 128.325 114.312 128.012 114.558 127.741C114.81 127.46 115.112 127.256 115.467 127.13ZM122.097 124.887L123.99 130.202L122.98 130.562L122.696 129.765C122.578 130.127 122.391 130.445 122.138 130.719C121.881 130.986 121.576 131.182 121.222 131.309C120.754 131.475 120.287 131.51 119.821 131.412C119.353 131.308 118.934 131.086 118.565 130.746C118.197 130.406 117.918 129.97 117.728 129.439C117.539 128.907 117.48 128.393 117.55 127.897C117.621 127.4 117.806 126.967 118.106 126.597C118.402 126.22 118.785 125.948 119.252 125.781C119.621 125.65 119.995 125.612 120.374 125.669C120.754 125.725 121.111 125.865 121.447 126.089L121.14 125.228L122.097 124.887ZM121.059 130.313C121.37 130.202 121.626 130.023 121.826 129.776C122.025 129.529 122.147 129.242 122.19 128.915C122.231 128.581 122.189 128.241 122.065 127.893C121.942 127.546 121.76 127.26 121.52 127.034C121.277 126.801 121 126.652 120.689 126.587C120.379 126.522 120.068 126.545 119.756 126.656C119.444 126.767 119.192 126.945 118.999 127.189C118.807 127.433 118.69 127.722 118.649 128.056C118.606 128.383 118.646 128.72 118.77 129.067C118.894 129.415 119.077 129.705 119.32 129.938C119.56 130.164 119.832 130.31 120.135 130.378C120.439 130.445 120.747 130.424 121.059 130.313ZM124.8 126.919C124.618 126.409 124.577 125.901 124.676 125.394C124.772 124.88 124.994 124.426 125.34 124.031C125.684 123.629 126.118 123.335 126.643 123.148C127.231 122.938 127.821 122.924 128.412 123.104C129.008 123.275 129.479 123.611 129.825 124.111L128.719 124.504C128.498 124.264 128.223 124.11 127.896 124.043C127.573 123.966 127.249 123.986 126.923 124.102C126.59 124.221 126.321 124.408 126.117 124.665C125.91 124.914 125.783 125.207 125.735 125.544C125.685 125.873 125.72 126.208 125.842 126.548C125.963 126.888 126.148 127.173 126.398 127.404C126.645 127.627 126.929 127.774 127.25 127.843C127.567 127.906 127.893 127.878 128.226 127.759C128.552 127.643 128.817 127.457 129.021 127.2C129.23 126.934 129.344 126.638 129.363 126.312L130.469 125.918C130.517 126.523 130.365 127.085 130.014 127.601C129.668 128.108 129.2 128.466 128.612 128.676C128.088 128.862 127.567 128.912 127.048 128.825C126.528 128.731 126.069 128.519 125.672 128.19C125.272 127.853 124.982 127.429 124.8 126.919ZM133.611 123.995L133.12 124.937L133.756 126.723L132.746 127.083L130.076 119.589L131.086 119.229L132.703 123.768L134.339 120.525L135.679 120.048L134.116 123.025L137.796 125.284L136.446 125.765L133.611 123.995ZM138.342 119.099L140.236 124.414L139.226 124.774L137.333 119.459L138.342 119.099ZM137.649 116.95L138.065 118.12L136.939 118.521L136.522 117.352L137.649 116.95ZM143.246 117.232C143.679 117.078 144.098 117.033 144.503 117.096C144.916 117.156 145.289 117.339 145.621 117.644C145.958 117.939 146.222 118.356 146.414 118.895L147.463 121.839L146.453 122.199L145.412 119.276C145.245 118.808 144.975 118.485 144.6 118.307C144.225 118.129 143.828 118.115 143.41 118.264C143.106 118.373 142.863 118.543 142.682 118.775C142.506 118.998 142.398 119.256 142.359 119.549C142.327 119.84 142.362 120.131 142.466 120.421L143.477 123.26L142.467 123.619L140.573 118.304L141.53 117.963L141.833 118.814C141.928 118.453 142.098 118.133 142.342 117.854C142.59 117.566 142.892 117.358 143.246 117.232ZM153.397 116.467C153.559 116.92 153.599 117.369 153.518 117.813C153.436 118.258 153.22 118.658 152.868 119.015C153.243 118.993 153.544 119.054 153.771 119.197C154.005 119.337 154.169 119.542 154.265 119.811C154.417 120.236 154.385 120.639 154.169 121.02C153.962 121.405 153.615 121.684 153.126 121.858L151.712 122.362C151.23 122.534 150.787 122.544 150.381 122.393C149.976 122.242 149.7 121.961 149.554 121.55C149.352 120.983 149.536 120.47 150.108 120.011C149.641 119.977 149.224 119.806 148.859 119.497C148.5 119.186 148.241 118.807 148.082 118.36C147.918 117.9 147.882 117.441 147.975 116.985C148.073 116.519 148.284 116.104 148.61 115.74C148.936 115.377 149.34 115.109 149.821 114.937C150.502 114.695 151.173 114.751 151.834 115.107L151.573 114.373L152.53 114.032L153.397 116.467ZM151.346 119.114C151.665 119.001 151.925 118.824 152.127 118.584C152.329 118.345 152.456 118.072 152.507 117.766C152.564 117.458 152.537 117.145 152.423 116.826C152.312 116.514 152.138 116.261 151.901 116.066C151.67 115.868 151.403 115.744 151.097 115.693C150.791 115.642 150.479 115.674 150.16 115.787C149.685 115.956 149.348 116.252 149.147 116.675C148.951 117.089 148.937 117.533 149.106 118.007C149.278 118.489 149.573 118.835 149.991 119.046C150.417 119.254 150.868 119.276 151.346 119.114ZM152.753 121.081C152.98 121 153.146 120.873 153.252 120.699C153.365 120.523 153.39 120.347 153.327 120.169C153.259 119.978 153.127 119.845 152.933 119.771C152.739 119.696 152.525 119.701 152.291 119.784L151.037 120.231C150.803 120.314 150.634 120.446 150.531 120.627C150.427 120.807 150.41 120.993 150.478 121.185C150.541 121.362 150.668 121.484 150.86 121.551C151.059 121.616 151.272 121.608 151.499 121.528L152.753 121.081Z" fill="black"/>
<path fill-rule="evenodd" clip-rule="evenodd" d="M324.62 191.724C360.802 192.117 390.218 184.72 390.321 175.203C390.424 165.686 361.177 157.653 324.994 157.26C317.416 157.177 310.135 157.437 303.357 157.986L259.314 174.27C260.199 183.571 289.061 191.338 324.62 191.724Z" fill="black"/>
<path d="M259.314 174.27C260.199 183.571 289.061 191.338 324.62 191.724C360.802 192.117 390.218 184.72 390.321 175.203C390.424 165.686 361.177 157.653 324.994 157.26C317.416 157.177 310.135 157.437 303.357 157.986M259.314 174.27C259.299 174.107 259.292 173.944 259.294 173.78C259.376 166.257 277.776 160.058 303.357 157.986M259.314 174.27L303.357 157.986" stroke="black" stroke-width="1.25385"/>
<ellipse cx="326.936" cy="162.041" rx="65.5174" ry="22.6375" transform="rotate(11.0447 326.936 162.041)" fill="#F1EFED" stroke="black" stroke-width="1.25385" stroke-linejoin="round"/>
<path d="M281.091 150.264C281.609 150.366 282.054 150.593 282.425 150.944C282.797 151.287 283.059 151.714 283.211 152.225C283.363 152.736 283.38 153.286 283.264 153.874C283.147 154.463 282.922 154.965 282.587 155.38C282.252 155.794 281.846 156.093 281.369 156.276C280.894 156.451 280.398 156.488 279.88 156.385C279.488 156.308 279.136 156.148 278.825 155.907C278.515 155.658 278.27 155.353 278.089 154.991L277.914 155.874L276.796 155.652L278.438 147.353L279.498 147.563L278.831 150.93C279.149 150.642 279.503 150.439 279.894 150.32C280.284 150.202 280.683 150.183 281.091 150.264ZM279.897 155.312C280.242 155.38 280.569 155.355 280.878 155.237C281.187 155.119 281.45 154.922 281.667 154.647C281.886 154.364 282.034 154.031 282.11 153.646C282.186 153.262 282.176 152.901 282.08 152.564C281.985 152.219 281.817 151.933 281.577 151.706C281.336 151.479 281.043 151.331 280.698 151.263C280.353 151.194 280.022 151.218 279.705 151.335C279.388 151.452 279.121 151.652 278.901 151.935C278.684 152.21 278.537 152.539 278.461 152.924C278.385 153.308 278.394 153.673 278.489 154.018C278.585 154.355 278.758 154.638 279.006 154.867C279.254 155.095 279.551 155.244 279.897 155.312ZM288.356 151.702C288.96 151.821 289.46 152.055 289.856 152.402C290.26 152.751 290.537 153.189 290.685 153.716C290.835 154.235 290.847 154.813 290.722 155.448C290.689 155.613 290.661 155.734 290.638 155.811L285.811 154.856C285.8 155.326 285.937 155.745 286.223 156.112C286.519 156.472 286.898 156.698 287.361 156.789C288.122 156.94 288.719 156.769 289.151 156.275L290.305 156.504C290.008 157.016 289.569 157.398 288.989 157.65C288.411 157.894 287.8 157.953 287.156 157.825C286.583 157.712 286.091 157.48 285.679 157.129C285.269 156.771 284.98 156.335 284.813 155.82C284.647 155.298 284.622 154.747 284.737 154.166C284.852 153.585 285.084 153.089 285.435 152.677C285.787 152.258 286.216 151.963 286.723 151.794C287.239 151.619 287.783 151.588 288.356 151.702ZM288.137 152.686C287.674 152.594 287.245 152.66 286.85 152.884C286.463 153.109 286.185 153.441 286.016 153.881L289.63 154.596C289.676 154.116 289.559 153.701 289.277 153.352C289.003 153.004 288.623 152.782 288.137 152.686ZM294.47 154.135L293.855 157.243C293.805 157.494 293.83 157.699 293.929 157.857C294.036 158.017 294.251 158.129 294.572 158.192C294.871 158.251 295.134 158.279 295.363 158.275L295.161 159.3C294.919 159.325 294.641 159.307 294.327 159.245C293.684 159.117 293.228 158.868 292.959 158.497C292.691 158.118 292.617 157.626 292.737 157.022L293.352 153.914L292.175 153.681L292.384 152.621L293.562 152.854L293.864 151.324L294.983 151.545L294.68 153.076L297.623 153.658L297.413 154.718L294.47 154.135ZM299.324 155.096L298.709 158.204C298.659 158.455 298.68 158.659 298.771 158.815C298.87 158.974 299.069 159.082 299.367 159.141C299.65 159.197 299.894 159.221 300.099 159.213L299.896 160.237C299.671 160.266 299.405 160.25 299.099 160.189C297.851 159.942 297.348 159.206 297.59 157.982L298.205 154.874L297.028 154.641L297.238 153.582L298.415 153.815L298.718 152.285L299.836 152.506L299.533 154.036L301.181 154.363L300.972 155.422L299.324 155.096ZM305.457 155.086C306.061 155.206 306.561 155.44 306.958 155.787C307.361 156.136 307.638 156.574 307.786 157.101C307.936 157.62 307.948 158.197 307.823 158.833C307.79 158.998 307.762 159.119 307.739 159.196L302.912 158.24C302.901 158.711 303.038 159.13 303.324 159.496C303.62 159.857 303.999 160.082 304.462 160.174C305.224 160.325 305.82 160.153 306.252 159.66L307.406 159.888C307.109 160.4 306.67 160.782 306.09 161.035C305.512 161.279 304.901 161.337 304.257 161.21C303.684 161.097 303.192 160.865 302.78 160.514C302.37 160.156 302.081 159.719 301.914 159.205C301.748 158.683 301.723 158.131 301.838 157.551C301.953 156.97 302.185 156.474 302.536 156.062C302.888 155.642 303.318 155.348 303.824 155.179C304.34 155.004 304.884 154.973 305.457 155.086ZM305.238 156.071C304.775 155.979 304.346 156.045 303.951 156.269C303.564 156.494 303.286 156.826 303.117 157.266L306.731 157.981C306.777 157.501 306.66 157.086 306.378 156.737C306.104 156.389 305.724 156.167 305.238 156.071ZM313.392 156.657C313.58 156.694 313.755 156.741 313.915 156.797L313.698 157.892C313.563 157.833 313.342 157.773 313.036 157.712C312.691 157.644 312.37 157.662 312.072 157.766C311.782 157.871 311.536 158.043 311.334 158.28C311.141 158.511 311.014 158.784 310.952 159.098L310.32 162.288L309.202 162.066L310.367 156.181L311.426 156.39L311.247 157.297C311.529 157.026 311.856 156.834 312.23 156.72C312.612 156.6 313 156.579 313.392 156.657ZM322.064 158.373C322.668 158.493 323.168 158.726 323.564 159.074C323.968 159.423 324.244 159.861 324.393 160.388C324.543 160.907 324.555 161.484 324.429 162.12C324.397 162.285 324.369 162.406 324.345 162.482L319.519 161.527C319.507 161.998 319.645 162.417 319.931 162.783C320.227 163.143 320.606 163.369 321.069 163.461C321.83 163.612 322.427 163.44 322.859 162.947L324.013 163.175C323.716 163.687 323.277 164.069 322.697 164.321C322.119 164.566 321.508 164.624 320.864 164.497C320.291 164.383 319.799 164.151 319.387 163.801C318.977 163.442 318.688 163.006 318.521 162.492C318.355 161.97 318.33 161.418 318.444 160.837C318.559 160.257 318.792 159.76 319.143 159.349C319.495 158.929 319.924 158.635 320.431 158.466C320.947 158.291 321.491 158.26 322.064 158.373ZM321.845 159.357C321.382 159.266 320.953 159.332 320.558 159.555C320.171 159.78 319.893 160.113 319.724 160.553L323.338 161.268C323.384 160.788 323.266 160.373 322.985 160.024C322.711 159.676 322.331 159.454 321.845 159.357ZM330.287 161.224L328.238 160.819L327.283 165.645L326.165 165.424L327.12 160.597L325.943 160.364L326.152 159.305L327.33 159.538L327.455 158.902C327.575 158.298 327.838 157.877 328.244 157.639C328.659 157.395 329.208 157.341 329.891 157.476C330.095 157.516 330.296 157.568 330.496 157.632C330.695 157.696 330.836 157.749 330.917 157.789L330.715 158.813C330.504 158.723 330.172 158.632 329.716 158.542C329.347 158.469 329.075 158.485 328.9 158.589C328.732 158.694 328.623 158.872 328.574 159.124L328.448 159.759L330.496 160.165L330.287 161.224ZM336.887 162.53L332.885 161.738L331.93 166.565L330.811 166.343L331.767 161.517L330.589 161.284L330.799 160.225L331.976 160.458L332.102 159.822C332.222 159.218 332.484 158.797 332.89 158.559C333.306 158.315 333.855 158.26 334.537 158.396C334.741 158.436 334.943 158.488 335.142 158.552C335.342 158.616 335.482 158.668 335.564 158.709L335.361 159.733C335.151 159.642 334.818 159.552 334.363 159.462C333.994 159.389 333.722 159.404 333.546 159.508C333.379 159.614 333.27 159.792 333.22 160.043L333.095 160.679L337.097 161.471L336.887 162.53ZM337.742 161.599L336.577 167.484L335.458 167.263L336.623 161.377L337.742 161.599ZM338.278 159.258L338.022 160.553L336.774 160.306L337.03 159.011L338.278 159.258ZM339.1 164.926C339.212 164.361 339.451 163.874 339.817 163.465C340.185 163.049 340.635 162.754 341.166 162.582C341.699 162.402 342.256 162.37 342.837 162.485C343.488 162.614 344.035 162.922 344.477 163.409C344.928 163.889 345.176 164.452 345.219 165.097L343.995 164.855C343.924 164.514 343.757 164.224 343.494 163.985C343.241 163.739 342.934 163.58 342.573 163.509C342.204 163.436 341.857 163.461 341.531 163.584C341.206 163.699 340.93 163.897 340.704 164.179C340.478 164.452 340.328 164.777 340.254 165.154C340.179 165.531 340.193 165.892 340.296 166.239C340.4 166.578 340.579 166.866 340.834 167.104C341.09 167.334 341.403 167.485 341.772 167.558C342.133 167.63 342.476 167.604 342.802 167.481C343.138 167.352 343.403 167.143 343.599 166.856L344.823 167.098C344.537 167.678 344.093 168.108 343.491 168.388C342.899 168.662 342.277 168.735 341.626 168.606C341.045 168.491 340.541 168.253 340.116 167.891C339.691 167.522 339.388 167.078 339.205 166.561C339.023 166.036 338.988 165.491 339.1 164.926ZM348.552 163.738L347.387 169.624L346.269 169.403L347.434 163.517L348.552 163.738ZM349.089 161.398L348.832 162.693L347.585 162.446L347.841 161.151L349.089 161.398ZM353.53 164.601C354.134 164.721 354.634 164.954 355.03 165.302C355.434 165.651 355.711 166.089 355.859 166.616C356.009 167.135 356.021 167.712 355.896 168.348C355.863 168.513 355.835 168.633 355.812 168.71L350.985 167.755C350.974 168.226 351.111 168.644 351.397 169.011C351.693 169.371 352.072 169.597 352.535 169.689C353.296 169.839 353.893 169.668 354.325 169.175L355.479 169.403C355.182 169.915 354.743 170.297 354.163 170.549C353.585 170.794 352.974 170.852 352.33 170.725C351.757 170.611 351.265 170.379 350.853 170.029C350.443 169.67 350.154 169.234 349.987 168.72C349.821 168.197 349.796 167.646 349.911 167.065C350.026 166.485 350.258 165.988 350.609 165.577C350.961 165.157 351.39 164.863 351.897 164.694C352.413 164.519 352.957 164.488 353.53 164.601ZM353.311 165.585C352.848 165.494 352.419 165.56 352.024 165.783C351.637 166.008 351.359 166.341 351.19 166.78L354.804 167.496C354.85 167.015 354.733 166.601 354.451 166.251C354.177 165.904 353.797 165.682 353.311 165.585ZM361.465 166.172C361.944 166.266 362.351 166.453 362.688 166.732C363.032 167.012 363.272 167.382 363.41 167.841C363.557 168.294 363.571 168.819 363.453 169.415L362.808 172.676L361.689 172.455L362.33 169.218C362.433 168.7 362.361 168.257 362.116 167.891C361.87 167.524 361.516 167.295 361.053 167.203C360.715 167.136 360.401 167.16 360.109 167.273C359.827 167.381 359.588 167.558 359.393 167.804C359.205 168.053 359.079 168.338 359.015 168.659L358.393 171.802L357.275 171.581L358.44 165.695L359.499 165.905L359.313 166.847C359.596 166.568 359.925 166.368 360.3 166.247C360.684 166.119 361.073 166.094 361.465 166.172ZM365.216 170.095C365.328 169.53 365.567 169.043 365.933 168.634C366.301 168.218 366.751 167.923 367.282 167.751C367.815 167.571 368.372 167.539 368.953 167.654C369.604 167.783 370.151 168.091 370.593 168.578C371.044 169.058 371.292 169.621 371.335 170.266L370.111 170.024C370.04 169.683 369.873 169.393 369.61 169.154C369.357 168.908 369.05 168.749 368.689 168.678C368.32 168.605 367.973 168.63 367.647 168.753C367.322 168.868 367.047 169.066 366.82 169.348C366.594 169.621 366.444 169.946 366.37 170.323C366.295 170.7 366.309 171.061 366.412 171.408C366.516 171.746 366.696 172.035 366.95 172.273C367.206 172.503 367.519 172.654 367.888 172.727C368.249 172.799 368.592 172.773 368.918 172.65C369.254 172.521 369.519 172.312 369.715 172.025L370.939 172.267C370.653 172.847 370.209 173.277 369.607 173.557C369.015 173.831 368.393 173.904 367.742 173.775C367.161 173.66 366.658 173.422 366.232 173.06C365.807 172.691 365.504 172.247 365.321 171.73C365.139 171.205 365.104 170.66 365.216 170.095ZM379.1 169.784L374.09 176.989L372.877 176.749L374.224 174.826L372.496 168.477L373.826 168.741L375.048 173.753L377.864 169.54L379.1 169.784Z" fill="black"/>
<path d="M428.287 240.106C426.04 239.502 423.757 239.039 421.452 238.721C421.43 238.719 421.408 238.711 421.388 238.7C421.369 238.689 421.352 238.674 421.338 238.656C421.324 238.638 421.314 238.617 421.309 238.595C421.303 238.573 421.302 238.55 421.306 238.528C421.312 238.483 421.336 238.443 421.372 238.415C421.408 238.388 421.454 238.376 421.499 238.382V238.382C423.815 238.71 426.109 239.183 428.367 239.797C428.387 239.803 428.406 239.812 428.422 239.825C428.439 239.838 428.453 239.854 428.463 239.872C428.473 239.89 428.48 239.91 428.483 239.931C428.485 239.952 428.484 239.973 428.478 239.993C428.467 240.033 428.441 240.067 428.405 240.088C428.369 240.109 428.327 240.116 428.287 240.106Z" fill="black"/>
<path d="M414.503 238.02L407.511 237.753C407.463 237.746 407.419 237.722 407.388 237.684C407.357 237.647 407.341 237.6 407.342 237.551C407.344 237.503 407.364 237.457 407.398 237.422C407.431 237.387 407.477 237.366 407.525 237.363L414.54 237.652C414.588 237.654 414.634 237.675 414.667 237.711C414.699 237.746 414.716 237.794 414.714 237.842C414.712 237.891 414.691 237.936 414.656 237.969C414.62 238.002 414.573 238.019 414.524 238.017L414.503 238.02Z" fill="black"/>
<path d="M400.506 237.8L393.504 238.068C393.451 238.062 393.402 238.038 393.366 237.999C393.33 237.96 393.31 237.91 393.308 237.857C393.306 237.804 393.323 237.753 393.357 237.711C393.39 237.67 393.437 237.642 393.489 237.633V237.633L400.485 237.382C400.512 237.381 400.538 237.386 400.564 237.395C400.589 237.405 400.612 237.419 400.631 237.438C400.651 237.457 400.666 237.479 400.677 237.504C400.688 237.528 400.693 237.555 400.693 237.582C400.695 237.609 400.692 237.636 400.683 237.661C400.674 237.686 400.66 237.71 400.642 237.729C400.623 237.749 400.601 237.765 400.577 237.776C400.552 237.786 400.525 237.792 400.499 237.792L400.506 237.8Z" fill="black"/>
<path d="M386.515 238.497L379.488 238.998C379.426 239.002 379.364 238.98 379.317 238.938C379.271 238.896 379.242 238.838 379.238 238.775C379.236 238.744 379.24 238.713 379.249 238.684C379.259 238.654 379.275 238.627 379.295 238.603C379.315 238.58 379.34 238.561 379.368 238.547C379.396 238.533 379.426 238.525 379.457 238.524L386.447 238.058C386.508 238.056 386.567 238.077 386.612 238.117C386.657 238.158 386.685 238.214 386.69 238.274C386.69 238.325 386.672 238.375 386.641 238.415C386.609 238.456 386.565 238.484 386.515 238.497V238.497Z" fill="black"/>
<path d="M372.52 239.345L365.534 239.93C365.466 239.936 365.4 239.914 365.349 239.87C365.297 239.826 365.266 239.764 365.26 239.696C365.255 239.629 365.277 239.562 365.321 239.511C365.364 239.46 365.427 239.428 365.494 239.423V239.423L372.498 238.844C372.53 238.841 372.562 238.844 372.592 238.854C372.623 238.863 372.651 238.879 372.675 238.9C372.699 238.92 372.719 238.946 372.733 238.974C372.748 239.003 372.756 239.034 372.758 239.066C372.763 239.13 372.742 239.193 372.701 239.242C372.659 239.29 372.6 239.321 372.536 239.326L372.52 239.345Z" fill="black"/>
<path d="M358.574 240.669L351.624 241.553C351.59 241.557 351.555 241.555 351.522 241.546C351.489 241.536 351.458 241.521 351.431 241.5C351.403 241.478 351.381 241.452 351.364 241.422C351.347 241.392 351.336 241.359 351.332 241.325C351.324 241.256 351.344 241.187 351.386 241.132C351.429 241.077 351.491 241.041 351.559 241.032V241.032L358.52 240.161C358.587 240.153 358.654 240.172 358.707 240.213C358.761 240.254 358.796 240.315 358.805 240.382C358.81 240.415 358.807 240.449 358.799 240.481C358.79 240.514 358.775 240.544 358.755 240.571C358.734 240.598 358.708 240.62 358.679 240.636C358.65 240.653 358.618 240.663 358.584 240.667L358.574 240.669Z" fill="black"/>
<path d="M344.688 242.529L337.761 243.579C337.7 243.574 337.643 243.549 337.598 243.508C337.553 243.467 337.522 243.412 337.512 243.352C337.501 243.292 337.511 243.23 337.539 243.176C337.567 243.122 337.613 243.079 337.668 243.053V243.053L344.604 242.021C344.668 242.021 344.729 242.044 344.778 242.085C344.826 242.127 344.858 242.184 344.868 242.247C344.877 242.31 344.864 242.375 344.83 242.429C344.796 242.483 344.744 242.523 344.683 242.542L344.688 242.529Z" fill="black"/>
<path d="M330.831 244.664L323.898 245.761C323.858 245.773 323.817 245.776 323.776 245.77C323.736 245.764 323.697 245.749 323.662 245.727C323.627 245.705 323.598 245.676 323.575 245.641C323.553 245.607 323.538 245.568 323.531 245.527C323.525 245.487 323.528 245.445 323.539 245.405C323.55 245.366 323.569 245.329 323.595 245.297C323.622 245.266 323.654 245.24 323.691 245.222C323.728 245.204 323.769 245.194 323.81 245.193L330.739 244.124C330.813 244.112 330.888 244.131 330.949 244.175C331.009 244.219 331.049 244.286 331.061 244.36C331.072 244.434 331.054 244.509 331.01 244.57C330.966 244.63 330.899 244.671 330.825 244.682L330.831 244.664Z" fill="black"/>
<path d="M316.974 246.785L310.034 247.786C309.954 247.796 309.874 247.775 309.81 247.726C309.746 247.678 309.704 247.606 309.693 247.526C309.681 247.448 309.702 247.368 309.749 247.304C309.797 247.241 309.867 247.199 309.946 247.187V247.187L316.884 246.206C316.923 246.2 316.962 246.202 317 246.212C317.038 246.222 317.073 246.239 317.104 246.262C317.135 246.286 317.161 246.315 317.181 246.348C317.2 246.382 317.213 246.419 317.218 246.458C317.229 246.533 317.209 246.61 317.163 246.672C317.118 246.733 317.05 246.773 316.974 246.785V246.785Z" fill="black"/>
<path d="M303.076 248.692L296.105 249.48C296.063 249.487 296.02 249.486 295.978 249.476C295.937 249.466 295.898 249.448 295.864 249.422C295.829 249.396 295.801 249.364 295.78 249.327C295.758 249.29 295.745 249.249 295.74 249.206C295.735 249.164 295.739 249.121 295.752 249.08C295.764 249.039 295.785 249.001 295.812 248.969C295.84 248.936 295.874 248.909 295.912 248.89C295.951 248.871 295.992 248.861 296.035 248.858L302.998 248.082C303.039 248.074 303.083 248.074 303.124 248.084C303.166 248.093 303.205 248.111 303.24 248.136C303.274 248.161 303.303 248.193 303.325 248.23C303.346 248.267 303.36 248.308 303.364 248.351C303.369 248.393 303.365 248.436 303.352 248.477C303.34 248.518 303.319 248.555 303.291 248.588C303.263 248.62 303.228 248.646 303.189 248.664C303.151 248.682 303.109 248.692 303.066 248.694L303.076 248.692Z" fill="black"/>
<path d="M289.114 250.117L282.109 250.568C282.022 250.573 281.937 250.544 281.871 250.487C281.805 250.429 281.765 250.348 281.76 250.261C281.754 250.174 281.783 250.088 281.84 250.022C281.898 249.957 281.979 249.916 282.066 249.911V249.911L289.054 249.48C289.134 249.483 289.209 249.516 289.266 249.572C289.323 249.628 289.357 249.703 289.362 249.782C289.367 249.862 289.342 249.94 289.292 250.003C289.243 250.065 289.172 250.107 289.093 250.12L289.114 250.117Z" fill="black"/>
<path d="M275.091 250.786L268.065 250.745C267.982 250.735 267.905 250.694 267.85 250.631C267.794 250.568 267.764 250.486 267.765 250.402C267.766 250.318 267.798 250.237 267.855 250.175C267.912 250.113 267.99 250.074 268.074 250.066V250.066L275.07 250.122C275.113 250.122 275.157 250.131 275.197 250.148C275.237 250.165 275.274 250.189 275.304 250.221C275.335 250.252 275.359 250.289 275.376 250.329C275.392 250.37 275.4 250.413 275.4 250.457C275.401 250.541 275.369 250.622 275.311 250.683C275.254 250.745 275.175 250.781 275.091 250.786V250.786Z" fill="black"/>
<path d="M261.051 250.391L254.058 249.69C254.012 249.685 253.967 249.671 253.926 249.649C253.886 249.627 253.85 249.598 253.82 249.562C253.791 249.526 253.769 249.484 253.756 249.44C253.742 249.396 253.738 249.349 253.743 249.303C253.747 249.257 253.761 249.212 253.783 249.171C253.805 249.131 253.835 249.095 253.87 249.065C253.906 249.036 253.948 249.014 253.992 249.001C254.036 248.987 254.083 248.983 254.129 248.987L261.083 249.701C261.129 249.705 261.173 249.719 261.213 249.741C261.253 249.762 261.289 249.792 261.318 249.827C261.347 249.863 261.368 249.904 261.381 249.947C261.394 249.991 261.398 250.037 261.393 250.083C261.385 250.168 261.345 250.246 261.282 250.303C261.219 250.361 261.136 250.392 261.051 250.391V250.391Z" fill="black"/>
<path d="M247.11 248.595L243.668 247.887C242.512 247.623 241.376 247.277 240.269 246.852C240.177 246.821 240.102 246.755 240.059 246.668C240.016 246.582 240.01 246.481 240.041 246.39C240.072 246.298 240.138 246.223 240.225 246.18C240.312 246.138 240.412 246.131 240.503 246.162V246.162C241.578 246.577 242.68 246.914 243.803 247.172L247.224 247.883C247.27 247.892 247.314 247.91 247.353 247.936C247.393 247.962 247.426 247.996 247.453 248.035C247.479 248.074 247.497 248.118 247.506 248.164C247.515 248.211 247.514 248.258 247.505 248.305C247.488 248.394 247.438 248.473 247.364 248.527C247.291 248.581 247.2 248.605 247.11 248.595V248.595Z" fill="black"/>
<path d="M233.907 243.768C231.872 242.588 229.909 241.288 228.029 239.874C227.99 239.844 227.956 239.807 227.931 239.764C227.906 239.722 227.89 239.675 227.883 239.626C227.869 239.527 227.894 239.427 227.954 239.347C228.014 239.267 228.103 239.214 228.202 239.2C228.301 239.186 228.401 239.212 228.481 239.272V239.272C230.336 240.669 232.272 241.956 234.279 243.124C234.364 243.174 234.426 243.256 234.452 243.351C234.478 243.447 234.465 243.548 234.417 243.635C234.366 243.72 234.285 243.781 234.189 243.806C234.094 243.831 233.993 243.817 233.907 243.768V243.768Z" fill="black"/>
<path d="M222.638 235.336C220.929 233.713 219.34 231.968 217.883 230.115C217.846 230.075 217.819 230.028 217.801 229.977C217.784 229.926 217.778 229.872 217.782 229.818C217.787 229.764 217.803 229.711 217.828 229.664C217.854 229.616 217.89 229.575 217.932 229.542C217.975 229.508 218.024 229.484 218.076 229.471C218.129 229.457 218.183 229.455 218.237 229.464C218.29 229.472 218.341 229.492 218.386 229.521C218.432 229.551 218.471 229.589 218.5 229.634C219.93 231.46 221.49 233.18 223.168 234.781C223.204 234.816 223.234 234.858 223.254 234.904C223.274 234.951 223.285 235.001 223.285 235.052C223.286 235.103 223.277 235.153 223.258 235.2C223.239 235.247 223.211 235.29 223.175 235.326C223.14 235.362 223.099 235.391 223.053 235.411C223.008 235.431 222.959 235.442 222.909 235.443C222.859 235.444 222.809 235.435 222.763 235.417C222.717 235.398 222.674 235.371 222.638 235.336Z" fill="black"/>
<path d="M214.082 224.134C213.012 222.002 212.29 219.712 211.946 217.35C211.939 217.298 211.942 217.245 211.955 217.194C211.969 217.144 211.992 217.096 212.024 217.054C212.056 217.013 212.096 216.978 212.142 216.952C212.188 216.927 212.238 216.91 212.291 216.904C212.395 216.892 212.5 216.921 212.584 216.985C212.667 217.05 212.722 217.144 212.736 217.249V217.249C213.066 219.526 213.762 221.735 214.797 223.79C214.82 223.836 214.833 223.886 214.837 223.938C214.84 223.99 214.833 224.041 214.817 224.09C214.8 224.139 214.774 224.184 214.74 224.223C214.706 224.262 214.664 224.294 214.618 224.317C214.571 224.34 214.519 224.354 214.467 224.358C214.415 224.361 214.362 224.354 214.312 224.337C214.262 224.32 214.216 224.294 214.177 224.259C214.138 224.224 214.105 224.182 214.082 224.134Z" fill="black"/>
<path d="M212.57 210.241C212.952 209.104 213.459 208.012 214.081 206.986C214.384 206.475 214.717 205.981 215.077 205.508L216.143 204.087C216.207 204.002 216.303 203.945 216.409 203.93C216.515 203.916 216.622 203.943 216.708 204.008C216.793 204.072 216.85 204.168 216.864 204.274C216.879 204.38 216.851 204.488 216.787 204.573V204.573L216.778 204.6L215.744 205.987C215.388 206.437 215.062 206.91 214.768 207.403C214.178 208.379 213.697 209.416 213.332 210.496C213.316 210.546 213.29 210.592 213.255 210.632C213.221 210.672 213.179 210.704 213.132 210.728C213.085 210.751 213.034 210.765 212.981 210.769C212.929 210.772 212.876 210.765 212.826 210.749C212.776 210.732 212.73 210.706 212.69 210.672C212.65 210.637 212.617 210.595 212.593 210.548C212.569 210.501 212.555 210.45 212.551 210.397C212.547 210.344 212.553 210.291 212.57 210.241Z" fill="black"/>
<path d="M221.166 199.089C222.997 197.595 224.941 196.246 226.981 195.052C227.027 195.022 227.079 195.001 227.133 194.991C227.187 194.981 227.243 194.982 227.297 194.994C227.35 195.006 227.401 195.03 227.446 195.062C227.49 195.095 227.528 195.136 227.556 195.183C227.584 195.231 227.602 195.284 227.609 195.338C227.617 195.393 227.612 195.449 227.597 195.502C227.582 195.555 227.556 195.605 227.522 195.648C227.487 195.69 227.444 195.726 227.395 195.751C225.395 196.933 223.488 198.266 221.691 199.737C221.608 199.805 221.502 199.837 221.395 199.826C221.289 199.816 221.191 199.764 221.122 199.682C221.084 199.641 221.054 199.593 221.035 199.54C221.017 199.488 221.009 199.432 221.013 199.376C221.017 199.32 221.033 199.266 221.059 199.216C221.085 199.167 221.122 199.124 221.166 199.089Z" fill="black"/>
<path d="M233.224 191.803C235.369 190.839 237.553 189.977 239.768 189.195C239.868 189.171 239.973 189.184 240.063 189.233C240.153 189.282 240.222 189.362 240.255 189.459C240.289 189.556 240.286 189.662 240.245 189.756C240.205 189.85 240.131 189.926 240.038 189.969V189.969C237.845 190.744 235.679 191.597 233.563 192.551C233.465 192.586 233.358 192.583 233.263 192.543C233.168 192.503 233.091 192.428 233.048 192.334C233.006 192.239 233 192.132 233.033 192.034C233.065 191.936 233.134 191.853 233.224 191.803V191.803Z" fill="black"/>
<path d="M246.477 187.072L253.282 185.324C253.388 185.298 253.501 185.315 253.595 185.371C253.69 185.427 253.758 185.518 253.787 185.624C253.814 185.731 253.797 185.844 253.741 185.939C253.685 186.034 253.593 186.102 253.487 186.13V186.13L246.704 187.856C246.652 187.87 246.597 187.872 246.544 187.865C246.49 187.857 246.439 187.839 246.392 187.811C246.346 187.783 246.305 187.746 246.273 187.703C246.24 187.659 246.217 187.61 246.204 187.557C246.182 187.457 246.197 187.352 246.248 187.262C246.298 187.173 246.38 187.105 246.477 187.072V187.072Z" fill="black"/>
<path d="M260.153 183.857L267.062 182.599C267.168 182.588 267.273 182.617 267.358 182.681C267.443 182.745 267.5 182.838 267.519 182.943C267.538 183.047 267.517 183.155 267.459 183.244C267.402 183.334 267.313 183.398 267.211 183.425V183.425L260.323 184.676C260.215 184.696 260.102 184.672 260.011 184.609C259.92 184.546 259.858 184.449 259.838 184.34C259.818 184.231 259.842 184.119 259.905 184.028C259.968 183.936 260.065 183.874 260.173 183.854L260.153 183.857Z" fill="black"/>
<path d="M273.985 181.486L280.926 180.44C280.981 180.432 281.036 180.434 281.09 180.448C281.144 180.461 281.194 180.485 281.239 180.518C281.283 180.55 281.321 180.592 281.35 180.639C281.378 180.686 281.397 180.739 281.405 180.794C281.414 180.848 281.411 180.904 281.398 180.958C281.385 181.012 281.361 181.062 281.328 181.107C281.295 181.151 281.254 181.189 281.207 181.218C281.159 181.246 281.107 181.265 281.052 181.274L274.116 182.32C274.006 182.337 273.893 182.309 273.803 182.243C273.713 182.177 273.653 182.078 273.637 181.967C273.62 181.856 273.648 181.744 273.714 181.654C273.78 181.564 273.879 181.504 273.99 181.487L273.985 181.486Z" fill="black"/>
</svg>
