<svg width="436" height="191" viewBox="0 0 436 191" fill="none" xmlns="http://www.w3.org/2000/svg">
<path fill-rule="evenodd" clip-rule="evenodd" d="M371.771 190.731H429.547V174.144H385.183L371.771 183.32V190.731ZM278.377 163.831H325.383V162.184H278.377C277.272 162.184 276.377 161.289 276.377 160.184V154.538C276.377 153.433 277.272 152.538 278.377 152.538H325.383V150.891H280.956V146.891H327.383C328.487 146.891 329.383 147.786 329.383 148.891V154.538C329.383 155.642 328.487 156.538 327.383 156.538H280.377V158.184H327.383C328.487 158.184 329.383 159.08 329.383 160.184V165.831C329.383 166.936 328.487 167.831 327.383 167.831H278.377V163.831ZM417.524 167.327C417.582 167.331 417.64 167.332 417.698 167.33L417.964 167.319C418.021 167.316 418.078 167.311 418.135 167.302L418.401 167.26C418.455 167.252 418.509 167.24 418.562 167.226L418.828 167.154C418.877 167.14 418.925 167.125 418.972 167.107L419.238 167.004C419.281 166.988 419.323 166.97 419.364 166.95L419.63 166.819C419.666 166.801 419.701 166.782 419.736 166.761L420.002 166.602C420.032 166.585 420.062 166.566 420.09 166.546L420.357 166.361C420.367 166.353 420.378 166.345 420.389 166.337C420.402 166.328 420.416 166.317 420.429 166.307L420.695 166.097C420.715 166.082 420.734 166.065 420.754 166.049L421.02 165.816C421.036 165.802 421.052 165.788 421.067 165.773L421.333 165.519C421.346 165.507 421.359 165.495 421.371 165.482L421.637 165.21L421.647 165.2L421.667 165.179L421.934 164.891L421.946 164.878L421.956 164.866L422.223 164.564L422.24 164.544L422.506 164.231L422.519 164.217L422.785 163.896L422.793 163.887L423.059 163.561L423.062 163.557L423.328 163.23L423.329 163.229L423.589 162.908L423.594 162.902L423.851 162.589L424.106 162.285L424.355 161.996L424.599 161.724L424.837 161.472L425.067 161.243L425.312 161.017C425.921 160.455 425.958 159.506 425.396 158.897C424.834 158.288 423.885 158.25 423.277 158.812L423.01 159.058C422.996 159.071 422.983 159.084 422.969 159.098L422.703 159.363C422.692 159.374 422.681 159.385 422.671 159.396L422.404 159.679L422.387 159.697L422.379 159.706L422.112 160.003L422.093 160.025L421.827 160.334L421.813 160.351L421.546 160.668L421.537 160.68L421.271 161.004L421.266 161.01L421 161.338L420.999 161.339L420.736 161.663L420.732 161.667L420.477 161.98L420.469 161.989L420.217 162.293L419.965 162.588L419.719 162.867L419.479 163.127L419.246 163.365L419.022 163.578L418.808 163.764L418.607 163.923L418.421 164.052L418.251 164.154L418.101 164.228L417.969 164.278L417.855 164.309L417.755 164.325L417.661 164.329L417.567 164.322L417.463 164.302L417.344 164.266L417.207 164.209L417.051 164.127L416.876 164.018L416.685 163.88L416.48 163.713L416.263 163.518L416.037 163.298L415.802 163.053L415.56 162.788L415.312 162.504L415.059 162.204L414.804 161.896L414.798 161.888L414.54 161.572L414.538 161.569L414.273 161.243L414.271 161.241L414.005 160.914L413.999 160.906L413.733 160.584L413.722 160.571L413.456 160.255L413.44 160.237L413.174 159.932L413.161 159.917L413.153 159.908L412.887 159.615L412.874 159.601L412.859 159.586L412.593 159.308C412.581 159.296 412.57 159.285 412.558 159.273L412.292 159.013L412.272 158.994C412.264 158.987 412.256 158.979 412.248 158.972L411.982 158.732C411.974 158.725 411.966 158.718 411.958 158.711C411.947 158.702 411.937 158.694 411.927 158.685L411.661 158.468C411.639 158.45 411.616 158.433 411.593 158.416L411.327 158.222C411.3 158.203 411.273 158.184 411.244 158.166L410.978 157.999C410.946 157.978 410.912 157.959 410.878 157.941L410.612 157.801C410.573 157.78 410.534 157.761 410.493 157.745L410.227 157.633C410.182 157.614 410.136 157.597 410.089 157.582L409.823 157.5C409.772 157.484 409.72 157.471 409.667 157.461L409.401 157.409C409.345 157.398 409.289 157.391 409.233 157.386L408.967 157.365C408.909 157.36 408.851 157.359 408.793 157.361L408.526 157.371C408.469 157.373 408.412 157.378 408.355 157.387L408.089 157.427C408.035 157.435 407.981 157.447 407.928 157.461L407.662 157.532C407.613 157.545 407.564 157.56 407.517 157.578L407.251 157.679C407.208 157.695 407.166 157.714 407.124 157.734L406.858 157.864C406.844 157.87 406.831 157.877 406.817 157.884C406.795 157.896 406.773 157.908 406.751 157.921L406.485 158.079C406.455 158.097 406.425 158.116 406.396 158.136L406.13 158.32C406.105 158.337 406.081 158.355 406.057 158.373L405.791 158.582C405.782 158.589 405.772 158.597 405.763 158.604C405.753 158.613 405.742 158.622 405.732 158.631L405.465 158.863C405.449 158.877 405.433 158.891 405.418 158.906L405.151 159.159L405.134 159.176L405.113 159.196L404.847 159.467L404.832 159.482L404.817 159.499L404.551 159.786L404.54 159.798L404.527 159.812L404.261 160.113L404.244 160.133L403.977 160.445L403.965 160.46L403.699 160.78L403.691 160.79L403.425 161.116L403.421 161.12L403.155 161.447L403.155 161.448L402.894 161.769L402.889 161.775L402.632 162.088L402.377 162.393L402.127 162.683L401.883 162.956L401.645 163.209L401.415 163.438L401.194 163.643L400.984 163.82L400.788 163.969L400.607 164.089L400.444 164.181L400.299 164.247L400.174 164.29L400.065 164.316L399.968 164.327L399.875 164.328L399.778 164.317L399.67 164.292L399.545 164.249L399.402 164.184L399.239 164.094L399.059 163.975L398.863 163.827L398.654 163.651L398.433 163.448L398.204 163.219L397.966 162.967L397.722 162.695L397.472 162.406L397.218 162.101L396.958 161.786L396.695 161.462L396.695 161.461L396.429 161.134L396.426 161.13L396.159 160.804L396.152 160.794L395.885 160.474L395.873 160.459L395.607 160.147L395.59 160.127L395.323 159.825C395.316 159.817 395.308 159.808 395.3 159.8L395.034 159.512L395.02 159.497L395.004 159.48L394.738 159.208C394.726 159.196 394.713 159.184 394.7 159.171L394.434 158.918C394.419 158.903 394.403 158.889 394.387 158.875L394.12 158.642L394.098 158.623C394.086 158.613 394.074 158.603 394.062 158.594L393.796 158.384C393.772 158.365 393.748 158.347 393.723 158.33L393.457 158.145C393.428 158.125 393.399 158.106 393.369 158.088L393.103 157.93C393.068 157.909 393.033 157.89 392.997 157.872L392.73 157.741C392.706 157.729 392.68 157.717 392.655 157.706C392.638 157.699 392.622 157.693 392.605 157.686L392.339 157.584C392.292 157.566 392.244 157.55 392.195 157.537L391.928 157.465C391.876 157.451 391.822 157.439 391.768 157.431L391.502 157.389C391.445 157.38 391.388 157.374 391.331 157.372L391.065 157.361C391.007 157.359 390.949 157.36 390.891 157.364L390.624 157.384C390.568 157.388 390.512 157.396 390.456 157.406L390.19 157.457C390.137 157.467 390.085 157.48 390.034 157.495L389.767 157.576C389.748 157.582 389.73 157.588 389.711 157.595C389.683 157.604 389.656 157.615 389.628 157.626L389.362 157.737C389.321 157.754 389.282 157.772 389.243 157.793L388.976 157.932C388.942 157.95 388.908 157.969 388.876 157.99L388.609 158.156C388.581 158.174 388.553 158.193 388.526 158.212L388.26 158.405L388.247 158.414L388.223 158.432C388.213 158.44 388.202 158.449 388.192 158.457L387.926 158.674L387.908 158.688L387.889 158.704L387.87 158.721L387.604 158.96L387.585 158.977C387.577 158.985 387.568 158.993 387.56 159.001L387.294 159.26L387.272 159.281L387.258 159.296L386.992 159.573C386.983 159.582 386.973 159.592 386.964 159.602L386.698 159.894C386.691 159.902 386.684 159.91 386.677 159.918L386.411 160.223L386.395 160.242L386.128 160.557L386.118 160.57L385.851 160.892L385.845 160.9L385.579 161.227L385.577 161.229L385.312 161.555L385.31 161.558L385.049 161.879L384.791 162.191L384.538 162.491L384.289 162.776L384.047 163.043L383.812 163.288L383.585 163.51L383.368 163.705L383.162 163.873L382.97 164.013L382.795 164.123L382.638 164.206L382.5 164.264L382.38 164.301L382.276 164.321L382.181 164.329L382.088 164.325L381.907 164.298C381.088 164.173 380.323 164.736 380.198 165.555C380.074 166.374 380.637 167.139 381.456 167.264L381.722 167.304C381.779 167.313 381.836 167.318 381.893 167.32L382.16 167.33C382.218 167.332 382.276 167.331 382.333 167.326L382.6 167.305C382.656 167.3 382.712 167.293 382.768 167.282L383.034 167.23C383.087 167.219 383.138 167.206 383.19 167.191L383.456 167.108C383.503 167.094 383.549 167.077 383.594 167.058L383.86 166.946C383.901 166.929 383.94 166.911 383.979 166.89L384.245 166.75C384.279 166.732 384.312 166.713 384.345 166.692L384.611 166.524C384.639 166.507 384.667 166.488 384.694 166.469L384.96 166.275C384.983 166.258 385.006 166.241 385.028 166.223L385.294 166.005C385.312 165.99 385.331 165.975 385.348 165.959L385.615 165.719C385.63 165.705 385.644 165.692 385.659 165.678L385.925 165.418L385.943 165.4L385.96 165.383L386.226 165.105L386.238 165.092L386.253 165.076L386.52 164.783L386.525 164.777L386.541 164.759L386.807 164.454L386.823 164.435L387.089 164.12L387.1 164.107L387.366 163.784L387.372 163.777L387.638 163.45L387.64 163.447L387.904 163.122L387.907 163.119L388.168 162.799L388.425 162.487L388.679 162.187L388.926 161.903L389.168 161.637L389.403 161.393L389.63 161.172L389.847 160.978L390.052 160.811L390.243 160.673L390.418 160.564L390.574 160.482L390.711 160.425L390.83 160.389L390.934 160.369L391.028 160.362L391.122 160.366L391.222 160.382L391.336 160.413L391.467 160.463L391.618 160.537L391.788 160.638L391.974 160.768L392.175 160.926L392.389 161.113L392.613 161.326L392.846 161.564L393.086 161.824L393.332 162.103L393.584 162.398L393.84 162.707L394.099 163.024L394.103 163.028L394.366 163.352L394.366 163.353L394.633 163.681L394.638 163.687L394.904 164.011L394.913 164.022L395.18 164.34L395.194 164.357L395.46 164.666L395.479 164.687L395.746 164.984C395.754 164.994 395.762 165.003 395.771 165.012L396.037 165.294C396.048 165.306 396.059 165.317 396.07 165.328L396.336 165.593L396.348 165.604L396.358 165.614L396.377 165.632L396.644 165.878C396.66 165.894 396.677 165.909 396.695 165.924L396.961 166.148C396.982 166.165 397.003 166.182 397.025 166.198L397.291 166.399C397.316 166.418 397.342 166.437 397.369 166.454L397.635 166.63C397.666 166.65 397.697 166.669 397.73 166.687L397.996 166.835C398.033 166.856 398.071 166.875 398.109 166.892L398.375 167.013C398.419 167.032 398.463 167.05 398.508 167.065L398.774 167.156C398.824 167.173 398.874 167.187 398.925 167.199L399.191 167.26C399.246 167.272 399.301 167.282 399.356 167.288L399.623 167.318C399.68 167.325 399.738 167.328 399.796 167.328L400.062 167.327C400.12 167.327 400.177 167.324 400.235 167.317L400.501 167.285C400.556 167.279 400.611 167.269 400.666 167.256L400.932 167.194C400.983 167.182 401.033 167.168 401.082 167.151L401.348 167.059C401.393 167.043 401.437 167.025 401.48 167.006L401.746 166.884C401.784 166.867 401.822 166.848 401.858 166.827L402.125 166.678C402.157 166.66 402.188 166.641 402.219 166.62L402.485 166.444C402.511 166.426 402.537 166.408 402.562 166.389L402.828 166.187C402.85 166.171 402.871 166.154 402.891 166.137L403.158 165.912C403.175 165.897 403.192 165.882 403.208 165.867L403.475 165.62C403.488 165.607 403.502 165.594 403.515 165.581L403.782 165.315C403.793 165.304 403.803 165.293 403.814 165.281L404.08 164.998L404.088 164.99L404.105 164.971L404.372 164.674L404.391 164.652L404.657 164.343L404.671 164.326L404.937 164.008L404.946 163.997L405.213 163.673L405.217 163.667L405.484 163.339L405.484 163.338L405.747 163.014L405.751 163.01L406.01 162.693L406.266 162.385L406.517 162.09L406.763 161.812L407.003 161.553L407.235 161.317L407.459 161.105L407.672 160.919L407.873 160.762L408.059 160.633L408.227 160.534L408.377 160.46L408.508 160.411L408.621 160.381L408.721 160.366L408.814 160.362L408.909 160.37L409.013 160.39L409.133 160.427L409.271 160.485L409.428 160.568L409.604 160.678L409.795 160.818L410.001 160.986L410.218 161.181L410.445 161.403L410.68 161.648L410.923 161.915L411.171 162.199L411.424 162.499L411.682 162.812L411.943 163.133L411.945 163.135L412.21 163.461L412.212 163.464L412.478 163.791L412.484 163.799L412.751 164.121L412.762 164.134L413.028 164.449L413.044 164.468L413.31 164.773C413.317 164.781 413.324 164.789 413.331 164.796L413.598 165.089C413.607 165.099 413.616 165.109 413.625 165.118L413.892 165.395L413.911 165.415L413.927 165.431L414.193 165.69C414.203 165.7 414.213 165.709 414.224 165.719L414.237 165.731L414.504 165.97C414.522 165.986 414.54 166.002 414.559 166.017L414.825 166.234C414.835 166.242 414.846 166.25 414.856 166.258C414.868 166.268 414.881 166.277 414.893 166.286L415.159 166.478C415.186 166.498 415.214 166.517 415.243 166.534L415.509 166.701C415.542 166.722 415.575 166.741 415.609 166.759L415.876 166.898C415.915 166.918 415.955 166.937 415.995 166.954L416.262 167.065C416.307 167.083 416.353 167.1 416.4 167.114L416.667 167.195C416.718 167.211 416.77 167.224 416.823 167.234L417.089 167.285C417.145 167.295 417.201 167.303 417.258 167.307L417.524 167.327ZM429.874 118.697L361.266 118.697V117.285L429.874 117.285V118.697ZM282.082 70.2319L350.691 70.2319V68.8202L282.082 68.8202V70.2319ZM305.554 64.938L374.162 64.938V63.5263L305.554 63.5263V64.938ZM350.69 59.644L282.082 59.644V58.2323L350.69 58.2323V59.644ZM320.145 55.143C320.174 55.1441 320.203 55.1443 320.232 55.1437L320.498 55.1382C320.527 55.1376 320.556 55.1362 320.585 55.134L320.851 55.1131C320.879 55.1109 320.908 55.1078 320.936 55.104L321.202 55.0679C321.229 55.0642 321.256 55.0598 321.283 55.0547L321.549 55.0037C321.574 54.9988 321.6 54.9933 321.625 54.9871L321.891 54.9216C321.915 54.9158 321.938 54.9094 321.961 54.9025L322.228 54.8231C322.249 54.8167 322.27 54.8098 322.292 54.8025L322.558 54.71L322.582 54.7012C322.593 54.6972 322.604 54.693 322.615 54.6887L322.882 54.5838C322.899 54.5771 322.916 54.5701 322.932 54.5628L323.199 54.4465C323.213 54.44 323.228 54.4333 323.243 54.4264L323.509 54.2997L323.52 54.2942L323.547 54.2811L323.813 54.1452L323.833 54.1345L323.844 54.1286L324.111 53.9846L324.136 53.9704L324.403 53.8196L324.423 53.8082L324.689 53.6519L324.703 53.6433L324.97 53.483L324.979 53.4774L325.245 53.3145L325.249 53.312L325.515 53.1485L325.516 53.1479L325.775 52.9883L325.781 52.9846L326.03 52.833L326.041 52.8262L326.288 52.6789L326.535 52.5357L326.777 52.4012L327.012 52.2763L327.242 52.162L327.488 52.0484C328.24 51.7012 328.569 50.81 328.221 50.0579C327.874 49.3057 326.983 48.9774 326.231 49.3246L325.965 49.4475L325.944 49.457L325.925 49.4667L325.658 49.5993C325.647 49.605 325.636 49.6107 325.624 49.6167L325.358 49.7578C325.349 49.7627 325.34 49.7678 325.33 49.7729L325.064 49.9213L325.042 49.9338L324.776 50.0882L324.759 50.0979L324.493 50.2568L324.482 50.2635L324.215 50.4256L324.209 50.4294L323.943 50.5932L323.942 50.5938L323.68 50.7553L323.676 50.7579L323.423 50.9126L323.413 50.9182L323.164 51.0686L322.915 51.2147L322.671 51.3527L322.433 51.4813L322.201 51.5996L321.976 51.7069L321.757 51.8026L321.544 51.8862L321.339 51.9577L321.139 52.0171L320.946 52.0646L320.758 52.1006L320.574 52.1256L320.393 52.1398L320.214 52.1435L320.034 52.1367L319.853 52.1194L319.668 52.0913L319.478 52.052L319.283 52.001L319.082 51.9381L318.875 51.8631L318.66 51.776L318.439 51.6768L318.212 51.5663L317.978 51.4449L317.739 51.3134L317.494 51.173L317.243 51.0247L316.991 50.8721L316.983 50.8674L316.727 50.7103L316.724 50.7087L316.461 50.5461L316.458 50.5446L316.192 50.3812L316.184 50.3766L315.918 50.2153L315.905 50.2076L315.639 50.0499L315.621 50.0393L315.355 49.8866L315.331 49.8733L315.065 49.7269L315.053 49.7206L315.035 49.7111L314.769 49.5723L314.75 49.5626L314.733 49.5544L314.467 49.4244C314.453 49.4177 314.439 49.4111 314.425 49.4048L314.159 49.2849C314.143 49.2777 314.127 49.2708 314.11 49.2641L313.844 49.1553C313.826 49.1479 313.807 49.1408 313.789 49.134L313.523 49.0373L313.498 49.0287L313.491 49.0263L313.479 49.0221L313.461 49.0164L313.194 48.9325C313.172 48.9254 313.149 48.9188 313.126 48.9128L312.86 48.8426C312.835 48.8361 312.811 48.8303 312.786 48.8251L312.52 48.7692L312.495 48.7641C312.477 48.7607 312.458 48.7575 312.44 48.7547L312.174 48.7136L312.157 48.7111L312.139 48.7085C312.128 48.7072 312.118 48.706 312.108 48.7048L312.091 48.7031L311.824 48.6771L311.799 48.6748L311.786 48.6739C311.77 48.6727 311.754 48.6718 311.738 48.6712L311.472 48.6606C311.443 48.6594 311.414 48.6591 311.385 48.6596L311.119 48.6644C311.102 48.6647 311.085 48.6653 311.068 48.6662C311.056 48.6668 311.044 48.6676 311.032 48.6685L310.766 48.6888C310.738 48.6909 310.71 48.6939 310.682 48.6976L310.415 48.7331L310.397 48.7356L310.381 48.738C310.366 48.7404 310.35 48.7432 310.334 48.7461L310.068 48.7965L310.041 48.8019L310.025 48.8053C310.014 48.8078 310.003 48.8103 309.992 48.813L309.726 48.8779C309.715 48.8804 309.705 48.8829 309.695 48.8856C309.682 48.8892 309.668 48.893 309.655 48.8969L309.389 48.9757L309.36 48.9844C309.348 48.9882 309.336 48.9922 309.325 48.9963L309.058 49.0883C309.039 49.095 309.02 49.1021 309.001 49.1095L308.734 49.2139C308.717 49.2206 308.7 49.2276 308.683 49.235L308.417 49.3508C308.402 49.3573 308.387 49.364 308.373 49.371L308.106 49.4973C308.094 49.5033 308.081 49.5095 308.068 49.5159L307.802 49.6515L307.788 49.659L307.77 49.6681L307.504 49.8118L307.478 49.8261L307.212 49.9766L307.192 49.9882L306.925 50.1443L306.911 50.153L306.644 50.3131L306.635 50.3188L306.369 50.4817L306.364 50.4844L306.099 50.648L306.098 50.6485L305.838 50.8083L305.832 50.8119L305.577 50.9672L305.325 51.1181L305.077 51.2617L304.836 51.3966L304.6 51.5219L304.37 51.6366L304.147 51.7401L303.93 51.8318L303.72 51.9114L303.516 51.9788L303.319 52.0342L303.127 52.0779L302.941 52.1102L302.758 52.1315L302.578 52.1422L302.399 52.1424L302.219 52.1321L302.036 52.1113L301.85 52.0795L301.659 52.0363L301.462 51.9814L301.258 51.9145L301.048 51.8354L300.832 51.7442L300.609 51.6413L300.379 51.527L300.144 51.4021L299.902 51.2675L299.655 51.1243L299.403 50.9737L299.145 50.8169L298.883 50.6554L298.882 50.6549L298.616 50.4913L298.612 50.4888L298.346 50.3259L298.337 50.3203L298.07 50.16L298.056 50.1514L297.789 49.9951L297.769 49.9837L297.503 49.8329L297.478 49.8187L297.211 49.6747L297.192 49.6643L297.18 49.6582L296.913 49.5222C296.901 49.5158 296.888 49.5096 296.876 49.5036L296.609 49.3769C296.595 49.37 296.58 49.3633 296.565 49.3568L296.299 49.2405C296.282 49.2332 296.265 49.2262 296.248 49.2195L295.982 49.1146C295.963 49.1071 295.944 49.1 295.925 49.0934L295.658 49.0008C295.637 48.9935 295.616 48.9866 295.595 48.9802L295.328 48.9008C295.305 48.8939 295.282 48.8875 295.258 48.8817L294.992 48.8162L294.97 48.8111C294.952 48.807 294.934 48.8031 294.916 48.7996L294.649 48.7486L294.623 48.7439C294.605 48.7407 294.587 48.7379 294.569 48.7354L294.302 48.6993C294.274 48.6955 294.246 48.6925 294.218 48.6902L293.952 48.6693C293.923 48.6671 293.894 48.6656 293.865 48.6651L293.599 48.6596C293.57 48.659 293.541 48.6592 293.512 48.6603L293.246 48.6703C293.217 48.6714 293.188 48.6733 293.16 48.676L292.893 48.7014L292.878 48.7029L292.851 48.7059L292.829 48.7088L292.81 48.7117L292.544 48.7522L292.526 48.755L292.501 48.7593C292.489 48.7615 292.476 48.7639 292.464 48.7664L292.198 48.8217C292.173 48.8269 292.148 48.8327 292.123 48.8392L291.857 48.9088C291.844 48.9122 291.831 48.9159 291.818 48.9197L291.789 48.9284L291.522 49.0117C291.502 49.0182 291.481 49.0252 291.46 49.0326L291.194 49.1288C291.175 49.1355 291.157 49.1426 291.139 49.1501L290.872 49.2584L290.853 49.2664C290.843 49.2706 290.833 49.2748 290.824 49.2792L290.557 49.3987C290.543 49.405 290.529 49.4116 290.515 49.4184L290.249 49.5479C290.237 49.5537 290.225 49.5597 290.213 49.5659L289.947 49.7043C289.937 49.7095 289.927 49.7148 289.917 49.7202L289.651 49.8663L289.627 49.8797L289.36 50.0323L289.342 50.0429L289.076 50.2005L289.063 50.2082L288.796 50.3694L288.789 50.3741L288.522 50.5376L288.52 50.5392L288.256 50.7019L288.253 50.7034L287.993 50.8631L287.737 51.0182L287.486 51.1669L287.241 51.3077L287.001 51.4395L286.767 51.5614L286.539 51.6724L286.318 51.772L286.104 51.8597L285.896 51.9352L285.694 51.9986L285.499 52.0501L285.309 52.0899L285.124 52.1185L284.943 52.1362L284.763 52.1434L284.583 52.1401L284.36 52.1232C283.534 52.0604 282.814 52.6791 282.751 53.5051C282.688 54.3312 283.307 55.0517 284.133 55.1145L284.399 55.1348C284.415 55.136 284.432 55.137 284.448 55.1377C284.46 55.1382 284.473 55.1386 284.486 55.1389L284.752 55.1437C284.781 55.1442 284.81 55.1439 284.839 55.1427L285.105 55.1321C285.134 55.131 285.163 55.129 285.191 55.1262L285.458 55.1002C285.485 55.0975 285.513 55.094 285.541 55.0897L285.807 55.0486C285.834 55.0445 285.86 55.0397 285.886 55.0341L286.153 54.9782C286.17 54.9746 286.188 54.9706 286.205 54.9663L286.227 54.9607L286.493 54.8905C286.516 54.8845 286.539 54.8779 286.561 54.8708L286.828 54.7869C286.848 54.7804 286.869 54.7734 286.889 54.766L287.156 54.6693C287.174 54.6625 287.193 54.6554 287.211 54.648L287.477 54.5392C287.493 54.5325 287.51 54.5256 287.526 54.5184L287.792 54.3985C287.806 54.3922 287.82 54.3856 287.834 54.3789L288.1 54.2489C288.112 54.2431 288.124 54.2371 288.136 54.231L288.402 54.0922C288.412 54.0871 288.422 54.0818 288.431 54.0764L288.698 53.93L288.721 53.9167L288.988 53.764L289.006 53.7534L289.272 53.5957L289.285 53.5881L289.551 53.4267L289.559 53.4222L289.825 53.2587L289.828 53.2572L290.091 53.0946L290.094 53.093L290.354 52.9336L290.61 52.7786L290.86 52.6303L291.106 52.4899L291.345 52.3584L291.579 52.237L291.806 52.1264L292.027 52.0274L292.241 51.9402L292.449 51.8652L292.65 51.8023L292.845 51.7513L293.035 51.712L293.219 51.6839L293.401 51.6666L293.581 51.6598L293.76 51.6635L293.941 51.6777L294.125 51.7027L294.313 51.7387L294.506 51.7862L294.705 51.8456L294.911 51.9171L295.124 52.0007L295.343 52.0964L295.568 52.2037L295.8 52.322L296.038 52.4506L296.281 52.5886L296.53 52.7347L296.785 52.8879L297.043 53.0454L297.047 53.048L297.309 53.2095L297.31 53.2101L297.576 53.374L297.582 53.3777L297.849 53.5397L297.86 53.5466L298.126 53.7054L298.143 53.7151L298.409 53.8695L298.431 53.882L298.697 54.0304C298.706 54.0355 298.716 54.0406 298.725 54.0455L298.991 54.1866C299.003 54.1926 299.014 54.1983 299.025 54.204L299.291 54.3366L299.304 54.3427L299.322 54.3514L299.331 54.3558L299.598 54.4787C299.613 54.4858 299.629 54.4927 299.644 54.4993L299.911 54.6114C299.928 54.6188 299.946 54.6259 299.964 54.6326L300.23 54.733L300.252 54.741C300.265 54.7455 300.277 54.7499 300.29 54.7541L300.556 54.8418C300.578 54.849 300.6 54.8557 300.623 54.8619L300.889 54.9362C300.913 54.9428 300.937 54.9489 300.961 54.9544L301.228 55.0146C301.254 55.0204 301.279 55.0255 301.306 55.03L301.572 55.0755L301.597 55.0795C301.616 55.0824 301.635 55.085 301.654 55.0872L301.92 55.1176C301.949 55.1208 301.977 55.1233 302.006 55.1249L302.272 55.14C302.301 55.1417 302.33 55.1425 302.359 55.1424L302.625 55.1421C302.642 55.1421 302.658 55.1418 302.675 55.1412C302.687 55.1408 302.7 55.1402 302.712 55.1395L302.978 55.1237C303.007 55.122 303.035 55.1195 303.064 55.1162L303.33 55.0851C303.357 55.0819 303.385 55.078 303.412 55.0733L303.678 55.0271C303.69 55.0251 303.702 55.0229 303.713 55.0206L303.727 55.0179L303.756 55.0116L304.022 54.9508C304.035 54.9479 304.048 54.9447 304.061 54.9414C304.072 54.9386 304.083 54.9356 304.094 54.9325L304.361 54.8577C304.383 54.8514 304.405 54.8447 304.427 54.8374L304.693 54.7492C304.713 54.7426 304.733 54.7355 304.753 54.7281L305.019 54.6272C305.037 54.6205 305.054 54.6134 305.072 54.606L305.338 54.4934C305.354 54.4868 305.369 54.48 305.384 54.4729L305.651 54.3495C305.66 54.3455 305.668 54.3413 305.677 54.3371L305.691 54.3304L305.957 54.1974L305.971 54.1904L305.99 54.1801L306.257 54.0387L306.273 54.0299L306.284 54.0237L306.551 53.875L306.572 53.8626L306.839 53.708L306.855 53.6985L307.121 53.5394L307.132 53.5328L307.399 53.3705L307.404 53.367L307.671 53.2031L307.671 53.2027L307.933 53.0412L307.938 53.0386L308.195 52.8813L308.449 52.7284L308.698 52.5826L308.942 52.445L309.179 52.3168L309.411 52.1989L309.636 52.0921L309.855 51.997L310.067 51.9138L310.272 51.8429L310.471 51.784L310.664 51.7369L310.852 51.7014L311.036 51.6769L311.217 51.6632L311.396 51.6599L311.576 51.6671L311.757 51.6848L311.943 51.7134L312.132 51.7532L312.327 51.8047L312.529 51.8681L312.737 51.9436L312.951 52.0313L313.172 52.1309L313.4 52.2419L313.634 52.3638L313.874 52.4956L314.119 52.6364L314.37 52.785L314.623 52.938L314.63 52.9426L314.887 53.0999L314.889 53.1014L315.153 53.2641L315.155 53.2657L315.422 53.4291L315.43 53.4339L315.696 53.5951L315.709 53.6028L315.975 53.7604L315.994 53.771L316.26 53.9236L316.284 53.937L316.55 54.0831L316.562 54.0896L316.58 54.099L316.846 54.2374L316.864 54.2467L316.882 54.2554L317.148 54.3849L317.168 54.3944L317.19 54.4046L317.457 54.5241L317.482 54.5352L317.505 54.5449L317.772 54.6532C317.782 54.6573 317.792 54.6613 317.802 54.6652L317.827 54.6745L318.094 54.7707C318.114 54.7781 318.135 54.7851 318.156 54.7916L318.422 54.8749C318.445 54.882 318.467 54.8885 318.49 54.8945L318.757 54.9641L318.776 54.969L318.789 54.9722C318.803 54.9755 318.817 54.9786 318.831 54.9816L319.097 55.0369C319.124 55.0423 319.15 55.0471 319.177 55.0511L319.443 55.0916C319.454 55.0933 319.465 55.0948 319.476 55.0962L319.496 55.0988C319.506 55.0999 319.516 55.101 319.526 55.1019L319.793 55.1273L319.81 55.1288L319.832 55.1305C319.847 55.1316 319.863 55.1324 319.879 55.133L320.145 55.143ZM304.615 17.7542H294.11L294.11 40.8706L338.662 40.3412H424.294V38.2237H338.662L304.615 17.7542ZM312.587 12.189H258V8.18896H313.197H313.806L314.313 8.52928L331.336 19.976L329.104 23.2954L312.587 12.189ZM297.557 125.579H321.803H335.731L339.858 122.211H316.529L306.327 115.697L282.082 115.697L297.557 125.579ZM334.372 89.0132H358.617L374.093 79.1313L349.847 79.1313L339.646 85.6456L334.372 89.0132ZM327.15 89.0132H302.904L308.178 85.6456L318.38 79.1313H342.625L327.15 89.0132ZM271.437 89.0132L295.682 89.0132L311.158 79.1313L286.913 79.1313L276.711 85.6456L271.437 89.0132ZM349.074 112.583L291.298 112.583V105.171L304.71 95.9951H349.074V112.583ZM425.761 147.11H389.893V151.11H427.761C428.866 151.11 429.761 150.214 429.761 149.11V143.463C429.761 142.359 428.866 141.463 427.761 141.463H380.088L377.079 139.816H427.761C428.866 139.816 429.761 138.921 429.761 137.816V132.17C429.761 131.065 428.866 130.17 427.761 130.17L267.538 130.17V134.17L425.761 134.17V135.816H369.259C368.345 135.816 367.548 136.436 367.321 137.321C367.095 138.206 367.497 139.132 368.299 139.571L378.616 145.218C378.91 145.379 379.241 145.463 379.576 145.463H425.761V147.11ZM346.072 146.95C348.921 146.95 351.231 148.53 351.231 150.479C351.231 152.428 348.921 154.008 346.072 154.008C343.223 154.008 340.914 152.428 340.914 150.479C340.914 148.53 343.223 146.95 346.072 146.95ZM364.087 95.6419L354.678 95.6419V98.4653L364.737 98.4653C365.16 98.4653 365.573 98.3764 365.92 98.2105L402.271 80.8192H430.578V77.9958H401.621C401.198 77.9958 400.785 78.0847 400.439 78.2506L364.087 95.6419ZM343.868 169.14L366.496 185.551L363.494 187.489L340.866 171.078L343.868 169.14ZM339.337 31.0571H435.221V5.9996H361.596L339.337 19.8612V31.0571ZM430.579 3.17627L291.298 3.17627V-3.05176e-05L430.579 -3.05176e-05V3.17627Z" fill="url(#paint0_linear_4_6955)"/>
<path d="M74.6364 30.0822L32.7398 30.0822L20.0439 9L1 9.73973L1 79.6438M74.6364 71.8767H57.4969M32.7398 71.8767L57.4969 71.8767M57.4969 71.8767L40.1458 90L12.0031 90L1 79.6438M1 79.6438L1 85.1918" stroke="#8F8E93" stroke-width="1.33884" stroke-linejoin="round"/>
<g filter="url(#filter0_d_4_6955)">
<circle cx="76.6447" cy="71.1533" r="4.01653" transform="rotate(-90.2602 76.6447 71.1533)" fill="#F0EFED"/>
<circle cx="76.6447" cy="71.1533" r="3.68182" transform="rotate(-90.2602 76.6447 71.1533)" stroke="black" stroke-width="0.669421"/>
</g>
<g filter="url(#filter1_d_4_6955)">
<circle cx="76.6447" cy="28.2741" r="4.01653" transform="rotate(-90.2602 76.6447 28.2741)" fill="#F0EFED"/>
<circle cx="76.6447" cy="28.2741" r="3.68182" transform="rotate(-90.2602 76.6447 28.2741)" stroke="black" stroke-width="0.669421"/>
</g>
<path d="M74.6364 111.082L32.7398 111.082L20.0439 90L1 90.7397L1 160.644M74.6364 152.877H57.4969M32.7398 152.877H57.4969M57.4969 152.877L40.1458 171H12.0031L1 160.644M1 160.644L1 166.192" stroke="#8F8E93" stroke-width="1.33884" stroke-linejoin="round"/>
<g filter="url(#filter2_d_4_6955)">
<circle cx="76.6447" cy="152.153" r="4.01653" transform="rotate(-90.2602 76.6447 152.153)" fill="#F0EFED"/>
<circle cx="76.6447" cy="152.153" r="3.68182" transform="rotate(-90.2602 76.6447 152.153)" stroke="black" stroke-width="0.669421"/>
</g>
<g filter="url(#filter3_d_4_6955)">
<circle cx="76.6447" cy="109.274" r="4.01653" transform="rotate(-90.2602 76.6447 109.274)" fill="#F0EFED"/>
<circle cx="76.6447" cy="109.274" r="3.68182" transform="rotate(-90.2602 76.6447 109.274)" stroke="black" stroke-width="0.669421"/>
</g>
<defs>
<filter id="filter0_d_4_6955" x="72.6279" y="67.1367" width="12.7192" height="9.3718" filterUnits="userSpaceOnUse" color-interpolation-filters="sRGB">
<feFlood flood-opacity="0" result="BackgroundImageFix"/>
<feColorMatrix in="SourceAlpha" type="matrix" values="0 0 0 0 0 0 0 0 0 0 0 0 0 0 0 0 0 0 127 0" result="hardAlpha"/>
<feOffset dx="4.68595" dy="1.33884"/>
<feComposite in2="hardAlpha" operator="out"/>
<feColorMatrix type="matrix" values="0 0 0 0 0 0 0 0 0 0 0 0 0 0 0 0 0 0 1 0"/>
<feBlend mode="normal" in2="BackgroundImageFix" result="effect1_dropShadow_4_6955"/>
<feBlend mode="normal" in="SourceGraphic" in2="effect1_dropShadow_4_6955" result="shape"/>
</filter>
<filter id="filter1_d_4_6955" x="72.6279" y="24.2576" width="12.7192" height="9.3718" filterUnits="userSpaceOnUse" color-interpolation-filters="sRGB">
<feFlood flood-opacity="0" result="BackgroundImageFix"/>
<feColorMatrix in="SourceAlpha" type="matrix" values="0 0 0 0 0 0 0 0 0 0 0 0 0 0 0 0 0 0 127 0" result="hardAlpha"/>
<feOffset dx="4.68595" dy="1.33884"/>
<feComposite in2="hardAlpha" operator="out"/>
<feColorMatrix type="matrix" values="0 0 0 0 0 0 0 0 0 0 0 0 0 0 0 0 0 0 1 0"/>
<feBlend mode="normal" in2="BackgroundImageFix" result="effect1_dropShadow_4_6955"/>
<feBlend mode="normal" in="SourceGraphic" in2="effect1_dropShadow_4_6955" result="shape"/>
</filter>
<filter id="filter2_d_4_6955" x="72.6279" y="148.137" width="12.7192" height="9.3718" filterUnits="userSpaceOnUse" color-interpolation-filters="sRGB">
<feFlood flood-opacity="0" result="BackgroundImageFix"/>
<feColorMatrix in="SourceAlpha" type="matrix" values="0 0 0 0 0 0 0 0 0 0 0 0 0 0 0 0 0 0 127 0" result="hardAlpha"/>
<feOffset dx="4.68595" dy="1.33884"/>
<feComposite in2="hardAlpha" operator="out"/>
<feColorMatrix type="matrix" values="0 0 0 0 0 0 0 0 0 0 0 0 0 0 0 0 0 0 1 0"/>
<feBlend mode="normal" in2="BackgroundImageFix" result="effect1_dropShadow_4_6955"/>
<feBlend mode="normal" in="SourceGraphic" in2="effect1_dropShadow_4_6955" result="shape"/>
</filter>
<filter id="filter3_d_4_6955" x="72.6279" y="105.258" width="12.7192" height="9.3718" filterUnits="userSpaceOnUse" color-interpolation-filters="sRGB">
<feFlood flood-opacity="0" result="BackgroundImageFix"/>
<feColorMatrix in="SourceAlpha" type="matrix" values="0 0 0 0 0 0 0 0 0 0 0 0 0 0 0 0 0 0 127 0" result="hardAlpha"/>
<feOffset dx="4.68595" dy="1.33884"/>
<feComposite in2="hardAlpha" operator="out"/>
<feColorMatrix type="matrix" values="0 0 0 0 0 0 0 0 0 0 0 0 0 0 0 0 0 0 1 0"/>
<feBlend mode="normal" in2="BackgroundImageFix" result="effect1_dropShadow_4_6955"/>
<feBlend mode="normal" in="SourceGraphic" in2="effect1_dropShadow_4_6955" result="shape"/>
</filter>
<linearGradient id="paint0_linear_4_6955" x1="311.816" y1="-68.1347" x2="233.512" y2="162.939" gradientUnits="userSpaceOnUse">
<stop stop-color="#F1EFED"/>
<stop offset="0.534758" stop-color="#DDDDDD" stop-opacity="0.22"/>
<stop offset="1" stop-color="#F1EFED"/>
</linearGradient>
</defs>
</svg>
