<svg width="374" height="252" viewBox="0 0 374 252" fill="none" xmlns="http://www.w3.org/2000/svg">
<g clip-path="url(#clip0_3635_11379)">
<path d="M27.982 22.785C25.4372 22.7734 23.3649 24.827 23.3533 27.3718C23.3418 29.9166 25.3953 31.9889 27.9401 32.0004C30.4849 32.012 32.5572 29.9584 32.5688 27.4136C32.5803 24.8688 30.5268 22.7965 27.982 22.785Z" fill="black"/>
<path d="M18.384 25.5891C18.3946 23.2564 20.2942 21.3739 22.627 21.3845C24.9597 21.3951 26.8421 23.2947 26.8315 25.6274C26.8209 27.9602 24.9213 29.8426 22.5886 29.832C20.2559 29.8214 18.3734 27.9218 18.384 25.5891Z" fill="#F0EFED" stroke="black" stroke-width="0.767963"/>
<path d="M27.982 64.785C25.4372 64.7734 23.3649 66.827 23.3533 69.3718C23.3418 71.9166 25.3953 73.9889 27.9401 74.0004C30.4849 74.012 32.5572 71.9584 32.5688 69.4136C32.5803 66.8688 30.5268 64.7965 27.982 64.785Z" fill="black"/>
<path d="M18.384 67.5891C18.3946 65.2564 20.2942 63.3739 22.627 63.3845C24.9597 63.3951 26.8421 65.2947 26.8315 67.6274C26.8209 69.9602 24.9213 71.8426 22.5886 71.832C20.2559 71.8214 18.3734 69.9218 18.384 67.5891Z" fill="#F0EFED" stroke="black" stroke-width="0.767963"/>
<path d="M27.982 103.785C25.4372 103.773 23.3649 105.827 23.3533 108.372C23.3418 110.917 25.3953 112.989 27.9401 113C30.4849 113.012 32.5572 110.958 32.5688 108.414C32.5803 105.869 30.5268 103.797 27.982 103.785Z" fill="black"/>
<path d="M18.384 106.589C18.3946 104.256 20.2942 102.374 22.627 102.385C24.9597 102.395 26.8421 104.295 26.8315 106.627C26.8209 108.96 24.9213 110.843 22.5886 110.832C20.2559 110.821 18.3734 108.922 18.384 106.589Z" fill="#F0EFED" stroke="black" stroke-width="0.767963"/>
<path d="M27.982 145.785C25.4372 145.773 23.3649 147.827 23.3533 150.372C23.3418 152.917 25.3953 154.989 27.9401 155C30.4849 155.012 32.5572 152.958 32.5688 150.414C32.5803 147.869 30.5268 145.797 27.982 145.785Z" fill="black"/>
<path d="M18.384 148.589C18.3946 146.256 20.2942 144.374 22.627 144.385C24.9597 144.395 26.8421 146.295 26.8315 148.627C26.8209 150.96 24.9213 152.843 22.5886 152.832C20.2559 152.821 18.3734 150.922 18.384 148.589Z" fill="#F0EFED" stroke="black" stroke-width="0.767963"/>
<path d="M27.982 225.785C25.4372 225.773 23.3649 227.827 23.3533 230.372C23.3418 232.917 25.3953 234.989 27.9401 235C30.4849 235.012 32.5572 232.958 32.5688 230.414C32.5803 227.869 30.5268 225.797 27.982 225.785Z" fill="black"/>
<path d="M18.384 228.589C18.3946 226.256 20.2942 224.374 22.627 224.385C24.9597 224.395 26.8421 226.295 26.8315 228.627C26.8209 230.96 24.9213 232.843 22.5886 232.832C20.2559 232.821 18.3734 230.922 18.384 228.589Z" fill="#F0EFED" stroke="black" stroke-width="0.767963"/>
<path d="M27.982 183.785C25.4372 183.773 23.3649 185.827 23.3533 188.372C23.3418 190.917 25.3953 192.989 27.9401 193C30.4849 193.012 32.5572 190.958 32.5688 188.414C32.5803 185.869 30.5268 183.797 27.982 183.785Z" fill="black"/>
<path d="M18.384 186.589C18.3946 184.256 20.2942 182.374 22.627 182.385C24.9597 182.395 26.8421 184.295 26.8315 186.627C26.8209 188.96 24.9213 190.843 22.5886 190.832C20.2559 190.821 18.3734 188.922 18.384 186.589Z" fill="#F0EFED" stroke="black" stroke-width="0.767963"/>
<path d="M20.6364 187.083H-21.2602L-33.9561 166L-53 166.74L-53 236.644M20.6364 228.877H3.4969M-21.2602 228.877H3.4969M3.4969 228.877L-13.8542 247H-41.9969L-53 236.644M-53 236.644V242.192" stroke="#8F8E93" stroke-width="1.33884" stroke-linejoin="round"/>
<path fill-rule="evenodd" clip-rule="evenodd" d="M317.77 190.731H375.546V174.144H331.182L317.77 183.32V190.731ZM363.524 168.188C363.582 168.192 363.64 168.193 363.698 168.191L363.965 168.18C364.022 168.177 364.079 168.172 364.136 168.163L364.402 168.121C364.456 168.113 364.51 168.101 364.562 168.087L364.829 168.014C364.877 168.001 364.926 167.986 364.973 167.967L365.239 167.865C365.282 167.849 365.323 167.831 365.364 167.81L365.631 167.679C365.667 167.662 365.702 167.642 365.737 167.622L366.003 167.463C366.033 167.445 366.062 167.426 366.091 167.406L366.357 167.221C366.382 167.204 366.406 167.186 366.43 167.167L366.696 166.957L366.71 166.946L366.732 166.928C366.739 166.922 366.747 166.915 366.754 166.909L367.021 166.676C367.037 166.662 367.053 166.647 367.068 166.633L367.334 166.379C367.347 166.367 367.36 166.354 367.372 166.342L367.638 166.07L367.655 166.052L367.668 166.038L367.934 165.75C367.942 165.742 367.95 165.733 367.957 165.725L368.224 165.423L368.241 165.403L368.507 165.09L368.519 165.076L368.786 164.755L368.793 164.745L369.06 164.419L369.063 164.415L369.329 164.088L369.329 164.087L369.59 163.766L369.595 163.76L369.852 163.447L370.106 163.142L370.356 162.853L370.6 162.58L370.838 162.328L371.067 162.099L371.313 161.873C371.921 161.31 371.959 160.361 371.396 159.753C370.834 159.145 369.885 159.107 369.277 159.669L369.01 159.915C368.996 159.928 368.983 159.941 368.969 159.955L368.703 160.22L368.688 160.236L368.671 160.254L368.404 160.536L368.391 160.55L368.379 160.564L368.112 160.861L368.093 160.883L367.827 161.192L367.813 161.209L367.547 161.527L367.537 161.538L367.271 161.862L367.266 161.868L367 162.196L366.999 162.197L366.736 162.522L366.733 162.526L366.477 162.839L366.47 162.848L366.217 163.152L365.965 163.448L365.719 163.727L365.479 163.987L365.246 164.225L365.022 164.438L364.808 164.625L364.607 164.784L364.421 164.913L364.251 165.015L364.101 165.089L363.969 165.139L363.855 165.17L363.755 165.186L363.662 165.19L363.567 165.183L363.464 165.163L363.345 165.127L363.208 165.07L363.052 164.988L362.877 164.879L362.686 164.741L362.481 164.574L362.264 164.379L362.037 164.158L361.802 163.914L361.56 163.648L361.313 163.364L361.059 163.064L360.805 162.755L360.798 162.747L360.541 162.431L360.538 162.428L360.274 162.102L360.272 162.1L360.006 161.772L360 161.765L359.733 161.442L359.723 161.429L359.457 161.113L359.441 161.095L359.175 160.789L359.17 160.784L359.154 160.766L358.887 160.473C358.878 160.463 358.869 160.453 358.86 160.443L358.594 160.166C358.582 160.154 358.571 160.142 358.559 160.13L358.293 159.87C358.278 159.856 358.264 159.843 358.249 159.829L357.982 159.589C357.965 159.573 357.946 159.557 357.928 159.542L357.662 159.324C357.64 159.306 357.617 159.289 357.594 159.272L357.328 159.079C357.301 159.059 357.273 159.041 357.245 159.023L356.979 158.855C356.947 158.834 356.913 158.815 356.879 158.797L356.613 158.657C356.574 158.636 356.535 158.618 356.494 158.601L356.228 158.489C356.183 158.47 356.137 158.453 356.09 158.438L355.823 158.356C355.772 158.34 355.72 158.327 355.668 158.317L355.402 158.265C355.346 158.254 355.29 158.246 355.233 158.242L354.967 158.22C354.909 158.216 354.851 158.215 354.793 158.217L354.527 158.226C354.469 158.228 354.412 158.234 354.355 158.242L354.089 158.283C354.035 158.291 353.981 158.302 353.928 158.317L353.662 158.388C353.613 158.401 353.564 158.416 353.517 158.434L353.251 158.535C353.208 158.551 353.166 158.57 353.125 158.59L352.858 158.72C352.822 158.737 352.786 158.757 352.751 158.777L352.485 158.935C352.455 158.953 352.425 158.972 352.396 158.992L352.13 159.176C352.105 159.193 352.081 159.211 352.057 159.23L351.791 159.439C351.771 159.455 351.751 159.471 351.732 159.488L351.465 159.72C351.449 159.734 351.433 159.748 351.418 159.763L351.151 160.016C351.139 160.028 351.126 160.04 351.113 160.053L350.847 160.325C350.837 160.335 350.827 160.345 350.817 160.356L350.551 160.644C350.543 160.652 350.535 160.661 350.528 160.669L350.261 160.971L350.244 160.991L349.977 161.303L349.965 161.318L349.699 161.639L349.691 161.648L349.425 161.974L349.421 161.978L349.155 162.306L349.155 162.307L348.894 162.628L348.889 162.634L348.632 162.948L348.377 163.253L348.127 163.543L347.883 163.816L347.645 164.069L347.415 164.299L347.194 164.504L346.984 164.681L346.788 164.83L346.607 164.95L346.444 165.042L346.299 165.108L346.174 165.152L346.065 165.177L345.968 165.188L345.875 165.189L345.779 165.178L345.671 165.153L345.546 165.11L345.403 165.045L345.24 164.955L345.06 164.836L344.864 164.688L344.655 164.512L344.434 164.308L344.204 164.079L343.967 163.827L343.723 163.555L343.473 163.265L343.218 162.961L342.959 162.645L342.696 162.321L342.695 162.32L342.43 161.992L342.426 161.988L342.16 161.662L342.153 161.653L341.886 161.332L341.874 161.317L341.608 161.005L341.59 160.985L341.324 160.683L341.312 160.669L341.301 160.657L341.035 160.369C341.025 160.359 341.015 160.348 341.005 160.338L340.739 160.066C340.726 160.053 340.714 160.041 340.701 160.028L340.435 159.775C340.419 159.76 340.404 159.746 340.388 159.732L340.121 159.499C340.102 159.482 340.083 159.466 340.063 159.45L339.796 159.24C339.773 159.222 339.749 159.204 339.724 159.187L339.458 159.002C339.441 158.99 339.423 158.978 339.406 158.967C339.394 158.959 339.382 158.952 339.37 158.945L339.104 158.786C339.069 158.765 339.034 158.746 338.998 158.728L338.731 158.597C338.712 158.588 338.693 158.579 338.674 158.57C338.664 158.566 338.653 158.561 338.642 158.557L338.622 158.548L338.606 158.542L338.34 158.44C338.292 158.422 338.244 158.406 338.195 158.393L337.929 158.321C337.876 158.306 337.823 158.295 337.769 158.286L337.502 158.245C337.446 158.236 337.389 158.23 337.331 158.228L337.065 158.217C337.007 158.214 336.949 158.215 336.891 158.22L336.625 158.24C336.568 158.244 336.512 158.251 336.456 158.262L336.19 158.313C336.137 158.323 336.085 158.336 336.034 158.351L335.767 158.432C335.72 158.447 335.674 158.463 335.629 158.482L335.362 158.593C335.322 158.61 335.282 158.629 335.243 158.649L334.976 158.788C334.942 158.806 334.908 158.825 334.876 158.846L334.609 159.013L334.585 159.028L334.563 159.043C334.55 159.052 334.538 159.06 334.526 159.069L334.26 159.261C334.25 159.268 334.24 159.276 334.231 159.283L334.211 159.298L334.192 159.314L333.926 159.53C333.917 159.537 333.91 159.544 333.902 159.55C333.891 159.559 333.881 159.568 333.87 159.578L333.604 159.817C333.589 159.83 333.574 159.844 333.56 159.858L333.294 160.117L333.278 160.133L333.258 160.153L332.992 160.43C332.983 160.44 332.974 160.449 332.964 160.459L332.698 160.752C332.691 160.76 332.684 160.768 332.677 160.776L332.411 161.081L332.395 161.099L332.129 161.415L332.118 161.428L331.851 161.751L331.845 161.758L331.579 162.085L331.577 162.088L331.312 162.414L331.31 162.417L331.049 162.738L330.791 163.051L330.538 163.351L330.29 163.636L330.047 163.903L329.812 164.148L329.585 164.37L329.368 164.566L329.162 164.734L328.97 164.873L328.795 164.984L328.638 165.067L328.5 165.125L328.381 165.162L328.276 165.182L328.182 165.19L328.089 165.186L327.907 165.159C327.088 165.034 326.323 165.597 326.199 166.416C326.074 167.235 326.637 168 327.456 168.125L327.722 168.165C327.779 168.174 327.836 168.179 327.894 168.181L328.16 168.191C328.218 168.193 328.276 168.192 328.334 168.187L328.6 168.166C328.657 168.161 328.713 168.154 328.768 168.143L329.035 168.091C329.087 168.08 329.139 168.067 329.19 168.052L329.457 167.969C329.503 167.955 329.549 167.938 329.595 167.919L329.861 167.807C329.901 167.79 329.941 167.771 329.98 167.751L330.246 167.61C330.28 167.592 330.313 167.573 330.346 167.553L330.612 167.385C330.64 167.367 330.668 167.348 330.695 167.329L330.961 167.135C330.984 167.118 331.006 167.101 331.028 167.083L331.295 166.865C331.303 166.858 331.312 166.851 331.321 166.844L331.339 166.827L331.349 166.818L331.616 166.578C331.63 166.565 331.645 166.551 331.659 166.537L331.926 166.277L331.941 166.262L331.961 166.242L332.227 165.964C332.236 165.955 332.245 165.945 332.254 165.935L332.521 165.642C332.528 165.634 332.535 165.626 332.542 165.618L332.808 165.312L332.823 165.294L333.09 164.978L333.1 164.966L333.367 164.643L333.373 164.635L333.639 164.308L333.641 164.306L333.905 163.979L333.907 163.977L334.168 163.656L334.426 163.344L334.679 163.044L334.927 162.76L335.169 162.494L335.404 162.249L335.631 162.029L335.848 161.834L336.053 161.667L336.244 161.529L336.418 161.42L336.575 161.338L336.712 161.281L336.831 161.245L336.934 161.225L337.029 161.218L337.122 161.222L337.222 161.237L337.336 161.268L337.467 161.319L337.618 161.393L337.788 161.494L337.974 161.624L338.175 161.782L338.389 161.969L338.613 162.183L338.846 162.42L339.086 162.68L339.332 162.96L339.584 163.255L339.84 163.564L340.099 163.882L340.103 163.886L340.366 164.21L340.367 164.211L340.633 164.539L340.638 164.545L340.904 164.87L340.913 164.881L341.18 165.199L341.194 165.215L341.46 165.524L341.479 165.546L341.746 165.844L341.758 165.857L341.771 165.871L342.037 166.154C342.048 166.165 342.059 166.176 342.07 166.187L342.336 166.453C342.35 166.466 342.363 166.479 342.377 166.492L342.644 166.738C342.653 166.747 342.662 166.755 342.671 166.763C342.679 166.77 342.687 166.777 342.695 166.783L342.961 167.008C342.982 167.025 343.003 167.042 343.025 167.059L343.291 167.259C343.316 167.279 343.342 167.297 343.369 167.314L343.635 167.49C343.666 167.51 343.697 167.529 343.73 167.547L343.996 167.696C344.033 167.717 344.071 167.736 344.109 167.753L344.375 167.873C344.419 167.893 344.463 167.911 344.508 167.926L344.774 168.017C344.824 168.034 344.874 168.048 344.925 168.06L345.191 168.121C345.246 168.133 345.301 168.143 345.356 168.149L345.623 168.179C345.68 168.186 345.738 168.189 345.796 168.189L346.062 168.188C346.12 168.188 346.178 168.185 346.235 168.178L346.502 168.146C346.557 168.14 346.612 168.13 346.666 168.117L346.933 168.055C346.983 168.043 347.033 168.029 347.083 168.012L347.349 167.919C347.394 167.904 347.438 167.886 347.481 167.867L347.747 167.745C347.785 167.728 347.823 167.708 347.859 167.688L348.126 167.538C348.158 167.52 348.189 167.501 348.219 167.481L348.486 167.304C348.512 167.287 348.538 167.268 348.563 167.249L348.829 167.047C348.851 167.031 348.872 167.014 348.892 166.997L349.158 166.771C349.176 166.757 349.193 166.742 349.209 166.726L349.476 166.479L349.496 166.46L349.516 166.44L349.782 166.174L349.797 166.16L349.815 166.141L350.081 165.858C350.089 165.849 350.098 165.839 350.106 165.83L350.372 165.533L350.392 165.511L350.658 165.201L350.672 165.185L350.938 164.867L350.947 164.856L351.213 164.531L351.218 164.525L351.484 164.197L351.485 164.196L351.748 163.872L351.751 163.868L352.01 163.551L352.267 163.242L352.518 162.947L352.764 162.669L353.004 162.41L353.236 162.173L353.46 161.961L353.673 161.775L353.874 161.618L354.059 161.489L354.228 161.389L354.378 161.316L354.509 161.267L354.622 161.236L354.722 161.221L354.815 161.218L354.91 161.225L355.014 161.246L355.133 161.283L355.271 161.341L355.428 161.424L355.604 161.534L355.795 161.673L356.001 161.842L356.218 162.037L356.445 162.259L356.68 162.505L356.923 162.771L357.171 163.056L357.424 163.357L357.682 163.67L357.943 163.991L357.945 163.993L358.21 164.319L358.212 164.322L358.478 164.649L358.485 164.657L358.751 164.98L358.762 164.993L359.028 165.308L359.044 165.326L359.31 165.632L359.323 165.646L359.331 165.656L359.598 165.948C359.607 165.958 359.616 165.968 359.625 165.978L359.892 166.255C359.903 166.267 359.915 166.279 359.927 166.29L360.193 166.549C360.208 166.564 360.222 166.577 360.237 166.591L360.504 166.83L360.52 166.845L360.538 166.86L360.559 166.877L360.825 167.094C360.847 167.112 360.87 167.129 360.893 167.146L361.159 167.339C361.169 167.345 361.178 167.352 361.187 167.359C361.205 167.371 361.224 167.383 361.242 167.395L361.509 167.562C361.542 167.582 361.575 167.601 361.609 167.619L361.876 167.759C361.915 167.779 361.955 167.798 361.995 167.815L362.262 167.925C362.307 167.944 362.353 167.961 362.4 167.975L362.667 168.056C362.718 168.072 362.77 168.085 362.823 168.095L363.089 168.146C363.145 168.156 363.201 168.164 363.258 168.168L363.524 168.188ZM375.874 118.696L307.266 118.696V117.284L375.874 117.284V118.696ZM228.082 70.231L296.691 70.231V68.8193L228.082 68.8193V70.231ZM251.555 64.938L320.163 64.938V63.5263L251.555 63.5263V64.938ZM296.691 59.6411L228.082 59.6411V58.2294L296.691 58.2294V59.6411ZM266.145 55.9176C266.16 55.9182 266.176 55.9186 266.192 55.9187C266.205 55.9187 266.219 55.9186 266.232 55.9184L266.498 55.9129C266.509 55.9126 266.521 55.9123 266.532 55.9118L266.551 55.9108C266.562 55.9102 266.574 55.9095 266.585 55.9086L266.851 55.8877C266.879 55.8855 266.907 55.8824 266.935 55.8786L267.202 55.8425L267.227 55.8389C267.245 55.836 267.264 55.8328 267.282 55.8293L267.549 55.7782C267.574 55.7733 267.599 55.7678 267.625 55.7616L267.891 55.696L267.92 55.6887C267.933 55.685 267.947 55.681 267.961 55.6769L268.228 55.5975C268.249 55.5911 268.27 55.5842 268.292 55.5768L268.558 55.4842L268.571 55.4796C268.586 55.4742 268.601 55.4687 268.615 55.4629L268.882 55.358C268.899 55.3512 268.915 55.3442 268.932 55.3369L269.199 55.2205C269.213 55.214 269.228 55.2073 269.243 55.2004L269.509 55.0736L269.528 55.0642L269.547 55.055L269.813 54.9189L269.829 54.9107L269.844 54.9024L270.111 54.7583L270.136 54.7441L270.403 54.5932L270.423 54.5817L270.689 54.4253L270.703 54.4167L270.97 54.2563L270.979 54.2507L271.245 54.0876L271.249 54.0851L271.515 53.9214L271.516 53.9209L271.775 53.7612L271.781 53.7575L272.03 53.6057L272.041 53.599L272.288 53.4516L272.535 53.3083L272.777 53.1736L273.013 53.0487L273.242 52.9343L273.488 52.8206C274.24 52.4732 274.568 51.5819 274.221 50.8298C273.873 50.0778 272.982 49.7497 272.23 50.0971L271.964 50.2202L271.938 50.2324L271.924 50.2394L271.657 50.3721C271.646 50.3777 271.635 50.3835 271.624 50.3895L271.357 50.5307C271.348 50.5356 271.339 50.5407 271.33 50.5458L271.063 50.6943L271.041 50.7068L270.775 50.8613L270.758 50.871L270.492 51.0301L270.481 51.0368L270.215 51.1991L270.208 51.2028L269.942 51.3667L269.941 51.3673L269.679 51.529L269.675 51.5315L269.422 51.6864L269.413 51.692L269.163 51.8425L268.914 51.9887L268.67 52.1268L268.432 52.2555L268.2 52.3739L267.975 52.4813L267.756 52.577L267.544 52.6607L267.338 52.7322L267.139 52.7917L266.945 52.8392L266.757 52.8753L266.574 52.9002L266.393 52.9144L266.214 52.9181L266.034 52.9114L265.852 52.8941L265.668 52.8659L265.478 52.8266L265.283 52.7756L265.082 52.7127L264.875 52.6376L264.66 52.5504L264.439 52.4512L264.212 52.3406L263.978 52.219L263.739 52.0875L263.494 51.947L263.243 51.7986L262.991 51.6458L262.983 51.6411L262.727 51.4839L262.724 51.4823L262.461 51.3196L262.458 51.3181L262.192 51.1545L262.184 51.1499L261.918 50.9885L261.905 50.9809L261.639 50.823L261.621 50.8125L261.355 50.6596L261.331 50.6463L261.065 50.4997L261.051 50.4921L261.035 50.4839L260.769 50.345C260.757 50.3389 260.745 50.3329 260.733 50.3271L260.467 50.1971L260.446 50.1868L260.425 50.1774L260.159 50.0574C260.143 50.0502 260.127 50.0433 260.11 50.0366L259.844 49.9277C259.826 49.9203 259.807 49.9132 259.789 49.9064L259.522 49.8096C259.511 49.8055 259.5 49.8015 259.488 49.7976L259.461 49.7886L259.194 49.7047C259.172 49.6976 259.149 49.691 259.126 49.685L258.86 49.6147C258.835 49.6083 258.811 49.6024 258.786 49.5972L258.519 49.5412C258.493 49.5357 258.467 49.5309 258.44 49.5268L258.174 49.4856C258.146 49.4813 258.118 49.4778 258.09 49.4751L257.824 49.4491C257.813 49.448 257.801 49.447 257.79 49.4461C257.773 49.4448 257.755 49.4439 257.738 49.4432L257.472 49.4325C257.443 49.4314 257.414 49.431 257.385 49.4316L257.118 49.4364C257.089 49.4369 257.061 49.4383 257.032 49.4405L256.765 49.4608C256.737 49.4629 256.709 49.4659 256.681 49.4696L256.415 49.5051C256.388 49.5087 256.361 49.5131 256.334 49.5182L256.067 49.5686C256.042 49.5735 256.016 49.579 255.991 49.5851L255.725 49.6501C255.701 49.6558 255.678 49.6622 255.654 49.6691L255.388 49.748C255.366 49.7543 255.345 49.7612 255.324 49.7686L255.057 49.8606C255.038 49.8673 255.019 49.8744 255 49.8819L254.733 49.9864C254.716 49.9931 254.699 50.0001 254.683 50.0074L254.416 50.1234C254.401 50.1299 254.387 50.1366 254.372 50.1436L254.106 50.2699C254.093 50.276 254.08 50.2822 254.068 50.2886L253.801 50.4243C253.791 50.4297 253.78 50.4353 253.77 50.4409L253.503 50.5848L253.477 50.599L253.211 50.7497L253.191 50.7613L252.925 50.9174L252.91 50.9262L252.644 51.0865L252.634 51.0922L252.368 51.2552L252.363 51.2578L252.098 51.4216L252.097 51.422L251.837 51.582L251.831 51.5856L251.576 51.741L251.324 51.8921L251.076 52.0358L250.835 52.1708L250.599 52.2962L250.369 52.411L250.146 52.5145L249.929 52.6063L249.719 52.6859L249.515 52.7534L249.318 52.8088L249.127 52.8525L248.94 52.8848L248.758 52.9061L248.578 52.9168L248.398 52.917L248.218 52.9068L248.036 52.8859L247.85 52.8541L247.658 52.8109L247.461 52.756L247.258 52.689L247.048 52.6099L246.832 52.5186L246.609 52.4156L246.379 52.3012L246.144 52.1763L245.902 52.0416L245.655 51.8983L245.403 51.7475L245.145 51.5905L244.883 51.429L244.882 51.4285L244.616 51.2648L244.612 51.2623L244.346 51.0992L244.337 51.0936L244.07 50.9332L244.056 50.9246L243.789 50.7682L243.77 50.7567L243.503 50.6058L243.478 50.5917L243.211 50.4475C243.201 50.4419 243.19 50.4364 243.18 50.431L242.913 50.2949C242.901 50.2885 242.888 50.2823 242.876 50.2763L242.609 50.1495C242.595 50.1426 242.58 50.1359 242.565 50.1294L242.299 50.013C242.288 50.0082 242.277 50.0036 242.266 49.9991L242.248 49.9919L241.982 49.887C241.963 49.8795 241.944 49.8724 241.925 49.8657L241.658 49.7731C241.637 49.7657 241.616 49.7588 241.594 49.7524L241.328 49.673C241.305 49.6661 241.281 49.6597 241.258 49.6539L240.992 49.5883C240.966 49.5821 240.941 49.5766 240.916 49.5717L240.649 49.5206C240.622 49.5155 240.596 49.5111 240.568 49.5074L240.302 49.4713C240.274 49.4675 240.246 49.4644 240.218 49.4622L239.951 49.4413C239.923 49.4391 239.894 49.4376 239.865 49.437L239.599 49.4315C239.57 49.4309 239.541 49.4312 239.511 49.4323L239.245 49.4423C239.216 49.4433 239.188 49.4453 239.159 49.448L238.893 49.4734C238.882 49.4743 238.872 49.4755 238.861 49.4767L238.841 49.4792C238.831 49.4805 238.82 49.4821 238.809 49.4837L238.543 49.5242L238.515 49.5288C238.498 49.5317 238.481 49.535 238.464 49.5385L238.197 49.5939L238.178 49.598L238.164 49.6012L238.146 49.6053L238.123 49.6113L237.856 49.681C237.834 49.687 237.811 49.6935 237.788 49.7006L237.522 49.784C237.501 49.7905 237.48 49.7975 237.46 49.8049L237.193 49.9012C237.175 49.9079 237.156 49.915 237.138 49.9225L236.872 50.0309C236.862 50.0348 236.852 50.0388 236.843 50.043L236.823 50.0517L236.556 50.1713C236.548 50.1753 236.539 50.1794 236.53 50.1836L236.514 50.191L236.248 50.3206C236.236 50.3265 236.224 50.3325 236.212 50.3387L235.946 50.4772C235.936 50.4824 235.926 50.4877 235.916 50.4931L235.65 50.6393L235.626 50.6527L235.36 50.8054L235.341 50.816L235.075 50.9737L235.062 50.9815L234.796 51.1428L234.788 51.1475L234.521 51.3111L234.519 51.3127L234.255 51.4755L234.253 51.477L233.992 51.6368L233.736 51.7921L233.485 51.9408L233.24 52.0818L233 52.2137L232.766 52.3356L232.538 52.4468L232.317 52.5464L232.103 52.6342L231.895 52.7097L231.694 52.7732L231.498 52.8247L231.309 52.8645L231.124 52.8931L230.942 52.9109L230.762 52.918L230.583 52.9148L230.36 52.8978C229.534 52.8349 228.813 53.4536 228.75 54.2797C228.688 55.1057 229.306 55.8263 230.132 55.8891L230.399 55.9094C230.427 55.9116 230.456 55.913 230.485 55.9135L230.752 55.9183C230.764 55.9186 230.777 55.9186 230.79 55.9185C230.806 55.9184 230.822 55.918 230.839 55.9174L231.105 55.9067C231.124 55.906 231.143 55.9048 231.162 55.9033L231.191 55.9008L231.457 55.8748L231.478 55.8727L231.498 55.8702L231.521 55.8672L231.541 55.8643L231.807 55.8231C231.833 55.819 231.86 55.8142 231.886 55.8087L232.153 55.7527C232.177 55.7475 232.202 55.7416 232.227 55.7352L232.493 55.6649C232.516 55.6589 232.539 55.6523 232.561 55.6452L232.828 55.5613C232.848 55.5547 232.869 55.5477 232.889 55.5403L233.156 55.4435C233.174 55.4368 233.193 55.4297 233.211 55.4222L233.477 55.3133C233.493 55.3066 233.51 55.2997 233.526 55.2925L233.792 55.1725L233.806 55.1663C233.815 55.1619 233.824 55.1574 233.834 55.1528L234.1 55.0228L234.122 55.0122L234.136 55.0049L234.402 54.866C234.412 54.8608 234.422 54.8555 234.431 54.8502L234.698 54.7036L234.721 54.6903L234.988 54.5375L235.006 54.5269L235.272 54.369L235.285 54.3614L235.551 54.2L235.559 54.1954L235.825 54.0318L235.828 54.0303L236.091 53.8676L236.094 53.866L236.354 53.7064L236.61 53.5514L236.86 53.4029L237.106 53.2624L237.345 53.1308L237.579 53.0093L237.806 52.8987L238.027 52.7995L238.241 52.7123L238.449 52.6372L238.65 52.5743L238.845 52.5233L239.034 52.484L239.219 52.4558L239.401 52.4385L239.58 52.4318L239.76 52.4355L239.941 52.4497L240.124 52.4746L240.312 52.5107L240.506 52.5582L240.705 52.6177L240.91 52.6892L241.123 52.7729L241.342 52.8686L241.567 52.976L241.799 53.0944L242.037 53.2231L242.281 53.3612L242.53 53.5074L242.784 53.6607L243.042 53.8184L243.046 53.8209L243.308 53.9826L243.309 53.9832L243.575 54.1471L243.581 54.1508L243.848 54.3131L243.859 54.3199L244.125 54.4789L244.142 54.4886L244.408 54.6431L244.43 54.6556L244.696 54.8041L244.71 54.8117L244.724 54.8192L244.991 54.9604L245.006 54.9685L245.024 54.9778L245.291 55.1105C245.304 55.1171 245.317 55.1236 245.331 55.1298L245.597 55.2528C245.612 55.2599 245.628 55.2667 245.643 55.2733L245.91 55.3856L245.936 55.3961L245.949 55.4013L245.963 55.4068L246.229 55.5072L246.252 55.5156L246.277 55.5242L246.289 55.5284L246.556 55.6161L246.577 55.6231C246.592 55.6277 246.607 55.6321 246.622 55.6363L246.888 55.7106C246.912 55.7173 246.936 55.7234 246.961 55.7289L247.227 55.7891L247.238 55.7914L247.257 55.7955C247.273 55.7988 247.289 55.8018 247.305 55.8045L247.571 55.85C247.599 55.8547 247.626 55.8586 247.654 55.8618L247.92 55.8922C247.932 55.8936 247.944 55.8948 247.956 55.8959C247.972 55.8974 247.989 55.8986 248.005 55.8995L248.272 55.9147C248.3 55.9163 248.329 55.9171 248.358 55.9171L248.625 55.9167C248.654 55.9167 248.683 55.9158 248.712 55.9141L248.978 55.8983C249.007 55.8966 249.035 55.8941 249.063 55.8908L249.33 55.8597C249.357 55.8565 249.384 55.8526 249.412 55.8478L249.678 55.8017C249.69 55.7996 249.702 55.7974 249.714 55.7951C249.728 55.7923 249.742 55.7893 249.756 55.7861L250.022 55.7253C250.046 55.7198 250.07 55.7137 250.094 55.7069L250.361 55.632C250.383 55.6258 250.405 55.6191 250.427 55.6118L250.693 55.5235C250.713 55.5169 250.733 55.5098 250.753 55.5023L251.019 55.4014C251.037 55.3946 251.054 55.3876 251.072 55.3802L251.338 55.2675L251.359 55.2586L251.384 55.2469L251.651 55.1235L251.668 55.1152L251.691 55.1044L251.957 54.9712C251.968 54.9656 251.979 54.9599 251.99 54.954L252.257 54.8124C252.266 54.8075 252.275 54.8025 252.284 54.7974L252.551 54.6486L252.572 54.6362L252.839 54.4815L252.855 54.4719L253.121 54.3127L253.132 54.3061L253.399 54.1437L253.404 54.1402L253.671 53.9762L253.671 53.9757L253.933 53.8142L253.938 53.8115L254.195 53.6541L254.449 53.5011L254.698 53.3552L254.942 53.2175L255.179 53.0892L255.411 52.9712L255.636 52.8643L255.855 52.7691L256.067 52.6859L256.272 52.6149L256.471 52.556L256.664 52.5089L256.852 52.4734L257.035 52.4489L257.216 52.4351L257.396 52.4319L257.575 52.4391L257.757 52.4568L257.942 52.4854L258.131 52.5252L258.327 52.5767L258.528 52.6402L258.736 52.7157L258.95 52.8035L259.172 52.9031L259.399 53.0143L259.633 53.1362L259.873 53.2681L260.118 53.4091L260.369 53.5578L260.622 53.7108L260.629 53.7154L260.886 53.8729L260.888 53.8744L261.152 54.0372L261.155 54.0388L261.421 54.2024L261.429 54.2071L261.695 54.3684L261.708 54.3762L261.974 54.5339L261.993 54.5445L262.259 54.6972L262.283 54.7106L262.549 54.8568C262.559 54.8622 262.569 54.8675 262.579 54.8727L262.845 55.0113L262.868 55.0229L262.881 55.0293L263.147 55.1589L263.169 55.1694L263.19 55.1786L263.456 55.2982C263.472 55.3054 263.488 55.3124 263.505 55.319L263.771 55.4274C263.789 55.4349 263.808 55.442 263.826 55.4487L264.093 55.545C264.103 55.5488 264.114 55.5525 264.124 55.556C264.134 55.5594 264.145 55.5627 264.155 55.5659L264.421 55.6493C264.444 55.6564 264.467 55.6629 264.49 55.669L264.756 55.7386L264.776 55.7437L264.793 55.7479C264.806 55.7507 264.818 55.7535 264.83 55.7561L265.097 55.8114C265.123 55.8169 265.15 55.8216 265.176 55.8257L265.442 55.8662L265.47 55.8701C265.488 55.8726 265.507 55.8748 265.526 55.8766L265.792 55.9019C265.821 55.9047 265.85 55.9066 265.878 55.9076L266.145 55.9176ZM250.615 17.7551H240.109V40.8716L284.661 40.3422H370.293V38.2247H284.661L250.615 17.7551ZM258.587 12.188H204V8.18799H259.197H259.806L260.313 8.52831L277.336 19.975L275.104 23.2944L258.587 12.188ZM224.377 163.829H271.383V162.182H224.377C223.272 162.182 222.377 161.287 222.377 160.182V154.535C222.377 153.431 223.272 152.535 224.377 152.535H271.383V150.889H226.956V146.889H273.383C274.488 146.889 275.383 147.784 275.383 148.889V154.535C275.383 155.64 274.488 156.535 273.383 156.535H226.377V158.182H273.383C274.488 158.182 275.383 159.077 275.383 160.182V165.829C275.383 166.933 274.488 167.829 273.383 167.829H224.377V163.829ZM243.558 125.579H267.803H281.731L285.858 122.211H262.529L252.327 115.697L228.082 115.697L243.558 125.579ZM280.371 89.0122H304.616L320.092 79.1304L295.847 79.1304L285.645 85.6446L280.371 89.0122ZM273.149 89.0122H248.904L254.178 85.6446L264.38 79.1304H288.625L273.149 89.0122ZM217.437 89.0122L241.683 89.0122L257.158 79.1304L232.913 79.1304L222.711 85.6446L217.437 89.0122ZM295.073 112.583L237.297 112.583V105.171L250.709 95.9951H295.073V112.583ZM371.76 147.11H335.892V151.11H373.76C374.865 151.11 375.76 150.214 375.76 149.11V143.463C375.76 142.359 374.865 141.463 373.76 141.463H326.087L323.078 139.816H373.76C374.865 139.816 375.76 138.921 375.76 137.816V132.17C375.76 131.065 374.865 130.17 373.76 130.17L213.537 130.17V134.17L371.76 134.17V135.816H315.258C314.344 135.816 313.547 136.436 313.321 137.321C313.094 138.206 313.496 139.132 314.298 139.571L324.615 145.218C324.909 145.379 325.24 145.463 325.575 145.463H371.76V147.11ZM292.073 146.95C294.922 146.95 297.231 148.53 297.231 150.479C297.231 152.428 294.922 154.008 292.073 154.008C289.224 154.008 286.914 152.428 286.914 150.479C286.914 148.53 289.224 146.95 292.073 146.95ZM310.087 95.6419L300.678 95.6419V98.4653L310.737 98.4653C311.16 98.4653 311.573 98.3764 311.919 98.2105L348.271 80.8192H376.578V77.9958H347.621C347.198 77.9958 346.785 78.0847 346.438 78.2506L310.087 95.6419ZM289.869 169.14L312.497 185.551L309.495 187.489L286.867 171.078L289.869 169.14ZM285.338 31.0552H381.222V5.99765H307.597L285.338 19.8593V31.0552ZM376.578 3.17627L237.297 3.17627V-3.05176e-05L376.578 -3.05176e-05V3.17627Z" fill="url(#paint0_linear_3635_11379)"/>
<path d="M20.6364 26.0827L-21.2602 26.0827L-33.9561 5.00049L-53 5.74021L-53 75.6443M20.6364 67.8772H3.4969M-21.2602 67.8772L3.4969 67.8772M3.4969 67.8772L-13.8542 86.0005L-41.9969 86.0005L-53 75.6443M-53 75.6443V81.1923" stroke="#8F8E93" stroke-width="1.33884" stroke-linejoin="round"/>
<path d="M20.6364 107.083L-21.2602 107.083L-33.9561 86.0005L-53 86.7402L-53 156.644M20.6364 148.877H3.4969M-21.2602 148.877H3.4969M3.4969 148.877L-13.8542 167H-41.9969L-53 156.644M-53 156.644V162.192" stroke="#8F8E93" stroke-width="1.33884" stroke-linejoin="round"/>
</g>
<defs>
<linearGradient id="paint0_linear_3635_11379" x1="257.816" y1="-68.1345" x2="179.513" y2="162.939" gradientUnits="userSpaceOnUse">
<stop stop-color="#F1EFED"/>
<stop offset="0.534758" stop-color="#DDDDDD" stop-opacity="0.22"/>
<stop offset="1" stop-color="#F1EFED"/>
</linearGradient>
<clipPath id="clip0_3635_11379">
<rect width="374" height="252" fill="white"/>
</clipPath>
</defs>
</svg>
