<svg width="383" height="254" viewBox="0 0 383 254" fill="none" xmlns="http://www.w3.org/2000/svg">
<g clip-path="url(#clip0_3332_11019)">
<path fill-rule="evenodd" clip-rule="evenodd" d="M319.77 190.73H377.546V174.143H333.182L319.77 183.319V190.73ZM365.524 168.187C365.582 168.192 365.64 168.193 365.698 168.19L365.965 168.179C366.022 168.177 366.079 168.171 366.136 168.162L366.402 168.121C366.456 168.112 366.51 168.101 366.562 168.086L366.829 168.014C366.877 168.001 366.926 167.985 366.973 167.967L367.239 167.865C367.282 167.848 367.323 167.83 367.364 167.81L367.631 167.679C367.667 167.661 367.702 167.642 367.737 167.621L368.003 167.462C368.033 167.444 368.062 167.425 368.091 167.406L368.357 167.22C368.382 167.203 368.406 167.185 368.43 167.167L368.696 166.957L368.71 166.946L368.732 166.928C368.739 166.921 368.747 166.915 368.754 166.908L369.021 166.675C369.037 166.661 369.053 166.647 369.068 166.632L369.334 166.379C369.347 166.366 369.36 166.354 369.372 166.341L369.638 166.069L369.655 166.052L369.668 166.038L369.934 165.75C369.942 165.741 369.95 165.733 369.957 165.724L370.224 165.422L370.241 165.402L370.507 165.09L370.519 165.075L370.786 164.754L370.793 164.745L371.06 164.419L371.063 164.415L371.329 164.087L371.329 164.086L371.59 163.765L371.595 163.759L371.852 163.446L372.106 163.142L372.356 162.852L372.6 162.58L372.838 162.328L373.067 162.099L373.313 161.872C373.921 161.31 373.959 160.361 373.396 159.752C372.834 159.144 371.885 159.107 371.277 159.669L371.01 159.915C370.996 159.928 370.983 159.941 370.969 159.954L370.703 160.22L370.688 160.236L370.671 160.253L370.404 160.536L370.391 160.549L370.379 160.563L370.112 160.861L370.093 160.883L369.827 161.192L369.813 161.208L369.547 161.526L369.537 161.537L369.271 161.862L369.266 161.868L369 162.196L368.999 162.197L368.736 162.521L368.733 162.525L368.477 162.838L368.47 162.848L368.217 163.152L367.965 163.447L367.719 163.727L367.479 163.987L367.246 164.224L367.022 164.438L366.808 164.625L366.607 164.783L366.421 164.913L366.251 165.014L366.101 165.088L365.969 165.139L365.855 165.17L365.755 165.185L365.662 165.189L365.567 165.182L365.464 165.162L365.345 165.126L365.208 165.069L365.052 164.988L364.877 164.878L364.686 164.74L364.481 164.573L364.264 164.378L364.037 164.158L363.802 163.913L363.56 163.647L363.313 163.363L363.059 163.063L362.805 162.755L362.798 162.747L362.541 162.43L362.538 162.428L362.274 162.102L362.272 162.099L362.006 161.772L362 161.764L361.733 161.441L361.723 161.429L361.457 161.113L361.441 161.095L361.175 160.789L361.17 160.783L361.154 160.765L360.887 160.472C360.878 160.462 360.869 160.453 360.86 160.443L360.594 160.165C360.582 160.153 360.571 160.141 360.559 160.13L360.293 159.87C360.278 159.856 360.264 159.842 360.249 159.829L359.982 159.589C359.965 159.573 359.946 159.557 359.928 159.542L359.662 159.324C359.64 159.306 359.617 159.289 359.594 159.272L359.328 159.078C359.301 159.059 359.273 159.04 359.245 159.022L358.979 158.854C358.947 158.834 358.913 158.815 358.879 158.797L358.613 158.656C358.574 158.636 358.535 158.617 358.494 158.6L358.228 158.488C358.183 158.469 358.137 158.452 358.09 158.438L357.823 158.356C357.772 158.34 357.72 158.327 357.668 158.316L357.402 158.264C357.346 158.253 357.29 158.246 357.233 158.241L356.967 158.22C356.909 158.215 356.851 158.214 356.793 158.216L356.527 158.226C356.469 158.228 356.412 158.233 356.355 158.242L356.089 158.282C356.035 158.291 355.981 158.302 355.928 158.316L355.662 158.387C355.613 158.4 355.564 158.416 355.517 158.434L355.251 158.535C355.208 158.551 355.166 158.569 355.125 158.589L354.858 158.719C354.822 158.737 354.786 158.756 354.751 158.777L354.485 158.935C354.455 158.952 354.425 158.971 354.396 158.991L354.13 159.176C354.105 159.193 354.081 159.211 354.057 159.229L353.791 159.438C353.771 159.454 353.751 159.47 353.732 159.487L353.465 159.719C353.449 159.733 353.433 159.748 353.418 159.762L353.151 160.015C353.139 160.027 353.126 160.04 353.113 160.053L352.847 160.324C352.837 160.334 352.827 160.345 352.817 160.356L352.551 160.643C352.543 160.652 352.535 160.66 352.528 160.669L352.261 160.97L352.244 160.99L351.977 161.303L351.965 161.318L351.699 161.638L351.691 161.648L351.425 161.974L351.421 161.978L351.155 162.306L351.155 162.306L350.894 162.628L350.889 162.634L350.632 162.947L350.377 163.252L350.127 163.542L349.883 163.816L349.645 164.068L349.415 164.298L349.194 164.503L348.984 164.681L348.788 164.83L348.607 164.95L348.444 165.042L348.299 165.108L348.174 165.151L348.065 165.176L347.968 165.188L347.875 165.188L347.779 165.177L347.671 165.152L347.546 165.11L347.403 165.045L347.24 164.954L347.06 164.835L346.864 164.688L346.655 164.511L346.434 164.308L346.204 164.079L345.967 163.827L345.723 163.554L345.473 163.265L345.218 162.96L344.959 162.644L344.696 162.32L344.695 162.319L344.43 161.992L344.426 161.988L344.16 161.662L344.153 161.652L343.886 161.331L343.874 161.317L343.608 161.004L343.59 160.984L343.324 160.682L343.312 160.669L343.301 160.657L343.035 160.369C343.025 160.358 343.015 160.348 343.005 160.337L342.739 160.065C342.726 160.053 342.714 160.04 342.701 160.028L342.435 159.774C342.419 159.76 342.404 159.745 342.388 159.731L342.121 159.498C342.102 159.482 342.083 159.465 342.063 159.45L341.796 159.24C341.773 159.221 341.749 159.203 341.724 159.186L341.458 159.001C341.441 158.989 341.423 158.977 341.406 158.966C341.394 158.959 341.382 158.951 341.37 158.944L341.104 158.785C341.069 158.765 341.034 158.745 340.998 158.728L340.731 158.597C340.712 158.587 340.693 158.578 340.674 158.57C340.664 158.565 340.653 158.561 340.642 158.556L340.622 158.548L340.606 158.542L340.34 158.44C340.292 158.422 340.244 158.406 340.195 158.393L339.929 158.32C339.876 158.306 339.823 158.294 339.769 158.286L339.502 158.244C339.446 158.235 339.389 158.23 339.331 158.227L339.065 158.216C339.007 158.214 338.949 158.215 338.891 158.219L338.625 158.239C338.568 158.243 338.512 158.251 338.456 158.261L338.19 158.312C338.137 158.322 338.085 158.335 338.034 158.351L337.767 158.432C337.72 158.446 337.674 158.463 337.629 158.482L337.362 158.592C337.322 158.609 337.282 158.628 337.243 158.648L336.976 158.788C336.942 158.806 336.908 158.825 336.876 158.846L336.609 159.012L336.585 159.028L336.563 159.043C336.55 159.051 336.538 159.06 336.526 159.068L336.26 159.261C336.25 159.268 336.24 159.275 336.231 159.282L336.211 159.297L336.192 159.313L335.926 159.53C335.917 159.537 335.91 159.543 335.902 159.55C335.891 159.559 335.881 159.568 335.87 159.577L335.604 159.816C335.589 159.83 335.574 159.843 335.56 159.858L335.294 160.117L335.278 160.132L335.258 160.152L334.992 160.429C334.983 160.439 334.974 160.449 334.964 160.459L334.698 160.752C334.691 160.759 334.684 160.767 334.677 160.775L334.411 161.081L334.395 161.099L334.129 161.414L334.118 161.427L333.851 161.75L333.845 161.758L333.579 162.085L333.577 162.088L333.312 162.414L333.31 162.416L333.049 162.737L332.791 163.05L332.538 163.351L332.29 163.636L332.047 163.902L331.812 164.148L331.585 164.37L331.368 164.565L331.162 164.734L330.97 164.873L330.795 164.983L330.638 165.066L330.5 165.124L330.381 165.161L330.276 165.182L330.182 165.189L330.089 165.186L329.907 165.158C329.088 165.034 328.323 165.596 328.199 166.415C328.074 167.234 328.637 167.999 329.456 168.124L329.722 168.165C329.779 168.173 329.836 168.179 329.894 168.181L330.16 168.19C330.218 168.193 330.276 168.191 330.334 168.187L330.6 168.165C330.657 168.161 330.713 168.153 330.768 168.142L331.035 168.09C331.087 168.08 331.139 168.067 331.19 168.051L331.457 167.969C331.503 167.954 331.549 167.937 331.595 167.918L331.861 167.807C331.901 167.79 331.941 167.771 331.98 167.75L332.246 167.61C332.28 167.592 332.313 167.573 332.346 167.552L332.612 167.384C332.64 167.367 332.668 167.348 332.695 167.328L332.961 167.135C332.984 167.118 333.006 167.101 333.028 167.083L333.295 166.865C333.303 166.858 333.312 166.851 333.321 166.843L333.339 166.827L333.349 166.818L333.616 166.578C333.63 166.565 333.645 166.551 333.659 166.537L333.926 166.277L333.941 166.261L333.961 166.242L334.227 165.964C334.236 165.954 334.245 165.944 334.254 165.934L334.521 165.641C334.528 165.633 334.535 165.626 334.542 165.618L334.808 165.312L334.823 165.294L335.09 164.978L335.1 164.965L335.367 164.642L335.373 164.635L335.639 164.307L335.641 164.305L335.905 163.979L335.907 163.976L336.168 163.656L336.426 163.343L336.679 163.044L336.927 162.759L337.169 162.494L337.404 162.249L337.631 162.028L337.848 161.833L338.053 161.667L338.244 161.528L338.418 161.419L338.575 161.337L338.712 161.28L338.831 161.244L338.934 161.224L339.029 161.217L339.122 161.221L339.222 161.237L339.336 161.268L339.467 161.318L339.618 161.392L339.788 161.494L339.974 161.623L340.175 161.782L340.389 161.969L340.613 162.182L340.846 162.42L341.086 162.68L341.332 162.959L341.584 163.255L341.84 163.564L342.099 163.881L342.103 163.885L342.366 164.21L342.367 164.211L342.633 164.539L342.638 164.545L342.904 164.869L342.913 164.88L343.18 165.199L343.194 165.215L343.46 165.524L343.479 165.546L343.746 165.843L343.758 165.857L343.771 165.871L344.037 166.153C344.048 166.165 344.059 166.176 344.07 166.187L344.336 166.452C344.35 166.466 344.363 166.479 344.377 166.492L344.644 166.738C344.653 166.746 344.662 166.754 344.671 166.763C344.679 166.769 344.687 166.776 344.695 166.783L344.961 167.007C344.982 167.025 345.003 167.042 345.025 167.058L345.291 167.259C345.316 167.278 345.342 167.296 345.369 167.314L345.635 167.489C345.666 167.51 345.697 167.529 345.73 167.547L345.996 167.696C346.033 167.716 346.071 167.735 346.109 167.753L346.375 167.873C346.419 167.893 346.463 167.91 346.508 167.925L346.774 168.016C346.824 168.033 346.874 168.048 346.925 168.059L347.191 168.12C347.246 168.133 347.301 168.142 347.356 168.148L347.623 168.179C347.68 168.185 347.738 168.189 347.796 168.188L348.062 168.188C348.12 168.188 348.178 168.184 348.235 168.177L348.502 168.146C348.557 168.139 348.612 168.129 348.666 168.117L348.933 168.055C348.983 168.043 349.033 168.028 349.083 168.011L349.349 167.919C349.394 167.903 349.438 167.886 349.481 167.866L349.747 167.744C349.785 167.727 349.823 167.708 349.859 167.687L350.126 167.538C350.158 167.52 350.189 167.5 350.219 167.48L350.486 167.304C350.512 167.286 350.538 167.268 350.563 167.249L350.829 167.047C350.851 167.031 350.872 167.014 350.892 166.996L351.158 166.771C351.176 166.756 351.193 166.741 351.209 166.726L351.476 166.479L351.496 166.459L351.516 166.44L351.782 166.174L351.797 166.159L351.815 166.14L352.081 165.857C352.089 165.848 352.098 165.839 352.106 165.83L352.372 165.532L352.392 165.51L352.658 165.201L352.672 165.185L352.938 164.866L352.947 164.855L353.213 164.53L353.218 164.525L353.484 164.197L353.485 164.196L353.748 163.872L353.751 163.867L354.01 163.55L354.267 163.242L354.518 162.947L354.764 162.668L355.004 162.409L355.236 162.173L355.46 161.96L355.673 161.775L355.874 161.617L356.059 161.489L356.228 161.389L356.378 161.316L356.509 161.266L356.622 161.236L356.722 161.221L356.815 161.217L356.91 161.225L357.014 161.245L357.133 161.282L357.271 161.34L357.428 161.423L357.604 161.534L357.795 161.673L358.001 161.841L358.218 162.037L358.445 162.259L358.68 162.504L358.923 162.771L359.171 163.056L359.424 163.356L359.682 163.669L359.943 163.99L359.945 163.993L360.21 164.319L360.212 164.322L360.478 164.649L360.485 164.656L360.751 164.979L360.762 164.992L361.028 165.308L361.044 165.326L361.31 165.631L361.323 165.646L361.331 165.655L361.598 165.948C361.607 165.958 361.616 165.967 361.625 165.977L361.892 166.254C361.903 166.266 361.915 166.278 361.927 166.29L362.193 166.549C362.208 166.563 362.222 166.577 362.237 166.59L362.504 166.829L362.52 166.844L362.538 166.859L362.559 166.877L362.825 167.093C362.847 167.111 362.87 167.129 362.893 167.146L363.159 167.338C363.169 167.345 363.178 167.352 363.187 167.358C363.205 167.371 363.224 167.383 363.242 167.394L363.509 167.561C363.542 167.582 363.575 167.601 363.609 167.619L363.876 167.758C363.915 167.779 363.955 167.797 363.995 167.814L364.262 167.925C364.307 167.944 364.353 167.96 364.4 167.975L364.667 168.056C364.718 168.071 364.77 168.084 364.823 168.094L365.089 168.145C365.145 168.156 365.201 168.163 365.258 168.167L365.524 168.187ZM377.874 118.696L309.266 118.696V117.284L377.874 117.284V118.696ZM230.082 70.2305L298.691 70.2305V68.8188L230.082 68.8188V70.2305ZM253.555 64.9375L322.163 64.9375V63.5258L253.555 63.5258V64.9375ZM298.691 59.6406L230.082 59.6406V58.2289L298.691 58.2289V59.6406ZM268.145 55.9171C268.16 55.9177 268.176 55.9181 268.192 55.9182C268.205 55.9182 268.219 55.9182 268.232 55.9179L268.498 55.9124C268.509 55.9122 268.521 55.9118 268.532 55.9113L268.551 55.9104C268.562 55.9097 268.574 55.909 268.585 55.9081L268.851 55.8872C268.879 55.885 268.907 55.882 268.935 55.8782L269.202 55.842L269.227 55.8384C269.245 55.8355 269.264 55.8323 269.282 55.8288L269.549 55.7777C269.574 55.7728 269.599 55.7673 269.625 55.7611L269.891 55.6955L269.92 55.6882C269.933 55.6845 269.947 55.6806 269.961 55.6764L270.228 55.597C270.249 55.5906 270.27 55.5837 270.292 55.5763L270.558 55.4837L270.571 55.4791C270.586 55.4738 270.601 55.4682 270.615 55.4624L270.882 55.3575C270.899 55.3508 270.915 55.3437 270.932 55.3364L271.199 55.22C271.213 55.2135 271.228 55.2068 271.243 55.1999L271.509 55.0731L271.528 55.0637L271.547 55.0545L271.813 54.9185L271.829 54.9102L271.844 54.9019L272.111 54.7578L272.136 54.7436L272.403 54.5927L272.423 54.5812L272.689 54.4248L272.703 54.4162L272.97 54.2558L272.979 54.2502L273.245 54.0871L273.249 54.0846L273.515 53.921L273.516 53.9204L273.775 53.7607L273.781 53.757L274.03 53.6053L274.041 53.5985L274.288 53.4511L274.535 53.3078L274.777 53.1731L275.013 53.0482L275.242 52.9338L275.488 52.8201C276.24 52.4727 276.568 51.5814 276.221 50.8293C275.873 50.0773 274.982 49.7492 274.23 50.0966L273.964 50.2197L273.938 50.2319L273.924 50.2389L273.657 50.3716C273.646 50.3772 273.635 50.383 273.624 50.389L273.357 50.5302C273.348 50.5351 273.339 50.5402 273.33 50.5453L273.063 50.6938L273.041 50.7064L272.775 50.8608L272.758 50.8705L272.492 51.0296L272.481 51.0363L272.215 51.1986L272.208 51.2023L271.942 51.3662L271.941 51.3668L271.679 51.5285L271.675 51.5311L271.422 51.6859L271.413 51.6916L271.163 51.842L270.914 51.9882L270.67 52.1263L270.432 52.255L270.2 52.3735L269.975 52.4808L269.756 52.5765L269.544 52.6602L269.338 52.7318L269.139 52.7912L268.945 52.8387L268.757 52.8748L268.574 52.8997L268.393 52.9139L268.214 52.9176L268.034 52.9109L267.852 52.8936L267.668 52.8654L267.478 52.8261L267.283 52.7751L267.082 52.7122L266.875 52.6371L266.66 52.5499L266.439 52.4507L266.212 52.3401L265.978 52.2186L265.739 52.087L265.494 51.9465L265.243 51.7981L264.991 51.6454L264.983 51.6406L264.727 51.4835L264.724 51.4818L264.461 51.3192L264.458 51.3177L264.192 51.1541L264.184 51.1494L263.918 50.988L263.905 50.9804L263.639 50.8225L263.621 50.812L263.355 50.6591L263.331 50.6458L263.065 50.4993L263.051 50.4916L263.035 50.4835L262.769 50.3446C262.757 50.3384 262.745 50.3324 262.733 50.3266L262.467 50.1966L262.446 50.1863L262.425 50.1769L262.159 50.0569C262.143 50.0497 262.127 50.0428 262.11 50.0361L261.844 49.9272C261.826 49.9198 261.807 49.9127 261.789 49.9059L261.522 49.8091C261.511 49.805 261.5 49.801 261.488 49.7971L261.461 49.7881L261.194 49.7042C261.172 49.6971 261.149 49.6905 261.126 49.6845L260.86 49.6143C260.835 49.6078 260.811 49.6019 260.786 49.5967L260.519 49.5407C260.493 49.5352 260.467 49.5304 260.44 49.5263L260.174 49.4851C260.146 49.4808 260.118 49.4773 260.09 49.4746L259.824 49.4486C259.813 49.4475 259.801 49.4465 259.79 49.4456C259.773 49.4444 259.755 49.4434 259.738 49.4427L259.472 49.432C259.443 49.4309 259.414 49.4306 259.385 49.4311L259.118 49.4359C259.089 49.4364 259.061 49.4378 259.032 49.44L258.765 49.4603C258.737 49.4624 258.709 49.4654 258.681 49.4691L258.415 49.5046C258.388 49.5082 258.361 49.5126 258.334 49.5177L258.067 49.5681C258.042 49.573 258.016 49.5785 257.991 49.5846L257.725 49.6496C257.701 49.6553 257.678 49.6617 257.654 49.6686L257.388 49.7475C257.366 49.7538 257.345 49.7607 257.324 49.7681L257.057 49.8602C257.038 49.8668 257.019 49.8739 257 49.8814L256.733 49.9859C256.716 49.9926 256.699 49.9996 256.683 50.007L256.416 50.1229C256.401 50.1294 256.387 50.1361 256.372 50.1431L256.106 50.2695C256.093 50.2755 256.08 50.2817 256.068 50.2881L255.801 50.4238C255.791 50.4292 255.78 50.4348 255.77 50.4405L255.503 50.5843L255.477 50.5985L255.211 50.7492L255.191 50.7608L254.925 50.917L254.91 50.9257L254.644 51.086L254.634 51.0917L254.368 51.2547L254.363 51.2574L254.098 51.4211L254.097 51.4216L253.837 51.5815L253.831 51.5851L253.576 51.7405L253.324 51.8916L253.076 52.0353L252.835 52.1703L252.599 52.2957L252.369 52.4105L252.146 52.514L251.929 52.6058L251.719 52.6854L251.515 52.7529L251.318 52.8083L251.127 52.852L250.94 52.8843L250.758 52.9056L250.578 52.9163L250.398 52.9165L250.218 52.9063L250.036 52.8854L249.85 52.8536L249.658 52.8104L249.461 52.7555L249.258 52.6885L249.048 52.6094L248.832 52.5181L248.609 52.4151L248.379 52.3008L248.144 52.1758L247.902 52.0411L247.655 51.8978L247.403 51.7471L247.145 51.59L246.883 51.4285L246.882 51.428L246.616 51.2643L246.612 51.2618L246.346 51.0987L246.337 51.0931L246.07 50.9327L246.056 50.9241L245.789 50.7677L245.77 50.7562L245.503 50.6053L245.478 50.5912L245.211 50.447C245.201 50.4414 245.19 50.4359 245.18 50.4305L244.913 50.2944C244.901 50.288 244.888 50.2818 244.876 50.2758L244.609 50.149C244.595 50.1421 244.58 50.1354 244.565 50.1289L244.299 50.0125C244.288 50.0078 244.277 50.0031 244.266 49.9986L244.248 49.9915L243.982 49.8865C243.963 49.879 243.944 49.8719 243.925 49.8652L243.658 49.7726C243.637 49.7652 243.616 49.7583 243.594 49.7519L243.328 49.6725C243.305 49.6656 243.281 49.6592 243.258 49.6534L242.992 49.5878C242.966 49.5816 242.941 49.5761 242.916 49.5712L242.649 49.5201C242.622 49.515 242.596 49.5106 242.568 49.5069L242.302 49.4708C242.274 49.467 242.246 49.464 242.218 49.4617L241.951 49.4408C241.923 49.4386 241.894 49.4371 241.865 49.4365L241.599 49.431C241.57 49.4305 241.541 49.4307 241.511 49.4318L241.245 49.4418C241.216 49.4429 241.188 49.4448 241.159 49.4475L240.893 49.4729C240.882 49.4739 240.872 49.475 240.861 49.4762L240.841 49.4787C240.831 49.4801 240.82 49.4816 240.809 49.4832L240.543 49.5237L240.515 49.5283C240.498 49.5312 240.481 49.5345 240.464 49.538L240.197 49.5934L240.178 49.5975L240.164 49.6007L240.146 49.6048L240.123 49.6108L239.856 49.6805C239.834 49.6865 239.811 49.693 239.788 49.7001L239.522 49.7835C239.501 49.79 239.48 49.797 239.46 49.8044L239.193 49.9007C239.175 49.9074 239.156 49.9145 239.138 49.922L238.872 50.0304C238.862 50.0343 238.852 50.0383 238.843 50.0425L238.823 50.0512L238.556 50.1708C238.548 50.1748 238.539 50.1789 238.53 50.1831L238.514 50.1905L238.248 50.3201C238.236 50.326 238.224 50.332 238.212 50.3382L237.946 50.4767C237.936 50.4819 237.926 50.4872 237.916 50.4926L237.65 50.6388L237.626 50.6523L237.36 50.8049L237.341 50.8156L237.075 50.9732L237.062 50.981L236.796 51.1423L236.788 51.147L236.521 51.3106L236.519 51.3122L236.255 51.475L236.253 51.4765L235.992 51.6363L235.736 51.7916L235.485 51.9404L235.24 52.0813L235 52.2132L234.766 52.3352L234.538 52.4463L234.317 52.5459L234.103 52.6337L233.895 52.7093L233.694 52.7727L233.498 52.8242L233.309 52.864L233.124 52.8926L232.942 52.9104L232.762 52.9175L232.583 52.9143L232.36 52.8973C231.534 52.8345 230.813 53.4531 230.75 54.2792C230.688 55.1052 231.306 55.8258 232.132 55.8887L232.399 55.9089C232.427 55.9111 232.456 55.9125 232.485 55.913L232.752 55.9178C232.764 55.9181 232.777 55.9181 232.79 55.918C232.806 55.9179 232.822 55.9175 232.839 55.9169L233.105 55.9062C233.124 55.9055 233.143 55.9044 233.162 55.9028L233.191 55.9003L233.457 55.8743L233.478 55.8722L233.498 55.8697L233.521 55.8667L233.541 55.8638L233.807 55.8226C233.833 55.8185 233.86 55.8137 233.886 55.8082L234.153 55.7522C234.177 55.747 234.202 55.7411 234.227 55.7347L234.493 55.6644C234.516 55.6584 234.539 55.6518 234.561 55.6447L234.828 55.5608C234.848 55.5542 234.869 55.5473 234.889 55.5398L235.156 55.443C235.174 55.4363 235.193 55.4292 235.211 55.4217L235.477 55.3128C235.493 55.3062 235.51 55.2992 235.526 55.292L235.792 55.172L235.806 55.1658C235.815 55.1614 235.824 55.1569 235.834 55.1523L236.1 55.0223L236.122 55.0117L236.136 55.0044L236.402 54.8655C236.412 54.8603 236.422 54.8551 236.431 54.8497L236.698 54.7031L236.721 54.6898L236.988 54.537L237.006 54.5264L237.272 54.3685L237.285 54.3609L237.551 54.1995L237.559 54.1949L237.825 54.0313L237.828 54.0298L238.091 53.8671L238.094 53.8655L238.354 53.7059L238.61 53.5509L238.86 53.4024L239.106 53.2619L239.345 53.1304L239.579 53.0089L239.806 52.8982L240.027 52.799L240.241 52.7118L240.449 52.6367L240.65 52.5738L240.845 52.5228L241.034 52.4835L241.219 52.4554L241.401 52.438L241.58 52.4313L241.76 52.435L241.941 52.4492L242.124 52.4742L242.312 52.5102L242.506 52.5578L242.705 52.6172L242.91 52.6887L243.123 52.7724L243.342 52.8681L243.567 52.9755L243.799 53.0939L244.037 53.2226L244.281 53.3607L244.53 53.5069L244.784 53.6602L245.042 53.8179L245.046 53.8204L245.308 53.9821L245.309 53.9827L245.575 54.1467L245.581 54.1504L245.848 54.3126L245.859 54.3194L246.125 54.4784L246.142 54.4881L246.408 54.6426L246.43 54.6551L246.696 54.8036L246.71 54.8112L246.724 54.8187L246.991 54.96L247.006 54.968L247.024 54.9773L247.291 55.1101C247.304 55.1167 247.317 55.1231 247.331 55.1293L247.597 55.2523C247.612 55.2594 247.628 55.2663 247.643 55.2728L247.91 55.3851L247.936 55.3956L247.949 55.4008L247.963 55.4063L248.229 55.5067L248.252 55.5152L248.277 55.5237L248.289 55.5279L248.556 55.6156L248.577 55.6226C248.592 55.6272 248.607 55.6316 248.622 55.6358L248.888 55.7101C248.912 55.7168 248.936 55.7229 248.961 55.7284L249.227 55.7886L249.238 55.791L249.257 55.795C249.273 55.7983 249.289 55.8013 249.305 55.804L249.571 55.8495C249.599 55.8542 249.626 55.8581 249.654 55.8613L249.92 55.8917C249.932 55.8931 249.944 55.8943 249.956 55.8954C249.972 55.8969 249.989 55.8981 250.005 55.899L250.272 55.9142C250.3 55.9158 250.329 55.9166 250.358 55.9166L250.625 55.9163C250.654 55.9162 250.683 55.9153 250.712 55.9136L250.978 55.8978C251.007 55.8961 251.035 55.8936 251.063 55.8904L251.33 55.8592C251.357 55.856 251.384 55.8521 251.412 55.8473L251.678 55.8012C251.69 55.7991 251.702 55.7969 251.714 55.7946C251.728 55.7918 251.742 55.7888 251.756 55.7856L252.022 55.7248C252.046 55.7193 252.07 55.7132 252.094 55.7064L252.361 55.6316C252.383 55.6253 252.405 55.6186 252.427 55.6113L252.693 55.523C252.713 55.5164 252.733 55.5093 252.753 55.5018L253.019 55.4009C253.037 55.3941 253.054 55.3871 253.072 55.3797L253.338 55.267L253.359 55.2581L253.384 55.2465L253.651 55.123L253.668 55.1147L253.691 55.1039L253.957 54.9707C253.968 54.9651 253.979 54.9594 253.99 54.9535L254.257 54.8119C254.266 54.807 254.275 54.802 254.284 54.7969L254.551 54.6481L254.572 54.6357L254.839 54.481L254.855 54.4714L255.121 54.3122L255.132 54.3056L255.399 54.1432L255.404 54.1397L255.671 53.9757L255.671 53.9752L255.933 53.8137L255.938 53.811L256.195 53.6536L256.449 53.5006L256.698 53.3547L256.942 53.217L257.179 53.0887L257.411 52.9707L257.636 52.8638L257.855 52.7686L258.067 52.6854L258.272 52.6144L258.471 52.5555L258.664 52.5085L258.852 52.4729L259.035 52.4484L259.216 52.4346L259.396 52.4314L259.575 52.4386L259.757 52.4563L259.942 52.4849L260.131 52.5247L260.327 52.5762L260.528 52.6397L260.736 52.7153L260.95 52.803L261.172 52.9026L261.399 53.0138L261.633 53.1357L261.873 53.2677L262.118 53.4086L262.369 53.5573L262.622 53.7103L262.629 53.7149L262.886 53.8724L262.888 53.8739L263.152 54.0367L263.155 54.0383L263.421 54.2019L263.429 54.2066L263.695 54.3679L263.708 54.3757L263.974 54.5334L263.993 54.544L264.259 54.6967L264.283 54.7101L264.549 54.8563C264.559 54.8617 264.569 54.867 264.579 54.8722L264.845 55.0108L264.868 55.0224L264.881 55.0288L265.147 55.1584L265.169 55.1689L265.19 55.1781L265.456 55.2977C265.472 55.3049 265.488 55.3119 265.505 55.3185L265.771 55.4269C265.789 55.4344 265.808 55.4415 265.826 55.4482L266.093 55.5445C266.103 55.5483 266.114 55.552 266.124 55.5555C266.134 55.5589 266.145 55.5623 266.155 55.5655L266.421 55.6488C266.444 55.6559 266.467 55.6625 266.49 55.6685L266.756 55.7381L266.776 55.7432L266.793 55.7474C266.806 55.7503 266.818 55.753 266.83 55.7556L267.097 55.8109C267.123 55.8164 267.15 55.8212 267.176 55.8252L267.442 55.8658L267.47 55.8697C267.488 55.8721 267.507 55.8743 267.526 55.8761L267.792 55.9014C267.821 55.9042 267.85 55.9061 267.878 55.9072L268.145 55.9171ZM252.615 17.7546H242.109V40.8711L286.661 40.3417H372.293V38.2242H286.661L252.615 17.7546ZM260.587 12.1875H206V8.1875H261.197H261.806L262.313 8.52782L279.336 19.9745L277.104 23.2939L260.587 12.1875ZM226.377 163.828H273.383V162.182H226.377C225.272 162.182 224.377 161.286 224.377 160.182V154.535C224.377 153.43 225.272 152.535 226.377 152.535H273.383V150.888H228.956V146.888H275.383C276.488 146.888 277.383 147.783 277.383 148.888V154.535C277.383 155.639 276.488 156.535 275.383 156.535H228.377V158.182H275.383C276.488 158.182 277.383 159.077 277.383 160.182V165.828C277.383 166.933 276.488 167.828 275.383 167.828H226.377V163.828ZM245.558 125.578H269.803H283.731L287.858 122.211H264.529L254.327 115.696L230.082 115.696L245.558 125.578ZM282.371 89.0117H306.616L322.092 79.1299L297.847 79.1299L287.645 85.6441L282.371 89.0117ZM275.149 89.0117H250.904L256.178 85.6441L266.38 79.1299H290.625L275.149 89.0117ZM219.437 89.0117L243.683 89.0117L259.158 79.1299L234.913 79.1299L224.711 85.6441L219.437 89.0117ZM297.073 112.582L239.297 112.582V105.171L252.709 95.9947H297.073V112.582ZM373.76 147.109H337.892V151.109H375.76C376.865 151.109 377.76 150.214 377.76 149.109V143.463C377.76 142.358 376.865 141.463 375.76 141.463H328.087L325.078 139.816H375.76C376.865 139.816 377.76 138.92 377.76 137.816V132.169C377.76 131.064 376.865 130.169 375.76 130.169L215.537 130.169V134.169L373.76 134.169V135.816H317.258C316.344 135.816 315.547 136.435 315.321 137.32C315.094 138.205 315.496 139.132 316.298 139.57L326.615 145.217C326.909 145.378 327.24 145.463 327.575 145.463H373.76V147.109ZM294.073 146.949C296.922 146.949 299.231 148.529 299.231 150.479C299.231 152.428 296.922 154.008 294.073 154.008C291.224 154.008 288.914 152.428 288.914 150.479C288.914 148.529 291.224 146.949 294.073 146.949ZM312.087 95.6415L302.678 95.6415V98.4648L312.737 98.4648C313.16 98.4648 313.573 98.3759 313.919 98.21L350.271 80.8187H378.578V77.9953H349.621C349.198 77.9953 348.785 78.0843 348.438 78.2501L312.087 95.6415ZM291.869 169.14L314.497 185.551L311.495 187.488L288.867 171.077L291.869 169.14ZM287.338 31.0547H383.222V5.99716H309.597L287.338 19.8588V31.0547ZM378.578 3.17578L239.297 3.17578V-0.000518799L378.578 -0.000518799V3.17578Z" fill="url(#paint0_linear_3332_11019)"/>
<path d="M22.6364 30.0822L-19.2602 30.0822L-31.9561 9L-51 9.73973L-51 79.6438M22.6364 71.8767H5.4969M-19.2602 71.8767L5.4969 71.8767M5.4969 71.8767L-11.8542 90L-39.9969 90L-51 79.6438M-51 79.6438V85.1918" stroke="#8F8E93" stroke-width="1.33884" stroke-linejoin="round"/>
<path d="M29.982 26.7845C27.4372 26.7729 25.3649 28.8265 25.3533 31.3713C25.3418 33.9161 27.3953 35.9884 29.9401 35.9999C32.4849 36.0115 34.5572 33.9579 34.5688 31.4131C34.5803 28.8683 32.5268 26.796 29.982 26.7845Z" fill="black"/>
<path d="M20.384 29.5886C20.3946 27.2559 22.2942 25.3734 24.627 25.384C26.9597 25.3946 28.8421 27.2942 28.8315 29.627C28.8209 31.9597 26.9213 33.8421 24.5886 33.8315C22.2559 33.8209 20.3734 31.9213 20.384 29.5886Z" fill="#F0EFED" stroke="black" stroke-width="0.767963"/>
<path d="M29.982 68.7845C27.4372 68.7729 25.3649 70.8265 25.3533 73.3713C25.3418 75.9161 27.3953 77.9884 29.9401 77.9999C32.4849 78.0115 34.5572 75.9579 34.5688 73.4131C34.5803 70.8683 32.5268 68.796 29.982 68.7845Z" fill="black"/>
<path d="M20.384 71.5886C20.3946 69.2559 22.2942 67.3734 24.627 67.384C26.9597 67.3946 28.8421 69.2942 28.8315 71.627C28.8209 73.9597 26.9213 75.8421 24.5886 75.8315C22.2559 75.8209 20.3734 73.9213 20.384 71.5886Z" fill="#F0EFED" stroke="black" stroke-width="0.767963"/>
<path d="M22.6364 112.082L-19.2602 112.082L-31.9561 91L-51 91.7397L-51 161.644M22.6364 153.877H5.4969M-19.2602 153.877H5.4969M5.4969 153.877L-11.8542 172H-39.9969L-51 161.644M-51 161.644V167.192" stroke="#8F8E93" stroke-width="1.33884" stroke-linejoin="round"/>
<path d="M29.982 108.784C27.4372 108.773 25.3649 110.827 25.3533 113.371C25.3418 115.916 27.3953 117.988 29.9401 118C32.4849 118.011 34.5572 115.958 34.5688 113.413C34.5803 110.868 32.5268 108.796 29.982 108.784Z" fill="black"/>
<path d="M20.384 111.589C20.3946 109.256 22.2942 107.373 24.627 107.384C26.9597 107.395 28.8421 109.294 28.8315 111.627C28.8209 113.96 26.9213 115.842 24.5886 115.832C22.2559 115.821 20.3734 113.921 20.384 111.589Z" fill="#F0EFED" stroke="black" stroke-width="0.767963"/>
<path d="M29.982 150.784C27.4372 150.773 25.3649 152.827 25.3533 155.371C25.3418 157.916 27.3953 159.988 29.9401 160C32.4849 160.011 34.5572 157.958 34.5688 155.413C34.5803 152.868 32.5268 150.796 29.982 150.784Z" fill="black"/>
<path d="M20.384 153.589C20.3946 151.256 22.2942 149.373 24.627 149.384C26.9597 149.395 28.8421 151.294 28.8315 153.627C28.8209 155.96 26.9213 157.842 24.5886 157.832C22.2559 157.821 20.3734 155.921 20.384 153.589Z" fill="#F0EFED" stroke="black" stroke-width="0.767963"/>
<path d="M22.6364 194.082H-19.2602L-31.9561 173L-51 173.74L-51 243.644M22.6364 235.877H5.4969M-19.2602 235.877H5.4969M5.4969 235.877L-11.8542 254H-39.9969L-51 243.644M-51 243.644V249.192" stroke="#8F8E93" stroke-width="1.33884" stroke-linejoin="round"/>
<path d="M29.982 190.784C27.4372 190.773 25.3649 192.827 25.3533 195.371C25.3418 197.916 27.3953 199.988 29.9401 200C32.4849 200.011 34.5572 197.958 34.5688 195.413C34.5803 192.868 32.5268 190.796 29.982 190.784Z" fill="black"/>
<path d="M20.384 193.589C20.3946 191.256 22.2942 189.373 24.627 189.384C26.9597 189.395 28.8421 191.294 28.8315 193.627C28.8209 195.96 26.9213 197.842 24.5886 197.832C22.2559 197.821 20.3734 195.921 20.384 193.589Z" fill="#F0EFED" stroke="black" stroke-width="0.767963"/>
<path d="M29.982 232.784C27.4372 232.773 25.3649 234.827 25.3533 237.371C25.3418 239.916 27.3953 241.988 29.9401 242C32.4849 242.011 34.5572 239.958 34.5688 237.413C34.5803 234.868 32.5268 232.796 29.982 232.784Z" fill="black"/>
<path d="M20.384 235.589C20.3946 233.256 22.2942 231.373 24.627 231.384C26.9597 231.395 28.8421 233.294 28.8315 235.627C28.8209 237.96 26.9213 239.842 24.5886 239.832C22.2559 239.821 20.3734 237.921 20.384 235.589Z" fill="#F0EFED" stroke="black" stroke-width="0.767963"/>
</g>
<defs>
<linearGradient id="paint0_linear_3332_11019" x1="259.816" y1="-68.135" x2="181.513" y2="162.939" gradientUnits="userSpaceOnUse">
<stop stop-color="#F1EFED"/>
<stop offset="0.534758" stop-color="#DDDDDD" stop-opacity="0.22"/>
<stop offset="1" stop-color="#F1EFED"/>
</linearGradient>
<clipPath id="clip0_3332_11019">
<rect width="383" height="254" fill="white"/>
</clipPath>
</defs>
</svg>
