<svg width="436" height="248" viewBox="0 0 436 248" fill="none" xmlns="http://www.w3.org/2000/svg">
<path fill-rule="evenodd" clip-rule="evenodd" d="M371.77 190.731H429.546V174.144H385.182L371.77 183.32V190.731ZM417.524 168.188C417.582 168.192 417.64 168.193 417.698 168.191L417.965 168.18C418.022 168.177 418.079 168.172 418.136 168.163L418.402 168.121C418.456 168.113 418.51 168.101 418.562 168.087L418.829 168.014C418.877 168.001 418.926 167.986 418.973 167.967L419.239 167.865C419.282 167.849 419.323 167.831 419.364 167.81L419.631 167.679C419.667 167.662 419.702 167.642 419.737 167.622L420.003 167.463C420.033 167.445 420.062 167.426 420.091 167.406L420.357 167.221C420.382 167.204 420.406 167.186 420.43 167.167L420.696 166.957L420.71 166.946L420.732 166.928C420.739 166.922 420.747 166.915 420.754 166.909L421.021 166.676C421.037 166.662 421.053 166.647 421.068 166.633L421.334 166.379C421.347 166.367 421.36 166.354 421.372 166.342L421.638 166.07L421.655 166.052L421.668 166.038L421.934 165.75C421.942 165.742 421.95 165.733 421.957 165.725L422.224 165.423L422.241 165.403L422.507 165.09L422.519 165.076L422.786 164.755L422.793 164.745L423.06 164.419L423.063 164.415L423.329 164.088L423.329 164.087L423.59 163.766L423.595 163.76L423.852 163.447L424.106 163.142L424.356 162.853L424.6 162.58L424.838 162.328L425.067 162.099L425.313 161.873C425.921 161.31 425.959 160.361 425.396 159.753C424.834 159.145 423.885 159.107 423.277 159.669L423.01 159.915C422.996 159.928 422.983 159.941 422.969 159.955L422.703 160.22L422.688 160.236L422.671 160.254L422.404 160.536L422.391 160.55L422.379 160.564L422.112 160.861L422.093 160.883L421.827 161.192L421.813 161.209L421.547 161.527L421.537 161.538L421.271 161.862L421.266 161.868L421 162.196L420.999 162.197L420.736 162.522L420.733 162.526L420.477 162.839L420.47 162.848L420.217 163.152L419.965 163.448L419.719 163.727L419.479 163.987L419.246 164.225L419.022 164.438L418.808 164.625L418.607 164.784L418.421 164.913L418.251 165.015L418.101 165.089L417.969 165.139L417.855 165.17L417.755 165.186L417.662 165.19L417.567 165.183L417.464 165.163L417.345 165.127L417.208 165.07L417.052 164.988L416.877 164.879L416.686 164.741L416.481 164.574L416.264 164.379L416.037 164.158L415.802 163.914L415.56 163.648L415.313 163.364L415.059 163.064L414.805 162.755L414.798 162.747L414.541 162.431L414.538 162.428L414.274 162.102L414.272 162.1L414.006 161.772L414 161.765L413.733 161.442L413.723 161.429L413.457 161.113L413.441 161.095L413.175 160.789L413.17 160.784L413.154 160.766L412.887 160.473C412.878 160.463 412.869 160.453 412.86 160.443L412.594 160.166C412.582 160.154 412.571 160.142 412.559 160.13L412.293 159.87C412.278 159.856 412.264 159.843 412.249 159.829L411.982 159.589C411.965 159.573 411.946 159.557 411.928 159.542L411.662 159.324C411.64 159.306 411.617 159.289 411.594 159.272L411.328 159.079C411.301 159.059 411.273 159.041 411.245 159.023L410.979 158.855C410.947 158.834 410.913 158.815 410.879 158.797L410.613 158.657C410.574 158.636 410.535 158.618 410.494 158.601L410.228 158.489C410.183 158.47 410.137 158.453 410.09 158.438L409.823 158.356C409.772 158.34 409.72 158.327 409.668 158.317L409.402 158.265C409.346 158.254 409.29 158.246 409.233 158.242L408.967 158.22C408.909 158.216 408.851 158.215 408.793 158.217L408.527 158.226C408.469 158.228 408.412 158.234 408.355 158.242L408.089 158.283C408.035 158.291 407.981 158.302 407.928 158.317L407.662 158.388C407.613 158.401 407.564 158.416 407.517 158.434L407.251 158.535C407.208 158.551 407.166 158.57 407.125 158.59L406.858 158.72C406.822 158.737 406.786 158.757 406.751 158.777L406.485 158.935C406.455 158.953 406.425 158.972 406.396 158.992L406.13 159.176C406.105 159.193 406.081 159.211 406.057 159.23L405.791 159.439C405.771 159.455 405.751 159.471 405.732 159.488L405.465 159.72C405.449 159.734 405.433 159.748 405.418 159.763L405.151 160.016C405.139 160.028 405.126 160.04 405.113 160.053L404.847 160.325C404.837 160.335 404.827 160.345 404.817 160.356L404.551 160.644C404.543 160.652 404.535 160.661 404.528 160.669L404.261 160.971L404.244 160.991L403.977 161.303L403.965 161.318L403.699 161.639L403.691 161.648L403.425 161.974L403.421 161.978L403.155 162.306L403.155 162.307L402.894 162.628L402.889 162.634L402.632 162.948L402.377 163.253L402.127 163.543L401.883 163.816L401.645 164.069L401.415 164.299L401.194 164.504L400.984 164.681L400.788 164.83L400.607 164.95L400.444 165.042L400.299 165.108L400.174 165.152L400.065 165.177L399.968 165.188L399.875 165.189L399.779 165.178L399.671 165.153L399.546 165.11L399.403 165.045L399.24 164.955L399.06 164.836L398.864 164.688L398.655 164.512L398.434 164.308L398.204 164.079L397.967 163.827L397.723 163.555L397.473 163.265L397.218 162.961L396.959 162.645L396.696 162.321L396.695 162.32L396.43 161.992L396.426 161.988L396.16 161.662L396.153 161.653L395.886 161.332L395.874 161.317L395.608 161.005L395.59 160.985L395.324 160.683L395.312 160.669L395.301 160.657L395.035 160.369C395.025 160.359 395.015 160.348 395.005 160.338L394.739 160.066C394.726 160.053 394.714 160.041 394.701 160.028L394.435 159.775C394.419 159.76 394.404 159.746 394.388 159.732L394.121 159.499C394.102 159.482 394.083 159.466 394.063 159.45L393.796 159.24C393.773 159.222 393.749 159.204 393.724 159.187L393.458 159.002C393.441 158.99 393.423 158.978 393.406 158.967C393.394 158.959 393.382 158.952 393.37 158.945L393.104 158.786C393.069 158.765 393.034 158.746 392.998 158.728L392.731 158.597C392.712 158.588 392.693 158.579 392.674 158.57C392.664 158.566 392.653 158.561 392.642 158.557L392.622 158.548L392.606 158.542L392.34 158.44C392.292 158.422 392.244 158.406 392.195 158.393L391.929 158.321C391.876 158.306 391.823 158.295 391.769 158.286L391.502 158.245C391.446 158.236 391.389 158.23 391.331 158.228L391.065 158.217C391.007 158.214 390.949 158.215 390.891 158.22L390.625 158.24C390.568 158.244 390.512 158.251 390.456 158.262L390.19 158.313C390.137 158.323 390.085 158.336 390.034 158.351L389.767 158.432C389.72 158.447 389.674 158.463 389.629 158.482L389.362 158.593C389.322 158.61 389.282 158.629 389.243 158.649L388.976 158.788C388.942 158.806 388.908 158.825 388.876 158.846L388.609 159.013L388.585 159.028L388.563 159.043C388.55 159.052 388.538 159.06 388.526 159.069L388.26 159.261C388.25 159.268 388.24 159.276 388.231 159.283L388.211 159.298L388.192 159.314L387.926 159.53C387.917 159.537 387.91 159.544 387.902 159.55C387.891 159.559 387.881 159.568 387.87 159.578L387.604 159.817C387.589 159.83 387.574 159.844 387.56 159.858L387.294 160.117L387.278 160.133L387.258 160.153L386.992 160.43C386.983 160.44 386.974 160.449 386.964 160.459L386.698 160.752C386.691 160.76 386.684 160.768 386.677 160.776L386.411 161.081L386.395 161.099L386.129 161.415L386.118 161.428L385.851 161.751L385.845 161.758L385.579 162.085L385.577 162.088L385.312 162.414L385.31 162.417L385.049 162.738L384.791 163.051L384.538 163.351L384.29 163.636L384.047 163.903L383.812 164.148L383.585 164.37L383.368 164.566L383.162 164.734L382.97 164.873L382.795 164.984L382.638 165.067L382.5 165.125L382.381 165.162L382.276 165.182L382.182 165.19L382.089 165.186L381.907 165.159C381.088 165.034 380.323 165.597 380.199 166.416C380.074 167.235 380.637 168 381.456 168.125L381.722 168.165C381.779 168.174 381.836 168.179 381.894 168.181L382.16 168.191C382.218 168.193 382.276 168.192 382.334 168.187L382.6 168.166C382.657 168.161 382.713 168.154 382.768 168.143L383.035 168.091C383.087 168.08 383.139 168.067 383.19 168.052L383.457 167.969C383.503 167.955 383.549 167.938 383.595 167.919L383.861 167.807C383.901 167.79 383.941 167.771 383.98 167.751L384.246 167.61C384.28 167.592 384.313 167.573 384.346 167.553L384.612 167.385C384.64 167.367 384.668 167.348 384.695 167.329L384.961 167.135C384.984 167.118 385.006 167.101 385.028 167.083L385.295 166.865C385.303 166.858 385.312 166.851 385.321 166.844L385.339 166.827L385.349 166.818L385.616 166.578C385.63 166.565 385.645 166.551 385.659 166.537L385.926 166.277L385.941 166.262L385.961 166.242L386.227 165.964C386.236 165.955 386.245 165.945 386.254 165.935L386.521 165.642C386.528 165.634 386.535 165.626 386.542 165.618L386.808 165.312L386.823 165.294L387.09 164.978L387.1 164.966L387.367 164.643L387.373 164.635L387.639 164.308L387.641 164.306L387.905 163.979L387.907 163.977L388.168 163.656L388.426 163.344L388.679 163.044L388.927 162.76L389.169 162.494L389.404 162.249L389.631 162.029L389.848 161.834L390.053 161.667L390.244 161.529L390.418 161.42L390.575 161.338L390.712 161.281L390.831 161.245L390.934 161.225L391.029 161.218L391.122 161.222L391.222 161.237L391.336 161.268L391.467 161.319L391.618 161.393L391.788 161.494L391.974 161.624L392.175 161.782L392.389 161.969L392.613 162.183L392.846 162.42L393.086 162.68L393.332 162.96L393.584 163.255L393.84 163.564L394.099 163.882L394.103 163.886L394.366 164.21L394.367 164.211L394.633 164.539L394.638 164.545L394.904 164.87L394.913 164.881L395.18 165.199L395.194 165.215L395.46 165.524L395.479 165.546L395.746 165.844L395.758 165.857L395.771 165.871L396.037 166.154C396.048 166.165 396.059 166.176 396.07 166.187L396.336 166.453C396.35 166.466 396.363 166.479 396.377 166.492L396.644 166.738C396.653 166.747 396.662 166.755 396.671 166.763C396.679 166.77 396.687 166.777 396.695 166.783L396.961 167.008C396.982 167.025 397.003 167.042 397.025 167.059L397.291 167.259C397.316 167.279 397.342 167.297 397.369 167.314L397.635 167.49C397.666 167.51 397.697 167.529 397.73 167.547L397.996 167.696C398.033 167.717 398.071 167.736 398.109 167.753L398.375 167.873C398.419 167.893 398.463 167.911 398.508 167.926L398.774 168.017C398.824 168.034 398.874 168.048 398.925 168.06L399.191 168.121C399.246 168.133 399.301 168.143 399.356 168.149L399.623 168.179C399.68 168.186 399.738 168.189 399.796 168.189L400.062 168.188C400.12 168.188 400.178 168.185 400.235 168.178L400.502 168.146C400.557 168.14 400.612 168.13 400.666 168.117L400.933 168.055C400.983 168.043 401.033 168.029 401.083 168.012L401.349 167.919C401.394 167.904 401.438 167.886 401.481 167.867L401.747 167.745C401.785 167.728 401.823 167.708 401.859 167.688L402.126 167.538C402.158 167.52 402.189 167.501 402.219 167.481L402.486 167.304C402.512 167.287 402.538 167.268 402.563 167.249L402.829 167.047C402.851 167.031 402.872 167.014 402.892 166.997L403.158 166.771C403.176 166.757 403.193 166.742 403.209 166.726L403.476 166.479L403.496 166.46L403.516 166.44L403.782 166.174L403.797 166.16L403.815 166.141L404.081 165.858C404.089 165.849 404.098 165.839 404.106 165.83L404.372 165.533L404.392 165.511L404.658 165.201L404.672 165.185L404.938 164.867L404.947 164.856L405.213 164.531L405.218 164.525L405.484 164.197L405.485 164.196L405.748 163.872L405.751 163.868L406.01 163.551L406.267 163.242L406.518 162.947L406.764 162.669L407.004 162.41L407.236 162.173L407.46 161.961L407.673 161.775L407.874 161.618L408.059 161.489L408.228 161.389L408.378 161.316L408.509 161.267L408.622 161.236L408.722 161.221L408.815 161.218L408.91 161.225L409.014 161.246L409.133 161.283L409.271 161.341L409.428 161.424L409.604 161.534L409.795 161.673L410.001 161.842L410.218 162.037L410.445 162.259L410.68 162.505L410.923 162.771L411.171 163.056L411.424 163.357L411.682 163.67L411.943 163.991L411.945 163.993L412.21 164.319L412.212 164.322L412.478 164.649L412.485 164.657L412.751 164.98L412.762 164.993L413.028 165.308L413.044 165.326L413.31 165.632L413.323 165.646L413.331 165.656L413.598 165.948C413.607 165.958 413.616 165.968 413.625 165.978L413.892 166.255C413.903 166.267 413.915 166.279 413.927 166.29L414.193 166.549C414.208 166.564 414.222 166.577 414.237 166.591L414.504 166.83L414.52 166.845L414.538 166.86L414.559 166.877L414.825 167.094C414.847 167.112 414.87 167.129 414.893 167.146L415.159 167.339C415.169 167.345 415.178 167.352 415.187 167.359C415.205 167.371 415.224 167.383 415.242 167.395L415.509 167.562C415.542 167.582 415.575 167.601 415.609 167.619L415.876 167.759C415.915 167.779 415.955 167.798 415.995 167.815L416.262 167.925C416.307 167.944 416.353 167.961 416.4 167.975L416.667 168.056C416.718 168.072 416.77 168.085 416.823 168.095L417.089 168.146C417.145 168.156 417.201 168.164 417.258 168.168L417.524 168.188ZM429.874 118.696L361.266 118.696V117.284L429.874 117.284V118.696ZM282.082 70.231L350.691 70.231V68.8193L282.082 68.8193V70.231ZM305.555 64.938L374.163 64.938V63.5263L305.555 63.5263V64.938ZM350.691 59.6411L282.082 59.6411V58.2294L350.691 58.2294V59.6411ZM320.145 55.9176C320.16 55.9182 320.176 55.9186 320.192 55.9187C320.205 55.9187 320.219 55.9186 320.232 55.9184L320.498 55.9129C320.509 55.9126 320.521 55.9123 320.532 55.9118L320.551 55.9108C320.562 55.9102 320.574 55.9095 320.585 55.9086L320.851 55.8877C320.879 55.8855 320.907 55.8824 320.935 55.8786L321.202 55.8425L321.227 55.8389C321.245 55.836 321.264 55.8328 321.282 55.8293L321.549 55.7782C321.574 55.7733 321.599 55.7678 321.625 55.7616L321.891 55.696L321.92 55.6887C321.933 55.685 321.947 55.681 321.961 55.6769L322.228 55.5975C322.249 55.5911 322.27 55.5842 322.292 55.5768L322.558 55.4842L322.571 55.4796C322.586 55.4742 322.601 55.4687 322.615 55.4629L322.882 55.358C322.899 55.3512 322.915 55.3442 322.932 55.3369L323.199 55.2205C323.213 55.214 323.228 55.2073 323.243 55.2004L323.509 55.0736L323.528 55.0642L323.547 55.055L323.813 54.9189L323.829 54.9107L323.844 54.9024L324.111 54.7583L324.136 54.7441L324.403 54.5932L324.423 54.5817L324.689 54.4253L324.703 54.4167L324.97 54.2563L324.979 54.2507L325.245 54.0876L325.249 54.0851L325.515 53.9214L325.516 53.9209L325.775 53.7612L325.781 53.7575L326.03 53.6057L326.041 53.599L326.288 53.4516L326.535 53.3083L326.777 53.1736L327.013 53.0487L327.242 52.9343L327.488 52.8206C328.24 52.4732 328.568 51.5819 328.221 50.8298C327.873 50.0778 326.982 49.7497 326.23 50.0971L325.964 50.2202L325.938 50.2324L325.924 50.2394L325.657 50.3721C325.646 50.3777 325.635 50.3835 325.624 50.3895L325.357 50.5307C325.348 50.5356 325.339 50.5407 325.33 50.5458L325.063 50.6943L325.041 50.7068L324.775 50.8613L324.758 50.871L324.492 51.0301L324.481 51.0368L324.215 51.1991L324.208 51.2028L323.942 51.3667L323.941 51.3673L323.679 51.529L323.675 51.5315L323.422 51.6864L323.413 51.692L323.163 51.8425L322.914 51.9887L322.67 52.1268L322.432 52.2555L322.2 52.3739L321.975 52.4813L321.756 52.577L321.544 52.6607L321.338 52.7322L321.139 52.7917L320.945 52.8392L320.757 52.8753L320.574 52.9002L320.393 52.9144L320.214 52.9181L320.034 52.9114L319.852 52.8941L319.668 52.8659L319.478 52.8266L319.283 52.7756L319.082 52.7127L318.875 52.6376L318.66 52.5504L318.439 52.4512L318.212 52.3406L317.978 52.219L317.739 52.0875L317.494 51.947L317.243 51.7986L316.991 51.6458L316.983 51.6411L316.727 51.4839L316.724 51.4823L316.461 51.3196L316.458 51.3181L316.192 51.1545L316.184 51.1499L315.918 50.9885L315.905 50.9809L315.639 50.823L315.621 50.8125L315.355 50.6596L315.331 50.6463L315.065 50.4997L315.051 50.4921L315.035 50.4839L314.769 50.345C314.757 50.3389 314.745 50.3329 314.733 50.3271L314.467 50.1971L314.446 50.1868L314.425 50.1774L314.159 50.0574C314.143 50.0502 314.127 50.0433 314.11 50.0366L313.844 49.9277C313.826 49.9203 313.807 49.9132 313.789 49.9064L313.522 49.8096C313.511 49.8055 313.5 49.8015 313.488 49.7976L313.461 49.7886L313.194 49.7047C313.172 49.6976 313.149 49.691 313.126 49.685L312.86 49.6147C312.835 49.6083 312.811 49.6024 312.786 49.5972L312.519 49.5412C312.493 49.5357 312.467 49.5309 312.44 49.5268L312.174 49.4856C312.146 49.4813 312.118 49.4778 312.09 49.4751L311.824 49.4491C311.813 49.448 311.801 49.447 311.79 49.4461C311.773 49.4448 311.755 49.4439 311.738 49.4432L311.472 49.4325C311.443 49.4314 311.414 49.431 311.385 49.4316L311.118 49.4364C311.089 49.4369 311.061 49.4383 311.032 49.4405L310.765 49.4608C310.737 49.4629 310.709 49.4659 310.681 49.4696L310.415 49.5051C310.388 49.5087 310.361 49.5131 310.334 49.5182L310.067 49.5686C310.042 49.5735 310.016 49.579 309.991 49.5851L309.725 49.6501C309.701 49.6558 309.678 49.6622 309.654 49.6691L309.388 49.748C309.366 49.7543 309.345 49.7612 309.324 49.7686L309.057 49.8606C309.038 49.8673 309.019 49.8744 309 49.8819L308.733 49.9864C308.716 49.9931 308.699 50.0001 308.683 50.0074L308.416 50.1234C308.401 50.1299 308.387 50.1366 308.372 50.1436L308.106 50.2699C308.093 50.276 308.08 50.2822 308.068 50.2886L307.801 50.4243C307.791 50.4297 307.78 50.4353 307.77 50.4409L307.503 50.5848L307.477 50.599L307.211 50.7497L307.191 50.7613L306.925 50.9174L306.91 50.9262L306.644 51.0865L306.634 51.0922L306.368 51.2552L306.363 51.2578L306.098 51.4216L306.097 51.422L305.837 51.582L305.831 51.5856L305.576 51.741L305.324 51.8921L305.076 52.0358L304.835 52.1708L304.599 52.2962L304.369 52.411L304.146 52.5145L303.929 52.6063L303.719 52.6859L303.515 52.7534L303.318 52.8088L303.127 52.8525L302.94 52.8848L302.758 52.9061L302.578 52.9168L302.398 52.917L302.218 52.9068L302.036 52.8859L301.85 52.8541L301.658 52.8109L301.461 52.756L301.258 52.689L301.048 52.6099L300.832 52.5186L300.609 52.4156L300.379 52.3012L300.144 52.1763L299.902 52.0416L299.655 51.8983L299.403 51.7475L299.145 51.5905L298.883 51.429L298.882 51.4285L298.616 51.2648L298.612 51.2623L298.346 51.0992L298.337 51.0936L298.07 50.9332L298.056 50.9246L297.789 50.7682L297.77 50.7567L297.503 50.6058L297.478 50.5917L297.211 50.4475C297.201 50.4419 297.19 50.4364 297.18 50.431L296.913 50.2949C296.901 50.2885 296.888 50.2823 296.876 50.2763L296.609 50.1495C296.595 50.1426 296.58 50.1359 296.565 50.1294L296.299 50.013C296.288 50.0082 296.277 50.0036 296.266 49.9991L296.248 49.9919L295.982 49.887C295.963 49.8795 295.944 49.8724 295.925 49.8657L295.658 49.7731C295.637 49.7657 295.616 49.7588 295.594 49.7524L295.328 49.673C295.305 49.6661 295.281 49.6597 295.258 49.6539L294.992 49.5883C294.966 49.5821 294.941 49.5766 294.916 49.5717L294.649 49.5206C294.622 49.5155 294.596 49.5111 294.568 49.5074L294.302 49.4713C294.274 49.4675 294.246 49.4644 294.218 49.4622L293.951 49.4413C293.923 49.4391 293.894 49.4376 293.865 49.437L293.599 49.4315C293.57 49.4309 293.541 49.4312 293.511 49.4323L293.245 49.4423C293.216 49.4433 293.188 49.4453 293.159 49.448L292.893 49.4734C292.882 49.4743 292.872 49.4755 292.861 49.4767L292.841 49.4792C292.831 49.4805 292.82 49.4821 292.809 49.4837L292.543 49.5242L292.515 49.5288C292.498 49.5317 292.481 49.535 292.464 49.5385L292.197 49.5939L292.178 49.598L292.164 49.6012L292.146 49.6053L292.123 49.6113L291.856 49.681C291.834 49.687 291.811 49.6935 291.788 49.7006L291.522 49.784C291.501 49.7905 291.48 49.7975 291.46 49.8049L291.193 49.9012C291.175 49.9079 291.156 49.915 291.138 49.9225L290.872 50.0309C290.862 50.0348 290.852 50.0388 290.843 50.043L290.823 50.0517L290.556 50.1713C290.548 50.1753 290.539 50.1794 290.53 50.1836L290.514 50.191L290.248 50.3206C290.236 50.3265 290.224 50.3325 290.212 50.3387L289.946 50.4772C289.936 50.4824 289.926 50.4877 289.916 50.4931L289.65 50.6393L289.626 50.6527L289.36 50.8054L289.341 50.816L289.075 50.9737L289.062 50.9815L288.796 51.1428L288.788 51.1475L288.521 51.3111L288.519 51.3127L288.255 51.4755L288.253 51.477L287.992 51.6368L287.736 51.7921L287.485 51.9408L287.24 52.0818L287 52.2137L286.766 52.3356L286.538 52.4468L286.317 52.5464L286.103 52.6342L285.895 52.7097L285.694 52.7732L285.498 52.8247L285.309 52.8645L285.124 52.8931L284.942 52.9109L284.762 52.918L284.583 52.9148L284.36 52.8978C283.534 52.8349 282.813 53.4536 282.75 54.2797C282.688 55.1057 283.306 55.8263 284.132 55.8891L284.399 55.9094C284.427 55.9116 284.456 55.913 284.485 55.9135L284.752 55.9183C284.764 55.9186 284.777 55.9186 284.79 55.9185C284.806 55.9184 284.822 55.918 284.839 55.9174L285.105 55.9067C285.124 55.906 285.143 55.9048 285.162 55.9033L285.191 55.9008L285.457 55.8748L285.478 55.8727L285.498 55.8702L285.521 55.8672L285.541 55.8643L285.807 55.8231C285.833 55.819 285.86 55.8142 285.886 55.8087L286.153 55.7527C286.177 55.7475 286.202 55.7416 286.227 55.7352L286.493 55.6649C286.516 55.6589 286.539 55.6523 286.561 55.6452L286.828 55.5613C286.848 55.5547 286.869 55.5477 286.889 55.5403L287.156 55.4435C287.174 55.4368 287.193 55.4297 287.211 55.4222L287.477 55.3133C287.493 55.3066 287.51 55.2997 287.526 55.2925L287.792 55.1725L287.806 55.1663C287.815 55.1619 287.824 55.1574 287.834 55.1528L288.1 55.0228L288.122 55.0122L288.136 55.0049L288.402 54.866C288.412 54.8608 288.422 54.8555 288.431 54.8502L288.698 54.7036L288.721 54.6903L288.988 54.5375L289.006 54.5269L289.272 54.369L289.285 54.3614L289.551 54.2L289.559 54.1954L289.825 54.0318L289.828 54.0303L290.091 53.8676L290.094 53.866L290.354 53.7064L290.61 53.5514L290.86 53.4029L291.106 53.2624L291.345 53.1308L291.579 53.0093L291.806 52.8987L292.027 52.7995L292.241 52.7123L292.449 52.6372L292.65 52.5743L292.845 52.5233L293.034 52.484L293.219 52.4558L293.401 52.4385L293.58 52.4318L293.76 52.4355L293.941 52.4497L294.124 52.4746L294.312 52.5107L294.506 52.5582L294.705 52.6177L294.91 52.6892L295.123 52.7729L295.342 52.8686L295.567 52.976L295.799 53.0944L296.037 53.2231L296.281 53.3612L296.53 53.5074L296.784 53.6607L297.042 53.8184L297.046 53.8209L297.308 53.9826L297.309 53.9832L297.575 54.1471L297.581 54.1508L297.848 54.3131L297.859 54.3199L298.125 54.4789L298.142 54.4886L298.408 54.6431L298.43 54.6556L298.696 54.8041L298.71 54.8117L298.724 54.8192L298.991 54.9604L299.006 54.9685L299.024 54.9778L299.291 55.1105C299.304 55.1171 299.317 55.1236 299.331 55.1298L299.597 55.2528C299.612 55.2599 299.628 55.2667 299.643 55.2733L299.91 55.3856L299.936 55.3961L299.949 55.4013L299.963 55.4068L300.229 55.5072L300.252 55.5156L300.277 55.5242L300.289 55.5284L300.556 55.6161L300.577 55.6231C300.592 55.6277 300.607 55.6321 300.622 55.6363L300.888 55.7106C300.912 55.7173 300.936 55.7234 300.961 55.7289L301.227 55.7891L301.238 55.7914L301.257 55.7955C301.273 55.7988 301.289 55.8018 301.305 55.8045L301.571 55.85C301.599 55.8547 301.626 55.8586 301.654 55.8618L301.92 55.8922C301.932 55.8936 301.944 55.8948 301.956 55.8959C301.972 55.8974 301.989 55.8986 302.005 55.8995L302.272 55.9147C302.3 55.9163 302.329 55.9171 302.358 55.9171L302.625 55.9167C302.654 55.9167 302.683 55.9158 302.712 55.9141L302.978 55.8983C303.007 55.8966 303.035 55.8941 303.063 55.8908L303.33 55.8597C303.357 55.8565 303.384 55.8526 303.412 55.8478L303.678 55.8017C303.69 55.7996 303.702 55.7974 303.714 55.7951C303.728 55.7923 303.742 55.7893 303.756 55.7861L304.022 55.7253C304.046 55.7198 304.07 55.7137 304.094 55.7069L304.361 55.632C304.383 55.6258 304.405 55.6191 304.427 55.6118L304.693 55.5235C304.713 55.5169 304.733 55.5098 304.753 55.5023L305.019 55.4014C305.037 55.3946 305.054 55.3876 305.072 55.3802L305.338 55.2675L305.359 55.2586L305.384 55.2469L305.651 55.1235L305.668 55.1152L305.691 55.1044L305.957 54.9712C305.968 54.9656 305.979 54.9599 305.99 54.954L306.257 54.8124C306.266 54.8075 306.275 54.8025 306.284 54.7974L306.551 54.6486L306.572 54.6362L306.839 54.4815L306.855 54.4719L307.121 54.3127L307.132 54.3061L307.399 54.1437L307.404 54.1402L307.671 53.9762L307.671 53.9757L307.933 53.8142L307.938 53.8115L308.195 53.6541L308.449 53.5011L308.698 53.3552L308.942 53.2175L309.179 53.0892L309.411 52.9712L309.636 52.8643L309.855 52.7691L310.067 52.6859L310.272 52.6149L310.471 52.556L310.664 52.5089L310.852 52.4734L311.035 52.4489L311.216 52.4351L311.396 52.4319L311.575 52.4391L311.757 52.4568L311.942 52.4854L312.131 52.5252L312.327 52.5767L312.528 52.6402L312.736 52.7157L312.95 52.8035L313.172 52.9031L313.399 53.0143L313.633 53.1362L313.873 53.2681L314.118 53.4091L314.369 53.5578L314.622 53.7108L314.629 53.7154L314.886 53.8729L314.888 53.8744L315.152 54.0372L315.155 54.0388L315.421 54.2024L315.429 54.2071L315.695 54.3684L315.708 54.3762L315.974 54.5339L315.993 54.5445L316.259 54.6972L316.283 54.7106L316.549 54.8568C316.559 54.8622 316.569 54.8675 316.579 54.8727L316.845 55.0113L316.868 55.0229L316.881 55.0293L317.147 55.1589L317.169 55.1694L317.19 55.1786L317.456 55.2982C317.472 55.3054 317.488 55.3124 317.505 55.319L317.771 55.4274C317.789 55.4349 317.808 55.442 317.826 55.4487L318.093 55.545C318.103 55.5488 318.114 55.5525 318.124 55.556C318.134 55.5594 318.145 55.5627 318.155 55.5659L318.421 55.6493C318.444 55.6564 318.467 55.6629 318.49 55.669L318.756 55.7386L318.776 55.7437L318.793 55.7479C318.806 55.7507 318.818 55.7535 318.83 55.7561L319.097 55.8114C319.123 55.8169 319.15 55.8216 319.176 55.8257L319.442 55.8662L319.47 55.8701C319.488 55.8726 319.507 55.8748 319.526 55.8766L319.792 55.9019C319.821 55.9047 319.85 55.9066 319.878 55.9076L320.145 55.9176ZM304.615 17.7551H294.109L294.109 40.8716L338.661 40.3422H424.293V38.2247H338.661L304.615 17.7551ZM312.587 12.188H258V8.18799H313.197H313.806L314.313 8.52831L331.336 19.975L329.104 23.2944L312.587 12.188ZM278.377 163.829H325.383V162.182H278.377C277.272 162.182 276.377 161.287 276.377 160.182V154.535C276.377 153.431 277.272 152.535 278.377 152.535H325.383V150.889H280.956V146.889H327.383C328.488 146.889 329.383 147.784 329.383 148.889V154.535C329.383 155.64 328.488 156.535 327.383 156.535H280.377V158.182H327.383C328.488 158.182 329.383 159.077 329.383 160.182V165.829C329.383 166.933 328.488 167.829 327.383 167.829H278.377V163.829ZM297.558 125.579H321.803H335.731L339.858 122.211H316.529L306.327 115.697L282.082 115.697L297.558 125.579ZM334.371 89.0122H358.616L374.092 79.1304L349.847 79.1304L339.645 85.6446L334.371 89.0122ZM327.149 89.0122H302.904L308.178 85.6446L318.38 79.1304H342.625L327.149 89.0122ZM271.437 89.0122L295.683 89.0122L311.158 79.1304L286.913 79.1304L276.711 85.6446L271.437 89.0122ZM349.073 112.583L291.297 112.583V105.171L304.709 95.9951H349.073V112.583ZM425.76 147.11H389.892V151.11H427.76C428.865 151.11 429.76 150.214 429.76 149.11V143.463C429.76 142.359 428.865 141.463 427.76 141.463H380.087L377.078 139.816H427.76C428.865 139.816 429.76 138.921 429.76 137.816V132.17C429.76 131.065 428.865 130.17 427.76 130.17L267.537 130.17V134.17L425.76 134.17V135.816H369.258C368.344 135.816 367.547 136.436 367.321 137.321C367.094 138.206 367.496 139.132 368.298 139.571L378.615 145.218C378.909 145.379 379.24 145.463 379.575 145.463H425.76V147.11ZM346.073 146.95C348.922 146.95 351.231 148.53 351.231 150.479C351.231 152.428 348.922 154.008 346.073 154.008C343.224 154.008 340.914 152.428 340.914 150.479C340.914 148.53 343.224 146.95 346.073 146.95ZM364.087 95.6419L354.678 95.6419V98.4653L364.737 98.4653C365.16 98.4653 365.573 98.3764 365.919 98.2105L402.271 80.8192H430.578V77.9958H401.621C401.198 77.9958 400.785 78.0847 400.438 78.2506L364.087 95.6419ZM343.869 169.14L366.497 185.551L363.495 187.489L340.867 171.078L343.869 169.14ZM339.338 31.0552H435.222V5.99765H361.597L339.338 19.8593V31.0552ZM430.578 3.17627L291.297 3.17627V-3.05176e-05L430.578 -3.05176e-05V3.17627Z" fill="url(#paint0_linear_3569_12884)"/>
<path d="M74.6364 26.0827L32.7398 26.0827L20.0439 5.00049L1 5.74021L1 75.6443M74.6364 67.8772H57.4969M32.7398 67.8772L57.4969 67.8772M57.4969 67.8772L40.1458 86.0005L12.0031 86.0005L1 75.6443M1 75.6443L1 81.1923" stroke="#8F8E93" stroke-width="1.33884" stroke-linejoin="round"/>
<path d="M74.6364 107.083L32.7398 107.083L20.0439 86.0005L1 86.7402L1 156.644M74.6364 148.877H57.4969M32.7398 148.877H57.4969M57.4969 148.877L40.1458 167H12.0031L1 156.644M1 156.644L1 162.192" stroke="#8F8E93" stroke-width="1.33884" stroke-linejoin="round"/>
<path d="M81.982 22.785C79.4372 22.7734 77.3649 24.827 77.3533 27.3718C77.3418 29.9166 79.3953 31.9889 81.9401 32.0004C84.4849 32.012 86.5572 29.9584 86.5688 27.4136C86.5803 24.8688 84.5268 22.7965 81.982 22.785Z" fill="black"/>
<path d="M72.384 25.5891C72.3946 23.2564 74.2942 21.3739 76.627 21.3845C78.9597 21.3951 80.8421 23.2947 80.8315 25.6274C80.8209 27.9602 78.9213 29.8426 76.5886 29.832C74.2559 29.8214 72.3734 27.9218 72.384 25.5891Z" fill="#F0EFED" stroke="black" stroke-width="0.767963"/>
<path d="M81.982 64.785C79.4372 64.7734 77.3649 66.827 77.3533 69.3718C77.3418 71.9166 79.3953 73.9889 81.9401 74.0004C84.4849 74.012 86.5572 71.9584 86.5688 69.4136C86.5803 66.8688 84.5268 64.7965 81.982 64.785Z" fill="black"/>
<path d="M72.384 67.5891C72.3946 65.2564 74.2942 63.3739 76.627 63.3845C78.9597 63.3951 80.8421 65.2947 80.8315 67.6274C80.8209 69.9602 78.9213 71.8426 76.5886 71.832C74.2559 71.8214 72.3734 69.9218 72.384 67.5891Z" fill="#F0EFED" stroke="black" stroke-width="0.767963"/>
<path d="M81.982 103.785C79.4372 103.773 77.3649 105.827 77.3533 108.372C77.3418 110.917 79.3953 112.989 81.9401 113C84.4849 113.012 86.5572 110.958 86.5688 108.414C86.5803 105.869 84.5268 103.797 81.982 103.785Z" fill="black"/>
<path d="M72.384 106.589C72.3946 104.256 74.2942 102.374 76.627 102.385C78.9597 102.395 80.8421 104.295 80.8315 106.627C80.8209 108.96 78.9213 110.843 76.5886 110.832C74.2559 110.821 72.3734 108.922 72.384 106.589Z" fill="#F0EFED" stroke="black" stroke-width="0.767963"/>
<path d="M81.982 145.785C79.4372 145.773 77.3649 147.827 77.3533 150.372C77.3418 152.917 79.3953 154.989 81.9401 155C84.4849 155.012 86.5572 152.958 86.5688 150.414C86.5803 147.869 84.5268 145.797 81.982 145.785Z" fill="black"/>
<path d="M72.384 148.589C72.3946 146.256 74.2942 144.374 76.627 144.385C78.9597 144.395 80.8421 146.295 80.8315 148.627C80.8209 150.96 78.9213 152.843 76.5886 152.832C74.2559 152.821 72.3734 150.922 72.384 148.589Z" fill="#F0EFED" stroke="black" stroke-width="0.767963"/>
<path d="M74.6364 187.083H32.7398L20.0439 166L1 166.74L1 236.644M74.6364 228.877H57.4969M32.7398 228.877H57.4969M57.4969 228.877L40.1458 247H12.0031L1 236.644M1 236.644L1 242.192" stroke="#8F8E93" stroke-width="1.33884" stroke-linejoin="round"/>
<path d="M81.982 225.785C79.4372 225.773 77.3649 227.827 77.3533 230.372C77.3418 232.917 79.3953 234.989 81.9401 235C84.4849 235.012 86.5572 232.958 86.5688 230.414C86.5803 227.869 84.5268 225.797 81.982 225.785Z" fill="black"/>
<path d="M72.384 228.589C72.3946 226.256 74.2942 224.374 76.627 224.385C78.9597 224.395 80.8421 226.295 80.8315 228.627C80.8209 230.96 78.9213 232.843 76.5886 232.832C74.2559 232.821 72.3734 230.922 72.384 228.589Z" fill="#F0EFED" stroke="black" stroke-width="0.767963"/>
<path d="M81.982 183.785C79.4372 183.773 77.3649 185.827 77.3533 188.372C77.3418 190.917 79.3953 192.989 81.9401 193C84.4849 193.012 86.5572 190.958 86.5688 188.414C86.5803 185.869 84.5268 183.797 81.982 183.785Z" fill="black"/>
<path d="M72.384 186.589C72.3946 184.256 74.2942 182.374 76.627 182.385C78.9597 182.395 80.8421 184.295 80.8315 186.627C80.8209 188.96 78.9213 190.843 76.5886 190.832C74.2559 190.821 72.3734 188.922 72.384 186.589Z" fill="#F0EFED" stroke="black" stroke-width="0.767963"/>
<defs>
<linearGradient id="paint0_linear_3569_12884" x1="311.816" y1="-68.1345" x2="233.513" y2="162.939" gradientUnits="userSpaceOnUse">
<stop stop-color="#F1EFED"/>
<stop offset="0.534758" stop-color="#DDDDDD" stop-opacity="0.22"/>
<stop offset="1" stop-color="#F1EFED"/>
</linearGradient>
</defs>
</svg>
