<svg width="406" height="198" viewBox="0 0 406 198" fill="none" xmlns="http://www.w3.org/2000/svg">
<mask id="mask0_4794_3872" style="mask-type:alpha" maskUnits="userSpaceOnUse" x="0" y="0" width="406" height="198">
<rect x="0.267651" y="0.267651" width="405.465" height="197.465" fill="#D9D9D9" stroke="black" stroke-width="0.535302"/>
</mask>
<g mask="url(#mask0_4794_3872)">
<g opacity="0.2">
<path d="M140.335 214.106C163.858 225.719 192.388 216.086 204.057 192.591C215.727 169.096 206.117 140.635 182.594 129.022C159.071 117.409 130.542 127.042 118.872 150.537C107.203 174.032 116.812 202.493 140.335 214.106Z" stroke="black" stroke-width="0.410962" stroke-miterlimit="10"/>
<path d="M138.363 218.042C163.867 230.633 194.799 220.19 207.451 194.716C220.103 169.242 209.685 138.385 184.181 125.794C158.677 113.203 127.745 123.647 115.093 149.12C102.441 174.594 112.859 205.451 138.363 218.042Z" stroke="black" stroke-width="1.69081" stroke-miterlimit="10"/>
<path d="M188.593 171.46C188.592 172.762 187.926 174.045 186.635 175.255C185.342 176.466 183.45 177.576 181.08 178.517C176.34 180.397 169.767 181.572 162.487 181.577C155.207 181.583 148.635 180.417 143.899 178.544C141.529 177.606 139.639 176.5 138.348 175.29C137.058 174.082 136.395 172.8 136.396 171.498C136.397 170.195 137.062 168.913 138.354 167.702C139.647 166.491 141.538 165.382 143.909 164.441C148.648 162.56 155.221 161.386 162.502 161.38C169.782 161.375 176.354 162.54 181.09 164.414C183.459 165.351 185.349 166.458 186.64 167.667C187.93 168.876 188.594 170.157 188.593 171.46Z" stroke="black" stroke-width="0.802953"/>
<path d="M176.747 148.976C177.829 149.701 178.528 150.969 178.82 152.719C179.113 154.47 178.99 156.663 178.463 159.163C177.408 164.159 174.753 170.292 170.736 176.363C166.719 182.435 162.121 187.265 157.947 190.171C155.859 191.625 153.895 192.585 152.177 192.989C150.46 193.392 149.028 193.233 147.946 192.508C146.864 191.783 146.166 190.515 145.873 188.765C145.581 187.014 145.704 184.82 146.231 182.321C147.286 177.325 149.941 171.192 153.958 165.121C157.975 159.049 162.573 154.219 166.747 151.313C168.835 149.859 170.799 148.899 172.517 148.495C174.234 148.091 175.666 148.251 176.747 148.976Z" stroke="black" stroke-width="0.802953"/>
<path d="M148.285 148.965C147.203 149.691 146.505 150.959 146.212 152.71C145.919 154.462 146.041 156.657 146.568 159.157C147.621 164.156 150.273 170.291 154.287 176.365C158.3 182.439 162.895 187.271 167.066 190.178C169.152 191.632 171.115 192.592 172.832 192.996C174.548 193.399 175.979 193.239 177.061 192.514C178.142 191.788 178.841 190.519 179.134 188.768C179.426 187.017 179.304 184.822 178.778 182.321C177.725 177.323 175.073 171.187 171.059 165.113C167.046 159.04 162.451 154.208 158.28 151.301C156.193 149.847 154.231 148.886 152.514 148.483C150.798 148.08 149.366 148.24 148.285 148.965Z" stroke="black" stroke-width="0.802953"/>
<circle r="4.09852" transform="matrix(1 -0.00072717 -0.000730784 1 162.499 171.497)" fill="black" stroke="black" stroke-width="0.802953"/>
</g>
<g opacity="0.2">
<path d="M249.624 212.817C293.699 234.576 347.154 216.528 369.019 172.506C390.884 128.483 372.879 75.1568 328.805 53.3978C284.73 31.6387 231.275 49.6867 209.41 93.7091C187.545 137.732 205.55 191.058 249.624 212.817Z" stroke="black" stroke-width="0.767719" stroke-miterlimit="10"/>
<path d="M246.677 219.571C294.466 243.164 352.426 223.595 376.133 175.863C399.841 128.131 380.319 70.3105 332.53 46.7178C284.741 23.1252 226.781 42.6941 203.074 90.4263C179.366 138.158 198.888 195.979 246.677 219.571Z" stroke="black" stroke-width="3.15862" stroke-miterlimit="10"/>
<path d="M346.665 106.453C339.809 103.396 332.921 100.43 326.09 97.2971C320.863 94.891 315.652 92.4236 310.58 89.7095C303.484 85.9145 296.45 82.0073 288.98 78.9742C286.864 78.107 284.705 77.3503 282.51 76.7072C280.745 76.1989 278.606 76.6844 277.846 79.141C277.51 80.2274 276.905 81.2287 276.359 82.2307C274.259 86.088 272.136 89.932 270.018 93.7779C266.919 99.408 263.782 105.01 260.73 110.672C258.31 115.165 255.975 119.702 253.652 124.243C252.989 125.538 252.508 126.923 251.936 128.283C247.368 127.347 243.003 126.418 238.633 125.568C227.622 123.406 216.554 121.543 205.76 118.42C205.143 118.242 204.878 118.515 204.751 119.031C204.507 120.038 204.19 121.038 204.106 122.058C204.095 122.342 204.141 122.625 204.241 122.891C204.342 123.157 204.495 123.4 204.691 123.606C210.438 128.845 216.18 134.088 222.012 139.231C231.35 147.468 240.677 155.717 250.15 163.797C257.627 170.174 265.768 175.687 273.945 181.134C275.959 182.477 278.083 183.227 280.589 183.061C294.248 182.153 307.913 181.33 321.583 180.458C323.434 180.34 325.352 180.324 327.105 179.805C328.858 179.287 330.467 178.238 332.087 177.335C332.589 177.057 333 176.538 333.33 176.048C334.285 174.627 335.179 173.164 336.095 171.716C341.452 163.279 346.8 154.831 352.138 146.373C355.593 140.91 359.014 135.43 362.403 129.933C364.425 126.652 366.339 123.304 368.338 120.009C369.004 118.909 368.981 117.831 368.131 116.962C367.314 116.141 366.373 115.344 365.338 114.866C359.415 112.137 353.456 109.481 347.499 106.825M346.665 106.453L347.499 106.825M346.665 106.453C346.943 106.577 347.221 106.701 347.499 106.825M238.452 126.322C242.545 127.167 246.646 127.946 250.719 128.913C251.883 129.189 252.968 129.918 254.012 130.567C261.144 134.996 268.25 139.47 275.376 143.91C281.178 147.513 286.951 151.154 292.792 154.68C299.921 158.984 307.092 163.217 314.276 167.423C318.626 169.97 323.037 172.408 327.42 174.897C327.56 174.978 327.691 175.069 328.086 175.321C326.238 175.362 324.686 175.335 323.155 175.446C310.957 176.267 298.759 177.082 286.559 177.891C284.172 178.051 281.78 178.22 279.388 178.265C278.615 178.28 277.854 178.07 277.198 177.662C267.616 171.175 258.04 164.664 249.184 157.202C241.136 150.421 233.205 143.502 225.322 136.528C219.259 131.164 213.356 125.623 207.381 120.159C207.309 120.099 207.25 120.025 207.209 119.941C207.168 119.857 207.146 119.765 207.143 119.672C208.492 120.015 209.831 120.408 211.19 120.692M238.452 126.322C229.365 124.445 220.277 122.568 211.19 120.692M238.452 126.322L211.19 120.692M363.289 122.929C361.053 126.707 358.809 130.482 356.514 134.224C352.129 141.365 347.759 148.527 343.286 155.627C340.374 160.245 337.308 164.768 334.293 169.319C332.954 171.339 331.572 173.321 330.11 175.467C303.652 160.898 278.131 144.866 252.426 128.637C254.631 124.198 256.656 119.83 258.933 115.599C263.357 107.357 267.961 99.2123 272.44 90.9995C274.589 87.0587 276.648 83.057 278.721 79.0619C279.494 77.5744 280.454 76.9777 282.115 77.3197C283.159 77.5516 284.182 77.8748 285.17 78.2854C294.976 82.1491 304.099 87.3774 313.497 92.096C323.652 97.1928 334.075 101.768 344.491 106.324C351.401 109.346 358.434 112.087 365.088 115.673C366.105 116.225 366.494 116.919 365.959 118.065C365.183 119.726 364.242 121.317 363.307 122.898M363.289 122.929L363.307 122.898M363.289 122.929C363.295 122.918 363.301 122.908 363.307 122.898M333.222 174.833C334.906 172.185 336.589 169.536 338.272 166.886C342.581 160.068 346.886 153.248 351.186 146.427C354.091 141.803 356.981 137.172 359.844 132.522C362.459 128.266 365.026 123.98 367.58 119.687C368.253 118.559 368.076 117.936 367.181 117.167C366.368 118.804 365.586 120.507 364.687 122.149C364 123.397 363.14 124.55 362.408 125.773C356.956 134.82 351.592 143.922 346.021 152.894C342.413 158.712 338.489 164.335 334.713 170.05C333.256 172.231 331.829 174.435 330.393 176.635L330.744 176.927C331.976 176.759 332.582 175.822 333.189 174.885M333.222 174.833L333.189 174.885M333.222 174.833C333.211 174.85 333.2 174.868 333.189 174.885M277.726 178.871C251.25 162.027 228.579 140.561 205.417 119.548C205.228 120.126 205.077 120.633 204.9 121.13C204.577 122.03 204.748 122.69 205.538 123.357C207.46 125.007 209.255 126.801 211.14 128.482C219.91 136.284 228.649 144.12 237.491 151.841C243.508 157.096 249.52 162.384 255.83 167.28C262.028 172.092 268.597 176.429 275.015 180.957C275.469 181.277 276.017 181.464 276.538 181.721C276.932 180.783 277.299 179.9 277.726 178.871ZM276.741 182.108C278.316 182.142 279.594 182.26 280.862 182.183C292.92 181.463 304.975 180.724 317.029 179.964C320.273 179.757 323.508 179.425 326.747 179.136C328.468 178.982 329.359 177.902 329.861 176.336C329.751 176.281 329.634 176.243 329.513 176.222C312.363 176.583 295.292 178.333 278.215 179.151L276.741 182.108Z" stroke="black" stroke-width="0.548371"/>
<path d="M233.555 139.148L243.037 139.498L228.684 128.675L228.852 128.336C229.283 128.397 229.72 128.433 230.144 128.524C238.491 130.354 246.815 132.309 255.2 133.959C257.999 134.51 260.162 135.935 262.405 137.421C269.779 142.287 277.044 147.327 284.57 151.942C292.592 156.85 300.856 161.367 309.018 166.05C309.993 166.609 310.983 167.143 311.907 167.935C311.53 167.986 311.166 168.022 310.793 168.06C305.915 168.539 301.043 169.131 296.15 169.485C292.217 169.775 288.26 169.812 284.314 169.902C283.874 169.921 283.378 169.606 282.999 169.324C275.646 163.821 268.31 158.299 260.949 152.805C260.596 152.581 260.179 152.478 259.763 152.513C257.17 152.665 254.575 152.792 251.993 153.072C250.256 153.256 248.858 152.847 247.448 151.763C242.778 148.168 238.288 144.415 234.167 140.22C233.924 139.974 233.701 139.715 233.465 139.459L233.555 139.148ZM234.422 139.422L234.364 139.777C234.435 139.898 234.518 140.012 234.61 140.119C239.098 144.559 243.78 148.75 249.053 152.252C249.525 152.556 250.079 152.711 250.64 152.695C253.586 152.54 256.534 152.313 259.485 152.091C259.556 152.086 259.621 151.971 259.721 151.879C254.66 148.111 249.644 144.366 244.613 140.633C244.272 140.375 243.869 140.21 243.445 140.154C240.435 139.894 237.428 139.666 234.422 139.422ZM243.31 139.159C243.846 139.573 244.205 139.861 244.575 140.136C250.191 144.329 255.856 148.451 261.402 152.725C262.874 153.859 264.202 153.727 265.875 153.236C263.425 151.537 261.074 149.941 258.762 148.305C255.028 145.642 251.248 143.033 247.637 140.209C246.301 139.168 245.036 138.948 243.31 139.159ZM283.571 162.219C285.328 163.456 286.833 164.523 288.358 165.578C288.554 165.731 288.788 165.827 289.035 165.856C290.97 165.897 292.907 165.91 294.842 165.932C293.145 164.545 291.368 163.259 289.52 162.078C289.316 161.939 289.076 161.863 288.83 161.859C287.194 161.948 285.569 162.076 283.571 162.219ZM277.632 158.023C279.404 159.269 280.956 160.374 282.527 161.467C282.752 161.625 283.026 161.838 283.264 161.831C284.945 161.749 286.626 161.613 288.597 161.476C286.442 160.038 284.535 158.761 282.623 157.504C282.422 157.367 282.18 157.301 281.937 157.317C280.581 157.514 279.235 157.756 277.632 158.023ZM277.009 164.274C278.818 165.641 280.535 166.801 282.076 168.165C283.716 169.619 285.537 169.126 287.384 169.029C285.655 167.577 283.793 166.345 282.103 164.91C280.541 163.582 278.933 163.659 277.009 164.274ZM276.341 153.473L276.443 153.225C275.093 152.246 273.747 151.264 272.396 150.302C272.229 150.172 272.024 150.1 271.812 150.096C270.299 150.211 268.789 150.355 267.022 150.513C268.669 151.664 270.134 152.7 271.613 153.712C271.8 153.812 272.014 153.852 272.224 153.826C273.591 153.715 274.96 153.589 276.341 153.473ZM281.839 156.945C280.213 155.834 278.872 154.909 277.521 154.001C277.327 153.849 277.091 153.762 276.845 153.75C275.412 153.895 273.986 154.085 272.368 154.286C273.97 155.422 275.405 156.45 276.854 157.461C277.025 157.584 277.234 157.644 277.445 157.63C278.793 157.436 280.15 157.209 281.832 156.941L281.839 156.945ZM288.495 157.504C286.554 156.233 284.839 155.107 283.113 153.995C282.96 153.905 282.779 153.871 282.604 153.899C281.514 154.114 280.429 154.355 279.106 154.637C280.899 155.839 282.464 156.919 284.071 157.949C284.387 158.106 284.746 158.156 285.093 158.092C286.14 157.946 287.179 157.737 288.495 157.504ZM269.92 158.956C272.071 160.57 274.113 162.104 276.159 163.63C276.322 163.75 276.543 163.916 276.703 163.898C277.6 163.747 278.487 163.541 279.48 163.333C277.658 162.019 275.825 160.896 274.242 159.495C272.889 158.282 271.574 158.369 269.92 158.956ZM277.472 161.305C277.622 161.478 277.786 161.639 277.963 161.784C279.384 162.722 280.914 163.544 282.204 164.626C283.664 165.853 285.05 165.321 286.711 164.898C284.694 163.462 282.828 162.127 280.946 160.809C280.768 160.705 280.559 160.669 280.358 160.708C279.427 160.878 278.504 161.081 277.472 161.305ZM290.278 162.093C291.264 162.76 292.326 163.341 293.219 164.113C295.168 165.802 297.173 164.531 299.172 164.484C298.339 163.788 297.382 163.342 296.637 162.664C294.662 160.87 292.469 161.878 290.278 162.093ZM293.932 161.199C293.944 161.127 293.956 161.054 293.971 160.981C292.77 160.218 291.481 159.56 290.388 158.665C288.574 157.181 286.892 158.445 284.852 158.489C286.439 159.564 287.73 160.445 289.036 161.31C289.234 161.456 289.472 161.539 289.718 161.549C291.123 161.455 292.527 161.319 293.932 161.199ZM271.732 156.895L271.635 157.148C273.264 158.345 274.886 159.55 276.527 160.729C276.734 160.858 276.979 160.91 277.22 160.878C278.163 160.742 279.097 160.564 280.318 160.35C278.463 159.02 276.835 157.847 275.201 156.693C275.045 156.61 274.866 156.58 274.692 156.607C273.701 156.69 272.713 156.802 271.732 156.895ZM307.173 165.74L307.328 165.429C305.869 164.708 304.313 164.13 302.973 163.231C301.251 162.078 299.534 162.662 297.755 162.811C299.282 163.935 300.849 164.952 302.429 165.954C302.589 166.031 302.767 166.06 302.942 166.037C304.355 165.947 305.765 165.843 307.173 165.74ZM272.102 157.975C270.33 156.541 268.633 155.159 266.919 153.797C266.741 153.685 266.529 153.642 266.322 153.675C265.42 153.793 264.517 153.939 263.41 154.114C264.99 155.297 266.479 156.228 267.738 157.404C269.095 158.672 270.472 158.552 272.102 157.975ZM304.229 167.567C302.809 166.667 301.65 165.925 300.48 165.2C300.286 165.05 300.053 164.96 299.808 164.94C298.374 165.07 296.945 165.242 295.26 165.433C296.532 166.319 297.598 167.061 298.67 167.794C298.893 167.968 299.164 168.07 299.446 168.085C300.949 167.948 302.454 167.763 304.229 167.567ZM274.14 151.094C275.565 152.105 276.992 153.122 278.43 154.125C278.577 154.221 278.753 154.261 278.926 154.238C279.982 154.037 281.034 153.811 282.284 153.552C279.694 151.81 277.507 149.62 274.14 151.094ZM289.395 166.353C290.212 166.927 290.799 167.354 291.402 167.756C291.958 168.125 292.54 168.791 293.097 168.768C294.819 168.718 296.532 168.407 298.25 168.197L298.303 167.908C297.331 167.357 296.395 166.455 295.377 166.329C293.514 166.093 291.595 166.315 289.395 166.353ZM284.301 165.89C287.421 168.955 289.235 169.631 292.161 168.784C291.006 167.977 289.784 167.312 288.84 166.387C287.388 164.965 285.91 165.447 284.301 165.89ZM255.018 141.955C256.288 142.839 257.329 144.042 258.614 144.343C260.15 144.71 261.864 144.321 263.467 144.26C261.232 141.401 258.256 141.534 255.018 141.955ZM263.19 147.667C265.976 150.072 268.698 150.682 271.374 149.577C270.402 148.882 269.458 148.193 268.495 147.533C268.296 147.395 268.058 147.323 267.816 147.326C266.336 147.419 264.859 147.542 263.19 147.667ZM267.274 146.954C267.284 146.862 267.296 146.771 267.307 146.677C266.276 145.993 265.319 144.931 264.2 144.715C262.648 144.422 260.979 144.755 259.067 144.831C259.863 145.399 260.388 145.805 260.945 146.161C261.56 146.555 262.194 147.185 262.841 147.215C264.312 147.291 265.795 147.059 267.274 146.954ZM269.393 152.647C267.188 150.829 265.119 148.834 261.813 149.92C262.577 150.462 263.378 150.929 264.045 151.53C265.598 152.962 267.372 153.241 269.393 152.647ZM295.511 158.993C294.051 158.126 292.696 157.521 291.59 156.615C290.184 155.466 288.802 155.852 287.302 156.271C288.011 156.77 288.928 156.974 289.475 157.538C291.13 159.25 293.094 159.398 295.511 158.993ZM267.101 153.458C269.304 155.107 271.009 157.624 274.285 156.039C273.657 155.594 272.968 155.216 272.416 154.69C270.927 153.274 269.248 152.766 267.101 153.458ZM242.054 135.45C244.204 137.38 246.273 139.355 249.534 138.48C247.358 136.738 245.272 134.816 242.054 135.45ZM256.385 139.178L256.506 138.907C255.671 138.345 254.896 137.465 253.986 137.286C252.131 136.919 250.204 136.929 248.245 136.781C250.469 139.735 253.583 138.837 256.385 139.178ZM300.42 161.923C298.07 160.474 295.891 158.651 292.824 159.752C295.091 161.307 297.217 163.249 300.42 161.923ZM259.724 141.333C258.772 140.626 258.102 139.784 257.328 139.663C255.478 139.369 253.575 139.417 251.694 139.329C252.631 140.205 253.569 141.201 254.646 141.404C256.193 141.689 257.848 141.389 259.722 141.332L259.724 141.333ZM244.822 134.166L244.708 134.453C245.699 135.105 246.614 136.104 247.7 136.334C249.47 136.721 251.348 136.618 253.182 136.723C252.446 136.034 251.694 135.234 250.807 135.03C248.845 134.582 246.827 134.438 244.813 134.161L244.822 134.166ZM250.052 134.501C247.436 131.96 244.128 132.247 241.169 131.403C242.054 132.25 242.909 133.301 243.977 133.601C245.855 134.131 247.865 134.205 250.05 134.5L250.052 134.501ZM257.637 146.907C259.572 148.887 261.784 149.917 264.513 149.172C262.655 147.157 260.351 146.424 257.635 146.906L257.637 146.907ZM256.933 143.804C255.088 141.844 252.874 141.04 250.228 141.708C251.974 143.931 254.311 144.332 256.933 143.804ZM282.114 152.922C283.278 153.678 284.39 154.303 285.389 155.073C286.638 156.035 287.884 155.581 289.18 155.321C288.327 154.694 287.373 154.27 286.577 153.645C285.266 152.608 283.866 152.378 282.114 152.922ZM276.725 149.494C277.949 150.269 279.076 150.827 280.012 151.609C281.237 152.633 282.486 152.537 283.996 152.111C282.665 151.258 281.401 150.541 280.245 149.677C279.142 148.851 278.087 149.175 276.735 149.49L276.725 149.494ZM270.506 148.374C272.737 150.468 274.738 151.013 276.877 150.076C274.971 148.728 273.159 147.121 270.506 148.374ZM229.877 129.027C231.943 130.783 233.736 132.967 236.989 132.301C234.846 130.699 232.913 128.868 229.877 129.027ZM272.704 147.4C270.845 146.042 269.072 144.369 266.426 145.529C268.248 147.039 270.036 148.661 272.704 147.4ZM245.057 138.535C243.013 136.205 240.447 135.042 238.505 135.606C239.381 136.251 240.335 136.793 241.076 137.535C242.242 138.701 243.568 138.848 245.057 138.535ZM254.01 144.491C256.403 146.411 258.067 146.873 260.632 146.368C258.4 144.35 256.729 143.864 254.01 144.491ZM272.078 146.49C273.078 147.128 274.009 147.555 274.719 148.215C275.914 149.323 277.14 149.053 278.497 148.681C276.003 146.395 274.897 146.004 272.082 146.482L272.078 146.49ZM246.913 139.011C248.395 141.321 250.633 141.47 253.004 141.071C251.424 139.098 249.248 138.777 246.917 139.003L246.913 139.011ZM274.068 145.79C272.221 143.732 270.016 142.984 268.092 143.758C270.815 145.966 271.685 146.261 274.071 145.784L274.068 145.79ZM234.487 129.743C236.419 132.169 238.937 132.413 241.662 132.549C239.767 130.221 237.004 130.63 234.487 129.743ZM238.298 132.63C240.883 134.801 242.47 135.359 244.717 134.999C243.199 132.808 240.812 132.849 238.298 132.63ZM269.895 142.915C268.19 141.404 266.339 140.279 263.84 140.873C265.632 142.164 267.217 143.927 269.895 142.915ZM262.769 142.898C264.538 144.853 266.145 145.362 268.458 144.677C266.835 143.17 265.093 142.085 262.769 142.898ZM264.732 142.132C263.145 140.639 261.411 139.577 259.118 140.338C260.68 141.833 262.348 143.038 264.736 142.125L264.732 142.132ZM240.672 135.066C239.06 133.243 237.108 132.431 234.725 132.753C236.379 134.381 238.233 135.452 240.672 135.066ZM261.19 139.609C259.583 138.179 257.984 136.947 255.706 137.74C257.184 139.331 258.864 140.331 261.187 139.615L261.19 139.609ZM303.469 166.43C305.477 168.309 307.703 166.941 309.835 167.062C307.81 165.574 305.612 166.416 303.467 166.436L303.469 166.43ZM265.895 140.287C264.351 138.838 262.614 138.071 260.475 138.409C261.937 140.016 263.692 140.731 265.895 140.287ZM255.375 135.25C253.504 133.495 251.23 133.804 249.003 132.987C250.841 135.021 252.91 135.38 255.375 135.25ZM252.611 135.481C254.399 137.218 256.091 137.672 257.566 136.994C256.389 135.272 254.507 135.822 252.611 135.481ZM262.375 137.993C261.098 136.52 259.449 136.456 257.746 136.347C258.913 138.061 260.619 137.981 262.375 137.993ZM255.446 134.336C255.399 134.431 255.369 134.534 255.33 134.636C256.414 135.938 257.885 136.011 259.367 136.039L259.487 135.668L255.446 134.336Z" fill="black" stroke="black" stroke-width="0.548371"/>
<path d="M360.701 118.84C349.671 135.837 338.752 152.664 327.812 169.516C326.17 168.576 324.488 167.567 322.768 166.644C318.957 164.595 315.077 162.67 311.312 160.541C306.552 157.851 301.882 155.001 297.166 152.237C287.298 146.454 277.595 140.401 267.41 135.156C263.531 133.157 260.065 130.358 256.442 127.878C256.225 127.73 256.11 127.098 256.237 126.842C258.965 121.732 261.671 116.612 264.505 111.576C267.499 106.253 270.604 100.99 273.705 95.7269C276.386 91.1729 279.13 86.652 281.851 82.1198C281.976 81.9114 282.136 81.7248 282.215 81.6133C308.322 94.1026 333.97 107.386 360.701 118.84ZM327.662 169.057C338.497 152.351 349.286 135.714 360.146 118.97C333.623 107.674 308.133 94.6333 282.307 82.0508C280.709 84.7031 279.063 87.3844 277.472 90.0855C273.811 96.3052 270.108 102.5 266.54 108.771C263.218 114.606 260.049 120.529 256.791 126.403C256.444 127.025 256.383 127.461 257.056 127.901C260.674 130.266 264.2 132.765 267.893 134.999C270.976 136.864 274.288 138.355 277.424 140.143C282.019 142.76 286.541 145.502 291.105 148.178C294.836 150.365 298.562 152.563 302.32 154.703C310.761 159.508 319.222 164.278 327.662 169.057Z" stroke="black" stroke-width="0.548371"/>
<path d="M327.662 169.057C338.497 152.351 349.286 135.714 360.146 118.97C333.623 107.674 308.133 94.6333 282.307 82.0508C280.709 84.7031 279.063 87.3844 277.472 90.0855C273.811 96.3052 270.108 102.5 266.54 108.771C263.218 114.606 260.049 120.529 256.791 126.403C256.444 127.025 256.383 127.461 257.056 127.901C260.674 130.266 264.2 132.765 267.893 134.999C270.976 136.864 274.288 138.355 277.424 140.143C282.019 142.76 286.541 145.502 291.105 148.178C294.836 150.365 298.562 152.563 302.32 154.703C310.761 159.508 319.222 164.278 327.662 169.057Z" stroke="black" stroke-width="0.548371"/>
<path d="M319.115 98.3761C318.21 98.6603 317.349 98.1938 317.199 97.3181C317.056 96.5003 317.467 95.9479 318.163 95.6416C318.57 95.4858 318.995 95.4956 319.355 95.6691C319.716 95.8426 319.987 96.1675 320.116 96.581C320.36 97.3884 319.99 98.029 319.066 98.3958C319.43 97.8817 320.062 97.4531 319.701 96.7005L319.713 96.7477C319.758 95.9563 319.254 95.7172 318.701 95.8C318.322 95.8566 317.657 96.2755 317.625 96.5349C317.58 97.1075 317.716 97.6528 318.009 98.0785C318.196 98.3441 318.734 98.2879 319.115 98.3761Z" fill="black" stroke="black" stroke-width="0.548371"/>
<path d="M312.318 178.545C311.942 178.801 311.568 179.222 311.188 179.282C309.712 179.511 308.233 179.626 306.653 179.795L306.638 178.741L312.138 178.042L312.318 178.545Z" fill="black" stroke="black" stroke-width="0.548371"/>
<path d="M320.865 177.784C320.909 176.839 321.197 176.316 322.339 176.489C323.327 176.638 324.327 176.609 325.314 176.659C325.384 176.674 325.451 176.699 325.513 176.734C325.407 178.004 323.398 178.476 320.865 177.784ZM324.999 177.199C322.348 176.586 321.483 176.697 321.385 177.634C322.622 177.522 323.919 177.863 324.999 177.199Z" fill="black" stroke="black" stroke-width="0.548371"/>
<path d="M317.636 177.317C317.302 178.626 316.116 179.112 313.861 178.782C313.991 178.364 314.043 177.685 314.275 177.573C315.007 177.227 315.77 176.997 316.539 176.889C316.876 176.834 317.22 177.138 317.636 177.317ZM317.165 178.05L317.14 177.678C315.126 177.475 314.594 177.627 314.4 178.646L317.165 178.05Z" fill="black" stroke="black" stroke-width="0.548371"/>
<path d="M327.963 176.475C328.154 177.145 328.47 177.695 328.32 177.821C327.96 178.094 327.481 178.231 326.966 178.208C326.805 178.199 326.299 177.323 326.423 177.164C326.667 176.853 327.245 176.767 327.963 176.475Z" fill="black" stroke="black" stroke-width="0.548371"/>
<path d="M302.608 179.259C301.989 179.261 301.591 179.345 301.23 179.227C301.045 179.165 300.916 178.739 300.763 178.477C301.147 178.461 301.526 178.386 301.92 178.461C302.072 178.483 302.259 178.84 302.608 179.259Z" fill="black" stroke="black" stroke-width="0.548371"/>
<path d="M319.675 97.0379C319.264 97.4819 318.895 98.0488 318.422 98.3149C318.203 98.4383 317.684 98.0557 317.485 97.7441C317.363 97.5455 317.504 96.8294 317.668 96.736C318.077 96.5151 318.519 96.4282 318.937 96.4867C319.227 96.5278 319.44 96.8799 319.689 97.0958L319.675 97.0379ZM317.633 96.9834C317.877 97.501 317.952 97.9503 318.195 98.0763C318.35 98.1528 318.903 97.8002 319.001 97.5476C319.099 97.295 318.926 96.7913 318.717 96.6554C318.543 96.5423 318.157 96.8151 317.633 96.9834Z" fill="black" stroke="black" stroke-width="0.548371"/>
</g>
<g opacity="0.2">
<path d="M69.0045 142.136L88.5006 135.571L103.918 149.158L99.8388 169.31L80.3427 175.875L64.9256 162.288L69.0045 142.136Z" fill="black" stroke="black" stroke-width="0.760801"/>
<path d="M90.2785 105.014L36.0552 140.675C33.2633 142.511 32.5091 146.25 34.3707 149.025L70.5255 202.92C72.3871 205.695 76.1595 206.456 78.9514 204.62L133.175 168.959C135.967 167.123 136.721 163.385 134.859 160.61L98.7044 106.714C96.8428 103.939 93.0704 103.178 90.2785 105.014Z" stroke="black" stroke-width="1.04717" stroke-miterlimit="10"/>
<path d="M91.1859 107.39L36.9703 143.046C35.3299 144.125 34.8867 146.322 35.9805 147.952L72.1302 201.84C73.224 203.471 75.4406 203.918 77.0811 202.839L131.297 167.183C132.937 166.104 133.38 163.908 132.286 162.277L96.1367 108.389C95.0429 106.759 92.8264 106.312 91.1859 107.39Z" stroke="black" stroke-width="0.261793" stroke-miterlimit="10"/>
</g>
</g>
</svg>
