<svg width="25" height="24" viewBox="0 0 25 24" fill="none" xmlns="http://www.w3.org/2000/svg">
<path d="M23.765 8.40637C23.7577 8.41462 23.7501 8.42267 23.7423 8.43052L10.0426 22.2056C8.8706 23.384 7.48063 24 6.00424 24C5.89208 24 5.77949 23.9965 5.6664 23.9893C4.25598 23.9003 2.88764 23.2566 1.81348 22.1766C0.739331 21.0965 0.0991066 19.7207 0.0106314 18.3025C-0.0898554 16.6918 0.523563 15.1702 1.78453 13.9023L15.4394 0.172528C15.6683 -0.057534 16.0392 -0.0574849 16.268 0.172528C16.4969 0.40264 16.4969 0.775669 16.268 1.00573L2.61318 14.7355C0.365509 16.9956 1.05261 19.7451 2.64213 21.3434C4.23171 22.9416 6.96624 23.6325 9.21391 21.3724L22.9017 7.60945C24.4051 5.90499 23.8965 3.95339 22.7226 2.77318C21.5488 1.59292 19.6079 1.08149 17.9128 2.59319L9.16728 11.3867C8.01217 12.5481 8.34322 13.9208 9.18369 14.7659C10.0242 15.611 11.3894 15.9438 12.5445 14.7823L20.1131 7.1721C20.342 6.94199 20.7129 6.94199 20.9418 7.1721C21.1706 7.40221 21.1706 7.77519 20.9418 8.00531L13.3731 15.6155C11.7313 17.2664 9.60599 16.8568 8.35508 15.5991C7.10418 14.3414 6.69691 12.2043 8.33863 10.5535L17.0962 1.74791C17.104 1.74011 17.112 1.7325 17.1202 1.72513C18.1333 0.81529 19.3249 0.391446 20.5659 0.49985C21.6625 0.595488 22.7228 1.10692 23.5512 1.93997C24.3797 2.77298 24.8884 3.83905 24.9835 4.94173C25.0913 6.1897 24.6699 7.38778 23.765 8.40637Z" fill="black"/>
</svg>
