<svg width="20" height="20" viewBox="0 0 20 20" fill="none" xmlns="http://www.w3.org/2000/svg">
<path d="M10.0026 0.835938C8.18961 0.835937 6.41733 1.37355 4.90988 2.3808C3.40243 3.38805 2.22752 4.81968 1.53371 6.49467C0.839909 8.16966 0.658379 10.0128 1.01208 11.7909C1.36577 13.5691 2.23882 15.2024 3.5208 16.4844C4.80278 17.7664 6.43612 18.6394 8.21428 18.9931C9.99244 19.3468 11.8356 19.1653 13.5105 18.4715C15.1855 17.7777 16.6172 16.6028 17.6244 15.0953C18.6317 13.5879 19.1693 11.8156 19.1693 10.0026C19.1664 7.57233 18.1997 5.24242 16.4813 3.52396C14.7628 1.8055 12.4329 0.838805 10.0026 0.835938ZM13.0918 13.0918C12.9355 13.248 12.7236 13.3358 12.5026 13.3358C12.2816 13.3358 12.0697 13.248 11.9134 13.0918L9.41344 10.5918C9.25715 10.4355 9.16932 10.2236 9.16928 10.0026V5.0026C9.16928 4.78159 9.25707 4.56963 9.41335 4.41335C9.56963 4.25707 9.7816 4.16927 10.0026 4.16927C10.2236 4.16927 10.4356 4.25707 10.5919 4.41335C10.7481 4.56963 10.8359 4.78159 10.8359 5.0026V9.65761L13.0918 11.9134C13.248 12.0697 13.3358 12.2816 13.3358 12.5026C13.3358 12.7236 13.248 12.9355 13.0918 13.0918Z" fill="black"/>
</svg>
