<svg width="254" height="232" viewBox="0 0 254 232" fill="none" xmlns="http://www.w3.org/2000/svg">
<path fill-rule="evenodd" clip-rule="evenodd" d="M112.115 141.391L101.576 126.676L6.82447 201.804L8.0119 203.462C11.9407 208.948 19.6043 210.146 25.0199 206.121L112.115 141.391Z" fill="url(#paint0_linear_9469_74197)"/>
<path d="M101.576 126.676L8.76066 190.704C5.12548 193.212 4.25305 198.213 6.82447 201.804L101.576 126.676Z" fill="black"/>
<path d="M101.576 126.676L112.115 141.391L25.0199 206.121C19.6043 210.146 11.9407 208.948 8.0119 203.462L6.82447 201.804M101.576 126.676L8.76066 190.704C5.12548 193.212 4.25305 198.213 6.82447 201.804V201.804M101.576 126.676L6.82447 201.804" stroke="black" stroke-width="1.20155"/>
<rect x="89.0273" y="131.601" width="24.7017" height="4.14511" rx="2.07255" transform="rotate(54.3901 89.0273 131.601)" fill="url(#paint1_linear_9469_74197)" stroke="black" stroke-width="1.20155"/>
<rect x="83.5625" y="135.515" width="24.7017" height="4.14511" rx="2.07255" transform="rotate(54.3901 83.5625 135.515)" fill="url(#paint2_linear_9469_74197)" stroke="black" stroke-width="1.20155"/>
<rect x="78.0977" y="139.429" width="24.7017" height="4.14511" rx="2.07255" transform="rotate(54.3901 78.0977 139.429)" fill="url(#paint3_linear_9469_74197)" stroke="black" stroke-width="1.20155"/>
<rect x="72.6328" y="143.343" width="24.7017" height="4.14511" rx="2.07255" transform="rotate(54.3901 72.6328 143.343)" fill="url(#paint4_linear_9469_74197)" stroke="black" stroke-width="1.20155"/>
<path fill-rule="evenodd" clip-rule="evenodd" d="M222.656 130.868C224.195 127.936 225.547 124.859 226.689 121.648C239.768 84.9012 220.581 44.5093 183.834 31.4306C165.626 24.9504 146.524 26.3914 130.293 33.9648L222.656 130.868Z" fill="url(#paint5_linear_9469_74197)"/>
<path d="M93.6158 74.2863C80.5371 111.033 99.7242 151.425 136.471 164.504C170.008 176.44 206.58 161.502 222.656 130.868L130.293 33.9648C113.765 41.6764 100.214 55.7464 93.6158 74.2863Z" fill="black"/>
<path d="M130.293 33.9648C113.765 41.6764 100.214 55.7464 93.6158 74.2863C80.5371 111.033 99.7242 151.425 136.471 164.504C170.008 176.44 206.58 161.502 222.656 130.868M130.293 33.9648C146.524 26.3914 165.626 24.9504 183.834 31.4306C220.581 44.5093 239.768 84.9012 226.689 121.648C225.547 124.859 224.195 127.936 222.656 130.868M130.293 33.9648L222.656 130.868" stroke="black" stroke-width="1.20155"/>
<path d="M93.2745 92.8326C90.4388 129.769 118.083 162.011 155.019 164.847C163.682 165.512 172.087 164.5 179.914 162.085C205.462 154.204 224.863 131.375 227.033 103.102C229.444 71.7016 209.827 43.6944 181.2 34.2616C176.153 32.5984 170.825 31.5127 165.288 31.0876C128.352 28.2519 96.1102 55.8961 93.2745 92.8326Z" fill="url(#paint6_linear_9469_74197)" stroke="black" stroke-width="1.20155"/>
<path d="M102.77 109.655C109.227 141.345 140.151 161.801 171.841 155.344C187.157 152.224 199.849 143.388 208.146 131.513C213.453 123.919 216.962 115.082 218.212 105.702C218.631 102.553 218.796 99.3427 218.689 96.0978C218.581 92.8491 218.201 89.5657 217.53 86.2739C216.86 82.9822 215.925 79.8117 214.753 76.7799C208.183 59.7855 194.152 47.1519 177.34 41.9739C171.152 40.0682 164.588 39.1724 157.88 39.4408C154.763 39.5655 151.615 39.9416 148.46 40.5844C138.513 42.6109 129.674 47.0477 122.425 53.162C106.58 66.5283 98.3405 87.9112 102.77 109.655Z" fill="#F1EFED" stroke="black" stroke-width="1.20155"/>
<mask id="mask0_9469_74197" style="mask-type:alpha" maskUnits="userSpaceOnUse" x="101" y="39" width="119" height="118">
<path d="M102.135 93.4006C99.6578 125.666 123.806 153.831 156.072 156.308C163.639 156.889 170.981 156.006 177.819 153.896C200.136 147.012 217.083 127.069 218.98 102.371C221.085 74.9417 203.949 50.4761 178.942 42.2361C174.533 40.7832 169.879 39.8348 165.043 39.4635C132.777 36.9864 104.612 61.1348 102.135 93.4006Z" fill="#F1EFED"/>
</mask>
<g mask="url(#mask0_9469_74197)">
<path d="M105.243 51.554C104.166 51.554 103.221 51.2908 102.407 50.7643C101.593 50.2258 100.965 49.472 100.522 48.5028C100.08 47.5216 99.8584 46.3849 99.8584 45.0926C99.8584 43.8003 100.08 42.6695 100.522 41.7003C100.965 40.7191 101.593 39.9653 102.407 39.4388C103.221 38.9004 104.166 38.6311 105.243 38.6311C106.32 38.6311 107.265 38.9004 108.079 39.4388C108.892 39.9653 109.521 40.7191 109.963 41.7003C110.406 42.6695 110.627 43.8003 110.627 45.0926C110.627 46.3849 110.406 47.5216 109.963 48.5028C109.521 49.472 108.892 50.2258 108.079 50.7643C107.265 51.2908 106.32 51.554 105.243 51.554ZM105.243 49.8848C106.356 49.8848 107.229 49.46 107.863 48.6105C108.509 47.7609 108.833 46.5883 108.833 45.0926C108.833 43.5969 108.509 42.4242 107.863 41.5747C107.229 40.7251 106.356 40.3003 105.243 40.3003C104.13 40.3003 103.251 40.7251 102.604 41.5747C101.97 42.4242 101.653 43.5969 101.653 45.0926C101.653 46.5883 101.97 47.7609 102.604 48.6105C103.251 49.46 104.13 49.8848 105.243 49.8848ZM115.926 41.1619L119.067 38.8106L120.413 38.8106L120.413 51.3745L118.618 51.3745L118.618 41.1619L115.926 43.1541L115.926 41.1619ZM132.171 51.554C131.094 51.554 130.149 51.2908 129.335 50.7643C128.522 50.2258 127.893 49.472 127.451 48.5028C127.008 47.5216 126.787 46.3849 126.787 45.0926C126.787 43.8003 127.008 42.6695 127.451 41.7003C127.893 40.7191 128.522 39.9653 129.335 39.4388C130.149 38.9004 131.094 38.6311 132.171 38.6311C133.248 38.6311 134.193 38.9004 135.007 39.4388C135.821 39.9653 136.449 40.7191 136.892 41.7003C137.334 42.6695 137.556 43.8003 137.556 45.0926C137.556 46.3849 137.334 47.5216 136.892 48.5028C136.449 49.472 135.821 50.2258 135.007 50.7643C134.193 51.2908 133.248 51.554 132.171 51.554ZM132.171 49.8848C133.284 49.8848 134.157 49.46 134.792 48.6105C135.438 47.7609 135.761 46.5883 135.761 45.0926C135.761 43.5969 135.438 42.4242 134.792 41.5747C134.157 40.7251 133.284 40.3003 132.171 40.3003C131.058 40.3003 130.179 40.7251 129.533 41.5747C128.899 42.4242 128.581 43.5969 128.581 45.0926C128.581 46.5883 128.899 47.7609 129.533 48.6105C130.179 49.46 131.058 49.8848 132.171 49.8848ZM142.854 41.1619L145.995 38.8106L147.341 38.8106L147.341 51.3745L145.546 51.3745L145.546 41.1619L142.854 43.1541L142.854 41.1619ZM159.099 51.554C158.022 51.554 157.077 51.2908 156.263 50.7643C155.45 50.2258 154.822 49.472 154.379 48.5028C153.936 47.5216 153.715 46.3849 153.715 45.0926C153.715 43.8003 153.936 42.6695 154.379 41.7003C154.822 40.7191 155.45 39.9653 156.263 39.4388C157.077 38.9004 158.022 38.6311 159.099 38.6311C160.176 38.6311 161.122 38.9004 161.935 39.4388C162.749 39.9653 163.377 40.7191 163.82 41.7003C164.262 42.6695 164.484 43.8003 164.484 45.0926C164.484 46.3849 164.262 47.5216 163.82 48.5028C163.377 49.472 162.749 50.2258 161.935 50.7643C161.122 51.2908 160.176 51.554 159.099 51.554ZM159.099 49.8848C160.212 49.8848 161.086 49.46 161.72 48.6105C162.366 47.7609 162.689 46.5883 162.689 45.0926C162.689 43.5969 162.366 42.4242 161.72 41.5747C161.086 40.7251 160.212 40.3003 159.099 40.3003C157.987 40.3003 157.107 40.7251 156.461 41.5747C155.827 42.4242 155.51 43.5969 155.51 45.0926C155.51 46.5883 155.827 47.7609 156.461 48.6105C157.107 49.46 157.987 49.8848 159.099 49.8848ZM175.526 51.554C174.449 51.554 173.503 51.2908 172.69 50.7643C171.876 50.2258 171.248 49.472 170.805 48.5028C170.362 47.5216 170.141 46.3849 170.141 45.0926C170.141 43.8003 170.362 42.6695 170.805 41.7003C171.248 40.7191 171.876 39.9653 172.69 39.4388C173.503 38.9004 174.449 38.6311 175.526 38.6311C176.603 38.6311 177.548 38.9004 178.361 39.4388C179.175 39.9653 179.803 40.7191 180.246 41.7003C180.689 42.6695 180.91 43.8003 180.91 45.0926C180.91 46.3849 180.689 47.5216 180.246 48.5028C179.803 49.472 179.175 50.2258 178.361 50.7643C177.548 51.2908 176.603 51.554 175.526 51.554ZM175.526 49.8848C176.638 49.8848 177.512 49.46 178.146 48.6105C178.792 47.7609 179.115 46.5883 179.115 45.0926C179.115 43.5969 178.792 42.4242 178.146 41.5747C177.512 40.7251 176.638 40.3003 175.526 40.3003C174.413 40.3003 173.533 40.7251 172.887 41.5747C172.253 42.4242 171.936 43.5969 171.936 45.0926C171.936 46.5883 172.253 47.7609 172.887 48.6105C173.533 49.46 174.413 49.8848 175.526 49.8848ZM186.208 41.1619L189.349 38.8106L190.696 38.8106L190.696 51.3745L188.901 51.3745L188.901 41.1619L186.208 43.1541L186.208 41.1619ZM196.71 41.1619L199.851 38.8106L201.197 38.8106L201.197 51.3745L199.403 51.3745L199.403 41.1619L196.71 43.1541L196.71 41.1619ZM105.243 80.554C104.166 80.554 103.221 80.2908 102.407 79.7643C101.593 79.2258 100.965 78.472 100.522 77.5028C100.08 76.5216 99.8584 75.3849 99.8584 74.0926C99.8584 72.8003 100.08 71.6695 100.522 70.7003C100.965 69.7191 101.593 68.9653 102.407 68.4388C103.221 67.9004 104.166 67.6311 105.243 67.6311C106.32 67.6311 107.265 67.9004 108.079 68.4388C108.892 68.9653 109.521 69.7191 109.963 70.7003C110.406 71.6695 110.627 72.8003 110.627 74.0926C110.627 75.3849 110.406 76.5216 109.963 77.5028C109.521 78.472 108.892 79.2258 108.079 79.7643C107.265 80.2908 106.32 80.554 105.243 80.554ZM105.243 78.8848C106.356 78.8848 107.229 78.46 107.863 77.6105C108.509 76.7609 108.833 75.5883 108.833 74.0926C108.833 72.5969 108.509 71.4242 107.863 70.5747C107.229 69.7251 106.356 69.3003 105.243 69.3003C104.13 69.3003 103.251 69.7251 102.604 70.5747C101.97 71.4242 101.653 72.5969 101.653 74.0926C101.653 75.5883 101.97 76.7609 102.604 77.6105C103.251 78.46 104.13 78.8848 105.243 78.8848ZM116.823 70.1619L119.964 67.8106L121.31 67.8106L121.31 80.3745L119.515 80.3745L119.515 70.1619L116.823 72.1541L116.823 70.1619ZM133.069 80.554C131.992 80.554 131.046 80.2908 130.233 79.7643C129.419 79.2258 128.791 78.472 128.348 77.5028C127.905 76.5216 127.684 75.3849 127.684 74.0926C127.684 72.8003 127.905 71.6695 128.348 70.7003C128.791 69.7191 129.419 68.9653 130.233 68.4388C131.046 67.9004 131.992 67.6311 133.069 67.6311C134.145 67.6311 135.091 67.9004 135.904 68.4388C136.718 68.9653 137.346 69.7191 137.789 70.7003C138.232 71.6695 138.453 72.8003 138.453 74.0926C138.453 75.3849 138.232 76.5216 137.789 77.5028C137.346 78.472 136.718 79.2258 135.904 79.7643C135.091 80.2908 134.145 80.554 133.069 80.554ZM133.069 78.8848C134.181 78.8848 135.055 78.46 135.689 77.6105C136.335 76.7609 136.658 75.5883 136.658 74.0926C136.658 72.5969 136.335 71.4242 135.689 70.5747C135.055 69.7251 134.181 69.3003 133.069 69.3003C131.956 69.3003 131.076 69.7251 130.43 70.5747C129.796 71.4242 129.479 72.5969 129.479 74.0926C129.479 75.5883 129.796 76.7609 130.43 77.6105C131.076 78.46 131.956 78.8848 133.069 78.8848ZM149.495 80.554C148.418 80.554 147.473 80.2908 146.659 79.7643C145.845 79.2258 145.217 78.472 144.774 77.5028C144.332 76.5216 144.11 75.3849 144.11 74.0926C144.11 72.8003 144.332 71.6695 144.774 70.7003C145.217 69.7191 145.845 68.9653 146.659 68.4388C147.473 67.9004 148.418 67.6311 149.495 67.6311C150.572 67.6311 151.517 67.9004 152.331 68.4388C153.144 68.9653 153.773 69.7191 154.215 70.7003C154.658 71.6695 154.879 72.8003 154.879 74.0926C154.879 75.3849 154.658 76.5216 154.215 77.5028C153.773 78.472 153.144 79.2258 152.331 79.7643C151.517 80.2908 150.572 80.554 149.495 80.554ZM149.495 78.8848C150.608 78.8848 151.481 78.46 152.115 77.6105C152.761 76.7609 153.084 75.5883 153.084 74.0926C153.084 72.5969 152.761 71.4242 152.115 70.5747C151.481 69.7251 150.608 69.3003 149.495 69.3003C148.382 69.3003 147.503 69.7251 146.856 70.5747C146.222 71.4242 145.905 72.5969 145.905 74.0926C145.905 75.5883 146.222 76.7609 146.856 77.6105C147.503 78.46 148.382 78.8848 149.495 78.8848ZM160.178 70.1619L163.319 67.8106L164.665 67.8106L164.665 80.3745L162.87 80.3745L162.87 70.1619L160.178 72.1541L160.178 70.1619ZM170.68 70.1619L173.821 67.8106L175.167 67.8106L175.167 80.3745L173.372 80.3745L173.372 70.1619L170.68 72.1541L170.68 70.1619ZM181.181 70.1619L184.322 67.8106L185.669 67.8106L185.669 80.3745L183.874 80.3745L183.874 70.1619L181.181 72.1541L181.181 70.1619ZM197.427 80.554C196.35 80.554 195.405 80.2908 194.591 79.7643C193.777 79.2258 193.149 78.472 192.706 77.5028C192.264 76.5216 192.042 75.3849 192.042 74.0926C192.042 72.8003 192.264 71.6695 192.706 70.7003C193.149 69.7191 193.777 68.9653 194.591 68.4388C195.405 67.9004 196.35 67.6311 197.427 67.6311C198.504 67.6311 199.449 67.9004 200.263 68.4388C201.076 68.9653 201.705 69.7191 202.147 70.7003C202.59 71.6695 202.811 72.8003 202.811 74.0926C202.811 75.3849 202.59 76.5216 202.147 77.5028C201.705 78.472 201.076 79.2258 200.263 79.7643C199.449 80.2908 198.504 80.554 197.427 80.554ZM197.427 78.8848C198.54 78.8848 199.413 78.46 200.047 77.6105C200.693 76.7609 201.017 75.5883 201.017 74.0926C201.017 72.5969 200.693 71.4242 200.047 70.5747C199.413 69.7251 198.54 69.3003 197.427 69.3003C196.314 69.3003 195.435 69.7251 194.788 70.5747C194.154 71.4242 193.837 72.5969 193.837 74.0926C193.837 75.5883 194.154 76.7609 194.788 77.6105C195.435 78.46 196.314 78.8848 197.427 78.8848ZM105.243 109.554C104.166 109.554 103.221 109.291 102.407 108.764C101.593 108.226 100.965 107.472 100.522 106.503C100.08 105.522 99.8584 104.385 99.8584 103.093C99.8584 101.8 100.08 100.67 100.522 99.7003C100.965 98.7191 101.593 97.9653 102.407 97.4388C103.221 96.9004 104.166 96.6311 105.243 96.6311C106.32 96.6311 107.265 96.9004 108.079 97.4388C108.892 97.9653 109.521 98.7191 109.963 99.7003C110.406 100.67 110.627 101.8 110.627 103.093C110.627 104.385 110.406 105.522 109.963 106.503C109.521 107.472 108.892 108.226 108.079 108.764C107.265 109.291 106.32 109.554 105.243 109.554ZM105.243 107.885C106.356 107.885 107.229 107.46 107.863 106.61C108.509 105.761 108.833 104.588 108.833 103.093C108.833 101.597 108.509 100.424 107.863 99.5747C107.229 98.7251 106.356 98.3003 105.243 98.3003C104.13 98.3003 103.251 98.7251 102.604 99.5747C101.97 100.424 101.653 101.597 101.653 103.093C101.653 104.588 101.97 105.761 102.604 106.61C103.251 107.46 104.13 107.885 105.243 107.885ZM116.733 99.1619L119.874 96.8106L121.22 96.8106L121.22 109.375L119.426 109.375L119.426 99.1619L116.733 101.154L116.733 99.1619ZM132.979 109.554C131.902 109.554 130.957 109.291 130.143 108.764C129.329 108.226 128.701 107.472 128.258 106.503C127.816 105.522 127.594 104.385 127.594 103.093C127.594 101.8 127.816 100.67 128.258 99.7003C128.701 98.7191 129.329 97.9653 130.143 97.4388C130.957 96.9004 131.902 96.6311 132.979 96.6311C134.056 96.6311 135.001 96.9004 135.815 97.4388C136.628 97.9653 137.256 98.7191 137.699 99.7003C138.142 100.67 138.363 101.8 138.363 103.093C138.363 104.385 138.142 105.522 137.699 106.503C137.256 107.472 136.628 108.226 135.815 108.764C135.001 109.291 134.056 109.554 132.979 109.554ZM132.979 107.885C134.092 107.885 134.965 107.46 135.599 106.61C136.245 105.761 136.568 104.588 136.568 103.093C136.568 101.597 136.245 100.424 135.599 99.5747C134.965 98.7251 134.092 98.3003 132.979 98.3003C131.866 98.3003 130.987 98.7251 130.34 99.5747C129.706 100.424 129.389 101.597 129.389 103.093C129.389 104.588 129.706 105.761 130.34 106.61C130.987 107.46 131.866 107.885 132.979 107.885ZM149.405 109.554C148.328 109.554 147.383 109.291 146.569 108.764C145.756 108.226 145.127 107.472 144.685 106.503C144.242 105.522 144.021 104.385 144.021 103.093C144.021 101.8 144.242 100.67 144.685 99.7003C145.127 98.7191 145.756 97.9653 146.569 97.4388C147.383 96.9004 148.328 96.6311 149.405 96.6311C150.482 96.6311 151.427 96.9004 152.241 97.4388C153.055 97.9653 153.683 98.7191 154.126 99.7003C154.568 100.67 154.79 101.8 154.79 103.093C154.79 104.385 154.568 105.522 154.126 106.503C153.683 107.472 153.055 108.226 152.241 108.764C151.427 109.291 150.482 109.554 149.405 109.554ZM149.405 107.885C150.518 107.885 151.391 107.46 152.026 106.61C152.672 105.761 152.995 104.588 152.995 103.093C152.995 101.597 152.672 100.424 152.026 99.5747C151.391 98.7251 150.518 98.3003 149.405 98.3003C148.292 98.3003 147.413 98.7251 146.767 99.5747C146.132 100.424 145.815 101.597 145.815 103.093C145.815 104.588 146.132 105.761 146.767 106.61C147.413 107.46 148.292 107.885 149.405 107.885ZM165.831 109.554C164.754 109.554 163.809 109.291 162.996 108.764C162.182 108.226 161.554 107.472 161.111 106.503C160.668 105.522 160.447 104.385 160.447 103.093C160.447 101.8 160.668 100.67 161.111 99.7003C161.554 98.7191 162.182 97.9653 162.996 97.4388C163.809 96.9004 164.754 96.6311 165.831 96.6311C166.908 96.6311 167.854 96.9004 168.667 97.4388C169.481 97.9653 170.109 98.7191 170.552 99.7003C170.995 100.67 171.216 101.8 171.216 103.093C171.216 104.385 170.995 105.522 170.552 106.503C170.109 107.472 169.481 108.226 168.667 108.764C167.854 109.291 166.908 109.554 165.831 109.554ZM165.831 107.885C166.944 107.885 167.818 107.46 168.452 106.61C169.098 105.761 169.421 104.588 169.421 103.093C169.421 101.597 169.098 100.424 168.452 99.5747C167.818 98.7251 166.944 98.3003 165.831 98.3003C164.719 98.3003 163.839 98.7251 163.193 99.5747C162.559 100.424 162.242 101.597 162.242 103.093C162.242 104.588 162.559 105.761 163.193 106.61C163.839 107.46 164.719 107.885 165.831 107.885ZM176.514 99.1619L179.655 96.8106L181.001 96.8106L181.001 109.375L179.206 109.375L179.206 99.1619L176.514 101.154L176.514 99.1619ZM187.016 99.1619L190.157 96.8106L191.503 96.8106L191.503 109.375L189.708 109.375L189.708 99.1619L187.016 101.154L187.016 99.1619ZM203.262 109.554C202.185 109.554 201.239 109.291 200.426 108.764C199.612 108.226 198.984 107.472 198.541 106.503C198.098 105.522 197.877 104.385 197.877 103.093C197.877 101.8 198.098 100.67 198.541 99.7003C198.984 98.7191 199.612 97.9653 200.426 97.4388C201.239 96.9004 202.185 96.6311 203.262 96.6311C204.338 96.6311 205.284 96.9004 206.097 97.4388C206.911 97.9653 207.539 98.7191 207.982 99.7003C208.425 100.67 208.646 101.8 208.646 103.093C208.646 104.385 208.425 105.522 207.982 106.503C207.539 107.472 206.911 108.226 206.097 108.764C205.284 109.291 204.338 109.554 203.262 109.554ZM203.262 107.885C204.374 107.885 205.248 107.46 205.882 106.61C206.528 105.761 206.851 104.588 206.851 103.093C206.851 101.597 206.528 100.424 205.882 99.5747C205.248 98.7251 204.374 98.3003 203.262 98.3003C202.149 98.3003 201.269 98.7251 200.623 99.5747C199.989 100.424 199.672 101.597 199.672 103.093C199.672 104.588 199.989 105.761 200.623 106.61C201.269 107.46 202.149 107.885 203.262 107.885ZM99.4994 128.162L102.64 125.811L103.986 125.811L103.986 138.375L102.192 138.375L102.192 128.162L99.4994 130.154L99.4994 128.162ZM114.937 128.162L118.078 125.811L119.424 125.811L119.424 138.375L117.629 138.375L117.629 128.162L114.937 130.154L114.937 128.162ZM131.183 138.554C130.106 138.554 129.16 138.291 128.347 137.764C127.533 137.226 126.905 136.472 126.462 135.503C126.019 134.522 125.798 133.385 125.798 132.093C125.798 130.8 126.019 129.67 126.462 128.7C126.905 127.719 127.533 126.965 128.347 126.439C129.16 125.9 130.106 125.631 131.183 125.631C132.259 125.631 133.205 125.9 134.018 126.439C134.832 126.965 135.46 127.719 135.903 128.7C136.346 129.67 136.567 130.8 136.567 132.093C136.567 133.385 136.346 134.522 135.903 135.503C135.46 136.472 134.832 137.226 134.018 137.764C133.205 138.291 132.259 138.554 131.183 138.554ZM131.183 136.885C132.295 136.885 133.169 136.46 133.803 135.61C134.449 134.761 134.772 133.588 134.772 132.093C134.772 130.597 134.449 129.424 133.803 128.575C133.169 127.725 132.295 127.3 131.183 127.3C130.07 127.3 129.19 127.725 128.544 128.575C127.91 129.424 127.593 130.597 127.593 132.093C127.593 133.588 127.91 134.761 128.544 135.61C129.19 136.46 130.07 136.885 131.183 136.885ZM141.865 128.162L145.006 125.811L146.352 125.811L146.352 138.375L144.558 138.375L144.558 128.162L141.865 130.154L141.865 128.162ZM158.111 138.554C157.034 138.554 156.089 138.291 155.275 137.764C154.461 137.226 153.833 136.472 153.39 135.503C152.948 134.522 152.726 133.385 152.726 132.093C152.726 130.8 152.948 129.67 153.39 128.7C153.833 127.719 154.461 126.965 155.275 126.439C156.089 125.9 157.034 125.631 158.111 125.631C159.188 125.631 160.133 125.9 160.947 126.439C161.76 126.965 162.388 127.719 162.831 128.7C163.274 129.67 163.495 130.8 163.495 132.093C163.495 133.385 163.274 134.522 162.831 135.503C162.388 136.472 161.76 137.226 160.947 137.764C160.133 138.291 159.188 138.554 158.111 138.554ZM158.111 136.885C159.224 136.885 160.097 136.46 160.731 135.61C161.377 134.761 161.7 133.588 161.7 132.093C161.7 130.597 161.377 129.424 160.731 128.575C160.097 127.725 159.224 127.3 158.111 127.3C156.998 127.3 156.118 127.725 155.472 128.575C154.838 129.424 154.521 130.597 154.521 132.093C154.521 133.588 154.838 134.761 155.472 135.61C156.118 136.46 156.998 136.885 158.111 136.885ZM168.794 128.162L171.935 125.811L173.281 125.811L173.281 138.375L171.486 138.375L171.486 128.162L168.794 130.154L168.794 128.162ZM185.039 138.554C183.962 138.554 183.017 138.291 182.203 137.764C181.389 137.226 180.761 136.472 180.319 135.503C179.876 134.522 179.654 133.385 179.654 132.093C179.654 130.8 179.876 129.67 180.319 128.7C180.761 127.719 181.389 126.965 182.203 126.439C183.017 125.9 183.962 125.631 185.039 125.631C186.116 125.631 187.061 125.9 187.875 126.439C188.688 126.965 189.317 127.719 189.759 128.7C190.202 129.67 190.423 130.8 190.423 132.093C190.423 133.385 190.202 134.522 189.759 135.503C189.317 136.472 188.688 137.226 187.875 137.764C187.061 138.291 186.116 138.554 185.039 138.554ZM185.039 136.885C186.152 136.885 187.025 136.46 187.659 135.61C188.306 134.761 188.629 133.588 188.629 132.093C188.629 130.597 188.306 129.424 187.659 128.575C187.025 127.725 186.152 127.3 185.039 127.3C183.926 127.3 183.047 127.725 182.401 128.575C181.766 129.424 181.449 130.597 181.449 132.093C181.449 133.588 181.766 134.761 182.401 135.61C183.047 136.46 183.926 136.885 185.039 136.885ZM201.465 138.554C200.388 138.554 199.443 138.291 198.629 137.764C197.816 137.226 197.188 136.472 196.745 135.503C196.302 134.522 196.081 133.385 196.081 132.093C196.081 130.8 196.302 129.67 196.745 128.7C197.188 127.719 197.816 126.965 198.629 126.439C199.443 125.9 200.388 125.631 201.465 125.631C202.542 125.631 203.487 125.9 204.301 126.439C205.115 126.965 205.743 127.719 206.186 128.7C206.628 129.67 206.85 130.8 206.85 132.093C206.85 133.385 206.628 134.522 206.186 135.503C205.743 136.472 205.115 137.226 204.301 137.764C203.487 138.291 202.542 138.554 201.465 138.554ZM201.465 136.885C202.578 136.885 203.452 136.46 204.086 135.61C204.732 134.761 205.055 133.588 205.055 132.093C205.055 130.597 204.732 129.424 204.086 128.575C203.452 127.725 202.578 127.3 201.465 127.3C200.352 127.3 199.473 127.725 198.827 128.575C198.193 129.424 197.876 130.597 197.876 132.093C197.876 133.588 198.193 134.761 198.827 135.61C199.473 136.46 200.352 136.885 201.465 136.885ZM105.243 167.554C104.166 167.554 103.221 167.291 102.407 166.764C101.593 166.226 100.965 165.472 100.522 164.503C100.08 163.522 99.8584 162.385 99.8584 161.093C99.8584 159.8 100.08 158.67 100.522 157.7C100.965 156.719 101.593 155.965 102.407 155.439C103.221 154.9 104.166 154.631 105.243 154.631C106.32 154.631 107.265 154.9 108.079 155.439C108.892 155.965 109.521 156.719 109.963 157.7C110.406 158.67 110.627 159.8 110.627 161.093C110.627 162.385 110.406 163.522 109.963 164.503C109.521 165.472 108.892 166.226 108.079 166.764C107.265 167.291 106.32 167.554 105.243 167.554ZM105.243 165.885C106.356 165.885 107.229 165.46 107.863 164.61C108.509 163.761 108.833 162.588 108.833 161.093C108.833 159.597 108.509 158.424 107.863 157.575C107.229 156.725 106.356 156.3 105.243 156.3C104.13 156.3 103.251 156.725 102.604 157.575C101.97 158.424 101.653 159.597 101.653 161.093C101.653 162.588 101.97 163.761 102.604 164.61C103.251 165.46 104.13 165.885 105.243 165.885ZM115.926 157.162L119.067 154.811L120.413 154.811L120.413 167.375L118.618 167.375L118.618 157.162L115.926 159.154L115.926 157.162ZM132.171 167.554C131.094 167.554 130.149 167.291 129.335 166.764C128.522 166.226 127.893 165.472 127.451 164.503C127.008 163.522 126.787 162.385 126.787 161.093C126.787 159.8 127.008 158.67 127.451 157.7C127.893 156.719 128.522 155.965 129.335 155.439C130.149 154.9 131.094 154.631 132.171 154.631C133.248 154.631 134.193 154.9 135.007 155.439C135.821 155.965 136.449 156.719 136.892 157.7C137.334 158.67 137.556 159.8 137.556 161.093C137.556 162.385 137.334 163.522 136.892 164.503C136.449 165.472 135.821 166.226 135.007 166.764C134.193 167.291 133.248 167.554 132.171 167.554ZM132.171 165.885C133.284 165.885 134.157 165.46 134.792 164.61C135.438 163.761 135.761 162.588 135.761 161.093C135.761 159.597 135.438 158.424 134.792 157.575C134.157 156.725 133.284 156.3 132.171 156.3C131.058 156.3 130.179 156.725 129.533 157.575C128.899 158.424 128.581 159.597 128.581 161.093C128.581 162.588 128.899 163.761 129.533 164.61C130.179 165.46 131.058 165.885 132.171 165.885ZM142.854 157.162L145.995 154.811L147.341 154.811L147.341 167.375L145.546 167.375L145.546 157.162L142.854 159.154L142.854 157.162ZM159.099 167.554C158.022 167.554 157.077 167.291 156.263 166.764C155.45 166.226 154.822 165.472 154.379 164.503C153.936 163.522 153.715 162.385 153.715 161.093C153.715 159.8 153.936 158.67 154.379 157.7C154.822 156.719 155.45 155.965 156.263 155.439C157.077 154.9 158.022 154.631 159.099 154.631C160.176 154.631 161.122 154.9 161.935 155.439C162.749 155.965 163.377 156.719 163.82 157.7C164.262 158.67 164.484 159.8 164.484 161.093C164.484 162.385 164.262 163.522 163.82 164.503C163.377 165.472 162.749 166.226 161.935 166.764C161.122 167.291 160.176 167.554 159.099 167.554ZM159.099 165.885C160.212 165.885 161.086 165.46 161.72 164.61C162.366 163.761 162.689 162.588 162.689 161.093C162.689 159.597 162.366 158.424 161.72 157.575C161.086 156.725 160.212 156.3 159.099 156.3C157.987 156.3 157.107 156.725 156.461 157.575C155.827 158.424 155.51 159.597 155.51 161.093C155.51 162.588 155.827 163.761 156.461 164.61C157.107 165.46 157.987 165.885 159.099 165.885ZM169.782 157.162L172.923 154.811L174.269 154.811L174.269 167.375L172.474 167.375L172.474 157.162L169.782 159.154L169.782 157.162ZM186.028 167.554C184.951 167.554 184.005 167.291 183.192 166.764C182.378 166.226 181.75 165.472 181.307 164.503C180.864 163.522 180.643 162.385 180.643 161.093C180.643 159.8 180.864 158.67 181.307 157.7C181.75 156.719 182.378 155.965 183.192 155.439C184.005 154.9 184.951 154.631 186.028 154.631C187.104 154.631 188.05 154.9 188.863 155.439C189.677 155.965 190.305 156.719 190.748 157.7C191.191 158.67 191.412 159.8 191.412 161.093C191.412 162.385 191.191 163.522 190.748 164.503C190.305 165.472 189.677 166.226 188.863 166.764C188.05 167.291 187.104 167.554 186.028 167.554ZM186.028 165.885C187.14 165.885 188.014 165.46 188.648 164.61C189.294 163.761 189.617 162.588 189.617 161.093C189.617 159.597 189.294 158.424 188.648 157.575C188.014 156.725 187.14 156.3 186.028 156.3C184.915 156.3 184.035 156.725 183.389 157.575C182.755 158.424 182.438 159.597 182.438 161.093C182.438 162.588 182.755 163.761 183.389 164.61C184.035 165.46 184.915 165.885 186.028 165.885Z" fill="#818085"/>
</g>
<path d="M102.77 109.655C109.227 141.345 140.151 161.801 171.841 155.344C187.157 152.224 199.849 143.388 208.146 131.513C213.453 123.919 216.962 115.082 218.212 105.702C218.631 102.553 218.796 99.3427 218.689 96.0978C218.581 92.8491 218.201 89.5657 217.53 86.2739C216.86 82.9822 215.925 79.8117 214.753 76.7799C208.183 59.7855 194.152 47.1519 177.34 41.9739C171.152 40.0682 164.588 39.1724 157.88 39.4408C154.763 39.5655 151.615 39.9416 148.46 40.5844C138.513 42.6109 129.674 47.0477 122.425 53.162C106.58 66.5283 98.3405 87.9112 102.77 109.655Z" stroke="black" stroke-width="1.20155"/>
<defs>
<linearGradient id="paint0_linear_9469_74197" x1="51.24" y1="160.107" x2="64.2587" y2="178.285" gradientUnits="userSpaceOnUse">
<stop stop-color="#D6FFBB"/>
<stop offset="1" stop-color="#5869DD"/>
</linearGradient>
<linearGradient id="paint1_linear_9469_74197" x1="89.0273" y1="133.674" x2="113.729" y2="133.674" gradientUnits="userSpaceOnUse">
<stop stop-color="#D6FFBB"/>
<stop offset="1" stop-color="#5869DD"/>
</linearGradient>
<linearGradient id="paint2_linear_9469_74197" x1="83.5625" y1="137.588" x2="108.264" y2="137.588" gradientUnits="userSpaceOnUse">
<stop stop-color="#D6FFBB"/>
<stop offset="1" stop-color="#5869DD"/>
</linearGradient>
<linearGradient id="paint3_linear_9469_74197" x1="78.0977" y1="141.502" x2="102.799" y2="141.502" gradientUnits="userSpaceOnUse">
<stop stop-color="#D6FFBB"/>
<stop offset="1" stop-color="#5869DD"/>
</linearGradient>
<linearGradient id="paint4_linear_9469_74197" x1="72.6328" y1="145.416" x2="97.3345" y2="145.416" gradientUnits="userSpaceOnUse">
<stop stop-color="#D6FFBB"/>
<stop offset="1" stop-color="#5869DD"/>
</linearGradient>
<linearGradient id="paint5_linear_9469_74197" x1="93.6158" y1="74.2863" x2="226.689" y2="121.648" gradientUnits="userSpaceOnUse">
<stop stop-color="#D6FFBB"/>
<stop offset="1" stop-color="#5869DD"/>
</linearGradient>
<linearGradient id="paint6_linear_9469_74197" x1="149.229" y1="29.8547" x2="237.624" y2="271.839" gradientUnits="userSpaceOnUse">
<stop stop-color="#D6FFBB"/>
<stop offset="1" stop-color="#5869DD"/>
</linearGradient>
</defs>
</svg>
