<svg width="360" height="369" viewBox="0 0 360 369" fill="none" xmlns="http://www.w3.org/2000/svg">
<path fill-rule="evenodd" clip-rule="evenodd" d="M242.426 217.87L227.659 239.883L379.364 331.233L381.028 328.752C386.533 320.546 384.239 309.421 375.938 304.062L242.426 217.87Z" fill="url(#paint0_linear_9469_74183)"/>
<path d="M227.659 239.883L363.148 334.279C368.454 337.976 375.761 336.603 379.364 331.233L227.659 239.883Z" fill="black"/>
<path d="M227.659 239.883L242.426 217.87L375.938 304.062C384.239 309.421 386.533 320.546 381.028 328.752L379.364 331.233M227.659 239.883L363.148 334.279C368.454 337.976 375.761 336.603 379.364 331.233V331.233M227.659 239.883L379.364 331.233" stroke="black" stroke-width="1.75962"/>
<rect x="240.859" y="254.559" width="36.1748" height="6.07037" rx="3.03519" transform="rotate(-56.1448 240.859 254.559)" fill="url(#paint1_linear_9469_74183)" stroke="black" stroke-width="1.75962"/>
<rect x="249.035" y="260.043" width="36.1748" height="6.07037" rx="3.03519" transform="rotate(-56.1448 249.035 260.043)" fill="url(#paint2_linear_9469_74183)" stroke="black" stroke-width="1.75962"/>
<rect x="257.211" y="265.527" width="36.1748" height="6.07037" rx="3.03519" transform="rotate(-56.1448 257.211 265.527)" fill="url(#paint3_linear_9469_74183)" stroke="black" stroke-width="1.75962"/>
<rect x="265.383" y="271.012" width="36.1748" height="6.07037" rx="3.03519" transform="rotate(-56.1448 265.383 271.012)" fill="url(#paint4_linear_9469_74183)" stroke="black" stroke-width="1.75962"/>
<path fill-rule="evenodd" clip-rule="evenodd" d="M171.211 71.6762C166.399 71.0721 161.485 70.7995 156.495 70.8817C99.3812 71.8226 53.8437 118.886 54.7846 176C55.2508 204.298 67.0399 229.755 85.7642 248.124L171.211 71.6762Z" fill="url(#paint5_linear_9469_74183)"/>
<path d="M159.903 277.71C217.017 276.77 262.554 229.707 261.613 172.592C260.755 120.468 221.481 77.9864 171.211 71.6762L85.7642 248.124C104.83 266.829 131.087 278.185 159.903 277.71Z" fill="black"/>
<path d="M85.7642 248.124C104.83 266.829 131.087 278.185 159.903 277.71C217.017 276.77 262.554 229.707 261.613 172.592C260.755 120.468 221.481 77.9864 171.211 71.6762M85.7642 248.124C67.0399 229.755 55.2508 204.298 54.7846 176C53.8437 118.886 99.3812 71.8226 156.495 70.8817C161.485 70.7995 166.399 71.0721 171.211 71.6762M85.7642 248.124L171.211 71.6762" stroke="black" stroke-width="1.75962"/>
<path d="M185.514 268.653C237.626 253.568 267.641 199.093 252.556 146.981C249.018 134.76 243.313 123.753 235.981 114.259C212.049 83.271 170.774 68.3917 130.884 79.9392C86.5835 92.7635 58.2513 134.053 60.021 178.159C60.333 185.935 61.5809 193.8 63.8421 201.611C78.9276 253.723 133.402 283.739 185.514 268.653Z" fill="url(#paint6_linear_9469_74183)" stroke="black" stroke-width="1.75962"/>
<path d="M203.703 246.988C243.847 221.855 256.014 168.937 230.881 128.794C218.734 109.392 200.096 96.5254 179.548 91.246C166.408 87.8699 152.486 87.5967 138.98 90.7017C134.446 91.744 129.958 93.167 125.564 94.9812C121.164 96.7974 116.856 99.0056 112.686 101.616C108.516 104.227 104.648 107.138 101.093 110.302C81.1613 128.043 71.0429 153.774 72.5783 179.491C73.1434 188.955 75.2871 198.418 79.101 207.48C80.8732 211.69 83.006 215.814 85.5086 219.811C93.3973 232.411 104.023 242.255 116.132 249.054C142.602 263.918 176.16 264.234 203.703 246.988Z" fill="#F1EFED" stroke="black" stroke-width="1.75962"/>
<mask id="mask0_9469_74183" style="mask-type:alpha" maskUnits="userSpaceOnUse" x="72" y="87" width="172" height="173">
<path d="M181.736 256.208C227.259 243.031 253.479 195.445 240.301 149.923C237.21 139.246 232.227 129.631 225.822 121.338C204.916 94.2685 168.861 81.2708 134.015 91.3581C95.3163 102.561 70.5667 138.629 72.1126 177.157C72.3852 183.951 73.4753 190.821 75.4505 197.644C88.6284 243.166 136.214 269.386 181.736 256.208Z" fill="#F1EFED"/>
</mask>
<g mask="url(#mask0_9469_74183)">
<path d="M75.938 98.423C74.3609 98.423 72.9766 98.0375 71.785 97.2665C70.5934 96.4779 69.6734 95.374 69.0251 93.9546C68.3767 92.5177 68.0525 90.853 68.0525 88.9605C68.0525 87.068 68.3767 85.412 69.0251 83.9926C69.6734 82.5557 70.5934 81.4518 71.785 80.6807C72.9766 79.8922 74.3609 79.4979 75.938 79.4979C77.5151 79.4979 78.8994 79.8922 80.091 80.6807C81.2826 81.4518 82.2025 82.5557 82.8509 83.9926C83.4992 85.412 83.8234 87.068 83.8234 88.9605C83.8234 90.853 83.4992 92.5177 82.8509 93.9546C82.2025 95.374 81.2826 96.4779 80.091 97.2665C78.8994 98.0375 77.5151 98.423 75.938 98.423ZM75.938 95.9785C77.5676 95.9785 78.8468 95.3564 79.7756 94.1123C80.7218 92.8681 81.1949 91.1509 81.1949 88.9605C81.1949 86.7701 80.7218 85.0528 79.7756 83.8086C78.8468 82.5645 77.5676 81.9424 75.938 81.9424C74.3083 81.9424 73.0204 82.5645 72.0741 83.8086C71.1454 85.0528 70.681 86.7701 70.681 88.9605C70.681 91.1509 71.1454 92.8681 72.0741 94.1123C73.0204 95.3564 74.3083 95.9785 75.938 95.9785ZM91.5826 83.2041L96.1824 79.7608H98.1538V98.1602H95.5253V83.2041L91.5826 86.1217V83.2041ZM115.373 98.423C113.796 98.423 112.412 98.0375 111.22 97.2665C110.029 96.4779 109.109 95.374 108.461 93.9546C107.812 92.5177 107.488 90.853 107.488 88.9605C107.488 87.068 107.812 85.412 108.461 83.9926C109.109 82.5557 110.029 81.4518 111.22 80.6807C112.412 79.8922 113.796 79.4979 115.373 79.4979C116.951 79.4979 118.335 79.8922 119.526 80.6807C120.718 81.4518 121.638 82.5557 122.286 83.9926C122.935 85.412 123.259 87.068 123.259 88.9605C123.259 90.853 122.935 92.5177 122.286 93.9546C121.638 95.374 120.718 96.4779 119.526 97.2665C118.335 98.0375 116.951 98.423 115.373 98.423ZM115.373 95.9785C117.003 95.9785 118.282 95.3564 119.211 94.1123C120.157 92.8681 120.63 91.1509 120.63 88.9605C120.63 86.7701 120.157 85.0528 119.211 83.8086C118.282 82.5645 117.003 81.9424 115.373 81.9424C113.744 81.9424 112.456 82.5645 111.51 83.8086C110.581 85.0528 110.116 86.7701 110.116 88.9605C110.116 91.1509 110.581 92.8681 111.51 94.1123C112.456 95.3564 113.744 95.9785 115.373 95.9785ZM131.018 83.2041L135.618 79.7608H137.589V98.1602H134.961V83.2041L131.018 86.1217V83.2041ZM154.809 98.423C153.232 98.423 151.848 98.0375 150.656 97.2665C149.464 96.4779 148.544 95.374 147.896 93.9546C147.248 92.5177 146.923 90.853 146.923 88.9605C146.923 87.068 147.248 85.412 147.896 83.9926C148.544 82.5557 149.464 81.4518 150.656 80.6807C151.848 79.8922 153.232 79.4979 154.809 79.4979C156.386 79.4979 157.77 79.8922 158.962 80.6807C160.154 81.4518 161.073 82.5557 161.722 83.9926C162.37 85.412 162.694 87.068 162.694 88.9605C162.694 90.853 162.37 92.5177 161.722 93.9546C161.073 95.374 160.154 96.4779 158.962 97.2665C157.77 98.0375 156.386 98.423 154.809 98.423ZM154.809 95.9785C156.439 95.9785 157.718 95.3564 158.647 94.1123C159.593 92.8681 160.066 91.1509 160.066 88.9605C160.066 86.7701 159.593 85.0528 158.647 83.8086C157.718 82.5645 156.439 81.9424 154.809 81.9424C153.179 81.9424 151.891 82.5645 150.945 83.8086C150.016 85.0528 149.552 86.7701 149.552 88.9605C149.552 91.1509 150.016 92.8681 150.945 94.1123C151.891 95.3564 153.179 95.9785 154.809 95.9785ZM178.865 98.423C177.288 98.423 175.903 98.0375 174.712 97.2665C173.52 96.4779 172.6 95.374 171.952 93.9546C171.303 92.5177 170.979 90.853 170.979 88.9605C170.979 87.068 171.303 85.412 171.952 83.9926C172.6 82.5557 173.52 81.4518 174.712 80.6807C175.903 79.8922 177.288 79.4979 178.865 79.4979C180.442 79.4979 181.826 79.8922 183.018 80.6807C184.209 81.4518 185.129 82.5557 185.778 83.9926C186.426 85.412 186.75 87.068 186.75 88.9605C186.75 90.853 186.426 92.5177 185.778 93.9546C185.129 95.374 184.209 96.4779 183.018 97.2665C181.826 98.0375 180.442 98.423 178.865 98.423ZM178.865 95.9785C180.494 95.9785 181.774 95.3564 182.702 94.1123C183.649 92.8681 184.122 91.1509 184.122 88.9605C184.122 86.7701 183.649 85.0528 182.702 83.8086C181.774 82.5645 180.494 81.9424 178.865 81.9424C177.235 81.9424 175.947 82.5645 175.001 83.8086C174.072 85.0528 173.608 86.7701 173.608 88.9605C173.608 91.1509 174.072 92.8681 175.001 94.1123C175.947 95.3564 177.235 95.9785 178.865 95.9785ZM194.509 83.2041L199.109 79.7608H201.081V98.1602H198.452V83.2041L194.509 86.1217V83.2041ZM209.889 83.2041L214.489 79.7608H216.46V98.1602H213.832V83.2041L209.889 86.1217V83.2041ZM75.938 140.423C74.3609 140.423 72.9766 140.037 71.785 139.266C70.5934 138.478 69.6734 137.374 69.0251 135.955C68.3767 134.518 68.0525 132.853 68.0525 130.96C68.0525 129.068 68.3767 127.412 69.0251 125.993C69.6734 124.556 70.5934 123.452 71.785 122.681C72.9766 121.892 74.3609 121.498 75.938 121.498C77.5151 121.498 78.8994 121.892 80.091 122.681C81.2826 123.452 82.2025 124.556 82.8509 125.993C83.4992 127.412 83.8234 129.068 83.8234 130.96C83.8234 132.853 83.4992 134.518 82.8509 135.955C82.2025 137.374 81.2826 138.478 80.091 139.266C78.8994 140.037 77.5151 140.423 75.938 140.423ZM75.938 137.979C77.5676 137.979 78.8468 137.356 79.7756 136.112C80.7218 134.868 81.1949 133.151 81.1949 130.96C81.1949 128.77 80.7218 127.053 79.7756 125.809C78.8468 124.564 77.5676 123.942 75.938 123.942C74.3083 123.942 73.0204 124.564 72.0741 125.809C71.1454 127.053 70.681 128.77 70.681 130.96C70.681 133.151 71.1454 134.868 72.0741 136.112C73.0204 137.356 74.3083 137.979 75.938 137.979ZM92.8968 125.204L97.4967 121.761H99.468V140.16H96.8396V125.204L92.8968 128.122V125.204ZM116.688 140.423C115.111 140.423 113.726 140.037 112.535 139.266C111.343 138.478 110.423 137.374 109.775 135.955C109.126 134.518 108.802 132.853 108.802 130.96C108.802 129.068 109.126 127.412 109.775 125.993C110.423 124.556 111.343 123.452 112.535 122.681C113.726 121.892 115.111 121.498 116.688 121.498C118.265 121.498 119.649 121.892 120.841 122.681C122.032 123.452 122.952 124.556 123.601 125.993C124.249 127.412 124.573 129.068 124.573 130.96C124.573 132.853 124.249 134.518 123.601 135.955C122.952 137.374 122.032 138.478 120.841 139.266C119.649 140.037 118.265 140.423 116.688 140.423ZM116.688 137.979C118.317 137.979 119.597 137.356 120.525 136.112C121.472 134.868 121.945 133.151 121.945 130.96C121.945 128.77 121.472 127.053 120.525 125.809C119.597 124.564 118.317 123.942 116.688 123.942C115.058 123.942 113.77 124.564 112.824 125.809C111.895 127.053 111.431 128.77 111.431 130.96C111.431 133.151 111.895 134.868 112.824 136.112C113.77 137.356 115.058 137.979 116.688 137.979ZM140.743 140.423C139.166 140.423 137.782 140.037 136.59 139.266C135.399 138.478 134.479 137.374 133.831 135.955C133.182 134.518 132.858 132.853 132.858 130.96C132.858 129.068 133.182 127.412 133.831 125.993C134.479 124.556 135.399 123.452 136.59 122.681C137.782 121.892 139.166 121.498 140.743 121.498C142.321 121.498 143.705 121.892 144.896 122.681C146.088 123.452 147.008 124.556 147.656 125.993C148.305 127.412 148.629 129.068 148.629 130.96C148.629 132.853 148.305 134.518 147.656 135.955C147.008 137.374 146.088 138.478 144.896 139.266C143.705 140.037 142.321 140.423 140.743 140.423ZM140.743 137.979C142.373 137.979 143.652 137.356 144.581 136.112C145.527 134.868 146 133.151 146 130.96C146 128.77 145.527 127.053 144.581 125.809C143.652 124.564 142.373 123.942 140.743 123.942C139.114 123.942 137.826 124.564 136.88 125.809C135.951 127.053 135.486 128.77 135.486 130.96C135.486 133.151 135.951 134.868 136.88 136.112C137.826 137.356 139.114 137.979 140.743 137.979ZM156.388 125.204L160.988 121.761H162.959V140.16H160.331V125.204L156.388 128.122V125.204ZM171.768 125.204L176.368 121.761H178.339V140.16H175.711V125.204L171.768 128.122V125.204ZM187.148 125.204L191.747 121.761H193.719V140.16H191.09V125.204L187.148 128.122V125.204ZM210.938 140.423C209.361 140.423 207.977 140.037 206.785 139.266C205.594 138.478 204.674 137.374 204.025 135.955C203.377 134.518 203.053 132.853 203.053 130.96C203.053 129.068 203.377 127.412 204.025 125.993C204.674 124.556 205.594 123.452 206.785 122.681C207.977 121.892 209.361 121.498 210.938 121.498C212.515 121.498 213.9 121.892 215.091 122.681C216.283 123.452 217.203 124.556 217.851 125.993C218.5 127.412 218.824 129.068 218.824 130.96C218.824 132.853 218.5 134.518 217.851 135.955C217.203 137.374 216.283 138.478 215.091 139.266C213.9 140.037 212.515 140.423 210.938 140.423ZM210.938 137.979C212.568 137.979 213.847 137.356 214.776 136.112C215.722 134.868 216.195 133.151 216.195 130.96C216.195 128.77 215.722 127.053 214.776 125.809C213.847 124.564 212.568 123.942 210.938 123.942C209.309 123.942 208.021 124.564 207.074 125.809C206.146 127.053 205.681 128.77 205.681 130.96C205.681 133.151 206.146 134.868 207.074 136.112C208.021 137.356 209.309 137.979 210.938 137.979ZM75.938 182.423C74.3609 182.423 72.9766 182.037 71.785 181.266C70.5934 180.478 69.6734 179.374 69.0251 177.955C68.3767 176.518 68.0525 174.853 68.0525 172.96C68.0525 171.068 68.3767 169.412 69.0251 167.993C69.6734 166.556 70.5934 165.452 71.785 164.681C72.9766 163.892 74.3609 163.498 75.938 163.498C77.5151 163.498 78.8994 163.892 80.091 164.681C81.2826 165.452 82.2025 166.556 82.8509 167.993C83.4992 169.412 83.8234 171.068 83.8234 172.96C83.8234 174.853 83.4992 176.518 82.8509 177.955C82.2025 179.374 81.2826 180.478 80.091 181.266C78.8994 182.037 77.5151 182.423 75.938 182.423ZM75.938 179.979C77.5676 179.979 78.8468 179.356 79.7756 178.112C80.7218 176.868 81.1949 175.151 81.1949 172.96C81.1949 170.77 80.7218 169.053 79.7756 167.809C78.8468 166.564 77.5676 165.942 75.938 165.942C74.3083 165.942 73.0204 166.564 72.0741 167.809C71.1454 169.053 70.681 170.77 70.681 172.96C70.681 175.151 71.1454 176.868 72.0741 178.112C73.0204 179.356 74.3083 179.979 75.938 179.979ZM92.7654 167.204L97.3653 163.761H99.3366V182.16H96.7081V167.204L92.7654 170.122V167.204ZM116.556 182.423C114.979 182.423 113.595 182.037 112.403 181.266C111.212 180.478 110.292 179.374 109.643 177.955C108.995 176.518 108.671 174.853 108.671 172.96C108.671 171.068 108.995 169.412 109.643 167.993C110.292 166.556 111.212 165.452 112.403 164.681C113.595 163.892 114.979 163.498 116.556 163.498C118.133 163.498 119.518 163.892 120.709 164.681C121.901 165.452 122.821 166.556 123.469 167.993C124.118 169.412 124.442 171.068 124.442 172.96C124.442 174.853 124.118 176.518 123.469 177.955C122.821 179.374 121.901 180.478 120.709 181.266C119.518 182.037 118.133 182.423 116.556 182.423ZM116.556 179.979C118.186 179.979 119.465 179.356 120.394 178.112C121.34 176.868 121.813 175.151 121.813 172.96C121.813 170.77 121.34 169.053 120.394 167.809C119.465 166.564 118.186 165.942 116.556 165.942C114.927 165.942 113.639 166.564 112.692 167.809C111.764 169.053 111.299 170.77 111.299 172.96C111.299 175.151 111.764 176.868 112.692 178.112C113.639 179.356 114.927 179.979 116.556 179.979ZM140.612 182.423C139.035 182.423 137.651 182.037 136.459 181.266C135.267 180.478 134.347 179.374 133.699 177.955C133.051 176.518 132.727 174.853 132.727 172.96C132.727 171.068 133.051 169.412 133.699 167.993C134.347 166.556 135.267 165.452 136.459 164.681C137.651 163.892 139.035 163.498 140.612 163.498C142.189 163.498 143.573 163.892 144.765 164.681C145.957 165.452 146.877 166.556 147.525 167.993C148.173 169.412 148.497 171.068 148.497 172.96C148.497 174.853 148.173 176.518 147.525 177.955C146.877 179.374 145.957 180.478 144.765 181.266C143.573 182.037 142.189 182.423 140.612 182.423ZM140.612 179.979C142.242 179.979 143.521 179.356 144.45 178.112C145.396 176.868 145.869 175.151 145.869 172.96C145.869 170.77 145.396 169.053 144.45 167.809C143.521 166.564 142.242 165.942 140.612 165.942C138.982 165.942 137.694 166.564 136.748 167.809C135.819 169.053 135.355 170.77 135.355 172.96C135.355 175.151 135.819 176.868 136.748 178.112C137.694 179.356 138.982 179.979 140.612 179.979ZM164.668 182.423C163.091 182.423 161.706 182.037 160.515 181.266C159.323 180.478 158.403 179.374 157.755 177.955C157.107 176.518 156.782 174.853 156.782 172.96C156.782 171.068 157.107 169.412 157.755 167.993C158.403 166.556 159.323 165.452 160.515 164.681C161.706 163.892 163.091 163.498 164.668 163.498C166.245 163.498 167.629 163.892 168.821 164.681C170.012 165.452 170.932 166.556 171.581 167.993C172.229 169.412 172.553 171.068 172.553 172.96C172.553 174.853 172.229 176.518 171.581 177.955C170.932 179.374 170.012 180.478 168.821 181.266C167.629 182.037 166.245 182.423 164.668 182.423ZM164.668 179.979C166.297 179.979 167.577 179.356 168.505 178.112C169.452 176.868 169.925 175.151 169.925 172.96C169.925 170.77 169.452 169.053 168.505 167.809C167.577 166.564 166.297 165.942 164.668 165.942C163.038 165.942 161.75 166.564 160.804 167.809C159.875 169.053 159.411 170.77 159.411 172.96C159.411 175.151 159.875 176.868 160.804 178.112C161.75 179.356 163.038 179.979 164.668 179.979ZM180.312 167.204L184.912 163.761H186.884V182.16H184.255V167.204L180.312 170.122V167.204ZM195.692 167.204L200.292 163.761H202.263V182.16H199.635V167.204L195.692 170.122V167.204ZM219.483 182.423C217.906 182.423 216.522 182.037 215.33 181.266C214.138 180.478 213.218 179.374 212.57 177.955C211.922 176.518 211.598 174.853 211.598 172.96C211.598 171.068 211.922 169.412 212.57 167.993C213.218 166.556 214.138 165.452 215.33 164.681C216.522 163.892 217.906 163.498 219.483 163.498C221.06 163.498 222.444 163.892 223.636 164.681C224.828 165.452 225.748 166.556 226.396 167.993C227.044 169.412 227.368 171.068 227.368 172.96C227.368 174.853 227.044 176.518 226.396 177.955C225.748 179.374 224.828 180.478 223.636 181.266C222.444 182.037 221.06 182.423 219.483 182.423ZM219.483 179.979C221.113 179.979 222.392 179.356 223.321 178.112C224.267 176.868 224.74 175.151 224.74 172.96C224.74 170.77 224.267 169.053 223.321 167.809C222.392 166.564 221.113 165.942 219.483 165.942C217.853 165.942 216.565 166.564 215.619 167.809C214.69 169.053 214.226 170.77 214.226 172.96C214.226 175.151 214.69 176.868 215.619 178.112C216.565 179.356 217.853 179.979 219.483 179.979ZM67.5268 209.204L72.1267 205.761H74.098V224.16H71.4696V209.204L67.5268 212.122V209.204ZM90.1349 209.204L94.7347 205.761H96.7061V224.16H94.0776V209.204L90.1349 212.122V209.204ZM113.926 224.423C112.349 224.423 110.964 224.037 109.773 223.266C108.581 222.478 107.661 221.374 107.013 219.955C106.364 218.518 106.04 216.853 106.04 214.96C106.04 213.068 106.364 211.412 107.013 209.993C107.661 208.556 108.581 207.452 109.773 206.681C110.964 205.892 112.349 205.498 113.926 205.498C115.503 205.498 116.887 205.892 118.079 206.681C119.27 207.452 120.19 208.556 120.839 209.993C121.487 211.412 121.811 213.068 121.811 214.96C121.811 216.853 121.487 218.518 120.839 219.955C120.19 221.374 119.27 222.478 118.079 223.266C116.887 224.037 115.503 224.423 113.926 224.423ZM113.926 221.979C115.555 221.979 116.835 221.356 117.763 220.112C118.71 218.868 119.183 217.151 119.183 214.96C119.183 212.77 118.71 211.053 117.763 209.809C116.835 208.564 115.555 207.942 113.926 207.942C112.296 207.942 111.008 208.564 110.062 209.809C109.133 211.053 108.669 212.77 108.669 214.96C108.669 217.151 109.133 218.868 110.062 220.112C111.008 221.356 112.296 221.979 113.926 221.979ZM129.57 209.204L134.17 205.761H136.142V224.16H133.513V209.204L129.57 212.122V209.204ZM153.361 224.423C151.784 224.423 150.4 224.037 149.208 223.266C148.017 222.478 147.097 221.374 146.448 219.955C145.8 218.518 145.476 216.853 145.476 214.96C145.476 213.068 145.8 211.412 146.448 209.993C147.097 208.556 148.017 207.452 149.208 206.681C150.4 205.892 151.784 205.498 153.361 205.498C154.938 205.498 156.323 205.892 157.514 206.681C158.706 207.452 159.626 208.556 160.274 209.993C160.922 211.412 161.247 213.068 161.247 214.96C161.247 216.853 160.922 218.518 160.274 219.955C159.626 221.374 158.706 222.478 157.514 223.266C156.323 224.037 154.938 224.423 153.361 224.423ZM153.361 221.979C154.991 221.979 156.27 221.356 157.199 220.112C158.145 218.868 158.618 217.151 158.618 214.96C158.618 212.77 158.145 211.053 157.199 209.809C156.27 208.564 154.991 207.942 153.361 207.942C151.732 207.942 150.444 208.564 149.497 209.809C148.569 211.053 148.104 212.77 148.104 214.96C148.104 217.151 148.569 218.868 149.497 220.112C150.444 221.356 151.732 221.979 153.361 221.979ZM169.006 209.204L173.606 205.761H175.577V224.16H172.949V209.204L169.006 212.122V209.204ZM192.797 224.423C191.22 224.423 189.835 224.037 188.644 223.266C187.452 222.478 186.532 221.374 185.884 219.955C185.235 218.518 184.911 216.853 184.911 214.96C184.911 213.068 185.235 211.412 185.884 209.993C186.532 208.556 187.452 207.452 188.644 206.681C189.835 205.892 191.22 205.498 192.797 205.498C194.374 205.498 195.758 205.892 196.95 206.681C198.141 207.452 199.061 208.556 199.71 209.993C200.358 211.412 200.682 213.068 200.682 214.96C200.682 216.853 200.358 218.518 199.71 219.955C199.061 221.374 198.141 222.478 196.95 223.266C195.758 224.037 194.374 224.423 192.797 224.423ZM192.797 221.979C194.426 221.979 195.706 221.356 196.634 220.112C197.581 218.868 198.054 217.151 198.054 214.96C198.054 212.77 197.581 211.053 196.634 209.809C195.706 208.564 194.426 207.942 192.797 207.942C191.167 207.942 189.879 208.564 188.933 209.809C188.004 211.053 187.54 212.77 187.54 214.96C187.54 217.151 188.004 218.868 188.933 220.112C189.879 221.356 191.167 221.979 192.797 221.979ZM216.852 224.423C215.275 224.423 213.891 224.037 212.699 223.266C211.508 222.478 210.588 221.374 209.94 219.955C209.291 218.518 208.967 216.853 208.967 214.96C208.967 213.068 209.291 211.412 209.94 209.993C210.588 208.556 211.508 207.452 212.699 206.681C213.891 205.892 215.275 205.498 216.852 205.498C218.43 205.498 219.814 205.892 221.005 206.681C222.197 207.452 223.117 208.556 223.765 209.993C224.414 211.412 224.738 213.068 224.738 214.96C224.738 216.853 224.414 218.518 223.765 219.955C223.117 221.374 222.197 222.478 221.005 223.266C219.814 224.037 218.43 224.423 216.852 224.423ZM216.852 221.979C218.482 221.979 219.761 221.356 220.69 220.112C221.636 218.868 222.109 217.151 222.109 214.96C222.109 212.77 221.636 211.053 220.69 209.809C219.761 208.564 218.482 207.942 216.852 207.942C215.223 207.942 213.935 208.564 212.989 209.809C212.06 211.053 211.595 212.77 211.595 214.96C211.595 217.151 212.06 218.868 212.989 220.112C213.935 221.356 215.223 221.979 216.852 221.979ZM75.938 266.423C74.3609 266.423 72.9766 266.037 71.785 265.266C70.5934 264.478 69.6734 263.374 69.0251 261.955C68.3767 260.518 68.0525 258.853 68.0525 256.96C68.0525 255.068 68.3767 253.412 69.0251 251.993C69.6734 250.556 70.5934 249.452 71.785 248.681C72.9766 247.892 74.3609 247.498 75.938 247.498C77.5151 247.498 78.8994 247.892 80.091 248.681C81.2826 249.452 82.2025 250.556 82.8509 251.993C83.4992 253.412 83.8234 255.068 83.8234 256.96C83.8234 258.853 83.4992 260.518 82.8509 261.955C82.2025 263.374 81.2826 264.478 80.091 265.266C78.8994 266.037 77.5151 266.423 75.938 266.423ZM75.938 263.979C77.5676 263.979 78.8468 263.356 79.7756 262.112C80.7218 260.868 81.1949 259.151 81.1949 256.96C81.1949 254.77 80.7218 253.053 79.7756 251.809C78.8468 250.564 77.5676 249.942 75.938 249.942C74.3083 249.942 73.0204 250.564 72.0741 251.809C71.1454 253.053 70.681 254.77 70.681 256.96C70.681 259.151 71.1454 260.868 72.0741 262.112C73.0204 263.356 74.3083 263.979 75.938 263.979ZM91.5826 251.204L96.1824 247.761H98.1538V266.16H95.5253V251.204L91.5826 254.122V251.204ZM115.373 266.423C113.796 266.423 112.412 266.037 111.22 265.266C110.029 264.478 109.109 263.374 108.461 261.955C107.812 260.518 107.488 258.853 107.488 256.96C107.488 255.068 107.812 253.412 108.461 251.993C109.109 250.556 110.029 249.452 111.22 248.681C112.412 247.892 113.796 247.498 115.373 247.498C116.951 247.498 118.335 247.892 119.526 248.681C120.718 249.452 121.638 250.556 122.286 251.993C122.935 253.412 123.259 255.068 123.259 256.96C123.259 258.853 122.935 260.518 122.286 261.955C121.638 263.374 120.718 264.478 119.526 265.266C118.335 266.037 116.951 266.423 115.373 266.423ZM115.373 263.979C117.003 263.979 118.282 263.356 119.211 262.112C120.157 260.868 120.63 259.151 120.63 256.96C120.63 254.77 120.157 253.053 119.211 251.809C118.282 250.564 117.003 249.942 115.373 249.942C113.744 249.942 112.456 250.564 111.51 251.809C110.581 253.053 110.116 254.77 110.116 256.96C110.116 259.151 110.581 260.868 111.51 262.112C112.456 263.356 113.744 263.979 115.373 263.979ZM131.018 251.204L135.618 247.761H137.589V266.16H134.961V251.204L131.018 254.122V251.204ZM154.809 266.423C153.232 266.423 151.848 266.037 150.656 265.266C149.464 264.478 148.544 263.374 147.896 261.955C147.248 260.518 146.923 258.853 146.923 256.96C146.923 255.068 147.248 253.412 147.896 251.993C148.544 250.556 149.464 249.452 150.656 248.681C151.848 247.892 153.232 247.498 154.809 247.498C156.386 247.498 157.77 247.892 158.962 248.681C160.154 249.452 161.073 250.556 161.722 251.993C162.37 253.412 162.694 255.068 162.694 256.96C162.694 258.853 162.37 260.518 161.722 261.955C161.073 263.374 160.154 264.478 158.962 265.266C157.77 266.037 156.386 266.423 154.809 266.423ZM154.809 263.979C156.439 263.979 157.718 263.356 158.647 262.112C159.593 260.868 160.066 259.151 160.066 256.96C160.066 254.77 159.593 253.053 158.647 251.809C157.718 250.564 156.439 249.942 154.809 249.942C153.179 249.942 151.891 250.564 150.945 251.809C150.016 253.053 149.552 254.77 149.552 256.96C149.552 259.151 150.016 260.868 150.945 262.112C151.891 263.356 153.179 263.979 154.809 263.979ZM170.454 251.204L175.053 247.761H177.025V266.16H174.396V251.204L170.454 254.122V251.204ZM194.244 266.423C192.667 266.423 191.283 266.037 190.091 265.266C188.9 264.478 187.98 263.374 187.331 261.955C186.683 260.518 186.359 258.853 186.359 256.96C186.359 255.068 186.683 253.412 187.331 251.993C187.98 250.556 188.9 249.452 190.091 248.681C191.283 247.892 192.667 247.498 194.244 247.498C195.821 247.498 197.206 247.892 198.397 248.681C199.589 249.452 200.509 250.556 201.157 251.993C201.806 253.412 202.13 255.068 202.13 256.96C202.13 258.853 201.806 260.518 201.157 261.955C200.509 263.374 199.589 264.478 198.397 265.266C197.206 266.037 195.821 266.423 194.244 266.423ZM194.244 263.979C195.874 263.979 197.153 263.356 198.082 262.112C199.028 260.868 199.501 259.151 199.501 256.96C199.501 254.77 199.028 253.053 198.082 251.809C197.153 250.564 195.874 249.942 194.244 249.942C192.615 249.942 191.327 250.564 190.381 251.809C189.452 253.053 188.987 254.77 188.987 256.96C188.987 259.151 189.452 260.868 190.381 262.112C191.327 263.356 192.615 263.979 194.244 263.979Z" fill="#818085"/>
</g>
<path d="M203.703 246.988C243.847 221.855 256.014 168.937 230.881 128.794C218.734 109.392 200.096 96.5254 179.548 91.246C166.408 87.8699 152.486 87.5967 138.98 90.7017C134.446 91.744 129.958 93.167 125.564 94.9812C121.164 96.7974 116.856 99.0056 112.686 101.616C108.516 104.227 104.648 107.138 101.093 110.302C81.1613 128.043 71.0429 153.774 72.5783 179.491C73.1434 188.955 75.2871 198.418 79.101 207.48C80.8732 211.69 83.006 215.814 85.5086 219.811C93.3973 232.411 104.023 242.255 116.132 249.054C142.602 263.918 176.16 264.234 203.703 246.988Z" stroke="black" stroke-width="1.75962"/>
<defs>
<linearGradient id="paint0_linear_9469_74183" x1="299.364" y1="291.74" x2="317.606" y2="264.549" gradientUnits="userSpaceOnUse">
<stop stop-color="#D6FFBB"/>
<stop offset="1" stop-color="#5869DD"/>
</linearGradient>
<linearGradient id="paint1_linear_9469_74183" x1="240.859" y1="257.594" x2="277.034" y2="257.594" gradientUnits="userSpaceOnUse">
<stop stop-color="#D6FFBB"/>
<stop offset="1" stop-color="#5869DD"/>
</linearGradient>
<linearGradient id="paint2_linear_9469_74183" x1="249.035" y1="263.078" x2="285.21" y2="263.078" gradientUnits="userSpaceOnUse">
<stop stop-color="#D6FFBB"/>
<stop offset="1" stop-color="#5869DD"/>
</linearGradient>
<linearGradient id="paint3_linear_9469_74183" x1="257.211" y1="268.563" x2="293.386" y2="268.563" gradientUnits="userSpaceOnUse">
<stop stop-color="#D6FFBB"/>
<stop offset="1" stop-color="#5869DD"/>
</linearGradient>
<linearGradient id="paint4_linear_9469_74183" x1="265.383" y1="274.047" x2="301.558" y2="274.047" gradientUnits="userSpaceOnUse">
<stop stop-color="#D6FFBB"/>
<stop offset="1" stop-color="#5869DD"/>
</linearGradient>
<linearGradient id="paint5_linear_9469_74183" x1="159.903" y1="277.71" x2="156.495" y2="70.8817" gradientUnits="userSpaceOnUse">
<stop stop-color="#D6FFBB"/>
<stop offset="1" stop-color="#5869DD"/>
</linearGradient>
<linearGradient id="paint6_linear_9469_74183" x1="70.401" y1="224.268" x2="356.852" y2="-21.2664" gradientUnits="userSpaceOnUse">
<stop stop-color="#D6FFBB"/>
<stop offset="1" stop-color="#5869DD"/>
</linearGradient>
</defs>
</svg>
