<svg width="287" height="281" viewBox="0 0 287 281" fill="none" xmlns="http://www.w3.org/2000/svg">
<path d="M36.5286 280.524L32.4688 273.264L36.5286 280.524Z" fill="black"/>
<path d="M28.3809 266.015L24.3432 258.75C24.3354 258.741 24.3311 258.731 24.3311 258.719C24.3311 258.708 24.3354 258.697 24.3432 258.689C24.3468 258.684 24.3515 258.68 24.3568 258.678C24.362 258.675 24.3678 258.674 24.3737 258.674C24.3796 258.674 24.3854 258.675 24.3907 258.678C24.3959 258.68 24.4006 258.684 24.4042 258.689L28.4142 265.982C28.4182 265.988 28.4204 265.994 28.4204 266.001C28.4204 266.008 28.4182 266.015 28.4142 266.021C28.4088 266.024 28.4026 266.025 28.3966 266.024C28.3906 266.023 28.385 266.02 28.3809 266.015Z" fill="black"/>
<path d="M20.4068 251.424L16.591 244.036C16.5862 244.027 16.5833 244.017 16.5823 244.007C16.5814 243.997 16.5825 243.986 16.5856 243.977C16.5887 243.967 16.5937 243.958 16.6004 243.95C16.607 243.942 16.6151 243.936 16.6243 243.931C16.6334 243.926 16.6433 243.923 16.6536 243.922C16.6638 243.921 16.6741 243.922 16.6839 243.926C16.6937 243.929 16.7028 243.934 16.7107 243.94C16.7185 243.947 16.725 243.955 16.7297 243.964L20.5122 251.363C20.5201 251.378 20.5216 251.396 20.5164 251.413C20.5112 251.429 20.4998 251.443 20.4845 251.452C20.4703 251.456 20.4549 251.456 20.4409 251.451C20.4268 251.446 20.4148 251.437 20.4068 251.424Z" fill="black"/>
<path d="M12.9398 236.565L9.49555 228.989C9.48398 228.962 9.48327 228.931 9.49358 228.903C9.50389 228.875 9.52443 228.852 9.55101 228.839C9.57834 228.828 9.60906 228.827 9.63689 228.837C9.66472 228.848 9.68757 228.868 9.70076 228.895L13.1117 236.476C13.1171 236.488 13.1201 236.5 13.1205 236.512C13.1208 236.525 13.1186 236.537 13.1139 236.549C13.1092 236.56 13.1021 236.57 13.0931 236.579C13.0842 236.588 13.0735 236.594 13.0618 236.598C13.0409 236.609 13.0169 236.612 12.9944 236.605C12.9718 236.599 12.9524 236.585 12.9398 236.565Z" fill="black"/>
<path d="M6.35144 221.28L3.57831 213.426C3.57132 213.409 3.56795 213.391 3.5684 213.372C3.56885 213.354 3.57312 213.336 3.58094 213.319C3.58876 213.302 3.59996 213.288 3.61383 213.275C3.6277 213.263 3.64393 213.254 3.66151 213.249C3.69684 213.236 3.73573 213.238 3.76991 213.253C3.80409 213.269 3.83086 213.297 3.84454 213.332L6.61766 221.18C6.62835 221.211 6.6262 221.246 6.61168 221.276C6.59717 221.306 6.57143 221.329 6.54001 221.341C6.52442 221.352 6.50632 221.36 6.4872 221.363C6.46809 221.366 6.44851 221.365 6.43008 221.359C6.41166 221.353 6.39491 221.342 6.38124 221.329C6.36756 221.315 6.35735 221.298 6.35144 221.28Z" fill="black"/>
<path d="M1.35971 205.395C0.721913 202.693 0.267932 199.95 0.000879176 197.187C-0.00141459 197.164 0.000790573 197.141 0.00737023 197.12C0.0139499 197.098 0.0247724 197.078 0.0392119 197.06C0.0536515 197.043 0.0714206 197.028 0.0914958 197.017C0.111571 197.007 0.133555 197 0.156174 196.998C0.20205 196.996 0.246898 197.012 0.281827 197.042C0.316755 197.072 0.339212 197.113 0.344744 197.159C0.590457 199.916 1.02594 202.653 1.64811 205.351C1.65639 205.392 1.64827 205.435 1.62547 205.47C1.60268 205.505 1.56702 205.53 1.5261 205.539C1.48556 205.54 1.44628 205.525 1.41564 205.499C1.385 205.472 1.36511 205.435 1.35971 205.395Z" fill="black"/>
<path d="M0.250349 188.828C0.66346 186.037 1.75466 183.39 3.42835 181.118C3.4446 181.097 3.46486 181.08 3.48794 181.067C3.51103 181.054 3.53647 181.045 3.5628 181.042C3.58914 181.039 3.61582 181.041 3.6413 181.049C3.66678 181.056 3.69054 181.068 3.71121 181.085C3.75314 181.118 3.78063 181.166 3.78788 181.219C3.79513 181.271 3.78155 181.325 3.75003 181.368C2.10317 183.573 1.01984 186.147 0.594219 188.866C0.590898 188.891 0.58256 188.915 0.569723 188.936C0.556885 188.958 0.539818 188.976 0.519563 188.991C0.499308 189.005 0.476294 189.016 0.451936 189.021C0.427578 189.026 0.402391 189.026 0.377915 189.022C0.338565 189.007 0.304884 188.981 0.281895 188.946C0.258906 188.911 0.247839 188.869 0.250349 188.828Z" fill="black"/>
<path d="M10.1772 176.287C12.8239 175.367 15.6005 174.874 18.4023 174.828C18.4329 174.827 18.4635 174.831 18.4923 174.842C18.5212 174.852 18.5477 174.868 18.5703 174.889C18.593 174.909 18.6114 174.934 18.6244 174.962C18.6375 174.99 18.6449 175.02 18.6463 175.05C18.6486 175.081 18.6444 175.113 18.634 175.142C18.6236 175.172 18.6073 175.199 18.5859 175.222C18.5646 175.245 18.5387 175.263 18.51 175.276C18.4812 175.288 18.4503 175.294 18.4189 175.294C15.6646 175.333 12.9336 175.807 10.327 176.697C10.2725 176.717 10.2124 176.715 10.1595 176.691C10.1066 176.668 10.0652 176.624 10.0441 176.57C10.0245 176.515 10.0274 176.454 10.0524 176.401C10.0773 176.348 10.1222 176.307 10.1772 176.287Z" fill="black"/>
<path d="M26.7453 175.305C29.5184 175.677 32.2361 176.215 34.9427 176.847C34.977 176.855 35.0094 176.869 35.0381 176.89C35.0668 176.91 35.0911 176.936 35.1097 176.966C35.1282 176.996 35.1407 177.029 35.1463 177.064C35.1519 177.099 35.1506 177.135 35.1423 177.169C35.1345 177.203 35.1199 177.236 35.0995 177.264C35.079 177.293 35.0531 177.317 35.0232 177.336C34.9933 177.354 34.96 177.367 34.9252 177.372C34.8904 177.378 34.8549 177.377 34.8207 177.368C32.1252 176.725 29.4131 176.182 26.6788 175.804C26.6459 175.8 26.6141 175.79 26.5854 175.773C26.5566 175.757 26.5314 175.735 26.5113 175.708C26.4911 175.682 26.4765 175.652 26.4681 175.62C26.4597 175.588 26.4578 175.554 26.4625 175.522C26.4665 175.489 26.4771 175.457 26.4936 175.428C26.5101 175.399 26.5322 175.374 26.5585 175.354C26.5849 175.334 26.6149 175.319 26.647 175.311C26.6791 175.302 26.7125 175.301 26.7453 175.305Z" fill="black"/>
<path d="M43.0177 178.883L51.0209 181.174C51.0579 181.184 51.0925 181.201 51.1227 181.225C51.1528 181.249 51.1779 181.278 51.1965 181.312C51.2151 181.346 51.2268 181.383 51.231 181.421C51.2351 181.459 51.2316 181.498 51.2206 181.534C51.1999 181.608 51.1509 181.67 51.0844 181.707C51.0179 181.745 50.9392 181.754 50.8656 181.734L42.8735 179.438C42.8029 179.417 42.7434 179.369 42.708 179.305C42.6726 179.24 42.6643 179.165 42.6849 179.094C42.6921 179.058 42.7065 179.023 42.7273 178.993C42.7482 178.963 42.775 178.937 42.8061 178.917C42.8372 178.897 42.872 178.884 42.9084 178.878C42.9448 178.873 42.982 178.874 43.0177 178.883Z" fill="black"/>
<path d="M58.9588 183.693L66.8068 186.422C66.8837 186.449 66.9466 186.506 66.9819 186.58C67.0172 186.653 67.022 186.738 66.9953 186.815C66.9823 186.853 66.9618 186.888 66.9352 186.918C66.9086 186.948 66.8764 186.973 66.8403 186.99C66.8043 187.008 66.7651 187.018 66.7251 187.02C66.6851 187.023 66.645 187.017 66.6071 187.004L58.7647 184.259C58.7275 184.245 58.6933 184.225 58.664 184.199C58.6346 184.173 58.6108 184.141 58.5938 184.105C58.5768 184.07 58.5669 184.031 58.5649 183.992C58.5628 183.952 58.5685 183.913 58.5817 183.876C58.5941 183.839 58.6138 183.805 58.6396 183.775C58.6654 183.746 58.6968 183.722 58.7319 183.705C58.767 183.688 58.8051 183.678 58.8441 183.676C58.8831 183.674 58.9221 183.68 58.9588 183.693Z" fill="black"/>
<path d="M74.6261 189.334L82.3909 192.39C82.4306 192.404 82.467 192.427 82.4979 192.456C82.5288 192.485 82.5535 192.52 82.5706 192.559C82.5876 192.598 82.5967 192.64 82.5973 192.682C82.5979 192.724 82.5899 192.766 82.5739 192.806C82.5586 192.846 82.5355 192.882 82.5059 192.913C82.4763 192.944 82.4408 192.969 82.4016 192.986C82.3623 193.003 82.3201 193.012 82.2773 193.012C82.2345 193.013 82.192 193.005 82.1524 192.989L74.3987 189.922C74.3603 189.907 74.3252 189.885 74.2954 189.856C74.2657 189.828 74.2419 189.794 74.2253 189.756C74.2088 189.719 74.2 189.678 74.1993 189.637C74.1986 189.596 74.206 189.555 74.2212 189.517C74.2354 189.478 74.2572 189.442 74.2853 189.412C74.3135 189.382 74.3474 189.357 74.3851 189.34C74.4229 189.323 74.4636 189.314 74.505 189.313C74.5464 189.312 74.5875 189.319 74.6261 189.334Z" fill="black"/>
<path d="M90.0621 195.565L97.716 198.848C97.7624 198.862 97.8054 198.886 97.842 198.917C97.8787 198.949 97.9082 198.988 97.9286 199.032C97.949 199.076 97.9598 199.124 97.9605 199.173C97.9611 199.221 97.9514 199.269 97.9321 199.314C97.9128 199.358 97.8843 199.398 97.8485 199.431C97.8126 199.464 97.7703 199.489 97.7242 199.504C97.6781 199.519 97.6294 199.524 97.5811 199.519C97.5328 199.514 97.4862 199.499 97.4442 199.475L89.807 196.18C89.7329 196.141 89.6762 196.076 89.6482 195.997C89.6201 195.918 89.6228 195.832 89.6557 195.755C89.6885 195.678 89.7492 195.616 89.8256 195.582C89.9019 195.548 89.9884 195.543 90.0677 195.57L90.0621 195.565Z" fill="black"/>
<path d="M105.33 202.176L112.923 205.581C113.011 205.62 113.079 205.692 113.114 205.782C113.148 205.871 113.145 205.971 113.106 206.058C113.067 206.146 112.995 206.214 112.906 206.249C112.816 206.283 112.717 206.28 112.629 206.241L105.048 202.819C105.006 202.8 104.968 202.773 104.937 202.74C104.905 202.706 104.881 202.667 104.864 202.624C104.848 202.581 104.841 202.535 104.842 202.489C104.843 202.443 104.854 202.398 104.873 202.356C104.892 202.314 104.919 202.277 104.952 202.245C104.986 202.214 105.025 202.189 105.068 202.173C105.111 202.157 105.157 202.149 105.203 202.151C105.249 202.152 105.294 202.163 105.336 202.181L105.33 202.176Z" fill="black"/>
<path d="M120.499 209.05L128.069 212.5C128.115 212.52 128.155 212.55 128.189 212.586C128.223 212.622 128.249 212.665 128.266 212.711C128.283 212.758 128.291 212.807 128.288 212.857C128.286 212.906 128.274 212.955 128.252 212.999C128.232 213.045 128.203 213.085 128.167 213.119C128.131 213.153 128.088 213.18 128.042 213.197C127.996 213.215 127.946 213.223 127.897 213.221C127.847 213.22 127.798 213.208 127.753 213.188L120.194 209.722C120.149 209.702 120.108 209.673 120.074 209.637C120.041 209.602 120.015 209.56 119.997 209.514C119.98 209.467 119.973 209.418 119.975 209.369C119.977 209.32 119.989 209.272 120.011 209.228C120.03 209.184 120.059 209.144 120.094 209.111C120.13 209.078 120.171 209.052 120.217 209.035C120.263 209.019 120.311 209.012 120.359 209.014C120.408 209.017 120.455 209.029 120.499 209.05Z" fill="black"/>
<path d="M135.641 215.938L143.233 219.338C143.281 219.359 143.323 219.39 143.359 219.427C143.395 219.465 143.423 219.509 143.441 219.558C143.46 219.606 143.469 219.658 143.467 219.709C143.466 219.761 143.454 219.812 143.433 219.86C143.412 219.907 143.382 219.95 143.344 219.985C143.306 220.021 143.262 220.049 143.214 220.067C143.165 220.086 143.114 220.095 143.062 220.093C143.01 220.092 142.959 220.08 142.912 220.059L135.33 216.637C135.284 216.616 135.243 216.587 135.208 216.55C135.174 216.513 135.147 216.47 135.129 216.423C135.111 216.376 135.103 216.326 135.105 216.275C135.106 216.225 135.118 216.176 135.139 216.13C135.159 216.084 135.189 216.042 135.226 216.008C135.262 215.974 135.306 215.947 135.353 215.929C135.4 215.911 135.45 215.903 135.5 215.904C135.551 215.906 135.6 215.918 135.646 215.938H135.641Z" fill="black"/>
<path d="M150.765 222.909L158.192 226.669C158.288 226.72 158.36 226.806 158.394 226.91C158.427 227.014 158.418 227.126 158.369 227.224C158.345 227.272 158.311 227.316 158.27 227.351C158.229 227.387 158.182 227.414 158.13 227.431C158.078 227.448 158.024 227.455 157.97 227.45C157.916 227.446 157.863 227.431 157.814 227.407L150.41 223.63C150.362 223.606 150.318 223.572 150.283 223.531C150.247 223.49 150.22 223.442 150.204 223.39C150.187 223.338 150.181 223.284 150.186 223.23C150.191 223.175 150.207 223.123 150.233 223.075C150.282 222.983 150.366 222.915 150.465 222.883C150.565 222.852 150.672 222.861 150.765 222.909Z" fill="black"/>
<path d="M165.579 230.497L172.978 234.29C173.08 234.343 173.158 234.433 173.193 234.542C173.228 234.652 173.219 234.77 173.167 234.873C173.115 234.975 173.024 235.052 172.915 235.088C172.805 235.123 172.687 235.113 172.584 235.061L165.186 231.251C165.132 231.228 165.084 231.195 165.044 231.153C165.005 231.111 164.974 231.061 164.954 231.007C164.934 230.953 164.926 230.895 164.93 230.837C164.933 230.779 164.949 230.723 164.975 230.671C165.001 230.62 165.038 230.574 165.083 230.537C165.127 230.5 165.179 230.473 165.235 230.457C165.291 230.442 165.349 230.437 165.406 230.445C165.464 230.453 165.519 230.472 165.568 230.502L165.579 230.497Z" fill="black"/>
<path d="M180.426 237.973L187.964 241.468C188.072 241.517 188.156 241.607 188.197 241.718C188.239 241.83 188.235 241.953 188.186 242.061C188.134 242.168 188.042 242.251 187.93 242.291C187.818 242.332 187.695 242.327 187.587 242.277L180.044 238.783C179.938 238.734 179.856 238.645 179.816 238.535C179.776 238.425 179.781 238.304 179.83 238.198C179.879 238.092 179.969 238.01 180.079 237.97C180.188 237.93 180.309 237.935 180.415 237.984L180.426 237.973Z" fill="black"/>
<path d="M195.618 244.674L203.421 247.486H203.449C203.506 247.506 203.559 247.538 203.604 247.579C203.649 247.62 203.686 247.669 203.712 247.724C203.737 247.78 203.752 247.839 203.754 247.9C203.757 247.961 203.747 248.022 203.726 248.079C203.685 248.195 203.599 248.29 203.488 248.343C203.377 248.396 203.249 248.403 203.133 248.362L195.29 245.511C195.232 245.493 195.178 245.462 195.132 245.422C195.085 245.382 195.047 245.333 195.02 245.278C194.993 245.223 194.978 245.164 194.974 245.102C194.971 245.041 194.98 244.98 195.001 244.922C195.022 244.865 195.054 244.812 195.096 244.767C195.138 244.723 195.188 244.687 195.244 244.662C195.301 244.637 195.361 244.624 195.422 244.623C195.484 244.622 195.544 244.634 195.601 244.657L195.618 244.674Z" fill="black"/>
<path d="M211.386 249.747C214.065 250.393 216.777 250.891 219.511 251.239C219.635 251.255 219.748 251.319 219.825 251.418C219.902 251.517 219.937 251.642 219.921 251.766C219.906 251.89 219.842 252.004 219.743 252.08C219.644 252.157 219.519 252.192 219.394 252.177C216.625 251.825 213.877 251.32 211.164 250.662C211.046 250.632 210.944 250.558 210.88 250.454C210.816 250.351 210.795 250.227 210.82 250.108C210.832 250.046 210.857 249.988 210.892 249.937C210.928 249.885 210.973 249.841 211.026 249.807C211.079 249.774 211.138 249.751 211.2 249.741C211.262 249.73 211.325 249.733 211.386 249.747Z" fill="black"/>
<path d="M227.748 251.665C229.118 251.626 230.488 251.532 231.852 251.365C233.196 251.218 234.519 250.918 235.795 250.472C235.856 250.444 235.922 250.429 235.989 250.428C236.056 250.427 236.122 250.439 236.184 250.465C236.246 250.491 236.301 250.529 236.347 250.577C236.394 250.626 236.429 250.683 236.452 250.746C236.475 250.809 236.484 250.876 236.48 250.943C236.475 251.009 236.457 251.074 236.426 251.134C236.395 251.193 236.352 251.245 236.3 251.287C236.248 251.329 236.187 251.359 236.123 251.376C234.776 251.844 233.38 252.158 231.963 252.314C230.573 252.48 229.175 252.582 227.77 252.619C227.643 252.619 227.522 252.569 227.433 252.479C227.343 252.39 227.293 252.268 227.293 252.142C227.293 252.015 227.343 251.894 227.433 251.805C227.522 251.715 227.643 251.665 227.77 251.665H227.748Z" fill="black"/>
<path d="M241.341 245.244C241.76 243.976 241.959 242.646 241.929 241.312C241.902 239.957 241.742 238.608 241.452 237.285C241.438 237.223 241.437 237.158 241.448 237.096C241.46 237.033 241.483 236.973 241.518 236.92C241.552 236.866 241.597 236.82 241.65 236.784C241.702 236.747 241.761 236.722 241.823 236.708C241.885 236.695 241.95 236.694 242.012 236.705C242.075 236.716 242.135 236.74 242.189 236.775C242.242 236.809 242.288 236.854 242.325 236.906C242.361 236.959 242.387 237.018 242.4 237.08C242.704 238.467 242.869 239.881 242.894 241.301C242.926 242.747 242.707 244.189 242.245 245.56C242.229 245.626 242.199 245.688 242.158 245.741C242.117 245.795 242.065 245.84 242.005 245.872C241.946 245.904 241.88 245.923 241.813 245.929C241.745 245.934 241.678 245.925 241.614 245.902C241.55 245.88 241.492 245.844 241.443 245.797C241.394 245.75 241.355 245.694 241.329 245.631C241.303 245.569 241.291 245.501 241.293 245.434C241.295 245.366 241.311 245.299 241.341 245.238V245.244Z" fill="black"/>
<path d="M238.851 229.498C237.741 226.975 236.482 224.507 235.135 222.111C235.103 222.055 235.083 221.993 235.075 221.929C235.067 221.865 235.072 221.8 235.089 221.738C235.106 221.676 235.136 221.618 235.175 221.567C235.215 221.516 235.264 221.474 235.321 221.442C235.377 221.411 235.438 221.39 235.502 221.383C235.566 221.375 235.631 221.38 235.693 221.397C235.755 221.414 235.813 221.443 235.864 221.483C235.915 221.523 235.957 221.572 235.989 221.628C237.367 224.057 238.62 226.554 239.744 229.11C239.785 229.226 239.78 229.354 239.731 229.467C239.682 229.581 239.591 229.671 239.478 229.72C239.365 229.769 239.237 229.774 239.121 229.733C239.004 229.691 238.908 229.608 238.851 229.498Z" fill="black"/>
<path d="M230.842 215.019L226.156 208.175C226.101 208.066 226.087 207.941 226.117 207.823C226.148 207.706 226.22 207.603 226.321 207.535C226.422 207.467 226.544 207.438 226.665 207.453C226.786 207.469 226.897 207.528 226.977 207.62L231.685 214.508C231.751 214.616 231.773 214.746 231.747 214.87C231.72 214.994 231.647 215.103 231.542 215.174C231.437 215.245 231.309 215.273 231.184 215.253C231.059 215.232 230.946 215.164 230.87 215.063L230.842 215.019Z" fill="black"/>
<path d="M221.314 201.407L216.555 194.58C216.508 194.526 216.474 194.464 216.453 194.396C216.433 194.328 216.427 194.257 216.436 194.187C216.445 194.117 216.469 194.049 216.506 193.989C216.543 193.929 216.593 193.877 216.651 193.837C216.71 193.798 216.776 193.771 216.846 193.759C216.916 193.747 216.987 193.75 217.056 193.768C217.124 193.786 217.188 193.818 217.243 193.862C217.299 193.906 217.344 193.962 217.376 194.025L222.101 200.83C222.151 200.883 222.188 200.945 222.211 201.014C222.234 201.082 222.241 201.155 222.234 201.227C222.226 201.298 222.202 201.367 222.165 201.429C222.128 201.491 222.078 201.544 222.018 201.585C221.959 201.625 221.891 201.652 221.82 201.664C221.748 201.676 221.676 201.673 221.606 201.654C221.536 201.635 221.472 201.601 221.416 201.554C221.361 201.508 221.317 201.45 221.286 201.385L221.314 201.407Z" fill="black"/>
<path d="M212.023 187.559C210.586 185.18 209.216 182.745 207.968 180.249C207.909 180.129 207.9 179.989 207.943 179.862C207.986 179.735 208.078 179.63 208.199 179.57C208.319 179.51 208.459 179.501 208.586 179.544C208.713 179.588 208.818 179.68 208.878 179.8C210.109 182.263 211.463 184.675 212.888 187.038C212.957 187.153 212.978 187.29 212.946 187.42C212.913 187.55 212.831 187.662 212.716 187.731C212.601 187.8 212.464 187.821 212.334 187.789C212.204 187.757 212.092 187.674 212.023 187.559Z" fill="black"/>
<path d="M204.657 172.556C203.706 169.914 202.999 167.19 202.544 164.419C202.523 164.284 202.556 164.146 202.637 164.035C202.718 163.924 202.839 163.85 202.974 163.829C203.11 163.807 203.248 163.841 203.359 163.921C203.469 164.002 203.544 164.123 203.565 164.258C204.003 166.973 204.692 169.641 205.623 172.228C205.668 172.356 205.661 172.497 205.603 172.62C205.545 172.743 205.44 172.837 205.312 172.883C205.184 172.928 205.043 172.921 204.92 172.863C204.798 172.805 204.703 172.7 204.657 172.572V172.556Z" fill="black"/>
<path d="M202.405 155.95C202.686 154.517 203.252 153.155 204.069 151.946C204.911 150.748 205.994 149.74 207.247 148.984C207.365 148.91 207.507 148.886 207.642 148.918C207.777 148.949 207.895 149.033 207.968 149.15C208.042 149.268 208.066 149.41 208.034 149.545C208.003 149.68 207.92 149.798 207.802 149.871C206.671 150.551 205.694 151.46 204.934 152.539C204.189 153.631 203.674 154.863 203.42 156.161C203.392 156.295 203.312 156.413 203.197 156.489C203.082 156.564 202.942 156.591 202.807 156.563C202.673 156.535 202.555 156.455 202.479 156.34C202.404 156.225 202.377 156.085 202.405 155.95Z" fill="black"/>
<path d="M215.384 146.551C218.179 146.293 220.992 146.293 223.787 146.551C223.919 146.57 224.039 146.639 224.123 146.744C224.206 146.848 224.247 146.981 224.236 147.114C224.225 147.247 224.165 147.372 224.066 147.462C223.967 147.552 223.837 147.601 223.704 147.599C220.972 147.343 218.223 147.334 215.489 147.571C215.353 147.582 215.219 147.54 215.114 147.452C215.009 147.365 214.942 147.24 214.928 147.104C214.915 146.969 214.955 146.833 215.04 146.726C215.125 146.62 215.249 146.551 215.384 146.534V146.551Z" fill="black"/>
<path d="M232.084 147.704L240.248 149.479C240.334 149.472 240.421 149.486 240.501 149.519C240.581 149.551 240.653 149.602 240.71 149.668C240.766 149.733 240.807 149.811 240.829 149.894C240.85 149.978 240.852 150.066 240.833 150.151C240.814 150.235 240.776 150.314 240.722 150.381C240.667 150.449 240.598 150.502 240.519 150.538C240.44 150.573 240.354 150.59 240.267 150.586C240.181 150.582 240.096 150.558 240.021 150.516H239.993L231.896 148.752H231.862C231.794 148.739 231.729 148.711 231.672 148.672C231.615 148.633 231.565 148.583 231.528 148.524C231.49 148.466 231.464 148.4 231.452 148.332C231.44 148.264 231.442 148.193 231.457 148.126C231.489 147.989 231.572 147.87 231.688 147.792C231.804 147.713 231.946 147.682 232.084 147.704Z" fill="black"/>
<path d="M248.295 151.618C249.632 151.979 250.957 152.345 252.294 152.694L256.337 153.698C256.473 153.736 256.589 153.824 256.662 153.945C256.736 154.065 256.76 154.209 256.731 154.347C256.693 154.483 256.605 154.599 256.484 154.672C256.364 154.745 256.22 154.77 256.082 154.741L252.05 153.742C250.708 153.393 249.36 153.016 248.018 152.633C247.914 152.571 247.833 152.477 247.787 152.365C247.741 152.253 247.734 152.129 247.765 152.012C247.797 151.895 247.865 151.792 247.961 151.718C248.057 151.644 248.174 151.603 248.295 151.602V151.618Z" fill="black"/>
<path d="M264.392 155.822L272.412 158.074C272.527 158.131 272.618 158.227 272.67 158.345C272.722 158.463 272.731 158.595 272.697 158.719C272.662 158.843 272.585 158.951 272.48 159.024C272.374 159.098 272.246 159.132 272.118 159.122L264.12 156.864C264.037 156.861 263.956 156.838 263.883 156.798C263.809 156.759 263.746 156.703 263.697 156.636C263.648 156.568 263.615 156.491 263.601 156.409C263.586 156.327 263.59 156.243 263.612 156.163C263.634 156.082 263.674 156.008 263.729 155.946C263.784 155.883 263.852 155.833 263.928 155.801C264.005 155.768 264.088 155.753 264.171 155.756C264.254 155.76 264.335 155.782 264.409 155.822H264.392Z" fill="black"/>
<path d="M280.397 160.403L288.378 162.766C288.517 162.81 288.634 162.906 288.702 163.035C288.771 163.164 288.786 163.314 288.744 163.454C288.701 163.592 288.605 163.707 288.477 163.776C288.35 163.844 288.201 163.86 288.062 163.82L280.092 161.452C279.976 161.394 279.883 161.297 279.831 161.178C279.779 161.059 279.77 160.925 279.806 160.8C279.843 160.675 279.922 160.567 280.03 160.495C280.138 160.422 280.268 160.39 280.397 160.403Z" fill="black"/>
</svg>
