<svg width="37" height="40" viewBox="0 0 37 40" fill="none" xmlns="http://www.w3.org/2000/svg">
<path d="M30.288 6.16089H0.999878V35.449H30.288V6.16089Z" fill="#F1EFED"/>
<path d="M30.288 6.16089V35.449L33.3389 38.4999V9.21174L30.288 6.16089Z" fill="#5869DD"/>
<path d="M30.288 35.449H0.999878L4.05073 38.4999H33.3389L30.288 35.449Z" fill="black"/>
<path d="M0.999878 6.16089V5.55072H0.389708V6.16089H0.999878ZM30.288 6.16089L30.7195 5.72943L30.5408 5.55072H30.288V6.16089ZM0.999878 35.449H0.389708V35.7018L0.568423 35.8805L0.999878 35.449ZM33.3389 9.21174H33.949V8.959L33.7703 8.78028L33.3389 9.21174ZM33.3389 38.4999V39.11H33.949V38.4999H33.3389ZM4.05073 38.4999L3.61927 38.9313L3.79798 39.11H4.05073V38.4999ZM0.999878 6.77106H30.288V5.55072H0.999878V6.77106ZM29.6778 6.16089V35.449H30.8982V6.16089H29.6778ZM30.288 34.8389H0.999878V36.0592H30.288V34.8389ZM1.61005 35.449V6.16089H0.389708V35.449H1.61005ZM32.7287 9.21174V38.4999H33.949V9.21174H32.7287ZM33.3389 37.8897H4.05073V39.11H33.3389V37.8897ZM4.48218 38.0684L1.43133 35.0176L0.568423 35.8805L3.61927 38.9313L4.48218 38.0684ZM29.8566 35.8805L32.9074 38.9313L33.7703 38.0684L30.7195 35.0176L29.8566 35.8805ZM29.8566 6.59234L32.9074 9.64319L33.7703 8.78028L30.7195 5.72943L29.8566 6.59234Z" fill="black"/>
<path d="M6.49152 17.7542L7.10169 19.5847C9.54236 24.6695 15.0339 29.6525 18.6949 23.2457C22.9245 15.844 30.0847 9.41522 34.5593 6.16098V4.02539" stroke="black" stroke-width="3.66102"/>
<path fill-rule="evenodd" clip-rule="evenodd" d="M27.2307 11.8371C23.8438 15.2841 20.7251 19.1615 19.1512 22.7591C18.2057 24.92 16.8702 26.5153 14.9836 26.9591C13.1165 27.3984 11.424 26.5382 10.1757 25.5508C7.66984 23.5684 5.4788 19.9263 4.23065 17.3259L7.53114 15.7417C8.72367 18.2261 10.6208 21.2348 12.4471 22.6796C13.365 23.4057 13.8996 23.4532 14.1452 23.3954C14.3712 23.3422 15.034 23.0358 15.7971 21.2917C17.6401 17.079 21.1316 12.8208 24.6193 9.27124C28.1322 5.69598 31.7792 2.70184 34.0924 1.01953L36.2457 3.98033C34.0843 5.55226 30.5923 8.41574 27.2307 11.8371Z" fill="url(#paint0_linear_3647_11112)" stroke="black" stroke-width="0.610169"/>
<defs>
<linearGradient id="paint0_linear_3647_11112" x1="5.8809" y1="13.8724" x2="35.169" y2="22.9406" gradientUnits="userSpaceOnUse">
<stop stop-color="#D6FFBB"/>
<stop offset="1" stop-color="#5869DD"/>
</linearGradient>
</defs>
</svg>
