<svg width="267" height="284" viewBox="0 0 267 284" fill="none" xmlns="http://www.w3.org/2000/svg">
<path fill-rule="evenodd" clip-rule="evenodd" d="M162.248 146.868L152.385 161.569L253.705 222.579L254.816 220.922C258.493 215.442 256.961 208.012 251.416 204.432L162.248 146.868Z" fill="url(#paint0_linear_9855_42118)"/>
<path d="M152.385 161.569L242.874 224.614C246.418 227.083 251.298 226.166 253.705 222.579V222.579L152.385 161.569Z" fill="black"/>
<path d="M152.385 161.569L162.248 146.868L251.416 204.432C256.961 208.012 258.493 215.442 254.816 220.922L253.705 222.579M152.385 161.569L242.874 224.614C246.418 227.083 251.298 226.166 253.705 222.579V222.579M152.385 161.569L253.705 222.579" stroke="black" stroke-width="1.5"/>
<rect x="161.198" y="171.371" width="24.16" height="4.05422" rx="2.02711" transform="rotate(-56.1448 161.198 171.371)" fill="url(#paint1_linear_9855_42118)" stroke="black" stroke-width="1.5"/>
<rect x="166.659" y="175.035" width="24.16" height="4.05422" rx="2.02711" transform="rotate(-56.1448 166.659 175.035)" fill="url(#paint2_linear_9855_42118)" stroke="black" stroke-width="1.5"/>
<rect x="172.12" y="178.697" width="24.16" height="4.05422" rx="2.02711" transform="rotate(-56.1448 172.12 178.697)" fill="url(#paint3_linear_9855_42118)" stroke="black" stroke-width="1.5"/>
<rect x="177.581" y="182.359" width="24.16" height="4.05422" rx="2.02711" transform="rotate(-56.1448 177.581 182.359)" fill="url(#paint4_linear_9855_42118)" stroke="black" stroke-width="1.5"/>
<path d="M107.115 186.834C145.26 186.205 175.673 154.773 175.045 116.629C174.471 81.8165 148.242 53.4441 114.668 49.2296L113.071 52.5277C130.762 54.4583 147.033 63.5655 157.925 77.6687C162.822 84.0097 166.632 91.3606 168.995 99.5232C179.07 134.327 159.023 170.709 124.219 180.784C100.26 187.72 75.5534 180.381 59.1956 163.78L57.6002 167.074C70.3339 179.566 87.8702 187.151 107.115 186.834Z" fill="black"/>
<path fill-rule="evenodd" clip-rule="evenodd" d="M114.668 49.2296C111.454 48.8262 108.172 48.6441 104.839 48.699C66.6946 49.3274 36.2816 80.7593 36.91 118.904C37.2213 137.804 45.0949 154.806 57.6002 167.074L59.1956 163.78C51.7915 156.265 46.098 146.853 42.9586 136.009C41.4484 130.792 40.615 125.539 40.4066 120.346C39.2247 90.889 58.147 63.3127 87.7341 54.7478C96.2206 52.2911 104.801 51.6253 113.071 52.5277L114.668 49.2296Z" fill="url(#paint5_linear_9855_42118)"/>
<path fill-rule="evenodd" clip-rule="evenodd" d="M124.219 180.784C159.023 170.709 179.07 134.327 168.995 99.5232C166.632 91.3606 162.822 84.0097 157.925 77.6687C147.033 63.5655 130.762 54.4583 113.071 52.5277C104.801 51.6253 96.2206 52.2911 87.7341 54.7478C58.147 63.3127 39.2247 90.889 40.4066 120.346C40.615 125.539 41.4484 130.792 42.9586 136.009C46.098 146.853 51.7915 156.265 59.1956 163.78C75.5534 180.381 100.26 187.72 124.219 180.784ZM136.37 166.313C163.18 149.527 171.307 114.185 154.521 87.3743C146.408 74.4166 133.961 65.8232 120.237 62.2973C116.619 61.3677 112.912 60.7903 109.172 60.5781C103.841 60.2755 98.444 60.715 93.1426 61.9337C90.1145 62.6299 87.1177 63.5803 84.1825 64.7919C81.2438 66.0049 78.3669 67.4797 75.582 69.2233C72.7971 70.9669 70.2138 72.9108 67.8391 75.0245C54.5276 86.8727 47.7698 104.058 48.7953 121.233C49.1727 127.554 50.6043 133.874 53.1516 139.926C54.3352 142.738 55.7596 145.492 57.431 148.162C59.1349 150.883 61.03 153.412 63.0879 155.742C67.3933 160.617 72.4116 164.62 77.8833 167.692C95.562 177.62 117.974 177.83 136.37 166.313Z" fill="url(#paint6_linear_9855_42118)"/>
<path d="M114.668 49.2296C111.454 48.8262 108.172 48.6441 104.839 48.699C66.6946 49.3274 36.2816 80.7593 36.91 118.904C37.2213 137.804 45.0949 154.806 57.6002 167.074M114.668 49.2296C148.242 53.4441 174.471 81.8165 175.045 116.629C175.673 154.773 145.26 186.205 107.115 186.834C87.8702 187.151 70.3339 179.566 57.6002 167.074M114.668 49.2296L113.071 52.5277M57.6002 167.074L59.1956 163.78M59.1956 163.78C75.5534 180.381 100.26 187.72 124.219 180.784C159.023 170.709 179.07 134.327 168.995 99.5232C166.632 91.3606 162.822 84.0097 157.925 77.6687C147.033 63.5655 130.762 54.4583 113.071 52.5277M59.1956 163.78C51.7915 156.265 46.098 146.853 42.9586 136.009C41.4484 130.792 40.615 125.539 40.4066 120.346C39.2247 90.889 58.147 63.3127 87.7341 54.7478C96.2206 52.2911 104.801 51.6253 113.071 52.5277M154.521 87.3743C171.307 114.185 163.18 149.527 136.37 166.313C117.974 177.83 95.562 177.62 77.8833 167.692C72.4116 164.62 67.3933 160.617 63.0879 155.742C61.03 153.412 59.1349 150.883 57.431 148.162C55.7596 145.492 54.3352 142.738 53.1516 139.926C50.6043 133.874 49.1727 127.554 48.7953 121.233C47.7698 104.058 54.5276 86.8727 67.8391 75.0245C70.2138 72.9108 72.7971 70.9669 75.582 69.2233C78.3669 67.4797 81.2438 66.0049 84.1825 64.7919C87.1177 63.5803 90.1145 62.6299 93.1426 61.9337C98.444 60.715 103.841 60.2755 109.172 60.5781C112.912 60.7903 116.619 61.3677 120.237 62.2973C133.961 65.8232 146.408 74.4166 154.521 87.3743Z" stroke="black" stroke-width="1.5"/>
<defs>
<linearGradient id="paint0_linear_9855_42118" x1="200.275" y1="196.203" x2="212.458" y2="178.043" gradientUnits="userSpaceOnUse">
<stop stop-color="#D6FFBB"/>
<stop offset="1" stop-color="#5869DD"/>
</linearGradient>
<linearGradient id="paint1_linear_9855_42118" x1="161.198" y1="173.398" x2="185.358" y2="173.398" gradientUnits="userSpaceOnUse">
<stop stop-color="#D6FFBB"/>
<stop offset="1" stop-color="#5869DD"/>
</linearGradient>
<linearGradient id="paint2_linear_9855_42118" x1="166.659" y1="177.062" x2="190.819" y2="177.062" gradientUnits="userSpaceOnUse">
<stop stop-color="#D6FFBB"/>
<stop offset="1" stop-color="#5869DD"/>
</linearGradient>
<linearGradient id="paint3_linear_9855_42118" x1="172.12" y1="180.724" x2="196.28" y2="180.724" gradientUnits="userSpaceOnUse">
<stop stop-color="#D6FFBB"/>
<stop offset="1" stop-color="#5869DD"/>
</linearGradient>
<linearGradient id="paint4_linear_9855_42118" x1="177.581" y1="184.386" x2="201.741" y2="184.386" gradientUnits="userSpaceOnUse">
<stop stop-color="#D6FFBB"/>
<stop offset="1" stop-color="#5869DD"/>
</linearGradient>
<linearGradient id="paint5_linear_9855_42118" x1="36.9004" y1="117.766" x2="132.573" y2="58.4402" gradientUnits="userSpaceOnUse">
<stop stop-color="#D6FFBB"/>
<stop offset="1" stop-color="#5869DD"/>
</linearGradient>
<linearGradient id="paint6_linear_9855_42118" x1="36.9004" y1="117.766" x2="252.455" y2="48.4221" gradientUnits="userSpaceOnUse">
<stop stop-color="#D6FFBB"/>
<stop offset="1" stop-color="#5869DD"/>
</linearGradient>
</defs>
</svg>
