<svg width="60" height="60" viewBox="0 0 60 60" fill="none" xmlns="http://www.w3.org/2000/svg">
<path d="M44.5139 29.9982C44.5139 21.9942 38.0021 15.4824 29.9982 15.4824C21.9942 15.4824 15.4824 21.9942 15.4824 29.9982C15.4824 38.0021 21.9942 44.5139 29.9982 44.5139C38.0021 44.5139 44.5139 38.0021 44.5139 29.9982ZM18.3856 29.9982C18.3856 23.5851 23.5851 18.3856 29.9982 18.3856C36.4112 18.3856 41.6108 23.5851 41.6108 29.9982C41.6108 36.4112 36.4112 41.6108 29.9982 41.6108C23.5851 41.6108 18.3856 36.4112 18.3856 29.9982Z" fill="#8F8E93"/>
<path d="M56.0737 33.0732L57.6694 31.1088C57.924 30.7952 58.0643 30.4023 58.0643 29.9998C58.0643 29.5972 57.924 29.2043 57.6714 28.8917L56.0746 26.9263C51.2612 21.0019 44.7011 16.9763 37.4268 15.3398C42.7724 18.0591 46.4517 23.6022 46.4517 29.9998C46.4517 36.3973 42.7724 41.9404 37.4268 44.6597C44.7001 43.0223 51.2603 38.9976 56.0737 33.0732Z" fill="#8F8E93"/>
<path d="M13.5481 29.9998C13.5481 23.6022 17.2274 18.0591 22.5731 15.3398C15.2997 16.9772 8.73956 21.0029 3.92614 26.9263L2.33038 28.8908C2.07587 29.2043 1.93555 29.5972 1.93555 29.9998C1.93555 30.4023 2.07587 30.7952 2.32844 31.1078L3.92517 33.0732C8.73859 38.9976 15.2987 43.0233 22.5721 44.6597C17.2274 41.9404 13.5481 36.3973 13.5481 29.9998Z" fill="#8F8E93"/>
<path d="M30.0006 35.806C33.2074 35.806 35.8069 33.2064 35.8069 29.9997C35.8069 26.7929 33.2074 24.1934 30.0006 24.1934C26.7939 24.1934 24.1943 26.7929 24.1943 29.9997C24.1943 33.2064 26.7939 35.806 30.0006 35.806Z" fill="#8F8E93"/>
<path d="M33.871 39.6756C34.9399 39.6756 35.8064 38.809 35.8064 37.7401C35.8064 36.6712 34.9399 35.8047 33.871 35.8047C32.8021 35.8047 31.9355 36.6712 31.9355 37.7401C31.9355 38.809 32.8021 39.6756 33.871 39.6756Z" fill="#8F8E93"/>
<path d="M22.2557 28.0642C23.3247 28.0642 24.1912 27.1977 24.1912 26.1288C24.1912 25.0599 23.3247 24.1934 22.2557 24.1934C21.1868 24.1934 20.3203 25.0599 20.3203 26.1288C20.3203 27.1977 21.1868 28.0642 22.2557 28.0642Z" fill="#8F8E93"/>
<path d="M58.0641 52.2558H56.1287V58.0621H54.1933V54.1912H52.2579V58.0621H50.3224V48.3849H48.387V58.0621H47.187L44.5345 48.5107C50.3398 46.2085 55.5791 42.5341 59.7635 37.7052L58.3003 36.4375C51.1895 44.6457 40.8736 49.3526 30.0004 49.3526C19.1281 49.3526 8.81224 44.6457 1.70049 36.4394L0.237305 37.7071C7.71775 46.3382 18.5658 51.2881 30.0004 51.2881C34.3754 51.2881 38.6624 50.5574 42.7104 49.1794L45.7161 59.9975H59.9996V58.0621H58.0641V52.2558Z" fill="#8F8E93"/>
<path d="M13.8558 12.17C8.69203 14.4877 4.02957 17.9134 0.236123 22.2913L1.69931 23.559C8.81009 15.3518 19.1259 10.6449 29.9992 10.6449C40.8715 10.6449 51.1873 15.3518 58.2991 23.5581L59.7623 22.2904C52.2818 13.6593 41.4337 8.70944 29.9992 8.70944C25.0251 8.70944 20.1624 9.64813 15.6393 11.4171L14.2099 7.74173H11.6126V0H9.67716V7.74173H7.74173V3.87086H5.8063V7.74076H3.87086V1.93543H1.93543V7.74076H0V9.67619L12.8861 9.67716L13.8558 12.17Z" fill="#8F8E93"/>
<path d="M1.93555 50.3203H13.5481V52.2557H1.93555V50.3203Z" fill="#8F8E93"/>
<path d="M1.93555 54.1914H13.5481V56.1268H1.93555V54.1914Z" fill="#8F8E93"/>
<path d="M1.93555 58.0625H13.5481V59.9979H1.93555V58.0625Z" fill="#8F8E93"/>
<path d="M57.0946 7.74184C58.6979 7.74184 59.9977 6.44206 59.9977 4.8387C59.9977 3.23533 58.6979 1.93555 57.0946 1.93555C55.4912 1.93555 54.1914 3.23533 54.1914 4.8387C54.1914 6.44206 55.4912 7.74184 57.0946 7.74184Z" fill="#8F8E93"/>
<path d="M49.3533 7.74184C50.9567 7.74184 52.2565 6.44206 52.2565 4.8387C52.2565 3.23533 50.9567 1.93555 49.3533 1.93555C47.75 1.93555 46.4502 3.23533 46.4502 4.8387C46.4502 6.44206 47.75 7.74184 49.3533 7.74184Z" fill="#8F8E93"/>
<path d="M41.6121 7.74184C43.2155 7.74184 44.5153 6.44206 44.5153 4.8387C44.5153 3.23533 43.2155 1.93555 41.6121 1.93555C40.0088 1.93555 38.709 3.23533 38.709 4.8387C38.709 6.44206 40.0088 7.74184 41.6121 7.74184Z" fill="#8F8E93"/>
</svg>
