<svg width="60" height="60" viewBox="0 0 60 60" fill="none" xmlns="http://www.w3.org/2000/svg">
<path d="M48.5592 31.034H53.7819C53.8426 31.0277 53.9025 31.0156 53.9609 30.9979C54.4492 32.4352 55.906 33.308 57.4037 33.0605C58.9014 32.813 60 31.5181 60 30C60 28.482 58.9014 27.187 57.4037 26.9396C55.906 26.6921 54.4492 27.5649 53.9609 29.0022C53.9025 28.9845 53.8426 28.9724 53.7819 28.9661H48.5592C48.3188 24.5463 46.5034 20.3588 43.442 17.1619V10.3541C43.442 9.212 44.3679 8.28608 45.51 8.28608H51.714C51.7747 8.27982 51.8346 8.2677 51.8929 8.24993C52.3812 9.68727 53.838 10.5601 55.3357 10.3126C56.8334 10.0651 57.932 8.77014 57.932 7.25213C57.932 5.73411 56.8334 4.43904 55.3357 4.19166C53.838 3.94418 52.3811 4.81698 51.8929 6.25432C51.8346 6.23655 51.7747 6.22443 51.714 6.21817H45.51C43.2257 6.21817 41.374 8.0699 41.374 10.3542V15.3008C38.4006 12.9916 34.7932 11.6449 31.034 11.4409V6.21797C31.0277 6.15728 31.0156 6.09741 30.9979 6.03905C32.4352 5.55074 33.308 4.09392 33.0605 2.5962C32.813 1.09858 31.518 0 29.9999 0C28.4819 0 27.1869 1.09858 26.9395 2.5963C26.692 4.09402 27.5648 5.55085 29.0021 6.03915C28.9844 6.09751 28.9723 6.15738 28.966 6.21807V11.4408C25.2068 11.6448 21.5994 12.9914 18.626 15.3007V10.3541C18.626 8.0698 16.7743 6.21807 14.49 6.21807H8.28598C8.2253 6.22433 8.16542 6.23645 8.10706 6.25422C7.61876 4.81688 6.16193 3.94407 4.66421 4.19156C3.16649 4.43904 2.06791 5.73401 2.06791 7.25202C2.06791 8.77004 3.16649 10.0651 4.66421 10.3125C6.16193 10.5599 7.61876 9.68717 8.10706 8.24983C8.16542 8.2676 8.2253 8.27972 8.28598 8.28598H14.49C15.0385 8.28598 15.5645 8.50388 15.9523 8.89171C16.3401 9.27955 16.558 9.80551 16.558 10.354V17.1618C13.4965 20.3586 11.6812 24.5461 11.4408 28.966H6.21797C6.15728 28.9723 6.09741 28.9844 6.03905 29.0021C5.55074 27.5648 4.09392 26.692 2.5962 26.9395C1.09858 27.187 0 28.4819 0 29.9999C0 31.518 1.09858 32.813 2.5963 33.0604C4.09402 33.3079 5.55085 32.4351 6.03915 30.9978C6.09751 31.0155 6.15738 31.0276 6.21807 31.0339H11.4408C11.6812 35.4537 13.4965 39.6412 16.558 42.8381V49.6459C16.558 50.788 15.6321 51.7139 14.49 51.7139H8.28598C8.2253 51.7202 8.16542 51.7323 8.10706 51.7501C7.61876 50.3127 6.16193 49.4399 4.66421 49.6874C3.16649 49.9349 2.06791 51.2299 2.06791 52.7479C2.06791 54.2659 3.16649 55.561 4.66421 55.8083C6.16193 56.0557 7.61876 55.183 8.10706 53.7457C8.16542 53.7634 8.2253 53.7756 8.28598 53.7818H14.49C15.587 53.7818 16.639 53.346 17.4146 52.5705C18.1902 51.7948 18.6259 50.7428 18.6259 49.6459V44.6993C21.5993 47.0085 25.2067 48.3552 28.9659 48.5592V53.7819C28.9722 53.8426 28.9843 53.9025 29.002 53.9609C27.5647 54.4492 26.6919 55.906 26.9394 57.4037C27.1869 58.9014 28.4818 60 29.9998 60C31.5179 60 32.8129 58.9014 33.0603 57.4037C33.3078 55.906 32.435 54.4492 30.9977 53.9609C31.0154 53.9025 31.0275 53.8426 31.0338 53.7819V48.5592C34.793 48.3552 38.4004 47.0086 41.3738 44.6993V49.6459C41.3738 51.9302 43.2255 53.7819 45.5098 53.7819H51.7138C51.7745 53.7757 51.8344 53.7636 51.8927 53.7458C52.381 55.1831 53.8378 56.0559 55.3355 55.8084C56.8332 55.561 57.9318 54.266 57.9318 52.748C57.9318 51.23 56.8332 49.9349 55.3355 49.6875C53.8378 49.44 52.3809 50.3128 51.8927 51.7502C51.8344 51.7324 51.7745 51.7203 51.7138 51.714H45.5098C44.3677 51.714 43.4418 50.7881 43.4418 49.646V42.8382C46.5034 39.6413 48.3188 35.4538 48.5592 31.034ZM29.9999 13.456C36.2786 13.4633 41.3665 18.5513 41.374 24.83V27.9319C41.374 28.503 41.8369 28.9659 42.4079 28.9659C42.979 28.9659 43.4419 29.4288 43.4419 29.9998C43.4419 30.5708 42.9789 31.0338 42.4079 31.0338C40.6947 31.0338 39.3059 29.645 39.3059 27.9318V24.8299C39.3003 19.6927 35.1371 15.5296 29.9999 15.5239C25.2212 15.5475 21.219 19.1494 20.6939 23.8992C20.6368 24.4674 20.1299 24.8818 19.5617 24.8246C18.9936 24.7675 18.5792 24.2606 18.6363 23.6924C19.2148 17.8591 24.1379 13.4242 29.9999 13.456ZM18.626 27.9319C18.626 27.3608 19.089 26.898 19.66 26.898H20.848C21.9046 26.8969 22.7608 26.0406 22.762 24.9841V24.83C22.762 20.8326 26.0026 17.592 29.9999 17.592C33.9973 17.592 37.2379 20.8326 37.2379 24.83V27.9319C37.2379 30.7872 39.5526 33.1019 42.4079 33.1019C42.979 33.1019 43.4419 33.5649 43.4419 34.1359C43.4419 34.707 42.9789 35.1698 42.4079 35.1698C38.4121 35.1658 35.174 31.9276 35.1699 27.9318V24.8299C35.1699 21.9746 32.8552 19.6599 29.9999 19.6599C27.1447 19.6599 24.83 21.9746 24.83 24.8299V24.984C24.8271 27.1819 23.046 28.9631 20.848 28.9659H19.66C19.0889 28.966 18.626 28.503 18.626 27.9319ZM20.6939 36.204C20.6939 35.6329 21.1569 35.17 21.7279 35.17C26.8596 35.17 31.0339 30.5315 31.0339 24.8301C31.0341 24.5239 30.8986 24.2333 30.6638 24.0367C30.4291 23.8401 30.1193 23.7576 29.8179 23.8116C29.3003 23.941 28.9446 24.4159 28.9659 24.9489C28.9272 29.4821 25.2272 33.129 20.6939 33.102C20.1228 33.102 19.66 32.6391 19.66 32.0681C19.66 31.497 20.1229 31.0341 20.6939 31.0341C24.0864 31.0623 26.8615 28.3394 26.898 24.947C26.8786 23.4025 27.9668 22.0654 29.483 21.7705C30.3834 21.6183 31.3052 21.8707 32.0026 22.4603C32.7 23.0498 33.1022 23.9169 33.1019 24.8301C33.1019 31.672 27.9992 37.238 21.7279 37.238C21.1569 37.2379 20.6939 36.775 20.6939 36.204ZM35.1399 44.7241C35.0742 44.9904 34.9053 45.2197 34.6704 45.3615C34.4356 45.5032 34.154 45.5458 33.8878 45.48C32.4155 45.1097 31.0627 44.3682 29.9585 43.3262C29.7258 43.1149 29.3909 43.0595 29.1024 43.1845C27.7531 43.7707 26.2999 44.0802 24.8289 44.0945C24.2578 44.0945 23.7949 43.6315 23.7949 43.0605C23.7949 42.4894 24.2579 42.0265 24.8289 42.0265C26.0193 42.0124 27.1949 41.7603 28.2866 41.2852C29.3311 40.8321 30.545 41.0426 31.3761 41.8209C32.2205 42.6203 33.2558 43.1898 34.3829 43.4753C34.9366 43.6116 35.2751 44.1703 35.1399 44.7241ZM38.242 41.6221C38.1279 42.0838 37.7135 42.4081 37.238 42.408C37.1533 42.4083 37.0689 42.3979 36.9868 42.377C34.5777 41.7606 32.4103 40.4324 30.7673 38.5657C28.6194 39.7071 26.2284 40.3157 23.7961 40.3401C23.225 40.3401 22.7622 39.8772 22.7622 39.3062C22.7622 38.7351 23.2251 38.2722 23.7961 38.2722C25.8996 38.2442 27.9667 37.7192 29.8285 36.7398C30.6669 36.2961 31.7003 36.4879 32.3235 37.2031C33.6881 38.7537 35.4877 39.8577 37.4883 40.3713C37.7545 40.4377 37.9834 40.6072 38.1246 40.8424C38.2657 41.0777 38.3076 41.3594 38.2411 41.6256L38.242 41.6221ZM39.3059 38.272C36.5188 38.275 33.8964 36.9526 32.2416 34.7099C31.9267 34.2357 32.0543 33.5962 32.5271 33.2791C32.9998 32.9621 33.6399 33.0868 33.9592 33.558C35.2263 35.2316 37.2068 36.2118 39.3059 36.204C39.877 36.204 40.3399 36.6669 40.3399 37.2379C40.34 37.809 39.877 38.272 39.3059 38.272Z" fill="#8F8E93"/>
</svg>
