<svg width="60" height="60" viewBox="0 0 60 60" fill="none" xmlns="http://www.w3.org/2000/svg">
<path d="M59.2294 24.9119C58.4664 22.4893 57.1746 20.2665 55.4474 18.4043L46.5635 26.1472C47.2915 26.8493 47.8053 27.7435 48.0452 28.726L59.2294 24.9119Z" fill="#8F8E93"/>
<path d="M11.7853 2.14277H22.4991C22.7833 2.14277 23.0558 2.02989 23.2567 1.82897C23.4576 1.62805 23.5705 1.35554 23.5705 1.07139V0H10.7139V1.07139C10.7139 1.35554 10.8267 1.62805 11.0277 1.82897C11.2286 2.02989 11.5011 2.14277 11.7853 2.14277Z" fill="#8F8E93"/>
<path d="M43.9287 12.9121V24.7499C44.1738 24.8064 44.4145 24.8809 44.6487 24.9727L53.9012 16.9084C51.0943 14.5368 47.5966 13.1351 43.9287 12.9121Z" fill="#8F8E93"/>
<path d="M59.9995 29.9991C59.9946 28.9958 59.9013 27.9948 59.7209 27.0078L48.1168 30.9634C47.9241 32.0133 47.4228 32.9818 46.6767 33.7452C45.9307 34.5087 44.9739 35.0322 43.9287 35.2489V47.0877C48.277 46.8136 52.358 44.8948 55.3428 41.7209C58.3277 38.547 59.9926 34.3561 59.9995 29.9991Z" fill="#8F8E93"/>
<path d="M41.7879 49.2839V10.714C41.7879 10.4298 41.675 10.1573 41.4741 9.95638C41.2731 9.75546 41.0006 9.64258 40.7165 9.64258H12.8604C12.5763 9.64258 12.3038 9.75546 12.1029 9.95638C11.9019 10.1573 11.7891 10.4298 11.7891 10.714V49.2839C11.7891 49.568 11.9019 49.8405 12.1029 50.0414C12.3038 50.2424 12.5763 50.3552 12.8604 50.3552H40.7165C41.0006 50.3552 41.2731 50.2424 41.4741 50.0414C41.675 49.8405 41.7879 49.568 41.7879 49.2839ZM25.7171 33.7488C25.7171 35.0274 25.2091 36.2537 24.305 37.1579C23.4008 38.062 22.1745 38.57 20.8958 38.57C19.6172 38.57 18.3909 38.062 17.4867 37.1579C16.5826 36.2537 16.0746 35.0274 16.0746 33.7488V26.2491C16.0746 24.9704 16.5826 23.7441 17.4867 22.8399C18.3909 21.9358 19.6172 21.4278 20.8958 21.4278C22.1745 21.4278 23.4008 21.9358 24.305 22.8399C25.2091 23.7441 25.7171 24.9704 25.7171 26.2491V33.7488ZM32.6811 28.9275C33.9598 28.9275 35.1861 29.4355 36.0902 30.3396C36.9944 31.2438 37.5023 32.4701 37.5023 33.7488C37.5023 35.0274 36.9944 36.2537 36.0902 37.1579C35.1861 38.062 33.9598 38.57 32.6811 38.57H28.9312C28.6471 38.57 28.3746 38.4571 28.1737 38.2562C27.9727 38.0553 27.8599 37.7828 27.8599 37.4986C27.8599 37.2145 27.9727 36.942 28.1737 36.741C28.3746 36.5401 28.6471 36.4272 28.9312 36.4272H32.6811C33.3915 36.4272 34.0727 36.145 34.5751 35.6427C35.0774 35.1404 35.3596 34.4591 35.3596 33.7488C35.3596 33.0384 35.0774 32.3571 34.5751 31.8548C34.0727 31.3525 33.3915 31.0703 32.6811 31.0703C31.4024 31.0703 30.1761 30.5623 29.272 29.6582C28.3678 28.754 27.8599 27.5277 27.8599 26.2491C27.8599 24.9704 28.3678 23.7441 29.272 22.8399C30.1761 21.9358 31.4024 21.4278 32.6811 21.4278H36.4309C36.7151 21.4278 36.9876 21.5407 37.1885 21.7416C37.3894 21.9425 37.5023 22.2151 37.5023 22.4992C37.5023 22.7834 37.3894 23.0559 37.1885 23.2568C36.9876 23.4577 36.7151 23.5706 36.4309 23.5706H32.6811C31.9707 23.5706 31.2894 23.8528 30.7871 24.3551C30.2848 24.8574 30.0026 25.5387 30.0026 26.2491C30.0026 26.9594 30.2848 27.6407 30.7871 28.143C31.2894 28.6453 31.9707 28.9275 32.6811 28.9275Z" fill="#8F8E93"/>
<path d="M20.8894 23.5703C20.179 23.5703 19.4978 23.8525 18.9954 24.3548C18.4931 24.8571 18.2109 25.5384 18.2109 26.2488V33.7485C18.2109 34.4589 18.4931 35.1401 18.9954 35.6424C19.4978 36.1448 20.179 36.4269 20.8894 36.4269C21.5998 36.4269 22.2811 36.1448 22.7834 35.6424C23.2857 35.1401 23.5679 34.4589 23.5679 33.7485V26.2488C23.5679 25.897 23.4986 25.5487 23.364 25.2238C23.2294 24.8988 23.0321 24.6035 22.7834 24.3548C22.5346 24.1061 22.2394 23.9088 21.9144 23.7742C21.5894 23.6396 21.2411 23.5703 20.8894 23.5703Z" fill="#8F8E93"/>
<path d="M3.21416 59.9976H31.0702C31.9226 59.9976 32.7402 59.659 33.3429 59.0562C33.9457 58.4534 34.2844 57.6359 34.2844 56.7835V52.4979H12.8566C12.0042 52.4979 11.1867 52.1593 10.5839 51.5565C9.98111 50.9537 9.64247 50.1362 9.64247 49.2838V10.7139C9.64247 9.86141 9.98111 9.04388 10.5839 8.44111C11.1867 7.83834 12.0042 7.4997 12.8566 7.4997H34.2844V3.21416C34.2844 2.36171 33.9457 1.54418 33.3429 0.941405C32.7402 0.338634 31.9226 0 31.0702 0H25.7133V1.07139C25.7133 1.92383 25.3746 2.74137 24.7719 3.34414C24.1691 3.94691 23.3516 4.28554 22.4991 4.28554H11.7852C10.9328 4.28554 10.1153 3.94691 9.51249 3.34414C8.90972 2.74137 8.57109 1.92383 8.57109 1.07139V0H3.21416C2.36171 0 1.54418 0.338634 0.941405 0.941405C0.338634 1.54418 0 2.36171 0 3.21416V56.7835C0 57.6359 0.338634 58.4534 0.941405 59.0562C1.54418 59.659 2.36171 59.9976 3.21416 59.9976ZM9.64247 55.7121H24.6419C24.926 55.7121 25.1985 55.8249 25.3995 56.0259C25.6004 56.2268 25.7133 56.4993 25.7133 56.7835C25.7133 57.0676 25.6004 57.3401 25.3995 57.541C25.1985 57.742 24.926 57.8548 24.6419 57.8548H9.64247C9.35833 57.8548 9.08581 57.742 8.88489 57.541C8.68397 57.3401 8.57109 57.0676 8.57109 56.7835C8.57109 56.4993 8.68397 56.2268 8.88489 56.0259C9.08581 55.8249 9.35833 55.7121 9.64247 55.7121Z" fill="#8F8E93"/>
</svg>
