<svg width="55" height="66" viewBox="0 0 55 66" fill="none" xmlns="http://www.w3.org/2000/svg">
<path d="M3.42965 28.2383H3.28834C1.47693 28.2383 0 29.7199 0 31.5266V45.8435C0 47.6574 1.47693 49.1342 3.28834 49.1342H3.43205C5.24346 49.1342 6.7204 47.6525 6.7204 45.8435V31.5265C6.71799 29.7199 5.23877 28.2383 3.42965 28.2383Z" fill="#8F8E93"/>
<path fill-rule="evenodd" clip-rule="evenodd" d="M23.5272 27.395H8.2374C8.21152 27.1006 8.19263 26.8037 8.19263 26.5022C8.19263 21.5981 11.3137 17.3228 15.9423 15.0544L13.3748 11.0948C13.2099 10.845 13.283 10.5034 13.535 10.341C13.7871 10.1761 14.131 10.2444 14.2935 10.5011L16.9482 14.5975C18.948 13.7801 21.1716 13.3208 23.5272 13.3208V27.395ZM14.9648 20.6747C14.9648 21.4896 15.6243 22.1445 16.437 22.1445C17.2497 22.1445 17.9093 21.4897 17.9093 20.6747C17.9093 19.8596 17.2544 19.2071 16.437 19.2071C15.6243 19.2071 14.9648 19.8597 14.9648 20.6747Z" fill="#8F8E93"/>
<path fill-rule="evenodd" clip-rule="evenodd" d="M11.3141 54.387C9.65108 54.387 8.29198 53.0326 8.29198 51.3696V28.7635H23.5272V54.387H21.2663V62.1203C21.2663 63.9341 19.787 65.4133 17.9732 65.4133H17.8319C16.0252 65.4133 14.5436 63.9364 14.5436 62.1203V54.387H11.3141Z" fill="#8F8E93"/>
<path fill-rule="evenodd" clip-rule="evenodd" d="M53.4644 18.6261C52.5549 19.2279 47.7678 22.3951 47.7678 28.892C47.7678 36.9605 54.7898 39.8149 55 39.8855C54.9677 40.0595 53.8845 43.7947 51.2977 47.6006C48.9911 50.9497 46.5822 54.2935 42.9176 54.2935C41.151 54.2935 40.0169 53.7944 38.8421 53.2775C37.5798 52.722 36.2706 52.1459 34.0794 52.1459C31.9115 52.1459 30.4783 52.7593 29.1192 53.3409C28.1911 53.7381 27.2976 54.1205 26.2283 54.2828V13.4299C27.5989 13.677 28.8684 14.1942 30.0275 14.6664C31.2905 15.181 32.4225 15.6421 33.4112 15.6421C34.3057 15.6421 35.4105 15.2005 36.6916 14.6884C38.4592 13.9819 40.5625 13.1411 42.9122 13.1411C44.4481 13.1411 49.9666 13.2825 53.5988 18.5346C53.5774 18.5514 53.5314 18.5818 53.4644 18.6261ZM40.9883 8.66651C42.6643 6.66028 43.8499 3.87655 43.8499 1.09283C43.8499 0.706805 43.8176 0.315344 43.7475 0C41.0206 0.103302 37.7764 1.83226 35.8201 4.12122C34.2842 5.88279 32.8507 8.66652 32.8507 11.4883C32.8507 11.9124 32.9208 12.3365 32.9531 12.4724C33.1256 12.505 33.4058 12.5431 33.686 12.5431C36.1327 12.5431 39.2099 10.8902 40.9883 8.66651Z" fill="#8F8E93"/>
</svg>
