<svg width="60" height="61" viewBox="0 0 60 61" fill="none" xmlns="http://www.w3.org/2000/svg">
<path d="M48.2791 35.6085L40.1013 30.4973C39.4352 30.081 38.5713 30.5598 38.5713 31.3453V34.042C38.5713 34.3868 38.7489 34.7072 39.0413 34.89L46.0064 39.2432C46.3601 39.4642 46.7536 39.5687 47.1406 39.5687C47.8541 39.5687 48.5531 39.2119 48.959 38.5612C49.5869 37.5577 49.2813 36.2362 48.2791 35.6085Z" fill="#8F8E93"/>
<path d="M57.8567 0.998047H42.8567C41.6734 0.998047 40.7139 1.95655 40.7139 3.1409V24.5695C40.7139 25.7538 41.6734 26.7123 42.8567 26.7123H57.8567C59.04 26.7123 59.9996 25.7538 59.9996 24.5695V3.1409C59.9996 1.95655 59.04 0.998047 57.8567 0.998047ZM53.571 22.4266H47.1424C45.9592 22.4266 44.9996 21.4681 44.9996 20.2838C44.9996 19.0994 45.9592 18.1409 47.1424 18.1409H53.571C54.7543 18.1409 55.7139 19.0994 55.7139 20.2838C55.7139 21.4681 54.7543 22.4266 53.571 22.4266ZM53.571 15.998H47.1424C45.9592 15.998 44.9996 15.0395 44.9996 13.8552C44.9996 12.6708 45.9592 11.7123 47.1424 11.7123H53.571C54.7543 11.7123 55.7139 12.6708 55.7139 13.8552C55.7139 15.0395 54.7543 15.998 53.571 15.998ZM53.571 9.56948H47.1424C45.9592 9.56948 44.9996 8.61098 44.9996 7.42662C44.9996 6.24226 45.9592 5.28376 47.1424 5.28376H53.571C54.7543 5.28376 55.7139 6.24226 55.7139 7.42662C55.7139 8.61098 54.7543 9.56948 53.571 9.56948Z" fill="#8F8E93"/>
<path d="M17.1429 0.998047H2.14286C0.959571 0.998047 0 1.95655 0 3.1409V24.5695C0 25.7538 0.959571 26.7123 2.14286 26.7123H17.1429C18.3261 26.7123 19.2857 25.7538 19.2857 24.5695V3.1409C19.2857 1.95655 18.3261 0.998047 17.1429 0.998047ZM12.8571 22.4266H6.42857C5.24529 22.4266 4.28571 21.4681 4.28571 20.2838C4.28571 19.0994 5.24529 18.1409 6.42857 18.1409H12.8571C14.0404 18.1409 15 19.0994 15 20.2838C15 21.4681 14.0404 22.4266 12.8571 22.4266ZM12.8571 15.998H6.42857C5.24529 15.998 4.28571 15.0395 4.28571 13.8552C4.28571 12.6708 5.24529 11.7123 6.42857 11.7123H12.8571C14.0404 11.7123 15 12.6708 15 13.8552C15 15.0395 14.0404 15.998 12.8571 15.998ZM12.8571 9.56948H6.42857C5.24529 9.56948 4.28571 8.61098 4.28571 7.42662C4.28571 6.24226 5.24529 5.28376 6.42857 5.28376H12.8571C14.0404 5.28376 15 6.24226 15 7.42662C15 8.61098 14.0404 9.56948 12.8571 9.56948Z" fill="#8F8E93"/>
<path d="M28.9282 43.8544L13.9931 35.6085C13.3297 35.1941 12.4948 35.1711 11.8189 35.5519C11.1367 35.9297 10.7139 36.6463 10.7139 37.4258V48.4656C10.7139 49.2043 11.0947 49.8906 11.7204 50.283L28.8632 60.9973" fill="#8F8E93"/>
<path d="M31.0713 43.8544L46.0064 35.6085C46.6698 35.1941 47.5046 35.1711 48.1805 35.5519C48.8628 35.9297 49.2856 36.6463 49.2856 37.4258V48.4656C49.2856 49.2043 48.9048 49.8906 48.2791 50.283L31.1362 60.9973" fill="#8F8E93"/>
<path d="M21.4282 31.3453C21.4282 30.5598 20.5642 30.081 19.8982 30.4972L11.7204 35.6083C10.7179 36.2362 10.4124 37.5577 11.0402 38.5609C11.4463 39.2119 12.1453 39.5687 12.8589 39.5687C13.2461 39.5687 13.6395 39.4642 13.9931 39.2432L20.4881 35.1839C21.0729 34.8185 21.4282 34.1775 21.4282 33.4879V31.3453Z" fill="#8F8E93"/>
<path fill-rule="evenodd" clip-rule="evenodd" d="M16.7744 13.3659C16.7744 12.5544 17.4323 11.8965 18.2438 11.8965H26.0805C26.8921 11.8965 27.5499 12.5544 27.5499 13.3659V38.8353C27.5499 39.6468 26.8921 40.3047 26.0805 40.3047C25.269 40.3047 24.6111 39.6468 24.6111 38.8353V14.8353H18.2438C17.4323 14.8353 16.7744 14.1774 16.7744 13.3659Z" fill="#8F8E93"/>
<path fill-rule="evenodd" clip-rule="evenodd" d="M43.2256 13.3659C43.2256 12.5544 42.5677 11.8965 41.7562 11.8965H33.9195C33.1079 11.8965 32.4501 12.5544 32.4501 13.3659V38.8353C32.4501 39.6468 33.1079 40.3047 33.9195 40.3047C34.731 40.3047 35.3889 39.6468 35.3889 38.8353V14.8353H41.7562C42.5677 14.8353 43.2256 14.1774 43.2256 13.3659Z" fill="#8F8E93"/>
</svg>
