<svg width="60" height="60" viewBox="0 0 60 60" fill="none" xmlns="http://www.w3.org/2000/svg">
<path d="M57.8706 35H42.9636C41.7876 35 40.834 35.9319 40.834 37.0833V57.9161C40.834 59.0675 41.7876 59.9994 42.9636 59.9994H57.8706C59.0466 59.9994 60.0002 59.0675 60.0002 57.9161V37.0833C60.0002 35.9319 59.0466 35 57.8706 35ZM53.6114 55.8328H47.2227C46.0468 55.8328 45.0931 54.901 45.0931 53.7495C45.0931 52.5981 46.0468 51.6663 47.2227 51.6663H53.6114C54.7874 51.6663 55.741 52.5981 55.741 53.7495C55.741 54.901 54.7874 55.8328 53.6114 55.8328ZM53.6114 49.583H47.2227C46.0468 49.583 45.0931 48.6511 45.0931 47.4997C45.0931 46.3483 46.0468 45.4164 47.2227 45.4164H53.6114C54.7874 45.4164 55.741 46.3483 55.741 47.4997C55.741 48.6511 54.7874 49.583 53.6114 49.583ZM53.6114 43.3331H47.2227C46.0468 43.3331 45.0931 42.4013 45.0931 41.2498C45.0931 40.0984 46.0468 39.1666 47.2227 39.1666H53.6114C54.7874 39.1666 55.741 40.0984 55.741 41.2498C55.741 42.4013 54.7874 43.3331 53.6114 43.3331Z" fill="#8F8E93"/>
<path d="M17.0366 0H2.12958C0.953624 0 0 0.931852 0 2.08328V22.9161C0 24.0675 0.953624 24.9994 2.12958 24.9994H17.0366C18.2126 24.9994 19.1662 24.0675 19.1662 22.9161V2.08328C19.1662 0.931852 18.2126 0 17.0366 0ZM12.7775 20.8328H6.38873C5.21278 20.8328 4.25915 19.901 4.25915 18.7495C4.25915 17.5981 5.21278 16.6663 6.38873 16.6663H12.7775C13.9534 16.6663 14.907 17.5981 14.907 18.7495C14.907 19.901 13.9534 20.8328 12.7775 20.8328ZM12.7775 14.583H6.38873C5.21278 14.583 4.25915 13.6511 4.25915 12.4997C4.25915 11.3483 5.21278 10.4164 6.38873 10.4164H12.7775C13.9534 10.4164 14.907 11.3483 14.907 12.4997C14.907 13.6511 13.9534 14.583 12.7775 14.583ZM12.7775 8.33313H6.38873C5.21278 8.33313 4.25915 7.40127 4.25915 6.24984C4.25915 5.09841 5.21278 4.16656 6.38873 4.16656H12.7775C13.9534 4.16656 14.907 5.09841 14.907 6.24984C14.907 7.40127 13.9534 8.33313 12.7775 8.33313Z" fill="#8F8E93"/>
<path fill-rule="evenodd" clip-rule="evenodd" d="M28.332 8.78621C27.2287 8.78621 26.1459 8.87033 25.0894 9.03229C24.3875 9.13988 23.7313 8.65814 23.6237 7.95627C23.5162 7.25441 23.9979 6.59821 24.6998 6.49061C25.8847 6.30896 27.0978 6.21484 28.332 6.21484C41.4682 6.21484 52.1171 16.8638 52.1171 30C52.1171 30.71 51.5415 31.2857 50.8314 31.2857C50.1214 31.2857 49.5458 30.71 49.5458 30C49.5458 18.2839 40.048 8.78621 28.332 8.78621ZM5.83256 28.7143C6.54262 28.7143 7.11824 29.2899 7.11824 30C7.11824 41.716 16.616 51.2137 28.332 51.2137C30.0594 51.2137 31.7369 51.0075 33.3419 50.619C34.032 50.452 34.7269 50.876 34.894 51.5661C35.061 52.2563 34.637 52.9512 33.9468 53.1182C32.1452 53.5543 30.2647 53.7851 28.332 53.7851C15.1958 53.7851 4.54688 43.1361 4.54688 30C4.54688 29.2899 5.12249 28.7143 5.83256 28.7143Z" fill="#8F8E93"/>
</svg>
