<svg width="421" height="415" viewBox="0 0 421 415" fill="none" xmlns="http://www.w3.org/2000/svg">
<path d="M44.5139 139.999C44.5139 131.995 38.0021 125.483 29.9982 125.483C21.9942 125.483 15.4824 131.995 15.4824 139.999C15.4824 148.003 21.9942 154.515 29.9982 154.515C38.0021 154.515 44.5139 148.003 44.5139 139.999ZM18.3856 139.999C18.3856 133.586 23.5851 128.387 29.9982 128.387C36.4112 128.387 41.6108 133.586 41.6108 139.999C41.6108 146.412 36.4112 151.612 29.9982 151.612C23.5851 151.612 18.3856 146.412 18.3856 139.999Z" fill="#8F8E93"/>
<path d="M56.0747 143.073L57.6704 141.108C57.9249 140.795 58.0652 140.402 58.0652 139.999C58.0652 139.597 57.9249 139.204 57.6724 138.891L56.0756 136.926C51.2622 131.001 44.7021 126.976 37.4277 125.339C42.7734 128.059 46.4527 133.602 46.4527 139.999C46.4527 146.397 42.7734 151.94 37.4277 154.659C44.7011 153.022 51.2612 148.997 56.0747 143.073Z" fill="#8F8E93"/>
<path d="M13.5481 139.999C13.5481 133.602 17.2274 128.059 22.5731 125.339C15.2997 126.977 8.73956 131.002 3.92614 136.926L2.33038 138.89C2.07587 139.204 1.93555 139.597 1.93555 139.999C1.93555 140.402 2.07587 140.795 2.32844 141.107L3.92517 143.073C8.73859 148.997 15.2987 153.023 22.5721 154.659C17.2274 151.94 13.5481 146.397 13.5481 139.999Z" fill="#8F8E93"/>
<path d="M30.0016 145.805C33.2083 145.805 35.8079 143.206 35.8079 139.999C35.8079 136.792 33.2083 134.193 30.0016 134.193C26.7949 134.193 24.1953 136.792 24.1953 139.999C24.1953 143.206 26.7949 145.805 30.0016 145.805Z" fill="#8F8E93"/>
<path d="M33.871 149.676C34.9399 149.676 35.8064 148.81 35.8064 147.741C35.8064 146.672 34.9399 145.805 33.871 145.805C32.8021 145.805 31.9355 146.672 31.9355 147.741C31.9355 148.81 32.8021 149.676 33.871 149.676Z" fill="#8F8E93"/>
<path d="M22.2557 138.064C23.3247 138.064 24.1912 137.197 24.1912 136.128C24.1912 135.059 23.3247 134.193 22.2557 134.193C21.1868 134.193 20.3203 135.059 20.3203 136.128C20.3203 137.197 21.1868 138.064 22.2557 138.064Z" fill="#8F8E93"/>
<path d="M58.0651 162.257H56.1297V168.063H54.1943V164.192H52.2588V168.063H50.3234V158.386H48.388V168.063H47.188L44.5355 158.512C50.3408 156.21 55.58 152.535 59.7644 147.706L58.3012 146.438C51.1905 154.647 40.8746 159.354 30.0014 159.354C19.1291 159.354 8.81321 154.647 1.70147 146.44L0.238281 147.708C7.71873 156.339 18.5668 161.289 30.0014 161.289C34.3764 161.289 38.6634 160.558 42.7113 159.18L45.7171 169.998H60.0006V168.063H58.0651V162.257Z" fill="#8F8E93"/>
<path d="M13.8558 122.17C8.69203 124.488 4.02957 127.913 0.236123 132.291L1.69931 133.559C8.81009 125.352 19.1259 120.645 29.9992 120.645C40.8715 120.645 51.1873 125.352 58.2991 133.558L59.7623 132.29C52.2818 123.659 41.4337 118.709 29.9992 118.709C25.0251 118.709 20.1624 119.648 15.6393 121.417L14.2099 117.742H11.6126V110H9.67716V117.742H7.74173V113.871H5.8063V117.741H3.87086V111.935H1.93543V117.741H0V119.676L12.8861 119.677L13.8558 122.17Z" fill="#8F8E93"/>
<path d="M1.93555 160.321H13.5481V162.257H1.93555V160.321Z" fill="#8F8E93"/>
<path d="M1.93555 164.192H13.5481V166.128H1.93555V164.192Z" fill="#8F8E93"/>
<path d="M1.93555 168.063H13.5481V169.998H1.93555V168.063Z" fill="#8F8E93"/>
<path d="M57.0946 117.742C58.6979 117.742 59.9977 116.442 59.9977 114.839C59.9977 113.235 58.6979 111.936 57.0946 111.936C55.4912 111.936 54.1914 113.235 54.1914 114.839C54.1914 116.442 55.4912 117.742 57.0946 117.742Z" fill="#8F8E93"/>
<path d="M49.3543 117.742C50.9577 117.742 52.2575 116.442 52.2575 114.839C52.2575 113.235 50.9577 111.936 49.3543 111.936C47.751 111.936 46.4512 113.235 46.4512 114.839C46.4512 116.442 47.751 117.742 49.3543 117.742Z" fill="#8F8E93"/>
<path d="M41.6124 117.742C43.2157 117.742 44.5155 116.442 44.5155 114.839C44.5155 113.235 43.2157 111.936 41.6124 111.936C40.009 111.936 38.7092 113.235 38.7092 114.839C38.7092 116.442 40.009 117.742 41.6124 117.742Z" fill="#8F8E93"/>
<path d="M231.28 389.609L223.102 384.497C222.436 384.081 221.572 384.56 221.572 385.345V388.042C221.572 388.387 221.75 388.707 222.042 388.89L229.007 393.243C229.361 393.464 229.755 393.569 230.142 393.569C230.855 393.569 231.554 393.212 231.96 392.561C232.588 391.558 232.282 390.236 231.28 389.609Z" fill="#8F8E93"/>
<path d="M240.858 354.997H225.858C224.674 354.997 223.715 355.956 223.715 357.14V378.569C223.715 379.753 224.674 380.712 225.858 380.712H240.858C242.041 380.712 243.001 379.753 243.001 378.569V357.14C243.001 355.956 242.041 354.997 240.858 354.997ZM236.572 376.426H230.143C228.96 376.426 228.001 375.467 228.001 374.283C228.001 373.099 228.96 372.14 230.143 372.14H236.572C237.755 372.14 238.715 373.099 238.715 374.283C238.715 375.467 237.755 376.426 236.572 376.426ZM236.572 369.997H230.143C228.96 369.997 228.001 369.039 228.001 367.854C228.001 366.67 228.96 365.712 230.143 365.712H236.572C237.755 365.712 238.715 366.67 238.715 367.854C238.715 369.039 237.755 369.997 236.572 369.997ZM236.572 363.569H230.143C228.96 363.569 228.001 362.61 228.001 361.426C228.001 360.242 228.96 359.283 230.143 359.283H236.572C237.755 359.283 238.715 360.242 238.715 361.426C238.715 362.61 237.755 363.569 236.572 363.569Z" fill="#8F8E93"/>
<path d="M200.143 354.997H185.143C183.96 354.997 183 355.956 183 357.14V378.569C183 379.753 183.96 380.712 185.143 380.712H200.143C201.326 380.712 202.286 379.753 202.286 378.569V357.14C202.286 355.956 201.326 354.997 200.143 354.997ZM195.857 376.426H189.429C188.245 376.426 187.286 375.467 187.286 374.283C187.286 373.099 188.245 372.14 189.429 372.14H195.857C197.04 372.14 198 373.099 198 374.283C198 375.467 197.04 376.426 195.857 376.426ZM195.857 369.997H189.429C188.245 369.997 187.286 369.039 187.286 367.854C187.286 366.67 188.245 365.712 189.429 365.712H195.857C197.04 365.712 198 366.67 198 367.854C198 369.039 197.04 369.997 195.857 369.997ZM195.857 363.569H189.429C188.245 363.569 187.286 362.61 187.286 361.426C187.286 360.242 188.245 359.283 189.429 359.283H195.857C197.04 359.283 198 360.242 198 361.426C198 362.61 197.04 363.569 195.857 363.569Z" fill="#8F8E93"/>
<path d="M211.929 397.854L196.994 389.608C196.331 389.194 195.496 389.171 194.82 389.552C194.138 389.93 193.715 390.646 193.715 391.426V402.466C193.715 403.204 194.096 403.891 194.721 404.283L211.864 414.997" fill="#8F8E93"/>
<path d="M214.072 397.854L229.007 389.608C229.671 389.194 230.506 389.171 231.181 389.552C231.864 389.93 232.287 390.646 232.287 391.426V402.466C232.287 403.204 231.906 403.891 231.28 404.283L214.137 414.997" fill="#8F8E93"/>
<path d="M204.429 385.345C204.429 384.56 203.565 384.081 202.899 384.497L194.721 389.608C193.719 390.236 193.413 391.558 194.041 392.561C194.447 393.212 195.146 393.569 195.86 393.569C196.247 393.569 196.64 393.464 196.994 393.243L203.489 389.184C204.074 388.818 204.429 388.178 204.429 387.488V385.345Z" fill="#8F8E93"/>
<path fill-rule="evenodd" clip-rule="evenodd" d="M199.775 367.364C199.775 366.553 200.433 365.895 201.245 365.895H209.082C209.893 365.895 210.551 366.553 210.551 367.364V392.834C210.551 393.645 209.893 394.303 209.082 394.303C208.27 394.303 207.612 393.645 207.612 392.834V368.834H201.245C200.433 368.834 199.775 368.176 199.775 367.364Z" fill="#8F8E93"/>
<path fill-rule="evenodd" clip-rule="evenodd" d="M226.225 367.364C226.225 366.553 225.567 365.895 224.755 365.895H216.918C216.107 365.895 215.449 366.553 215.449 367.364V392.834C215.449 393.645 216.107 394.303 216.918 394.303C217.73 394.303 218.388 393.645 218.388 392.834V368.834H224.755C225.567 368.834 226.225 368.176 226.225 367.364Z" fill="#8F8E93"/>
<path d="M231.559 31.034H236.782C236.843 31.0277 236.902 31.0156 236.961 30.9979C237.449 32.4352 238.906 33.308 240.404 33.0605C241.901 32.813 243 31.5181 243 30C243 28.482 241.901 27.187 240.404 26.9396C238.906 26.6921 237.449 27.5649 236.961 29.0022C236.902 28.9845 236.843 28.9724 236.782 28.9661H231.559C231.319 24.5463 229.503 20.3588 226.442 17.1619V10.3541C226.442 9.212 227.368 8.28608 228.51 8.28608H234.714C234.775 8.27982 234.835 8.2677 234.893 8.24993C235.381 9.68727 236.838 10.5601 238.336 10.3126C239.833 10.0651 240.932 8.77014 240.932 7.25213C240.932 5.73411 239.833 4.43904 238.336 4.19166C236.838 3.94418 235.381 4.81698 234.893 6.25432C234.835 6.23655 234.775 6.22443 234.714 6.21817H228.51C226.226 6.21817 224.374 8.0699 224.374 10.3542V15.3008C221.401 12.9916 217.793 11.6449 214.034 11.4409V6.21797C214.028 6.15728 214.016 6.09741 213.998 6.03905C215.435 5.55074 216.308 4.09392 216.061 2.5962C215.813 1.09858 214.518 0 213 0C211.482 0 210.187 1.09858 209.939 2.5963C209.692 4.09402 210.565 5.55085 212.002 6.03915C211.984 6.09751 211.972 6.15738 211.966 6.21807V11.4408C208.207 11.6448 204.599 12.9914 201.626 15.3007V10.3541C201.626 8.0698 199.774 6.21807 197.49 6.21807H191.286C191.225 6.22433 191.165 6.23645 191.107 6.25422C190.619 4.81688 189.162 3.94407 187.664 4.19156C186.166 4.43904 185.068 5.73401 185.068 7.25202C185.068 8.77004 186.166 10.0651 187.664 10.3125C189.162 10.5599 190.619 9.68717 191.107 8.24983C191.165 8.2676 191.225 8.27972 191.286 8.28598H197.49C198.038 8.28598 198.564 8.50388 198.952 8.89171C199.34 9.27955 199.558 9.80551 199.558 10.354V17.1618C196.497 20.3586 194.681 24.5461 194.441 28.966H189.218C189.157 28.9723 189.097 28.9844 189.039 29.0021C188.551 27.5648 187.094 26.692 185.596 26.9395C184.099 27.187 183 28.4819 183 29.9999C183 31.518 184.099 32.813 185.596 33.0604C187.094 33.3079 188.551 32.4351 189.039 30.9978C189.098 31.0155 189.157 31.0276 189.218 31.0339H194.441C194.681 35.4537 196.497 39.6412 199.558 42.8381V49.6459C199.558 50.788 198.632 51.7139 197.49 51.7139H191.286C191.225 51.7202 191.165 51.7323 191.107 51.7501C190.619 50.3127 189.162 49.4399 187.664 49.6874C186.166 49.9349 185.068 51.2299 185.068 52.7479C185.068 54.2659 186.166 55.561 187.664 55.8083C189.162 56.0557 190.619 55.183 191.107 53.7457C191.165 53.7634 191.225 53.7756 191.286 53.7818H197.49C198.587 53.7818 199.639 53.346 200.415 52.5705C201.19 51.7948 201.626 50.7428 201.626 49.6459V44.6993C204.599 47.0085 208.207 48.3552 211.966 48.5592V53.7819C211.972 53.8426 211.984 53.9025 212.002 53.9609C210.565 54.4492 209.692 55.906 209.939 57.4037C210.187 58.9014 211.482 60 213 60C214.518 60 215.813 58.9014 216.06 57.4037C216.308 55.906 215.435 54.4492 213.998 53.9609C214.015 53.9025 214.028 53.8426 214.034 53.7819V48.5592C217.793 48.3552 221.4 47.0086 224.374 44.6993V49.6459C224.374 51.9302 226.225 53.7819 228.51 53.7819H234.714C234.774 53.7757 234.834 53.7636 234.893 53.7458C235.381 55.1831 236.838 56.0559 238.335 55.8084C239.833 55.561 240.932 54.266 240.932 52.748C240.932 51.23 239.833 49.9349 238.335 49.6875C236.838 49.44 235.381 50.3128 234.893 51.7502C234.834 51.7324 234.774 51.7203 234.714 51.714H228.51C227.368 51.714 226.442 50.7881 226.442 49.646V42.8382C229.503 39.6413 231.319 35.4538 231.559 31.034ZM213 13.456C219.279 13.4633 224.366 18.5513 224.374 24.83V27.9319C224.374 28.503 224.837 28.9659 225.408 28.9659C225.979 28.9659 226.442 29.4288 226.442 29.9998C226.442 30.5708 225.979 31.0338 225.408 31.0338C223.695 31.0338 222.306 29.645 222.306 27.9318V24.8299C222.3 19.6927 218.137 15.5296 213 15.5239C208.221 15.5475 204.219 19.1494 203.694 23.8992C203.637 24.4674 203.13 24.8818 202.562 24.8246C201.994 24.7675 201.579 24.2606 201.636 23.6924C202.215 17.8591 207.138 13.4242 213 13.456ZM201.626 27.9319C201.626 27.3608 202.089 26.898 202.66 26.898H203.848C204.905 26.8969 205.761 26.0406 205.762 24.9841V24.83C205.762 20.8326 209.003 17.592 213 17.592C216.997 17.592 220.238 20.8326 220.238 24.83V27.9319C220.238 30.7872 222.553 33.1019 225.408 33.1019C225.979 33.1019 226.442 33.5649 226.442 34.1359C226.442 34.707 225.979 35.1698 225.408 35.1698C221.412 35.1658 218.174 31.9276 218.17 27.9318V24.8299C218.17 21.9746 215.855 19.6599 213 19.6599C210.145 19.6599 207.83 21.9746 207.83 24.8299V24.984C207.827 27.1819 206.046 28.9631 203.848 28.9659H202.66C202.089 28.966 201.626 28.503 201.626 27.9319ZM203.694 36.204C203.694 35.6329 204.157 35.17 204.728 35.17C209.86 35.17 214.034 30.5315 214.034 24.8301C214.034 24.5239 213.899 24.2333 213.664 24.0367C213.429 23.8401 213.119 23.7576 212.818 23.8116C212.3 23.941 211.945 24.4159 211.966 24.9489C211.927 29.4821 208.227 33.129 203.694 33.102C203.123 33.102 202.66 32.6391 202.66 32.0681C202.66 31.497 203.123 31.0341 203.694 31.0341C207.086 31.0623 209.862 28.3394 209.898 24.947C209.879 23.4025 210.967 22.0654 212.483 21.7705C213.383 21.6183 214.305 21.8707 215.003 22.4603C215.7 23.0498 216.102 23.9169 216.102 24.8301C216.102 31.672 210.999 37.238 204.728 37.238C204.157 37.2379 203.694 36.775 203.694 36.204ZM218.14 44.7241C218.074 44.9904 217.905 45.2197 217.67 45.3615C217.436 45.5032 217.154 45.5458 216.888 45.48C215.416 45.1097 214.063 44.3682 212.959 43.3262C212.726 43.1149 212.391 43.0595 212.102 43.1845C210.753 43.7707 209.3 44.0802 207.829 44.0945C207.258 44.0945 206.795 43.6315 206.795 43.0605C206.795 42.4894 207.258 42.0265 207.829 42.0265C209.019 42.0124 210.195 41.7603 211.287 41.2852C212.331 40.8321 213.545 41.0426 214.376 41.8209C215.221 42.6203 216.256 43.1898 217.383 43.4753C217.937 43.6116 218.275 44.1703 218.14 44.7241ZM221.242 41.6221C221.128 42.0838 220.714 42.4081 220.238 42.408C220.153 42.4083 220.069 42.3979 219.987 42.377C217.578 41.7606 215.41 40.4324 213.767 38.5657C211.619 39.7071 209.228 40.3157 206.796 40.3401C206.225 40.3401 205.762 39.8772 205.762 39.3062C205.762 38.7351 206.225 38.2722 206.796 38.2722C208.9 38.2442 210.967 37.7192 212.828 36.7398C213.667 36.2961 214.7 36.4879 215.324 37.2031C216.688 38.7537 218.488 39.8577 220.488 40.3713C220.755 40.4377 220.983 40.6072 221.125 40.8424C221.266 41.0777 221.308 41.3594 221.241 41.6256L221.242 41.6221ZM222.306 38.272C219.519 38.275 216.896 36.9526 215.242 34.7099C214.927 34.2357 215.054 33.5962 215.527 33.2791C216 32.9621 216.64 33.0868 216.959 33.558C218.226 35.2316 220.207 36.2118 222.306 36.204C222.877 36.204 223.34 36.6669 223.34 37.2379C223.34 37.809 222.877 38.272 222.306 38.272Z" fill="#8F8E93"/>
<path d="M420.231 134.912C419.468 132.489 418.176 130.267 416.448 128.404L407.564 136.147C408.292 136.849 408.806 137.744 409.046 138.726L420.231 134.912Z" fill="#8F8E93"/>
<path d="M372.786 112.143H383.5C383.784 112.143 384.057 112.03 384.258 111.829C384.459 111.628 384.572 111.356 384.572 111.071V110H371.715V111.071C371.715 111.356 371.828 111.628 372.029 111.829C372.23 112.03 372.502 112.143 372.786 112.143Z" fill="#8F8E93"/>
<path d="M404.93 122.912V134.749C405.175 134.806 405.415 134.881 405.65 134.972L414.902 126.908C412.095 124.536 408.598 123.135 404.93 122.912Z" fill="#8F8E93"/>
<path d="M421.001 139.999C420.996 138.996 420.902 137.995 420.722 137.008L409.118 140.963C408.925 142.013 408.424 142.982 407.678 143.745C406.932 144.509 405.975 145.032 404.93 145.249V157.088C409.278 156.814 413.359 154.895 416.344 151.721C419.329 148.547 420.994 144.356 421.001 139.999Z" fill="#8F8E93"/>
<path d="M402.788 159.284V120.714C402.788 120.43 402.676 120.157 402.475 119.956C402.274 119.755 402.001 119.643 401.717 119.643H373.861C373.577 119.643 373.304 119.755 373.103 119.956C372.902 120.157 372.789 120.43 372.789 120.714V159.284C372.789 159.568 372.902 159.841 373.103 160.042C373.304 160.243 373.577 160.356 373.861 160.356H401.717C402.001 160.356 402.274 160.243 402.475 160.042C402.676 159.841 402.788 159.568 402.788 159.284ZM386.717 143.749C386.717 145.028 386.21 146.254 385.305 147.158C384.401 148.062 383.175 148.57 381.896 148.57C380.617 148.57 379.391 148.062 378.487 147.158C377.583 146.254 377.075 145.028 377.075 143.749V136.249C377.075 134.971 377.583 133.744 378.487 132.84C379.391 131.936 380.617 131.428 381.896 131.428C383.175 131.428 384.401 131.936 385.305 132.84C386.21 133.744 386.717 134.971 386.717 136.249V143.749ZM393.682 138.928C394.96 138.928 396.187 139.436 397.091 140.34C397.995 141.244 398.503 142.47 398.503 143.749C398.503 145.028 397.995 146.254 397.091 147.158C396.187 148.062 394.96 148.57 393.682 148.57H389.932C389.648 148.57 389.375 148.457 389.174 148.257C388.973 148.056 388.86 147.783 388.86 147.499C388.86 147.215 388.973 146.942 389.174 146.741C389.375 146.54 389.648 146.428 389.932 146.428H393.682C394.392 146.428 395.073 146.145 395.576 145.643C396.078 145.141 396.36 144.459 396.36 143.749C396.36 143.039 396.078 142.357 395.576 141.855C395.073 141.353 394.392 141.071 393.682 141.071C392.403 141.071 391.177 140.563 390.272 139.658C389.368 138.754 388.86 137.528 388.86 136.249C388.86 134.971 389.368 133.744 390.272 132.84C391.177 131.936 392.403 131.428 393.682 131.428H397.431C397.716 131.428 397.988 131.541 398.189 131.742C398.39 131.943 398.503 132.215 398.503 132.499C398.503 132.783 398.39 133.056 398.189 133.257C397.988 133.458 397.716 133.571 397.431 133.571H393.682C392.971 133.571 392.29 133.853 391.788 134.355C391.285 134.858 391.003 135.539 391.003 136.249C391.003 136.96 391.285 137.641 391.788 138.143C392.29 138.646 392.971 138.928 393.682 138.928Z" fill="#8F8E93"/>
<path d="M381.89 133.571C381.179 133.571 380.498 133.853 379.996 134.355C379.493 134.858 379.211 135.539 379.211 136.249V143.749C379.211 144.459 379.493 145.141 379.996 145.643C380.498 146.145 381.179 146.428 381.89 146.428C382.6 146.428 383.281 146.145 383.784 145.643C384.286 145.141 384.568 144.459 384.568 143.749V136.249C384.568 135.898 384.499 135.549 384.364 135.224C384.23 134.899 384.032 134.604 383.784 134.355C383.535 134.107 383.24 133.909 382.915 133.775C382.59 133.64 382.241 133.571 381.89 133.571Z" fill="#8F8E93"/>
<path d="M364.214 169.998H392.071C392.923 169.998 393.741 169.66 394.343 169.057C394.946 168.454 395.285 167.637 395.285 166.784V162.498H373.857C373.004 162.498 372.187 162.16 371.584 161.557C370.981 160.954 370.643 160.137 370.643 159.284V120.714C370.643 119.862 370.981 119.044 371.584 118.441C372.187 117.838 373.004 117.5 373.857 117.5H395.285V113.214C395.285 112.362 394.946 111.544 394.343 110.941C393.741 110.339 392.923 110 392.071 110H386.714V111.071C386.714 111.924 386.375 112.741 385.772 113.344C385.169 113.947 384.352 114.286 383.499 114.286H372.785C371.933 114.286 371.115 113.947 370.513 113.344C369.91 112.741 369.571 111.924 369.571 111.071V110H364.214C363.362 110 362.544 110.339 361.941 110.941C361.339 111.544 361 112.362 361 113.214V166.784C361 167.637 361.339 168.454 361.941 169.057C362.544 169.66 363.362 169.998 364.214 169.998ZM370.643 165.713H385.642C385.926 165.713 386.199 165.826 386.4 166.026C386.601 166.227 386.714 166.5 386.714 166.784C386.714 167.068 386.601 167.341 386.4 167.542C386.199 167.743 385.926 167.855 385.642 167.855H370.643C370.358 167.855 370.086 167.743 369.885 167.542C369.684 167.341 369.571 167.068 369.571 166.784C369.571 166.5 369.684 166.227 369.885 166.026C370.086 165.826 370.358 165.713 370.643 165.713Z" fill="#8F8E93"/>
<path fill-rule="evenodd" clip-rule="evenodd" d="M233.246 206.866L223.383 221.568L324.703 282.577L325.814 280.921C329.491 275.44 327.959 268.01 322.414 264.431L233.246 206.866Z" fill="url(#paint0_linear_4286_15473)"/>
<path d="M223.383 221.568L313.872 284.612C317.416 287.081 322.296 286.164 324.703 282.577L223.383 221.568Z" fill="black"/>
<path d="M223.383 221.568L222.761 221.15L222.35 221.762L222.955 222.183L223.383 221.568ZM233.246 206.866L233.652 206.236L233.033 205.836L232.623 206.448L233.246 206.866ZM324.703 282.577L324.316 283.22L324.928 283.588L325.326 282.995L324.703 282.577ZM322.414 264.431L322.007 265.061L322.414 264.431ZM224.006 221.985L233.869 207.284L232.623 206.448L222.761 221.15L224.006 221.985ZM232.839 207.496L322.007 265.061L322.821 263.801L233.652 206.236L232.839 207.496ZM314.301 283.997L223.812 220.952L222.955 222.183L313.444 285.227L314.301 283.997ZM325.191 280.503L324.08 282.16L325.326 282.995L326.437 281.339L325.191 280.503ZM222.997 222.21L324.316 283.22L325.09 281.935L223.77 220.925L222.997 222.21ZM313.444 285.227C317.332 287.936 322.686 286.93 325.326 282.995L324.08 282.16C321.907 285.398 317.501 286.226 314.301 283.997L313.444 285.227ZM322.007 265.061C327.199 268.413 328.634 275.371 325.191 280.503L326.437 281.339C330.347 275.51 328.718 267.607 322.821 263.801L322.007 265.061Z" fill="black"/>
<rect x="232.196" y="231.37" width="24.16" height="4.05422" rx="2.02711" transform="rotate(-56.1448 232.196 231.37)" fill="url(#paint1_linear_4286_15473)" stroke="black" stroke-width="1.5"/>
<rect x="237.657" y="235.034" width="24.16" height="4.05422" rx="2.02711" transform="rotate(-56.1448 237.657 235.034)" fill="url(#paint2_linear_4286_15473)" stroke="black" stroke-width="1.5"/>
<rect x="243.118" y="238.696" width="24.16" height="4.05422" rx="2.02711" transform="rotate(-56.1448 243.118 238.696)" fill="url(#paint3_linear_4286_15473)" stroke="black" stroke-width="1.5"/>
<rect x="248.579" y="242.358" width="24.16" height="4.05422" rx="2.02711" transform="rotate(-56.1448 248.579 242.358)" fill="url(#paint4_linear_4286_15473)" stroke="black" stroke-width="1.5"/>
<path d="M178.116 246.833C216.26 246.204 246.674 214.772 246.045 176.628C245.472 141.815 219.242 113.443 185.668 109.229L184.071 112.527C201.763 114.457 218.033 123.565 228.925 137.668C233.823 144.009 237.632 151.36 239.995 159.522C250.071 194.326 230.024 230.708 195.22 240.783C171.261 247.719 146.554 240.38 130.196 223.779L128.601 227.073C141.334 239.565 158.871 247.15 178.116 246.833Z" fill="black"/>
<path fill-rule="evenodd" clip-rule="evenodd" d="M185.668 109.229C182.454 108.825 179.173 108.643 175.84 108.698C137.695 109.326 107.282 140.758 107.91 178.903C108.222 197.803 116.095 214.805 128.601 227.073L130.196 223.779C122.792 216.264 117.098 206.852 113.959 196.008C112.449 190.791 111.616 185.538 111.407 180.345C110.225 150.888 129.147 123.312 158.735 114.747C167.221 112.29 175.801 111.624 184.071 112.527L185.668 109.229Z" fill="url(#paint5_linear_4286_15473)"/>
<path fill-rule="evenodd" clip-rule="evenodd" d="M195.22 240.783C230.024 230.708 250.071 194.326 239.995 159.522C237.632 151.36 233.823 144.009 228.925 137.668C218.033 123.565 201.763 114.457 184.071 112.527C175.801 111.624 167.221 112.29 158.735 114.747C129.147 123.312 110.225 150.888 111.407 180.345C111.616 185.538 112.449 190.791 113.959 196.008C117.098 206.852 122.792 216.264 130.196 223.779C146.554 240.38 171.261 247.719 195.22 240.783ZM207.37 226.312C234.181 209.526 242.307 174.184 225.521 147.373C217.408 134.416 204.961 125.822 191.238 122.296C187.619 121.367 183.912 120.789 180.173 120.577C174.842 120.275 169.445 120.714 164.143 121.933C161.115 122.629 158.118 123.579 155.183 124.791C152.244 126.004 149.367 127.479 146.582 129.222C143.798 130.966 141.214 132.91 138.84 135.023C125.528 146.872 118.77 164.057 119.796 181.232C120.173 187.553 121.605 193.873 124.152 199.925C125.336 202.737 126.76 205.491 128.432 208.161C130.135 210.882 132.03 213.411 134.088 215.741C138.394 220.616 143.412 224.619 148.884 227.691C166.563 237.619 188.975 237.829 207.37 226.312Z" fill="url(#paint6_linear_4286_15473)"/>
<path d="M185.668 109.229L185.762 108.485V108.485L185.668 109.229ZM175.84 108.698L175.828 107.948L175.84 108.698ZM107.91 178.903L108.66 178.891L107.91 178.903ZM178.116 246.833L178.128 247.583L178.116 246.833ZM246.045 176.628L245.295 176.64L246.045 176.628ZM239.995 159.522L239.275 159.731L239.995 159.522ZM195.22 240.783L195.011 240.063L195.22 240.783ZM113.959 196.008L114.68 195.799L113.959 196.008ZM111.407 180.345L110.658 180.375L111.407 180.345ZM158.735 114.747L158.526 114.026L158.735 114.747ZM228.925 137.668L228.332 138.126L228.925 137.668ZM225.521 147.373L224.885 147.771L225.521 147.373ZM207.37 226.312L206.972 225.676L207.37 226.312ZM164.143 121.933L163.975 121.202L164.143 121.933ZM191.238 122.296L191.424 121.57L191.238 122.296ZM148.884 227.691L148.517 228.345L148.884 227.691ZM128.432 208.161L127.796 208.559L128.432 208.161ZM124.152 199.925L123.461 200.216L124.152 199.925ZM155.183 124.791L154.897 124.098L155.183 124.791ZM138.84 135.023L138.341 134.463L138.84 135.023ZM119.796 181.232L119.047 181.277L119.796 181.232ZM134.088 215.741L134.65 215.245L134.088 215.741ZM180.173 120.577L180.13 121.326L180.173 120.577ZM130.196 223.779L130.73 223.252L130.196 223.779ZM185.762 108.485C182.513 108.077 179.196 107.893 175.828 107.948L175.852 109.448C179.15 109.394 182.396 109.574 185.575 109.973L185.762 108.485ZM175.828 107.948C137.269 108.583 106.525 140.357 107.161 178.916L108.66 178.891C108.039 141.16 138.122 110.07 175.852 109.448L175.828 107.948ZM107.161 178.916C107.475 198.02 115.435 215.208 128.076 227.609L129.126 226.538C116.756 214.402 108.968 197.586 108.66 178.891L107.161 178.916ZM178.128 247.583C216.687 246.947 247.43 215.174 246.795 176.615L245.295 176.64C245.917 214.371 215.834 245.461 178.103 246.083L178.128 247.583ZM246.795 176.615C246.215 141.425 219.701 112.745 185.762 108.485L185.575 109.973C218.783 114.141 244.728 142.206 245.295 176.64L246.795 176.615ZM128.076 227.609C140.947 240.236 158.674 247.903 178.128 247.583L178.103 246.083C159.067 246.396 141.722 238.895 129.126 226.538L128.076 227.609ZM239.275 159.731C249.235 194.137 229.417 230.103 195.011 240.063L195.428 241.504C230.63 231.313 250.906 194.516 240.716 159.314L239.275 159.731ZM114.68 195.799C113.186 190.641 112.362 185.448 112.157 180.315L110.658 180.375C110.869 185.629 111.712 190.941 113.239 196.216L114.68 195.799ZM112.157 180.315C110.988 151.195 129.695 123.934 158.943 115.467L158.526 114.026C128.6 122.69 109.462 150.581 110.658 180.375L112.157 180.315ZM228.332 138.126C233.172 144.394 236.939 151.66 239.275 159.731L240.716 159.314C238.326 151.059 234.473 143.624 229.519 137.209L228.332 138.126ZM224.885 147.771C241.452 174.231 233.432 209.11 206.972 225.676L207.768 226.948C234.93 209.942 243.163 174.137 226.157 146.975L224.885 147.771ZM191.051 123.023C204.596 126.503 216.879 134.983 224.885 147.771L226.157 146.975C217.938 133.848 205.327 125.142 191.424 121.57L191.051 123.023ZM206.972 225.676C188.818 237.042 166.7 236.836 149.251 227.037L148.517 228.345C166.425 238.402 189.131 238.616 207.768 226.948L206.972 225.676ZM129.067 207.763C127.417 205.128 126.011 202.409 124.843 199.634L123.461 200.216C124.66 203.065 126.103 205.855 127.796 208.559L129.067 207.763ZM146.98 129.858C149.73 128.137 152.569 126.681 155.469 125.484L154.897 124.098C151.919 125.327 149.005 126.821 146.184 128.587L146.98 129.858ZM155.469 125.484C158.366 124.288 161.323 123.351 164.311 122.664L163.975 121.202C160.907 121.907 157.871 122.87 154.897 124.098L155.469 125.484ZM139.338 135.584C141.682 133.498 144.231 131.579 146.98 129.858L146.184 128.587C143.364 130.353 140.747 132.322 138.341 134.463L139.338 135.584ZM124.843 199.634C122.33 193.662 120.917 187.426 120.544 181.188L119.047 181.277C119.429 187.681 120.88 194.085 123.461 200.216L124.843 199.634ZM120.544 181.188C119.532 164.236 126.203 147.275 139.338 135.584L138.341 134.463C124.853 146.468 118.008 163.878 119.047 181.277L120.544 181.188ZM133.526 216.238C137.888 221.176 142.973 225.232 148.517 228.345L149.251 227.037C143.851 224.005 138.899 220.055 134.65 215.245L133.526 216.238ZM191.424 121.57C187.759 120.628 184.004 120.043 180.215 119.828L180.13 121.326C183.821 121.535 187.48 122.105 191.051 123.023L191.424 121.57ZM164.311 122.664C169.543 121.461 174.869 121.027 180.13 121.326L180.215 119.828C174.815 119.522 169.346 119.967 163.975 121.202L164.311 122.664ZM134.65 215.245C132.62 212.945 130.749 210.449 129.067 207.763L127.796 208.559C129.522 211.315 131.441 213.877 133.526 216.238L134.65 215.245ZM129.276 227.4L130.871 224.106L129.521 223.452L127.926 226.746L129.276 227.4ZM129.662 224.305C146.205 241.095 171.194 248.519 195.428 241.504L195.011 240.063C171.327 246.919 146.903 239.665 130.73 223.252L129.662 224.305ZM229.519 137.209C218.502 122.945 202.046 113.734 184.153 111.781L183.99 113.272C201.479 115.181 217.564 124.185 228.332 138.126L229.519 137.209ZM184.746 112.854L186.343 109.556L184.993 108.902L183.396 112.2L184.746 112.854ZM184.153 111.781C175.787 110.868 167.108 111.542 158.526 114.026L158.943 115.467C167.334 113.038 175.816 112.38 183.99 113.272L184.153 111.781ZM113.239 196.216C116.414 207.184 122.172 216.704 129.662 224.305L130.73 223.252C123.412 215.825 117.783 206.521 114.68 195.799L113.239 196.216Z" fill="black"/>
<path d="M57.8704 279.999H42.9633C41.7874 279.999 40.8337 280.931 40.8337 282.083V302.915C40.8337 304.067 41.7874 304.999 42.9633 304.999H57.8704C59.0463 304.999 59.9999 304.067 59.9999 302.915V282.083C59.9999 280.931 59.0463 279.999 57.8704 279.999ZM53.6112 300.832H47.2225C46.0465 300.832 45.0929 299.9 45.0929 298.749C45.0929 297.597 46.0465 296.666 47.2225 296.666H53.6112C54.7872 296.666 55.7408 297.597 55.7408 298.749C55.7408 299.9 54.7872 300.832 53.6112 300.832ZM53.6112 294.582H47.2225C46.0465 294.582 45.0929 293.65 45.0929 292.499C45.0929 291.348 46.0465 290.416 47.2225 290.416H53.6112C54.7872 290.416 55.7408 291.348 55.7408 292.499C55.7408 293.65 54.7872 294.582 53.6112 294.582ZM53.6112 288.332H47.2225C46.0465 288.332 45.0929 287.401 45.0929 286.249C45.0929 285.098 46.0465 284.166 47.2225 284.166H53.6112C54.7872 284.166 55.7408 285.098 55.7408 286.249C55.7408 287.401 54.7872 288.332 53.6112 288.332Z" fill="#8F8E93"/>
<path d="M17.0366 245H2.12958C0.953624 245 0 245.932 0 247.083V267.916C0 269.068 0.953624 269.999 2.12958 269.999H17.0366C18.2126 269.999 19.1662 269.068 19.1662 267.916V247.083C19.1662 245.932 18.2126 245 17.0366 245ZM12.7775 265.833H6.38873C5.21278 265.833 4.25915 264.901 4.25915 263.75C4.25915 262.598 5.21278 261.666 6.38873 261.666H12.7775C13.9534 261.666 14.907 262.598 14.907 263.75C14.907 264.901 13.9534 265.833 12.7775 265.833ZM12.7775 259.583H6.38873C5.21278 259.583 4.25915 258.651 4.25915 257.5C4.25915 256.348 5.21278 255.416 6.38873 255.416H12.7775C13.9534 255.416 14.907 256.348 14.907 257.5C14.907 258.651 13.9534 259.583 12.7775 259.583ZM12.7775 253.333H6.38873C5.21278 253.333 4.25915 252.401 4.25915 251.25C4.25915 250.098 5.21278 249.167 6.38873 249.167H12.7775C13.9534 249.167 14.907 250.098 14.907 251.25C14.907 252.401 13.9534 253.333 12.7775 253.333Z" fill="#8F8E93"/>
<path fill-rule="evenodd" clip-rule="evenodd" d="M28.332 253.785C27.2287 253.785 26.1459 253.87 25.0894 254.032C24.3875 254.139 23.7313 253.657 23.6237 252.956C23.5162 252.254 23.9979 251.597 24.6998 251.49C25.8847 251.308 27.0978 251.214 28.332 251.214C41.4682 251.214 52.1171 261.863 52.1171 274.999C52.1171 275.709 51.5415 276.285 50.8314 276.285C50.1214 276.285 49.5458 275.709 49.5458 274.999C49.5458 263.283 40.048 253.785 28.332 253.785ZM5.83256 273.714C6.54262 273.714 7.11824 274.289 7.11824 274.999C7.11824 286.715 16.616 296.213 28.332 296.213C30.0594 296.213 31.7369 296.007 33.3419 295.618C34.032 295.451 34.7269 295.875 34.894 296.565C35.061 297.256 34.637 297.95 33.9468 298.117C32.1452 298.554 30.2647 298.784 28.332 298.784C15.1958 298.784 4.54688 288.135 4.54688 274.999C4.54688 274.289 5.12249 273.714 5.83256 273.714Z" fill="#8F8E93"/>
<path d="M369.43 270.238H369.288C367.477 270.238 366 271.72 366 273.527V287.844C366 289.657 367.477 291.134 369.288 291.134H369.432C371.243 291.134 372.72 289.653 372.72 287.844V273.527C372.718 271.72 371.239 270.238 369.43 270.238Z" fill="#8F8E93"/>
<path fill-rule="evenodd" clip-rule="evenodd" d="M389.527 269.395H374.237C374.212 269.101 374.193 268.804 374.193 268.502C374.193 263.598 377.314 259.323 381.942 257.054L379.375 253.095C379.21 252.845 379.283 252.503 379.535 252.341C379.787 252.176 380.131 252.244 380.294 252.501L382.948 256.597C384.948 255.78 387.172 255.321 389.527 255.321V269.395ZM380.965 262.675C380.965 263.49 381.624 264.145 382.437 264.145C383.25 264.145 383.909 263.49 383.909 262.675C383.909 261.86 383.254 261.207 382.437 261.207C381.624 261.207 380.965 261.86 380.965 262.675Z" fill="#8F8E93"/>
<path fill-rule="evenodd" clip-rule="evenodd" d="M377.314 296.387C375.651 296.387 374.292 295.033 374.292 293.37V270.764H389.527V296.387H387.266V304.12C387.266 305.934 385.787 307.413 383.973 307.413H383.832C382.025 307.413 380.544 305.936 380.544 304.12V296.387H377.314Z" fill="#8F8E93"/>
<path fill-rule="evenodd" clip-rule="evenodd" d="M419.464 260.626C418.555 261.228 413.768 264.395 413.768 270.892C413.768 278.96 420.79 281.815 421 281.886C420.968 282.06 419.884 285.795 417.298 289.601C414.991 292.95 412.582 296.293 408.918 296.293C407.151 296.293 406.017 295.794 404.842 295.277C403.58 294.722 402.271 294.146 400.079 294.146C397.912 294.146 396.478 294.759 395.119 295.341C394.191 295.738 393.298 296.121 392.228 296.283V255.43C393.599 255.677 394.868 256.194 396.027 256.666C397.291 257.181 398.422 257.642 399.411 257.642C400.306 257.642 401.41 257.201 402.692 256.688C404.459 255.982 406.563 255.141 408.912 255.141C410.448 255.141 415.967 255.282 419.599 260.535C419.577 260.551 419.531 260.582 419.464 260.626ZM406.988 250.667C408.664 248.66 409.85 245.877 409.85 243.093C409.85 242.707 409.818 242.315 409.748 242C407.021 242.103 403.776 243.832 401.82 246.121C400.284 247.883 398.851 250.667 398.851 253.488C398.851 253.912 398.921 254.336 398.953 254.472C399.126 254.505 399.406 254.543 399.686 254.543C402.133 254.543 405.21 252.89 406.988 250.667Z" fill="#8F8E93"/>
<defs>
<linearGradient id="paint0_linear_4286_15473" x1="271.273" y1="256.202" x2="283.456" y2="238.041" gradientUnits="userSpaceOnUse">
<stop stop-color="#D6FFBB"/>
<stop offset="1" stop-color="#5869DD"/>
</linearGradient>
<linearGradient id="paint1_linear_4286_15473" x1="232.196" y1="233.398" x2="256.356" y2="233.398" gradientUnits="userSpaceOnUse">
<stop stop-color="#D6FFBB"/>
<stop offset="1" stop-color="#5869DD"/>
</linearGradient>
<linearGradient id="paint2_linear_4286_15473" x1="237.657" y1="237.061" x2="261.817" y2="237.061" gradientUnits="userSpaceOnUse">
<stop stop-color="#D6FFBB"/>
<stop offset="1" stop-color="#5869DD"/>
</linearGradient>
<linearGradient id="paint3_linear_4286_15473" x1="243.118" y1="240.723" x2="267.278" y2="240.723" gradientUnits="userSpaceOnUse">
<stop stop-color="#D6FFBB"/>
<stop offset="1" stop-color="#5869DD"/>
</linearGradient>
<linearGradient id="paint4_linear_4286_15473" x1="248.579" y1="244.385" x2="272.739" y2="244.385" gradientUnits="userSpaceOnUse">
<stop stop-color="#D6FFBB"/>
<stop offset="1" stop-color="#5869DD"/>
</linearGradient>
<linearGradient id="paint5_linear_4286_15473" x1="107.901" y1="177.765" x2="203.573" y2="118.439" gradientUnits="userSpaceOnUse">
<stop stop-color="#D6FFBB"/>
<stop offset="1" stop-color="#5869DD"/>
</linearGradient>
<linearGradient id="paint6_linear_4286_15473" x1="107.901" y1="177.765" x2="323.456" y2="108.421" gradientUnits="userSpaceOnUse">
<stop stop-color="#D6FFBB"/>
<stop offset="1" stop-color="#5869DD"/>
</linearGradient>
</defs>
</svg>
