<svg xmlns="http://www.w3.org/2000/svg" width="290" height="201" fill="none" viewBox="0 0 290 201">
  <path fill="#000" d="M0 0h290v201H0z"/>
  <path fill="#F1EFED" d="M126.944 100.72a5.4 5.4 0 0 0 1.36 3.903 5.398 5.398 0 0 0 3.72 1.801h.295a5.392 5.392 0 1 0-5.389-5.701l.014-.003Zm-20.105-1.366a1.739 1.739 0 0 0-1.666.983 1.738 1.738 0 0 0 .269 1.915c.23.257.53.44.863.527a1.748 1.748 0 0 0 1.826-.637 1.74 1.74 0 0 0-1.292-2.788Zm19.765-29.925a1.746 1.746 0 0 0-.254-3.21 1.744 1.744 0 1 0 .254 3.21Zm5.47 9.543a2.694 2.694 0 0 0-.37-4.962 2.69 2.69 0 0 0-3.516 2.229 2.69 2.69 0 0 0 1.829 2.886 2.693 2.693 0 0 0 2.057-.153Zm-18.41 6.561a2.215 2.215 0 0 0 2.465-.018 2.215 2.215 0 0 0 .926-2.286 2.224 2.224 0 0 0-1.758-1.729 2.218 2.218 0 0 0-1.633 4.033Zm3.278 12.838a2.695 2.695 0 0 0-2.818 3.064 2.695 2.695 0 0 0 3.553 2.168 2.687 2.687 0 0 0 1.802-2.388 2.695 2.695 0 0 0-2.537-2.844Zm-2.986 18.11a2.223 2.223 0 0 0-1.211 2.146 2.214 2.214 0 0 0 2.806 1.971 2.216 2.216 0 0 0 .853-3.819 2.21 2.21 0 0 0-1.613-.531 2.213 2.213 0 0 0-.835.233Zm10.47-23.675a3.17 3.17 0 1 0 3.475-5.302 3.17 3.17 0 0 0-3.475 5.302Zm33.212-14.047a2.7 2.7 0 0 0 3.975-1.253 2.7 2.7 0 0 0-3.559-3.485 2.693 2.693 0 0 0-1.593 1.981 2.684 2.684 0 0 0 .424 2.021c.2.292.456.542.753.736Zm5.525-9.509a1.745 1.745 0 1 0 1.913-2.92 1.745 1.745 0 0 0-1.913 2.92Zm-5.101 26.337a5.393 5.393 0 0 0-.619 10.769h.313a5.397 5.397 0 0 0 4.919-3.19 5.39 5.39 0 0 0-.9-5.793 5.34 5.34 0 0 0-3.713-1.786Zm-24.217-3.151a5.37 5.37 0 0 0 4.82 2.967 5.39 5.39 0 0 0 4.597-2.57 5.392 5.392 0 0 0-1.774-7.42 5.376 5.376 0 0 0-2.829-.788 5.395 5.395 0 0 0-4.814 7.81Zm42.279-6.909a2.218 2.218 0 1 0-1.997-3.96 2.218 2.218 0 0 0 1.997 3.96Zm-13.673 1.719a3.164 3.164 0 0 0-1.735 3.065 3.17 3.17 0 1 0 1.735-3.065Zm-17.612-18.812a2.22 2.22 0 0 0 1.781-3.693 2.223 2.223 0 0 0-2.388-.617 2.219 2.219 0 0 0 .607 4.31Zm-.026 13.964a3.17 3.17 0 1 0 .355-6.33 3.17 3.17 0 0 0-.355 6.33Zm-17.176 32.361a3.168 3.168 0 0 0 1.07-4.783 3.168 3.168 0 0 0-4.9-.116 3.169 3.169 0 0 0 3.83 4.899Zm19.225-27.736a5.392 5.392 0 1 0 9.02 5.908 5.392 5.392 0 0 0-9.02-5.908Zm9.375 22.55a5.392 5.392 0 1 0-4.814 7.82 5.451 5.451 0 0 0 2.428-.589 5.394 5.394 0 0 0 2.386-7.231Zm9.423-.381a3.173 3.173 0 0 0-3.522.029 3.166 3.166 0 0 0 1.189 5.735 3.176 3.176 0 0 0 3.244-1.374 3.178 3.178 0 0 0-.911-4.39Zm10.323-8.097a2.695 2.695 0 0 0-1.519-2.578 2.691 2.691 0 0 0-3.776 1.751 2.692 2.692 0 1 0 5.295.827Zm7.463-1.92a1.743 1.743 0 1 0-.2 3.48 1.743 1.743 0 0 0 .2-3.48Zm-7.027 17.297a2.222 2.222 0 0 0-2.465.022 2.213 2.213 0 0 0-.923 2.286 2.214 2.214 0 0 0 1.758 1.728 2.22 2.22 0 0 0 1.63-4.036Zm-49.499 16.283a1.737 1.737 0 0 0-1.938.016 1.749 1.749 0 0 0-.727 1.796 1.743 1.743 0 0 0 2.388 1.252 1.744 1.744 0 0 0 .277-3.064Zm36.559-.185a1.752 1.752 0 0 0-.955 1.687 1.75 1.75 0 0 0 1.194 1.528 1.745 1.745 0 1 0-.239-3.215Zm-20.257-17.598a5.386 5.386 0 0 0-.539-6.602 5.39 5.39 0 1 0-7.286 7.899 5.39 5.39 0 0 0 3.311 1.14 5.372 5.372 0 0 0 4.514-2.437Zm-10.777 8.272a2.7 2.7 0 0 0-2.992.029 2.694 2.694 0 1 0 3.769 3.701 2.695 2.695 0 0 0-.777-3.73Zm12.571 10.322a2.22 2.22 0 0 0-2.323 2.523 2.222 2.222 0 0 0 2.928 1.787 2.217 2.217 0 0 0 .234-4.093 2.227 2.227 0 0 0-.839-.217Zm.026-13.959a3.17 3.17 0 1 0-.383 6.329 3.17 3.17 0 0 0 .383-6.329Zm12.965 3.421a2.702 2.702 0 0 0-1.468 2.613 2.705 2.705 0 0 0 1.854 2.355 2.692 2.692 0 0 0 2.884-.813 2.697 2.697 0 0 0-2.258-4.44 2.671 2.671 0 0 0-1.012.285Z"/>
</svg>
