<svg xmlns="http://www.w3.org/2000/svg" width="290" height="201" fill="none" viewBox="0 0 290 201">
  <path fill="#000" d="M0 0h290v201H0z"/>
  <path fill="#F1EFED" d="M169.991 109.287c-2.508-1.448-5.332-1.868-8.13-1.965-2.347-.082-5.849-1.586-5.849-5.856 0-3.181 2.579-5.741 5.85-5.855 2.798-.098 5.622-.518 8.129-1.966A14.817 14.817 0 0 0 162.583 66a14.815 14.815 0 0 0-14.814 14.815c0 2.87 1.021 5.512 2.323 7.962 1.096 2.06 1.65 5.885-2.107 8.054-2.796 1.614-6.284.592-8.027-2.196-1.471-2.356-3.248-4.563-5.736-5.999a14.814 14.814 0 1 0 0 25.66c2.487-1.436 4.264-3.641 5.735-5.995 1.208-1.933 4.224-4.397 8.027-2.2 2.791 1.613 3.654 5.146 2.107 8.056-1.303 2.449-2.322 5.09-2.322 7.96 0 2.601.684 5.155 1.985 7.407a14.805 14.805 0 0 0 12.83 7.408 14.817 14.817 0 0 0 14.814-14.815 14.812 14.812 0 0 0-7.407-12.83Z"/>
</svg>
