<svg xmlns="http://www.w3.org/2000/svg" width="290" height="201" fill="none" viewBox="0 0 290 201">
  <path fill="#000" d="M0 0h290v201H0z"/>
  <path fill="#F1EFED" d="M120.613 115.753a2.331 2.331 0 0 1 1.648-.683h57.03c1.039 0 1.559 1.256.824 1.991l-11.269 11.26a2.33 2.33 0 0 1-1.648.682h-57.03c-1.039 0-1.559-1.256-.824-1.99l11.269-11.26Zm0-42.071a2.331 2.331 0 0 1 1.648-.682h57.03c1.039 0 1.559 1.256.824 1.99l-11.269 11.26a2.331 2.331 0 0 1-1.648.683h-57.03c-1.039 0-1.559-1.256-.824-1.99l11.269-11.26Zm48.233 20.898a2.332 2.332 0 0 0-1.648-.682h-57.03c-1.039 0-1.559 1.257-.824 1.99l11.269 11.261a2.33 2.33 0 0 0 1.648.682h57.03c1.039 0 1.559-1.256.824-1.99l-11.269-11.26Z"/>
</svg>
