<svg xmlns="http://www.w3.org/2000/svg" width="290" height="201" fill="none" viewBox="0 0 290 201">
  <path fill="#000" d="M0 0h290v201H0z"/>
  <path fill="#000" d="M200.137 114.698c-7.603 30.497-38.491 49.057-68.991 41.452-30.488-7.604-49.048-38.493-41.44-68.988 7.599-30.5 38.487-49.062 68.978-41.459 30.498 7.604 49.056 38.497 41.453 68.995Z"/>
  <path fill="#F1EFED" d="M170.018 92.817c1.133-7.575-4.634-11.647-12.521-14.363l2.559-10.261-6.246-1.557-2.491 9.99a258.561 258.561 0 0 0-5.004-1.177l2.508-10.056-6.242-1.557-2.56 10.257c-1.359-.31-2.693-.615-3.988-.937l.007-.032-8.614-2.15-1.661 6.67s4.634 1.062 4.536 1.128c2.53.631 2.987 2.305 2.91 3.633l-2.914 11.69c.175.044.401.108.65.207-.209-.051-.431-.108-.66-.163l-4.085 16.375c-.309.768-1.094 1.921-2.862 1.483.062.091-4.54-1.133-4.54-1.133l-3.101 7.15 8.128 2.026c1.512.379 2.994.776 4.453 1.149l-2.585 10.379 6.239 1.556 2.56-10.268c1.704.463 3.359.89 4.977 1.292l-2.551 10.22 6.246 1.556 2.585-10.358c10.651 2.015 18.659 1.202 22.031-8.431 2.716-7.756-.136-12.23-5.739-15.148 4.081-.941 7.155-3.625 7.975-9.17Zm-14.271 20.011c-1.93 7.756-14.989 3.563-19.223 2.512l3.429-13.749c4.234 1.056 17.811 3.148 15.794 11.237Zm1.932-20.123c-1.761 7.055-12.631 3.47-16.157 2.592l3.11-12.47c3.526.878 14.881 2.518 13.047 9.878Z"/>
</svg>
