<svg xmlns="http://www.w3.org/2000/svg" width="433" height="605" fill="none" viewBox="0 0 433 605">
  <g opacity=".3">
    <path fill="#787878" d="M16.725 393.695h285.987V244.012l-142.994 33.031-142.993 33.03v83.622Z"/>
    <path fill="#AFAFAF" d="M302.712 167.916H16.725v142.157l142.993-33.03 142.994-33.031v-76.096Z"/>
  </g>
  <path fill="#000" d="M95.963 409.946H79.514l-7.002 68.47 23.45-68.47Zm32.53-34.973h-16.448l-7.416 40.493 2.339 50.553 21.525-91.046ZM93.176 524.358c-3.386.858-5.238.942-8.223-1.462l-1.352 7.381a3.981 3.981 0 0 0 7.79 1.633l1.785-7.552Zm-63.025 44.155-3.323 10.674a5.287 5.287 0 0 0 10.05 3.284l3.56-10.396c-5.022-.18-7.128-1.135-10.287-3.562ZM303.609 409.52h-15.497l5.959 23.592 25.855 45.347-13.572-60.892-2.745-8.047Z"/>
  <path fill="#000" d="M308.311 375.09h-16.448l11.746 34.43h.951l1.794 8.047 3.669 10.756 24.433 35.876-26.145-89.109Zm47.245 161.021c-2.576 2.586-4.418 2.775-7.875 2.604l2.547 7.467a3.976 3.976 0 0 0 7.578-2.403l-2.25-7.668Zm-11.758 49.447c-3.972 2.458-6.457 3.268-10.494 2.9l2.899 11.48a5.273 5.273 0 0 0 10.257-2.438l-2.662-11.942Z"/>
  <path fill="#5869DD" d="M333.304 588.458c4.037.368 6.522-.442 10.494-2.9l-23.872-107.099-25.855-45.347 39.233 155.346Zm14.377-49.743c3.457.171 5.299-.018 7.875-2.604l-21.1-71.912-24.433-35.876 37.658 110.392ZM79.515 409.946 30.15 568.513c3.159 2.427 5.265 3.382 10.286 3.562l32.076-93.659 7.002-68.47Zm5.438 112.95c2.985 2.404 4.837 2.32 8.223 1.462l13.792-58.339-2.339-50.553-19.676 107.43Z"/>
  <path stroke="#000" stroke-width="2" d="M79.515 409.946 30.15 568.513m49.364-158.567h16.448l-23.45 68.47m7.002-68.47-7.002 68.47M30.15 568.513l-3.323 10.674a5.287 5.287 0 0 0 10.05 3.284l3.56-10.396m-10.287-3.562c3.159 2.427 5.265 3.382 10.286 3.562m0 0 32.076-93.659m271.285 107.142c-3.972 2.458-6.457 3.268-10.494 2.9m10.494-2.9-23.872-107.099m23.872 107.099 2.662 11.942a5.272 5.272 0 0 1-10.257 2.438l-2.899-11.48m0 0L294.07 433.112m0 0-5.959-23.592h15.497m-9.538 23.592 25.855 45.347m0 0-13.572-60.892m49.202 118.544c-2.576 2.586-4.418 2.775-7.875 2.604m7.875-2.604-21.1-71.912m21.1 71.912 2.25 7.668a3.976 3.976 0 0 1-7.578 2.403l-2.547-7.467m0 0-37.658-110.392m0 0 24.433 35.876m-24.433-35.876-3.669-10.756m28.102 46.632L308.31 375.09h-16.448l11.746 34.43M84.953 522.896c2.985 2.404 4.837 2.32 8.223 1.462m-8.223-1.462 19.676-107.43m-19.676 107.43-1.352 7.381a3.981 3.981 0 0 0 7.79 1.633l1.785-7.552m0 0 13.792-58.339m-2.339-50.553 7.416-40.493h16.448l-21.525 91.046m-2.339-50.553 2.339 50.553m196.641-56.499 2.745 8.047m-2.745-8.047h.951l1.794 8.047"/>
  <path fill="#5869DD" stroke="#000" stroke-width="2" d="M324.828 175.124 425.822 8.463l-91.019 166.661h-9.975Z"/>
  <circle cx="426.622" cy="6.347" r="5.347" fill="#5869DD" stroke="#000" stroke-width="2"/>
  <path fill="#5869DD" stroke="#000" stroke-width="2" d="M268.271 182.19 167.277 15.53l91.019 166.66h9.975Z"/>
  <circle cx="167.277" cy="15.529" r="5.347" fill="#5869DD" stroke="#000" stroke-width="2"/>
  <path fill="#000" fill-rule="evenodd" d="M44.873 182.693c76.224-4.795 123.696-4.294 200.37-.323a16.904 16.904 0 0 1 10.885 4.728 16.766 16.766 0 0 1 5.08 10.671c5.201 61.435 5.02 101.551.033 162.759a16.811 16.811 0 0 1-5.719 11.324 16.92 16.92 0 0 1-11.282 4.184c-75.78-.564-122.341-1.544-197.866-4.779a19.891 19.891 0 0 1-13.502-6.091 19.715 19.715 0 0 1-5.398-11.493c-6.32-56.276-7.484-94.508-.963-153.53a19.538 19.538 0 0 1 5.145-11.205 19.74 19.74 0 0 1 13.217-6.245Zm190.035 7.634c-64.534-3.302-107.83-3.888-169.451-.449-16.887.942-30.402 14.373-31.345 31.26-2.305 41.308-2.084 72.234.054 111.722.936 17.28 14.945 30.934 32.236 31.632 60.808 2.458 103.839 3.276 167.424 3.759 9.368.071 17.245-7.082 17.993-16.421 4.35-54.294 4.503-90.672-.034-145.194-.74-8.891-7.967-15.853-16.877-16.309Z" clip-rule="evenodd"/>
  <path fill="url(#a)" d="m263.711 171.994-241.115.651a8.978 8.978 0 0 0-6.499 2.799l15.559 13.494a19.74 19.74 0 0 1 13.217-6.245c76.224-4.795 123.696-4.294 200.37-.323a16.904 16.904 0 0 1 10.885 4.728l13.671-12.754a8.967 8.967 0 0 0-6.088-2.35Z"/>
  <path fill="url(#b)" d="M272.735 378.439V180.994a8.973 8.973 0 0 0-2.936-6.65l-13.671 12.754a16.766 16.766 0 0 1 5.08 10.671c5.201 61.435 5.02 101.551.033 162.759a16.811 16.811 0 0 1-5.719 11.324l14.194 13.313a8.975 8.975 0 0 0 3.019-6.726Z"/>
  <path fill="url(#c)" d="M13.62 181.645v190.939c0 2.235.816 4.283 2.168 5.858l17.084-13.276a19.715 19.715 0 0 1-5.398-11.493c-6.32-56.276-7.484-94.508-.963-153.53a19.538 19.538 0 0 1 5.145-11.205l-15.559-13.494a8.972 8.972 0 0 0-2.476 6.201Z"/>
  <path fill="url(#d)" d="m22.402 381.582 241.115 5.854a8.966 8.966 0 0 0 6.199-2.271l-14.194-13.313a16.92 16.92 0 0 1-11.282 4.184c-75.78-.564-122.341-1.544-197.866-4.779a19.891 19.891 0 0 1-13.502-6.091l-17.084 13.276a8.982 8.982 0 0 0 6.614 3.14Z"/>
  <path fill="url(#e)" fill-rule="evenodd" d="m13.965 159.043 342.658-.93a12.987 12.987 0 0 1 10.832 5.758 12.937 12.937 0 0 1 2.203 7.242v232.119c0 7.304-6.014 13.174-13.315 12.996l-11.684-.285-136.077-3.323-172.517-4.214-22.38-.546C6.63 407.688 1 401.92 1 394.864V172.043c0-7.166 5.799-12.98 12.965-13Zm8.631 13.602 241.115-.651a8.967 8.967 0 0 1 6.088 2.35 8.973 8.973 0 0 1 2.936 6.65v197.445a8.975 8.975 0 0 1-3.019 6.726 8.966 8.966 0 0 1-6.199 2.271l-241.115-5.854a8.982 8.982 0 0 1-6.614-3.14 8.965 8.965 0 0 1-2.167-5.858V181.645a8.97 8.97 0 0 1 2.476-6.201 8.978 8.978 0 0 1 6.5-2.799Z" clip-rule="evenodd"/>
  <path fill="#000" d="m369.658 403.232 4.207-8.392a34.996 34.996 0 0 0 3.712-15.685V275.103l-7.919 4.567v123.562Zm-30.905 21.154 5.906-8.443-136.077-3.323 7.6 7.844 122.571 3.922Z"/>
  <path fill="#5869DD" d="M36.065 408.406v7.293l180.117 4.765-7.6-7.844-172.517-4.214Zm331.39-244.535a12.937 12.937 0 0 1 2.203 7.242V279.67l7.919-4.567v-83.197a43 43 0 0 0-7.7-24.554l-2.422-3.481Z"/>
  <path stroke="#000" stroke-width="2" d="M369.658 403.232c0 7.304-6.014 13.174-13.315 12.996l-11.684-.285m24.999-12.711 4.207-8.392a34.996 34.996 0 0 0 3.712-15.685V275.103m-7.919 128.129V279.67m-353.87 98.772a8.982 8.982 0 0 0 6.614 3.14l241.115 5.854a8.966 8.966 0 0 0 6.199-2.271m-253.928-6.723a8.965 8.965 0 0 1-2.167-5.858V181.645a8.97 8.97 0 0 1 2.476-6.201m-.31 202.998 17.085-13.276M16.097 175.444a8.978 8.978 0 0 1 6.5-2.799l241.114-.651a8.967 8.967 0 0 1 6.088 2.35m-253.702 1.1 15.559 13.494m238.06 196.227a8.975 8.975 0 0 0 3.019-6.726V180.994a8.973 8.973 0 0 0-2.936-6.65m-.083 210.821-14.194-13.313m14.277-197.508-13.671 12.754M32.872 365.166a19.891 19.891 0 0 0 13.502 6.091c75.525 3.235 122.086 4.215 197.866 4.779a16.92 16.92 0 0 0 11.282-4.184m-222.65-6.686a19.715 19.715 0 0 1-5.398-11.493c-6.32-56.276-7.484-94.508-.963-153.53a19.538 19.538 0 0 1 5.145-11.205m223.866 182.914a16.811 16.811 0 0 0 5.719-11.324c4.987-61.208 5.168-101.324-.033-162.759a16.766 16.766 0 0 0-5.08-10.671m-224.472 1.84a19.74 19.74 0 0 1 13.217-6.245c76.224-4.795 123.696-4.294 200.37-.323a16.904 16.904 0 0 1 10.885 4.728M36.065 408.406l-22.38-.546C6.63 407.688 1 401.92 1 394.864V172.043c0-7.166 5.799-12.98 12.965-13l342.658-.93a12.987 12.987 0 0 1 10.595 5.416M36.065 408.406v7.293l180.117 4.765M36.065 408.406l172.517 4.214m136.077 3.323-5.906 8.443-122.571-3.922m128.477-4.521-136.077-3.323m158.636-249.091.237.342m-.237-.342c.081.113.16.226.237.342M208.582 412.62l7.6 7.844M369.658 279.67V171.113c0-2.681-.812-5.173-2.203-7.242m2.203 115.799 7.919-4.567m0 0v-83.197a43 43 0 0 0-7.7-24.554l-2.422-3.481M66.402 364.492c60.808 2.458 103.839 3.276 167.424 3.759 9.368.071 17.245-7.082 17.993-16.421 4.35-54.294 4.503-90.672-.034-145.194-.74-8.891-7.967-15.853-16.877-16.309-64.534-3.302-107.83-3.888-169.451-.449-16.887.942-30.402 14.373-31.345 31.26-2.305 41.308-2.084 72.234.054 111.722.936 17.28 14.945 30.934 32.236 31.632Z"/>
  <path fill="#000" fill-rule="evenodd" d="M295.533 396.496a9.804 9.804 0 0 0-.314-.111c2.857 1.259 4.268 4.517 3.159 7.425-1.145 3.004-4.544 4.497-7.592 3.336-2.99-1.14-4.532-4.413-3.507-7.373a8.597 8.597 0 0 0-.068.17c-1.216 3.192.537 6.823 3.916 8.111 3.379 1.288 7.105-.255 8.321-3.446.044-.114.084-.229.12-.344.97-3.105-.777-6.526-4.035-7.768Z" clip-rule="evenodd"/>
  <path fill="url(#f)" d="M290.786 407.146c3.048 1.161 6.447-.332 7.592-3.336 1.109-2.908-.302-6.166-3.159-7.425a6.58 6.58 0 0 0-.286-.117c-3.048-1.162-6.447.331-7.592 3.335a5.81 5.81 0 0 0-.062.17c-1.025 2.96.517 6.233 3.507 7.373Z"/>
  <path stroke="#000" stroke-width=".886" d="M287.279 399.773c-1.025 2.96.517 6.233 3.507 7.373 3.048 1.161 6.447-.332 7.592-3.336 1.109-2.908-.302-6.166-3.159-7.425m-7.94 3.388a8.597 8.597 0 0 0-.068.17c-1.216 3.192.537 6.823 3.916 8.111 3.379 1.288 7.105-.255 8.321-3.446.044-.114.084-.229.12-.344.97-3.105-.777-6.526-4.035-7.768a9.804 9.804 0 0 0-.314-.111m-7.94 3.388c.02-.057.04-.113.062-.17 1.145-3.004 4.544-4.497 7.592-3.335.097.037.192.076.286.117"/>
  <path fill="#000" d="m292.505 404.919 4.17-4.533a1.06 1.06 0 0 0 .279-.589c-2.555-.074-4.886 2.596-5.18 5.474.261-.014.526-.13.731-.352Z"/>
  <path fill="url(#g)" d="M296.131 398.737c-1.249-.174-2.544-.361-3.892 1.104-1.348 1.465-1.737 3.483-1.446 4.696a.933.933 0 0 0 .981.734c.294-2.878 2.625-5.548 5.18-5.474a.931.931 0 0 0-.823-1.06Z"/>
  <path stroke="#000" stroke-width=".886" d="M296.954 399.797a1.06 1.06 0 0 1-.279.589l-4.17 4.533c-.205.222-.47.338-.731.352m5.18-5.474a.931.931 0 0 0-.823-1.06c-1.249-.174-2.544-.361-3.892 1.104-1.348 1.465-1.737 3.483-1.446 4.696a.933.933 0 0 0 .981.734m5.18-5.474c-2.555-.074-4.886 2.596-5.18 5.474"/>
  <path fill="#000" fill-rule="evenodd" d="M314.908 397.137a6.537 6.537 0 0 0-.314-.111c2.857 1.259 4.268 4.517 3.159 7.425-1.145 3.004-4.544 4.497-7.592 3.335-2.99-1.14-4.532-4.412-3.507-7.372a6.686 6.686 0 0 0-.068.17c-1.216 3.191.537 6.823 3.916 8.111 3.379 1.288 7.105-.255 8.321-3.447.044-.114.084-.229.12-.344.97-3.104-.777-6.525-4.035-7.767Z" clip-rule="evenodd"/>
  <path fill="url(#h)" d="M310.161 407.786c3.048 1.162 6.447-.331 7.592-3.335 1.109-2.908-.302-6.166-3.159-7.425a6.59 6.59 0 0 0-.286-.118c-3.048-1.161-6.447.332-7.592 3.336a4.913 4.913 0 0 0-.062.17c-1.025 2.96.517 6.232 3.507 7.372Z"/>
  <path stroke="#000" stroke-width=".886" d="M306.654 400.414c-1.025 2.96.517 6.232 3.507 7.372 3.048 1.162 6.447-.331 7.592-3.335 1.109-2.908-.302-6.166-3.159-7.425m-7.94 3.388a6.686 6.686 0 0 0-.068.17c-1.216 3.191.537 6.823 3.916 8.111 3.379 1.288 7.105-.255 8.321-3.447.044-.114.084-.229.12-.344.97-3.104-.777-6.525-4.035-7.767a6.537 6.537 0 0 0-.314-.111m-7.94 3.388c.02-.057.04-.114.062-.17 1.145-3.004 4.544-4.497 7.592-3.336.097.037.192.077.286.118"/>
  <path fill="#000" d="m309.879 404.549 5.991-1.427c.233-.056.424-.176.561-.333-2.078-1.49-5.502-.578-7.355 1.643.225.135.509.187.803.117Z"/>
  <path fill="url(#i)" d="M316.341 401.449c-.939-.841-1.908-1.721-3.845-1.259-1.936.461-3.387 1.917-3.823 3.086a.931.931 0 0 0 .403 1.156c1.853-2.221 5.277-3.133 7.355-1.643a.932.932 0 0 0-.09-1.34Z"/>
  <path stroke="#000" stroke-width=".886" d="M316.431 402.789a1.068 1.068 0 0 1-.561.333l-5.991 1.427a1.07 1.07 0 0 1-.803-.117m7.355-1.643a.932.932 0 0 0-.09-1.34c-.939-.841-1.908-1.721-3.845-1.259-1.936.461-3.387 1.917-3.823 3.086a.931.931 0 0 0 .403 1.156m7.355-1.643c-2.078-1.49-5.502-.578-7.355 1.643"/>
  <path fill="#000" fill-rule="evenodd" d="M334.289 397.528a7.867 7.867 0 0 0-.314-.112c2.857 1.259 4.268 4.517 3.159 7.426-1.145 3.003-4.544 4.497-7.592 3.335-2.99-1.14-4.532-4.412-3.507-7.373a6.018 6.018 0 0 0-.068.17c-1.217 3.192.537 6.823 3.916 8.111 3.379 1.289 7.105-.255 8.321-3.446.044-.114.083-.229.119-.344.97-3.104-.776-6.525-4.034-7.767Z" clip-rule="evenodd"/>
  <path fill="url(#j)" d="M329.542 408.177c3.048 1.162 6.447-.332 7.592-3.335 1.109-2.909-.302-6.167-3.159-7.426a6.58 6.58 0 0 0-.286-.117c-3.048-1.162-6.447.331-7.592 3.335a4.409 4.409 0 0 0-.062.17c-1.025 2.961.517 6.233 3.507 7.373Z"/>
  <path stroke="#000" stroke-width=".886" d="M326.035 400.804c-1.025 2.961.517 6.233 3.507 7.373 3.048 1.162 6.447-.332 7.592-3.335 1.109-2.909-.302-6.167-3.159-7.426m-7.94 3.388a6.018 6.018 0 0 0-.068.17c-1.217 3.192.537 6.823 3.916 8.111 3.379 1.289 7.105-.255 8.321-3.446.044-.114.083-.229.119-.344.97-3.104-.776-6.525-4.034-7.767a7.867 7.867 0 0 0-.314-.112m-7.94 3.388c.019-.056.04-.113.062-.17 1.145-3.004 4.544-4.497 7.592-3.335.097.037.192.076.286.117"/>
  <path fill="#000" d="m333.633 405.535-.407-6.145a1.066 1.066 0 0 0-.235-.608c-1.816 1.8-1.488 5.329.393 7.526.17-.199.269-.471.249-.773Z"/>
  <path fill="url(#k)" d="M331.655 398.647c-.986.785-2.015 1.594-1.883 3.581.132 1.986 1.325 3.659 2.405 4.284a.93.93 0 0 0 1.207-.204c-1.881-2.197-2.209-5.726-.393-7.526a.931.931 0 0 0-1.336-.135Z"/>
  <path stroke="#000" stroke-width=".886" d="M332.991 398.782c.132.161.219.37.235.608l.407 6.145c.02.302-.079.574-.249.773m-.393-7.526a.931.931 0 0 0-1.336-.135c-.986.785-2.015 1.594-1.883 3.581.132 1.986 1.325 3.659 2.405 4.284a.93.93 0 0 0 1.207-.204m-.393-7.526c-1.816 1.8-1.488 5.329.393 7.526"/>
  <path fill="url(#l)" d="M288.497 179.684v121.333h68.47V179.684h-68.47Z"/>
  <path fill="url(#m)" d="m352.914 171.969-66.946.893a3.992 3.992 0 0 0-2.757 1.154l5.286 5.668h68.47v-3.715a4 4 0 0 0-4.053-4Z"/>
  <path fill="url(#n)" d="M282.021 176.862v130.717l6.476-6.562V179.684l-5.286-5.668a3.988 3.988 0 0 0-1.19 2.846Z"/>
  <path fill="url(#o)" d="m288.497 301.017-6.476 6.562h74.946v-6.562h-68.47Z"/>
  <path fill="url(#p)" d="m356.967 315.368-74.946-.214v7.35l74.946.441v-7.577Z"/>
  <path fill="url(#q)" d="m356.967 330.514-74.946-.661v7.346l74.946.897v-7.582Z"/>
  <path fill="url(#r)" d="m356.967 345.669-74.946-1.125v7.342l74.946 1.359v-7.576Z"/>
  <path fill="url(#s)" d="m356.967 360.833-74.946-1.607v7.339l74.946 1.849v-7.581Z"/>
  <path fill="url(#t)" d="m356.967 376.006-74.946-2.105v7.343l74.946 2.348v-7.586Z"/>
  <path fill="#000" fill-rule="evenodd" d="M282.021 307.579h74.946v3.788h-74.946v-3.788Zm0 14.925 74.946.441v3.785l-74.946-.551v-3.675Zm0 14.695 74.946.897v3.787l-74.946-1.012v-3.672Zm0 14.687 74.946 1.359v3.794l-74.946-1.483v-3.67Zm0 14.679 74.946 1.849v3.796l-74.946-1.977v-3.668Zm0 17.763 74.946 2.68v-3.416l-74.946-2.348v3.084Z" clip-rule="evenodd"/>
  <path fill="#5869DD" d="m282.021 315.154 74.946.214v-4.001h-74.946v3.787Zm0 14.699 74.946.661v-3.784l-74.946-.551v3.674Zm0 14.691 74.946 1.125v-3.786l-74.946-1.012v3.673Zm0 14.682 74.946 1.607v-3.794l-74.946-1.483v3.67Zm0 14.675 74.946 2.105v-3.796l-74.946-1.977v3.668Zm3.84 14.424 66.946 2.68a4 4 0 0 0 4.16-3.997l-74.946-2.68a4 4 0 0 0 3.84 3.997Z"/>
  <path stroke="#000" stroke-width="2" d="M282.021 384.328a4 4 0 0 0 3.84 3.997l66.946 2.68a4 4 0 0 0 4.16-3.997m-74.946-2.68v-3.084m0 3.084 74.946 2.68m-74.946-79.429V176.862c0-1.113.455-2.12 1.19-2.846m-1.19 133.563 6.476-6.562m-6.476 6.562h74.946m-74.946 0v3.788m74.946 75.641v-3.416m-73.756-209.576a3.992 3.992 0 0 1 2.757-1.154l66.946-.893a4 4 0 0 1 4.053 4v3.715m-73.756-5.668 5.286 5.668m0 0v121.333m0-121.333h68.47m-68.47 121.333h68.47m0-121.333v121.333m0 0v6.562m0 0v3.788m-74.946 3.787 74.946.214m-74.946-.214v7.35m0-7.35v-3.787m74.946 4.001v7.577m0-7.577v-4.001m-74.946 11.137 74.946.441m-74.946-.441v3.675m74.946-3.234v3.785m-74.946 3.123 74.946.661m-74.946-.661v7.346m0-7.346v-3.674m74.946 4.335v7.582m0-7.582v-3.784m-74.946 10.469 74.946.897m-74.946-.897v3.672m74.946-2.775v3.787m-74.946 2.661 74.946 1.125m-74.946-1.125v7.342m0-7.342v-3.673m74.946 4.798v7.576m0-7.576v-3.786m-74.946 10.003 74.946 1.359m-74.946-1.359v3.67m74.946-2.311v3.794m-74.946 2.187 74.946 1.607m-74.946-1.607v7.339m0-7.339v-3.67m74.946 5.277v7.581m0-7.581v-3.794m-74.946 9.526 74.946 1.849m-74.946-1.849v3.668m74.946-1.819v3.796m-74.946 1.691 74.946 2.105m-74.946-2.105v7.343m0-7.343v-3.668m74.946 5.773v7.586m0-7.586v-3.796m-74.946 9.034 74.946 2.348m-74.946-72.225h74.946m0 15.363-74.946-.551m0 14.692 74.946 1.012m-74.946 13.673 74.946 1.483m-74.946 13.194 74.946 1.977"/>
  <circle cx="322.56" cy="211.44" r="22.077" fill="#000" stroke="#000" stroke-width="1.7"/>
  <circle cx="321.518" cy="210.398" r="21.035" fill="url(#u)" stroke="#000" stroke-width="1.7"/>
  <path fill="#000" d="M322.56 220.183a9.62 9.62 0 0 0 9.377-11.777l-16.171 8.968a9.59 9.59 0 0 0 6.794 2.809Z"/>
  <path fill="url(#v)" d="M310.373 217.322a2.661 2.661 0 0 0 3.618 1.037l1.775-.985 16.171-8.968 1.774-.983a2.663 2.663 0 0 0-2.582-4.656l-1.775.985-16.171 8.968-1.774.984a2.66 2.66 0 0 0-1.036 3.618Z"/>
  <path fill="#5869DD" d="M322.56 200.943a9.62 9.62 0 0 0-9.377 11.777l16.171-8.968a9.595 9.595 0 0 0-6.794-2.809Z"/>
  <path stroke="#000" stroke-width="1.7" d="M331.937 208.406a9.62 9.62 0 0 1-9.377 11.777 9.59 9.59 0 0 1-6.794-2.809m16.171-8.968-16.171 8.968m16.171-8.968 1.774-.983a2.663 2.663 0 0 0-2.582-4.656l-1.775.985m-13.588 13.622-1.775.985a2.661 2.661 0 0 1-2.582-4.655l1.774-.984m0 0a9.62 9.62 0 0 1 16.171-8.968m-16.171 8.968 16.171-8.968"/>
  <circle cx="322.56" cy="269.174" r="22.077" fill="#000" stroke="#000" stroke-width="1.7"/>
  <circle cx="321.518" cy="268.132" r="21.035" fill="url(#w)" stroke="#000" stroke-width="1.7"/>
  <path fill="#000" d="M328.898 275.535a9.62 9.62 0 0 0 .898-13.575 9.6 9.6 0 0 0-1.604-1.463l-6.255 17.401a9.584 9.584 0 0 0 6.961-2.363Z"/>
  <path fill="#5869DD" d="M316.221 261.062a9.621 9.621 0 0 0 .706 15.037l6.255-17.4a9.592 9.592 0 0 0-6.961 2.363Z"/>
  <path fill="url(#x)" d="M317.845 281.413a2.662 2.662 0 0 0 3.405-1.604l.687-1.911 6.255-17.401.687-1.908a2.662 2.662 0 0 0-5.01-1.801l-.687 1.911-6.255 17.4-.686 1.909a2.661 2.661 0 0 0 1.604 3.405Z"/>
  <path stroke="#000" stroke-width="1.7" d="M328.192 260.497a9.6 9.6 0 0 1 1.604 1.463 9.62 9.62 0 0 1-.898 13.575 9.584 9.584 0 0 1-6.961 2.363m6.255-17.401-6.255 17.401m6.255-17.401.687-1.908a2.662 2.662 0 0 0-5.01-1.801l-.687 1.911m-1.245 19.199-.687 1.911a2.662 2.662 0 0 1-5.009-1.801l.686-1.909m0 0a9.621 9.621 0 0 1 6.255-17.4m-6.255 17.4 6.255-17.4"/>
  <defs>
    <linearGradient id="a" x1="-128.339" x2="523.337" y1="291.25" y2="291.25" gradientUnits="userSpaceOnUse">
      <stop stop-color="#5869DD"/>
      <stop offset="1" stop-color="#D6FFBB"/>
    </linearGradient>
    <linearGradient id="b" x1="-128.339" x2="523.337" y1="291.25" y2="291.25" gradientUnits="userSpaceOnUse">
      <stop stop-color="#5869DD"/>
      <stop offset="1" stop-color="#D6FFBB"/>
    </linearGradient>
    <linearGradient id="c" x1="-128.339" x2="523.337" y1="291.25" y2="291.25" gradientUnits="userSpaceOnUse">
      <stop stop-color="#5869DD"/>
      <stop offset="1" stop-color="#D6FFBB"/>
    </linearGradient>
    <linearGradient id="d" x1="-128.339" x2="523.337" y1="291.25" y2="291.25" gradientUnits="userSpaceOnUse">
      <stop stop-color="#5869DD"/>
      <stop offset="1" stop-color="#D6FFBB"/>
    </linearGradient>
    <linearGradient id="e" x1="-70.642" x2="349.186" y1="67.123" y2="363.818" gradientUnits="userSpaceOnUse">
      <stop stop-color="#D6FFBB"/>
      <stop offset="1" stop-color="#5869DD"/>
    </linearGradient>
    <linearGradient id="f" x1="279.029" x2="297.897" y1="391.555" y2="407.526" gradientUnits="userSpaceOnUse">
      <stop stop-color="#D6FFBB"/>
      <stop offset="1" stop-color="#5869DD"/>
    </linearGradient>
    <linearGradient id="g" x1="292.239" x2="294.488" y1="398.71" y2="401.308" gradientUnits="userSpaceOnUse">
      <stop stop-color="#D6FFBB"/>
      <stop offset="1" stop-color="#5869DD"/>
    </linearGradient>
    <linearGradient id="h" x1="298.404" x2="317.272" y1="392.196" y2="408.167" gradientUnits="userSpaceOnUse">
      <stop stop-color="#D6FFBB"/>
      <stop offset="1" stop-color="#5869DD"/>
    </linearGradient>
    <linearGradient id="i" x1="313.129" x2="313.541" y1="399.252" y2="402.663" gradientUnits="userSpaceOnUse">
      <stop stop-color="#D6FFBB"/>
      <stop offset="1" stop-color="#5869DD"/>
    </linearGradient>
    <linearGradient id="j" x1="317.785" x2="336.653" y1="392.586" y2="408.558" gradientUnits="userSpaceOnUse">
      <stop stop-color="#D6FFBB"/>
      <stop offset="1" stop-color="#5869DD"/>
    </linearGradient>
    <linearGradient id="k" x1="328.953" x2="332.385" y1="401.448" y2="401.61" gradientUnits="userSpaceOnUse">
      <stop stop-color="#D6FFBB"/>
      <stop offset="1" stop-color="#5869DD"/>
    </linearGradient>
    <linearGradient id="l" x1="287.511" x2="395.276" y1="232.47" y2="214.509" gradientUnits="userSpaceOnUse">
      <stop stop-color="#5869DD"/>
      <stop offset="1" stop-color="#D6FFBB"/>
    </linearGradient>
    <linearGradient id="m" x1="236.876" x2="371.683" y1="199.328" y2="215.768" gradientUnits="userSpaceOnUse">
      <stop stop-color="#D6FFBB"/>
      <stop offset=".799" stop-color="#5869DD"/>
    </linearGradient>
    <linearGradient id="n" x1="236.876" x2="371.683" y1="199.328" y2="215.768" gradientUnits="userSpaceOnUse">
      <stop stop-color="#D6FFBB"/>
      <stop offset=".799" stop-color="#5869DD"/>
    </linearGradient>
    <linearGradient id="o" x1="236.876" x2="371.683" y1="199.328" y2="215.768" gradientUnits="userSpaceOnUse">
      <stop stop-color="#D6FFBB"/>
      <stop offset=".799" stop-color="#5869DD"/>
    </linearGradient>
    <linearGradient id="p" x1="330.136" x2="235.144" y1="356.949" y2="291.67" gradientUnits="userSpaceOnUse">
      <stop stop-color="#5869DD"/>
      <stop offset="1" stop-color="#D6FFBB"/>
    </linearGradient>
    <linearGradient id="q" x1="330.136" x2="235.144" y1="356.949" y2="291.67" gradientUnits="userSpaceOnUse">
      <stop stop-color="#5869DD"/>
      <stop offset="1" stop-color="#D6FFBB"/>
    </linearGradient>
    <linearGradient id="r" x1="330.136" x2="235.144" y1="356.949" y2="291.67" gradientUnits="userSpaceOnUse">
      <stop stop-color="#5869DD"/>
      <stop offset="1" stop-color="#D6FFBB"/>
    </linearGradient>
    <linearGradient id="s" x1="330.136" x2="235.144" y1="356.949" y2="291.67" gradientUnits="userSpaceOnUse">
      <stop stop-color="#5869DD"/>
      <stop offset="1" stop-color="#D6FFBB"/>
    </linearGradient>
    <linearGradient id="t" x1="330.136" x2="235.144" y1="356.949" y2="291.67" gradientUnits="userSpaceOnUse">
      <stop stop-color="#5869DD"/>
      <stop offset="1" stop-color="#D6FFBB"/>
    </linearGradient>
    <linearGradient id="u" x1="294.936" x2="333.13" y1="173.056" y2="228.225" gradientUnits="userSpaceOnUse">
      <stop stop-color="#D6FFBB"/>
      <stop offset="1" stop-color="#5869DD"/>
    </linearGradient>
    <linearGradient id="v" x1="291.993" x2="335.082" y1="215.74" y2="210.563" gradientUnits="userSpaceOnUse">
      <stop stop-color="#D6FFBB"/>
      <stop offset="1" stop-color="#5869DD"/>
    </linearGradient>
    <linearGradient id="w" x1="282.686" x2="330.537" y1="253.298" y2="280.642" gradientUnits="userSpaceOnUse">
      <stop stop-color="#D6FFBB"/>
      <stop offset="1" stop-color="#5869DD"/>
    </linearGradient>
    <linearGradient id="x" x1="296.805" x2="334.342" y1="273.804" y2="268.298" gradientUnits="userSpaceOnUse">
      <stop stop-color="#D6FFBB"/>
      <stop offset="1" stop-color="#5869DD"/>
    </linearGradient>
  </defs>
</svg>
