    <svg
      width="42"
      height="42"
      viewBox="0 0 42 42"
      fill="none"
      xmlns="http://www.w3.org/2000/svg"
    >
      <path
        d="M42 24.8901V7.71345C42 3.45346 38.5466 0 34.2866 0H7.71345C3.45346 0 0 3.45346 0 7.71345V26.9931L28.4357 30.2551L42 24.8901Z"
        fill="url(#paint0_linear_1192_351)"
      />
      <path
        d="M33.1291 13.0443C34.937 13.0443 36.4465 11.6021 36.4582 9.79428C36.472 7.65747 34.4872 6.12882 32.4824 6.57559C32.2481 6.6278 32.0097 6.51878 31.8796 6.31698C31.1028 5.11245 29.75 4.31445 28.2101 4.31445C26.5131 4.31445 25.0432 5.28347 24.3212 6.698C24.2119 6.91235 23.987 7.04805 23.7478 7.02228C22.009 6.83496 20.4455 8.18423 20.4126 9.96781C20.3814 11.6595 21.7959 13.0443 23.4879 13.0443H33.1291Z"
        fill="url(#paint1_linear_1192_351)"
      />
      <path
        d="M39.7694 39.7106L39.7697 39.7109C41.1481 38.3175 41.9996 36.4016 41.9996 34.2867V24.8903L40.0605 22.9512L27.1958 23.1384L21.7578 28.5764L39.7694 39.7106Z"
        fill="url(#paint2_linear_1192_351)"
      />
      <path
        d="M30.8305 19.504L27.1963 23.1381C29.0622 24.2988 30.8296 26.1667 33.4716 26.1667C36.2613 26.1667 38.076 24.0844 40.0609 22.9509L36.614 19.504C35.017 17.9069 32.4276 17.9069 30.8305 19.504Z"
        fill="url(#paint3_linear_1192_351)"
      />
      <path
        d="M21.131 21.0718L5.75609 21.2372L0 26.9933V34.2867C0 38.5467 3.45346 42.0002 7.71344 42.0002H34.2866C36.4317 42.0002 38.3716 41.1239 39.7697 39.7106L21.131 21.0718Z"
        fill="url(#paint4_linear_1192_351)"
      />
      <path
        d="M5.75586 21.237C8.06544 22.3579 10.0625 24.9188 13.2585 24.9188C16.6236 24.9188 18.6597 22.0795 21.1308 21.0717L16.6133 16.5542C14.9083 14.8491 12.1438 14.8491 10.4388 16.5542L5.75586 21.237Z"
        fill="url(#paint5_linear_1192_351)"
      />
      <path
        d="M7.15559 34.2059C7.15559 34.7605 6.59612 35.2102 5.90588 35.2102C5.21572 35.2102 4.65625 34.7606 4.65625 34.2059C4.65625 33.6513 5.21572 33.2017 5.90588 33.2017C6.59612 33.2017 7.15559 33.6513 7.15559 34.2059Z"
        fill="#EFC5DB"
      />
      <path
        d="M21.8616 34.2059C21.8616 34.7605 21.3021 35.2102 20.6119 35.2102C19.9218 35.2102 19.3623 34.7606 19.3623 34.2059C19.3623 33.6513 19.9218 33.2017 20.6119 33.2017C21.3021 33.2017 21.8616 33.6513 21.8616 34.2059Z"
        fill="#EFC5DB"
      />
      <path
        d="M8.04831 34.2055C9.41688 34.2055 10.5263 33.0961 10.5263 31.7275C10.5263 30.359 9.41688 29.2495 8.04831 29.2495C6.67975 29.2495 5.57031 30.359 5.57031 31.7275C5.57031 33.0961 6.67975 34.2055 8.04831 34.2055Z"
        fill="white"
      />
      <path
        d="M10.526 31.7278C10.526 32.5435 9.86478 33.2047 9.04913 33.2047C8.23347 33.2047 7.57227 32.5435 7.57227 31.7278C7.57227 30.9122 8.23347 30.251 9.04913 30.251C9.86478 30.251 10.526 30.9122 10.526 31.7278Z"
        fill="#3B3B44"
      />
      <path
        d="M18.4702 34.2055C19.8387 34.2055 20.9482 33.0961 20.9482 31.7275C20.9482 30.359 19.8387 29.2495 18.4702 29.2495C17.1016 29.2495 15.9922 30.359 15.9922 31.7275C15.9922 33.0961 17.1016 34.2055 18.4702 34.2055Z"
        fill="white"
      />
      <path
        d="M20.942 31.7273C20.942 32.543 20.2808 33.2042 19.4651 33.2042C18.6495 33.2042 17.9883 32.543 17.9883 31.7273C17.9883 30.9117 18.6495 30.2505 19.4651 30.2505C20.2808 30.2505 20.942 30.9117 20.942 31.7273Z"
        fill="#3B3B44"
      />
      <path
        d="M13.2591 35.0578C13.8715 35.0578 14.3679 34.4078 14.3679 33.6061C14.3679 32.8043 13.8715 32.1543 13.2591 32.1543C12.6468 32.1543 12.1504 32.8043 12.1504 33.6061C12.1504 34.4078 12.6468 35.0578 13.2591 35.0578Z"
        fill="#3B3B44"
      />
      <path
        d="M32.8136 30.6837C32.2418 31.2555 32.2418 32.1826 32.8136 32.7543L39.7694 39.7102C39.7695 39.7104 39.7696 39.7105 39.7697 39.7106C40.471 39.0017 41.0355 38.1575 41.4212 37.2207L34.8841 30.6837C34.3124 30.1119 33.3854 30.1119 32.8136 30.6837Z"
        fill="#04B048"
      />
      <path
        d="M13.0089 3.7651H9.88353C9.42153 3.7651 9.04688 3.39053 9.04688 2.92845C9.04688 2.46637 9.42153 2.0918 9.88353 2.0918H13.0089C13.471 2.0918 13.8456 2.46637 13.8456 2.92845C13.8456 3.39053 13.471 3.7651 13.0089 3.7651Z"
        fill="#E3FCFF"
      />
      <path
        d="M5.79921 4.16576C5.4771 4.16576 5.17013 3.97868 5.0325 3.66477C4.84701 3.24159 5.03969 2.74813 5.46296 2.56264C5.74825 2.43756 6.0461 2.33583 6.34805 2.26019C6.796 2.14775 7.25063 2.42024 7.36291 2.86844C7.47519 3.31664 7.20286 3.77102 6.75458 3.8833C6.54316 3.93626 6.3345 4.00754 6.1347 4.09514C6.02544 4.14308 5.9114 4.16576 5.79921 4.16576Z"
        fill="#E3FCFF"
      />
      <defs>
        <linearGradient
          id="paint0_linear_1192_351"
          x1="21"
          y1="19.7918"
          x2="21"
          y2="-2.02261"
          gradientUnits="userSpaceOnUse"
        >
          <stop stopColor="#85BEFD" />
          <stop offset="1" stopColor="#BAEAF5" />
        </linearGradient>
        <linearGradient
          id="paint1_linear_1192_351"
          x1="28.4352"
          y1="15.0369"
          x2="28.4352"
          y2="6.62245"
          gradientUnits="userSpaceOnUse"
        >
          <stop stopColor="#F9EDAF" />
          <stop offset="1" stopColor="#FFFCDD" />
        </linearGradient>
        <linearGradient
          id="paint2_linear_1192_351"
          x1="27.4337"
          y1="31.3311"
          x2="48.6346"
          y2="31.3311"
          gradientUnits="userSpaceOnUse"
        >
          <stop stopColor="#6AC65E" />
          <stop offset="1" stopColor="#AFD986" />
        </linearGradient>
        <linearGradient
          id="paint3_linear_1192_351"
          x1="33.6287"
          y1="26.9973"
          x2="33.6287"
          y2="18.3081"
          gradientUnits="userSpaceOnUse"
        >
          <stop stopColor="#F9EDAF" />
          <stop offset="1" stopColor="#FFFCDD" />
        </linearGradient>
        <linearGradient
          id="paint4_linear_1192_351"
          x1="19.8849"
          y1="43.9313"
          x2="19.8849"
          y2="22.3414"
          gradientUnits="userSpaceOnUse"
        >
          <stop stopColor="#81D676" />
          <stop offset="1" stopColor="#C3E6A1" />
        </linearGradient>
        <linearGradient
          id="paint5_linear_1192_351"
          x1="13.4434"
          y1="25.0796"
          x2="13.4434"
          y2="16.2625"
          gradientUnits="userSpaceOnUse"
        >
          <stop stopColor="#F9EDAF" />
          <stop offset="1" stopColor="#FFFCDD" />
        </linearGradient>
      </defs>
    </svg>
