<svg width="684" height="342" viewBox="0 0 684 342" fill="none" xmlns="http://www.w3.org/2000/svg">
<path d="M15.4141 154.197C16.1121 156.616 17.5674 158.748 19.5663 160.279C21.5177 161.851 23.6604 163.17 25.9432 164.203C25.9499 164.21 25.9553 164.218 25.959 164.226C25.9627 164.235 25.9647 164.244 25.9648 164.253C25.9649 164.262 25.9632 164.272 25.9597 164.28C25.9562 164.289 25.951 164.297 25.9444 164.303C25.9297 164.318 25.9101 164.326 25.8897 164.326C25.8692 164.326 25.8494 164.319 25.8344 164.305C23.5583 163.27 21.4224 161.951 19.4775 160.38C17.4953 158.808 16.0708 156.64 15.4141 154.197Z" fill="black"/>
<path d="M40.1693 168.865C45.0235 170.038 49.9444 170.929 54.865 171.801C54.8955 171.806 54.9248 171.816 54.9511 171.832C54.9774 171.848 55.0003 171.869 55.0183 171.894C55.0363 171.919 55.0491 171.948 55.056 171.978C55.0629 172.008 55.0636 172.039 55.0582 172.069C55.0539 172.1 55.0431 172.131 55.0265 172.158C55.0099 172.185 54.9879 172.208 54.9618 172.226C54.9357 172.245 54.9061 172.257 54.8749 172.263C54.8437 172.27 54.8115 172.269 54.7805 172.262C49.869 171.32 44.9475 170.378 40.0928 169.166C40.0727 169.161 40.0537 169.153 40.037 169.141C40.0202 169.129 40.0062 169.114 39.9957 169.096C39.9851 169.078 39.9784 169.059 39.9758 169.038C39.9732 169.018 39.9748 168.997 39.9806 168.977C39.9834 168.956 39.9909 168.936 40.0025 168.919C40.0142 168.901 40.0296 168.886 40.0478 168.875C40.0659 168.865 40.0863 168.858 40.1073 168.856C40.1284 168.854 40.1495 168.857 40.1693 168.865Z" fill="black"/>
<path d="M99.4298 176.864C104.429 176.805 109.428 176.666 114.374 176.267C114.513 176.257 114.65 176.302 114.756 176.393C114.862 176.483 114.928 176.612 114.94 176.75C114.949 176.889 114.904 177.027 114.814 177.132C114.723 177.238 114.595 177.304 114.456 177.316C109.454 177.695 104.455 177.858 99.4609 177.804C99.3988 177.804 99.3371 177.793 99.2797 177.769C99.2223 177.745 99.1702 177.71 99.1267 177.666C99.0832 177.622 99.0491 177.569 99.0265 177.511C99.0039 177.453 98.9933 177.391 98.9952 177.329C98.9937 177.211 99.0381 177.096 99.1191 177.009C99.2 176.923 99.3113 176.871 99.4298 176.864Z" fill="black"/>
<path d="M129.204 174.432C134.128 173.614 138.999 172.556 143.817 171.259C143.976 171.218 144.145 171.241 144.286 171.324C144.428 171.406 144.531 171.542 144.573 171.7C144.614 171.859 144.591 172.027 144.508 172.169C144.425 172.31 144.29 172.413 144.132 172.455C139.266 173.713 134.348 174.731 129.397 175.54C129.322 175.552 129.246 175.549 129.172 175.532C129.098 175.514 129.029 175.481 128.968 175.437C128.907 175.392 128.855 175.335 128.816 175.27C128.778 175.205 128.752 175.133 128.741 175.058C128.725 174.914 128.763 174.77 128.849 174.654C128.935 174.538 129.062 174.459 129.204 174.432Z" fill="black"/>
<path d="M158.043 166.83C162.708 165.091 167.278 163.107 171.734 160.888C171.901 160.802 172.096 160.787 172.275 160.845C172.453 160.903 172.602 161.029 172.688 161.196C172.738 161.282 172.769 161.377 172.78 161.476C172.791 161.574 172.781 161.674 172.751 161.769C172.721 161.863 172.672 161.951 172.606 162.025C172.54 162.099 172.46 162.159 172.37 162.2C167.856 164.417 163.23 166.395 158.509 168.125C158.342 168.184 158.159 168.176 157.999 168.101C157.839 168.026 157.715 167.891 157.654 167.725C157.616 167.641 157.597 167.55 157.596 167.458C157.596 167.367 157.614 167.276 157.651 167.191C157.688 167.107 157.742 167.032 157.809 166.969C157.877 166.907 157.956 166.86 158.043 166.83Z" fill="black"/>
<path d="M184.484 153.157C188.551 150.298 192.414 147.192 196.216 143.937C196.295 143.869 196.387 143.816 196.486 143.784C196.586 143.751 196.691 143.738 196.795 143.746C196.899 143.754 197.001 143.783 197.094 143.831C197.187 143.878 197.27 143.944 197.337 144.024C197.406 144.103 197.458 144.195 197.491 144.294C197.524 144.394 197.536 144.498 197.528 144.603C197.52 144.707 197.491 144.809 197.444 144.902C197.396 144.995 197.33 145.078 197.251 145.145C193.444 148.423 189.475 151.507 185.359 154.386C185.199 154.487 185.007 154.524 184.821 154.489C184.635 154.454 184.469 154.35 184.357 154.198C184.238 154.042 184.184 153.846 184.208 153.651C184.232 153.457 184.331 153.279 184.484 153.157Z" fill="black"/>
<path d="M207.189 133.806L217.794 123.219C217.872 123.138 217.966 123.074 218.069 123.029C218.172 122.984 218.284 122.961 218.396 122.959C218.509 122.958 218.62 122.979 218.725 123.021C218.829 123.063 218.924 123.126 219.004 123.205C219.085 123.283 219.15 123.377 219.195 123.48C219.239 123.583 219.263 123.695 219.264 123.807C219.266 123.92 219.245 124.031 219.202 124.136C219.16 124.24 219.098 124.335 219.019 124.415L208.363 135.002C208.206 135.159 207.993 135.249 207.771 135.252C207.548 135.254 207.334 135.17 207.173 135.016C207.016 134.859 206.926 134.646 206.923 134.424C206.92 134.201 207.005 133.987 207.159 133.826L207.189 133.806Z" fill="black"/>
<path d="M228.365 112.543L239.243 102.164C239.325 102.08 239.422 102.013 239.53 101.967C239.637 101.921 239.753 101.896 239.87 101.895C239.987 101.894 240.103 101.915 240.212 101.959C240.321 102.002 240.42 102.067 240.503 102.149C240.584 102.233 240.646 102.332 240.688 102.441C240.73 102.549 240.75 102.665 240.746 102.781C240.743 102.898 240.717 103.012 240.669 103.118C240.621 103.224 240.553 103.32 240.468 103.399L229.589 113.699C229.507 113.779 229.409 113.841 229.302 113.883C229.195 113.924 229.081 113.944 228.966 113.94C228.852 113.937 228.739 113.911 228.634 113.863C228.53 113.816 228.436 113.748 228.359 113.663C228.226 113.507 228.153 113.308 228.155 113.102C228.156 112.897 228.231 112.698 228.365 112.543Z" fill="black"/>
<path d="M251.359 93.0705C255.671 90.4327 260.193 88.1549 264.879 86.26C264.99 86.2135 265.108 86.1894 265.228 86.1892C265.348 86.189 265.466 86.2127 265.577 86.2589C265.687 86.3051 265.787 86.3728 265.871 86.4582C265.955 86.5435 266.021 86.6448 266.065 86.756C266.112 86.867 266.136 86.9861 266.137 87.1066C266.137 87.227 266.113 87.3463 266.067 87.4575C266.021 87.5688 265.953 87.6698 265.868 87.7546C265.782 87.8395 265.681 87.9066 265.569 87.9519C260.973 89.8016 256.537 92.0283 252.307 94.6093C252.102 94.7326 251.856 94.7697 251.623 94.7125C251.39 94.6553 251.189 94.5085 251.064 94.304C250.94 94.1011 250.902 93.8575 250.957 93.6264C251.012 93.3953 251.157 93.1954 251.359 93.0705Z" fill="black"/>
<path d="M279.214 81.4905C284.079 80.2028 289.017 79.1843 293.977 78.3155C294.099 78.2956 294.224 78.2999 294.344 78.3282C294.464 78.3565 294.578 78.4083 294.678 78.4805C294.778 78.5526 294.863 78.6439 294.928 78.749C294.993 78.854 295.037 78.9709 295.056 79.0928C295.078 79.2155 295.074 79.3411 295.047 79.4625C295.019 79.5839 294.968 79.6986 294.895 79.7999C294.823 79.9012 294.731 79.9872 294.626 80.0528C294.52 80.1184 294.402 80.1624 294.279 80.1821C289.368 80.9802 284.49 81.978 279.694 83.2449C279.576 83.2762 279.452 83.2838 279.331 83.2672C279.209 83.2506 279.093 83.2101 278.987 83.1482C278.881 83.0863 278.789 83.004 278.715 82.9062C278.641 82.8084 278.587 82.697 278.556 82.5783C278.505 82.3472 278.545 82.1053 278.667 81.9027C278.789 81.7001 278.985 81.5524 279.214 81.4905Z" fill="black"/>
<path d="M308.915 76.4487C311.412 76.2092 313.91 76.0096 316.408 75.83L323.892 75.2714C324.142 75.2674 324.385 75.3575 324.572 75.5238C324.759 75.69 324.877 75.9205 324.903 76.1695C324.907 76.4198 324.817 76.6625 324.65 76.8497C324.484 77.0368 324.254 77.1547 324.005 77.1802L316.53 77.7187C314.039 77.8882 311.554 78.0876 309.077 78.317C308.833 78.3219 308.595 78.2374 308.409 78.0793C308.223 77.9213 308.101 77.7006 308.067 77.4589C308.061 77.2162 308.145 76.98 308.301 76.7941C308.457 76.6083 308.675 76.4855 308.915 76.4487Z" fill="black"/>
<path d="M338.894 74.4735L353.89 74.006C354.155 74.0028 354.41 74.1052 354.6 74.2905C354.79 74.4758 354.898 74.7289 354.901 74.9941C354.904 75.2593 354.802 75.5148 354.617 75.7046C354.431 75.8943 354.178 76.0027 353.913 76.0058L338.918 76.4633C338.652 76.4665 338.397 76.3641 338.207 76.1788C338.017 75.9935 337.909 75.7404 337.906 75.4752C337.905 75.2117 338.009 74.9587 338.194 74.7711C338.379 74.5835 338.631 74.4766 338.894 74.4735Z" fill="black"/>
<path d="M368.93 73.8383L383.932 73.8907C384.197 73.8876 384.452 73.9899 384.642 74.1752C384.832 74.3605 384.94 74.6136 384.943 74.8788C384.933 75.1354 384.825 75.3784 384.641 75.5574C384.457 75.7365 384.211 75.8379 383.955 75.8406L368.953 75.8181C368.688 75.8212 368.433 75.7189 368.243 75.5336C368.053 75.3483 367.945 75.0952 367.942 74.83C367.938 74.5648 368.041 74.3092 368.226 74.1195C368.411 73.9298 368.664 73.8214 368.93 73.8182L368.93 73.8383Z" fill="black"/>
<path d="M398.944 74.1326L413.949 74.505C414.075 74.5072 414.199 74.5349 414.313 74.5864C414.428 74.6379 414.531 74.7121 414.617 74.8046C414.702 74.8971 414.767 75.0059 414.809 75.1244C414.851 75.243 414.869 75.3688 414.861 75.4943C414.859 75.62 414.831 75.744 414.779 75.8588C414.728 75.9735 414.654 76.0766 414.561 76.1618C414.469 76.2471 414.36 76.3126 414.241 76.3546C414.123 76.3966 413.997 76.4141 413.871 76.4061L398.866 76.0636C398.617 76.044 398.384 75.9316 398.213 75.7484C398.042 75.5653 397.947 75.3248 397.945 75.0745C397.946 74.9475 397.972 74.822 398.023 74.7056C398.074 74.5892 398.148 74.4843 398.24 74.3972C398.332 74.3101 398.442 74.2427 398.561 74.1989C398.68 74.1552 398.807 74.1361 398.934 74.1427L398.944 74.1326Z" fill="black"/>
<path d="M428.945 74.9674L443.952 75.4698C444.076 75.4745 444.197 75.5042 444.308 75.5572C444.42 75.6101 444.519 75.6851 444.601 75.7777C444.682 75.8703 444.744 75.9784 444.782 76.0957C444.821 76.2129 444.835 76.3367 444.824 76.4596C444.821 76.5837 444.792 76.7058 444.74 76.8184C444.687 76.931 444.613 77.0317 444.52 77.1143C444.427 77.1969 444.319 77.2596 444.201 77.2987C444.083 77.3377 443.958 77.3522 443.834 77.3413L428.828 76.8589C428.703 76.8554 428.581 76.8267 428.468 76.7745C428.355 76.7223 428.253 76.6477 428.17 76.5552C428.087 76.4626 428.023 76.3542 427.983 76.2363C427.942 76.1184 427.926 75.9936 427.936 75.8694C427.939 75.7449 427.968 75.6224 428.02 75.5093C428.073 75.3962 428.147 75.2949 428.24 75.2115C428.332 75.1281 428.441 75.0644 428.559 75.0242C428.676 74.984 428.801 74.9681 428.925 74.9776L428.945 74.9674Z" fill="black"/>
<path d="M458.929 75.972L473.935 76.4245C474.05 76.4257 474.164 76.4498 474.27 76.4953C474.376 76.5408 474.471 76.6069 474.551 76.6896C474.631 76.7724 474.694 76.8703 474.736 76.9775C474.778 77.0848 474.798 77.1992 474.796 77.3144C474.793 77.4309 474.768 77.5457 474.72 77.6523C474.673 77.7588 474.605 77.8549 474.521 77.935C474.436 78.0151 474.336 78.0775 474.227 78.1188C474.118 78.16 474.002 78.1792 473.886 78.1752L458.88 77.7527C458.763 77.7503 458.648 77.7247 458.542 77.6775C458.435 77.6303 458.339 77.5624 458.259 77.4778C458.179 77.3931 458.117 77.2934 458.075 77.1844C458.034 77.0754 458.015 76.9593 458.019 76.8429C458.021 76.726 458.047 76.6106 458.094 76.5036C458.141 76.3965 458.209 76.2998 458.293 76.2189C458.378 76.138 458.477 76.0746 458.586 76.0323C458.695 75.9899 458.812 75.9694 458.929 75.972Z" fill="black"/>
<path d="M488.902 76.7678L503.905 76.9803C504.129 76.9855 504.342 77.0788 504.497 77.2398C504.653 77.4009 504.738 77.6167 504.736 77.8406C504.73 78.0643 504.637 78.277 504.476 78.4325C504.315 78.5879 504.099 78.6736 503.875 78.6708L488.872 78.4983C488.645 78.4932 488.429 78.3993 488.27 78.2367C488.111 78.0741 488.022 77.8557 488.022 77.6283C488.024 77.3993 488.117 77.1805 488.28 77.0194C488.443 76.8584 488.663 76.768 488.892 76.768L488.902 76.7678Z" fill="black"/>
<path d="M518.876 77.0136C521.375 76.9841 523.875 76.9545 526.365 76.925L533.844 76.7565C534.046 76.7541 534.241 76.8315 534.387 76.9721C534.533 77.1126 534.617 77.3049 534.623 77.5073C534.626 77.6075 534.61 77.7073 534.575 77.8011C534.539 77.8948 534.486 77.9805 534.416 78.0531C534.347 78.1257 534.265 78.1837 534.173 78.2237C534.081 78.2638 533.982 78.285 533.882 78.2862L526.393 78.4648C523.894 78.5544 521.394 78.5939 518.885 78.6136C518.67 78.6162 518.463 78.5333 518.309 78.3832C518.155 78.2331 518.068 78.0281 518.065 77.8133C518.065 77.5975 518.15 77.3905 518.302 77.2371C518.454 77.0837 518.66 76.9962 518.875 76.9936L518.876 77.0136Z" fill="black"/>
<path d="M548.794 75.89L563.698 74.4435C563.791 74.4263 563.886 74.4286 563.978 74.4503C564.07 74.472 564.157 74.5127 564.232 74.5696C564.307 74.6266 564.37 74.6986 564.416 74.7811C564.462 74.8636 564.49 74.9548 564.499 75.0489C564.508 75.1429 564.497 75.2378 564.467 75.3274C564.437 75.417 564.389 75.4994 564.325 75.5693C564.262 75.6392 564.184 75.6952 564.098 75.7335C564.012 75.7719 563.918 75.7918 563.824 75.7921L548.841 77.3295C548.65 77.3503 548.459 77.2946 548.31 77.1744C548.16 77.0543 548.064 76.8796 548.044 76.6889C548.023 76.4982 548.078 76.307 548.199 76.1574C548.319 76.0078 548.493 75.9121 548.684 75.8913L548.794 75.89Z" fill="black"/>
<path d="M578.484 72.3479L593.181 69.5037C593.336 69.4661 593.499 69.4915 593.635 69.5743C593.771 69.657 593.869 69.7905 593.907 69.9452C593.944 70.0999 593.919 70.2632 593.836 70.3992C593.753 70.5353 593.62 70.6328 593.465 70.6705L578.729 73.615C578.646 73.6311 578.56 73.6307 578.477 73.6137C578.394 73.5967 578.315 73.5636 578.245 73.5161C578.175 73.4687 578.115 73.4078 578.068 73.3371C578.021 73.2664 577.989 73.1872 577.973 73.104C577.957 73.0208 577.957 72.9352 577.974 72.8522C577.991 72.7691 578.024 72.6903 578.072 72.6201C578.119 72.5499 578.18 72.4897 578.251 72.443C578.322 72.3963 578.401 72.364 578.484 72.3479Z" fill="black"/>
<path d="M607.709 65.8018C612.493 64.4118 617.224 62.8356 621.904 61.0735C622.027 61.0312 622.162 61.0387 622.28 61.0942C622.397 61.1497 622.489 61.2489 622.534 61.3708C622.58 61.4927 622.576 61.6275 622.524 61.7468C622.472 61.866 622.376 61.9602 622.255 62.0094C617.576 63.8149 612.815 65.4114 608.011 66.8383C607.943 66.8604 607.871 66.8685 607.8 66.8621C607.729 66.8557 607.66 66.835 607.597 66.8012C607.534 66.7674 607.478 66.7211 607.434 66.6653C607.389 66.6094 607.356 66.5452 607.337 66.4763C607.316 66.4076 607.31 66.3355 607.317 66.2642C607.325 66.1929 607.347 66.1238 607.381 66.061C607.416 65.9982 607.463 65.943 607.519 65.8985C607.575 65.854 607.64 65.8211 607.709 65.8018Z" fill="black"/>
<path d="M635.627 55.1708C640.105 52.9781 644.438 50.5017 648.6 47.7567C648.675 47.7068 648.767 47.6887 648.856 47.7064C648.944 47.7242 649.022 47.7762 649.072 47.8511C649.12 47.9257 649.138 48.0159 649.122 48.1033C649.107 48.1908 649.058 48.2691 648.987 48.3222C644.824 51.1268 640.488 53.6665 636.006 55.9263C635.907 55.9761 635.793 55.9847 635.687 55.9504C635.582 55.916 635.495 55.8415 635.444 55.743C635.418 55.6943 635.402 55.6408 635.397 55.5857C635.392 55.5307 635.399 55.4753 635.416 55.4228C635.433 55.3703 635.461 55.3218 635.497 55.2802C635.533 55.2386 635.578 55.2048 635.627 55.1808L635.627 55.1708Z" fill="black"/>
<path d="M660.382 38.5463C664.051 35.1618 667.373 31.4206 670.301 27.3781C670.334 27.3453 670.379 27.3267 670.425 27.3262C670.472 27.3256 670.517 27.3432 670.551 27.3751C670.584 27.41 670.603 27.4562 670.604 27.5045C670.605 27.5528 670.587 27.5995 670.554 27.6351C667.65 31.7299 664.345 35.5246 660.687 38.9627C660.638 39.011 660.571 39.0376 660.501 39.0365C660.432 39.0355 660.366 39.0069 660.317 38.9571C660.269 38.9072 660.242 38.8402 660.243 38.7708C660.245 38.7014 660.273 38.6353 660.323 38.587L660.382 38.5463Z" fill="black"/>
<path d="M677.607 14.3507C679.535 9.73794 680.944 4.92471 681.807 4.1991e-05C681.015 4.94323 679.673 9.78259 677.808 14.4284C677.803 14.4409 677.795 14.4523 677.786 14.4619C677.776 14.4716 677.765 14.4792 677.752 14.4845C677.74 14.4898 677.726 14.4925 677.713 14.4926C677.699 14.4927 677.686 14.4901 677.673 14.485C677.661 14.4799 677.649 14.4723 677.64 14.4628C677.63 14.4533 677.622 14.442 677.617 14.4295C677.612 14.417 677.609 14.4037 677.609 14.3901C677.609 14.3766 677.612 14.3632 677.617 14.3506L677.607 14.3507Z" fill="black"/>
<path fill-rule="evenodd" clip-rule="evenodd" d="M178.557 304.203L160.339 233.955L19.2887 270.535L37.5072 340.783L178.557 304.203Z" fill="black"/>
<path d="M160.339 233.955L142.12 163.707L1.07031 200.287L19.2887 270.535M160.339 233.955L178.557 304.203L37.5072 340.783L19.2887 270.535M160.339 233.955L19.2887 270.535" stroke="black" stroke-width="1.3"/>
<rect x="3.63281" y="195.222" width="145.716" height="145.144" transform="rotate(-14.539 3.63281 195.222)" fill="#F1EFED" stroke="black" stroke-width="1.3"/>
<path d="M158.48 268.087L159.11 267.924L158.946 267.295L146.8 220.459L146.637 219.83L146.007 219.993L20.878 252.444L20.2488 252.607L20.412 253.237L32.5587 300.073L32.7218 300.702L33.351 300.539L158.48 268.087Z" fill="black" stroke="black" stroke-width="1.3"/>
<rect x="15.3119" y="201.793" width="127.969" height="95.4711" transform="rotate(-14.539 15.3119 201.793)" fill="url(#paint0_linear_6201_6463)" stroke="black" stroke-width="1.3"/>
<defs>
<linearGradient id="paint0_linear_6201_6463" x1="172.537" y1="131.549" x2="-17.6672" y2="324.276" gradientUnits="userSpaceOnUse">
<stop stop-color="#5869DD"/>
<stop offset="1" stop-color="#5869DD"/>
</linearGradient>
</defs>
</svg>
