<svg width="1571" height="361" viewBox="0 0 1571 361" fill="none" xmlns="http://www.w3.org/2000/svg">
<path d="M0.0707318 360.746L12.8313 354.806C12.8675 354.79 12.9085 354.789 12.9454 354.803C12.9823 354.817 13.0121 354.845 13.0285 354.881C13.0444 354.917 13.0455 354.957 13.0314 354.994C13.0173 355.031 12.9893 355.061 12.9534 355.077L0.174005 360.961C0.160028 360.969 0.144519 360.974 0.128558 360.975C0.112597 360.977 0.0965549 360.974 0.0814488 360.969C0.0663428 360.964 0.0525527 360.955 0.0409877 360.944C0.0294228 360.933 0.0203628 360.92 0.0143957 360.905C0.0065682 360.891 0.0017818 360.876 0.000412008 360.86C-0.000957787 360.844 0.00109804 360.828 0.00642959 360.813C0.0117611 360.798 0.0202749 360.784 0.0313596 360.773C0.0424443 360.761 0.0558653 360.752 0.0707318 360.746Z" fill="black"/>
<path d="M25.8754 349.426L39.021 344.477C39.0463 344.467 39.0734 344.461 39.1009 344.461C39.1283 344.461 39.1555 344.466 39.1808 344.477C39.2062 344.487 39.2292 344.502 39.2485 344.522C39.2678 344.541 39.2831 344.564 39.2934 344.59C39.312 344.642 39.3096 344.699 39.2869 344.75C39.2642 344.8 39.2228 344.84 39.1713 344.861L25.9787 349.763C25.9572 349.772 25.9341 349.776 25.9108 349.776C25.8876 349.775 25.8647 349.77 25.8435 349.76C25.8224 349.751 25.8034 349.737 25.7879 349.72C25.7724 349.702 25.7606 349.682 25.7534 349.66C25.7447 349.637 25.741 349.612 25.7425 349.587C25.7441 349.562 25.7508 349.538 25.7623 349.516C25.7738 349.494 25.7898 349.475 25.8093 349.459C25.8288 349.444 25.8513 349.432 25.8754 349.426Z" fill="black"/>
<path d="M52.3053 339.782L65.6106 335.179C65.6438 335.167 65.6791 335.162 65.7143 335.165C65.7495 335.167 65.7839 335.176 65.8154 335.192C65.8469 335.207 65.875 335.229 65.8979 335.256C65.9208 335.283 65.938 335.314 65.9486 335.347C65.9605 335.38 65.9658 335.414 65.9642 335.449C65.9627 335.484 65.9542 335.518 65.9393 335.549C65.9245 335.58 65.9036 335.608 65.8778 335.631C65.852 335.655 65.8218 335.673 65.789 335.684L52.465 340.231C52.4039 340.249 52.338 340.244 52.2806 340.216C52.2232 340.189 52.1783 340.14 52.1551 340.081C52.1369 340.021 52.1424 339.957 52.1703 339.901C52.1983 339.846 52.2466 339.803 52.3053 339.782Z" fill="black"/>
<path d="M78.8877 330.52L92.0802 325.618C92.1202 325.601 92.1631 325.593 92.2063 325.594C92.2496 325.594 92.2922 325.604 92.3317 325.621C92.3713 325.639 92.4068 325.664 92.4362 325.696C92.4656 325.727 92.4882 325.764 92.5028 325.805C92.5334 325.886 92.5309 325.975 92.4957 326.054C92.4606 326.133 92.3956 326.195 92.315 326.226L79.0942 331.072C79.0573 331.087 79.0178 331.094 78.9781 331.093C78.9383 331.092 78.8992 331.083 78.8632 331.066C78.8271 331.049 78.7948 331.025 78.7684 330.996C78.7419 330.966 78.7218 330.932 78.7092 330.894C78.6959 330.858 78.6899 330.819 78.6917 330.781C78.6935 330.742 78.7029 330.704 78.7196 330.67C78.7362 330.635 78.7596 330.604 78.7885 330.578C78.8173 330.552 78.851 330.532 78.8877 330.52Z" fill="black"/>
<path d="M105.17 320.444L118.315 315.355C118.362 315.336 118.412 315.326 118.463 315.326C118.513 315.326 118.564 315.337 118.61 315.357C118.657 315.377 118.699 315.406 118.733 315.443C118.768 315.48 118.795 315.523 118.813 315.571C118.85 315.666 118.848 315.773 118.808 315.867C118.768 315.961 118.692 316.036 118.597 316.076L105.451 321.109C105.363 321.142 105.265 321.139 105.178 321.101C105.092 321.062 105.025 320.991 104.991 320.903C104.972 320.861 104.962 320.816 104.961 320.77C104.96 320.725 104.968 320.679 104.984 320.637C105.001 320.594 105.026 320.555 105.058 320.522C105.089 320.489 105.127 320.463 105.17 320.444Z" fill="black"/>
<path d="M131.51 310.472L144.844 305.916C144.956 305.877 145.079 305.883 145.186 305.934C145.293 305.985 145.376 306.076 145.417 306.187C145.453 306.3 145.444 306.423 145.391 306.529C145.339 306.635 145.247 306.717 145.135 306.758L131.801 311.258C131.698 311.293 131.585 311.287 131.486 311.24C131.388 311.192 131.312 311.108 131.276 311.005C131.238 310.903 131.242 310.791 131.286 310.691C131.329 310.592 131.41 310.513 131.51 310.472Z" fill="black"/>
<path d="M158.323 301.782L171.957 298.199C172.019 298.182 172.084 298.177 172.148 298.186C172.212 298.194 172.274 298.215 172.33 298.247C172.386 298.279 172.435 298.322 172.474 298.373C172.513 298.424 172.542 298.483 172.558 298.545C172.59 298.67 172.571 298.803 172.506 298.915C172.441 299.026 172.335 299.109 172.21 299.144L158.605 302.68C158.545 302.695 158.483 302.699 158.421 302.69C158.36 302.682 158.301 302.661 158.248 302.63C158.195 302.599 158.148 302.557 158.111 302.508C158.074 302.459 158.047 302.403 158.032 302.343C158.001 302.23 158.014 302.11 158.068 302.006C158.122 301.902 158.213 301.822 158.323 301.782Z" fill="black"/>
<path d="M185.773 295.317L199.735 293.231C199.803 293.22 199.873 293.223 199.939 293.24C200.006 293.256 200.069 293.286 200.124 293.327C200.179 293.368 200.225 293.419 200.26 293.478C200.295 293.537 200.318 293.603 200.327 293.67C200.338 293.738 200.334 293.807 200.318 293.874C200.301 293.94 200.272 294.003 200.231 294.058C200.189 294.112 200.138 294.159 200.079 294.193C200.019 294.228 199.954 294.251 199.886 294.26L185.979 296.299C185.913 296.308 185.846 296.305 185.782 296.288C185.717 296.271 185.657 296.242 185.604 296.202C185.55 296.162 185.506 296.112 185.472 296.055C185.438 295.998 185.416 295.935 185.407 295.869C185.391 295.748 185.419 295.626 185.486 295.525C185.554 295.423 185.655 295.35 185.773 295.317Z" fill="black"/>
<path d="M213.755 291.725L227.839 290.528C227.912 290.521 227.985 290.529 228.055 290.551C228.125 290.573 228.189 290.609 228.245 290.655C228.301 290.702 228.347 290.76 228.381 290.825C228.414 290.889 228.434 290.96 228.44 291.033C228.447 291.105 228.439 291.178 228.417 291.248C228.395 291.317 228.359 291.382 228.312 291.437C228.265 291.493 228.207 291.539 228.142 291.572C228.077 291.605 228.006 291.626 227.933 291.631L213.849 292.773C213.778 292.779 213.707 292.772 213.64 292.751C213.573 292.73 213.51 292.696 213.456 292.65C213.402 292.605 213.357 292.55 213.325 292.487C213.292 292.425 213.272 292.356 213.266 292.286C213.259 292.148 213.305 292.012 213.396 291.907C213.488 291.802 213.616 291.737 213.755 291.725Z" fill="black"/>
<path d="M241.837 289.377L255.846 288.002C255.923 287.993 256.002 287.999 256.076 288.021C256.151 288.043 256.221 288.079 256.281 288.128C256.341 288.177 256.391 288.237 256.428 288.305C256.464 288.374 256.487 288.449 256.494 288.526C256.507 288.68 256.46 288.834 256.362 288.954C256.264 289.075 256.123 289.153 255.968 289.171L241.94 290.509C241.864 290.518 241.788 290.512 241.715 290.491C241.642 290.47 241.574 290.434 241.515 290.386C241.456 290.338 241.408 290.278 241.373 290.211C241.338 290.144 241.317 290.07 241.311 289.995C241.298 289.845 241.345 289.696 241.441 289.58C241.538 289.464 241.677 289.391 241.827 289.377H241.837Z" fill="black"/>
<path d="M269.875 286.712L283.96 286.038C284.042 286.033 284.124 286.045 284.201 286.072C284.278 286.099 284.349 286.141 284.409 286.196C284.47 286.251 284.519 286.318 284.553 286.392C284.587 286.466 284.606 286.546 284.608 286.628C284.613 286.709 284.602 286.791 284.574 286.868C284.547 286.944 284.505 287.015 284.449 287.075C284.394 287.136 284.328 287.184 284.253 287.218C284.179 287.252 284.098 287.271 284.016 287.273L269.932 287.919C269.771 287.926 269.614 287.871 269.495 287.764C269.375 287.657 269.303 287.508 269.293 287.348C269.288 287.187 269.346 287.031 269.455 286.912C269.563 286.793 269.714 286.721 269.875 286.712Z" fill="black"/>
<path d="M298.075 285.924L312.16 286.327C312.333 286.334 312.497 286.409 312.617 286.534C312.736 286.66 312.801 286.827 312.798 287C312.796 287.086 312.777 287.171 312.741 287.25C312.706 287.328 312.655 287.399 312.593 287.458C312.53 287.517 312.456 287.563 312.375 287.594C312.295 287.624 312.209 287.639 312.122 287.636L298.038 287.197C297.869 287.189 297.71 287.117 297.594 286.995C297.479 286.872 297.415 286.71 297.418 286.542C297.419 286.458 297.437 286.375 297.471 286.298C297.505 286.221 297.554 286.152 297.616 286.095C297.677 286.037 297.749 285.992 297.828 285.963C297.907 285.934 297.991 285.921 298.075 285.924Z" fill="black"/>
<path d="M326.261 287.217L340.345 288.536C340.527 288.555 340.695 288.644 340.812 288.783C340.929 288.923 340.988 289.103 340.974 289.284C340.966 289.375 340.94 289.463 340.897 289.544C340.854 289.624 340.796 289.695 340.725 289.753C340.654 289.81 340.572 289.853 340.484 289.879C340.397 289.904 340.305 289.912 340.214 289.902L326.214 288.555C326.037 288.536 325.874 288.449 325.76 288.313C325.647 288.177 325.59 288.002 325.603 287.825C325.619 287.661 325.695 287.509 325.816 287.397C325.937 287.285 326.096 287.221 326.261 287.217Z" fill="black"/>
<path d="M354.301 290.237L368.254 292.286C368.443 292.316 368.614 292.419 368.728 292.573C368.842 292.727 368.891 292.92 368.864 293.109C368.834 293.298 368.73 293.468 368.576 293.582C368.421 293.695 368.228 293.744 368.038 293.717L354.132 291.64C354.04 291.628 353.952 291.597 353.872 291.55C353.792 291.503 353.723 291.441 353.668 291.367C353.613 291.293 353.573 291.208 353.551 291.119C353.529 291.029 353.525 290.936 353.54 290.845C353.563 290.666 353.656 290.502 353.798 290.389C353.939 290.275 354.12 290.221 354.301 290.237Z" fill="black"/>
<path d="M382.151 294.643L396 297.253C396.199 297.292 396.374 297.407 396.488 297.573C396.603 297.739 396.647 297.944 396.611 298.142C396.591 298.244 396.55 298.341 396.492 298.427C396.433 298.513 396.358 298.586 396.27 298.642C396.182 298.698 396.084 298.735 395.981 298.752C395.878 298.769 395.773 298.765 395.672 298.741L381.85 296.093C381.657 296.055 381.486 295.942 381.375 295.779C381.265 295.616 381.223 295.417 381.259 295.223C381.278 295.126 381.316 295.034 381.371 294.952C381.427 294.869 381.498 294.799 381.581 294.745C381.665 294.691 381.758 294.654 381.856 294.637C381.953 294.619 382.054 294.621 382.151 294.643Z" fill="black"/>
<path d="M409.813 300.08L423.587 303.064C423.689 303.085 423.786 303.126 423.872 303.185C423.958 303.243 424.031 303.318 424.088 303.405C424.145 303.492 424.184 303.589 424.202 303.691C424.221 303.793 424.22 303.898 424.198 303.999C424.153 304.203 424.029 304.381 423.853 304.495C423.678 304.609 423.464 304.649 423.259 304.607L409.503 301.642C409.402 301.62 409.306 301.578 409.222 301.519C409.137 301.46 409.066 301.384 409.011 301.297C408.956 301.21 408.918 301.113 408.901 301.012C408.884 300.91 408.888 300.807 408.911 300.706C408.928 300.606 408.965 300.51 409.02 300.423C409.074 300.337 409.146 300.263 409.23 300.204C409.314 300.146 409.409 300.105 409.509 300.084C409.609 300.062 409.712 300.061 409.813 300.08Z" fill="black"/>
<path d="M437.352 306.011L451.108 308.995C451.313 309.04 451.493 309.163 451.609 309.338C451.724 309.512 451.767 309.725 451.728 309.931C451.683 310.134 451.559 310.312 451.384 310.426C451.208 310.54 450.994 310.58 450.789 310.539L437.024 307.545C436.821 307.498 436.644 307.374 436.532 307.199C436.42 307.024 436.381 306.813 436.423 306.61C436.47 306.409 436.593 306.235 436.766 306.123C436.94 306.012 437.15 305.971 437.352 306.011Z" fill="black"/>
<path d="M464.88 311.894L478.683 314.635C478.891 314.678 479.073 314.799 479.192 314.974C479.311 315.149 479.358 315.362 479.322 315.57C479.278 315.777 479.156 315.959 478.981 316.077C478.806 316.196 478.591 316.242 478.383 316.206L464.552 313.447C464.346 313.402 464.166 313.279 464.048 313.105C463.931 312.931 463.886 312.718 463.922 312.511C463.943 312.409 463.983 312.311 464.041 312.224C464.099 312.137 464.174 312.062 464.261 312.004C464.349 311.945 464.447 311.905 464.549 311.885C464.652 311.864 464.758 311.864 464.861 311.884L464.88 311.894Z" fill="black"/>
<path d="M492.544 317.153L506.44 319.258C506.652 319.295 506.841 319.414 506.967 319.588C507.092 319.762 507.145 319.978 507.113 320.19C507.081 320.402 506.968 320.593 506.796 320.723C506.625 320.853 506.41 320.911 506.196 320.886L492.243 318.753C492.128 318.747 492.015 318.716 491.912 318.664C491.809 318.612 491.718 318.539 491.645 318.449C491.573 318.36 491.519 318.256 491.489 318.145C491.459 318.034 491.453 317.917 491.471 317.804C491.489 317.69 491.53 317.581 491.593 317.484C491.656 317.388 491.738 317.305 491.835 317.242C491.931 317.179 492.04 317.137 492.154 317.118C492.268 317.1 492.385 317.105 492.497 317.134L492.544 317.153Z" fill="black"/>
<path d="M520.386 320.941L534.386 322.222C534.608 322.243 534.812 322.351 534.954 322.522C535.096 322.694 535.163 322.914 535.142 323.134C535.121 323.355 535.013 323.559 534.841 323.7C534.669 323.841 534.448 323.909 534.227 323.888L520.142 322.587C520.03 322.578 519.921 322.546 519.821 322.494C519.722 322.441 519.634 322.369 519.564 322.281C519.494 322.193 519.442 322.092 519.412 321.984C519.382 321.876 519.375 321.763 519.391 321.652C519.401 321.54 519.434 321.432 519.487 321.334C519.541 321.235 519.613 321.149 519.701 321.079C519.789 321.009 519.889 320.958 519.997 320.927C520.106 320.897 520.219 320.889 520.33 320.903L520.386 320.941Z" fill="black"/>
<path d="M548.421 323.129L562.506 323.672C562.625 323.665 562.744 323.683 562.855 323.724C562.967 323.766 563.069 323.831 563.154 323.914C563.239 323.997 563.306 324.097 563.35 324.207C563.394 324.318 563.414 324.436 563.41 324.555C563.405 324.673 563.376 324.79 563.323 324.896C563.271 325.003 563.196 325.098 563.105 325.174C563.014 325.25 562.907 325.307 562.793 325.34C562.678 325.373 562.558 325.381 562.44 325.365L548.355 324.804C548.131 324.794 547.92 324.696 547.769 324.531C547.617 324.366 547.538 324.148 547.548 323.924C547.558 323.701 547.656 323.491 547.822 323.34C547.987 323.189 548.206 323.11 548.43 323.12L548.421 323.129Z" fill="black"/>
<path d="M576.534 323.906L590.618 323.831C590.739 323.818 590.86 323.831 590.975 323.868C591.091 323.906 591.197 323.967 591.286 324.047C591.376 324.128 591.448 324.227 591.497 324.337C591.547 324.447 591.572 324.566 591.572 324.687C591.572 324.807 591.547 324.927 591.497 325.037C591.448 325.147 591.376 325.246 591.286 325.326C591.197 325.407 591.091 325.468 590.975 325.505C590.86 325.543 590.739 325.555 590.618 325.543L576.534 325.599C576.415 325.611 576.294 325.599 576.18 325.562C576.066 325.525 575.962 325.465 575.873 325.385C575.784 325.305 575.712 325.208 575.664 325.099C575.615 324.99 575.59 324.872 575.59 324.752C575.59 324.633 575.615 324.515 575.664 324.406C575.712 324.297 575.784 324.199 575.873 324.12C575.962 324.04 576.066 323.98 576.18 323.943C576.294 323.906 576.415 323.893 576.534 323.906Z" fill="black"/>
<path d="M604.668 323.505L618.752 322.943C618.969 322.956 619.173 323.049 619.325 323.203C619.477 323.358 619.565 323.563 619.573 323.779C619.582 323.995 619.509 324.206 619.369 324.372C619.229 324.537 619.033 324.645 618.818 324.674L604.733 325.226C604.504 325.235 604.281 325.152 604.113 324.997C603.945 324.842 603.845 324.626 603.837 324.398C603.828 324.17 603.911 323.947 604.066 323.78C604.222 323.612 604.438 323.513 604.668 323.505Z" fill="black"/>
<path d="M632.762 322.11L646.781 320.922C647.006 320.916 647.225 320.996 647.393 321.145C647.561 321.295 647.665 321.503 647.684 321.726C647.703 321.95 647.636 322.172 647.496 322.348C647.356 322.524 647.154 322.64 646.931 322.672L632.846 323.86C632.728 323.877 632.609 323.87 632.494 323.839C632.379 323.808 632.272 323.754 632.178 323.68C632.085 323.607 632.008 323.515 631.952 323.411C631.895 323.306 631.861 323.192 631.851 323.074C631.841 322.956 631.855 322.837 631.892 322.724C631.93 322.612 631.99 322.508 632.069 322.42C632.148 322.331 632.245 322.26 632.352 322.21C632.46 322.16 632.577 322.132 632.696 322.129L632.762 322.11Z" fill="black"/>
<path d="M660.75 319.35L674.703 317.395C674.936 317.372 675.17 317.437 675.358 317.578C675.545 317.718 675.674 317.923 675.717 318.153C675.737 318.384 675.671 318.614 675.53 318.799C675.39 318.984 675.185 319.111 674.956 319.154L660.975 321.109C660.744 321.141 660.509 321.08 660.322 320.94C660.136 320.8 660.012 320.591 659.98 320.361C659.961 320.245 659.966 320.128 659.994 320.015C660.022 319.901 660.073 319.795 660.143 319.702C660.213 319.608 660.301 319.53 660.402 319.471C660.503 319.412 660.615 319.374 660.731 319.36L660.75 319.35Z" fill="black"/>
<path d="M688.525 315.047L702.309 312.287C702.514 312.302 702.708 312.383 702.862 312.518C703.017 312.653 703.122 312.835 703.163 313.036C703.203 313.237 703.176 313.445 703.087 313.629C702.997 313.813 702.849 313.963 702.666 314.055L688.825 316.815C688.624 316.796 688.435 316.712 688.285 316.577C688.135 316.442 688.033 316.262 687.994 316.064C687.955 315.867 687.981 315.662 688.068 315.481C688.155 315.299 688.299 315.15 688.478 315.056L688.525 315.047Z" fill="black"/>
<path d="M716.02 309.117L729.607 305.516C729.841 305.46 730.087 305.496 730.295 305.616C730.503 305.737 730.656 305.931 730.724 306.161C730.78 306.394 730.744 306.639 730.623 306.846C730.503 307.053 730.307 307.207 730.076 307.274L716.433 310.876C716.308 310.947 716.168 310.988 716.025 310.996C715.881 311.004 715.738 310.98 715.605 310.924C715.473 310.868 715.355 310.783 715.26 310.675C715.166 310.566 715.098 310.438 715.062 310.299C715.025 310.161 715.021 310.015 715.05 309.875C715.079 309.735 715.14 309.603 715.228 309.489C715.316 309.376 715.429 309.284 715.558 309.222C715.687 309.159 715.829 309.126 715.973 309.127L716.02 309.117Z" fill="black"/>
<path d="M743.044 301.483L756.396 297.002C756.616 296.967 756.841 297.01 757.032 297.124C757.222 297.239 757.366 297.417 757.437 297.627C757.508 297.837 757.502 298.066 757.42 298.272C757.337 298.478 757.185 298.648 756.988 298.752L743.617 303.242C743.401 303.272 743.181 303.225 742.996 303.111C742.81 302.996 742.67 302.821 742.6 302.615C742.53 302.41 742.535 302.186 742.612 301.983C742.69 301.78 742.836 301.61 743.026 301.502L743.044 301.483Z" fill="black"/>
<path d="M769.54 292.072L782.507 286.683C782.622 286.625 782.748 286.591 782.877 286.584C783.006 286.576 783.135 286.595 783.256 286.64C783.377 286.684 783.488 286.753 783.581 286.842C783.675 286.931 783.749 287.038 783.798 287.156C783.848 287.275 783.873 287.403 783.871 287.531C783.869 287.66 783.841 287.787 783.787 287.904C783.734 288.021 783.657 288.126 783.561 288.212C783.465 288.298 783.353 288.364 783.23 288.405L770.197 293.803C770.082 293.875 769.952 293.922 769.816 293.939C769.681 293.956 769.544 293.944 769.413 293.903C769.283 293.862 769.164 293.793 769.063 293.701C768.962 293.609 768.883 293.497 768.83 293.371C768.778 293.246 768.753 293.111 768.759 292.975C768.764 292.839 768.799 292.706 768.861 292.585C768.923 292.464 769.011 292.358 769.119 292.274C769.226 292.19 769.351 292.131 769.484 292.1L769.54 292.072Z" fill="black"/>
<path d="M795.248 280.836L807.784 274.531C807.998 274.458 808.232 274.465 808.442 274.55C808.652 274.636 808.824 274.794 808.926 274.996C809.027 275.198 809.053 275.429 808.996 275.648C808.94 275.867 808.806 276.058 808.619 276.186L796.056 282.482C795.945 282.549 795.822 282.591 795.694 282.608C795.566 282.625 795.436 282.615 795.312 282.58C795.188 282.544 795.072 282.483 794.973 282.401C794.874 282.319 794.792 282.218 794.734 282.103C794.676 281.988 794.642 281.862 794.634 281.734C794.627 281.606 794.646 281.477 794.691 281.356C794.736 281.236 794.805 281.126 794.895 281.033C794.984 280.94 795.092 280.867 795.211 280.817L795.248 280.836Z" fill="black"/>
<path d="M820.087 267.758L832.181 260.602C832.384 260.533 832.605 260.537 832.806 260.611C833.008 260.685 833.177 260.826 833.287 261.01C833.397 261.194 833.44 261.409 833.41 261.621C833.379 261.833 833.277 262.028 833.12 262.173L821.007 269.386C820.903 269.477 820.781 269.545 820.648 269.584C820.515 269.622 820.375 269.631 820.239 269.61C820.102 269.589 819.972 269.537 819.857 269.46C819.743 269.383 819.647 269.281 819.576 269.162C819.506 269.044 819.462 268.911 819.449 268.774C819.436 268.636 819.454 268.498 819.501 268.368C819.548 268.238 819.623 268.121 819.721 268.023C819.819 267.926 819.938 267.851 820.068 267.805L820.087 267.758Z" fill="black"/>
<path d="M844.077 253.136L855.757 245.352C855.853 245.245 855.972 245.161 856.105 245.107C856.238 245.053 856.382 245.029 856.525 245.039C856.669 245.049 856.808 245.092 856.932 245.164C857.057 245.236 857.163 245.335 857.242 245.455C857.322 245.574 857.373 245.71 857.391 245.852C857.41 245.994 857.395 246.139 857.349 246.274C857.303 246.41 857.226 246.533 857.124 246.635C857.022 246.736 856.898 246.812 856.762 246.858L845.044 254.679C844.845 254.757 844.625 254.765 844.421 254.702C844.217 254.638 844.041 254.507 843.922 254.331C843.802 254.154 843.747 253.942 843.765 253.73C843.783 253.518 843.873 253.318 844.02 253.164L844.077 253.136Z" fill="black"/>
<path d="M867.195 237.252L878.463 228.832C878.652 228.763 878.858 228.757 879.051 228.814C879.245 228.871 879.414 228.988 879.535 229.149C879.656 229.309 879.722 229.504 879.724 229.705C879.725 229.906 879.661 230.102 879.542 230.263L868.275 238.683C868.084 238.755 867.875 238.763 867.68 238.706C867.484 238.649 867.312 238.53 867.191 238.368C867.069 238.205 867.003 238.007 867.004 237.804C867.005 237.601 867.072 237.404 867.195 237.242V237.252Z" fill="black"/>
<path d="M889.467 220.131C893.044 217.137 896.481 213.985 899.796 210.711C899.967 210.565 900.188 210.489 900.413 210.499C900.638 210.509 900.852 210.603 901.01 210.763C901.168 210.923 901.26 211.137 901.266 211.361C901.272 211.586 901.193 211.805 901.044 211.973C897.683 215.279 894.202 218.45 890.603 221.488C890.42 221.562 890.217 221.577 890.025 221.53C889.832 221.484 889.66 221.377 889.532 221.227C889.403 221.076 889.326 220.889 889.311 220.692C889.296 220.496 889.344 220.299 889.448 220.131H889.467Z" fill="black"/>
<path d="M909.502 200.598L918.723 190.037C918.799 189.951 918.891 189.88 918.994 189.83C919.097 189.779 919.209 189.749 919.324 189.742C919.439 189.735 919.554 189.75 919.662 189.787C919.771 189.824 919.872 189.882 919.958 189.957C920.044 190.033 920.115 190.124 920.165 190.227C920.216 190.33 920.246 190.441 920.254 190.556C920.261 190.67 920.246 190.785 920.209 190.893C920.172 191.001 920.114 191.101 920.038 191.187L910.789 201.805C910.632 201.983 910.411 202.091 910.174 202.106C909.937 202.12 909.704 202.041 909.526 201.885C909.348 201.728 909.239 201.508 909.224 201.272C909.209 201.036 909.289 200.804 909.446 200.626L909.502 200.598Z" fill="black"/>
<path d="M927.7 179.241L936.677 168.426C936.823 168.253 937.033 168.143 937.259 168.123C937.486 168.102 937.712 168.171 937.888 168.316C938.063 168.46 938.175 168.667 938.198 168.893C938.221 169.119 938.153 169.344 938.01 169.521L929.043 180.317C928.89 180.473 928.684 180.567 928.464 180.579C928.245 180.591 928.03 180.521 927.86 180.382C927.691 180.243 927.581 180.045 927.551 179.828C927.521 179.612 927.575 179.392 927.7 179.213V179.241Z" fill="black"/>
<path d="M945.956 157.809L955.703 147.612C955.776 147.518 955.869 147.44 955.974 147.384C956.079 147.328 956.195 147.294 956.314 147.286C956.434 147.277 956.553 147.293 956.666 147.333C956.778 147.373 956.881 147.436 956.967 147.519C957.054 147.601 957.122 147.7 957.168 147.81C957.213 147.92 957.235 148.039 957.232 148.158C957.228 148.277 957.2 148.394 957.149 148.501C957.097 148.609 957.024 148.704 956.933 148.781L947.233 158.997C947.154 159.077 947.06 159.14 946.956 159.183C946.852 159.226 946.74 159.248 946.628 159.248C946.515 159.248 946.404 159.226 946.3 159.183C946.196 159.14 946.102 159.077 946.022 158.997C945.863 158.835 945.773 158.616 945.773 158.389C945.773 158.162 945.863 157.943 946.022 157.781L945.956 157.809Z" fill="black"/>
<path d="M966.01 138.004L976.649 128.771C976.73 128.687 976.828 128.62 976.936 128.575C977.045 128.531 977.161 128.509 977.278 128.512C977.396 128.515 977.511 128.542 977.617 128.591C977.723 128.641 977.818 128.712 977.895 128.8C977.972 128.888 978.03 128.991 978.065 129.102C978.1 129.213 978.112 129.331 978.099 129.447C978.086 129.563 978.049 129.675 977.99 129.776C977.931 129.877 977.852 129.965 977.757 130.034L967.165 139.239C967.082 139.313 966.985 139.369 966.879 139.405C966.774 139.441 966.662 139.455 966.551 139.447C966.44 139.439 966.332 139.41 966.232 139.359C966.133 139.309 966.045 139.24 965.973 139.155C965.825 138.988 965.749 138.768 965.763 138.546C965.777 138.323 965.88 138.115 966.048 137.967L966.01 138.004Z" fill="black"/>
<path d="M987.59 119.884L998.857 111.371C998.944 111.305 999.042 111.257 999.147 111.229C999.252 111.201 999.362 111.194 999.469 111.208C999.577 111.223 999.681 111.258 999.775 111.312C999.869 111.367 999.951 111.439 1000.02 111.525C1000.08 111.611 1000.13 111.709 1000.16 111.814C1000.19 111.918 1000.19 112.027 1000.18 112.135C1000.17 112.242 1000.13 112.345 1000.08 112.439C1000.02 112.532 999.948 112.615 999.862 112.68L988.688 121.175C988.601 121.241 988.501 121.289 988.395 121.317C988.288 121.345 988.177 121.352 988.068 121.337C987.959 121.322 987.854 121.286 987.759 121.231C987.664 121.176 987.581 121.103 987.515 121.016C987.448 120.928 987.399 120.829 987.371 120.723C987.343 120.617 987.337 120.507 987.351 120.398C987.366 120.289 987.402 120.185 987.458 120.09C987.513 119.995 987.587 119.913 987.674 119.846L987.59 119.884Z" fill="black"/>
<path d="M1010.34 103.24L1022.13 95.5315C1022.22 95.4701 1022.32 95.427 1022.42 95.4045C1022.53 95.3821 1022.64 95.3808 1022.75 95.4008C1022.86 95.4208 1022.96 95.4616 1023.05 95.521C1023.14 95.5803 1023.22 95.657 1023.28 95.7467C1023.34 95.8364 1023.39 95.9373 1023.41 96.0437C1023.43 96.15 1023.43 96.2597 1023.41 96.3666C1023.39 96.4734 1023.35 96.5753 1023.29 96.6664C1023.23 96.7575 1023.15 96.8359 1023.06 96.8974L1011.32 104.578C1011.13 104.695 1010.91 104.735 1010.7 104.69C1010.48 104.644 1010.29 104.517 1010.17 104.335C1010.11 104.245 1010.07 104.144 1010.05 104.038C1010.03 103.932 1010.03 103.823 1010.06 103.718C1010.08 103.613 1010.12 103.513 1010.19 103.424C1010.25 103.336 1010.33 103.261 1010.42 103.203L1010.34 103.24Z" fill="black"/>
<path d="M1034.24 88.2825L1046.64 81.5375C1046.83 81.4378 1047.05 81.4163 1047.25 81.4777C1047.46 81.539 1047.63 81.6782 1047.73 81.8649C1047.78 81.9569 1047.81 82.0581 1047.82 82.1627C1047.84 82.2672 1047.83 82.373 1047.8 82.4739C1047.77 82.5748 1047.72 82.6689 1047.65 82.7506C1047.58 82.8324 1047.5 82.9002 1047.41 82.9501L1035.08 89.667C1034.99 89.7308 1034.88 89.7742 1034.77 89.7945C1034.66 89.8148 1034.54 89.8115 1034.43 89.7848C1034.32 89.7582 1034.22 89.7087 1034.12 89.6396C1034.03 89.5706 1033.96 89.4834 1033.9 89.3838C1033.85 89.2842 1033.82 89.1743 1033.81 89.0611C1033.8 88.948 1033.81 88.8342 1033.85 88.7269C1033.89 88.6197 1033.95 88.5214 1034.02 88.4384C1034.1 88.3554 1034.2 88.2896 1034.3 88.245L1034.24 88.2825Z" fill="black"/>
<path d="M1059.33 75.3631L1072.31 69.8249C1072.5 69.7541 1072.72 69.7594 1072.9 69.8398C1073.09 69.9202 1073.24 70.0694 1073.32 70.2568C1073.4 70.4441 1073.41 70.6552 1073.34 70.8464C1073.27 71.0376 1073.12 71.1944 1072.94 71.2843L1060.03 76.7944C1059.93 76.8355 1059.83 76.8573 1059.72 76.8584C1059.62 76.8595 1059.51 76.84 1059.42 76.8009C1059.32 76.7618 1059.23 76.7039 1059.15 76.6306C1059.08 76.5572 1059.02 76.4698 1058.98 76.3734C1058.94 76.277 1058.92 76.1734 1058.91 76.0685C1058.91 75.9637 1058.93 75.8596 1058.97 75.7623C1059.01 75.665 1059.07 75.5764 1059.14 75.5015C1059.22 75.4265 1059.3 75.3668 1059.4 75.3256L1059.33 75.3631Z" fill="black"/>
<path d="M1085.54 64.922L1098.97 60.5813C1099.16 60.5416 1099.36 60.5727 1099.52 60.6687C1099.69 60.7646 1099.81 60.9186 1099.87 61.101C1099.93 61.2834 1099.92 61.4813 1099.84 61.6565C1099.77 61.8317 1099.63 61.9719 1099.45 62.05L1086.07 66.3814C1085.87 66.4459 1085.65 66.4289 1085.47 66.3342C1085.28 66.2394 1085.14 66.0747 1085.07 65.8762C1085.01 65.6777 1085.03 65.4617 1085.12 65.2758C1085.22 65.0898 1085.38 64.9491 1085.58 64.8846L1085.54 64.922Z" fill="black"/>
<path d="M1112.55 56.7458L1126.24 53.3406C1126.34 53.311 1126.44 53.3018 1126.54 53.3135C1126.64 53.3252 1126.74 53.3574 1126.83 53.4083C1126.92 53.4592 1126.99 53.5277 1127.05 53.6094C1127.11 53.691 1127.16 53.7842 1127.18 53.8831C1127.21 53.9796 1127.22 54.0814 1127.21 54.1821C1127.2 54.2829 1127.17 54.3804 1127.12 54.4684C1127.07 54.5563 1127 54.6329 1126.92 54.6932C1126.84 54.7536 1126.74 54.7963 1126.64 54.8187L1113.01 58.2426C1112.91 58.2706 1112.81 58.2784 1112.71 58.2655C1112.61 58.2526 1112.51 58.2193 1112.42 58.1677C1112.33 58.116 1112.26 58.0471 1112.2 57.9651C1112.14 57.8831 1112.09 57.7897 1112.07 57.6906C1112.04 57.5936 1112.04 57.4922 1112.05 57.3923C1112.06 57.2924 1112.09 57.1961 1112.15 57.109C1112.2 57.0219 1112.26 56.9458 1112.34 56.885C1112.43 56.8243 1112.52 56.7801 1112.61 56.7551L1112.55 56.7458Z" fill="black"/>
<path d="M1140 50.309L1153.83 47.5773C1153.92 47.5583 1154.02 47.5576 1154.11 47.5752C1154.2 47.5928 1154.29 47.6283 1154.36 47.6798C1154.44 47.7312 1154.51 47.7975 1154.56 47.8747C1154.61 47.9519 1154.64 48.0384 1154.66 48.1293C1154.7 48.3116 1154.66 48.5007 1154.55 48.655C1154.45 48.8093 1154.29 48.9163 1154.11 48.9525L1140.31 51.7122C1140.12 51.7479 1139.93 51.7079 1139.77 51.6009C1139.61 51.4939 1139.5 51.3288 1139.47 51.1416C1139.45 51.0494 1139.45 50.9543 1139.47 50.8619C1139.48 50.7695 1139.52 50.6816 1139.57 50.6033C1139.63 50.525 1139.69 50.4578 1139.77 50.4057C1139.85 50.3535 1139.94 50.3175 1140.03 50.2996L1140 50.309Z" fill="black"/>
<path d="M1167.66 45.0896L1181.57 42.7789C1181.66 42.7642 1181.75 42.7669 1181.83 42.7867C1181.92 42.8066 1182 42.8432 1182.07 42.8946C1182.14 42.9459 1182.2 43.0109 1182.25 43.0858C1182.3 43.1607 1182.33 43.244 1182.34 43.3308C1182.35 43.418 1182.35 43.5073 1182.33 43.5935C1182.31 43.6798 1182.28 43.7613 1182.22 43.8334C1182.17 43.9055 1182.11 43.9668 1182.03 44.0138C1181.96 44.0608 1181.87 44.0925 1181.79 44.1073L1167.9 46.4367C1167.72 46.4666 1167.53 46.4244 1167.38 46.3194C1167.23 46.2143 1167.13 46.0548 1167.1 45.8754C1167.08 45.7868 1167.09 45.6959 1167.11 45.608C1167.13 45.5202 1167.16 45.4372 1167.22 45.3639C1167.27 45.2907 1167.34 45.2286 1167.41 45.1815C1167.49 45.1344 1167.57 45.1031 1167.66 45.0896Z" fill="black"/>
<path d="M1195.53 40.6092L1209.45 38.495C1209.62 38.4707 1209.79 38.5129 1209.93 38.6126C1210.06 38.7123 1210.16 38.8615 1210.18 39.0282C1210.2 39.1112 1210.19 39.196 1210.17 39.2777C1210.15 39.3594 1210.12 39.4364 1210.07 39.5042C1210.02 39.5721 1209.96 39.6294 1209.88 39.673C1209.81 39.7165 1209.73 39.7454 1209.65 39.7579L1195.73 41.9002C1195.57 41.9165 1195.4 41.8687 1195.27 41.7668C1195.13 41.6648 1195.05 41.5163 1195.02 41.3516C1194.99 41.1868 1195.03 41.0183 1195.13 40.8804C1195.22 40.7424 1195.36 40.6454 1195.53 40.6092Z" fill="black"/>
<path d="M1223.38 36.4459L1237.31 34.3504C1237.47 34.3268 1237.63 34.3668 1237.76 34.4615C1237.89 34.5563 1237.97 34.698 1238 34.8555C1238.02 35.0131 1237.98 35.1735 1237.88 35.3016C1237.79 35.4297 1237.65 35.5149 1237.49 35.5384L1223.56 37.6714C1223.4 37.6929 1223.24 37.6502 1223.1 37.5523C1222.97 37.4544 1222.89 37.3091 1222.86 37.1475C1222.85 37.0675 1222.85 36.9857 1222.87 36.9069C1222.89 36.828 1222.92 36.7537 1222.97 36.6883C1223.02 36.623 1223.08 36.5679 1223.15 36.5262C1223.22 36.4846 1223.3 36.4573 1223.38 36.4459Z" fill="black"/>
<path d="M1251.23 32.2463L1265.18 30.235C1265.33 30.2162 1265.48 30.2565 1265.6 30.3473C1265.72 30.4381 1265.8 30.5723 1265.83 30.7215C1265.84 30.8712 1265.8 31.0224 1265.71 31.1429C1265.62 31.2634 1265.49 31.3438 1265.34 31.367L1251.4 33.4063C1251.26 33.4149 1251.11 33.3685 1251 33.2762C1250.88 33.1839 1250.81 33.0523 1250.78 32.9073C1250.76 32.7622 1250.79 32.614 1250.88 32.4918C1250.96 32.3696 1251.08 32.282 1251.23 32.2463H1251.23Z" fill="black"/>
<path d="M1279.14 28.2975L1293.1 26.4265C1293.25 26.4079 1293.39 26.4462 1293.5 26.533C1293.62 26.6199 1293.69 26.7481 1293.71 26.8895C1293.73 27.031 1293.69 27.174 1293.6 27.2871C1293.52 27.4003 1293.39 27.4743 1293.24 27.4929L1279.29 29.3639C1279.22 29.3758 1279.14 29.3731 1279.07 29.3558C1279 29.3385 1278.94 29.3071 1278.88 29.2635C1278.82 29.2198 1278.77 29.1647 1278.73 29.1016C1278.69 29.0385 1278.67 28.9687 1278.66 28.8962C1278.65 28.8243 1278.66 28.751 1278.67 28.6806C1278.69 28.6101 1278.72 28.5439 1278.77 28.4857C1278.81 28.4274 1278.86 28.3784 1278.93 28.3412C1278.99 28.3041 1279.06 28.2797 1279.13 28.2694L1279.14 28.2975Z" fill="black"/>
<path d="M1307.08 24.7061L1321.07 23.0877C1321.14 23.0797 1321.21 23.0846 1321.27 23.1022C1321.33 23.1197 1321.39 23.1495 1321.44 23.1899C1321.5 23.2303 1321.54 23.2805 1321.57 23.3376C1321.6 23.3947 1321.63 23.4576 1321.63 23.5227C1321.64 23.5878 1321.64 23.6539 1321.62 23.7171C1321.6 23.7803 1321.57 23.8394 1321.53 23.8911C1321.49 23.9428 1321.44 23.986 1321.38 24.0183C1321.33 24.0506 1321.26 24.0713 1321.2 24.0793L1307.22 25.7352C1307.15 25.7443 1307.08 25.7396 1307.01 25.7213C1306.94 25.7031 1306.88 25.6716 1306.83 25.6288C1306.77 25.5861 1306.73 25.5329 1306.69 25.4724C1306.66 25.4119 1306.64 25.3454 1306.63 25.2768C1306.62 25.2089 1306.63 25.1399 1306.65 25.074C1306.67 25.008 1306.7 24.9465 1306.74 24.8932C1306.78 24.8398 1306.84 24.7957 1306.9 24.7635C1306.96 24.7314 1307.03 24.7118 1307.09 24.7061H1307.08Z" fill="black"/>
<path d="M1335.08 21.6078L1349.17 20.2887C1349.23 20.2836 1349.29 20.2907 1349.35 20.3096C1349.41 20.3285 1349.46 20.3588 1349.51 20.3988C1349.56 20.4388 1349.6 20.4877 1349.62 20.5426C1349.65 20.5976 1349.67 20.6576 1349.67 20.7191C1349.68 20.78 1349.67 20.8417 1349.66 20.9003C1349.64 20.959 1349.61 21.0135 1349.57 21.0606C1349.53 21.1077 1349.48 21.1465 1349.43 21.1746C1349.37 21.2027 1349.31 21.2196 1349.25 21.2242L1335.24 22.5713C1335.14 22.5542 1335.04 22.5026 1334.96 22.4245C1334.89 22.3464 1334.85 22.2462 1334.83 22.1395C1334.82 22.0329 1334.85 21.9256 1334.91 21.8345C1334.96 21.7435 1335.05 21.6736 1335.15 21.6358L1335.08 21.6078Z" fill="black"/>
<path d="M1363.16 19.1767L1377.25 18.2412C1377.3 18.2374 1377.35 18.2444 1377.4 18.2618C1377.46 18.2791 1377.5 18.3064 1377.54 18.3422C1377.58 18.378 1377.62 18.4214 1377.64 18.4699C1377.66 18.5185 1377.68 18.5711 1377.68 18.6248C1377.68 18.6779 1377.68 18.7315 1377.66 18.7823C1377.64 18.8332 1377.62 18.8801 1377.58 18.9204C1377.55 18.9607 1377.5 18.9934 1377.46 19.0165C1377.41 19.0397 1377.36 19.0528 1377.3 19.0551L1363.22 19.9906C1363.16 19.9944 1363.1 19.9868 1363.05 19.9681C1362.99 19.9495 1362.94 19.9202 1362.9 19.882C1362.85 19.8437 1362.82 19.7973 1362.79 19.7453C1362.77 19.6933 1362.75 19.6368 1362.75 19.579C1362.74 19.5217 1362.75 19.464 1362.77 19.4092C1362.78 19.3545 1362.81 19.3038 1362.85 19.2602C1362.89 19.2166 1362.93 19.1809 1362.99 19.1554C1363.04 19.1298 1363.09 19.1148 1363.15 19.1113L1363.16 19.1767Z" fill="black"/>
<path d="M1391.3 17.5678L1405.39 17.1094C1405.47 17.123 1405.55 17.1658 1405.6 17.23C1405.66 17.2943 1405.69 17.3759 1405.69 17.4602C1405.69 17.5445 1405.66 17.6261 1405.6 17.6903C1405.55 17.7546 1405.47 17.7974 1405.39 17.811L1391.3 18.3255C1391.25 18.328 1391.2 18.3205 1391.15 18.3034C1391.11 18.2863 1391.06 18.26 1391.03 18.226C1390.99 18.192 1390.96 18.151 1390.94 18.1054C1390.92 18.0599 1390.91 18.0106 1390.91 17.9607C1390.9 17.9105 1390.91 17.86 1390.93 17.8124C1390.94 17.7649 1390.97 17.7213 1391 17.6844C1391.04 17.6474 1391.08 17.618 1391.13 17.598C1391.17 17.5779 1391.22 17.5676 1391.27 17.5678H1391.3Z" fill="black"/>
<path d="M1419.47 16.9219L1433.55 17.0061C1433.63 17.0061 1433.7 17.0366 1433.76 17.091C1433.81 17.1454 1433.84 17.2192 1433.84 17.2961C1433.84 17.373 1433.81 17.4468 1433.76 17.5011C1433.7 17.5555 1433.63 17.5861 1433.55 17.5861H1419.47C1419.38 17.5861 1419.3 17.5526 1419.24 17.4929C1419.18 17.4333 1419.15 17.3524 1419.15 17.268C1419.15 17.2259 1419.15 17.1839 1419.17 17.1448C1419.19 17.1056 1419.21 17.07 1419.24 17.0402C1419.27 17.0104 1419.3 16.987 1419.34 16.9715C1419.38 16.956 1419.43 16.9486 1419.47 16.9499V16.9219Z" fill="black"/>
<path d="M1447.65 17.4082L1461.73 18.2221C1461.8 18.2268 1461.85 18.2545 1461.9 18.2996C1461.94 18.3447 1461.96 18.4039 1461.96 18.4653C1461.95 18.5257 1461.93 18.5819 1461.88 18.622C1461.84 18.6621 1461.78 18.6831 1461.72 18.6805L1447.63 17.9321C1447.56 17.9273 1447.5 17.8963 1447.45 17.8457C1447.41 17.795 1447.38 17.7287 1447.39 17.6608C1447.39 17.5921 1447.42 17.5278 1447.47 17.4809C1447.52 17.434 1447.59 17.408 1447.66 17.4082H1447.65Z" fill="black"/>
<path d="M1475.76 19.3447L1489.79 20.645C1489.83 20.645 1489.88 20.6627 1489.91 20.6943C1489.94 20.7259 1489.96 20.7687 1489.96 20.8134C1489.96 20.8581 1489.94 20.9009 1489.91 20.9325C1489.88 20.964 1489.83 20.9818 1489.79 20.9818L1475.76 19.7469C1475.71 19.74 1475.66 19.7139 1475.63 19.6741C1475.6 19.6342 1475.58 19.5834 1475.58 19.5318C1475.58 19.5051 1475.59 19.479 1475.6 19.4549C1475.61 19.4309 1475.63 19.4095 1475.65 19.392C1475.67 19.3745 1475.69 19.3612 1475.72 19.3531C1475.74 19.345 1475.77 19.3421 1475.8 19.3447H1475.76Z" fill="black"/>
<path d="M1503.82 0.001283L1517.84 1.29228C1517.85 1.29346 1517.87 1.29755 1517.88 1.30431C1517.89 1.31107 1517.91 1.32037 1517.91 1.33167C1517.92 1.34297 1517.93 1.35606 1517.94 1.37017C1517.94 1.38428 1517.94 1.39914 1517.94 1.41389C1517.94 1.42865 1517.94 1.44303 1517.93 1.45621C1517.92 1.46938 1517.91 1.48109 1517.9 1.49065C1517.89 1.50022 1517.88 1.50746 1517.86 1.51194C1517.85 1.51643 1517.83 1.51808 1517.82 1.5168L1503.82 0.281936C1503.78 0.277355 1503.75 0.259586 1503.72 0.231996C1503.7 0.204407 1503.69 0.168912 1503.69 0.132253C1503.69 0.112937 1503.69 0.0940621 1503.7 0.07681C1503.71 0.0595578 1503.72 0.0443013 1503.74 0.032002C1503.75 0.0197026 1503.77 0.0106307 1503.79 0.00534412C1503.81 5.75903e-05 1503.83 -0.00132869 1503.85 0.001283H1503.82Z" fill="black"/>
<path d="M1531.88 2.39697L1545.96 3.18279C1545.97 3.18502 1545.99 3.19191 1545.99 3.20221C1546 3.2125 1546.01 3.22552 1546.01 3.23892H1545.96L1531.88 2.50923C1531.86 2.50692 1531.84 2.49704 1531.82 2.48149C1531.81 2.46595 1531.8 2.44584 1531.8 2.42504C1531.8 2.41437 1531.8 2.40381 1531.81 2.39406C1531.81 2.38431 1531.82 2.3756 1531.83 2.36851C1531.83 2.36142 1531.84 2.35613 1531.85 2.35297C1531.86 2.34981 1531.87 2.34886 1531.89 2.3502L1531.88 2.39697Z" fill="black"/>
<path d="M1560 3.51851L1570.27 3.40625L1560 3.56529V3.51851Z" fill="black"/>
</svg>
