<svg width="26" height="50" viewBox="0 0 26 50" fill="none" xmlns="http://www.w3.org/2000/svg">
<path d="M24.0871 3.87851L4.26979 2.35943L2.55291 24.7572C9.56905 22.2694 13.7707 21.0301 18.8512 20.8421C20.0915 20.7962 21.3843 20.8129 22.7831 20.8894L24.0871 3.87851Z" fill="url(#paint0_linear_6140_8433)"/>
<path fill-rule="evenodd" clip-rule="evenodd" d="M18.8512 20.8421L18.6544 23.4092L18.4576 25.9763L2.55291 24.7572C9.56905 22.2694 13.7707 21.0301 18.8512 20.8421Z" fill="#5869DD"/>
<path d="M0.836025 47.1549L20.6533 48.6739L21.6516 35.6503L21.757 34.2763L22.3702 26.2762L18.4576 25.9763L2.55291 24.7572L0.836025 47.1549Z" fill="url(#paint1_linear_6140_8433)"/>
<path d="M18.4576 25.9763L22.3702 26.2762L21.757 34.2763L24.6044 34.4946L24.4246 23.8515L18.6544 23.4092L18.4576 25.9763Z" fill="black"/>
<path d="M24.6044 34.4946L21.757 34.2763L21.6516 35.6503L24.6044 34.4946Z" fill="black"/>
<path d="M4.26979 2.35943L24.0871 3.87851L24.1724 2.86697L4.32422 1.19238L4.26979 2.35943Z" fill="black"/>
<path d="M24.0871 3.87851L22.7831 20.8894C21.3843 20.8129 20.0915 20.7962 18.8512 20.8421L18.6544 23.4092L24.4246 23.8515L24.0871 3.87851Z" fill="#F1EFED"/>
<path d="M20.6533 48.6739L20.596 49.4217L21.3438 49.4791L21.4011 48.7313L20.6533 48.6739ZM0.836025 47.1549L0.0882185 47.0975L0.0308959 47.8453L0.778702 47.9027L0.836025 47.1549ZM22.3702 26.2762L23.118 26.3336L23.1753 25.5858L22.4275 25.5284L22.3702 26.2762ZM22.7831 20.8894L22.7421 21.6383L23.4748 21.6784L23.5309 20.9468L22.7831 20.8894ZM24.6044 34.4946L24.8777 35.193L25.3631 35.003L25.3543 34.4819L24.6044 34.4946ZM24.1724 2.86697L24.9197 2.92997L24.9827 2.18267L24.2354 2.11962L24.1724 2.86697ZM4.32422 1.19238L4.38727 0.445038L3.61131 0.37957L3.57503 1.15744L4.32422 1.19238ZM4.21247 3.10723L24.0298 4.62631L24.1444 3.1307L4.32711 1.61162L4.21247 3.10723ZM20.7106 47.9261L0.893347 46.407L0.778702 47.9027L20.596 49.4217L20.7106 47.9261ZM1.58383 47.2122L3.30071 24.8145L1.8051 24.6998L0.0882185 47.0975L1.58383 47.2122ZM3.30071 24.8145L5.0176 2.41675L3.52198 2.3021L1.8051 24.6998L3.30071 24.8145ZM23.3393 3.82119L22.0353 20.8321L23.5309 20.9468L24.8349 3.93583L23.3393 3.82119ZM22.8241 20.1406C21.4059 20.063 20.09 20.0457 18.8235 20.0926L18.8789 21.5916C20.0931 21.5466 21.3626 21.5628 22.7421 21.6383L22.8241 20.1406ZM18.8235 20.0926C13.6197 20.2852 9.32508 21.5602 2.30227 24.0503L2.80355 25.464C9.81302 22.9787 13.9216 21.775 18.8789 21.5916L18.8235 20.0926ZM22.4275 25.5284L18.515 25.2285L18.4003 26.7241L22.3129 27.024L22.4275 25.5284ZM18.515 25.2285L2.61023 24.0093L2.49558 25.505L18.4003 26.7241L18.515 25.2285ZM21.6224 26.2189L21.0091 34.219L22.5048 34.3336L23.118 26.3336L21.6224 26.2189ZM24.6617 33.7468L21.8143 33.5285L21.6996 35.0241L24.5471 35.2424L24.6617 33.7468ZM18.1034 20.7847L17.9066 23.3519L19.4022 23.4665L19.599 20.8994L18.1034 20.7847ZM17.9066 23.3519L17.7098 25.919L19.2054 26.0336L19.4022 23.4665L17.9066 23.3519ZM23.3372 3.89118L23.6747 23.8642L25.1744 23.8388L24.837 3.86584L23.3372 3.89118ZM23.6747 23.8642L23.8545 34.5072L25.3543 34.4819L25.1744 23.8388L23.6747 23.8642ZM18.5971 24.157L24.3672 24.5993L24.4819 23.1037L18.7117 22.6614L18.5971 24.157ZM21.0091 34.219L20.9038 35.5929L22.3994 35.7076L22.5048 34.3336L21.0091 34.219ZM20.9038 35.5929L19.9055 48.6166L21.4011 48.7313L22.3994 35.7076L20.9038 35.5929ZM24.331 33.7962L21.3783 34.9519L21.925 36.3487L24.8777 35.193L24.331 33.7962ZM24.8344 3.94151L24.9197 2.92997L23.425 2.80397L23.3397 3.81551L24.8344 3.94151ZM24.2354 2.11962L4.38727 0.445038L4.26117 1.93973L24.1093 3.61431L24.2354 2.11962ZM3.57503 1.15744L3.5206 2.32449L5.01898 2.39437L5.0734 1.22732L3.57503 1.15744Z" fill="black"/>
<defs>
<linearGradient id="paint0_linear_6140_8433" x1="-3.10148" y1="33.1721" x2="28.6631" y2="22.8884" gradientUnits="userSpaceOnUse">
<stop stop-color="#D6FFBB"/>
<stop offset="1" stop-color="#5869DD"/>
</linearGradient>
<linearGradient id="paint1_linear_6140_8433" x1="-3.10148" y1="33.1721" x2="28.6631" y2="22.8884" gradientUnits="userSpaceOnUse">
<stop stop-color="#D6FFBB"/>
<stop offset="1" stop-color="#5869DD"/>
</linearGradient>
</defs>
</svg>
