<svg width="43" height="75" viewBox="0 0 43 75" fill="none" xmlns="http://www.w3.org/2000/svg">
<path fill-rule="evenodd" clip-rule="evenodd" d="M11.6949 6.95658C12.487 7.03868 13.2359 6.78011 13.7959 6.29923L10.2155 2.03625C9.66865 2.48516 9.29171 3.1414 9.213 3.90071C9.0545 5.42991 10.1657 6.79807 11.6949 6.95658Z" fill="black"/>
<path d="M10.2155 2.03625C9.66865 2.48516 9.29171 3.1414 9.213 3.90071C9.0545 5.42991 10.1657 6.79807 11.6949 6.95658C12.487 7.03868 13.2359 6.78011 13.7959 6.29923M10.2155 2.03625C10.7699 1.58106 11.499 1.33903 12.2689 1.41883C13.7981 1.57734 14.9093 2.94549 14.7507 4.4747C14.6743 5.21179 14.3169 5.85176 13.7959 6.29923M10.2155 2.03625L13.7959 6.29923" stroke="black" stroke-width="1.26718"/>
<path fill-rule="evenodd" clip-rule="evenodd" d="M32.8902 9.15384C33.6823 9.23595 34.4312 8.97737 34.9912 8.4965L31.4108 4.23351C30.864 4.68243 30.487 5.33867 30.4083 6.09797C30.2498 7.62718 31.361 8.99534 32.8902 9.15384Z" fill="black"/>
<path d="M31.4108 4.23351C30.864 4.68243 30.487 5.33867 30.4083 6.09797C30.2498 7.62718 31.361 8.99534 32.8902 9.15384C33.6823 9.23595 34.4312 8.97737 34.9912 8.4965M31.4108 4.23351C31.9652 3.77833 32.6943 3.5363 33.4642 3.6161C34.9934 3.7746 36.1046 5.14276 35.9461 6.67197C35.8697 7.40906 35.5122 8.04902 34.9912 8.4965M31.4108 4.23351L34.9912 8.4965" stroke="black" stroke-width="1.26718"/>
<path fill-rule="evenodd" clip-rule="evenodd" d="M18.7574 7.68851C19.5495 7.77061 20.2984 7.51204 20.8584 7.03116L17.278 2.76818C16.7311 3.2171 16.3542 3.87334 16.2755 4.63264C16.117 6.16185 17.2282 7.53001 18.7574 7.68851Z" fill="black"/>
<path d="M17.278 2.76818C16.7311 3.2171 16.3542 3.87334 16.2755 4.63264C16.117 6.16185 17.2282 7.53001 18.7574 7.68851C19.5495 7.77061 20.2984 7.51204 20.8584 7.03116M17.278 2.76818C17.8324 2.313 18.5615 2.07096 19.3314 2.15077C20.8606 2.30927 21.9718 3.67743 21.8132 5.20663C21.7368 5.94372 21.3794 6.58369 20.8584 7.03116M17.278 2.76818L20.8584 7.03116" stroke="black" stroke-width="1.26718"/>
<path fill-rule="evenodd" clip-rule="evenodd" d="M25.8238 8.42142C26.6159 8.50352 27.3648 8.24495 27.9248 7.76407L24.3444 3.50109C23.7976 3.95001 23.4206 4.60625 23.3419 5.36555C23.1834 6.89476 24.2946 8.26292 25.8238 8.42142Z" fill="black"/>
<path d="M24.3444 3.50109C23.7976 3.95001 23.4206 4.60625 23.3419 5.36555C23.1834 6.89476 24.2946 8.26292 25.8238 8.42142C26.6159 8.50352 27.3648 8.24495 27.9248 7.76407M24.3444 3.50109C24.8988 3.04591 25.6279 2.80388 26.3978 2.88368C27.927 3.04218 29.0382 4.41034 28.8797 5.93954C28.8033 6.67663 28.4458 7.3166 27.9248 7.76407M24.3444 3.50109L27.9248 7.76407" stroke="black" stroke-width="1.26718"/>
<path d="M37.4998 6.92971L7.92969 3.86475L4.46563 37.2852C15.0558 33.8465 21.3877 32.1617 28.9917 32.084C30.8481 32.065 32.7803 32.1419 34.8688 32.3123L37.4998 6.92971Z" fill="url(#paint0_linear_5087_4764)"/>
<path fill-rule="evenodd" clip-rule="evenodd" d="M28.9917 32.084L28.5947 35.9145L28.1976 39.745L4.46563 37.2852C15.0558 33.8465 21.3877 32.1617 28.9917 32.084Z" fill="#5869DD"/>
<path d="M1.00157 70.7056L30.5716 73.7706L32.5859 54.3375L32.7984 52.2873L34.0357 40.3501L28.1976 39.745L4.46563 37.2852L1.00157 70.7056Z" fill="url(#paint1_linear_5087_4764)"/>
<path d="M28.1976 39.745L34.0357 40.3501L32.7984 52.2873L37.0471 52.7277L37.2045 36.8069L28.5947 35.9145L28.1976 39.745Z" fill="black"/>
<path d="M37.0471 52.7277L32.7984 52.2873L32.5859 54.3375L37.0471 52.7277Z" fill="black"/>
<path d="M7.92969 3.86475L7.99501 3.23453L7.3648 3.16921L7.29947 3.79942L7.92969 3.86475ZM37.4998 6.92971L38.1333 6.93597L38.139 6.35899L37.5651 6.2995L37.4998 6.92971ZM30.5716 73.7706L30.5063 74.4008L31.1365 74.4661L31.2018 73.8359L30.5716 73.7706ZM1.00157 70.7056L0.371355 70.6403L0.306033 71.2705L0.936246 71.3358L1.00157 70.7056ZM34.0357 40.3501L34.6659 40.4155L34.7312 39.7852L34.101 39.7199L34.0357 40.3501ZM34.8688 32.3123L34.8173 32.9438L35.4351 32.9942L35.499 32.3776L34.8688 32.3123ZM37.0471 52.7277L37.2622 53.3237L37.6764 53.1743L37.6807 52.734L37.0471 52.7277ZM37.2045 36.8069L37.838 36.8132L37.2045 36.8069ZM7.86437 4.49496L37.4344 7.55993L37.5651 6.2995L7.99501 3.23453L7.86437 4.49496ZM30.637 73.1403L1.06689 70.0754L0.936246 71.3358L30.5063 74.4008L30.637 73.1403ZM1.63178 70.7709L5.09584 37.3505L3.83541 37.2198L0.371355 70.6403L1.63178 70.7709ZM5.09584 37.3505L8.5599 3.93007L7.29947 3.79942L3.83541 37.2198L5.09584 37.3505ZM36.8695 6.86439L34.2386 32.247L35.499 32.3776L38.13 6.99503L36.8695 6.86439ZM34.9204 31.6808C32.8156 31.509 30.8638 31.4313 28.9852 31.4505L28.9982 32.7176C30.8324 32.6988 32.7451 32.7747 34.8173 32.9438L34.9204 31.6808ZM28.9852 31.4505C21.2771 31.5292 14.8658 33.242 4.26996 36.6825L4.6613 37.8878C15.2458 34.451 21.4983 32.7942 28.9982 32.7176L28.9852 31.4505ZM34.101 39.7199L28.263 39.1148L28.1323 40.3752L33.9704 40.9803L34.101 39.7199ZM28.263 39.1148L4.53095 36.655L4.40031 37.9154L28.1323 40.3752L28.263 39.1148ZM33.4055 40.2848L32.1682 52.222L33.4286 52.3527L34.6659 40.4155L33.4055 40.2848ZM37.1125 52.0975L32.8637 51.6571L32.7331 52.9176L36.9818 53.3579L37.1125 52.0975ZM28.3615 32.0187L27.9645 35.8492L29.2249 35.9798L29.6219 32.1493L28.3615 32.0187ZM27.9645 35.8492L27.5674 39.6797L28.8278 39.8103L29.2249 35.9798L27.9645 35.8492ZM36.8662 6.92345L36.5709 36.8007L37.838 36.8132L38.1333 6.93597L36.8662 6.92345ZM36.5709 36.8007L36.4136 52.7215L37.6807 52.734L37.838 36.8132L36.5709 36.8007ZM28.5293 36.5447L37.1392 37.4371L37.2698 36.1767L28.66 35.2843L28.5293 36.5447ZM32.1682 52.222L31.9557 54.2722L33.2161 54.4028L33.4286 52.3527L32.1682 52.222ZM31.9557 54.2722L29.9414 73.7052L31.2018 73.8359L33.2161 54.4028L31.9557 54.2722ZM36.8321 52.1317L32.3708 53.7415L32.8009 54.9335L37.2622 53.3237L36.8321 52.1317Z" fill="black"/>
<defs>
<linearGradient id="paint0_linear_5087_4764" x1="-4.31584" y1="50.1616" x2="43.2257" y2="35.7219" gradientUnits="userSpaceOnUse">
<stop stop-color="#D6FFBB"/>
<stop offset="1" stop-color="#5869DD"/>
</linearGradient>
<linearGradient id="paint1_linear_5087_4764" x1="-4.31584" y1="50.1616" x2="43.2257" y2="35.7219" gradientUnits="userSpaceOnUse">
<stop stop-color="#D6FFBB"/>
<stop offset="1" stop-color="#5869DD"/>
</linearGradient>
</defs>
</svg>
