<svg width="799" height="702" viewBox="0 0 799 702" fill="none" xmlns="http://www.w3.org/2000/svg">
<path d="M0.335938 67.3201L14.2337 60.0801L0.335938 67.3201Z" fill="black"/>
<path d="M28.5741 53.6307L43.2545 47.9307C43.2786 47.925 43.3041 47.9276 43.3265 47.9379C43.3488 47.9482 43.3666 47.9656 43.3767 47.9871C43.3868 48.0086 43.3886 48.0328 43.3817 48.0554C43.3748 48.078 43.3598 48.0976 43.3391 48.1107L28.6481 53.7507C28.6397 53.7582 28.6296 53.7637 28.6185 53.7668C28.6075 53.7699 28.5958 53.7705 28.5845 53.7686C28.5731 53.7666 28.5624 53.7622 28.5532 53.7557C28.5439 53.7492 28.5364 53.7407 28.5313 53.731C28.5261 53.7212 28.5234 53.7104 28.5234 53.6995C28.5235 53.6886 28.5262 53.6779 28.5314 53.6682C28.5366 53.6584 28.5441 53.65 28.5533 53.6435C28.5626 53.637 28.5733 53.6326 28.5847 53.6307H28.5741Z" fill="black"/>
<path d="M58.2116 42.9005L73.3679 38.4405C73.3901 38.4328 73.4137 38.4295 73.4372 38.431C73.4608 38.4325 73.4838 38.4386 73.5047 38.4489C73.5257 38.4593 73.5441 38.4737 73.5587 38.4912C73.5734 38.5087 73.5841 38.5289 73.59 38.5505C73.6034 38.5929 73.5987 38.6386 73.5769 38.6778C73.5552 38.717 73.5182 38.7467 73.4737 38.7605L58.3067 43.1305C58.2894 43.1368 58.2709 43.1397 58.2523 43.1391C58.2338 43.1384 58.2156 43.1343 58.1988 43.1268C58.182 43.1193 58.1669 43.1087 58.1546 43.0956C58.1422 43.0825 58.1329 43.0671 58.127 43.0505C58.1217 43.0202 58.1271 42.989 58.1424 42.9619C58.1577 42.9348 58.182 42.9132 58.2116 42.9005Z" fill="black"/>
<path d="M88.6812 34.5108L104.091 30.9308C104.154 30.9184 104.22 30.9291 104.275 30.9606C104.33 30.9922 104.37 31.0423 104.388 31.1008C104.395 31.1304 104.397 31.1611 104.392 31.1913C104.387 31.2214 104.376 31.2503 104.36 31.2764C104.343 31.3024 104.321 31.3251 104.295 31.343C104.269 31.3609 104.239 31.3738 104.208 31.3808L88.787 34.8808C88.7606 34.8883 88.7328 34.8906 88.7054 34.8875C88.6781 34.8845 88.6517 34.8761 88.6279 34.863C88.6041 34.8499 88.5834 34.8322 88.5671 34.8112C88.5508 34.7902 88.5392 34.7662 88.5331 34.7408C88.5268 34.7165 88.5257 34.6913 88.5297 34.6666C88.5337 34.6419 88.5429 34.6181 88.5566 34.5968C88.5704 34.5754 88.5885 34.5568 88.6099 34.542C88.6312 34.5273 88.6555 34.5167 88.6812 34.5108Z" fill="black"/>
<path d="M119.566 27.6406L135.092 24.5006C135.173 24.4857 135.258 24.5014 135.327 24.5444C135.396 24.5874 135.444 24.6542 135.462 24.7306C135.478 24.8086 135.462 24.8895 135.417 24.9565C135.371 25.0235 135.301 25.0715 135.219 25.0906L119.692 28.1506C119.62 28.1656 119.543 28.1531 119.48 28.1158C119.417 28.0784 119.372 28.0191 119.354 27.9506C119.346 27.9171 119.346 27.8825 119.352 27.8487C119.358 27.815 119.372 27.7828 119.392 27.754C119.411 27.7252 119.437 27.7003 119.467 27.6808C119.496 27.6614 119.53 27.6477 119.566 27.6406Z" fill="black"/>
<path d="M150.619 21.4408L166.135 18.3308C166.235 18.3128 166.338 18.332 166.422 18.3842C166.507 18.4364 166.567 18.5176 166.59 18.6108C166.602 18.6575 166.605 18.7062 166.596 18.7537C166.588 18.8012 166.569 18.8465 166.541 18.8869C166.513 18.9273 166.477 18.9618 166.435 18.9882C166.392 19.0147 166.344 19.0326 166.294 19.0408L150.757 22.0408C150.667 22.0587 150.574 22.0425 150.496 21.9957C150.419 21.949 150.365 21.8754 150.344 21.7908C150.34 21.7112 150.364 21.6326 150.415 21.5686C150.465 21.5047 150.537 21.4594 150.619 21.4408Z" fill="black"/>
<path d="M181.663 15.2307L197.221 12.2307C197.28 12.2191 197.341 12.2187 197.4 12.2295C197.459 12.2404 197.516 12.2623 197.566 12.2939C197.616 12.3255 197.659 12.3663 197.692 12.4138C197.726 12.4614 197.749 12.5147 197.76 12.5707C197.772 12.626 197.773 12.683 197.761 12.7383C197.75 12.7937 197.726 12.8463 197.693 12.8929C197.659 12.9396 197.616 12.9794 197.566 13.01C197.516 13.0405 197.459 13.0612 197.401 13.0707L181.832 16.0107C181.722 16.0314 181.609 16.0105 181.516 15.9524C181.423 15.8944 181.358 15.8039 181.335 15.7007C181.316 15.5976 181.339 15.4915 181.4 15.4041C181.461 15.3167 181.555 15.2547 181.663 15.2307Z" fill="black"/>
<path d="M212.82 9.52024L228.484 7.03024C228.552 7.01875 228.621 7.02 228.688 7.03393C228.755 7.04785 228.818 7.07418 228.874 7.11137C228.93 7.14857 228.978 7.19589 229.014 7.25063C229.051 7.30536 229.076 7.3664 229.087 7.43024C229.109 7.56124 229.076 7.69507 228.995 7.80335C228.914 7.91162 228.791 7.98583 228.653 8.01024L213 10.4402C212.935 10.4502 212.869 10.4481 212.806 10.4338C212.742 10.4196 212.682 10.3937 212.629 10.3574C212.576 10.3212 212.531 10.2754 212.496 10.2227C212.462 10.17 212.439 10.1114 212.429 10.0502C212.407 9.93099 212.436 9.8085 212.509 9.7093C212.583 9.6101 212.694 9.54218 212.82 9.52024Z" fill="black"/>
<path d="M244.19 4.87995L259.971 3.12995C260.044 3.12141 260.119 3.12666 260.191 3.14541C260.262 3.16416 260.329 3.19604 260.387 3.23922C260.446 3.2824 260.495 3.33603 260.531 3.39707C260.568 3.4581 260.591 3.52534 260.6 3.59494C260.609 3.66455 260.604 3.73515 260.584 3.80272C260.564 3.87029 260.53 3.9335 260.485 3.98875C260.439 4.044 260.382 4.09021 260.318 4.12473C260.253 4.15925 260.182 4.18141 260.108 4.18995L244.339 5.89995C244.21 5.89518 244.088 5.84738 243.994 5.76512C243.9 5.68286 243.839 5.57153 243.824 5.45111C243.809 5.33069 243.839 5.20906 243.91 5.10804C243.982 5.00703 244.088 4.93325 244.212 4.89995L244.19 4.87995Z" fill="black"/>
<path d="M275.796 1.85017L291.661 1.11016C291.82 1.10221 291.977 1.15463 292.096 1.2559C292.215 1.35717 292.287 1.49899 292.295 1.65017C292.304 1.80134 292.248 1.94949 292.141 2.06201C292.034 2.17453 291.884 2.24221 291.724 2.25016L275.859 2.95017C275.705 2.95017 275.557 2.89222 275.448 2.78907C275.339 2.68593 275.277 2.54603 275.277 2.40017C275.277 2.2543 275.339 2.1144 275.448 2.01126C275.557 1.90811 275.705 1.85017 275.859 1.85017H275.796Z" fill="black"/>
<path d="M307.546 0.970703H323.411C323.582 0.970703 323.746 1.03497 323.867 1.14937C323.988 1.26377 324.056 1.41892 324.056 1.5807C324.056 1.74249 323.988 1.89764 323.867 2.01204C323.746 2.12644 323.582 2.1907 323.411 2.1907H307.546C307.38 2.1907 307.222 2.12855 307.105 2.0179C306.988 1.90725 306.922 1.75719 306.922 1.60071C306.922 1.44423 306.988 1.29416 307.105 1.18351C307.222 1.07286 307.38 1.0107 307.546 1.0107V0.970703Z" fill="black"/>
<path d="M339.256 0.730825L355.121 0.510824C355.302 0.508117 355.476 0.572683 355.607 0.690565C355.737 0.808447 355.814 0.970176 355.819 1.14082C355.819 1.31245 355.749 1.47737 355.622 1.60058C355.496 1.7238 355.324 1.79562 355.142 1.80082L339.277 1.98083C339.184 1.99207 339.088 1.9843 338.998 1.95803C338.908 1.93176 338.824 1.8876 338.753 1.82848C338.682 1.76936 338.625 1.69664 338.586 1.61514C338.547 1.53365 338.527 1.44525 338.527 1.35583C338.527 1.2664 338.547 1.178 338.586 1.09651C338.625 1.01501 338.682 0.94229 338.753 0.883169C338.824 0.824047 338.908 0.779889 338.998 0.753622C339.088 0.727355 339.184 0.719582 339.277 0.730825H339.256Z" fill="black"/>
<path d="M370.993 0.360352H386.858C387.049 0.360352 387.232 0.432 387.367 0.559525C387.502 0.687049 387.578 0.860005 387.578 1.04035C387.578 1.2207 387.502 1.39366 387.367 1.52119C387.232 1.64871 387.049 1.72035 386.858 1.72035H370.993C370.822 1.70041 370.664 1.62178 370.549 1.49929C370.434 1.3768 370.371 1.2189 370.371 1.05535C370.371 0.891805 370.434 0.733912 370.549 0.61142C370.664 0.488927 370.822 0.410293 370.993 0.39035V0.360352Z" fill="black"/>
<path d="M402.744 0.660054L418.609 1.30005C418.811 1.30801 419.002 1.3915 419.138 1.53215C419.275 1.6728 419.347 1.8591 419.339 2.05005C419.331 2.24101 419.242 2.42098 419.094 2.55038C418.945 2.67978 418.748 2.74801 418.546 2.74006L402.681 2.06006C402.584 2.05546 402.488 2.0328 402.4 1.99337C402.312 1.95395 402.233 1.89853 402.168 1.83028C402.103 1.76203 402.052 1.68228 402.02 1.59559C401.987 1.50891 401.973 1.41698 401.977 1.32506C401.982 1.23313 402.006 1.14301 402.048 1.05984C402.09 0.976673 402.148 0.90208 402.221 0.840329C402.293 0.778578 402.377 0.730873 402.469 0.699941C402.56 0.669009 402.658 0.655458 402.755 0.660054H402.744Z" fill="black"/>
<path d="M434.464 2.44057L450.265 4.11057C450.476 4.13565 450.668 4.23749 450.8 4.39439C450.932 4.55129 450.995 4.75085 450.974 4.95057C450.95 5.15078 450.843 5.33383 450.676 5.45947C450.51 5.5851 450.297 5.64305 450.085 5.62057L434.358 3.92057C434.255 3.91069 434.156 3.88145 434.065 3.8346C433.975 3.78775 433.895 3.72424 433.831 3.6478C433.767 3.57136 433.72 3.48355 433.692 3.38956C433.665 3.29557 433.657 3.19731 433.67 3.10057C433.692 2.91675 433.785 2.74705 433.931 2.6249C434.078 2.50275 434.268 2.43699 434.464 2.44057Z" fill="black"/>
<path d="M465.972 6.44067L481.572 9.58067C481.776 9.63831 481.949 9.76612 482.057 9.93874C482.165 10.1114 482.201 10.3162 482.157 10.5126C482.113 10.7089 481.993 10.8825 481.82 10.9989C481.647 11.1152 481.434 11.1658 481.223 11.1407L465.707 7.95068H465.655C465.443 7.90692 465.258 7.7854 465.141 7.61287C465.024 7.44034 464.984 7.23091 465.031 7.03067C465.077 6.83043 465.205 6.65578 465.388 6.54514C465.57 6.43449 465.792 6.39691 466.004 6.44067H465.972Z" fill="black"/>
<path d="M496.857 13.6604C501.912 15.1904 506.915 16.8804 511.844 18.7704C512.059 18.8568 512.23 19.0188 512.321 19.2223C512.411 19.4257 512.415 19.6546 512.33 19.8604C512.241 20.0654 512.07 20.2287 511.854 20.3149C511.638 20.401 511.395 20.403 511.178 20.3204C506.302 18.4304 501.341 16.7404 496.37 15.2104C496.153 15.1441 495.972 14.9989 495.868 14.8067C495.764 14.6144 495.745 14.391 495.815 14.1854C495.885 13.9799 496.039 13.8091 496.242 13.7106C496.445 13.6122 496.682 13.5941 496.899 13.6604H496.857Z" fill="black"/>
<path d="M526.345 25.0206C531.073 27.3106 535.705 29.7906 540.2 32.4706C540.3 32.5303 540.387 32.6081 540.455 32.6995C540.523 32.7909 540.572 32.8941 540.598 33.0032C540.624 33.1123 540.627 33.2252 540.607 33.3354C540.587 33.4456 540.544 33.551 540.481 33.6456C540.417 33.7401 540.335 33.822 540.239 33.8865C540.142 33.951 540.033 33.9968 539.917 34.0214C539.802 34.046 539.683 34.0489 539.566 34.0299C539.449 34.0109 539.338 33.9703 539.238 33.9106C534.796 31.2439 530.213 28.7839 525.488 26.5306C525.277 26.428 525.117 26.2505 525.044 26.0369C524.971 25.8233 524.99 25.5909 525.097 25.3906C525.15 25.2864 525.226 25.1937 525.319 25.1181C525.411 25.0425 525.52 24.9857 525.637 24.951C525.753 24.9164 525.877 24.9047 525.998 24.9167C526.12 24.9286 526.238 24.964 526.345 25.0206Z" fill="black"/>
<path d="M552.999 41.5608C556.954 44.9508 560.614 48.5608 564.252 52.2208C564.335 52.3029 564.399 52.3996 564.443 52.5053C564.486 52.611 564.506 52.7237 564.503 52.837C564.501 52.9503 564.474 53.062 564.425 53.1656C564.377 53.2692 564.307 53.3627 564.22 53.4408C564.134 53.519 564.031 53.5802 563.919 53.6209C563.808 53.6617 563.688 53.6813 563.569 53.6785C563.449 53.6757 563.331 53.6506 563.221 53.6047C563.112 53.5588 563.013 53.4929 562.93 53.4108C559.302 49.7808 555.674 46.1608 551.793 42.8308C551.638 42.6731 551.552 42.4663 551.551 42.2514C551.55 42.0364 551.634 41.8288 551.786 41.6695C551.939 41.5101 552.149 41.4106 552.375 41.3905C552.602 41.3704 552.828 41.4312 553.009 41.5608H552.999Z" fill="black"/>
<path d="M575.377 62.8203C579.186 66.2047 583.382 69.1765 587.889 71.6803C588.008 71.7305 588.114 71.8037 588.201 71.8951C588.288 71.9864 588.353 72.094 588.394 72.2109C588.434 72.3277 588.448 72.4513 588.435 72.5735C588.421 72.6958 588.381 72.814 588.316 72.9207C588.252 73.0274 588.164 73.1201 588.06 73.1928C587.955 73.2656 587.835 73.3168 587.708 73.3431C587.581 73.3695 587.45 73.3704 587.322 73.3458C587.195 73.3212 587.075 73.2716 586.969 73.2003C582.344 70.6286 578.037 67.5763 574.129 64.1003C573.956 63.9372 573.859 63.716 573.859 63.4853C573.859 63.2547 573.956 63.0335 574.129 62.8703C574.293 62.7171 574.512 62.6272 574.743 62.618C574.973 62.6087 575.199 62.6809 575.377 62.8203Z" fill="black"/>
<path d="M602.275 77.4406C607.303 78.8165 612.461 79.7274 617.675 80.1606C617.925 80.1832 618.155 80.2985 618.314 80.4814C618.474 80.6642 618.55 80.8996 618.526 81.1356C618.502 81.3717 618.38 81.5891 618.187 81.74C617.994 81.891 617.745 81.9631 617.495 81.9406C612.165 81.4909 606.894 80.5498 601.757 79.1306C601.637 79.1004 601.525 79.0479 601.427 78.9762C601.329 78.9044 601.247 78.8149 601.187 78.7129C601.126 78.6109 601.087 78.4984 601.073 78.3821C601.058 78.2657 601.069 78.1479 601.103 78.0353C601.138 77.9228 601.196 77.818 601.274 77.7269C601.352 77.6358 601.448 77.5604 601.557 77.505C601.666 77.4496 601.786 77.4154 601.909 77.4043C602.033 77.3933 602.157 77.4056 602.275 77.4406Z" fill="black"/>
<path d="M633.38 80.3306C638.624 80.0318 643.846 79.4576 649.023 78.6106C649.266 78.5839 649.51 78.6456 649.706 78.783C649.903 78.9204 650.037 79.1233 650.081 79.3506C650.112 79.579 650.049 79.81 649.905 79.996C649.762 80.1821 649.548 80.3089 649.308 80.3506C644.058 81.2071 638.762 81.7847 633.443 82.0806C633.32 82.0873 633.196 82.0709 633.079 82.0323C632.962 81.9938 632.854 81.9337 632.762 81.8557C632.67 81.7776 632.594 81.6831 632.541 81.5776C632.487 81.472 632.456 81.3575 632.449 81.2406C632.446 81.0036 632.543 80.7751 632.717 80.6047C632.891 80.4343 633.129 80.3358 633.38 80.3306Z" fill="black"/>
<path d="M664.464 75.4405L679.663 71.3205C679.901 71.2769 680.148 71.3191 680.355 71.4388C680.562 71.5586 680.714 71.7472 680.782 71.9677C680.85 72.1881 680.827 72.4245 680.72 72.6304C680.613 72.8363 680.428 72.9968 680.202 73.0805L664.887 77.2205C664.766 77.2526 664.64 77.262 664.515 77.248C664.39 77.234 664.27 77.1969 664.16 77.1389C664.051 77.0809 663.955 77.003 663.877 76.9097C663.799 76.8165 663.742 76.7097 663.708 76.5955C663.674 76.4812 663.664 76.3618 663.679 76.2439C663.693 76.126 663.733 76.0121 663.794 75.9085C663.855 75.805 663.938 75.7139 664.036 75.6404C664.135 75.567 664.248 75.5126 664.369 75.4805L664.464 75.4405Z" fill="black"/>
<path d="M694.661 66.5802C695.909 66.1602 697.136 65.7102 698.373 65.2802L702.085 63.9802L709.489 61.3702C709.735 61.3005 710 61.3179 710.233 61.4191C710.467 61.5203 710.654 61.6984 710.758 61.9202C710.847 62.151 710.836 62.4056 710.727 62.6286C710.618 62.8515 710.42 63.0247 710.177 63.1102L702.773 65.7202L699.05 67.0302C697.802 67.4602 696.575 67.9102 695.316 68.3202C695.194 68.3716 695.061 68.3984 694.927 68.399C694.793 68.3997 694.66 68.374 694.537 68.3238C694.414 68.2735 694.303 68.1997 694.211 68.107C694.12 68.0143 694.049 67.9046 694.005 67.785C693.96 67.6654 693.942 67.5383 693.952 67.4118C693.962 67.2852 693.999 67.162 694.062 67.0498C694.124 66.9376 694.211 66.8388 694.316 66.7597C694.421 66.6806 694.542 66.6229 694.671 66.5902L694.661 66.5802Z" fill="black"/>
<path d="M724.339 56.02L739.242 50.82C739.366 50.7679 739.5 50.7404 739.636 50.7393C739.772 50.7382 739.906 50.7634 740.032 50.8134C740.157 50.8634 740.27 50.9371 740.364 51.03C740.457 51.123 740.53 51.2331 740.577 51.3536C740.624 51.4741 740.645 51.6025 740.637 51.7308C740.63 51.8591 740.595 51.9845 740.534 52.0995C740.473 52.2144 740.388 52.3163 740.284 52.399C740.18 52.4816 740.059 52.5432 739.929 52.58L725.058 57.75C724.938 57.793 724.809 57.8128 724.68 57.8084C724.551 57.8039 724.424 57.7753 724.307 57.7241C724.19 57.6729 724.085 57.6002 723.998 57.5102C723.911 57.4202 723.843 57.3148 723.8 57.2C723.712 56.9755 723.719 56.7275 723.819 56.5077C723.919 56.2879 724.106 56.1132 724.339 56.02Z" fill="black"/>
<path d="M754.304 46L769.587 41.81C769.716 41.7652 769.854 41.746 769.991 41.7536C770.129 41.7611 770.263 41.7954 770.386 41.8541C770.509 41.9128 770.618 41.9948 770.706 42.095C770.794 42.1951 770.859 42.3113 770.898 42.4363C770.936 42.5613 770.947 42.6925 770.93 42.8217C770.912 42.9508 770.867 43.0752 770.797 43.1872C770.726 43.2991 770.632 43.3962 770.521 43.4724C770.409 43.5485 770.282 43.6022 770.148 43.63H770.095L754.907 47.78C754.777 47.8271 754.637 47.848 754.498 47.8415C754.359 47.835 754.223 47.8013 754.098 47.7424C753.974 47.6835 753.864 47.6007 753.775 47.4994C753.686 47.398 753.62 47.2803 753.582 47.1537C753.543 47.027 753.533 46.8942 753.552 46.7638C753.571 46.6333 753.619 46.5079 753.691 46.3957C753.764 46.2834 753.861 46.1867 753.976 46.1117C754.09 46.0367 754.22 45.9851 754.357 45.96L754.304 46Z" fill="black"/>
<path d="M785.123 38.5605C790.368 37.6588 795.666 37.061 800.988 36.7705C801.216 36.8161 801.422 36.9317 801.573 37.0993C801.724 37.2668 801.813 37.477 801.825 37.6971C801.837 37.9172 801.772 38.1349 801.64 38.3163C801.507 38.4978 801.315 38.6328 801.094 38.7005C795.851 38.9861 790.631 39.5672 785.461 40.4405C785.314 40.5125 785.151 40.5508 784.985 40.5521C784.819 40.5534 784.655 40.5178 784.506 40.4482C784.357 40.3785 784.228 40.2768 784.129 40.1512C784.029 40.0255 783.963 39.8795 783.934 39.725C783.905 39.5705 783.915 39.4118 783.964 39.2616C784.012 39.1115 784.097 38.9742 784.211 38.8609C784.326 38.7475 784.467 38.6612 784.624 38.6091C784.78 38.5569 784.948 38.5403 785.112 38.5605H785.123Z" fill="black"/>
<path d="M799.266 224.35L785.463 231.68C785.351 231.739 785.228 231.777 785.101 231.791C784.974 231.805 784.845 231.795 784.722 231.762C784.598 231.73 784.483 231.674 784.383 231.599C784.282 231.524 784.198 231.431 784.136 231.325C784.073 231.219 784.033 231.103 784.018 230.983C784.003 230.862 784.014 230.741 784.049 230.624C784.083 230.508 784.142 230.399 784.222 230.304C784.301 230.208 784.399 230.129 784.511 230.07L798.356 222.69C798.582 222.595 798.838 222.582 799.073 222.656C799.308 222.729 799.505 222.883 799.627 223.086C799.749 223.29 799.786 223.53 799.731 223.758C799.675 223.986 799.532 224.186 799.329 224.32L799.266 224.35Z" fill="black"/>
<path d="M772.144 239.71C767.834 242.538 763.725 245.631 759.844 248.97C759.656 249.134 759.407 249.222 759.151 249.212C758.895 249.203 758.653 249.098 758.479 248.92C758.306 248.742 758.213 248.507 758.223 248.265C758.233 248.023 758.344 247.794 758.532 247.63C762.476 244.231 766.652 241.081 771.034 238.2C771.245 238.062 771.505 238.008 771.758 238.05C772.011 238.091 772.237 238.224 772.388 238.42C772.535 238.62 772.592 238.868 772.546 239.108C772.501 239.348 772.356 239.561 772.144 239.7V239.71Z" fill="black"/>
<path d="M748.325 259.27L737.008 269.71C736.83 269.882 736.587 269.981 736.332 269.984C736.077 269.986 735.831 269.893 735.649 269.725C735.467 269.557 735.362 269.327 735.359 269.086C735.356 268.845 735.455 268.612 735.633 268.44L747.003 257.94C747.092 257.855 747.199 257.788 747.316 257.742C747.433 257.696 747.558 257.672 747.685 257.672C747.812 257.672 747.937 257.696 748.054 257.742C748.172 257.788 748.278 257.855 748.367 257.94C748.457 258.024 748.528 258.123 748.576 258.233C748.625 258.343 748.65 258.461 748.65 258.58C748.65 258.699 748.625 258.817 748.576 258.927C748.528 259.037 748.457 259.136 748.367 259.22L748.325 259.27Z" fill="black"/>
<path d="M726.434 280.76C723.071 284.565 720 288.592 717.243 292.81C717.112 293.009 716.903 293.152 716.662 293.208C716.421 293.264 716.167 293.229 715.953 293.11C715.846 293.05 715.753 292.971 715.679 292.877C715.606 292.783 715.553 292.676 715.523 292.563C715.493 292.449 715.488 292.331 715.507 292.216C715.527 292.1 715.57 291.989 715.635 291.89C718.435 287.593 721.56 283.492 724.985 279.62C725.145 279.437 725.375 279.321 725.625 279.299C725.875 279.276 726.124 279.349 726.318 279.5C726.511 279.651 726.633 279.869 726.657 280.105C726.681 280.341 726.604 280.577 726.445 280.76H726.434Z" fill="black"/>
<path d="M710.495 306.161C708.818 310.816 707.936 315.693 707.882 320.611C707.882 320.726 707.858 320.84 707.811 320.946C707.764 321.052 707.696 321.149 707.609 321.229C707.523 321.31 707.42 321.374 707.307 321.417C707.194 321.46 707.073 321.482 706.952 321.481C706.83 321.482 706.708 321.46 706.595 321.416C706.482 321.372 706.38 321.308 706.294 321.225C706.208 321.143 706.141 321.046 706.095 320.938C706.05 320.831 706.029 320.716 706.031 320.601C706.081 315.497 706.992 310.433 708.729 305.601C708.766 305.49 708.826 305.388 708.905 305.3C708.984 305.212 709.082 305.14 709.191 305.087C709.3 305.035 709.42 305.004 709.542 304.996C709.664 304.988 709.787 305.003 709.903 305.041C710.137 305.114 710.33 305.272 710.441 305.48C710.553 305.688 710.572 305.929 710.495 306.151V306.161Z" fill="black"/>
<path d="M709.975 335.18C711.443 339.912 713.577 344.436 716.321 348.63C716.383 348.727 716.425 348.834 716.444 348.946C716.462 349.057 716.458 349.171 716.43 349.281C716.402 349.392 716.351 349.495 716.281 349.587C716.21 349.678 716.121 349.756 716.019 349.815C715.917 349.874 715.804 349.914 715.686 349.931C715.567 349.949 715.447 349.944 715.33 349.918C715.214 349.891 715.104 349.844 715.007 349.777C714.91 349.71 714.828 349.626 714.766 349.53C711.935 345.206 709.732 340.54 708.219 335.66C708.166 335.443 708.203 335.215 708.322 335.023C708.442 334.831 708.635 334.689 708.861 334.628C709.088 334.566 709.331 334.589 709.54 334.692C709.749 334.795 709.908 334.969 709.985 335.18H709.975Z" fill="black"/>
<path d="M725.809 360.441C729.374 364.091 733.156 367.547 737.136 370.791C737.316 370.939 737.426 371.149 737.441 371.374C737.457 371.599 737.378 371.821 737.221 371.991C737.064 372.16 736.842 372.264 736.604 372.279C736.366 372.294 736.131 372.219 735.952 372.071C731.918 368.784 728.083 365.285 724.465 361.591C724.328 361.419 724.264 361.205 724.285 360.991C724.307 360.777 724.412 360.579 724.58 360.434C724.749 360.29 724.968 360.211 725.196 360.212C725.423 360.213 725.642 360.295 725.809 360.441Z" fill="black"/>
<path d="M749.364 380.26L761.824 389.56C761.968 389.703 762.053 389.891 762.064 390.088C762.075 390.286 762.011 390.481 761.883 390.638C761.756 390.795 761.573 390.903 761.368 390.944C761.163 390.985 760.95 390.955 760.766 390.86L748.286 381.6C748.149 381.453 748.071 381.267 748.063 381.071C748.055 380.876 748.119 380.685 748.243 380.529C748.367 380.373 748.544 380.262 748.745 380.215C748.945 380.167 749.156 380.187 749.343 380.27L749.364 380.26Z" fill="black"/>
<path d="M774.451 398.5L787.946 406.32C788.134 406.432 788.268 406.608 788.319 406.812C788.371 407.016 788.336 407.231 788.221 407.41C788.164 407.499 788.089 407.576 787.999 407.638C787.91 407.699 787.809 407.743 787.702 407.767C787.595 407.791 787.484 407.795 787.375 407.778C787.266 407.762 787.162 407.725 787.069 407.67L773.488 399.85C773.294 399.736 773.156 399.555 773.102 399.346C773.049 399.136 773.085 398.915 773.203 398.73C773.261 398.64 773.338 398.561 773.429 398.499C773.52 398.436 773.623 398.392 773.732 398.368C773.841 398.344 773.955 398.34 774.065 398.358C774.176 398.375 774.282 398.414 774.377 398.47L774.451 398.5Z" fill="black"/>
<path d="M805.347 618.261C802.124 622.261 798.736 626.114 795.183 629.821C795.142 629.859 795.095 629.889 795.042 629.91C794.989 629.93 794.933 629.941 794.876 629.941C794.819 629.941 794.763 629.93 794.71 629.91C794.657 629.889 794.609 629.859 794.569 629.821C794.528 629.783 794.494 629.738 794.472 629.689C794.449 629.639 794.438 629.585 794.438 629.531C794.438 629.477 794.449 629.423 794.472 629.373C794.494 629.323 794.528 629.278 794.569 629.241C798.095 625.507 801.448 621.657 804.628 617.691C804.665 617.643 804.712 617.604 804.766 617.574C804.82 617.543 804.879 617.524 804.941 617.515C805.003 617.507 805.066 617.51 805.126 617.525C805.187 617.54 805.244 617.565 805.294 617.601C805.344 617.636 805.386 617.681 805.418 617.731C805.45 617.782 805.471 617.839 805.48 617.897C805.488 617.956 805.485 618.015 805.469 618.072C805.454 618.13 805.427 618.183 805.389 618.231L805.347 618.261Z" fill="black"/>
<path d="M784.139 640.621C780.317 644.101 776.379 647.434 772.325 650.621C772.289 650.657 772.246 650.685 772.197 650.705C772.149 650.724 772.097 650.733 772.045 650.732C771.993 650.731 771.942 650.719 771.894 650.698C771.847 650.677 771.805 650.646 771.772 650.609C771.738 650.571 771.713 650.527 771.698 650.479C771.684 650.432 771.68 650.382 771.687 650.333C771.694 650.284 771.713 650.237 771.74 650.196C771.768 650.154 771.805 650.118 771.849 650.091C775.875 646.857 779.785 643.504 783.578 640.031C783.616 639.996 783.661 639.969 783.711 639.95C783.76 639.932 783.813 639.923 783.866 639.924C783.919 639.925 783.971 639.936 784.02 639.956C784.068 639.976 784.112 640.005 784.149 640.041C784.186 640.077 784.215 640.119 784.234 640.166C784.254 640.213 784.263 640.263 784.262 640.313C784.261 640.363 784.25 640.412 784.229 640.458C784.207 640.504 784.177 640.546 784.139 640.581V640.621Z" fill="black"/>
<path d="M759.826 659.93C755.539 662.904 751.17 665.74 746.721 668.44C746.69 668.461 746.654 668.475 746.616 668.482C746.579 668.489 746.54 668.488 746.502 668.481C746.465 668.474 746.429 668.459 746.398 668.438C746.366 668.418 746.34 668.391 746.319 668.36C746.298 668.33 746.283 668.295 746.275 668.259C746.268 668.222 746.268 668.185 746.276 668.149C746.283 668.112 746.299 668.078 746.321 668.047C746.343 668.017 746.371 667.991 746.404 667.97C750.846 665.257 755.19 662.417 759.434 659.45C759.469 659.425 759.508 659.406 759.551 659.395C759.593 659.385 759.637 659.382 759.68 659.388C759.724 659.393 759.766 659.407 759.803 659.428C759.841 659.449 759.874 659.477 759.9 659.51C759.95 659.578 759.971 659.662 759.957 659.745C759.943 659.827 759.896 659.901 759.826 659.95V659.93Z" fill="black"/>
<path d="M733.077 676.11C728.444 678.53 723.73 680.81 718.936 682.95C718.909 682.962 718.879 682.969 718.849 682.97C718.82 682.971 718.79 682.966 718.762 682.957C718.734 682.947 718.708 682.932 718.686 682.913C718.664 682.894 718.647 682.871 718.634 682.845C718.622 682.819 718.615 682.792 718.613 682.764C718.612 682.735 718.617 682.707 718.627 682.681C718.638 682.654 718.653 682.63 718.674 682.609C718.694 682.589 718.718 682.572 718.745 682.56C723.512 680.407 728.204 678.11 732.823 675.67C732.885 675.641 732.957 675.635 733.023 675.653C733.09 675.672 733.147 675.714 733.182 675.77C733.199 675.799 733.21 675.831 733.213 675.863C733.217 675.896 733.214 675.929 733.204 675.961C733.194 675.992 733.178 676.022 733.156 676.047C733.134 676.073 733.107 676.094 733.077 676.11Z" fill="black"/>
<path d="M704.361 688.891C699.425 690.711 694.429 692.377 689.374 693.891C689.335 693.9 689.293 693.895 689.258 693.877C689.222 693.858 689.196 693.827 689.183 693.791C689.177 693.772 689.175 693.752 689.176 693.732C689.178 693.712 689.184 693.692 689.194 693.675C689.204 693.657 689.217 693.641 689.234 693.629C689.25 693.616 689.269 693.606 689.289 693.601C694.324 692.101 699.298 690.434 704.213 688.601C704.261 688.582 704.314 688.582 704.362 688.601C704.409 688.62 704.447 688.656 704.467 688.701C704.486 688.746 704.486 688.796 704.466 688.841C704.447 688.886 704.409 688.922 704.361 688.941V688.891Z" fill="black"/>
<path d="M674.069 697.76C668.907 698.86 663.704 699.761 658.458 700.461C658.436 700.459 658.415 700.452 658.398 700.44C658.381 700.427 658.369 700.41 658.363 700.39C658.359 700.38 658.358 700.369 658.361 700.358C658.363 700.347 658.368 700.336 658.375 700.327C658.382 700.319 658.392 700.312 658.402 700.307C658.413 700.302 658.425 700.3 658.436 700.3C663.668 699.587 668.862 698.664 674.016 697.531C674.033 697.523 674.052 697.52 674.071 697.521C674.089 697.521 674.108 697.526 674.124 697.534C674.141 697.542 674.156 697.553 674.167 697.567C674.179 697.581 674.187 697.598 674.191 697.615C674.195 697.632 674.194 697.65 674.19 697.668C674.186 697.685 674.178 697.701 674.166 697.715C674.154 697.729 674.14 697.74 674.123 697.748C674.106 697.756 674.088 697.76 674.069 697.76Z" fill="black"/>
</svg>
