<svg width="925" height="702" viewBox="0 0 925 702" fill="none" xmlns="http://www.w3.org/2000/svg">
<path d="M0 66.9597L13.8977 59.7197L0 66.9597Z" fill="black"/>
<path d="M28.2382 53.2704L42.9185 47.5703C42.9427 47.5647 42.9682 47.5672 42.9905 47.5775C43.0129 47.5878 43.0307 47.6053 43.0408 47.6268C43.0509 47.6483 43.0527 47.6724 43.0458 47.695C43.0389 47.7176 43.0238 47.7372 43.0032 47.7503L28.3122 53.3903C28.3038 53.3978 28.2936 53.4033 28.2826 53.4064C28.2715 53.4095 28.2599 53.4101 28.2485 53.4082C28.2372 53.4063 28.2265 53.4019 28.2172 53.3954C28.208 53.3888 28.2005 53.3804 28.1953 53.3706C28.1902 53.3609 28.1875 53.3501 28.1875 53.3392C28.1875 53.3283 28.1903 53.3175 28.1954 53.3078C28.2006 53.2981 28.2081 53.2896 28.2174 53.2831C28.2266 53.2766 28.2374 53.2722 28.2487 53.2704H28.2382Z" fill="black"/>
<path d="M57.8756 42.5401L73.0319 38.0801C73.0541 38.0724 73.0777 38.0692 73.1013 38.0707C73.1249 38.0721 73.1479 38.0782 73.1688 38.0886C73.1897 38.0989 73.2081 38.1133 73.2228 38.1308C73.2375 38.1483 73.2481 38.1685 73.2541 38.1901C73.2674 38.2326 73.2627 38.2782 73.241 38.3174C73.2193 38.3567 73.1822 38.3863 73.1377 38.4001L57.9708 42.7701C57.9535 42.7764 57.935 42.7794 57.9164 42.7787C57.8979 42.7781 57.8796 42.7739 57.8628 42.7664C57.846 42.759 57.831 42.7483 57.8186 42.7352C57.8063 42.7221 57.7969 42.7068 57.791 42.6901C57.7858 42.6598 57.7912 42.6287 57.8065 42.6016C57.8218 42.5745 57.8461 42.5529 57.8756 42.5401Z" fill="black"/>
<path d="M88.3453 34.1505L103.755 30.5705C103.818 30.5581 103.884 30.5687 103.939 30.6003C103.994 30.6318 104.034 30.6819 104.052 30.7405C104.059 30.77 104.061 30.8008 104.056 30.8309C104.051 30.8611 104.04 30.89 104.024 30.916C104.007 30.9421 103.985 30.9647 103.959 30.9827C103.933 31.0006 103.903 31.0135 103.872 31.0205L88.451 34.5205C88.4246 34.528 88.3969 34.5303 88.3695 34.5272C88.3421 34.5241 88.3157 34.5158 88.2919 34.5026C88.2681 34.4895 88.2474 34.4719 88.2311 34.4509C88.2148 34.4299 88.2033 34.4059 88.1972 34.3805C88.1909 34.3562 88.1897 34.3309 88.1938 34.3062C88.1978 34.2815 88.2069 34.2578 88.2207 34.2364C88.2345 34.215 88.2526 34.1964 88.2739 34.1817C88.2953 34.1669 88.3195 34.1563 88.3453 34.1505Z" fill="black"/>
<path d="M119.23 27.2802L134.756 24.1402C134.837 24.1254 134.922 24.1411 134.991 24.1841C135.06 24.227 135.109 24.2938 135.126 24.3702C135.142 24.4483 135.126 24.5292 135.081 24.5962C135.035 24.6632 134.965 24.7112 134.883 24.7302L119.357 27.7902C119.284 27.8053 119.207 27.7928 119.144 27.7554C119.081 27.718 119.036 27.6588 119.018 27.5902C119.01 27.5567 119.01 27.5221 119.016 27.4884C119.023 27.4546 119.036 27.4224 119.056 27.3936C119.075 27.3648 119.101 27.34 119.131 27.3205C119.161 27.301 119.194 27.2874 119.23 27.2802Z" fill="black"/>
<path d="M150.283 21.0805L165.799 17.9705C165.899 17.9525 166.002 17.9716 166.086 18.0238C166.171 18.076 166.231 18.1572 166.254 18.2505C166.267 18.2972 166.269 18.3458 166.26 18.3933C166.252 18.4408 166.233 18.4862 166.205 18.5265C166.177 18.5669 166.141 18.6014 166.099 18.6279C166.056 18.6544 166.008 18.6723 165.958 18.6805L150.421 21.6805C150.331 21.6984 150.238 21.6822 150.16 21.6354C150.083 21.5886 150.029 21.515 150.008 21.4305C150.004 21.3509 150.029 21.2723 150.079 21.2083C150.129 21.1443 150.201 21.0991 150.283 21.0805Z" fill="black"/>
<path d="M181.327 14.8704L196.885 11.8704C196.944 11.8587 197.005 11.8583 197.064 11.8692C197.123 11.88 197.18 11.9019 197.23 11.9335C197.28 11.9652 197.323 12.006 197.356 12.0535C197.39 12.101 197.413 12.1543 197.424 12.2104C197.436 12.2656 197.437 12.3226 197.425 12.378C197.414 12.4333 197.39 12.4859 197.357 12.5326C197.323 12.5793 197.28 12.6191 197.23 12.6496C197.18 12.6801 197.123 12.7008 197.065 12.7104L181.496 15.6504C181.386 15.6711 181.273 15.6501 181.18 15.5921C181.087 15.534 181.022 15.4436 180.999 15.3404C180.98 15.2373 181.003 15.1311 181.064 15.0437C181.125 14.9564 181.219 14.8943 181.327 14.8704Z" fill="black"/>
<path d="M212.484 9.15989L228.148 6.66988C228.216 6.65839 228.285 6.65965 228.352 6.67358C228.419 6.6875 228.482 6.71383 228.538 6.75102C228.594 6.78822 228.642 6.83554 228.678 6.89027C228.715 6.94501 228.74 7.00605 228.751 7.06989C228.773 7.20089 228.74 7.33472 228.659 7.44299C228.578 7.55127 228.455 7.62548 228.317 7.64989L212.664 10.0799C212.599 10.0899 212.533 10.0877 212.47 10.0735C212.406 10.0593 212.346 10.0333 212.293 9.99706C212.24 9.96083 212.195 9.91504 212.16 9.86233C212.126 9.80961 212.103 9.75101 212.093 9.68989C212.071 9.57064 212.1 9.44815 212.174 9.34895C212.247 9.24975 212.358 9.18183 212.484 9.15989Z" fill="black"/>
<path d="M243.855 4.5196L259.635 2.7696C259.708 2.76106 259.783 2.76631 259.855 2.78506C259.926 2.80381 259.993 2.83569 260.051 2.87887C260.11 2.92204 260.159 2.97568 260.195 3.03672C260.232 3.09775 260.255 3.16499 260.264 3.23459C260.273 3.30419 260.268 3.3748 260.248 3.44236C260.228 3.50993 260.194 3.57315 260.149 3.6284C260.103 3.68365 260.046 3.72986 259.982 3.76438C259.917 3.7989 259.846 3.82106 259.772 3.82959L244.003 5.53959C243.874 5.53483 243.752 5.48703 243.658 5.40477C243.564 5.32251 243.504 5.21118 243.488 5.09076C243.473 4.97033 243.504 4.8487 243.575 4.74769C243.646 4.64668 243.752 4.5729 243.876 4.53959L243.855 4.5196Z" fill="black"/>
<path d="M275.46 1.48982L291.325 0.749813C291.485 0.741857 291.641 0.79428 291.76 0.89555C291.879 0.996819 291.951 1.13864 291.959 1.28981C291.968 1.44099 291.912 1.58913 291.805 1.70166C291.698 1.81418 291.548 1.88186 291.388 1.88981L275.523 2.58982C275.369 2.58982 275.221 2.53187 275.112 2.42872C275.003 2.32558 274.941 2.18568 274.941 2.03981C274.941 1.89394 275.003 1.75405 275.112 1.65091C275.221 1.54776 275.369 1.48982 275.523 1.48982H275.46Z" fill="black"/>
<path d="M307.21 0.610352H323.075C323.246 0.610352 323.41 0.67462 323.531 0.789017C323.652 0.903414 323.72 1.05857 323.72 1.22035C323.72 1.38213 323.652 1.53729 323.531 1.65169C323.41 1.76608 323.246 1.83035 323.075 1.83035H307.21C307.044 1.83035 306.886 1.76819 306.769 1.65755C306.652 1.5469 306.586 1.39683 306.586 1.24036C306.586 1.08388 306.652 0.933805 306.769 0.823158C306.886 0.712512 307.044 0.650352 307.21 0.650352V0.610352Z" fill="black"/>
<path d="M338.92 0.370474L354.785 0.150472C354.966 0.147766 355.14 0.212332 355.271 0.330213C355.402 0.448095 355.478 0.609825 355.483 0.78047C355.483 0.952102 355.413 1.11702 355.286 1.24023C355.16 1.36345 354.988 1.43527 354.807 1.44047L338.942 1.62047C338.848 1.63172 338.752 1.62394 338.662 1.59768C338.572 1.57141 338.488 1.52725 338.417 1.46813C338.346 1.40901 338.289 1.33628 338.25 1.25479C338.212 1.17329 338.191 1.08489 338.191 0.995474C338.191 0.906053 338.212 0.817653 338.25 0.736158C338.289 0.654663 338.346 0.581939 338.417 0.522817C338.488 0.463696 338.572 0.419538 338.662 0.39327C338.752 0.367003 338.848 0.35923 338.942 0.370474H338.92Z" fill="black"/>
<path d="M370.657 0H386.522C386.713 0 386.896 0.0716482 387.031 0.199173C387.166 0.326698 387.242 0.499653 387.242 0.68C387.242 0.860348 387.166 1.03331 387.031 1.16084C386.896 1.28836 386.713 1.36 386.522 1.36H370.657C370.486 1.34006 370.328 1.26143 370.213 1.13894C370.098 1.01645 370.035 0.858546 370.035 0.695C370.035 0.531454 370.098 0.373561 370.213 0.251068C370.328 0.128575 370.486 0.0499418 370.657 0.0299988V0Z" fill="black"/>
<path d="M402.408 0.299703L418.273 0.939702C418.475 0.947659 418.666 1.03114 418.803 1.1718C418.939 1.31245 419.012 1.49875 419.003 1.6897C418.995 1.88066 418.906 2.06063 418.758 2.19003C418.609 2.31943 418.412 2.38766 418.21 2.3797L402.345 1.6997C402.248 1.69511 402.152 1.67245 402.064 1.63302C401.976 1.5936 401.898 1.53818 401.832 1.46993C401.767 1.40168 401.716 1.32193 401.684 1.23524C401.651 1.14856 401.637 1.05663 401.642 0.964704C401.646 0.872778 401.67 0.78266 401.712 0.699491C401.754 0.616322 401.812 0.541729 401.885 0.479978C401.957 0.418227 402.041 0.370521 402.133 0.339589C402.224 0.308657 402.322 0.295107 402.419 0.299703H402.408Z" fill="black"/>
<path d="M434.128 2.08022L449.929 3.75022C450.14 3.7753 450.332 3.87714 450.464 4.03404C450.597 4.19094 450.659 4.3905 450.638 4.59022C450.614 4.79043 450.507 4.97348 450.34 5.09911C450.174 5.22475 449.961 5.2827 449.749 5.26022L434.022 3.56022C433.919 3.55034 433.82 3.5211 433.729 3.47425C433.639 3.4274 433.559 3.36389 433.495 3.28745C433.431 3.21101 433.384 3.1232 433.356 3.02921C433.329 2.93522 433.321 2.83696 433.335 2.74022C433.356 2.5564 433.449 2.3867 433.596 2.26455C433.742 2.1424 433.932 2.07664 434.128 2.08022Z" fill="black"/>
<path d="M465.636 6.08032L481.237 9.22032C481.44 9.27796 481.613 9.40576 481.721 9.57838C481.83 9.751 481.865 9.95582 481.821 10.1522C481.777 10.3486 481.657 10.5222 481.484 10.6385C481.311 10.7549 481.098 10.8055 480.887 10.7803L465.372 7.59032H465.319C465.107 7.54656 464.922 7.42505 464.805 7.25252C464.688 7.07998 464.648 6.87056 464.695 6.67032C464.741 6.47008 464.869 6.29543 465.052 6.18478C465.234 6.07414 465.456 6.03656 465.668 6.08032H465.636Z" fill="black"/>
<path d="M496.521 13.3001C501.577 14.8301 506.579 16.5201 511.508 18.4101C511.723 18.4964 511.894 18.6585 511.985 18.8619C512.076 19.0653 512.079 19.2942 511.995 19.5001C511.905 19.705 511.734 19.8684 511.518 19.9545C511.302 20.0407 511.059 20.0427 510.842 19.9601C505.966 18.0701 501.005 16.3801 496.034 14.8501C495.817 14.7838 495.636 14.6385 495.532 14.4463C495.428 14.2541 495.409 14.0306 495.479 13.8251C495.549 13.6195 495.703 13.4487 495.906 13.3503C496.109 13.2518 496.346 13.2338 496.563 13.3001H496.521Z" fill="black"/>
<path d="M526.009 24.6602C530.737 26.9502 535.369 29.4302 539.864 32.1102C539.964 32.17 540.051 32.2478 540.119 32.3392C540.187 32.4305 540.236 32.5337 540.262 32.6428C540.288 32.752 540.291 32.8648 540.271 32.9751C540.251 33.0853 540.208 33.1907 540.145 33.2852C540.082 33.3798 539.999 33.4616 539.903 33.5261C539.806 33.5906 539.697 33.6365 539.581 33.6611C539.466 33.6857 539.347 33.6886 539.23 33.6695C539.113 33.6505 539.002 33.61 538.902 33.5502C534.46 30.8836 529.877 28.4236 525.152 26.1702C524.941 26.0676 524.781 25.8901 524.708 25.6765C524.635 25.4629 524.654 25.2306 524.761 25.0302C524.815 24.9261 524.89 24.8334 524.983 24.7578C525.076 24.6822 525.184 24.6253 525.301 24.5907C525.418 24.556 525.541 24.5443 525.662 24.5563C525.784 24.5683 525.902 24.6036 526.009 24.6602Z" fill="black"/>
<path d="M552.663 41.2005C556.618 44.5905 560.278 48.2005 563.916 51.8605C563.999 51.9425 564.064 52.0392 564.107 52.1449C564.15 52.2507 564.17 52.3634 564.168 52.4767C564.165 52.59 564.138 52.7016 564.089 52.8052C564.041 52.9088 563.971 53.0023 563.884 53.0805C563.798 53.1586 563.695 53.2198 563.584 53.2606C563.472 53.3014 563.353 53.3209 563.233 53.3181C563.113 53.3154 562.995 53.2903 562.885 53.2444C562.776 53.1984 562.677 53.1325 562.594 53.0505C558.966 49.4205 555.339 45.8005 551.457 42.4705C551.302 42.3127 551.216 42.106 551.215 41.891C551.214 41.6761 551.298 41.4685 551.45 41.3091C551.603 41.1498 551.813 41.0503 552.039 41.0301C552.266 41.01 552.492 41.0708 552.673 41.2005H552.663Z" fill="black"/>
<path d="M575.041 62.46C578.85 65.8444 583.047 68.8161 587.553 71.32C587.672 71.3702 587.778 71.4433 587.865 71.5347C587.952 71.6261 588.017 71.7337 588.058 71.8505C588.098 71.9674 588.112 72.0909 588.099 72.2132C588.085 72.3354 588.045 72.4537 587.981 72.5604C587.916 72.667 587.829 72.7597 587.724 72.8325C587.619 72.9052 587.499 72.9564 587.372 72.9828C587.245 73.0091 587.114 73.01 586.987 72.9854C586.859 72.9608 586.739 72.9113 586.633 72.84C582.008 70.2682 577.701 67.216 573.793 63.74C573.62 63.5768 573.523 63.3556 573.523 63.125C573.523 62.8943 573.62 62.6731 573.793 62.51C573.957 62.3568 574.176 62.2669 574.407 62.2576C574.637 62.2484 574.863 62.3205 575.041 62.46Z" fill="black"/>
<path d="M601.939 77.0803C606.967 78.4561 612.125 79.3671 617.339 79.8003C617.589 79.8228 617.819 79.9382 617.978 80.121C618.138 80.3039 618.214 80.5392 618.19 80.7753C618.167 81.0113 618.045 81.2287 617.851 81.3797C617.658 81.5306 617.409 81.6028 617.159 81.5803C611.829 81.1306 606.558 80.1894 601.421 78.7703C601.301 78.74 601.189 78.6875 601.091 78.6158C600.993 78.5441 600.912 78.4546 600.851 78.3526C600.79 78.2506 600.751 78.1381 600.737 78.0217C600.722 77.9054 600.733 77.7875 600.767 77.675C600.802 77.5625 600.86 77.4576 600.938 77.3666C601.016 77.2755 601.112 77.2001 601.221 77.1447C601.33 77.0893 601.45 77.055 601.573 77.044C601.697 77.0329 601.821 77.0453 601.939 77.0803Z" fill="black"/>
<path d="M633.044 79.9702C638.288 79.6714 643.51 79.0972 648.687 78.2502C648.93 78.2236 649.174 78.2852 649.37 78.4226C649.567 78.5601 649.701 78.763 649.745 78.9902C649.776 79.2186 649.713 79.4497 649.569 79.6357C649.426 79.8217 649.212 79.9486 648.973 79.9902C643.723 80.8467 638.426 81.4243 633.108 81.7202C632.984 81.727 632.86 81.7106 632.743 81.672C632.626 81.6334 632.518 81.5734 632.426 81.4953C632.334 81.4173 632.258 81.3228 632.205 81.2172C632.151 81.1117 632.12 80.9972 632.113 80.8802C632.11 80.6432 632.207 80.4147 632.381 80.2443C632.555 80.074 632.793 79.9755 633.044 79.9702Z" fill="black"/>
<path d="M664.128 75.0801L679.327 70.9601C679.565 70.9165 679.812 70.9587 680.019 71.0785C680.226 71.1982 680.379 71.3868 680.446 71.6073C680.514 71.8278 680.492 72.0642 680.384 72.2701C680.277 72.4759 680.092 72.6365 679.866 72.7201L664.551 76.8601C664.43 76.8923 664.304 76.9016 664.179 76.8876C664.055 76.8736 663.934 76.8366 663.824 76.7785C663.715 76.7205 663.619 76.6426 663.541 76.5494C663.463 76.4562 663.406 76.3494 663.372 76.2351C663.338 76.1209 663.328 76.0014 663.343 75.8835C663.357 75.7657 663.397 75.6517 663.458 75.5482C663.519 75.4446 663.602 75.3535 663.7 75.2801C663.799 75.2066 663.912 75.1523 664.033 75.1201L664.128 75.0801Z" fill="black"/>
<path d="M694.325 66.2198C695.573 65.7998 696.8 65.3498 698.037 64.9198L701.75 63.6198L709.153 61.0098C709.399 60.9401 709.664 60.9575 709.897 61.0587C710.131 61.1599 710.318 61.3381 710.422 61.5598C710.511 61.7906 710.5 62.0453 710.391 62.2682C710.282 62.4912 710.084 62.6643 709.841 62.7498L702.437 65.3598L698.714 66.6698C697.466 67.0998 696.239 67.5499 694.981 67.9599C694.858 68.0112 694.725 68.0381 694.591 68.0387C694.457 68.0393 694.324 68.0137 694.201 67.9634C694.078 67.9132 693.967 67.8393 693.875 67.7466C693.784 67.6539 693.713 67.5443 693.669 67.4246C693.624 67.305 693.606 67.1779 693.616 67.0514C693.626 66.9249 693.663 66.8016 693.726 66.6894C693.788 66.5772 693.875 66.4785 693.98 66.3994C694.085 66.3203 694.206 66.2626 694.335 66.2298L694.325 66.2198Z" fill="black"/>
<path d="M724.003 55.6596L738.906 50.4596C739.03 50.4075 739.164 50.3801 739.3 50.3789C739.436 50.3778 739.57 50.403 739.696 50.453C739.821 50.503 739.934 50.5768 740.028 50.6697C740.122 50.7626 740.194 50.8727 740.241 50.9932C740.288 51.1138 740.309 51.2421 740.301 51.3704C740.294 51.4987 740.259 51.6242 740.198 51.7391C740.137 51.854 740.052 51.956 739.948 52.0386C739.844 52.1213 739.723 52.1829 739.593 52.2196L724.722 57.3896C724.602 57.4326 724.473 57.4525 724.344 57.448C724.215 57.4436 724.088 57.4149 723.971 57.3637C723.854 57.3126 723.749 57.2399 723.662 57.1499C723.575 57.0599 723.507 56.9544 723.464 56.8396C723.376 56.6151 723.383 56.3671 723.483 56.1473C723.584 55.9275 723.77 55.7528 724.003 55.6596Z" fill="black"/>
<path d="M753.968 45.6397L769.251 41.4497C769.38 41.4049 769.518 41.3856 769.656 41.3932C769.793 41.4008 769.927 41.435 770.05 41.4938C770.173 41.5525 770.282 41.6345 770.37 41.7346C770.458 41.8348 770.523 41.951 770.562 42.076C770.6 42.201 770.611 42.3322 770.594 42.4613C770.576 42.5905 770.531 42.7149 770.461 42.8268C770.391 42.9388 770.297 43.0358 770.185 43.112C770.073 43.1882 769.946 43.2419 769.812 43.2697H769.759L754.571 47.4197C754.441 47.4667 754.302 47.4877 754.162 47.4812C754.023 47.4747 753.887 47.4409 753.762 47.382C753.638 47.3231 753.528 47.2404 753.439 47.139C753.35 47.0377 753.284 46.9199 753.246 46.7933C753.207 46.6667 753.197 46.5339 753.216 46.4034C753.235 46.2729 753.283 46.1476 753.356 46.0353C753.428 45.9231 753.525 45.8264 753.64 45.7514C753.754 45.6764 753.884 45.6247 754.021 45.5997L753.968 45.6397Z" fill="black"/>
<path d="M784.787 38.2002C790.032 37.2984 795.33 36.7007 800.652 36.4102C800.88 36.4558 801.086 36.5714 801.237 36.7389C801.388 36.9065 801.477 37.1166 801.489 37.3367C801.501 37.5568 801.436 37.7745 801.304 37.956C801.171 38.1374 800.979 38.2725 800.758 38.3402C795.515 38.6258 790.295 39.2068 785.125 40.0802C784.978 40.1522 784.815 40.1904 784.649 40.1917C784.483 40.1931 784.319 40.1575 784.17 40.0878C784.021 40.0182 783.892 39.9164 783.793 39.7908C783.693 39.6652 783.627 39.5192 783.598 39.3647C783.569 39.2101 783.579 39.0514 783.628 38.9013C783.676 38.7512 783.761 38.6139 783.875 38.5005C783.99 38.3871 784.131 38.3009 784.288 38.2487C784.444 38.1965 784.612 38.1799 784.776 38.2002H784.787Z" fill="black"/>
<path d="M816.719 36.9602L820.696 37.6202C821.997 37.8702 823.298 38.1502 824.599 38.4402C827.19 39.0202 829.771 39.6902 832.32 40.4402C832.534 40.5518 832.701 40.7299 832.791 40.9444C832.882 41.1589 832.892 41.3966 832.818 41.6169C832.745 41.8372 832.593 42.0267 832.388 42.1531C832.183 42.2795 831.939 42.335 831.696 42.3102C829.2 41.5602 826.672 40.9102 824.123 40.3102C822.843 40.0202 821.564 39.7502 820.273 39.5002L816.434 38.8602H816.37C816.21 38.8721 816.048 38.8491 815.899 38.793C815.749 38.737 815.615 38.6493 815.506 38.5367C815.398 38.4241 815.318 38.2896 815.273 38.1434C815.228 37.9971 815.218 37.8431 815.246 37.693C815.273 37.5429 815.337 37.4008 815.431 37.2773C815.525 37.1539 815.648 37.0525 815.791 36.9808C815.933 36.9092 816.09 36.8692 816.251 36.8639C816.412 36.8586 816.572 36.8881 816.719 36.9502V36.9602Z" fill="black"/>
<path d="M847.125 46.2699C851.87 48.6763 856.268 51.6508 860.209 55.1199C860.336 55.2007 860.443 55.3067 860.523 55.4305C860.602 55.5544 860.653 55.6931 860.67 55.8371C860.687 55.9812 860.671 56.127 860.623 56.2646C860.575 56.4022 860.495 56.5283 860.39 56.634C860.286 56.7398 860.158 56.8227 860.016 56.8771C859.874 56.9315 859.721 56.956 859.567 56.9489C859.414 56.9418 859.265 56.9034 859.129 56.8362C858.993 56.769 858.874 56.6747 858.781 56.5599C854.958 53.2008 850.692 50.3236 846.089 47.9999C845.895 47.8533 845.762 47.6469 845.712 47.4168C845.663 47.1867 845.701 46.9476 845.82 46.7413C845.938 46.5351 846.13 46.3748 846.361 46.2886C846.592 46.2024 846.847 46.1958 847.083 46.2699H847.125Z" fill="black"/>
<path d="M870.322 66.9702C873.069 71.3294 875.327 75.9477 877.059 80.7502C877.15 81.0009 877.132 81.2754 877.009 81.5135C876.886 81.7516 876.668 81.9339 876.403 82.0202C876.14 82.1067 875.851 82.0911 875.599 81.9769C875.347 81.8626 875.154 81.6589 875.06 81.4102C873.381 76.7373 871.19 72.2429 868.524 68.0002C868.382 67.7754 868.34 67.5071 868.405 67.2529C868.47 66.9986 868.638 66.7787 868.873 66.6402C869.112 66.5033 869.398 66.4611 869.669 66.5229C869.941 66.5847 870.175 66.7455 870.322 66.9702Z" fill="black"/>
<path d="M881.195 95.3603C881.723 97.8337 882.192 100.307 882.601 102.78C883.024 105.27 883.384 107.78 883.722 110.25C883.752 110.51 883.674 110.77 883.504 110.975C883.334 111.181 883.086 111.315 882.813 111.35C882.54 111.379 882.266 111.306 882.049 111.148C881.832 110.989 881.689 110.757 881.649 110.5C881.321 108.05 880.951 105.57 880.592 103.11C880.232 100.65 879.714 98.2103 879.185 95.7803C879.157 95.649 879.157 95.5138 879.185 95.3824C879.212 95.2511 879.267 95.1261 879.345 95.0147C879.424 94.9032 879.525 94.8075 879.642 94.733C879.76 94.6585 879.892 94.6066 880.031 94.5803C880.17 94.5541 880.313 94.5539 880.452 94.5799C880.591 94.6059 880.723 94.6575 880.841 94.7318C880.959 94.8061 881.06 94.9016 881.139 95.0129C881.218 95.1242 881.273 95.249 881.3 95.3804L881.195 95.3603Z" fill="black"/>
<path d="M881.894 125.46C880.178 130.286 877.814 134.884 874.86 139.14C874.709 139.352 874.478 139.501 874.215 139.557C873.951 139.613 873.675 139.571 873.443 139.44C873.216 139.297 873.057 139.077 872.998 138.826C872.939 138.574 872.985 138.311 873.126 138.09C875.975 133.97 878.26 129.524 879.927 124.86C880.014 124.615 880.198 124.412 880.441 124.293C880.683 124.173 880.965 124.147 881.228 124.22C881.489 124.303 881.706 124.479 881.833 124.71C881.959 124.942 881.985 125.211 881.904 125.46H881.894Z" fill="black"/>
<path d="M865.169 151.21C861.668 155.01 857.967 158.62 854.138 162.11C854.055 162.244 853.941 162.357 853.804 162.442C853.667 162.526 853.511 162.58 853.348 162.598C853.186 162.616 853.021 162.598 852.867 162.545C852.713 162.493 852.575 162.407 852.461 162.296C852.348 162.184 852.264 162.049 852.216 161.901C852.167 161.754 852.155 161.597 852.182 161.445C852.208 161.292 852.271 161.147 852.366 161.021C852.462 160.896 852.587 160.793 852.731 160.72C856.518 157.26 860.135 153.72 863.615 149.94C863.807 149.814 864.038 149.751 864.272 149.762C864.506 149.773 864.73 149.857 864.908 150.001C865.086 150.146 865.208 150.342 865.255 150.559C865.303 150.776 865.272 151.001 865.169 151.2V151.21Z" fill="black"/>
<path d="M842.397 172.24L830.318 181.98C830.221 182.073 830.103 182.146 829.974 182.194C829.845 182.242 829.707 182.264 829.568 182.259C829.429 182.254 829.293 182.222 829.168 182.165C829.043 182.108 828.932 182.027 828.842 181.927C828.752 181.827 828.685 181.711 828.645 181.585C828.604 181.46 828.592 181.328 828.609 181.197C828.625 181.067 828.67 180.942 828.74 180.828C828.811 180.715 828.905 180.617 829.017 180.54L841.064 170.82C841.272 170.665 841.534 170.589 841.799 170.607C842.063 170.626 842.311 170.738 842.492 170.92C842.657 171.117 842.737 171.365 842.718 171.615C842.698 171.865 842.58 172.099 842.386 172.27L842.397 172.24Z" fill="black"/>
<path d="M817.449 190.93C813.007 193.69 808.438 196.25 803.827 198.73C803.713 198.8 803.586 198.848 803.452 198.869C803.318 198.891 803.182 198.887 803.05 198.857C802.918 198.827 802.794 198.771 802.686 198.694C802.577 198.617 802.487 198.52 802.42 198.409C802.353 198.297 802.31 198.174 802.295 198.047C802.28 197.92 802.293 197.791 802.333 197.668C802.372 197.546 802.438 197.432 802.526 197.334C802.613 197.237 802.721 197.157 802.843 197.1C807.433 194.63 811.96 192.1 816.349 189.35C816.568 189.266 816.81 189.258 817.034 189.326C817.259 189.394 817.451 189.534 817.577 189.722C817.703 189.91 817.755 190.134 817.724 190.355C817.693 190.576 817.581 190.78 817.407 190.93H817.449Z" fill="black"/>
<path d="M798.93 223.99L785.127 231.32C785.015 231.379 784.892 231.416 784.765 231.431C784.638 231.445 784.509 231.435 784.386 231.402C784.262 231.369 784.147 231.314 784.047 231.239C783.946 231.163 783.862 231.07 783.8 230.965C783.737 230.859 783.697 230.743 783.682 230.622C783.667 230.502 783.678 230.38 783.713 230.264C783.747 230.147 783.806 230.038 783.886 229.943C783.965 229.848 784.063 229.769 784.175 229.71L798.02 222.33C798.246 222.234 798.502 222.222 798.737 222.295C798.972 222.369 799.17 222.522 799.291 222.726C799.413 222.93 799.45 223.169 799.395 223.397C799.34 223.626 799.196 223.826 798.993 223.96L798.93 223.99Z" fill="black"/>
<path d="M771.809 239.35C767.498 242.178 763.389 245.271 759.508 248.61C759.32 248.774 759.071 248.861 758.815 248.852C758.559 248.842 758.317 248.737 758.144 248.56C757.97 248.382 757.878 248.146 757.887 247.904C757.897 247.662 758.008 247.434 758.196 247.27C762.14 243.87 766.316 240.72 770.698 237.84C770.909 237.702 771.169 237.648 771.422 237.689C771.675 237.73 771.901 237.863 772.052 238.06C772.199 238.26 772.256 238.507 772.21 238.747C772.165 238.987 772.02 239.2 771.809 239.34V239.35Z" fill="black"/>
<path d="M747.989 258.91L736.672 269.35C736.494 269.522 736.251 269.62 735.996 269.623C735.741 269.626 735.495 269.533 735.313 269.365C735.131 269.196 735.026 268.966 735.024 268.725C735.021 268.484 735.119 268.252 735.297 268.08L746.667 257.58C746.756 257.495 746.863 257.427 746.98 257.381C747.097 257.335 747.222 257.312 747.349 257.312C747.476 257.312 747.601 257.335 747.719 257.381C747.836 257.427 747.942 257.495 748.031 257.58C748.121 257.663 748.192 257.763 748.241 257.873C748.289 257.983 748.314 258.101 748.314 258.22C748.314 258.339 748.289 258.457 748.241 258.566C748.192 258.676 748.121 258.776 748.031 258.86L747.989 258.91Z" fill="black"/>
<path d="M726.098 280.4C722.735 284.204 719.664 288.231 716.907 292.45C716.776 292.649 716.567 292.792 716.326 292.848C716.085 292.904 715.831 292.869 715.617 292.75C715.51 292.69 715.417 292.611 715.344 292.517C715.27 292.423 715.217 292.316 715.187 292.203C715.158 292.089 715.152 291.971 715.172 291.855C715.191 291.74 715.234 291.629 715.299 291.53C718.1 287.232 721.224 283.132 724.649 279.26C724.809 279.077 725.039 278.961 725.289 278.939C725.539 278.916 725.788 278.988 725.982 279.14C726.175 279.291 726.297 279.508 726.321 279.745C726.345 279.981 726.269 280.217 726.109 280.4H726.098Z" fill="black"/>
<path d="M710.159 305.8C708.482 310.455 707.6 315.333 707.546 320.25C707.546 320.365 707.522 320.479 707.475 320.586C707.428 320.692 707.36 320.788 707.273 320.869C707.187 320.95 707.084 321.014 706.971 321.057C706.858 321.1 706.737 321.122 706.616 321.12C706.494 321.122 706.372 321.1 706.259 321.056C706.146 321.012 706.044 320.947 705.958 320.865C705.872 320.783 705.805 320.685 705.76 320.578C705.714 320.471 705.693 320.356 705.696 320.24C705.745 315.137 706.656 310.073 708.393 305.24C708.43 305.13 708.49 305.028 708.569 304.94C708.649 304.851 708.746 304.779 708.855 304.727C708.964 304.675 709.084 304.644 709.206 304.636C709.328 304.628 709.451 304.643 709.567 304.68C709.801 304.754 709.995 304.911 710.106 305.12C710.217 305.328 710.236 305.569 710.159 305.79V305.8Z" fill="black"/>
<path d="M709.639 334.82C711.107 339.552 713.241 344.076 715.985 348.27C716.047 348.366 716.089 348.473 716.108 348.585C716.126 348.697 716.122 348.811 716.094 348.921C716.066 349.031 716.015 349.135 715.945 349.226C715.874 349.318 715.785 349.396 715.683 349.455C715.581 349.514 715.468 349.553 715.35 349.571C715.231 349.589 715.111 349.584 714.994 349.558C714.878 349.531 714.768 349.483 714.671 349.417C714.575 349.35 714.492 349.266 714.43 349.17C711.599 344.845 709.397 340.18 707.883 335.3C707.83 335.083 707.867 334.854 707.986 334.662C708.106 334.47 708.299 334.329 708.525 334.267C708.752 334.206 708.995 334.229 709.204 334.331C709.413 334.434 709.572 334.609 709.649 334.82H709.639Z" fill="black"/>
<path d="M725.473 360.08C729.038 363.731 732.82 367.186 736.8 370.43C736.98 370.579 737.09 370.789 737.105 371.014C737.121 371.239 737.042 371.461 736.885 371.63C736.728 371.8 736.506 371.904 736.268 371.919C736.03 371.934 735.795 371.859 735.616 371.71C731.582 368.424 727.747 364.925 724.129 361.23C723.992 361.059 723.928 360.845 723.949 360.631C723.971 360.417 724.076 360.218 724.244 360.074C724.413 359.93 724.632 359.85 724.86 359.852C725.087 359.853 725.306 359.934 725.473 360.08Z" fill="black"/>
<path d="M749.028 379.9L761.488 389.2C761.632 389.343 761.717 389.53 761.728 389.728C761.739 389.926 761.675 390.121 761.547 390.278C761.42 390.434 761.237 390.543 761.032 390.584C760.827 390.624 760.614 390.595 760.43 390.5L747.95 381.24C747.814 381.093 747.735 380.906 747.727 380.711C747.719 380.516 747.783 380.324 747.907 380.168C748.031 380.012 748.208 379.901 748.409 379.854C748.609 379.807 748.82 379.827 749.007 379.91L749.028 379.9Z" fill="black"/>
<path d="M774.115 398.14L787.61 405.96C787.798 406.071 787.932 406.248 787.984 406.452C788.035 406.656 788 406.87 787.885 407.05C787.828 407.139 787.753 407.216 787.664 407.277C787.574 407.338 787.473 407.382 787.366 407.407C787.259 407.431 787.148 407.435 787.039 407.418C786.93 407.401 786.826 407.365 786.733 407.31L773.152 399.49C772.958 399.376 772.82 399.195 772.766 398.985C772.713 398.776 772.749 398.555 772.867 398.37C772.925 398.279 773.002 398.201 773.093 398.138C773.184 398.076 773.287 398.032 773.396 398.007C773.505 397.983 773.619 397.98 773.729 397.997C773.84 398.015 773.946 398.053 774.041 398.11L774.115 398.14Z" fill="black"/>
<path d="M801.192 413.85C805.67 416.594 809.898 419.688 813.831 423.1C813.979 423.241 814.063 423.431 814.063 423.63C814.063 423.829 813.979 424.019 813.831 424.16C813.681 424.298 813.48 424.375 813.27 424.375C813.061 424.375 812.86 424.298 812.71 424.16C808.826 420.819 804.659 417.786 800.25 415.09C800.153 415.038 800.069 414.967 800.002 414.883C799.935 414.798 799.888 414.702 799.862 414.599C799.836 414.496 799.833 414.39 799.853 414.286C799.872 414.182 799.914 414.083 799.976 413.995C800.038 413.908 800.118 413.833 800.211 413.775C800.305 413.718 800.41 413.679 800.52 413.662C800.63 413.645 800.743 413.649 800.851 413.674C800.959 413.7 801.061 413.746 801.149 413.81L801.192 413.85Z" fill="black"/>
<path d="M823.9 434.87C825.249 437.071 826.392 439.38 827.317 441.77C827.782 442.97 828.184 444.18 828.543 445.4C828.903 446.62 829.189 447.84 829.517 449.06C829.542 449.15 829.547 449.245 829.533 449.337C829.519 449.43 829.485 449.519 829.434 449.6C829.383 449.68 829.315 449.749 829.235 449.804C829.154 449.859 829.063 449.899 828.967 449.92C828.87 449.943 828.769 449.949 828.671 449.936C828.572 449.922 828.477 449.891 828.391 449.842C828.305 449.794 828.231 449.73 828.172 449.654C828.112 449.578 828.07 449.491 828.046 449.4C827.729 448.2 827.412 446.96 827.073 445.78C826.735 444.6 826.333 443.43 825.878 442.27C824.977 439.963 823.865 437.735 822.557 435.61C822.506 435.526 822.473 435.434 822.46 435.339C822.446 435.243 822.453 435.146 822.48 435.053C822.506 434.96 822.552 434.873 822.614 434.797C822.677 434.721 822.754 434.657 822.843 434.61C822.93 434.56 823.027 434.527 823.127 434.513C823.228 434.499 823.331 434.504 823.43 434.528C823.528 434.552 823.621 434.595 823.702 434.654C823.782 434.712 823.85 434.786 823.9 434.87Z" fill="black"/>
<path d="M833.343 463.61L837.035 478.22C837.062 478.389 837.021 478.562 836.92 478.704C836.819 478.845 836.665 478.946 836.488 478.985C836.312 479.024 836.126 478.999 835.969 478.915C835.811 478.83 835.693 478.693 835.638 478.53L831.916 463.96C831.869 463.78 831.9 463.591 832.001 463.434C832.102 463.276 832.266 463.163 832.455 463.119C832.644 463.076 832.844 463.105 833.011 463.201C833.177 463.296 833.297 463.45 833.343 463.629V463.61Z" fill="black"/>
<path d="M831.388 474.89L834.201 489.68C834.232 489.848 834.191 490.021 834.088 490.161C833.986 490.302 833.828 490.398 833.651 490.43C833.474 490.459 833.292 490.42 833.146 490.323C832.999 490.225 832.899 490.077 832.868 489.91L830.034 475.18C830.005 475.091 829.997 474.998 830.01 474.906C830.022 474.814 830.055 474.725 830.106 474.646C830.157 474.567 830.225 474.499 830.305 474.446C830.386 474.393 830.478 474.357 830.574 474.34C830.671 474.323 830.77 474.326 830.865 474.347C830.96 474.369 831.05 474.41 831.128 474.466C831.205 474.523 831.27 474.594 831.316 474.676C831.363 474.757 831.391 474.847 831.398 474.94L831.388 474.89Z" fill="black"/>
<path d="M836.254 504.59C836.797 509.584 837.149 514.584 837.311 519.59C837.317 519.751 837.256 519.906 837.141 520.024C837.026 520.142 836.867 520.213 836.698 520.22C836.614 520.223 836.531 520.21 836.453 520.182C836.375 520.155 836.304 520.113 836.243 520.059C836.182 520.005 836.133 519.94 836.098 519.869C836.064 519.797 836.045 519.719 836.042 519.64C835.83 514.66 835.446 509.687 834.889 504.72C834.874 504.556 834.928 504.393 835.039 504.266C835.149 504.139 835.308 504.058 835.481 504.04C835.654 504.024 835.826 504.072 835.961 504.175C836.096 504.278 836.182 504.427 836.201 504.59H836.254Z" fill="black"/>
<path d="M837.397 534.631L836.9 542.141L836.646 545.891C836.583 547.141 836.392 548.391 836.265 549.641C836.259 549.714 836.237 549.786 836.2 549.851C836.164 549.917 836.115 549.975 836.055 550.023C835.995 550.07 835.926 550.106 835.851 550.128C835.776 550.15 835.698 550.157 835.62 550.151C835.462 550.135 835.316 550.062 835.215 549.946C835.114 549.829 835.066 549.68 835.081 549.531C835.197 548.291 835.387 547.061 835.451 545.811L835.694 542.081L836.17 534.611C836.18 534.457 836.254 534.313 836.376 534.211C836.498 534.108 836.658 534.056 836.82 534.066C836.983 534.075 837.135 534.145 837.243 534.26C837.352 534.375 837.407 534.527 837.397 534.68V534.631Z" fill="black"/>
<path d="M833.345 564.44C832.042 569.31 830.431 574.102 828.522 578.79C828.47 578.922 828.365 579.03 828.229 579.089C828.093 579.148 827.938 579.154 827.798 579.105C827.658 579.056 827.544 578.956 827.481 578.827C827.419 578.699 827.413 578.552 827.465 578.42C829.343 573.767 830.925 569.011 832.203 564.18C832.243 564.039 832.339 563.919 832.472 563.844C832.604 563.769 832.762 563.746 832.912 563.78C832.985 563.797 833.053 563.828 833.114 563.871C833.174 563.914 833.225 563.967 833.263 564.029C833.302 564.09 833.327 564.158 833.337 564.228C833.348 564.299 833.343 564.371 833.324 564.44H833.345Z" fill="black"/>
<path d="M822.041 592.541C819.64 597.011 816.985 601.361 814.129 605.541C814.095 605.595 814.049 605.642 813.995 605.679C813.941 605.716 813.879 605.742 813.814 605.756C813.749 605.77 813.681 605.771 813.616 605.76C813.55 605.749 813.487 605.725 813.431 605.69C813.318 605.623 813.238 605.515 813.208 605.391C813.178 605.268 813.201 605.138 813.273 605.031C816.093 600.811 818.698 596.477 821.089 592.031C821.114 591.962 821.155 591.899 821.208 591.847C821.261 591.794 821.326 591.753 821.397 591.726C821.469 591.699 821.546 591.687 821.623 591.69C821.699 591.693 821.775 591.712 821.843 591.745C821.912 591.778 821.972 591.825 822.02 591.882C822.068 591.939 822.102 592.005 822.121 592.075C822.14 592.146 822.142 592.22 822.128 592.291C822.114 592.363 822.084 592.431 822.041 592.49V592.541Z" fill="black"/>
<path d="M805.011 617.9C801.789 621.9 798.4 625.754 794.847 629.46C794.806 629.498 794.759 629.529 794.706 629.549C794.653 629.57 794.597 629.581 794.54 629.581C794.483 629.581 794.427 629.57 794.374 629.549C794.321 629.529 794.274 629.498 794.233 629.46C794.192 629.423 794.159 629.378 794.136 629.328C794.113 629.278 794.102 629.225 794.102 629.17C794.102 629.116 794.113 629.062 794.136 629.013C794.159 628.963 794.192 628.918 794.233 628.88C797.759 625.147 801.112 621.297 804.292 617.33C804.329 617.283 804.376 617.243 804.43 617.213C804.484 617.183 804.543 617.163 804.605 617.155C804.667 617.147 804.73 617.15 804.791 617.164C804.851 617.179 804.908 617.205 804.958 617.24C805.008 617.276 805.05 617.32 805.082 617.371C805.114 617.422 805.135 617.478 805.144 617.537C805.152 617.595 805.149 617.655 805.134 617.712C805.118 617.769 805.091 617.823 805.053 617.87L805.011 617.9Z" fill="black"/>
<path d="M783.803 640.26C779.981 643.74 776.043 647.074 771.989 650.26C771.953 650.297 771.91 650.325 771.861 650.344C771.813 650.363 771.761 650.373 771.709 650.372C771.657 650.37 771.606 650.359 771.558 650.338C771.511 650.316 771.47 650.286 771.436 650.248C771.402 650.211 771.377 650.167 771.362 650.119C771.348 650.072 771.344 650.022 771.351 649.973C771.359 649.924 771.377 649.877 771.405 649.835C771.432 649.794 771.469 649.758 771.513 649.73C775.539 646.497 779.449 643.144 783.242 639.67C783.28 639.636 783.325 639.608 783.375 639.59C783.424 639.572 783.477 639.563 783.53 639.564C783.583 639.564 783.635 639.575 783.684 639.595C783.732 639.615 783.776 639.644 783.813 639.68C783.85 639.716 783.879 639.759 783.898 639.806C783.918 639.852 783.927 639.902 783.926 639.952C783.925 640.003 783.914 640.052 783.893 640.098C783.871 640.144 783.841 640.186 783.803 640.22V640.26Z" fill="black"/>
<path d="M759.49 659.57C755.203 662.543 750.835 665.38 746.385 668.08C746.354 668.1 746.318 668.114 746.28 668.121C746.243 668.128 746.204 668.128 746.166 668.121C746.129 668.113 746.093 668.099 746.062 668.078C746.031 668.057 746.004 668.031 745.983 668C745.962 667.969 745.947 667.935 745.939 667.898C745.932 667.862 745.932 667.825 745.94 667.788C745.947 667.752 745.963 667.718 745.985 667.687C746.007 667.656 746.035 667.63 746.068 667.61C750.51 664.897 754.854 662.057 759.098 659.09C759.133 659.065 759.172 659.046 759.215 659.035C759.257 659.024 759.301 659.022 759.344 659.027C759.388 659.033 759.43 659.047 759.467 659.068C759.505 659.089 759.538 659.117 759.564 659.15C759.614 659.218 759.635 659.302 759.621 659.384C759.607 659.466 759.56 659.54 759.49 659.59V659.57Z" fill="black"/>
<path d="M732.741 675.75C728.108 678.17 723.394 680.45 718.6 682.59C718.573 682.602 718.543 682.608 718.513 682.609C718.484 682.61 718.454 682.606 718.426 682.596C718.398 682.587 718.372 682.572 718.35 682.552C718.328 682.533 718.311 682.51 718.298 682.485C718.286 682.459 718.279 682.431 718.278 682.403C718.276 682.375 718.281 682.347 718.291 682.321C718.302 682.294 718.317 682.27 718.338 682.249C718.358 682.228 718.382 682.212 718.409 682.2C723.176 680.046 727.868 677.75 732.487 675.31C732.549 675.28 732.621 675.274 732.687 675.293C732.754 675.311 732.811 675.353 732.846 675.41C732.863 675.439 732.874 675.47 732.877 675.503C732.881 675.536 732.878 675.569 732.868 675.6C732.858 675.632 732.842 675.662 732.82 675.687C732.798 675.713 732.771 675.734 732.741 675.75Z" fill="black"/>
<path d="M704.025 688.53C699.089 690.35 694.094 692.017 689.038 693.53C688.999 693.54 688.957 693.535 688.922 693.516C688.886 693.498 688.86 693.467 688.848 693.43C688.841 693.411 688.839 693.391 688.84 693.371C688.842 693.351 688.848 693.332 688.858 693.314C688.868 693.297 688.881 693.281 688.898 693.268C688.914 693.256 688.933 693.246 688.953 693.24C693.988 691.74 698.962 690.074 703.877 688.24C703.925 688.222 703.978 688.222 704.026 688.241C704.073 688.259 704.111 688.295 704.131 688.34C704.15 688.386 704.15 688.436 704.13 688.481C704.111 688.526 704.073 688.562 704.025 688.58V688.53Z" fill="black"/>
<path d="M673.733 697.4C668.571 698.5 663.368 699.4 658.122 700.1C658.1 700.099 658.08 700.092 658.063 700.079C658.046 700.067 658.033 700.05 658.027 700.03C658.023 700.019 658.023 700.008 658.025 699.997C658.027 699.986 658.032 699.976 658.039 699.967C658.046 699.958 658.056 699.951 658.066 699.947C658.077 699.942 658.089 699.94 658.101 699.94C663.332 699.227 668.526 698.303 673.68 697.17C673.697 697.163 673.716 697.16 673.735 697.16C673.753 697.161 673.772 697.165 673.789 697.173C673.805 697.181 673.82 697.193 673.831 697.207C673.843 697.221 673.851 697.237 673.855 697.255C673.859 697.272 673.859 697.29 673.854 697.307C673.85 697.325 673.842 697.341 673.83 697.355C673.819 697.369 673.804 697.38 673.787 697.388C673.77 697.396 673.752 697.4 673.733 697.4Z" fill="black"/>
<path fill-rule="evenodd" clip-rule="evenodd" d="M728.434 245.452L696.824 153.139L511.469 216.608L543.079 308.921L728.434 245.452Z" fill="black"/>
<path d="M665.215 60.825L479.859 124.294L511.469 216.608L696.824 153.139L665.215 60.825Z" fill="black"/>
<path d="M696.824 153.139L665.215 60.825L479.859 124.294L511.469 216.608M696.824 153.139L728.434 245.452L543.079 308.921L511.469 216.608M696.824 153.139L511.469 216.608" stroke="black" stroke-width="1.5"/>
<rect x="482.781" y="117.241" width="195.92" height="195.151" transform="rotate(-18.9021 482.781 117.241)" fill="#F1EFED" stroke="black" stroke-width="1.5"/>
<path d="M705.163 195.938L705.872 195.695L705.629 194.985L684.797 134.147L684.554 133.437L684.311 132.728L663.479 71.8895L663.236 71.1799L662.527 71.4229L498.093 127.728L497.383 127.971L497.626 128.68L518.458 189.519L518.701 190.228L518.944 190.938L539.777 251.776L540.019 252.486L540.729 252.243L705.163 195.938Z" fill="black" stroke="black" stroke-width="1.5"/>
<rect x="500.949" y="124.78" width="172.306" height="128.612" transform="rotate(-18.9021 500.949 124.78)" fill="url(#paint0_linear_6201_6422)" stroke="black" stroke-width="1.5"/>
<path d="M607.852 49.0892L591.794 46.4286L588.787 64.5774C594.689 63.0512 598.205 62.3415 602.364 62.5525C603.379 62.604 604.432 62.7103 605.568 62.8731L607.852 49.0892Z" fill="url(#paint1_linear_6201_6422)"/>
<path fill-rule="evenodd" clip-rule="evenodd" d="M602.364 62.5525L602.019 64.6326L601.674 66.7127L588.787 64.5774C594.689 63.0512 598.205 62.3415 602.364 62.5525Z" fill="#5869DD"/>
<path d="M585.78 82.7262L601.838 85.3868L603.586 74.8337L603.771 73.7204L604.845 67.238L601.674 66.7127L588.787 64.5774L585.78 82.7262Z" fill="url(#paint2_linear_6201_6422)"/>
<path d="M601.674 66.7127L604.845 67.238L603.771 73.7204L606.078 74.1027L606.694 65.4073L602.019 64.6326L601.674 66.7127Z" fill="black"/>
<path d="M606.078 74.1027L603.771 73.7204L603.586 74.8337L606.078 74.1027Z" fill="black"/>
<path d="M591.794 46.4286L607.852 49.0892L607.994 48.2701L591.922 45.4805L591.794 46.4286Z" fill="black"/>
<path d="M607.852 49.0892L605.568 62.8731C604.432 62.7103 603.379 62.604 602.364 62.5525L602.019 64.6326L606.694 65.4073L607.852 49.0892Z" fill="#F1EFED"/>
<path d="M601.838 85.3868L601.737 85.9927L602.343 86.0931L602.443 85.4872L601.838 85.3868ZM585.78 82.7262L585.174 82.6258L585.073 83.2317L585.679 83.3321L585.78 82.7262ZM604.845 67.238L605.451 67.3384L605.551 66.7325L604.945 66.6321L604.845 67.238ZM605.568 62.8731L605.481 63.4811L606.076 63.5664L606.174 62.9735L605.568 62.8731ZM606.078 74.1027L606.251 74.6921L606.66 74.5719L606.69 74.1462L606.078 74.1027ZM607.994 48.2701L608.599 48.3751L608.704 47.77L608.099 47.665L607.994 48.2701ZM591.922 45.4805L592.027 44.8753L591.399 44.7663L591.313 45.3982L591.922 45.4805ZM591.693 47.0346L607.751 49.6952L607.952 48.4833L591.894 45.8227L591.693 47.0346ZM601.938 84.7808L585.88 82.1202L585.679 83.3321L601.737 85.9927L601.938 84.7808ZM586.386 82.8266L589.393 64.6778L588.181 64.477L585.174 82.6258L586.386 82.8266ZM589.393 64.6778L592.4 46.529L591.188 46.3282L588.181 64.477L589.393 64.6778ZM607.246 48.9888L604.962 62.7727L606.174 62.9735L608.458 49.1896L607.246 48.9888ZM605.655 62.2651C604.504 62.1001 603.431 61.9916 602.395 61.939L602.332 63.1659C603.326 63.2163 604.361 63.3206 605.481 63.4811L605.655 62.2651ZM602.395 61.939C598.136 61.7229 594.541 62.4551 588.633 63.9828L588.94 65.172C594.837 63.6473 598.275 62.96 602.332 63.1659L602.395 61.939ZM604.945 66.6321L601.775 66.1068L601.574 67.3187L604.744 67.844L604.945 66.6321ZM601.775 66.1068L588.887 63.9715L588.686 65.1833L601.574 67.3187L601.775 66.1068ZM604.239 67.1376L603.165 73.62L604.376 73.8208L605.451 67.3384L604.239 67.1376ZM606.178 73.4968L603.871 73.1145L603.67 74.3264L605.977 74.7087L606.178 73.4968ZM601.758 62.4521L601.413 64.5322L602.625 64.733L602.969 62.6529L601.758 62.4521ZM601.413 64.5322L601.068 66.6123L602.28 66.8131L602.625 64.733L601.413 64.5322ZM607.239 49.0458L606.082 65.3638L607.307 65.4507L608.464 49.1327L607.239 49.0458ZM606.082 65.3638L605.465 74.0593L606.69 74.1462L607.307 65.4507L606.082 65.3638ZM601.919 65.2385L606.594 66.0132L606.795 64.8013L602.119 64.0266L601.919 65.2385ZM603.165 73.62L602.98 74.7333L604.192 74.9341L604.376 73.8208L603.165 73.62ZM602.98 74.7333L601.232 85.2864L602.443 85.4872L604.192 74.9341L602.98 74.7333ZM605.905 73.5134L603.413 74.2444L603.759 75.4231L606.251 74.6921L605.905 73.5134ZM608.457 49.1942L608.599 48.3751L607.389 48.1651L607.246 48.9842L608.457 49.1942ZM608.099 47.665L592.027 44.8753L591.817 46.0856L607.889 48.8753L608.099 47.665ZM591.313 45.3982L591.185 46.3464L592.402 46.5109L592.531 45.5627L591.313 45.3982Z" fill="black"/>
<path fill-rule="evenodd" clip-rule="evenodd" d="M738.188 172.385L761.698 103.727L899.556 150.932L876.047 219.591L738.188 172.385Z" fill="black"/>
<path d="M761.698 103.727L785.208 35.0683L923.066 82.2734L899.556 150.932M761.698 103.727L738.188 172.385L876.047 219.591L899.556 150.932M761.698 103.727L899.556 150.932" stroke="black" stroke-width="1.3"/>
<rect width="145.716" height="145.144" transform="matrix(-0.946073 -0.323953 -0.323953 0.946073 920.895 77.0273)" fill="#F1EFED" stroke="black" stroke-width="1.3"/>
<path d="M756.955 134.902L756.34 134.691L756.55 134.076L772.225 88.3001L772.436 87.6851L773.051 87.8957L895.348 129.773L895.963 129.983L895.753 130.598L880.078 176.375L879.868 176.989L879.253 176.779L756.955 134.902Z" fill="black" stroke="black" stroke-width="1.3"/>
<rect x="-0.825517" y="0.404378" width="127.969" height="95.4712" transform="matrix(-0.946073 -0.323953 -0.323953 0.946073 908.099 82.0425)" fill="url(#paint3_linear_6201_6422)" stroke="black" stroke-width="1.3"/>
<defs>
<linearGradient id="paint0_linear_6201_6422" x1="495.174" y1="101.868" x2="675.009" y2="231.094" gradientUnits="userSpaceOnUse">
<stop stop-color="#D6FFBB"/>
<stop offset="1" stop-color="#5869DD"/>
</linearGradient>
<linearGradient id="paint1_linear_6201_6422" x1="583.57" y1="71.0367" x2="610.221" y2="64.9255" gradientUnits="userSpaceOnUse">
<stop stop-color="#D6FFBB"/>
<stop offset="1" stop-color="#5869DD"/>
</linearGradient>
<linearGradient id="paint2_linear_6201_6422" x1="583.57" y1="71.0367" x2="610.221" y2="64.9255" gradientUnits="userSpaceOnUse">
<stop stop-color="#D6FFBB"/>
<stop offset="1" stop-color="#5869DD"/>
</linearGradient>
<linearGradient id="paint3_linear_6201_6422" x1="158.018" y1="-69.7783" x2="-32.1868" y2="122.948" gradientUnits="userSpaceOnUse">
<stop stop-color="#5869DD"/>
<stop offset="1" stop-color="#5869DD"/>
</linearGradient>
</defs>
</svg>
