<svg width="995" height="755" viewBox="0 0 995 755" fill="none" xmlns="http://www.w3.org/2000/svg">
<path opacity="0.25" fill-rule="evenodd" clip-rule="evenodd" d="M135.246 136.486H149.726L158.969 150.486H144.489L138.396 141.257L135.246 136.486ZM154.039 136.486H168.519L177.762 150.486H163.282L157.189 141.257L154.039 136.486ZM171.018 267.111V309.936H201.204V284.017L184.505 267.111H171.018ZM214.225 260.838V250.635H217.549L221.665 254.663V260.838H214.225ZM225.914 250.635V260.838H233.354V254.663L229.238 250.635H225.914ZM237.607 260.838V250.635H240.932L245.048 254.663V260.838H237.607ZM198.051 255.513L198.241 255.736L214.223 236.94L212.854 235.329L196.871 254.125H165.219V255.736H198.051V255.513ZM173.065 157.709C173.165 157.701 173.266 157.699 173.366 157.703L173.634 157.715C173.732 157.719 173.829 157.729 173.925 157.744L174.193 157.787C174.281 157.802 174.368 157.821 174.451 157.844L174.72 157.919C174.793 157.939 174.865 157.963 174.934 157.99L175.202 158.096C175.26 158.119 175.317 158.144 175.371 158.172L175.639 158.307C175.684 158.33 175.728 158.354 175.769 158.38L176.038 158.544C176.072 158.565 176.105 158.587 176.137 158.61L176.405 158.801C176.431 158.82 176.456 158.839 176.481 158.859L176.749 159.076C176.769 159.092 176.788 159.108 176.806 159.125L177.075 159.366C177.09 159.379 177.104 159.393 177.119 159.407L177.387 159.669C177.398 159.68 177.41 159.692 177.42 159.703L177.689 159.985L177.705 160.001L177.714 160.012L177.983 160.31C177.989 160.318 177.996 160.325 178.002 160.332L178.27 160.645L178.284 160.661L178.553 160.985L178.563 160.997L178.831 161.329L178.837 161.336L179.108 161.677L179.641 162.351L179.644 162.356L179.905 162.682L180.164 163L180.419 163.303L180.669 163.589L180.913 163.854L181.148 164.096L181.398 164.332C181.983 164.887 181.817 165.67 181.028 166.081C180.238 166.492 179.125 166.375 178.54 165.821L178.271 165.566L178.262 165.557L178.245 165.54L178.234 165.53L177.966 165.255L177.953 165.241L177.938 165.225L177.669 164.933L177.658 164.92L177.648 164.909L177.38 164.601L177.373 164.593L177.364 164.583L177.095 164.263L177.084 164.249L176.815 163.92L176.808 163.911L176.54 163.575L176.536 163.57L176.001 162.894L175.998 162.89L175.736 162.56L175.475 162.238L175.219 161.929L174.967 161.636L174.721 161.362L174.482 161.112L174.252 160.887L174.034 160.691L173.831 160.527L173.649 160.397L173.495 160.303L173.376 160.242L173.299 160.212L173.28 160.218L173.19 160.257L173.059 160.327L172.896 160.431L172.708 160.571L172.5 160.745L172.278 160.949L172.045 161.182L171.804 161.44L171.556 161.719L171.303 162.017L171.045 162.33L170.786 162.653L170.781 162.659L170.52 162.989L169.976 163.676L169.708 164.01L169.699 164.02L169.431 164.347L169.418 164.362L169.15 164.679L169.141 164.689L169.133 164.699L168.864 165.002C168.857 165.011 168.849 165.019 168.841 165.028L168.573 165.315C168.563 165.326 168.552 165.336 168.542 165.347L168.274 165.616C168.261 165.629 168.247 165.642 168.233 165.654L167.965 165.903C167.948 165.918 167.931 165.934 167.913 165.949L167.644 166.174C167.622 166.193 167.599 166.211 167.575 166.229L167.307 166.429C167.278 166.451 167.248 166.472 167.217 166.492L166.948 166.666C166.91 166.69 166.87 166.714 166.829 166.736L166.561 166.881C166.511 166.908 166.459 166.933 166.406 166.957L166.137 167.072C166.074 167.1 166.007 167.125 165.939 167.146L165.671 167.232C165.592 167.257 165.51 167.278 165.427 167.294L165.158 167.348C165.066 167.367 164.972 167.38 164.876 167.388L164.608 167.41C164.508 167.418 164.408 167.42 164.308 167.416L164.039 167.406C163.941 167.403 163.843 167.393 163.747 167.378L163.479 167.336C163.39 167.323 163.304 167.304 163.219 167.281L162.951 167.207C162.877 167.187 162.805 167.163 162.735 167.136L162.467 167.032C162.408 167.009 162.351 166.984 162.296 166.956L162.028 166.822C161.982 166.799 161.938 166.775 161.896 166.749L161.628 166.586C161.593 166.565 161.56 166.543 161.527 166.52L161.259 166.33C161.233 166.311 161.207 166.292 161.183 166.272L160.914 166.056C160.894 166.04 160.875 166.023 160.856 166.007L160.588 165.767C160.573 165.753 160.558 165.739 160.544 165.725L160.275 165.464L160.259 165.448L160.241 165.429L159.973 165.149C159.964 165.139 159.956 165.13 159.947 165.121L159.679 164.823C159.672 164.816 159.666 164.808 159.659 164.801L159.391 164.489L159.377 164.472L159.108 164.149L159.098 164.137L158.83 163.805L158.824 163.798L158.555 163.46L158.552 163.457L158.02 162.783L158.016 162.778L157.755 162.451L157.496 162.133L157.241 161.829L156.991 161.542L156.747 161.276L156.511 161.033L156.284 160.818L156.071 160.633L155.875 160.48L155.701 160.362L155.558 160.279L155.451 160.229L155.405 160.212L155.361 160.228L155.257 160.276L155.115 160.358L154.942 160.474L154.747 160.625L154.534 160.81L154.308 161.024L154.073 161.265L153.829 161.531L153.579 161.817L153.324 162.12L153.065 162.438L152.804 162.764L152.801 162.769L152.268 163.442L152.266 163.446L151.997 163.783L151.991 163.791L151.723 164.123L151.713 164.135L151.445 164.458L151.43 164.475L151.162 164.787C151.156 164.795 151.149 164.802 151.143 164.809L150.874 165.108C150.866 165.117 150.858 165.126 150.849 165.135L150.58 165.417C150.57 165.428 150.558 165.439 150.547 165.451L150.279 165.713C150.264 165.727 150.25 165.741 150.235 165.754L149.966 165.995C149.948 166.012 149.929 166.028 149.909 166.044L149.641 166.261C149.616 166.281 149.591 166.3 149.565 166.318L149.297 166.51C149.265 166.533 149.232 166.555 149.198 166.576L148.929 166.74C148.888 166.766 148.844 166.79 148.799 166.812L148.531 166.948C148.477 166.976 148.42 167.001 148.362 167.024L148.094 167.129C148.025 167.157 147.953 167.18 147.88 167.201L147.611 167.276C147.528 167.299 147.441 167.318 147.353 167.332L147.085 167.375C146.989 167.391 146.892 167.401 146.794 167.405L146.526 167.416C146.426 167.42 146.325 167.419 146.225 167.411L145.957 167.39C145.861 167.383 145.766 167.37 145.674 167.352L145.405 167.299C145.321 167.283 145.239 167.262 145.159 167.237L144.891 167.153C144.822 167.132 144.755 167.107 144.691 167.08L144.422 166.965C144.368 166.942 144.316 166.917 144.265 166.89L143.997 166.746C143.955 166.724 143.915 166.7 143.877 166.675L143.608 166.503C143.577 166.482 143.546 166.461 143.517 166.439L143.248 166.24C143.225 166.222 143.201 166.204 143.179 166.185L142.911 165.961C142.892 165.946 142.875 165.93 142.857 165.914L142.589 165.667C142.575 165.654 142.562 165.641 142.549 165.628L142.28 165.36C142.27 165.349 142.259 165.339 142.249 165.328L141.981 165.041C141.973 165.033 141.965 165.024 141.957 165.015L141.689 164.713L141.671 164.692L141.403 164.377L141.39 164.361L141.122 164.035L141.113 164.024L140.845 163.69L140.839 163.684L140.037 162.67L139.775 162.344L139.517 162.03L139.264 161.731L139.015 161.451L138.774 161.192L138.541 160.959L138.318 160.753L138.11 160.578L137.921 160.437L137.756 160.33L137.624 160.259L137.532 160.219L137.502 160.209L137.411 160.223C136.452 160.373 135.502 159.948 135.289 159.275C135.076 158.601 135.68 157.933 136.639 157.783L136.907 157.741C137.003 157.726 137.101 157.717 137.199 157.713L137.468 157.703C137.568 157.699 137.668 157.702 137.768 157.71L138.036 157.732C138.132 157.74 138.226 157.753 138.318 157.771L138.587 157.825C138.67 157.842 138.752 157.863 138.831 157.888L139.099 157.973C139.167 157.995 139.234 158.02 139.297 158.047L139.566 158.163C139.619 158.186 139.671 158.211 139.721 158.238L139.989 158.384C140.03 158.406 140.07 158.429 140.108 158.454L140.377 158.628C140.408 158.648 140.438 158.669 140.467 158.691L140.736 158.891C140.759 158.909 140.782 158.927 140.804 158.945L141.073 159.171C141.091 159.186 141.108 159.201 141.125 159.217L141.393 159.465C141.407 159.478 141.421 159.491 141.434 159.504L141.702 159.773C141.712 159.783 141.723 159.794 141.733 159.805L142.001 160.092C142.009 160.101 142.017 160.109 142.024 160.118L142.293 160.421L142.31 160.441L142.578 160.757L142.591 160.773L142.859 161.099L142.868 161.11L143.141 161.45L143.944 162.464L144.205 162.789L144.463 163.102L144.716 163.4L144.964 163.68L145.206 163.938L145.438 164.17L145.66 164.375L145.868 164.548L146.056 164.688L146.219 164.793L146.35 164.863L146.44 164.902L146.459 164.908L146.536 164.877L146.655 164.817L146.81 164.722L146.991 164.593L147.194 164.429L147.412 164.233L147.642 164.008L147.881 163.757L148.127 163.484L148.379 163.191L148.635 162.882L148.896 162.56L149.158 162.229L149.161 162.226L149.7 161.544L149.968 161.209L149.975 161.199L150.244 160.87L150.255 160.857L150.524 160.537L150.54 160.518L150.808 160.211C150.815 160.203 150.822 160.195 150.829 160.187L151.098 159.895C151.107 159.885 151.116 159.875 151.126 159.865L151.394 159.59C151.407 159.578 151.419 159.566 151.432 159.554L151.7 159.299C151.716 159.284 151.732 159.269 151.748 159.255L152.017 159.023C152.037 159.005 152.058 158.988 152.08 158.971L152.349 158.763C152.376 158.742 152.403 158.722 152.432 158.703L152.701 158.521C152.736 158.497 152.773 158.474 152.81 158.452L153.079 158.299C153.125 158.272 153.173 158.247 153.223 158.224L153.491 158.1C153.551 158.072 153.612 158.047 153.676 158.025L153.945 157.931C154.019 157.904 154.096 157.882 154.176 157.863L154.444 157.8C154.533 157.779 154.624 157.764 154.716 157.753L154.985 157.721C155.083 157.71 155.183 157.704 155.282 157.705L155.551 157.705C155.65 157.705 155.75 157.712 155.848 157.724L156.116 157.756C156.208 157.767 156.299 157.784 156.387 157.805L156.656 157.869C156.734 157.888 156.811 157.911 156.885 157.937L157.153 158.033C157.216 158.055 157.277 158.08 157.336 158.108L157.605 158.234C157.654 158.257 157.701 158.281 157.747 158.308L158.015 158.463C158.053 158.484 158.089 158.507 158.124 158.531L158.392 158.713C158.421 158.733 158.448 158.753 158.475 158.774L158.743 158.983C158.765 158.999 158.786 159.017 158.806 159.034L159.074 159.267C159.091 159.282 159.107 159.296 159.122 159.311L159.391 159.566C159.403 159.578 159.416 159.59 159.427 159.603L159.696 159.878C159.705 159.888 159.715 159.898 159.724 159.908L159.992 160.201C159.999 160.209 160.006 160.217 160.013 160.224L160.282 160.532L160.298 160.551L160.566 160.871L160.577 160.884L160.846 161.214L160.853 161.223L161.125 161.564L161.659 162.24L161.662 162.243L161.925 162.573L162.185 162.895L162.441 163.204L162.693 163.496L162.939 163.768L163.177 164.018L163.407 164.242L163.624 164.436L163.826 164.599L164.007 164.727L164.16 164.82L164.278 164.879L164.351 164.907L164.372 164.901L164.464 164.861L164.596 164.789L164.761 164.683L164.95 164.542L165.158 164.367L165.381 164.161L165.614 163.927L165.855 163.669L166.103 163.388L166.357 163.089L166.615 162.776L166.874 162.453L166.879 162.447L167.409 161.776L167.679 161.436L167.684 161.429L167.953 161.095L167.962 161.085L168.23 160.758L168.243 160.743L168.511 160.427L168.529 160.407L168.797 160.104C168.805 160.096 168.813 160.087 168.821 160.078L169.089 159.792C169.096 159.785 169.102 159.778 169.109 159.771L169.12 159.76L169.389 159.491C169.402 159.478 169.415 159.465 169.429 159.453L169.697 159.205L169.711 159.193L169.724 159.181C169.733 159.174 169.742 159.166 169.75 159.159L170.019 158.934C170.041 158.916 170.064 158.897 170.088 158.88L170.357 158.68C170.386 158.658 170.417 158.637 170.448 158.617L170.717 158.444C170.755 158.42 170.795 158.396 170.837 158.374L171.105 158.23C171.156 158.203 171.208 158.177 171.262 158.154L171.531 158.04C171.595 158.012 171.662 157.988 171.731 157.966L171.999 157.882C172.079 157.857 172.161 157.837 172.245 157.82L172.513 157.768C172.606 157.749 172.701 157.737 172.797 157.729L173.065 157.709ZM147.66 240.486V190.613H171.018V221.221L155.526 240.486H147.66ZM156.291 264.255L144.965 253.505L147.635 249.614L160.543 261.865V318.06H156.291V264.255ZM567.615 290.385V296.772H214.225V311.615H342.298V307.979H217.641V300.408H571.031V286.749H217.641V280.301H571.031V267.111H214.225V270.747H567.615V276.664H214.225V290.385H567.615ZM196.12 179.859V173.942H223.842V170.306H192.704V183.496H232.33V189.944H183.351V193.58H235.746V179.859H196.12ZM769.992 230.312H784.172V210.588H769.992V220.676V230.312ZM611.201 312.421H654.195V264.421H611.201V292.992H582.538V312.421H611.201ZM753.781 272.083H701.912V262.448V245.36L725.296 216.36H753.781V272.083ZM573.353 312.421H360.775V306.421H573.353V312.421Z" fill="url(#paint0_linear_1795_5754)"/>
<path d="M257.246 6H206.461L189.809 28.031H145.246V244.351L163.472 259.844M256.746 232.732H221.252M221.252 232.732H189.809M221.252 232.732L199.215 259.844H163.472M163.472 259.844V319" stroke="#8F8E93" stroke-width="2" stroke-linejoin="round"/>
<path d="M145.246 107H214.246L238.746 119.5H267.746" stroke="#8F8E93" stroke-width="2"/>
<g filter="url(#filter0_d_1795_5754)">
<circle cx="262.246" cy="232.332" r="6" transform="rotate(-90.2602 262.246 232.332)" fill="#F0EFED"/>
<circle cx="262.246" cy="232.332" r="5.5" transform="rotate(-90.2602 262.246 232.332)" stroke="black"/>
</g>
<g filter="url(#filter1_d_1795_5754)">
<circle cx="262.273" cy="6.0275" r="6" transform="rotate(-90.2602 262.273 6.0275)" fill="#F0EFED"/>
<circle cx="262.273" cy="6.0275" r="5.5" transform="rotate(-90.2602 262.273 6.0275)" stroke="black"/>
</g>
<g filter="url(#filter2_d_1795_5754)">
<circle cx="262.273" cy="119.028" r="6" transform="rotate(-90.2602 262.273 119.028)" fill="#F0EFED"/>
<circle cx="262.273" cy="119.028" r="5.5" transform="rotate(-90.2602 262.273 119.028)" stroke="black"/>
</g>
<path d="M238.746 119.5H198.746" stroke="#8F8E93" stroke-width="2"/>
<path opacity="0.25" fill-rule="evenodd" clip-rule="evenodd" d="M737.658 747.736H564.801L582.657 723.644H737.658V747.736ZM530.037 669.875H564.588V653.279H529.187L530.037 669.875ZM551.444 619.014H759.765V593.316H551.444V619.014ZM575.002 640.697H551.047V624.1H575.002V640.697ZM604.765 669.875H759.765V645.783H604.765V669.875ZM258.599 736.592H515.975V723.494H258.599H255.599V720.494V702.401V699.401H258.599H518.975V705.401H261.599V717.494H518.975H521.975V720.494V739.592V742.592H518.975H258.599V736.592ZM539.218 682.401H714.562V688.401H539.218V682.401ZM759.765 560.335H548.964V566.335H759.765V560.335ZM590.605 669.875V634.005V631.005H593.605H762.246V637.005H596.605V669.875H590.605ZM759.765 542.132H548.964V548.132H759.765V542.132ZM548.964 525H759.765V531H548.964V525ZM236.678 623.486H220.5L224.019 617.272L230.826 605.251H247.004L236.678 623.486ZM11.0534 736.986H27.231L39.2578 721.751H23.0802L11.0534 736.986ZM48.9633 736.986H32.7856L44.8124 721.751H60.9901L48.9633 736.986ZM54.5182 736.986H70.6959L82.7227 721.751H66.545L54.5182 736.986ZM92.4262 736.986H76.2486L88.2754 721.751H104.453L92.4262 736.986ZM97.9792 736.986H114.157L126.184 721.751H110.006L97.9792 736.986ZM158.121 736.986H119.713L131.74 721.751H158.121V736.986ZM215.682 623.486H199.504L203.023 617.272L209.83 605.251H226.008L215.682 623.486ZM167.191 714.559H183.369V702.402H167.191V710.416V714.559ZM167.617 679.311V636.486H197.803H197.803H238.713V640.309H197.803V662.405L181.105 679.311H167.617ZM169.318 689.698H213.086L234.78 664.184L236.15 665.795L214.456 691.309L214.268 691.087V691.309H169.318V689.698ZM156.34 741.198H9.35361V742.809H156.34V741.198ZM5.10156 745.809H156.34V747.42H5.10156V745.809ZM156.34 750.421H0V752.032H156.34V750.421ZM220.831 738.005C220.73 738.001 220.63 738.002 220.53 738.01L220.262 738.031C220.166 738.038 220.071 738.051 219.978 738.069L219.71 738.121C219.692 738.125 219.673 738.129 219.655 738.133C219.641 738.136 219.627 738.139 219.613 738.143C219.563 738.155 219.513 738.168 219.464 738.184L219.196 738.267C219.127 738.289 219.06 738.314 218.995 738.341L218.727 738.456C218.673 738.479 218.621 738.504 218.57 738.531L218.302 738.675C218.276 738.689 218.252 738.703 218.227 738.717C218.218 738.723 218.208 738.729 218.198 738.735L218.182 738.746L217.913 738.918C217.894 738.931 217.875 738.943 217.856 738.956C217.845 738.965 217.833 738.973 217.822 738.982L217.553 739.181C217.536 739.194 217.519 739.207 217.502 739.22L217.484 739.236L217.215 739.46L217.202 739.471L217.19 739.482L217.174 739.496L217.162 739.506L216.894 739.754C216.88 739.767 216.867 739.78 216.853 739.793L216.585 740.061C216.574 740.072 216.564 740.082 216.554 740.093L216.286 740.38C216.278 740.388 216.27 740.397 216.262 740.406L215.994 740.708L215.976 740.729L215.708 741.044L215.695 741.06L215.426 741.386L215.418 741.397L215.149 741.731L215.144 741.737L214.874 742.078L214.344 742.748L214.339 742.754L214.08 743.077L213.822 743.391L213.568 743.69L213.32 743.97L213.079 744.229L212.845 744.462L212.623 744.668L212.415 744.843L212.226 744.984L212.061 745.091L211.929 745.162L211.837 745.202L211.815 745.209L211.743 745.18L211.625 745.121L211.472 745.028L211.291 744.9L211.089 744.738L210.872 744.543L210.642 744.32L210.404 744.07L210.158 743.797L209.906 743.505L209.65 743.196L209.389 742.874L209.127 742.545L209.124 742.541L208.59 741.865L208.318 741.524L208.31 741.515L208.042 741.186L208.031 741.172L207.762 740.852L207.747 740.834L207.478 740.526C207.471 740.518 207.464 740.51 207.457 740.502L207.189 740.209C207.18 740.199 207.17 740.189 207.161 740.179L206.892 739.904C206.886 739.897 206.879 739.891 206.873 739.884L206.856 739.868L206.587 739.612C206.572 739.598 206.556 739.583 206.539 739.569L206.271 739.335C206.261 739.327 206.252 739.319 206.242 739.311L206.223 739.296L206.208 739.284L205.94 739.075C205.913 739.054 205.886 739.034 205.857 739.015L205.589 738.832C205.554 738.808 205.518 738.786 205.48 738.764L205.212 738.609C205.192 738.598 205.172 738.586 205.152 738.576C205.142 738.57 205.132 738.565 205.122 738.56L205.107 738.553C205.094 738.547 205.082 738.541 205.07 738.535L204.801 738.409C204.742 738.381 204.681 738.356 204.618 738.334L204.349 738.238C204.276 738.212 204.199 738.189 204.121 738.171L203.852 738.106C203.829 738.101 203.805 738.095 203.782 738.09C203.762 738.086 203.742 738.082 203.723 738.079C203.676 738.07 203.629 738.063 203.581 738.058L203.313 738.025C203.263 738.019 203.212 738.014 203.162 738.011C203.113 738.008 203.065 738.007 203.016 738.007L202.747 738.006C202.648 738.006 202.548 738.011 202.45 738.023L202.181 738.054C202.089 738.065 201.998 738.081 201.909 738.102L201.64 738.165C201.561 738.183 201.484 738.206 201.41 738.232L201.141 738.326C201.077 738.349 201.015 738.374 200.956 738.401L200.688 738.526C200.638 738.549 200.59 738.574 200.544 738.6L200.275 738.754C200.237 738.776 200.201 738.798 200.165 738.822L199.897 739.004C199.888 739.01 199.879 739.016 199.871 739.022L199.852 739.035C199.839 739.045 199.826 739.054 199.814 739.064L199.545 739.272C199.534 739.281 199.523 739.289 199.512 739.298C199.502 739.307 199.492 739.315 199.482 739.324L199.213 739.556L199.194 739.573L199.177 739.588L199.165 739.6L198.896 739.855C198.888 739.863 198.879 739.872 198.871 739.88L198.859 739.891L198.591 740.166L198.574 740.184L198.563 740.196L198.294 740.488C198.287 740.496 198.28 740.504 198.273 740.512L198.004 740.82L197.988 740.838L197.72 741.158L197.709 741.172L197.44 741.501L197.433 741.51L197.164 741.846L196.626 742.527L196.623 742.531L196.36 742.861L196.1 743.183L195.844 743.492L195.592 743.785L195.346 744.059L195.107 744.309L194.877 744.534L194.659 744.73L194.456 744.894L194.274 745.024L194.12 745.118L194 745.179L193.924 745.209L193.905 745.203L193.814 745.164L193.684 745.094L193.521 744.99L193.333 744.85L193.125 744.676L192.903 744.472L192.67 744.239L192.429 743.981L192.181 743.702L191.928 743.404L191.67 743.09L191.409 742.765L190.606 741.751L190.333 741.411L190.324 741.401L190.056 741.074L190.043 741.059L189.775 740.742L189.758 740.722L189.489 740.419L189.479 740.408L189.466 740.393L189.197 740.106L189.183 740.091L189.167 740.074L188.898 739.805L188.879 739.786L188.869 739.776L188.858 739.767L188.59 739.518C188.581 739.51 188.573 739.503 188.564 739.495C188.555 739.487 188.547 739.48 188.537 739.472L188.269 739.247C188.255 739.235 188.241 739.224 188.227 739.212C188.218 739.206 188.209 739.199 188.2 739.192L187.932 738.992C187.913 738.977 187.893 738.963 187.873 738.95L187.852 738.936L187.841 738.929L187.573 738.755C187.557 738.745 187.54 738.734 187.523 738.724C187.5 738.711 187.477 738.698 187.454 738.685L187.186 738.54C187.173 738.533 187.161 738.526 187.148 738.52C187.132 738.512 187.116 738.504 187.1 738.496C187.077 738.485 187.054 738.475 187.031 738.464L186.762 738.349C186.698 738.321 186.632 738.296 186.564 738.275L186.296 738.189C186.216 738.164 186.135 738.143 186.052 738.127L185.783 738.073C185.691 738.054 185.597 738.041 185.501 738.033L185.233 738.011C185.133 738.003 185.033 738.001 184.932 738.004L184.664 738.014C184.566 738.018 184.468 738.028 184.372 738.043L184.104 738.084C183.145 738.234 182.541 738.902 182.754 739.576C182.967 740.25 183.917 740.675 184.876 740.525L184.966 740.511L184.997 740.52L185.089 740.56L185.221 740.632L185.386 740.738L185.575 740.879L185.783 741.054L186.005 741.26L186.239 741.494L186.48 741.752L186.728 742.033L186.982 742.332L187.24 742.645L187.501 742.971L188.304 743.985L188.309 743.992L188.578 744.326L188.586 744.336L188.855 744.663L188.868 744.678L189.136 744.994L189.154 745.014L189.422 745.317L189.436 745.332L189.446 745.343L189.714 745.629C189.724 745.64 189.734 745.651 189.745 745.661L190.013 745.929L190.031 745.947L190.045 745.96L190.054 745.968L190.322 746.216C190.333 746.225 190.343 746.235 190.354 746.244L190.364 746.253L190.375 746.262L190.644 746.487C190.655 746.496 190.666 746.505 190.678 746.514L190.695 746.528L190.713 746.541L190.982 746.741L191.001 746.755C191.012 746.763 191.024 746.771 191.035 746.779C191.047 746.787 191.06 746.796 191.073 746.804L191.342 746.976C191.356 746.986 191.371 746.995 191.386 747.004C191.411 747.019 191.436 747.033 191.462 747.047L191.73 747.191C191.746 747.2 191.762 747.208 191.778 747.216L191.791 747.223L191.823 747.238C191.844 747.248 191.865 747.257 191.887 747.267L192.156 747.381C192.22 747.409 192.287 747.433 192.356 747.455L192.624 747.539C192.704 747.564 192.786 747.584 192.87 747.601L193.138 747.653C193.231 747.671 193.326 747.684 193.422 747.692L193.69 747.712C193.79 747.72 193.89 747.722 193.991 747.718L194.259 747.706C194.357 747.702 194.454 747.692 194.55 747.677L194.818 747.633C194.906 747.619 194.992 747.6 195.076 747.577L195.345 747.502C195.418 747.482 195.49 747.458 195.558 747.431L195.827 747.325C195.885 747.302 195.941 747.277 195.996 747.249L196.264 747.114C196.275 747.108 196.287 747.102 196.298 747.096C196.312 747.089 196.325 747.081 196.339 747.074C196.358 747.063 196.376 747.052 196.394 747.041L196.663 746.877C196.697 746.856 196.73 746.834 196.762 746.811L197.03 746.62C197.056 746.601 197.081 746.582 197.105 746.562L197.374 746.345C197.394 746.329 197.413 746.313 197.431 746.296L197.7 746.055L197.708 746.047L197.726 746.031L197.743 746.014L198.012 745.752C198.023 745.741 198.034 745.729 198.045 745.718L198.314 745.436L198.333 745.416L198.339 745.409L198.608 745.111L198.616 745.101L198.627 745.089L198.895 744.776L198.909 744.76L199.178 744.436L199.188 744.424L199.456 744.092L199.462 744.085L199.73 743.747L199.733 743.744L200.265 743.07L200.269 743.065L200.53 742.739L200.789 742.422L201.044 742.118L201.294 741.832L201.537 741.567L201.773 741.325L201.999 741.111L202.212 740.927L202.407 740.776L202.579 740.659L202.722 740.577L202.826 740.529L202.87 740.514L202.916 740.53L203.023 740.58L203.166 740.663L203.34 740.781L203.536 740.934L203.749 741.119L203.975 741.335L204.212 741.577L204.456 741.844L204.706 742.13L204.961 742.435L205.22 742.753L205.481 743.08L205.485 743.084L206.017 743.758L206.02 743.762L206.288 744.099L206.295 744.107L206.563 744.438L206.573 744.451L206.841 744.774L206.856 744.791L207.124 745.102C207.13 745.11 207.137 745.117 207.144 745.124L207.412 745.422L207.424 745.435L207.438 745.45L207.706 745.731L207.72 745.745C207.726 745.752 207.733 745.758 207.74 745.765L208.008 746.027C208.023 746.041 208.038 746.054 208.053 746.068L208.321 746.308C208.34 746.325 208.359 746.341 208.379 746.357L208.648 746.573C208.656 746.58 208.665 746.587 208.674 746.594C208.69 746.607 208.707 746.619 208.724 746.631L208.992 746.821C209.024 746.844 209.058 746.866 209.092 746.887L209.361 747.051C209.376 747.06 209.391 747.068 209.406 747.077C209.434 747.093 209.463 747.108 209.492 747.123L209.761 747.258C209.816 747.285 209.873 747.31 209.932 747.333L210.2 747.438C210.236 747.452 210.272 747.464 210.308 747.477C210.335 747.485 210.362 747.494 210.39 747.502L210.416 747.509L210.684 747.582C210.768 747.605 210.855 747.624 210.944 747.638L211.212 747.68C211.308 747.695 211.406 747.704 211.504 747.708L211.772 747.718C211.873 747.722 211.973 747.719 212.073 747.711L212.341 747.689C212.437 747.681 212.531 747.668 212.623 747.649L212.892 747.596C212.975 747.579 213.056 747.558 213.135 747.533L213.404 747.448C213.472 747.426 213.538 747.401 213.602 747.374L213.871 747.258C213.892 747.249 213.913 747.239 213.934 747.229C213.965 747.215 213.996 747.199 214.026 747.183L214.294 747.037C214.314 747.027 214.334 747.016 214.353 747.004C214.373 746.992 214.393 746.98 214.413 746.967L214.681 746.793C214.713 746.773 214.743 746.752 214.772 746.73L215.04 746.53C215.064 746.512 215.087 746.494 215.109 746.476L215.378 746.25C215.386 746.243 215.395 746.236 215.403 746.228C215.408 746.224 215.413 746.219 215.418 746.215L215.43 746.204L215.698 745.956C215.712 745.943 215.725 745.93 215.738 745.917L216.007 745.648C216.017 745.638 216.027 745.627 216.037 745.616L216.306 745.329C216.314 745.32 216.321 745.312 216.329 745.303L216.597 745L216.606 744.99L216.615 744.98L216.883 744.663L216.896 744.648L217.164 744.322L217.173 744.311L217.441 743.977L217.984 743.29L218.246 742.96L218.251 742.954L218.51 742.632L218.768 742.319L219.021 742.02L219.269 741.741L219.51 741.483L219.743 741.251L219.965 741.046L220.172 740.873L220.361 740.733L220.524 740.628L220.654 740.558L220.745 740.519L220.764 740.513L220.84 740.544L220.96 740.604L221.114 740.699L221.296 740.828L221.498 740.992L221.717 741.188L221.947 741.413L222.186 741.664L222.432 741.937L222.683 742.23L222.94 742.539L223.201 742.862L223.463 743.192L223.466 743.195L224.001 743.872L224.004 743.877L224.273 744.212L224.28 744.222L224.549 744.551L224.56 744.564L224.828 744.884L224.837 744.895L224.844 744.903L225.113 745.21L225.123 745.222L225.134 745.234L225.403 745.526L225.417 745.542L225.431 745.556L225.699 745.831C225.711 745.843 225.724 745.855 225.736 745.867L226.005 746.122C226.589 746.677 227.703 746.793 228.492 746.382C229.282 745.971 229.447 745.188 228.863 744.634L228.613 744.397L228.377 744.156L228.134 743.89L227.884 743.604L227.629 743.301L227.37 742.983L227.109 742.657L227.105 742.652L226.573 741.979L226.302 741.638L226.296 741.63L226.028 741.298L226.018 741.286L225.749 740.963L225.735 740.946L225.467 740.634L225.46 740.625L225.448 740.612L225.179 740.313C225.171 740.304 225.162 740.295 225.154 740.286L224.885 740.004L224.868 739.987L224.852 739.97L224.583 739.708C224.576 739.7 224.568 739.693 224.56 739.685L224.54 739.667L224.271 739.426L224.259 739.415C224.252 739.409 224.244 739.402 224.237 739.396C224.229 739.39 224.221 739.383 224.214 739.377L223.945 739.16C223.935 739.151 223.924 739.143 223.914 739.135C223.899 739.124 223.885 739.113 223.87 739.103L223.602 738.911C223.57 738.888 223.537 738.866 223.503 738.845L223.234 738.681C223.192 738.655 223.149 738.631 223.104 738.608L222.836 738.473C222.781 738.445 222.725 738.42 222.667 738.397L222.398 738.292C222.355 738.275 222.311 738.259 222.267 738.245C222.251 738.239 222.235 738.235 222.218 738.23C222.207 738.226 222.196 738.223 222.185 738.22L221.916 738.145C221.832 738.122 221.746 738.103 221.658 738.089L221.39 738.046C221.378 738.044 221.366 738.042 221.354 738.04C221.326 738.036 221.298 738.032 221.27 738.029C221.214 738.023 221.156 738.019 221.099 738.016L220.831 738.005ZM177.972 742.861C177.972 746.106 175.735 748.736 172.976 748.736C170.217 748.736 167.98 746.106 167.98 742.861C167.98 739.616 170.217 736.986 172.976 736.986C175.735 736.986 177.972 739.616 177.972 742.861ZM539.22 699.401H714.564V705.401H539.22V699.401ZM117.168 561.051H114.168V564.051V584.551V587.551V606.051H24.4842V612.051H114.168V617.051H24.4842V623.051H117.168H120.168V620.051V612.051V609.051V590.551H197.522V584.551H120.168V579.067H329.745V573.067H120.168V567.051H197.522V561.051H117.168ZM184.342 623.051H127.371V616.122V598.801H184.342V623.051ZM104.992 665.311H119.172V645.588H104.992V655.676V665.311ZM36.912 707.083H88.7811V651.359H60.2956L36.912 680.359V697.447V707.083ZM126.184 678.393H146.523V637.486H145.18V637.309H26.1365V643.309H126.184V666.705V678.393ZM102.125 692.183H148.892V686.183H102.125V692.183ZM148.892 706.183H102.125V700.183H148.892V706.183Z" fill="url(#paint1_linear_1795_5754)"/>
<path d="M264.745 440.998H234.745M234.745 440.998L197.745 461.498H162.709V572.498M234.745 440.998H197.745M258.745 554.498H213.245L194.245 572.498H162.709M162.709 679.349V572.498M749.245 753.998H162.709V717.947V572.498" stroke="#8F8E93" stroke-width="2" stroke-linejoin="round"/>
<g filter="url(#filter3_d_1795_5754)">
<ellipse rx="5.99998" ry="6" transform="matrix(0 -1 0.999999 -0.00173533 262.246 554.008)" fill="#F0EFED"/>
<path d="M262.246 548.508C265.284 548.503 267.746 550.961 267.746 553.999C267.746 557.036 265.284 559.503 262.246 559.508C259.209 559.513 256.746 557.055 256.746 554.018C256.746 550.98 259.209 548.513 262.246 548.508Z" stroke="black"/>
</g>
<g filter="url(#filter4_d_1795_5754)">
<ellipse rx="5.99998" ry="6" transform="matrix(-0.00375524 -0.999993 0.999985 -0.00549055 262.268 440.031)" fill="#F0EFED"/>
<path d="M262.248 434.531C265.285 434.514 267.757 436.963 267.768 440C267.78 443.038 265.327 445.514 262.289 445.531C259.252 445.547 256.78 443.098 256.768 440.061C256.757 437.023 259.21 434.547 262.248 434.531Z" stroke="black"/>
</g>
<path d="M526.246 727.623L337.869 727.624L312.542 704.397M312.542 704.397L213.539 704.397L163.536 704.397L163.899 678.412L227.796 678.412L238.884 661.779L291.553 661.779M312.542 704.397L385.746 704.397" stroke="#8F8E93" stroke-width="2"/>
<defs>
<filter id="filter0_d_1795_5754" x="256.246" y="226.332" width="19" height="14" filterUnits="userSpaceOnUse" color-interpolation-filters="sRGB">
<feFlood flood-opacity="0" result="BackgroundImageFix"/>
<feColorMatrix in="SourceAlpha" type="matrix" values="0 0 0 0 0 0 0 0 0 0 0 0 0 0 0 0 0 0 127 0" result="hardAlpha"/>
<feOffset dx="7" dy="2"/>
<feComposite in2="hardAlpha" operator="out"/>
<feColorMatrix type="matrix" values="0 0 0 0 0 0 0 0 0 0 0 0 0 0 0 0 0 0 1 0"/>
<feBlend mode="normal" in2="BackgroundImageFix" result="effect1_dropShadow_1795_5754"/>
<feBlend mode="normal" in="SourceGraphic" in2="effect1_dropShadow_1795_5754" result="shape"/>
</filter>
<filter id="filter1_d_1795_5754" x="256.273" y="0.0273438" width="19" height="14" filterUnits="userSpaceOnUse" color-interpolation-filters="sRGB">
<feFlood flood-opacity="0" result="BackgroundImageFix"/>
<feColorMatrix in="SourceAlpha" type="matrix" values="0 0 0 0 0 0 0 0 0 0 0 0 0 0 0 0 0 0 127 0" result="hardAlpha"/>
<feOffset dx="7" dy="2"/>
<feComposite in2="hardAlpha" operator="out"/>
<feColorMatrix type="matrix" values="0 0 0 0 0 0 0 0 0 0 0 0 0 0 0 0 0 0 1 0"/>
<feBlend mode="normal" in2="BackgroundImageFix" result="effect1_dropShadow_1795_5754"/>
<feBlend mode="normal" in="SourceGraphic" in2="effect1_dropShadow_1795_5754" result="shape"/>
</filter>
<filter id="filter2_d_1795_5754" x="256.273" y="113.027" width="19" height="14" filterUnits="userSpaceOnUse" color-interpolation-filters="sRGB">
<feFlood flood-opacity="0" result="BackgroundImageFix"/>
<feColorMatrix in="SourceAlpha" type="matrix" values="0 0 0 0 0 0 0 0 0 0 0 0 0 0 0 0 0 0 127 0" result="hardAlpha"/>
<feOffset dx="7" dy="2"/>
<feComposite in2="hardAlpha" operator="out"/>
<feColorMatrix type="matrix" values="0 0 0 0 0 0 0 0 0 0 0 0 0 0 0 0 0 0 1 0"/>
<feBlend mode="normal" in2="BackgroundImageFix" result="effect1_dropShadow_1795_5754"/>
<feBlend mode="normal" in="SourceGraphic" in2="effect1_dropShadow_1795_5754" result="shape"/>
</filter>
<filter id="filter3_d_1795_5754" x="256.246" y="548.008" width="19" height="14" filterUnits="userSpaceOnUse" color-interpolation-filters="sRGB">
<feFlood flood-opacity="0" result="BackgroundImageFix"/>
<feColorMatrix in="SourceAlpha" type="matrix" values="0 0 0 0 0 0 0 0 0 0 0 0 0 0 0 0 0 0 127 0" result="hardAlpha"/>
<feOffset dx="7" dy="2"/>
<feComposite in2="hardAlpha" operator="out"/>
<feColorMatrix type="matrix" values="0 0 0 0 0 0 0 0 0 0 0 0 0 0 0 0 0 0 1 0"/>
<feBlend mode="normal" in2="BackgroundImageFix" result="effect1_dropShadow_1795_5754"/>
<feBlend mode="normal" in="SourceGraphic" in2="effect1_dropShadow_1795_5754" result="shape"/>
</filter>
<filter id="filter4_d_1795_5754" x="256.269" y="434.03" width="19" height="14" filterUnits="userSpaceOnUse" color-interpolation-filters="sRGB">
<feFlood flood-opacity="0" result="BackgroundImageFix"/>
<feColorMatrix in="SourceAlpha" type="matrix" values="0 0 0 0 0 0 0 0 0 0 0 0 0 0 0 0 0 0 127 0" result="hardAlpha"/>
<feOffset dx="7" dy="2"/>
<feComposite in2="hardAlpha" operator="out"/>
<feColorMatrix type="matrix" values="0 0 0 0 0 0 0 0 0 0 0 0 0 0 0 0 0 0 1 0"/>
<feBlend mode="normal" in2="BackgroundImageFix" result="effect1_dropShadow_1795_5754"/>
<feBlend mode="normal" in="SourceGraphic" in2="effect1_dropShadow_1795_5754" result="shape"/>
</filter>
<linearGradient id="paint0_linear_1795_5754" x1="751.524" y1="318.06" x2="754.491" y2="127.41" gradientUnits="userSpaceOnUse">
<stop stop-color="#F1EFED"/>
<stop offset="0.503125" stop-color="#A9A5A4" stop-opacity="0.07"/>
<stop offset="1" stop-color="#F1EFED"/>
</linearGradient>
<linearGradient id="paint1_linear_1795_5754" x1="723.896" y1="752.032" x2="727.846" y2="513.659" gradientUnits="userSpaceOnUse">
<stop stop-color="#F1EFED"/>
<stop offset="0.503125" stop-color="#A9A5A4" stop-opacity="0.07"/>
<stop offset="1" stop-color="#F1EFED"/>
</linearGradient>
</defs>
</svg>
