<svg width="783" height="790" viewBox="0 0 783 790" fill="none" xmlns="http://www.w3.org/2000/svg">
<g clip-path="url(#clip0_3727_11250)">
<path opacity="0.25" fill-rule="evenodd" clip-rule="evenodd" d="M1181.41 312.734H1008.55L1026.41 288.642H1181.41V312.734ZM973.791 234.875H1008.34V218.278H972.941L973.791 234.875ZM995.198 184.012H1203.52V158.314H995.198V184.012ZM1018.76 205.695H994.801V189.099H1018.76V205.695ZM1048.52 234.875H1203.52V210.783H1048.52V234.875ZM702.354 301.59H959.729V288.492H702.354H699.354V285.492V267.399V264.399H702.354H962.729V270.399H705.354V282.492H962.729H965.729V285.492V304.59V307.59H962.729H702.354V301.59ZM982.972 247.398H1158.32V253.398H982.972V247.398ZM1203.52 125.332H992.718V131.332H1203.52V125.332ZM1034.36 234.875V199.005V196.005H1037.36H1206V202.005H1040.36V234.875H1034.36ZM1203.52 107.129H992.718V113.129H1203.52V107.129ZM992.718 90H1203.52V96H992.718V90ZM-71.5198 136.484H-85.9998L-82.8501 141.255L-76.7573 150.484H-62.2773L-71.5198 136.484ZM-52.727 136.484H-67.2069L-64.0572 141.255L-57.9644 150.484H-43.4845L-52.727 136.484ZM-50.2285 309.935V267.109H-36.7411L-20.0425 284.015V309.935H-50.2285ZM-7.02148 250.633V260.836H0.418732V254.661L-3.69714 250.633H-7.02148ZM4.66797 260.836V250.633H7.99232L12.1082 254.661V260.836H4.66797ZM16.3613 250.633V260.836H23.8015V254.661L19.6857 250.633H16.3613ZM-23.005 255.736L-23.1949 255.513V255.736H-56.0273V254.125H-24.375L-8.39265 235.329L-7.02267 236.94L-23.005 255.736ZM-47.8804 157.701C-47.9806 157.697 -48.0811 157.699 -48.181 157.707L-48.4494 157.727C-48.5451 157.735 -48.6398 157.748 -48.7326 157.766L-49.001 157.818C-49.085 157.835 -49.1671 157.855 -49.2467 157.88L-49.5151 157.964C-49.5841 157.986 -49.651 158.01 -49.7154 158.038L-49.9838 158.152C-50.038 158.175 -50.0904 158.201 -50.1407 158.228L-50.4091 158.372C-50.4506 158.394 -50.4908 158.418 -50.5294 158.443L-50.7977 158.615C-50.8293 158.635 -50.8598 158.656 -50.8893 158.678L-51.1576 158.878C-51.1816 158.895 -51.2048 158.914 -51.2272 158.932L-51.4956 159.157C-51.5046 159.164 -51.5134 159.172 -51.5221 159.179L-51.5353 159.191L-51.5486 159.203L-51.817 159.451C-51.8309 159.463 -51.8444 159.476 -51.8576 159.49L-52.126 159.758L-52.1371 159.769C-52.1438 159.776 -52.1504 159.783 -52.1569 159.79L-52.4253 160.076C-52.4333 160.085 -52.4412 160.094 -52.4489 160.102L-52.7173 160.405L-52.7349 160.425L-53.0033 160.741L-53.0161 160.756L-53.2845 161.083L-53.2932 161.093L-53.5616 161.427L-53.5667 161.434L-53.8367 161.774L-54.3671 162.445L-54.372 162.451L-54.6313 162.774L-54.8891 163.087L-55.1426 163.386L-55.3907 163.667L-55.6323 163.925L-55.8655 164.159L-56.0879 164.365L-56.2961 164.54L-56.4854 164.681L-56.6497 164.787L-56.7817 164.859L-56.8738 164.899L-56.8956 164.906L-56.9683 164.877L-57.0861 164.818L-57.2392 164.725L-57.4199 164.597L-57.6216 164.434L-57.8391 164.24L-58.0686 164.016L-58.3073 163.767L-58.5532 163.494L-58.8047 163.202L-59.061 162.893L-59.3215 162.571L-59.5839 162.242L-59.5867 162.238L-60.1211 161.562L-60.3933 161.221L-60.4006 161.212L-60.669 160.882L-60.6802 160.869L-60.9486 160.549L-60.9643 160.53L-61.2327 160.223L-61.2429 160.211L-61.2539 160.199L-61.5222 159.906C-61.5314 159.896 -61.5407 159.886 -61.5502 159.876L-61.8186 159.601C-61.8305 159.589 -61.8427 159.576 -61.8553 159.565L-62.1237 159.309C-62.1392 159.294 -62.1552 159.28 -62.1716 159.265L-62.44 159.032C-62.4603 159.015 -62.4812 158.997 -62.5028 158.981L-62.7712 158.772C-62.7977 158.751 -62.8253 158.731 -62.8537 158.712L-63.1221 158.529C-63.157 158.505 -63.1932 158.482 -63.2307 158.461L-63.4991 158.306C-63.5447 158.279 -63.5922 158.255 -63.6413 158.232L-63.9097 158.106C-63.9686 158.078 -64.0299 158.053 -64.093 158.031L-64.3614 157.935C-64.4354 157.909 -64.5119 157.886 -64.5904 157.867L-64.8588 157.803C-64.9471 157.782 -65.0377 157.765 -65.1297 157.754L-65.3981 157.722C-65.4962 157.71 -65.5956 157.703 -65.6952 157.703L-65.9636 157.703C-66.0633 157.702 -66.1629 157.708 -66.2613 157.719L-66.5297 157.751C-66.6222 157.762 -66.7132 157.777 -66.8021 157.798L-67.0705 157.861C-67.1496 157.88 -67.2268 157.902 -67.3014 157.929L-67.5698 158.023C-67.6336 158.045 -67.6955 158.07 -67.755 158.098L-68.0234 158.222C-68.0731 158.246 -68.1211 158.27 -68.1672 158.297L-68.4356 158.451C-68.4736 158.472 -68.5102 158.495 -68.5455 158.519L-68.8139 158.701C-68.8426 158.72 -68.8705 158.74 -68.8974 158.761L-69.1658 158.969C-69.1876 158.986 -69.2088 159.003 -69.2293 159.021L-69.4977 159.253C-69.5143 159.267 -69.5305 159.282 -69.5461 159.297L-69.8145 159.552C-69.8272 159.564 -69.8396 159.576 -69.8516 159.588L-70.12 159.863C-70.1297 159.873 -70.1391 159.883 -70.1483 159.893L-70.4167 160.185C-70.424 160.193 -70.4311 160.201 -70.4381 160.209L-70.7065 160.516L-70.7225 160.535L-70.9909 160.855L-71.0022 160.868L-71.2706 161.197L-71.2781 161.207L-71.5465 161.542L-72.0851 162.224L-72.0878 162.227L-72.3505 162.558L-72.611 162.88L-72.8675 163.189L-73.1192 163.482L-73.3654 163.755L-73.6044 164.006L-73.8343 164.231L-74.0524 164.427L-74.2549 164.591L-74.4366 164.72L-74.591 164.815L-74.7105 164.875L-74.7872 164.906L-74.8062 164.9L-74.8965 164.861L-75.027 164.791L-75.1901 164.686L-75.3784 164.546L-75.5859 164.373L-75.8078 164.168L-76.0406 163.936L-76.2819 163.678L-76.5298 163.398L-76.783 163.1L-77.0407 162.787L-77.3023 162.462L-78.1048 161.448L-78.3781 161.108L-78.3866 161.097L-78.655 160.771L-78.6676 160.756L-78.936 160.439L-78.9535 160.419L-79.2218 160.116C-79.2295 160.107 -79.2372 160.099 -79.2451 160.09L-79.5135 159.803C-79.5235 159.792 -79.5337 159.781 -79.5441 159.771L-79.8125 159.502C-79.8255 159.489 -79.8389 159.476 -79.8526 159.463L-80.121 159.215C-80.138 159.199 -80.1555 159.184 -80.1734 159.169L-80.4418 158.943C-80.464 158.925 -80.4869 158.907 -80.5106 158.889L-80.779 158.689C-80.8081 158.667 -80.8382 158.646 -80.8694 158.626L-81.1378 158.452C-81.176 158.427 -81.2157 158.404 -81.2568 158.382L-81.5251 158.236C-81.5749 158.209 -81.6267 158.184 -81.6803 158.161L-81.9487 158.045C-82.0125 158.018 -82.0788 157.993 -82.147 157.971L-82.4154 157.886C-82.4944 157.861 -82.576 157.84 -82.6593 157.823L-82.9277 157.77C-83.0201 157.751 -83.1144 157.738 -83.2097 157.73L-83.4781 157.708C-83.5778 157.7 -83.6783 157.697 -83.7785 157.701L-84.047 157.711C-84.1452 157.715 -84.2428 157.724 -84.3388 157.739L-84.6072 157.781C-85.566 157.931 -86.1704 158.599 -85.9572 159.273C-85.744 159.947 -84.794 160.371 -83.8352 160.222L-83.7445 160.207L-83.7138 160.217L-83.6217 160.257L-83.4896 160.328L-83.3253 160.435L-83.1361 160.576L-82.9279 160.751L-82.7055 160.957L-82.4723 161.19L-82.2307 161.449L-81.9825 161.729L-81.7291 162.028L-81.4712 162.342L-81.2095 162.668L-80.4066 163.682L-80.4016 163.688L-80.1332 164.022L-80.1245 164.033L-79.8561 164.359L-79.8433 164.375L-79.5749 164.69L-79.5572 164.711L-79.2888 165.013C-79.2811 165.022 -79.2733 165.031 -79.2653 165.039L-78.9969 165.326C-78.9868 165.337 -78.9765 165.347 -78.9659 165.358L-78.6975 165.626C-78.6904 165.633 -78.6832 165.64 -78.6759 165.647L-78.657 165.665L-78.3886 165.912C-78.3715 165.928 -78.3538 165.944 -78.3356 165.959L-78.0672 166.183C-78.0448 166.202 -78.0216 166.22 -77.9976 166.238L-77.7292 166.437C-77.6998 166.459 -77.6693 166.48 -77.6377 166.501L-77.3693 166.673C-77.3307 166.698 -77.2906 166.722 -77.2491 166.744L-76.9806 166.888C-76.9303 166.915 -76.8779 166.94 -76.8238 166.963L-76.5554 167.078C-76.4909 167.105 -76.424 167.13 -76.3551 167.152L-76.0867 167.235C-76.0071 167.26 -75.925 167.281 -75.841 167.298L-75.5726 167.35C-75.4798 167.368 -75.3851 167.381 -75.2893 167.388L-75.0209 167.409C-74.9211 167.417 -74.8205 167.418 -74.7203 167.414L-74.4519 167.403C-74.354 167.399 -74.2567 167.389 -74.161 167.373L-73.8926 167.33C-73.8047 167.316 -73.7185 167.297 -73.6346 167.274L-73.3662 167.199C-73.2928 167.178 -73.2214 167.155 -73.1526 167.127L-72.8842 167.022C-72.8259 166.999 -72.7695 166.974 -72.7153 166.946L-72.4469 166.811C-72.4019 166.788 -72.3585 166.764 -72.3167 166.738L-72.0483 166.574C-72.0141 166.553 -71.9811 166.531 -71.9492 166.508L-71.6809 166.316C-71.6549 166.298 -71.6298 166.279 -71.6055 166.259L-71.3371 166.042C-71.3281 166.035 -71.3192 166.027 -71.3105 166.02C-71.3001 166.011 -71.2898 166.002 -71.2797 165.993L-71.0113 165.752C-70.9963 165.739 -70.9817 165.725 -70.9675 165.711L-70.6991 165.449C-70.6877 165.437 -70.6765 165.426 -70.6656 165.415L-70.3972 165.133C-70.3885 165.124 -70.38 165.115 -70.3717 165.106L-70.1033 164.807L-70.0913 164.794L-70.0841 164.785L-69.8157 164.473L-69.8016 164.456L-69.5332 164.133L-69.5234 164.121L-69.255 163.789L-69.2489 163.781L-68.9805 163.444L-68.9778 163.44L-68.4455 162.767L-68.4416 162.762L-68.1808 162.436L-67.9218 162.118L-67.667 161.815L-67.4172 161.529L-67.1735 161.263L-66.9376 161.022L-66.7118 160.808L-66.4991 160.624L-66.3037 160.472L-66.1314 160.356L-65.9892 160.274L-65.8848 160.226L-65.8414 160.211L-65.7946 160.227L-65.6884 160.277L-65.5448 160.36L-65.3714 160.478L-65.1752 160.631L-64.9618 160.816L-64.7355 161.032L-64.4993 161.274L-64.2553 161.54L-64.0053 161.827L-63.7503 162.131L-63.4911 162.45L-63.2301 162.776L-63.2263 162.781L-62.6937 163.455L-62.6909 163.458L-62.4225 163.796L-62.4163 163.803L-62.1479 164.135L-62.1379 164.147L-61.8695 164.47L-61.8552 164.487L-61.5868 164.799L-61.5771 164.81L-61.5674 164.821L-61.2989 165.119C-61.2905 165.128 -61.2819 165.137 -61.2731 165.147L-61.0047 165.428L-60.9867 165.446L-60.9708 165.462L-60.7024 165.723L-60.6862 165.739C-60.6823 165.742 -60.6784 165.746 -60.6744 165.75C-60.669 165.755 -60.6636 165.76 -60.6581 165.765L-60.3897 166.005L-60.3729 166.019C-60.3595 166.031 -60.3457 166.042 -60.3317 166.054L-60.0633 166.27C-60.0388 166.29 -60.0133 166.309 -59.9871 166.328L-59.7187 166.518C-59.6865 166.541 -59.6531 166.563 -59.6184 166.584L-59.35 166.747C-59.3078 166.773 -59.2639 166.797 -59.2184 166.82L-58.95 166.954C-58.8952 166.982 -58.8382 167.007 -58.7793 167.03L-58.5109 167.134C-58.4414 167.161 -58.3694 167.185 -58.2953 167.206L-58.027 167.279C-57.9425 167.302 -57.8557 167.321 -57.7672 167.335L-57.4988 167.376C-57.4028 167.391 -57.3052 167.401 -57.207 167.405L-56.9386 167.415C-56.8383 167.418 -56.7379 167.416 -56.6382 167.408L-56.3698 167.386C-56.2744 167.378 -56.1801 167.365 -56.0878 167.346L-55.8193 167.292C-55.736 167.276 -55.6545 167.255 -55.5755 167.23L-55.3071 167.144C-55.2388 167.123 -55.1726 167.098 -55.1087 167.07L-54.8403 166.955C-54.7868 166.932 -54.735 166.906 -54.6852 166.879L-54.4168 166.734C-54.3757 166.712 -54.336 166.688 -54.2979 166.664L-54.0295 166.49C-54.0136 166.48 -53.998 166.469 -53.9827 166.459C-53.9679 166.448 -53.9533 166.438 -53.939 166.427L-53.6706 166.227C-53.647 166.209 -53.624 166.191 -53.6019 166.172L-53.3335 165.947C-53.3155 165.932 -53.298 165.916 -53.281 165.901L-53.0126 165.652L-52.993 165.634L-52.9878 165.629L-52.9726 165.614L-52.7042 165.345C-52.6937 165.334 -52.6835 165.324 -52.6735 165.313L-52.4051 165.026C-52.3972 165.017 -52.3895 165.009 -52.3819 165L-52.1135 164.697L-52.1049 164.687L-52.0961 164.677L-51.8277 164.36L-51.8151 164.345L-51.5467 164.018L-51.5382 164.008L-51.2697 163.674L-50.7265 162.987L-50.4648 162.657L-50.4598 162.651L-50.2006 162.328L-49.9431 162.015L-49.6898 161.717L-49.4419 161.438L-49.2006 161.18L-48.9678 160.947L-48.7459 160.743L-48.5385 160.569L-48.3501 160.429L-48.187 160.325L-48.0565 160.255L-47.9662 160.216L-47.9473 160.21L-47.8705 160.24L-47.751 160.301L-47.5966 160.395L-47.4149 160.525L-47.2125 160.689L-46.9944 160.885L-46.7644 161.11L-46.5254 161.36L-46.2793 161.634L-46.0275 161.927L-45.7709 162.236L-45.5105 162.558L-45.2478 162.888L-45.2452 162.892L-44.7104 163.568L-44.7065 163.573L-44.4381 163.909L-44.4306 163.918L-44.1622 164.247L-44.1509 164.261L-43.8825 164.581L-43.8736 164.591L-43.8666 164.599L-43.5982 164.907L-43.5879 164.918L-43.5767 164.931L-43.3083 165.223L-43.2936 165.239L-43.28 165.253L-43.0117 165.528L-43.001 165.538L-42.9837 165.555L-42.9746 165.564L-42.7062 165.819C-42.1215 166.373 -41.0077 166.49 -40.2185 166.079C-39.4293 165.668 -39.2635 164.885 -39.8483 164.33L-40.0977 164.094L-40.3336 163.852L-40.5772 163.587L-40.827 163.301L-41.0818 162.998L-41.3409 162.68L-41.6017 162.354L-41.6056 162.349L-42.1378 161.675L-42.4089 161.334L-42.415 161.327L-42.6834 160.995L-42.6932 160.983L-42.9616 160.659L-42.9757 160.643L-43.2441 160.33C-43.2504 160.323 -43.2568 160.316 -43.2633 160.308L-43.5317 160.01L-43.5416 159.999L-43.5573 159.983L-43.8257 159.701L-43.8432 159.683L-43.8592 159.667L-44.1276 159.405C-44.1418 159.391 -44.1564 159.377 -44.1714 159.364L-44.4398 159.123C-44.4472 159.116 -44.4547 159.109 -44.4623 159.103L-44.4725 159.094L-44.4887 159.081L-44.4972 159.074L-44.7655 158.857C-44.7898 158.837 -44.8149 158.818 -44.8409 158.799L-45.1093 158.608C-45.1411 158.585 -45.1742 158.563 -45.2084 158.542L-45.4768 158.378C-45.5185 158.352 -45.5619 158.328 -45.6069 158.305L-45.8753 158.17C-45.9295 158.142 -45.9859 158.117 -46.0442 158.094L-46.3126 157.988C-46.3815 157.961 -46.4528 157.937 -46.5262 157.917L-46.7947 157.842C-46.8785 157.819 -46.9648 157.8 -47.0527 157.786L-47.3211 157.742C-47.4167 157.727 -47.514 157.717 -47.612 157.713L-47.8804 157.701ZM-73.5858 190.611V240.484H-65.72L-50.228 221.219V190.611H-73.5858ZM-76.2812 253.504L-64.9551 264.254V318.059H-60.7035V261.864L-73.6112 249.613L-76.2812 253.504ZM346.369 296.77V290.384H-7.02148V276.663H346.369V270.746H-7.02148V267.109H349.785V280.299H-3.60524V286.747H349.785V300.406H-3.60524V307.977H121.052V311.614H-7.02148V296.77H346.369ZM-25.1257 173.941V179.858H14.5V193.579H-37.8954V189.943H11.0838V183.495H-28.542V170.305H2.59566V173.941H-25.1257ZM664.254 188.484H680.432L690.758 170.249H674.58L667.773 182.27L664.254 188.484ZM470.985 301.984H454.807L466.834 286.749H483.012L470.985 301.984ZM476.54 301.984H492.717L504.744 286.749H488.567L476.54 301.984ZM514.45 301.984H498.272L510.299 286.749H526.477L514.45 301.984ZM520.003 301.984H536.18L548.207 286.749H532.029L520.003 301.984ZM557.911 301.984H541.733L553.76 286.749H569.938L557.911 301.984ZM563.467 301.984H601.875V286.749H575.494L563.467 301.984ZM643.258 188.484H659.436L669.762 170.249H653.584L646.777 182.27L643.258 188.484ZM627.123 279.559H610.945V275.415V267.401H627.123V279.559ZM611.371 201.487V244.312H624.858L641.557 227.407V205.308H682.467V201.484H641.557V201.487H611.371ZM656.84 254.695H613.072V256.307H658.022V256.085L658.21 256.306L679.904 230.793L678.534 229.182L656.84 254.695ZM453.107 306.195H600.094V307.807H453.107V306.195ZM600.094 310.809H448.855V312.42H600.094V310.809ZM443.754 315.418H600.094V317.029H443.754V315.418ZM664.284 303.007C664.384 303 664.484 302.998 664.584 303.002L664.853 303.014C664.916 303.016 664.979 303.021 665.042 303.029C665.076 303.033 665.11 303.038 665.144 303.043L665.412 303.086C665.463 303.095 665.514 303.104 665.564 303.116C665.6 303.124 665.635 303.133 665.67 303.143L665.939 303.218C666.012 303.238 666.083 303.262 666.152 303.289L666.421 303.395C666.479 303.418 666.535 303.443 666.59 303.47L666.858 303.606C666.903 303.629 666.946 303.653 666.988 303.678L667.256 303.843L667.271 303.852L667.29 303.864L667.31 303.877L667.323 303.886C667.334 303.893 667.345 303.901 667.356 303.908L667.624 304.1C667.65 304.119 667.675 304.138 667.699 304.157L667.968 304.375L667.99 304.393L668.003 304.404L668.016 304.416L668.025 304.424L668.293 304.664C668.308 304.678 668.323 304.692 668.337 304.705L668.606 304.968C668.617 304.979 668.628 304.99 668.639 305.002L668.908 305.283C668.916 305.292 668.925 305.302 668.933 305.311L669.202 305.609L669.205 305.613L669.221 305.631L669.489 305.943L669.503 305.96L669.772 306.284L669.781 306.296L670.05 306.628L670.056 306.635L670.327 306.976L670.859 307.649L670.863 307.654L671.124 307.981L671.383 308.298L671.638 308.602L671.888 308.888L672.131 309.153L672.367 309.395L672.617 309.631C673.201 310.186 673.036 310.969 672.246 311.38C671.457 311.791 670.343 311.674 669.759 311.119L669.49 310.865C669.478 310.853 669.465 310.841 669.453 310.828L669.185 310.554L669.171 310.54L669.156 310.524L668.888 310.232L668.877 310.219L668.867 310.208L668.598 309.9L668.591 309.892L668.582 309.882L668.314 309.562L668.303 309.548L668.034 309.219L668.027 309.21L667.758 308.874L667.754 308.869L667.22 308.193L667.217 308.189L666.954 307.859L666.694 307.537L666.437 307.228L666.186 306.935L665.939 306.661L665.7 306.41L665.47 306.185L665.252 305.99L665.05 305.826L664.868 305.696L664.714 305.602L664.594 305.541L664.518 305.511L664.499 305.517L664.408 305.555L664.278 305.625L664.115 305.73L663.926 305.87L663.719 306.044L663.497 306.248L663.264 306.481L663.023 306.739L662.775 307.018L662.522 307.316L662.264 307.629L662.005 307.952L662 307.958L661.738 308.288L661.195 308.975L660.927 309.309L660.918 309.319L660.65 309.646L660.637 309.661L660.369 309.977L660.36 309.988L660.351 309.997L660.083 310.301C660.075 310.309 660.068 310.318 660.06 310.326L659.791 310.614C659.781 310.624 659.771 310.635 659.761 310.646L659.492 310.915C659.479 310.928 659.466 310.94 659.452 310.953L659.184 311.201C659.175 311.209 659.167 311.217 659.159 311.224L659.149 311.233L659.131 311.248L658.863 311.473L658.845 311.488L658.837 311.494C658.823 311.505 658.809 311.517 658.794 311.527L658.526 311.728C658.497 311.75 658.467 311.771 658.435 311.791L658.167 311.964C658.129 311.989 658.089 312.013 658.048 312.035L657.78 312.18C657.73 312.207 657.678 312.232 657.625 312.255L657.356 312.371C657.292 312.399 657.226 312.423 657.158 312.445L656.889 312.53C656.81 312.555 656.729 312.576 656.646 312.593L656.377 312.647C656.351 312.652 656.324 312.657 656.297 312.662C656.274 312.665 656.251 312.669 656.229 312.672C656.204 312.675 656.18 312.678 656.155 312.681C656.135 312.683 656.115 312.685 656.095 312.687L655.827 312.709C655.727 312.717 655.626 312.719 655.526 312.715L655.258 312.705C655.16 312.702 655.062 312.692 654.966 312.677L654.698 312.635C654.664 312.63 654.631 312.624 654.599 312.618C654.58 312.614 654.562 312.61 654.543 312.606C654.523 312.601 654.503 312.597 654.482 312.592C654.467 312.588 654.453 312.584 654.438 312.58L654.169 312.506C654.095 312.486 654.023 312.462 653.954 312.435L653.685 312.331C653.627 312.308 653.57 312.283 653.515 312.255L653.246 312.121C653.201 312.098 653.157 312.074 653.115 312.048L652.846 311.885C652.812 311.864 652.778 311.842 652.746 311.819L652.478 311.628C652.463 311.618 652.449 311.608 652.435 311.597C652.424 311.588 652.413 311.58 652.402 311.571L652.133 311.355C652.113 311.339 652.094 311.322 652.075 311.305L651.807 311.065C651.792 311.052 651.777 311.038 651.762 311.024L651.494 310.762C651.482 310.751 651.471 310.74 651.46 310.728L651.192 310.447C651.183 310.438 651.174 310.429 651.166 310.42L650.897 310.122L650.886 310.109L650.878 310.1L650.61 309.788L650.595 309.771L650.327 309.448L650.317 309.436L650.049 309.104L650.042 309.096L649.774 308.759L649.771 308.756L649.239 308.082L649.235 308.077L648.974 307.75L648.715 307.432L648.46 307.128L648.21 306.841L647.966 306.575L647.729 306.332L647.503 306.117L647.29 305.931L647.094 305.779L646.92 305.661L646.776 305.578L646.67 305.528L646.623 305.511L646.58 305.527L646.476 305.575L646.333 305.656L646.161 305.773L645.966 305.924L645.753 306.108L645.527 306.323L645.291 306.564L645.048 306.829L644.798 307.115L644.543 307.419L644.284 307.737L644.023 308.063L644.019 308.068L643.487 308.741L643.484 308.745L643.216 309.082L643.21 309.09L642.942 309.422L642.932 309.434L642.663 309.757L642.649 309.774L642.381 310.086L642.373 310.095L642.362 310.108L642.093 310.406C642.085 310.416 642.076 310.425 642.068 310.434L641.799 310.715C641.788 310.727 641.777 310.738 641.766 310.749L641.497 311.012L641.484 311.025C641.474 311.034 641.464 311.044 641.453 311.053L641.185 311.294C641.167 311.31 641.147 311.327 641.128 311.343L640.859 311.56C640.835 311.58 640.81 311.599 640.784 311.617L640.516 311.809C640.502 311.819 640.487 311.829 640.473 311.838C640.455 311.851 640.436 311.863 640.417 311.874L640.148 312.039C640.106 312.064 640.063 312.089 640.018 312.111L639.75 312.247C639.695 312.274 639.639 312.3 639.581 312.323L639.312 312.428C639.243 312.455 639.172 312.479 639.099 312.5L638.83 312.575C638.746 312.598 638.66 312.617 638.572 312.631L638.304 312.674C638.208 312.69 638.111 312.7 638.013 312.704L637.745 312.715C637.692 312.717 637.64 312.718 637.587 312.717C637.567 312.716 637.548 312.716 637.528 312.715C637.5 312.714 637.472 312.712 637.444 312.71L637.176 312.689C637.146 312.687 637.117 312.684 637.087 312.681C637.053 312.677 637.019 312.672 636.985 312.667C636.954 312.662 636.923 312.657 636.892 312.651L636.624 312.598C636.54 312.582 636.458 312.561 636.378 312.536L636.11 312.452C636.041 312.431 635.974 312.406 635.909 312.379L635.641 312.264C635.62 312.255 635.599 312.246 635.578 312.236C635.555 312.225 635.533 312.214 635.51 312.203L635.484 312.189L635.216 312.045C635.19 312.031 635.165 312.017 635.141 312.002L635.113 311.985L635.096 311.974L634.827 311.801L634.815 311.793L634.788 311.776C634.779 311.77 634.771 311.764 634.762 311.758C634.753 311.751 634.744 311.745 634.736 311.738L634.467 311.539C634.443 311.521 634.42 311.503 634.398 311.484L634.129 311.26L634.108 311.242C634.097 311.232 634.087 311.223 634.076 311.213L633.808 310.966C633.8 310.959 633.793 310.952 633.786 310.945L633.767 310.927L633.499 310.659L633.485 310.645L633.468 310.627L633.2 310.34L633.19 310.33L633.176 310.314L632.908 310.012L632.89 309.991L632.622 309.675L632.609 309.66L632.34 309.334L632.332 309.323L632.063 308.989L632.058 308.983L631.255 307.969L630.994 307.643L630.736 307.329L630.482 307.03L630.234 306.75L629.993 306.491L629.759 306.257L629.537 306.052L629.329 305.877L629.14 305.735L628.975 305.629L628.843 305.558L628.751 305.518L628.72 305.508L628.63 305.522C627.671 305.672 626.721 305.247 626.508 304.573C626.294 303.9 626.899 303.232 627.858 303.082L628.126 303.04C628.222 303.025 628.32 303.016 628.418 303.012L628.686 303.002C628.724 303.001 628.761 303 628.798 303C628.861 303.001 628.924 303.004 628.987 303.009L629.255 303.031C629.35 303.039 629.445 303.052 629.537 303.07L629.806 303.124C629.84 303.131 629.874 303.139 629.907 303.147C629.931 303.153 629.955 303.159 629.979 303.166C630.003 303.173 630.026 303.18 630.049 303.187L630.318 303.272C630.357 303.285 630.396 303.298 630.433 303.312C630.448 303.318 630.462 303.323 630.475 303.329C630.489 303.335 630.503 303.34 630.516 303.346L630.785 303.462C630.804 303.47 630.824 303.479 630.843 303.488C630.876 303.504 630.908 303.52 630.94 303.537L631.208 303.682L631.227 303.693C631.242 303.701 631.256 303.709 631.27 303.718C631.29 303.729 631.309 303.741 631.327 303.753L631.595 303.927C631.627 303.947 631.657 303.968 631.686 303.989L631.954 304.19C631.978 304.207 632.001 304.226 632.023 304.244L632.291 304.47L632.305 304.481L632.319 304.493L632.328 304.501L632.344 304.516L632.612 304.764L632.633 304.784L632.652 304.803L632.921 305.072L632.937 305.089L632.951 305.104L633.22 305.391C633.228 305.399 633.235 305.408 633.243 305.417L633.511 305.72L633.529 305.74L633.797 306.056L633.81 306.071L634.078 306.398L634.087 306.409L634.36 306.749L635.163 307.763L635.424 308.088L635.682 308.401L635.935 308.699L636.183 308.979L636.424 309.237L636.657 309.469L636.879 309.674L637.086 309.847L637.275 309.987L637.438 310.092L637.568 310.162L637.659 310.2L637.678 310.206L637.754 310.176L637.874 310.116L638.028 310.021L638.21 309.891L638.412 309.728L638.63 309.532L638.86 309.307L639.099 309.056L639.346 308.783L639.597 308.49L639.854 308.18L640.114 307.858L640.377 307.528L640.38 307.525L640.918 306.843L641.187 306.507L641.194 306.498L641.463 306.169L641.474 306.155L641.742 305.836L641.758 305.817L642.027 305.51C642.034 305.502 642.041 305.494 642.048 305.486L642.317 305.193C642.326 305.183 642.335 305.173 642.345 305.164L642.613 304.889C642.625 304.877 642.638 304.864 642.65 304.852L642.919 304.598C642.928 304.589 642.938 304.58 642.948 304.571L642.967 304.554L643.236 304.322C643.256 304.304 643.277 304.287 643.299 304.27L643.568 304.062C643.594 304.041 643.622 304.021 643.651 304.001L643.919 303.82C643.955 303.796 643.991 303.773 644.029 303.751L644.298 303.598C644.324 303.582 644.352 303.567 644.38 303.553C644.4 303.543 644.421 303.533 644.441 303.523L644.71 303.399C644.769 303.371 644.831 303.346 644.895 303.324L645.163 303.229C645.238 303.203 645.315 303.181 645.394 303.162L645.663 303.099C645.711 303.088 645.759 303.078 645.808 303.07C645.83 303.066 645.851 303.063 645.873 303.06C645.894 303.057 645.914 303.054 645.935 303.052L646.204 303.02C646.302 303.009 646.401 303.003 646.501 303.003L646.77 303.004C646.869 303.004 646.969 303.01 647.067 303.022L647.335 303.055C647.427 303.066 647.518 303.082 647.606 303.104L647.874 303.168C647.953 303.187 648.029 303.21 648.103 303.236L648.372 303.331C648.393 303.339 648.413 303.347 648.434 303.355C648.475 303.371 648.516 303.388 648.555 303.407L648.824 303.532C648.873 303.555 648.92 303.58 648.966 303.606L649.234 303.761C649.272 303.783 649.308 303.806 649.343 303.83L649.611 304.012C649.623 304.02 649.634 304.028 649.645 304.036C649.662 304.048 649.678 304.06 649.694 304.072L649.962 304.281C649.974 304.29 649.985 304.299 649.996 304.309C650.006 304.317 650.015 304.325 650.025 304.333L650.293 304.566C650.31 304.581 650.326 304.595 650.341 304.61L650.61 304.865L650.627 304.882L650.636 304.891L650.646 304.902L650.915 305.177L650.927 305.19L650.943 305.207L651.211 305.5L651.222 305.512L651.232 305.523L651.501 305.831L651.516 305.85L651.785 306.17L651.796 306.183L652.064 306.513L652.072 306.522L652.344 306.862L652.878 307.539L652.881 307.542L653.143 307.872L653.404 308.194L653.66 308.502L653.912 308.795L654.158 309.067L654.396 309.317L654.626 309.541L654.843 309.735L655.045 309.898L655.226 310.026L655.379 310.119L655.497 310.178L655.569 310.206L655.591 310.199L655.683 310.16L655.815 310.088L655.979 309.982L656.169 309.84L656.377 309.666L656.599 309.46L656.833 309.226L657.074 308.967L657.322 308.687L657.576 308.388L657.834 308.074L658.093 307.752L658.098 307.745L658.628 307.075L658.898 306.734L658.903 306.728L659.172 306.394L659.18 306.384L659.449 306.057L659.462 306.042L659.73 305.726L659.748 305.706L660.016 305.403L660.025 305.393L660.039 305.377L660.308 305.091L660.32 305.078L660.339 305.059L660.607 304.79C660.615 304.783 660.623 304.775 660.63 304.768L660.648 304.751L660.916 304.504L660.93 304.491C660.943 304.48 660.956 304.469 660.969 304.457L661.238 304.233C661.26 304.214 661.283 304.196 661.307 304.178L661.576 303.979L661.593 303.967L661.605 303.958L661.617 303.949C661.633 303.938 661.65 303.927 661.667 303.916L661.935 303.743C661.974 303.719 662.014 303.695 662.056 303.673L662.324 303.528L662.35 303.515L662.378 303.5C662.395 303.492 662.412 303.484 662.429 303.476C662.446 303.468 662.463 303.461 662.481 303.453L662.749 303.339C662.779 303.326 662.81 303.314 662.841 303.302C662.877 303.289 662.913 303.276 662.95 303.265L663.218 303.181C663.298 303.156 663.38 303.135 663.464 303.119L663.732 303.066C663.825 303.048 663.92 303.035 664.016 303.028L664.284 303.007ZM616.73 313.734C619.489 313.734 621.726 311.104 621.726 307.859C621.726 304.615 619.489 301.984 616.73 301.984C613.971 301.984 611.734 304.615 611.734 307.859C611.734 311.104 613.971 313.734 616.73 313.734ZM982.974 264.402H1158.32V270.402H982.974V264.402ZM560.922 126.051H557.922V129.051V149.551V152.551V171.051H468.238V177.051H557.922V182.051H468.238V188.051H560.922H563.922V185.051V177.051V174.051V155.551H641.276V149.551H563.922V144.066H773.499V138.066H563.922V132.051H641.276V126.051H560.922ZM571.125 188.051H628.096V163.801H571.125V181.122V188.051ZM548.746 230.312H562.926V210.589H548.746V220.677V230.312ZM389.955 312.422H432.949V264.422H389.955V292.993H361.292V312.422H389.955ZM532.535 272.082H480.666V262.447V245.359L504.05 216.359H532.535V272.082ZM590.277 243.391H569.938V231.703V208.309H469.891V202.309H588.934V202.484H590.277V243.391ZM352.107 312.422H139.529V306.422H352.107V312.422ZM545.879 257.184H592.646V251.184H545.879V257.184ZM592.646 271.184H545.879V265.184H592.646V271.184Z" fill="url(#paint0_linear_3727_11250)"/>
<path d="M36 7H-14.7852L-31.4375 30.4387H-76V260.582L-57.7743 277.064M35.5 248.22H0.00545502M0.00545502 248.22H-31.4375M0.00545502 248.22L-22.0315 277.064H-57.7743M-57.7743 277.064V340M708.5 7H678.5M678.5 7L641.5 28.8099H606.464V146.903M678.5 7H641.5M702.5 127.752H657L638 146.903H606.464M606.464 260.582V146.903M1193 340H606.464V301.646V146.903M1337 301.646H1127L1096 340" stroke="#8F8E93" stroke-width="2" stroke-linejoin="round"/>
<path d="M-76 117H-7L17.5 129.5H46.5" stroke="#8F8E93" stroke-width="2"/>
<path d="M47.8139 3.29059C44.5472 3.27576 41.887 5.91191 41.8721 9.17861C41.8573 12.4453 44.4935 15.1055 47.7602 15.1203C51.0269 15.1352 53.6871 12.499 53.7019 9.23233C53.7167 5.96563 51.0806 3.30542 47.8139 3.29059Z" fill="black"/>
<path d="M35.493 6.89032C35.5066 3.89585 37.9451 1.47937 40.9396 1.49297C43.934 1.50657 46.3505 3.94509 46.3369 6.93956C46.3233 9.93403 43.8848 12.3505 40.8903 12.3369C37.8958 12.3233 35.4794 9.88479 35.493 6.89032Z" fill="#F0EFED" stroke="black" stroke-width="0.985823"/>
<path d="M47.8139 125.291C44.5472 125.276 41.887 127.912 41.8721 131.179C41.8573 134.445 44.4935 137.106 47.7602 137.12C51.0269 137.135 53.6871 134.499 53.7019 131.232C53.7167 127.966 51.0806 125.305 47.8139 125.291Z" fill="black"/>
<path d="M35.493 128.89C35.5066 125.896 37.9451 123.479 40.9396 123.493C43.934 123.507 46.3505 125.945 46.3369 128.94C46.3233 131.934 43.8848 134.351 40.8903 134.337C37.8958 134.323 35.4794 131.885 35.493 128.89Z" fill="#F0EFED" stroke="black" stroke-width="0.985823"/>
<path d="M48.0182 243.434C44.6994 243.418 41.9968 246.218 41.9818 249.688C41.9667 253.159 44.6449 255.984 47.9636 256C51.2824 256.016 53.985 253.216 54.0001 249.745C54.0152 246.275 51.337 243.449 48.0182 243.434Z" fill="black"/>
<path d="M35.493 247.257C35.5069 244.038 38.0082 241.479 41.0342 241.493C44.0603 241.507 46.5395 244.091 46.5255 247.31C46.5115 250.529 44.0103 253.088 40.9843 253.074C37.9581 253.059 35.479 250.476 35.493 247.257Z" fill="#F0EFED" stroke="black" stroke-width="0.985823"/>
</g>
<g clip-path="url(#clip1_3727_11250)">
<path opacity="0.25" fill-rule="evenodd" clip-rule="evenodd" d="M516.412 768.734H343.555L361.411 744.642H516.412V768.734ZM308.791 690.875H343.342V674.278H307.941L308.791 690.875ZM330.198 640.012H538.52V614.314H330.198V640.012ZM353.756 661.695H329.801V645.099H353.756V661.695ZM383.519 690.875H538.52V666.783H383.519V690.875ZM37.3535 757.59H294.729V744.492H37.3535H34.3535V741.492V723.399V720.399H37.3535H297.729V726.399H40.3535V738.492H297.729H300.729V741.492V760.59V763.59H297.729H37.3535V757.59ZM317.972 703.398H493.316V709.398H317.972V703.398ZM538.52 581.332H327.718V587.332H538.52V581.332ZM369.359 690.875V655.005V652.005H372.359H541V658.005H375.359V690.875H369.359ZM538.52 563.129H327.718V569.129H538.52V563.129ZM327.718 546H538.52V552H327.718V546ZM-736.52 592.484H-751L-747.85 597.255L-741.757 606.484H-727.277L-736.52 592.484ZM-717.727 592.484H-732.207L-729.057 597.255L-722.964 606.484H-708.484L-717.727 592.484ZM-715.229 765.935V723.109H-701.741L-685.043 740.015V765.935H-715.229ZM-672.021 706.633V716.836H-664.581V710.661L-668.697 706.633H-672.021ZM-660.332 716.836V706.633H-657.008L-652.892 710.661V716.836H-660.332ZM-648.639 706.633V716.836H-641.198V710.661L-645.314 706.633H-648.639ZM-688.005 711.736L-688.195 711.513V711.736H-721.027V710.125H-689.375L-673.393 691.329L-672.023 692.94L-688.005 711.736ZM-712.88 613.701C-712.981 613.697 -713.081 613.699 -713.181 613.707L-713.449 613.727C-713.545 613.735 -713.64 613.748 -713.733 613.766L-714.001 613.818C-714.085 613.835 -714.167 613.855 -714.247 613.88L-714.515 613.964C-714.584 613.986 -714.651 614.01 -714.715 614.038L-714.984 614.152C-715.038 614.175 -715.09 614.201 -715.141 614.228L-715.409 614.372C-715.451 614.394 -715.491 614.418 -715.529 614.443L-715.798 614.615C-715.829 614.635 -715.86 614.656 -715.889 614.678L-716.158 614.878C-716.182 614.895 -716.205 614.914 -716.227 614.932L-716.496 615.157C-716.505 615.164 -716.513 615.172 -716.522 615.179L-716.535 615.191L-716.549 615.203L-716.817 615.451C-716.831 615.463 -716.844 615.476 -716.858 615.49L-717.126 615.758L-717.137 615.769C-717.144 615.776 -717.15 615.783 -717.157 615.79L-717.425 616.076C-717.433 616.085 -717.441 616.094 -717.449 616.102L-717.717 616.405L-717.735 616.425L-718.003 616.741L-718.016 616.756L-718.285 617.083L-718.293 617.093L-718.562 617.427L-718.567 617.434L-718.837 617.774L-719.367 618.445L-719.372 618.451L-719.631 618.774L-719.889 619.087L-720.143 619.386L-720.391 619.667L-720.632 619.925L-720.866 620.159L-721.088 620.365L-721.296 620.54L-721.485 620.681L-721.65 620.787L-721.782 620.859L-721.874 620.899L-721.896 620.906L-721.968 620.877L-722.086 620.818L-722.239 620.725L-722.42 620.597L-722.622 620.434L-722.839 620.24L-723.069 620.016L-723.307 619.767L-723.553 619.494L-723.805 619.202L-724.061 618.893L-724.321 618.571L-724.584 618.242L-724.587 618.238L-725.121 617.562L-725.393 617.221L-725.401 617.212L-725.669 616.882L-725.68 616.869L-725.949 616.549L-725.964 616.53L-726.233 616.223L-726.243 616.211L-726.254 616.199L-726.522 615.906C-726.531 615.896 -726.541 615.886 -726.55 615.876L-726.819 615.601C-726.831 615.589 -726.843 615.576 -726.855 615.565L-727.124 615.309C-727.139 615.294 -727.155 615.28 -727.172 615.265L-727.44 615.032C-727.46 615.015 -727.481 614.997 -727.503 614.981L-727.771 614.772C-727.798 614.751 -727.825 614.731 -727.854 614.712L-728.122 614.529C-728.157 614.505 -728.193 614.482 -728.231 614.461L-728.499 614.306C-728.545 614.279 -728.592 614.255 -728.641 614.232L-728.91 614.106C-728.969 614.078 -729.03 614.053 -729.093 614.031L-729.361 613.935C-729.435 613.909 -729.512 613.886 -729.59 613.867L-729.859 613.803C-729.947 613.782 -730.038 613.765 -730.13 613.754L-730.398 613.722C-730.496 613.71 -730.596 613.703 -730.695 613.703L-730.964 613.703C-731.063 613.702 -731.163 613.708 -731.261 613.719L-731.53 613.751C-731.622 613.762 -731.713 613.777 -731.802 613.798L-732.071 613.861C-732.15 613.88 -732.227 613.902 -732.301 613.929L-732.57 614.023C-732.634 614.045 -732.695 614.07 -732.755 614.098L-733.023 614.222C-733.073 614.246 -733.121 614.27 -733.167 614.297L-733.436 614.451C-733.474 614.472 -733.51 614.495 -733.545 614.519L-733.814 614.701C-733.843 614.72 -733.87 614.74 -733.897 614.761L-734.166 614.969C-734.188 614.986 -734.209 615.003 -734.229 615.021L-734.498 615.253C-734.514 615.267 -734.53 615.282 -734.546 615.297L-734.815 615.552C-734.827 615.564 -734.84 615.576 -734.852 615.588L-735.12 615.863C-735.13 615.873 -735.139 615.883 -735.148 615.893L-735.417 616.185C-735.424 616.193 -735.431 616.201 -735.438 616.209L-735.707 616.516L-735.722 616.535L-735.991 616.855L-736.002 616.868L-736.271 617.197L-736.278 617.207L-736.546 617.542L-737.085 618.224L-737.088 618.227L-737.351 618.558L-737.611 618.88L-737.867 619.189L-738.119 619.482L-738.365 619.755L-738.604 620.006L-738.834 620.231L-739.052 620.427L-739.255 620.591L-739.437 620.72L-739.591 620.815L-739.71 620.875L-739.787 620.906L-739.806 620.9L-739.896 620.861L-740.027 620.791L-740.19 620.686L-740.378 620.546L-740.586 620.373L-740.808 620.168L-741.041 619.936L-741.282 619.678L-741.53 619.398L-741.783 619.1L-742.041 618.787L-742.302 618.462L-743.105 617.448L-743.378 617.108L-743.387 617.097L-743.655 616.771L-743.668 616.756L-743.936 616.439L-743.953 616.419L-744.222 616.116C-744.229 616.107 -744.237 616.099 -744.245 616.09L-744.514 615.803C-744.523 615.792 -744.534 615.781 -744.544 615.771L-744.813 615.502C-744.826 615.489 -744.839 615.476 -744.853 615.463L-745.121 615.215C-745.138 615.199 -745.155 615.184 -745.173 615.169L-745.442 614.943C-745.464 614.925 -745.487 614.907 -745.511 614.889L-745.779 614.689C-745.808 614.667 -745.838 614.646 -745.869 614.626L-746.138 614.452C-746.176 614.427 -746.216 614.404 -746.257 614.382L-746.525 614.236C-746.575 614.209 -746.627 614.184 -746.68 614.161L-746.949 614.045C-747.013 614.018 -747.079 613.993 -747.147 613.971L-747.415 613.886C-747.494 613.861 -747.576 613.84 -747.659 613.823L-747.928 613.77C-748.02 613.751 -748.114 613.738 -748.21 613.73L-748.478 613.708C-748.578 613.7 -748.678 613.697 -748.779 613.701L-749.047 613.711C-749.145 613.715 -749.243 613.724 -749.339 613.739L-749.607 613.781C-750.566 613.931 -751.17 614.599 -750.957 615.273C-750.744 615.947 -749.794 616.371 -748.835 616.222L-748.744 616.207L-748.714 616.217L-748.622 616.257L-748.49 616.328L-748.325 616.435L-748.136 616.576L-747.928 616.751L-747.705 616.957L-747.472 617.19L-747.231 617.449L-746.983 617.729L-746.729 618.028L-746.471 618.342L-746.21 618.668L-745.407 619.682L-745.402 619.688L-745.133 620.022L-745.124 620.033L-744.856 620.359L-744.843 620.375L-744.575 620.69L-744.557 620.711L-744.289 621.013C-744.281 621.022 -744.273 621.031 -744.265 621.039L-743.997 621.326C-743.987 621.337 -743.976 621.347 -743.966 621.358L-743.698 621.626C-743.69 621.633 -743.683 621.64 -743.676 621.647L-743.657 621.665L-743.389 621.912C-743.371 621.928 -743.354 621.944 -743.336 621.959L-743.067 622.183C-743.045 622.202 -743.022 622.22 -742.998 622.238L-742.729 622.437C-742.7 622.459 -742.669 622.48 -742.638 622.501L-742.369 622.673C-742.331 622.698 -742.291 622.722 -742.249 622.744L-741.981 622.888C-741.93 622.915 -741.878 622.94 -741.824 622.963L-741.555 623.078C-741.491 623.105 -741.424 623.13 -741.355 623.152L-741.087 623.235C-741.007 623.26 -740.925 623.281 -740.841 623.298L-740.573 623.35C-740.48 623.368 -740.385 623.381 -740.289 623.388L-740.021 623.409C-739.921 623.417 -739.821 623.418 -739.72 623.414L-739.452 623.403C-739.354 623.399 -739.257 623.389 -739.161 623.373L-738.893 623.33C-738.805 623.316 -738.718 623.297 -738.635 623.274L-738.366 623.199C-738.293 623.178 -738.221 623.155 -738.153 623.127L-737.884 623.022C-737.826 622.999 -737.77 622.974 -737.715 622.946L-737.447 622.811C-737.402 622.788 -737.358 622.764 -737.317 622.738L-737.048 622.574C-737.014 622.553 -736.981 622.531 -736.949 622.508L-736.681 622.316C-736.655 622.298 -736.63 622.279 -736.606 622.259L-736.337 622.042C-736.328 622.035 -736.319 622.027 -736.31 622.02C-736.3 622.011 -736.29 622.002 -736.28 621.993L-736.011 621.752C-735.996 621.739 -735.982 621.725 -735.968 621.711L-735.699 621.449C-735.688 621.437 -735.677 621.426 -735.666 621.415L-735.397 621.133C-735.389 621.124 -735.38 621.115 -735.372 621.106L-735.103 620.807L-735.091 620.794L-735.084 620.785L-734.816 620.473L-734.802 620.456L-734.533 620.133L-734.523 620.121L-734.255 619.789L-734.249 619.781L-733.98 619.444L-733.978 619.44L-733.446 618.767L-733.442 618.762L-733.181 618.436L-732.922 618.118L-732.667 617.815L-732.417 617.529L-732.174 617.263L-731.938 617.022L-731.712 616.808L-731.499 616.624L-731.304 616.472L-731.131 616.356L-730.989 616.274L-730.885 616.226L-730.841 616.211L-730.795 616.227L-730.688 616.277L-730.545 616.36L-730.371 616.478L-730.175 616.631L-729.962 616.816L-729.736 617.032L-729.499 617.274L-729.255 617.54L-729.005 617.827L-728.75 618.131L-728.491 618.45L-728.23 618.776L-728.226 618.781L-727.694 619.455L-727.691 619.458L-727.423 619.796L-727.416 619.803L-727.148 620.135L-727.138 620.147L-726.87 620.47L-726.855 620.487L-726.587 620.799L-726.577 620.81L-726.567 620.821L-726.299 621.119C-726.291 621.128 -726.282 621.137 -726.273 621.147L-726.005 621.428L-725.987 621.446L-725.971 621.462L-725.702 621.723L-725.686 621.739C-725.682 621.742 -725.678 621.746 -725.674 621.75C-725.669 621.755 -725.664 621.76 -725.658 621.765L-725.39 622.005L-725.373 622.019C-725.359 622.031 -725.346 622.042 -725.332 622.054L-725.063 622.27C-725.039 622.29 -725.013 622.309 -724.987 622.328L-724.719 622.518C-724.686 622.541 -724.653 622.563 -724.618 622.584L-724.35 622.747C-724.308 622.773 -724.264 622.797 -724.218 622.82L-723.95 622.954C-723.895 622.982 -723.838 623.007 -723.779 623.03L-723.511 623.134C-723.441 623.161 -723.369 623.185 -723.295 623.206L-723.027 623.279C-722.943 623.302 -722.856 623.321 -722.767 623.335L-722.499 623.376C-722.403 623.391 -722.305 623.401 -722.207 623.405L-721.939 623.415C-721.838 623.418 -721.738 623.416 -721.638 623.408L-721.37 623.386C-721.274 623.378 -721.18 623.365 -721.088 623.346L-720.819 623.292C-720.736 623.276 -720.654 623.255 -720.575 623.23L-720.307 623.144C-720.239 623.123 -720.173 623.098 -720.109 623.07L-719.84 622.955C-719.787 622.932 -719.735 622.906 -719.685 622.879L-719.417 622.734C-719.376 622.712 -719.336 622.688 -719.298 622.664L-719.029 622.49C-719.014 622.48 -718.998 622.469 -718.983 622.459C-718.968 622.448 -718.953 622.438 -718.939 622.427L-718.671 622.227C-718.647 622.209 -718.624 622.191 -718.602 622.172L-718.333 621.947C-718.315 621.932 -718.298 621.916 -718.281 621.901L-718.013 621.652L-717.993 621.634L-717.988 621.629L-717.973 621.614L-717.704 621.345C-717.694 621.334 -717.684 621.324 -717.674 621.313L-717.405 621.026C-717.397 621.017 -717.39 621.009 -717.382 621L-717.113 620.697L-717.105 620.687L-717.096 620.677L-716.828 620.36L-716.815 620.345L-716.547 620.018L-716.538 620.008L-716.27 619.674L-715.726 618.987L-715.465 618.657L-715.46 618.651L-715.201 618.328L-714.943 618.015L-714.69 617.717L-714.442 617.438L-714.201 617.18L-713.968 616.947L-713.746 616.743L-713.538 616.569L-713.35 616.429L-713.187 616.325L-713.057 616.255L-712.966 616.216L-712.947 616.21L-712.871 616.24L-712.751 616.301L-712.597 616.395L-712.415 616.525L-712.212 616.689L-711.994 616.885L-711.764 617.11L-711.525 617.36L-711.279 617.634L-711.028 617.927L-710.771 618.236L-710.51 618.558L-710.248 618.888L-710.245 618.892L-709.71 619.568L-709.706 619.573L-709.438 619.909L-709.431 619.918L-709.162 620.247L-709.151 620.261L-708.882 620.581L-708.874 620.591L-708.867 620.599L-708.598 620.907L-708.588 620.918L-708.577 620.931L-708.308 621.223L-708.294 621.239L-708.28 621.253L-708.012 621.528L-708.001 621.538L-707.984 621.555L-707.975 621.564L-707.706 621.819C-707.121 622.373 -706.008 622.49 -705.218 622.079C-704.429 621.668 -704.264 620.885 -704.848 620.33L-705.098 620.094L-705.334 619.852L-705.577 619.587L-705.827 619.301L-706.082 618.998L-706.341 618.68L-706.602 618.354L-706.606 618.349L-707.138 617.675L-707.409 617.334L-707.415 617.327L-707.683 616.995L-707.693 616.983L-707.962 616.659L-707.976 616.643L-708.244 616.33C-708.25 616.323 -708.257 616.316 -708.263 616.308L-708.532 616.01L-708.542 615.999L-708.557 615.983L-708.826 615.701L-708.843 615.683L-708.859 615.667L-709.128 615.405C-709.142 615.391 -709.156 615.377 -709.171 615.364L-709.44 615.123C-709.447 615.116 -709.455 615.109 -709.462 615.103L-709.472 615.094L-709.489 615.081L-709.497 615.074L-709.766 614.857C-709.79 614.837 -709.815 614.818 -709.841 614.799L-710.109 614.608C-710.141 614.585 -710.174 614.563 -710.208 614.542L-710.477 614.378C-710.519 614.352 -710.562 614.328 -710.607 614.305L-710.875 614.17C-710.93 614.142 -710.986 614.117 -711.044 614.094L-711.313 613.988C-711.381 613.961 -711.453 613.937 -711.526 613.917L-711.795 613.842C-711.879 613.819 -711.965 613.8 -712.053 613.786L-712.321 613.742C-712.417 613.727 -712.514 613.717 -712.612 613.713L-712.88 613.701ZM-738.586 646.611V696.484H-730.72L-715.228 677.219V646.611H-738.586ZM-741.281 709.504L-729.955 720.254V774.059H-725.704V717.864L-738.611 705.613L-741.281 709.504ZM-318.631 752.77V746.384H-672.021V732.663H-318.631V726.746H-672.021V723.109H-315.215V736.299H-668.605V742.747H-315.215V756.406H-668.605V763.977H-543.948V767.614H-672.021V752.77H-318.631ZM-690.126 629.941V635.858H-650.5V649.579H-702.895V645.943H-653.916V639.495H-693.542V626.305H-662.404V629.941H-690.126ZM-0.745972 644.484H15.4316L25.7578 626.249H9.5802L2.77301 638.27L-0.745972 644.484ZM-194.015 757.984H-210.193L-198.166 742.749H-181.988L-194.015 757.984ZM-188.46 757.984H-172.283L-160.256 742.749H-176.433L-188.46 757.984ZM-150.55 757.984H-166.728L-154.701 742.749H-138.523L-150.55 757.984ZM-144.997 757.984H-128.82L-116.793 742.749H-132.971L-144.997 757.984ZM-107.089 757.984H-123.267L-111.24 742.749H-95.0625L-107.089 757.984ZM-101.533 757.984H-63.125V742.749H-89.5063L-101.533 757.984ZM-21.7421 644.484H-5.56445L4.76172 626.249H-11.4159L-18.2231 638.27L-21.7421 644.484ZM-37.877 735.559H-54.0546V731.415V723.401H-37.877V735.559ZM-53.6289 657.487V700.312H-40.1415L-23.4429 683.407V661.308H17.467V657.484H-23.4434V657.487H-53.6289ZM-8.16016 710.695H-51.9277V712.307H-6.97839V712.085L-6.79016 712.306L14.9044 686.793L13.5344 685.182L-8.16016 710.695ZM-211.893 762.195H-64.906V763.807H-211.893V762.195ZM-64.9064 766.809H-216.145V768.42H-64.9064V766.809ZM-221.246 771.418H-64.9061V773.029H-221.246V771.418ZM-0.716125 759.007C-0.616333 759 -0.515747 758.998 -0.415527 759.002L-0.147095 759.014C-0.0838623 759.016 -0.020874 759.021 0.041626 759.029C0.0758667 759.033 0.109924 759.038 0.143799 759.043L0.41217 759.086C0.463318 759.095 0.513855 759.104 0.563721 759.116C0.599609 759.124 0.635071 759.133 0.670166 759.143L0.938599 759.218C1.01202 759.238 1.08337 759.262 1.15222 759.289L1.42065 759.395C1.47894 759.418 1.53528 759.443 1.58954 759.47L1.85791 759.606C1.90289 759.629 1.94635 759.653 1.98804 759.678L2.25647 759.843L2.27081 759.852L2.2901 759.864L2.31012 759.877L2.32336 759.886C2.33423 759.893 2.34497 759.901 2.35559 759.908L2.62396 760.1C2.6499 760.119 2.67505 760.138 2.69928 760.157L2.96771 760.375L2.98987 760.393L3.00317 760.404L3.01611 760.416L3.02502 760.424L3.29346 760.664C3.30847 760.678 3.32306 760.692 3.33728 760.705L3.60565 760.968C3.61707 760.979 3.6283 760.99 3.63916 761.002L3.90759 761.283C3.91626 761.292 3.92474 761.302 3.93311 761.311L4.20154 761.609L4.2052 761.613L4.2207 761.631L4.48914 761.943L4.50323 761.96L4.77161 762.284L4.78149 762.296L5.04987 762.628L5.05591 762.635L5.32703 762.976L5.85925 763.649L5.86316 763.654L6.12396 763.981L6.38306 764.298L6.63782 764.602L6.88763 764.888L7.13129 765.153L7.36719 765.395L7.61658 765.631C8.20129 766.186 8.03552 766.969 7.24634 767.38C6.45715 767.791 5.34338 767.674 4.75867 767.119L4.49023 766.865C4.4776 766.853 4.46521 766.841 4.45319 766.828L4.18481 766.554L4.17126 766.54L4.15649 766.524L3.88812 766.232L3.87695 766.219L3.8667 766.208L3.59827 765.9L3.59131 765.892L3.58234 765.882L3.31396 765.562L3.30261 765.548L3.03418 765.219L3.02673 765.21L2.75836 764.874L2.75446 764.869L2.21973 764.193L2.21704 764.189L1.95435 763.859L1.69391 763.537L1.43738 763.228L1.18555 762.935L0.939453 762.661L0.700439 762.41L0.470459 762.185L0.25238 761.99L0.0499268 761.826L-0.131775 761.696L-0.286133 761.602L-0.405701 761.541L-0.482422 761.511L-0.501343 761.517L-0.591675 761.555L-0.722168 761.625L-0.885254 761.73L-1.07361 761.87L-1.28107 762.044L-1.50293 762.248L-1.73578 762.481L-1.97705 762.739L-2.22491 763.018L-2.47827 763.316L-2.73578 763.629L-2.99493 763.952L-3 763.958L-3.2616 764.288L-3.80487 764.975L-4.0733 765.309L-4.08179 765.319L-4.35022 765.646L-4.36279 765.661L-4.63123 765.977L-4.64001 765.988L-4.64862 765.997L-4.91705 766.301C-4.92468 766.309 -4.93237 766.318 -4.94031 766.326L-5.20868 766.614C-5.21869 766.624 -5.22888 766.635 -5.23932 766.646L-5.50769 766.915C-5.52075 766.928 -5.53412 766.94 -5.54779 766.953L-5.81616 767.201C-5.82452 767.209 -5.83295 767.217 -5.84149 767.224L-5.85138 767.233L-5.86865 767.248L-6.13702 767.473L-6.15454 767.488L-6.16284 767.494C-6.17688 767.505 -6.19122 767.517 -6.20581 767.527L-6.47418 767.728C-6.5033 767.75 -6.53345 767.771 -6.56464 767.791L-6.83301 767.964C-6.87122 767.989 -6.91089 768.013 -6.9519 768.035L-7.22034 768.18C-7.27014 768.207 -7.3219 768.232 -7.37549 768.255L-7.64392 768.371C-7.7077 768.399 -7.77393 768.423 -7.84222 768.445L-8.1106 768.53C-8.18964 768.555 -8.27112 768.576 -8.35449 768.593L-8.62292 768.647C-8.64948 768.652 -8.67621 768.657 -8.70306 768.662C-8.72577 768.665 -8.7486 768.669 -8.77148 768.672C-8.79578 768.675 -8.82019 768.678 -8.84467 768.681C-8.86469 768.683 -8.88477 768.685 -8.90491 768.687L-9.17334 768.709C-9.27301 768.717 -9.37354 768.719 -9.47375 768.715L-9.74213 768.705C-9.84033 768.702 -9.93799 768.692 -10.034 768.677L-10.3024 768.635C-10.3356 768.63 -10.3687 768.624 -10.4014 768.618C-10.4199 768.614 -10.4384 768.61 -10.4567 768.606C-10.4771 768.601 -10.4974 768.597 -10.5176 768.592C-10.5325 768.588 -10.5474 768.584 -10.5621 768.58L-10.8305 768.506C-10.9045 768.486 -10.9766 768.462 -11.0461 768.435L-11.3145 768.331C-11.3734 768.308 -11.4304 768.283 -11.4852 768.255L-11.7535 768.121C-11.7991 768.098 -11.843 768.074 -11.8852 768.048L-12.1536 767.885C-12.1882 767.864 -12.2217 767.842 -12.2538 767.819L-12.5222 767.628C-12.5367 767.618 -12.5509 767.608 -12.5648 767.597C-12.5762 767.588 -12.5874 767.58 -12.5984 767.571L-12.8668 767.355C-12.8868 767.339 -12.9061 767.322 -12.9249 767.305L-13.1932 767.065C-13.2084 767.052 -13.2232 767.038 -13.2375 767.024L-13.506 766.762C-13.5176 766.751 -13.5289 766.74 -13.5399 766.728L-13.8083 766.447C-13.8171 766.438 -13.8257 766.429 -13.8341 766.42L-14.1025 766.122L-14.1144 766.109L-14.1219 766.1L-14.3904 765.788L-14.4047 765.771L-14.6731 765.448L-14.683 765.436L-14.9515 765.104L-14.9577 765.096L-15.2261 764.759L-15.2289 764.756L-15.7615 764.082L-15.7653 764.077L-16.0262 763.75L-16.2854 763.432L-16.5405 763.128L-16.7905 762.841L-17.0344 762.575L-17.2707 762.332L-17.497 762.117L-17.7103 761.931L-17.9065 761.779L-18.08 761.661L-18.2236 761.578L-18.3298 761.528L-18.3766 761.511L-18.4199 761.527L-18.5244 761.575L-18.6666 761.656L-18.8389 761.773L-19.0342 761.924L-19.2469 762.108L-19.4728 762.323L-19.7087 762.564L-19.9523 762.829L-20.2021 763.115L-20.457 763.419L-20.7159 763.737L-20.9768 764.063L-20.9807 764.068L-21.5129 764.741L-21.5156 764.745L-21.7841 765.082L-21.7901 765.09L-22.0585 765.422L-22.0683 765.434L-22.3367 765.757L-22.3508 765.774L-22.6193 766.086L-22.627 766.095L-22.6384 766.108L-22.9069 766.406C-22.9152 766.416 -22.9237 766.425 -22.9324 766.434L-23.2008 766.715C-23.2117 766.727 -23.2229 766.738 -23.2343 766.749L-23.5027 767.012L-23.5162 767.025C-23.5261 767.034 -23.5362 767.044 -23.5465 767.053L-23.8149 767.294C-23.8334 767.31 -23.8525 767.327 -23.8723 767.343L-24.1407 767.56C-24.1649 767.58 -24.1901 767.599 -24.216 767.617L-24.4844 767.809C-24.4984 767.819 -24.5126 767.829 -24.527 767.838C-24.5455 767.851 -24.5643 767.863 -24.5835 767.874L-24.8519 768.039C-24.8937 768.064 -24.9371 768.089 -24.982 768.111L-25.2504 768.247C-25.3047 768.274 -25.3611 768.3 -25.4193 768.323L-25.6877 768.428C-25.7566 768.455 -25.8279 768.479 -25.9014 768.5L-26.1697 768.575C-26.2536 768.598 -26.3398 768.617 -26.4278 768.631L-26.6962 768.674C-26.7918 768.69 -26.8891 768.7 -26.9871 768.704L-27.2555 768.715C-27.3079 768.717 -27.3605 768.718 -27.413 768.717C-27.4326 768.716 -27.4523 768.716 -27.4719 768.715C-27.5 768.714 -27.5281 768.712 -27.5561 768.71L-27.8245 768.689C-27.854 768.687 -27.8835 768.684 -27.9128 768.681C-27.9471 768.677 -27.9811 768.672 -28.015 768.667C-28.0461 768.662 -28.077 768.657 -28.1077 768.651L-28.3762 768.598C-28.4601 768.582 -28.5422 768.561 -28.6219 768.536L-28.8903 768.452C-28.9592 768.431 -29.0261 768.406 -29.0906 768.379L-29.3589 768.264C-29.3804 768.255 -29.4015 768.246 -29.4224 768.236C-29.4451 768.225 -29.4675 768.214 -29.4895 768.203L-29.5158 768.189L-29.7842 768.045C-29.8097 768.031 -29.8347 768.017 -29.8591 768.002L-29.8873 767.985L-29.9045 767.974L-30.1729 767.801L-30.1853 767.793L-30.2117 767.776C-30.2205 767.77 -30.2292 767.764 -30.2377 767.758C-30.2467 767.751 -30.2556 767.745 -30.2644 767.738L-30.5328 767.539C-30.5568 767.521 -30.5799 767.503 -30.6024 767.484L-30.8707 767.26L-30.8922 767.242C-30.9029 767.232 -30.9135 767.223 -30.9238 767.213L-31.1921 766.966C-31.1996 766.959 -31.207 766.952 -31.2144 766.945L-31.2327 766.927L-31.5011 766.659L-31.5148 766.645L-31.5321 766.627L-31.8005 766.34L-31.8099 766.33L-31.824 766.314L-32.0924 766.012L-32.11 765.991L-32.3784 765.675L-32.3912 765.66L-32.6596 765.334L-32.6683 765.323L-32.9367 764.989L-32.9418 764.983L-33.7447 763.969L-34.0063 763.643L-34.2642 763.329L-34.5177 763.03L-34.7659 762.75L-35.0074 762.491L-35.2407 762.257L-35.4631 762.052L-35.6712 761.877L-35.8605 761.735L-36.0248 761.629L-36.1568 761.558L-36.249 761.518L-36.2797 761.508L-36.3704 761.522C-37.3291 761.672 -38.2792 761.247 -38.4924 760.573C-38.7056 759.9 -38.1011 759.232 -37.1423 759.082L-36.8739 759.04C-36.778 759.025 -36.6803 759.016 -36.5821 759.012L-36.3137 759.002C-36.2764 759.001 -36.239 759 -36.2017 759C-36.1387 759.001 -36.0759 759.004 -36.0133 759.009L-35.7449 759.031C-35.6495 759.039 -35.5552 759.052 -35.4629 759.07L-35.1945 759.124C-35.1602 759.131 -35.1262 759.139 -35.0927 759.147C-35.0685 759.153 -35.0447 759.159 -35.021 759.166C-34.9973 759.173 -34.9738 759.18 -34.9506 759.187L-34.6822 759.272C-34.6429 759.285 -34.6044 759.298 -34.5665 759.312C-34.5524 759.318 -34.5385 759.323 -34.5245 759.329C-34.5109 759.335 -34.4973 759.34 -34.4838 759.346L-34.2155 759.462C-34.1956 759.47 -34.176 759.479 -34.1567 759.488C-34.1238 759.504 -34.0917 759.52 -34.0603 759.537L-33.7919 759.682L-33.7728 759.693C-33.7582 759.701 -33.7438 759.709 -33.7296 759.718C-33.7103 759.729 -33.6915 759.741 -33.673 759.753L-33.4046 759.927C-33.3734 759.947 -33.3433 759.968 -33.3141 759.989L-33.0458 760.19C-33.0221 760.207 -32.9991 760.226 -32.977 760.244L-32.7086 760.47L-32.6954 760.481L-32.6808 760.493L-32.672 760.501L-32.6562 760.516L-32.3878 760.764L-32.3672 760.784L-32.3477 760.803L-32.0793 761.072L-32.0629 761.089L-32.0487 761.104L-31.7803 761.391C-31.7723 761.399 -31.7646 761.408 -31.757 761.417L-31.4886 761.72L-31.4712 761.74L-31.2028 762.056L-31.1902 762.071L-30.9218 762.398L-30.9133 762.409L-30.64 762.749L-29.8374 763.763L-29.5759 764.088L-29.3182 764.401L-29.0649 764.699L-28.817 764.979L-28.5757 765.237L-28.3429 765.469L-28.121 765.674L-27.9136 765.847L-27.7252 765.987L-27.5621 766.092L-27.4316 766.162L-27.3413 766.2L-27.3224 766.206L-27.2456 766.176L-27.1261 766.116L-26.9717 766.021L-26.79 765.891L-26.5876 765.728L-26.3695 765.532L-26.1395 765.307L-25.9005 765.056L-25.6544 764.783L-25.4026 764.49L-25.1461 764.18L-24.8857 763.858L-24.6229 763.528L-24.6202 763.525L-24.0816 762.843L-23.8132 762.507L-23.8058 762.498L-23.5374 762.169L-23.526 762.155L-23.2576 761.836L-23.2417 761.817L-22.9733 761.51C-22.9662 761.502 -22.9591 761.494 -22.9518 761.486L-22.6835 761.193C-22.6742 761.183 -22.6648 761.173 -22.6552 761.164L-22.3867 760.889C-22.3747 760.877 -22.3624 760.864 -22.3497 760.852L-22.0813 760.598C-22.0717 760.589 -22.0618 760.58 -22.0518 760.571L-22.0328 760.554L-21.7644 760.322C-21.744 760.304 -21.7228 760.287 -21.7009 760.27L-21.4325 760.062C-21.4056 760.041 -21.3778 760.021 -21.349 760.001L-21.0806 759.82C-21.0453 759.796 -21.0087 759.773 -20.9708 759.751L-20.7024 759.598C-20.6755 759.582 -20.6481 759.567 -20.6201 759.553C-20.5999 759.543 -20.5794 759.533 -20.5586 759.523L-20.2902 759.399C-20.2307 759.371 -20.1688 759.346 -20.105 759.324L-19.8365 759.229C-19.762 759.203 -19.6848 759.181 -19.6057 759.162L-19.3373 759.099C-19.2894 759.088 -19.2409 759.078 -19.1919 759.07C-19.1704 759.066 -19.1487 759.063 -19.127 759.06C-19.1064 759.057 -19.0857 759.054 -19.0649 759.052L-18.7964 759.02C-18.6981 759.009 -18.5985 759.003 -18.4988 759.003L-18.2303 759.004C-18.1307 759.004 -18.0314 759.01 -17.9332 759.022L-17.6649 759.055C-17.5729 759.066 -17.4823 759.082 -17.394 759.104L-17.1255 759.168C-17.0471 759.187 -16.9706 759.21 -16.8966 759.236L-16.6282 759.331C-16.6073 759.339 -16.5866 759.347 -16.5662 759.355C-16.5248 759.371 -16.4843 759.388 -16.4449 759.407L-16.1765 759.532C-16.1273 759.555 -16.0798 759.58 -16.0342 759.606L-15.7659 759.761C-15.7283 759.783 -15.6921 759.806 -15.6573 759.83L-15.3889 760.012C-15.3773 760.02 -15.3658 760.028 -15.3546 760.036C-15.3381 760.048 -15.3221 760.06 -15.3063 760.072L-15.038 760.281C-15.0264 760.29 -15.0151 760.299 -15.004 760.309C-14.9942 760.317 -14.9846 760.325 -14.9752 760.333L-14.7068 760.566C-14.6903 760.581 -14.6743 760.595 -14.6588 760.61L-14.3904 760.865L-14.3732 760.882L-14.3638 760.891L-14.3538 760.902L-14.0854 761.177L-14.0728 761.19L-14.0574 761.207L-13.789 761.5L-13.7778 761.512L-13.7678 761.523L-13.4995 761.831L-13.4837 761.85L-13.2153 762.17L-13.2042 762.183L-12.9357 762.513L-12.9285 762.522L-12.6562 762.862L-12.1218 763.539L-12.119 763.542L-11.8566 763.872L-11.5962 764.194L-11.3398 764.502L-11.0884 764.795L-10.8425 765.067L-10.6038 765.317L-10.3743 765.541L-10.1567 765.735L-9.95508 765.898L-9.77441 766.026L-9.62134 766.119L-9.50342 766.178L-9.43073 766.206L-9.409 766.199L-9.31689 766.16L-9.18488 766.088L-9.02051 765.982L-8.8313 765.84L-8.62311 765.666L-8.4007 765.46L-8.16748 765.226L-7.9259 764.967L-7.6778 764.687L-7.42426 764.388L-7.16644 764.074L-6.90717 763.752L-6.90222 763.745L-6.37189 763.075L-6.10181 762.734L-6.09674 762.728L-5.82837 762.394L-5.8197 762.384L-5.55127 762.057L-5.53845 762.042L-5.27008 761.726L-5.25244 761.706L-4.98407 761.403L-4.97455 761.393L-4.96051 761.377L-4.69208 761.091L-4.6803 761.078L-4.66113 761.059L-4.3927 760.79C-4.38513 760.783 -4.37744 760.775 -4.36957 760.768L-4.35217 760.751L-4.0838 760.504L-4.06964 760.491C-4.05701 760.48 -4.04401 760.469 -4.03076 760.457L-3.76233 760.233C-3.73993 760.214 -3.71674 760.196 -3.69281 760.178L-3.42444 759.979L-3.40735 759.967L-3.3952 759.958L-3.38287 759.949C-3.36652 759.938 -3.34985 759.927 -3.33289 759.916L-3.06451 759.743C-3.02594 759.719 -2.98578 759.695 -2.94421 759.673L-2.67584 759.528L-2.65045 759.515L-2.62152 759.5C-2.60498 759.492 -2.58826 759.484 -2.57135 759.476C-2.55408 759.468 -2.53662 759.461 -2.51898 759.453L-2.25061 759.339C-2.22052 759.326 -2.18988 759.314 -2.15875 759.302C-2.12323 759.289 -2.08704 759.276 -2.05029 759.265L-1.78192 759.181C-1.70227 759.156 -1.62012 759.135 -1.53619 759.119L-1.26776 759.066C-1.17499 759.048 -1.08026 759.035 -0.984497 759.028L-0.716125 759.007ZM-48.27 769.734C-45.5111 769.734 -43.2745 767.104 -43.2745 763.859C-43.2745 760.615 -45.5111 757.984 -48.27 757.984C-51.0291 757.984 -53.2656 760.615 -53.2656 763.859C-53.2656 767.104 -51.0291 769.734 -48.27 769.734ZM317.974 720.402H493.318V726.402H317.974V720.402ZM-104.078 582.051H-107.078V585.051V605.551V608.551V627.051H-196.762V633.051H-107.078V638.051H-196.762V644.051H-104.078H-101.078V641.051V633.051V630.051V611.551H-23.7236V605.551H-101.078V600.066H108.499V594.066H-101.078V588.051H-23.7236V582.051H-104.078ZM-93.8752 644.051H-36.9043V619.801H-93.8752V637.122V644.051ZM-116.254 686.312H-102.074V666.589H-116.254V676.677V686.312ZM-275.045 768.422H-232.051V720.422H-275.045V748.993H-303.708V768.422H-275.045ZM-132.465 728.082H-184.334V718.447V701.359L-160.95 672.359H-132.465V728.082ZM-74.7227 699.391H-95.0616V687.703V664.309H-195.109V658.309H-76.0659V658.484H-74.7227V699.391ZM-312.893 768.422H-525.471V762.422H-312.893V768.422ZM-119.121 713.184H-72.354V707.184H-119.121V713.184ZM-72.354 727.184H-119.121V721.184H-72.354V727.184Z" fill="url(#paint1_linear_3727_11250)"/>
<path d="M43.4993 462H13.4993M13.4993 462L-23.5007 482.5H-58.5371V593.5M13.4993 462H-23.5007M37.4993 575.5H-8.00073L-27.0007 593.5H-58.5371M-58.5371 700.351V593.5M527.999 775H-58.5371V738.949V593.5M671.999 738.949H461.999L430.999 775" stroke="#8F8E93" stroke-width="2" stroke-linejoin="round"/>
<path d="M47.8139 457.291C44.5472 457.276 41.887 459.912 41.8721 463.179C41.8573 466.445 44.4935 469.106 47.7602 469.12C51.0269 469.135 53.6871 466.499 53.7019 463.232C53.7167 459.966 51.0806 457.305 47.8139 457.291Z" fill="black"/>
<path d="M35.493 460.89C35.5066 457.896 37.9451 455.479 40.9396 455.493C43.934 455.507 46.3505 457.945 46.3369 460.94C46.3233 463.934 43.8848 466.351 40.8903 466.337C37.8958 466.323 35.4794 463.885 35.493 460.89Z" fill="#F0EFED" stroke="black" stroke-width="0.985823"/>
<path d="M47.8139 571.411C44.5472 571.396 41.887 574.033 41.8721 577.299C41.8573 580.566 44.4935 583.226 47.7602 583.241C51.0269 583.256 53.6871 580.62 53.7019 577.353C53.7167 574.086 51.0806 571.426 47.8139 571.411Z" fill="black"/>
<path d="M35.493 575.011C35.5066 572.016 37.9451 569.6 40.9396 569.614C43.934 569.627 46.3505 572.066 46.3369 575.06C46.3233 578.055 43.8848 580.471 40.8903 580.458C37.8958 580.444 35.4794 578.005 35.493 575.011Z" fill="#F0EFED" stroke="black" stroke-width="0.985823"/>
<path d="M305 748.625L116.623 748.626L91.2959 725.399M91.2959 725.399L-7.70669 725.399L-57.7098 725.399L-57.347 699.414L6.54968 699.414L17.638 682.781L70.3074 682.781M91.2959 725.399L164.5 725.399" stroke="#8F8E93" stroke-width="2"/>
</g>
<defs>
<linearGradient id="paint0_linear_3727_11250" x1="1141" y1="318.059" x2="1143.35" y2="78.5655" gradientUnits="userSpaceOnUse">
<stop stop-color="#F1EFED"/>
<stop offset="0.503125" stop-color="#A9A5A4" stop-opacity="0.07"/>
<stop offset="1" stop-color="#F1EFED"/>
</linearGradient>
<linearGradient id="paint1_linear_3727_11250" x1="475.998" y1="774.059" x2="478.35" y2="534.565" gradientUnits="userSpaceOnUse">
<stop stop-color="#F1EFED"/>
<stop offset="0.503125" stop-color="#A9A5A4" stop-opacity="0.07"/>
<stop offset="1" stop-color="#F1EFED"/>
</linearGradient>
<clipPath id="clip0_3727_11250">
<rect width="595.588" height="319" fill="white"/>
</clipPath>
<clipPath id="clip1_3727_11250">
<rect width="783" height="335" fill="white" transform="translate(0 455)"/>
</clipPath>
</defs>
</svg>
