<svg width="1681" height="439" viewBox="0 0 1681 439" fill="none" xmlns="http://www.w3.org/2000/svg">
<path d="M208.533 93H151.748L135.096 123.031H76.5332V239.191M212.033 318.732H172.539M172.539 318.732H141.096M172.539 318.732V345.844H114.759M114.759 345.844H76.5332V239.191M114.759 345.844V418H172.539H607.507M879.033 93H851.033H814.033H778.997V136H793.6V188H778.997V234.5M875.033 206.5H829.533L810.533 234.5H778.997M1402.53 364L1118.27 360.051L1098.53 383H1037.53M607.507 418L636.713 438H778.997L808.203 418H829.533M607.507 418H676.533M778.997 234.5V318H793.6L829.533 318.732V350.866V360.051M1636.53 327.949H1336.53L1304.78 362.642M76.5332 239.191L126.549 238.724M150.502 238.5L126.549 238.724M126.549 238.724V205.5H212.033M851.033 418H829.533M1037.53 383V408.051H1188.53M1037.53 383H973.533M1258.53 408.051H1188.53M1188.53 408.051L1213.53 434.051H1415.53M829.533 418V383V360.051M973.533 383L953.799 360.051H829.533M973.533 383H912.533" stroke="#8F8E93" stroke-width="2" stroke-linejoin="round"/>
<g filter="url(#filter0_d_204_12043)">
<circle cx="213.533" cy="318.332" r="6" transform="rotate(-90.2602 213.533 318.332)" fill="#F0EFED"/>
<circle cx="213.533" cy="318.332" r="5.5" transform="rotate(-90.2602 213.533 318.332)" stroke="black"/>
</g>
<g filter="url(#filter1_d_204_12043)">
<circle cx="213.561" cy="92.0265" r="6" transform="rotate(-90.2602 213.561 92.0265)" fill="#F0EFED"/>
<circle cx="213.561" cy="92.0265" r="5.5" transform="rotate(-90.2602 213.561 92.0265)" stroke="black"/>
</g>
<g filter="url(#filter2_d_204_12043)">
<circle cx="213.561" cy="205.027" r="6" transform="rotate(-90.2602 213.561 205.027)" fill="#F0EFED"/>
<circle cx="213.561" cy="205.027" r="5.5" transform="rotate(-90.2602 213.561 205.027)" stroke="black"/>
</g>
<g filter="url(#filter3_d_204_12043)">
<ellipse rx="5.99998" ry="6" transform="matrix(0 -1 0.999999 -0.00173533 878.533 206.01)" fill="#F0EFED"/>
<path d="M878.533 200.51C881.571 200.505 884.033 202.963 884.033 206C884.033 209.038 881.571 211.505 878.533 211.51C875.496 211.515 873.033 209.057 873.033 206.019C873.033 202.982 875.496 200.515 878.533 200.51Z" stroke="black"/>
</g>
<g filter="url(#filter4_d_204_12043)">
<ellipse rx="5.99998" ry="6" transform="matrix(-0.00375524 -0.999993 0.999985 -0.00549055 878.556 92.0325)" fill="#F0EFED"/>
<path d="M878.535 86.5326C881.572 86.5159 884.044 88.9648 884.055 92.0023C884.067 95.0399 881.614 97.5158 878.576 97.5325C875.539 97.5492 873.067 95.1003 873.056 92.0627C873.044 89.0252 875.497 86.5493 878.535 86.5326Z" stroke="black"/>
</g>
<path d="M86.5332 361.998H102.533V418.998H86.5332V361.998Z" fill="url(#paint0_linear_204_12043)"/>
<path d="M141.783 255.901H147.283V312.901H141.783V255.901Z" fill="url(#paint1_linear_204_12043)"/>
<path d="M172.783 255.303H178.283V312.303H172.783V255.303Z" fill="url(#paint2_linear_204_12043)"/>
<path d="M182.783 255.303H186.033V312.303H182.783V255.303Z" fill="url(#paint3_linear_204_12043)"/>
<path d="M151.533 255.901H164.533V312.901H151.533V255.901Z" fill="url(#paint4_linear_204_12043)"/>
<path d="M92.0332 321.999H108.033V340.803H92.0332V321.999Z" fill="url(#paint5_linear_204_12043)"/>
<path d="M131.283 233.803H147.283V210.998H131.283V233.803Z" fill="url(#paint6_linear_204_12043)"/>
<path d="M92.0332 288.999H116.033L127.033 272.999V244.194H92.0332V288.999Z" fill="url(#paint7_linear_204_12043)"/>
<path d="M108.033 334.998H164.533V340.803L108.033 340.803V334.998Z" fill="url(#paint8_linear_204_12043)"/>
<path d="M119.033 354.401H178.533V327.401H186.033V362.205H119.033V354.401Z" fill="url(#paint9_linear_204_12043)"/>
<path d="M119.033 365.998H178.533V338.998H186.033V373.803H119.033V365.998Z" fill="url(#paint10_linear_204_12043)"/>
<path d="M119.033 378.623H178.533V351.623H186.033V386.428H119.033V378.623Z" fill="url(#paint11_linear_204_12043)"/>
<path d="M147.283 216.249H203.783V210.998L147.283 210.998V216.249Z" fill="url(#paint12_linear_204_12043)"/>
<path d="M58.2832 207.525H114.783V202.526H58.2832V207.525Z" fill="url(#paint13_linear_204_12043)"/>
<path d="M58.2832 213.077H114.783V210.998H58.2832V213.077Z" fill="url(#paint14_linear_204_12043)"/>
<path d="M58.2832 233.803H114.783V217.725H58.2832V233.803Z" fill="url(#paint15_linear_204_12043)"/>
<path d="M160.534 400.151H175.678L162.427 412.455H147.283L160.534 400.151Z" fill="url(#paint16_linear_204_12043)"/>
<path d="M182.778 400.151H197.922L184.671 412.455H169.527L182.778 400.151Z" fill="url(#paint17_linear_204_12043)"/>
<path d="M205.02 400.151H220.164L206.913 412.455H191.77L205.02 400.151Z" fill="url(#paint18_linear_204_12043)"/>
<path d="M123.331 106.194H138.475L129.224 118.499H114.08L123.331 106.194Z" fill="url(#paint19_linear_204_12043)"/>
<path d="M162.427 109.303H147.283L156.534 96.9988H171.678L162.427 109.303Z" fill="url(#paint20_linear_204_12043)"/>
<path d="M161.928 112.685H146.784L140.298 121.312H155.441L161.928 112.685Z" fill="url(#paint21_linear_204_12043)"/>
<path d="M199.596 179.372V171.27H0V150.63H199.596V141.729H2.73499V136.259H205.066V156.1H5.46998V165.8H205.066V184.842H0V179.372H199.596Z" fill="url(#paint22_linear_204_12043)"/>
<path d="M134.033 406.303C134.033 410.169 130.899 413.303 127.033 413.303C123.167 413.303 120.033 410.169 120.033 406.303C120.033 402.437 123.167 399.303 127.033 399.303C130.899 399.303 134.033 402.437 134.033 406.303Z" fill="url(#paint23_linear_204_12043)"/>
<path d="M106.033 306.999C106.033 310.865 102.899 313.999 99.0332 313.999C95.1672 313.999 92.0332 310.865 92.0332 306.999C92.0332 303.133 95.1672 299.999 99.0332 299.999C102.899 299.999 106.033 303.133 106.033 306.999Z" fill="url(#paint24_linear_204_12043)"/>
<path d="M69.7773 118.499H126.277V115.499H69.7773V118.499Z" fill="url(#paint25_linear_204_12043)"/>
<path d="M198.98 96.9988H159.48V99.9988H198.98V96.9988Z" fill="url(#paint26_linear_204_12043)"/>
<path d="M781.533 141.999H788.533V181.999H781.533V141.999Z" fill="url(#paint27_linear_204_12043)"/>
<path d="M797.631 141.999H800.434V181.999H797.631V141.999Z" fill="url(#paint28_linear_204_12043)"/>
<path d="M838.533 366.998H845.533V406.998H838.533V366.998Z" fill="url(#paint29_linear_204_12043)"/>
<path d="M817.533 322.498H824.533V362.498H817.533V322.498Z" fill="url(#paint30_linear_204_12043)"/>
<path d="M805.033 346.998H812.033V386.998H805.033V346.998Z" fill="url(#paint31_linear_204_12043)"/>
<path d="M817.533 370.248H824.533V410.248H817.533V370.248Z" fill="url(#paint32_linear_204_12043)"/>
<path d="M1068.42 394.998H1257.93V399.998H1068.42V394.998Z" fill="url(#paint33_linear_204_12043)"/>
<path d="M1444.53 335.748H1539.67V342.748H1444.53V335.748Z" fill="url(#paint34_linear_204_12043)"/>
<path d="M1022.78 386.998H1029.78V406.998H1022.78V386.998Z" fill="url(#paint35_linear_204_12043)"/>
<path d="M1471.78 346.998H1478.78V366.998H1471.78V346.998Z" fill="url(#paint36_linear_204_12043)"/>
<path d="M1012.03 386.998H1015.53V406.998H1012.03V386.998Z" fill="url(#paint37_linear_204_12043)"/>
<path d="M1461.03 346.998H1464.53V366.998H1461.03V346.998Z" fill="url(#paint38_linear_204_12043)"/>
<path d="M995.533 386.998H1004.78V406.998H995.533V386.998Z" fill="url(#paint39_linear_204_12043)"/>
<path d="M1444.53 346.998H1453.78V366.998H1444.53V346.998Z" fill="url(#paint40_linear_204_12043)"/>
<path d="M968.033 362.498H1099.53L1086.53 377.998H981.033L968.033 362.498Z" fill="url(#paint41_linear_204_12043)"/>
<path d="M1344.03 335.748H1435.53V356.998H1324.03L1344.03 335.748Z" fill="url(#paint42_linear_204_12043)"/>
<path d="M1183.03 415.137H1070.53V436.387H1202.03L1183.03 415.137Z" fill="url(#paint43_linear_204_12043)"/>
<path d="M601.418 423.789H265.918V437.998H617.418L601.418 423.789Z" fill="url(#paint44_linear_204_12043)"/>
<path d="M1297.78 353.123H1185.28V331.873H1316.78L1297.78 353.123Z" fill="url(#paint45_linear_204_12043)"/>
<path d="M800.284 218.194H815.428L806.177 230.499H791.033L800.284 218.194Z" fill="url(#paint46_linear_204_12043)"/>
<path d="M1124.28 364.998H1139.43L1130.18 377.302H1115.03L1124.28 364.998Z" fill="url(#paint47_linear_204_12043)"/>
<path d="M1218.19 427.441H1233.34L1224.09 415.137H1208.94L1218.19 427.441Z" fill="url(#paint48_linear_204_12043)"/>
<path d="M1155.59 364.998H1170.73L1161.48 377.302H1146.34L1155.59 364.998Z" fill="url(#paint49_linear_204_12043)"/>
<path d="M1249.5 427.441H1264.64L1255.39 415.137H1240.24L1249.5 427.441Z" fill="url(#paint50_linear_204_12043)"/>
<path d="M1186.89 364.998H1202.03L1192.78 377.302H1177.64L1186.89 364.998Z" fill="url(#paint51_linear_204_12043)"/>
<path d="M1280.8 427.441H1295.94L1286.69 415.137H1271.55L1280.8 427.441Z" fill="url(#paint52_linear_204_12043)"/>
<path d="M776.282 433.914H761.138L771.389 421.609H786.533L776.282 433.914Z" fill="url(#paint53_linear_204_12043)"/>
<path d="M648.782 421.609H633.638L643.889 433.914H659.033L648.782 421.609Z" fill="url(#paint54_linear_204_12043)"/>
<path d="M1218.19 364.998H1233.34L1224.09 377.302H1208.94L1218.19 364.998Z" fill="url(#paint55_linear_204_12043)"/>
<path d="M1249.5 364.998H1264.64L1255.39 377.302H1240.24L1249.5 364.998Z" fill="url(#paint56_linear_204_12043)"/>
<path fill-rule="evenodd" clip-rule="evenodd" d="M788.533 226.499V195.999H784.533V230.499H802.033V226.499H788.533Z" fill="url(#paint57_linear_204_12043)"/>
<path fill-rule="evenodd" clip-rule="evenodd" d="M785.533 126.999V96.4985H781.533V130.999H799.033V126.999H785.533Z" fill="url(#paint58_linear_204_12043)"/>
<path d="M785.033 292.064H812.119L824.533 274.007V241.499H785.033V292.064Z" fill="url(#paint59_linear_204_12043)"/>
<path d="M793.283 116.999H820.369L832.783 110.392V98.4988H793.283V116.999Z" fill="url(#paint60_linear_204_12043)"/>
<path d="M1038.13 345.528V337.425H838.533V316.787H1038.13V307.886H786.533V302.416H1043.6V322.256H844.003V331.956H1043.6V350.998H838.533V345.528H1038.13Z" fill="url(#paint61_linear_204_12043)"/>
<path d="M1534.2 415.819V407.717H1334.6V387.077H1534.2V378.176H1334.6V372.706H1539.67V392.547H1340.07V402.247H1539.67V421.289H1334.6V415.819H1534.2Z" fill="url(#paint62_linear_204_12043)"/>
<path d="M806.033 201.999C806.033 205.865 802.899 208.999 799.033 208.999C795.167 208.999 792.033 205.865 792.033 201.999C792.033 198.133 795.167 194.999 799.033 194.999C802.899 194.999 806.033 198.133 806.033 201.999Z" fill="url(#paint63_linear_204_12043)"/>
<path d="M1057.6 396.998C1057.6 400.864 1054.47 403.998 1050.6 403.998C1046.73 403.998 1043.6 400.864 1043.6 396.998C1043.6 393.132 1046.73 389.998 1050.6 389.998C1054.47 389.998 1057.6 393.132 1057.6 396.998Z" fill="url(#paint64_linear_204_12043)"/>
<path d="M1516.6 357.998C1516.6 361.864 1513.47 364.998 1509.6 364.998C1505.73 364.998 1502.6 361.864 1502.6 357.998C1502.6 354.132 1505.73 350.998 1509.6 350.998C1513.47 350.998 1516.6 354.132 1516.6 357.998Z" fill="url(#paint65_linear_204_12043)"/>
<path d="M677.254 424.762H744.918V427.762H677.254V424.762Z" fill="url(#paint66_linear_204_12043)"/>
<path d="M668.033 430.914H754.139V433.914H668.033V430.914Z" fill="url(#paint67_linear_204_12043)"/>
<path d="M1416.1 295.537H1528.6V316.787H1397.1L1416.1 295.537Z" fill="url(#paint68_linear_204_12043)"/>
<path d="M1429 132.53V124.427H1628.6V87.7879H1429V78.887H1680.6V73.417H1423.53V93.2579H1623.13V118.957H1423.53V138H1628.6V132.53H1429Z" fill="url(#paint69_linear_204_12043)"/>
<path d="M1509.6 150.749H1516.6V190.749H1509.6V150.749Z" fill="url(#paint70_linear_204_12043)"/>
<path d="M1491.6 175.249H1498.6V215.249H1491.6V175.249Z" fill="url(#paint71_linear_204_12043)"/>
<path d="M1509.6 198.499H1516.6V238.499H1509.6V198.499Z" fill="url(#paint72_linear_204_12043)"/>
<path d="M1429 227.847H1434.5V284.847H1429V227.847Z" fill="url(#paint73_linear_204_12043)"/>
<path d="M1460 227.249H1465.5V284.249H1460V227.249Z" fill="url(#paint74_linear_204_12043)"/>
<path d="M1470 227.249H1473.25V284.249H1470V227.249Z" fill="url(#paint75_linear_204_12043)"/>
<path d="M1438.75 227.847H1451.75V284.847H1438.75V227.847Z" fill="url(#paint76_linear_204_12043)"/>
<path d="M1596.1 282.787H1483.6V250.537H1615.1L1596.1 282.787Z" fill="url(#paint77_linear_204_12043)"/>
<path d="M1501.6 234.249C1501.6 238.115 1498.47 241.249 1494.6 241.249C1490.73 241.249 1487.6 238.115 1487.6 234.249C1487.6 230.383 1490.73 227.249 1494.6 227.249C1498.47 227.249 1501.6 230.383 1501.6 234.249Z" fill="url(#paint78_linear_204_12043)"/>
<path d="M1457.5 202.944H1442.36L1451.61 215.249H1466.75L1457.5 202.944Z" fill="url(#paint79_linear_204_12043)"/>
<path fill-rule="evenodd" clip-rule="evenodd" d="M1469.25 211.249V180.749H1473.25V215.249H1455.75V211.249H1469.25Z" fill="url(#paint80_linear_204_12043)"/>
<path d="M1451.75 186.749C1451.75 190.615 1454.89 193.749 1458.75 193.749C1462.62 193.749 1465.75 190.615 1465.75 186.749C1465.75 182.883 1462.62 179.749 1458.75 179.749C1454.89 179.749 1451.75 182.883 1451.75 186.749Z" fill="url(#paint81_linear_204_12043)"/>
<path d="M1453.1 150.749H1494.6V167.787H1433.1L1453.1 150.749Z" fill="url(#paint82_linear_204_12043)"/>
<path d="M1451.61 102.248H1546.74V109.248H1451.61V102.248Z" fill="url(#paint83_linear_204_12043)"/>
<defs>
<filter id="filter0_d_204_12043" x="207.533" y="312.332" width="19" height="14" filterUnits="userSpaceOnUse" color-interpolation-filters="sRGB">
<feFlood flood-opacity="0" result="BackgroundImageFix"/>
<feColorMatrix in="SourceAlpha" type="matrix" values="0 0 0 0 0 0 0 0 0 0 0 0 0 0 0 0 0 0 127 0" result="hardAlpha"/>
<feOffset dx="7" dy="2"/>
<feComposite in2="hardAlpha" operator="out"/>
<feColorMatrix type="matrix" values="0 0 0 0 0 0 0 0 0 0 0 0 0 0 0 0 0 0 1 0"/>
<feBlend mode="normal" in2="BackgroundImageFix" result="effect1_dropShadow_204_12043"/>
<feBlend mode="normal" in="SourceGraphic" in2="effect1_dropShadow_204_12043" result="shape"/>
</filter>
<filter id="filter1_d_204_12043" x="207.561" y="86.0264" width="19" height="14" filterUnits="userSpaceOnUse" color-interpolation-filters="sRGB">
<feFlood flood-opacity="0" result="BackgroundImageFix"/>
<feColorMatrix in="SourceAlpha" type="matrix" values="0 0 0 0 0 0 0 0 0 0 0 0 0 0 0 0 0 0 127 0" result="hardAlpha"/>
<feOffset dx="7" dy="2"/>
<feComposite in2="hardAlpha" operator="out"/>
<feColorMatrix type="matrix" values="0 0 0 0 0 0 0 0 0 0 0 0 0 0 0 0 0 0 1 0"/>
<feBlend mode="normal" in2="BackgroundImageFix" result="effect1_dropShadow_204_12043"/>
<feBlend mode="normal" in="SourceGraphic" in2="effect1_dropShadow_204_12043" result="shape"/>
</filter>
<filter id="filter2_d_204_12043" x="207.561" y="199.027" width="19" height="14" filterUnits="userSpaceOnUse" color-interpolation-filters="sRGB">
<feFlood flood-opacity="0" result="BackgroundImageFix"/>
<feColorMatrix in="SourceAlpha" type="matrix" values="0 0 0 0 0 0 0 0 0 0 0 0 0 0 0 0 0 0 127 0" result="hardAlpha"/>
<feOffset dx="7" dy="2"/>
<feComposite in2="hardAlpha" operator="out"/>
<feColorMatrix type="matrix" values="0 0 0 0 0 0 0 0 0 0 0 0 0 0 0 0 0 0 1 0"/>
<feBlend mode="normal" in2="BackgroundImageFix" result="effect1_dropShadow_204_12043"/>
<feBlend mode="normal" in="SourceGraphic" in2="effect1_dropShadow_204_12043" result="shape"/>
</filter>
<filter id="filter3_d_204_12043" x="872.533" y="200.01" width="19" height="14" filterUnits="userSpaceOnUse" color-interpolation-filters="sRGB">
<feFlood flood-opacity="0" result="BackgroundImageFix"/>
<feColorMatrix in="SourceAlpha" type="matrix" values="0 0 0 0 0 0 0 0 0 0 0 0 0 0 0 0 0 0 127 0" result="hardAlpha"/>
<feOffset dx="7" dy="2"/>
<feComposite in2="hardAlpha" operator="out"/>
<feColorMatrix type="matrix" values="0 0 0 0 0 0 0 0 0 0 0 0 0 0 0 0 0 0 1 0"/>
<feBlend mode="normal" in2="BackgroundImageFix" result="effect1_dropShadow_204_12043"/>
<feBlend mode="normal" in="SourceGraphic" in2="effect1_dropShadow_204_12043" result="shape"/>
</filter>
<filter id="filter4_d_204_12043" x="872.556" y="86.0327" width="19" height="14" filterUnits="userSpaceOnUse" color-interpolation-filters="sRGB">
<feFlood flood-opacity="0" result="BackgroundImageFix"/>
<feColorMatrix in="SourceAlpha" type="matrix" values="0 0 0 0 0 0 0 0 0 0 0 0 0 0 0 0 0 0 127 0" result="hardAlpha"/>
<feOffset dx="7" dy="2"/>
<feComposite in2="hardAlpha" operator="out"/>
<feColorMatrix type="matrix" values="0 0 0 0 0 0 0 0 0 0 0 0 0 0 0 0 0 0 1 0"/>
<feBlend mode="normal" in2="BackgroundImageFix" result="effect1_dropShadow_204_12043"/>
<feBlend mode="normal" in="SourceGraphic" in2="effect1_dropShadow_204_12043" result="shape"/>
</filter>
<linearGradient id="paint0_linear_204_12043" x1="587.971" y1="534.53" x2="574.457" y2="-22.1569" gradientUnits="userSpaceOnUse">
<stop offset="0.121234" stop-color="#F1EFED"/>
<stop offset="0.488143" stop-color="#DDDDDD" stop-opacity="0.22"/>
<stop offset="1" stop-color="#F1EFED"/>
</linearGradient>
<linearGradient id="paint1_linear_204_12043" x1="587.971" y1="534.53" x2="574.457" y2="-22.1569" gradientUnits="userSpaceOnUse">
<stop offset="0.121234" stop-color="#F1EFED"/>
<stop offset="0.488143" stop-color="#DDDDDD" stop-opacity="0.22"/>
<stop offset="1" stop-color="#F1EFED"/>
</linearGradient>
<linearGradient id="paint2_linear_204_12043" x1="587.971" y1="534.53" x2="574.457" y2="-22.1569" gradientUnits="userSpaceOnUse">
<stop offset="0.121234" stop-color="#F1EFED"/>
<stop offset="0.488143" stop-color="#DDDDDD" stop-opacity="0.22"/>
<stop offset="1" stop-color="#F1EFED"/>
</linearGradient>
<linearGradient id="paint3_linear_204_12043" x1="587.971" y1="534.53" x2="574.457" y2="-22.1569" gradientUnits="userSpaceOnUse">
<stop offset="0.121234" stop-color="#F1EFED"/>
<stop offset="0.488143" stop-color="#DDDDDD" stop-opacity="0.22"/>
<stop offset="1" stop-color="#F1EFED"/>
</linearGradient>
<linearGradient id="paint4_linear_204_12043" x1="587.971" y1="534.53" x2="574.457" y2="-22.1569" gradientUnits="userSpaceOnUse">
<stop offset="0.121234" stop-color="#F1EFED"/>
<stop offset="0.488143" stop-color="#DDDDDD" stop-opacity="0.22"/>
<stop offset="1" stop-color="#F1EFED"/>
</linearGradient>
<linearGradient id="paint5_linear_204_12043" x1="587.971" y1="534.53" x2="574.457" y2="-22.1569" gradientUnits="userSpaceOnUse">
<stop offset="0.121234" stop-color="#F1EFED"/>
<stop offset="0.488143" stop-color="#DDDDDD" stop-opacity="0.22"/>
<stop offset="1" stop-color="#F1EFED"/>
</linearGradient>
<linearGradient id="paint6_linear_204_12043" x1="587.971" y1="534.53" x2="574.457" y2="-22.1569" gradientUnits="userSpaceOnUse">
<stop offset="0.121234" stop-color="#F1EFED"/>
<stop offset="0.488143" stop-color="#DDDDDD" stop-opacity="0.22"/>
<stop offset="1" stop-color="#F1EFED"/>
</linearGradient>
<linearGradient id="paint7_linear_204_12043" x1="587.971" y1="534.53" x2="574.457" y2="-22.1569" gradientUnits="userSpaceOnUse">
<stop offset="0.121234" stop-color="#F1EFED"/>
<stop offset="0.488143" stop-color="#DDDDDD" stop-opacity="0.22"/>
<stop offset="1" stop-color="#F1EFED"/>
</linearGradient>
<linearGradient id="paint8_linear_204_12043" x1="587.971" y1="534.53" x2="574.457" y2="-22.1569" gradientUnits="userSpaceOnUse">
<stop offset="0.121234" stop-color="#F1EFED"/>
<stop offset="0.488143" stop-color="#DDDDDD" stop-opacity="0.22"/>
<stop offset="1" stop-color="#F1EFED"/>
</linearGradient>
<linearGradient id="paint9_linear_204_12043" x1="587.971" y1="534.53" x2="574.457" y2="-22.1569" gradientUnits="userSpaceOnUse">
<stop offset="0.121234" stop-color="#F1EFED"/>
<stop offset="0.488143" stop-color="#DDDDDD" stop-opacity="0.22"/>
<stop offset="1" stop-color="#F1EFED"/>
</linearGradient>
<linearGradient id="paint10_linear_204_12043" x1="587.971" y1="534.53" x2="574.457" y2="-22.1569" gradientUnits="userSpaceOnUse">
<stop offset="0.121234" stop-color="#F1EFED"/>
<stop offset="0.488143" stop-color="#DDDDDD" stop-opacity="0.22"/>
<stop offset="1" stop-color="#F1EFED"/>
</linearGradient>
<linearGradient id="paint11_linear_204_12043" x1="587.971" y1="534.53" x2="574.457" y2="-22.1569" gradientUnits="userSpaceOnUse">
<stop offset="0.121234" stop-color="#F1EFED"/>
<stop offset="0.488143" stop-color="#DDDDDD" stop-opacity="0.22"/>
<stop offset="1" stop-color="#F1EFED"/>
</linearGradient>
<linearGradient id="paint12_linear_204_12043" x1="587.971" y1="534.53" x2="574.457" y2="-22.1569" gradientUnits="userSpaceOnUse">
<stop offset="0.121234" stop-color="#F1EFED"/>
<stop offset="0.488143" stop-color="#DDDDDD" stop-opacity="0.22"/>
<stop offset="1" stop-color="#F1EFED"/>
</linearGradient>
<linearGradient id="paint13_linear_204_12043" x1="587.971" y1="534.53" x2="574.457" y2="-22.1569" gradientUnits="userSpaceOnUse">
<stop offset="0.121234" stop-color="#F1EFED"/>
<stop offset="0.488143" stop-color="#DDDDDD" stop-opacity="0.22"/>
<stop offset="1" stop-color="#F1EFED"/>
</linearGradient>
<linearGradient id="paint14_linear_204_12043" x1="587.971" y1="534.53" x2="574.457" y2="-22.1569" gradientUnits="userSpaceOnUse">
<stop offset="0.121234" stop-color="#F1EFED"/>
<stop offset="0.488143" stop-color="#DDDDDD" stop-opacity="0.22"/>
<stop offset="1" stop-color="#F1EFED"/>
</linearGradient>
<linearGradient id="paint15_linear_204_12043" x1="587.971" y1="534.53" x2="574.457" y2="-22.1569" gradientUnits="userSpaceOnUse">
<stop offset="0.121234" stop-color="#F1EFED"/>
<stop offset="0.488143" stop-color="#DDDDDD" stop-opacity="0.22"/>
<stop offset="1" stop-color="#F1EFED"/>
</linearGradient>
<linearGradient id="paint16_linear_204_12043" x1="587.971" y1="534.53" x2="574.457" y2="-22.1569" gradientUnits="userSpaceOnUse">
<stop offset="0.121234" stop-color="#F1EFED"/>
<stop offset="0.488143" stop-color="#DDDDDD" stop-opacity="0.22"/>
<stop offset="1" stop-color="#F1EFED"/>
</linearGradient>
<linearGradient id="paint17_linear_204_12043" x1="587.971" y1="534.53" x2="574.457" y2="-22.1569" gradientUnits="userSpaceOnUse">
<stop offset="0.121234" stop-color="#F1EFED"/>
<stop offset="0.488143" stop-color="#DDDDDD" stop-opacity="0.22"/>
<stop offset="1" stop-color="#F1EFED"/>
</linearGradient>
<linearGradient id="paint18_linear_204_12043" x1="587.971" y1="534.53" x2="574.457" y2="-22.1569" gradientUnits="userSpaceOnUse">
<stop offset="0.121234" stop-color="#F1EFED"/>
<stop offset="0.488143" stop-color="#DDDDDD" stop-opacity="0.22"/>
<stop offset="1" stop-color="#F1EFED"/>
</linearGradient>
<linearGradient id="paint19_linear_204_12043" x1="587.971" y1="534.53" x2="574.457" y2="-22.1569" gradientUnits="userSpaceOnUse">
<stop offset="0.121234" stop-color="#F1EFED"/>
<stop offset="0.488143" stop-color="#DDDDDD" stop-opacity="0.22"/>
<stop offset="1" stop-color="#F1EFED"/>
</linearGradient>
<linearGradient id="paint20_linear_204_12043" x1="587.971" y1="534.53" x2="574.457" y2="-22.1569" gradientUnits="userSpaceOnUse">
<stop offset="0.121234" stop-color="#F1EFED"/>
<stop offset="0.488143" stop-color="#DDDDDD" stop-opacity="0.22"/>
<stop offset="1" stop-color="#F1EFED"/>
</linearGradient>
<linearGradient id="paint21_linear_204_12043" x1="587.971" y1="534.53" x2="574.457" y2="-22.1569" gradientUnits="userSpaceOnUse">
<stop offset="0.121234" stop-color="#F1EFED"/>
<stop offset="0.488143" stop-color="#DDDDDD" stop-opacity="0.22"/>
<stop offset="1" stop-color="#F1EFED"/>
</linearGradient>
<linearGradient id="paint22_linear_204_12043" x1="587.971" y1="534.53" x2="574.457" y2="-22.1569" gradientUnits="userSpaceOnUse">
<stop offset="0.121234" stop-color="#F1EFED"/>
<stop offset="0.488143" stop-color="#DDDDDD" stop-opacity="0.22"/>
<stop offset="1" stop-color="#F1EFED"/>
</linearGradient>
<linearGradient id="paint23_linear_204_12043" x1="587.971" y1="534.53" x2="574.457" y2="-22.1569" gradientUnits="userSpaceOnUse">
<stop offset="0.121234" stop-color="#F1EFED"/>
<stop offset="0.488143" stop-color="#DDDDDD" stop-opacity="0.22"/>
<stop offset="1" stop-color="#F1EFED"/>
</linearGradient>
<linearGradient id="paint24_linear_204_12043" x1="587.971" y1="534.53" x2="574.457" y2="-22.1569" gradientUnits="userSpaceOnUse">
<stop offset="0.121234" stop-color="#F1EFED"/>
<stop offset="0.488143" stop-color="#DDDDDD" stop-opacity="0.22"/>
<stop offset="1" stop-color="#F1EFED"/>
</linearGradient>
<linearGradient id="paint25_linear_204_12043" x1="587.971" y1="534.53" x2="574.457" y2="-22.1569" gradientUnits="userSpaceOnUse">
<stop offset="0.121234" stop-color="#F1EFED"/>
<stop offset="0.488143" stop-color="#DDDDDD" stop-opacity="0.22"/>
<stop offset="1" stop-color="#F1EFED"/>
</linearGradient>
<linearGradient id="paint26_linear_204_12043" x1="587.971" y1="534.53" x2="574.457" y2="-22.1569" gradientUnits="userSpaceOnUse">
<stop offset="0.121234" stop-color="#F1EFED"/>
<stop offset="0.488143" stop-color="#DDDDDD" stop-opacity="0.22"/>
<stop offset="1" stop-color="#F1EFED"/>
</linearGradient>
<linearGradient id="paint27_linear_204_12043" x1="587.971" y1="534.53" x2="574.457" y2="-22.1569" gradientUnits="userSpaceOnUse">
<stop offset="0.121234" stop-color="#F1EFED"/>
<stop offset="0.488143" stop-color="#DDDDDD" stop-opacity="0.22"/>
<stop offset="1" stop-color="#F1EFED"/>
</linearGradient>
<linearGradient id="paint28_linear_204_12043" x1="587.971" y1="534.53" x2="574.457" y2="-22.1569" gradientUnits="userSpaceOnUse">
<stop offset="0.121234" stop-color="#F1EFED"/>
<stop offset="0.488143" stop-color="#DDDDDD" stop-opacity="0.22"/>
<stop offset="1" stop-color="#F1EFED"/>
</linearGradient>
<linearGradient id="paint29_linear_204_12043" x1="587.971" y1="534.53" x2="574.457" y2="-22.1569" gradientUnits="userSpaceOnUse">
<stop offset="0.121234" stop-color="#F1EFED"/>
<stop offset="0.488143" stop-color="#DDDDDD" stop-opacity="0.22"/>
<stop offset="1" stop-color="#F1EFED"/>
</linearGradient>
<linearGradient id="paint30_linear_204_12043" x1="587.971" y1="534.53" x2="574.457" y2="-22.1569" gradientUnits="userSpaceOnUse">
<stop offset="0.121234" stop-color="#F1EFED"/>
<stop offset="0.488143" stop-color="#DDDDDD" stop-opacity="0.22"/>
<stop offset="1" stop-color="#F1EFED"/>
</linearGradient>
<linearGradient id="paint31_linear_204_12043" x1="587.971" y1="534.53" x2="574.457" y2="-22.1569" gradientUnits="userSpaceOnUse">
<stop offset="0.121234" stop-color="#F1EFED"/>
<stop offset="0.488143" stop-color="#DDDDDD" stop-opacity="0.22"/>
<stop offset="1" stop-color="#F1EFED"/>
</linearGradient>
<linearGradient id="paint32_linear_204_12043" x1="587.971" y1="534.53" x2="574.457" y2="-22.1569" gradientUnits="userSpaceOnUse">
<stop offset="0.121234" stop-color="#F1EFED"/>
<stop offset="0.488143" stop-color="#DDDDDD" stop-opacity="0.22"/>
<stop offset="1" stop-color="#F1EFED"/>
</linearGradient>
<linearGradient id="paint33_linear_204_12043" x1="587.971" y1="534.53" x2="574.457" y2="-22.1569" gradientUnits="userSpaceOnUse">
<stop offset="0.121234" stop-color="#F1EFED"/>
<stop offset="0.488143" stop-color="#DDDDDD" stop-opacity="0.22"/>
<stop offset="1" stop-color="#F1EFED"/>
</linearGradient>
<linearGradient id="paint34_linear_204_12043" x1="587.971" y1="534.53" x2="574.457" y2="-22.1569" gradientUnits="userSpaceOnUse">
<stop offset="0.121234" stop-color="#F1EFED"/>
<stop offset="0.488143" stop-color="#DDDDDD" stop-opacity="0.22"/>
<stop offset="1" stop-color="#F1EFED"/>
</linearGradient>
<linearGradient id="paint35_linear_204_12043" x1="587.971" y1="534.53" x2="574.457" y2="-22.1569" gradientUnits="userSpaceOnUse">
<stop offset="0.121234" stop-color="#F1EFED"/>
<stop offset="0.488143" stop-color="#DDDDDD" stop-opacity="0.22"/>
<stop offset="1" stop-color="#F1EFED"/>
</linearGradient>
<linearGradient id="paint36_linear_204_12043" x1="587.971" y1="534.53" x2="574.457" y2="-22.1569" gradientUnits="userSpaceOnUse">
<stop offset="0.121234" stop-color="#F1EFED"/>
<stop offset="0.488143" stop-color="#DDDDDD" stop-opacity="0.22"/>
<stop offset="1" stop-color="#F1EFED"/>
</linearGradient>
<linearGradient id="paint37_linear_204_12043" x1="587.971" y1="534.53" x2="574.457" y2="-22.1569" gradientUnits="userSpaceOnUse">
<stop offset="0.121234" stop-color="#F1EFED"/>
<stop offset="0.488143" stop-color="#DDDDDD" stop-opacity="0.22"/>
<stop offset="1" stop-color="#F1EFED"/>
</linearGradient>
<linearGradient id="paint38_linear_204_12043" x1="587.971" y1="534.53" x2="574.457" y2="-22.1569" gradientUnits="userSpaceOnUse">
<stop offset="0.121234" stop-color="#F1EFED"/>
<stop offset="0.488143" stop-color="#DDDDDD" stop-opacity="0.22"/>
<stop offset="1" stop-color="#F1EFED"/>
</linearGradient>
<linearGradient id="paint39_linear_204_12043" x1="587.971" y1="534.53" x2="574.457" y2="-22.1569" gradientUnits="userSpaceOnUse">
<stop offset="0.121234" stop-color="#F1EFED"/>
<stop offset="0.488143" stop-color="#DDDDDD" stop-opacity="0.22"/>
<stop offset="1" stop-color="#F1EFED"/>
</linearGradient>
<linearGradient id="paint40_linear_204_12043" x1="587.971" y1="534.53" x2="574.457" y2="-22.1569" gradientUnits="userSpaceOnUse">
<stop offset="0.121234" stop-color="#F1EFED"/>
<stop offset="0.488143" stop-color="#DDDDDD" stop-opacity="0.22"/>
<stop offset="1" stop-color="#F1EFED"/>
</linearGradient>
<linearGradient id="paint41_linear_204_12043" x1="587.971" y1="534.53" x2="574.457" y2="-22.1569" gradientUnits="userSpaceOnUse">
<stop offset="0.121234" stop-color="#F1EFED"/>
<stop offset="0.488143" stop-color="#DDDDDD" stop-opacity="0.22"/>
<stop offset="1" stop-color="#F1EFED"/>
</linearGradient>
<linearGradient id="paint42_linear_204_12043" x1="587.971" y1="534.53" x2="574.457" y2="-22.1569" gradientUnits="userSpaceOnUse">
<stop offset="0.121234" stop-color="#F1EFED"/>
<stop offset="0.488143" stop-color="#DDDDDD" stop-opacity="0.22"/>
<stop offset="1" stop-color="#F1EFED"/>
</linearGradient>
<linearGradient id="paint43_linear_204_12043" x1="587.971" y1="534.53" x2="574.457" y2="-22.1569" gradientUnits="userSpaceOnUse">
<stop offset="0.121234" stop-color="#F1EFED"/>
<stop offset="0.488143" stop-color="#DDDDDD" stop-opacity="0.22"/>
<stop offset="1" stop-color="#F1EFED"/>
</linearGradient>
<linearGradient id="paint44_linear_204_12043" x1="587.971" y1="534.53" x2="574.457" y2="-22.1569" gradientUnits="userSpaceOnUse">
<stop offset="0.121234" stop-color="#F1EFED"/>
<stop offset="0.488143" stop-color="#DDDDDD" stop-opacity="0.22"/>
<stop offset="1" stop-color="#F1EFED"/>
</linearGradient>
<linearGradient id="paint45_linear_204_12043" x1="587.971" y1="534.53" x2="574.457" y2="-22.1569" gradientUnits="userSpaceOnUse">
<stop offset="0.121234" stop-color="#F1EFED"/>
<stop offset="0.488143" stop-color="#DDDDDD" stop-opacity="0.22"/>
<stop offset="1" stop-color="#F1EFED"/>
</linearGradient>
<linearGradient id="paint46_linear_204_12043" x1="587.971" y1="534.53" x2="574.457" y2="-22.1569" gradientUnits="userSpaceOnUse">
<stop offset="0.121234" stop-color="#F1EFED"/>
<stop offset="0.488143" stop-color="#DDDDDD" stop-opacity="0.22"/>
<stop offset="1" stop-color="#F1EFED"/>
</linearGradient>
<linearGradient id="paint47_linear_204_12043" x1="587.971" y1="534.53" x2="574.457" y2="-22.1569" gradientUnits="userSpaceOnUse">
<stop offset="0.121234" stop-color="#F1EFED"/>
<stop offset="0.488143" stop-color="#DDDDDD" stop-opacity="0.22"/>
<stop offset="1" stop-color="#F1EFED"/>
</linearGradient>
<linearGradient id="paint48_linear_204_12043" x1="587.971" y1="534.53" x2="574.457" y2="-22.1569" gradientUnits="userSpaceOnUse">
<stop offset="0.121234" stop-color="#F1EFED"/>
<stop offset="0.488143" stop-color="#DDDDDD" stop-opacity="0.22"/>
<stop offset="1" stop-color="#F1EFED"/>
</linearGradient>
<linearGradient id="paint49_linear_204_12043" x1="587.971" y1="534.53" x2="574.457" y2="-22.1569" gradientUnits="userSpaceOnUse">
<stop offset="0.121234" stop-color="#F1EFED"/>
<stop offset="0.488143" stop-color="#DDDDDD" stop-opacity="0.22"/>
<stop offset="1" stop-color="#F1EFED"/>
</linearGradient>
<linearGradient id="paint50_linear_204_12043" x1="587.971" y1="534.53" x2="574.457" y2="-22.1569" gradientUnits="userSpaceOnUse">
<stop offset="0.121234" stop-color="#F1EFED"/>
<stop offset="0.488143" stop-color="#DDDDDD" stop-opacity="0.22"/>
<stop offset="1" stop-color="#F1EFED"/>
</linearGradient>
<linearGradient id="paint51_linear_204_12043" x1="587.971" y1="534.53" x2="574.457" y2="-22.1569" gradientUnits="userSpaceOnUse">
<stop offset="0.121234" stop-color="#F1EFED"/>
<stop offset="0.488143" stop-color="#DDDDDD" stop-opacity="0.22"/>
<stop offset="1" stop-color="#F1EFED"/>
</linearGradient>
<linearGradient id="paint52_linear_204_12043" x1="587.971" y1="534.53" x2="574.457" y2="-22.1569" gradientUnits="userSpaceOnUse">
<stop offset="0.121234" stop-color="#F1EFED"/>
<stop offset="0.488143" stop-color="#DDDDDD" stop-opacity="0.22"/>
<stop offset="1" stop-color="#F1EFED"/>
</linearGradient>
<linearGradient id="paint53_linear_204_12043" x1="587.971" y1="534.53" x2="574.457" y2="-22.1569" gradientUnits="userSpaceOnUse">
<stop offset="0.121234" stop-color="#F1EFED"/>
<stop offset="0.488143" stop-color="#DDDDDD" stop-opacity="0.22"/>
<stop offset="1" stop-color="#F1EFED"/>
</linearGradient>
<linearGradient id="paint54_linear_204_12043" x1="587.971" y1="534.53" x2="574.457" y2="-22.1569" gradientUnits="userSpaceOnUse">
<stop offset="0.121234" stop-color="#F1EFED"/>
<stop offset="0.488143" stop-color="#DDDDDD" stop-opacity="0.22"/>
<stop offset="1" stop-color="#F1EFED"/>
</linearGradient>
<linearGradient id="paint55_linear_204_12043" x1="587.971" y1="534.53" x2="574.457" y2="-22.1569" gradientUnits="userSpaceOnUse">
<stop offset="0.121234" stop-color="#F1EFED"/>
<stop offset="0.488143" stop-color="#DDDDDD" stop-opacity="0.22"/>
<stop offset="1" stop-color="#F1EFED"/>
</linearGradient>
<linearGradient id="paint56_linear_204_12043" x1="587.971" y1="534.53" x2="574.457" y2="-22.1569" gradientUnits="userSpaceOnUse">
<stop offset="0.121234" stop-color="#F1EFED"/>
<stop offset="0.488143" stop-color="#DDDDDD" stop-opacity="0.22"/>
<stop offset="1" stop-color="#F1EFED"/>
</linearGradient>
<linearGradient id="paint57_linear_204_12043" x1="587.971" y1="534.53" x2="574.457" y2="-22.1569" gradientUnits="userSpaceOnUse">
<stop offset="0.121234" stop-color="#F1EFED"/>
<stop offset="0.488143" stop-color="#DDDDDD" stop-opacity="0.22"/>
<stop offset="1" stop-color="#F1EFED"/>
</linearGradient>
<linearGradient id="paint58_linear_204_12043" x1="587.971" y1="534.53" x2="574.457" y2="-22.1569" gradientUnits="userSpaceOnUse">
<stop offset="0.121234" stop-color="#F1EFED"/>
<stop offset="0.488143" stop-color="#DDDDDD" stop-opacity="0.22"/>
<stop offset="1" stop-color="#F1EFED"/>
</linearGradient>
<linearGradient id="paint59_linear_204_12043" x1="587.971" y1="534.53" x2="574.457" y2="-22.1569" gradientUnits="userSpaceOnUse">
<stop offset="0.121234" stop-color="#F1EFED"/>
<stop offset="0.488143" stop-color="#DDDDDD" stop-opacity="0.22"/>
<stop offset="1" stop-color="#F1EFED"/>
</linearGradient>
<linearGradient id="paint60_linear_204_12043" x1="587.971" y1="534.53" x2="574.457" y2="-22.1569" gradientUnits="userSpaceOnUse">
<stop offset="0.121234" stop-color="#F1EFED"/>
<stop offset="0.488143" stop-color="#DDDDDD" stop-opacity="0.22"/>
<stop offset="1" stop-color="#F1EFED"/>
</linearGradient>
<linearGradient id="paint61_linear_204_12043" x1="587.971" y1="534.53" x2="574.457" y2="-22.1569" gradientUnits="userSpaceOnUse">
<stop offset="0.121234" stop-color="#F1EFED"/>
<stop offset="0.488143" stop-color="#DDDDDD" stop-opacity="0.22"/>
<stop offset="1" stop-color="#F1EFED"/>
</linearGradient>
<linearGradient id="paint62_linear_204_12043" x1="587.971" y1="534.53" x2="574.457" y2="-22.1569" gradientUnits="userSpaceOnUse">
<stop offset="0.121234" stop-color="#F1EFED"/>
<stop offset="0.488143" stop-color="#DDDDDD" stop-opacity="0.22"/>
<stop offset="1" stop-color="#F1EFED"/>
</linearGradient>
<linearGradient id="paint63_linear_204_12043" x1="587.971" y1="534.53" x2="574.457" y2="-22.1569" gradientUnits="userSpaceOnUse">
<stop offset="0.121234" stop-color="#F1EFED"/>
<stop offset="0.488143" stop-color="#DDDDDD" stop-opacity="0.22"/>
<stop offset="1" stop-color="#F1EFED"/>
</linearGradient>
<linearGradient id="paint64_linear_204_12043" x1="587.971" y1="534.53" x2="574.457" y2="-22.1569" gradientUnits="userSpaceOnUse">
<stop offset="0.121234" stop-color="#F1EFED"/>
<stop offset="0.488143" stop-color="#DDDDDD" stop-opacity="0.22"/>
<stop offset="1" stop-color="#F1EFED"/>
</linearGradient>
<linearGradient id="paint65_linear_204_12043" x1="587.971" y1="534.53" x2="574.457" y2="-22.1569" gradientUnits="userSpaceOnUse">
<stop offset="0.121234" stop-color="#F1EFED"/>
<stop offset="0.488143" stop-color="#DDDDDD" stop-opacity="0.22"/>
<stop offset="1" stop-color="#F1EFED"/>
</linearGradient>
<linearGradient id="paint66_linear_204_12043" x1="587.971" y1="534.53" x2="574.457" y2="-22.1569" gradientUnits="userSpaceOnUse">
<stop offset="0.121234" stop-color="#F1EFED"/>
<stop offset="0.488143" stop-color="#DDDDDD" stop-opacity="0.22"/>
<stop offset="1" stop-color="#F1EFED"/>
</linearGradient>
<linearGradient id="paint67_linear_204_12043" x1="587.971" y1="534.53" x2="574.457" y2="-22.1569" gradientUnits="userSpaceOnUse">
<stop offset="0.121234" stop-color="#F1EFED"/>
<stop offset="0.488143" stop-color="#DDDDDD" stop-opacity="0.22"/>
<stop offset="1" stop-color="#F1EFED"/>
</linearGradient>
<linearGradient id="paint68_linear_204_12043" x1="587.971" y1="534.53" x2="574.457" y2="-22.1569" gradientUnits="userSpaceOnUse">
<stop offset="0.121234" stop-color="#F1EFED"/>
<stop offset="0.488143" stop-color="#DDDDDD" stop-opacity="0.22"/>
<stop offset="1" stop-color="#F1EFED"/>
</linearGradient>
<linearGradient id="paint69_linear_204_12043" x1="587.971" y1="534.53" x2="574.457" y2="-22.1569" gradientUnits="userSpaceOnUse">
<stop offset="0.121234" stop-color="#F1EFED"/>
<stop offset="0.488143" stop-color="#DDDDDD" stop-opacity="0.22"/>
<stop offset="1" stop-color="#F1EFED"/>
</linearGradient>
<linearGradient id="paint70_linear_204_12043" x1="587.971" y1="534.53" x2="574.457" y2="-22.1569" gradientUnits="userSpaceOnUse">
<stop offset="0.121234" stop-color="#F1EFED"/>
<stop offset="0.488143" stop-color="#DDDDDD" stop-opacity="0.22"/>
<stop offset="1" stop-color="#F1EFED"/>
</linearGradient>
<linearGradient id="paint71_linear_204_12043" x1="587.971" y1="534.53" x2="574.457" y2="-22.1569" gradientUnits="userSpaceOnUse">
<stop offset="0.121234" stop-color="#F1EFED"/>
<stop offset="0.488143" stop-color="#DDDDDD" stop-opacity="0.22"/>
<stop offset="1" stop-color="#F1EFED"/>
</linearGradient>
<linearGradient id="paint72_linear_204_12043" x1="587.971" y1="534.53" x2="574.457" y2="-22.1569" gradientUnits="userSpaceOnUse">
<stop offset="0.121234" stop-color="#F1EFED"/>
<stop offset="0.488143" stop-color="#DDDDDD" stop-opacity="0.22"/>
<stop offset="1" stop-color="#F1EFED"/>
</linearGradient>
<linearGradient id="paint73_linear_204_12043" x1="587.971" y1="534.53" x2="574.457" y2="-22.1569" gradientUnits="userSpaceOnUse">
<stop offset="0.121234" stop-color="#F1EFED"/>
<stop offset="0.488143" stop-color="#DDDDDD" stop-opacity="0.22"/>
<stop offset="1" stop-color="#F1EFED"/>
</linearGradient>
<linearGradient id="paint74_linear_204_12043" x1="587.971" y1="534.53" x2="574.457" y2="-22.1569" gradientUnits="userSpaceOnUse">
<stop offset="0.121234" stop-color="#F1EFED"/>
<stop offset="0.488143" stop-color="#DDDDDD" stop-opacity="0.22"/>
<stop offset="1" stop-color="#F1EFED"/>
</linearGradient>
<linearGradient id="paint75_linear_204_12043" x1="587.971" y1="534.53" x2="574.457" y2="-22.1569" gradientUnits="userSpaceOnUse">
<stop offset="0.121234" stop-color="#F1EFED"/>
<stop offset="0.488143" stop-color="#DDDDDD" stop-opacity="0.22"/>
<stop offset="1" stop-color="#F1EFED"/>
</linearGradient>
<linearGradient id="paint76_linear_204_12043" x1="587.971" y1="534.53" x2="574.457" y2="-22.1569" gradientUnits="userSpaceOnUse">
<stop offset="0.121234" stop-color="#F1EFED"/>
<stop offset="0.488143" stop-color="#DDDDDD" stop-opacity="0.22"/>
<stop offset="1" stop-color="#F1EFED"/>
</linearGradient>
<linearGradient id="paint77_linear_204_12043" x1="587.971" y1="534.53" x2="574.457" y2="-22.1569" gradientUnits="userSpaceOnUse">
<stop offset="0.121234" stop-color="#F1EFED"/>
<stop offset="0.488143" stop-color="#DDDDDD" stop-opacity="0.22"/>
<stop offset="1" stop-color="#F1EFED"/>
</linearGradient>
<linearGradient id="paint78_linear_204_12043" x1="587.971" y1="534.53" x2="574.457" y2="-22.1569" gradientUnits="userSpaceOnUse">
<stop offset="0.121234" stop-color="#F1EFED"/>
<stop offset="0.488143" stop-color="#DDDDDD" stop-opacity="0.22"/>
<stop offset="1" stop-color="#F1EFED"/>
</linearGradient>
<linearGradient id="paint79_linear_204_12043" x1="587.971" y1="534.53" x2="574.457" y2="-22.1569" gradientUnits="userSpaceOnUse">
<stop offset="0.121234" stop-color="#F1EFED"/>
<stop offset="0.488143" stop-color="#DDDDDD" stop-opacity="0.22"/>
<stop offset="1" stop-color="#F1EFED"/>
</linearGradient>
<linearGradient id="paint80_linear_204_12043" x1="587.971" y1="534.53" x2="574.457" y2="-22.1569" gradientUnits="userSpaceOnUse">
<stop offset="0.121234" stop-color="#F1EFED"/>
<stop offset="0.488143" stop-color="#DDDDDD" stop-opacity="0.22"/>
<stop offset="1" stop-color="#F1EFED"/>
</linearGradient>
<linearGradient id="paint81_linear_204_12043" x1="587.971" y1="534.53" x2="574.457" y2="-22.1569" gradientUnits="userSpaceOnUse">
<stop offset="0.121234" stop-color="#F1EFED"/>
<stop offset="0.488143" stop-color="#DDDDDD" stop-opacity="0.22"/>
<stop offset="1" stop-color="#F1EFED"/>
</linearGradient>
<linearGradient id="paint82_linear_204_12043" x1="587.971" y1="534.53" x2="574.457" y2="-22.1569" gradientUnits="userSpaceOnUse">
<stop offset="0.121234" stop-color="#F1EFED"/>
<stop offset="0.488143" stop-color="#DDDDDD" stop-opacity="0.22"/>
<stop offset="1" stop-color="#F1EFED"/>
</linearGradient>
<linearGradient id="paint83_linear_204_12043" x1="587.971" y1="534.53" x2="574.457" y2="-22.1569" gradientUnits="userSpaceOnUse">
<stop offset="0.121234" stop-color="#F1EFED"/>
<stop offset="0.488143" stop-color="#DDDDDD" stop-opacity="0.22"/>
<stop offset="1" stop-color="#F1EFED"/>
</linearGradient>
</defs>
</svg>
