<svg width="80" height="90" viewBox="0 0 80 90" fill="none" xmlns="http://www.w3.org/2000/svg">
<path d="M71.1344 46.676C70.1825 49.8599 64.764 51.4551 57.1349 51.323C51.8891 51.2322 45.5982 50.3247 38.9954 48.5555C28.8066 45.8254 20.2867 41.6896 15.6868 37.6387C14.9173 36.961 14.2574 36.2857 13.7178 35.6198C12.3222 33.8973 11.731 32.2374 12.1266 30.7609L7.94859 45.5038C7.57826 46.8859 8.0726 48.4287 9.28203 50.0331C12.8501 54.7664 22.6422 60.0361 34.8174 63.2984C46.8197 66.5144 57.7916 66.8831 63.3284 64.6751C65.312 63.884 66.598 62.7623 66.9838 61.3223L71.1344 46.676Z" fill="url(#paint0_linear_226_5674)"/>
<path d="M41.1148 40.0914C29.3705 36.9445 19.8436 31.9299 15.9815 27.3305C13.8846 28.1251 12.5252 29.2732 12.1266 30.7609C11.731 32.2374 12.3222 33.8973 13.7178 35.6198C13.9867 32.5119 14.4184 31.4006 15.782 30.7609C21.801 40.838 46.7741 45.5053 58.5083 46.5793L57.1349 51.323C64.764 51.4551 70.1825 49.8599 71.1344 46.676L71.1618 46.5793C71.5708 45.0529 70.9251 43.3305 69.4263 41.5456C63.8284 43.6669 52.9746 43.2692 41.1148 40.0914Z" fill="black"/>
<path d="M34.8174 63.2984C22.6422 60.0361 12.8501 54.7664 9.28203 50.0331C7.29845 50.8241 6.01246 51.9459 5.62661 53.3859C5.23098 54.8624 5.82218 56.5223 7.21784 58.2448C7.48675 55.1369 7.91842 54.0256 9.28203 53.3859C15.301 63.463 40.2741 68.1303 52.0083 69.2043L50.6349 73.948C58.0691 74.0768 63.4042 72.5653 64.5528 69.5419L64.6618 69.2043C65.0321 67.8222 64.5378 66.2795 63.3284 64.6751C57.7916 66.8831 46.8197 66.5144 34.8174 63.2984Z" fill="black"/>
<path d="M46.108 24.273C62.1135 28.5616 76.2869 27.7868 78.1817 22.5902L78.2744 22.2968C79.7373 16.8372 67.7077 8.87031 51.4055 4.50217C35.1034 0.134026 20.702 1.01879 19.2392 6.47835C17.7763 11.9379 29.8059 19.9048 46.108 24.273Z" fill="#5869DD"/>
<path d="M38.9954 48.5555C45.5982 50.3247 51.8891 51.2322 57.1349 51.323L58.5083 46.5793C46.7741 45.5053 21.801 40.838 15.782 30.7609C14.4184 31.4006 13.9867 32.5119 13.7178 35.6198C14.2574 36.2857 14.9173 36.961 15.6868 37.6387C20.2867 41.6896 28.8066 45.8254 38.9954 48.5555Z" fill="#5869DD"/>
<path d="M32.4954 71.1805C39.0982 72.9497 45.3891 73.8572 50.6349 73.948L52.0083 69.2043C40.2741 68.1303 15.301 63.463 9.28203 53.3859C7.91842 54.0256 7.48675 55.1369 7.21784 58.2448C10.9828 62.8914 20.6021 67.9937 32.4954 71.1805Z" fill="#5869DD"/>
<path d="M46.108 24.273C29.8059 19.9048 17.7763 11.9379 19.2392 6.47835L14.246 22.2968C13.837 23.8232 14.4826 25.5456 15.9815 27.3305C19.8436 31.9299 29.3705 36.9445 41.1148 40.0914C52.9746 43.2692 63.8284 43.6669 69.4263 41.5456C71.5231 40.751 72.8825 39.603 73.2812 38.1152L78.1817 22.5902C76.2869 27.7868 62.1135 28.5616 46.108 24.273Z" fill="url(#paint1_linear_226_5674)"/>
<path d="M27.8701 85.4977C44.1723 89.8658 58.5737 88.981 60.0365 83.5215L64.5528 69.5419C63.4042 72.5653 58.0691 74.0768 50.6349 73.948C45.3891 73.8572 39.0982 72.9497 32.4954 71.1805C20.6021 67.9937 10.9828 62.8914 7.21784 58.2448C5.82218 56.5223 5.23098 54.8624 5.62661 53.3859L1.00133 67.703C-0.461556 73.1626 11.568 81.1295 27.8701 85.4977Z" fill="url(#paint2_linear_226_5674)"/>
<path d="M64.6618 69.2043L65.3863 69.3984L64.6618 69.2043ZM32.4954 71.1805L32.6895 70.4561L32.4954 71.1805ZM38.9954 48.5555L39.1895 47.8311L38.9954 48.5555ZM46.108 24.273L46.3021 23.5485L46.108 24.273ZM73.2812 38.1152L72.5659 37.8895L72.561 37.9052L72.5567 37.9211L73.2812 38.1152ZM41.1148 40.0914L41.3089 39.367L41.1148 40.0914ZM14.246 22.2968L13.5307 22.071L13.5258 22.0867L13.5215 22.1027L14.246 22.2968ZM66.9838 61.3223L66.2621 61.1177L66.2594 61.1281L66.9838 61.3223ZM34.8174 63.2984L35.0115 62.574L34.8174 63.2984ZM7.94859 45.5038L7.22694 45.2993L7.22415 45.3097L7.94859 45.5038ZM60.0365 83.5215L59.3229 83.2909L59.317 83.309L59.3121 83.3274L60.0365 83.5215ZM1.00133 67.703L0.287646 67.4725L0.281803 67.4906L0.276883 67.5089L1.00133 67.703ZM9.28203 50.0331L9.88093 49.5816L9.28203 50.0331ZM50.6349 73.948L50.6219 74.6979L50.6349 73.948ZM52.0083 69.2043L52.7287 69.4129L52.9814 68.5403L52.0767 68.4574L52.0083 69.2043ZM9.28203 53.3859L9.92591 53.0013L9.57791 52.4187L8.9635 52.7069L9.28203 53.3859ZM7.21784 58.2448L6.63512 58.7169L7.21784 58.2448ZM58.5083 46.5793L59.2287 46.7879L59.4814 45.9152L58.5767 45.8324L58.5083 46.5793ZM15.782 30.7609L16.4259 30.3763L16.0779 29.7937L15.4635 30.0819L15.782 30.7609ZM15.6868 37.6387L16.1825 37.0758L15.6868 37.6387ZM46.3021 23.5485C38.2075 21.3796 31.2041 18.3242 26.4258 15.1596C24.0333 13.5751 22.235 11.987 21.1297 10.5003C20.0182 9.00527 19.6825 7.72171 19.9636 6.67246L18.5147 6.28424C18.0644 7.96477 18.6838 9.7244 19.9259 11.3952C21.1741 13.0743 23.1278 14.7746 25.5976 16.4102C30.5439 19.6861 37.7063 22.7982 45.9139 24.9974L46.3021 23.5485ZM19.9636 6.67246C20.2447 5.62322 21.1773 4.67951 22.8873 3.94051C24.5879 3.2056 26.9393 2.72943 29.8036 2.55346C35.524 2.20202 43.1169 3.05767 51.2114 5.22661L51.5997 3.77772C43.3921 1.57852 35.6332 0.692486 29.7116 1.05628C26.755 1.23793 24.2129 1.73361 22.2923 2.56359C20.3812 3.38948 18.965 4.6037 18.5147 6.28424L19.9636 6.67246ZM51.2114 5.22661C59.306 7.39555 66.3094 10.4509 71.0877 13.6155C73.4803 15.2 75.2786 16.7881 76.3839 18.2749C77.4953 19.7699 77.8311 21.0534 77.5499 22.1027L78.9988 22.4909C79.4491 20.8104 78.8298 19.0507 77.5876 17.3799C76.3394 15.7009 74.3857 14.0005 71.916 12.3649C66.9697 9.08907 59.8072 5.97693 51.5997 3.77772L51.2114 5.22661ZM59.3121 83.3274C59.0309 84.3766 58.0984 85.3203 56.3883 86.0593C54.6878 86.7942 52.3363 87.2704 49.4721 87.4464C43.7517 87.7978 36.1588 86.9421 28.0643 84.7732L27.676 86.2221C35.8836 88.4213 43.6425 89.3073 49.564 88.9435C52.5207 88.7619 55.0628 88.2662 56.9834 87.4362C58.8945 86.6103 60.3107 85.3961 60.761 83.7156L59.3121 83.3274ZM28.0643 84.7732C19.9697 82.6043 12.9663 79.5489 8.18798 76.3843C5.79542 74.7998 3.99712 73.2117 2.89183 71.725C1.78041 70.23 1.44463 68.9464 1.72577 67.8971L0.276883 67.5089C-0.173414 69.1895 0.445924 70.9491 1.68805 72.6199C2.93631 74.2989 4.89 75.9993 7.35974 77.6349C12.306 80.9108 19.4685 84.0229 27.676 86.2221L28.0643 84.7732ZM14.9612 22.5225L19.9544 6.70411L18.5239 6.25259L13.5307 22.071L14.9612 22.5225ZM35.0115 62.574C28.97 60.9552 23.531 58.841 19.1705 56.5532C14.7919 54.2559 11.5665 51.8177 9.88093 49.5816L8.68313 50.4845C10.5656 52.9818 14.0203 55.5451 18.4736 57.8815C22.9449 60.2275 28.4895 62.3793 34.6233 64.0229L35.0115 62.574ZM9.88093 49.5816C8.73652 48.0635 8.38835 46.7604 8.67304 45.6979L7.22415 45.3097C6.76818 47.0114 7.40868 48.7939 8.68313 50.4845L9.88093 49.5816ZM6.35105 53.58C6.64772 52.4728 7.67154 51.4828 9.55984 50.7297L9.00421 49.3364C6.92535 50.1655 5.37719 51.4189 4.90216 53.1918L6.35105 53.58ZM66.2594 61.1281C65.9627 62.2353 64.9389 63.2254 63.0506 63.9784L63.6062 65.3717C65.6851 64.5427 67.2332 63.2892 67.7082 61.5164L66.2594 61.1281ZM63.0506 63.9784C60.4265 65.0249 56.4231 65.4878 51.5306 65.2715C46.6564 65.056 40.9671 64.1698 35.0115 62.574L34.6233 64.0229C40.67 65.6431 46.4677 66.5492 51.4643 66.77C56.4426 66.9901 60.6935 66.5333 63.6062 65.3717L63.0506 63.9784ZM62.7295 65.1265C63.8739 66.6447 64.2221 67.9477 63.9374 69.0102L65.3863 69.3984C65.8422 67.6967 65.2017 65.9143 63.9273 64.2236L62.7295 65.1265ZM41.3089 39.367C35.4815 37.8055 30.2142 35.7831 25.9346 33.5883C21.641 31.3863 18.3943 29.0377 16.5558 26.8482L15.4071 27.8128C17.4307 30.2227 20.8786 32.6811 25.2501 34.923C29.6354 37.1721 35.0038 39.2304 40.9207 40.8158L41.3089 39.367ZM16.5558 26.8482C15.1171 25.1349 14.6558 23.6651 14.9704 22.4909L13.5215 22.1027C13.0181 23.9813 13.8481 25.9562 15.4071 27.8128L16.5558 26.8482ZM12.851 30.955C13.1576 29.8109 14.2418 28.7918 16.2472 28.0319L15.7157 26.6292C13.5275 27.4584 11.8929 28.7355 11.4022 30.5668L12.851 30.955ZM72.5567 37.9211C72.2501 39.0653 71.166 40.0843 69.1605 40.8442L69.6921 42.2469C71.8803 41.4177 73.5149 40.1407 74.0056 38.3093L72.5567 37.9211ZM69.1605 40.8442C66.5008 41.8521 62.5065 42.2859 57.6542 42.0565C52.8187 41.8279 47.1937 40.9438 41.3089 39.367L40.9207 40.8158C46.8957 42.4169 52.6275 43.3205 57.5833 43.5548C62.5223 43.7884 66.7539 43.3603 69.6921 42.2469L69.1605 40.8442ZM68.8519 42.0279C70.2906 43.7412 70.752 45.211 70.4374 46.3852L71.8863 46.7734C72.3896 44.8948 71.5597 42.9199 70.0007 41.0633L68.8519 42.0279ZM11.405 30.5564L7.22701 45.2993L8.67018 45.7083L12.8482 30.9654L11.405 30.5564ZM4.91292 53.1553L0.287646 67.4725L1.71501 67.9336L6.34029 53.6165L4.91292 53.1553ZM50.6479 73.1982C45.4727 73.1085 39.243 72.2121 32.6895 70.4561L32.3013 71.905C38.9533 73.6874 45.3055 74.6059 50.6219 74.6979L50.6479 73.1982ZM51.3553 74.1566L52.7287 69.4129L51.2879 68.9957L49.9145 73.7395L51.3553 74.1566ZM52.0767 68.4574C46.2474 67.9239 37.1223 66.4962 28.7192 63.9534C24.5177 62.682 20.5195 61.1386 17.2112 59.302C13.892 57.4594 11.3334 55.3577 9.92591 53.0013L8.63814 53.7705C10.2402 56.4526 13.0603 58.7133 16.4831 60.6135C19.9168 62.5197 24.0238 64.0998 28.2847 65.3891C36.8065 67.9678 46.035 69.4107 51.9399 69.9512L52.0767 68.4574ZM32.6895 70.4561C26.7881 68.8748 21.4613 66.8208 17.1529 64.5938C12.8293 62.359 9.58839 59.9791 7.80057 57.7726L6.63512 58.7169C8.6123 61.1571 12.0635 63.6517 16.4641 65.9263C20.88 68.2089 26.3094 70.2994 32.3013 71.905L32.6895 70.4561ZM7.80057 57.7726C6.46716 56.1269 6.04681 54.7154 6.35105 53.58L4.90216 53.1918C4.41515 55.0093 5.1772 56.9176 6.63512 58.7169L7.80057 57.7726ZM8.9635 52.7069C8.12124 53.102 7.5346 53.6744 7.14745 54.6005C6.78608 55.4649 6.60525 56.6244 6.47064 58.1801L7.96505 58.3094C8.09935 56.7573 8.2688 55.8072 8.53139 55.179C8.7682 54.6126 9.07921 54.3095 9.60056 54.0649L8.9635 52.7069ZM57.1479 50.5731C51.9727 50.4835 45.743 49.5871 39.1895 47.8311L38.8013 49.28C45.4533 51.0623 51.8055 51.9809 57.1219 52.0729L57.1479 50.5731ZM57.8553 51.5316L59.2287 46.7879L57.7879 46.3707L56.4145 51.1145L57.8553 51.5316ZM58.5767 45.8324C52.7474 45.2989 43.6223 43.8712 35.2192 41.3284C31.0177 40.057 27.0195 38.5136 23.7112 36.677C20.392 34.8344 17.8334 32.7327 16.4259 30.3763L15.1381 31.1455C16.7402 33.8276 19.5603 36.0883 22.9831 37.9885C26.4168 39.8947 30.5238 41.4748 34.7847 42.7641C43.3065 45.3428 52.535 46.7857 58.4399 47.3262L58.5767 45.8324ZM15.4635 30.0819C14.6212 30.477 14.0346 31.0494 13.6475 31.9755C13.2861 32.8399 13.1052 33.9994 12.9706 35.5551L14.4651 35.6844C14.5993 34.1323 14.7688 33.1822 15.0314 32.554C15.2682 31.9876 15.5792 31.6845 16.1006 31.4399L15.4635 30.0819ZM70.4158 46.4612C70.0479 47.6918 68.7603 48.7732 66.4091 49.529C64.0897 50.2746 60.9183 50.6384 57.1479 50.5731L57.1219 52.0729C60.9806 52.1397 64.3331 51.772 66.8682 50.957C69.3714 50.1523 71.269 48.8442 71.853 46.8908L70.4158 46.4612ZM39.1895 47.8311C29.0573 45.1161 20.6612 41.0199 16.1825 37.0758L15.1911 38.2015C19.9123 42.3592 28.5559 46.5347 38.8013 49.28L39.1895 47.8311ZM16.1825 37.0758C15.4379 36.4202 14.8088 35.7748 14.3006 35.1476L13.1351 36.0919C13.7061 36.7966 14.3966 37.5018 15.1911 38.2015L16.1825 37.0758ZM14.3006 35.1476C12.9672 33.5019 12.5468 32.0904 12.851 30.955L11.4022 30.5668C10.9151 32.3843 11.6772 34.2926 13.1351 36.0919L14.3006 35.1476ZM67.7054 61.5267L71.856 46.8805L70.4128 46.4715L66.2622 61.1178L67.7054 61.5267ZM16.1825 37.0758C14.8424 35.8957 13.8855 34.7572 13.3289 33.7053C12.775 32.6584 12.6397 31.7438 12.851 30.955L11.4022 30.5668C11.0649 31.8253 11.3298 33.1344 12.0031 34.4068C12.6738 35.6744 13.7712 36.9512 15.1911 38.2015L16.1825 37.0758ZM71.856 46.8805L71.8834 46.7838L70.4402 46.3748L70.4128 46.4715L71.856 46.8805ZM70.4374 46.3852C70.4306 46.4106 70.4234 46.4359 70.4158 46.4612L71.853 46.8908C71.8646 46.8519 71.8757 46.8128 71.8863 46.7734L70.4374 46.3852ZM70.4158 46.4612C70.1061 47.4973 69.1481 48.4294 67.4228 49.1559C65.7085 49.8778 63.3538 50.3425 60.4956 50.5103C54.7868 50.8455 47.2359 49.9871 39.1895 47.8311L38.8013 49.28C46.9603 51.4662 54.6758 52.3546 60.5835 52.0077C63.5336 51.8345 66.0747 51.3511 68.0049 50.5383C69.9242 49.7302 71.3595 48.5413 71.853 46.8908L70.4158 46.4612ZM50.6219 74.6979C54.3829 74.763 57.6616 74.4153 60.1713 73.6439C62.6496 72.8822 64.5545 71.6493 65.2539 69.8083L63.8516 69.2756C63.4025 70.4579 62.0655 71.4925 59.7306 72.2101C57.4271 72.9181 54.3211 73.2618 50.6479 73.1982L50.6219 74.6979ZM65.2664 69.7725L65.3755 69.4349L63.9481 68.9738L63.8391 69.3113L65.2664 69.7725ZM63.9374 69.0102C63.9133 69.1002 63.8847 69.1886 63.8516 69.2756L65.2539 69.8083C65.3048 69.6742 65.349 69.5375 65.3863 69.3984L63.9374 69.0102ZM63.8391 69.3113L59.3229 83.2909L60.7502 83.752L65.2664 69.7725L63.8391 69.3113ZM45.9139 24.9974C53.9726 27.1567 61.598 28.0499 67.4762 27.7375C70.4119 27.5815 72.9505 27.1229 74.8996 26.3451C76.8353 25.5726 78.3074 24.4349 78.8864 22.8471L77.4771 22.3333C77.1086 23.3438 76.0985 24.2516 74.3436 24.952C72.602 25.647 70.2417 26.0884 67.3966 26.2396C61.7129 26.5417 54.2489 25.6779 46.3021 23.5485L45.9139 24.9974ZM78.897 22.816L78.9896 22.5225L77.5592 22.071L77.4665 22.3645L78.897 22.816ZM77.4665 22.3644L72.5659 37.8895L73.9964 38.341L78.897 22.816L77.4665 22.3644ZM77.5499 22.1027C77.529 22.1807 77.5047 22.2576 77.4771 22.3333L78.8864 22.8471C78.929 22.7303 78.9665 22.6115 78.9988 22.4909L77.5499 22.1027Z" fill="black"/>
<defs>
<linearGradient id="paint0_linear_226_5674" x1="6.06445" y1="45" x2="78.3948" y2="44.9999" gradientUnits="userSpaceOnUse">
<stop stop-color="#D6FFBB"/>
<stop offset="1" stop-color="#5869DD"/>
</linearGradient>
<linearGradient id="paint1_linear_226_5674" x1="12.0645" y1="24.4604" x2="78.3948" y2="44.9999" gradientUnits="userSpaceOnUse">
<stop stop-color="#D6FFBB"/>
<stop offset="1" stop-color="#5869DD"/>
</linearGradient>
<linearGradient id="paint2_linear_226_5674" x1="0.880859" y1="44.9999" x2="78.3948" y2="44.9999" gradientUnits="userSpaceOnUse">
<stop stop-color="#D6FFBB"/>
<stop offset="1" stop-color="#5869DD"/>
</linearGradient>
</defs>
</svg>
