<svg width="80" height="89" viewBox="0 0 80 89" fill="none" xmlns="http://www.w3.org/2000/svg">
<path d="M50.625 1.5L13.875 11.5L42.375 39.75L79.125 29.75L50.625 1.5Z" fill="#5869DD"/>
<path d="M55.9355 53.7225L73.75 48.875L69.4584 44.621L39.125 52.875L55.9355 53.7225Z" fill="black"/>
<path d="M52.2791 71.6069L68.75 67.125L64.4133 62.8263L34.375 71L52.2791 71.6069Z" fill="black"/>
<path d="M8.5 30.625L37 58.875L55.9355 53.7225L39.125 52.875L14.9166 28.879L8.5 30.625Z" fill="#5869DD"/>
<path d="M32 77.125L52.2791 71.6069L34.375 71L10.2117 47.0487L3.5 48.875L32 77.125Z" fill="#5869DD"/>
<path d="M79.125 29.75L42.375 39.75L39.125 52.875L69.4584 44.621L75.875 42.875L79.125 29.75Z" fill="url(#paint0_linear_226_5675)"/>
<path d="M64.4133 62.8263L71.125 61L73.75 48.875L55.9355 53.7225L37 58.875L34.375 71L64.4133 62.8263Z" fill="url(#paint1_linear_226_5675)"/>
<path d="M42.375 39.75L13.875 11.5L10.625 24.625L14.9166 28.879L39.125 52.875L42.375 39.75Z" fill="url(#paint2_linear_226_5675)"/>
<path d="M37 58.875L8.5 30.625L5.875 42.75L10.2117 47.0487L34.375 71L37 58.875Z" fill="url(#paint3_linear_226_5675)"/>
<path fill-rule="evenodd" clip-rule="evenodd" d="M32 77.125L29.5 88.125L66.25 78.125L68.75 67.125L52.2791 71.6069L32 77.125Z" fill="url(#paint4_linear_226_5675)"/>
<path d="M1 59.875L29.5 88.125L32 77.125L3.5 48.875L1 59.875Z" fill="url(#paint5_linear_226_5675)"/>
<path d="M13.875 11.5L13.6781 10.7763C13.4156 10.8477 13.2124 11.0557 13.147 11.3197L13.875 11.5ZM50.625 1.5L51.153 0.967339C50.9628 0.778806 50.6865 0.705998 50.4281 0.776314L50.625 1.5ZM79.125 29.75L79.853 29.9303L79.9553 29.517L79.653 29.2173L79.125 29.75ZM10.625 24.625L9.89699 24.4447C9.83353 24.701 9.9095 24.9718 10.097 25.1577L10.625 24.625ZM75.875 42.875L76.0719 43.5987L76.4971 43.483L76.603 43.0553L75.875 42.875ZM39.125 52.875L38.597 53.4077L38.8007 53.6096L39.0872 53.6241L39.125 52.875ZM5.875 42.75L5.14198 42.5913C5.08778 42.8416 5.16509 43.1023 5.34701 43.2827L5.875 42.75ZM71.125 61L71.3219 61.7237L71.7616 61.604L71.858 61.1587L71.125 61ZM34.375 71L33.847 71.5327L34.0558 71.7396L34.3496 71.7496L34.375 71ZM1 59.875L0.26865 59.7088C0.211277 59.9612 0.28815 60.2254 0.472011 60.4077L1 59.875ZM66.25 78.125L66.4469 78.8487L66.8815 78.7304L66.9813 78.2912L66.25 78.125ZM29.5 88.125L28.972 88.6577L29.2794 88.9623L29.6969 88.8487L29.5 88.125ZM3.5 48.875L3.30308 48.1513C3.0356 48.2241 2.83008 48.4385 2.76865 48.7088L3.5 48.875ZM68.75 67.125L69.4813 67.2912L69.5736 66.8853L69.278 66.5923L68.75 67.125ZM8.5 30.625L8.30308 29.9013C8.03293 29.9748 7.82622 30.1927 7.76698 30.4663L8.5 30.625ZM73.75 48.875L74.483 49.0337L74.57 48.6318L74.278 48.3423L73.75 48.875ZM14.9166 28.879L15.4446 28.3463L14.9166 28.879ZM10.2117 47.0487L10.7397 46.516L10.2117 47.0487ZM14.0719 12.2237L50.8219 2.22369L50.4281 0.776314L13.6781 10.7763L14.0719 12.2237ZM50.097 2.03266L78.597 30.2827L79.653 29.2173L51.153 0.967339L50.097 2.03266ZM78.9281 29.0263L42.1781 39.0263L42.5719 40.4737L79.3219 30.4737L78.9281 29.0263ZM42.903 39.2173L14.403 10.9673L13.347 12.0327L41.847 40.2827L42.903 39.2173ZM66.0531 77.4013L29.3031 87.4013L29.6969 88.8487L66.4469 78.8487L66.0531 77.4013ZM30.028 87.5923L1.52799 59.3423L0.472011 60.4077L28.972 88.6577L30.028 87.5923ZM68.5531 66.4013L31.8031 76.4013L32.1969 77.8487L68.9469 67.8487L68.5531 66.4013ZM32.528 76.5923L4.02799 48.3423L2.97201 49.4077L31.472 77.6577L32.528 76.5923ZM37.528 58.3423L9.02799 30.0923L7.97201 31.1577L36.472 59.4077L37.528 58.3423ZM8.69692 31.3487L15.1135 29.6027L14.7197 28.1553L8.30308 29.9013L8.69692 31.3487ZM39.653 52.3423L15.4446 28.3463L14.3886 29.4116L38.597 53.4077L39.653 52.3423ZM15.4446 28.3463L11.153 24.0923L10.097 25.1577L14.3886 29.4116L15.4446 28.3463ZM63.8853 63.359L68.222 67.6577L69.278 66.5923L64.9413 62.2937L63.8853 63.359ZM70.9281 60.2763L64.2164 62.1026L64.6102 63.55L71.3219 61.7237L70.9281 60.2763ZM64.2164 62.1026L34.1781 70.2763L34.5719 71.7237L64.6102 63.55L64.2164 62.1026ZM3.69692 49.5987L10.4086 47.7724L10.0148 46.325L3.30308 48.1513L3.69692 49.5987ZM34.903 70.4673L10.7397 46.516L9.68373 47.5813L33.847 71.5327L34.903 70.4673ZM10.7397 46.516L6.40299 42.2173L5.34701 43.2827L9.68373 47.5813L10.7397 46.516ZM1.73135 60.0412L4.23135 49.0412L2.76865 48.7088L0.26865 59.7088L1.73135 60.0412ZM6.60802 42.9087L9.23302 30.7837L7.76698 30.4663L5.14198 42.5913L6.60802 42.9087ZM11.353 24.8053L14.603 11.6803L13.147 11.3197L9.89699 24.4447L11.353 24.8053ZM76.603 43.0553L79.853 29.9303L78.397 29.5697L75.147 42.6947L76.603 43.0553ZM71.858 61.1587L74.483 49.0337L73.017 48.7163L70.392 60.8413L71.858 61.1587ZM66.9813 78.2912L69.4813 67.2912L68.0187 66.9588L65.5187 77.9588L66.9813 78.2912ZM73.5531 48.1513L55.7386 52.9988L56.1325 54.4462L73.9469 49.5987L73.5531 48.1513ZM55.7386 52.9988L36.8031 58.1513L37.1969 59.5987L56.1325 54.4462L55.7386 52.9988ZM39.0872 53.6241L55.8978 54.4715L55.9733 52.9734L39.1628 52.1259L39.0872 53.6241ZM34.3496 71.7496L52.2537 72.3565L52.3045 70.8573L34.4004 70.2504L34.3496 71.7496ZM41.647 39.5697L38.397 52.6947L39.853 53.0553L43.103 39.9303L41.647 39.5697ZM36.267 58.7163L33.642 70.8413L35.108 71.1587L37.733 59.0337L36.267 58.7163ZM31.2687 76.9588L28.7687 87.9588L30.2313 88.2912L32.7313 77.2912L31.2687 76.9588ZM75.6781 42.1513L69.2615 43.8973L69.6553 45.3447L76.0719 43.5987L75.6781 42.1513ZM68.9304 45.1537L73.222 49.4077L74.278 48.3423L69.9864 44.0884L68.9304 45.1537ZM68.8853 45.109L68.9304 45.1537L69.9864 44.0884L69.9413 44.0437L68.8853 45.109ZM69.2615 43.8973L38.9281 52.1513L39.3219 53.5987L69.6553 45.3447L69.2615 43.8973ZM68.5531 66.4013L52.0822 70.8832L52.476 72.3306L68.9469 67.8487L68.5531 66.4013ZM52.0822 70.8832L31.8031 76.4013L32.1969 77.8487L52.476 72.3306L52.0822 70.8832Z" fill="black"/>
<defs>
<linearGradient id="paint0_linear_226_5675" x1="37.1816" y1="49.3125" x2="54.1829" y2="69.6846" gradientUnits="userSpaceOnUse">
<stop stop-color="#D6FFBB"/>
<stop offset="1" stop-color="#5869DD"/>
</linearGradient>
<linearGradient id="paint1_linear_226_5675" x1="29.125" y1="55.125" x2="52.9695" y2="83.7389" gradientUnits="userSpaceOnUse">
<stop stop-color="#D6FFBB"/>
<stop offset="1" stop-color="#5869DD"/>
</linearGradient>
<linearGradient id="paint2_linear_226_5675" x1="1" y1="31.625" x2="21.9578" y2="71.6548" gradientUnits="userSpaceOnUse">
<stop stop-color="#D6FFBB"/>
<stop offset="1" stop-color="#5869DD"/>
</linearGradient>
<linearGradient id="paint3_linear_226_5675" x1="1" y1="31.625" x2="21.9578" y2="71.6548" gradientUnits="userSpaceOnUse">
<stop stop-color="#D6FFBB"/>
<stop offset="1" stop-color="#5869DD"/>
</linearGradient>
<linearGradient id="paint4_linear_226_5675" x1="26.6816" y1="58.3125" x2="89.6816" y2="88.125" gradientUnits="userSpaceOnUse">
<stop stop-color="#D6FFBB"/>
<stop offset="1" stop-color="#5869DD"/>
</linearGradient>
<linearGradient id="paint5_linear_226_5675" x1="1" y1="31.625" x2="21.9578" y2="71.6548" gradientUnits="userSpaceOnUse">
<stop stop-color="#D6FFBB"/>
<stop offset="1" stop-color="#5869DD"/>
</linearGradient>
</defs>
</svg>
