<svg width="78" height="253" viewBox="0 0 78 253" fill="none" xmlns="http://www.w3.org/2000/svg">
<path d="M-83.21 32.2046H-84.0688C-84.0688 31.7303 -83.6843 31.3459 -83.21 31.3459V32.2046ZM-83.21 221.568L-83.834 222.158C-83.9848 221.999 -84.0688 221.788 -84.0688 221.568H-83.21ZM-18.8006 197.951L-19.3921 197.329C-19.2324 197.177 -19.0207 197.093 -18.8006 197.093V197.951ZM-44.5643 222.427L-43.9728 223.05C-44.1372 223.206 -44.3567 223.291 -44.5834 223.286L-44.5643 222.427ZM-3.7717 128.389V127.531C-3.61657 127.531 -3.46434 127.573 -3.33118 127.652L-3.7717 128.389ZM-60.8814 128.389L-61.2885 127.633C-61.1634 127.566 -61.0235 127.531 -60.8814 127.531V128.389ZM-3.7717 101.337V102.196C-4.01558 102.196 -4.24796 102.092 -4.41085 101.911L-3.7717 101.337ZM-18.8006 84.591L-18.7891 83.7322C-18.5492 83.7354 -18.3216 83.8388 -18.1614 84.0174L-18.8006 84.591ZM15.9805 52.8156L15.501 52.1032C15.6427 52.0078 15.8097 51.9569 15.9805 51.9569V52.8156ZM-6.34808 67.8445L-5.86855 68.5569C-6.01028 68.6523 -6.17724 68.7033 -6.34808 68.7033V67.8445ZM5.24561 4.7233L4.6336 4.12083C4.79502 3.95685 5.0155 3.8645 5.24561 3.8645V4.7233ZM-21.8063 32.2046L-21.1943 32.8071C-21.3557 32.9711 -21.5762 33.0634 -21.8063 33.0634V32.2046ZM-69.4693 244.326H-60.8814V246.044H-69.4693V244.326ZM-61.5054 245.775L-83.834 222.158L-82.5859 220.978L-60.2573 244.595L-61.5054 245.775ZM66.2198 246.044H-60.8814V244.326H66.2198V246.044ZM66.2198 198.81H-18.8006V197.093H66.2198V198.81ZM-18.2091 198.574L-43.9728 223.05L-45.1558 221.804L-19.3921 197.329L-18.2091 198.574ZM-44.5834 223.286L-83.229 222.427L-83.1909 220.71L-44.5452 221.568L-44.5834 223.286ZM66.2198 150.289H31.4388V148.571H66.2198V150.289ZM31.4388 150.289H-18.8006V148.571H31.4388V150.289ZM30.9983 150.167L-4.21222 129.127L-3.33118 127.652L31.8793 148.693L30.9983 150.167ZM-3.7717 129.248H-60.8814V127.531H-3.7717V129.248ZM-84.0688 221.568V140.412H-82.3512V221.568H-84.0688ZM-60.4742 129.145L-82.8028 141.169L-83.6171 139.656L-61.2885 127.633L-60.4742 129.145ZM66.2198 102.196H-3.7717V100.479H66.2198V102.196ZM-4.41085 101.911L-19.4397 85.1646L-18.1614 84.0174L-3.13255 100.764L-4.41085 101.911ZM-18.812 85.4497L-83.2214 84.5909L-83.1985 82.8734L-18.7891 83.7322L-18.812 85.4497ZM66.2198 53.6744H15.9805V51.9569H66.2198V53.6744ZM16.46 53.5281L-5.86855 68.5569L-6.82761 67.1321L15.501 52.1032L16.46 53.5281ZM-82.3512 32.2046V67.8445H-84.0688V32.2046H-82.3512ZM-6.34808 68.7033H-83.21V66.9857H-6.34808V68.7033ZM66.2198 5.58209H5.24561V3.8645H66.2198V5.58209ZM5.85764 5.32576L-21.1943 32.8071L-22.4184 31.6022L4.6336 4.12083L5.85764 5.32576ZM-21.8063 33.0634H-83.21V31.3459H-21.8063V33.0634ZM-82.3512 67.8445V72.3532H-84.0688V67.8445H-82.3512ZM-82.3512 72.3532V83.7322H-84.0688V72.3532H-82.3512ZM-82.3512 83.7322V133.971H-84.0688V83.7322H-82.3512ZM-82.3512 133.971V140.412H-84.0688V133.971H-82.3512Z" fill="#8F8E93"/>
<g filter="url(#filter0_d_4_4170)">
<circle cx="66.6725" cy="5.1761" r="5.15275" transform="rotate(89.7398 66.6725 5.1761)" fill="#F0EFED"/>
<circle cx="66.6725" cy="5.1761" r="4.72336" transform="rotate(89.7398 66.6725 5.1761)" stroke="black" stroke-width="0.858792"/>
</g>
<g filter="url(#filter1_d_4_4170)">
<circle cx="66.6725" cy="53.3148" r="5.15275" transform="rotate(89.7398 66.6725 53.3148)" fill="#F0EFED"/>
<circle cx="66.6725" cy="53.3148" r="4.72336" transform="rotate(89.7398 66.6725 53.3148)" stroke="black" stroke-width="0.858792"/>
</g>
<g filter="url(#filter2_d_4_4170)">
<circle cx="66.6725" cy="101.454" r="5.15275" transform="rotate(89.7398 66.6725 101.454)" fill="#F0EFED"/>
<circle cx="66.6725" cy="101.454" r="4.72336" transform="rotate(89.7398 66.6725 101.454)" stroke="black" stroke-width="0.858792"/>
</g>
<g filter="url(#filter3_d_4_4170)">
<circle cx="66.6725" cy="149.593" r="5.15275" transform="rotate(89.7398 66.6725 149.593)" fill="#F0EFED"/>
<circle cx="66.6725" cy="149.593" r="4.72336" transform="rotate(89.7398 66.6725 149.593)" stroke="black" stroke-width="0.858792"/>
</g>
<g filter="url(#filter4_d_4_4170)">
<circle cx="66.6725" cy="197.732" r="5.15275" transform="rotate(89.7398 66.6725 197.732)" fill="#F0EFED"/>
<circle cx="66.6725" cy="197.732" r="4.72336" transform="rotate(89.7398 66.6725 197.732)" stroke="black" stroke-width="0.858792"/>
</g>
<g filter="url(#filter5_d_4_4170)">
<circle r="5.15275" transform="matrix(-1 0 0 1 66.649 245.847)" fill="#F0EFED"/>
<circle r="4.72336" transform="matrix(-1 0 0 1 66.649 245.847)" stroke="black" stroke-width="0.858792"/>
</g>
<defs>
<filter id="filter0_d_4_4170" x="61.5195" y="0.0234375" width="16.3172" height="12.023" filterUnits="userSpaceOnUse" color-interpolation-filters="sRGB">
<feFlood flood-opacity="0" result="BackgroundImageFix"/>
<feColorMatrix in="SourceAlpha" type="matrix" values="0 0 0 0 0 0 0 0 0 0 0 0 0 0 0 0 0 0 127 0" result="hardAlpha"/>
<feOffset dx="6.01154" dy="1.71758"/>
<feComposite in2="hardAlpha" operator="out"/>
<feColorMatrix type="matrix" values="0 0 0 0 0 0 0 0 0 0 0 0 0 0 0 0 0 0 1 0"/>
<feBlend mode="normal" in2="BackgroundImageFix" result="effect1_dropShadow_4_4170"/>
<feBlend mode="normal" in="SourceGraphic" in2="effect1_dropShadow_4_4170" result="shape"/>
</filter>
<filter id="filter1_d_4_4170" x="61.5195" y="48.1621" width="16.3172" height="12.023" filterUnits="userSpaceOnUse" color-interpolation-filters="sRGB">
<feFlood flood-opacity="0" result="BackgroundImageFix"/>
<feColorMatrix in="SourceAlpha" type="matrix" values="0 0 0 0 0 0 0 0 0 0 0 0 0 0 0 0 0 0 127 0" result="hardAlpha"/>
<feOffset dx="6.01154" dy="1.71758"/>
<feComposite in2="hardAlpha" operator="out"/>
<feColorMatrix type="matrix" values="0 0 0 0 0 0 0 0 0 0 0 0 0 0 0 0 0 0 1 0"/>
<feBlend mode="normal" in2="BackgroundImageFix" result="effect1_dropShadow_4_4170"/>
<feBlend mode="normal" in="SourceGraphic" in2="effect1_dropShadow_4_4170" result="shape"/>
</filter>
<filter id="filter2_d_4_4170" x="61.5195" y="96.3013" width="16.3172" height="12.023" filterUnits="userSpaceOnUse" color-interpolation-filters="sRGB">
<feFlood flood-opacity="0" result="BackgroundImageFix"/>
<feColorMatrix in="SourceAlpha" type="matrix" values="0 0 0 0 0 0 0 0 0 0 0 0 0 0 0 0 0 0 127 0" result="hardAlpha"/>
<feOffset dx="6.01154" dy="1.71758"/>
<feComposite in2="hardAlpha" operator="out"/>
<feColorMatrix type="matrix" values="0 0 0 0 0 0 0 0 0 0 0 0 0 0 0 0 0 0 1 0"/>
<feBlend mode="normal" in2="BackgroundImageFix" result="effect1_dropShadow_4_4170"/>
<feBlend mode="normal" in="SourceGraphic" in2="effect1_dropShadow_4_4170" result="shape"/>
</filter>
<filter id="filter3_d_4_4170" x="61.5195" y="144.44" width="16.3172" height="12.023" filterUnits="userSpaceOnUse" color-interpolation-filters="sRGB">
<feFlood flood-opacity="0" result="BackgroundImageFix"/>
<feColorMatrix in="SourceAlpha" type="matrix" values="0 0 0 0 0 0 0 0 0 0 0 0 0 0 0 0 0 0 127 0" result="hardAlpha"/>
<feOffset dx="6.01154" dy="1.71758"/>
<feComposite in2="hardAlpha" operator="out"/>
<feColorMatrix type="matrix" values="0 0 0 0 0 0 0 0 0 0 0 0 0 0 0 0 0 0 1 0"/>
<feBlend mode="normal" in2="BackgroundImageFix" result="effect1_dropShadow_4_4170"/>
<feBlend mode="normal" in="SourceGraphic" in2="effect1_dropShadow_4_4170" result="shape"/>
</filter>
<filter id="filter4_d_4_4170" x="61.5195" y="192.579" width="16.3172" height="12.023" filterUnits="userSpaceOnUse" color-interpolation-filters="sRGB">
<feFlood flood-opacity="0" result="BackgroundImageFix"/>
<feColorMatrix in="SourceAlpha" type="matrix" values="0 0 0 0 0 0 0 0 0 0 0 0 0 0 0 0 0 0 127 0" result="hardAlpha"/>
<feOffset dx="6.01154" dy="1.71758"/>
<feComposite in2="hardAlpha" operator="out"/>
<feColorMatrix type="matrix" values="0 0 0 0 0 0 0 0 0 0 0 0 0 0 0 0 0 0 1 0"/>
<feBlend mode="normal" in2="BackgroundImageFix" result="effect1_dropShadow_4_4170"/>
<feBlend mode="normal" in="SourceGraphic" in2="effect1_dropShadow_4_4170" result="shape"/>
</filter>
<filter id="filter5_d_4_4170" x="61.4961" y="240.694" width="16.3172" height="12.023" filterUnits="userSpaceOnUse" color-interpolation-filters="sRGB">
<feFlood flood-opacity="0" result="BackgroundImageFix"/>
<feColorMatrix in="SourceAlpha" type="matrix" values="0 0 0 0 0 0 0 0 0 0 0 0 0 0 0 0 0 0 127 0" result="hardAlpha"/>
<feOffset dx="6.01154" dy="1.71758"/>
<feComposite in2="hardAlpha" operator="out"/>
<feColorMatrix type="matrix" values="0 0 0 0 0 0 0 0 0 0 0 0 0 0 0 0 0 0 1 0"/>
<feBlend mode="normal" in2="BackgroundImageFix" result="effect1_dropShadow_4_4170"/>
<feBlend mode="normal" in="SourceGraphic" in2="effect1_dropShadow_4_4170" result="shape"/>
</filter>
</defs>
</svg>
