<svg width="11" height="11" viewBox="0 0 11 11" fill="none" xmlns="http://www.w3.org/2000/svg">
<path d="M10.8539 10.1466L6.20486 5.50012L10.8509 0.850637C11.0457 0.65585 11.0457 0.340504 10.8509 0.145717C10.6562 -0.0485723 10.3413 -0.0485723 10.1466 0.145717L5.5 4.7957L0.850436 0.148208C0.655666 -0.0460813 0.340847 -0.0460813 0.146077 0.148208C-0.0486924 0.342497 -0.0486924 0.658341 0.146077 0.853128L4.79564 5.50012L0.149564 10.1496C-0.0452055 10.3444 -0.0452055 10.6597 0.149564 10.854C0.2467 10.9512 0.374222 11 0.501744 11C0.629265 11 0.756787 10.9512 0.853923 10.854L5.5005 6.20405L10.1496 10.8505C10.2467 10.9477 10.3742 10.9965 10.5017 10.9965C10.6293 10.9965 10.7568 10.9477 10.8539 10.8505C11.0487 10.6568 11.0487 10.3409 10.8539 10.1466Z" fill="black"/>
</svg>
