<svg width="512" height="388" viewBox="0 0 512 388" fill="none" xmlns="http://www.w3.org/2000/svg">
<path d="M436.158 148.834L433.225 163.542C433.215 163.559 433.198 163.572 433.179 163.578C433.159 163.584 433.138 163.582 433.12 163.572C433.109 163.568 433.1 163.561 433.093 163.552C433.086 163.543 433.08 163.533 433.077 163.522C433.074 163.511 433.073 163.5 433.075 163.489C433.076 163.478 433.08 163.467 433.086 163.457L436.158 148.834Z" fill="black"/>
<path d="M430.318 178.263L427.099 192.918C427.085 192.985 427.043 193.045 426.985 193.082C426.926 193.119 426.856 193.132 426.788 193.117C426.72 193.102 426.661 193.061 426.623 193.003C426.586 192.944 426.573 192.873 426.588 192.806L429.995 178.19C429.999 178.168 430.008 178.147 430.021 178.129C430.033 178.11 430.05 178.095 430.068 178.082C430.087 178.07 430.108 178.062 430.13 178.058C430.152 178.054 430.174 178.054 430.196 178.059C430.218 178.063 430.239 178.072 430.257 178.085C430.276 178.097 430.291 178.113 430.303 178.132C430.316 178.151 430.324 178.172 430.328 178.194C430.332 178.216 430.332 178.238 430.327 178.26L430.318 178.263Z" fill="black"/>
<path d="M423.347 207.456L418.85 221.795C418.816 221.904 418.739 221.995 418.637 222.048C418.535 222.101 418.417 222.111 418.307 222.077C418.198 222.042 418.107 221.966 418.054 221.864C418.001 221.762 417.991 221.643 418.025 221.534L422.673 207.287C422.687 207.244 422.709 207.203 422.739 207.169C422.768 207.134 422.804 207.105 422.845 207.085C422.886 207.064 422.93 207.052 422.975 207.049C423.021 207.046 423.066 207.052 423.109 207.067C423.189 207.093 423.257 207.146 423.3 207.218C423.344 207.289 423.361 207.374 423.347 207.456Z" fill="black"/>
<path d="M413.364 235.774C411.325 240.368 409.007 244.834 406.421 249.144C406.348 249.272 406.228 249.366 406.086 249.407C405.945 249.448 405.793 249.433 405.663 249.364C405.533 249.293 405.437 249.173 405.396 249.03C405.355 248.888 405.372 248.735 405.443 248.606C408.024 244.348 410.348 239.941 412.404 235.406C412.432 235.345 412.471 235.29 412.519 235.244C412.568 235.197 412.625 235.161 412.688 235.137C412.751 235.113 412.818 235.102 412.885 235.104C412.952 235.106 413.018 235.121 413.079 235.148C413.195 235.2 413.287 235.292 413.34 235.407C413.392 235.522 413.401 235.653 413.364 235.774Z" fill="black"/>
<path d="M397.53 261.362C394.212 265.173 390.394 268.517 386.179 271.304C386.107 271.352 386.026 271.385 385.941 271.402C385.855 271.418 385.768 271.417 385.683 271.399C385.598 271.381 385.518 271.346 385.447 271.296C385.376 271.246 385.315 271.183 385.269 271.11C385.175 270.963 385.142 270.785 385.178 270.615C385.215 270.444 385.317 270.295 385.463 270.2C389.595 267.505 393.341 264.262 396.6 260.559C396.711 260.475 396.848 260.432 396.988 260.436C397.127 260.441 397.261 260.493 397.366 260.584C397.472 260.676 397.543 260.8 397.568 260.937C397.593 261.075 397.57 261.216 397.503 261.339L397.53 261.362Z" fill="black"/>
<path d="M372.203 277.291C369.723 277.859 367.2 278.214 364.66 278.352C362.119 278.496 359.571 278.437 357.04 278.176C356.938 278.169 356.839 278.141 356.749 278.094C356.659 278.047 356.579 277.982 356.515 277.903C356.451 277.823 356.404 277.732 356.377 277.634C356.35 277.536 356.344 277.433 356.358 277.332C356.368 277.232 356.398 277.134 356.445 277.045C356.493 276.956 356.558 276.878 356.637 276.814C356.715 276.751 356.806 276.704 356.903 276.675C357 276.647 357.101 276.639 357.202 276.65C359.643 276.915 362.101 276.989 364.554 276.873C367.013 276.756 369.457 276.427 371.859 275.891C371.949 275.869 372.043 275.865 372.134 275.879C372.225 275.894 372.313 275.927 372.391 275.976C372.469 276.025 372.537 276.09 372.59 276.166C372.643 276.242 372.68 276.327 372.699 276.418C372.724 276.508 372.731 276.602 372.719 276.694C372.708 276.787 372.678 276.876 372.632 276.957C372.586 277.038 372.524 277.109 372.45 277.166C372.377 277.224 372.293 277.266 372.203 277.291Z" fill="black"/>
<path d="M343.307 271.598C339.715 267.946 336.869 263.629 334.928 258.888C334.875 258.785 334.843 258.671 334.835 258.555C334.828 258.439 334.844 258.323 334.884 258.213C334.924 258.104 334.986 258.004 335.066 257.92C335.147 257.835 335.244 257.769 335.351 257.724C335.557 257.635 335.79 257.631 335.999 257.713C336.208 257.794 336.376 257.956 336.467 258.161C338.305 262.725 341.007 266.892 344.426 270.43C344.579 270.58 344.665 270.783 344.668 270.996C344.67 271.209 344.587 271.415 344.438 271.567C344.289 271.719 344.085 271.806 343.872 271.808C343.659 271.811 343.454 271.728 343.301 271.579L343.307 271.598Z" fill="black"/>
<path d="M330.359 244.449C329.279 239.528 328.456 234.553 327.894 229.546C327.881 229.431 327.891 229.315 327.923 229.203C327.955 229.092 328.009 228.988 328.081 228.897C328.154 228.807 328.243 228.731 328.345 228.675C328.446 228.619 328.558 228.584 328.673 228.571C328.788 228.558 328.905 228.568 329.016 228.6C329.128 228.632 329.231 228.686 329.322 228.759C329.413 228.831 329.488 228.92 329.544 229.022C329.6 229.123 329.635 229.235 329.648 229.35C330.184 234.291 330.984 239.199 332.046 244.054C332.075 244.269 332.022 244.487 331.898 244.666C331.775 244.844 331.589 244.97 331.377 245.018C331.165 245.067 330.943 245.034 330.754 244.927C330.565 244.82 330.423 244.646 330.356 244.439L330.359 244.449Z" fill="black"/>
<path d="M326.711 214.543C326.621 212.039 326.511 209.541 326.43 207.034L326.469 199.516C326.469 199.397 326.493 199.278 326.539 199.168C326.585 199.057 326.652 198.957 326.737 198.872C326.822 198.788 326.923 198.721 327.033 198.675C327.144 198.629 327.262 198.606 327.382 198.606C327.502 198.606 327.62 198.63 327.731 198.676C327.841 198.722 327.942 198.789 328.026 198.874C328.111 198.959 328.178 199.06 328.223 199.17C328.269 199.281 328.292 199.399 328.292 199.519L328.242 206.999C328.317 209.486 328.414 211.977 328.502 214.471C328.493 214.698 328.398 214.913 328.237 215.073C328.076 215.232 327.86 215.325 327.634 215.333C327.407 215.341 327.186 215.263 327.014 215.115C326.843 214.966 326.733 214.759 326.708 214.533L326.711 214.543Z" fill="black"/>
<path d="M325.676 184.671C325.499 183.452 325.297 182.25 325.011 181.084C324.763 179.952 324.359 178.86 323.811 177.84C323.684 177.619 323.536 177.411 323.37 177.218C323.294 177.139 323.214 177.065 323.129 176.996C323.065 176.921 322.983 176.863 322.892 176.825C322.734 176.73 322.555 176.676 322.371 176.668C322.186 176.659 322.003 176.697 321.837 176.777C320.869 177.259 320.02 177.949 319.351 178.799C319.179 178.977 318.946 179.084 318.698 179.1C318.451 179.116 318.207 179.039 318.012 178.885C317.919 178.803 317.844 178.704 317.789 178.593C317.735 178.482 317.702 178.361 317.695 178.238C317.687 178.114 317.704 177.99 317.744 177.873C317.784 177.756 317.847 177.648 317.929 177.556C318.81 176.436 319.95 175.548 321.25 174.969L321.539 174.885L321.856 174.794C322.074 174.754 322.295 174.736 322.516 174.738L323.188 174.865C323.405 174.93 323.611 175.024 323.801 175.146C323.995 175.231 324.172 175.353 324.321 175.505C324.477 175.634 324.625 175.772 324.764 175.919C324.998 176.187 325.21 176.474 325.397 176.776C326.039 177.957 326.514 179.221 326.808 180.532C327.1 181.79 327.31 183.052 327.497 184.309C327.529 184.553 327.464 184.799 327.317 184.996C327.169 185.192 326.951 185.323 326.708 185.36C326.464 185.395 326.217 185.331 326.02 185.184C325.823 185.036 325.692 184.816 325.657 184.572L325.676 184.671Z" fill="black"/>
<path d="M311.04 191.109L303.125 203.855C302.965 204.014 302.756 204.115 302.531 204.14C302.307 204.166 302.081 204.114 301.89 203.995C301.698 203.876 301.553 203.695 301.477 203.482C301.401 203.27 301.4 203.038 301.472 202.824L309.408 190.113C309.448 189.962 309.523 189.822 309.626 189.705C309.73 189.588 309.86 189.497 310.005 189.439C310.15 189.381 310.307 189.358 310.463 189.371C310.619 189.385 310.769 189.435 310.902 189.518C311.035 189.6 311.147 189.713 311.229 189.846C311.31 189.98 311.359 190.131 311.372 190.286C311.385 190.442 311.361 190.599 311.302 190.744C311.243 190.889 311.151 191.018 311.033 191.121L311.04 191.109Z" fill="black"/>
<path d="M295.22 216.599C292.507 220.821 289.693 224.978 286.697 229.011C286.628 229.133 286.533 229.239 286.42 229.322C286.306 229.405 286.177 229.463 286.039 229.492C285.902 229.522 285.76 229.522 285.623 229.493C285.485 229.464 285.356 229.406 285.242 229.324C285.128 229.241 285.033 229.136 284.963 229.014C284.893 228.892 284.849 228.757 284.835 228.618C284.82 228.478 284.836 228.337 284.879 228.203C284.923 228.07 284.994 227.947 285.089 227.843C288.096 223.848 290.833 219.713 293.534 215.526C293.688 215.329 293.909 215.197 294.155 215.155C294.4 215.114 294.653 215.165 294.863 215.3C295.072 215.434 295.224 215.643 295.289 215.883C295.353 216.124 295.325 216.381 295.21 216.602L295.22 216.599Z" fill="black"/>
<path d="M277.126 240.676C273.726 244.404 270.077 247.896 266.204 251.129C266.108 251.212 265.997 251.275 265.877 251.313C265.757 251.352 265.631 251.366 265.505 251.355C265.379 251.344 265.257 251.308 265.146 251.248C265.034 251.189 264.936 251.108 264.857 251.01C264.705 250.811 264.633 250.562 264.655 250.313C264.677 250.064 264.792 249.832 264.977 249.663C268.774 246.473 272.35 243.03 275.681 239.356C275.756 239.225 275.859 239.113 275.984 239.027C276.108 238.942 276.25 238.885 276.399 238.863C276.548 238.84 276.7 238.851 276.845 238.895C276.989 238.94 277.121 239.016 277.232 239.119C277.342 239.222 277.428 239.348 277.482 239.489C277.537 239.629 277.559 239.78 277.547 239.931C277.535 240.081 277.489 240.227 277.413 240.357C277.337 240.487 277.232 240.598 277.107 240.682L277.126 240.676Z" fill="black"/>
<path d="M253.744 259.8C249.282 262.26 244.502 264.093 239.539 265.249C239.296 265.3 239.043 265.254 238.834 265.119C238.625 264.985 238.478 264.773 238.425 264.53C238.398 264.41 238.396 264.286 238.418 264.165C238.439 264.044 238.485 263.929 238.553 263.826C238.62 263.723 238.707 263.635 238.809 263.566C238.911 263.497 239.026 263.45 239.146 263.426C243.934 262.298 248.543 260.514 252.842 258.125C252.95 258.064 253.069 258.026 253.193 258.011C253.316 257.997 253.441 258.007 253.56 258.041C253.679 258.075 253.791 258.133 253.888 258.21C253.985 258.288 254.065 258.383 254.125 258.492C254.232 258.715 254.253 258.97 254.184 259.208C254.114 259.445 253.959 259.648 253.748 259.778L253.744 259.8Z" fill="black"/>
<path d="M224.339 266.113C219.262 265.525 214.313 264.122 209.683 261.958C209.577 261.909 209.481 261.839 209.401 261.753C209.322 261.667 209.26 261.566 209.219 261.456C209.179 261.346 209.16 261.229 209.165 261.112C209.169 260.995 209.197 260.88 209.246 260.773C209.295 260.667 209.365 260.571 209.451 260.491C209.537 260.411 209.638 260.35 209.748 260.309C209.858 260.268 209.975 260.25 210.092 260.255C210.21 260.259 210.325 260.287 210.431 260.336C214.89 262.405 219.651 263.746 224.534 264.308C224.658 264.313 224.78 264.344 224.892 264.398C225.004 264.452 225.104 264.529 225.185 264.624C225.266 264.718 225.327 264.828 225.364 264.947C225.401 265.066 225.413 265.191 225.4 265.315C225.386 265.438 225.348 265.558 225.286 265.666C225.225 265.775 225.142 265.869 225.042 265.944C224.943 266.019 224.829 266.072 224.708 266.102C224.587 266.131 224.461 266.135 224.339 266.113Z" fill="black"/>
<path d="M196.846 253.872C192.954 250.642 189.373 247.054 186.151 243.155C186.013 242.98 185.948 242.758 185.971 242.536C185.994 242.314 186.101 242.11 186.272 241.966C186.442 241.822 186.662 241.75 186.884 241.765C187.106 241.78 187.314 241.881 187.464 242.046C190.627 245.866 194.145 249.379 197.969 252.537C198.15 252.684 198.265 252.898 198.288 253.13C198.312 253.363 198.242 253.595 198.094 253.776C197.946 253.957 197.733 254.071 197.5 254.095C197.268 254.118 197.036 254.048 196.855 253.901L196.846 253.872Z" fill="black"/>
<path d="M176.964 231.179L168.054 219.185C167.932 219.019 167.88 218.811 167.911 218.607C167.942 218.403 168.052 218.219 168.218 218.096C168.385 217.977 168.592 217.927 168.795 217.957C168.998 217.988 169.182 218.096 169.306 218.26L178.341 230.218C178.449 230.398 178.485 230.611 178.445 230.817C178.404 231.022 178.289 231.206 178.122 231.332C177.954 231.458 177.746 231.517 177.538 231.499C177.329 231.481 177.134 231.387 176.991 231.234L176.964 231.179Z" fill="black"/>
<path d="M158.007 208.26C154.333 204.959 150.198 202.211 145.732 200.104C145.563 200.026 145.432 199.884 145.368 199.709C145.303 199.534 145.311 199.341 145.389 199.172C145.467 199.003 145.609 198.872 145.784 198.808C145.958 198.744 146.151 198.751 146.32 198.83C150.928 200.97 155.201 203.769 159.004 207.138C159.142 207.271 159.223 207.453 159.231 207.645C159.239 207.837 159.173 208.024 159.047 208.169C158.921 208.314 158.744 208.404 158.552 208.423C158.361 208.441 158.17 208.385 158.019 208.266L158.007 208.26Z" fill="black"/>
<path d="M131.587 195.915C126.678 195.238 121.705 195.144 116.774 195.637C116.624 195.633 116.481 195.575 116.372 195.473C116.263 195.371 116.195 195.232 116.181 195.083C116.167 194.933 116.209 194.785 116.298 194.664C116.387 194.544 116.517 194.46 116.664 194.43C121.694 193.905 126.768 193.968 131.784 194.619C131.954 194.645 132.107 194.736 132.211 194.873C132.315 195.01 132.362 195.182 132.34 195.353C132.329 195.438 132.301 195.52 132.257 195.594C132.214 195.668 132.157 195.732 132.089 195.784C132.021 195.836 131.943 195.873 131.86 195.895C131.777 195.916 131.691 195.921 131.606 195.91L131.587 195.915Z" fill="black"/>
<path d="M102.126 198.299C97.3127 199.579 92.5758 201.129 87.9371 202.942C87.8134 202.991 87.6751 202.99 87.5525 202.937C87.43 202.885 87.3332 202.786 87.2836 202.662C87.2339 202.539 87.2354 202.4 87.2878 202.278C87.3401 202.155 87.439 202.059 87.5627 202.009C92.2155 200.156 96.9677 198.563 101.797 197.239C101.932 197.219 102.068 197.248 102.182 197.321C102.297 197.394 102.38 197.506 102.418 197.637C102.456 197.767 102.445 197.906 102.388 198.029C102.33 198.152 102.23 198.25 102.106 198.305L102.126 198.299Z" fill="black"/>
<path d="M74.2029 208.9L60.8355 215.657C60.7972 215.679 60.7549 215.692 60.7112 215.697C60.6674 215.702 60.6232 215.697 60.5813 215.684C60.5393 215.671 60.5006 215.649 60.4674 215.62C60.4342 215.591 60.4074 215.556 60.3885 215.516C60.3683 215.477 60.3558 215.435 60.352 215.392C60.3481 215.348 60.3529 215.305 60.366 215.263C60.3791 215.221 60.4003 215.183 60.4285 215.15C60.4566 215.116 60.491 215.089 60.5297 215.069L73.8331 208.091C73.8817 208.064 73.935 208.048 73.9899 208.043C74.0449 208.038 74.1002 208.044 74.1528 208.061C74.2053 208.078 74.2539 208.105 74.2956 208.141C74.3373 208.177 74.3713 208.222 74.3956 208.271C74.4216 208.319 74.4379 208.372 74.4434 208.426C74.4489 208.48 74.4435 208.535 74.4276 208.587C74.4116 208.639 74.3855 208.687 74.3507 208.729C74.3158 208.771 74.273 208.806 74.2246 208.831L74.2029 208.9Z" fill="black"/>
<path d="M47.7618 222.996L34.8414 230.613C34.8241 230.625 34.8047 230.632 34.7844 230.636C34.7641 230.639 34.7433 230.638 34.7233 230.633C34.7033 230.628 34.6846 230.619 34.6682 230.607C34.6519 230.594 34.6382 230.578 34.6282 230.56C34.6082 230.525 34.6025 230.483 34.6123 230.443C34.6221 230.404 34.6467 230.369 34.681 230.347L47.513 222.569C47.5699 222.536 47.6371 222.527 47.7004 222.544C47.7636 222.561 47.8177 222.602 47.8512 222.658C47.8685 222.685 47.8802 222.715 47.8856 222.747C47.8909 222.779 47.8899 222.811 47.8824 222.843C47.875 222.874 47.8613 222.903 47.8422 222.929C47.8232 222.955 47.7991 222.977 47.7715 222.993L47.7618 222.996Z" fill="black"/>
<path d="M21.9265 238.249L11.4416 244.067L21.8615 238.133C21.8707 238.119 21.8844 238.109 21.9002 238.104C21.916 238.1 21.9329 238.101 21.948 238.108C21.9604 238.118 21.9694 238.132 21.9738 238.147C21.9783 238.162 21.978 238.179 21.973 238.194L21.9265 238.249Z" fill="black"/>
<path d="M469.458 17.032L379.352 103.387L380.32 110.824L469.458 17.032Z" fill="black" stroke="black" stroke-width="2" stroke-linejoin="round"/>
<path d="M279.6 91.6507L265.969 128.013L309.611 145.715L323.242 109.352L279.6 91.6507Z" fill="#F1EFED"/>
<path d="M265.969 128.013L185.31 212.412L228.952 230.113L309.611 145.715L265.969 128.013Z" fill="url(#paint0_linear_6260_6597)"/>
<path d="M279.6 91.6507L323.242 109.352L361.753 67.8804L319.862 54.4161C319.161 54.1911 318.394 54.3685 317.864 54.8782L279.6 91.6507Z" fill="url(#paint1_linear_6260_6597)"/>
<path d="M185.31 212.412L153.286 220.11L196.799 236.82L228.952 230.113L185.31 212.412Z" fill="#5869DD"/>
<path d="M149.74 231.057L178.776 287.183C178.994 287.605 179.356 287.936 179.795 288.116L222.7 305.65L208.033 277.285L193.366 248.92L149.74 231.057Z" fill="url(#paint2_linear_6260_6597)"/>
<path d="M193.366 248.92L196.799 236.82L153.286 220.11L149.74 231.057L193.366 248.92Z" fill="url(#paint3_linear_6260_6597)"/>
<path fill-rule="evenodd" clip-rule="evenodd" d="M384.979 86.9159L398.659 113.919C399.037 114.666 398.91 115.569 398.341 116.183L222.7 305.65L208.033 277.285L384.979 86.9159Z" fill="#5869DD"/>
<path d="M323.242 109.352L309.611 145.715L228.952 230.113L196.799 236.82L193.366 248.92L208.033 277.285L384.979 86.9159L361.753 67.8804L323.242 109.352Z" fill="url(#paint4_linear_6260_6597)"/>
<path d="M279.6 91.6507L278.907 90.9297C278.799 91.0332 278.716 91.1597 278.664 91.2997L279.6 91.6507ZM153.286 220.11L153.053 219.138C152.714 219.219 152.442 219.471 152.335 219.802L153.286 220.11ZM309.611 145.715L310.334 146.406C310.428 146.308 310.5 146.192 310.548 146.066L309.611 145.715ZM228.952 230.113L229.157 231.092C229.355 231.051 229.536 230.95 229.675 230.804L228.952 230.113ZM149.74 231.057L148.788 230.748C148.706 231.002 148.729 231.279 148.852 231.516L149.74 231.057ZM222.7 305.65L222.322 306.576C222.707 306.733 223.15 306.635 223.433 306.33L222.7 305.65ZM361.753 67.8804L362.387 67.1069C362.29 67.0273 362.179 66.9667 362.059 66.9283L361.753 67.8804ZM208.033 277.285L207.145 277.744L208.033 277.285ZM384.979 86.9159L385.871 86.464C385.809 86.34 385.721 86.2305 385.613 86.1424L384.979 86.9159ZM319.862 54.4161L320.168 53.4641L319.862 54.4161ZM317.864 54.8782L317.171 54.1572L317.864 54.8782ZM178.776 287.183L177.888 287.643L178.776 287.183ZM179.795 288.116L179.417 289.041L179.795 288.116ZM398.341 116.183L397.608 115.503L398.341 116.183ZM398.659 113.919L397.767 114.371L398.659 113.919ZM266.906 128.364L280.536 92.0017L278.664 91.2997L265.033 127.662L266.906 128.364ZM186.033 213.103L266.692 128.704L265.246 127.322L184.588 211.721L186.033 213.103ZM153.52 221.083L185.544 213.384L185.077 211.439L153.053 219.138L153.52 221.083ZM310.548 146.066L324.178 109.703L322.306 109.001L308.675 145.364L310.548 146.066ZM229.675 230.804L310.334 146.406L308.888 145.024L228.23 229.422L229.675 230.804ZM194.328 249.193L197.761 237.093L195.837 236.547L192.404 248.647L194.328 249.193ZM197.003 237.799L229.157 231.092L228.748 229.134L196.595 235.841L197.003 237.799ZM179.664 286.724L150.628 230.597L148.852 231.516L177.888 287.643L179.664 286.724ZM265.593 128.94L309.235 146.642L309.987 144.788L266.345 127.087L265.593 128.94ZM323.618 108.426L279.976 90.724L279.224 92.5773L322.866 110.279L323.618 108.426ZM184.935 213.338L228.577 231.04L229.328 229.187L185.686 211.485L184.935 213.338ZM152.928 221.044L196.441 237.754L197.158 235.887L153.645 219.177L152.928 221.044ZM362.059 66.9283L320.168 53.4641L319.556 55.3682L361.447 68.8324L362.059 66.9283ZM317.171 54.1572L278.907 90.9297L280.293 92.3717L318.557 55.5992L317.171 54.1572ZM323.975 110.033L362.486 68.5608L361.021 67.1999L322.509 108.672L323.975 110.033ZM150.691 231.365L154.238 220.418L152.335 219.802L148.788 230.748L150.691 231.365ZM223.433 306.33L399.075 116.863L397.608 115.503L221.967 304.97L223.433 306.33ZM179.417 289.041L222.322 306.576L223.078 304.725L180.174 287.19L179.417 289.041ZM193.745 247.994L150.119 230.131L149.361 231.982L192.987 249.845L193.745 247.994ZM192.477 249.379L207.145 277.744L208.921 276.826L194.254 248.46L192.477 249.379ZM207.145 277.744L221.812 306.109L223.588 305.191L208.921 276.826L207.145 277.744ZM384.087 87.3678L397.767 114.371L399.551 113.468L385.871 86.464L384.087 87.3678ZM208.765 277.966L385.712 87.5967L384.247 86.2351L207.3 276.604L208.765 277.966ZM385.613 86.1424L362.387 67.1069L361.119 68.6538L384.345 87.6893L385.613 86.1424ZM320.168 53.4641C319.117 53.1265 317.966 53.3927 317.171 54.1572L318.557 55.5992C318.822 55.3444 319.206 55.2556 319.556 55.3682L320.168 53.4641ZM177.888 287.643C178.215 288.276 178.757 288.772 179.417 289.041L180.174 287.19C179.954 287.1 179.773 286.935 179.664 286.724L177.888 287.643ZM399.075 116.863C399.928 115.942 400.118 114.587 399.551 113.468L397.767 114.371C397.956 114.745 397.893 115.196 397.608 115.503L399.075 116.863Z" fill="black"/>
<path d="M315.901 74.6309C316.927 74.9531 318.507 74.5685 319.423 73.7561C320.361 72.9617 320.26 72.0271 319.215 71.7167C318.158 71.3874 316.578 71.772 315.68 72.5625C314.784 73.373 314.864 74.2996 315.901 74.6309Z" fill="black"/>
<path d="M307.605 78.0694C308.593 78.4155 310.133 78.0347 311.02 77.2352C311.916 76.4247 311.817 75.51 310.8 75.1768C309.783 74.8436 308.253 75.2334 307.376 76.022C306.499 76.8205 306.598 77.7353 307.605 78.0694Z" fill="black"/>
<path d="M297.783 87.0013C298.72 87.3423 300.183 86.9891 301.061 86.2005C301.957 85.4 301.869 84.4943 300.912 84.1553C299.945 83.8173 298.493 84.1794 297.634 84.9561C296.786 85.7418 296.845 86.6604 297.783 87.0013Z" fill="black"/>
<path d="M309.34 82.8942C308.433 83.6957 306.922 84.0736 305.964 83.7246C304.997 83.3866 304.928 82.469 305.815 81.6695C306.701 80.8699 308.214 80.512 309.191 80.849C310.187 81.1742 310.247 82.1027 309.34 82.8942Z" fill="black"/>
<path d="M320.265 93.3767C319.287 94.175 317.735 94.5368 316.827 94.183C315.897 93.8212 315.928 92.8939 316.894 92.0867C317.871 91.2884 319.403 90.9185 320.361 91.2675C321.298 91.6084 321.258 92.5367 320.265 93.3767Z" fill="black"/>
<path d="M327.904 85.0387C328.9 85.3639 330.511 84.9863 331.526 84.1642C332.541 83.3322 332.54 82.3979 331.532 82.0538C330.525 81.7196 328.915 82.1072 327.931 82.9363C326.935 83.7564 326.915 84.6827 327.904 85.0387Z" fill="black"/>
<path d="M307.501 88.5788C306.603 89.3693 305.1 89.7163 304.173 89.3844C303.235 89.0335 303.214 88.1011 304.103 87.3215C305 86.521 306.482 86.156 307.44 86.5049C308.378 86.8558 308.417 87.7763 307.501 88.5788Z" fill="black"/>
<path d="M314.41 80.382C315.397 80.7181 316.958 80.3354 317.883 79.5221C318.829 78.7068 318.761 77.7991 317.744 77.4659C316.726 77.1228 315.175 77.4945 314.26 78.3169C313.353 79.1183 313.412 80.0369 314.41 80.382Z" fill="black"/>
<path d="M315.977 85.2332C315.04 86.0376 313.491 86.4293 312.533 86.0803C311.574 85.7314 311.555 84.8089 312.472 84.0065C313.398 83.1932 314.919 82.8243 315.906 83.1604C316.893 83.4965 316.922 84.418 315.977 85.2332Z" fill="black"/>
<path d="M322.903 76.8942C323.94 77.2255 325.54 76.8389 326.496 76.0326C327.471 75.2045 327.391 74.2779 326.354 73.9466C325.299 73.6372 323.699 74.0238 322.761 74.8182C321.808 75.6543 321.887 76.571 322.903 76.8942Z" fill="black"/>
<path d="M313.901 90.9609C312.945 91.7672 311.432 92.1251 310.515 91.7823C309.584 91.4105 309.596 90.4951 310.513 89.6927C311.45 88.8983 312.961 88.5204 313.9 88.8812C314.857 89.2202 314.848 90.1555 313.901 90.9609Z" fill="black"/>
<path d="M321.186 82.6975C322.163 83.0346 323.754 82.6589 324.729 81.8308C325.704 81.0126 325.674 80.0811 324.667 79.747C323.65 79.4138 322.07 79.7984 321.114 80.6147C320.158 81.421 320.188 82.3524 321.186 82.6975Z" fill="black"/>
<path d="M322.576 87.596C321.6 88.4042 320.02 88.7889 319.071 88.4389C318.103 88.091 318.113 87.1557 319.08 86.3583C320.045 85.5312 321.607 85.1684 322.584 85.5054C323.551 85.8435 323.552 86.7778 322.576 87.596Z" fill="black"/>
<path d="M329.887 79.1795C330.895 79.5236 332.525 79.1341 333.519 78.304C334.526 77.5029 334.494 76.5515 333.457 76.2202C332.41 75.89 330.79 76.2785 329.804 77.0877C328.829 77.9158 328.87 78.8463 329.887 79.1795Z" fill="black"/>
<path fill-rule="evenodd" clip-rule="evenodd" d="M234.825 280.356C237.681 277.976 238.719 274.514 237.144 272.623C236.366 271.69 235.097 271.314 233.667 271.459C229.888 277.164 229.324 279.554 231.479 282.172C232.602 281.85 233.764 281.24 234.825 280.356Z" fill="black"/>
<path d="M229.12 273.51C226.264 275.89 225.225 279.352 226.801 281.243C227.791 282.431 229.578 282.716 231.479 282.172C229.324 279.554 229.888 277.164 233.667 271.459C232.2 271.608 230.566 272.305 229.12 273.51Z" fill="#F1EFED"/>
<path d="M236.538 273.128C237.103 273.806 237.262 274.841 236.891 276.079C236.522 277.311 235.646 278.645 234.32 279.75L235.33 280.962C236.86 279.687 237.932 278.1 238.402 276.532C238.87 274.972 238.761 273.331 237.75 272.118L236.538 273.128ZM227.407 280.738C226.842 280.06 226.682 279.025 227.054 277.787C227.423 276.555 228.299 275.221 229.625 274.116L228.615 272.904C227.085 274.179 226.013 275.766 225.543 277.334C225.075 278.894 225.184 280.535 226.195 281.748L227.407 280.738ZM229.625 274.116C230.968 272.997 232.458 272.375 233.746 272.244L233.587 270.675C231.943 270.842 230.164 271.613 228.615 272.904L229.625 274.116ZM233.746 272.244C235.009 272.116 235.98 272.459 236.538 273.128L237.75 272.118C236.752 270.921 235.184 270.513 233.587 270.675L233.746 272.244ZM234.32 279.75C233.338 280.569 232.272 281.124 231.262 281.414L231.696 282.93C232.931 282.576 234.19 281.911 235.33 280.962L234.32 279.75ZM231.262 281.414C229.513 281.914 228.114 281.587 227.407 280.738L226.195 281.748C227.468 283.275 229.643 283.517 231.696 282.93L231.262 281.414ZM233.009 271.024C231.122 273.873 229.954 276.009 229.576 277.811C229.382 278.735 229.391 279.587 229.621 280.409C229.85 281.224 230.284 281.961 230.87 282.673L232.088 281.67C231.597 281.074 231.293 280.53 231.14 279.983C230.988 279.441 230.97 278.849 231.12 278.135C231.429 276.661 232.433 274.751 234.324 271.895L233.009 271.024Z" fill="black"/>
<path d="M259.454 178.464L265.869 181.443L263.885 184.024L261.9 186.605L255.555 183.567L259.454 178.464Z" fill="#F1EFED"/>
<path d="M261.9 186.605L255.555 183.567L255.716 184.795L262.158 187.982L261.9 186.605Z" fill="black"/>
<path d="M261.9 186.605L262.158 187.982L264.114 185.474L263.885 184.024L261.9 186.605Z" fill="black"/>
<path d="M266.069 182.967L265.869 181.443L263.885 184.024L264.114 185.474L266.069 182.967Z" fill="#F1EFED"/>
<path d="M259.454 178.464L259.597 178.155C259.453 178.088 259.281 178.131 259.184 178.257L259.454 178.464ZM265.869 181.443L266.206 181.399C266.191 181.283 266.118 181.184 266.012 181.135L265.869 181.443ZM255.555 183.567L255.285 183.361C255.23 183.432 255.206 183.522 255.218 183.612L255.555 183.567ZM262.158 187.982L262.007 188.286C262.152 188.358 262.327 188.318 262.426 188.191L262.158 187.982ZM266.069 182.967L266.337 183.176C266.393 183.104 266.418 183.013 266.406 182.922L266.069 182.967ZM255.716 184.795L255.379 184.839C255.394 184.951 255.463 185.049 255.565 185.1L255.716 184.795ZM263.885 184.024L263.615 183.817L263.615 183.817L263.885 184.024ZM259.311 178.772L265.726 181.751L266.012 181.135L259.597 178.155L259.311 178.772ZM262.047 186.299L255.702 183.261L255.408 183.874L261.753 186.912L262.047 186.299ZM255.825 183.774L259.724 178.67L259.184 178.257L255.285 183.361L255.825 183.774ZM261.566 186.668L261.824 188.044L262.492 187.919L262.234 186.543L261.566 186.668ZM266.406 182.922L266.206 181.399L265.532 181.487L265.732 183.011L266.406 182.922ZM262.309 187.677L255.867 184.49L255.565 185.1L262.007 188.286L262.309 187.677ZM256.053 184.751L255.892 183.523L255.218 183.612L255.379 184.839L256.053 184.751ZM265.6 181.236L263.615 183.817L264.154 184.231L266.139 181.65L265.6 181.236ZM263.615 183.817L261.63 186.398L262.169 186.813L264.154 184.231L263.615 183.817ZM262.426 188.191L264.382 185.683L263.846 185.265L261.89 187.773L262.426 188.191ZM264.382 185.683L266.337 183.176L265.801 182.758L263.846 185.265L264.382 185.683ZM263.549 184.077L263.778 185.527L264.45 185.421L264.22 183.971L263.549 184.077Z" fill="black"/>
<path d="M267.8 167.321L274.193 170.346L272.19 172.913L270.187 175.48L263.864 172.396L267.8 167.321Z" fill="#F1EFED"/>
<path d="M270.187 175.48L263.864 172.396L264.016 173.625L270.435 176.858L270.187 175.48Z" fill="black"/>
<path d="M270.187 175.48L270.435 176.858L272.409 174.365L272.19 172.913L270.187 175.48Z" fill="black"/>
<path d="M274.382 171.871L274.193 170.346L272.19 172.913L272.409 174.365L274.382 171.871Z" fill="#F1EFED"/>
<path d="M267.8 167.321L267.945 167.014C267.801 166.945 267.629 166.987 267.531 167.113L267.8 167.321ZM274.193 170.346L274.531 170.304C274.516 170.189 274.444 170.089 274.339 170.039L274.193 170.346ZM263.864 172.396L263.595 172.188C263.54 172.259 263.515 172.349 263.526 172.438L263.864 172.396ZM270.435 176.858L270.282 177.162C270.426 177.234 270.602 177.196 270.702 177.069L270.435 176.858ZM274.382 171.871L274.649 172.082C274.705 172.011 274.731 171.92 274.72 171.829L274.382 171.871ZM264.016 173.625L263.679 173.667C263.693 173.779 263.762 173.878 263.863 173.929L264.016 173.625ZM272.19 172.913L271.922 172.704L271.922 172.704L272.19 172.913ZM267.654 167.628L274.048 170.653L274.339 170.039L267.945 167.014L267.654 167.628ZM270.336 175.174L264.013 172.091L263.715 172.702L270.038 175.785L270.336 175.174ZM264.132 172.605L268.068 167.529L267.531 167.113L263.595 172.188L264.132 172.605ZM269.852 175.54L270.101 176.918L270.77 176.798L270.522 175.42L269.852 175.54ZM274.72 171.829L274.531 170.304L273.856 170.388L274.045 171.913L274.72 171.829ZM270.588 176.554L264.169 173.321L263.863 173.929L270.282 177.162L270.588 176.554ZM264.353 173.583L264.201 172.355L263.526 172.438L263.679 173.667L264.353 173.583ZM273.925 170.137L271.922 172.704L272.458 173.122L274.461 170.555L273.925 170.137ZM271.922 172.704L269.919 175.271L270.455 175.689L272.458 173.122L271.922 172.704ZM270.702 177.069L272.675 174.576L272.142 174.154L270.169 176.647L270.702 177.069ZM272.675 174.576L274.649 172.082L274.116 171.66L272.142 174.154L272.675 174.576ZM271.854 172.964L272.073 174.415L272.745 174.314L272.526 172.862L271.854 172.964Z" fill="black"/>
<path d="M276.609 157.034L283.024 160.013L281.039 162.594L279.054 165.176L272.709 162.138L276.609 157.034Z" fill="#F1EFED"/>
<path d="M279.054 165.176L272.709 162.138L272.87 163.365L279.312 166.552L279.054 165.176Z" fill="black"/>
<path d="M279.054 165.176L279.312 166.552L281.268 164.044L281.039 162.594L279.054 165.176Z" fill="black"/>
<path d="M283.223 161.537L283.024 160.013L281.039 162.594L281.268 164.044L283.223 161.537Z" fill="#F1EFED"/>
<path d="M276.609 157.034L276.752 156.726C276.607 156.658 276.435 156.701 276.338 156.828L276.609 157.034ZM283.024 160.013L283.361 159.969C283.346 159.854 283.272 159.754 283.167 159.705L283.024 160.013ZM272.709 162.138L272.439 161.931C272.384 162.003 272.36 162.093 272.372 162.182L272.709 162.138ZM279.312 166.552L279.162 166.857C279.306 166.928 279.481 166.888 279.581 166.761L279.312 166.552ZM283.223 161.537L283.492 161.746C283.548 161.674 283.572 161.583 283.561 161.493L283.223 161.537ZM272.87 163.365L272.533 163.409C272.548 163.522 272.618 163.619 272.719 163.67L272.87 163.365ZM281.039 162.594L280.769 162.387L280.769 162.387L281.039 162.594ZM276.465 157.342L282.88 160.322L283.167 159.705L276.752 156.726L276.465 157.342ZM279.201 164.869L272.856 161.831L272.562 162.444L278.907 165.482L279.201 164.869ZM272.979 162.344L276.879 157.24L276.338 156.828L272.439 161.931L272.979 162.344ZM278.72 165.238L278.978 166.615L279.647 166.489L279.388 165.113L278.72 165.238ZM283.561 161.493L283.361 159.969L282.686 160.058L282.886 161.581L283.561 161.493ZM279.463 166.247L273.021 163.06L272.719 163.67L279.162 166.857L279.463 166.247ZM273.207 163.321L273.046 162.093L272.372 162.182L272.533 163.409L273.207 163.321ZM282.754 159.806L280.769 162.387L281.308 162.802L283.293 160.221L282.754 159.806ZM280.769 162.387L278.785 164.968L279.324 165.383L281.308 162.802L280.769 162.387ZM279.581 166.761L281.536 164.253L281 163.835L279.044 166.343L279.581 166.761ZM281.536 164.253L283.492 161.746L282.955 161.328L281 163.835L281.536 164.253ZM280.703 162.647L280.932 164.097L281.604 163.991L281.375 162.541L280.703 162.647Z" fill="black"/>
<path d="M285.444 147.623L291.838 150.648L289.835 153.215L287.831 155.782L281.508 152.698L285.444 147.623Z" fill="#F1EFED"/>
<path d="M287.831 155.782L281.508 152.698L281.661 153.927L288.08 157.16L287.831 155.782Z" fill="black"/>
<path d="M287.831 155.782L288.08 157.16L290.053 154.667L289.835 153.215L287.831 155.782Z" fill="black"/>
<path d="M292.027 152.173L291.838 150.648L289.835 153.215L290.053 154.667L292.027 152.173Z" fill="#F1EFED"/>
<path d="M285.444 147.623L285.59 147.316C285.445 147.247 285.273 147.289 285.175 147.415L285.444 147.623ZM291.838 150.648L292.175 150.606C292.161 150.491 292.088 150.391 291.983 150.341L291.838 150.648ZM281.508 152.698L281.24 152.49C281.185 152.561 281.16 152.651 281.171 152.74L281.508 152.698ZM288.08 157.16L287.927 157.464C288.071 157.536 288.246 157.498 288.346 157.371L288.08 157.16ZM292.027 152.173L292.293 152.384C292.35 152.313 292.375 152.222 292.364 152.131L292.027 152.173ZM281.661 153.927L281.323 153.969C281.337 154.081 281.406 154.18 281.508 154.231L281.661 153.927ZM289.835 153.215L289.567 153.006L289.567 153.006L289.835 153.215ZM285.299 147.93L291.692 150.955L291.983 150.341L285.59 147.316L285.299 147.93ZM287.981 155.476L281.657 152.393L281.359 153.004L287.682 156.087L287.981 155.476ZM281.777 152.907L285.713 147.831L285.175 147.415L281.24 152.49L281.777 152.907ZM287.497 155.842L287.745 157.22L288.414 157.1L288.166 155.722L287.497 155.842ZM292.364 152.131L292.175 150.606L291.5 150.69L291.689 152.215L292.364 152.131ZM288.233 156.856L281.813 153.623L281.508 154.231L287.927 157.464L288.233 156.856ZM281.998 153.885L281.846 152.657L281.171 152.74L281.323 153.969L281.998 153.885ZM291.57 150.439L289.567 153.006L290.103 153.424L292.106 150.857L291.57 150.439ZM289.567 153.006L287.563 155.573L288.1 155.991L290.103 153.424L289.567 153.006ZM288.346 157.371L290.32 154.878L289.787 154.456L287.813 156.949L288.346 157.371ZM290.32 154.878L292.293 152.384L291.76 151.962L289.787 154.456L290.32 154.878ZM289.498 153.266L289.717 154.717L290.389 154.616L290.171 153.164L289.498 153.266Z" fill="black"/>
<path d="M247.59 173.422L254.005 176.401L252.02 178.982L250.036 181.563L243.691 178.525L247.59 173.422Z" fill="#F1EFED"/>
<path d="M250.036 181.563L243.691 178.525L243.852 179.753L250.294 182.94L250.036 181.563Z" fill="black"/>
<path d="M250.036 181.563L250.294 182.94L252.249 180.432L252.02 178.982L250.036 181.563Z" fill="black"/>
<path d="M254.205 177.925L254.005 176.401L252.02 178.982L252.249 180.432L254.205 177.925Z" fill="#F1EFED"/>
<path d="M247.59 173.422L247.733 173.113C247.589 173.046 247.417 173.089 247.32 173.215L247.59 173.422ZM254.005 176.401L254.342 176.357C254.327 176.241 254.254 176.142 254.148 176.093L254.005 176.401ZM243.691 178.525L243.42 178.319C243.366 178.39 243.342 178.48 243.353 178.569L243.691 178.525ZM250.294 182.94L250.143 183.244C250.288 183.316 250.463 183.276 250.562 183.149L250.294 182.94ZM254.205 177.925L254.473 178.134C254.529 178.062 254.554 177.971 254.542 177.88L254.205 177.925ZM243.852 179.753L243.515 179.797C243.529 179.909 243.599 180.007 243.701 180.057L243.852 179.753ZM252.02 178.982L251.751 178.775L251.751 178.775L252.02 178.982ZM247.447 173.73L253.862 176.709L254.148 176.093L247.733 173.113L247.447 173.73ZM250.183 181.257L243.837 178.219L243.544 178.832L249.889 181.87L250.183 181.257ZM243.961 178.732L247.86 173.628L247.32 173.215L243.42 178.319L243.961 178.732ZM249.702 181.626L249.96 183.002L250.628 182.877L250.37 181.501L249.702 181.626ZM254.542 177.88L254.342 176.357L253.668 176.445L253.868 177.969L254.542 177.88ZM250.445 182.635L244.002 179.448L243.701 180.057L250.143 183.244L250.445 182.635ZM244.189 179.708L244.028 178.481L243.353 178.569L243.515 179.797L244.189 179.708ZM253.735 176.194L251.751 178.775L252.29 179.189L254.275 176.608L253.735 176.194ZM251.751 178.775L249.766 181.356L250.305 181.771L252.29 179.189L251.751 178.775ZM250.562 183.149L252.518 180.641L251.981 180.223L250.026 182.731L250.562 183.149ZM252.518 180.641L254.473 178.134L253.937 177.715L251.981 180.223L252.518 180.641ZM251.685 179.035L251.914 180.485L252.585 180.379L252.356 178.929L251.685 179.035Z" fill="black"/>
<path d="M255.935 162.279L262.329 165.304L260.326 167.871L258.323 170.438L252 167.354L255.935 162.279Z" fill="#F1EFED"/>
<path d="M258.323 170.438L252 167.354L252.152 168.583L258.571 171.816L258.323 170.438Z" fill="black"/>
<path d="M258.323 170.438L258.571 171.816L260.544 169.322L260.326 167.871L258.323 170.438Z" fill="black"/>
<path d="M262.518 166.829L262.329 165.304L260.326 167.871L260.544 169.322L262.518 166.829Z" fill="#F1EFED"/>
<path d="M255.935 162.279L256.081 161.972C255.937 161.903 255.764 161.944 255.667 162.071L255.935 162.279ZM262.329 165.304L262.666 165.262C262.652 165.147 262.58 165.046 262.474 164.997L262.329 165.304ZM252 167.354L251.731 167.146C251.676 167.217 251.651 167.307 251.662 167.396L252 167.354ZM258.571 171.816L258.418 172.12C258.562 172.192 258.738 172.153 258.838 172.027L258.571 171.816ZM262.518 166.829L262.784 167.04C262.841 166.969 262.867 166.878 262.855 166.787L262.518 166.829ZM252.152 168.583L251.814 168.625C251.828 168.737 251.897 168.835 251.999 168.887L252.152 168.583ZM260.326 167.871L260.058 167.662L260.058 167.662L260.326 167.871ZM255.79 162.586L262.183 165.611L262.474 164.997L256.081 161.972L255.79 162.586ZM258.472 170.132L252.149 167.049L251.85 167.66L258.174 170.743L258.472 170.132ZM252.268 167.563L256.204 162.487L255.667 162.071L251.731 167.146L252.268 167.563ZM257.988 170.498L258.236 171.876L258.906 171.756L258.657 170.377L257.988 170.498ZM262.855 166.787L262.666 165.262L261.991 165.346L262.18 166.871L262.855 166.787ZM258.724 171.512L252.305 168.279L251.999 168.887L258.418 172.12L258.724 171.512ZM252.489 168.541L252.337 167.312L251.662 167.396L251.814 168.625L252.489 168.541ZM262.061 165.095L260.058 167.662L260.594 168.08L262.597 165.513L262.061 165.095ZM260.058 167.662L258.055 170.229L258.591 170.647L260.594 168.08L260.058 167.662ZM258.838 172.027L260.811 169.533L260.278 169.111L258.304 171.605L258.838 172.027ZM260.811 169.533L262.784 167.04L262.251 166.618L260.278 169.111L260.811 169.533ZM259.99 167.922L260.208 169.373L260.881 169.272L260.662 167.82L259.99 167.922Z" fill="black"/>
<path d="M264.744 151.992L271.159 154.971L269.175 157.552L267.19 160.133L260.845 157.095L264.744 151.992Z" fill="#F1EFED"/>
<path d="M267.19 160.133L260.845 157.095L261.006 158.323L267.448 161.51L267.19 160.133Z" fill="black"/>
<path d="M267.19 160.133L267.448 161.51L269.404 159.002L269.175 157.552L267.19 160.133Z" fill="black"/>
<path d="M271.359 156.495L271.159 154.971L269.175 157.552L269.404 159.002L271.359 156.495Z" fill="#F1EFED"/>
<path d="M264.744 151.992L264.887 151.684C264.743 151.616 264.571 151.659 264.474 151.786L264.744 151.992ZM271.159 154.971L271.496 154.927C271.481 154.811 271.408 154.712 271.303 154.663L271.159 154.971ZM260.845 157.095L260.575 156.889C260.52 156.96 260.496 157.051 260.508 157.14L260.845 157.095ZM267.448 161.51L267.297 161.815C267.442 161.886 267.617 161.846 267.716 161.719L267.448 161.51ZM271.359 156.495L271.627 156.704C271.683 156.632 271.708 156.541 271.696 156.451L271.359 156.495ZM261.006 158.323L260.669 158.367C260.684 158.48 260.753 158.577 260.855 158.628L261.006 158.323ZM269.175 157.552L268.905 157.345L268.905 157.345L269.175 157.552ZM264.601 152.3L271.016 155.28L271.303 154.663L264.887 151.684L264.601 152.3ZM267.337 159.827L260.992 156.789L260.698 157.402L267.043 160.44L267.337 159.827ZM261.115 157.302L265.014 152.198L264.474 151.786L260.575 156.889L261.115 157.302ZM266.856 160.196L267.114 161.572L267.782 161.447L267.524 160.071L266.856 160.196ZM271.696 156.451L271.496 154.927L270.822 155.015L271.022 156.539L271.696 156.451ZM267.599 161.205L261.157 158.018L260.855 158.628L267.297 161.815L267.599 161.205ZM261.343 158.279L261.182 157.051L260.508 157.14L260.669 158.367L261.343 158.279ZM270.89 154.764L268.905 157.345L269.444 157.76L271.429 155.178L270.89 154.764ZM268.905 157.345L266.92 159.926L267.46 160.341L269.444 157.76L268.905 157.345ZM267.716 161.719L269.672 159.211L269.136 158.793L267.18 161.301L267.716 161.719ZM269.672 159.211L271.627 156.704L271.091 156.286L269.136 158.793L269.672 159.211ZM268.839 157.605L269.068 159.055L269.74 158.949L269.51 157.499L268.839 157.605Z" fill="black"/>
<path d="M273.58 142.581L279.973 145.606L277.97 148.173L275.967 150.74L269.644 147.656L273.58 142.581Z" fill="#F1EFED"/>
<path d="M275.967 150.74L269.644 147.656L269.796 148.885L276.216 152.118L275.967 150.74Z" fill="black"/>
<path d="M275.967 150.74L276.216 152.118L278.189 149.624L277.97 148.173L275.967 150.74Z" fill="black"/>
<path d="M280.162 147.131L279.973 145.606L277.97 148.173L278.189 149.624L280.162 147.131Z" fill="#F1EFED"/>
<path d="M273.58 142.581L273.725 142.274C273.581 142.205 273.409 142.246 273.311 142.373L273.58 142.581ZM279.973 145.606L280.311 145.564C280.297 145.449 280.224 145.348 280.119 145.299L279.973 145.606ZM269.644 147.656L269.375 147.448C269.32 147.519 269.296 147.609 269.307 147.698L269.644 147.656ZM276.216 152.118L276.063 152.422C276.207 152.494 276.382 152.455 276.482 152.329L276.216 152.118ZM280.162 147.131L280.429 147.342C280.486 147.271 280.511 147.18 280.5 147.089L280.162 147.131ZM269.796 148.885L269.459 148.927C269.473 149.039 269.542 149.137 269.643 149.189L269.796 148.885ZM277.97 148.173L277.702 147.964L277.702 147.964L277.97 148.173ZM273.434 142.888L279.828 145.913L280.119 145.299L273.725 142.274L273.434 142.888ZM276.116 150.434L269.793 147.351L269.495 147.962L275.818 151.045L276.116 150.434ZM269.913 147.865L273.849 142.789L273.311 142.373L269.375 147.448L269.913 147.865ZM275.633 150.8L275.881 152.178L276.55 152.058L276.302 150.679L275.633 150.8ZM280.5 147.089L280.311 145.564L279.636 145.648L279.825 147.173L280.5 147.089ZM276.369 151.814L269.949 148.581L269.643 149.189L276.063 152.422L276.369 151.814ZM270.134 148.843L269.981 147.614L269.307 147.698L269.459 148.927L270.134 148.843ZM279.705 145.397L277.702 147.964L278.238 148.382L280.241 145.815L279.705 145.397ZM277.702 147.964L275.699 150.531L276.235 150.949L278.238 148.382L277.702 147.964ZM276.482 152.329L278.456 149.835L277.922 149.413L275.949 151.907L276.482 152.329ZM278.456 149.835L280.429 147.342L279.896 146.92L277.922 149.413L278.456 149.835ZM277.634 148.224L277.853 149.675L278.525 149.574L278.307 148.122L277.634 148.224Z" fill="black"/>
<path d="M236.524 167.73L242.939 170.71L240.954 173.291L238.969 175.872L232.624 172.834L236.524 167.73Z" fill="#F1EFED"/>
<path d="M238.969 175.872L232.624 172.834L232.785 174.061L239.228 177.248L238.969 175.872Z" fill="black"/>
<path d="M238.969 175.872L239.228 177.248L241.183 174.741L240.954 173.291L238.969 175.872Z" fill="black"/>
<path d="M243.139 172.233L242.939 170.71L240.954 173.291L241.183 174.741L243.139 172.233Z" fill="#F1EFED"/>
<path d="M236.524 167.73L236.667 167.422C236.522 167.355 236.35 167.397 236.253 167.524L236.524 167.73ZM242.939 170.71L243.276 170.665C243.261 170.55 243.187 170.45 243.082 170.401L242.939 170.71ZM232.624 172.834L232.354 172.628C232.299 172.699 232.275 172.789 232.287 172.878L232.624 172.834ZM239.228 177.248L239.077 177.553C239.221 177.625 239.396 177.585 239.496 177.457L239.228 177.248ZM243.139 172.233L243.407 172.442C243.463 172.371 243.487 172.279 243.476 172.189L243.139 172.233ZM232.785 174.061L232.448 174.106C232.463 174.218 232.533 174.316 232.634 174.366L232.785 174.061ZM240.954 173.291L240.684 173.084L240.684 173.084L240.954 173.291ZM236.38 168.039L242.795 171.018L243.082 170.401L236.667 167.422L236.38 168.039ZM239.116 175.565L232.771 172.527L232.477 173.141L238.822 176.179L239.116 175.565ZM232.894 173.04L236.794 167.937L236.253 167.524L232.354 172.628L232.894 173.04ZM238.635 175.935L238.893 177.311L239.562 177.186L239.303 175.809L238.635 175.935ZM243.476 172.189L243.276 170.665L242.601 170.754L242.801 172.278L243.476 172.189ZM239.378 176.944L232.936 173.757L232.634 174.366L239.077 177.553L239.378 176.944ZM233.122 174.017L232.961 172.79L232.287 172.878L232.448 174.106L233.122 174.017ZM242.669 170.502L240.684 173.084L241.223 173.498L243.208 170.917L242.669 170.502ZM240.684 173.084L238.7 175.665L239.239 176.079L241.223 173.498L240.684 173.084ZM239.496 177.457L241.451 174.95L240.915 174.532L238.959 177.039L239.496 177.457ZM241.451 174.95L243.407 172.442L242.87 172.024L240.915 174.532L241.451 174.95ZM240.618 173.344L240.847 174.794L241.519 174.688L241.29 173.238L240.618 173.344Z" fill="black"/>
<path d="M244.869 156.588L251.262 159.613L249.259 162.18L247.256 164.746L240.933 161.663L244.869 156.588Z" fill="#F1EFED"/>
<path d="M247.256 164.746L240.933 161.663L241.085 162.892L247.505 166.125L247.256 164.746Z" fill="black"/>
<path d="M247.256 164.746L247.505 166.125L249.478 163.631L249.259 162.18L247.256 164.746Z" fill="black"/>
<path d="M251.451 161.138L251.262 159.613L249.259 162.18L249.478 163.631L251.451 161.138Z" fill="#F1EFED"/>
<path d="M244.869 156.588L245.014 156.28C244.87 156.212 244.698 156.253 244.6 156.379L244.869 156.588ZM251.262 159.613L251.6 159.571C251.586 159.455 251.513 159.355 251.408 159.305L251.262 159.613ZM240.933 161.663L240.664 161.455C240.609 161.526 240.585 161.616 240.596 161.705L240.933 161.663ZM247.505 166.125L247.352 166.428C247.496 166.501 247.671 166.462 247.771 166.336L247.505 166.125ZM251.451 161.138L251.718 161.349C251.775 161.277 251.8 161.186 251.789 161.096L251.451 161.138ZM241.085 162.892L240.748 162.933C240.762 163.046 240.831 163.144 240.932 163.195L241.085 162.892ZM249.259 162.18L248.991 161.97L248.991 161.97L249.259 162.18ZM244.724 156.895L251.117 159.92L251.408 159.305L245.014 156.28L244.724 156.895ZM247.405 164.441L241.082 161.357L240.784 161.969L247.107 165.052L247.405 164.441ZM241.202 161.871L245.138 156.796L244.6 156.379L240.664 161.455L241.202 161.871ZM246.922 164.807L247.17 166.185L247.839 166.064L247.591 164.686L246.922 164.807ZM251.789 161.096L251.6 159.571L250.925 159.655L251.114 161.18L251.789 161.096ZM247.658 165.821L241.238 162.588L240.932 163.195L247.352 166.428L247.658 165.821ZM241.423 162.85L241.271 161.621L240.596 161.705L240.748 162.933L241.423 162.85ZM250.994 159.404L248.991 161.97L249.527 162.389L251.531 159.822L250.994 159.404ZM248.991 161.97L246.988 164.537L247.524 164.956L249.527 162.389L248.991 161.97ZM247.771 166.336L249.745 163.842L249.211 163.42L247.238 165.914L247.771 166.336ZM249.745 163.842L251.718 161.349L251.185 160.927L249.211 163.42L249.745 163.842ZM248.923 162.23L249.142 163.682L249.814 163.581L249.596 162.129L248.923 162.23Z" fill="black"/>
<path d="M253.678 146.301L260.093 149.28L258.108 151.861L256.124 154.442L249.778 151.404L253.678 146.301Z" fill="#F1EFED"/>
<path d="M256.124 154.442L249.778 151.404L249.94 152.632L256.382 155.819L256.124 154.442Z" fill="black"/>
<path d="M256.124 154.442L256.382 155.819L258.337 153.311L258.108 151.861L256.124 154.442Z" fill="black"/>
<path d="M260.293 150.803L260.093 149.28L258.108 151.861L258.337 153.311L260.293 150.803Z" fill="#F1EFED"/>
<path d="M253.678 146.301L253.821 145.992C253.676 145.925 253.505 145.967 253.408 146.094L253.678 146.301ZM260.093 149.28L260.43 149.236C260.415 149.12 260.342 149.021 260.236 148.972L260.093 149.28ZM249.778 151.404L249.508 151.198C249.454 151.269 249.43 151.359 249.441 151.448L249.778 151.404ZM256.382 155.819L256.231 156.123C256.376 156.195 256.551 156.155 256.65 156.028L256.382 155.819ZM260.293 150.803L260.561 151.013C260.617 150.941 260.642 150.85 260.63 150.759L260.293 150.803ZM249.94 152.632L249.602 152.676C249.617 152.788 249.687 152.886 249.789 152.936L249.94 152.632ZM258.108 151.861L257.839 151.654L257.839 151.654L258.108 151.861ZM253.535 146.609L259.95 149.588L260.236 148.972L253.821 145.992L253.535 146.609ZM256.27 154.136L249.925 151.097L249.632 151.711L255.977 154.749L256.27 154.136ZM250.049 151.611L253.948 146.507L253.408 146.094L249.508 151.198L250.049 151.611ZM255.789 154.505L256.048 155.881L256.716 155.756L256.458 154.379L255.789 154.505ZM260.63 150.759L260.43 149.236L259.756 149.324L259.956 150.848L260.63 150.759ZM256.533 155.514L250.09 152.327L249.789 152.936L256.231 156.123L256.533 155.514ZM250.277 152.587L250.116 151.36L249.441 151.448L249.602 152.676L250.277 152.587ZM259.823 149.073L257.839 151.654L258.378 152.068L260.362 149.487L259.823 149.073ZM257.839 151.654L255.854 154.235L256.393 154.649L258.378 152.068L257.839 151.654ZM256.65 156.028L258.605 153.52L258.069 153.102L256.114 155.609L256.65 156.028ZM258.605 153.52L260.561 151.013L260.025 150.594L258.069 153.102L258.605 153.52ZM257.772 151.914L258.001 153.364L258.673 153.258L258.444 151.808L257.772 151.914Z" fill="black"/>
<path d="M262.514 136.89L268.907 139.915L266.904 142.482L264.901 145.048L258.578 141.965L262.514 136.89Z" fill="#F1EFED"/>
<path d="M264.901 145.048L258.578 141.965L258.73 143.194L265.149 146.427L264.901 145.048Z" fill="black"/>
<path d="M264.901 145.048L265.149 146.427L267.123 143.933L266.904 142.482L264.901 145.048Z" fill="black"/>
<path d="M269.096 141.44L268.907 139.915L266.904 142.482L267.123 143.933L269.096 141.44Z" fill="#F1EFED"/>
<path d="M262.514 136.89L262.659 136.582C262.515 136.514 262.343 136.555 262.245 136.681L262.514 136.89ZM268.907 139.915L269.244 139.873C269.23 139.757 269.158 139.657 269.052 139.607L268.907 139.915ZM258.578 141.965L258.309 141.757C258.254 141.828 258.229 141.918 258.24 142.007L258.578 141.965ZM265.149 146.427L264.996 146.73C265.14 146.803 265.316 146.764 265.416 146.638L265.149 146.427ZM269.096 141.44L269.363 141.651C269.419 141.579 269.445 141.488 269.433 141.398L269.096 141.44ZM258.73 143.194L258.392 143.235C258.406 143.348 258.476 143.446 258.577 143.497L258.73 143.194ZM266.904 142.482L266.636 142.272L266.636 142.272L266.904 142.482ZM262.368 137.197L268.762 140.222L269.052 139.607L262.659 136.582L262.368 137.197ZM265.05 144.743L258.727 141.659L258.429 142.271L264.752 145.354L265.05 144.743ZM258.846 142.173L262.782 137.098L262.245 136.681L258.309 141.757L258.846 142.173ZM264.566 145.109L264.815 146.487L265.484 146.366L265.235 144.988L264.566 145.109ZM269.433 141.398L269.244 139.873L268.57 139.957L268.759 141.482L269.433 141.398ZM265.302 146.123L258.883 142.89L258.577 143.497L264.996 146.73L265.302 146.123ZM259.067 143.152L258.915 141.923L258.24 142.007L258.392 143.235L259.067 143.152ZM268.639 139.706L266.636 142.272L267.172 142.691L269.175 140.124L268.639 139.706ZM266.636 142.272L264.633 144.839L265.169 145.258L267.172 142.691L266.636 142.272ZM265.416 146.638L267.389 144.144L266.856 143.722L264.883 146.216L265.416 146.638ZM267.389 144.144L269.363 141.651L268.829 141.229L266.856 143.722L267.389 144.144ZM266.568 142.532L266.786 143.984L267.459 143.883L267.24 142.431L266.568 142.532Z" fill="black"/>
<mask id="path-54-inside-1_6260_6597" fill="white">
<path d="M230.119 197.028C228.505 198.127 228.014 200.074 229.023 201.376C229.023 201.376 230.544 199.986 232.224 198.582C233.905 197.178 234.868 197.396 234.868 197.396C233.86 196.094 231.734 195.929 230.119 197.028Z"/>
<path fill-rule="evenodd" clip-rule="evenodd" d="M234.868 197.396C235.877 198.698 235.386 200.644 233.772 201.743C233.409 201.99 233.021 202.173 232.625 202.294L232.224 198.582C233.905 197.178 234.868 197.396 234.868 197.396Z"/>
<path d="M232.224 198.582C230.544 199.986 229.023 201.376 229.023 201.376C229.805 202.385 231.259 202.711 232.625 202.294L232.224 198.582Z"/>
</mask>
<path d="M230.119 197.028C228.505 198.127 228.014 200.074 229.023 201.376C229.023 201.376 230.544 199.986 232.224 198.582C233.905 197.178 234.868 197.396 234.868 197.396C233.86 196.094 231.734 195.929 230.119 197.028Z" fill="black"/>
<path fill-rule="evenodd" clip-rule="evenodd" d="M234.868 197.396C235.877 198.698 235.386 200.644 233.772 201.743C233.409 201.99 233.021 202.173 232.625 202.294L232.224 198.582C233.905 197.178 234.868 197.396 234.868 197.396Z" fill="#F1EFED"/>
<path d="M232.224 198.582C230.544 199.986 229.023 201.376 229.023 201.376C229.805 202.385 231.259 202.711 232.625 202.294L232.224 198.582Z" fill="black"/>
<path d="M229.023 201.376C229.268 201.615 229.268 201.615 229.268 201.615C229.268 201.615 229.268 201.615 229.268 201.615C229.268 201.615 229.269 201.615 229.269 201.615C229.269 201.614 229.269 201.614 229.269 201.614C229.27 201.613 229.271 201.612 229.273 201.611C229.275 201.608 229.28 201.604 229.285 201.599C229.297 201.589 229.314 201.573 229.336 201.553C229.381 201.513 229.447 201.453 229.531 201.377C229.699 201.226 229.941 201.009 230.235 200.748C230.824 200.226 231.622 199.53 232.459 198.831L231.99 198.333C231.146 199.038 230.343 199.739 229.751 200.263C229.455 200.525 229.212 200.743 229.042 200.896C228.958 200.972 228.891 201.032 228.846 201.073C228.824 201.094 228.806 201.11 228.795 201.12C228.789 201.126 228.784 201.13 228.781 201.132C228.78 201.134 228.779 201.135 228.778 201.136C228.778 201.136 228.777 201.136 228.777 201.136C228.777 201.136 228.777 201.136 228.777 201.137C228.777 201.137 228.777 201.137 228.777 201.137C228.777 201.137 228.777 201.137 229.023 201.376ZM232.459 198.831C233.269 198.154 233.886 197.885 234.278 197.78C234.475 197.727 234.618 197.715 234.703 197.714C234.746 197.713 234.775 197.715 234.79 197.717C234.798 197.718 234.802 197.718 234.802 197.718C234.803 197.718 234.802 197.718 234.8 197.718C234.8 197.718 234.799 197.718 234.797 197.717C234.797 197.717 234.796 197.717 234.795 197.717C234.795 197.717 234.795 197.717 234.794 197.717C234.794 197.717 234.794 197.717 234.794 197.717C234.793 197.717 234.793 197.717 234.868 197.396C234.944 197.075 234.944 197.075 234.943 197.075C234.943 197.075 234.943 197.075 234.943 197.075C234.942 197.075 234.942 197.074 234.941 197.074C234.94 197.074 234.939 197.074 234.938 197.074C234.936 197.073 234.934 197.073 234.931 197.072C234.926 197.071 234.919 197.07 234.912 197.069C234.898 197.066 234.879 197.064 234.857 197.061C234.813 197.057 234.754 197.053 234.68 197.054C234.533 197.056 234.33 197.077 234.075 197.145C233.566 197.282 232.861 197.606 231.99 198.333L232.459 198.831ZM231.876 198.609L232.277 202.321L232.973 202.267L232.572 198.555L231.876 198.609ZM232.625 202.294L232.852 202.922L232.625 202.294ZM234.306 197.778C235.021 198.701 234.753 200.254 233.355 201.206L234.188 202.281C236.019 201.034 236.733 198.694 235.431 197.013L234.306 197.778ZM229.585 200.993C228.87 200.07 229.138 198.517 230.536 197.566L229.703 196.491C227.872 197.737 227.158 200.077 228.46 201.758L229.585 200.993ZM230.536 197.566C231.933 196.615 233.591 196.856 234.306 197.778L235.431 197.013C234.128 195.332 231.534 195.244 229.703 196.491L230.536 197.566ZM233.355 201.206C233.05 201.413 232.726 201.566 232.398 201.666L232.852 202.922C233.316 202.781 233.768 202.567 234.188 202.281L233.355 201.206ZM232.398 201.666C231.247 202.017 230.143 201.714 229.585 200.993L228.46 201.758C229.466 203.057 231.27 203.405 232.852 202.922L232.398 201.666Z" fill="black" mask="url(#path-54-inside-1_6260_6597)"/>
<path d="M233.947 197.121C234.326 197.551 234.445 198.15 234.29 198.801C234.135 199.451 233.708 200.13 233.031 200.67C232.354 201.21 231.577 201.491 230.877 201.523C230.177 201.555 229.578 201.338 229.199 200.908C228.821 200.478 228.701 199.878 228.856 199.228C229.011 198.578 229.439 197.899 230.115 197.359C230.792 196.819 231.57 196.537 232.269 196.506C232.969 196.474 233.568 196.691 233.947 197.121Z" fill="#F1EFED" stroke="black" stroke-width="0.68"/>
<mask id="path-57-inside-2_6260_6597" fill="white">
<path d="M238.598 200.561C236.983 201.66 236.492 203.606 237.501 204.908C237.501 204.908 239.022 203.519 240.703 202.114C242.384 200.71 243.347 200.928 243.347 200.928C242.338 199.626 240.212 199.462 238.598 200.561Z"/>
<path fill-rule="evenodd" clip-rule="evenodd" d="M243.347 200.928C244.356 202.23 243.865 204.176 242.25 205.275C241.888 205.522 241.499 205.705 241.103 205.826L240.703 202.114C242.384 200.71 243.347 200.928 243.347 200.928Z"/>
<path d="M240.703 202.114C239.022 203.519 237.501 204.908 237.501 204.908C238.283 205.918 239.737 206.243 241.103 205.826L240.703 202.114Z"/>
</mask>
<path d="M238.598 200.561C236.983 201.66 236.492 203.606 237.501 204.908C237.501 204.908 239.022 203.519 240.703 202.114C242.384 200.71 243.347 200.928 243.347 200.928C242.338 199.626 240.212 199.462 238.598 200.561Z" fill="black"/>
<path fill-rule="evenodd" clip-rule="evenodd" d="M243.347 200.928C244.356 202.23 243.865 204.176 242.25 205.275C241.888 205.522 241.499 205.705 241.103 205.826L240.703 202.114C242.384 200.71 243.347 200.928 243.347 200.928Z" fill="#F1EFED"/>
<path d="M240.703 202.114C239.022 203.519 237.501 204.908 237.501 204.908C238.283 205.918 239.737 206.243 241.103 205.826L240.703 202.114Z" fill="black"/>
<path d="M237.501 204.908C237.747 205.147 237.747 205.147 237.747 205.147C237.747 205.147 237.747 205.147 237.747 205.147C237.747 205.147 237.747 205.147 237.747 205.147C237.747 205.147 237.748 205.147 237.748 205.146C237.749 205.146 237.75 205.145 237.751 205.143C237.754 205.141 237.758 205.137 237.764 205.132C237.775 205.121 237.792 205.106 237.815 205.085C237.859 205.045 237.925 204.985 238.009 204.91C238.177 204.758 238.419 204.541 238.714 204.28C239.303 203.759 240.1 203.063 240.938 202.363L240.468 201.866C239.625 202.57 238.821 203.271 238.23 203.795C237.934 204.057 237.69 204.276 237.521 204.428C237.436 204.505 237.37 204.565 237.325 204.606C237.302 204.626 237.285 204.642 237.273 204.653C237.267 204.658 237.263 204.662 237.26 204.665C237.258 204.666 237.257 204.667 237.256 204.668C237.256 204.668 237.256 204.668 237.256 204.669C237.256 204.669 237.255 204.669 237.255 204.669C237.255 204.669 237.255 204.669 237.255 204.669C237.255 204.669 237.255 204.669 237.501 204.908ZM240.938 202.363C241.747 201.687 242.364 201.418 242.757 201.312C242.953 201.259 243.096 201.247 243.182 201.246C243.225 201.245 243.254 201.248 243.269 201.249C243.276 201.25 243.28 201.251 243.281 201.251C243.281 201.251 243.28 201.251 243.279 201.25C243.278 201.25 243.277 201.25 243.276 201.25C243.275 201.25 243.275 201.25 243.274 201.249C243.274 201.249 243.273 201.249 243.273 201.249C243.273 201.249 243.272 201.249 243.272 201.249C243.272 201.249 243.272 201.249 243.347 200.928C243.422 200.607 243.422 200.607 243.422 200.607C243.422 200.607 243.421 200.607 243.421 200.607C243.421 200.607 243.42 200.607 243.42 200.607C243.419 200.607 243.418 200.606 243.417 200.606C243.414 200.606 243.412 200.605 243.409 200.605C243.404 200.604 243.398 200.602 243.391 200.601C243.376 200.599 243.358 200.596 243.336 200.594C243.291 200.589 243.232 200.585 243.159 200.586C243.011 200.588 242.808 200.609 242.554 200.677C242.044 200.814 241.339 201.138 240.468 201.866L240.938 202.363ZM240.355 202.142L240.755 205.853L241.451 205.799L241.051 202.087L240.355 202.142ZM241.103 205.826L241.33 206.454L241.103 205.826ZM242.785 201.311C243.5 202.234 243.231 203.787 241.834 204.738L242.667 205.813C244.498 204.566 245.211 202.226 243.909 200.545L242.785 201.311ZM238.063 204.525C237.348 203.603 237.617 202.05 239.014 201.098L238.181 200.023C236.35 201.27 235.637 203.61 236.939 205.291L238.063 204.525ZM239.014 201.098C240.412 200.147 242.07 200.388 242.785 201.311L243.909 200.545C242.607 198.864 240.012 198.776 238.181 200.023L239.014 201.098ZM241.834 204.738C241.529 204.946 241.204 205.098 240.877 205.198L241.33 206.454C241.794 206.313 242.247 206.099 242.667 205.813L241.834 204.738ZM240.877 205.198C239.725 205.549 238.622 205.246 238.063 204.525L236.939 205.291C237.945 206.589 239.749 206.937 241.33 206.454L240.877 205.198Z" fill="black" mask="url(#path-57-inside-2_6260_6597)"/>
<path d="M242.425 200.653C242.804 201.083 242.923 201.683 242.768 202.333C242.613 202.983 242.186 203.663 241.509 204.202C240.833 204.742 240.055 205.024 239.355 205.055C238.656 205.087 238.056 204.87 237.678 204.44C237.299 204.01 237.18 203.411 237.335 202.761C237.49 202.11 237.917 201.431 238.594 200.891C239.27 200.351 240.048 200.07 240.748 200.038C241.447 200.007 242.047 200.223 242.425 200.653Z" fill="#F1EFED" stroke="black" stroke-width="0.68"/>
<mask id="path-60-inside-3_6260_6597" fill="white">
<path d="M223.881 204.499C222.267 205.598 221.776 207.545 222.784 208.847C222.784 208.847 224.305 207.457 225.986 206.053C227.667 204.649 228.63 204.867 228.63 204.867C227.622 203.565 225.495 203.4 223.881 204.499Z"/>
<path fill-rule="evenodd" clip-rule="evenodd" d="M228.63 204.867C229.639 206.169 229.148 208.115 227.534 209.214C227.171 209.461 226.782 209.644 226.387 209.765L225.986 206.053C227.667 204.649 228.63 204.867 228.63 204.867Z"/>
<path d="M225.986 206.053C224.305 207.457 222.784 208.847 222.784 208.847C223.566 209.856 225.02 210.182 226.387 209.765L225.986 206.053Z"/>
</mask>
<path d="M223.881 204.499C222.267 205.598 221.776 207.545 222.784 208.847C222.784 208.847 224.305 207.457 225.986 206.053C227.667 204.649 228.63 204.867 228.63 204.867C227.622 203.565 225.495 203.4 223.881 204.499Z" fill="black"/>
<path fill-rule="evenodd" clip-rule="evenodd" d="M228.63 204.867C229.639 206.169 229.148 208.115 227.534 209.214C227.171 209.461 226.782 209.644 226.387 209.765L225.986 206.053C227.667 204.649 228.63 204.867 228.63 204.867Z" fill="#F1EFED"/>
<path d="M225.986 206.053C224.305 207.457 222.784 208.847 222.784 208.847C223.566 209.856 225.02 210.182 226.387 209.765L225.986 206.053Z" fill="black"/>
<path d="M222.784 208.847C223.03 209.086 223.03 209.086 223.03 209.086C223.03 209.086 223.03 209.086 223.03 209.086C223.03 209.086 223.03 209.086 223.03 209.086C223.03 209.085 223.031 209.085 223.031 209.085C223.032 209.084 223.033 209.083 223.034 209.082C223.037 209.079 223.041 209.075 223.047 209.07C223.059 209.06 223.076 209.044 223.098 209.024C223.143 208.984 223.208 208.924 223.292 208.848C223.461 208.697 223.703 208.48 223.997 208.219C224.586 207.697 225.384 207.001 226.221 206.302L225.751 205.804C224.908 206.509 224.105 207.21 223.513 207.734C223.217 207.996 222.974 208.214 222.804 208.367C222.719 208.443 222.653 208.503 222.608 208.544C222.585 208.565 222.568 208.581 222.556 208.591C222.551 208.597 222.546 208.601 222.543 208.603C222.542 208.605 222.54 208.606 222.54 208.606C222.539 208.607 222.539 208.607 222.539 208.607C222.539 208.607 222.539 208.607 222.539 208.607C222.539 208.607 222.539 208.608 222.539 208.608C222.538 208.608 222.538 208.608 222.784 208.847ZM226.221 206.302C227.031 205.625 227.648 205.356 228.04 205.251C228.237 205.198 228.379 205.186 228.465 205.185C228.508 205.184 228.537 205.186 228.552 205.188C228.56 205.189 228.564 205.189 228.564 205.189C228.564 205.189 228.564 205.189 228.562 205.189C228.561 205.189 228.56 205.189 228.559 205.188C228.559 205.188 228.558 205.188 228.557 205.188C228.557 205.188 228.556 205.188 228.556 205.188C228.556 205.188 228.556 205.188 228.555 205.188C228.555 205.188 228.555 205.187 228.63 204.867C228.706 204.546 228.705 204.546 228.705 204.546C228.705 204.546 228.704 204.546 228.704 204.546C228.704 204.546 228.703 204.545 228.703 204.545C228.702 204.545 228.701 204.545 228.7 204.545C228.698 204.544 228.695 204.544 228.693 204.543C228.687 204.542 228.681 204.541 228.674 204.54C228.659 204.537 228.641 204.535 228.619 204.532C228.575 204.528 228.515 204.524 228.442 204.525C228.294 204.527 228.091 204.548 227.837 204.616C227.328 204.753 226.622 205.077 225.751 205.804L226.221 206.302ZM225.638 206.08L226.039 209.792L226.735 209.738L226.334 206.026L225.638 206.08ZM226.387 209.765L226.613 210.393L226.387 209.765ZM228.068 205.249C228.783 206.172 228.515 207.725 227.117 208.677L227.95 209.752C229.781 208.505 230.495 206.165 229.192 204.484L228.068 205.249ZM223.346 208.464C222.631 207.541 222.9 205.988 224.297 205.037L223.465 203.962C221.633 205.208 220.92 207.548 222.222 209.229L223.346 208.464ZM224.297 205.037C225.695 204.085 227.353 204.327 228.068 205.249L229.192 204.484C227.89 202.803 225.296 202.715 223.465 203.962L224.297 205.037ZM227.117 208.677C226.812 208.884 226.487 209.037 226.16 209.137L226.613 210.393C227.077 210.251 227.53 210.038 227.95 209.752L227.117 208.677ZM226.16 209.137C225.009 209.488 223.905 209.185 223.346 208.464L222.222 209.229C223.228 210.528 225.032 210.876 226.613 210.393L226.16 209.137Z" fill="black" mask="url(#path-60-inside-3_6260_6597)"/>
<path d="M227.709 204.592C228.087 205.022 228.207 205.621 228.052 206.272C227.897 206.922 227.469 207.601 226.793 208.141C226.116 208.681 225.338 208.962 224.639 208.994C223.939 209.025 223.339 208.809 222.961 208.379C222.582 207.949 222.463 207.349 222.618 206.699C222.773 206.049 223.2 205.37 223.877 204.83C224.554 204.29 225.331 204.008 226.031 203.977C226.731 203.945 227.33 204.162 227.709 204.592Z" fill="#F1EFED" stroke="black" stroke-width="0.68"/>
<mask id="path-63-inside-4_6260_6597" fill="white">
<path d="M232.359 208.032C230.745 209.131 230.254 211.077 231.263 212.379C231.263 212.379 232.784 210.989 234.465 209.585C236.145 208.181 237.109 208.399 237.109 208.399C236.1 207.097 233.974 206.932 232.359 208.032Z"/>
<path fill-rule="evenodd" clip-rule="evenodd" d="M237.109 208.399C238.117 209.701 237.626 211.647 236.012 212.746C235.649 212.993 235.261 213.176 234.865 213.297L234.465 209.585C236.145 208.181 237.109 208.399 237.109 208.399Z"/>
<path d="M234.465 209.585C232.784 210.989 231.263 212.379 231.263 212.379C232.045 213.388 233.499 213.714 234.865 213.297L234.465 209.585Z"/>
</mask>
<path d="M232.359 208.032C230.745 209.131 230.254 211.077 231.263 212.379C231.263 212.379 232.784 210.989 234.465 209.585C236.145 208.181 237.109 208.399 237.109 208.399C236.1 207.097 233.974 206.932 232.359 208.032Z" fill="black"/>
<path fill-rule="evenodd" clip-rule="evenodd" d="M237.109 208.399C238.117 209.701 237.626 211.647 236.012 212.746C235.649 212.993 235.261 213.176 234.865 213.297L234.465 209.585C236.145 208.181 237.109 208.399 237.109 208.399Z" fill="#F1EFED"/>
<path d="M234.465 209.585C232.784 210.989 231.263 212.379 231.263 212.379C232.045 213.388 233.499 213.714 234.865 213.297L234.465 209.585Z" fill="black"/>
<path d="M231.263 212.379C231.509 212.618 231.509 212.618 231.509 212.618C231.509 212.618 231.509 212.618 231.509 212.618C231.509 212.618 231.509 212.618 231.509 212.618C231.509 212.618 231.509 212.617 231.51 212.617C231.51 212.616 231.511 212.615 231.513 212.614C231.516 212.611 231.52 212.608 231.526 212.602C231.537 212.592 231.554 212.576 231.576 212.556C231.621 212.516 231.687 212.456 231.771 212.38C231.939 212.229 232.181 212.012 232.475 211.751C233.064 211.23 233.862 210.533 234.699 209.834L234.23 209.336C233.386 210.041 232.583 210.742 231.991 211.266C231.695 211.528 231.452 211.746 231.283 211.899C231.198 211.976 231.132 212.036 231.086 212.077C231.064 212.097 231.047 212.113 231.035 212.123C231.029 212.129 231.025 212.133 231.022 212.136C231.02 212.137 231.019 212.138 231.018 212.139C231.018 212.139 231.018 212.139 231.017 212.139C231.017 212.14 231.017 212.14 231.017 212.14C231.017 212.14 231.017 212.14 231.017 212.14C231.017 212.14 231.017 212.14 231.263 212.379ZM234.699 209.834C235.509 209.158 236.126 208.888 236.519 208.783C236.715 208.73 236.858 208.718 236.943 208.717C236.986 208.716 237.016 208.718 237.031 208.72C237.038 208.721 237.042 208.722 237.043 208.722C237.043 208.722 237.042 208.722 237.041 208.721C237.04 208.721 237.039 208.721 237.038 208.721C237.037 208.721 237.036 208.72 237.036 208.72C237.035 208.72 237.035 208.72 237.035 208.72C237.034 208.72 237.034 208.72 237.034 208.72C237.034 208.72 237.033 208.72 237.109 208.399C237.184 208.078 237.184 208.078 237.183 208.078C237.183 208.078 237.183 208.078 237.183 208.078C237.182 208.078 237.182 208.078 237.181 208.078C237.18 208.077 237.179 208.077 237.178 208.077C237.176 208.076 237.174 208.076 237.171 208.075C237.166 208.074 237.16 208.073 237.152 208.072C237.138 208.07 237.12 208.067 237.097 208.065C237.053 208.06 236.994 208.056 236.92 208.057C236.773 208.059 236.57 208.08 236.315 208.148C235.806 208.285 235.101 208.609 234.23 209.336L234.699 209.834ZM234.117 209.613L234.517 213.324L235.213 213.27L234.813 209.558L234.117 209.613ZM234.865 213.297L235.092 213.925L234.865 213.297ZM236.547 208.782C237.262 209.704 236.993 211.257 235.596 212.209L236.428 213.284C238.26 212.037 238.973 209.697 237.671 208.016L236.547 208.782ZM231.825 211.996C231.11 211.073 231.378 209.52 232.776 208.569L231.943 207.494C230.112 208.741 229.398 211.081 230.701 212.762L231.825 211.996ZM232.776 208.569C234.173 207.618 235.832 207.859 236.547 208.782L237.671 208.016C236.369 206.335 233.774 206.247 231.943 207.494L232.776 208.569ZM235.596 212.209C235.29 212.416 234.966 212.569 234.638 212.669L235.092 213.925C235.556 213.784 236.008 213.57 236.428 213.284L235.596 212.209ZM234.638 212.669C233.487 213.02 232.383 212.717 231.825 211.996L230.701 212.762C231.706 214.06 233.511 214.408 235.092 213.925L234.638 212.669Z" fill="black" mask="url(#path-63-inside-4_6260_6597)"/>
<path d="M236.187 208.124C236.566 208.554 236.685 209.154 236.53 209.804C236.375 210.454 235.948 211.133 235.271 211.673C234.594 212.213 233.817 212.495 233.117 212.526C232.418 212.558 231.818 212.341 231.439 211.911C231.061 211.481 230.942 210.882 231.097 210.231C231.252 209.581 231.679 208.902 232.356 208.362C233.032 207.822 233.81 207.541 234.51 207.509C235.209 207.477 235.809 207.694 236.187 208.124Z" fill="#F1EFED" stroke="black" stroke-width="0.68"/>
<mask id="path-66-inside-5_6260_6597" fill="white">
<path d="M221.374 192.325C219.76 193.424 219.269 195.37 220.277 196.672C220.277 196.672 221.798 195.283 223.479 193.879C225.16 192.475 226.123 192.692 226.123 192.692C225.115 191.39 222.988 191.226 221.374 192.325Z"/>
<path fill-rule="evenodd" clip-rule="evenodd" d="M226.123 192.692C227.132 193.994 226.641 195.941 225.027 197.04C224.664 197.287 224.276 197.47 223.88 197.59L223.479 193.879C225.16 192.475 226.123 192.692 226.123 192.692Z"/>
<path d="M223.479 193.879C221.798 195.283 220.277 196.672 220.277 196.672C221.059 197.682 222.513 198.007 223.88 197.59L223.479 193.879Z"/>
</mask>
<path d="M221.374 192.325C219.76 193.424 219.269 195.37 220.277 196.672C220.277 196.672 221.798 195.283 223.479 193.879C225.16 192.475 226.123 192.692 226.123 192.692C225.115 191.39 222.988 191.226 221.374 192.325Z" fill="black"/>
<path fill-rule="evenodd" clip-rule="evenodd" d="M226.123 192.692C227.132 193.994 226.641 195.941 225.027 197.04C224.664 197.287 224.276 197.47 223.88 197.59L223.479 193.879C225.16 192.475 226.123 192.692 226.123 192.692Z" fill="#F1EFED"/>
<path d="M223.479 193.879C221.798 195.283 220.277 196.672 220.277 196.672C221.059 197.682 222.513 198.007 223.88 197.59L223.479 193.879Z" fill="black"/>
<path d="M220.277 196.672C220.523 196.911 220.523 196.911 220.523 196.911C220.523 196.911 220.523 196.911 220.523 196.911C220.523 196.911 220.523 196.911 220.523 196.911C220.524 196.911 220.524 196.911 220.524 196.91C220.525 196.91 220.526 196.909 220.527 196.907C220.53 196.905 220.535 196.901 220.54 196.896C220.552 196.885 220.569 196.87 220.591 196.85C220.636 196.809 220.701 196.75 220.786 196.674C220.954 196.522 221.196 196.305 221.49 196.044C222.079 195.523 222.877 194.827 223.714 194.127L223.245 193.63C222.401 194.335 221.598 195.035 221.006 195.559C220.71 195.822 220.467 196.04 220.297 196.193C220.212 196.269 220.146 196.329 220.101 196.37C220.078 196.39 220.061 196.406 220.05 196.417C220.044 196.422 220.039 196.426 220.036 196.429C220.035 196.43 220.034 196.431 220.033 196.432C220.032 196.432 220.032 196.433 220.032 196.433C220.032 196.433 220.032 196.433 220.032 196.433C220.032 196.433 220.032 196.433 220.032 196.433C220.032 196.433 220.032 196.433 220.277 196.672ZM223.714 194.127C224.524 193.451 225.141 193.182 225.533 193.076C225.73 193.024 225.872 193.011 225.958 193.01C226.001 193.01 226.03 193.012 226.045 193.013C226.053 193.014 226.057 193.015 226.057 193.015C226.058 193.015 226.057 193.015 226.055 193.015C226.055 193.014 226.054 193.014 226.052 193.014C226.052 193.014 226.051 193.014 226.05 193.014C226.05 193.013 226.05 193.013 226.049 193.013C226.049 193.013 226.049 193.013 226.049 193.013C226.048 193.013 226.048 193.013 226.123 192.692C226.199 192.371 226.198 192.371 226.198 192.371C226.198 192.371 226.198 192.371 226.197 192.371C226.197 192.371 226.197 192.371 226.196 192.371C226.195 192.371 226.194 192.37 226.193 192.37C226.191 192.37 226.188 192.369 226.186 192.369C226.18 192.368 226.174 192.367 226.167 192.365C226.153 192.363 226.134 192.36 226.112 192.358C226.068 192.353 226.009 192.349 225.935 192.35C225.788 192.352 225.584 192.373 225.33 192.441C224.821 192.578 224.116 192.902 223.245 193.63L223.714 194.127ZM223.131 193.906L223.532 197.618L224.228 197.563L223.827 193.851L223.131 193.906ZM223.88 197.59L224.106 198.219L223.88 197.59ZM225.561 193.075C226.276 193.998 226.008 195.551 224.61 196.502L225.443 197.577C227.274 196.331 227.988 193.991 226.685 192.31L225.561 193.075ZM220.84 196.29C220.125 195.367 220.393 193.814 221.791 192.862L220.958 191.787C219.127 193.034 218.413 195.374 219.715 197.055L220.84 196.29ZM221.791 192.862C223.188 191.911 224.846 192.152 225.561 193.075L226.685 192.31C225.383 190.629 222.789 190.541 220.958 191.787L221.791 192.862ZM224.61 196.502C224.305 196.71 223.981 196.862 223.653 196.962L224.106 198.219C224.571 198.077 225.023 197.863 225.443 197.577L224.61 196.502ZM223.653 196.962C222.502 197.314 221.398 197.01 220.84 196.29L219.715 197.055C220.721 198.353 222.525 198.701 224.106 198.219L223.653 196.962Z" fill="black" mask="url(#path-66-inside-5_6260_6597)"/>
<path d="M225.202 192.417C225.58 192.847 225.7 193.447 225.545 194.097C225.39 194.747 224.962 195.427 224.286 195.967C223.609 196.506 222.832 196.788 222.132 196.82C221.432 196.851 220.833 196.634 220.454 196.204C220.076 195.775 219.956 195.175 220.111 194.525C220.266 193.874 220.694 193.195 221.37 192.655C222.047 192.116 222.824 191.834 223.524 191.802C224.224 191.771 224.823 191.987 225.202 192.417Z" fill="#F1EFED" stroke="black" stroke-width="0.68"/>
<mask id="path-69-inside-6_6260_6597" fill="white">
<path d="M215.136 199.796C213.522 200.895 213.031 202.841 214.039 204.143C214.039 204.143 215.56 202.754 217.241 201.349C218.922 199.945 219.885 200.163 219.885 200.163C218.876 198.861 216.75 198.697 215.136 199.796Z"/>
<path fill-rule="evenodd" clip-rule="evenodd" d="M219.885 200.163C220.894 201.465 220.403 203.411 218.788 204.51C218.426 204.757 218.037 204.94 217.641 205.061L217.241 201.349C218.922 199.945 219.885 200.163 219.885 200.163Z"/>
<path d="M217.241 201.349C215.56 202.754 214.039 204.143 214.039 204.143C214.821 205.153 216.275 205.478 217.641 205.061L217.241 201.349Z"/>
</mask>
<path d="M215.136 199.796C213.522 200.895 213.031 202.841 214.039 204.143C214.039 204.143 215.56 202.754 217.241 201.349C218.922 199.945 219.885 200.163 219.885 200.163C218.876 198.861 216.75 198.697 215.136 199.796Z" fill="black"/>
<path fill-rule="evenodd" clip-rule="evenodd" d="M219.885 200.163C220.894 201.465 220.403 203.411 218.788 204.51C218.426 204.757 218.037 204.94 217.641 205.061L217.241 201.349C218.922 199.945 219.885 200.163 219.885 200.163Z" fill="#F1EFED"/>
<path d="M217.241 201.349C215.56 202.754 214.039 204.143 214.039 204.143C214.821 205.153 216.275 205.478 217.641 205.061L217.241 201.349Z" fill="black"/>
<path d="M214.039 204.143C214.285 204.382 214.285 204.382 214.285 204.382C214.285 204.382 214.285 204.382 214.285 204.382C214.285 204.382 214.285 204.382 214.285 204.382C214.285 204.382 214.286 204.382 214.286 204.381C214.287 204.381 214.288 204.38 214.289 204.378C214.292 204.376 214.296 204.372 214.302 204.367C214.314 204.356 214.331 204.341 214.353 204.32C214.397 204.28 214.463 204.22 214.547 204.145C214.715 203.993 214.957 203.776 215.252 203.515C215.841 202.994 216.639 202.298 217.476 201.598L217.006 201.101C216.163 201.805 215.36 202.506 214.768 203.03C214.472 203.292 214.228 203.511 214.059 203.663C213.974 203.74 213.908 203.8 213.863 203.841C213.84 203.861 213.823 203.877 213.811 203.888C213.805 203.893 213.801 203.897 213.798 203.9C213.796 203.901 213.795 203.902 213.795 203.903C213.794 203.903 213.794 203.903 213.794 203.904C213.794 203.904 213.794 203.904 213.793 203.904C213.793 203.904 213.793 203.904 213.793 203.904C213.793 203.904 213.793 203.904 214.039 204.143ZM217.476 201.598C218.285 200.922 218.902 200.653 219.295 200.547C219.491 200.494 219.634 200.482 219.72 200.481C219.763 200.48 219.792 200.483 219.807 200.484C219.815 200.485 219.819 200.486 219.819 200.486C219.819 200.486 219.819 200.486 219.817 200.485C219.816 200.485 219.815 200.485 219.814 200.485C219.813 200.485 219.813 200.485 219.812 200.484C219.812 200.484 219.811 200.484 219.811 200.484C219.811 200.484 219.81 200.484 219.81 200.484C219.81 200.484 219.81 200.484 219.885 200.163C219.96 199.842 219.96 199.842 219.96 199.842C219.96 199.842 219.959 199.842 219.959 199.842C219.959 199.842 219.958 199.842 219.958 199.842C219.957 199.842 219.956 199.841 219.955 199.841C219.953 199.841 219.95 199.84 219.948 199.84C219.942 199.839 219.936 199.837 219.929 199.836C219.914 199.834 219.896 199.831 219.874 199.829C219.83 199.824 219.77 199.82 219.697 199.821C219.549 199.823 219.346 199.844 219.092 199.912C218.582 200.049 217.877 200.373 217.006 201.101L217.476 201.598ZM216.893 201.377L217.293 205.088L217.989 205.034L217.589 201.322L216.893 201.377ZM217.641 205.061L217.868 205.689L217.641 205.061ZM219.323 200.546C220.038 201.469 219.769 203.022 218.372 203.973L219.205 205.048C221.036 203.801 221.749 201.461 220.447 199.78L219.323 200.546ZM214.601 203.76C213.886 202.837 214.155 201.285 215.552 200.333L214.719 199.258C212.888 200.505 212.175 202.845 213.477 204.526L214.601 203.76ZM215.552 200.333C216.95 199.382 218.608 199.623 219.323 200.546L220.447 199.78C219.145 198.099 216.551 198.011 214.719 199.258L215.552 200.333ZM218.372 203.973C218.067 204.181 217.742 204.333 217.415 204.433L217.868 205.689C218.332 205.548 218.785 205.334 219.205 205.048L218.372 203.973ZM217.415 204.433C216.264 204.784 215.16 204.481 214.601 203.76L213.477 204.526C214.483 205.824 216.287 206.172 217.868 205.689L217.415 204.433Z" fill="black" mask="url(#path-69-inside-6_6260_6597)"/>
<path d="M218.964 199.888C219.342 200.318 219.461 200.918 219.306 201.568C219.152 202.218 218.724 202.898 218.047 203.437C217.371 203.977 216.593 204.259 215.893 204.29C215.194 204.322 214.594 204.105 214.216 203.675C213.837 203.245 213.718 202.646 213.873 201.996C214.028 201.345 214.455 200.666 215.132 200.126C215.809 199.586 216.586 199.305 217.286 199.273C217.986 199.242 218.585 199.458 218.964 199.888Z" fill="#F1EFED" stroke="black" stroke-width="0.68"/>
<mask id="path-72-inside-7_6260_6597" fill="white">
<path d="M212.599 188.428C210.984 189.527 210.493 191.474 211.502 192.776C211.502 192.776 213.023 191.386 214.704 189.982C216.385 188.578 217.348 188.796 217.348 188.796C216.339 187.494 214.213 187.329 212.599 188.428Z"/>
<path fill-rule="evenodd" clip-rule="evenodd" d="M217.348 188.796C218.357 190.098 217.866 192.044 216.251 193.143C215.889 193.39 215.5 193.573 215.104 193.694L214.704 189.982C216.385 188.578 217.348 188.796 217.348 188.796Z"/>
<path d="M214.704 189.982C213.023 191.386 211.502 192.776 211.502 192.776C212.284 193.785 213.738 194.111 215.104 193.694L214.704 189.982Z"/>
</mask>
<path d="M212.599 188.428C210.984 189.527 210.493 191.474 211.502 192.776C211.502 192.776 213.023 191.386 214.704 189.982C216.385 188.578 217.348 188.796 217.348 188.796C216.339 187.494 214.213 187.329 212.599 188.428Z" fill="black"/>
<path fill-rule="evenodd" clip-rule="evenodd" d="M217.348 188.796C218.357 190.098 217.866 192.044 216.251 193.143C215.889 193.39 215.5 193.573 215.104 193.694L214.704 189.982C216.385 188.578 217.348 188.796 217.348 188.796Z" fill="#F1EFED"/>
<path d="M214.704 189.982C213.023 191.386 211.502 192.776 211.502 192.776C212.284 193.785 213.738 194.111 215.104 193.694L214.704 189.982Z" fill="black"/>
<path d="M211.502 192.776C211.748 193.015 211.748 193.015 211.748 193.015C211.748 193.015 211.748 193.015 211.748 193.015C211.748 193.015 211.748 193.015 211.748 193.014C211.748 193.014 211.749 193.014 211.749 193.014C211.75 193.013 211.751 193.012 211.752 193.011C211.755 193.008 211.759 193.004 211.765 192.999C211.776 192.989 211.793 192.973 211.816 192.953C211.86 192.912 211.926 192.853 212.01 192.777C212.178 192.625 212.42 192.409 212.715 192.148C213.304 191.626 214.101 190.93 214.939 190.231L214.469 189.733C213.625 190.438 212.822 191.139 212.231 191.663C211.935 191.925 211.691 192.143 211.522 192.296C211.437 192.372 211.371 192.432 211.326 192.473C211.303 192.494 211.286 192.51 211.274 192.52C211.268 192.526 211.264 192.53 211.261 192.532C211.259 192.534 211.258 192.535 211.257 192.535C211.257 192.536 211.257 192.536 211.257 192.536C211.256 192.536 211.256 192.536 211.256 192.536C211.256 192.536 211.256 192.536 211.256 192.536C211.256 192.536 211.256 192.537 211.502 192.776ZM214.939 190.231C215.748 189.554 216.365 189.285 216.758 189.18C216.954 189.127 217.097 189.115 217.183 189.113C217.226 189.113 217.255 189.115 217.27 189.117C217.277 189.118 217.281 189.118 217.282 189.118C217.282 189.118 217.281 189.118 217.28 189.118C217.279 189.118 217.278 189.118 217.277 189.117C217.276 189.117 217.276 189.117 217.275 189.117C217.275 189.117 217.274 189.117 217.274 189.117C217.274 189.117 217.273 189.117 217.273 189.117C217.273 189.116 217.273 189.116 217.348 188.796C217.423 188.475 217.423 188.475 217.423 188.475C217.423 188.475 217.422 188.475 217.422 188.475C217.422 188.474 217.421 188.474 217.421 188.474C217.42 188.474 217.419 188.474 217.418 188.474C217.415 188.473 217.413 188.473 217.41 188.472C217.405 188.471 217.399 188.47 217.392 188.469C217.377 188.466 217.359 188.464 217.337 188.461C217.292 188.456 217.233 188.453 217.16 188.454C217.012 188.456 216.809 188.477 216.555 188.545C216.045 188.682 215.34 189.006 214.469 189.733L214.939 190.231ZM214.356 190.009L214.756 193.721L215.452 193.667L215.052 189.955L214.356 190.009ZM215.104 193.694L215.331 194.322L215.104 193.694ZM216.786 189.178C217.501 190.101 217.232 191.654 215.835 192.605L216.668 193.681C218.499 192.434 219.212 190.094 217.91 188.413L216.786 189.178ZM212.064 192.393C211.349 191.47 211.618 189.917 213.015 188.966L212.182 187.891C210.351 189.137 209.638 191.477 210.94 193.158L212.064 192.393ZM213.015 188.966C214.413 188.014 216.071 188.255 216.786 189.178L217.91 188.413C216.608 186.732 214.013 186.644 212.182 187.891L213.015 188.966ZM215.835 192.605C215.53 192.813 215.205 192.966 214.878 193.066L215.331 194.322C215.795 194.18 216.248 193.967 216.668 193.681L215.835 192.605ZM214.878 193.066C213.726 193.417 212.623 193.114 212.064 192.393L210.94 193.158C211.946 194.456 213.75 194.805 215.331 194.322L214.878 193.066Z" fill="black" mask="url(#path-72-inside-7_6260_6597)"/>
<path d="M216.426 188.521C216.805 188.951 216.924 189.55 216.769 190.2C216.614 190.851 216.187 191.53 215.51 192.07C214.834 192.61 214.056 192.891 213.356 192.923C212.657 192.954 212.057 192.738 211.679 192.308C211.3 191.878 211.181 191.278 211.336 190.628C211.491 189.978 211.918 189.298 212.595 188.759C213.271 188.219 214.049 187.937 214.749 187.906C215.448 187.874 216.048 188.091 216.426 188.521Z" fill="#F1EFED" stroke="black" stroke-width="0.68"/>
<mask id="path-75-inside-8_6260_6597" fill="white">
<path d="M206.36 195.899C204.746 196.998 204.255 198.945 205.264 200.247C205.264 200.247 206.785 198.857 208.466 197.453C210.146 196.049 211.11 196.267 211.11 196.267C210.101 194.965 207.975 194.8 206.36 195.899Z"/>
<path fill-rule="evenodd" clip-rule="evenodd" d="M211.11 196.267C212.118 197.569 211.627 199.515 210.013 200.614C209.65 200.861 209.262 201.044 208.866 201.165L208.466 197.453C210.146 196.049 211.11 196.267 211.11 196.267Z"/>
<path d="M208.466 197.453C206.785 198.857 205.264 200.247 205.264 200.247C206.046 201.256 207.5 201.582 208.866 201.165L208.466 197.453Z"/>
</mask>
<path d="M206.36 195.899C204.746 196.998 204.255 198.945 205.264 200.247C205.264 200.247 206.785 198.857 208.466 197.453C210.146 196.049 211.11 196.267 211.11 196.267C210.101 194.965 207.975 194.8 206.36 195.899Z" fill="black"/>
<path fill-rule="evenodd" clip-rule="evenodd" d="M211.11 196.267C212.118 197.569 211.627 199.515 210.013 200.614C209.65 200.861 209.262 201.044 208.866 201.165L208.466 197.453C210.146 196.049 211.11 196.267 211.11 196.267Z" fill="#F1EFED"/>
<path d="M208.466 197.453C206.785 198.857 205.264 200.247 205.264 200.247C206.046 201.256 207.5 201.582 208.866 201.165L208.466 197.453Z" fill="black"/>
<path d="M205.264 200.247C205.51 200.486 205.51 200.486 205.51 200.486C205.51 200.486 205.51 200.486 205.51 200.486C205.51 200.486 205.51 200.486 205.51 200.485C205.51 200.485 205.51 200.485 205.511 200.485C205.511 200.484 205.512 200.483 205.514 200.482C205.517 200.479 205.521 200.475 205.527 200.47C205.538 200.46 205.555 200.444 205.577 200.424C205.622 200.383 205.688 200.324 205.772 200.248C205.94 200.096 206.182 199.88 206.476 199.619C207.065 199.097 207.863 198.401 208.7 197.702L208.231 197.204C207.387 197.909 206.584 198.61 205.992 199.134C205.696 199.396 205.453 199.614 205.284 199.767C205.199 199.843 205.133 199.903 205.087 199.944C205.065 199.965 205.048 199.981 205.036 199.991C205.03 199.996 205.026 200.001 205.023 200.003C205.021 200.005 205.02 200.006 205.019 200.006C205.019 200.007 205.019 200.007 205.018 200.007C205.018 200.007 205.018 200.007 205.018 200.007C205.018 200.007 205.018 200.007 205.018 200.007C205.018 200.007 205.018 200.007 205.264 200.247ZM208.7 197.702C209.51 197.025 210.127 196.756 210.52 196.651C210.716 196.598 210.859 196.586 210.944 196.584C210.987 196.584 211.017 196.586 211.032 196.588C211.039 196.589 211.043 196.589 211.044 196.589C211.044 196.589 211.043 196.589 211.042 196.589C211.041 196.589 211.04 196.589 211.039 196.588C211.038 196.588 211.037 196.588 211.037 196.588C211.036 196.588 211.036 196.588 211.036 196.588C211.035 196.588 211.035 196.588 211.035 196.588C211.035 196.587 211.034 196.587 211.11 196.267C211.185 195.946 211.185 195.946 211.184 195.946C211.184 195.946 211.184 195.946 211.184 195.946C211.183 195.945 211.183 195.945 211.182 195.945C211.181 195.945 211.18 195.945 211.179 195.945C211.177 195.944 211.175 195.944 211.172 195.943C211.167 195.942 211.161 195.941 211.153 195.94C211.139 195.937 211.121 195.935 211.098 195.932C211.054 195.927 210.995 195.924 210.921 195.925C210.774 195.927 210.571 195.947 210.316 196.016C209.807 196.153 209.102 196.477 208.231 197.204L208.7 197.702ZM208.118 197.48L208.518 201.192L209.214 201.138L208.814 197.426L208.118 197.48ZM208.866 201.165L209.093 201.793L208.866 201.165ZM210.548 196.649C211.263 197.572 210.994 199.125 209.597 200.076L210.429 201.152C212.261 199.905 212.974 197.565 211.672 195.884L210.548 196.649ZM205.826 199.864C205.111 198.941 205.379 197.388 206.777 196.437L205.944 195.362C204.113 196.608 203.399 198.948 204.702 200.629L205.826 199.864ZM206.777 196.437C208.174 195.485 209.833 195.726 210.548 196.649L211.672 195.884C210.369 194.203 207.775 194.115 205.944 195.362L206.777 196.437ZM209.597 200.076C209.291 200.284 208.967 200.437 208.639 200.537L209.093 201.793C209.557 201.651 210.009 201.438 210.429 201.152L209.597 200.076ZM208.639 200.537C207.488 200.888 206.384 200.585 205.826 199.864L204.702 200.629C205.707 201.927 207.511 202.276 209.093 201.793L208.639 200.537Z" fill="black" mask="url(#path-75-inside-8_6260_6597)"/>
<path d="M210.188 195.992C210.567 196.422 210.686 197.021 210.531 197.671C210.376 198.322 209.949 199.001 209.272 199.541C208.595 200.081 207.818 200.362 207.118 200.394C206.418 200.425 205.819 200.209 205.44 199.779C205.062 199.349 204.943 198.749 205.098 198.099C205.253 197.449 205.68 196.769 206.357 196.23C207.033 195.69 207.811 195.408 208.511 195.377C209.21 195.345 209.81 195.562 210.188 195.992Z" fill="#F1EFED" stroke="black" stroke-width="0.68"/>
<defs>
<linearGradient id="paint0_linear_6260_6597" x1="246.693" y1="164.679" x2="292.538" y2="203.372" gradientUnits="userSpaceOnUse">
<stop stop-color="#D6FFBB"/>
<stop offset="1" stop-color="#5869DD"/>
</linearGradient>
<linearGradient id="paint1_linear_6260_6597" x1="306.118" y1="92.1616" x2="424.249" y2="90.5404" gradientUnits="userSpaceOnUse">
<stop stop-color="#D6FFBB"/>
<stop offset="1" stop-color="#5869DD"/>
</linearGradient>
<linearGradient id="paint2_linear_6260_6597" x1="159.651" y1="220.17" x2="180.203" y2="276.221" gradientUnits="userSpaceOnUse">
<stop stop-color="#D6FFBB"/>
<stop offset="1" stop-color="#5869DD"/>
</linearGradient>
<linearGradient id="paint3_linear_6260_6597" x1="128.655" y1="237.708" x2="179.781" y2="288.223" gradientUnits="userSpaceOnUse">
<stop stop-color="#D6FFBB"/>
<stop offset="1" stop-color="#5869DD"/>
</linearGradient>
<linearGradient id="paint4_linear_6260_6597" x1="253.892" y1="130.724" x2="306.737" y2="180.317" gradientUnits="userSpaceOnUse">
<stop stop-color="#D6FFBB"/>
<stop offset="1" stop-color="#5869DD"/>
</linearGradient>
</defs>
</svg>
