<svg width="337" height="47" viewBox="0 0 337 47" fill="none" xmlns="http://www.w3.org/2000/svg">
<path d="M34.5 1H1V16H34.5M34.5 1V16M34.5 1H68M34.5 16H68M68 16V1M68 16H101.5M68 1H101.5M101.5 1V16M101.5 1H135M101.5 16H135M135 16V1M135 16H168.5M135 1H168.5M168.5 1H202M168.5 1V16M202 1H235.5M202 1V16M235.5 1H269M235.5 1V16M269 1H302.5M269 1V16M302.5 1H336V16H302.5M302.5 1V16M302.5 16H269M269 16H235.5M235.5 16H202M202 16H168.5M50.5 31H17V16H50.5M50.5 31V16M50.5 31H84M50.5 16H84M84 16V31M84 16H117.5M84 31H117.5M117.5 31V16M117.5 31H151M117.5 16H151M151 16H184.5M151 16V31M184.5 16H218M184.5 16V31M218 16H251.5M218 16V31M251.5 16H285M251.5 16V31M285 16H318.5V31H285M285 16V31M285 31H251.5M251.5 31H218M218 31H184.5M184.5 31H151M34.5 31H1V46H34.5M34.5 31V46M34.5 31H68M34.5 46H68M68 46V31M68 46H101.5M68 31H101.5M101.5 31V46M101.5 31H135M101.5 46H135M135 46V31M135 46H168.5M135 31H168.5M168.5 31H202M168.5 31V46M202 31H235.5M202 31V46M235.5 31H269M235.5 31V46M269 31H302.5M269 31V46M302.5 31H336V46H302.5M302.5 31V46M302.5 46H269M269 46H235.5M235.5 46H202M202 46H168.5" stroke="#8F8E93" stroke-width="2"/>
<rect x="62.625" y="1" width="45" height="45" fill="url(#paint0_linear_1687_4986)" stroke="black" stroke-width="2"/>
<rect x="66.625" y="5" width="4" height="4" fill="black"/>
<rect x="66.625" y="38.375" width="4" height="4" fill="black"/>
<rect x="99.75" y="5" width="4" height="4" fill="black"/>
<rect x="99.75" y="38.375" width="4" height="4" fill="black"/>
<path d="M88.6406 30.8125V27.75H92.0156V25.9375H94.8906V24.125H96.7656V15.9375H94.8906V13.625H92.9531V10.75H90.3281H87.0781V9H83.1719V10.75H79.9219H77.2969V13.625H75.3594V15.9375H73.4844V24.125H75.3594V25.9375H78.2344V27.75H81.6094V30.8125M88.6406 30.8125V33.25M88.6406 30.8125H85.1406M85.1406 39.5625H83.1719V37.3125H81.6406V30.8125H85.1406M85.1406 39.5625V41.1875M85.1406 39.5625H87.0781V37.3125H88.6406V35.2812V33.25M85.5781 33.25H88.6406M85.1406 30.8125V21.8125M85.1406 15.9375V21.8125M85.1406 21.8125H88.6406V20.0625H90.7031M85.1406 21.8125H81.0781V15.9375" stroke="black" stroke-width="2"/>
<defs>
<linearGradient id="paint0_linear_1687_4986" x1="115.33" y1="37.1765" x2="69.028" y2="60.4805" gradientUnits="userSpaceOnUse">
<stop stop-color="#D6FFBB"/>
<stop offset="1" stop-color="#5869DD"/>
</linearGradient>
</defs>
</svg>
