<svg width="338" height="47" viewBox="0 0 338 47" fill="none" xmlns="http://www.w3.org/2000/svg">
<path d="M35 1H1.5V16H35M35 1V16M35 1H68.5M35 16H68.5M68.5 16V1M68.5 16H102M68.5 1H102M102 1V16M102 1H135.5M102 16H135.5M135.5 16V1M135.5 16H169M135.5 1H169M169 1H202.5M169 1V16M202.5 1H236M202.5 1V16M236 1H269.5M236 1V16M269.5 1H303M269.5 1V16M303 1H336.5V16H303M303 1V16M303 16H269.5M269.5 16H236M236 16H202.5M202.5 16H169M51 31H17.5V16H51M51 31V16M51 31H84.5M51 16H84.5M84.5 16V31M84.5 16H118M84.5 31H118M118 31V16M118 31H151.5M118 16H151.5M151.5 16H185M151.5 16V31M185 16H218.5M185 16V31M218.5 16H252M218.5 16V31M252 16H285.5M252 16V31M285.5 16H319V31H285.5M285.5 16V31M285.5 31H252M252 31H218.5M218.5 31H185M185 31H151.5M68.5 46H35V31H68.5M68.5 46V31M68.5 46H102M68.5 31H102M102 31V46M102 31H135.5M102 46H135.5M135.5 46V31M135.5 46H169M135.5 31H169M169 31H202.5M169 31V46M202.5 31H236M202.5 31V46M236 31H269.5M236 31V46M269.5 31H303V46H269.5M269.5 31V46M269.5 46H236M236 46H202.5M202.5 46H169" stroke="#8F8E93" stroke-width="2"/>
<rect x="95" y="1" width="45" height="45" fill="url(#paint0_linear_1687_4990)" stroke="black" stroke-width="2"/>
<rect x="99" y="5" width="4" height="4" fill="black"/>
<rect x="99" y="38.375" width="4" height="4" fill="black"/>
<rect x="132.125" y="5" width="4" height="4" fill="black"/>
<rect x="132.125" y="38.375" width="4" height="4" fill="black"/>
<rect x="197" y="1" width="45" height="45" fill="url(#paint1_linear_1687_4990)" stroke="black" stroke-width="2"/>
<rect x="201" y="5" width="4" height="4" fill="black"/>
<rect x="201" y="38.375" width="4" height="4" fill="black"/>
<rect x="234.125" y="5" width="4" height="4" fill="black"/>
<rect x="234.125" y="38.375" width="4" height="4" fill="black"/>
<path d="M103 19.9375H105.25V23.1875H107.5M107.5 23.1875V24.9375H109.5V23.1875M107.5 23.1875H108.5M109.5 23.1875H112V19.9375H114.25M109.5 23.1875H108.5M108.5 23.1875V17.1875H109.938V15.5625H112V13.9375H114.938V12.6875H121.625V13.9375H123.812V15.5625H126.25V17.1875" stroke="black" stroke-width="2"/>
<path d="M132 27.0625H129.75V23.8125H127.5M127.5 23.8125V22.0625H125.5V23.8125M127.5 23.8125H126.5M125.5 23.8125H123V27.0625H120.75M125.5 23.8125H126.5M126.5 23.8125V29.8125H125.062V31.4375H123V33.0625H120.062V34.3125H113.375V33.0625H111.188V31.4375H108.75V29.8125" stroke="black" stroke-width="2"/>
<path d="M221.75 24.75V36.75H219.75H219.25H217.25V24.75H207.25V21.25H211.25V18.25H214.75V13.75H217.25V10.25H219.25H219.75H221.75V13.75H224.25V18.25H227.75V21.25H231.75V24.75H221.75Z" fill="black"/>
<path d="M219.25 10.25H221.75V13.75H224.25V18.25H227.75V21.25H231.75V24.75H221.75V36.75H219.25M219.75 10.25H217.25V13.75H214.75V18.25H211.25V21.25H207.25V24.75H217.25V36.75H219.75" stroke="black" stroke-width="2"/>
<defs>
<linearGradient id="paint0_linear_1687_4990" x1="147.705" y1="37.1765" x2="101.403" y2="60.4805" gradientUnits="userSpaceOnUse">
<stop stop-color="#D6FFBB"/>
<stop offset="1" stop-color="#5869DD"/>
</linearGradient>
<linearGradient id="paint1_linear_1687_4990" x1="249.705" y1="37.1765" x2="203.403" y2="60.4805" gradientUnits="userSpaceOnUse">
<stop stop-color="#D6FFBB"/>
<stop offset="1" stop-color="#5869DD"/>
</linearGradient>
</defs>
</svg>
