<svg width="353" height="47" viewBox="0 0 353 47" fill="none" xmlns="http://www.w3.org/2000/svg">
<path d="M336 16V1H302.5M336 16H302.5M336 16H318.5M336 16H352V31H336M34.5 1H1V16H34.5M34.5 1V16M34.5 1H68M34.5 16H68M68 16V1M68 16H101.5M68 1H101.5M101.5 1V16M101.5 1H135M101.5 16H135M135 16V1M135 16H168.5M135 1H168.5M168.5 1H202M168.5 1V16M202 1H235.5M202 1V16M235.5 1H269M235.5 1V16M269 1H302.5M269 1V16M302.5 1V16M302.5 16H269M302.5 16H318.5M302.5 16H285M269 16H235.5M235.5 16H202M202 16H168.5M318.5 16V31M318.5 16H285M318.5 31H285M318.5 31H302.5M318.5 31H336M50.5 31H17V16H50.5M50.5 31V16M50.5 31H84M50.5 16H84M84 16V31M84 16H117.5M84 31H117.5M117.5 31V16M117.5 31H151M117.5 16H151M151 16H184.5M151 16V31M184.5 16H218M184.5 16V31M218 16H251.5M218 16V31M251.5 16H285M251.5 16V31M285 16V31M285 31H251.5M285 31H302.5M251.5 31H218M218 31H184.5M184.5 31H151M336 31V46H302.5M336 31H302.5M68 46H34.5V31H68M68 46V31M68 46H101.5M68 31H101.5M101.5 31V46M101.5 31H135M101.5 46H135M135 46V31M135 46H168.5M135 31H168.5M168.5 31H202M168.5 31V46M202 31H235.5M202 31V46M235.5 31H269M235.5 31V46M269 31H302.5M269 31V46M302.5 31V46M302.5 46H269M269 46H235.5M235.5 46H202M202 46H168.5" stroke="#8F8E93" stroke-width="2"/>
<rect x="197" y="1" width="45" height="45" fill="url(#paint0_linear_1687_4988)" stroke="black" stroke-width="2"/>
<rect x="201" y="5" width="4" height="4" fill="black"/>
<rect x="201" y="38.375" width="4" height="4" fill="black"/>
<rect x="234.125" y="5" width="4" height="4" fill="black"/>
<rect x="234.125" y="38.375" width="4" height="4" fill="black"/>
<rect x="242" y="1" width="45" height="45" fill="url(#paint1_linear_1687_4988)" stroke="black" stroke-width="2"/>
<rect x="246" y="5" width="4" height="4" fill="black"/>
<rect x="246" y="38.375" width="4" height="4" fill="black"/>
<rect x="279.125" y="5" width="4" height="4" fill="black"/>
<rect x="279.125" y="38.375" width="4" height="4" fill="black"/>
<path d="M258.973 25.3627V21.6373H260.268V20.5035H261.564V19.0458H262.698V17.75H266.302V19.0458H267.436V20.5035H268.731V21.6373H270.027V25.3627H268.731V26.4965H267.436V27.9542H266.302V29.25H262.698V27.9542H261.564V26.4965H260.268V25.3627H258.973Z" stroke="black" stroke-width="2"/>
<path d="M251.906 27.5088V19.4912H254.859V17.0511H257.811V13.9137H260.394V11.125H268.606V13.9137H271.189V17.0511H274.141V19.4912H277.094V27.5088H274.141V29.9489H271.189V33.0863H268.606V35.875H260.394V33.0863H257.811V29.9489H254.859V27.5088H251.906Z" stroke="black" stroke-width="2"/>
<defs>
<linearGradient id="paint0_linear_1687_4988" x1="249.705" y1="37.1765" x2="203.403" y2="60.4805" gradientUnits="userSpaceOnUse">
<stop stop-color="#D6FFBB"/>
<stop offset="1" stop-color="#5869DD"/>
</linearGradient>
<linearGradient id="paint1_linear_1687_4988" x1="294.705" y1="37.1765" x2="248.403" y2="60.4805" gradientUnits="userSpaceOnUse">
<stop stop-color="#D6FFBB"/>
<stop offset="1" stop-color="#5869DD"/>
</linearGradient>
</defs>
</svg>
