<svg width="375" height="186" viewBox="0 0 375 186" fill="none" xmlns="http://www.w3.org/2000/svg">
<path d="M12.5 147.25V111M12.5 147.25V166.625M12.5 147.25H-3.5M12.5 147.25H28.5M12.5 111H-3.5M12.5 111H28.5M-3.5 111V93H28.5M-3.5 111V126.5H-15.5V136.875V147.25H-3.5M12.5 166.625V186M12.5 166.625H-3.5M12.5 166.625H28.5M-3.5 166.625V147.25M-3.5 166.625H-15.5V186M127 93H157M127 93H89.5M127 93V126.5M127 147.25H157M127 147.25H110.5M127 147.25V126.5M127 147.25V166.625M157 147.25V135.5M157 147.25V111H173M157 147.25V166.625M157 147.25H173M110.5 147.25V135.5H118.5V126.5H127M110.5 147.25H96.5M127 126.5H141.5V135.5H157M96.5 147.25V126.5H89.5V105.5M96.5 147.25H71.5M96.5 147.25V170H105V186M89.5 105.5V93M89.5 105.5H82.5V108.5H71.5M89.5 93H71.5M71.5 108.5V93M71.5 108.5V126.5M71.5 93H28.5M71.5 147.25V186M71.5 147.25H40.5M71.5 147.25V126.5M127 166.625V186M127 166.625H146.5V177M28.5 111V93M28.5 111V126.5H40.5V136.875M40.5 147.25V136.875M40.5 147.25H28.5M40.5 136.875H58.5V126.5H71.5M28.5 166.625V147.25M28.5 166.625H40.5V186M157 93V135.5M157 93H173M271.5 93H301.5M271.5 93H234M271.5 93V126.5M271.5 147.25H301.5M271.5 147.25H255M271.5 147.25V126.5M271.5 147.25V166.625M301.5 147.25V135.5M301.5 147.25V111H317.5M301.5 147.25V166.625M301.5 147.25H317.5M255 147.25V135.5H263V126.5H271.5M255 147.25H241M271.5 126.5H286V135.5H301.5M241 147.25V126.5H234V105.5M241 147.25H216M241 147.25V170H249.5V186M234 105.5V93M234 105.5H227V108.5H216M234 93H216M216 108.5V93M216 108.5V126.5M216 93H173M216 147.25V186M216 147.25H185M216 147.25V126.5M271.5 166.625V186M271.5 166.625H291V177M173 111V93M173 111V126.5H185V136.875M185 147.25V136.875M185 147.25H173M185 136.875H203V126.5H216M157 166.625V186M157 166.625H173M173 166.625V147.25M173 166.625H185V186M301.5 93V135.5M301.5 93H317.5M407.5 126.5V135.5H399.5V147.25H385.5M385.5 147.25V126.5H378.5V105.5M385.5 147.25H360.5M385.5 147.25V170H394V186M378.5 105.5V93H360.5M378.5 105.5H371.5V108.5H360.5M360.5 108.5V93M360.5 108.5V126.5M360.5 93H317.5M360.5 147.25V186M360.5 147.25H329.5M360.5 147.25V126.5M317.5 111V93M317.5 111V126.5H329.5V136.875M329.5 147.25V136.875M329.5 147.25H317.5M329.5 136.875H347.5V126.5H360.5M301.5 166.625V186M301.5 166.625H317.5M317.5 166.625V147.25M317.5 166.625H329.5V186" stroke="url(#paint0_linear_1687_4878)" stroke-width="2"/>
<path d="M39.207 68.2051V70.7861V77.1393H45.9573V74.7569H49.3325V73.3671V70.7861H51.3178V68.2051V66.4183H49.3325V62.646H45.9573V64.4329H44.369V66.4183H41.5895V68.2051H39.207Z" fill="#5869DD"/>
<path d="M32.3078 1V2.09196H30.2232V3.33282H28.6845V4.67295H27.4933V6.06272H25.7561V7.45249H23.9692V8.99115H22.1327V11.6218H23.5721V13.4086H24.5648H30.9677H37.9165H40.1501H40.9442V12.1181V8.0481H42.0858V5.71528H43.7734V3.92844H46.1558H48.2405V1H32.3078Z" fill="#5869DD"/>
<path d="M54.7923 28.8946H55.9835V24.3282H45.9573V23.5837H44.9646H42.8303V25.0231H39.207V26.2143H37.9165V28.8946H54.7923Z" fill="black"/>
<path d="M37.9165 13.4086V18.2728H42.0858V16.486H40.1501V13.4086H37.9165Z" fill="black"/>
<path d="M22.1327 11.6218H20.8919V16.7838V18.2728H19.8496V19.6129H18.6583V23.5837H17.3182V28.1501H24.5648V13.4086H23.5721V11.6218H22.1327Z" fill="black"/>
<path d="M49.3325 12.2174H57.1747V9.83494H54.7923H47.1485V7.10504H46.1558V5.71528V3.92844H43.7734V5.71528H42.0858V8.0481H40.9442V12.1181H42.8303L47.1485 12.1841L49.3325 12.2174Z" fill="black"/>
<path d="M22.1327 38.7222H20.7945L20.8919 39.6156H18.6583V41.601H17.3182V47.6564H18.6583V49.1455H20.7945V51.3294H22.1327V38.7222Z" fill="url(#paint1_linear_1687_4878)"/>
<path d="M13 62.646V82.4998H16.1178V78.5291H18.8458V75.7496H23.5225V62.646H20.7945H13Z" fill="url(#paint2_linear_1687_4878)"/>
<path d="M56.4798 79.5218H49.3325V74.7569H45.9573V77.1393H39.207V85.875H56.4798V79.5218Z" fill="url(#paint3_linear_1687_4878)"/>
<path d="M23.5225 62.646V75.7496H30.0743V73.3671H35.4348V70.7861H39.207V68.2051H41.5895V66.4183H44.369V64.4329H45.9573V62.646H49.3325V55.4987H39.207V53.7118H35.4348V52.3221H32.0597V49.1455H30.0743V45.9689H28.486V39.6156V32.8654H30.0743V31.4756H27.7414H25.7561V33.9573H23.9692V36.1412H22.1327V38.7222V51.3294V62.646H23.5225Z" fill="#5869DD"/>
<path d="M54.7923 9.83494V5.96345H53.8492V3.33282H51.2682V2.09196H49.7295V1H48.2405V3.92844H46.1558V5.71528V7.10504H47.1485V9.83494H54.7923Z" fill="url(#paint4_linear_1687_4878)"/>
<path d="M45.9573 42.1966H44.369V39.6156H41.5895V37.2332H39.207V35.6449H36.8246V32.8654H32.0597V31.4756H30.0743V32.8654H28.486V39.6156V45.9689H30.0743V49.1455H32.0597V52.3221H35.4348V53.7118H39.207V55.4987H49.3325V53.7118H47.7442V50.7338V48.1528H45.9573V45.9689V42.1966Z" fill="url(#paint5_linear_1687_4878)"/>
<path d="M13 62.646V61.8519H12.2058V62.646H13ZM13 82.4998H12.2058V83.294H13V82.4998ZM16.1178 82.4998V83.294H16.9119V82.4998H16.1178ZM16.1178 78.5291V77.7349H15.3236V78.5291H16.1178ZM18.8458 78.5291V79.3232H19.64V78.5291H18.8458ZM18.8458 75.7496V74.9554H18.0517V75.7496H18.8458ZM23.5225 62.646H24.3167V61.8519H23.5225V62.646ZM30.0743 75.7496V76.5437H30.8684V75.7496H30.0743ZM30.0743 73.3671V72.573H29.2801V73.3671H30.0743ZM35.4348 73.3671V74.1613H36.2289V73.3671H35.4348ZM35.4348 70.7861V69.992H34.6406V70.7861H35.4348ZM39.207 68.2051V67.411H38.4129V68.2051H39.207ZM41.5895 68.2051V68.9993H42.3836V68.2051H41.5895ZM41.5895 66.4183V65.6241H40.7953V66.4183H41.5895ZM44.369 66.4183V67.2124H45.1632V66.4183H44.369ZM44.369 64.4329V63.6387H43.5749V64.4329H44.369ZM45.9573 64.4329V65.227H46.7515V64.4329H45.9573ZM45.9573 62.646V61.8519H45.1632V62.646H45.9573ZM56.4798 55.4987V56.2928H57.274V55.4987H56.4798ZM56.4798 45.9689H57.274V45.1747H56.4798V45.9689ZM53.5018 45.9689H52.7076V46.763H53.5018V45.9689ZM53.5018 43.5864H54.2959V42.7923H53.5018V43.5864ZM51.3178 43.5864H50.5237V44.3806H51.3178V43.5864ZM51.3178 42.1966H52.112V41.4025H51.3178V42.1966ZM44.369 42.1966H43.5749V42.9908H44.369V42.1966ZM44.369 39.6156H45.1632V38.8215H44.369V39.6156ZM41.5895 39.6156H40.7953V40.4098H41.5895V39.6156ZM41.5895 37.2332H42.3836V36.439H41.5895V37.2332ZM39.207 37.2332H38.4129V38.0273H39.207V37.2332ZM36.8246 35.6449H36.0304V36.439H36.8246V35.6449ZM36.8246 32.8654H37.6187V32.0712H36.8246V32.8654ZM32.0597 32.8654H31.2655V33.6595H32.0597V32.8654ZM32.0597 31.4756H32.8538V30.6814H32.0597V31.4756ZM30.0743 32.8654V33.6595H30.8684V32.8654H30.0743ZM28.486 32.8654V32.0712H27.6918V32.8654H28.486ZM28.486 45.9689H27.6918V46.763H28.486V45.9689ZM30.0743 45.9689H30.8684V45.1747H30.0743V45.9689ZM30.0743 49.1455H29.2801V49.9396H30.0743V49.1455ZM32.0597 49.1455H32.8538V48.3513H32.0597V49.1455ZM32.0597 52.3221H31.2655V53.1162H32.0597V52.3221ZM35.4348 52.3221H36.2289V51.5279H35.4348V52.3221ZM35.4348 53.7118H34.6406V54.506H35.4348V53.7118ZM39.207 53.7118H40.0012V52.9177H39.207V53.7118ZM39.207 55.4987H38.4129V56.2928H39.207V55.4987ZM49.3325 53.7118H50.1266V52.9177H49.3325V53.7118ZM47.7442 53.7118H46.95V54.506H47.7442V53.7118ZM47.7442 48.1528H48.5383V47.3586H47.7442V48.1528ZM45.9573 48.1528H45.1632V48.9469H45.9573V48.1528ZM49.3325 66.4183H48.5383V67.2124H49.3325V66.4183ZM51.3178 66.4183H52.112V65.6241H51.3178V66.4183ZM51.3178 70.7861V71.5803H52.112V70.7861H51.3178ZM49.3325 70.7861V69.992H48.5383V70.7861H49.3325ZM49.3325 79.5218H48.5383V80.3159H49.3325V79.5218ZM56.4798 79.5218H57.274V78.7276H56.4798V79.5218ZM56.4798 85.875V86.6692H57.274V85.875H56.4798ZM39.207 85.875H38.4129V86.6692H39.207V85.875ZM45.9573 77.1393V77.9335H46.7515V77.1393H45.9573ZM45.9573 74.7569V73.9627H45.1632V74.7569H45.9573ZM44.369 35.6449V36.439H45.1632V35.6449H44.369ZM44.369 33.9573V33.1632H43.5749V33.9573H44.369ZM46.8507 33.9573V34.7515H47.6449V33.9573H46.8507ZM46.8507 32.8654V32.0712H46.0566V32.8654H46.8507ZM49.3325 32.8654V33.6595H50.1266V32.8654H49.3325ZM49.3325 31.4756V30.6814H48.5383V31.4756H49.3325ZM52.5091 31.4756V32.2697H53.3032V31.4756H52.5091ZM52.5091 30.4829V29.6887H51.7149V30.4829H52.5091ZM54.7923 30.4829V31.277H55.5864V30.4829H54.7923ZM55.9835 28.8946V29.6887H56.7776V28.8946H55.9835ZM57.1747 24.3282V25.1224H57.9689V24.3282H57.1747ZM57.1747 22.4421V21.648H56.3806V22.4421H57.1747ZM58.4652 22.4421V23.2363H59.2594V22.4421H58.4652ZM58.4652 19.2655H59.2594V18.4713H58.4652V19.2655ZM56.4798 19.2655H55.6857V20.0596H56.4798V19.2655ZM56.4798 18.2728H57.274V17.4787H56.4798V18.2728ZM54.7923 18.2728H53.9981V19.067H54.7923V18.2728ZM54.7923 16.7838H55.5864V15.9896H54.7923V16.7838ZM49.3325 16.7838H48.5383V17.5779H49.3325V16.7838ZM57.1747 12.2174V13.0115H57.9689V12.2174H57.1747ZM57.1747 9.83494H57.9689V9.04079H57.1747V9.83494ZM54.7923 5.96345H55.5864V5.1693H54.7923V5.96345ZM53.8492 5.96345H53.055V6.7576H53.8492V5.96345ZM53.8492 3.33282H54.6433V2.53867H53.8492V3.33282ZM51.2682 3.33282H50.4741V4.12697H51.2682V3.33282ZM51.2682 2.09196H52.0624V1.29781H51.2682V2.09196ZM49.7295 2.09196H48.9354V2.88611H49.7295V2.09196ZM49.7295 1H50.5237V0.205848H49.7295V1ZM32.3078 1V0.205848H31.5137V1H32.3078ZM32.3078 2.09196V2.88611H33.102V2.09196H32.3078ZM30.2232 2.09196V1.29781H29.429V2.09196H30.2232ZM30.2232 3.33282V4.12697H31.0173V3.33282H30.2232ZM28.6845 3.33282V2.53867H27.8904V3.33282H28.6845ZM28.6845 4.67295V5.4671H29.4787V4.67295H28.6845ZM27.4933 4.67295V3.8788H26.6991V4.67295H27.4933ZM27.4933 6.06272V6.85687H28.2874V6.06272H27.4933ZM25.7561 6.06272V5.26857H24.9619V6.06272H25.7561ZM25.7561 7.45249V8.24664H26.5502V7.45249H25.7561ZM23.9692 7.45249V6.65833H23.1751V7.45249H23.9692ZM23.9692 8.99115V9.78531H24.7634V8.99115H23.9692ZM22.1327 8.99115V8.197H21.3386V8.99115H22.1327ZM20.8919 11.6218V10.8276H20.0977V11.6218H20.8919ZM20.8919 18.2728V19.067H21.686V18.2728H20.8919ZM19.8496 18.2728V17.4787H19.0554V18.2728H19.8496ZM19.8496 19.6129V20.4071H20.6437V19.6129H19.8496ZM18.6583 19.6129V18.8188H17.8642V19.6129H18.6583ZM18.6583 23.5837V24.3778H19.4525V23.5837H18.6583ZM17.3182 23.5837V22.7895H16.524V23.5837H17.3182ZM17.3182 28.1501H16.524V28.9442H17.3182V28.1501ZM23.5721 13.4086H22.778V14.2028H23.5721V13.4086ZM23.5721 11.6218H24.3663V10.8276H23.5721V11.6218ZM40.9442 13.4086V14.2028H41.7384V13.4086H40.9442ZM42.8303 12.1181L42.8425 11.324H42.8303V12.1181ZM33.0027 21.102H33.7969V20.3078H33.0027V21.102ZM33.0027 22.7399H32.2086V23.5341H33.0027V22.7399ZM30.9677 22.7399H30.1735V23.5341H30.9677V22.7399ZM37.9165 18.2728H37.1224V19.067H37.9165V18.2728ZM42.0858 18.2728V19.067H42.88V18.2728H42.0858ZM42.0858 16.486H42.88V15.6918H42.0858V16.486ZM40.1501 16.486H39.3559V17.2801H40.1501V16.486ZM26.6495 28.1501H27.4436V27.3559H26.6495V28.1501ZM26.6495 29.5895H25.8553V30.3836H26.6495V29.5895ZM27.7414 29.5895H28.5356V28.7953H27.7414V29.5895ZM47.1485 9.83494H46.3544V10.6291H47.1485V9.83494ZM47.1485 7.10504H47.9427V6.31089H47.1485V7.10504ZM46.1558 7.10504H45.3617V7.8992H46.1558V7.10504ZM48.2405 3.92844V4.72259H49.0346V3.92844H48.2405ZM47.1485 12.1841L47.1364 12.9781L47.1485 12.1841ZM25.7561 31.4756V30.6814H24.9619V31.4756H25.7561ZM25.7561 33.9573V34.7515H26.5502V33.9573H25.7561ZM23.9692 33.9573V33.1632H23.1751V33.9573H23.9692ZM23.9692 36.1412V36.9354H24.7634V36.1412H23.9692ZM22.1327 36.1412V35.3471H21.3386V36.1412H22.1327ZM20.7945 38.7222V37.9281H19.909L20.005 38.8083L20.7945 38.7222ZM20.8919 39.6156V40.4098H21.7774L21.6814 39.5295L20.8919 39.6156ZM18.6583 39.6156V38.8215H17.8642V39.6156H18.6583ZM18.6583 41.601V42.3952H19.4525V41.601H18.6583ZM17.3182 41.601V40.8069H16.524V41.601H17.3182ZM17.3182 47.6564H16.524V48.4506H17.3182V47.6564ZM18.6583 47.6564H19.4525V46.8623H18.6583V47.6564ZM18.6583 49.1455H17.8642V49.9396H18.6583V49.1455ZM20.7945 49.1455H21.5886V48.3513H20.7945V49.1455ZM20.7945 51.3294H20.0003V52.1235H20.7945V51.3294ZM37.9165 26.2143V25.4202H37.1224V26.2143H37.9165ZM39.207 26.2143V27.0085H40.0012V26.2143H39.207ZM39.207 25.0231V24.2289H38.4129V25.0231H39.207ZM42.8303 25.0231V25.8173H43.6245V25.0231H42.8303ZM42.8303 23.5837V22.7895H42.0362V23.5837H42.8303ZM45.9573 24.3282H45.1632V25.1224H45.9573V24.3282ZM45.9573 23.5837H46.7515V22.7895H45.9573V23.5837ZM37.9165 28.8946H37.1224V29.6887H37.9165V28.8946ZM43.7734 3.92844V3.13428H42.9792V3.92844H43.7734ZM43.7734 5.71528V6.50943H44.5675V5.71528H43.7734ZM42.0858 5.71528V4.92113H41.2917V5.71528H42.0858ZM42.0858 8.0481V8.84225H42.88V8.0481H42.0858ZM40.9442 8.0481V7.25395H40.1501V8.0481H40.9442ZM22.1327 62.646H21.3386V63.4402H22.1327V62.646ZM41.5895 68.8007V69.5949H42.3836V68.8007H41.5895ZM41.5895 67.0139V66.2197H40.7953V67.0139H41.5895ZM44.369 67.0139V67.808H45.1632V67.0139H44.369ZM44.369 65.0285V64.2344H43.5749V65.0285H44.369ZM45.9573 65.0285V65.8227H46.7515V65.0285H45.9573ZM45.9573 63.2417V62.4475H45.1632V63.2417H45.9573ZM12.2058 62.646V82.4998H13.7942V62.646H12.2058ZM13 83.294H16.1178V81.7057H13V83.294ZM16.9119 82.4998V78.5291H15.3236V82.4998H16.9119ZM16.1178 79.3232H18.8458V77.7349H16.1178V79.3232ZM19.64 78.5291V75.7496H18.0517V78.5291H19.64ZM18.8458 76.5437H23.5225V74.9554H18.8458V76.5437ZM24.3167 75.7496V62.646H22.7284V75.7496H24.3167ZM23.5225 61.8519H20.7945V63.4402H23.5225V61.8519ZM20.7945 61.8519H13V63.4402H20.7945V61.8519ZM23.5225 76.5437H30.0743V74.9554H23.5225V76.5437ZM30.8684 75.7496V73.3671H29.2801V75.7496H30.8684ZM30.0743 74.1613H35.4348V72.573H30.0743V74.1613ZM36.2289 73.3671V70.7861H34.6406V73.3671H36.2289ZM35.4348 71.5803H39.207V69.992H35.4348V71.5803ZM40.0012 70.7861V68.2051H38.4129V70.7861H40.0012ZM39.207 68.9993H41.5895V67.411H39.207V68.9993ZM42.3836 68.2051V66.4183H40.7953V68.2051H42.3836ZM41.5895 67.2124H44.369V65.6241H41.5895V67.2124ZM45.1632 66.4183V64.4329H43.5749V66.4183H45.1632ZM44.369 65.227H45.9573V63.6387H44.369V65.227ZM46.7515 64.4329V62.646H45.1632V64.4329H46.7515ZM45.9573 63.4402H49.3325V61.8519H45.9573V63.4402ZM50.1266 62.646V55.4987H48.5383V62.646H50.1266ZM49.3325 56.2928H56.4798V54.7045H49.3325V56.2928ZM57.274 55.4987V45.9689H55.6857V55.4987H57.274ZM56.4798 45.1747H53.5018V46.763H56.4798V45.1747ZM54.2959 45.9689V43.5864H52.7076V45.9689H54.2959ZM53.5018 42.7923H51.3178V44.3806H53.5018V42.7923ZM52.112 43.5864V42.1966H50.5237V43.5864H52.112ZM51.3178 41.4025H45.9573V42.9908H51.3178V41.4025ZM45.9573 41.4025H44.369V42.9908H45.9573V41.4025ZM45.1632 42.1966V39.6156H43.5749V42.1966H45.1632ZM44.369 38.8215H41.5895V40.4098H44.369V38.8215ZM42.3836 39.6156V37.2332H40.7953V39.6156H42.3836ZM41.5895 36.439H39.207V38.0273H41.5895V36.439ZM40.0012 37.2332V35.6449H38.4129V37.2332H40.0012ZM39.207 34.8507H36.8246V36.439H39.207V34.8507ZM37.6187 35.6449V32.8654H36.0304V35.6449H37.6187ZM36.8246 32.0712H32.0597V33.6595H36.8246V32.0712ZM32.8538 32.8654V31.4756H31.2655V32.8654H32.8538ZM32.0597 30.6814H30.0743V32.2697H32.0597V30.6814ZM29.2801 31.4756V32.8654H30.8684V31.4756H29.2801ZM30.0743 32.0712H28.486V33.6595H30.0743V32.0712ZM27.6918 32.8654V39.6156H29.2801V32.8654H27.6918ZM27.6918 39.6156V45.9689H29.2801V39.6156H27.6918ZM28.486 46.763H30.0743V45.1747H28.486V46.763ZM29.2801 45.9689V49.1455H30.8684V45.9689H29.2801ZM30.0743 49.9396H32.0597V48.3513H30.0743V49.9396ZM31.2655 49.1455V52.3221H32.8538V49.1455H31.2655ZM32.0597 53.1162H35.4348V51.5279H32.0597V53.1162ZM34.6406 52.3221V53.7118H36.2289V52.3221H34.6406ZM35.4348 54.506H39.207V52.9177H35.4348V54.506ZM38.4129 53.7118V55.4987H40.0012V53.7118H38.4129ZM39.207 56.2928H49.3325V54.7045H39.207V56.2928ZM50.1266 55.4987V53.7118H48.5383V55.4987H50.1266ZM49.3325 52.9177H47.7442V54.506H49.3325V52.9177ZM48.5383 53.7118V50.7338H46.95V53.7118H48.5383ZM48.5383 50.7338V48.1528H46.95V50.7338H48.5383ZM47.7442 47.3586H45.9573V48.9469H47.7442V47.3586ZM46.7515 48.1528V45.9689H45.1632V48.1528H46.7515ZM48.5383 62.646V66.4183H50.1266V62.646H48.5383ZM49.3325 67.2124H51.3178V65.6241H49.3325V67.2124ZM50.5237 66.4183V68.2051H52.112V66.4183H50.5237ZM50.5237 68.2051V70.7861H52.112V68.2051H50.5237ZM51.3178 69.992H49.3325V71.5803H51.3178V69.992ZM48.5383 70.7861V73.3671H50.1266V70.7861H48.5383ZM49.3325 80.3159H56.4798V78.7276H49.3325V80.3159ZM55.6857 79.5218V85.875H57.274V79.5218H55.6857ZM56.4798 85.0808H39.207V86.6692H56.4798V85.0808ZM40.0012 85.875V77.1393H38.4129V85.875H40.0012ZM40.0012 77.1393V70.7861H38.4129V77.1393H40.0012ZM39.207 77.9335H45.9573V76.3452H39.207V77.9335ZM46.7515 77.1393V74.7569H45.1632V77.1393H46.7515ZM48.5383 73.3671V74.7569H50.1266V73.3671H48.5383ZM48.5383 74.7569V79.5218H50.1266V74.7569H48.5383ZM45.9573 75.551H49.3325V73.9627H45.9573V75.551ZM39.207 36.439H44.369V34.8507H39.207V36.439ZM45.1632 35.6449V33.9573H43.5749V35.6449H45.1632ZM44.369 34.7515H46.8507V33.1632H44.369V34.7515ZM47.6449 33.9573V32.8654H46.0566V33.9573H47.6449ZM46.8507 33.6595H49.3325V32.0712H46.8507V33.6595ZM50.1266 32.8654V31.4756H48.5383V32.8654H50.1266ZM49.3325 32.2697H52.5091V30.6814H49.3325V32.2697ZM53.3032 31.4756V30.4829H51.7149V31.4756H53.3032ZM52.5091 31.277H54.7923V29.6887H52.5091V31.277ZM55.5864 30.4829V28.8946H53.9981V30.4829H55.5864ZM54.7923 29.6887H55.9835V28.1004H54.7923V29.6887ZM56.7776 28.8946V24.3282H55.1893V28.8946H56.7776ZM55.9835 25.1224H57.1747V23.5341H55.9835V25.1224ZM57.9689 24.3282V22.4421H56.3806V24.3282H57.9689ZM57.1747 23.2363H58.4652V21.648H57.1747V23.2363ZM59.2594 22.4421V19.2655H57.6711V22.4421H59.2594ZM58.4652 18.4713H56.4798V20.0596H58.4652V18.4713ZM57.274 19.2655V18.2728H55.6857V19.2655H57.274ZM56.4798 17.4787H54.7923V19.067H56.4798V17.4787ZM55.5864 18.2728V16.7838H53.9981V18.2728H55.5864ZM54.7923 15.9896H49.3325V17.5779H54.7923V15.9896ZM50.1266 16.7838V12.2174H48.5383V16.7838H50.1266ZM49.3325 13.0115H57.1747V11.4232H49.3325V13.0115ZM57.9689 12.2174V9.83494H56.3806V12.2174H57.9689ZM57.1747 9.04079H54.7923V10.6291H57.1747V9.04079ZM55.5864 9.83494V5.96345H53.9981V9.83494H55.5864ZM54.7923 5.1693H53.8492V6.7576H54.7923V5.1693ZM54.6433 5.96345V3.33282H53.055V5.96345H54.6433ZM53.8492 2.53867H51.2682V4.12697H53.8492V2.53867ZM52.0624 3.33282V2.09196H50.4741V3.33282H52.0624ZM51.2682 1.29781H49.7295V2.88611H51.2682V1.29781ZM50.5237 2.09196V1H48.9354V2.09196H50.5237ZM31.5137 1V2.09196H33.102V1H31.5137ZM32.3078 1.29781H30.2232V2.88611H32.3078V1.29781ZM29.429 2.09196V3.33282H31.0173V2.09196H29.429ZM30.2232 2.53867H28.6845V4.12697H30.2232V2.53867ZM27.8904 3.33282V4.67295H29.4787V3.33282H27.8904ZM28.6845 3.8788H27.4933V5.4671H28.6845V3.8788ZM26.6991 4.67295V6.06272H28.2874V4.67295H26.6991ZM27.4933 5.26857H25.7561V6.85687H27.4933V5.26857ZM24.9619 6.06272V7.45249H26.5502V6.06272H24.9619ZM25.7561 6.65833H23.9692V8.24664H25.7561V6.65833ZM23.1751 7.45249V8.99115H24.7634V7.45249H23.1751ZM23.9692 8.197H22.1327V9.78531H23.9692V8.197ZM21.3386 8.99115V11.6218H22.9269V8.99115H21.3386ZM22.1327 10.8276H20.8919V12.4159H22.1327V10.8276ZM20.0977 11.6218V16.7838H21.686V11.6218H20.0977ZM20.0977 16.7838V18.2728H21.686V16.7838H20.0977ZM20.8919 17.4787H19.8496V19.067H20.8919V17.4787ZM19.0554 18.2728V19.6129H20.6437V18.2728H19.0554ZM19.8496 18.8188H18.6583V20.4071H19.8496V18.8188ZM17.8642 19.6129V23.5837H19.4525V19.6129H17.8642ZM18.6583 22.7895H17.3182V24.3778H18.6583V22.7895ZM16.524 23.5837V28.1501H18.1124V23.5837H16.524ZM17.3182 28.9442H24.5648V27.3559H17.3182V28.9442ZM25.359 28.1501V13.4086H23.7707V28.1501H25.359ZM24.5648 12.6145H23.5721V14.2028H24.5648V12.6145ZM24.3663 13.4086V11.6218H22.778V13.4086H24.3663ZM23.5721 10.8276H22.1327V12.4159H23.5721V10.8276ZM41.7384 13.4086V12.1181H40.1501V13.4086H41.7384ZM40.9442 12.9123H42.8303V11.324H40.9442V12.9123ZM24.5648 14.2028H30.9677V12.6145H24.5648V14.2028ZM30.1735 13.4086V21.102H31.7618V13.4086H30.1735ZM30.9677 21.8961H33.0027V20.3078H30.9677V21.8961ZM32.2086 21.102V22.7399H33.7969V21.102H32.2086ZM33.0027 23.5341H34.3925V21.9458H33.0027V23.5341ZM34.3925 21.9458H30.9677V23.5341H34.3925V21.9458ZM31.7618 22.7399V21.102H30.1735V22.7399H31.7618ZM30.9677 14.2028H37.9165V12.6145H30.9677V14.2028ZM37.1224 13.4086V18.2728H38.7107V13.4086H37.1224ZM37.9165 19.067H42.0858V17.4787H37.9165V19.067ZM42.88 18.2728V16.486H41.2917V18.2728H42.88ZM42.0858 15.6918H40.1501V17.2801H42.0858V15.6918ZM37.9165 14.2028H40.1501V12.6145H37.9165V14.2028ZM40.1501 14.2028H40.9442V12.6145H40.1501V14.2028ZM40.9442 16.486V13.4086H39.3559V16.486H40.9442ZM24.5648 28.9442H26.6495V27.3559H24.5648V28.9442ZM25.8553 28.1501V29.5895H27.4436V28.1501H25.8553ZM26.6495 30.3836H27.7414V28.7953H26.6495V30.3836ZM26.9473 29.5895V31.4756H28.5356V29.5895H26.9473ZM27.7414 32.2697H30.0743V30.6814H27.7414V32.2697ZM47.9427 9.83494V7.10504H46.3544V9.83494H47.9427ZM47.1485 6.31089H46.1558V7.8992H47.1485V6.31089ZM46.95 7.10504V5.71528H45.3617V7.10504H46.95ZM46.95 5.71528V3.92844H45.3617V5.71528H46.95ZM46.1558 4.72259H48.2405V3.13428H46.1558V4.72259ZM49.7295 0.205848H48.2405V1.79415H49.7295V0.205848ZM48.2405 0.205848H32.3078V1.79415H48.2405V0.205848ZM49.0346 3.92844V1H47.4463V3.92844H49.0346ZM42.8182 12.9122L47.1364 12.9781L47.1607 11.39L42.8425 11.3241L42.8182 12.9122ZM47.1364 12.9781L49.3203 13.0115L49.3446 11.4233L47.1607 11.39L47.1364 12.9781ZM54.7923 9.04079H47.1485V10.6291H54.7923V9.04079ZM27.7414 30.6814H25.7561V32.2697H27.7414V30.6814ZM24.9619 31.4756V33.9573H26.5502V31.4756H24.9619ZM25.7561 33.1632H23.9692V34.7515H25.7561V33.1632ZM23.1751 33.9573V36.1412H24.7634V33.9573H23.1751ZM23.9692 35.3471H22.1327V36.9354H23.9692V35.3471ZM21.3386 36.1412V38.7222H22.9269V36.1412H21.3386ZM22.1327 37.9281H20.7945V39.5164H22.1327V37.9281ZM20.005 38.8083L20.1024 39.7017L21.6814 39.5295L21.5839 38.6361L20.005 38.8083ZM20.8919 38.8215H18.6583V40.4098H20.8919V38.8215ZM17.8642 39.6156V41.601H19.4525V39.6156H17.8642ZM18.6583 40.8069H17.3182V42.3952H18.6583V40.8069ZM16.524 41.601V47.6564H18.1124V41.601H16.524ZM17.3182 48.4506H18.6583V46.8623H17.3182V48.4506ZM17.8642 47.6564V49.1455H19.4525V47.6564H17.8642ZM18.6583 49.9396H20.7945V48.3513H18.6583V49.9396ZM20.0003 49.1455V51.3294H21.5886V49.1455H20.0003ZM21.3386 38.7222V51.3294H22.9269V38.7222H21.3386ZM22.1327 50.5352H20.7945V52.1235H22.1327V50.5352ZM37.9165 27.0085H39.207V25.4202H37.9165V27.0085ZM40.0012 26.2143V25.0231H38.4129V26.2143H40.0012ZM39.207 25.8173H42.8303V24.2289H39.207V25.8173ZM43.6245 25.0231V23.5837H42.0362V25.0231H43.6245ZM42.8303 24.3778H44.9646V22.7895H42.8303V24.3778ZM55.9835 23.5341H45.9573V25.1224H55.9835V23.5341ZM46.7515 24.3282V23.5837H45.1632V24.3282H46.7515ZM45.9573 22.7895H44.9646V24.3778H45.9573V22.7895ZM37.1224 26.2143V28.8946H38.7107V26.2143H37.1224ZM37.9165 29.6887H54.7923V28.1004H37.9165V29.6887ZM46.1558 3.13428H43.7734V4.72259H46.1558V3.13428ZM42.9792 3.92844V5.71528H44.5675V3.92844H42.9792ZM43.7734 4.92113H42.0858V6.50943H43.7734V4.92113ZM41.2917 5.71528V8.0481H42.88V5.71528H41.2917ZM42.0858 7.25395H40.9442V8.84225H42.0858V7.25395ZM40.1501 8.0481V12.1181H41.7384V8.0481H40.1501ZM21.3386 51.3294V62.646H22.9269V51.3294H21.3386ZM22.1327 63.4402H23.5225V61.8519H22.1327V63.4402ZM46.7515 45.9689V42.1966H45.1632V45.9689H46.7515ZM39.207 69.5949H41.5895V68.0066H39.207V69.5949ZM42.3836 68.8007V67.0139H40.7953V68.8007H42.3836ZM41.5895 67.808H44.369V66.2197H41.5895V67.808ZM45.1632 67.0139V65.0285H43.5749V67.0139H45.1632ZM44.369 65.8227H45.9573V64.2344H44.369V65.8227ZM46.7515 65.0285V63.2417H45.1632V65.0285H46.7515ZM45.9573 64.0358H49.3325V62.4475H45.9573V64.0358Z" fill="black"/>
<path d="M327.941 60.6918V57.5152H330.721V53.9415H333.5V51.5591H337.471V48.3825H340.251V46H345.81V48.3825H348.589V51.5591H352.56V53.9415H355.339V57.5152H358.119V60.6918H355.339H353.354V61.6845H351.17V63.3721H349.582V66.2509H347.597H338.265H336.28V63.3721H334.692V61.6845H332.508V60.6918H330.522H327.941Z" fill="#5869DD"/>
<path d="M345.81 75.3836H340.251H337.471V78.1632H332.706H327.941H324.765V76.1778H321.985V73.7953H320V67.2436H321.985V64.2655H324.765V60.6918H327.743H327.941H330.522V70.1224H331.912V71.6114H338.265V66.2509H347.597V71.6114H353.95V70.1224H355.339V60.6918H358.119H361.296V64.2655H364.075V67.2436H366.061V73.7953H364.075V76.1778H361.296V78.1632H358.119H353.354H348.589V75.3836H345.81Z" fill="#5869DD"/>
<path d="M353.354 84.3178H358.119V85.9061H361.296V88.0901H363.281V91.8623H342.435V89.4798H345.81V88.0901H349.582V86.8988H353.354V84.3178Z" fill="black"/>
<path d="M328.934 82.8288H332.706V84.3178H334.096V86.8988H335.883V88.9835H337.471V91.8623H328.934V90.9689H327.048V89.4798H324.765V88.0901H322.978V83.3251H324.765V81.5383H328.934V82.8288Z" fill="black"/>
<path d="M337.471 75.3836H336.677V74.5895H337.471V75.3836ZM337.471 78.1632H338.265V78.9573H337.471V78.1632ZM324.765 78.1632V78.9573H323.97V78.1632H324.765ZM324.765 76.1778V75.3836H325.559V76.1778H324.765ZM321.985 76.1778V76.9719H321.191V76.1778H321.985ZM321.985 64.2655H321.191V63.4713H321.985V64.2655ZM324.765 64.2655H325.559V65.0597H324.765V64.2655ZM324.765 60.6918H323.97V59.8977H324.765V60.6918ZM327.941 57.5152H327.147V56.7211H327.941V57.5152ZM330.721 57.5152H331.515V58.3094H330.721V57.5152ZM330.721 53.9415H329.927V53.1474H330.721V53.9415ZM333.5 53.9415H334.294V54.7357H333.5V53.9415ZM333.5 51.5591H332.706V50.7649H333.5V51.5591ZM337.471 51.5591H338.265V52.3532H337.471V51.5591ZM337.471 48.3825H336.677V47.5883H337.471V48.3825ZM340.251 48.3825H341.045V49.1766H340.251V48.3825ZM340.251 46H339.456V45.2058H340.251V46ZM345.81 46V45.2058H346.604V46H345.81ZM345.81 48.3825V49.1766H345.016V48.3825H345.81ZM321.985 67.2436H322.779V68.0377H321.985V67.2436ZM320 67.2436H319.206V66.4494H320V67.2436ZM320 73.7953V74.5895H319.206V73.7953H320ZM321.985 73.7953V73.0012H322.779V73.7953H321.985ZM348.589 75.3836V74.5895H349.383V75.3836H348.589ZM348.589 78.1632V78.9573H347.795V78.1632H348.589ZM361.296 78.1632H362.09V78.9573H361.296V78.1632ZM361.296 76.1778H360.501V75.3836H361.296V76.1778ZM364.075 76.1778H364.869V76.9719H364.075V76.1778ZM364.075 64.2655V63.4713H364.869V64.2655H364.075ZM361.296 64.2655V65.0597H360.501V64.2655H361.296ZM361.296 60.6918V59.8977H362.09V60.6918H361.296ZM358.119 57.5152V56.7211H358.913V57.5152H358.119ZM355.339 57.5152V58.3094H354.545V57.5152H355.339ZM355.339 53.9415V53.1474H356.134V53.9415H355.339ZM352.56 53.9415V54.7357H351.766V53.9415H352.56ZM352.56 51.5591V50.7649H353.354V51.5591H352.56ZM348.589 51.5591V52.3532H347.795V51.5591H348.589ZM348.589 48.3825V47.5883H349.383V48.3825H348.589ZM364.075 67.2436V68.0377H363.281V67.2436H364.075ZM366.061 67.2436V66.4494H366.855V67.2436H366.061ZM366.061 73.7953H366.855V74.5895H366.061V73.7953ZM364.075 73.7953H363.281V73.0012H364.075V73.7953ZM358.119 84.3178V83.5237H358.913V84.3178H358.119ZM358.119 85.9061V86.7003H357.325V85.9061H358.119ZM361.296 85.9061V85.112H362.09V85.9061H361.296ZM361.296 88.0901V88.8842H360.501V88.0901H361.296ZM363.281 88.0901V87.2959H364.075V88.0901H363.281ZM363.281 91.8623H364.075V92.6564H363.281V91.8623ZM342.435 89.4798H341.64V88.6857H342.435V89.4798ZM345.81 89.4798H346.604V90.274H345.81V89.4798ZM345.81 88.0901H345.016V87.2959H345.81V88.0901ZM349.582 88.0901H350.376V88.8842H349.582V88.0901ZM349.582 86.8988H348.788V86.1047H349.582V86.8988ZM353.354 86.8988H354.148V87.693H353.354V86.8988ZM328.934 82.8288V83.623H328.14V82.8288H328.934ZM328.934 81.5383V80.7442H329.728V81.5383H328.934ZM324.765 81.5383H323.97V80.7442H324.765V81.5383ZM324.765 83.3251H325.559V84.1193H324.765V83.3251ZM322.978 83.3251H322.184V82.531H322.978V83.3251ZM322.978 88.0901V88.8842H322.184V88.0901H322.978ZM324.765 88.0901V87.2959H325.559V88.0901H324.765ZM324.765 89.4798V90.274H323.97V89.4798H324.765ZM327.048 89.4798V88.6857H327.842V89.4798H327.048ZM327.048 90.9689V91.763H326.254V90.9689H327.048ZM328.934 90.9689V90.1747H329.728V90.9689H328.934ZM328.934 91.8623V92.6564H328.14V91.8623H328.934ZM337.471 88.9835V88.1893H338.265V88.9835H337.471ZM335.883 88.9835V89.7776H335.089V88.9835H335.883ZM335.883 86.8988V86.1047H336.677V86.8988H335.883ZM334.096 86.8988V87.693H333.302V86.8988H334.096ZM334.096 84.3178V83.5237H334.89V84.3178H334.096ZM332.706 84.3178V85.112H331.912V84.3178H332.706ZM355.339 70.1224H356.134V70.9165H355.339V70.1224ZM353.95 70.1224H353.156V69.3282H353.95V70.1224ZM353.95 71.6114H354.744V72.4056H353.95V71.6114ZM347.597 71.6114V72.4056H346.802V71.6114H347.597ZM349.582 66.2509H350.376V67.045H349.582V66.2509ZM349.582 63.3721H348.788V62.5779H349.582V63.3721ZM351.17 61.6845H350.376V60.8904H351.17V61.6845ZM353.354 61.6845H354.148V62.4787H353.354V61.6845ZM353.354 60.6918H352.56V59.8977H353.354V60.6918ZM330.522 70.1224V70.9165H329.728V70.1224H330.522ZM331.912 70.1224V69.3282H332.706V70.1224H331.912ZM331.912 71.6114V72.4056H331.118V71.6114H331.912ZM338.265 71.6114H339.059V72.4056H338.265V71.6114ZM336.28 66.2509V67.045H335.486V66.2509H336.28ZM336.28 63.3721V62.5779H337.074V63.3721H336.28ZM334.692 61.6845V60.8904H335.486V61.6845H334.692ZM332.508 61.6845V62.4787H331.713V61.6845H332.508ZM332.508 60.6918V59.8977H333.302V60.6918H332.508ZM345.81 76.1778H337.471V74.5895H345.81V76.1778ZM338.265 75.3836V78.1632H336.677V75.3836H338.265ZM327.941 78.9573H324.765V77.369H327.941V78.9573ZM323.97 78.1632V76.1778H325.559V78.1632H323.97ZM324.765 76.9719H321.985V75.3836H324.765V76.9719ZM321.985 63.4713H324.765V65.0597H321.985V63.4713ZM323.97 64.2655V60.6918H325.559V64.2655H323.97ZM324.765 59.8977H327.941V61.486H324.765V59.8977ZM327.147 60.6918V57.5152H328.735V60.6918H327.147ZM327.941 56.7211H330.721V58.3094H327.941V56.7211ZM329.927 57.5152V53.9415H331.515V57.5152H329.927ZM330.721 53.1474H333.5V54.7357H330.721V53.1474ZM332.706 53.9415V51.5591H334.294V53.9415H332.706ZM333.5 50.7649H337.471V52.3532H333.5V50.7649ZM336.677 51.5591V48.3825H338.265V51.5591H336.677ZM337.471 47.5883H340.251V49.1766H337.471V47.5883ZM339.456 48.3825V46H341.045V48.3825H339.456ZM340.251 45.2058H345.81V46.7942H340.251V45.2058ZM346.604 46V48.3825H345.016V46H346.604ZM321.191 67.2436V64.2655H322.779V67.2436H321.191ZM321.985 68.0377H320V66.4494H321.985V68.0377ZM320.794 67.2436V73.7953H319.206V67.2436H320.794ZM321.191 76.1778V73.7953H322.779V76.1778H321.191ZM320 73.0012H321.985V74.5895H320V73.0012ZM340.251 74.5895H348.589V76.1778H340.251V74.5895ZM349.383 75.3836V78.1632H347.795V75.3836H349.383ZM358.119 77.369H361.296V78.9573H358.119V77.369ZM360.501 78.1632V76.1778H362.09V78.1632H360.501ZM361.296 75.3836H364.075V76.9719H361.296V75.3836ZM364.075 65.0597H361.296V63.4713H364.075V65.0597ZM360.501 64.2655V60.6918H362.09V64.2655H360.501ZM361.296 61.486H358.119V59.8977H361.296V61.486ZM357.325 60.6918V57.5152H358.913V60.6918H357.325ZM358.119 58.3094H355.339V56.7211H358.119V58.3094ZM354.545 57.5152V53.9415H356.134V57.5152H354.545ZM355.339 54.7357H352.56V53.1474H355.339V54.7357ZM351.766 53.9415V51.5591H353.354V53.9415H351.766ZM352.56 52.3532H348.589V50.7649H352.56V52.3532ZM347.795 51.5591V48.3825H349.383V51.5591H347.795ZM348.589 49.1766H345.81V47.5883H348.589V49.1766ZM363.281 67.2436V64.2655H364.869V67.2436H363.281ZM364.075 66.4494H366.061V68.0377H364.075V66.4494ZM366.855 67.2436V73.7953H365.266V67.2436H366.855ZM363.281 76.1778V73.7953H364.869V76.1778H363.281ZM366.061 74.5895H364.075V73.0012H366.061V74.5895ZM348.589 77.369H353.354V78.9573H348.589V77.369ZM353.354 77.369H358.119V78.9573H353.354V77.369ZM354.148 78.1632V84.3178H352.56V78.1632H354.148ZM353.354 83.5237H358.119V85.112H353.354V83.5237ZM358.913 84.3178V85.9061H357.325V84.3178H358.913ZM358.119 85.112H361.296V86.7003H358.119V85.112ZM362.09 85.9061V88.0901H360.501V85.9061H362.09ZM361.296 87.2959H363.281V88.8842H361.296V87.2959ZM364.075 88.0901V91.8623H362.487V88.0901H364.075ZM363.281 92.6564H342.435V91.0681H363.281V92.6564ZM341.64 91.8623V89.4798H343.229V91.8623H341.64ZM342.435 88.6857H345.81V90.274H342.435V88.6857ZM345.016 89.4798V88.0901H346.604V89.4798H345.016ZM345.81 87.2959H349.582V88.8842H345.81V87.2959ZM348.788 88.0901V86.8988H350.376V88.0901H348.788ZM349.582 86.1047H353.354V87.693H349.582V86.1047ZM352.56 86.8988V84.3178H354.148V86.8988H352.56ZM337.471 78.9573H332.706V77.369H337.471V78.9573ZM332.706 78.9573H327.941V77.369H332.706V78.9573ZM333.5 78.1632V82.8288H331.912V78.1632H333.5ZM332.706 83.623H328.934V82.0346H332.706V83.623ZM328.14 82.8288V81.5383H329.728V82.8288H328.14ZM328.934 82.3325H324.765V80.7442H328.934V82.3325ZM325.559 81.5383V83.3251H323.97V81.5383H325.559ZM324.765 84.1193H322.978V82.531H324.765V84.1193ZM323.772 83.3251V88.0901H322.184V83.3251H323.772ZM322.978 87.2959H324.765V88.8842H322.978V87.2959ZM325.559 88.0901V89.4798H323.97V88.0901H325.559ZM324.765 88.6857H327.048V90.274H324.765V88.6857ZM327.842 89.4798V90.9689H326.254V89.4798H327.842ZM327.048 90.1747H328.934V91.763H327.048V90.1747ZM329.728 90.9689V91.8623H328.14V90.9689H329.728ZM328.934 91.0681H337.471V92.6564H328.934V91.0681ZM336.677 91.8623V88.9835H338.265V91.8623H336.677ZM337.471 89.7776H335.883V88.1893H337.471V89.7776ZM335.089 88.9835V86.8988H336.677V88.9835H335.089ZM335.883 87.693H334.096V86.1047H335.883V87.693ZM333.302 86.8988V84.3178H334.89V86.8988H333.302ZM334.096 85.112H332.706V83.5237H334.096V85.112ZM331.912 84.3178V82.8288H333.5V84.3178H331.912ZM342.435 92.6564H337.471V91.0681H342.435V92.6564ZM358.119 61.486H355.339V59.8977H358.119V61.486ZM356.134 60.6918V70.1224H354.545V60.6918H356.134ZM355.339 70.9165H353.95V69.3282H355.339V70.9165ZM354.744 70.1224V71.6114H353.156V70.1224H354.744ZM353.95 72.4056H347.597V70.8173H353.95V72.4056ZM346.802 71.6114V66.2509H348.391V71.6114H346.802ZM347.597 65.4567H349.582V67.045H347.597V65.4567ZM348.788 66.2509V63.3721H350.376V66.2509H348.788ZM349.582 62.5779H351.17V64.1662H349.582V62.5779ZM350.376 63.3721V61.6845H351.964V63.3721H350.376ZM351.17 60.8904H353.354V62.4787H351.17V60.8904ZM352.56 61.6845V60.6918H354.148V61.6845H352.56ZM353.354 59.8977H355.339V61.486H353.354V59.8977ZM351.964 63.3721V68.8319H350.376V63.3721H351.964ZM327.743 59.8977H330.522V61.486H327.743V59.8977ZM331.316 60.6918V70.1224H329.728V60.6918H331.316ZM330.522 69.3282H331.912V70.9165H330.522V69.3282ZM332.706 70.1224V71.6114H331.118V70.1224H332.706ZM331.912 70.8173H338.265V72.4056H331.912V70.8173ZM337.471 71.6114V66.2509H339.059V71.6114H337.471ZM338.265 67.045H336.28V65.4567H338.265V67.045ZM335.486 66.2509V63.3721H337.074V66.2509H335.486ZM336.28 64.1662H334.692V62.5779H336.28V64.1662ZM333.897 63.3721V61.6845H335.486V63.3721H333.897ZM334.692 62.4787H332.508V60.8904H334.692V62.4787ZM331.713 61.6845V60.6918H333.302V61.6845H331.713ZM332.508 61.486H330.522V59.8977H332.508V61.486ZM335.486 63.3721V68.8319H333.897V63.3721H335.486ZM347.597 67.045H338.265V65.4567H347.597V67.045ZM330.522 61.486H327.941V59.8977H330.522V61.486ZM345.81 76.1778H340.251V74.5895H345.81V76.1778ZM340.251 76.1778H337.471V74.5895H340.251V76.1778ZM324.765 59.8977H327.743V61.486H324.765V59.8977ZM327.743 59.8977H327.941V61.486H327.743V59.8977ZM348.589 76.1778H345.81V74.5895H348.589V76.1778Z" fill="black"/>
<path d="M258.959 92.5H223.026H211.724V73.6057V64.4959H214.254V59.7724H216.447V55.3862H218.472V57.748H220.496V55.3862H223.026V53.6992H225.894V51H231.293V52.1809H235.848V55.3862H238.209V57.748H242.427V61.2907L243.776 62.1341V65.5081H246.307V66.8577H249.512V67.8699H254.236V69.5569H256.26V72.2561H258.959V74.2805H260.478V76.6423H262.839V82.8841H260.478V85.4146H258.959V92.5Z" fill="#5869DD"/>
<path d="M223.026 64.4959H225.894V62.1341M237.366 69.5569H235.848V66.8577M235.848 66.8577H231.293M235.848 66.8577V64.4959M223.026 92.5C223.701 92.5 247.263 92.5 258.959 92.5V85.4146H260.478V82.8841H262.839V76.6423H260.478V74.2805H258.959V72.2561H256.26V69.5569H254.236V67.8699H249.512V66.8577H246.307V65.5081H243.776V62.1341L242.427 61.2907V57.748H238.209V55.3862H235.848V52.1809H231.293V51H225.894V53.6992H223.026V55.3862H220.496V57.748H218.472V55.3862H216.447V59.7724H214.254V64.4959H211.724V73.6057V92.5H223.026Z" stroke="black" stroke-width="1.34959"/>
<path d="M129.398 85.0772V92.5H223.364V83.7276H225.22V81.0285H226.907V78.3293H229.268V74.6179H225.22H221.846V78.3293H219.484V68.8821H215.435V72.5935H211.724V67.1951H209.024V62.4715H205.988V56.7358H202.276V59.0976H199.577V55.0488H196.203V51.3374H190.805H186.081V55.0488H182.033V62.4715H178.996V68.8821H174.61V59.0976H168.199V55.0488H163.138V51.3374H153.016V55.0488H149.642V59.0976H144.919V65.5081H141.207V68.8821H132.772V72.5935H131.085V76.3049H124V81.0285H126.024V85.0772H129.398Z" fill="url(#paint6_linear_1687_4878)"/>
<path d="M151.667 68.8821V66.3516H153.86M153.86 66.3516V64.3272M153.86 66.3516H156.222M163.138 61.4594V64.3272H165.5M196.878 62.4715V64.3272H199.409V66.3516H201.433M190.805 65.5081H186.081V67.5325M129.398 92.5V85.0772H126.024V81.0285H124V76.3049H131.085V72.5935H132.772V68.8821H141.207V65.5081H144.919V59.0976H149.642V55.0488H153.016V51.3374H163.138V55.0488H168.199V59.0976H174.61V68.8821H178.996V62.4715H182.033V55.0488H186.081V51.3374H190.805H196.203V55.0488H199.577V59.0976H202.276V56.7358H205.988V62.4715H209.024V67.1951H211.724V72.5935H215.435V68.8821H219.484V78.3293H221.846V74.6179H225.22H229.268V78.3293H226.907V81.0285H225.22V83.7276H223.364V92.5H129.398Z" stroke="black" stroke-width="1.34959"/>
<path d="M0 93H375" stroke="black" stroke-width="2"/>
<defs>
<linearGradient id="paint0_linear_1687_4878" x1="590.5" y1="93" x2="590.5" y2="186" gradientUnits="userSpaceOnUse">
<stop stop-color="#8F8E93"/>
<stop offset="1" stop-color="#F1EFED"/>
</linearGradient>
<linearGradient id="paint1_linear_1687_4878" x1="13" y1="43.4375" x2="58.4652" y2="43.4375" gradientUnits="userSpaceOnUse">
<stop stop-color="#D6FFBB"/>
<stop offset="1" stop-color="#5869DD"/>
</linearGradient>
<linearGradient id="paint2_linear_1687_4878" x1="-1.29474" y1="43.4375" x2="58.4652" y2="70.9847" gradientUnits="userSpaceOnUse">
<stop stop-color="#D6FFBB"/>
<stop offset="0.950166" stop-color="#5869DD"/>
</linearGradient>
<linearGradient id="paint3_linear_1687_4878" x1="13" y1="43.4375" x2="58.4652" y2="43.4375" gradientUnits="userSpaceOnUse">
<stop stop-color="#D6FFBB"/>
<stop offset="1" stop-color="#5869DD"/>
</linearGradient>
<linearGradient id="paint4_linear_1687_4878" x1="41.5895" y1="32.0712" x2="64.0407" y2="33.0487" gradientUnits="userSpaceOnUse">
<stop stop-color="#D6FFBB"/>
<stop offset="1" stop-color="#5869DD"/>
</linearGradient>
<linearGradient id="paint5_linear_1687_4878" x1="13" y1="43.4375" x2="58.4652" y2="43.4375" gradientUnits="userSpaceOnUse">
<stop stop-color="#D6FFBB"/>
<stop offset="1" stop-color="#5869DD"/>
</linearGradient>
<linearGradient id="paint6_linear_1687_4878" x1="141.853" y1="126.274" x2="232.048" y2="32.1994" gradientUnits="userSpaceOnUse">
<stop stop-color="#5869DD"/>
<stop offset="1" stop-color="#D6FFBB"/>
</linearGradient>
</defs>
</svg>
