<svg width="1550" height="207" viewBox="0 0 1550 207" fill="none" xmlns="http://www.w3.org/2000/svg">
<path d="M42.5 129.062H66M66 129.062V113.562M66 129.062V147.062M66 113.562H36M66 113.562H103.5M66 167.812H36M66 167.812H82.5M66 167.812V147.062M66 167.812V187.188M82.5 167.812V156.062H74.5V147.062H66M82.5 167.812H96.5M96.5 167.812V147.062H103.5V126.062M96.5 167.812H121.5M96.5 167.812V190.562H88V206.562M103.5 126.062V113.562M103.5 126.062H110.5V129.062H121.5M103.5 113.562H121.5M121.5 129.062V113.562M121.5 129.062V147.062M121.5 113.562H164.5M121.5 167.812V206.562M121.5 167.812H152.5M121.5 167.812V147.062M66 187.188V206.562M66 187.188H46.5V181.562M180.5 167.812V131.562M180.5 167.812V187.188M180.5 167.812H164.5M180.5 167.812H196.5M180.5 131.562H164.5M180.5 131.562H196.5M164.5 131.562V113.562M164.5 131.562V147.062H152.5V157.438M164.5 113.562H196.5M152.5 167.812V157.438M152.5 167.812H164.5M152.5 157.438H134.5V147.062H121.5M180.5 187.188V206.562M180.5 187.188H164.5M180.5 187.188H196.5M164.5 187.188V167.812M164.5 187.188H152.5V206.562M644 129.062H620.5V156.062H614M644 129.062V113.562M644 129.062V147.062M644 113.562H614M644 113.562H681.5M644 167.812H614M644 167.812H660.5M644 167.812V147.062M644 167.812V187.188M614 167.812H584M614 167.812V156.062M660.5 167.812V156.062H652.5V147.062H644M660.5 167.812H674.5M674.5 167.812V147.062H681.5V126.062M674.5 167.812H699.5M674.5 167.812V190.562H666V206.562M681.5 126.062V113.562M681.5 126.062H688.5V129.062H699.5M681.5 113.562H699.5M699.5 129.062V113.562M699.5 129.062V147.062M699.5 113.562H742.5M699.5 167.812V206.562M699.5 167.812H730.5M699.5 167.812V147.062M644 187.188V206.562M644 187.188H624.5V181.562M758.5 167.812V131.562M758.5 167.812V187.188M758.5 167.812H742.5M758.5 167.812H774.5M758.5 131.562H742.5M758.5 131.562H774.5M742.5 131.562V113.562M742.5 131.562V147.062H730.5V157.438M742.5 113.562H774.5M730.5 167.812V157.438M730.5 167.812H742.5M730.5 157.438H712.5V147.062H699.5M758.5 187.188V206.562M758.5 187.188H742.5M758.5 187.188H774.5M742.5 187.188V167.812M742.5 187.188H730.5V206.562M614 113.562H584M614 113.562V156.062M614 156.062H598.5V147.062H584M1222 129.062H1198.5V156.062H1192M1222 129.062V113.562M1222 129.062V147.062M1222 113.562H1192M1222 113.562H1259.5M1222 167.812H1192M1222 167.812H1238.5M1222 167.812V147.062M1222 167.812V187.188M1192 167.812H1162M1192 167.812V156.062M1238.5 167.812V156.062H1230.5V147.062H1222M1238.5 167.812H1252.5M1252.5 167.812V147.062H1259.5V126.062M1252.5 167.812H1277.5M1252.5 167.812V190.562H1244V206.562M1259.5 126.062V113.562M1259.5 126.062H1266.5V129.062H1277.5M1259.5 113.562H1277.5M1277.5 129.062V113.562M1277.5 129.062V147.062M1277.5 113.562H1320.5M1277.5 167.812V206.562M1277.5 167.812H1308.5M1277.5 167.812V147.062M1222 187.188V206.562M1222 187.188H1202.5V181.562M1336.5 167.812V131.562M1336.5 167.812V187.188M1336.5 167.812H1320.5M1336.5 167.812H1352.5M1336.5 131.562H1320.5M1336.5 131.562H1352.5M1320.5 131.562V113.562M1320.5 131.562V147.062H1308.5V157.438M1320.5 113.562H1352.5M1308.5 167.812V157.438M1308.5 167.812H1320.5M1308.5 157.438H1290.5V147.062H1277.5M1336.5 187.188V206.562M1336.5 187.188H1320.5M1336.5 187.188H1352.5M1320.5 187.188V167.812M1320.5 187.188H1308.5V206.562M1192 113.562H1162M1192 113.562V156.062M1192 156.062H1176.5V147.062H1162M295 113.562H325M295 113.562H257.5M295 113.562V147.062M295 167.812H325M295 167.812H278.5M295 167.812V147.062M295 167.812V187.188M325 167.812V156.062M325 167.812V131.562H341M325 167.812V187.188M325 167.812H341M278.5 167.812V156.062H286.5V147.062H295M278.5 167.812H264.5M295 147.062H309.5V156.062H325M264.5 167.812V147.062H257.5V126.062M264.5 167.812H239.5M264.5 167.812V190.562H273V206.562M257.5 126.062V113.562M257.5 126.062H250.5V129.062H239.5M257.5 113.562H239.5M239.5 129.062V113.562M239.5 129.062V147.062M239.5 113.562H196.5M239.5 167.812V206.562M239.5 167.812H208.5M239.5 167.812V147.062M295 187.188V206.562M295 187.188H314.5V197.562M196.5 131.562V113.562M196.5 131.562V147.062H208.5V157.438M208.5 167.812V157.438M208.5 167.812H196.5M208.5 157.438H226.5V147.062H239.5M196.5 187.188V167.812M196.5 187.188H208.5V206.562M325 113.562V156.062M325 113.562H341M873 113.562H903M873 113.562H835.5M873 113.562V147.062M873 167.812H903M873 167.812H856.5M873 167.812V147.062M873 167.812V187.188M903 167.812V156.062M903 167.812V131.562H919M903 167.812V187.188M903 167.812H919M856.5 167.812V156.062H864.5V147.062H873M856.5 167.812H842.5M873 147.062H887.5V156.062H903M842.5 167.812V147.062H835.5V126.062M842.5 167.812H817.5M842.5 167.812V190.562H851V206.562M835.5 126.062V113.562M835.5 126.062H828.5V129.062H817.5M835.5 113.562H817.5M817.5 129.062V113.562M817.5 129.062V147.062M817.5 113.562H774.5M817.5 167.812V206.562M817.5 167.812H786.5M817.5 167.812V147.062M873 187.188V206.562M873 187.188H892.5V197.562M774.5 131.562V113.562M774.5 131.562V147.062H786.5V157.438M786.5 167.812V157.438M786.5 167.812H774.5M786.5 157.438H804.5V147.062H817.5M774.5 187.188V167.812M774.5 187.188H786.5V206.562M903 113.562V156.062M903 113.562H919M1451 113.562H1481V156.062M1451 113.562H1413.5M1451 113.562V147.062M1451 167.812H1481V156.062M1451 167.812H1434.5M1451 167.812V147.062M1451 167.812V187.188M1434.5 167.812V156.062H1442.5V147.062H1451M1434.5 167.812H1420.5M1451 147.062H1465.5V156.062H1481M1420.5 167.812V147.062H1413.5V126.062M1420.5 167.812H1395.5M1420.5 167.812V190.562H1429V206.562M1413.5 126.062V113.562M1413.5 126.062H1406.5V129.062H1395.5M1413.5 113.562H1395.5M1395.5 129.062V113.562M1395.5 129.062V147.062M1395.5 113.562H1352.5M1395.5 167.812V206.562M1395.5 167.812H1364.5M1395.5 167.812V147.062M1451 187.188V206.562M1451 187.188H1470.5V197.562M1352.5 131.562V113.562M1352.5 131.562V147.062H1364.5V157.438M1364.5 167.812V157.438M1364.5 167.812H1352.5M1364.5 157.438H1382.5V147.062H1395.5M1352.5 187.188V167.812M1352.5 187.188H1364.5V206.562M439.5 113.562H469.5M439.5 113.562H402M439.5 113.562V147.062M439.5 167.812H469.5M439.5 167.812H423M439.5 167.812V147.062M439.5 167.812V187.188M469.5 167.812V156.062M469.5 167.812V131.562H485.5M469.5 167.812V187.188M469.5 167.812H485.5M423 167.812V156.062H431V147.062H439.5M423 167.812H409M439.5 147.062H454V156.062H469.5M409 167.812V147.062H402V126.062M409 167.812H384M409 167.812V190.562H417.5V206.562M402 126.062V113.562M402 126.062H395V129.062H384M402 113.562H384M384 129.062V113.562M384 129.062V147.062M384 113.562H341M384 167.812V206.562M384 167.812H353M384 167.812V147.062M439.5 187.188V206.562M439.5 187.188H459V197.562M341 131.562V113.562M341 131.562V147.062H353V157.438M353 167.812V157.438M353 167.812H341M353 157.438H371V147.062H384M325 187.188V206.562M325 187.188H341M341 187.188V167.812M341 187.188H353V206.562M469.5 113.562V156.062M469.5 113.562H485.5M1017.5 113.562H1047.5M1017.5 113.562H980M1017.5 113.562V147.062M1017.5 167.812H1047.5M1017.5 167.812H1001M1017.5 167.812V147.062M1017.5 167.812V187.188M1047.5 167.812V156.062M1047.5 167.812V131.562H1063.5M1047.5 167.812V187.188M1047.5 167.812H1063.5M1001 167.812V156.062H1009V147.062H1017.5M1001 167.812H987M1017.5 147.062H1032V156.062H1047.5M987 167.812V147.062H980V126.062M987 167.812H962M987 167.812V190.562H995.5V206.562M980 126.062V113.562M980 126.062H973V129.062H962M980 113.562H962M962 129.062V113.562M962 129.062V147.062M962 113.562H919M962 167.812V206.562M962 167.812H931M962 167.812V147.062M1017.5 187.188V206.562M1017.5 187.188H1037V197.562M919 131.562V113.562M919 131.562V147.062H931V157.438M931 167.812V157.438M931 167.812H919M931 157.438H949V147.062H962M903 187.188V206.562M903 187.188H919M919 187.188V167.812M919 187.188H931V206.562M1047.5 113.562V156.062M1047.5 113.562H1063.5M584 113.562H546.5M584 113.562V147.062M584 167.812H567.5M584 167.812V147.062M584 167.812V187.188M567.5 167.812V156.062H575.5V147.062H584M567.5 167.812H553.5M553.5 167.812V147.062H546.5V126.062M553.5 167.812H528.5M553.5 167.812V190.562H562V206.562M546.5 126.062V113.562M546.5 126.062H539.5V129.062H528.5M546.5 113.562H528.5M528.5 129.062V113.562M528.5 129.062V147.062M528.5 113.562H485.5M528.5 167.812V206.562M528.5 167.812H497.5M528.5 167.812V147.062M584 187.188V206.562M584 187.188H603.5V197.562M485.5 131.562V113.562M485.5 131.562V147.062H497.5V157.438M497.5 167.812V157.438M497.5 167.812H485.5M497.5 157.438H515.5V147.062H528.5M469.5 187.188V206.562M469.5 187.188H485.5M485.5 187.188V167.812M485.5 187.188H497.5V206.562M1162 113.562H1124.5M1162 113.562V147.062M1162 167.812H1145.5M1162 167.812V147.062M1162 167.812V187.188M1145.5 167.812V156.062H1153.5V147.062H1162M1145.5 167.812H1131.5M1131.5 167.812V147.062H1124.5V126.062M1131.5 167.812H1106.5M1131.5 167.812V190.562H1140V206.562M1124.5 126.062V113.562M1124.5 126.062H1117.5V129.062H1106.5M1124.5 113.562H1106.5M1106.5 129.062V113.562M1106.5 129.062V147.062M1106.5 113.562H1063.5M1106.5 167.812V206.562M1106.5 167.812H1075.5M1106.5 167.812V147.062M1162 187.188V206.562M1162 187.188H1181.5V197.562M1063.5 131.562V113.562M1063.5 131.562V147.062H1075.5V157.438M1075.5 167.812V157.438M1075.5 167.812H1063.5M1075.5 157.438H1093.5V147.062H1106.5M1047.5 187.188V206.562M1047.5 187.188H1063.5M1063.5 187.188V167.812M1063.5 187.188H1075.5V206.562" stroke="url(#paint0_linear_1687_4992)" stroke-width="2"/>
<path d="M0 113.562H1550" stroke="black" stroke-width="2"/>
<path d="M125 86.0625V89.3125V97.3125H133.5V94.3125H137.75V92.5625V89.3125H140.25V86.0625V83.8125H137.75V79.0625H133.5V81.3125H131.5V83.8125H128V86.0625H125Z" fill="#5869DD"/>
<path d="M116.312 1.4375V2.8125H113.688V4.375H111.75V6.0625H110.25V7.8125H108.062V9.5625H105.812V11.5H103.5V14.8125H105.312V17.0625H106.562H114.625H123.375H126.188H127.188V15.4375V10.3125H128.625V7.375H130.75V5.125H133.75H136.375V1.4375H116.312Z" fill="#5869DD"/>
<path d="M144.625 36.5625H146.125V30.8125H133.5V29.875H132.25H129.562V31.6875H125V33.1875H123.375V36.5625H144.625Z" fill="black"/>
<path d="M123.375 17.0625V23.1875H128.625V20.9375H126.188V17.0625H123.375Z" fill="black"/>
<path d="M103.5 14.8125H101.938V21.3125V23.1875H100.625V24.875H99.125V29.875H97.4375V35.625H106.562V17.0625H105.312V14.8125H103.5Z" fill="black"/>
<path d="M137.75 15.5625H147.625V12.5625H144.625H135V9.125H133.75V7.375V5.125H130.75V7.375H128.625V10.3125H127.188V15.4375H129.562L135 15.5205L137.75 15.5625Z" fill="black"/>
<path d="M103.5 48.9375H101.815L101.938 50.0625H99.125V52.5625H97.4375V60.1875H99.125V62.0625H101.815V64.8125H103.5V48.9375Z" fill="url(#paint1_linear_1687_4992)"/>
<path d="M92 79.0625V104.062H95.9259V99.0625H99.3611V95.5625H105.25V79.0625H101.815H92Z" fill="url(#paint2_linear_1687_4992)"/>
<path d="M146.75 100.312H137.75V94.3125H133.5V97.3125H125V108.312H146.75V100.312Z" fill="url(#paint3_linear_1687_4992)"/>
<path d="M105.25 79.0625V95.5625H113.5V92.5625H120.25V89.3125H125V86.0625H128V83.8125H131.5V81.3125H133.5V79.0625H137.75V70.0625H125V67.8125H120.25V66.0625H116V62.0625H113.5V58.0625H111.5V50.0625V41.5625H113.5V39.8125H110.562H108.062V42.9375H105.812V45.6875H103.5V48.9375V64.8125V79.0625H105.25Z" fill="#5869DD"/>
<path d="M144.625 12.5625V7.6875H143.438V4.375H140.188V2.8125H138.25V1.4375H136.375V5.125H133.75V7.375V9.125H135V12.5625H144.625Z" fill="url(#paint4_linear_1687_4992)"/>
<path d="M133.5 53.3125H131.5V50.0625H128V47.0625H125V45.0625H122V41.5625H116V39.8125H113.5V41.5625H111.5V50.0625V58.0625H113.5V62.0625H116V66.0625H120.25V67.8125H125V70.0625H137.75V67.8125H135.75V64.0625V60.8125H133.5V58.0625V53.3125Z" fill="url(#paint5_linear_1687_4992)"/>
<path d="M92 79.0625V78.0625H91V79.0625H92ZM92 104.062H91V105.062H92V104.062ZM95.9259 104.062V105.062H96.9259V104.062H95.9259ZM95.9259 99.0625V98.0625H94.9259V99.0625H95.9259ZM99.3611 99.0625V100.062H100.361V99.0625H99.3611ZM99.3611 95.5625V94.5625H98.3611V95.5625H99.3611ZM105.25 79.0625H106.25V78.0625H105.25V79.0625ZM113.5 95.5625V96.5625H114.5V95.5625H113.5ZM113.5 92.5625V91.5625H112.5V92.5625H113.5ZM120.25 92.5625V93.5625H121.25V92.5625H120.25ZM120.25 89.3125V88.3125H119.25V89.3125H120.25ZM125 86.0625V85.0625H124V86.0625H125ZM128 86.0625V87.0625H129V86.0625H128ZM128 83.8125V82.8125H127V83.8125H128ZM131.5 83.8125V84.8125H132.5V83.8125H131.5ZM131.5 81.3125V80.3125H130.5V81.3125H131.5ZM133.5 81.3125V82.3125H134.5V81.3125H133.5ZM133.5 79.0625V78.0625H132.5V79.0625H133.5ZM146.75 70.0625V71.0625H147.75V70.0625H146.75ZM146.75 58.0625H147.75V57.0625H146.75V58.0625ZM143 58.0625H142V59.0625H143V58.0625ZM143 55.0625H144V54.0625H143V55.0625ZM140.25 55.0625H139.25V56.0625H140.25V55.0625ZM140.25 53.3125H141.25V52.3125H140.25V53.3125ZM131.5 53.3125H130.5V54.3125H131.5V53.3125ZM131.5 50.0625H132.5V49.0625H131.5V50.0625ZM128 50.0625H127V51.0625H128V50.0625ZM128 47.0625H129V46.0625H128V47.0625ZM125 47.0625H124V48.0625H125V47.0625ZM122 45.0625H121V46.0625H122V45.0625ZM122 41.5625H123V40.5625H122V41.5625ZM116 41.5625H115V42.5625H116V41.5625ZM116 39.8125H117V38.8125H116V39.8125ZM113.5 41.5625V42.5625H114.5V41.5625H113.5ZM111.5 41.5625V40.5625H110.5V41.5625H111.5ZM111.5 58.0625H110.5V59.0625H111.5V58.0625ZM113.5 58.0625H114.5V57.0625H113.5V58.0625ZM113.5 62.0625H112.5V63.0625H113.5V62.0625ZM116 62.0625H117V61.0625H116V62.0625ZM116 66.0625H115V67.0625H116V66.0625ZM120.25 66.0625H121.25V65.0625H120.25V66.0625ZM120.25 67.8125H119.25V68.8125H120.25V67.8125ZM125 67.8125H126V66.8125H125V67.8125ZM125 70.0625H124V71.0625H125V70.0625ZM137.75 67.8125H138.75V66.8125H137.75V67.8125ZM135.75 67.8125H134.75V68.8125H135.75V67.8125ZM135.75 60.8125H136.75V59.8125H135.75V60.8125ZM133.5 60.8125H132.5V61.8125H133.5V60.8125ZM137.75 83.8125H136.75V84.8125H137.75V83.8125ZM140.25 83.8125H141.25V82.8125H140.25V83.8125ZM140.25 89.3125V90.3125H141.25V89.3125H140.25ZM137.75 89.3125V88.3125H136.75V89.3125H137.75ZM137.75 100.312H136.75V101.312H137.75V100.312ZM146.75 100.312H147.75V99.3125H146.75V100.312ZM146.75 108.312V109.312H147.75V108.312H146.75ZM125 108.312H124V109.312H125V108.312ZM133.5 97.3125V98.3125H134.5V97.3125H133.5ZM133.5 94.3125V93.3125H132.5V94.3125H133.5ZM131.5 45.0625V46.0625H132.5V45.0625H131.5ZM131.5 42.9375V41.9375H130.5V42.9375H131.5ZM134.625 42.9375V43.9375H135.625V42.9375H134.625ZM134.625 41.5625V40.5625H133.625V41.5625H134.625ZM137.75 41.5625V42.5625H138.75V41.5625H137.75ZM137.75 39.8125V38.8125H136.75V39.8125H137.75ZM141.75 39.8125V40.8125H142.75V39.8125H141.75ZM141.75 38.5625V37.5625H140.75V38.5625H141.75ZM144.625 38.5625V39.5625H145.625V38.5625H144.625ZM146.125 36.5625V37.5625H147.125V36.5625H146.125ZM147.625 30.8125V31.8125H148.625V30.8125H147.625ZM147.625 28.4375V27.4375H146.625V28.4375H147.625ZM149.25 28.4375V29.4375H150.25V28.4375H149.25ZM149.25 24.4375H150.25V23.4375H149.25V24.4375ZM146.75 24.4375H145.75V25.4375H146.75V24.4375ZM146.75 23.1875H147.75V22.1875H146.75V23.1875ZM144.625 23.1875H143.625V24.1875H144.625V23.1875ZM144.625 21.3125H145.625V20.3125H144.625V21.3125ZM137.75 21.3125H136.75V22.3125H137.75V21.3125ZM147.625 15.5625V16.5625H148.625V15.5625H147.625ZM147.625 12.5625H148.625V11.5625H147.625V12.5625ZM144.625 7.6875H145.625V6.6875H144.625V7.6875ZM143.438 7.6875H142.438V8.6875H143.438V7.6875ZM143.438 4.375H144.438V3.375H143.438V4.375ZM140.188 4.375H139.188V5.375H140.188V4.375ZM140.188 2.8125H141.188V1.8125H140.188V2.8125ZM138.25 2.8125H137.25V3.8125H138.25V2.8125ZM138.25 1.4375H139.25V0.4375H138.25V1.4375ZM116.312 1.4375V0.4375H115.312V1.4375H116.312ZM116.312 2.8125V3.8125H117.312V2.8125H116.312ZM113.688 2.8125V1.8125H112.688V2.8125H113.688ZM113.688 4.375V5.375H114.688V4.375H113.688ZM111.75 4.375V3.375H110.75V4.375H111.75ZM111.75 6.0625V7.0625H112.75V6.0625H111.75ZM110.25 6.0625V5.0625H109.25V6.0625H110.25ZM110.25 7.8125V8.8125H111.25V7.8125H110.25ZM108.062 7.8125V6.8125H107.062V7.8125H108.062ZM108.062 9.5625V10.5625H109.062V9.5625H108.062ZM105.812 9.5625V8.5625H104.812V9.5625H105.812ZM105.812 11.5V12.5H106.812V11.5H105.812ZM103.5 11.5V10.5H102.5V11.5H103.5ZM101.938 14.8125V13.8125H100.938V14.8125H101.938ZM101.938 23.1875V24.1875H102.938V23.1875H101.938ZM100.625 23.1875V22.1875H99.625V23.1875H100.625ZM100.625 24.875V25.875H101.625V24.875H100.625ZM99.125 24.875V23.875H98.125V24.875H99.125ZM99.125 29.875V30.875H100.125V29.875H99.125ZM97.4375 29.875V28.875H96.4375V29.875H97.4375ZM97.4375 35.625H96.4375V36.625H97.4375V35.625ZM105.312 17.0625H104.312V18.0625H105.312V17.0625ZM105.312 14.8125H106.312V13.8125H105.312V14.8125ZM127.188 17.0625V18.0625H128.188V17.0625H127.188ZM129.562 15.4375L129.578 14.4376L129.57 14.4375H129.562V15.4375ZM117.188 26.75H118.188V25.75H117.188V26.75ZM117.188 28.8125H116.188V29.8125H117.188V28.8125ZM114.625 28.8125H113.625V29.8125H114.625V28.8125ZM123.375 23.1875H122.375V24.1875H123.375V23.1875ZM128.625 23.1875V24.1875H129.625V23.1875H128.625ZM128.625 20.9375H129.625V19.9375H128.625V20.9375ZM126.188 20.9375H125.188V21.9375H126.188V20.9375ZM109.188 35.625H110.188V34.625H109.188V35.625ZM109.188 37.4375H108.188V38.4375H109.188V37.4375ZM110.562 37.4375H111.562V36.4375H110.562V37.4375ZM135 12.5625H134V13.5625H135V12.5625ZM135 9.125H136V8.125H135V9.125ZM133.75 9.125H132.75V10.125H133.75V9.125ZM136.375 5.125V6.125H137.375V5.125H136.375ZM135 15.5205L134.985 16.5204L135 15.5205ZM108.062 39.8125V38.8125H107.062V39.8125H108.062ZM108.062 42.9375V43.9375H109.062V42.9375H108.062ZM105.812 42.9375V41.9375H104.812V42.9375H105.812ZM105.812 45.6875V46.6875H106.812V45.6875H105.812ZM103.5 45.6875V44.6875H102.5V45.6875H103.5ZM101.815 48.9375V47.9375H100.7L100.821 49.0459L101.815 48.9375ZM101.938 50.0625V51.0625H103.052L102.932 49.9541L101.938 50.0625ZM99.125 50.0625V49.0625H98.125V50.0625H99.125ZM99.125 52.5625V53.5625H100.125V52.5625H99.125ZM97.4375 52.5625V51.5625H96.4375V52.5625H97.4375ZM97.4375 60.1875H96.4375V61.1875H97.4375V60.1875ZM99.125 60.1875H100.125V59.1875H99.125V60.1875ZM99.125 62.0625H98.125V63.0625H99.125V62.0625ZM101.815 62.0625H102.815V61.0625H101.815V62.0625ZM101.815 64.8125H100.815V65.8125H101.815V64.8125ZM123.375 33.1875V32.1875H122.375V33.1875H123.375ZM125 33.1875V34.1875H126V33.1875H125ZM125 31.6875V30.6875H124V31.6875H125ZM129.562 31.6875V32.6875H130.562V31.6875H129.562ZM129.562 29.875V28.875H128.562V29.875H129.562ZM133.5 30.8125H132.5V31.8125H133.5V30.8125ZM133.5 29.875H134.5V28.875H133.5V29.875ZM123.375 36.5625H122.375V37.5625H123.375V36.5625ZM130.75 5.125V4.125H129.75V5.125H130.75ZM130.75 7.375V8.375H131.75V7.375H130.75ZM128.625 7.375V6.375H127.625V7.375H128.625ZM128.625 10.3125V11.3125H129.625V10.3125H128.625ZM127.188 10.3125V9.3125H126.188V10.3125H127.188ZM103.5 79.0625H102.5V80.0625H103.5V79.0625ZM128 86.8125V87.8125H129V86.8125H128ZM128 84.5625V83.5625H127V84.5625H128ZM131.5 84.5625V85.5625H132.5V84.5625H131.5ZM131.5 82.0625V81.0625H130.5V82.0625H131.5ZM133.5 82.0625V83.0625H134.5V82.0625H133.5ZM133.5 79.8125V78.8125H132.5V79.8125H133.5ZM91 79.0625V104.062H93V79.0625H91ZM92 105.062H95.9259V103.062H92V105.062ZM96.9259 104.062V99.0625H94.9259V104.062H96.9259ZM95.9259 100.062H99.3611V98.0625H95.9259V100.062ZM100.361 99.0625V95.5625H98.3611V99.0625H100.361ZM99.3611 96.5625H105.25V94.5625H99.3611V96.5625ZM106.25 95.5625V79.0625H104.25V95.5625H106.25ZM105.25 78.0625H101.815V80.0625H105.25V78.0625ZM101.815 78.0625H92V80.0625H101.815V78.0625ZM105.25 96.5625H113.5V94.5625H105.25V96.5625ZM114.5 95.5625V92.5625H112.5V95.5625H114.5ZM113.5 93.5625H120.25V91.5625H113.5V93.5625ZM121.25 92.5625V89.3125H119.25V92.5625H121.25ZM120.25 90.3125H125V88.3125H120.25V90.3125ZM126 89.3125V86.0625H124V89.3125H126ZM125 87.0625H128V85.0625H125V87.0625ZM129 86.0625V83.8125H127V86.0625H129ZM128 84.8125H131.5V82.8125H128V84.8125ZM132.5 83.8125V81.3125H130.5V83.8125H132.5ZM131.5 82.3125H133.5V80.3125H131.5V82.3125ZM134.5 81.3125V79.0625H132.5V81.3125H134.5ZM133.5 80.0625H137.75V78.0625H133.5V80.0625ZM138.75 79.0625V70.0625H136.75V79.0625H138.75ZM137.75 71.0625H146.75V69.0625H137.75V71.0625ZM147.75 70.0625V58.0625H145.75V70.0625H147.75ZM146.75 57.0625H143V59.0625H146.75V57.0625ZM144 58.0625V55.0625H142V58.0625H144ZM143 54.0625H140.25V56.0625H143V54.0625ZM141.25 55.0625V53.3125H139.25V55.0625H141.25ZM140.25 52.3125H133.5V54.3125H140.25V52.3125ZM133.5 52.3125H131.5V54.3125H133.5V52.3125ZM132.5 53.3125V50.0625H130.5V53.3125H132.5ZM131.5 49.0625H128V51.0625H131.5V49.0625ZM129 50.0625V47.0625H127V50.0625H129ZM128 46.0625H125V48.0625H128V46.0625ZM126 47.0625V45.0625H124V47.0625H126ZM125 44.0625H122V46.0625H125V44.0625ZM123 45.0625V41.5625H121V45.0625H123ZM122 40.5625H116V42.5625H122V40.5625ZM117 41.5625V39.8125H115V41.5625H117ZM116 38.8125H113.5V40.8125H116V38.8125ZM112.5 39.8125V41.5625H114.5V39.8125H112.5ZM113.5 40.5625H111.5V42.5625H113.5V40.5625ZM110.5 41.5625V50.0625H112.5V41.5625H110.5ZM110.5 50.0625V58.0625H112.5V50.0625H110.5ZM111.5 59.0625H113.5V57.0625H111.5V59.0625ZM112.5 58.0625V62.0625H114.5V58.0625H112.5ZM113.5 63.0625H116V61.0625H113.5V63.0625ZM115 62.0625V66.0625H117V62.0625H115ZM116 67.0625H120.25V65.0625H116V67.0625ZM119.25 66.0625V67.8125H121.25V66.0625H119.25ZM120.25 68.8125H125V66.8125H120.25V68.8125ZM124 67.8125V70.0625H126V67.8125H124ZM125 71.0625H137.75V69.0625H125V71.0625ZM138.75 70.0625V67.8125H136.75V70.0625H138.75ZM137.75 66.8125H135.75V68.8125H137.75V66.8125ZM136.75 67.8125V64.0625H134.75V67.8125H136.75ZM136.75 64.0625V60.8125H134.75V64.0625H136.75ZM135.75 59.8125H133.5V61.8125H135.75V59.8125ZM134.5 60.8125V58.0625H132.5V60.8125H134.5ZM136.75 79.0625V83.8125H138.75V79.0625H136.75ZM137.75 84.8125H140.25V82.8125H137.75V84.8125ZM139.25 83.8125V86.0625H141.25V83.8125H139.25ZM139.25 86.0625V89.3125H141.25V86.0625H139.25ZM140.25 88.3125H137.75V90.3125H140.25V88.3125ZM136.75 89.3125V92.5625H138.75V89.3125H136.75ZM137.75 101.312H146.75V99.3125H137.75V101.312ZM145.75 100.312V108.312H147.75V100.312H145.75ZM146.75 107.312H125V109.312H146.75V107.312ZM126 108.312V97.3125H124V108.312H126ZM126 97.3125V89.3125H124V97.3125H126ZM125 98.3125H133.5V96.3125H125V98.3125ZM134.5 97.3125V94.3125H132.5V97.3125H134.5ZM136.75 92.5625V94.3125H138.75V92.5625H136.75ZM136.75 94.3125V100.312H138.75V94.3125H136.75ZM133.5 95.3125H137.75V93.3125H133.5V95.3125ZM125 46.0625H131.5V44.0625H125V46.0625ZM132.5 45.0625V42.9375H130.5V45.0625H132.5ZM131.5 43.9375H134.625V41.9375H131.5V43.9375ZM135.625 42.9375V41.5625H133.625V42.9375H135.625ZM134.625 42.5625H137.75V40.5625H134.625V42.5625ZM138.75 41.5625V39.8125H136.75V41.5625H138.75ZM137.75 40.8125H141.75V38.8125H137.75V40.8125ZM142.75 39.8125V38.5625H140.75V39.8125H142.75ZM141.75 39.5625H144.625V37.5625H141.75V39.5625ZM145.625 38.5625V36.5625H143.625V38.5625H145.625ZM144.625 37.5625H146.125V35.5625H144.625V37.5625ZM147.125 36.5625V30.8125H145.125V36.5625H147.125ZM146.125 31.8125H147.625V29.8125H146.125V31.8125ZM148.625 30.8125V28.4375H146.625V30.8125H148.625ZM147.625 29.4375H149.25V27.4375H147.625V29.4375ZM150.25 28.4375V24.4375H148.25V28.4375H150.25ZM149.25 23.4375H146.75V25.4375H149.25V23.4375ZM147.75 24.4375V23.1875H145.75V24.4375H147.75ZM146.75 22.1875H144.625V24.1875H146.75V22.1875ZM145.625 23.1875V21.3125H143.625V23.1875H145.625ZM144.625 20.3125H137.75V22.3125H144.625V20.3125ZM138.75 21.3125V15.5625H136.75V21.3125H138.75ZM137.75 16.5625H147.625V14.5625H137.75V16.5625ZM148.625 15.5625V12.5625H146.625V15.5625H148.625ZM147.625 11.5625H144.625V13.5625H147.625V11.5625ZM145.625 12.5625V7.6875H143.625V12.5625H145.625ZM144.625 6.6875H143.438V8.6875H144.625V6.6875ZM144.438 7.6875V4.375H142.438V7.6875H144.438ZM143.438 3.375H140.188V5.375H143.438V3.375ZM141.188 4.375V2.8125H139.188V4.375H141.188ZM140.188 1.8125H138.25V3.8125H140.188V1.8125ZM139.25 2.8125V1.4375H137.25V2.8125H139.25ZM115.312 1.4375V2.8125H117.312V1.4375H115.312ZM116.312 1.8125H113.688V3.8125H116.312V1.8125ZM112.688 2.8125V4.375H114.688V2.8125H112.688ZM113.688 3.375H111.75V5.375H113.688V3.375ZM110.75 4.375V6.0625H112.75V4.375H110.75ZM111.75 5.0625H110.25V7.0625H111.75V5.0625ZM109.25 6.0625V7.8125H111.25V6.0625H109.25ZM110.25 6.8125H108.062V8.8125H110.25V6.8125ZM107.062 7.8125V9.5625H109.062V7.8125H107.062ZM108.062 8.5625H105.812V10.5625H108.062V8.5625ZM104.812 9.5625V11.5H106.812V9.5625H104.812ZM105.812 10.5H103.5V12.5H105.812V10.5ZM102.5 11.5V14.8125H104.5V11.5H102.5ZM103.5 13.8125H101.938V15.8125H103.5V13.8125ZM100.938 14.8125V21.3125H102.938V14.8125H100.938ZM100.938 21.3125V23.1875H102.938V21.3125H100.938ZM101.938 22.1875H100.625V24.1875H101.938V22.1875ZM99.625 23.1875V24.875H101.625V23.1875H99.625ZM100.625 23.875H99.125V25.875H100.625V23.875ZM98.125 24.875V29.875H100.125V24.875H98.125ZM99.125 28.875H97.4375V30.875H99.125V28.875ZM96.4375 29.875V35.625H98.4375V29.875H96.4375ZM97.4375 36.625H106.562V34.625H97.4375V36.625ZM107.562 35.625V17.0625H105.562V35.625H107.562ZM106.562 16.0625H105.312V18.0625H106.562V16.0625ZM106.312 17.0625V14.8125H104.312V17.0625H106.312ZM105.312 13.8125H103.5V15.8125H105.312V13.8125ZM128.188 17.0625V15.4375H126.188V17.0625H128.188ZM127.188 16.4375H129.562V14.4375H127.188V16.4375ZM106.562 18.0625H114.625V16.0625H106.562V18.0625ZM113.625 17.0625V26.75H115.625V17.0625H113.625ZM114.625 27.75H117.188V25.75H114.625V27.75ZM116.188 26.75V28.8125H118.188V26.75H116.188ZM117.188 29.8125H118.938V27.8125H117.188V29.8125ZM118.938 27.8125H114.625V29.8125H118.938V27.8125ZM115.625 28.8125V26.75H113.625V28.8125H115.625ZM114.625 18.0625H123.375V16.0625H114.625V18.0625ZM122.375 17.0625V23.1875H124.375V17.0625H122.375ZM123.375 24.1875H128.625V22.1875H123.375V24.1875ZM129.625 23.1875V20.9375H127.625V23.1875H129.625ZM128.625 19.9375H126.188V21.9375H128.625V19.9375ZM123.375 18.0625H126.188V16.0625H123.375V18.0625ZM126.188 18.0625H127.188V16.0625H126.188V18.0625ZM127.188 20.9375V17.0625H125.188V20.9375H127.188ZM106.562 36.625H109.188V34.625H106.562V36.625ZM108.188 35.625V37.4375H110.188V35.625H108.188ZM109.188 38.4375H110.562V36.4375H109.188V38.4375ZM109.562 37.4375V39.8125H111.562V37.4375H109.562ZM110.562 40.8125H113.5V38.8125H110.562V40.8125ZM136 12.5625V9.125H134V12.5625H136ZM135 8.125H133.75V10.125H135V8.125ZM134.75 9.125V7.375H132.75V9.125H134.75ZM134.75 7.375V5.125H132.75V7.375H134.75ZM133.75 6.125H136.375V4.125H133.75V6.125ZM138.25 0.4375H136.375V2.4375H138.25V0.4375ZM136.375 0.4375H116.312V2.4375H136.375V0.4375ZM137.375 5.125V1.4375H135.375V5.125H137.375ZM129.547 16.4374L134.985 16.5204L135.015 14.5206L129.578 14.4376L129.547 16.4374ZM134.985 16.5204L137.735 16.5624L137.765 14.5626L135.015 14.5206L134.985 16.5204ZM144.625 11.5625H135V13.5625H144.625V11.5625ZM110.562 38.8125H108.062V40.8125H110.562V38.8125ZM107.062 39.8125V42.9375H109.062V39.8125H107.062ZM108.062 41.9375H105.812V43.9375H108.062V41.9375ZM104.812 42.9375V45.6875H106.812V42.9375H104.812ZM105.812 44.6875H103.5V46.6875H105.812V44.6875ZM102.5 45.6875V48.9375H104.5V45.6875H102.5ZM103.5 47.9375H101.815V49.9375H103.5V47.9375ZM100.821 49.0459L100.943 50.1709L102.932 49.9541L102.809 48.8291L100.821 49.0459ZM101.938 49.0625H99.125V51.0625H101.938V49.0625ZM98.125 50.0625V52.5625H100.125V50.0625H98.125ZM99.125 51.5625H97.4375V53.5625H99.125V51.5625ZM96.4375 52.5625V60.1875H98.4375V52.5625H96.4375ZM97.4375 61.1875H99.125V59.1875H97.4375V61.1875ZM98.125 60.1875V62.0625H100.125V60.1875H98.125ZM99.125 63.0625H101.815V61.0625H99.125V63.0625ZM100.815 62.0625V64.8125H102.815V62.0625H100.815ZM102.5 48.9375V64.8125H104.5V48.9375H102.5ZM103.5 63.8125H101.815V65.8125H103.5V63.8125ZM123.375 34.1875H125V32.1875H123.375V34.1875ZM126 33.1875V31.6875H124V33.1875H126ZM125 32.6875H129.562V30.6875H125V32.6875ZM130.562 31.6875V29.875H128.562V31.6875H130.562ZM129.562 30.875H132.25V28.875H129.562V30.875ZM146.125 29.8125H133.5V31.8125H146.125V29.8125ZM134.5 30.8125V29.875H132.5V30.8125H134.5ZM133.5 28.875H132.25V30.875H133.5V28.875ZM122.375 33.1875V36.5625H124.375V33.1875H122.375ZM123.375 37.5625H144.625V35.5625H123.375V37.5625ZM133.75 4.125H130.75V6.125H133.75V4.125ZM129.75 5.125V7.375H131.75V5.125H129.75ZM130.75 6.375H128.625V8.375H130.75V6.375ZM127.625 7.375V10.3125H129.625V7.375H127.625ZM128.625 9.3125H127.188V11.3125H128.625V9.3125ZM126.188 10.3125V15.4375H128.188V10.3125H126.188ZM102.5 64.8125V79.0625H104.5V64.8125H102.5ZM103.5 80.0625H105.25V78.0625H103.5V80.0625ZM134.5 58.0625V53.3125H132.5V58.0625H134.5ZM125 87.8125H128V85.8125H125V87.8125ZM129 86.8125V84.5625H127V86.8125H129ZM128 85.5625H131.5V83.5625H128V85.5625ZM132.5 84.5625V82.0625H130.5V84.5625H132.5ZM131.5 83.0625H133.5V81.0625H131.5V83.0625ZM134.5 82.0625V79.8125H132.5V82.0625H134.5ZM133.5 80.8125H137.75V78.8125H133.5V80.8125Z" fill="black"/>
<path d="M733 113.312H679.75H663V85.3125V71.8125H666.75V64.8125H670V58.3125H673V61.8125H676V58.3125H679.75V55.8125H684V51.8125H692V53.5625H698.75V58.3125H702.25V61.8125H708.5V67.0625L710.5 68.3125V73.3125H714.25V75.3125H719V76.8125H726V79.3125H729V83.3125H733V86.3125H735.25V89.8125H738.75V99.0625H735.25V102.812H733V113.312Z" fill="#5869DD"/>
<path d="M679.75 71.8125H684V68.3125M701 79.3125H698.75V75.3125M698.75 75.3125H692M698.75 75.3125V71.8125M679.75 113.312C680.75 113.312 715.667 113.312 733 113.312V102.812H735.25V99.0625H738.75V89.8125H735.25V86.3125H733V83.3125H729V79.3125H726V76.8125H719V75.3125H714.25V73.3125H710.5V68.3125L708.5 67.0625V61.8125H702.25V58.3125H698.75V53.5625H692V51.8125H684V55.8125H679.75V58.3125H676V61.8125H673V58.3125H670V64.8125H666.75V71.8125H663V85.3125V113.312H679.75Z" stroke="black" stroke-width="2"/>
<path d="M541 102.312V113.312H680.25V100.312H683V96.3125H685.5V92.3125H689V86.8125H683H678V92.3125H674.5V78.3125H668.5V83.8125H663V75.8125H659V68.8125H654.5V60.3125H649V63.8125H645V57.8125H640V52.3125H632H625V57.8125H619V68.8125H614.5V78.3125H608V63.8125H598.5V57.8125H591V52.3125H576V57.8125H571V63.8125H564V73.3125H558.5V78.3125H546V83.8125H543.5V89.3125H533V96.3125H536V102.312H541Z" fill="url(#paint6_linear_1687_4992)"/>
<path d="M574 78.3125V74.5625H577.25M577.25 74.5625V71.5625M577.25 74.5625H580.75M591 67.3125V71.5625H594.5M641 68.8125V71.5625H644.75V74.5625H647.75M632 73.3125H625V76.3125M541 113.312V102.312H536V96.3125H533V89.3125H543.5V83.8125H546V78.3125H558.5V73.3125H564V63.8125H571V57.8125H576V52.3125H591V57.8125H598.5V63.8125H608V78.3125H614.5V68.8125H619V57.8125H625V52.3125H632H640V57.8125H645V63.8125H649V60.3125H654.5V68.8125H659V75.8125H663V83.8125H668.5V78.3125H674.5V92.3125H678V86.8125H683H689V92.3125H685.5V96.3125H683V100.312H680.25V113.312H541Z" stroke="black" stroke-width="2"/>
<path d="M1417 102.312V113.312H1484V78.3125V63.8125H1474.5V57.8125H1467V52.3125H1452V57.8125H1447V63.8125H1440V73.3125H1434.5V78.3125H1422V83.8125H1419.5V89.3125H1409V96.3125H1412V102.312H1417Z" fill="#5869DD"/>
<path d="M1452 83.8125V78.3125H1456V73.3125H1460M1417 113.312V102.312H1412V96.3125H1409V89.3125H1419.5V83.8125H1422V78.3125H1434.5V73.3125H1440V63.8125H1447V57.8125H1452V52.3125H1467V57.8125H1474.5V63.8125H1484V78.3125V113.312H1417Z" stroke="black" stroke-width="2"/>
<path d="M1345.47 74.0625V70.0625H1341.97V65.5625H1338.47V62.5625H1333.47V58.5625H1329.97V55.5625H1322.97V58.5625H1319.47V62.5625H1314.47V65.5625H1310.97V70.0625H1307.47V74.0625H1310.97H1313.47V75.3125H1316.22V77.4375H1318.22V81.0625H1320.72H1332.47H1334.97V77.4375H1336.97V75.3125H1339.72V74.0625H1342.22H1345.47Z" fill="#5869DD"/>
<path d="M1322.97 92.5625H1329.97H1333.47V96.0625H1339.47H1345.47H1349.47V93.5625H1352.97V90.5625H1355.47V82.3125H1352.97V78.5625H1349.47V74.0625H1345.72H1345.47H1342.22V85.9375H1340.47V87.8125H1332.47V81.0625H1320.72V87.8125H1312.72V85.9375H1310.97V74.0625H1307.47H1303.47V78.5625H1299.97V82.3125H1297.47V90.5625H1299.97V93.5625H1303.47V96.0625H1307.47H1313.47H1319.47V92.5625H1322.97Z" fill="#5869DD"/>
<path d="M1313.47 103.812H1307.47V105.812H1303.47V108.562H1300.97V113.312H1327.22V110.312H1322.97V108.562H1318.22V107.062H1313.47V103.812Z" fill="black"/>
<path d="M1344.22 101.938H1339.47V103.812H1337.72V107.062H1335.47V109.688H1333.47V113.312H1344.22V112.188H1346.6V110.312H1349.47V108.562H1351.72V102.562H1349.47V100.312H1344.22V101.938Z" fill="black"/>
<path d="M1333.47 92.5625H1334.47V91.5625H1333.47V92.5625ZM1333.47 96.0625H1332.47V97.0625H1333.47V96.0625ZM1349.47 96.0625V97.0625H1350.47V96.0625H1349.47ZM1349.47 93.5625V92.5625H1348.47V93.5625H1349.47ZM1352.97 93.5625V94.5625H1353.97V93.5625H1352.97ZM1352.97 78.5625H1353.97V77.5625H1352.97V78.5625ZM1349.47 78.5625H1348.47V79.5625H1349.47V78.5625ZM1349.47 74.0625H1350.47V73.0625H1349.47V74.0625ZM1345.47 70.0625H1346.47V69.0625H1345.47V70.0625ZM1341.97 70.0625H1340.97V71.0625H1341.97V70.0625ZM1341.97 65.5625H1342.97V64.5625H1341.97V65.5625ZM1338.47 65.5625H1337.47V66.5625H1338.47V65.5625ZM1338.47 62.5625H1339.47V61.5625H1338.47V62.5625ZM1333.47 62.5625H1332.47V63.5625H1333.47V62.5625ZM1333.47 58.5625H1334.47V57.5625H1333.47V58.5625ZM1329.97 58.5625H1328.97V59.5625H1329.97V58.5625ZM1329.97 55.5625H1330.97V54.5625H1329.97V55.5625ZM1322.97 55.5625V54.5625H1321.97V55.5625H1322.97ZM1322.97 58.5625V59.5625H1323.97V58.5625H1322.97ZM1352.97 82.3125H1351.97V83.3125H1352.97V82.3125ZM1355.47 82.3125H1356.47V81.3125H1355.47V82.3125ZM1355.47 90.5625V91.5625H1356.47V90.5625H1355.47ZM1352.97 90.5625V89.5625H1351.97V90.5625H1352.97ZM1319.47 92.5625V91.5625H1318.47V92.5625H1319.47ZM1319.47 96.0625V97.0625H1320.47V96.0625H1319.47ZM1303.47 96.0625H1302.47V97.0625H1303.47V96.0625ZM1303.47 93.5625H1304.47V92.5625H1303.47V93.5625ZM1299.97 93.5625H1298.97V94.5625H1299.97V93.5625ZM1299.97 78.5625V77.5625H1298.97V78.5625H1299.97ZM1303.47 78.5625V79.5625H1304.47V78.5625H1303.47ZM1303.47 74.0625V73.0625H1302.47V74.0625H1303.47ZM1307.47 70.0625V69.0625H1306.47V70.0625H1307.47ZM1310.97 70.0625V71.0625H1311.97V70.0625H1310.97ZM1310.97 65.5625V64.5625H1309.97V65.5625H1310.97ZM1314.47 65.5625V66.5625H1315.47V65.5625H1314.47ZM1314.47 62.5625V61.5625H1313.47V62.5625H1314.47ZM1319.47 62.5625V63.5625H1320.47V62.5625H1319.47ZM1319.47 58.5625V57.5625H1318.47V58.5625H1319.47ZM1299.97 82.3125V83.3125H1300.97V82.3125H1299.97ZM1297.47 82.3125V81.3125H1296.47V82.3125H1297.47ZM1297.47 90.5625H1296.47V91.5625H1297.47V90.5625ZM1299.97 90.5625H1300.97V89.5625H1299.97V90.5625ZM1307.47 103.812V102.812H1306.47V103.812H1307.47ZM1307.47 105.812V106.812H1308.47V105.812H1307.47ZM1303.47 105.812V104.812H1302.47V105.812H1303.47ZM1303.47 108.562V109.562H1304.47V108.562H1303.47ZM1300.97 108.562V107.562H1299.97V108.562H1300.97ZM1300.97 113.312H1299.97V114.312H1300.97V113.312ZM1327.22 110.312H1328.22V109.312H1327.22V110.312ZM1322.97 110.312H1321.97V111.312H1322.97V110.312ZM1322.97 108.562H1323.97V107.562H1322.97V108.562ZM1318.22 108.562H1317.22V109.562H1318.22V108.562ZM1318.22 107.062H1319.22V106.062H1318.22V107.062ZM1313.47 107.062H1312.47V108.062H1313.47V107.062ZM1344.22 101.938V102.938H1345.22V101.938H1344.22ZM1344.22 100.312V99.3125H1343.22V100.312H1344.22ZM1349.47 100.312H1350.47V99.3125H1349.47V100.312ZM1349.47 102.562H1348.47V103.562H1349.47V102.562ZM1351.72 102.562H1352.72V101.562H1351.72V102.562ZM1351.72 108.562V109.562H1352.72V108.562H1351.72ZM1349.47 108.562V107.562H1348.47V108.562H1349.47ZM1349.47 110.312V111.312H1350.47V110.312H1349.47ZM1346.6 110.312V109.312H1345.6V110.312H1346.6ZM1346.6 112.188V113.188H1347.6V112.188H1346.6ZM1344.22 112.188V111.188H1343.22V112.188H1344.22ZM1344.22 113.312V114.312H1345.22V113.312H1344.22ZM1333.47 109.688V108.688H1332.47V109.688H1333.47ZM1335.47 109.688V110.688H1336.47V109.688H1335.47ZM1335.47 107.062V106.062H1334.47V107.062H1335.47ZM1337.72 107.062V108.062H1338.72V107.062H1337.72ZM1337.72 103.812V102.812H1336.72V103.812H1337.72ZM1339.47 103.812V104.812H1340.47V103.812H1339.47ZM1310.97 85.9375H1309.97V86.9375H1310.97V85.9375ZM1312.72 85.9375H1313.72V84.9375H1312.72V85.9375ZM1312.72 87.8125H1311.72V88.8125H1312.72V87.8125ZM1320.72 87.8125V88.8125H1321.72V87.8125H1320.72ZM1318.22 81.0625H1317.22V82.0625H1318.22V81.0625ZM1318.22 77.4375H1319.22V76.4375H1318.22V77.4375ZM1316.22 75.3125H1317.22V74.3125H1316.22V75.3125ZM1313.47 75.3125H1312.47V76.3125H1313.47V75.3125ZM1313.47 74.0625H1314.47V73.0625H1313.47V74.0625ZM1342.22 85.9375V86.9375H1343.22V85.9375H1342.22ZM1340.47 85.9375V84.9375H1339.47V85.9375H1340.47ZM1340.47 87.8125V88.8125H1341.47V87.8125H1340.47ZM1332.47 87.8125H1331.47V88.8125H1332.47V87.8125ZM1334.97 81.0625V82.0625H1335.97V81.0625H1334.97ZM1334.97 77.4375V76.4375H1333.97V77.4375H1334.97ZM1336.97 75.3125V74.3125H1335.97V75.3125H1336.97ZM1339.72 75.3125V76.3125H1340.72V75.3125H1339.72ZM1339.72 74.0625V73.0625H1338.72V74.0625H1339.72ZM1322.97 93.5625H1333.47V91.5625H1322.97V93.5625ZM1332.47 92.5625V96.0625H1334.47V92.5625H1332.47ZM1345.47 97.0625H1349.47V95.0625H1345.47V97.0625ZM1350.47 96.0625V93.5625H1348.47V96.0625H1350.47ZM1349.47 94.5625H1352.97V92.5625H1349.47V94.5625ZM1352.97 77.5625H1349.47V79.5625H1352.97V77.5625ZM1350.47 78.5625V74.0625H1348.47V78.5625H1350.47ZM1349.47 73.0625H1345.47V75.0625H1349.47V73.0625ZM1346.47 74.0625V70.0625H1344.47V74.0625H1346.47ZM1345.47 69.0625H1341.97V71.0625H1345.47V69.0625ZM1342.97 70.0625V65.5625H1340.97V70.0625H1342.97ZM1341.97 64.5625H1338.47V66.5625H1341.97V64.5625ZM1339.47 65.5625V62.5625H1337.47V65.5625H1339.47ZM1338.47 61.5625H1333.47V63.5625H1338.47V61.5625ZM1334.47 62.5625V58.5625H1332.47V62.5625H1334.47ZM1333.47 57.5625H1329.97V59.5625H1333.47V57.5625ZM1330.97 58.5625V55.5625H1328.97V58.5625H1330.97ZM1329.97 54.5625H1322.97V56.5625H1329.97V54.5625ZM1321.97 55.5625V58.5625H1323.97V55.5625H1321.97ZM1353.97 82.3125V78.5625H1351.97V82.3125H1353.97ZM1352.97 83.3125H1355.47V81.3125H1352.97V83.3125ZM1354.47 82.3125V90.5625H1356.47V82.3125H1354.47ZM1353.97 93.5625V90.5625H1351.97V93.5625H1353.97ZM1355.47 89.5625H1352.97V91.5625H1355.47V89.5625ZM1329.97 91.5625H1319.47V93.5625H1329.97V91.5625ZM1318.47 92.5625V96.0625H1320.47V92.5625H1318.47ZM1307.47 95.0625H1303.47V97.0625H1307.47V95.0625ZM1304.47 96.0625V93.5625H1302.47V96.0625H1304.47ZM1303.47 92.5625H1299.97V94.5625H1303.47V92.5625ZM1299.97 79.5625H1303.47V77.5625H1299.97V79.5625ZM1304.47 78.5625V74.0625H1302.47V78.5625H1304.47ZM1303.47 75.0625H1307.47V73.0625H1303.47V75.0625ZM1308.47 74.0625V70.0625H1306.47V74.0625H1308.47ZM1307.47 71.0625H1310.97V69.0625H1307.47V71.0625ZM1311.97 70.0625V65.5625H1309.97V70.0625H1311.97ZM1310.97 66.5625H1314.47V64.5625H1310.97V66.5625ZM1315.47 65.5625V62.5625H1313.47V65.5625H1315.47ZM1314.47 63.5625H1319.47V61.5625H1314.47V63.5625ZM1320.47 62.5625V58.5625H1318.47V62.5625H1320.47ZM1319.47 59.5625H1322.97V57.5625H1319.47V59.5625ZM1300.97 82.3125V78.5625H1298.97V82.3125H1300.97ZM1299.97 81.3125H1297.47V83.3125H1299.97V81.3125ZM1296.47 82.3125V90.5625H1298.47V82.3125H1296.47ZM1300.97 93.5625V90.5625H1298.97V93.5625H1300.97ZM1297.47 91.5625H1299.97V89.5625H1297.47V91.5625ZM1319.47 95.0625H1313.47V97.0625H1319.47V95.0625ZM1313.47 95.0625H1307.47V97.0625H1313.47V95.0625ZM1312.47 96.0625V103.812H1314.47V96.0625H1312.47ZM1313.47 102.812H1307.47V104.812H1313.47V102.812ZM1306.47 103.812V105.812H1308.47V103.812H1306.47ZM1307.47 104.812H1303.47V106.812H1307.47V104.812ZM1302.47 105.812V108.562H1304.47V105.812H1302.47ZM1303.47 107.562H1300.97V109.562H1303.47V107.562ZM1299.97 108.562V113.312H1301.97V108.562H1299.97ZM1300.97 114.312H1327.22V112.312H1300.97V114.312ZM1328.22 113.312V110.312H1326.22V113.312H1328.22ZM1327.22 109.312H1322.97V111.312H1327.22V109.312ZM1323.97 110.312V108.562H1321.97V110.312H1323.97ZM1322.97 107.562H1318.22V109.562H1322.97V107.562ZM1319.22 108.562V107.062H1317.22V108.562H1319.22ZM1318.22 106.062H1313.47V108.062H1318.22V106.062ZM1314.47 107.062V103.812H1312.47V107.062H1314.47ZM1333.47 97.0625H1339.47V95.0625H1333.47V97.0625ZM1339.47 97.0625H1345.47V95.0625H1339.47V97.0625ZM1338.47 96.0625V101.938H1340.47V96.0625H1338.47ZM1339.47 102.938H1344.22V100.938H1339.47V102.938ZM1345.22 101.938V100.312H1343.22V101.938H1345.22ZM1344.22 101.312H1349.47V99.3125H1344.22V101.312ZM1348.47 100.312V102.562H1350.47V100.312H1348.47ZM1349.47 103.562H1351.72V101.562H1349.47V103.562ZM1350.72 102.562V108.562H1352.72V102.562H1350.72ZM1351.72 107.562H1349.47V109.562H1351.72V107.562ZM1348.47 108.562V110.312H1350.47V108.562H1348.47ZM1349.47 109.312H1346.6V111.312H1349.47V109.312ZM1345.6 110.312V112.188H1347.6V110.312H1345.6ZM1346.6 111.188H1344.22V113.188H1346.6V111.188ZM1343.22 112.188V113.312H1345.22V112.188H1343.22ZM1344.22 112.312H1333.47V114.312H1344.22V112.312ZM1334.47 113.312V109.688H1332.47V113.312H1334.47ZM1333.47 110.688H1335.47V108.688H1333.47V110.688ZM1336.47 109.688V107.062H1334.47V109.688H1336.47ZM1335.47 108.062H1337.72V106.062H1335.47V108.062ZM1338.72 107.062V103.812H1336.72V107.062H1338.72ZM1337.72 104.812H1339.47V102.812H1337.72V104.812ZM1340.47 103.812V101.938H1338.47V103.812H1340.47ZM1327.22 114.312H1333.47V112.312H1327.22V114.312ZM1307.47 75.0625H1310.97V73.0625H1307.47V75.0625ZM1309.97 74.0625V85.9375H1311.97V74.0625H1309.97ZM1310.97 86.9375H1312.72V84.9375H1310.97V86.9375ZM1311.72 85.9375V87.8125H1313.72V85.9375H1311.72ZM1312.72 88.8125H1320.72V86.8125H1312.72V88.8125ZM1321.72 87.8125V81.0625H1319.72V87.8125H1321.72ZM1320.72 80.0625H1318.22V82.0625H1320.72V80.0625ZM1319.22 81.0625V77.4375H1317.22V81.0625H1319.22ZM1318.22 76.4375H1316.22V78.4375H1318.22V76.4375ZM1317.22 77.4375V75.3125H1315.22V77.4375H1317.22ZM1316.22 74.3125H1313.47V76.3125H1316.22V74.3125ZM1314.47 75.3125V74.0625H1312.47V75.3125H1314.47ZM1313.47 73.0625H1310.97V75.0625H1313.47V73.0625ZM1315.22 77.4375V84.3125H1317.22V77.4375H1315.22ZM1345.72 73.0625H1342.22V75.0625H1345.72V73.0625ZM1341.22 74.0625V85.9375H1343.22V74.0625H1341.22ZM1342.22 84.9375H1340.47V86.9375H1342.22V84.9375ZM1339.47 85.9375V87.8125H1341.47V85.9375H1339.47ZM1340.47 86.8125H1332.47V88.8125H1340.47V86.8125ZM1333.47 87.8125V81.0625H1331.47V87.8125H1333.47ZM1332.47 82.0625H1334.97V80.0625H1332.47V82.0625ZM1335.97 81.0625V77.4375H1333.97V81.0625H1335.97ZM1334.97 78.4375H1336.97V76.4375H1334.97V78.4375ZM1337.97 77.4375V75.3125H1335.97V77.4375H1337.97ZM1336.97 76.3125H1339.72V74.3125H1336.97V76.3125ZM1340.72 75.3125V74.0625H1338.72V75.3125H1340.72ZM1339.72 75.0625H1342.22V73.0625H1339.72V75.0625ZM1335.97 77.4375V84.3125H1337.97V77.4375H1335.97ZM1320.72 82.0625H1332.47V80.0625H1320.72V82.0625ZM1342.22 75.0625H1345.47V73.0625H1342.22V75.0625ZM1322.97 93.5625H1329.97V91.5625H1322.97V93.5625ZM1329.97 93.5625H1333.47V91.5625H1329.97V93.5625ZM1349.47 73.0625H1345.72V75.0625H1349.47V73.0625ZM1345.72 73.0625H1345.47V75.0625H1345.72V73.0625ZM1319.47 93.5625H1322.97V91.5625H1319.47V93.5625Z" fill="black"/>
<path d="M864.475 74.0625V70.0625H867.975V65.5625H871.475V62.5625H876.475V58.5625H879.975V55.5625H886.975V58.5625H890.475V62.5625H895.475V65.5625H898.975V70.0625H902.475V74.0625H898.975H896.475V75.3125H893.725V77.4375H891.725V81.0625H889.225H877.475H874.975V77.4375H872.975V75.3125H870.225V74.0625H867.725H864.475Z" fill="#5869DD"/>
<path d="M886.975 92.5625H879.975H876.475V96.0625H870.475H864.475H860.475V93.5625H856.975V90.5625H854.475V82.3125H856.975V78.5625H860.475V74.0625H864.225H864.475H867.725V85.9375H869.475V87.8125H877.475V81.0625H889.225V87.8125H897.225V85.9375H898.975V74.0625H902.475H906.475V78.5625H909.975V82.3125H912.475V90.5625H909.975V93.5625H906.475V96.0625H902.475H896.475H890.475V92.5625H886.975Z" fill="#5869DD"/>
<path d="M896.475 103.812H902.475V105.812H906.475V108.562H908.975V113.312H882.725V110.312H886.975V108.562H891.725V107.062H896.475V103.812Z" fill="black"/>
<path d="M865.725 101.938H870.475V103.812H872.225V107.062H874.475V109.688H876.475V113.312H865.725V112.188H863.35V110.312H860.475V108.562H858.225V102.562H860.475V100.312H865.725V101.938Z" fill="black"/>
<path d="M876.475 92.5625H875.475V91.5625H876.475V92.5625ZM876.475 96.0625H877.475V97.0625H876.475V96.0625ZM860.475 96.0625V97.0625H859.475V96.0625H860.475ZM860.475 93.5625V92.5625H861.475V93.5625H860.475ZM856.975 93.5625V94.5625H855.975V93.5625H856.975ZM856.975 78.5625H855.975V77.5625H856.975V78.5625ZM860.475 78.5625H861.475V79.5625H860.475V78.5625ZM860.475 74.0625H859.475V73.0625H860.475V74.0625ZM864.475 70.0625H863.475V69.0625H864.475V70.0625ZM867.975 70.0625H868.975V71.0625H867.975V70.0625ZM867.975 65.5625H866.975V64.5625H867.975V65.5625ZM871.475 65.5625H872.475V66.5625H871.475V65.5625ZM871.475 62.5625H870.475V61.5625H871.475V62.5625ZM876.475 62.5625H877.475V63.5625H876.475V62.5625ZM876.475 58.5625H875.475V57.5625H876.475V58.5625ZM879.975 58.5625H880.975V59.5625H879.975V58.5625ZM879.975 55.5625H878.975V54.5625H879.975V55.5625ZM886.975 55.5625V54.5625H887.975V55.5625H886.975ZM886.975 58.5625V59.5625H885.975V58.5625H886.975ZM856.975 82.3125H857.975V83.3125H856.975V82.3125ZM854.475 82.3125H853.475V81.3125H854.475V82.3125ZM854.475 90.5625V91.5625H853.475V90.5625H854.475ZM856.975 90.5625V89.5625H857.975V90.5625H856.975ZM890.475 92.5625V91.5625H891.475V92.5625H890.475ZM890.475 96.0625V97.0625H889.475V96.0625H890.475ZM906.475 96.0625H907.475V97.0625H906.475V96.0625ZM906.475 93.5625H905.475V92.5625H906.475V93.5625ZM909.975 93.5625H910.975V94.5625H909.975V93.5625ZM909.975 78.5625V77.5625H910.975V78.5625H909.975ZM906.475 78.5625V79.5625H905.475V78.5625H906.475ZM906.475 74.0625V73.0625H907.475V74.0625H906.475ZM902.475 70.0625V69.0625H903.475V70.0625H902.475ZM898.975 70.0625V71.0625H897.975V70.0625H898.975ZM898.975 65.5625V64.5625H899.975V65.5625H898.975ZM895.475 65.5625V66.5625H894.475V65.5625H895.475ZM895.475 62.5625V61.5625H896.475V62.5625H895.475ZM890.475 62.5625V63.5625H889.475V62.5625H890.475ZM890.475 58.5625V57.5625H891.475V58.5625H890.475ZM909.975 82.3125V83.3125H908.975V82.3125H909.975ZM912.475 82.3125V81.3125H913.475V82.3125H912.475ZM912.475 90.5625H913.475V91.5625H912.475V90.5625ZM909.975 90.5625H908.975V89.5625H909.975V90.5625ZM902.475 103.812V102.812H903.475V103.812H902.475ZM902.475 105.812V106.812H901.475V105.812H902.475ZM906.475 105.812V104.812H907.475V105.812H906.475ZM906.475 108.562V109.562H905.475V108.562H906.475ZM908.975 108.562V107.562H909.975V108.562H908.975ZM908.975 113.312H909.975V114.312H908.975V113.312ZM882.725 110.312H881.725V109.312H882.725V110.312ZM886.975 110.312H887.975V111.312H886.975V110.312ZM886.975 108.562H885.975V107.562H886.975V108.562ZM891.725 108.562H892.725V109.562H891.725V108.562ZM891.725 107.062H890.725V106.062H891.725V107.062ZM896.475 107.062H897.475V108.062H896.475V107.062ZM865.725 101.938V102.938H864.725V101.938H865.725ZM865.725 100.312V99.3125H866.725V100.312H865.725ZM860.475 100.312H859.475V99.3125H860.475V100.312ZM860.475 102.562H861.475V103.562H860.475V102.562ZM858.225 102.562H857.225V101.562H858.225V102.562ZM858.225 108.562V109.562H857.225V108.562H858.225ZM860.475 108.562V107.562H861.475V108.562H860.475ZM860.475 110.312V111.312H859.475V110.312H860.475ZM863.35 110.312V109.312H864.35V110.312H863.35ZM863.35 112.188V113.188H862.35V112.188H863.35ZM865.725 112.188V111.188H866.725V112.188H865.725ZM865.725 113.312V114.312H864.725V113.312H865.725ZM876.475 109.688V108.688H877.475V109.688H876.475ZM874.475 109.688V110.688H873.475V109.688H874.475ZM874.475 107.062V106.062H875.475V107.062H874.475ZM872.225 107.062V108.062H871.225V107.062H872.225ZM872.225 103.812V102.812H873.225V103.812H872.225ZM870.475 103.812V104.812H869.475V103.812H870.475ZM898.975 85.9375H899.975V86.9375H898.975V85.9375ZM897.225 85.9375H896.225V84.9375H897.225V85.9375ZM897.225 87.8125H898.225V88.8125H897.225V87.8125ZM889.225 87.8125V88.8125H888.225V87.8125H889.225ZM891.725 81.0625H892.725V82.0625H891.725V81.0625ZM891.725 77.4375H890.725V76.4375H891.725V77.4375ZM893.725 75.3125H892.725V74.3125H893.725V75.3125ZM896.475 75.3125H897.475V76.3125H896.475V75.3125ZM896.475 74.0625H895.475V73.0625H896.475V74.0625ZM867.725 85.9375V86.9375H866.725V85.9375H867.725ZM869.475 85.9375V84.9375H870.475V85.9375H869.475ZM869.475 87.8125V88.8125H868.475V87.8125H869.475ZM877.475 87.8125H878.475V88.8125H877.475V87.8125ZM874.975 81.0625V82.0625H873.975V81.0625H874.975ZM874.975 77.4375V76.4375H875.975V77.4375H874.975ZM872.975 75.3125V74.3125H873.975V75.3125H872.975ZM870.225 75.3125V76.3125H869.225V75.3125H870.225ZM870.225 74.0625V73.0625H871.225V74.0625H870.225ZM886.975 93.5625H876.475V91.5625H886.975V93.5625ZM877.475 92.5625V96.0625H875.475V92.5625H877.475ZM864.475 97.0625H860.475V95.0625H864.475V97.0625ZM859.475 96.0625V93.5625H861.475V96.0625H859.475ZM860.475 94.5625H856.975V92.5625H860.475V94.5625ZM856.975 77.5625H860.475V79.5625H856.975V77.5625ZM859.475 78.5625V74.0625H861.475V78.5625H859.475ZM860.475 73.0625H864.475V75.0625H860.475V73.0625ZM863.475 74.0625V70.0625H865.475V74.0625H863.475ZM864.475 69.0625H867.975V71.0625H864.475V69.0625ZM866.975 70.0625V65.5625H868.975V70.0625H866.975ZM867.975 64.5625H871.475V66.5625H867.975V64.5625ZM870.475 65.5625V62.5625H872.475V65.5625H870.475ZM871.475 61.5625H876.475V63.5625H871.475V61.5625ZM875.475 62.5625V58.5625H877.475V62.5625H875.475ZM876.475 57.5625H879.975V59.5625H876.475V57.5625ZM878.975 58.5625V55.5625H880.975V58.5625H878.975ZM879.975 54.5625H886.975V56.5625H879.975V54.5625ZM887.975 55.5625V58.5625H885.975V55.5625H887.975ZM855.975 82.3125V78.5625H857.975V82.3125H855.975ZM856.975 83.3125H854.475V81.3125H856.975V83.3125ZM855.475 82.3125V90.5625H853.475V82.3125H855.475ZM855.975 93.5625V90.5625H857.975V93.5625H855.975ZM854.475 89.5625H856.975V91.5625H854.475V89.5625ZM879.975 91.5625H890.475V93.5625H879.975V91.5625ZM891.475 92.5625V96.0625H889.475V92.5625H891.475ZM902.475 95.0625H906.475V97.0625H902.475V95.0625ZM905.475 96.0625V93.5625H907.475V96.0625H905.475ZM906.475 92.5625H909.975V94.5625H906.475V92.5625ZM909.975 79.5625H906.475V77.5625H909.975V79.5625ZM905.475 78.5625V74.0625H907.475V78.5625H905.475ZM906.475 75.0625H902.475V73.0625H906.475V75.0625ZM901.475 74.0625V70.0625H903.475V74.0625H901.475ZM902.475 71.0625H898.975V69.0625H902.475V71.0625ZM897.975 70.0625V65.5625H899.975V70.0625H897.975ZM898.975 66.5625H895.475V64.5625H898.975V66.5625ZM894.475 65.5625V62.5625H896.475V65.5625H894.475ZM895.475 63.5625H890.475V61.5625H895.475V63.5625ZM889.475 62.5625V58.5625H891.475V62.5625H889.475ZM890.475 59.5625H886.975V57.5625H890.475V59.5625ZM908.975 82.3125V78.5625H910.975V82.3125H908.975ZM909.975 81.3125H912.475V83.3125H909.975V81.3125ZM913.475 82.3125V90.5625H911.475V82.3125H913.475ZM908.975 93.5625V90.5625H910.975V93.5625H908.975ZM912.475 91.5625H909.975V89.5625H912.475V91.5625ZM890.475 95.0625H896.475V97.0625H890.475V95.0625ZM896.475 95.0625H902.475V97.0625H896.475V95.0625ZM897.475 96.0625V103.812H895.475V96.0625H897.475ZM896.475 102.812H902.475V104.812H896.475V102.812ZM903.475 103.812V105.812H901.475V103.812H903.475ZM902.475 104.812H906.475V106.812H902.475V104.812ZM907.475 105.812V108.562H905.475V105.812H907.475ZM906.475 107.562H908.975V109.562H906.475V107.562ZM909.975 108.562V113.312H907.975V108.562H909.975ZM908.975 114.312H882.725V112.312H908.975V114.312ZM881.725 113.312V110.312H883.725V113.312H881.725ZM882.725 109.312H886.975V111.312H882.725V109.312ZM885.975 110.312V108.562H887.975V110.312H885.975ZM886.975 107.562H891.725V109.562H886.975V107.562ZM890.725 108.562V107.062H892.725V108.562H890.725ZM891.725 106.062H896.475V108.062H891.725V106.062ZM895.475 107.062V103.812H897.475V107.062H895.475ZM876.475 97.0625H870.475V95.0625H876.475V97.0625ZM870.475 97.0625H864.475V95.0625H870.475V97.0625ZM871.475 96.0625V101.938H869.475V96.0625H871.475ZM870.475 102.938H865.725V100.938H870.475V102.938ZM864.725 101.938V100.312H866.725V101.938H864.725ZM865.725 101.312H860.475V99.3125H865.725V101.312ZM861.475 100.312V102.562H859.475V100.312H861.475ZM860.475 103.562H858.225V101.562H860.475V103.562ZM859.225 102.562V108.562H857.225V102.562H859.225ZM858.225 107.562H860.475V109.562H858.225V107.562ZM861.475 108.562V110.312H859.475V108.562H861.475ZM860.475 109.312H863.35V111.312H860.475V109.312ZM864.35 110.312V112.188H862.35V110.312H864.35ZM863.35 111.188H865.725V113.188H863.35V111.188ZM866.725 112.188V113.312H864.725V112.188H866.725ZM865.725 112.312H876.475V114.312H865.725V112.312ZM875.475 113.312V109.688H877.475V113.312H875.475ZM876.475 110.688H874.475V108.688H876.475V110.688ZM873.475 109.688V107.062H875.475V109.688H873.475ZM874.475 108.062H872.225V106.062H874.475V108.062ZM871.225 107.062V103.812H873.225V107.062H871.225ZM872.225 104.812H870.475V102.812H872.225V104.812ZM869.475 103.812V101.938H871.475V103.812H869.475ZM882.725 114.312H876.475V112.312H882.725V114.312ZM902.475 75.0625H898.975V73.0625H902.475V75.0625ZM899.975 74.0625V85.9375H897.975V74.0625H899.975ZM898.975 86.9375H897.225V84.9375H898.975V86.9375ZM898.225 85.9375V87.8125H896.225V85.9375H898.225ZM897.225 88.8125H889.225V86.8125H897.225V88.8125ZM888.225 87.8125V81.0625H890.225V87.8125H888.225ZM889.225 80.0625H891.725V82.0625H889.225V80.0625ZM890.725 81.0625V77.4375H892.725V81.0625H890.725ZM891.725 76.4375H893.725V78.4375H891.725V76.4375ZM892.725 77.4375V75.3125H894.725V77.4375H892.725ZM893.725 74.3125H896.475V76.3125H893.725V74.3125ZM895.475 75.3125V74.0625H897.475V75.3125H895.475ZM896.475 73.0625H898.975V75.0625H896.475V73.0625ZM894.725 77.4375V84.3125H892.725V77.4375H894.725ZM864.225 73.0625H867.725V75.0625H864.225V73.0625ZM868.725 74.0625V85.9375H866.725V74.0625H868.725ZM867.725 84.9375H869.475V86.9375H867.725V84.9375ZM870.475 85.9375V87.8125H868.475V85.9375H870.475ZM869.475 86.8125H877.475V88.8125H869.475V86.8125ZM876.475 87.8125V81.0625H878.475V87.8125H876.475ZM877.475 82.0625H874.975V80.0625H877.475V82.0625ZM873.975 81.0625V77.4375H875.975V81.0625H873.975ZM874.975 78.4375H872.975V76.4375H874.975V78.4375ZM871.975 77.4375V75.3125H873.975V77.4375H871.975ZM872.975 76.3125H870.225V74.3125H872.975V76.3125ZM869.225 75.3125V74.0625H871.225V75.3125H869.225ZM870.225 75.0625H867.725V73.0625H870.225V75.0625ZM873.975 77.4375V84.3125H871.975V77.4375H873.975ZM889.225 82.0625H877.475V80.0625H889.225V82.0625ZM867.725 75.0625H864.475V73.0625H867.725V75.0625ZM886.975 93.5625H879.975V91.5625H886.975V93.5625ZM879.975 93.5625H876.475V91.5625H879.975V93.5625ZM860.475 73.0625H864.225V75.0625H860.475V73.0625ZM864.225 73.0625H864.475V75.0625H864.225V73.0625ZM890.475 93.5625H886.975V91.5625H890.475V93.5625Z" fill="black"/>
<defs>
<linearGradient id="paint0_linear_1687_4992" x1="758.5" y1="113.562" x2="758.5" y2="206.562" gradientUnits="userSpaceOnUse">
<stop stop-color="#8F8E93"/>
<stop offset="1" stop-color="#F1EFED"/>
</linearGradient>
<linearGradient id="paint1_linear_1687_4992" x1="92" y1="54.875" x2="149.25" y2="54.875" gradientUnits="userSpaceOnUse">
<stop stop-color="#D6FFBB"/>
<stop offset="1" stop-color="#5869DD"/>
</linearGradient>
<linearGradient id="paint2_linear_1687_4992" x1="74" y1="54.875" x2="149.25" y2="89.5625" gradientUnits="userSpaceOnUse">
<stop stop-color="#D6FFBB"/>
<stop offset="0.950166" stop-color="#5869DD"/>
</linearGradient>
<linearGradient id="paint3_linear_1687_4992" x1="92" y1="54.875" x2="149.25" y2="54.875" gradientUnits="userSpaceOnUse">
<stop stop-color="#D6FFBB"/>
<stop offset="1" stop-color="#5869DD"/>
</linearGradient>
<linearGradient id="paint4_linear_1687_4992" x1="128" y1="40.5625" x2="156.271" y2="41.7934" gradientUnits="userSpaceOnUse">
<stop stop-color="#D6FFBB"/>
<stop offset="1" stop-color="#5869DD"/>
</linearGradient>
<linearGradient id="paint5_linear_1687_4992" x1="92" y1="54.875" x2="149.25" y2="54.875" gradientUnits="userSpaceOnUse">
<stop stop-color="#D6FFBB"/>
<stop offset="1" stop-color="#5869DD"/>
</linearGradient>
<linearGradient id="paint6_linear_1687_4992" x1="559.456" y1="163.364" x2="693.12" y2="23.9514" gradientUnits="userSpaceOnUse">
<stop stop-color="#5869DD"/>
<stop offset="1" stop-color="#D6FFBB"/>
</linearGradient>
</defs>
</svg>
