<svg xmlns="http://www.w3.org/2000/svg" width="58" height="58" fill="none" viewBox="0 0 58 58">
  <g clip-path="url(#a)">
    <path fill="#fff" d="M13 19h33v14H13z"/>
    <path fill="#5869DD" d="M10 18.5v-4h3.5V10H17V7h5V3h3.5V0h7v3H36v4h5v3h3.5v4.5H48v4h-6v1.25h-2.75v2.125h-2V25.5H20.5v-3.625h-2V19.75h-2.75V18.5H10Z"/>
    <path fill="#5869DD" d="M32.5 37H22v3.5H6V38H2.5v-3H0v-8.25h2.5V23H6v-4.5h7.25v11.875H15v1.875h8V25.5h11.75v6.75h8v-1.875h1.75V18.5H52V23h3.5v3.75H58V35h-2.5v3H52v2.5H36V37h-3.5Z"/>
    <path fill="#000" d="M42 48.25h6v2h4V53h2.5v4.75H28.25v-3h4.25V53h4.75v-1.5H42v-3.25Zm-30.75-1.875H16v1.875h1.75v3.25H20v2.625h2v3.625H11.25v-1.125H8.875V54.75H6V53H3.75v-6H6v-2.25h5.25v1.625Z"/>
    <path stroke="#000" stroke-width="2" d="M32.5 37H22m10.5 0h-7m7 0H36m-14 0v3.5h-6m6-3.5h3.5M6 18.5V23H2.5v3.75H0V35h2.5v3H6v2.5h10m-10-22h4m-4 0h3.75m.25 0v-4h3.5V10H17V7h5V3h3.5V0h7v3H36v4h5v3h3.5v4.5H48v4m-38 0h3.25m-3.25 0h-.25M25.5 37H36m0 0v3.5h6m6-22h4V23h3.5v3.75H58V35h-2.5v3H52v2.5H42m6-22h-3.5m-2.5 22v7.75m0 0h6v2h4V53h2.5v4.75H28.25M42 48.25v3.25h-4.75V53H32.5v1.75h-4.25v3m0 0H22M16 40.5v5.875m0 0h-4.75V44.75H6V47H3.75v6H6v1.75h2.875v1.875h2.375v1.125H22m-6-11.375v1.875h1.75v3.25H20v2.625h2v3.625M44.5 18.5v11.875h-1.75v1.875h-8V25.5m9.75-7H42v1.25h-2.75v2.125m-4.5 3.625h2.5v-3.625h2m-4.5 3.625H23m16.25-3.625v6.875M9.75 18.5h3.5m0 0v11.875H15v1.875h8V25.5m-9.75-7h2.5v1.25h2.75v2.125M23 25.5h-2.5v-3.625h-2m0 0v6.875"/>
  </g>
  <defs>
    <clipPath id="a">
      <path fill="#fff" d="M0 0h58v58H0z"/>
    </clipPath>
  </defs>
</svg>
