<svg xmlns="http://www.w3.org/2000/svg" width="58" height="58" fill="none" viewBox="0 0 58 58">
  <g clip-path="url(#a)">
    <path fill="#fff" d="M13 19h33v14H13z"/>
    <path fill="#5869DD" d="M48 18.5v-4h-3.5V10H41V7h-5V3h-3.5V0h-7v3H22v4h-5v3h-3.5v4.5H10v4h6v1.25h2.75v2.125h2V25.5H37.5v-3.625h2V19.75h2.75V18.5H48Z"/>
    <path fill="#5869DD" d="M25.5 37H36v3.5h16V38h3.5v-3H58v-8.25h-2.5V23H52v-4.5h-7.25v11.875H43v1.875h-8V25.5H23.25v6.75h-8v-1.875H13.5V18.5H6V23H2.5v3.75H0V35h2.5v3H6v2.5h16V37h3.5Z"/>
    <path fill="#000" d="M16 48.25h-6v2H6V53H3.5v4.75h26.25v-3H25.5V53h-4.75v-1.5H16v-3.25Zm30.75-1.875H42v1.875h-1.75v3.25H38v2.625h-2v3.625h10.75v-1.125h2.375V54.75H52V53h2.25v-6H52v-2.25h-5.25v1.625Z"/>
    <path stroke="#000" stroke-width="2" d="M25.5 37H36m-10.5 0h7m-7 0H22m14 0v3.5h6M36 37h-3.5M52 18.5V23h3.5v3.75H58V35h-2.5v3H52v2.5H42m10-22h-4m4 0h-3.75m-.25 0v-4h-3.5V10H41V7h-5V3h-3.5V0h-7v3H22v4h-5v3h-3.5v4.5H10v4m38 0h-3.25m3.25 0h.25M32.5 37H22m0 0v3.5h-6m-6-22H6V23H2.5v3.75H0V35h2.5v3H6v2.5h10m-6-22h3.5m2.5 22v7.75m0 0h-6v2H6V53H3.5v4.75h26.25M16 48.25v3.25h4.75V53h4.75v1.75h4.25v3m0 0H36m6-17.25v5.875m0 0h4.75V44.75H52V47h2.25v6H52v1.75h-2.875v1.875H46.75v1.125H36m6-11.375v1.875h-1.75v3.25H38v2.625h-2v3.625M13.5 18.5v11.875h1.75v1.875h8V25.5m-9.75-7H16v1.25h2.75v2.125m4.5 3.625h-2.5v-3.625h-2m4.5 3.625H35m-16.25-3.625v6.875m29.5-10.25h-3.5m0 0v11.875H43v1.875h-8V25.5m9.75-7h-2.5v1.25H39.5v2.125M35 25.5h2.5v-3.625h2m0 0v6.875"/>
  </g>
  <defs>
    <clipPath id="a">
      <path fill="#fff" d="M0 0h58v58H0z"/>
    </clipPath>
  </defs>
</svg>
