<svg width="61" height="61" viewBox="0 0 61 61" fill="none" xmlns="http://www.w3.org/2000/svg">
<path d="M11.4746 20.0625V16.0625H14.9746V11.5625H18.4746V8.5625H23.4746V4.5625H26.9746V1.5625H33.9746V4.5625H37.4746V8.5625H42.4746V11.5625H45.9746V16.0625H49.4746V20.0625H45.9746H43.4746V21.3125H40.7246V23.4375H38.7246V27.0625H36.2246H24.4746H21.9746V23.4375H19.9746V21.3125H17.2246V20.0625H14.7246H11.4746Z" fill="#5869DD"/>
<path d="M33.9746 38.5625H26.9746H23.4746V42.0625H17.4746H11.4746H7.47461V39.5625H3.97461V36.5625H1.47461V28.3125H3.97461V24.5625H7.47461V20.0625H11.2246H11.4746H14.7246V31.9375H16.4746V33.8125H24.4746V27.0625H36.2246V33.8125H44.2246V31.9375H45.9746V20.0625H49.4746H53.4746V24.5625H56.9746V28.3125H59.4746V36.5625H56.9746V39.5625H53.4746V42.0625H49.4746H43.4746H37.4746V38.5625H33.9746Z" fill="#5869DD"/>
<path d="M43.4746 49.8125H49.4746V51.8125H53.4746V54.5625H55.9746V59.3125H29.7246V56.3125H33.9746V54.5625H38.7246V53.0625H43.4746V49.8125Z" fill="black"/>
<path d="M12.7246 47.9375H17.4746V49.8125H19.2246V53.0625H21.4746V55.6875H23.4746V59.3125H12.7246V58.1875H10.3496V56.3125H7.47461V54.5625H5.22461V48.5625H7.47461V46.3125H12.7246V47.9375Z" fill="black"/>
<path d="M33.9746 38.5625H23.4746M33.9746 38.5625H26.9746M33.9746 38.5625H37.4746M23.4746 38.5625V42.0625H17.4746M23.4746 38.5625H26.9746M7.47461 20.0625V24.5625H3.97461V28.3125H1.47461V36.5625H3.97461V39.5625H7.47461V42.0625H11.4746H17.4746M7.47461 20.0625H11.4746M7.47461 20.0625H11.2246M11.4746 20.0625V16.0625H14.9746V11.5625H18.4746V8.5625H23.4746V4.5625H26.9746V1.5625H33.9746V4.5625H37.4746V8.5625H42.4746V11.5625H45.9746V16.0625H49.4746V20.0625M11.4746 20.0625H14.7246M11.4746 20.0625H11.2246M26.9746 38.5625H37.4746M37.4746 38.5625V42.0625H43.4746M49.4746 20.0625H53.4746V24.5625H56.9746V28.3125H59.4746V36.5625H56.9746V39.5625H53.4746V42.0625H49.4746H43.4746M49.4746 20.0625H45.9746M43.4746 42.0625V49.8125M43.4746 49.8125H49.4746V51.8125H53.4746V54.5625H55.9746V59.3125H29.7246M43.4746 49.8125V53.0625H38.7246V54.5625H33.9746V56.3125H29.7246V59.3125M29.7246 59.3125H23.4746M17.4746 42.0625V47.9375M17.4746 47.9375H12.7246V46.3125H7.47461V48.5625H5.22461V54.5625H7.47461V56.3125H10.3496V58.1875H12.7246V59.3125H23.4746M17.4746 47.9375V49.8125H19.2246V53.0625H21.4746V55.6875H23.4746V59.3125M45.9746 20.0625V31.9375H44.2246V33.8125H36.2246V27.0625M45.9746 20.0625H43.4746V21.3125H40.7246V23.4375M36.2246 27.0625H38.7246V23.4375H40.7246M36.2246 27.0625H24.4746M40.7246 23.4375V30.3125M11.2246 20.0625H14.7246M14.7246 20.0625V31.9375H16.4746V33.8125H24.4746V27.0625M14.7246 20.0625H17.2246V21.3125H19.9746V23.4375M24.4746 27.0625H21.9746V23.4375H19.9746M19.9746 23.4375V30.3125" stroke="black" stroke-width="2"/>
</svg>
