<svg width="61" height="61" viewBox="0 0 61 61" fill="none" xmlns="http://www.w3.org/2000/svg">
<path d="M49.4746 20.0625V16.0625H45.9746V11.5625H42.4746V8.5625H37.4746V4.5625H33.9746V1.5625H26.9746V4.5625H23.4746V8.5625H18.4746V11.5625H14.9746V16.0625H11.4746V20.0625H14.9746H17.4746V21.3125H20.2246V23.4375H22.2246V27.0625H24.7246H36.4746H38.9746V23.4375H40.9746V21.3125H43.7246V20.0625H46.2246H49.4746Z" fill="#5869DD"/>
<path d="M26.9746 38.5625H33.9746H37.4746V42.0625H43.4746H49.4746H53.4746V39.5625H56.9746V36.5625H59.4746V28.3125H56.9746V24.5625H53.4746V20.0625H49.7246H49.4746H46.2246V31.9375H44.4746V33.8125H36.4746V27.0625H24.7246V33.8125H16.7246V31.9375H14.9746V20.0625H11.4746H7.47461V24.5625H3.97461V28.3125H1.47461V36.5625H3.97461V39.5625H7.47461V42.0625H11.4746H17.4746H23.4746V38.5625H26.9746Z" fill="#5869DD"/>
<path d="M17.4746 49.8125H11.4746V51.8125H7.47461V54.5625H4.97461V59.3125H31.2246V56.3125H26.9746V54.5625H22.2246V53.0625H17.4746V49.8125Z" fill="black"/>
<path d="M48.2246 47.9375H43.4746V49.8125H41.7246V53.0625H39.4746V55.6875H37.4746V59.3125H48.2246V58.1875H50.5996V56.3125H53.4746V54.5625H55.7246V48.5625H53.4746V46.3125H48.2246V47.9375Z" fill="black"/>
<path d="M26.9746 38.5625H37.4746M26.9746 38.5625H33.9746M26.9746 38.5625H23.4746M37.4746 38.5625V42.0625H43.4746M37.4746 38.5625H33.9746M53.4746 20.0625V24.5625H56.9746V28.3125H59.4746V36.5625H56.9746V39.5625H53.4746V42.0625H49.4746H43.4746M53.4746 20.0625H49.4746M53.4746 20.0625H49.7246M49.4746 20.0625V16.0625H45.9746V11.5625H42.4746V8.5625H37.4746V4.5625H33.9746V1.5625H26.9746V4.5625H23.4746V8.5625H18.4746V11.5625H14.9746V16.0625H11.4746V20.0625M49.4746 20.0625H46.2246M49.4746 20.0625H49.7246M33.9746 38.5625H23.4746M23.4746 38.5625V42.0625H17.4746M11.4746 20.0625H7.47461V24.5625H3.97461V28.3125H1.47461V36.5625H3.97461V39.5625H7.47461V42.0625H11.4746H17.4746M11.4746 20.0625H14.9746M17.4746 42.0625V49.8125M17.4746 49.8125H11.4746V51.8125H7.47461V54.5625H4.97461V59.3125H31.2246M17.4746 49.8125V53.0625H22.2246V54.5625H26.9746V56.3125H31.2246V59.3125M31.2246 59.3125H37.4746M43.4746 42.0625V47.9375M43.4746 47.9375H48.2246V46.3125H53.4746V48.5625H55.7246V54.5625H53.4746V56.3125H50.5996V58.1875H48.2246V59.3125H37.4746M43.4746 47.9375V49.8125H41.7246V53.0625H39.4746V55.6875H37.4746V59.3125M14.9746 20.0625V31.9375H16.7246V33.8125H24.7246V27.0625M14.9746 20.0625H17.4746V21.3125H20.2246V23.4375M24.7246 27.0625H22.2246V23.4375H20.2246M24.7246 27.0625H36.4746M20.2246 23.4375V30.3125M49.7246 20.0625H46.2246M46.2246 20.0625V31.9375H44.4746V33.8125H36.4746V27.0625M46.2246 20.0625H43.7246V21.3125H40.9746V23.4375M36.4746 27.0625H38.9746V23.4375H40.9746M40.9746 23.4375V30.3125" stroke="black" stroke-width="2"/>
</svg>
