<svg width="472" height="349" viewBox="0 0 472 349" fill="none" xmlns="http://www.w3.org/2000/svg">
<path d="M382.851 330.873C383.188 327.936 383.91 325.055 384.999 322.306C383.91 325.055 383.187 327.936 382.851 330.873Z" fill="black"/>
<path d="M389.162 314.501C390.833 312.06 392.684 309.747 394.698 307.58C394.708 307.575 394.719 307.574 394.729 307.576C394.74 307.578 394.749 307.584 394.756 307.592C394.759 307.597 394.761 307.602 394.762 307.607C394.763 307.612 394.763 307.618 394.762 307.624C394.761 307.629 394.759 307.634 394.756 307.639C394.753 307.643 394.749 307.647 394.744 307.65C392.728 309.807 390.872 312.109 389.191 314.537L389.156 314.53C389.156 314.53 389.156 314.5 389.162 314.501Z" fill="black"/>
<path d="M401.002 301.359L407.682 295.501C407.69 295.495 407.698 295.49 407.707 295.487C407.716 295.484 407.725 295.483 407.734 295.484C407.744 295.485 407.753 295.488 407.761 295.492C407.77 295.496 407.777 295.502 407.783 295.509C407.789 295.517 407.794 295.525 407.796 295.534C407.799 295.543 407.8 295.552 407.8 295.562C407.799 295.571 407.796 295.58 407.792 295.588C407.787 295.597 407.781 295.604 407.774 295.61L401.087 301.413C401.074 301.421 401.059 301.424 401.043 301.421C401.028 301.418 401.015 301.409 401.006 301.396C401.001 301.384 401 301.372 401.002 301.359Z" fill="black"/>
<path d="M414.447 289.817L421.087 283.951C421.098 283.942 421.11 283.937 421.123 283.934C421.136 283.931 421.15 283.931 421.163 283.933C421.176 283.936 421.189 283.942 421.2 283.95C421.21 283.957 421.219 283.968 421.226 283.979C421.241 284.001 421.246 284.028 421.241 284.055C421.235 284.081 421.22 284.103 421.197 284.118L414.517 289.976C414.498 289.987 414.476 289.991 414.455 289.987C414.433 289.982 414.414 289.97 414.401 289.952C414.389 289.933 414.384 289.909 414.389 289.887C414.394 289.864 414.407 289.844 414.427 289.831L414.447 289.817Z" fill="black"/>
<path d="M427.368 277.714C429.368 275.548 431.22 273.251 432.913 270.838C432.923 270.823 432.935 270.811 432.95 270.802C432.964 270.792 432.98 270.785 432.997 270.782C433.014 270.779 433.031 270.779 433.048 270.783C433.065 270.786 433.081 270.793 433.095 270.803C433.11 270.813 433.122 270.825 433.132 270.839C433.141 270.854 433.148 270.87 433.151 270.887C433.154 270.904 433.154 270.921 433.151 270.938C433.147 270.955 433.14 270.971 433.13 270.985C431.42 273.401 429.551 275.701 427.535 277.869C427.525 277.88 427.513 277.89 427.5 277.896C427.487 277.902 427.472 277.906 427.458 277.907C427.443 277.908 427.428 277.906 427.414 277.901C427.4 277.896 427.387 277.889 427.376 277.879C427.364 277.869 427.355 277.857 427.348 277.843C427.341 277.829 427.337 277.814 427.336 277.798C427.335 277.783 427.338 277.768 427.343 277.753C427.349 277.739 427.357 277.725 427.368 277.714Z" fill="black"/>
<path d="M437.289 158.894C437.893 157.55 438.423 156.173 438.876 154.771C439.337 153.377 439.673 151.945 439.88 150.491C439.881 150.468 439.886 150.444 439.896 150.423C439.907 150.402 439.922 150.384 439.94 150.369C439.958 150.354 439.98 150.343 440.002 150.338C440.025 150.332 440.049 150.332 440.072 150.337C440.095 150.341 440.117 150.351 440.136 150.365C440.155 150.38 440.17 150.398 440.181 150.418C440.192 150.439 440.198 150.462 440.199 150.486C440.2 150.509 440.196 150.533 440.187 150.554C439.975 152.027 439.631 153.478 439.159 154.89C438.699 156.299 438.162 157.682 437.55 159.032C437.543 159.05 437.532 159.066 437.519 159.08C437.505 159.093 437.489 159.104 437.471 159.111C437.453 159.118 437.434 159.121 437.415 159.121C437.396 159.12 437.377 159.116 437.36 159.108C437.34 159.1 437.322 159.087 437.307 159.072C437.293 159.056 437.282 159.037 437.275 159.017C437.268 158.997 437.266 158.975 437.269 158.954C437.271 158.933 437.278 158.912 437.289 158.894Z" fill="black"/>
<path d="M438.424 246.315C437.659 245.071 436.669 243.981 435.504 243.1C434.342 242.221 433.075 241.489 431.732 240.922C431.685 240.902 431.649 240.865 431.63 240.818C431.612 240.771 431.612 240.719 431.632 240.673C431.652 240.626 431.69 240.59 431.737 240.571C431.783 240.553 431.836 240.553 431.882 240.573C433.257 241.162 434.553 241.918 435.742 242.824C436.938 243.733 437.953 244.857 438.738 246.138C438.763 246.176 438.771 246.222 438.762 246.267C438.753 246.311 438.727 246.35 438.689 246.375C438.668 246.391 438.644 246.402 438.619 246.407C438.593 246.413 438.567 246.413 438.542 246.407C438.517 246.401 438.493 246.39 438.473 246.374C438.452 246.358 438.435 246.338 438.424 246.315Z" fill="black"/>
<path d="M423.221 238.665C420.307 238.261 417.371 238.04 414.43 238.003C414.402 238.004 414.373 237.998 414.347 237.987C414.32 237.976 414.297 237.96 414.277 237.939C414.257 237.919 414.241 237.895 414.231 237.868C414.22 237.841 414.215 237.813 414.216 237.784C414.217 237.727 414.241 237.673 414.282 237.632C414.323 237.592 414.378 237.57 414.435 237.57C417.393 237.618 420.345 237.85 423.273 238.266C423.299 238.27 423.324 238.279 423.347 238.292C423.37 238.306 423.39 238.324 423.405 238.345C423.421 238.366 423.433 238.39 423.439 238.416C423.446 238.441 423.447 238.468 423.443 238.494C423.436 238.546 423.408 238.593 423.367 238.625C423.325 238.657 423.273 238.672 423.221 238.665Z" fill="black"/>
<path d="M405.605 238.215L396.792 238.977C396.731 238.976 396.672 238.953 396.627 238.911C396.583 238.869 396.555 238.812 396.549 238.751C396.544 238.69 396.562 238.629 396.598 238.58C396.635 238.531 396.689 238.498 396.749 238.486L405.593 237.748C405.654 237.743 405.715 237.762 405.761 237.802C405.808 237.841 405.837 237.898 405.842 237.959C405.847 238.02 405.828 238.08 405.788 238.127C405.748 238.174 405.692 238.203 405.631 238.208L405.605 238.215Z" fill="black"/>
<path d="M363.201 240.253L354.46 241.688C354.394 241.689 354.329 241.666 354.277 241.623C354.226 241.58 354.192 241.52 354.182 241.454C354.171 241.388 354.185 241.321 354.22 241.264C354.255 241.207 354.31 241.165 354.373 241.145L363.11 239.733C363.143 239.728 363.177 239.729 363.211 239.737C363.244 239.745 363.275 239.759 363.302 239.78C363.329 239.8 363.352 239.826 363.37 239.855C363.387 239.884 363.398 239.917 363.403 239.95C363.409 239.984 363.409 240.018 363.402 240.051C363.394 240.084 363.38 240.116 363.361 240.143C363.341 240.171 363.315 240.194 363.286 240.211C363.257 240.229 363.225 240.24 363.191 240.244L363.201 240.253Z" fill="black"/>
<path d="M370.573 243.203L361.837 244.935C361.759 244.949 361.679 244.932 361.614 244.886C361.549 244.841 361.504 244.772 361.489 244.695C361.481 244.656 361.481 244.617 361.489 244.578C361.496 244.54 361.511 244.503 361.533 244.47C361.555 244.438 361.583 244.41 361.616 244.389C361.649 244.367 361.686 244.352 361.724 244.345L370.419 242.665C370.495 242.652 370.572 242.67 370.635 242.713C370.698 242.756 370.742 242.823 370.757 242.898C370.765 242.962 370.751 243.027 370.718 243.082C370.685 243.138 370.634 243.18 370.573 243.203Z" fill="black"/>
<path d="M353.15 246.458L344.479 248.288C344.395 248.305 344.308 248.288 344.237 248.241C344.166 248.194 344.116 248.121 344.099 248.038C344.082 247.954 344.099 247.867 344.146 247.796C344.193 247.725 344.266 247.675 344.349 247.658L353.044 245.833C353.083 245.824 353.124 245.824 353.164 245.831C353.203 245.838 353.241 245.853 353.275 245.876C353.309 245.898 353.337 245.926 353.36 245.96C353.382 245.993 353.398 246.031 353.405 246.071C353.421 246.15 353.405 246.232 353.361 246.3C353.316 246.368 353.247 246.415 353.168 246.432L353.15 246.458Z" fill="black"/>
<path d="M335.866 250.303L327.287 252.501C327.244 252.512 327.201 252.515 327.157 252.508C327.114 252.502 327.073 252.487 327.035 252.465C326.998 252.443 326.965 252.413 326.939 252.378C326.913 252.343 326.894 252.304 326.884 252.261C326.864 252.176 326.877 252.087 326.922 252.011C326.967 251.936 327.039 251.881 327.124 251.859L335.718 249.675C335.8 249.655 335.888 249.667 335.961 249.711C336.035 249.754 336.088 249.825 336.11 249.907C336.121 249.948 336.124 249.991 336.118 250.033C336.112 250.075 336.098 250.115 336.077 250.152C336.055 250.188 336.026 250.22 335.992 250.246C335.958 250.271 335.92 250.289 335.878 250.299L335.866 250.303Z" fill="black"/>
<path d="M318.74 254.814L310.215 257.217C310.138 257.22 310.062 257.198 309.999 257.154C309.937 257.109 309.89 257.045 309.867 256.971C309.845 256.898 309.847 256.819 309.874 256.747C309.901 256.675 309.951 256.613 310.016 256.573L318.555 254.191C318.635 254.181 318.716 254.2 318.783 254.244C318.85 254.289 318.899 254.356 318.921 254.433C318.943 254.511 318.936 254.594 318.902 254.667C318.868 254.74 318.81 254.798 318.736 254.832L318.74 254.814Z" fill="black"/>
<path d="M301.695 259.662L293.17 262.125C293.122 262.145 293.07 262.155 293.018 262.154C292.966 262.153 292.915 262.141 292.868 262.119C292.821 262.096 292.78 262.064 292.746 262.025C292.712 261.985 292.688 261.939 292.673 261.889C292.659 261.839 292.655 261.786 292.663 261.735C292.671 261.683 292.689 261.634 292.717 261.59C292.745 261.546 292.782 261.509 292.826 261.481C292.87 261.452 292.919 261.434 292.97 261.426L301.494 258.999C301.585 258.973 301.682 258.984 301.765 259.03C301.848 259.076 301.909 259.153 301.935 259.244C301.961 259.335 301.95 259.432 301.904 259.515C301.858 259.598 301.781 259.659 301.69 259.685L301.695 259.662Z" fill="black"/>
<path d="M284.645 264.496L276.096 266.839C275.998 266.865 275.894 266.851 275.806 266.8C275.718 266.749 275.654 266.666 275.627 266.568C275.601 266.471 275.614 266.368 275.664 266.281C275.713 266.194 275.796 266.13 275.892 266.104L284.442 263.784C284.489 263.771 284.539 263.768 284.587 263.774C284.636 263.78 284.683 263.796 284.726 263.821C284.768 263.845 284.806 263.878 284.836 263.917C284.866 263.956 284.887 264 284.9 264.048C284.925 264.141 284.912 264.241 284.865 264.324C284.817 264.408 284.738 264.47 284.645 264.496Z" fill="black"/>
<path d="M267.512 269.065L258.891 271.146C258.84 271.162 258.785 271.167 258.732 271.161C258.678 271.155 258.626 271.139 258.579 271.112C258.532 271.085 258.491 271.049 258.459 271.006C258.426 270.963 258.403 270.913 258.391 270.861C258.378 270.808 258.376 270.754 258.385 270.701C258.394 270.647 258.414 270.597 258.444 270.551C258.474 270.506 258.512 270.468 258.557 270.438C258.602 270.408 258.653 270.388 258.706 270.378L267.318 268.313C267.369 268.296 267.423 268.29 267.477 268.295C267.531 268.3 267.583 268.316 267.63 268.342C267.677 268.368 267.719 268.404 267.751 268.447C267.784 268.49 267.807 268.539 267.82 268.592C267.833 268.644 267.834 268.699 267.825 268.752C267.815 268.805 267.795 268.856 267.764 268.901C267.734 268.945 267.695 268.984 267.65 269.012C267.604 269.041 267.553 269.061 267.499 269.069L267.512 269.065Z" fill="black"/>
<path d="M250.224 273.043L241.508 274.707C241.4 274.728 241.288 274.705 241.197 274.643C241.105 274.581 241.042 274.485 241.022 274.377C241.001 274.269 241.024 274.157 241.086 274.065C241.147 273.974 241.243 273.911 241.351 273.89L250.05 272.253C250.15 272.245 250.25 272.275 250.33 272.336C250.41 272.397 250.464 272.486 250.483 272.584C250.501 272.683 250.482 272.786 250.43 272.872C250.378 272.958 250.295 273.021 250.199 273.05L250.224 273.043Z" fill="black"/>
<path d="M232.738 276.08L223.919 277.131C223.813 277.132 223.71 277.093 223.631 277.022C223.551 276.951 223.501 276.854 223.489 276.748C223.477 276.642 223.505 276.536 223.566 276.449C223.628 276.363 223.72 276.302 223.824 276.279L232.607 275.251C232.662 275.244 232.718 275.248 232.771 275.263C232.824 275.278 232.874 275.303 232.917 275.338C232.96 275.372 232.997 275.414 233.024 275.462C233.051 275.511 233.068 275.564 233.074 275.618C233.088 275.724 233.061 275.831 232.998 275.917C232.936 276.002 232.842 276.061 232.738 276.08Z" fill="black"/>
<path d="M215.068 277.789L206.186 278.007C206.128 278.008 206.07 277.998 206.015 277.977C205.96 277.956 205.911 277.924 205.868 277.884C205.826 277.843 205.792 277.795 205.768 277.741C205.745 277.688 205.732 277.63 205.73 277.572C205.729 277.513 205.739 277.455 205.76 277.401C205.781 277.346 205.813 277.296 205.853 277.254C205.894 277.211 205.942 277.177 205.996 277.154C206.049 277.13 206.107 277.117 206.165 277.116L215 276.918C215.058 276.917 215.116 276.927 215.17 276.948C215.223 276.969 215.273 277 215.314 277.04C215.356 277.08 215.389 277.128 215.412 277.181C215.435 277.234 215.448 277.291 215.449 277.349C215.451 277.456 215.414 277.561 215.344 277.643C215.273 277.724 215.175 277.776 215.068 277.789Z" fill="black"/>
<path d="M197.299 277.722L192.871 277.375C191.379 277.226 189.9 276.971 188.444 276.612C188.324 276.588 188.219 276.517 188.152 276.414C188.085 276.312 188.061 276.188 188.086 276.068C188.111 275.948 188.182 275.843 188.284 275.776C188.386 275.709 188.511 275.685 188.63 275.71C190.043 276.061 191.479 276.311 192.928 276.458L197.33 276.812C197.39 276.815 197.448 276.831 197.501 276.858C197.555 276.884 197.602 276.921 197.641 276.966C197.68 277.011 197.71 277.064 197.728 277.12C197.747 277.177 197.754 277.237 197.749 277.296C197.742 277.411 197.691 277.519 197.608 277.598C197.524 277.677 197.414 277.721 197.299 277.722Z" fill="black"/>
<path d="M179.982 273.746C177.245 272.587 174.579 271.265 171.999 269.788C171.945 269.757 171.897 269.716 171.859 269.666C171.821 269.617 171.792 269.56 171.776 269.5C171.743 269.379 171.759 269.249 171.822 269.139C171.885 269.03 171.988 268.95 172.11 268.916C172.231 268.883 172.361 268.9 172.471 268.962C175.017 270.423 177.647 271.731 180.348 272.88C180.462 272.93 180.553 273.023 180.6 273.138C180.647 273.254 180.647 273.383 180.6 273.499C180.55 273.613 180.458 273.703 180.342 273.75C180.226 273.796 180.097 273.794 179.982 273.746Z" fill="black"/>
<path d="M164.524 264.947C162.125 263.181 159.858 261.243 157.74 259.15C157.688 259.105 157.646 259.051 157.617 258.989C157.587 258.928 157.57 258.861 157.568 258.792C157.565 258.724 157.576 258.656 157.601 258.592C157.626 258.529 157.664 258.471 157.712 258.423C157.761 258.374 157.818 258.336 157.882 258.311C157.946 258.286 158.014 258.275 158.082 258.277C158.15 258.28 158.217 258.297 158.279 258.326C158.34 258.356 158.395 258.398 158.44 258.45C160.519 260.513 162.746 262.424 165.101 264.167C165.152 264.206 165.195 264.254 165.228 264.309C165.261 264.364 165.282 264.425 165.291 264.489C165.299 264.553 165.295 264.617 165.279 264.679C165.263 264.741 165.234 264.799 165.195 264.85C165.157 264.901 165.11 264.943 165.056 264.976C165.002 265.008 164.942 265.029 164.879 265.038C164.817 265.047 164.753 265.044 164.692 265.028C164.631 265.012 164.574 264.985 164.524 264.947Z" fill="black"/>
<path d="M152.035 252.249C150.358 249.745 149.094 246.987 148.292 244.082C148.275 244.018 148.27 243.951 148.279 243.886C148.288 243.82 148.31 243.757 148.344 243.699C148.377 243.642 148.422 243.593 148.476 243.553C148.529 243.513 148.59 243.485 148.654 243.469C148.783 243.437 148.92 243.457 149.034 243.525C149.149 243.593 149.233 243.703 149.267 243.831C150.038 246.633 151.257 249.292 152.877 251.705C152.913 251.759 152.938 251.82 152.95 251.884C152.963 251.948 152.962 252.014 152.949 252.078C152.936 252.142 152.91 252.203 152.874 252.257C152.837 252.311 152.79 252.357 152.735 252.393C152.68 252.43 152.618 252.455 152.552 252.468C152.487 252.481 152.42 252.48 152.355 252.467C152.29 252.454 152.228 252.427 152.173 252.39C152.118 252.352 152.071 252.304 152.035 252.249Z" fill="black"/>
<path d="M147.962 235.077C148.264 233.592 148.728 232.145 149.348 230.762C149.648 230.073 149.988 229.402 150.366 228.753L151.479 226.805C151.547 226.688 151.658 226.602 151.789 226.567C151.919 226.532 152.058 226.55 152.176 226.617C152.293 226.685 152.379 226.796 152.414 226.927C152.449 227.057 152.431 227.196 152.364 227.314L152.356 227.348L151.277 229.248C150.901 229.868 150.566 230.512 150.275 231.176C149.688 232.491 149.246 233.866 148.958 235.277C148.946 235.342 148.92 235.404 148.883 235.46C148.847 235.515 148.799 235.562 148.744 235.599C148.689 235.636 148.626 235.662 148.561 235.674C148.496 235.687 148.429 235.686 148.364 235.673C148.298 235.66 148.236 235.635 148.18 235.598C148.125 235.561 148.077 235.514 148.04 235.458C148.002 235.403 147.976 235.341 147.963 235.276C147.95 235.21 147.949 235.143 147.962 235.077Z" fill="black"/>
<path d="M156.994 219.752C159.057 217.593 161.284 215.597 163.655 213.781C163.708 213.736 163.769 213.701 163.836 213.68C163.902 213.659 163.973 213.652 164.042 213.659C164.111 213.666 164.179 213.687 164.24 213.721C164.301 213.755 164.354 213.8 164.397 213.856C164.44 213.911 164.471 213.974 164.488 214.042C164.506 214.109 164.509 214.179 164.499 214.248C164.488 214.317 164.464 214.383 164.427 214.443C164.39 214.502 164.341 214.553 164.284 214.592C161.961 216.387 159.778 218.356 157.754 220.482C157.66 220.579 157.532 220.636 157.397 220.64C157.262 220.644 157.131 220.594 157.032 220.502C156.977 220.457 156.933 220.401 156.901 220.338C156.869 220.275 156.851 220.206 156.847 220.135C156.844 220.065 156.855 219.994 156.88 219.928C156.905 219.862 156.944 219.802 156.994 219.752Z" fill="black"/>
<path d="M170.978 208.731C173.517 207.186 176.121 205.764 178.777 204.436C178.898 204.39 179.032 204.39 179.153 204.437C179.273 204.484 179.372 204.574 179.43 204.69C179.487 204.806 179.5 204.94 179.464 205.064C179.428 205.189 179.348 205.295 179.237 205.363C176.608 206.678 174.025 208.087 171.52 209.615C171.403 209.674 171.268 209.687 171.143 209.652C171.017 209.616 170.909 209.534 170.841 209.423C170.772 209.311 170.749 209.178 170.774 209.05C170.8 208.922 170.872 208.808 170.978 208.731Z" fill="black"/>
<path d="M186.859 200.725L195.12 197.467C195.25 197.418 195.394 197.421 195.521 197.477C195.648 197.533 195.748 197.636 195.801 197.764C195.851 197.894 195.848 198.038 195.793 198.166C195.737 198.293 195.633 198.394 195.503 198.445L187.267 201.672C187.203 201.697 187.135 201.709 187.067 201.708C186.998 201.707 186.931 201.692 186.868 201.664C186.805 201.637 186.749 201.597 186.701 201.548C186.654 201.498 186.617 201.44 186.592 201.376C186.548 201.254 186.552 201.12 186.601 200.999C186.65 200.879 186.742 200.782 186.859 200.725Z" fill="black"/>
<path d="M203.508 194.555L211.978 191.893C212.108 191.863 212.246 191.883 212.362 191.95C212.478 192.017 212.565 192.125 212.605 192.253C212.645 192.381 212.635 192.519 212.577 192.64C212.52 192.761 212.418 192.856 212.294 192.905L203.851 195.554C203.717 195.596 203.573 195.584 203.449 195.519C203.325 195.454 203.231 195.343 203.189 195.21C203.147 195.076 203.16 194.931 203.225 194.807C203.289 194.683 203.4 194.59 203.534 194.548L203.508 194.555Z" fill="black"/>
<path d="M220.488 189.41L229.03 187.011C229.097 186.992 229.168 186.986 229.237 186.995C229.307 187.003 229.374 187.025 229.435 187.059C229.496 187.093 229.549 187.139 229.593 187.194C229.636 187.248 229.668 187.311 229.687 187.379C229.706 187.446 229.712 187.516 229.703 187.586C229.695 187.655 229.673 187.722 229.639 187.783C229.605 187.844 229.559 187.898 229.504 187.941C229.449 187.985 229.386 188.017 229.319 188.036L220.783 190.436C220.647 190.474 220.502 190.457 220.378 190.388C220.255 190.319 220.164 190.204 220.126 190.068C220.088 189.932 220.105 189.787 220.174 189.664C220.243 189.54 220.358 189.45 220.494 189.411L220.488 189.41Z" fill="black"/>
<path d="M237.541 184.583L241.765 183.289C243.177 182.851 244.579 182.428 246 181.974C246.136 181.93 246.284 181.942 246.412 182.007C246.539 182.072 246.635 182.186 246.679 182.322C246.723 182.458 246.711 182.606 246.645 182.734C246.58 182.861 246.467 182.957 246.331 183.001L242.097 184.311L237.854 185.613C237.718 185.654 237.571 185.639 237.446 185.573C237.321 185.506 237.227 185.393 237.185 185.257C237.144 185.121 237.158 184.973 237.225 184.847C237.292 184.721 237.405 184.626 237.541 184.583Z" fill="black"/>
<path d="M254.529 179.52L263.041 177.12C263.111 177.097 263.184 177.089 263.257 177.095C263.33 177.101 263.401 177.122 263.466 177.156C263.531 177.19 263.588 177.237 263.634 177.294C263.681 177.351 263.715 177.417 263.735 177.488C263.755 177.558 263.76 177.632 263.751 177.705C263.742 177.777 263.718 177.848 263.681 177.911C263.644 177.974 263.594 178.029 263.536 178.073C263.477 178.117 263.409 178.148 263.338 178.165L254.802 180.565C254.733 180.584 254.661 180.59 254.59 180.581C254.519 180.572 254.451 180.549 254.389 180.514C254.326 180.479 254.272 180.432 254.228 180.375C254.184 180.319 254.152 180.255 254.132 180.186C254.113 180.117 254.108 180.045 254.117 179.974C254.126 179.903 254.148 179.835 254.184 179.772C254.219 179.71 254.266 179.656 254.322 179.612C254.379 179.568 254.443 179.535 254.512 179.516L254.529 179.52Z" fill="black"/>
<path d="M271.548 174.629L279.989 171.956C280.129 171.912 280.28 171.925 280.41 171.993C280.474 172.026 280.531 172.072 280.577 172.128C280.624 172.183 280.659 172.247 280.681 172.316C280.703 172.385 280.711 172.458 280.704 172.53C280.698 172.602 280.678 172.672 280.644 172.737C280.611 172.801 280.565 172.858 280.51 172.904C280.454 172.951 280.39 172.986 280.321 173.008L271.862 175.708C271.791 175.737 271.716 175.75 271.64 175.749C271.564 175.747 271.489 175.729 271.42 175.697C271.351 175.664 271.29 175.618 271.24 175.561C271.189 175.503 271.152 175.436 271.129 175.364C271.106 175.291 271.099 175.214 271.107 175.139C271.116 175.063 271.14 174.99 271.178 174.924C271.216 174.858 271.267 174.801 271.329 174.756C271.39 174.711 271.46 174.679 271.535 174.663L271.548 174.629Z" fill="black"/>
<path d="M288.348 169.104L296.605 165.948C296.741 165.903 296.89 165.913 297.019 165.975C297.148 166.037 297.248 166.147 297.298 166.281C297.348 166.415 297.344 166.563 297.288 166.695C297.231 166.826 297.126 166.931 296.994 166.987L288.725 170.141C288.588 170.193 288.437 170.188 288.303 170.129C288.17 170.07 288.065 169.961 288.012 169.825C287.967 169.687 287.975 169.538 288.034 169.405C288.092 169.273 288.197 169.166 288.329 169.106L288.348 169.104Z" fill="black"/>
<path d="M304.681 162.41C307.354 161.152 309.963 159.821 312.517 158.376C312.581 158.336 312.652 158.309 312.727 158.297C312.802 158.285 312.878 158.288 312.951 158.306C313.025 158.324 313.094 158.357 313.154 158.403C313.215 158.448 313.265 158.506 313.303 158.571C313.341 158.637 313.365 158.709 313.374 158.784C313.383 158.859 313.376 158.935 313.355 159.008C313.334 159.081 313.298 159.148 313.25 159.207C313.203 159.265 313.143 159.313 313.076 159.348C310.488 160.81 307.84 162.157 305.155 163.419C305.088 163.45 305.017 163.468 304.944 163.471C304.87 163.475 304.797 163.464 304.728 163.439C304.66 163.414 304.596 163.376 304.542 163.327C304.488 163.277 304.444 163.217 304.414 163.151C304.359 163.016 304.356 162.866 304.406 162.73C304.455 162.593 304.553 162.479 304.681 162.41Z" fill="black"/>
<path d="M319.934 153.629C322.304 151.924 324.498 149.987 326.484 147.846C326.594 147.778 326.723 147.748 326.852 147.76C326.981 147.773 327.103 147.827 327.198 147.915C327.292 148.004 327.356 148.12 327.378 148.248C327.4 148.376 327.379 148.507 327.319 148.622C325.281 150.815 323.03 152.801 320.6 154.551C320.481 154.592 320.351 154.595 320.23 154.557C320.11 154.52 320.004 154.445 319.929 154.343C319.855 154.241 319.814 154.118 319.815 153.991C319.815 153.865 319.856 153.742 319.931 153.641L319.934 153.629Z" fill="black"/>
<path d="M331.151 140.613C331.671 139.283 332.015 137.89 332.175 136.47C332.257 135.77 332.286 135.064 332.261 134.359C332.214 133.698 332.048 133.05 331.768 132.448C331.747 132.321 331.767 132.189 331.828 132.074C331.888 131.959 331.984 131.868 332.102 131.813C332.22 131.758 332.352 131.744 332.478 131.772C332.605 131.8 332.719 131.869 332.802 131.968C333.142 132.705 333.343 133.499 333.393 134.309C333.424 135.08 333.396 135.853 333.308 136.62C333.134 138.139 332.764 139.63 332.206 141.054C332.145 141.191 332.035 141.3 331.898 141.359C331.76 141.418 331.605 141.422 331.464 141.371C331.324 141.31 331.213 141.197 331.154 141.056C331.096 140.914 331.094 140.756 331.151 140.613Z" fill="black"/>
<path d="M325.11 127.734C322.317 126.897 319.446 126.343 316.542 126.08C316.454 126.091 316.365 126.081 316.281 126.053C316.197 126.024 316.12 125.977 316.057 125.914C315.994 125.852 315.945 125.776 315.915 125.692C315.885 125.609 315.875 125.519 315.884 125.431C315.894 125.343 315.923 125.258 315.97 125.182C316.016 125.107 316.08 125.043 316.155 124.995C316.229 124.947 316.314 124.917 316.402 124.907C316.491 124.896 316.58 124.906 316.664 124.935C319.649 125.205 322.599 125.775 325.469 126.637C325.585 126.706 325.674 126.811 325.721 126.936C325.769 127.062 325.773 127.2 325.731 127.327C325.69 127.455 325.607 127.565 325.495 127.639C325.383 127.713 325.249 127.747 325.116 127.735L325.11 127.734Z" fill="black"/>
<path d="M307.737 125.614L298.923 125.768C298.782 125.75 298.652 125.683 298.557 125.577C298.462 125.472 298.408 125.336 298.405 125.194C298.402 125.052 298.45 124.913 298.541 124.804C298.632 124.695 298.759 124.622 298.899 124.599L307.772 124.451C307.857 124.434 307.945 124.436 308.029 124.457C308.113 124.477 308.191 124.516 308.259 124.571C308.326 124.625 308.381 124.693 308.419 124.771C308.457 124.849 308.477 124.934 308.479 125.021C308.48 125.107 308.463 125.193 308.427 125.272C308.392 125.351 308.34 125.421 308.274 125.478C308.209 125.534 308.131 125.576 308.048 125.599C307.965 125.623 307.877 125.627 307.792 125.613L307.737 125.614Z" fill="black"/>
<path d="M290.095 126.309L281.288 127.127C281.206 127.144 281.122 127.144 281.041 127.127C280.959 127.109 280.882 127.074 280.815 127.025C280.748 126.976 280.692 126.913 280.651 126.84C280.61 126.767 280.585 126.687 280.577 126.604C280.57 126.521 280.579 126.437 280.606 126.358C280.633 126.28 280.677 126.207 280.734 126.146C280.79 126.085 280.86 126.037 280.936 126.005C281.013 125.973 281.096 125.957 281.179 125.959L290.016 125.14C290.161 125.144 290.299 125.2 290.405 125.299C290.511 125.398 290.577 125.532 290.591 125.676C290.604 125.82 290.564 125.965 290.478 126.081C290.392 126.198 290.266 126.279 290.125 126.309L290.095 126.309Z" fill="black"/>
<path d="M272.498 128.154L263.715 129.322C263.569 129.325 263.427 129.275 263.316 129.18C263.205 129.085 263.133 128.952 263.115 128.807C263.096 128.663 263.131 128.516 263.214 128.396C263.297 128.275 263.422 128.19 263.564 128.157L272.359 126.956C272.436 126.945 272.514 126.95 272.589 126.97C272.664 126.99 272.735 127.025 272.796 127.072C272.858 127.119 272.91 127.178 272.949 127.245C272.988 127.312 273.013 127.387 273.023 127.464C273.033 127.541 273.028 127.619 273.008 127.694C272.988 127.769 272.954 127.839 272.907 127.901C272.86 127.963 272.801 128.014 272.733 128.053C272.666 128.092 272.592 128.118 272.515 128.128L272.498 128.154Z" fill="black"/>
<path d="M254.864 130.153L246.058 130.821C245.92 130.808 245.791 130.746 245.694 130.647C245.597 130.548 245.538 130.418 245.527 130.28C245.516 130.142 245.554 130.005 245.634 129.892C245.714 129.779 245.831 129.697 245.965 129.662L254.801 128.994C254.884 128.975 254.97 128.974 255.053 128.991C255.136 129.009 255.215 129.043 255.283 129.094C255.352 129.144 255.409 129.208 255.45 129.283C255.491 129.357 255.516 129.439 255.523 129.524C255.53 129.609 255.518 129.694 255.489 129.773C255.459 129.853 255.413 129.926 255.353 129.986C255.294 130.046 255.221 130.093 255.142 130.123C255.062 130.153 254.977 130.165 254.893 130.159L254.864 130.153Z" fill="black"/>
<path d="M237.192 131.494L228.363 132.187C228.21 132.197 228.059 132.146 227.942 132.047C227.825 131.947 227.752 131.806 227.737 131.654C227.729 131.502 227.78 131.352 227.879 131.237C227.978 131.121 228.118 131.048 228.269 131.034L237.111 130.337C237.248 130.352 237.375 130.415 237.471 130.514C237.567 130.613 237.625 130.742 237.635 130.88C237.645 131.017 237.607 131.154 237.527 131.266C237.448 131.378 237.331 131.459 237.198 131.495L237.192 131.494Z" fill="black"/>
<path d="M219.526 132.884L210.694 133.595C210.608 133.626 210.516 133.637 210.426 133.627C210.335 133.617 210.248 133.586 210.172 133.537C210.095 133.488 210.031 133.422 209.984 133.344C209.937 133.266 209.909 133.178 209.902 133.087C209.894 132.997 209.908 132.905 209.942 132.821C209.976 132.736 210.028 132.661 210.096 132.6C210.164 132.539 210.245 132.495 210.333 132.471C210.421 132.446 210.513 132.443 210.602 132.46L219.436 131.743C219.521 131.714 219.612 131.705 219.701 131.716C219.791 131.727 219.877 131.759 219.952 131.808C220.027 131.858 220.09 131.924 220.136 132.001C220.182 132.079 220.21 132.166 220.217 132.255C220.224 132.345 220.21 132.436 220.177 132.519C220.144 132.603 220.092 132.678 220.026 132.739C219.959 132.8 219.879 132.844 219.793 132.869C219.706 132.895 219.615 132.9 219.526 132.884Z" fill="black"/>
<path d="M201.868 134.311L193.033 135.033C192.947 135.067 192.855 135.079 192.763 135.071C192.672 135.062 192.584 135.032 192.506 134.983C192.428 134.934 192.362 134.868 192.314 134.79C192.267 134.711 192.238 134.623 192.23 134.531C192.223 134.439 192.237 134.347 192.271 134.262C192.305 134.177 192.359 134.101 192.428 134.04C192.497 133.979 192.579 133.935 192.668 133.911C192.757 133.888 192.85 133.886 192.94 133.904L201.776 133.176C201.903 133.201 202.018 133.266 202.105 133.362C202.191 133.458 202.243 133.58 202.253 133.709C202.264 133.838 202.232 133.966 202.162 134.075C202.092 134.184 201.989 134.267 201.868 134.311Z" fill="black"/>
<path d="M184.202 135.757L175.363 136.497C175.287 136.508 175.209 136.503 175.135 136.484C175.061 136.464 174.991 136.429 174.931 136.381C174.871 136.333 174.821 136.273 174.785 136.205C174.749 136.137 174.727 136.063 174.721 135.986C174.715 135.91 174.725 135.832 174.749 135.76C174.774 135.687 174.814 135.62 174.866 135.563C174.918 135.506 174.981 135.461 175.051 135.429C175.121 135.398 175.197 135.381 175.274 135.38L184.103 134.657C184.177 134.65 184.251 134.658 184.321 134.68C184.392 134.702 184.457 134.738 184.514 134.785C184.57 134.833 184.616 134.891 184.65 134.957C184.684 135.023 184.704 135.094 184.709 135.168C184.716 135.316 184.667 135.46 184.572 135.574C184.477 135.687 184.343 135.761 184.197 135.78L184.202 135.757Z" fill="black"/>
<path d="M166.535 137.189L157.702 137.899C157.63 137.905 157.556 137.896 157.487 137.873C157.417 137.851 157.353 137.814 157.298 137.767C157.242 137.719 157.197 137.661 157.164 137.596C157.131 137.531 157.111 137.46 157.105 137.387C157.1 137.314 157.109 137.241 157.131 137.172C157.154 137.102 157.19 137.038 157.238 136.982C157.285 136.927 157.343 136.882 157.409 136.848C157.474 136.815 157.545 136.796 157.618 136.79L166.445 136.078C166.517 136.072 166.591 136.081 166.66 136.103C166.73 136.126 166.795 136.162 166.85 136.209C166.906 136.256 166.952 136.314 166.985 136.379C167.019 136.444 167.039 136.515 167.045 136.588C167.051 136.661 167.042 136.735 167.02 136.804C166.998 136.874 166.962 136.938 166.914 136.994C166.867 137.05 166.809 137.096 166.744 137.129C166.679 137.163 166.608 137.183 166.535 137.189Z" fill="black"/>
<path d="M148.867 138.595L140.032 139.287C139.887 139.297 139.743 139.25 139.633 139.155C139.522 139.06 139.454 138.925 139.443 138.779C139.432 138.634 139.48 138.49 139.575 138.38C139.67 138.269 139.805 138.201 139.951 138.19L148.781 137.491C148.927 137.48 149.072 137.528 149.183 137.623C149.295 137.718 149.364 137.854 149.376 138C149.382 138.072 149.374 138.145 149.352 138.214C149.33 138.283 149.295 138.347 149.248 138.403C149.202 138.458 149.144 138.504 149.08 138.537C149.015 138.57 148.945 138.59 148.873 138.596L148.867 138.595Z" fill="black"/>
<path d="M131.203 139.986L122.366 140.684C122.223 140.695 122.08 140.648 121.971 140.554C121.861 140.461 121.793 140.327 121.782 140.183C121.771 140.039 121.818 139.897 121.911 139.787C122.005 139.678 122.139 139.61 122.283 139.599L131.113 138.9C131.257 138.887 131.401 138.932 131.511 139.025C131.622 139.118 131.692 139.252 131.704 139.396C131.717 139.54 131.672 139.683 131.579 139.794C131.486 139.905 131.352 139.975 131.208 139.987L131.203 139.986Z" fill="black"/>
<path d="M113.525 141.32L104.672 141.839C104.601 141.844 104.53 141.834 104.463 141.811C104.396 141.788 104.334 141.752 104.281 141.705C104.228 141.659 104.185 141.602 104.154 141.538C104.123 141.475 104.104 141.406 104.1 141.335C104.096 141.264 104.105 141.194 104.128 141.127C104.151 141.06 104.187 140.998 104.234 140.945C104.28 140.892 104.337 140.849 104.401 140.817C104.464 140.786 104.533 140.768 104.604 140.764L113.441 140.235C113.585 140.228 113.726 140.277 113.834 140.373C113.942 140.468 114.008 140.602 114.017 140.746C114.025 140.889 113.975 141.029 113.88 141.136C113.784 141.243 113.651 141.307 113.508 141.316L113.525 141.32Z" fill="black"/>
<path d="M95.8046 142.192L86.9293 142.321C86.7881 142.323 86.6518 142.269 86.5505 142.171C86.4492 142.072 86.3912 141.938 86.3891 141.797C86.3871 141.655 86.4412 141.519 86.5396 141.418C86.638 141.317 86.7726 141.258 86.9138 141.256L95.7603 141.122C95.8346 141.114 95.9097 141.122 95.9808 141.145C96.052 141.167 96.1176 141.205 96.1734 141.255C96.2293 141.304 96.2742 141.365 96.3052 141.433C96.3363 141.501 96.3528 141.574 96.3538 141.649C96.3548 141.724 96.3402 141.798 96.311 141.867C96.2817 141.935 96.2385 141.997 96.184 142.048C96.1295 142.1 96.0649 142.139 95.9944 142.164C95.9239 142.188 95.849 142.198 95.7745 142.192L95.8046 142.192Z" fill="black"/>
<path d="M78.0503 142.177L69.175 141.72C69.0377 141.709 68.91 141.646 68.8188 141.542C68.7276 141.439 68.68 141.305 68.6861 141.167C68.6955 141.029 68.7589 140.901 68.8625 140.809C68.966 140.718 69.1014 140.67 69.2394 140.678L78.0682 141.155C78.138 141.159 78.2063 141.176 78.2693 141.206C78.3323 141.236 78.3887 141.278 78.4354 141.33C78.4821 141.382 78.5181 141.443 78.5414 141.509C78.5647 141.575 78.5747 141.644 78.571 141.714C78.5673 141.784 78.5499 141.852 78.5198 141.915C78.4897 141.978 78.4475 142.035 78.3956 142.081C78.3436 142.128 78.283 142.164 78.2172 142.187C78.1513 142.211 78.0815 142.221 78.0118 142.217L78.0503 142.177Z" fill="black"/>
<path d="M60.3408 140.826L51.5624 139.521C51.4947 139.511 51.4297 139.488 51.371 139.453C51.3124 139.418 51.2612 139.371 51.2204 139.316C51.1797 139.262 51.1501 139.199 51.1335 139.133C51.1168 139.066 51.1134 138.998 51.1234 138.93C51.1334 138.862 51.1566 138.797 51.1918 138.739C51.2269 138.68 51.2733 138.629 51.3282 138.588C51.3831 138.547 51.4455 138.518 51.5118 138.501C51.5781 138.484 51.647 138.481 51.7147 138.491L51.7436 138.497L60.4816 139.794C60.6092 139.824 60.7207 139.902 60.7941 140.011C60.8675 140.119 60.8975 140.252 60.8782 140.382C60.859 140.511 60.7919 140.629 60.6901 140.712C60.5883 140.795 60.4591 140.837 60.3281 140.829L60.3408 140.826Z" fill="black"/>
<path d="M42.8389 137.66C39.9402 136.923 37.1201 135.904 34.4188 134.62C34.358 134.59 34.3038 134.548 34.2591 134.497C34.2144 134.446 34.1803 134.387 34.1585 134.323C34.1367 134.259 34.1278 134.191 34.1323 134.124C34.1367 134.056 34.1544 133.99 34.1844 133.929C34.2143 133.868 34.256 133.814 34.3069 133.769C34.3578 133.725 34.4171 133.691 34.4812 133.669C34.5454 133.647 34.6132 133.638 34.6808 133.643C34.7484 133.647 34.8144 133.665 34.8752 133.695C37.517 134.945 40.2738 135.936 43.107 136.654C43.1732 136.672 43.2352 136.702 43.2895 136.743C43.3439 136.785 43.3895 136.837 43.4238 136.896C43.4581 136.955 43.4804 137.021 43.4894 137.088C43.4983 137.156 43.4938 137.225 43.4761 137.291C43.4394 137.424 43.3521 137.537 43.233 137.606C43.1138 137.675 42.9723 137.695 42.8389 137.66Z" fill="black"/>
<path d="M27.5344 136.734C26.7907 135.332 26.4769 133.743 26.6322 132.164C26.8018 130.625 27.2694 129.134 28.0089 127.774C28.0394 127.714 28.0816 127.66 28.133 127.616C28.1844 127.573 28.244 127.54 28.3083 127.519C28.3726 127.499 28.4403 127.492 28.5075 127.498C28.5746 127.504 28.64 127.523 28.6996 127.554C28.8189 127.618 28.9085 127.726 28.9495 127.855C28.9904 127.984 28.9795 128.124 28.919 128.245C28.2422 129.487 27.8117 130.848 27.6512 132.253C27.5166 133.636 27.7938 135.028 28.448 136.253C28.48 136.313 28.5 136.378 28.5068 136.446C28.5135 136.513 28.5069 136.581 28.4874 136.646C28.4678 136.711 28.4357 136.771 28.3928 136.824C28.3499 136.876 28.2971 136.92 28.2374 136.952C28.1778 136.984 28.1124 137.004 28.045 137.01C27.9776 137.017 27.9095 137.011 27.8446 136.991C27.7798 136.971 27.7194 136.939 27.667 136.896C27.6145 136.854 27.571 136.801 27.539 136.741L27.5344 136.734Z" fill="black"/>
<path d="M33.6 112.728C35.7581 110.677 38.0498 108.77 40.4601 107.022C40.5131 106.975 40.5752 106.94 40.6425 106.919C40.7097 106.898 40.7806 106.891 40.8507 106.899C40.9208 106.907 40.9885 106.929 41.0495 106.964C41.1105 106.999 41.1634 107.047 41.205 107.104C41.2467 107.161 41.276 107.226 41.2911 107.295C41.3063 107.363 41.307 107.435 41.2931 107.504C41.2792 107.573 41.2511 107.638 41.2105 107.696C41.17 107.754 41.1179 107.802 41.0575 107.839C38.686 109.564 36.4301 111.444 34.3045 113.465C34.2051 113.559 34.0725 113.609 33.9359 113.605C33.7993 113.601 33.6698 113.543 33.5759 113.444C33.482 113.345 33.4315 113.212 33.4353 113.076C33.4392 112.939 33.4972 112.809 33.5966 112.716L33.6 112.728Z" fill="black"/>
<path d="M47.8344 102.042L55.5082 97.5952C55.5648 97.561 55.6276 97.5384 55.6931 97.5289C55.7585 97.5194 55.8252 97.523 55.8892 97.5396C55.9532 97.5561 56.0132 97.5854 56.0658 97.6255C56.1184 97.6656 56.1624 97.7158 56.1953 97.7731C56.2618 97.8885 56.2799 98.0255 56.2454 98.1541C56.211 98.2827 56.1268 98.3923 56.0115 98.4589L48.384 102.916C48.3274 102.95 48.2645 102.972 48.1991 102.982C48.1337 102.991 48.067 102.988 48.003 102.971C47.939 102.955 47.8789 102.925 47.8264 102.885C47.7738 102.845 47.7298 102.795 47.6969 102.738C47.6293 102.622 47.6102 102.484 47.6438 102.354C47.6774 102.225 47.7609 102.113 47.8761 102.045L47.8344 102.042Z" fill="black"/>
<path d="M63.3948 93.4868L71.4525 89.7219C71.5702 89.6672 71.7049 89.6614 71.8269 89.7058C71.9489 89.7502 72.0483 89.8411 72.1033 89.9587C72.1312 90.0169 72.1472 90.08 72.1504 90.1445C72.1536 90.2089 72.1438 90.2733 72.1218 90.3339C72.0997 90.3945 72.0658 90.4501 72.0219 90.4974C71.9781 90.5447 71.9252 90.5828 71.8664 90.6094L63.8552 94.3537C63.7339 94.4081 63.5961 94.4127 63.4715 94.3667C63.3468 94.3207 63.2451 94.2276 63.1883 94.1075C63.134 93.9872 63.1293 93.8505 63.1752 93.7268C63.221 93.603 63.3138 93.5023 63.4333 93.4465L63.3948 93.4868Z" fill="black"/>
<path d="M79.6665 86.3391C82.4408 85.2891 85.2345 84.2913 88.094 83.5001C88.1538 83.4831 88.2163 83.478 88.278 83.4852C88.3397 83.4923 88.3994 83.5116 88.4537 83.5418C88.508 83.5721 88.5557 83.6127 88.5942 83.6614C88.6328 83.7102 88.6613 83.766 88.6783 83.8258C88.7122 83.948 88.6961 84.0786 88.6338 84.189C88.5714 84.2994 88.4678 84.3806 88.3456 84.4146C85.5243 85.1956 82.7434 86.19 79.9934 87.239C79.9332 87.2664 79.868 87.2812 79.8018 87.2825C79.7356 87.2838 79.6698 87.2715 79.6086 87.2463C79.5474 87.2212 79.4919 87.1837 79.4457 87.1363C79.3995 87.0889 79.3635 87.0326 79.3399 86.9707C79.3164 86.9089 79.3057 86.8428 79.3087 86.7767C79.3116 86.7106 79.3281 86.6457 79.3571 86.5862C79.386 86.5267 79.4269 86.4737 79.4771 86.4306C79.5274 86.3875 79.5859 86.3552 79.6491 86.3355L79.6665 86.3391Z" fill="black"/>
<path d="M96.7062 81.3173L105.312 79.2209C105.373 79.1991 105.437 79.1904 105.502 79.1952C105.566 79.1999 105.628 79.2181 105.685 79.2486C105.742 79.279 105.792 79.321 105.831 79.3719C105.871 79.4228 105.899 79.4813 105.915 79.5438C105.93 79.6064 105.932 79.6715 105.921 79.7349C105.91 79.7984 105.886 79.8587 105.85 79.9122C105.814 79.9656 105.767 80.0109 105.712 80.0451C105.658 80.0793 105.596 80.1017 105.533 80.1108L96.93 82.22C96.8094 82.2493 96.6821 82.23 96.5756 82.1663C96.4692 82.1025 96.3921 81.9995 96.3609 81.8794C96.3322 81.759 96.3525 81.6323 96.4172 81.5269C96.482 81.4215 96.5859 81.3461 96.7062 81.3173Z" fill="black"/>
<path d="M113.955 77.205L122.597 75.2548C122.712 75.2291 122.833 75.2497 122.933 75.3121C123.032 75.3745 123.104 75.4736 123.131 75.5882C123.145 75.6455 123.146 75.7049 123.136 75.7629C123.126 75.8208 123.105 75.8763 123.074 75.9259C123.042 75.9755 123.001 76.0184 122.952 76.0519C122.904 76.0855 122.85 76.1091 122.792 76.1214L114.153 78.0844C114.042 78.0973 113.93 78.0688 113.839 78.0044C113.748 77.94 113.683 77.8442 113.658 77.7353C113.633 77.6264 113.648 77.512 113.702 77.414C113.756 77.3159 113.844 77.2411 113.949 77.2038L113.955 77.205Z" fill="black"/>
<path d="M98.9339 88.9919L107.594 87.1599C107.651 87.1456 107.71 87.1428 107.768 87.152C107.826 87.1611 107.882 87.1818 107.932 87.213C107.982 87.2441 108.025 87.285 108.059 87.3331C108.092 87.3813 108.116 87.4358 108.128 87.4934C108.143 87.5507 108.146 87.6106 108.137 87.6692C108.128 87.7278 108.107 87.7838 108.075 87.8339C108.043 87.8839 108.001 87.9268 107.952 87.96C107.903 87.9931 107.847 88.0158 107.789 88.0265L99.1333 89.8956C99.0763 89.9099 99.017 89.9126 98.9589 89.9035C98.9008 89.8944 98.8451 89.8736 98.7952 89.8425C98.7453 89.8114 98.7022 89.7705 98.6685 89.7223C98.6348 89.6741 98.6112 89.6197 98.599 89.5621C98.5838 89.5051 98.5804 89.4455 98.5891 89.3871C98.5979 89.3287 98.6185 89.2727 98.6498 89.2226C98.6811 89.1725 98.7223 89.1293 98.7709 89.0958C98.8195 89.0623 98.8745 89.0392 98.9325 89.0278L98.9339 88.9919Z" fill="black"/>
<path d="M148.594 69.6801L157.271 67.8517C157.324 67.8398 157.378 67.8386 157.431 67.8482C157.484 67.8577 157.535 67.8779 157.58 67.9075C157.625 67.9371 157.664 67.9754 157.694 68.0203C157.724 68.0652 157.745 68.1156 157.755 68.1686C157.766 68.2212 157.766 68.2754 157.756 68.3282C157.746 68.381 157.726 68.4313 157.697 68.4763C157.667 68.5212 157.629 68.5599 157.585 68.59C157.54 68.6202 157.49 68.6413 157.438 68.6521L148.772 70.4829C148.664 70.5027 148.554 70.4798 148.463 70.4191C148.372 70.3583 148.308 70.2646 148.286 70.1577C148.263 70.0509 148.283 69.9393 148.341 69.8469C148.399 69.7544 148.491 69.6884 148.597 69.6627L148.594 69.6801Z" fill="black"/>
<path d="M165.935 66.0644L174.606 64.2348C174.657 64.2233 174.709 64.222 174.761 64.231C174.812 64.24 174.861 64.2591 174.904 64.2872C174.948 64.3153 174.985 64.3518 175.015 64.3946C175.044 64.4375 175.065 64.4857 175.075 64.5366C175.097 64.6387 175.077 64.7452 175.02 64.8329C174.964 64.9207 174.875 64.9825 174.773 65.0051L166.102 66.8346C165.997 66.8563 165.888 66.8355 165.799 66.777C165.71 66.7184 165.648 66.6269 165.626 66.5224C165.605 66.418 165.625 66.3092 165.684 66.2201C165.742 66.1309 165.834 66.0686 165.938 66.047L165.935 66.0644Z" fill="black"/>
<path d="M183.274 62.4171L191.931 60.5423C191.979 60.5317 192.029 60.5307 192.078 60.5395C192.127 60.5483 192.174 60.5667 192.216 60.5935C192.257 60.6203 192.294 60.6551 192.322 60.6959C192.35 60.7367 192.37 60.7826 192.381 60.8312C192.391 60.8797 192.392 60.9298 192.384 60.9787C192.375 61.0276 192.356 61.0742 192.33 61.116C192.303 61.1578 192.268 61.1939 192.227 61.2222C192.186 61.2506 192.14 61.2706 192.092 61.2812L183.421 63.1652C183.372 63.176 183.321 63.177 183.271 63.1681C183.221 63.1592 183.174 63.1406 183.131 63.1133C183.089 63.086 183.052 63.0507 183.023 63.0092C182.994 62.9677 182.974 62.921 182.963 62.8716C182.952 62.8223 182.951 62.7713 182.96 62.7215C182.969 62.6718 182.988 62.6243 183.015 62.5818C183.042 62.5392 183.078 62.5025 183.119 62.4736C183.16 62.4447 183.207 62.4243 183.257 62.4135L183.274 62.4171Z" fill="black"/>
<path d="M200.576 58.6306L209.215 56.6375C209.309 56.6159 209.407 56.6323 209.488 56.683C209.569 56.7336 209.627 56.8145 209.648 56.9077C209.67 57.001 209.653 57.0989 209.603 57.1801C209.552 57.2613 209.471 57.319 209.378 57.3405L200.745 59.3348C200.698 59.3461 200.649 59.348 200.601 59.3404C200.553 59.3328 200.507 59.3159 200.466 59.2905C200.425 59.2652 200.389 59.232 200.36 59.1929C200.332 59.1537 200.312 59.1093 200.3 59.0622C200.289 59.0151 200.287 58.9663 200.295 58.9185C200.302 58.8706 200.319 58.8248 200.345 58.7835C200.37 58.7423 200.403 58.7064 200.442 58.678C200.482 58.6495 200.526 58.6291 200.573 58.6178L200.576 58.6306Z" fill="black"/>
<path d="M217.827 54.6031L226.423 52.4684C226.467 52.457 226.512 52.4543 226.556 52.4607C226.601 52.467 226.644 52.4822 226.682 52.5053C226.721 52.5285 226.754 52.5591 226.781 52.5953C226.807 52.6316 226.826 52.6728 226.836 52.7165C226.848 52.7604 226.85 52.8061 226.844 52.851C226.838 52.8959 226.822 52.9391 226.799 52.9781C226.776 53.0171 226.745 53.0511 226.709 53.0781C226.673 53.1051 226.631 53.1246 226.587 53.1355L217.989 55.2818C217.899 55.304 217.803 55.2895 217.724 55.2414C217.644 55.1933 217.587 55.1156 217.565 55.0255C217.543 54.9353 217.558 54.8401 217.606 54.7606C217.654 54.6812 217.731 54.6241 217.822 54.6019L217.827 54.6031Z" fill="black"/>
<path d="M234.995 50.2404L243.537 47.9014C243.579 47.8899 243.623 47.8867 243.666 47.8921C243.709 47.8976 243.751 47.9114 243.789 47.933C243.827 47.9545 243.86 47.9833 243.887 48.0177C243.913 48.052 243.933 48.0913 243.945 48.1333C243.956 48.1753 243.959 48.2192 243.954 48.2624C243.948 48.3056 243.934 48.3473 243.913 48.3851C243.891 48.423 243.863 48.4562 243.828 48.4829C243.794 48.5096 243.755 48.5293 243.713 48.5409L235.168 50.8972C235.123 50.9172 235.075 50.9275 235.027 50.9273C234.978 50.9272 234.931 50.9165 234.887 50.8961C234.843 50.8757 234.804 50.846 234.772 50.8091C234.741 50.7723 234.717 50.729 234.704 50.6824C234.691 50.6357 234.688 50.5868 234.696 50.5389C234.703 50.491 234.721 50.4452 234.747 50.4048C234.774 50.3644 234.809 50.3302 234.851 50.3046C234.892 50.279 234.938 50.2626 234.986 50.2565L234.995 50.2404Z" fill="black"/>
<path d="M252.05 45.4672L260.437 42.6801C260.517 42.6549 260.603 42.6621 260.678 42.7C260.752 42.738 260.809 42.8037 260.835 42.883C260.86 42.9618 260.853 43.0473 260.815 43.1209C260.778 43.1945 260.712 43.2501 260.634 43.2756L252.212 46.0857C252.172 46.0988 252.13 46.104 252.088 46.1008C252.046 46.0977 252.005 46.0863 251.968 46.0674C251.93 46.0484 251.897 46.0223 251.869 45.9904C251.842 45.9585 251.821 45.9216 251.808 45.8816C251.795 45.8417 251.789 45.7995 251.793 45.7576C251.796 45.7157 251.807 45.6748 251.826 45.6372C251.845 45.5997 251.871 45.5662 251.903 45.5388C251.935 45.5114 251.972 45.4905 252.012 45.4774L252.05 45.4672Z" fill="black"/>
<path d="M268.965 37.8326C269.64 37.5593 270.312 37.2611 270.973 36.9475C271.635 36.6339 272.274 36.2812 272.925 35.9227L276.805 33.796C276.836 33.779 276.869 33.7683 276.904 33.7645C276.94 33.7607 276.975 33.7638 277.009 33.7736C277.043 33.7835 277.074 33.7999 277.102 33.822C277.129 33.8441 277.152 33.8713 277.169 33.9022C277.186 33.9331 277.197 33.9671 277.2 34.0021C277.204 34.0372 277.201 34.0726 277.191 34.1064C277.181 34.1403 277.165 34.1718 277.143 34.1993C277.121 34.2268 277.094 34.2497 277.063 34.2666L273.199 36.4206C272.553 36.7827 271.907 37.1448 271.229 37.4607C270.551 37.7765 269.881 38.0913 269.191 38.3751C269.121 38.4009 269.043 38.3991 268.974 38.3702C268.905 38.3413 268.85 38.2873 268.819 38.2192C268.806 38.1845 268.799 38.1475 268.8 38.1103C268.801 38.073 268.809 38.0363 268.824 38.0021C268.839 37.968 268.86 37.9371 268.887 37.9113C268.914 37.8855 268.945 37.8652 268.98 37.8516L268.965 37.8326Z" fill="black"/>
<path d="M284.408 29.2693C286.901 27.6985 289.354 26.053 291.741 24.328C291.792 24.2909 291.855 24.2755 291.917 24.2852C291.98 24.2949 292.035 24.3289 292.073 24.3797C292.11 24.4305 292.125 24.494 292.115 24.5562C292.106 24.6184 292.072 24.6742 292.021 24.7114C289.632 26.4576 287.199 28.1257 284.677 29.6963C284.621 29.7233 284.557 29.7287 284.497 29.7114C284.437 29.6942 284.386 29.6555 284.352 29.6027C284.319 29.55 284.306 29.4869 284.317 29.4254C284.327 29.3639 284.36 29.3083 284.408 29.2693Z" fill="black"/>
<path fill-rule="evenodd" clip-rule="evenodd" d="M44.4723 88.5832C44.0007 99.3842 65.4132 109.822 92.2983 111.898C102.157 112.659 111.383 112.189 119.137 110.757C128.655 108.999 135.957 105.791 139.492 101.626C140.931 99.9305 141.746 98.0769 141.832 96.0982L94.006 72.7838C88.1679 72.3332 82.5518 72.314 77.3317 72.6706C68.4935 73.2745 60.7907 74.956 55.068 77.4455C48.6055 80.2569 44.6681 84.0988 44.4723 88.5832Z" fill="black"/>
<path d="M141.832 96.0982C142.303 85.2972 120.891 74.859 94.006 72.7838M141.832 96.0982C141.746 98.0769 140.931 99.9305 139.492 101.626C135.957 105.791 128.655 108.999 119.137 110.757C111.383 112.189 102.157 112.659 92.2983 111.898C65.4132 109.822 44.0007 99.3842 44.4723 88.5832C44.6681 84.0988 48.6055 80.2569 55.068 77.4455C60.7907 74.956 68.4935 73.2745 77.3317 72.6706C82.5518 72.314 88.1679 72.3332 94.006 72.7838M141.832 96.0982L94.006 72.7838" stroke="black" stroke-width="1.1333"/>
<path d="M170.473 167.023C168.923 177.677 186.344 189.032 209.385 192.385C215.899 193.333 222.166 193.539 227.838 193.107C237.9 192.341 246.094 189.566 250.493 185.353L214.999 153.802C191.958 150.45 172.024 156.369 170.473 167.023Z" fill="black"/>
<path d="M214.999 153.802C191.958 150.45 172.024 156.369 170.473 167.023C168.923 177.677 186.344 189.032 209.385 192.385C215.899 193.333 222.166 193.539 227.838 193.107C237.9 192.341 246.094 189.566 250.493 185.353M214.999 153.802C217.639 154.187 220.205 154.676 222.677 155.257C241.782 159.748 255.284 169.731 253.911 179.164C253.576 181.463 252.386 183.541 250.493 185.353M214.999 153.802L250.493 185.353" stroke="black" stroke-width="1.1333"/>
<path fill-rule="evenodd" clip-rule="evenodd" d="M29.1339 226.81C28.7343 239.973 52.6815 251.613 82.6214 252.808C97.8097 253.414 111.623 251.215 121.599 247.183C131.288 243.267 137.359 237.621 137.556 231.136L115.078 210.703C113.502 210.147 111.861 209.626 110.163 209.142C102.458 206.946 93.5646 205.516 84.0684 205.138C54.1285 203.943 29.5335 213.646 29.1339 226.81Z" fill="black"/>
<path d="M137.556 231.136C137.359 237.621 131.288 243.267 121.599 247.183C111.623 251.215 97.8097 253.414 82.6214 252.808C52.6815 251.613 28.7343 239.973 29.1339 226.81C29.5335 213.646 54.1285 203.943 84.0684 205.138C93.5646 205.516 102.458 206.946 110.163 209.142C111.861 209.626 113.502 210.147 115.078 210.703M137.556 231.136C137.801 223.067 128.9 215.572 115.078 210.703M137.556 231.136L115.078 210.703" stroke="black" stroke-width="1.1333"/>
<path fill-rule="evenodd" clip-rule="evenodd" d="M228.842 306.359C262.929 307.101 290.72 300.434 290.916 291.468C291.111 282.502 263.636 274.632 229.549 273.89C222.409 273.735 215.546 273.904 209.154 274.352L167.489 289.243C168.227 298.015 195.341 305.629 228.842 306.359Z" fill="black"/>
<path d="M167.489 289.243C168.227 298.015 195.341 305.629 228.842 306.359C262.929 307.101 290.72 300.434 290.916 291.468C291.111 282.502 263.636 274.632 229.549 273.89C222.409 273.735 215.546 273.904 209.154 274.352M167.489 289.243C167.476 289.089 167.471 288.935 167.475 288.781C167.629 281.693 185.03 276.042 209.154 274.352M167.489 289.243L209.154 274.352" stroke="black" stroke-width="1.1333"/>
<path fill-rule="evenodd" clip-rule="evenodd" d="M350.27 252.773C377.359 248.238 397.878 235.954 396.1 225.335C394.322 214.716 370.921 209.785 343.832 214.32L298.002 241.757C299.78 252.376 323.181 257.308 350.27 252.773Z" fill="black"/>
<path d="M298.002 241.757C299.78 252.376 323.181 257.308 350.27 252.773C377.359 248.238 397.878 235.954 396.1 225.335C394.322 214.716 370.921 209.785 343.832 214.32M298.002 241.757C296.224 231.139 316.743 218.854 343.832 214.32M298.002 241.757L343.832 214.32" stroke="black" stroke-width="1.1333" stroke-linejoin="round"/>
<ellipse rx="48.8246" ry="19.5755" transform="matrix(0.995589 -0.093825 0.127021 0.9919 92.5498 84.5137)" fill="#F1EFED" stroke="black" stroke-width="1.1333" stroke-linejoin="round"/>
<ellipse cx="348.019" cy="226.045" rx="49.7316" ry="19.4942" transform="rotate(-4.99272 348.019 226.045)" fill="#F1EFED" stroke="black" stroke-width="1.1333" stroke-linejoin="round"/>
<ellipse cx="212.105" cy="168.331" rx="42.1582" ry="17.7391" transform="rotate(1.94988 212.105 168.331)" fill="#F1EFED" stroke="black" stroke-width="1.1333" stroke-linejoin="round"/>
<ellipse rx="53.7826" ry="24.0924" transform="matrix(0.976527 -0.215394 0.270136 0.962822 78.5899 216.228)" fill="#F1EFED" stroke="black" stroke-width="1.1333" stroke-linejoin="round"/>
<path fill-rule="evenodd" clip-rule="evenodd" d="M277.683 132.897C276.187 142.375 294.484 148.088 318.55 145.658C342.615 143.228 363.336 133.575 364.832 124.098C366.327 114.62 348.031 108.907 323.965 111.337L277.683 132.897Z" fill="black"/>
<path d="M277.683 132.897C276.187 142.375 294.484 148.088 318.55 145.658C342.615 143.228 363.336 133.575 364.832 124.098C366.327 114.62 348.031 108.907 323.965 111.337M277.683 132.897C277.959 131.149 278.889 129.395 280.373 127.682C286.936 120.105 304.338 113.319 323.965 111.337M277.683 132.897L323.965 111.337" stroke="black" stroke-width="1.1333" stroke-linejoin="round"/>
<ellipse cx="231.328" cy="278.416" rx="61.7351" ry="21.3307" transform="rotate(11.6697 231.328 278.416)" fill="#F1EFED" stroke="black" stroke-width="1.1333" stroke-linejoin="round"/>
<ellipse rx="43.7961" ry="17.3731" transform="matrix(-0.999999 -0.00135545 0.255627 -0.966776 324.167 120.116)" fill="#F1EFED" stroke="black" stroke-width="1.1333" stroke-linejoin="round"/>
<path d="M41.537 220.103L42.0408 222.56L46.0377 221.74L46.2643 222.845L42.2675 223.665L42.7713 226.122L47.1208 225.23L47.3474 226.335L41.8224 227.468L40.1349 219.239L45.6599 218.106L45.8865 219.211L41.537 220.103ZM52.0421 221.146L52.259 222.204L48.85 222.903L48.633 221.845L52.0421 221.146ZM54.0895 221.89C53.9738 221.326 54.0057 220.784 54.1851 220.266C54.363 219.739 54.6636 219.294 55.087 218.929C55.5088 218.557 56.0097 218.311 56.5896 218.192C57.2401 218.059 57.8633 218.131 58.4593 218.409C59.0615 218.677 59.5076 219.101 59.7975 219.678L58.575 219.929C58.3775 219.643 58.1113 219.44 57.7766 219.321C57.448 219.192 57.1035 219.165 56.743 219.239C56.3747 219.314 56.064 219.472 55.811 219.712C55.5564 219.943 55.3789 220.233 55.2787 220.58C55.1768 220.92 55.1644 221.277 55.2415 221.654C55.3187 222.03 55.4717 222.358 55.7005 222.637C55.9278 222.909 56.2049 223.106 56.5318 223.226C56.8571 223.339 57.204 223.358 57.5723 223.283C57.9328 223.209 58.2395 223.052 58.4925 222.812C58.7518 222.563 58.9159 222.268 58.9848 221.927L60.2074 221.676C60.1681 222.321 59.9254 222.89 59.4791 223.382C59.039 223.864 58.4937 224.172 57.8432 224.305C57.2633 224.424 56.707 224.399 56.1743 224.231C55.64 224.054 55.1883 223.763 54.8192 223.357C54.4484 222.943 54.2052 222.454 54.0895 221.89ZM65.1123 222.814C64.5323 222.933 63.976 222.908 63.4433 222.74C62.909 222.564 62.4573 222.273 62.0882 221.866C61.7175 221.453 61.4743 220.963 61.3585 220.399C61.2428 219.835 61.2747 219.293 61.4542 218.775C61.632 218.248 61.9327 217.803 62.3561 217.438C62.7779 217.066 63.2787 216.82 63.8587 216.701C64.4308 216.584 64.98 216.614 65.5065 216.792C66.0392 216.961 66.4909 217.252 66.8616 217.666C67.2307 218.072 67.4732 218.557 67.5889 219.121C67.7046 219.686 67.6735 220.231 67.4957 220.758C67.3162 221.276 67.0156 221.722 66.5938 222.094C66.1782 222.457 65.6843 222.697 65.1123 222.814ZM64.9001 221.78C65.2606 221.706 65.5721 221.552 65.8345 221.319C66.0954 221.077 66.2806 220.786 66.3904 220.445C66.4985 220.096 66.514 219.734 66.4369 219.358C66.3597 218.982 66.2036 218.658 65.9685 218.388C65.7318 218.11 65.4469 217.915 65.1137 217.804C64.7789 217.685 64.4313 217.662 64.0708 217.736C63.7025 217.811 63.384 217.971 63.1153 218.214C62.8529 218.447 62.6676 218.738 62.5594 219.087C62.4497 219.428 62.4334 219.787 62.5106 220.163C62.5877 220.539 62.7446 220.866 62.9813 221.144C63.2164 221.415 63.5013 221.609 63.8361 221.729C64.1771 221.838 64.5318 221.855 64.9001 221.78ZM76.1267 214.186C76.5969 214.089 77.0371 214.105 77.4472 214.233C77.8651 214.36 78.2225 214.609 78.5193 214.981C78.8223 215.344 79.0349 215.823 79.157 216.418L79.8248 219.675L78.708 219.904L78.0451 216.671C77.939 216.154 77.7057 215.773 77.3452 215.528C76.9926 215.282 76.5929 215.205 76.1462 215.296C75.6603 215.396 75.3038 215.649 75.0767 216.055C74.8497 216.461 74.7875 216.914 74.8904 217.416L75.5341 220.555L74.4173 220.784L73.7544 217.551C73.6483 217.034 73.415 216.653 73.0545 216.408C72.7019 216.162 72.3022 216.085 71.8555 216.176C71.3696 216.276 71.0131 216.529 70.786 216.935C70.559 217.34 70.4968 217.794 70.5997 218.296L71.2434 221.434L70.1266 221.663L68.9212 215.786L69.9792 215.569L70.1697 216.497C70.3154 216.133 70.5335 215.823 70.8241 215.567C71.1225 215.31 71.4598 215.143 71.836 215.066C72.2983 214.971 72.7346 214.987 73.1447 215.116C73.5611 215.234 73.9113 215.469 74.1954 215.819C74.3488 215.412 74.5957 215.063 74.9364 214.773C75.2832 214.473 75.68 214.277 76.1267 214.186ZM88.1713 211.716C88.6415 211.619 89.0817 211.635 89.4918 211.763C89.9098 211.89 90.2671 212.139 90.5639 212.511C90.8669 212.874 91.0795 213.353 91.2016 213.948L91.8694 217.205L90.7527 217.434L90.0897 214.201C89.9836 213.684 89.7504 213.303 89.3899 213.058C89.0372 212.812 88.6376 212.735 88.1909 212.826C87.705 212.926 87.3485 213.179 87.1214 213.585C86.8943 213.99 86.8322 214.444 86.935 214.946L87.5787 218.084L86.462 218.313L85.799 215.081C85.6929 214.564 85.4597 214.183 85.0992 213.938C84.7465 213.692 84.3469 213.615 83.9002 213.706C83.4143 213.806 83.0578 214.059 82.8307 214.465C82.6036 214.87 82.5415 215.324 82.6443 215.826L83.288 218.964L82.1713 219.193L80.9659 213.316L82.0239 213.099L82.2143 214.027C82.36 213.663 82.5782 213.353 82.8687 213.097C83.1672 212.84 83.5044 212.673 83.8806 212.595C84.343 212.501 84.7792 212.517 85.1894 212.646C85.6057 212.764 85.9559 212.999 86.2401 213.349C86.3934 212.942 86.6404 212.593 86.981 212.303C87.3278 212.003 87.7246 211.807 88.1713 211.716ZM95.4668 210.219C96.0702 210.096 96.6218 210.117 97.1216 210.284C97.6292 210.45 98.0534 210.747 98.3944 211.175C98.7338 211.595 98.9686 212.123 99.0987 212.758C99.1325 212.922 99.1535 213.044 99.1617 213.124L94.342 214.113C94.5136 214.551 94.8023 214.884 95.2082 215.111C95.6204 215.329 96.0576 215.39 96.52 215.295C97.2802 215.139 97.7639 214.75 97.9711 214.128L99.1231 213.892C99.0475 214.479 98.7912 215.001 98.3541 215.458C97.9154 215.908 97.3748 216.198 96.7321 216.33C96.16 216.447 95.6163 216.424 95.1009 216.26C94.5839 216.088 94.1486 215.798 93.7952 215.389C93.4401 214.971 93.2032 214.473 93.0842 213.893C92.9653 213.313 92.9877 212.765 93.1515 212.25C93.3137 211.727 93.5956 211.289 93.9971 210.937C94.4048 210.576 94.8947 210.337 95.4668 210.219ZM95.6458 211.212C95.1834 211.307 94.8135 211.533 94.5359 211.893C94.2663 212.25 94.1388 212.664 94.1537 213.135L97.7626 212.395C97.6191 211.934 97.35 211.597 96.9551 211.384C96.5681 211.17 96.1317 211.112 95.6458 211.212ZM103.391 208.594C103.579 208.556 103.758 208.531 103.927 208.521L104.151 209.614C104.004 209.612 103.777 209.642 103.472 209.705C103.127 209.776 102.837 209.917 102.603 210.128C102.376 210.338 102.216 210.591 102.122 210.888C102.034 211.176 102.022 211.476 102.086 211.79L102.739 214.975L101.623 215.204L100.417 209.327L101.475 209.11L101.661 210.015C101.816 209.656 102.044 209.353 102.344 209.103C102.65 208.844 102.999 208.675 103.391 208.594ZM105.43 211.361C105.314 210.797 105.346 210.256 105.525 209.737C105.703 209.21 106.004 208.765 106.427 208.4C106.849 208.028 107.35 207.783 107.93 207.664C108.58 207.53 109.203 207.602 109.799 207.88C110.402 208.149 110.848 208.572 111.138 209.149L109.915 209.4C109.718 209.114 109.451 208.911 109.117 208.792C108.788 208.664 108.444 208.636 108.083 208.71C107.715 208.786 107.404 208.943 107.151 209.183C106.897 209.415 106.719 209.704 106.619 210.052C106.517 210.391 106.505 210.749 106.582 211.125C106.659 211.501 106.812 211.829 107.041 212.109C107.268 212.381 107.545 212.577 107.872 212.698C108.197 212.811 108.544 212.83 108.912 212.754C109.273 212.68 109.58 212.523 109.833 212.284C110.092 212.034 110.256 211.739 110.325 211.399L111.548 211.148C111.508 211.793 111.266 212.361 110.819 212.853C110.379 213.335 109.834 213.643 109.183 213.776C108.603 213.895 108.047 213.871 107.514 213.702C106.98 213.526 106.528 213.235 106.159 212.829C105.789 212.415 105.545 211.926 105.43 211.361ZM115.081 206.197C115.685 206.073 116.236 206.095 116.736 206.262C117.244 206.427 117.668 206.724 118.009 207.152C118.348 207.573 118.583 208.1 118.713 208.735C118.747 208.9 118.768 209.022 118.776 209.102L113.956 210.09C114.128 210.529 114.417 210.862 114.823 211.089C115.235 211.306 115.672 211.368 116.134 211.273C116.895 211.117 117.378 210.728 117.586 210.106L118.738 209.869C118.662 210.457 118.406 210.979 117.969 211.436C117.53 211.885 116.989 212.176 116.347 212.307C115.775 212.425 115.231 212.401 114.715 212.238C114.198 212.066 113.763 211.776 113.41 211.366C113.055 210.949 112.818 210.45 112.699 209.871C112.58 209.291 112.602 208.743 112.766 208.228C112.928 207.704 113.21 207.267 113.612 206.915C114.019 206.554 114.509 206.314 115.081 206.197ZM115.26 207.189C114.798 207.284 114.428 207.511 114.15 207.87C113.881 208.228 113.753 208.642 113.768 209.112L117.377 208.372C117.234 207.912 116.964 207.575 116.57 207.362C116.183 207.147 115.746 207.09 115.26 207.189Z" fill="black"/>
<path d="M318.967 224.729L319.201 227.226L323.263 226.844L323.369 227.967L319.307 228.349L319.541 230.846L323.962 230.431L324.067 231.554L318.452 232.081L317.667 223.718L323.282 223.191L323.387 224.314L318.967 224.729ZM330.751 222.429L331.541 230.852L330.406 230.959L330.322 230.063C330.105 230.405 329.83 230.684 329.497 230.9C329.163 231.108 328.797 231.23 328.398 231.268C327.873 231.317 327.382 231.231 326.928 231.008C326.472 230.778 326.099 230.439 325.808 229.992C325.517 229.546 325.343 229.024 325.287 228.426C325.231 227.829 325.304 227.284 325.507 226.79C325.71 226.297 326.014 225.899 326.42 225.596C326.824 225.285 327.289 225.105 327.815 225.055C328.229 225.016 328.625 225.076 329.001 225.233C329.377 225.391 329.709 225.629 329.996 225.947L329.675 222.53L330.751 222.429ZM328.491 230.199C328.841 230.166 329.152 230.048 329.422 229.846C329.692 229.644 329.892 229.38 330.023 229.054C330.152 228.721 330.198 228.359 330.162 227.969C330.125 227.578 330.012 227.235 329.824 226.94C329.635 226.636 329.389 226.41 329.085 226.262C328.782 226.113 328.455 226.056 328.105 226.089C327.755 226.121 327.448 226.239 327.186 226.44C326.923 226.641 326.728 226.909 326.598 227.242C326.468 227.568 326.421 227.926 326.458 228.316C326.495 228.707 326.608 229.054 326.797 229.357C326.985 229.653 327.227 229.875 327.522 230.024C327.817 230.173 328.14 230.231 328.491 230.199ZM338.988 224.127L339.549 230.101L338.474 230.202L338.384 229.246C338.191 229.593 337.929 229.883 337.598 230.115C337.273 230.338 336.912 230.469 336.513 230.506C336.028 230.552 335.58 230.489 335.17 230.319C334.768 230.148 334.432 229.866 334.163 229.473C333.9 229.072 333.74 228.569 333.683 227.963L333.373 224.654L334.508 224.547L334.816 227.833C334.866 228.359 335.06 228.762 335.4 229.044C335.74 229.325 336.145 229.444 336.614 229.4C336.957 229.368 337.248 229.26 337.488 229.077C337.735 228.885 337.913 228.643 338.023 228.352C338.14 228.059 338.183 227.75 338.153 227.423L337.853 224.233L338.988 224.127ZM341.241 226.929C341.187 226.355 341.278 225.82 341.512 225.324C341.746 224.82 342.094 224.41 342.554 224.094C343.014 223.769 343.538 223.579 344.128 223.524C344.789 223.462 345.4 223.601 345.963 223.942C346.532 224.275 346.93 224.743 347.155 225.349L345.913 225.466C345.748 225.16 345.505 224.929 345.185 224.775C344.872 224.611 344.533 224.547 344.167 224.581C343.792 224.616 343.466 224.739 343.189 224.95C342.911 225.153 342.703 225.421 342.565 225.756C342.427 226.082 342.376 226.436 342.412 226.819C342.448 227.201 342.564 227.544 342.762 227.847C342.958 228.141 343.212 228.367 343.524 228.522C343.835 228.67 344.178 228.726 344.552 228.691C344.919 228.657 345.241 228.534 345.518 228.323C345.803 228.103 345.998 227.828 346.104 227.497L347.346 227.38C347.237 228.017 346.934 228.556 346.437 228.996C345.947 229.428 345.372 229.675 344.711 229.737C344.121 229.792 343.571 229.707 343.06 229.482C342.548 229.249 342.13 228.91 341.807 228.466C341.484 228.015 341.295 227.502 341.241 226.929ZM354.322 222.688L354.883 228.661L353.748 228.768L353.664 227.872C353.447 228.214 353.172 228.492 352.839 228.709C352.505 228.917 352.138 229.039 351.74 229.077C351.215 229.126 350.724 229.04 350.27 228.817C349.814 228.587 349.441 228.248 349.15 227.801C348.859 227.355 348.685 226.833 348.629 226.235C348.573 225.638 348.646 225.093 348.849 224.599C349.052 224.106 349.356 223.708 349.761 223.405C350.166 223.094 350.631 222.913 351.157 222.864C351.571 222.825 351.967 222.885 352.343 223.042C352.719 223.2 353.051 223.438 353.338 223.756L353.247 222.788L354.322 222.688ZM351.833 228.008C352.183 227.975 352.494 227.857 352.764 227.655C353.034 227.453 353.234 227.189 353.364 226.863C353.494 226.53 353.54 226.168 353.504 225.778C353.467 225.387 353.354 225.044 353.166 224.749C352.977 224.445 352.731 224.219 352.427 224.071C352.124 223.922 351.797 223.865 351.447 223.898C351.096 223.93 350.79 224.048 350.528 224.249C350.265 224.45 350.07 224.718 349.94 225.051C349.81 225.377 349.763 225.735 349.8 226.125C349.837 226.516 349.949 226.863 350.139 227.166C350.327 227.462 350.569 227.684 350.864 227.833C351.159 227.982 351.482 228.04 351.833 228.008ZM358.429 223.387L358.725 226.541C358.749 226.796 358.831 226.985 358.971 227.108C359.119 227.231 359.356 227.277 359.683 227.247C359.985 227.218 360.246 227.17 360.465 227.101L360.562 228.14C360.338 228.234 360.066 228.295 359.748 228.325C359.095 228.387 358.586 228.278 358.223 227.998C357.858 227.711 357.647 227.261 357.59 226.648L357.294 223.493L356.099 223.606L355.998 222.53L357.193 222.418L357.047 220.865L358.182 220.758L358.328 222.312L361.314 222.031L361.415 223.107L358.429 223.387ZM363.012 221.872L363.573 227.846L362.438 227.952L361.877 221.978L363.012 221.872ZM362.859 219.476L362.983 220.79L361.716 220.909L361.593 219.595L362.859 219.476ZM368.732 227.482C368.142 227.537 367.592 227.452 367.081 227.227C366.569 226.994 366.151 226.655 365.828 226.212C365.505 225.76 365.316 225.247 365.262 224.674C365.208 224.1 365.299 223.566 365.533 223.069C365.767 222.565 366.115 222.155 366.575 221.839C367.035 221.514 367.559 221.325 368.149 221.269C368.73 221.215 369.273 221.304 369.777 221.538C370.288 221.763 370.706 222.102 371.029 222.554C371.352 222.997 371.54 223.506 371.594 224.079C371.648 224.653 371.558 225.192 371.324 225.696C371.09 226.192 370.742 226.602 370.283 226.927C369.83 227.242 369.313 227.427 368.732 227.482ZM368.633 226.431C368.999 226.396 369.326 226.277 369.612 226.073C369.897 225.862 370.113 225.593 370.259 225.265C370.405 224.93 370.459 224.572 370.423 224.189C370.388 223.807 370.267 223.469 370.063 223.175C369.858 222.872 369.596 222.648 369.277 222.501C368.957 222.346 368.614 222.286 368.247 222.321C367.873 222.356 367.539 222.479 367.246 222.692C366.959 222.895 366.744 223.165 366.598 223.5C366.452 223.827 366.397 224.182 366.433 224.564C366.469 224.946 366.589 225.289 366.795 225.591C366.999 225.885 367.261 226.109 367.581 226.264C367.908 226.41 368.259 226.466 368.633 226.431ZM376.316 220.503C376.802 220.457 377.246 220.52 377.647 220.691C378.057 220.861 378.393 221.147 378.656 221.548C378.926 221.941 379.089 222.44 379.146 223.045L379.457 226.355L378.322 226.461L378.013 223.176C377.964 222.65 377.769 222.246 377.43 221.965C377.09 221.683 376.685 221.565 376.215 221.609C375.872 221.641 375.578 221.753 375.331 221.945C375.091 222.128 374.912 222.366 374.795 222.658C374.686 222.95 374.646 223.259 374.677 223.585L374.976 226.775L373.841 226.882L373.281 220.908L374.356 220.807L374.446 221.763C374.638 221.415 374.896 221.13 375.221 220.907C375.553 220.675 375.918 220.54 376.316 220.503Z" fill="black"/>
<path d="M191.237 265.983L190.68 268.429L194.658 269.334L194.408 270.434L190.43 269.528L189.873 271.974L194.202 272.96L193.951 274.06L188.452 272.807L190.317 264.617L195.816 265.869L195.566 266.969L191.237 265.983ZM200.404 269.252C200.88 269.36 201.282 269.559 201.61 269.847C201.946 270.137 202.176 270.513 202.301 270.976C202.434 271.433 202.434 271.958 202.299 272.551L201.561 275.792L200.449 275.539L201.182 272.321C201.299 271.807 201.24 271.362 201.005 270.989C200.77 270.616 200.423 270.376 199.963 270.272C199.627 270.195 199.312 270.21 199.018 270.315C198.732 270.414 198.489 270.584 198.286 270.825C198.091 271.068 197.957 271.349 197.885 271.669L197.173 274.793L196.062 274.54L197.394 268.69L198.447 268.93L198.234 269.866C198.525 269.596 198.86 269.405 199.238 269.294C199.625 269.177 200.014 269.163 200.404 269.252ZM206.343 271.835L205.64 274.924C205.583 275.174 205.598 275.378 205.685 275.537C205.779 275.698 205.975 275.813 206.271 275.88C206.552 275.944 206.795 275.975 207.001 275.972L206.769 276.99C206.542 277.013 206.277 276.989 205.973 276.92C204.733 276.637 204.251 275.888 204.528 274.671L205.231 271.582L204.061 271.316L204.301 270.263L205.471 270.529L205.818 269.008L206.929 269.261L206.583 270.782L208.221 271.155L207.981 272.208L206.343 271.835ZM212.474 272.001C213.075 272.137 213.568 272.385 213.954 272.744C214.348 273.104 214.612 273.55 214.745 274.081C214.88 274.604 214.876 275.181 214.732 275.813C214.695 275.977 214.663 276.097 214.638 276.173L209.841 275.081C209.816 275.551 209.941 275.973 210.217 276.348C210.502 276.716 210.875 276.953 211.335 277.058C212.091 277.23 212.693 277.076 213.139 276.595L214.285 276.856C213.974 277.359 213.525 277.729 212.938 277.964C212.352 278.192 211.74 278.233 211.1 278.087C210.531 277.958 210.045 277.712 209.644 277.35C209.244 276.98 208.968 276.535 208.815 276.016C208.664 275.49 208.655 274.938 208.786 274.361C208.918 273.783 209.164 273.294 209.527 272.892C209.891 272.483 210.328 272.201 210.839 272.047C211.36 271.886 211.905 271.871 212.474 272.001ZM212.227 272.978C211.767 272.873 211.336 272.927 210.935 273.139C210.542 273.353 210.254 273.678 210.073 274.112L213.665 274.93C213.725 274.451 213.619 274.034 213.348 273.676C213.084 273.321 212.711 273.088 212.227 272.978ZM220.361 273.796C220.548 273.839 220.721 273.891 220.88 273.951L220.632 275.04C220.499 274.976 220.28 274.91 219.976 274.841C219.632 274.763 219.31 274.772 219.01 274.867C218.717 274.965 218.466 275.129 218.257 275.36C218.058 275.586 217.923 275.855 217.852 276.167L217.13 279.337L216.019 279.084L217.351 273.234L218.404 273.474L218.199 274.375C218.488 274.113 218.821 273.93 219.197 273.827C219.583 273.718 219.971 273.708 220.361 273.796ZM223.843 275.82L223.14 278.909C223.083 279.159 223.098 279.363 223.185 279.522C223.28 279.683 223.475 279.798 223.772 279.865C224.052 279.929 224.296 279.96 224.501 279.957L224.27 280.975C224.043 280.998 223.778 280.974 223.473 280.905C222.233 280.622 221.751 279.873 222.029 278.656L222.732 275.567L221.562 275.301L221.802 274.248L222.972 274.514L223.318 272.993L224.43 273.246L224.083 274.767L225.721 275.14L225.482 276.193L223.843 275.82ZM232.803 276.753L231.471 282.603L230.359 282.35L230.559 281.472C230.246 281.729 229.898 281.908 229.514 282.009C229.131 282.103 228.745 282.105 228.355 282.016C227.84 281.899 227.402 281.664 227.039 281.311C226.678 280.95 226.429 280.511 226.292 279.996C226.155 279.481 226.153 278.931 226.287 278.346C226.42 277.761 226.66 277.265 227.006 276.86C227.353 276.455 227.766 276.172 228.246 276.01C228.728 275.841 229.226 275.815 229.741 275.932C230.146 276.025 230.503 276.204 230.812 276.471C231.12 276.739 231.361 277.068 231.534 277.461L231.75 276.513L232.803 276.753ZM228.777 281.029C229.12 281.108 229.452 281.093 229.771 280.985C230.091 280.878 230.364 280.689 230.589 280.421C230.816 280.144 230.973 279.815 231.06 279.433C231.147 279.05 231.148 278.689 231.061 278.35C230.976 278.002 230.813 277.711 230.571 277.475C230.329 277.239 230.037 277.083 229.693 277.004C229.35 276.926 229.022 276.942 228.71 277.051C228.398 277.161 228.129 277.354 227.902 277.63C227.676 277.899 227.52 278.224 227.433 278.607C227.346 278.989 227.345 279.354 227.43 279.701C227.517 280.041 227.677 280.328 227.911 280.562C228.145 280.795 228.434 280.951 228.777 281.029ZM236.374 277.566L235.042 283.416L233.931 283.163L235.263 277.313L236.374 277.566ZM236.977 275.242L236.684 276.529L235.444 276.246L235.737 274.959L236.977 275.242ZM241.84 278.687C242.316 278.796 242.718 278.994 243.046 279.282C243.382 279.572 243.613 279.948 243.737 280.411C243.871 280.869 243.87 281.394 243.735 281.986L242.997 285.227L241.886 284.974L242.618 281.757C242.735 281.242 242.677 280.798 242.442 280.424C242.207 280.051 241.859 279.812 241.399 279.707C241.064 279.63 240.748 279.645 240.454 279.75C240.169 279.849 239.925 280.019 239.722 280.26C239.527 280.503 239.394 280.784 239.321 281.104L238.609 284.228L237.498 283.975L238.83 278.125L239.883 278.365L239.67 279.301C239.961 279.031 240.296 278.84 240.674 278.729C241.061 278.613 241.45 278.599 241.84 278.687ZM253.893 281.432C254.361 281.538 254.755 281.735 255.076 282.021C255.404 282.309 255.626 282.684 255.743 283.145C255.869 283.601 255.864 284.125 255.73 284.718L254.992 287.959L253.88 287.706L254.613 284.488C254.73 283.973 254.675 283.53 254.448 283.158C254.228 282.788 253.896 282.553 253.452 282.451C252.968 282.341 252.539 282.424 252.165 282.7C251.79 282.975 251.546 283.363 251.432 283.862L250.721 286.986L249.609 286.733L250.342 283.515C250.459 283.001 250.404 282.557 250.177 282.186C249.958 281.816 249.626 281.58 249.181 281.479C248.698 281.369 248.268 281.452 247.894 281.727C247.519 282.003 247.275 282.39 247.161 282.89L246.45 286.014L245.339 285.761L246.671 279.91L247.724 280.15L247.513 281.074C247.797 280.803 248.124 280.61 248.494 280.498C248.872 280.387 249.248 280.374 249.622 280.459C250.083 280.564 250.473 280.76 250.793 281.046C251.123 281.326 251.345 281.685 251.459 282.121C251.767 281.813 252.136 281.598 252.567 281.474C253.006 281.345 253.449 281.331 253.893 281.432ZM261.155 283.085C261.755 283.222 262.249 283.47 262.635 283.828C263.028 284.189 263.292 284.635 263.425 285.165C263.561 285.688 263.556 286.266 263.413 286.898C263.375 287.062 263.344 287.182 263.318 287.258L258.521 286.165C258.496 286.636 258.621 287.058 258.897 287.433C259.182 287.801 259.555 288.038 260.015 288.143C260.772 288.315 261.373 288.161 261.819 287.68L262.966 287.941C262.654 288.444 262.205 288.814 261.618 289.049C261.033 289.277 260.421 289.318 259.781 289.172C259.211 289.043 258.726 288.797 258.324 288.434C257.925 288.064 257.648 287.62 257.496 287.101C257.345 286.575 257.335 286.023 257.467 285.445C257.598 284.868 257.845 284.379 258.207 283.977C258.571 283.568 259.009 283.286 259.52 283.131C260.04 282.971 260.585 282.956 261.155 283.085ZM260.907 284.063C260.447 283.958 260.017 284.012 259.615 284.224C259.222 284.438 258.935 284.762 258.754 285.197L262.346 286.015C262.406 285.536 262.3 285.118 262.028 284.761C261.765 284.406 261.391 284.173 260.907 284.063ZM269.042 284.881C269.517 284.99 269.92 285.188 270.248 285.476C270.584 285.766 270.814 286.142 270.938 286.605C271.072 287.062 271.071 287.587 270.936 288.18L270.198 291.421L269.087 291.168L269.82 287.951C269.937 287.436 269.878 286.992 269.643 286.618C269.408 286.245 269.061 286.005 268.6 285.901C268.265 285.824 267.95 285.839 267.655 285.944C267.37 286.043 267.126 286.213 266.924 286.454C266.729 286.697 266.595 286.978 266.522 287.298L265.811 290.422L264.699 290.169L266.031 284.319L267.084 284.559L266.871 285.495C267.163 285.225 267.497 285.034 267.875 284.923C268.263 284.806 268.652 284.792 269.042 284.881ZM274.981 287.464L274.277 290.553C274.22 290.803 274.235 291.007 274.322 291.167C274.417 291.328 274.612 291.442 274.909 291.509C275.19 291.573 275.433 291.604 275.638 291.602L275.407 292.62C275.18 292.642 274.915 292.618 274.61 292.549C273.37 292.267 272.889 291.517 273.166 290.3L273.869 287.211L272.699 286.945L272.939 285.892L274.109 286.158L274.455 284.637L275.567 284.89L275.22 286.411L276.858 286.784L276.619 287.837L274.981 287.464Z" fill="black"/>
<path d="M65.7017 82.6666L66.4856 91.0299L65.2909 91.1419L64.9526 87.5337L60.1736 87.9817L60.5118 91.5899L59.3171 91.7019L58.5331 83.3386L59.7278 83.2266L60.0661 86.8347L64.8451 86.3867L64.5069 82.7786L65.7017 82.6666ZM71.0671 84.4536C71.6805 84.3961 72.2264 84.4775 72.7051 84.6978C73.1917 84.9173 73.5812 85.2585 73.8737 85.7212C74.1654 86.1759 74.3415 86.7259 74.402 87.3711C74.4177 87.5383 74.4253 87.6622 74.4248 87.7426L69.5262 88.2018C69.6492 88.6563 69.9001 89.0184 70.2789 89.2883C70.665 89.5494 71.093 89.6579 71.5629 89.6138C72.3355 89.5414 72.8586 89.2071 73.1322 88.611L74.303 88.5012C74.1641 89.0767 73.8526 89.5679 73.3685 89.9749C72.8836 90.3739 72.3146 90.604 71.6615 90.6652C71.08 90.7197 70.542 90.6376 70.0474 90.4188C69.5521 90.192 69.151 89.856 68.8441 89.4107C68.5364 88.9574 68.355 88.4361 68.2997 87.8467C68.2445 87.2573 68.3263 86.7153 68.5451 86.2207C68.7631 85.7181 69.0908 85.3138 69.5281 85.0076C69.9727 84.6928 70.4857 84.5081 71.0671 84.4536ZM71.1373 85.4594C70.6674 85.5035 70.275 85.6889 69.9601 86.0157C69.6532 86.3418 69.4816 86.7396 69.4452 87.209L73.1131 86.8652C73.0206 86.3917 72.7896 86.0277 72.4202 85.7731C72.0588 85.5177 71.6312 85.4131 71.1373 85.4594ZM81.5798 83.5886L82.1398 89.5624L81.0048 89.6688L80.9208 88.7728C80.7038 89.1145 80.4286 89.3934 80.0953 89.6095C79.7613 89.8176 79.3951 89.9403 78.9969 89.9776C78.4712 90.0269 77.9809 89.9403 77.5262 89.7177C77.0707 89.4872 76.6974 89.1486 76.4065 88.7018C76.1155 88.255 75.942 87.7329 75.886 87.1355C75.83 86.5382 75.9035 85.9929 76.1063 85.4998C76.3092 85.0067 76.6134 84.6086 77.0188 84.3055C77.4236 83.9943 77.8888 83.8141 78.4145 83.7648C78.8286 83.726 79.2239 83.7854 79.6003 83.9429C79.9766 84.1005 80.3083 84.3386 80.5953 84.6572L80.5045 83.6894L81.5798 83.5886ZM79.0895 88.9083C79.4399 88.8754 79.7503 88.758 80.0206 88.5558C80.2909 88.3537 80.4912 88.0899 80.6214 87.7643C80.7508 87.4308 80.7972 87.0689 80.7606 86.6786C80.7241 86.2883 80.6116 85.9453 80.4231 85.6496C80.234 85.3459 79.9878 85.1199 79.6846 84.9716C79.3815 84.8232 79.0546 84.7655 78.7042 84.7983C78.3537 84.8312 78.0473 84.9483 77.785 85.1496C77.5226 85.351 77.3267 85.6184 77.1973 85.952C77.0671 86.2776 77.0203 86.6355 77.0569 87.0258C77.0935 87.4161 77.2063 87.763 77.3955 88.0667C77.5839 88.3624 77.8258 88.5848 78.121 88.7339C78.4162 88.883 78.739 88.9411 79.0895 88.9083ZM84.9971 80.7975L85.7866 89.2206L84.6516 89.327L83.862 80.9039L84.9971 80.7975ZM89.3285 83.947L89.6242 87.1012C89.6481 87.3561 89.7261 87.5456 89.8583 87.6698C89.9984 87.7933 90.2198 87.8408 90.5225 87.8124C90.8092 87.7856 91.0499 87.7389 91.2446 87.6724L91.342 88.7119C91.1337 88.8037 90.8742 88.8642 90.5636 88.8933C89.2971 89.012 88.6056 88.4501 88.4892 87.2076L88.1935 84.0534L86.9987 84.1654L86.8979 83.0901L88.0927 82.9781L87.9471 81.4249L89.0821 81.3185L89.2277 82.8717L90.9004 82.7149L91.0012 83.7902L89.3285 83.947ZM95.7638 82.1385C96.2656 82.0914 96.7253 82.1528 97.143 82.3226C97.5686 82.4916 97.9167 82.7763 98.1873 83.1768C98.4571 83.5694 98.6204 84.0683 98.6771 84.6736L98.9874 87.9831L97.8523 88.0895L97.5443 84.8039C97.4951 84.2782 97.3006 83.8746 96.9608 83.5931C96.621 83.3116 96.2162 83.1929 95.7462 83.2369C95.4276 83.2668 95.1448 83.3777 94.8976 83.5696C94.6504 83.7615 94.4646 84.0079 94.3402 84.3088C94.2229 84.601 94.1796 84.9104 94.2102 85.237L94.507 88.4031L93.372 88.5095L92.5824 80.0865L93.6577 79.9857L93.9623 83.2354C94.1672 82.935 94.429 82.6854 94.7479 82.4868C95.0667 82.2882 95.4054 82.1721 95.7638 82.1385ZM100.561 84.8225C100.507 84.249 100.597 83.7142 100.832 83.2182C101.066 82.7141 101.413 82.3039 101.874 81.9876C102.334 81.6632 102.858 81.4734 103.448 81.4182C104.109 81.3562 104.72 81.4957 105.283 81.8367C105.852 82.169 106.25 82.638 106.475 83.2436L105.233 83.3601C105.067 83.0542 104.825 82.8238 104.505 82.669C104.192 82.5054 103.853 82.4408 103.486 82.4752C103.112 82.5103 102.786 82.6332 102.509 82.8441C102.23 83.0469 102.022 83.3155 101.885 83.6498C101.747 83.9761 101.696 84.3304 101.732 84.7127C101.767 85.0951 101.884 85.4377 102.081 85.7406C102.277 86.0356 102.531 86.2608 102.843 86.4164C103.155 86.564 103.497 86.6203 103.872 86.5852C104.238 86.5508 104.56 86.4282 104.838 86.2174C105.122 85.9979 105.317 85.7225 105.423 85.3912L106.666 85.2747C106.556 85.9116 106.253 86.4503 105.756 86.8906C105.266 87.3222 104.691 87.569 104.03 87.631C103.441 87.6862 102.89 87.6012 102.379 87.3759C101.867 87.1427 101.449 86.8042 101.127 86.3604C100.803 85.9086 100.614 85.396 100.561 84.8225ZM113.642 80.583L114.202 86.5568L113.067 86.6632L112.983 85.7672C112.766 86.1089 112.491 86.3878 112.158 86.6039C111.824 86.812 111.458 86.9347 111.059 86.972C110.534 87.0213 110.043 86.9347 109.589 86.7121C109.133 86.4816 108.76 86.143 108.469 85.6962C108.178 85.2494 108.005 84.7273 107.949 84.1299C107.893 83.5326 107.966 82.9873 108.169 82.4942C108.372 82.0011 108.676 81.603 109.081 81.2999C109.486 80.9887 109.951 80.8085 110.477 80.7592C110.891 80.7204 111.286 80.7798 111.663 80.9373C112.039 81.0949 112.371 81.333 112.658 81.6516L112.567 80.6838L113.642 80.583ZM111.152 85.9027C111.502 85.8698 111.813 85.7524 112.083 85.5502C112.354 85.3481 112.554 85.0843 112.684 84.7587C112.813 84.4252 112.86 84.0633 112.823 83.673C112.787 83.2827 112.674 82.9397 112.486 82.644C112.297 82.3403 112.05 82.1143 111.747 81.966C111.444 81.8176 111.117 81.7599 110.767 81.7927C110.416 81.8256 110.11 81.9427 109.848 82.144C109.585 82.3454 109.389 82.6129 109.26 82.9464C109.13 83.272 109.083 83.6299 109.119 84.0202C109.156 84.4105 109.269 84.7574 109.458 85.0611C109.646 85.3568 109.888 85.5792 110.184 85.7283C110.479 85.8774 110.802 85.9355 111.152 85.9027ZM119.19 79.9425C119.381 79.9246 119.561 79.9197 119.731 79.9279L119.835 81.0391C119.688 81.0207 119.46 81.026 119.149 81.0551C118.799 81.088 118.496 81.1967 118.24 81.3814C117.992 81.5654 117.805 81.7998 117.679 82.0848C117.56 82.3611 117.516 82.6586 117.546 82.9772L117.849 86.215L116.714 86.3214L116.154 80.3476L117.229 80.2468L117.316 81.1667C117.509 80.8272 117.768 80.5498 118.093 80.3345C118.426 80.1105 118.791 79.9798 119.19 79.9425ZM123.683 79.5213C124.297 79.4638 124.843 79.5452 125.321 79.7654C125.808 79.985 126.197 80.3261 126.49 80.7888C126.782 81.2436 126.958 81.7936 127.018 82.4387C127.034 82.606 127.041 82.7298 127.041 82.8102L122.142 83.2694C122.265 83.7239 122.516 84.0861 122.895 84.3559C123.281 84.617 123.709 84.7256 124.179 84.6815C124.952 84.6091 125.475 84.2748 125.748 83.6787L126.919 83.5689C126.78 84.1444 126.469 84.6356 125.985 85.0426C125.5 85.4416 124.931 85.6717 124.278 85.7329C123.696 85.7874 123.158 85.7053 122.664 85.4865C122.168 85.2597 121.767 84.9237 121.46 84.4784C121.153 84.0251 120.971 83.5038 120.916 82.9144C120.861 82.3249 120.942 81.7829 121.161 81.2884C121.379 80.7858 121.707 80.3815 122.144 80.0753C122.589 79.7604 123.102 79.5758 123.683 79.5213ZM123.754 80.5271C123.284 80.5711 122.891 80.7566 122.576 81.0834C122.269 81.4095 122.098 81.8072 122.061 82.2767L125.729 81.9328C125.637 81.4594 125.406 81.0954 125.036 80.8407C124.675 80.5853 124.247 80.4808 123.754 80.5271Z" fill="black"/>
<path d="M302.589 117.439L302.714 119.92L306.789 119.713L306.846 120.84L302.771 121.046L302.955 124.678L301.757 124.738L301.332 116.349L306.965 116.064L307.023 117.214L302.589 117.439ZM310.14 118.306L310.444 124.299L309.305 124.356L309.002 118.364L310.14 118.306ZM310.091 115.906L310.158 117.224L308.887 117.288L308.821 115.97L310.091 115.906ZM315.706 117.904C316.193 117.88 316.634 117.962 317.028 118.15C317.43 118.338 317.754 118.638 317.999 119.05C318.251 119.454 318.393 119.959 318.424 120.567L318.592 123.886L317.453 123.944L317.287 120.648C317.26 120.121 317.083 119.709 316.755 119.413C316.428 119.118 316.029 118.982 315.557 119.005C315.214 119.023 314.914 119.122 314.659 119.303C314.412 119.476 314.223 119.706 314.093 119.993C313.972 120.279 313.919 120.586 313.936 120.914L314.098 124.114L312.959 124.171L312.656 118.179L313.734 118.124L313.783 119.083C313.99 118.744 314.261 118.47 314.594 118.261C314.936 118.044 315.306 117.925 315.706 117.904ZM326.14 117.497L326.443 123.489L325.305 123.547L325.259 122.648C325.028 122.98 324.741 123.247 324.399 123.448C324.056 123.642 323.685 123.749 323.285 123.769C322.758 123.796 322.272 123.688 321.827 123.446C321.382 123.196 321.024 122.842 320.752 122.383C320.481 121.924 320.33 121.395 320.299 120.796C320.269 120.197 320.366 119.655 320.59 119.171C320.813 118.687 321.134 118.303 321.552 118.017C321.97 117.724 322.443 117.564 322.97 117.537C323.385 117.516 323.778 117.592 324.147 117.766C324.516 117.939 324.837 118.191 325.11 118.522L325.061 117.551L326.14 117.497ZM323.424 122.705C323.775 122.687 324.09 122.583 324.369 122.392C324.648 122.202 324.859 121.947 325.003 121.627C325.147 121.3 325.209 120.94 325.189 120.549C325.169 120.157 325.071 119.81 324.896 119.506C324.72 119.195 324.484 118.958 324.187 118.797C323.891 118.636 323.567 118.564 323.215 118.582C322.864 118.6 322.552 118.703 322.282 118.893C322.011 119.083 321.804 119.342 321.66 119.67C321.516 119.989 321.454 120.345 321.474 120.737C321.494 121.128 321.591 121.48 321.767 121.791C321.943 122.095 322.175 122.327 322.464 122.489C322.752 122.65 323.072 122.722 323.424 122.705ZM331.71 117.095C332.197 117.07 332.638 117.152 333.032 117.34C333.434 117.528 333.757 117.828 334.002 118.24C334.255 118.644 334.397 119.149 334.428 119.757L334.596 123.076L333.457 123.134L333.29 119.838C333.264 119.311 333.087 118.899 332.759 118.603C332.432 118.308 332.032 118.172 331.561 118.196C331.217 118.213 330.918 118.312 330.663 118.493C330.415 118.666 330.227 118.896 330.097 119.183C329.975 119.469 329.923 119.776 329.939 120.104L330.101 123.304L328.963 123.361L328.66 117.369L329.738 117.315L329.787 118.273C329.994 117.934 330.264 117.66 330.598 117.451C330.94 117.234 331.31 117.115 331.71 117.095ZM336.303 119.986C336.274 119.411 336.387 118.88 336.643 118.395C336.898 117.901 337.263 117.506 337.737 117.21C338.21 116.906 338.742 116.739 339.333 116.709C339.996 116.675 340.602 116.841 341.149 117.206C341.703 117.562 342.08 118.048 342.28 118.662L341.033 118.725C340.881 118.413 340.649 118.172 340.336 118.004C340.031 117.827 339.694 117.748 339.327 117.766C338.951 117.785 338.62 117.894 338.334 118.093C338.047 118.284 337.828 118.543 337.676 118.871C337.524 119.191 337.458 119.543 337.477 119.927C337.497 120.31 337.599 120.658 337.783 120.969C337.966 121.272 338.21 121.508 338.515 121.676C338.82 121.837 339.16 121.908 339.535 121.889C339.903 121.871 340.23 121.762 340.516 121.563C340.81 121.356 341.017 121.089 341.136 120.763L342.383 120.7C342.247 121.331 341.921 121.857 341.405 122.275C340.897 122.685 340.312 122.907 339.649 122.941C339.057 122.971 338.511 122.862 338.01 122.615C337.509 122.36 337.106 122.004 336.803 121.547C336.499 121.082 336.332 120.561 336.303 119.986ZM346.624 116.34C347.239 116.309 347.781 116.413 348.25 116.654C348.727 116.894 349.101 117.252 349.374 117.727C349.646 118.193 349.798 118.75 349.831 119.398C349.839 119.565 349.842 119.689 349.838 119.77L344.924 120.018C345.027 120.478 345.262 120.85 345.629 121.136C346.004 121.414 346.427 121.54 346.898 121.517C347.673 121.477 348.21 121.166 348.509 120.582L349.684 120.523C349.52 121.092 349.188 121.569 348.687 121.955C348.185 122.333 347.607 122.538 346.952 122.571C346.368 122.601 345.834 122.496 345.35 122.256C344.864 122.008 344.478 121.655 344.191 121.197C343.903 120.731 343.744 120.202 343.714 119.611C343.684 119.02 343.789 118.482 344.029 117.997C344.268 117.504 344.613 117.114 345.063 116.827C345.52 116.532 346.041 116.369 346.624 116.34ZM346.651 117.348C346.18 117.372 345.78 117.54 345.451 117.853C345.131 118.166 344.942 118.556 344.886 119.023L348.565 118.837C348.493 118.36 348.278 117.986 347.919 117.716C347.569 117.445 347.147 117.323 346.651 117.348Z" fill="black"/>
<path d="M199.643 164.845L196.646 164.706L196.312 171.947L195.113 171.891L195.447 164.651L192.45 164.513L192.503 163.362L199.696 163.694L199.643 164.845ZM203.424 166.149C203.616 166.157 203.795 166.178 203.962 166.209L203.91 167.324C203.768 167.286 203.541 167.259 203.229 167.245C202.878 167.229 202.562 167.294 202.283 167.441C202.012 167.589 201.794 167.795 201.63 168.06C201.474 168.317 201.389 168.605 201.374 168.925L201.224 172.174L200.085 172.121L200.362 166.127L201.441 166.177L201.398 167.1C201.637 166.791 201.932 166.552 202.284 166.384C202.645 166.209 203.025 166.13 203.424 166.149ZM210.852 166.612L210.575 172.605L209.437 172.553L209.478 171.654C209.216 171.962 208.904 172.2 208.544 172.367C208.184 172.527 207.805 172.597 207.405 172.579C206.878 172.555 206.404 172.401 205.985 172.117C205.566 171.825 205.244 171.438 205.018 170.955C204.792 170.472 204.692 169.931 204.72 169.332C204.748 168.732 204.896 168.203 205.166 167.743C205.435 167.283 205.792 166.931 206.236 166.687C206.68 166.435 207.166 166.321 207.693 166.346C208.109 166.365 208.492 166.479 208.842 166.687C209.193 166.895 209.489 167.177 209.728 167.533L209.773 166.562L210.852 166.612ZM207.646 171.533C207.997 171.549 208.321 171.476 208.617 171.314C208.913 171.151 209.148 170.918 209.322 170.613C209.497 170.301 209.593 169.949 209.611 169.558C209.629 169.166 209.565 168.811 209.42 168.492C209.275 168.165 209.062 167.906 208.783 167.717C208.503 167.528 208.188 167.426 207.836 167.409C207.484 167.393 207.165 167.467 206.877 167.629C206.589 167.792 206.358 168.03 206.183 168.342C206.009 168.646 205.913 168.994 205.895 169.386C205.877 169.778 205.94 170.137 206.085 170.464C206.231 170.783 206.439 171.037 206.711 171.226C206.983 171.414 207.294 171.517 207.646 171.533ZM218.94 166.985L216.086 172.86L214.6 172.791L212.299 166.678L213.57 166.737L215.419 171.7L217.705 166.928L218.94 166.985ZM222.921 167.049C223.537 167.077 224.066 167.234 224.51 167.518C224.961 167.804 225.299 168.196 225.524 168.694C225.75 169.185 225.848 169.755 225.818 170.402C225.81 170.57 225.8 170.693 225.789 170.773L220.874 170.546C220.933 171.013 221.131 171.407 221.468 171.727C221.814 172.039 222.223 172.206 222.694 172.228C223.47 172.264 224.034 172.005 224.388 171.453L225.563 171.507C225.345 172.058 224.968 172.501 224.432 172.837C223.896 173.164 223.301 173.313 222.646 173.283C222.062 173.256 221.541 173.099 221.082 172.814C220.623 172.52 220.272 172.132 220.03 171.648C219.789 171.157 219.682 170.615 219.709 170.024C219.736 169.432 219.893 168.907 220.178 168.448C220.464 167.98 220.845 167.626 221.32 167.383C221.804 167.133 222.338 167.022 222.921 167.049ZM222.851 168.055C222.38 168.033 221.965 168.162 221.608 168.442C221.259 168.722 221.033 169.092 220.932 169.552L224.612 169.721C224.586 169.24 224.408 168.847 224.078 168.544C223.755 168.24 223.346 168.077 222.851 168.055ZM229.192 164.996L228.802 173.447L227.663 173.394L228.053 164.943L229.192 164.996Z" fill="black"/>
</svg>
