<svg width="355" height="465" viewBox="0 0 355 465" fill="none" xmlns="http://www.w3.org/2000/svg">
    <g clip-path="url(#clip0_22605_38929)">
        <path d="M28.8366 14.3428C27.5339 15.8272 26.3543 17.415 25.3095 19.0903C24.2434 20.7216 23.5033 22.5433 23.1298 24.455C23.1251 24.4933 23.1125 24.5303 23.093 24.5637C23.0734 24.597 23.0473 24.626 23.0161 24.649C22.985 24.6719 22.9495 24.6883 22.9118 24.6971C22.8741 24.7059 22.8351 24.707 22.797 24.7003C22.7585 24.6955 22.7215 24.683 22.6881 24.6635C22.6547 24.644 22.6256 24.6179 22.6026 24.5868C22.5797 24.5557 22.5632 24.5203 22.5544 24.4826C22.5456 24.445 22.5445 24.406 22.5512 24.368C22.9453 22.3901 23.7235 20.5085 24.8419 18.8292C25.9123 17.1532 27.1156 15.5656 28.4403 14.0817C28.4891 14.0343 28.5545 14.0078 28.6226 14.0078C28.6906 14.0078 28.756 14.0343 28.8049 14.0817C28.8321 14.1189 28.8493 14.1624 28.8549 14.2081C28.8604 14.2538 28.8541 14.3002 28.8366 14.3428Z" fill="black"/>
        <path d="M29.7944 32.4054C33.4647 33.8333 37.3031 34.7857 41.2158 35.2391C41.3113 35.251 41.3982 35.3001 41.4576 35.3757C41.517 35.4514 41.544 35.5474 41.5328 35.6428C41.519 35.7367 41.4691 35.8216 41.3935 35.8792C41.318 35.9369 41.223 35.9628 41.1286 35.9515C37.1596 35.4669 33.2684 34.4801 29.5487 33.0149C29.4684 32.9815 29.4044 32.9181 29.3704 32.8383C29.3363 32.7584 29.3349 32.6684 29.3664 32.5875C29.3998 32.5073 29.4633 32.4434 29.5433 32.4094C29.6233 32.3754 29.7134 32.374 29.7944 32.4054Z" fill="black"/>
        <path d="M53.0369 35.73C56.9999 35.6191 60.9233 35.2784 64.8467 34.7952C64.9557 34.784 65.0648 34.8158 65.1507 34.8839C65.2366 34.952 65.2925 35.0509 65.3064 35.1596C65.3176 35.2665 65.2866 35.3736 65.22 35.4579C65.1533 35.5423 65.0564 35.5973 64.9497 35.6112C60.9867 36.0865 57.0237 36.4034 53.0607 36.5144C53.0094 36.5165 52.9582 36.5082 52.9102 36.4901C52.8622 36.4719 52.8184 36.4443 52.7814 36.4087C52.7443 36.3732 52.7149 36.3306 52.6948 36.2834C52.6747 36.2362 52.6644 36.1854 52.6644 36.1341C52.6623 36.0831 52.6702 36.0322 52.6878 35.9843C52.7054 35.9364 52.7322 35.8924 52.7668 35.8548C52.8014 35.8173 52.8431 35.787 52.8894 35.7656C52.9358 35.7441 52.9859 35.7321 53.0369 35.73Z" fill="black"/>
        <path d="M76.5731 33.019L88.2798 30.8106C88.3961 30.7918 88.5152 30.8182 88.6126 30.8845C88.7099 30.9507 88.7781 31.0518 88.8029 31.1668C88.8241 31.2842 88.7987 31.4051 88.7321 31.5041C88.6655 31.6031 88.563 31.6723 88.4463 31.6972L76.7475 33.8739C76.634 33.8947 76.5169 33.8697 76.4218 33.8044C76.3267 33.7392 76.2614 33.6389 76.2402 33.5256C76.2217 33.4135 76.2478 33.2985 76.3129 33.2054C76.3781 33.1122 76.4771 33.0482 76.589 33.0269L76.5731 33.019Z" fill="black"/>
        <path d="M99.9406 28.6048L111.687 26.721C111.75 26.7109 111.814 26.7133 111.876 26.7281C111.938 26.7429 111.997 26.7699 112.049 26.8074C112.1 26.845 112.144 26.8923 112.177 26.9468C112.21 27.0012 112.232 27.0617 112.242 27.1247C112.253 27.1871 112.252 27.2512 112.238 27.3132C112.224 27.3751 112.198 27.4336 112.161 27.4853C112.124 27.5369 112.077 27.5807 112.023 27.6139C111.969 27.6471 111.908 27.6692 111.845 27.6787L100.107 29.523C99.9843 29.5414 99.8592 29.5111 99.7585 29.4387C99.6578 29.3662 99.5895 29.2573 99.5681 29.1352C99.5494 29.0158 99.5778 28.8939 99.6473 28.795C99.7168 28.6961 99.8219 28.628 99.9406 28.6048Z" fill="black"/>
        <path d="M123.442 24.9067L135.22 23.2439C135.288 23.2338 135.358 23.2373 135.424 23.2542C135.491 23.271 135.554 23.3009 135.609 23.3421C135.665 23.3833 135.711 23.4351 135.746 23.4943C135.782 23.5535 135.805 23.6191 135.814 23.6873C135.833 23.8246 135.796 23.9636 135.713 24.0745C135.63 24.1855 135.507 24.2597 135.37 24.2812L123.608 25.9044C123.476 25.9226 123.342 25.8878 123.235 25.8078C123.128 25.7277 123.057 25.6088 123.038 25.4768C123.017 25.3479 123.048 25.2159 123.123 25.1093C123.199 25.0027 123.313 24.93 123.442 24.9067Z" fill="black"/>
        <path d="M147.041 21.8367L158.93 20.7756C159.002 20.7691 159.076 20.7771 159.146 20.7991C159.216 20.8211 159.28 20.8566 159.336 20.9037C159.392 20.9508 159.438 21.0086 159.472 21.0735C159.506 21.1385 159.526 21.2095 159.532 21.2824C159.545 21.4304 159.499 21.5776 159.404 21.6918C159.309 21.806 159.173 21.8781 159.025 21.8921L147.199 22.9136C147.056 22.9246 146.915 22.8794 146.806 22.7876C146.696 22.6959 146.627 22.5648 146.613 22.4226C146.598 22.2892 146.634 22.1552 146.713 22.0469C146.792 21.9385 146.909 21.8635 147.041 21.8367Z" fill="black"/>
        <path d="M170.805 20.1764L176.757 20.1289H179.737C180.728 20.1289 181.719 20.1289 182.741 20.1289C182.898 20.1391 183.045 20.2103 183.15 20.3273C183.255 20.4442 183.311 20.5977 183.304 20.7548C183.3 20.8336 183.28 20.9107 183.246 20.9818C183.212 21.0529 183.164 21.1165 183.105 21.1689C183.046 21.2212 182.977 21.2613 182.902 21.2868C182.828 21.3123 182.749 21.3226 182.67 21.3173C181.711 21.2618 180.712 21.2697 179.729 21.3173H176.765H170.836C170.761 21.3183 170.686 21.3044 170.616 21.2762C170.545 21.248 170.482 21.2061 170.428 21.153C170.374 21.1 170.331 21.0367 170.302 20.967C170.273 20.8973 170.258 20.8224 170.258 20.7469C170.26 20.6002 170.317 20.4597 170.419 20.3538C170.52 20.2479 170.658 20.1845 170.805 20.1764Z" fill="black"/>
        <path d="M194.428 23.2076C195.371 23.7329 196.201 24.4402 196.869 25.2884C197.567 26.1895 197.906 27.3171 197.82 28.4531C197.688 29.5424 197.297 30.5842 196.679 31.4912C196.101 32.3475 195.437 33.1428 194.697 33.8648C194.639 33.9231 194.57 33.9695 194.494 34.0011C194.417 34.0327 194.336 34.0489 194.253 34.0489C194.171 34.0489 194.089 34.0327 194.013 34.0011C193.937 33.9695 193.868 33.9231 193.809 33.8648C193.75 33.8066 193.702 33.737 193.67 33.6603C193.638 33.5835 193.621 33.5011 193.621 33.4178C193.621 33.3345 193.638 33.252 193.67 33.1753C193.702 33.0985 193.75 33.029 193.809 32.9707C194.475 32.3217 195.075 31.6088 195.601 30.8425C196.108 30.1088 196.434 29.2656 196.552 28.3819C196.633 27.5307 196.383 26.6808 195.854 26.0084C195.29 25.2937 194.593 24.6946 193.802 24.244C193.732 24.2025 193.671 24.1476 193.622 24.0826C193.574 24.0176 193.539 23.9436 193.519 23.865C193.499 23.7864 193.495 23.7046 193.507 23.6244C193.518 23.5442 193.546 23.4671 193.588 23.3975C193.675 23.263 193.812 23.1679 193.969 23.1324C194.126 23.097 194.29 23.1239 194.428 23.2076Z" fill="black"/>
        <path d="M185.182 41.2494C181.77 43.3306 178.21 45.1581 174.529 46.717C174.365 46.7856 174.181 46.7866 174.016 46.7199C173.851 46.6532 173.719 46.5242 173.649 46.3609C173.614 46.281 173.595 46.1949 173.594 46.1076C173.592 46.0204 173.608 45.9337 173.641 45.8527C173.673 45.7716 173.722 45.6979 173.783 45.6357C173.844 45.5735 173.917 45.5242 173.998 45.4905C177.627 43.9703 181.137 42.1824 184.5 40.1417C184.648 40.0552 184.824 40.0292 184.991 40.069C185.158 40.1088 185.303 40.2114 185.396 40.3553C185.441 40.428 185.471 40.5088 185.484 40.5932C185.498 40.6775 185.495 40.7637 185.475 40.8467C185.455 40.9298 185.419 41.0081 185.368 41.0772C185.318 41.1463 185.255 41.2048 185.182 41.2494Z" fill="black"/>
        <path d="M163.329 50.8496L151.868 54.1503C151.696 54.1995 151.511 54.1789 151.353 54.093C151.196 54.007 151.079 53.8627 151.028 53.6912C151.002 53.605 150.994 53.5145 151.004 53.4251C151.014 53.3357 151.041 53.2492 151.085 53.1704C151.128 53.0917 151.187 53.0223 151.257 52.9663C151.328 52.9103 151.409 52.8689 151.495 52.8443L162.917 49.5673H162.956C163.122 49.5299 163.296 49.5565 163.443 49.6416C163.59 49.7267 163.699 49.8642 163.749 50.0264C163.797 50.1913 163.781 50.3684 163.703 50.5214C163.625 50.6745 163.491 50.7919 163.329 50.8496Z" fill="black"/>
        <path d="M140.306 57.0055L128.766 59.8075C128.676 59.8323 128.582 59.8389 128.49 59.8266C128.398 59.8144 128.309 59.7837 128.229 59.7364C128.149 59.6891 128.08 59.6261 128.025 59.5513C127.97 59.4765 127.931 59.3913 127.91 59.3009C127.888 59.2125 127.885 59.1209 127.899 59.0312C127.914 58.9415 127.946 58.8555 127.994 58.7782C128.042 58.701 128.104 58.634 128.178 58.581C128.252 58.5281 128.336 58.4903 128.425 58.4698L139.989 55.6678C140.166 55.6248 140.354 55.6541 140.51 55.7491C140.666 55.844 140.778 55.997 140.821 56.1743C140.853 56.3459 140.818 56.523 140.724 56.67C140.629 56.8169 140.483 56.9226 140.314 56.9659L140.306 57.0055Z" fill="black"/>
        <path d="M117.287 62.8363L105.802 65.8995C105.621 65.9457 105.43 65.9194 105.268 65.8262C105.107 65.733 104.988 65.5803 104.938 65.4009C104.914 65.3115 104.908 65.2183 104.92 65.1265C104.932 65.0348 104.962 64.9463 105.009 64.8662C105.055 64.7861 105.117 64.7158 105.19 64.6595C105.264 64.6033 105.348 64.562 105.437 64.5381L116.938 61.4828C117.117 61.437 117.306 61.4638 117.465 61.5573C117.624 61.6507 117.739 61.8032 117.786 61.9814C117.811 62.0703 117.818 62.1633 117.806 62.2549C117.794 62.3465 117.764 62.4348 117.718 62.5145C117.671 62.5943 117.609 62.6639 117.535 62.7191C117.461 62.7744 117.377 62.8143 117.287 62.8363Z" fill="black"/>
        <path d="M94.3623 69.089L82.9964 72.5243C82.9064 72.5523 82.8116 72.5623 82.7177 72.5536C82.6239 72.5448 82.5326 72.5176 82.4493 72.4734C82.366 72.4293 82.2923 72.369 82.2325 72.2963C82.1727 72.2235 82.1279 72.1396 82.1007 72.0494C82.0462 71.8678 82.0655 71.672 82.1545 71.5046C82.2436 71.3372 82.3951 71.2115 82.5763 71.1549L93.9818 67.7197C94.1626 67.6676 94.3566 67.6881 94.5224 67.7768C94.6883 67.8655 94.8128 68.0154 94.8695 68.1946C94.9238 68.3751 94.9043 68.5698 94.8152 68.736C94.726 68.9021 94.5746 69.0262 94.394 69.0811L94.3623 69.089Z" fill="black"/>
        <path d="M71.7658 76.3056L60.6693 80.5626C60.4884 80.6299 60.2883 80.6237 60.1119 80.5453C59.9355 80.4669 59.797 80.3225 59.7261 80.1432C59.6587 79.9626 59.6649 79.7628 59.7434 79.5867C59.822 79.4106 59.9666 79.2724 60.1462 79.2016L71.2426 74.9288C71.4224 74.8618 71.6215 74.8682 71.7966 74.9467C71.9716 75.0252 72.1087 75.1695 72.1779 75.3482C72.2122 75.437 72.2286 75.5317 72.226 75.6269C72.2235 75.722 72.202 75.8157 72.163 75.9025C72.1239 75.9894 72.068 76.0676 71.9984 76.1327C71.9289 76.1978 71.8471 76.2485 71.7578 76.2819L71.7658 76.3056Z" fill="black"/>
        <path d="M49.8817 85.3828C46.3308 87.0919 42.8196 88.9118 39.3797 90.8424C39.295 90.89 39.2016 90.9205 39.1051 90.9319C39.0085 90.9434 38.9106 90.9357 38.817 90.9092C38.7235 90.8827 38.6361 90.838 38.5599 90.7777C38.4837 90.7173 38.4202 90.6425 38.3731 90.5576C38.324 90.4737 38.2922 90.3809 38.2796 90.2846C38.267 90.1882 38.2738 90.0904 38.2996 89.9967C38.3255 89.9031 38.3699 89.8156 38.4301 89.7393C38.4904 89.663 38.5653 89.5996 38.6505 89.5527C42.1221 87.6062 45.6651 85.7784 49.2476 84.0614C49.4232 83.9768 49.6252 83.9651 49.8094 84.0289C49.9936 84.0927 50.145 84.2267 50.2304 84.4016C50.2732 84.4887 50.2981 84.5834 50.3037 84.6803C50.3092 84.7771 50.2954 84.8741 50.2629 84.9655C50.2304 85.0569 50.1799 85.1409 50.1145 85.2125C50.049 85.2842 49.9699 85.3421 49.8817 85.3828Z" fill="black"/>
        <path d="M29.2484 96.9672C25.9274 99.0956 22.6698 101.319 19.5469 103.709C19.3842 103.822 19.1848 103.87 18.9881 103.844C18.7915 103.817 18.6119 103.718 18.4848 103.566C18.4241 103.488 18.3795 103.399 18.3537 103.303C18.328 103.208 18.3216 103.108 18.3349 103.01C18.3481 102.912 18.3809 102.818 18.4311 102.733C18.4814 102.647 18.5481 102.573 18.6275 102.514C21.7979 100.093 25.0951 97.8534 28.4399 95.7091C28.6107 95.612 28.8115 95.5818 29.0033 95.6242C29.1952 95.6666 29.3644 95.7786 29.4782 95.9385C29.531 96.0211 29.5669 96.1132 29.5839 96.2097C29.6009 96.3061 29.5986 96.4049 29.5773 96.5005C29.5559 96.5961 29.5159 96.6865 29.4594 96.7666C29.403 96.8467 29.3313 96.9148 29.2484 96.9672Z" fill="black"/>
        <path d="M10.7077 111.47C7.95974 114.225 5.63595 117.371 3.81208 120.806C3.7159 120.983 3.55581 121.117 3.36438 121.18C3.17295 121.243 2.96459 121.231 2.78171 121.147C2.6045 121.05 2.47061 120.891 2.40729 120.7C2.34397 120.509 2.35598 120.301 2.44089 120.118C4.32626 116.551 6.7301 113.282 9.57429 110.418C9.72086 110.282 9.91337 110.207 10.1133 110.207C10.3132 110.207 10.5057 110.282 10.6522 110.418C10.7893 110.556 10.8708 110.74 10.881 110.934C10.8912 111.128 10.8296 111.319 10.7077 111.47Z" fill="black"/>
        <path d="M1.56459 131.842C1.78348 133.731 2.29975 135.573 3.09432 137.301C3.48186 138.18 3.9432 139.024 4.47344 139.825L6.05864 142.278V142.341C6.16524 142.515 6.20084 142.722 6.15804 142.921C6.11524 143.12 5.99732 143.295 5.82879 143.409C5.6544 143.518 5.44446 143.555 5.24332 143.512C5.04218 143.469 4.8656 143.35 4.75085 143.18L3.1181 140.624C2.55778 139.773 2.06995 138.875 1.65971 137.942C0.800535 136.066 0.241555 134.066 0.0031678 132.016C-0.0150265 131.814 0.0456417 131.612 0.17257 131.453C0.299499 131.294 0.482937 131.19 0.684805 131.162C0.891597 131.137 1.09983 131.195 1.26446 131.322C1.4291 131.449 1.53691 131.636 1.56459 131.842Z" fill="black"/>
        <path d="M14.2624 150.364C17.4778 152.549 21.016 154.218 24.7485 155.309C24.9489 155.37 25.1172 155.507 25.2166 155.691C25.3161 155.875 25.3387 156.09 25.2796 156.291C25.2191 156.491 25.0818 156.659 24.8976 156.758C24.7135 156.857 24.4975 156.88 24.2968 156.821C20.4083 155.678 16.723 153.935 13.3747 151.654C13.2048 151.534 13.0888 151.353 13.0518 151.148C13.0147 150.944 13.0595 150.734 13.1766 150.562C13.2963 150.395 13.4766 150.28 13.6793 150.243C13.882 150.206 14.0912 150.25 14.2624 150.364Z" fill="black"/>
        <path d="M36.2641 157.366C40.1836 157.631 44.1171 157.615 48.0343 157.318C48.242 157.305 48.4466 157.374 48.6038 157.51C48.761 157.647 48.8582 157.839 48.8744 158.047C48.8751 158.246 48.8003 158.439 48.6651 158.586C48.5299 158.733 48.3443 158.823 48.1452 158.839C44.1545 159.145 40.1469 159.167 36.1532 158.902C35.9442 158.886 35.7501 158.788 35.6135 158.629C35.4768 158.47 35.4087 158.264 35.424 158.055C35.4402 157.847 35.5374 157.655 35.6946 157.518C35.8518 157.382 36.0564 157.313 36.2641 157.326V157.366Z" fill="black"/>
        <path d="M59.7477 155.904L71.3593 153.577H71.3989C71.5979 153.544 71.8022 153.588 71.9701 153.699C72.138 153.811 72.2569 153.983 72.3025 154.179C72.3382 154.379 72.2956 154.585 72.1835 154.754C72.0713 154.924 71.8983 155.044 71.7001 155.089L60.0013 157.464C59.8011 157.499 59.5949 157.457 59.4252 157.345C59.2556 157.233 59.1355 157.06 59.0898 156.862C59.0658 156.756 59.0639 156.646 59.0845 156.539C59.105 156.432 59.1475 156.33 59.2093 156.24C59.2711 156.15 59.3508 156.074 59.4434 156.016C59.5361 155.958 59.6397 155.92 59.7477 155.904H59.8032H59.7477Z" fill="black"/>
        <path d="M82.8869 150.713L94.3796 147.665C94.4759 147.638 94.5767 147.63 94.6761 147.642C94.7754 147.655 94.8712 147.687 94.9578 147.737C95.0443 147.788 95.1199 147.855 95.1799 147.935C95.2399 148.015 95.2831 148.106 95.307 148.203C95.3332 148.298 95.3403 148.398 95.3278 148.496C95.3153 148.594 95.2834 148.688 95.2339 148.773C95.1845 148.859 95.1186 148.934 95.0399 148.993C94.9613 149.053 94.8716 149.097 94.7759 149.122L83.2753 152.185C83.0801 152.23 82.8752 152.199 82.7017 152.099C82.5282 151.999 82.399 151.838 82.34 151.647C82.2954 151.451 82.3271 151.245 82.4287 151.072C82.5303 150.898 82.6941 150.77 82.8869 150.713Z" fill="black"/>
        <path d="M105.824 144.511L117.261 141.274C117.452 141.23 117.653 141.259 117.824 141.354C117.995 141.449 118.125 141.604 118.189 141.789C118.215 141.883 118.223 141.981 118.211 142.078C118.2 142.175 118.169 142.269 118.121 142.354C118.074 142.439 118.009 142.515 117.933 142.575C117.856 142.635 117.768 142.68 117.673 142.707L106.236 145.96C106.043 146.006 105.84 145.977 105.667 145.881C105.494 145.784 105.363 145.626 105.301 145.438C105.257 145.246 105.287 145.045 105.384 144.874C105.48 144.703 105.637 144.573 105.824 144.511Z" fill="black"/>
        <path d="M128.706 138.013L140.151 134.792C140.338 134.741 140.538 134.765 140.707 134.86C140.876 134.955 141.001 135.112 141.054 135.298C141.106 135.485 141.081 135.685 140.986 135.854C140.891 136.023 140.734 136.147 140.547 136.201L129.118 139.438C128.929 139.492 128.726 139.469 128.554 139.374C128.381 139.279 128.254 139.12 128.198 138.932C128.147 138.744 128.171 138.543 128.266 138.373C128.361 138.203 128.519 138.077 128.706 138.021V138.013Z" fill="black"/>
        <path d="M151.611 131.662L163.127 128.67C163.219 128.645 163.314 128.638 163.409 128.651C163.503 128.663 163.593 128.694 163.675 128.742C163.757 128.79 163.829 128.854 163.886 128.93C163.943 129.006 163.984 129.092 164.007 129.184C164.032 129.276 164.038 129.371 164.026 129.465C164.013 129.559 163.982 129.65 163.934 129.732C163.886 129.813 163.822 129.885 163.746 129.942C163.67 129.999 163.584 130.04 163.492 130.063L151.999 133.063C151.907 133.088 151.811 133.094 151.716 133.082C151.621 133.07 151.53 133.039 151.447 132.991C151.365 132.943 151.293 132.879 151.235 132.803C151.177 132.727 151.135 132.64 151.111 132.548C151.086 132.456 151.08 132.36 151.092 132.266C151.104 132.171 151.135 132.08 151.183 131.997C151.231 131.915 151.295 131.843 151.371 131.785C151.447 131.728 151.534 131.686 151.626 131.662H151.611Z" fill="black"/>
        <path d="M174.678 125.883L186.313 123.358C186.497 123.321 186.688 123.357 186.846 123.459C187.003 123.561 187.114 123.721 187.154 123.904C187.174 123.995 187.177 124.089 187.161 124.18C187.145 124.272 187.111 124.359 187.061 124.437C187.011 124.515 186.945 124.583 186.869 124.635C186.792 124.688 186.706 124.725 186.615 124.743L175.011 127.268C174.919 127.289 174.823 127.292 174.73 127.276C174.637 127.259 174.548 127.225 174.469 127.174C174.389 127.123 174.32 127.057 174.266 126.98C174.212 126.902 174.175 126.815 174.155 126.722C174.118 126.542 174.152 126.355 174.25 126.199C174.347 126.043 174.5 125.93 174.678 125.883Z" fill="black"/>
        <path d="M198.047 121.17L209.817 119.357C209.999 119.334 210.183 119.382 210.331 119.491C210.478 119.6 210.578 119.762 210.609 119.943C210.634 120.125 210.587 120.31 210.478 120.458C210.368 120.606 210.205 120.705 210.023 120.734L198.3 122.555C198.21 122.57 198.117 122.566 198.028 122.544C197.938 122.523 197.854 122.483 197.781 122.429C197.707 122.374 197.645 122.305 197.598 122.226C197.551 122.148 197.52 122.06 197.508 121.969C197.48 121.787 197.527 121.601 197.637 121.452C197.747 121.304 197.911 121.205 198.094 121.178L198.047 121.17Z" fill="black"/>
        <path d="M221.652 117.987L233.486 116.839C233.666 116.821 233.846 116.876 233.987 116.99C234.128 117.104 234.219 117.269 234.239 117.449C234.254 117.63 234.198 117.81 234.083 117.951C233.967 118.091 233.801 118.181 233.62 118.201L221.795 119.357C221.703 119.37 221.609 119.365 221.519 119.341C221.429 119.317 221.345 119.275 221.272 119.217C221.198 119.16 221.138 119.088 221.093 119.007C221.048 118.925 221.02 118.835 221.011 118.743C221.002 118.65 221.012 118.557 221.04 118.468C221.068 118.379 221.114 118.297 221.174 118.227C221.235 118.156 221.309 118.098 221.393 118.057C221.476 118.016 221.567 117.992 221.66 117.987H221.652Z" fill="black"/>
        <path d="M245.352 115.887L257.241 115.238C257.333 115.224 257.428 115.23 257.519 115.255C257.609 115.279 257.693 115.323 257.766 115.382C257.839 115.442 257.898 115.515 257.941 115.599C257.983 115.683 258.008 115.774 258.013 115.868C258.018 115.961 258.003 116.055 257.97 116.143C257.936 116.23 257.885 116.31 257.819 116.377C257.753 116.443 257.674 116.495 257.587 116.53C257.499 116.564 257.406 116.58 257.312 116.576L245.463 117.233C245.369 117.247 245.273 117.242 245.182 117.217C245.091 117.192 245.005 117.148 244.932 117.089C244.858 117.029 244.798 116.955 244.755 116.87C244.712 116.786 244.686 116.694 244.681 116.6C244.675 116.505 244.69 116.411 244.723 116.322C244.756 116.233 244.807 116.152 244.873 116.085C244.939 116.017 245.019 115.964 245.107 115.928C245.194 115.893 245.289 115.876 245.383 115.879L245.352 115.887Z" fill="black"/>
        <path d="M269.166 115.008L281.055 115.333C281.225 115.333 281.388 115.4 281.509 115.521C281.629 115.641 281.697 115.804 281.697 115.974C281.697 116.145 281.629 116.308 281.509 116.428C281.388 116.549 281.225 116.616 281.055 116.616L269.166 116.331C269.079 116.329 268.994 116.31 268.915 116.275C268.836 116.24 268.765 116.19 268.705 116.127C268.645 116.065 268.599 115.991 268.568 115.91C268.536 115.83 268.522 115.744 268.524 115.658C268.528 115.482 268.601 115.316 268.727 115.194C268.853 115.073 269.022 115.006 269.197 115.008H269.166Z" fill="black"/>
        <path d="M292.957 116.344C296.92 116.803 300.883 117.404 304.751 118.172C304.907 118.207 305.044 118.3 305.132 118.433C305.221 118.566 305.255 118.727 305.226 118.885C305.212 118.963 305.183 119.037 305.139 119.104C305.096 119.17 305.04 119.228 304.974 119.273C304.909 119.318 304.835 119.349 304.757 119.365C304.679 119.382 304.599 119.382 304.521 119.367C300.645 118.576 296.738 118.03 292.814 117.579C292.664 117.544 292.532 117.456 292.443 117.33C292.354 117.204 292.315 117.05 292.332 116.897C292.35 116.745 292.423 116.604 292.539 116.501C292.654 116.399 292.803 116.343 292.957 116.344Z" fill="black"/>
        <path d="M316.352 120.994L319.213 121.88C320.172 122.205 321.108 122.569 322.035 122.964C323.885 123.753 325.671 124.684 327.377 125.749C327.505 125.83 327.596 125.959 327.63 126.106C327.663 126.254 327.636 126.409 327.555 126.537C327.475 126.665 327.346 126.755 327.198 126.789C327.05 126.822 326.895 126.795 326.767 126.715C325.108 125.686 323.373 124.786 321.575 124.024C320.68 123.645 319.768 123.289 318.849 122.988L316.019 122.118C315.87 122.072 315.745 121.97 315.671 121.833C315.598 121.695 315.582 121.535 315.627 121.386C315.672 121.237 315.775 121.112 315.912 121.038C316.05 120.965 316.211 120.949 316.36 120.994H316.352Z" fill="black"/>
        <path d="M335.044 134.989C335.221 136.042 335.173 137.121 334.901 138.154C334.633 139.167 334.202 140.129 333.625 141.003C332.477 142.733 330.93 144.163 329.115 145.173C328.993 145.244 328.848 145.264 328.711 145.229C328.574 145.193 328.457 145.105 328.386 144.983C328.314 144.861 328.294 144.716 328.33 144.58C328.365 144.443 328.454 144.326 328.576 144.255C330.242 143.326 331.66 142.013 332.713 140.425C333.79 138.899 334.246 137.021 333.989 135.171C333.966 135.027 334 134.879 334.085 134.759C334.169 134.64 334.297 134.557 334.441 134.53C334.585 134.507 334.732 134.542 334.851 134.626C334.969 134.711 335.05 134.838 335.075 134.981L335.044 134.989Z" fill="black"/>
        <path d="M317.809 149.169L306.364 152.431C306.238 152.465 306.103 152.448 305.989 152.385C305.875 152.321 305.791 152.215 305.754 152.09C305.736 152.028 305.73 151.963 305.738 151.898C305.745 151.834 305.765 151.771 305.797 151.714C305.828 151.658 305.871 151.608 305.922 151.568C305.973 151.528 306.032 151.498 306.095 151.481L317.508 148.196C317.639 148.158 317.78 148.174 317.9 148.24C318.02 148.306 318.108 148.417 318.146 148.548C318.184 148.679 318.168 148.82 318.102 148.94C318.036 149.059 317.925 149.148 317.793 149.185L317.809 149.169Z" fill="black"/>
        <path d="M294.884 155.514L283.375 158.514C283.317 158.529 283.257 158.533 283.198 158.525C283.139 158.517 283.081 158.497 283.03 158.467C282.978 158.437 282.933 158.397 282.897 158.349C282.861 158.302 282.835 158.247 282.82 158.189C282.789 158.072 282.805 157.946 282.866 157.841C282.927 157.736 283.028 157.659 283.145 157.627L294.638 154.588C294.761 154.558 294.89 154.577 294.999 154.641C295.109 154.704 295.189 154.807 295.224 154.928C295.256 155.05 295.238 155.179 295.174 155.287C295.11 155.396 295.005 155.474 294.884 155.506V155.514Z" fill="black"/>
        <path d="M271.893 161.534C269.983 162.064 268.057 162.531 266.171 163.117L260.496 164.827C260.397 164.841 260.296 164.819 260.211 164.766C260.127 164.713 260.064 164.631 260.034 164.536C260.005 164.44 260.01 164.337 260.05 164.246C260.089 164.154 260.16 164.079 260.25 164.035L265.957 162.286C267.859 161.7 269.777 161.233 271.687 160.703C271.745 160.678 271.808 160.667 271.871 160.668C271.934 160.67 271.996 160.685 272.052 160.712C272.109 160.739 272.159 160.778 272.2 160.827C272.24 160.875 272.27 160.931 272.287 160.992C272.304 161.052 272.308 161.116 272.298 161.178C272.289 161.24 272.266 161.299 272.232 161.352C272.198 161.405 272.153 161.45 272.1 161.484C272.047 161.518 271.987 161.54 271.925 161.55L271.893 161.534Z" fill="black"/>
        <path d="M249.519 169.224C245.96 170.92 242.517 172.849 239.215 175.001C239.174 175.027 239.128 175.045 239.08 175.054C239.032 175.063 238.982 175.062 238.934 175.052C238.886 175.041 238.841 175.022 238.801 174.994C238.761 174.966 238.726 174.931 238.7 174.89C238.647 174.807 238.629 174.708 238.648 174.612C238.667 174.516 238.723 174.432 238.803 174.376C242.127 172.184 245.596 170.22 249.186 168.496C249.283 168.45 249.394 168.444 249.495 168.48C249.596 168.516 249.679 168.59 249.725 168.686C249.749 168.734 249.763 168.786 249.766 168.839C249.77 168.892 249.762 168.946 249.744 168.996C249.727 169.046 249.699 169.092 249.663 169.132C249.627 169.171 249.583 169.202 249.535 169.224H249.519Z" fill="black"/>
        <path d="M229.72 182.068L225.313 186.024C223.837 187.321 222.479 188.745 221.255 190.281C221.204 190.345 221.13 190.386 221.049 190.397C220.967 190.407 220.885 190.385 220.819 190.337C220.788 190.311 220.761 190.28 220.741 190.244C220.722 190.209 220.709 190.169 220.705 190.129C220.701 190.089 220.704 190.048 220.716 190.009C220.727 189.97 220.746 189.933 220.772 189.901C222.002 188.331 223.37 186.875 224.862 185.55L229.276 181.546C229.308 181.511 229.347 181.483 229.39 181.463C229.434 181.444 229.48 181.434 229.528 181.434C229.575 181.433 229.622 181.443 229.666 181.462C229.709 181.481 229.748 181.509 229.78 181.543C229.812 181.578 229.837 181.619 229.852 181.664C229.867 181.709 229.873 181.756 229.869 181.804C229.865 181.851 229.851 181.896 229.828 181.938C229.805 181.979 229.774 182.016 229.736 182.044L229.72 182.068Z" fill="black"/>
        <path d="M216.078 200.692C215.711 202.604 215.803 204.575 216.348 206.444C216.93 208.303 217.962 209.991 219.352 211.358C219.397 211.403 219.422 211.464 219.422 211.528C219.422 211.591 219.397 211.653 219.352 211.698C219.307 211.743 219.245 211.768 219.181 211.768C219.118 211.768 219.056 211.743 219.011 211.698C217.552 210.284 216.463 208.534 215.841 206.603C215.264 204.653 215.158 202.595 215.532 200.597C215.537 200.562 215.55 200.528 215.569 200.497C215.588 200.467 215.614 200.44 215.643 200.42C215.673 200.399 215.706 200.385 215.741 200.377C215.777 200.369 215.813 200.369 215.849 200.376C215.884 200.382 215.918 200.394 215.949 200.414C215.98 200.433 216.006 200.458 216.027 200.487C216.047 200.517 216.062 200.55 216.069 200.585C216.077 200.621 216.077 200.657 216.071 200.692H216.078Z" fill="black"/>
        <path d="M229.364 217.547C232.989 219.119 236.773 220.298 240.651 221.062C240.674 221.066 240.696 221.074 240.716 221.087C240.735 221.099 240.752 221.115 240.766 221.135C240.779 221.154 240.788 221.175 240.793 221.198C240.798 221.221 240.798 221.245 240.793 221.268C240.784 221.313 240.757 221.353 240.719 221.38C240.68 221.406 240.633 221.417 240.587 221.41C236.676 220.666 232.857 219.501 229.198 217.935C229.147 217.913 229.106 217.871 229.086 217.819C229.065 217.768 229.065 217.71 229.087 217.658C229.109 217.607 229.151 217.567 229.203 217.547C229.255 217.526 229.312 217.526 229.364 217.547Z" fill="black"/>
        <path d="M252.392 222.426C256.356 222.576 260.325 222.507 264.281 222.22C264.296 222.218 264.311 222.219 264.326 222.223C264.34 222.227 264.353 222.234 264.365 222.244C264.376 222.254 264.385 222.266 264.391 222.28C264.397 222.293 264.401 222.308 264.4 222.323C264.401 222.338 264.4 222.352 264.395 222.366C264.39 222.38 264.383 222.393 264.374 222.404C264.364 222.415 264.352 222.424 264.339 222.43C264.326 222.437 264.312 222.441 264.297 222.442C260.342 222.748 256.373 222.841 252.408 222.719C252.37 222.717 252.333 222.7 252.307 222.672C252.28 222.644 252.266 222.607 252.266 222.569C252.268 222.53 252.284 222.494 252.312 222.467C252.34 222.441 252.378 222.426 252.416 222.426H252.392Z" fill="black"/>
        <path d="M276.071 220.906L287.778 218.863C287.786 218.856 287.796 218.852 287.806 218.852C287.816 218.852 287.826 218.856 287.834 218.863C287.839 218.871 287.843 218.881 287.843 218.891C287.843 218.901 287.839 218.91 287.834 218.918L276.127 221.064C276.117 221.066 276.106 221.067 276.095 221.065C276.085 221.063 276.075 221.059 276.066 221.053C276.057 221.047 276.049 221.039 276.044 221.03C276.038 221.021 276.034 221.011 276.032 221.001C276.029 220.981 276.035 220.961 276.046 220.945C276.058 220.929 276.076 220.918 276.095 220.914L276.071 220.906Z" fill="black"/>
        <path d="M299.398 216.39L304.154 215.328L299.398 216.414V216.39Z" fill="black"/>
        <rect x="70.3906" y="37.7109" width="7.52971" height="18.2201" rx="0.792249" fill="url(#paint0_linear_22605_38929)" stroke="black" stroke-width="1.5845" stroke-linejoin="round"/>
        <path fill-rule="evenodd" clip-rule="evenodd" d="M108.216 42.8594C92.0613 42.8594 77.8775 47.4956 69.8291 54.479C67.8553 56.1916 66.9844 58.7799 66.9844 61.3923V69.0012L146.469 67.8663L108.216 42.8594Z" fill="black"/>
        <path d="M146.469 67.8663L150.206 67.8129L150.224 63.4551C150.241 59.5131 148.945 55.5641 145.781 53.211L145.778 53.209C137.342 46.9391 123.369 42.8594 108.216 42.8594L146.469 67.8663Z" fill="#F1EFED"/>
        <path d="M108.216 42.8594L146.469 67.8663M108.216 42.8594C92.0613 42.8594 77.8775 47.4956 69.8291 54.479M108.216 42.8594C123.369 42.8594 137.342 46.9391 145.778 53.209M146.469 67.8663L66.9844 69.0012V61.3923M146.469 67.8663L150.206 67.8129L150.224 63.4551M69.8291 54.479C67.8553 56.1916 66.9844 58.7799 66.9844 61.3923M69.8291 54.479V54.479C67.8564 56.1906 66.9844 58.7806 66.9844 61.3923V61.3923M145.778 53.209C145.779 53.2097 145.78 53.2103 145.781 53.211M145.778 53.209L145.781 53.211M150.224 63.4551C150.241 59.5131 148.945 55.5641 145.781 53.211M150.224 63.4551V63.4551C150.241 59.515 148.943 55.5616 145.781 53.211V53.211" stroke="black" stroke-width="1.5845" stroke-linejoin="round"/>
        <path d="M66.2939 62.576C64.1117 140.056 57.513 181.402 40.2734 251.598H165.106C157.983 182.561 154.906 139.973 150.252 63.2737C150.127 61.2108 148.862 59.3552 146.963 58.5391C120.839 47.3114 103.626 46.0203 71.2453 55.9872C68.3591 56.8756 66.3789 59.5574 66.2939 62.576Z" fill="url(#paint1_linear_22605_38929)" stroke="black" stroke-width="1.5845" stroke-linecap="round" stroke-linejoin="round"/>
        <ellipse cx="31.9067" cy="12.6355" rx="31.9067" ry="12.6355" transform="matrix(1 0.000485985 0.000484926 1 75.0938 87.7773)" stroke="black" stroke-width="1.5845" stroke-linejoin="round"/>
        <ellipse cx="31.8948" cy="12.6402" rx="31.8948" ry="12.6402" transform="matrix(0.55102 -0.834492 0.830259 0.557378 78.7109 119.062)" stroke="black" stroke-width="1.5845" stroke-linejoin="round"/>
        <ellipse cx="31.8948" cy="12.6402" rx="31.8948" ry="12.6402" transform="matrix(-0.551337 -0.834283 -0.830464 0.557072 135.297 119.062)" stroke="black" stroke-width="1.5845" stroke-linejoin="round"/>
        <ellipse cx="5.41812" cy="5.41571" rx="5.41812" ry="5.41571" transform="matrix(1 0.000485985 0.000484926 1 101.586 94.9961)" fill="black" stroke="black" stroke-width="1.5845" stroke-linejoin="round"/>
        <rect x="179.219" y="75.3359" width="6.28871" height="15.2172" rx="0.661676" fill="url(#paint2_linear_22605_38929)" stroke="black" stroke-width="1.5845" stroke-linejoin="round"/>
        <path fill-rule="evenodd" clip-rule="evenodd" d="M210.811 79.6367C197.319 79.6367 185.473 83.5088 178.751 89.3412C177.102 90.7716 176.375 92.9333 176.375 95.1152V101.47L242.76 100.522L210.811 79.6367Z" fill="black"/>
        <path d="M242.76 100.522L245.88 100.478L245.896 96.838C245.91 93.5447 244.827 90.2457 242.183 88.2806C235.136 83.0441 223.467 79.6367 210.811 79.6367L242.76 100.522Z" fill="#F1EFED"/>
        <path d="M210.811 79.6367L242.76 100.522M210.811 79.6367C197.319 79.6367 185.473 83.5088 178.751 89.3412M210.811 79.6367C223.467 79.6367 235.136 83.0441 242.183 88.2806M242.76 100.522L176.375 101.47V95.1152M242.76 100.522L245.88 100.478L245.896 96.838M178.751 89.3412C177.102 90.7716 176.375 92.9333 176.375 95.1152M178.751 89.3412V89.3412C177.103 90.7708 176.375 92.9339 176.375 95.1152V95.1152M242.183 88.2806C244.827 90.2457 245.91 93.5447 245.896 96.838M242.183 88.2806V88.2806C244.825 90.2446 245.91 93.5455 245.896 96.838V96.838" stroke="black" stroke-width="1.5845" stroke-linejoin="round"/>
        <path d="M175.802 96.1023C173.98 160.813 168.469 195.344 154.07 253.971H258.329C252.38 196.312 249.81 160.743 245.923 96.6851C245.818 94.9622 244.762 93.4124 243.176 92.7308C221.357 83.3536 206.982 82.2753 179.938 90.5995C177.527 91.3415 175.873 93.5812 175.802 96.1023Z" fill="url(#paint3_linear_22605_38929)" stroke="black" stroke-width="1.5845" stroke-linecap="round" stroke-linejoin="round"/>
        <ellipse cx="20.5345" cy="8.13194" rx="20.5345" ry="8.13194" transform="matrix(1 0.000485985 0.000484926 1 188.844 122.574)" stroke="black" stroke-width="1.34682" stroke-linejoin="round"/>
        <ellipse cx="20.5268" cy="8.13495" rx="20.5268" ry="8.13495" transform="matrix(0.55102 -0.834492 0.830259 0.557378 191.164 142.707)" stroke="black" stroke-width="1.34682" stroke-linejoin="round"/>
        <ellipse cx="20.5268" cy="8.13495" rx="20.5268" ry="8.13495" transform="matrix(-0.551337 -0.834283 -0.830464 0.557072 227.586 142.707)" stroke="black" stroke-width="1.34682" stroke-linejoin="round"/>
        <ellipse cx="3.48707" cy="3.48552" rx="3.48707" ry="3.48552" transform="matrix(1 0.000485985 0.000484926 1 205.891 127.219)" fill="black" stroke="black" stroke-width="1.34682" stroke-linejoin="round"/>
        <rect x="225.352" y="237.336" width="67.3711" height="24.9536" fill="black" stroke="black" stroke-width="1.5845" stroke-linejoin="round"/>
        <rect x="18.4766" y="242.488" width="141.081" height="19.8044" fill="black" stroke="black" stroke-width="1.5845" stroke-linejoin="round"/>
        <path d="M18.4766 242.488L159.557 248.034V262.293H18.4766V242.488Z" fill="#5869DD" stroke="black" stroke-width="1.5845" stroke-linejoin="round"/>
        <path d="M262.6 205.648L225.348 181.883V240.108H262.6V205.648Z" fill="url(#paint4_linear_22605_38929)"/>
        <path fill-rule="evenodd" clip-rule="evenodd" d="M225.348 181.883V240.108V262.289H159.959L154.609 201.489L225.348 181.883Z" fill="url(#paint5_linear_22605_38929)"/>
        <path d="M154.609 201.489V262.289H159.959L154.609 201.489Z" fill="black"/>
        <path d="M225.348 181.883L262.6 205.648V240.108H225.348M225.348 181.883V240.108M225.348 181.883L154.609 201.489M225.348 240.108V262.289H159.959M154.609 201.489V262.289H159.959M154.609 201.489L159.959 262.289" stroke="black" stroke-width="1.5845" stroke-linejoin="round"/>
        <path d="M226.133 242.089L292.711 237.336V262.289H226.133V242.089Z" fill="url(#paint6_linear_22605_38929)" stroke="black" stroke-width="1.5845" stroke-linejoin="round"/>
        <path d="M57.4833 417.174C56.7735 414.003 56.7091 410.722 57.2937 407.526C57.3245 407.368 57.4141 407.228 57.5444 407.135C57.6747 407.041 57.8358 407 57.9951 407.021C58.1526 407.052 58.2926 407.141 58.3865 407.271C58.4804 407.401 58.5211 407.562 58.5005 407.721C58.2458 409.246 58.119 410.789 58.1214 412.334C58.1347 413.867 58.3212 415.393 58.6774 416.884C58.7122 417.043 58.6843 417.209 58.5995 417.347C58.5148 417.486 58.3797 417.587 58.2225 417.628C58.0645 417.661 57.8999 417.633 57.7624 417.548C57.6249 417.464 57.5251 417.33 57.4833 417.174Z" fill="black"/>
        <path d="M59.6969 398.29C60.8196 395.297 62.225 392.417 63.8941 389.689C63.982 389.559 64.1157 389.466 64.2689 389.428C64.4221 389.391 64.5838 389.412 64.7221 389.488C64.8531 389.575 64.9464 389.709 64.9838 389.862C65.0213 390.015 65.0001 390.176 64.9244 390.314C63.2973 392.978 61.9279 395.79 60.8347 398.713C60.774 398.861 60.6593 398.98 60.5138 399.047C60.3684 399.114 60.2029 399.123 60.0509 399.073C59.9039 399.011 59.7857 398.896 59.7201 398.751C59.6544 398.606 59.6462 398.441 59.6969 398.29Z" fill="black"/>
        <path d="M69.5477 381.973C71.6307 379.562 73.8756 377.296 76.2669 375.189C76.3253 375.137 76.3935 375.097 76.4674 375.072C76.5414 375.046 76.6196 375.035 76.6977 375.04C76.7759 375.045 76.8523 375.065 76.9226 375.099C76.9929 375.133 77.0558 375.181 77.1076 375.24C77.16 375.298 77.2005 375.365 77.2266 375.439C77.2528 375.513 77.2641 375.591 77.26 375.669C77.2559 375.747 77.2364 375.823 77.2027 375.893C77.1689 375.964 77.1216 376.027 77.0633 376.079C74.713 378.153 72.5061 380.383 70.4579 382.755C70.3498 382.869 70.2032 382.938 70.0466 382.95C69.89 382.962 69.7347 382.915 69.6109 382.818C69.497 382.71 69.4275 382.564 69.4158 382.408C69.4041 382.251 69.4511 382.096 69.5477 381.973Z" fill="black"/>
        <path d="M162.755 346.706L172.236 346.422C172.357 346.422 172.473 346.47 172.558 346.555C172.643 346.64 172.691 346.756 172.691 346.877C172.691 346.997 172.643 347.113 172.558 347.198C172.473 347.284 172.357 347.332 172.236 347.332L162.755 347.641C162.693 347.643 162.632 347.633 162.575 347.611C162.517 347.589 162.465 347.556 162.42 347.513C162.375 347.471 162.34 347.42 162.315 347.364C162.29 347.308 162.276 347.248 162.274 347.186C162.271 347.125 162.28 347.064 162.301 347.006C162.322 346.948 162.354 346.895 162.396 346.851C162.438 346.806 162.489 346.77 162.545 346.745C162.601 346.72 162.662 346.707 162.723 346.706H162.755Z" fill="black"/>
        <path d="M181.739 346.285H191.221C191.278 346.284 191.334 346.294 191.386 346.316C191.439 346.337 191.487 346.368 191.527 346.409C191.567 346.449 191.598 346.496 191.62 346.549C191.641 346.601 191.652 346.658 191.651 346.714C191.652 346.771 191.641 346.828 191.62 346.881C191.599 346.933 191.567 346.982 191.527 347.022C191.487 347.063 191.439 347.095 191.387 347.117C191.334 347.139 191.278 347.15 191.221 347.15H181.739C181.622 347.15 181.509 347.104 181.426 347.021C181.343 346.938 181.297 346.825 181.297 346.708C181.297 346.591 181.343 346.478 181.426 346.395C181.509 346.312 181.622 346.266 181.739 346.266V346.285Z" fill="black"/>
        <path d="M200.719 346.417L210.201 346.683C210.254 346.683 210.307 346.695 210.357 346.716C210.406 346.738 210.45 346.769 210.487 346.808C210.524 346.847 210.553 346.892 210.572 346.942C210.592 346.993 210.601 347.046 210.599 347.1C210.597 347.154 210.585 347.207 210.563 347.256C210.541 347.305 210.509 347.349 210.47 347.386C210.43 347.423 210.384 347.452 210.334 347.471C210.283 347.49 210.229 347.499 210.175 347.498L200.694 347.258C200.634 347.265 200.574 347.259 200.517 347.242C200.459 347.224 200.407 347.194 200.362 347.154C200.317 347.115 200.281 347.066 200.256 347.011C200.232 346.957 200.219 346.897 200.219 346.837C200.219 346.777 200.232 346.718 200.256 346.664C200.281 346.609 200.317 346.56 200.362 346.52C200.407 346.481 200.459 346.451 200.517 346.433C200.574 346.415 200.634 346.41 200.694 346.417H200.719Z" fill="black"/>
        <path d="M219.677 347.063L224.411 347.315C225.992 347.398 227.572 347.48 229.146 347.581C229.248 347.589 229.342 347.636 229.409 347.713C229.477 347.79 229.511 347.89 229.506 347.991C229.503 348.042 229.49 348.092 229.467 348.137C229.445 348.183 229.414 348.223 229.376 348.257C229.337 348.29 229.293 348.316 229.245 348.332C229.197 348.348 229.146 348.355 229.095 348.352C227.528 348.251 225.935 348.175 224.367 348.093L219.639 347.859C219.535 347.852 219.437 347.805 219.367 347.727C219.297 347.649 219.261 347.546 219.266 347.442C219.271 347.337 219.317 347.239 219.394 347.168C219.471 347.097 219.572 347.059 219.677 347.063Z" fill="black"/>
        <path d="M238.597 348.27L248.078 348.668C248.173 348.673 248.262 348.714 248.327 348.784C248.392 348.853 248.427 348.945 248.426 349.041C248.424 349.088 248.413 349.134 248.394 349.177C248.374 349.221 248.346 349.259 248.311 349.292C248.277 349.324 248.236 349.349 248.192 349.366C248.147 349.382 248.1 349.39 248.053 349.388L238.571 349.015C238.473 349.01 238.38 348.967 238.313 348.896C238.246 348.824 238.209 348.728 238.211 348.63C238.213 348.581 238.224 348.533 238.244 348.488C238.264 348.444 238.293 348.403 238.329 348.37C238.365 348.336 238.407 348.31 238.453 348.293C238.499 348.276 238.548 348.268 238.597 348.27Z" fill="black"/>
        <path d="M257.494 348.304C260.625 348.023 263.726 347.47 266.761 346.65C266.805 346.627 266.853 346.615 266.902 346.613C266.952 346.612 267.001 346.621 267.046 346.641C267.091 346.66 267.132 346.69 267.164 346.727C267.197 346.764 267.221 346.807 267.235 346.855C267.248 346.902 267.251 346.952 267.244 347C267.236 347.049 267.218 347.095 267.19 347.136C267.162 347.177 267.126 347.211 267.083 347.236C267.041 347.261 266.993 347.277 266.944 347.281C263.873 348.128 260.735 348.707 257.564 349.011C257.472 349.021 257.38 348.993 257.308 348.934C257.236 348.876 257.191 348.791 257.181 348.699C257.172 348.607 257.2 348.515 257.259 348.443C257.317 348.371 257.402 348.326 257.494 348.317V348.304Z" fill="black"/>
        <path d="M275.392 343.021C278.081 341.419 280.471 339.36 282.452 336.938C282.504 336.874 282.579 336.834 282.661 336.826C282.743 336.818 282.825 336.842 282.888 336.894C282.952 336.946 282.992 337.021 283.001 337.102C283.009 337.184 282.984 337.266 282.932 337.329C280.915 339.816 278.476 341.93 275.727 343.576C275.653 343.621 275.564 343.634 275.481 343.613C275.397 343.593 275.325 343.54 275.281 343.466C275.236 343.392 275.223 343.304 275.244 343.221C275.265 343.137 275.318 343.065 275.392 343.021Z" fill="black"/>
        <path d="M286.936 328.819C287.364 327.327 287.576 325.782 287.568 324.231C287.563 322.676 287.326 321.13 286.867 319.644C286.851 319.578 286.861 319.509 286.894 319.451C286.927 319.392 286.981 319.349 287.046 319.328C287.11 319.308 287.179 319.314 287.24 319.343C287.301 319.372 287.348 319.423 287.372 319.486C287.852 321.021 288.105 322.617 288.124 324.225C288.132 325.834 287.908 327.437 287.461 328.983C287.45 329.019 287.433 329.052 287.41 329.082C287.386 329.111 287.357 329.136 287.324 329.154C287.291 329.172 287.255 329.183 287.218 329.188C287.181 329.192 287.143 329.189 287.107 329.178C287.071 329.168 287.037 329.151 287.008 329.127C286.978 329.104 286.954 329.075 286.936 329.042C286.917 329.009 286.906 328.973 286.902 328.936C286.897 328.899 286.901 328.861 286.911 328.825L286.936 328.819Z" fill="black"/>
        <path d="M282.213 311.577C280.124 309.219 277.777 307.102 275.216 305.267C275.168 305.231 275.136 305.179 275.128 305.12C275.119 305.062 275.133 305.002 275.169 304.954C275.204 304.906 275.257 304.875 275.315 304.866C275.374 304.857 275.434 304.872 275.482 304.907C278.078 306.737 280.459 308.854 282.58 311.217C282.603 311.239 282.622 311.265 282.635 311.295C282.647 311.324 282.654 311.356 282.654 311.387C282.654 311.419 282.647 311.451 282.635 311.48C282.622 311.51 282.603 311.536 282.58 311.558C282.558 311.58 282.531 311.598 282.502 311.61C282.472 311.623 282.441 311.629 282.409 311.629C282.378 311.629 282.346 311.623 282.317 311.61C282.288 311.598 282.261 311.58 282.239 311.558L282.213 311.577Z" fill="black"/>
        <path d="M267.179 300.351C266.483 299.991 265.782 299.638 265.061 299.31L262.912 298.312L258.62 296.311C258.577 296.291 258.543 296.254 258.527 296.209C258.51 296.164 258.512 296.115 258.532 296.071C258.553 296.029 258.59 295.997 258.634 295.98C258.679 295.964 258.728 295.965 258.772 295.983L263.083 297.965L265.238 298.962C265.959 299.278 266.667 299.631 267.375 299.998C267.403 300.006 267.429 300.021 267.45 300.041C267.472 300.061 267.489 300.086 267.5 300.113C267.512 300.14 267.517 300.169 267.516 300.199C267.514 300.228 267.507 300.257 267.493 300.283C267.48 300.309 267.461 300.332 267.437 300.35C267.414 300.368 267.387 300.381 267.358 300.387C267.329 300.394 267.3 300.394 267.271 300.388C267.242 300.381 267.215 300.369 267.191 300.351H267.179Z" fill="black"/>
        <path d="M249.811 292.852C246.861 291.787 243.856 290.817 240.797 289.942C240.779 289.938 240.762 289.93 240.748 289.919C240.733 289.908 240.721 289.894 240.712 289.878C240.703 289.862 240.698 289.844 240.696 289.826C240.694 289.807 240.696 289.789 240.702 289.772C240.712 289.737 240.736 289.707 240.768 289.689C240.8 289.672 240.837 289.667 240.873 289.677C243.915 290.544 246.93 291.501 249.918 292.549C249.956 292.565 249.988 292.594 250.005 292.632C250.023 292.669 250.025 292.712 250.013 292.751C249.998 292.791 249.969 292.823 249.932 292.842C249.894 292.861 249.851 292.864 249.811 292.852Z" fill="black"/>
        <path d="M231.647 287.59L222.343 285.79C222.318 285.785 222.297 285.771 222.283 285.751C222.269 285.731 222.263 285.707 222.267 285.682C222.273 285.658 222.288 285.636 222.309 285.622C222.33 285.608 222.355 285.603 222.38 285.607L231.647 287.362C231.662 287.365 231.677 287.371 231.689 287.38C231.702 287.389 231.713 287.4 231.721 287.413C231.729 287.426 231.735 287.44 231.737 287.455C231.74 287.471 231.739 287.486 231.736 287.501C231.729 287.53 231.712 287.556 231.687 287.572C231.662 287.589 231.632 287.595 231.603 287.59H231.647Z" fill="black"/>
        <path d="M212.932 284.513L203.488 283.691C203.475 283.691 203.462 283.686 203.452 283.677C203.443 283.667 203.438 283.654 203.438 283.641C203.437 283.634 203.439 283.626 203.442 283.62C203.445 283.613 203.449 283.607 203.454 283.603C203.46 283.598 203.466 283.594 203.473 283.592C203.48 283.59 203.487 283.589 203.494 283.59L212.976 284.367C212.986 284.367 212.995 284.369 213.004 284.373C213.013 284.377 213.021 284.383 213.027 284.39C213.034 284.397 213.039 284.405 213.042 284.415C213.045 284.424 213.046 284.434 213.045 284.443C213.045 284.453 213.042 284.463 213.037 284.472C213.033 284.481 213.026 284.489 213.019 284.495C213.011 284.501 213.002 284.506 212.993 284.509C212.983 284.512 212.973 284.514 212.963 284.513H212.932Z" fill="black"/>
        <path d="M104.999 380.167L94.6807 401.752L107.849 396.517L104.999 380.167Z" fill="url(#paint7_linear_22605_38929)"/>
        <path d="M143.264 375.642L136.972 374.599L145.511 389.29L158.546 396.245L156.555 384.826L143.264 375.642Z" fill="black"/>
        <path d="M136.972 374.599L104.999 380.167L136.248 401.249L136.972 374.599Z" fill="black"/>
        <path d="M154.049 403.981L152.57 412.261L160.536 407.665L158.546 396.245L145.511 389.29L154.049 403.981Z" fill="#5869DD"/>
        <path d="M110.699 412.868L126.596 424.807L151.091 420.541L152.57 412.261L144.301 416.642L110.699 412.868Z" fill="#5869DD"/>
        <path d="M152.57 412.261L154.049 403.981L145.511 389.29L136.972 374.599L136.248 401.249L152.57 412.261Z" fill="url(#paint8_linear_22605_38929)"/>
        <path d="M110.699 412.868L144.301 416.642L152.57 412.261L136.248 401.249L104.999 380.167L107.849 396.517L110.699 412.868Z" fill="url(#paint9_linear_22605_38929)"/>
        <path d="M94.6807 401.752L101.937 409.848L110.699 412.868L107.849 396.517L94.6807 401.752Z" fill="#5869DD"/>
        <path d="M104.999 380.167L136.972 374.599M104.999 380.167L123.88 363.508L136.248 370.446L136.972 374.599M104.999 380.167L94.6807 401.752M104.999 380.167L136.248 401.249M104.999 380.167L107.849 396.517M110.699 412.868L126.596 424.807L151.091 420.541L152.57 412.261M110.699 412.868L101.937 409.848L94.6807 401.752M110.699 412.868L144.301 416.642L152.57 412.261M110.699 412.868L107.849 396.517M136.972 374.599L143.264 375.642L156.555 384.826L158.546 396.245M136.972 374.599L136.248 401.249M136.972 374.599L145.511 389.29M152.57 412.261L154.049 403.981L145.511 389.29M152.57 412.261L160.536 407.665L158.546 396.245M152.57 412.261L136.248 401.249M94.6807 401.752L107.849 396.517M145.511 389.29L158.546 396.245" stroke="black" stroke-width="1.26364" stroke-linecap="round" stroke-linejoin="round"/>
        <path d="M176.872 406.172L213.059 411.16L222.125 406.689L179.926 376.753L177.278 397.845L176.528 403.819L176.872 406.172Z" fill="url(#paint10_linear_22605_38929)"/>
        <path d="M176.872 406.172L193.684 419.427L220.276 415.533L222.125 406.689L213.059 411.16L176.872 406.172Z" fill="url(#paint11_linear_22605_38929)"/>
        <path fill-rule="evenodd" clip-rule="evenodd" d="M225.717 372.202L179.926 376.753L222.125 406.689L223.974 397.845L224.441 390.966L225.717 372.202Z" fill="#5869DD"/>
        <path d="M206.415 365.838L171.705 370.921L179.926 376.753L225.717 372.202L206.415 365.838Z" fill="black"/>
        <path fill-rule="evenodd" clip-rule="evenodd" d="M222.125 406.689L223.974 397.845L224.441 390.966L234.179 375.624L230.87 401.979L222.125 406.689Z" fill="#5869DD"/>
        <path d="M234.179 375.624L225.717 372.202L224.441 390.966L234.179 375.624Z" fill="black"/>
        <path fill-rule="evenodd" clip-rule="evenodd" d="M176.528 403.819L176.872 406.172L167.498 402.686L169.601 386.804L177.278 397.845L176.528 403.819Z" fill="#5869DD"/>
        <path d="M179.926 376.753L171.705 370.921L169.601 386.804L177.278 397.845L179.926 376.753Z" fill="black"/>
        <path d="M171.705 370.921L206.415 365.838M171.705 370.921L192.607 353.571L205.758 361.361L206.415 365.838M171.705 370.921L179.926 376.753M171.705 370.921L169.601 386.804M176.872 406.172L193.684 419.427L220.276 415.533L222.125 406.689M176.872 406.172L167.498 402.686L169.601 386.804M176.872 406.172L213.059 411.16L222.125 406.689M176.872 406.172L176.528 403.819L177.278 397.845M206.415 365.838L213.181 367.133L234.179 375.624M206.415 365.838L225.717 372.202M222.125 406.689L223.974 397.845L224.441 390.966M222.125 406.689L230.87 401.979L234.179 375.624M222.125 406.689L179.926 376.753M234.179 375.624L225.717 372.202M234.179 375.624L224.441 390.966M179.926 376.753L177.278 397.845M179.926 376.753L225.717 372.202M225.717 372.202L224.441 390.966M169.601 386.804L177.278 397.845" stroke="black" stroke-width="1.26364" stroke-linecap="round" stroke-linejoin="round"/>
        <path d="M35.461 372.278L21.4781 389.079L26.455 397.643L35.461 372.278Z" fill="black"/>
        <path d="M65.9959 373.902L75.554 403.099L81.8527 386.837L71.559 376.094L65.9959 373.902Z" fill="black"/>
        <path d="M33.8748 402.068L45.9874 415.753L69.3812 416.997L72.4676 410.048L63.9566 412.204L33.8748 402.068Z" fill="url(#paint12_linear_22605_38929)"/>
        <path d="M35.461 372.278L33.8748 402.068L63.9566 412.204L72.4676 410.048L35.461 372.278Z" fill="url(#paint13_linear_22605_38929)"/>
        <path d="M33.8748 402.068L35.461 372.278L26.455 397.643L33.8748 402.068Z" fill="#5869DD"/>
        <path d="M75.554 403.099L72.4676 410.048L80.7449 407.643L81.8527 386.837L75.554 403.099Z" fill="url(#paint14_linear_22605_38929)"/>
        <path d="M75.554 403.099L65.9959 373.902L35.461 372.278L72.4676 410.048L75.554 403.099Z" fill="#5869DD"/>
        <path d="M35.461 372.278L33.8748 402.068M35.461 372.278L65.9959 373.902M35.461 372.278L56.2829 361.53L66.1974 370.119L65.9959 373.902M35.461 372.278L21.4781 389.079L26.455 397.643M35.461 372.278L72.4676 410.048M35.461 372.278L26.455 397.643M33.8748 402.068L45.9874 415.753L69.3812 416.997L72.4676 410.048M33.8748 402.068L26.455 397.643M33.8748 402.068L63.9566 412.204L72.4676 410.048M75.554 403.099L65.9959 373.902M75.554 403.099L72.4676 410.048M75.554 403.099L81.8527 386.837M65.9959 373.902L71.559 376.094L81.8527 386.837M72.4676 410.048L80.7449 407.643L81.8527 386.837" stroke="black" stroke-width="1.26364" stroke-linecap="round" stroke-linejoin="round"/>
        <path d="M237.725 346.545L231.483 334.857H183.523L190.792 346.545H237.725Z" fill="#5869DD"/>
        <path d="M231.483 334.857L237.725 346.545L281.826 290.176L265.075 290.176L231.483 334.857Z" fill="url(#paint15_linear_22605_38929)"/>
        <path d="M231.483 334.857L237.725 346.545M231.483 334.857H183.523L190.792 346.545H237.725M231.483 334.857L265.075 290.176L281.826 290.176L237.725 346.545M281.826 290.177L237.725 346.545" stroke="black" stroke-width="1.26364" stroke-linecap="round" stroke-linejoin="round"/>
        <path d="M157.06 346.544L151.883 334.118L179.747 286.613L193.641 286.613L157.06 346.544Z" fill="url(#paint16_linear_22605_38929)"/>
        <path d="M193.641 286.614L157.06 346.544M157.06 346.544L151.883 334.118L179.747 286.613L193.641 286.613L157.06 346.544Z" stroke="black" stroke-width="1.26364" stroke-linecap="round" stroke-linejoin="round"/>
        <path d="M171.528 353.967L167.727 341.967L177.121 324.203L187.322 324.203L171.528 353.967Z" fill="#5869DD"/>
        <path d="M187.322 324.204L171.528 353.967M171.528 353.967L167.727 341.967L177.121 324.203L187.322 324.203L171.528 353.967Z" stroke="black" stroke-width="1.26364" stroke-linecap="round" stroke-linejoin="round"/>
        <path d="M247.758 363.348L242.364 353.247H200.914L205.023 363.348H247.758Z" fill="black"/>
        <path d="M252.907 371.497H267.383L256.08 353.247L247.758 363.348L252.907 371.497Z" fill="#5869DD"/>
        <path d="M259.189 332.73L251.156 342.525L242.364 353.247L247.758 363.348L256.08 353.247L272.983 332.73H259.189Z" fill="url(#paint17_linear_22605_38929)"/>
        <path d="M242.364 353.247L251.156 342.525L259.189 332.73H272.983L256.08 353.247M242.364 353.247L247.758 363.348M242.364 353.247H200.914L205.023 363.348H247.758M247.758 363.348L252.907 371.497H267.383L256.08 353.247M247.758 363.348L256.08 353.247" stroke="black" stroke-width="1.26364" stroke-linecap="round" stroke-linejoin="round"/>
        <path d="M110.537 384.072V396.707L236.244 367.014V351.852L231.751 353.003L213.568 357.664L204.499 359.988L190.69 363.527L138.503 376.904L135.457 377.684L134.412 377.952L110.537 384.072Z" fill="#5869DD"/>
        <path d="M0 376.49L100.731 383.399L119.782 365.644L124.321 361.414L82.9026 357.333L55.2684 354.61L0 376.49Z" fill="url(#paint18_linear_22605_38929)"/>
        <path d="M155.099 332.73H110.537L82.9026 343.67L119.782 345.879L139.71 347.072L155.099 332.73Z" fill="url(#paint19_linear_22605_38929)"/>
        <path d="M100.731 383.399L110.537 384.072L112.879 381.373L126.531 365.644H119.782L100.731 383.399Z" fill="black"/>
        <path d="M110.537 396.707V384.072L100.731 383.399V396.034L110.537 396.707Z" fill="black"/>
        <path d="M0 376.49V389.126L100.731 396.034V383.399L0 376.49Z" fill="url(#paint20_linear_22605_38929)"/>
        <path d="M140.815 349.187L155.099 332.73L139.71 347.072L140.815 349.187Z" fill="#F1EFED"/>
        <path d="M119.782 365.644H126.531L128.368 363.527L138.503 351.852L140.815 349.187L139.71 347.072L124.321 361.414L119.782 365.644Z" fill="#5869DD"/>
        <path d="M112.879 381.373L110.537 384.072L134.412 377.952L112.879 381.373Z" fill="black"/>
        <path d="M204.499 359.988L201.605 356.731C186.89 357.247 176.183 357.011 165.249 355.258V360.355C172.685 361.923 180.562 362.86 190.69 363.527L204.499 359.988Z" fill="black"/>
        <path d="M140.815 349.187L138.503 351.852C148.682 355.896 156.672 358.546 165.249 360.355V355.258C157.681 354.045 150.005 352.106 140.815 349.187Z" fill="#F1EFED"/>
        <path d="M181.963 334.626L201.605 356.731L204.499 359.988L213.568 357.664L181.963 334.626Z" fill="black"/>
        <path d="M132.886 371.021C134.284 372.848 135.045 374.885 135.457 377.684L138.503 376.904C138.123 374.061 137.488 371.61 136.091 369.465L132.886 371.021Z" fill="black"/>
        <path fill-rule="evenodd" clip-rule="evenodd" d="M213.568 338.732L181.963 334.626L213.568 357.664L231.751 353.003L213.568 338.732Z" fill="#5869DD"/>
        <path d="M236.244 351.852L213.568 338.732L231.751 353.003L236.244 351.852Z" fill="black"/>
        <path d="M190.69 363.527C180.562 362.86 172.685 361.923 165.249 360.355C156.672 358.546 148.682 355.896 138.503 351.852L128.368 363.527C132.23 365.225 134.597 367.17 136.091 369.465C137.488 371.61 138.123 374.061 138.503 376.904L190.69 363.527Z" fill="#5869DD"/>
        <path d="M181.963 334.626L155.099 332.73L140.815 349.187C150.005 352.106 157.681 354.045 165.249 355.258C176.183 357.011 186.89 357.247 201.605 356.731L181.963 334.626Z" fill="url(#paint21_linear_22605_38929)"/>
        <path d="M132.886 371.021C131.495 369.202 129.471 367.591 126.531 365.644L112.879 381.373L134.412 377.952L135.457 377.684C135.045 374.885 134.284 372.848 132.886 371.021Z" fill="#F1EFED"/>
        <path d="M82.9026 343.67L55.2684 354.61L82.9026 357.333L119.782 345.879L82.9026 343.67Z" fill="#F1EFED"/>
        <path d="M124.321 361.414L139.71 347.072L119.782 345.879L82.9026 357.333L124.321 361.414Z" fill="black"/>
        <path d="M0 376.49V389.126L100.731 396.034M0 376.49L100.731 383.399M0 376.49L55.2684 354.61M110.537 384.072V396.707M110.537 384.072L100.731 383.399M110.537 384.072L112.879 381.373M110.537 384.072L134.412 377.952M110.537 396.707L236.244 367.014V351.852M110.537 396.707L100.731 396.034M236.244 351.852L213.568 338.732M236.244 351.852L231.751 353.003M155.099 332.73H110.537L82.9026 343.67M155.099 332.73L181.963 334.626M155.099 332.73L140.815 349.187M155.099 332.73L139.71 347.072M181.963 334.626L213.568 338.732M181.963 334.626L201.605 356.731M181.963 334.626L213.568 357.664M213.568 338.732L231.751 353.003M204.499 359.988L201.605 356.731M204.499 359.988L190.69 363.527M204.499 359.988L213.568 357.664M100.731 383.399L119.782 365.644M100.731 383.399V396.034M119.782 365.644H126.531M119.782 365.644L124.321 361.414M126.531 365.644C129.471 367.591 131.495 369.202 132.886 371.021M126.531 365.644L112.879 381.373M126.531 365.644L128.368 363.527M135.457 377.684C135.045 374.885 134.284 372.848 132.886 371.021M135.457 377.684L134.412 377.952M135.457 377.684L138.503 376.904M140.815 349.187L138.503 351.852M140.815 349.187L139.71 347.072M140.815 349.187C150.005 352.106 157.681 354.045 165.249 355.258M201.605 356.731C186.89 357.247 176.183 357.011 165.249 355.258M190.69 363.527C180.562 362.86 172.685 361.923 165.249 360.355M190.69 363.527L138.503 376.904M138.503 351.852C148.682 355.896 156.672 358.546 165.249 360.355M138.503 351.852L128.368 363.527M124.321 361.414L139.71 347.072M124.321 361.414L82.9026 357.333M55.2684 354.61L82.9026 343.67M55.2684 354.61L82.9026 357.333M82.9026 343.67L119.782 345.879M139.71 347.072L119.782 345.879M132.886 371.021L136.091 369.465M112.879 381.373L134.412 377.952M165.249 360.355V355.258M213.568 357.664L231.751 353.003M138.503 376.904C138.123 374.061 137.488 371.61 136.091 369.465M128.368 363.527C132.23 365.225 134.597 367.17 136.091 369.465M82.9026 357.333L119.782 345.879" stroke="black" stroke-width="1.26364" stroke-linecap="round" stroke-linejoin="round"/>
        <path d="M349.439 459.568L340.827 460.392C340.758 460.387 340.693 460.358 340.644 460.31C340.594 460.261 340.563 460.197 340.556 460.128C340.549 460.059 340.567 459.99 340.606 459.933C340.645 459.876 340.703 459.834 340.77 459.816L349.382 459.032C349.417 459.029 349.453 459.033 349.487 459.044C349.521 459.055 349.553 459.072 349.58 459.095C349.607 459.118 349.63 459.146 349.646 459.178C349.663 459.21 349.673 459.244 349.676 459.28C349.682 459.349 349.661 459.419 349.617 459.473C349.572 459.527 349.509 459.561 349.439 459.568Z" fill="black"/>
        <path d="M332.216 461.143L323.599 461.835C323.517 461.841 323.435 461.815 323.371 461.762C323.308 461.71 323.267 461.634 323.259 461.552C323.252 461.469 323.279 461.387 323.333 461.323C323.387 461.259 323.464 461.22 323.547 461.212L332.193 460.544C332.233 460.541 332.272 460.545 332.31 460.558C332.347 460.57 332.382 460.589 332.412 460.615C332.442 460.641 332.467 460.672 332.485 460.707C332.502 460.743 332.513 460.781 332.516 460.82C332.52 460.862 332.515 460.904 332.502 460.943C332.489 460.983 332.467 461.019 332.439 461.049C332.411 461.08 332.376 461.104 332.338 461.12C332.299 461.136 332.258 461.144 332.216 461.143Z" fill="black"/>
        <path d="M314.962 462.415L306.315 462.859C306.272 462.861 306.228 462.855 306.187 462.84C306.146 462.825 306.108 462.803 306.076 462.773C306.044 462.744 306.018 462.708 305.999 462.668C305.981 462.629 305.971 462.586 305.97 462.542C305.966 462.498 305.972 462.455 305.986 462.413C306 462.372 306.022 462.334 306.051 462.301C306.08 462.268 306.116 462.242 306.155 462.223C306.194 462.204 306.237 462.193 306.281 462.191L314.927 461.77C315.013 461.765 315.097 461.795 315.16 461.852C315.224 461.91 315.263 461.99 315.267 462.075C315.272 462.161 315.242 462.245 315.185 462.309C315.128 462.372 315.047 462.411 314.962 462.415Z" fill="black"/>
        <path d="M297.688 463.313L289.041 463.734C288.992 463.742 288.941 463.74 288.892 463.727C288.843 463.714 288.798 463.691 288.758 463.659C288.719 463.628 288.687 463.588 288.664 463.543C288.641 463.498 288.628 463.449 288.625 463.399C288.623 463.348 288.631 463.298 288.65 463.251C288.668 463.204 288.696 463.161 288.732 463.126C288.768 463.091 288.811 463.064 288.859 463.046C288.906 463.029 288.957 463.021 289.007 463.025L297.653 462.622C297.745 462.617 297.835 462.649 297.903 462.711C297.971 462.772 298.012 462.858 298.016 462.95C298.021 463.042 297.989 463.131 297.927 463.199C297.866 463.268 297.78 463.308 297.688 463.313Z" fill="black"/>
        <path d="M280.406 464.091L271.759 464.385C271.659 464.387 271.562 464.349 271.489 464.28C271.415 464.211 271.372 464.117 271.367 464.016C271.366 463.967 271.374 463.918 271.391 463.872C271.409 463.826 271.435 463.784 271.469 463.748C271.503 463.712 271.543 463.683 271.588 463.663C271.633 463.643 271.681 463.632 271.731 463.63L280.377 463.359C280.474 463.358 280.567 463.394 280.637 463.461C280.708 463.528 280.748 463.62 280.751 463.717C280.755 463.812 280.72 463.905 280.655 463.975C280.591 464.045 280.501 464.087 280.406 464.091Z" fill="black"/>
        <path d="M263.106 464.557L254.459 464.627C254.403 464.633 254.345 464.628 254.291 464.611C254.236 464.594 254.186 464.566 254.144 464.528C254.101 464.49 254.067 464.444 254.043 464.391C254.02 464.339 254.008 464.283 254.008 464.226C254.008 464.169 254.02 464.113 254.043 464.061C254.067 464.009 254.101 463.962 254.144 463.924C254.186 463.887 254.236 463.858 254.291 463.841C254.345 463.824 254.403 463.819 254.459 463.826L263.106 463.785C263.157 463.784 263.208 463.793 263.256 463.811C263.304 463.83 263.348 463.858 263.384 463.895C263.421 463.931 263.45 463.974 263.469 464.021C263.489 464.069 263.499 464.12 263.498 464.171C263.498 464.223 263.488 464.273 263.468 464.32C263.448 464.368 263.419 464.41 263.383 464.446C263.346 464.482 263.303 464.511 263.255 464.53C263.208 464.549 263.157 464.558 263.106 464.557Z" fill="black"/>
        <path d="M245.825 464.832L237.179 464.999C237.067 464.999 236.96 464.954 236.881 464.876C236.802 464.797 236.758 464.69 236.758 464.578C236.758 464.467 236.802 464.36 236.881 464.281C236.96 464.202 237.067 464.158 237.179 464.158L245.825 464.008C245.926 464.02 246.019 464.068 246.086 464.144C246.154 464.22 246.191 464.318 246.191 464.42C246.191 464.521 246.154 464.619 246.086 464.695C246.019 464.771 245.926 464.82 245.825 464.832Z" fill="black"/>
        <path d="M228.505 464.845C225.623 464.701 222.741 464.453 219.859 464.05C219.742 464.033 219.636 463.971 219.565 463.876C219.495 463.782 219.464 463.663 219.481 463.546C219.498 463.429 219.561 463.324 219.655 463.253C219.75 463.182 219.869 463.152 219.985 463.169C222.821 463.583 225.686 463.831 228.551 463.981C228.666 463.986 228.774 464.037 228.851 464.122C228.928 464.207 228.969 464.319 228.963 464.433C228.958 464.548 228.907 464.656 228.822 464.733C228.737 464.81 228.625 464.851 228.511 464.845H228.505Z" fill="black"/>
        <path d="M211.308 462.162C210.562 461.879 209.891 461.428 209.348 460.844C209.052 460.497 208.87 460.067 208.829 459.613C208.816 459.172 208.913 458.735 209.112 458.341C209.479 457.652 209.974 457.039 210.57 456.534C211.118 456.045 211.695 455.589 212.299 455.17C212.349 455.129 212.406 455.099 212.468 455.081C212.53 455.063 212.595 455.058 212.659 455.067C212.723 455.075 212.785 455.096 212.84 455.13C212.895 455.163 212.943 455.208 212.98 455.26C213.017 455.313 213.043 455.373 213.056 455.436C213.069 455.499 213.068 455.564 213.055 455.627C213.041 455.69 213.015 455.749 212.977 455.801C212.939 455.854 212.891 455.897 212.835 455.93C212.256 456.321 211.704 456.75 211.181 457.213C210.673 457.641 210.247 458.158 209.925 458.738C209.797 458.987 209.731 459.264 209.734 459.544C209.758 459.811 209.868 460.063 210.046 460.263C210.497 460.728 211.043 461.089 211.648 461.322C211.749 461.376 211.827 461.467 211.864 461.575C211.901 461.684 211.896 461.802 211.849 461.907C211.803 462.012 211.718 462.096 211.612 462.141C211.506 462.186 211.387 462.189 211.279 462.151L211.308 462.162Z" fill="black"/>
        <path d="M219.993 451.019C221.29 450.409 222.621 449.799 223.964 449.257C225.307 448.716 226.668 448.21 228.04 447.744C228.102 447.715 228.169 447.7 228.238 447.699C228.306 447.698 228.374 447.712 228.437 447.739C228.499 447.766 228.556 447.806 228.602 447.856C228.649 447.906 228.684 447.965 228.707 448.029C228.729 448.094 228.737 448.163 228.731 448.231C228.726 448.299 228.705 448.365 228.672 448.424C228.64 448.484 228.594 448.537 228.54 448.578C228.486 448.619 228.423 448.649 228.357 448.665C226.996 449.125 225.653 449.614 224.322 450.15C222.99 450.685 221.699 451.266 220.385 451.877C220.327 451.909 220.264 451.929 220.198 451.936C220.133 451.942 220.067 451.935 220.004 451.915C219.941 451.895 219.883 451.862 219.834 451.819C219.784 451.775 219.745 451.722 219.717 451.662C219.689 451.603 219.674 451.538 219.672 451.472C219.67 451.406 219.682 451.341 219.707 451.28C219.732 451.219 219.769 451.164 219.816 451.118C219.863 451.072 219.92 451.036 219.981 451.013L219.993 451.019Z" fill="black"/>
        <path d="M236.364 445.282L244.739 443.129C244.802 443.113 244.868 443.109 244.933 443.118C244.998 443.127 245.06 443.149 245.116 443.182C245.172 443.215 245.222 443.259 245.261 443.311C245.3 443.364 245.328 443.423 245.345 443.486C245.371 443.61 245.348 443.738 245.282 443.846C245.215 443.953 245.11 444.03 244.987 444.062L236.612 446.203C236.486 446.235 236.352 446.216 236.24 446.15C236.128 446.083 236.047 445.975 236.015 445.849C235.983 445.723 236.002 445.59 236.069 445.478C236.135 445.366 236.244 445.285 236.37 445.253L236.364 445.282Z" fill="black"/>
        <path d="M253.03 440.765C255.757 439.895 258.429 438.861 261.031 437.668C261.151 437.612 261.29 437.606 261.415 437.651C261.541 437.696 261.643 437.79 261.699 437.91C261.756 438.031 261.762 438.169 261.717 438.294C261.671 438.419 261.578 438.522 261.457 438.578C258.815 439.783 256.103 440.829 253.336 441.71C253.274 441.73 253.209 441.738 253.144 441.733C253.079 441.729 253.016 441.711 252.958 441.682C252.9 441.652 252.848 441.611 252.806 441.562C252.764 441.512 252.733 441.455 252.713 441.393C252.692 441.331 252.684 441.265 252.689 441.2C252.694 441.135 252.711 441.072 252.741 441.013C252.77 440.955 252.811 440.903 252.861 440.86C252.91 440.818 252.968 440.786 253.03 440.765Z" fill="black"/>
        <path d="M257.126 436.274L248.526 435.64C248.391 435.631 248.266 435.568 248.178 435.465C248.09 435.363 248.046 435.23 248.056 435.096C248.066 434.961 248.129 434.836 248.231 434.748C248.333 434.66 248.466 434.616 248.601 434.626L257.247 435.266C257.373 435.285 257.488 435.351 257.568 435.451C257.647 435.551 257.686 435.677 257.677 435.805C257.667 435.932 257.61 436.051 257.516 436.138C257.423 436.225 257.3 436.274 257.172 436.274H257.126Z" fill="black"/>
        <path d="M239.907 435.553L231.261 435.628C231.134 435.614 231.016 435.554 230.93 435.459C230.844 435.364 230.797 435.24 230.797 435.112C230.797 434.984 230.844 434.861 230.93 434.765C231.016 434.67 231.134 434.61 231.261 434.597L239.907 434.527C240.043 434.527 240.174 434.581 240.27 434.678C240.366 434.774 240.42 434.904 240.42 435.04C240.42 435.176 240.366 435.307 240.27 435.403C240.174 435.499 240.043 435.553 239.907 435.553Z" fill="black"/>
        <path d="M222.628 435.748L213.982 435.904C213.913 435.907 213.844 435.896 213.779 435.872C213.715 435.848 213.656 435.811 213.606 435.764C213.556 435.717 213.516 435.66 213.488 435.596C213.461 435.533 213.446 435.465 213.445 435.397C213.444 435.328 213.456 435.259 213.481 435.195C213.506 435.131 213.543 435.072 213.591 435.022C213.639 434.973 213.696 434.933 213.759 434.905C213.822 434.877 213.89 434.862 213.958 434.861L222.605 434.711C222.673 434.711 222.74 434.724 222.803 434.75C222.866 434.776 222.923 434.815 222.972 434.863C223.02 434.911 223.058 434.968 223.084 435.031C223.11 435.094 223.124 435.161 223.124 435.23C223.124 435.298 223.11 435.365 223.084 435.428C223.058 435.491 223.02 435.548 222.972 435.596C222.923 435.644 222.866 435.683 222.803 435.709C222.74 435.735 222.673 435.748 222.605 435.748H222.628Z" fill="black"/>
        <path d="M205.341 436.09L196.694 436.274C196.554 436.274 196.419 436.218 196.319 436.119C196.22 436.019 196.164 435.884 196.164 435.744C196.164 435.603 196.22 435.468 196.319 435.369C196.419 435.27 196.554 435.214 196.694 435.214L205.341 435.035C205.471 435.049 205.592 435.11 205.679 435.208C205.767 435.305 205.816 435.431 205.816 435.562C205.816 435.693 205.767 435.82 205.679 435.917C205.592 436.014 205.471 436.076 205.341 436.09Z" fill="black"/>
        <path d="M188.047 436.458L179.4 436.631C179.329 436.632 179.259 436.62 179.193 436.594C179.127 436.568 179.067 436.529 179.016 436.48C178.965 436.431 178.924 436.372 178.896 436.307C178.868 436.242 178.853 436.172 178.853 436.101C178.848 436.028 178.858 435.956 178.882 435.887C178.906 435.818 178.944 435.755 178.993 435.701C179.042 435.648 179.101 435.604 179.167 435.574C179.233 435.544 179.305 435.527 179.377 435.525L188.024 435.363C188.165 435.362 188.301 435.416 188.402 435.514C188.504 435.612 188.562 435.747 188.565 435.888C188.572 435.96 188.563 436.032 188.54 436.101C188.517 436.17 188.48 436.233 188.431 436.286C188.382 436.34 188.323 436.383 188.257 436.412C188.191 436.442 188.119 436.458 188.047 436.458Z" fill="black"/>
        <path d="M170.755 436.775L162.109 436.924C161.974 436.911 161.849 436.847 161.758 436.747C161.667 436.646 161.617 436.515 161.617 436.38C161.617 436.244 161.667 436.114 161.758 436.013C161.849 435.913 161.974 435.849 162.109 435.835L170.755 435.691C170.899 435.691 171.037 435.748 171.138 435.85C171.24 435.952 171.297 436.089 171.297 436.233C171.297 436.377 171.24 436.514 171.138 436.616C171.037 436.718 170.899 436.775 170.755 436.775Z" fill="black"/>
        <path d="M153.46 437.067L144.813 437.183C144.694 437.148 144.589 437.075 144.514 436.975C144.439 436.875 144.398 436.754 144.398 436.629C144.398 436.505 144.439 436.384 144.514 436.284C144.589 436.184 144.694 436.111 144.813 436.076L153.46 435.973C153.575 436.011 153.676 436.084 153.747 436.182C153.818 436.28 153.856 436.399 153.856 436.52C153.856 436.641 153.818 436.76 153.747 436.858C153.676 436.956 153.575 437.029 153.46 437.067Z" fill="black"/>
        <path d="M136.16 437.224L127.514 437.16C127.361 437.16 127.214 437.099 127.106 436.991C126.998 436.883 126.938 436.737 126.938 436.584C126.938 436.431 126.998 436.285 127.106 436.177C127.214 436.069 127.361 436.008 127.514 436.008L136.16 436.077C136.282 436.11 136.39 436.183 136.467 436.283C136.544 436.384 136.585 436.506 136.585 436.633C136.585 436.759 136.544 436.882 136.467 436.983C136.39 437.083 136.282 437.156 136.16 437.189V437.224Z" fill="black"/>
        <path d="M118.854 436.951L110.208 436.571C110.062 436.561 109.926 436.495 109.826 436.389C109.727 436.282 109.672 436.141 109.672 435.995C109.681 435.848 109.745 435.71 109.852 435.609C109.96 435.509 110.101 435.453 110.248 435.453L118.895 435.839C119.041 435.848 119.179 435.913 119.28 436.02C119.381 436.127 119.437 436.268 119.436 436.415C119.426 436.562 119.36 436.699 119.252 436.799C119.144 436.898 119.001 436.953 118.854 436.951Z" fill="black"/>
        <path d="M101.564 435.984L92.9461 435.166C92.7933 435.152 92.6524 435.077 92.5546 434.959C92.4568 434.84 92.4099 434.688 92.4245 434.535C92.439 434.383 92.5137 434.242 92.632 434.144C92.7504 434.047 92.9028 434 93.0557 434.014L101.656 434.838C101.732 434.845 101.805 434.867 101.872 434.903C101.939 434.938 101.999 434.987 102.047 435.045C102.096 435.104 102.132 435.171 102.155 435.244C102.177 435.316 102.185 435.393 102.178 435.468C102.17 435.544 102.148 435.617 102.113 435.685C102.077 435.752 102.029 435.811 101.97 435.86C101.911 435.908 101.844 435.944 101.771 435.967C101.698 435.989 101.622 435.997 101.546 435.989L101.564 435.984Z" fill="black"/>
        <path d="M84.3365 434.262C81.4559 433.897 78.5967 433.38 75.7709 432.712C75.6252 432.676 75.4996 432.583 75.421 432.455C75.3424 432.327 75.317 432.174 75.3501 432.027C75.3857 431.879 75.4784 431.751 75.608 431.672C75.7376 431.592 75.8936 431.566 76.0418 431.601C78.828 432.256 81.6468 432.763 84.4864 433.121C84.6377 433.141 84.7748 433.221 84.8677 433.341C84.9606 433.462 85.0018 433.615 84.9821 433.766C84.962 433.917 84.8828 434.054 84.7618 434.147C84.6408 434.24 84.4878 434.281 84.3365 434.262Z" fill="black"/>
        <path d="M67.4822 429.942C64.7719 428.754 62.301 427.083 60.1905 425.01C60.0883 424.903 60.0312 424.761 60.0312 424.613C60.0313 424.466 60.0883 424.323 60.1905 424.216C60.2979 424.113 60.4416 424.055 60.5911 424.055C60.7406 424.055 60.8842 424.113 60.9917 424.216C63.0061 426.189 65.3638 427.778 67.9491 428.906C68.0855 428.97 68.1915 429.085 68.2443 429.226C68.2971 429.367 68.2925 429.522 68.2315 429.66C68.1665 429.795 68.0512 429.9 67.9102 429.951C67.7692 430.003 67.6135 429.998 67.4764 429.936L67.4822 429.942Z" fill="black"/>
    </g>
    <defs>
        <linearGradient id="paint0_linear_22605_38929" x1="71.6676" y1="70.8808" x2="84.7656" y2="68.6732" gradientUnits="userSpaceOnUse">
            <stop stop-color="#5869DD"/>
            <stop offset="1" stop-color="#D6FFBB"/>
        </linearGradient>
        <linearGradient id="paint1_linear_22605_38929" x1="173.032" y1="76.9238" x2="51.0435" y2="212.449" gradientUnits="userSpaceOnUse">
            <stop stop-color="#D6FFBB"/>
            <stop offset="1" stop-color="#5869DD"/>
        </linearGradient>
        <linearGradient id="paint2_linear_22605_38929" x1="178.438" y1="84.7716" x2="186.098" y2="83.5743" gradientUnits="userSpaceOnUse">
            <stop stop-color="#D6FFBB"/>
            <stop offset="1" stop-color="#5869DD"/>
        </linearGradient>
        <linearGradient id="paint3_linear_22605_38929" x1="267.335" y1="107.815" x2="177.034" y2="212.032" gradientUnits="userSpaceOnUse">
            <stop stop-color="#D6FFBB"/>
            <stop offset="1" stop-color="#5869DD"/>
        </linearGradient>
        <linearGradient id="paint4_linear_22605_38929" x1="277.659" y1="198.122" x2="208.625" y2="241.328" gradientUnits="userSpaceOnUse">
            <stop stop-color="#D6FFBB"/>
            <stop offset="1" stop-color="#5869DD"/>
        </linearGradient>
        <linearGradient id="paint5_linear_22605_38929" x1="268.148" y1="154.553" x2="193.298" y2="253.612" gradientUnits="userSpaceOnUse">
            <stop stop-color="#D6FFBB"/>
            <stop offset="1" stop-color="#5869DD"/>
        </linearGradient>
        <linearGradient id="paint6_linear_22605_38929" x1="292.711" y1="220.304" x2="249.136" y2="255.183" gradientUnits="userSpaceOnUse">
            <stop stop-color="#D6FFBB"/>
            <stop offset="1" stop-color="#5869DD"/>
        </linearGradient>
        <linearGradient id="paint7_linear_22605_38929" x1="94.2961" y1="399.546" x2="157.209" y2="388.578" gradientUnits="userSpaceOnUse">
            <stop stop-color="#D6FFBB"/>
            <stop offset="1" stop-color="#5869DD"/>
        </linearGradient>
        <linearGradient id="paint8_linear_22605_38929" x1="94.2961" y1="399.546" x2="157.209" y2="388.578" gradientUnits="userSpaceOnUse">
            <stop stop-color="#D6FFBB"/>
            <stop offset="1" stop-color="#5869DD"/>
        </linearGradient>
        <linearGradient id="paint9_linear_22605_38929" x1="142.145" y1="379.17" x2="125.717" y2="440.441" gradientUnits="userSpaceOnUse">
            <stop stop-color="#D6FFBB"/>
            <stop offset="1" stop-color="#5869DD"/>
        </linearGradient>
        <linearGradient id="paint10_linear_22605_38929" x1="193.342" y1="437.923" x2="251.667" y2="401.013" gradientUnits="userSpaceOnUse">
            <stop stop-color="#5869DD"/>
            <stop offset="1" stop-color="#D6FFBB"/>
        </linearGradient>
        <linearGradient id="paint11_linear_22605_38929" x1="165.714" y1="390.516" x2="234.876" y2="380.377" gradientUnits="userSpaceOnUse">
            <stop stop-color="#D6FFBB"/>
            <stop offset="1" stop-color="#5869DD"/>
        </linearGradient>
        <linearGradient id="paint12_linear_22605_38929" x1="27.935" y1="459.733" x2="119.549" y2="424.35" gradientUnits="userSpaceOnUse">
            <stop stop-color="#D6FFBB"/>
            <stop offset="1" stop-color="#5869DD"/>
        </linearGradient>
        <linearGradient id="paint13_linear_22605_38929" x1="66.9154" y1="398.123" x2="51.6406" y2="428.454" gradientUnits="userSpaceOnUse">
            <stop stop-color="#D6FFBB"/>
            <stop offset="1" stop-color="#5869DD"/>
        </linearGradient>
        <linearGradient id="paint14_linear_22605_38929" x1="21.5851" y1="387.07" x2="81.67" y2="390.269" gradientUnits="userSpaceOnUse">
            <stop stop-color="#D6FFBB"/>
            <stop offset="1" stop-color="#5869DD"/>
        </linearGradient>
        <linearGradient id="paint15_linear_22605_38929" x1="232.675" y1="346.545" x2="308.52" y2="300.348" gradientUnits="userSpaceOnUse">
            <stop stop-color="#5869DD"/>
            <stop offset="1" stop-color="#D6FFBB"/>
        </linearGradient>
        <linearGradient id="paint16_linear_22605_38929" x1="172.762" y1="331.152" x2="206.746" y2="326.694" gradientUnits="userSpaceOnUse">
            <stop stop-color="#5869DD"/>
            <stop offset="1" stop-color="#D6FFBB"/>
        </linearGradient>
        <linearGradient id="paint17_linear_22605_38929" x1="236.948" y1="371.497" x2="290.531" y2="336.581" gradientUnits="userSpaceOnUse">
            <stop stop-color="#5869DD"/>
            <stop offset="1" stop-color="#D6FFBB"/>
        </linearGradient>
        <linearGradient id="paint18_linear_22605_38929" x1="18.8837" y1="319.148" x2="112.393" y2="396.755" gradientUnits="userSpaceOnUse">
            <stop stop-color="#D6FFBB"/>
            <stop offset="1" stop-color="#5869DD"/>
        </linearGradient>
        <linearGradient id="paint19_linear_22605_38929" x1="34.686" y1="364.719" x2="181.95" y2="319.737" gradientUnits="userSpaceOnUse">
            <stop stop-color="#D6FFBB"/>
            <stop offset="1" stop-color="#5869DD"/>
        </linearGradient>
        <linearGradient id="paint20_linear_22605_38929" x1="-92.9963" y1="364.719" x2="13.3829" y2="278.785" gradientUnits="userSpaceOnUse">
            <stop stop-color="#D6FFBB"/>
            <stop offset="1" stop-color="#5869DD"/>
        </linearGradient>
        <linearGradient id="paint21_linear_22605_38929" x1="86.2013" y1="315.041" x2="174.685" y2="344.446" gradientUnits="userSpaceOnUse">
            <stop stop-color="#D6FFBB"/>
            <stop offset="1" stop-color="#5869DD"/>
        </linearGradient>
        <clipPath id="clip0_22605_38929">
            <rect width="355" height="465" fill="white"/>
        </clipPath>
    </defs>
</svg>
