<svg width="855" height="689" viewBox="0 0 855 689" fill="none" xmlns="http://www.w3.org/2000/svg">
    <path d="M823.147 665.811L808.272 667.751C808.21 667.76 808.147 667.744 808.096 667.707C808.046 667.669 808.012 667.613 808.002 667.551C807.998 667.521 808 667.49 808.008 667.461C808.015 667.431 808.029 667.404 808.048 667.379C808.066 667.355 808.09 667.335 808.116 667.32C808.143 667.305 808.172 667.295 808.202 667.291L823.087 665.41C823.141 665.407 823.194 665.424 823.237 665.457C823.279 665.49 823.308 665.538 823.318 665.591C823.323 665.642 823.309 665.694 823.277 665.735C823.245 665.776 823.199 665.803 823.147 665.811Z" fill="black"/>
    <path d="M793.385 669.622L778.49 671.433C778.45 671.439 778.409 671.436 778.37 671.425C778.331 671.415 778.294 671.396 778.262 671.371C778.231 671.346 778.204 671.314 778.185 671.278C778.166 671.243 778.154 671.203 778.15 671.163C778.142 671.085 778.164 671.006 778.213 670.945C778.261 670.883 778.332 670.843 778.41 670.833L793.316 669.062C793.35 669.056 793.386 669.058 793.421 669.066C793.455 669.075 793.487 669.091 793.515 669.112C793.543 669.134 793.567 669.161 793.584 669.192C793.601 669.223 793.612 669.257 793.616 669.292C793.626 669.329 793.628 669.368 793.622 669.406C793.615 669.444 793.601 669.48 793.579 669.512C793.557 669.543 793.528 669.569 793.495 669.589C793.461 669.608 793.424 669.619 793.385 669.622Z" fill="black"/>
    <path d="M763.573 673.176L748.638 674.867C748.59 674.872 748.54 674.868 748.493 674.854C748.446 674.841 748.402 674.818 748.364 674.787C748.326 674.756 748.294 674.718 748.271 674.675C748.248 674.632 748.233 674.585 748.228 674.536C748.219 674.439 748.249 674.341 748.311 674.265C748.372 674.188 748.461 674.139 748.558 674.126L763.473 672.506C763.563 672.497 763.653 672.523 763.724 672.579C763.794 672.635 763.841 672.716 763.853 672.806C763.862 672.891 763.838 672.977 763.786 673.046C763.734 673.115 763.658 673.161 763.573 673.176Z" fill="black"/>
    <path d="M733.751 676.494L718.826 678.065C718.769 678.072 718.711 678.067 718.655 678.051C718.6 678.035 718.548 678.008 718.503 677.972C718.458 677.935 718.421 677.89 718.394 677.839C718.367 677.788 718.351 677.732 718.346 677.675C718.335 677.559 718.369 677.444 718.442 677.354C718.515 677.264 718.621 677.207 718.736 677.194L733.661 675.694C733.768 675.682 733.876 675.714 733.96 675.781C734.044 675.849 734.099 675.947 734.111 676.054C734.117 676.159 734.084 676.263 734.017 676.344C733.95 676.426 733.855 676.479 733.751 676.494Z" fill="black"/>
    <path d="M703.895 679.557L688.95 680.988C688.83 680.979 688.717 680.929 688.631 680.845C688.545 680.761 688.491 680.649 688.479 680.53C688.467 680.41 688.498 680.29 688.566 680.191C688.633 680.092 688.734 680.02 688.85 679.987L703.795 678.627C703.857 678.621 703.919 678.628 703.978 678.647C704.038 678.666 704.092 678.696 704.14 678.736C704.187 678.776 704.226 678.825 704.255 678.88C704.283 678.935 704.3 678.995 704.305 679.057C704.317 679.178 704.28 679.298 704.203 679.391C704.126 679.485 704.016 679.545 703.895 679.557Z" fill="black"/>
    <path d="M673.985 682.3L659.029 683.5C658.887 683.512 658.745 683.467 658.635 683.375C658.524 683.284 658.454 683.153 658.439 683.01C658.428 682.866 658.474 682.723 658.568 682.612C658.662 682.502 658.795 682.433 658.939 682.42L673.945 681.259C674.013 681.254 674.082 681.262 674.147 681.283C674.212 681.305 674.272 681.338 674.325 681.383C674.377 681.428 674.419 681.482 674.45 681.543C674.481 681.605 674.5 681.671 674.505 681.74C674.512 681.812 674.504 681.884 674.481 681.953C674.457 682.021 674.42 682.084 674.371 682.137C674.322 682.19 674.262 682.232 674.195 682.26C674.129 682.288 674.057 682.302 673.985 682.3Z" fill="black"/>
    <path d="M644.044 684.508L629.039 685.278C628.963 685.282 628.888 685.271 628.816 685.245C628.745 685.219 628.679 685.18 628.624 685.129C628.568 685.077 628.523 685.016 628.491 684.947C628.459 684.878 628.442 684.803 628.439 684.728C628.434 684.652 628.443 684.576 628.468 684.504C628.492 684.432 628.53 684.366 628.581 684.309C628.631 684.252 628.692 684.206 628.761 684.173C628.829 684.14 628.903 684.121 628.979 684.118L643.984 683.388C644.133 683.38 644.279 683.431 644.389 683.53C644.5 683.63 644.567 683.769 644.575 683.918C644.583 684.066 644.531 684.212 644.432 684.322C644.332 684.433 644.193 684.5 644.044 684.508Z" fill="black"/>
    <path d="M614.072 686.068L599.067 686.798C598.98 686.812 598.892 686.808 598.807 686.786C598.722 686.764 598.643 686.724 598.575 686.669C598.507 686.614 598.451 686.546 598.411 686.468C598.371 686.39 598.349 686.304 598.344 686.217C598.34 686.129 598.355 686.042 598.386 685.96C598.418 685.879 598.467 685.805 598.53 685.744C598.592 685.682 598.667 685.635 598.749 685.605C598.831 685.575 598.919 685.562 599.007 685.568L614.012 684.868C614.171 684.86 614.327 684.916 614.445 685.022C614.563 685.129 614.634 685.279 614.642 685.438C614.65 685.597 614.594 685.753 614.487 685.871C614.38 685.989 614.231 686.06 614.072 686.068Z" fill="black"/>
    <path d="M584.076 687.418L569.071 687.928C568.897 687.931 568.728 687.866 568.601 687.746C568.474 687.627 568.399 687.463 568.391 687.288C568.388 687.203 568.402 687.118 568.433 687.038C568.463 686.958 568.509 686.885 568.567 686.823C568.626 686.761 568.696 686.711 568.774 686.676C568.852 686.64 568.936 686.621 569.021 686.618L584.026 686.149C584.195 686.146 584.357 686.209 584.479 686.325C584.6 686.441 584.671 686.601 584.677 686.769C584.682 686.934 584.622 687.095 584.51 687.217C584.398 687.338 584.242 687.411 584.076 687.418Z" fill="black"/>
    <path d="M554.055 688.227L539.049 688.347C538.951 688.359 538.851 688.35 538.757 688.32C538.662 688.291 538.575 688.241 538.501 688.176C538.427 688.11 538.368 688.029 538.327 687.939C538.287 687.849 538.266 687.751 538.266 687.652C538.266 687.553 538.287 687.455 538.327 687.365C538.368 687.275 538.427 687.194 538.501 687.128C538.575 687.063 538.662 687.013 538.757 686.984C538.851 686.954 538.951 686.945 539.049 686.957L554.055 686.887C554.144 686.884 554.233 686.9 554.316 686.932C554.399 686.965 554.475 687.014 554.538 687.077C554.602 687.139 554.652 687.214 554.686 687.297C554.72 687.379 554.736 687.468 554.735 687.557C554.735 687.646 554.717 687.734 554.683 687.816C554.649 687.898 554.598 687.972 554.535 688.034C554.472 688.097 554.397 688.146 554.314 688.179C554.232 688.212 554.144 688.228 554.055 688.227Z" fill="black"/>
    <path d="M524.071 688.707L509.066 688.997C508.873 688.997 508.687 688.92 508.55 688.784C508.413 688.647 508.336 688.461 508.336 688.267C508.336 688.074 508.413 687.888 508.55 687.751C508.687 687.614 508.873 687.537 509.066 687.537L524.071 687.277C524.247 687.298 524.408 687.382 524.525 687.514C524.642 687.646 524.707 687.816 524.707 687.992C524.707 688.169 524.642 688.339 524.525 688.471C524.408 688.602 524.247 688.687 524.071 688.707Z" fill="black"/>
    <path d="M494.004 688.728C489.003 688.478 484.001 688.048 478.999 687.347C478.796 687.318 478.613 687.209 478.49 687.045C478.367 686.881 478.315 686.675 478.344 686.472C478.373 686.269 478.482 686.086 478.646 685.963C478.81 685.84 479.016 685.787 479.219 685.816C484.141 686.537 489.113 686.967 494.084 687.227C494.283 687.236 494.47 687.324 494.605 687.472C494.739 687.619 494.809 687.813 494.8 688.012C494.79 688.211 494.702 688.399 494.555 688.533C494.408 688.667 494.213 688.737 494.014 688.728H494.004Z" fill="black"/>
    <path d="M464.179 684.07C462.884 683.578 461.72 682.794 460.777 681.779C460.263 681.175 459.948 680.427 459.877 679.638C459.854 678.872 460.023 678.112 460.367 677.427C461.005 676.229 461.864 675.164 462.898 674.285C463.849 673.434 464.851 672.642 465.899 671.914C465.985 671.843 466.085 671.79 466.193 671.759C466.3 671.727 466.413 671.719 466.524 671.734C466.635 671.748 466.741 671.786 466.837 671.844C466.933 671.902 467.016 671.979 467.08 672.07C467.145 672.162 467.189 672.266 467.212 672.375C467.234 672.485 467.233 672.598 467.21 672.707C467.186 672.817 467.14 672.92 467.075 673.011C467.009 673.102 466.926 673.178 466.829 673.235C465.824 673.914 464.865 674.66 463.958 675.466C463.076 676.209 462.337 677.108 461.778 678.117C461.556 678.55 461.442 679.031 461.448 679.518C461.49 679.982 461.679 680.42 461.988 680.768C462.77 681.576 463.719 682.204 464.769 682.609C464.945 682.703 465.079 682.861 465.144 683.049C465.208 683.238 465.199 683.445 465.118 683.627C465.037 683.81 464.89 683.955 464.706 684.033C464.523 684.111 464.316 684.117 464.129 684.05L464.179 684.07Z" fill="black"/>
    <path d="M479.229 664.691C481.479 663.631 483.79 662.57 486.121 661.63C488.452 660.69 490.813 659.809 493.194 658.999C493.301 658.95 493.418 658.923 493.537 658.922C493.656 658.921 493.773 658.944 493.882 658.991C493.991 659.038 494.09 659.107 494.17 659.194C494.251 659.281 494.313 659.384 494.351 659.496C494.39 659.608 494.404 659.727 494.394 659.845C494.384 659.964 494.349 660.078 494.292 660.182C494.235 660.286 494.156 660.377 494.062 660.449C493.968 660.521 493.859 660.572 493.744 660.6C491.383 661.4 489.052 662.25 486.741 663.181C484.43 664.111 482.19 665.122 479.909 666.182C479.809 666.238 479.699 666.273 479.585 666.284C479.472 666.296 479.357 666.284 479.248 666.249C479.139 666.214 479.039 666.157 478.953 666.081C478.867 666.005 478.798 665.913 478.75 665.809C478.701 665.706 478.675 665.593 478.672 665.479C478.669 665.365 478.69 665.251 478.733 665.145C478.776 665.039 478.841 664.944 478.922 664.864C479.004 664.784 479.102 664.722 479.209 664.681L479.229 664.691Z" fill="black"/>
    <path d="M507.639 654.715L522.174 650.973C522.284 650.944 522.398 650.938 522.511 650.954C522.623 650.969 522.731 651.007 522.829 651.065C522.926 651.122 523.011 651.199 523.079 651.29C523.147 651.38 523.197 651.483 523.225 651.593C523.27 651.808 523.231 652.032 523.116 652.218C523 652.405 522.817 652.539 522.605 652.594L508.069 656.315C507.851 656.371 507.619 656.338 507.424 656.222C507.23 656.107 507.09 655.919 507.034 655.7C506.978 655.481 507.012 655.249 507.127 655.055C507.243 654.861 507.43 654.72 507.649 654.665L507.639 654.715Z" fill="black"/>
    <path d="M536.571 646.863C541.303 645.35 545.94 643.553 550.456 641.481C550.665 641.383 550.905 641.372 551.123 641.451C551.341 641.529 551.518 641.691 551.616 641.901C551.714 642.111 551.725 642.351 551.646 642.568C551.568 642.786 551.406 642.963 551.196 643.062C546.611 645.156 541.904 646.973 537.101 648.504C536.994 648.54 536.881 648.554 536.769 648.546C536.656 648.537 536.546 648.506 536.446 648.455C536.345 648.404 536.256 648.333 536.183 648.247C536.11 648.161 536.055 648.061 536.021 647.954C535.985 647.846 535.971 647.732 535.979 647.619C535.987 647.506 536.018 647.395 536.069 647.294C536.12 647.193 536.191 647.102 536.277 647.028C536.363 646.954 536.463 646.898 536.571 646.863Z" fill="black"/>
    <path d="M543.68 639.051L528.755 637.951C528.522 637.933 528.305 637.824 528.152 637.647C527.999 637.47 527.923 637.239 527.94 637.005C527.957 636.772 528.066 636.555 528.244 636.402C528.421 636.249 528.652 636.173 528.885 636.19L543.89 637.3C544.11 637.334 544.308 637.449 544.447 637.622C544.585 637.796 544.653 638.015 544.636 638.236C544.62 638.457 544.52 638.664 544.358 638.815C544.196 638.966 543.982 639.051 543.76 639.051H543.68Z" fill="black"/>
    <path d="M513.795 637.8L498.79 637.93C498.569 637.906 498.364 637.802 498.215 637.637C498.067 637.471 497.984 637.257 497.984 637.035C497.984 636.812 498.067 636.598 498.215 636.433C498.364 636.267 498.569 636.163 498.79 636.14L513.795 636.02C514.031 636.02 514.258 636.113 514.425 636.28C514.592 636.447 514.685 636.674 514.685 636.91C514.685 637.146 514.592 637.372 514.425 637.539C514.258 637.706 514.031 637.8 513.795 637.8Z" fill="black"/>
    <path d="M483.803 638.14L468.798 638.41C468.678 638.415 468.559 638.397 468.447 638.355C468.335 638.313 468.233 638.249 468.146 638.167C468.059 638.085 467.99 637.986 467.942 637.877C467.894 637.767 467.869 637.649 467.867 637.53C467.865 637.41 467.886 637.291 467.929 637.18C467.972 637.069 468.037 636.967 468.12 636.88C468.202 636.794 468.301 636.725 468.411 636.677C468.52 636.629 468.638 636.602 468.758 636.6L483.763 636.34C483.881 636.34 483.998 636.363 484.107 636.408C484.217 636.454 484.316 636.52 484.4 636.603C484.483 636.687 484.549 636.786 484.595 636.895C484.64 637.005 484.663 637.122 484.663 637.24C484.663 637.358 484.64 637.475 484.595 637.584C484.549 637.693 484.483 637.793 484.4 637.876C484.316 637.96 484.217 638.026 484.107 638.071C483.998 638.117 483.881 638.14 483.763 638.14H483.803Z" fill="black"/>
    <path d="M453.808 638.728L438.803 639.048C438.559 639.048 438.325 638.952 438.152 638.779C437.98 638.606 437.883 638.372 437.883 638.128C437.883 637.884 437.98 637.65 438.152 637.478C438.325 637.305 438.559 637.208 438.803 637.208L453.808 636.898C454.035 636.922 454.244 637.029 454.396 637.198C454.549 637.367 454.633 637.586 454.633 637.813C454.633 638.041 454.549 638.26 454.396 638.429C454.244 638.598 454.035 638.705 453.808 638.728Z" fill="black"/>
    <path d="M423.786 639.369L408.78 639.669C408.657 639.671 408.535 639.65 408.421 639.605C408.306 639.56 408.202 639.493 408.113 639.407C408.025 639.322 407.954 639.219 407.906 639.106C407.857 638.993 407.831 638.872 407.83 638.749C407.822 638.623 407.839 638.497 407.881 638.378C407.923 638.259 407.988 638.149 408.073 638.056C408.158 637.962 408.261 637.887 408.375 637.834C408.49 637.782 408.614 637.753 408.74 637.749L423.746 637.469C423.991 637.466 424.227 637.56 424.403 637.731C424.579 637.901 424.681 638.134 424.686 638.379C424.697 638.504 424.682 638.63 424.642 638.749C424.602 638.868 424.537 638.978 424.453 639.071C424.368 639.164 424.265 639.238 424.15 639.29C424.036 639.341 423.911 639.368 423.786 639.369Z" fill="black"/>
    <path d="M393.78 639.919L378.775 640.179C378.541 640.155 378.324 640.045 378.167 639.87C378.009 639.696 377.922 639.469 377.922 639.234C377.922 638.999 378.009 638.772 378.167 638.598C378.324 638.423 378.541 638.313 378.775 638.289L393.78 638.039C394.029 638.039 394.269 638.138 394.445 638.314C394.621 638.491 394.72 638.73 394.72 638.979C394.72 639.228 394.621 639.467 394.445 639.644C394.269 639.82 394.029 639.919 393.78 639.919Z" fill="black"/>
    <path d="M363.772 640.431L348.767 640.631C348.559 640.571 348.377 640.444 348.247 640.271C348.117 640.098 348.047 639.888 348.047 639.671C348.047 639.455 348.117 639.244 348.247 639.071C348.377 638.898 348.559 638.772 348.767 638.711L363.772 638.531C363.973 638.597 364.147 638.724 364.27 638.895C364.394 639.065 364.46 639.271 364.46 639.481C364.46 639.692 364.394 639.897 364.27 640.068C364.147 640.238 363.973 640.366 363.772 640.431Z" fill="black"/>
    <path d="M333.74 640.7L318.735 640.59C318.469 640.59 318.215 640.485 318.027 640.297C317.84 640.109 317.734 639.855 317.734 639.59C317.734 639.325 317.84 639.07 318.027 638.883C318.215 638.695 318.469 638.59 318.735 638.59L333.74 638.71C333.952 638.767 334.139 638.893 334.272 639.068C334.406 639.242 334.478 639.455 334.478 639.675C334.478 639.894 334.406 640.108 334.272 640.282C334.139 640.457 333.952 640.582 333.74 640.64V640.7Z" fill="black"/>
    <path d="M303.709 640.23L288.704 639.57C288.451 639.552 288.214 639.439 288.041 639.253C287.869 639.067 287.773 638.823 287.773 638.569C287.789 638.315 287.901 638.075 288.087 637.9C288.273 637.726 288.519 637.628 288.774 637.629L303.779 638.299C304.034 638.315 304.273 638.427 304.448 638.613C304.623 638.799 304.72 639.044 304.719 639.3C304.702 639.554 304.587 639.793 304.399 639.966C304.211 640.139 303.964 640.233 303.709 640.23Z" fill="black"/>
    <path d="M273.709 638.547L258.754 637.127C258.488 637.101 258.244 636.972 258.074 636.766C257.904 636.561 257.823 636.296 257.848 636.031C257.873 635.766 258.003 635.521 258.208 635.351C258.414 635.182 258.678 635.1 258.944 635.126L273.869 636.556C274 636.569 274.128 636.607 274.244 636.669C274.361 636.731 274.464 636.815 274.548 636.916C274.632 637.018 274.696 637.135 274.734 637.262C274.773 637.388 274.787 637.52 274.774 637.652C274.762 637.783 274.723 637.911 274.662 638.027C274.6 638.144 274.516 638.247 274.414 638.331C274.312 638.415 274.195 638.479 274.069 638.517C273.943 638.556 273.81 638.57 273.679 638.557L273.709 638.547Z" fill="black"/>
    <path d="M243.808 635.547C238.808 634.913 233.846 634.015 228.942 632.855C228.689 632.791 228.472 632.631 228.335 632.409C228.199 632.186 228.155 631.919 228.212 631.665C228.274 631.408 228.435 631.186 228.66 631.047C228.885 630.909 229.155 630.864 229.413 630.925C234.248 632.062 239.14 632.944 244.068 633.566C244.33 633.601 244.568 633.738 244.729 633.948C244.891 634.158 244.962 634.424 244.928 634.686C244.893 634.949 244.756 635.187 244.546 635.348C244.336 635.509 244.07 635.581 243.808 635.547Z" fill="black"/>
    <path d="M214.556 628.044C209.852 625.978 205.564 623.073 201.901 619.47C201.724 619.284 201.625 619.037 201.625 618.78C201.625 618.523 201.724 618.276 201.901 618.09C202.088 617.909 202.337 617.809 202.597 617.809C202.856 617.809 203.105 617.909 203.292 618.09C206.788 621.519 210.879 624.282 215.366 626.243C215.603 626.354 215.787 626.554 215.878 626.799C215.97 627.044 215.962 627.315 215.856 627.554C215.743 627.789 215.543 627.971 215.299 628.06C215.054 628.15 214.784 628.141 214.546 628.034L214.556 628.044Z" fill="black"/>
    <path d="M194.457 606.035C193.334 601.008 193.232 595.806 194.157 590.738C194.206 590.489 194.347 590.267 194.554 590.119C194.76 589.97 195.015 589.905 195.267 589.938C195.516 589.987 195.738 590.129 195.886 590.335C196.035 590.541 196.1 590.796 196.067 591.048C195.664 593.465 195.463 595.912 195.467 598.362C195.488 600.792 195.783 603.211 196.347 605.575C196.402 605.827 196.358 606.09 196.224 606.31C196.089 606.53 195.876 606.689 195.627 606.756C195.377 606.808 195.116 606.762 194.899 606.628C194.681 606.494 194.523 606.282 194.457 606.035Z" fill="black"/>
    <path d="M197.966 576.091C199.743 571.345 201.967 566.779 204.608 562.455C204.748 562.247 204.959 562.1 205.202 562.04C205.444 561.981 205.7 562.015 205.919 562.134C206.126 562.274 206.274 562.485 206.333 562.728C206.392 562.97 206.359 563.226 206.239 563.445C203.664 567.668 201.497 572.127 199.767 576.761C199.671 576.995 199.489 577.185 199.259 577.291C199.029 577.396 198.767 577.411 198.526 577.331C198.294 577.233 198.107 577.051 198.003 576.821C197.899 576.591 197.886 576.33 197.966 576.091Z" fill="black"/>
    <path d="M213.54 550.22C216.836 546.398 220.389 542.804 224.173 539.465C224.266 539.382 224.374 539.319 224.491 539.278C224.608 539.238 224.732 539.221 224.855 539.228C224.979 539.236 225.1 539.267 225.211 539.322C225.322 539.376 225.422 539.452 225.504 539.545C225.587 539.637 225.651 539.744 225.692 539.861C225.734 539.977 225.752 540.101 225.745 540.225C225.739 540.348 225.708 540.469 225.654 540.581C225.601 540.693 225.526 540.793 225.434 540.875C221.714 544.163 218.222 547.7 214.98 551.46C214.809 551.64 214.577 551.75 214.329 551.769C214.081 551.787 213.836 551.713 213.64 551.56C213.459 551.389 213.349 551.157 213.331 550.909C213.312 550.661 213.387 550.416 213.54 550.22Z" fill="black"/>
    <path d="M361.043 494.305L376.048 493.855C376.239 493.855 376.422 493.931 376.557 494.066C376.692 494.201 376.768 494.385 376.768 494.575C376.768 494.766 376.692 494.95 376.557 495.085C376.422 495.22 376.239 495.295 376.048 495.295L361.043 495.785C360.945 495.788 360.849 495.772 360.758 495.737C360.667 495.702 360.584 495.65 360.513 495.583C360.443 495.516 360.386 495.436 360.346 495.347C360.307 495.258 360.285 495.163 360.282 495.065C360.277 494.968 360.291 494.871 360.324 494.78C360.358 494.689 360.409 494.605 360.475 494.534C360.542 494.463 360.622 494.406 360.711 494.367C360.799 494.328 360.895 494.307 360.993 494.305H361.043Z" fill="black"/>
    <path d="M391.099 493.632H406.104C406.194 493.63 406.283 493.647 406.366 493.681C406.449 493.714 406.524 493.764 406.588 493.828C406.651 493.891 406.701 493.967 406.735 494.05C406.769 494.133 406.786 494.222 406.784 494.312C406.785 494.402 406.769 494.491 406.735 494.575C406.702 494.659 406.652 494.735 406.588 494.799C406.525 494.863 406.45 494.914 406.367 494.949C406.283 494.984 406.194 495.002 406.104 495.002H391.099C390.913 495.002 390.735 494.928 390.604 494.797C390.472 494.665 390.398 494.487 390.398 494.302C390.398 494.116 390.472 493.938 390.604 493.807C390.735 493.675 390.913 493.602 391.099 493.602V493.632Z" fill="black"/>
    <path d="M421.136 493.845L436.141 494.265C436.226 494.266 436.31 494.284 436.388 494.318C436.465 494.352 436.536 494.401 436.594 494.463C436.653 494.524 436.699 494.597 436.729 494.676C436.76 494.755 436.774 494.84 436.771 494.925C436.769 495.01 436.749 495.094 436.714 495.172C436.679 495.25 436.629 495.32 436.567 495.379C436.504 495.437 436.431 495.483 436.351 495.513C436.271 495.543 436.186 495.558 436.101 495.555L421.096 495.175C421.002 495.186 420.906 495.178 420.815 495.15C420.725 495.122 420.641 495.075 420.57 495.012C420.499 494.949 420.442 494.872 420.403 494.785C420.364 494.699 420.344 494.605 420.344 494.51C420.344 494.415 420.364 494.321 420.403 494.235C420.442 494.148 420.499 494.071 420.57 494.008C420.641 493.945 420.725 493.898 420.815 493.87C420.906 493.842 421.002 493.833 421.096 493.845H421.136Z" fill="black"/>
    <path d="M451.143 494.871L458.636 495.271C461.137 495.401 463.638 495.531 466.128 495.691C466.289 495.704 466.439 495.779 466.546 495.901C466.652 496.022 466.707 496.18 466.699 496.341C466.694 496.422 466.673 496.5 466.637 496.572C466.602 496.644 466.552 496.708 466.492 496.761C466.432 496.814 466.361 496.855 466.285 496.881C466.209 496.906 466.129 496.917 466.048 496.911C463.568 496.751 461.047 496.631 458.566 496.501L451.083 496.131C450.918 496.121 450.763 496.046 450.653 495.923C450.542 495.799 450.485 495.637 450.493 495.471C450.501 495.306 450.573 495.15 450.695 495.038C450.817 494.926 450.978 494.866 451.143 494.871Z" fill="black"/>
    <path d="M481.087 496.782L496.092 497.412C496.242 497.419 496.384 497.485 496.487 497.595C496.589 497.705 496.645 497.851 496.642 498.002C496.64 498.076 496.622 498.15 496.591 498.218C496.56 498.286 496.516 498.348 496.461 498.399C496.406 498.45 496.342 498.49 496.272 498.516C496.202 498.542 496.127 498.554 496.052 498.552L481.047 497.962C480.891 497.954 480.745 497.886 480.638 497.772C480.532 497.658 480.474 497.507 480.477 497.352C480.479 497.274 480.497 497.198 480.529 497.127C480.561 497.057 480.607 496.993 480.664 496.94C480.72 496.887 480.787 496.846 480.859 496.819C480.932 496.792 481.009 496.779 481.087 496.782Z" fill="black"/>
    <path d="M510.99 496.835C515.945 496.39 520.852 495.513 525.655 494.214C525.725 494.179 525.801 494.159 525.879 494.157C525.957 494.154 526.035 494.169 526.107 494.2C526.178 494.231 526.242 494.277 526.294 494.336C526.345 494.395 526.383 494.464 526.405 494.539C526.427 494.614 526.432 494.693 526.419 494.77C526.407 494.847 526.378 494.92 526.334 494.985C526.29 495.049 526.233 495.103 526.165 495.143C526.098 495.183 526.023 495.207 525.945 495.214C521.085 496.555 516.118 497.473 511.1 497.956C510.954 497.97 510.808 497.926 510.695 497.833C510.581 497.741 510.51 497.606 510.495 497.46C510.48 497.314 510.524 497.169 510.617 497.055C510.71 496.942 510.844 496.87 510.99 496.855V496.835Z" fill="black"/>
    <path d="M539.311 488.462C543.568 485.921 547.35 482.657 550.485 478.817C550.567 478.716 550.686 478.652 550.816 478.639C550.945 478.626 551.075 478.665 551.175 478.747C551.276 478.829 551.34 478.948 551.353 479.078C551.366 479.207 551.328 479.337 551.245 479.437C548.052 483.38 544.192 486.732 539.841 489.342C539.725 489.412 539.585 489.433 539.453 489.4C539.32 489.368 539.206 489.284 539.136 489.167C539.066 489.05 539.045 488.91 539.078 488.778C539.11 488.646 539.194 488.532 539.311 488.462Z" fill="black"/>
    <path d="M557.583 465.94C558.259 463.576 558.596 461.127 558.583 458.667C558.574 456.201 558.2 453.75 557.473 451.394C557.448 451.29 557.463 451.181 557.516 451.088C557.568 450.995 557.654 450.926 557.756 450.894C557.857 450.862 557.967 450.87 558.063 450.917C558.159 450.963 558.234 451.044 558.273 451.144C559.032 453.577 559.433 456.108 559.463 458.657C559.474 461.209 559.121 463.749 558.413 466.2C558.396 466.258 558.369 466.311 558.332 466.357C558.295 466.404 558.249 466.443 558.197 466.471C558.145 466.5 558.088 466.519 558.029 466.525C557.97 466.532 557.91 466.527 557.853 466.51C557.796 466.494 557.742 466.467 557.696 466.429C557.649 466.392 557.61 466.347 557.582 466.295C557.553 466.243 557.535 466.185 557.528 466.126C557.521 466.067 557.526 466.007 557.543 465.95L557.583 465.94Z" fill="black"/>
    <path d="M550.109 438.609C546.803 434.87 543.088 431.515 539.035 428.604C538.959 428.548 538.909 428.465 538.895 428.372C538.881 428.279 538.904 428.184 538.96 428.109C539.015 428.033 539.099 427.983 539.192 427.969C539.285 427.955 539.379 427.978 539.455 428.034C543.564 430.935 547.332 434.291 550.689 438.038C550.726 438.073 550.755 438.115 550.775 438.161C550.795 438.208 550.806 438.258 550.806 438.308C550.806 438.359 550.795 438.409 550.775 438.456C550.755 438.502 550.726 438.544 550.689 438.579C550.653 438.614 550.611 438.643 550.565 438.662C550.519 438.681 550.469 438.691 550.419 438.691C550.368 438.691 550.319 438.681 550.272 438.662C550.226 438.643 550.184 438.614 550.149 438.579L550.109 438.609Z" fill="black"/>
    <path d="M526.312 420.797C525.211 420.227 524.101 419.666 522.96 419.146L519.559 417.566L512.767 414.394C512.699 414.362 512.646 414.304 512.619 414.233C512.593 414.161 512.596 414.083 512.627 414.014C512.661 413.947 512.719 413.896 512.79 413.87C512.86 413.844 512.938 413.845 513.007 413.874L519.829 417.015L523.24 418.596C524.381 419.096 525.501 419.656 526.622 420.237C526.666 420.251 526.707 420.274 526.741 420.306C526.776 420.338 526.803 420.376 526.821 420.419C526.839 420.462 526.847 420.509 526.845 420.555C526.843 420.602 526.831 420.648 526.809 420.689C526.788 420.731 526.758 420.767 526.721 420.795C526.684 420.824 526.641 420.844 526.596 420.854C526.55 420.865 526.503 420.865 526.457 420.855C526.412 420.845 526.369 420.825 526.332 420.797H526.312Z" fill="black"/>
    <path d="M498.832 408.911C494.164 407.224 489.409 405.687 484.567 404.299C484.539 404.293 484.512 404.28 484.489 404.262C484.466 404.245 484.447 404.223 484.433 404.197C484.419 404.172 484.41 404.144 484.407 404.115C484.404 404.086 484.408 404.057 484.417 404.029C484.433 403.974 484.471 403.927 484.521 403.899C484.572 403.871 484.631 403.864 484.687 403.879C489.502 405.253 494.274 406.77 499.002 408.431C499.063 408.456 499.112 408.502 499.14 408.562C499.168 408.621 499.172 408.689 499.152 408.751C499.129 408.814 499.083 408.865 499.024 408.895C498.964 408.925 498.896 408.931 498.832 408.911Z" fill="black"/>
    <path d="M470.081 400.569L455.356 397.718C455.318 397.711 455.284 397.689 455.262 397.657C455.239 397.625 455.23 397.586 455.236 397.548C455.246 397.509 455.269 397.475 455.303 397.453C455.336 397.43 455.377 397.422 455.416 397.428L470.081 400.209C470.105 400.214 470.128 400.223 470.148 400.237C470.168 400.251 470.185 400.268 470.198 400.289C470.212 400.31 470.22 400.333 470.224 400.357C470.228 400.381 470.227 400.405 470.221 400.429C470.212 400.475 470.184 400.516 470.145 400.542C470.106 400.568 470.058 400.578 470.011 400.569H470.081Z" fill="black"/>
    <path d="M440.463 395.683L425.518 394.383C425.496 394.383 425.476 394.375 425.461 394.36C425.446 394.345 425.438 394.324 425.438 394.303C425.437 394.292 425.44 394.281 425.444 394.27C425.449 394.26 425.456 394.25 425.464 394.243C425.473 394.235 425.483 394.23 425.494 394.226C425.505 394.223 425.516 394.222 425.528 394.223L440.533 395.453C440.548 395.453 440.563 395.456 440.577 395.462C440.591 395.469 440.604 395.478 440.614 395.489C440.625 395.5 440.633 395.514 440.637 395.528C440.642 395.543 440.644 395.558 440.643 395.573C440.642 395.589 440.637 395.604 440.63 395.619C440.623 395.633 440.613 395.645 440.601 395.655C440.589 395.666 440.575 395.673 440.56 395.678C440.544 395.683 440.529 395.685 440.513 395.683H440.463Z" fill="black"/>
    <path d="M111.055 10.764L97.4999 17.1869C97.4704 17.1979 97.438 17.1979 97.4086 17.1869C97.3792 17.1759 97.3547 17.1546 97.3398 17.1269C97.3259 17.0963 97.3243 17.0615 97.3355 17.0298C97.3467 16.9981 97.3698 16.9719 97.3998 16.9568L110.995 10.6039C111.009 10.5899 111.029 10.582 111.05 10.582C111.07 10.582 111.09 10.5899 111.105 10.6039C111.115 10.6072 111.125 10.6126 111.133 10.6196C111.142 10.6267 111.149 10.6353 111.154 10.6451C111.159 10.6548 111.162 10.6655 111.163 10.6765C111.164 10.6874 111.163 10.6985 111.16 10.709C111.156 10.7195 111.151 10.7293 111.144 10.7377C111.137 10.7462 111.128 10.7532 111.119 10.7583C111.109 10.7634 111.098 10.7665 111.087 10.7675C111.076 10.7685 111.065 10.7673 111.055 10.764Z" fill="black"/>
    <path d="M84.3127 24.3037L71.4983 32.0973C71.4515 32.1236 71.3964 32.131 71.3443 32.118C71.2922 32.105 71.2471 32.0725 71.2182 32.0272C71.1903 31.9801 71.181 31.9242 71.1921 31.8706C71.2032 31.8169 71.2339 31.7693 71.2782 31.7371L84.1427 24.0136C84.1576 23.9982 84.1755 23.9859 84.1952 23.9775C84.215 23.9692 84.2363 23.9648 84.2577 23.9648C84.2792 23.9648 84.3004 23.9692 84.3202 23.9775C84.34 23.9859 84.3578 23.9982 84.3728 24.0136C84.3948 24.0522 84.4009 24.0979 84.3897 24.1409C84.3784 24.1839 84.3508 24.2208 84.3127 24.2437V24.3037Z" fill="black"/>
    <path d="M59.0684 40.4792L53.0663 44.9012C52.0659 45.6416 51.0656 46.3619 50.0652 47.1322L47.1442 49.4633C47.0898 49.5177 47.016 49.5482 46.9391 49.5482C46.8622 49.5482 46.7884 49.5177 46.734 49.4633C46.7104 49.434 46.6929 49.4002 46.6826 49.364C46.6723 49.3278 46.6694 49.2899 46.674 49.2526C46.6787 49.2152 46.6909 49.1792 46.7098 49.1466C46.7287 49.1141 46.7539 49.0857 46.7841 49.0631L49.7351 46.722C50.7354 45.9517 51.7358 45.2514 52.7361 44.511L58.8183 40.1091C58.8451 40.0899 58.8755 40.0762 58.9077 40.0688C58.9399 40.0614 58.9733 40.0605 59.0058 40.0661C59.0384 40.0717 59.0695 40.0837 59.0974 40.1013C59.1253 40.119 59.1494 40.142 59.1684 40.1691C59.1873 40.1952 59.2008 40.2248 59.2081 40.2562C59.2153 40.2876 59.2162 40.3202 59.2106 40.3519C59.205 40.3836 59.193 40.4139 59.1755 40.441C59.1579 40.468 59.1351 40.4912 59.1084 40.5092L59.0684 40.4792Z" fill="black"/>
    <path d="M36.3914 59.865C34.7473 61.7419 33.2585 63.7494 31.9399 65.8677C30.5944 67.9303 29.6603 70.2335 29.1889 72.6507C29.1829 72.6992 29.167 72.746 29.1424 72.7881C29.1177 72.8303 29.0847 72.867 29.0454 72.896C29.0061 72.925 28.9613 72.9457 28.9137 72.9569C28.8662 72.968 28.8168 72.9694 28.7687 72.9609C28.7203 72.9548 28.6735 72.939 28.6314 72.9143C28.5892 72.8897 28.5525 72.8567 28.5235 72.8174C28.4945 72.778 28.4738 72.7332 28.4626 72.6857C28.4515 72.6381 28.4501 72.5888 28.4586 72.5407C28.9559 70.0399 29.9381 67.6608 31.3497 65.5375C32.7007 63.4184 34.2194 61.4111 35.8912 59.5348C35.9528 59.4749 36.0354 59.4414 36.1213 59.4414C36.2072 59.4414 36.2898 59.4749 36.3514 59.5348C36.3858 59.5818 36.4075 59.6368 36.4145 59.6947C36.4215 59.7525 36.4135 59.8111 36.3914 59.865Z" fill="black"/>
    <path d="M37.6078 82.7083C42.2401 84.5131 47.0846 85.7167 52.0229 86.2899C52.1434 86.3049 52.2531 86.367 52.3281 86.4626C52.403 86.5581 52.4371 86.6795 52.423 86.8001C52.4056 86.9188 52.3425 87.0261 52.2472 87.0989C52.1519 87.1718 52.0319 87.2046 51.9128 87.1903C46.9035 86.5777 41.9924 85.3305 37.2977 83.4786C37.1964 83.4364 37.1157 83.3563 37.0727 83.2554C37.0297 83.1544 37.0279 83.0406 37.0676 82.9384C37.1098 82.8371 37.1899 82.7563 37.2909 82.7133C37.3918 82.6703 37.5056 82.6685 37.6078 82.7083Z" fill="black"/>
    <path d="M66.9393 86.9094C71.9411 86.7694 76.8928 86.3394 81.8445 85.7294C81.9822 85.7152 82.1199 85.7554 82.2283 85.8413C82.3367 85.9273 82.4072 86.0522 82.4247 86.1893C82.4389 86.3243 82.3998 86.4594 82.3157 86.5659C82.2316 86.6724 82.1092 86.7418 81.9746 86.7593C76.9728 87.3593 71.9711 87.7594 66.9693 87.8994C66.9046 87.902 66.84 87.8916 66.7794 87.8687C66.7189 87.8458 66.6635 87.8109 66.6168 87.766C66.5701 87.7212 66.5329 87.6674 66.5075 87.6078C66.4822 87.5482 66.4691 87.4841 66.4692 87.4194C66.4665 87.355 66.4765 87.2907 66.4987 87.2303C66.5209 87.1698 66.5548 87.1143 66.5985 87.0669C66.6421 87.0195 66.6947 86.9812 66.7532 86.9542C66.8117 86.9272 66.875 86.9119 66.9393 86.9094Z" fill="black"/>
    <path d="M96.6463 83.4746L111.421 80.6833C111.568 80.6594 111.719 80.6928 111.841 80.7766C111.964 80.8604 112.05 80.9881 112.082 81.1335C112.108 81.2818 112.076 81.4347 111.992 81.5598C111.908 81.6849 111.779 81.7724 111.632 81.8038L96.8663 84.5551C96.7231 84.5814 96.5753 84.5498 96.4553 84.4673C96.3352 84.3848 96.2528 84.258 96.2261 84.1149C96.2027 83.9731 96.2356 83.8279 96.3179 83.7101C96.4001 83.5923 96.5252 83.5114 96.6663 83.4846L96.6463 83.4746Z" fill="black"/>
    <path d="M126.141 77.8967L140.966 75.5156C141.046 75.5028 141.127 75.5058 141.206 75.5246C141.284 75.5433 141.358 75.5774 141.423 75.6248C141.488 75.6723 141.543 75.7321 141.585 75.8009C141.627 75.8698 141.655 75.9462 141.667 76.0258C141.681 76.1048 141.679 76.1858 141.662 76.2641C141.644 76.3423 141.611 76.4163 141.564 76.4816C141.518 76.5469 141.459 76.6022 141.39 76.6442C141.322 76.6862 141.246 76.714 141.167 76.7261L126.351 79.0572C126.196 79.0804 126.039 79.0421 125.911 78.9505C125.784 78.859 125.698 78.7213 125.671 78.567C125.648 78.4161 125.683 78.262 125.771 78.137C125.859 78.012 125.991 77.9259 126.141 77.8967Z" fill="black"/>
    <path d="M155.799 73.2213L170.665 71.1204C170.751 71.1077 170.838 71.1121 170.923 71.1334C171.007 71.1547 171.087 71.1924 171.156 71.2445C171.226 71.2966 171.285 71.3619 171.329 71.4367C171.373 71.5116 171.403 71.5945 171.415 71.6806C171.438 71.8541 171.392 72.0297 171.288 72.1699C171.183 72.3101 171.028 72.4038 170.855 72.431L156.01 74.4819C155.843 74.5048 155.673 74.4609 155.538 74.3598C155.404 74.2586 155.314 74.1084 155.289 73.9417C155.263 73.7787 155.302 73.612 155.397 73.4773C155.493 73.3426 155.637 73.2507 155.799 73.2213Z" fill="black"/>
    <path d="M185.575 69.3434L200.581 68.0028C200.673 67.9946 200.765 68.0046 200.854 68.0324C200.942 68.0602 201.023 68.1051 201.094 68.1646C201.165 68.2242 201.223 68.2971 201.265 68.3792C201.308 68.4613 201.333 68.551 201.341 68.6431C201.358 68.83 201.3 69.016 201.18 69.1603C201.06 69.3047 200.888 69.3957 200.701 69.4134L185.776 70.704C185.596 70.718 185.417 70.6608 185.279 70.5449C185.14 70.4289 185.053 70.2634 185.035 70.0837C185.017 69.9152 185.062 69.7459 185.162 69.6089C185.262 69.472 185.409 69.3773 185.575 69.3434Z" fill="black"/>
    <path d="M215.573 67.2397L223.086 67.1797H226.847C228.097 67.1797 229.348 67.1797 230.638 67.1797C230.836 67.1926 231.022 67.2824 231.154 67.4301C231.287 67.5777 231.357 67.7714 231.349 67.9697C231.343 68.0691 231.319 68.1665 231.276 68.2563C231.232 68.346 231.172 68.4263 231.097 68.4924C231.023 68.5585 230.936 68.6091 230.842 68.6412C230.747 68.6734 230.648 68.6865 230.548 68.6797C229.338 68.6097 228.077 68.6197 226.837 68.6797H223.096H215.613C215.518 68.681 215.423 68.6634 215.334 68.6278C215.246 68.5922 215.165 68.5394 215.097 68.4724C215.029 68.4054 214.975 68.3256 214.939 68.2375C214.902 68.1495 214.883 68.0551 214.883 67.9597C214.885 67.7745 214.958 67.5972 215.086 67.4635C215.214 67.3298 215.388 67.2498 215.573 67.2397Z" fill="black"/>
    <path d="M245.39 71.0713C246.581 71.7356 247.628 72.63 248.471 73.7025C249.352 74.842 249.78 76.2678 249.671 77.7043C249.505 79.0817 249.011 80.3991 248.231 81.5461C247.501 82.6289 246.663 83.6345 245.73 84.5474C245.656 84.6212 245.569 84.6798 245.473 84.7198C245.377 84.7597 245.274 84.7803 245.17 84.7803C245.065 84.7803 244.962 84.7597 244.866 84.7198C244.77 84.6798 244.683 84.6212 244.609 84.5474C244.534 84.4738 244.474 84.3859 244.433 84.2888C244.392 84.1918 244.371 84.0875 244.371 83.9822C244.371 83.8769 244.392 83.7726 244.433 83.6755C244.474 83.5785 244.534 83.4905 244.609 83.4169C245.449 82.5962 246.207 81.6948 246.87 80.7257C247.51 79.798 247.922 78.7317 248.071 77.6143C248.173 76.5379 247.858 75.4633 247.19 74.6129C246.478 73.7092 245.599 72.9516 244.599 72.3819C244.511 72.3294 244.434 72.2601 244.373 72.1778C244.312 72.0956 244.268 72.0021 244.242 71.9027C244.217 71.8033 244.212 71.6999 244.227 71.5984C244.242 71.497 244.277 71.3995 244.329 71.3115C244.44 71.1414 244.613 71.0211 244.811 70.9763C245.009 70.9315 245.216 70.9656 245.39 71.0713Z" fill="black"/>
    <path d="M233.727 93.8945C229.421 96.5259 224.927 98.8365 220.282 100.808C220.075 100.894 219.842 100.896 219.634 100.811C219.426 100.727 219.26 100.564 219.172 100.357C219.127 100.256 219.104 100.147 219.102 100.037C219.1 99.9268 219.12 99.8172 219.161 99.7147C219.202 99.6123 219.263 99.519 219.34 99.4404C219.418 99.3618 219.51 99.2994 219.612 99.2569C224.192 97.3347 228.622 95.0741 232.867 92.4938C233.053 92.3845 233.275 92.3516 233.486 92.4019C233.697 92.4522 233.88 92.5819 233.997 92.7639C234.054 92.8559 234.092 92.958 234.109 93.0647C234.126 93.1713 234.122 93.2803 234.097 93.3853C234.072 93.4903 234.026 93.5894 233.963 93.6767C233.899 93.7641 233.819 93.8381 233.727 93.8945Z" fill="black"/>
    <path d="M206.139 106.028L191.673 110.2C191.456 110.262 191.223 110.236 191.024 110.128C190.826 110.019 190.678 109.837 190.613 109.62C190.581 109.511 190.571 109.397 190.583 109.284C190.596 109.171 190.63 109.061 190.685 108.962C190.74 108.862 190.814 108.774 190.903 108.704C190.992 108.633 191.094 108.581 191.203 108.549L205.618 104.408H205.668C205.878 104.36 206.097 104.394 206.282 104.501C206.468 104.609 206.606 104.783 206.669 104.988C206.73 105.196 206.709 105.42 206.61 105.614C206.512 105.807 206.343 105.955 206.139 106.028Z" fill="black"/>
    <path d="M177.083 113.813L162.518 117.354C162.405 117.386 162.287 117.394 162.171 117.379C162.055 117.363 161.943 117.324 161.842 117.264C161.741 117.205 161.653 117.125 161.584 117.03C161.514 116.936 161.465 116.828 161.438 116.714C161.411 116.602 161.407 116.486 161.425 116.373C161.443 116.26 161.484 116.151 161.544 116.053C161.605 115.956 161.684 115.871 161.777 115.804C161.871 115.737 161.976 115.689 162.088 115.664L176.683 112.122C176.907 112.068 177.144 112.105 177.341 112.225C177.538 112.345 177.679 112.538 177.734 112.762C177.773 112.979 177.73 113.203 177.611 113.389C177.492 113.574 177.307 113.708 177.093 113.763L177.083 113.813Z" fill="black"/>
    <path d="M148.022 121.184L133.527 125.055C133.299 125.114 133.057 125.081 132.853 124.963C132.649 124.845 132.5 124.652 132.437 124.425C132.406 124.312 132.399 124.194 132.414 124.078C132.429 123.962 132.467 123.851 132.526 123.749C132.584 123.648 132.662 123.559 132.755 123.488C132.848 123.417 132.954 123.365 133.067 123.335L147.582 119.473C147.807 119.415 148.047 119.449 148.247 119.567C148.448 119.685 148.593 119.878 148.652 120.103C148.684 120.216 148.692 120.333 148.678 120.449C148.663 120.565 148.625 120.676 148.566 120.777C148.507 120.878 148.429 120.966 148.335 121.036C148.242 121.105 148.135 121.156 148.022 121.184Z" fill="black"/>
    <path d="M119.1 129.091L104.755 133.433C104.641 133.468 104.522 133.481 104.403 133.47C104.285 133.459 104.169 133.424 104.064 133.368C103.959 133.313 103.866 133.236 103.791 133.144C103.715 133.052 103.659 132.946 103.624 132.832C103.555 132.603 103.58 132.355 103.692 132.144C103.805 131.932 103.996 131.773 104.225 131.702L118.62 127.36C118.848 127.294 119.093 127.32 119.302 127.432C119.511 127.544 119.668 127.734 119.74 127.96C119.809 128.188 119.784 128.434 119.671 128.644C119.559 128.854 119.368 129.011 119.14 129.081L119.1 129.091Z" fill="black"/>
    <path d="M90.5743 138.221L76.5694 143.603C76.341 143.688 76.0884 143.681 75.8658 143.581C75.6432 143.482 75.4684 143.3 75.3789 143.073C75.2938 142.845 75.3016 142.592 75.4008 142.369C75.4999 142.147 75.6825 141.972 75.9091 141.883L89.914 136.48C90.141 136.395 90.3922 136.403 90.6131 136.503C90.8341 136.602 91.007 136.784 91.0944 137.01C91.1378 137.123 91.1584 137.242 91.1552 137.363C91.152 137.483 91.1249 137.601 91.0756 137.711C91.0263 137.821 90.9557 137.92 90.8679 138.002C90.7802 138.085 90.6769 138.149 90.5642 138.191L90.5743 138.221Z" fill="black"/>
    <path d="M62.9556 149.697C58.474 151.858 54.0425 154.159 49.701 156.6C49.594 156.66 49.4762 156.699 49.3543 156.713C49.2324 156.728 49.1089 156.718 48.9908 156.684C48.8727 156.651 48.7624 156.594 48.6662 156.518C48.5701 156.442 48.49 156.347 48.4305 156.24C48.3685 156.134 48.3284 156.016 48.3125 155.895C48.2965 155.773 48.3051 155.649 48.3378 155.531C48.3704 155.412 48.4264 155.302 48.5024 155.205C48.5785 155.109 48.6731 155.028 48.7806 154.969C53.1622 152.508 57.6337 150.197 62.1553 148.026C62.3769 147.919 62.6319 147.904 62.8643 147.985C63.0968 148.066 63.2879 148.235 63.3957 148.456C63.4497 148.566 63.4811 148.686 63.4882 148.809C63.4952 148.931 63.4777 149.054 63.4367 149.169C63.3957 149.285 63.332 149.391 63.2494 149.482C63.1668 149.572 63.0669 149.645 62.9556 149.697Z" fill="black"/>
    <path d="M36.9153 164.343C32.7239 167.034 28.6124 169.845 24.6711 172.867C24.4656 173.01 24.214 173.071 23.9658 173.038C23.7176 173.004 23.4909 172.879 23.3306 172.687C23.2539 172.588 23.1977 172.475 23.1651 172.354C23.1326 172.233 23.1245 172.107 23.1413 171.983C23.1581 171.86 23.1994 171.74 23.2628 171.633C23.3262 171.525 23.4105 171.431 23.5107 171.356C27.512 168.295 31.6735 165.463 35.895 162.752C36.1105 162.629 36.3639 162.591 36.6061 162.645C36.8482 162.698 37.0618 162.84 37.2054 163.042C37.272 163.147 37.3173 163.263 37.3388 163.385C37.3603 163.507 37.3574 163.632 37.3305 163.753C37.3035 163.874 37.253 163.988 37.1817 164.089C37.1105 164.19 37.02 164.277 36.9153 164.343Z" fill="black"/>
    <path d="M13.5189 182.683C10.0506 186.167 7.11772 190.145 4.8158 194.489C4.69441 194.712 4.49236 194.881 4.25075 194.961C4.00915 195.041 3.74617 195.026 3.51536 194.919C3.2917 194.797 3.12271 194.595 3.0428 194.354C2.96288 194.112 2.97804 193.849 3.0852 193.618C5.46475 189.108 8.49867 184.975 12.0883 181.353C12.2733 181.181 12.5163 181.086 12.7686 181.086C13.0209 181.086 13.2638 181.181 13.4488 181.353C13.6219 181.527 13.7246 181.759 13.7376 182.005C13.7505 182.25 13.6726 182.492 13.5189 182.683Z" fill="black"/>
    <path d="M1.97469 208.446C2.25095 210.834 2.90254 213.164 3.90537 215.349C4.39448 216.46 4.97676 217.527 5.64597 218.54L7.64667 221.642V221.722C7.78121 221.941 7.82614 222.204 7.77212 222.455C7.7181 222.707 7.56928 222.928 7.35657 223.072C7.13648 223.21 6.87151 223.256 6.61765 223.202C6.36379 223.148 6.14092 222.998 5.9961 222.782L3.93538 219.551C3.2282 218.474 2.61251 217.339 2.09474 216.159C1.01036 213.786 0.304868 211.257 0.00399811 208.666C-0.018965 208.41 0.0576049 208.154 0.217803 207.953C0.378 207.752 0.609519 207.62 0.864299 207.585C1.12529 207.554 1.3881 207.627 1.59589 207.788C1.80368 207.949 1.93975 208.185 1.97469 208.446Z" fill="black"/>
    <path d="M18.005 231.864C22.0631 234.627 26.5287 236.737 31.2396 238.117C31.4924 238.194 31.7048 238.367 31.8304 238.599C31.9559 238.832 31.9845 239.104 31.9098 239.358C31.8334 239.611 31.6601 239.823 31.4278 239.949C31.1954 240.074 30.9228 240.103 30.6694 240.028C25.7617 238.583 21.1105 236.379 16.8846 233.495C16.6701 233.344 16.5237 233.114 16.477 232.856C16.4302 232.598 16.4868 232.331 16.6345 232.114C16.7856 231.903 17.0132 231.758 17.269 231.712C17.5249 231.665 17.7888 231.72 18.005 231.864Z" fill="black"/>
    <path d="M45.7662 240.718C50.713 241.053 55.6774 241.033 60.6214 240.658C60.8835 240.642 61.1417 240.729 61.3401 240.901C61.5385 241.073 61.6612 241.317 61.6817 241.579C61.6825 241.831 61.5882 242.074 61.4176 242.259C61.2469 242.445 61.0126 242.559 60.7614 242.579C55.7246 242.966 50.6667 242.993 45.6261 242.659C45.3624 242.639 45.1174 242.515 44.945 242.314C44.7725 242.113 44.6865 241.853 44.7058 241.589C44.7263 241.327 44.849 241.083 45.0474 240.911C45.2458 240.739 45.504 240.652 45.7662 240.668V240.718Z" fill="black"/>
    <path d="M75.4096 238.865L90.0647 235.924H90.1148C90.3659 235.882 90.6237 235.937 90.8356 236.078C91.0475 236.219 91.1976 236.436 91.2552 236.684C91.3002 236.937 91.2464 237.197 91.1049 237.412C90.9634 237.626 90.745 237.777 90.4949 237.835L75.7297 240.836C75.4771 240.881 75.2168 240.827 75.0026 240.686C74.7885 240.544 74.637 240.326 74.5793 240.076C74.5489 239.941 74.5466 239.802 74.5726 239.667C74.5985 239.531 74.6522 239.403 74.7301 239.289C74.8081 239.176 74.9087 239.079 75.0256 239.006C75.1425 238.933 75.2733 238.885 75.4096 238.865H75.4797H75.4096Z" fill="black"/>
    <path d="M104.614 232.302L119.119 228.45C119.24 228.415 119.367 228.406 119.493 228.421C119.618 228.437 119.739 228.478 119.848 228.541C119.958 228.605 120.053 228.69 120.129 228.791C120.204 228.892 120.259 229.008 120.289 229.13C120.322 229.25 120.331 229.376 120.315 229.5C120.299 229.624 120.259 229.743 120.197 229.851C120.134 229.959 120.051 230.053 119.952 230.129C119.853 230.204 119.739 230.259 119.619 230.291L105.104 234.163C104.857 234.219 104.599 234.181 104.38 234.054C104.161 233.928 103.998 233.724 103.923 233.482C103.867 233.235 103.907 232.975 104.035 232.756C104.163 232.536 104.37 232.374 104.614 232.302Z" fill="black"/>
    <path d="M133.56 224.457L147.995 220.365C148.236 220.31 148.489 220.346 148.705 220.466C148.921 220.586 149.085 220.782 149.165 221.016C149.199 221.134 149.209 221.259 149.194 221.382C149.18 221.504 149.141 221.623 149.081 221.731C149.02 221.838 148.939 221.933 148.842 222.01C148.745 222.086 148.634 222.143 148.515 222.176L134.08 226.288C133.836 226.346 133.58 226.31 133.361 226.188C133.143 226.065 132.978 225.866 132.9 225.628C132.845 225.385 132.882 225.131 133.004 224.915C133.126 224.699 133.324 224.535 133.56 224.457Z" fill="black"/>
    <path d="M162.439 216.25L176.884 212.178C177.12 212.113 177.373 212.144 177.586 212.264C177.8 212.384 177.957 212.583 178.025 212.818C178.09 213.054 178.059 213.306 177.939 213.52C177.819 213.733 177.62 213.891 177.385 213.959L162.96 218.05C162.721 218.118 162.465 218.089 162.247 217.969C162.03 217.849 161.869 217.648 161.799 217.41C161.734 217.173 161.765 216.919 161.884 216.704C162.004 216.489 162.203 216.329 162.439 216.26V216.25Z" fill="black"/>
    <path d="M191.357 208.216L205.893 204.434C206.008 204.403 206.129 204.394 206.248 204.41C206.367 204.426 206.481 204.465 206.584 204.526C206.688 204.586 206.778 204.667 206.85 204.763C206.922 204.859 206.974 204.968 207.003 205.084C207.035 205.2 207.043 205.321 207.027 205.44C207.011 205.558 206.972 205.673 206.911 205.776C206.851 205.88 206.77 205.97 206.674 206.042C206.578 206.114 206.469 206.166 206.353 206.195L191.848 209.987C191.731 210.018 191.61 210.027 191.491 210.011C191.371 209.995 191.256 209.956 191.152 209.896C191.047 209.835 190.956 209.754 190.883 209.658C190.811 209.562 190.757 209.453 190.727 209.336C190.696 209.22 190.687 209.099 190.703 208.979C190.719 208.86 190.758 208.744 190.818 208.64C190.879 208.536 190.959 208.445 191.055 208.372C191.151 208.299 191.261 208.246 191.378 208.216H191.357Z" fill="black"/>
    <path d="M220.459 200.909L235.145 197.718C235.377 197.67 235.618 197.716 235.816 197.845C236.015 197.974 236.155 198.176 236.205 198.408C236.231 198.522 236.235 198.641 236.215 198.756C236.195 198.872 236.152 198.983 236.088 199.081C236.025 199.18 235.942 199.265 235.846 199.332C235.749 199.398 235.64 199.445 235.525 199.468L220.88 202.66C220.763 202.686 220.643 202.689 220.525 202.669C220.408 202.648 220.296 202.605 220.195 202.541C220.095 202.476 220.008 202.393 219.94 202.295C219.872 202.197 219.824 202.086 219.799 201.969C219.753 201.742 219.796 201.505 219.919 201.308C220.042 201.111 220.235 200.968 220.459 200.909Z" fill="black"/>
    <path d="M249.963 194.947L264.818 192.656C265.048 192.626 265.281 192.687 265.467 192.825C265.653 192.963 265.779 193.167 265.819 193.396C265.851 193.626 265.791 193.86 265.653 194.047C265.514 194.234 265.308 194.359 265.079 194.396L250.283 196.697C250.169 196.716 250.052 196.711 249.939 196.684C249.827 196.656 249.721 196.607 249.627 196.538C249.534 196.469 249.456 196.382 249.397 196.282C249.338 196.182 249.299 196.072 249.283 195.957C249.249 195.726 249.307 195.491 249.446 195.304C249.585 195.116 249.793 194.991 250.023 194.957L249.963 194.947Z" fill="black"/>
    <path d="M279.751 190.928L294.686 189.477C294.914 189.454 295.141 189.523 295.319 189.667C295.497 189.811 295.611 190.02 295.636 190.247C295.656 190.476 295.585 190.704 295.44 190.881C295.294 191.059 295.084 191.172 294.856 191.198L279.931 192.658C279.814 192.675 279.696 192.668 279.582 192.637C279.469 192.607 279.363 192.554 279.27 192.481C279.178 192.409 279.101 192.318 279.045 192.215C278.988 192.112 278.953 191.999 278.942 191.882C278.93 191.765 278.942 191.647 278.978 191.535C279.013 191.423 279.071 191.319 279.147 191.23C279.224 191.141 279.318 191.068 279.423 191.016C279.529 190.964 279.643 190.934 279.761 190.928H279.751Z" fill="black"/>
    <path d="M309.661 188.267L324.666 187.447C324.783 187.429 324.902 187.437 325.017 187.468C325.131 187.499 325.237 187.554 325.329 187.629C325.421 187.704 325.496 187.797 325.549 187.903C325.603 188.009 325.634 188.124 325.64 188.243C325.646 188.361 325.628 188.479 325.586 188.59C325.544 188.701 325.479 188.801 325.396 188.886C325.313 188.97 325.213 189.036 325.102 189.079C324.992 189.123 324.874 189.142 324.756 189.138L309.801 189.968C309.682 189.986 309.562 189.979 309.446 189.947C309.331 189.916 309.224 189.861 309.131 189.785C309.038 189.71 308.962 189.616 308.907 189.51C308.853 189.403 308.821 189.287 308.814 189.167C308.807 189.048 308.825 188.928 308.867 188.816C308.909 188.704 308.973 188.602 309.057 188.517C309.14 188.431 309.24 188.364 309.351 188.319C309.462 188.274 309.581 188.253 309.701 188.257L309.661 188.267Z" fill="black"/>
    <path d="M339.709 187.156L354.714 187.566C354.929 187.566 355.135 187.652 355.287 187.804C355.439 187.955 355.524 188.161 355.524 188.376C355.524 188.591 355.439 188.797 355.287 188.949C355.135 189.101 354.929 189.186 354.714 189.186L339.709 188.826C339.6 188.824 339.492 188.8 339.393 188.756C339.293 188.711 339.203 188.648 339.128 188.569C339.052 188.49 338.993 188.397 338.954 188.296C338.915 188.194 338.896 188.085 338.899 187.976C338.904 187.755 338.996 187.545 339.155 187.392C339.315 187.238 339.528 187.154 339.749 187.156H339.709Z" fill="black"/>
    <path d="M369.747 188.844C374.749 189.424 379.75 190.184 384.632 191.155C384.829 191.198 385.002 191.316 385.114 191.484C385.225 191.652 385.268 191.857 385.232 192.055C385.214 192.154 385.177 192.248 385.122 192.332C385.068 192.416 384.997 192.489 384.914 192.546C384.831 192.603 384.738 192.642 384.64 192.663C384.542 192.683 384.44 192.684 384.342 192.665C379.45 191.665 374.518 190.975 369.567 190.404C369.377 190.361 369.21 190.249 369.098 190.09C368.986 189.931 368.936 189.737 368.958 189.544C368.981 189.35 369.073 189.172 369.219 189.043C369.364 188.914 369.552 188.843 369.747 188.844Z" fill="black"/>
    <path d="M399.275 194.731L402.887 195.852C404.097 196.262 405.277 196.722 406.448 197.222C408.783 198.22 411.037 199.397 413.19 200.744C413.352 200.846 413.467 201.008 413.509 201.195C413.551 201.382 413.517 201.577 413.415 201.739C413.313 201.901 413.151 202.016 412.964 202.058C412.778 202.1 412.582 202.066 412.42 201.964C410.327 200.663 408.136 199.526 405.868 198.563C404.737 198.083 403.587 197.632 402.426 197.252L398.855 196.152C398.667 196.095 398.509 195.965 398.416 195.792C398.323 195.618 398.303 195.415 398.36 195.226C398.417 195.038 398.547 194.88 398.72 194.787C398.894 194.694 399.097 194.674 399.285 194.731H399.275Z" fill="black"/>
    <path d="M422.862 212.425C423.087 213.757 423.025 215.121 422.682 216.427C422.345 217.707 421.801 218.923 421.072 220.028C419.623 222.216 417.671 224.024 415.38 225.301C415.226 225.391 415.043 225.416 414.87 225.371C414.697 225.326 414.55 225.215 414.46 225.061C414.369 224.907 414.344 224.723 414.389 224.551C414.434 224.378 414.546 224.231 414.7 224.14C416.802 222.966 418.592 221.306 419.921 219.298C421.281 217.368 421.856 214.994 421.532 212.655C421.503 212.472 421.546 212.285 421.652 212.134C421.759 211.983 421.92 211.879 422.102 211.845C422.284 211.816 422.469 211.859 422.619 211.966C422.769 212.073 422.871 212.234 422.902 212.415L422.862 212.425Z" fill="black"/>
    <path d="M401.123 230.35L386.678 234.472C386.518 234.515 386.349 234.494 386.205 234.414C386.061 234.333 385.954 234.2 385.907 234.041C385.884 233.963 385.878 233.88 385.887 233.798C385.896 233.717 385.922 233.638 385.962 233.566C386.002 233.495 386.055 233.432 386.12 233.381C386.184 233.33 386.258 233.293 386.337 233.271L400.742 229.119C400.908 229.071 401.086 229.091 401.237 229.175C401.388 229.258 401.5 229.399 401.548 229.564C401.596 229.73 401.575 229.908 401.492 230.059C401.408 230.21 401.268 230.322 401.103 230.37L401.123 230.35Z" fill="black"/>
    <path d="M372.183 238.375L357.657 242.167C357.585 242.186 357.508 242.191 357.434 242.181C357.359 242.171 357.287 242.146 357.222 242.108C357.156 242.07 357.1 242.019 357.054 241.959C357.009 241.899 356.976 241.83 356.957 241.757C356.917 241.608 356.938 241.45 357.015 241.317C357.092 241.183 357.219 241.086 357.367 241.046L371.872 237.205C372.027 237.167 372.191 237.191 372.329 237.271C372.466 237.352 372.568 237.482 372.613 237.635C372.652 237.789 372.629 237.952 372.548 238.089C372.468 238.226 372.336 238.325 372.183 238.365V238.375Z" fill="black"/>
    <path d="M343.155 245.989C340.744 246.659 338.313 247.249 335.933 247.99L328.77 250.151C328.645 250.169 328.518 250.142 328.411 250.074C328.304 250.007 328.225 249.904 328.188 249.783C328.15 249.662 328.157 249.532 328.207 249.416C328.257 249.3 328.347 249.206 328.46 249.15L335.662 246.939C338.063 246.199 340.484 245.609 342.895 244.938C342.968 244.908 343.047 244.893 343.127 244.895C343.206 244.897 343.284 244.916 343.356 244.95C343.427 244.985 343.491 245.034 343.542 245.095C343.593 245.156 343.63 245.227 343.652 245.304C343.673 245.38 343.678 245.46 343.666 245.539C343.654 245.617 343.626 245.693 343.583 245.759C343.539 245.826 343.482 245.883 343.416 245.926C343.349 245.969 343.274 245.997 343.195 246.009L343.155 245.989Z" fill="black"/>
    <path d="M314.909 255.712C310.417 257.856 306.073 260.296 301.904 263.016C301.853 263.049 301.795 263.072 301.734 263.083C301.673 263.094 301.611 263.094 301.55 263.081C301.49 263.068 301.433 263.043 301.382 263.008C301.331 262.972 301.288 262.928 301.254 262.876C301.188 262.771 301.165 262.646 301.189 262.525C301.213 262.403 301.283 262.296 301.384 262.225C305.579 259.454 309.958 256.971 314.489 254.792C314.611 254.734 314.751 254.726 314.879 254.771C315.006 254.816 315.111 254.91 315.169 255.032C315.199 255.092 315.217 255.158 315.221 255.225C315.226 255.293 315.216 255.36 315.194 255.423C315.172 255.487 315.137 255.545 315.091 255.595C315.045 255.645 314.99 255.685 314.929 255.712H314.909Z" fill="black"/>
    <path d="M289.92 271.951L284.358 276.953C282.495 278.592 280.781 280.393 279.236 282.335C279.171 282.416 279.078 282.468 278.975 282.481C278.872 282.494 278.769 282.467 278.686 282.405C278.646 282.373 278.612 282.334 278.587 282.289C278.563 282.243 278.547 282.194 278.541 282.143C278.536 282.092 278.54 282.04 278.555 281.991C278.569 281.941 278.593 281.895 278.626 281.855C280.178 279.87 281.905 278.028 283.788 276.353L289.36 271.29C289.4 271.246 289.449 271.21 289.503 271.186C289.558 271.162 289.617 271.149 289.677 271.148C289.737 271.148 289.796 271.16 289.851 271.184C289.906 271.208 289.955 271.243 289.995 271.287C290.036 271.331 290.067 271.383 290.086 271.44C290.105 271.497 290.113 271.557 290.107 271.616C290.102 271.676 290.085 271.734 290.056 271.786C290.027 271.839 289.987 271.884 289.94 271.921L289.92 271.951Z" fill="black"/>
    <path d="M272.717 295.504C272.253 297.921 272.369 300.414 273.057 302.777C273.792 305.128 275.094 307.262 276.848 308.99C276.905 309.047 276.937 309.124 276.937 309.205C276.937 309.286 276.905 309.363 276.848 309.42C276.791 309.477 276.714 309.509 276.633 309.509C276.552 309.509 276.475 309.477 276.418 309.42C274.577 307.633 273.203 305.42 272.417 302.977C271.688 300.513 271.555 297.91 272.026 295.384C272.034 295.339 272.05 295.296 272.074 295.257C272.098 295.219 272.13 295.185 272.167 295.159C272.205 295.133 272.247 295.115 272.291 295.105C272.336 295.096 272.382 295.095 272.427 295.104C272.472 295.111 272.515 295.127 272.553 295.151C272.592 295.176 272.625 295.207 272.651 295.245C272.677 295.282 272.696 295.324 272.705 295.369C272.715 295.413 272.715 295.459 272.707 295.504H272.717Z" fill="black"/>
    <path d="M289.488 316.825C294.063 318.812 298.839 320.301 303.733 321.267C303.762 321.272 303.79 321.283 303.815 321.298C303.84 321.314 303.861 321.335 303.878 321.359C303.895 321.383 303.906 321.411 303.912 321.44C303.918 321.469 303.919 321.498 303.913 321.527C303.901 321.585 303.867 321.636 303.819 321.669C303.77 321.703 303.711 321.716 303.653 321.707C298.717 320.767 293.897 319.294 289.278 317.315C289.213 317.287 289.163 317.234 289.137 317.169C289.11 317.103 289.111 317.03 289.138 316.965C289.166 316.901 289.219 316.85 289.284 316.824C289.35 316.798 289.423 316.798 289.488 316.825Z" fill="black"/>
    <path d="M318.551 322.984C323.553 323.174 328.563 323.087 333.556 322.724C333.575 322.721 333.594 322.722 333.612 322.728C333.63 322.733 333.647 322.742 333.661 322.754C333.675 322.767 333.687 322.782 333.695 322.799C333.702 322.817 333.706 322.835 333.706 322.854C333.707 322.873 333.705 322.891 333.699 322.909C333.693 322.926 333.684 322.942 333.672 322.956C333.66 322.97 333.645 322.982 333.629 322.99C333.612 322.998 333.594 323.003 333.576 323.004C328.584 323.391 323.575 323.508 318.571 323.354C318.522 323.352 318.476 323.33 318.443 323.295C318.409 323.26 318.391 323.213 318.391 323.164C318.393 323.116 318.414 323.07 318.45 323.036C318.485 323.003 318.532 322.984 318.581 322.984H318.551Z" fill="black"/>
    <path d="M348.441 321.068L363.217 318.487C363.226 318.478 363.238 318.473 363.252 318.473C363.265 318.473 363.277 318.478 363.287 318.487C363.294 318.497 363.298 318.509 363.298 318.522C363.298 318.535 363.294 318.547 363.287 318.557L348.511 321.268C348.498 321.271 348.485 321.271 348.471 321.269C348.458 321.266 348.446 321.261 348.434 321.254C348.423 321.246 348.414 321.237 348.406 321.225C348.399 321.214 348.394 321.201 348.391 321.188C348.388 321.163 348.395 321.138 348.41 321.117C348.425 321.097 348.447 321.083 348.471 321.078L348.441 321.068Z" fill="black"/>
    <path d="M377.883 315.352L383.885 314.012L377.883 315.382V315.352Z" fill="black"/>
    <path d="M839.621 663.042L854.595 661.954C854.609 661.954 854.623 661.95 854.636 661.944C854.648 661.938 854.66 661.929 854.669 661.919C854.678 661.908 854.684 661.895 854.688 661.882C854.692 661.869 854.693 661.854 854.691 661.841C854.69 661.811 854.677 661.784 854.656 661.764C854.635 661.744 854.606 661.734 854.577 661.735L839.601 662.783C839.583 662.782 839.566 662.785 839.549 662.791C839.533 662.798 839.519 662.808 839.507 662.821C839.495 662.834 839.486 662.849 839.481 662.866C839.475 662.882 839.474 662.9 839.476 662.917C839.477 662.952 839.492 662.984 839.517 663.008C839.543 663.031 839.576 663.044 839.611 663.042L839.621 663.042Z" fill="black"/>
    <rect x="88.5" y="85" width="9.5" height="22.9914" rx="1" fill="url(#paint0_linear_22605_38927)" stroke="black" stroke-width="2" stroke-linejoin="round"/>
    <path fill-rule="evenodd" clip-rule="evenodd" d="M136.214 91.4961C115.833 91.4961 97.9385 97.3464 87.7843 106.159C85.2941 108.32 84.1953 111.586 84.1953 114.882V124.484L184.477 123.052L136.214 91.4961Z" fill="black"/>
    <path d="M184.477 123.052L189.191 122.984L189.214 117.485C189.235 112.511 187.6 107.528 183.608 104.559L183.605 104.556C172.961 96.6442 155.333 91.4961 136.214 91.4961L184.477 123.052Z" fill="#F1EFED"/>
    <path d="M136.214 91.4961L184.477 123.052M136.214 91.4961C115.833 91.4961 97.9385 97.3464 87.7843 106.159M136.214 91.4961C155.333 91.4961 172.961 96.6442 183.605 104.556M184.477 123.052L84.1953 124.484V114.882M184.477 123.052L189.191 122.984L189.214 117.485M87.7843 106.159C85.2941 108.32 84.1953 111.586 84.1953 114.882M87.7843 106.159V106.159C85.2955 108.318 84.1953 111.587 84.1953 114.882V114.882M183.605 104.556C183.606 104.557 183.607 104.558 183.608 104.559M183.605 104.556L183.608 104.559M189.214 117.485C189.235 112.511 187.6 107.528 183.608 104.559M189.214 117.485V117.485C189.235 112.514 187.598 107.525 183.608 104.559V104.559" stroke="black" stroke-width="2" stroke-linejoin="round"/>
    <path d="M83.3284 116.38C80.5752 214.149 72.25 266.322 50.5 354.9H207.994C199.007 267.784 195.126 214.044 189.253 117.26C189.096 114.656 187.499 112.314 185.102 111.284C152.145 97.1165 130.429 95.4873 89.5778 108.063C85.935 109.185 83.4357 112.57 83.3284 116.38Z" fill="url(#paint1_linear_22605_38927)" stroke="black" stroke-width="2" stroke-linecap="round" stroke-linejoin="round"/>
    <ellipse cx="40.2542" cy="15.9444" rx="40.2542" ry="15.9444" transform="matrix(1 0.000486074 0.000484837 1 94.4453 148.176)" stroke="black" stroke-width="2" stroke-linejoin="round"/>
    <ellipse cx="40.2452" cy="15.9485" rx="40.2452" ry="15.9485" transform="matrix(0.55095 -0.834538 0.830211 0.557449 99 187.656)" stroke="black" stroke-width="2" stroke-linejoin="round"/>
    <ellipse cx="40.2452" cy="15.9485" rx="40.2452" ry="15.9485" transform="matrix(-0.551267 -0.834329 -0.830417 0.557142 170.391 187.656)" stroke="black" stroke-width="2" stroke-linejoin="round"/>
    <ellipse cx="6.83587" cy="6.83331" rx="6.83587" ry="6.83331" transform="matrix(1 0.000486074 0.000484837 1 127.867 157.289)" fill="black" stroke="black" stroke-width="2" stroke-linejoin="round"/>
    <rect x="225.82" y="132.484" width="7.93427" height="19.2021" rx="0.835187" fill="url(#paint2_linear_22605_38927)" stroke="black" stroke-width="2" stroke-linejoin="round"/>
    <path fill-rule="evenodd" clip-rule="evenodd" d="M265.672 137.91C248.65 137.91 233.705 142.796 225.224 150.156C223.144 151.961 222.227 154.689 222.227 157.442V165.461L305.98 164.265L265.672 137.91Z" fill="black"/>
    <path d="M305.98 164.265L309.917 164.209L309.937 159.616C309.955 155.46 308.588 151.297 305.252 148.818C296.362 142.21 281.64 137.91 265.672 137.91L305.98 164.265Z" fill="#F1EFED"/>
    <path d="M265.672 137.91L305.98 164.265M265.672 137.91C248.65 137.91 233.705 142.796 225.224 150.156M265.672 137.91C281.64 137.91 296.362 142.21 305.252 148.818M305.98 164.265L222.227 165.461V157.442M305.98 164.265L309.917 164.209L309.937 159.616M225.224 150.156C223.144 151.961 222.227 154.689 222.227 157.442M225.224 150.156V150.156C223.145 151.96 222.227 154.69 222.227 157.442V157.442M305.252 148.818C308.588 151.297 309.955 155.46 309.937 159.616M305.252 148.818V148.818C308.586 151.296 309.955 155.462 309.937 159.616V159.616" stroke="black" stroke-width="2" stroke-linejoin="round"/>
    <path d="M221.504 158.69C219.204 240.345 212.251 283.92 194.086 357.899H325.623C318.117 285.141 314.875 240.258 309.971 159.425C309.839 157.25 308.505 155.294 306.504 154.434C278.978 142.602 260.841 141.241 226.723 151.744C223.681 152.681 221.593 155.508 221.504 158.69Z" fill="url(#paint3_linear_22605_38927)" stroke="black" stroke-width="2" stroke-linecap="round" stroke-linejoin="round"/>
    <ellipse cx="25.9067" cy="10.2615" rx="25.9067" ry="10.2615" transform="matrix(1 0.000486074 0.000484837 1 237.953 192.09)" stroke="black" stroke-width="1.7" stroke-linejoin="round"/>
    <ellipse cx="25.9009" cy="10.2641" rx="25.9009" ry="10.2641" transform="matrix(0.55095 -0.834538 0.830211 0.557449 240.891 217.504)" stroke="black" stroke-width="1.7" stroke-linejoin="round"/>
    <ellipse cx="25.9009" cy="10.2641" rx="25.9009" ry="10.2641" transform="matrix(-0.551267 -0.834329 -0.830417 0.557142 286.836 217.504)" stroke="black" stroke-width="1.7" stroke-linejoin="round"/>
    <ellipse cx="4.39952" cy="4.39787" rx="4.39952" ry="4.39787" transform="matrix(1 0.000486074 0.000484837 1 259.461 197.957)" fill="black" stroke="black" stroke-width="1.7" stroke-linejoin="round"/>
    <rect x="283.992" y="336.906" width="84.9969" height="31.4882" fill="black" stroke="black" stroke-width="2" stroke-linejoin="round"/>
    <rect x="23" y="343.402" width="177.993" height="24.9906" fill="black" stroke="black" stroke-width="2" stroke-linejoin="round"/>
    <path d="M23 343.402L200.993 350.4V368.393H23V343.402Z" fill="#5869DD" stroke="black" stroke-width="2" stroke-linejoin="round"/>
    <path d="M330.987 296.922L283.989 266.934V340.406H330.987V296.922Z" fill="url(#paint4_linear_22605_38927)"/>
    <path fill-rule="evenodd" clip-rule="evenodd" d="M283.989 266.934V340.406V368.396H201.492L194.742 291.674L283.989 266.934Z" fill="url(#paint5_linear_22605_38927)"/>
    <path d="M194.742 291.674V368.396H201.492L194.742 291.674Z" fill="black"/>
    <path d="M283.989 266.934L330.987 296.922V340.406H283.989M283.989 266.934V340.406M283.989 266.934L194.742 291.674M283.989 340.406V368.396H201.492M194.742 291.674V368.396H201.492M194.742 291.674L201.492 368.396" stroke="black" stroke-width="2" stroke-linejoin="round"/>
    <path d="M284.992 342.904L368.989 336.906V368.394H284.992V342.904Z" fill="url(#paint6_linear_22605_38927)" stroke="black" stroke-width="2" stroke-linejoin="round"/>
    <path d="M269.214 540.907L252.891 575.061L273.723 566.778L269.214 540.907Z" fill="url(#paint7_linear_22605_38927)"/>
    <path d="M329.749 533.748L319.794 532.097L333.303 555.343L353.924 566.348L350.774 548.28L329.749 533.748Z" fill="black"/>
    <path d="M319.794 532.097L269.214 540.907L318.649 574.265L319.794 532.097Z" fill="black"/>
    <path d="M346.811 578.588L344.471 591.689L357.073 584.417L353.924 566.348L333.303 555.343L346.811 578.588Z" fill="#5869DD"/>
    <path d="M278.232 592.649L303.38 611.54L342.132 604.79L344.471 591.689L331.39 598.622L278.232 592.649Z" fill="#5869DD"/>
    <path d="M344.471 591.689L346.811 578.588L333.303 555.343L319.794 532.097L318.649 574.265L344.471 591.689Z" fill="url(#paint8_linear_22605_38927)"/>
    <path d="M278.232 592.649L331.39 598.622L344.471 591.689L318.649 574.265L269.214 540.907L273.723 566.778L278.232 592.649Z" fill="url(#paint9_linear_22605_38927)"/>
    <path d="M252.891 575.061L264.37 587.871L278.232 592.649L273.723 566.778L252.891 575.061Z" fill="#5869DD"/>
    <path d="M269.214 540.907L319.794 532.097M269.214 540.907L299.083 514.549L318.649 525.527L319.794 532.097M269.214 540.907L252.891 575.061M269.214 540.907L318.649 574.265M269.214 540.907L273.723 566.778M278.232 592.649L303.38 611.54L342.132 604.79L344.471 591.689M278.232 592.649L264.37 587.871L252.891 575.061M278.232 592.649L331.39 598.622L344.471 591.689M278.232 592.649L273.723 566.778M319.794 532.097L329.749 533.748L350.774 548.28L353.924 566.348M319.794 532.097L318.649 574.265M319.794 532.097L333.303 555.343M344.471 591.689L346.811 578.588L333.303 555.343M344.471 591.689L357.073 584.417L353.924 566.348M344.471 591.689L318.649 574.265M252.891 575.061L273.723 566.778M333.303 555.343L353.924 566.348" stroke="black" stroke-width="2" stroke-linecap="round" stroke-linejoin="round"/>
    <path d="M382.928 582.056L440.174 589.95L454.516 582.875L387.759 535.508L383.569 568.881L382.383 578.334L382.928 582.056Z" fill="url(#paint10_linear_22605_38927)"/>
    <path d="M382.928 582.056L409.524 603.031L451.592 596.869L454.516 582.875L440.174 589.95L382.928 582.056Z" fill="url(#paint11_linear_22605_38927)"/>
    <path fill-rule="evenodd" clip-rule="evenodd" d="M460.199 528.307L387.759 535.508L454.516 582.875L457.441 568.881L458.181 557.997L460.199 528.307Z" fill="#5869DD"/>
    <path d="M429.663 518.236L374.753 526.279L387.759 535.508L460.199 528.307L429.663 518.236Z" fill="black"/>
    <path fill-rule="evenodd" clip-rule="evenodd" d="M454.516 582.875L457.441 568.881L458.181 557.997L473.586 533.721L468.351 575.422L454.516 582.875Z" fill="#5869DD"/>
    <path d="M473.586 533.721L460.199 528.307L458.181 557.997L473.586 533.721Z" fill="black"/>
    <path fill-rule="evenodd" clip-rule="evenodd" d="M382.383 578.334L382.928 582.056L368.098 576.541L371.425 551.41L383.569 568.881L382.383 578.334Z" fill="#5869DD"/>
    <path d="M387.759 535.508L374.753 526.279L371.425 551.41L383.569 568.881L387.759 535.508Z" fill="black"/>
    <path d="M374.753 526.279L429.663 518.237M374.753 526.279L407.82 498.827L428.625 511.154L429.663 518.237M374.753 526.279L387.759 535.508M374.753 526.279L371.425 551.41M382.928 582.056L409.524 603.031L451.592 596.869L454.516 582.875M382.928 582.056L368.098 576.541L371.425 551.41M382.928 582.056L440.174 589.95L454.516 582.875M382.928 582.056L382.383 578.334L383.569 568.881M429.663 518.237L440.367 520.286L473.586 533.721M429.663 518.237L460.199 528.307M454.516 582.875L457.441 568.881L458.181 557.997M454.516 582.875L468.351 575.422L473.586 533.721M454.516 582.875L387.759 535.508M473.586 533.721L460.199 528.307M473.586 533.721L458.181 557.997M387.759 535.508L383.569 568.881M387.759 535.508L460.199 528.307M460.199 528.307L458.181 557.997M371.425 551.41L383.569 568.881" stroke="black" stroke-width="2" stroke-linecap="round" stroke-linejoin="round"/>
    <path d="M159.229 528.425L137.109 555.01L144.982 568.56L159.229 528.425Z" fill="black"/>
    <path d="M207.535 530.994L222.655 577.194L232.62 551.462L216.335 534.464L207.535 530.994Z" fill="black"/>
    <path d="M156.72 575.562L175.882 597.215L212.89 599.184L217.773 588.189L204.308 591.599L156.72 575.562Z" fill="url(#paint12_linear_22605_38927)"/>
    <path d="M159.229 528.425L156.72 575.562L204.308 591.599L217.773 588.189L159.229 528.425Z" fill="url(#paint13_linear_22605_38927)"/>
    <path d="M156.72 575.562L159.229 528.425L144.982 568.56L156.72 575.562Z" fill="#5869DD"/>
    <path d="M222.655 577.194L217.773 588.189L230.867 584.383L232.62 551.462L222.655 577.194Z" fill="url(#paint14_linear_22605_38927)"/>
    <path d="M222.655 577.194L207.535 530.994L159.229 528.425L217.773 588.189L222.655 577.194Z" fill="#5869DD"/>
    <path d="M159.229 528.425L156.72 575.562M159.229 528.425L207.535 530.994M159.229 528.425L192.169 511.419L207.853 525.009L207.535 530.994M159.229 528.425L137.109 555.01L144.982 568.56M159.229 528.425L217.773 588.189M159.229 528.425L144.982 568.56M156.72 575.562L175.882 597.215L212.89 599.184L217.773 588.189M156.72 575.562L144.982 568.56M156.72 575.562L204.308 591.599L217.773 588.189M222.655 577.194L207.535 530.994M222.655 577.194L217.773 588.189M222.655 577.194L232.62 551.462M207.535 530.994L216.335 534.464L232.62 551.462M217.773 588.189L230.867 584.383L232.62 551.462" stroke="black" stroke-width="2" stroke-linecap="round" stroke-linejoin="round"/>
    <path d="M479.231 487.711L469.357 469.218H393.484L404.984 487.711H479.231Z" fill="#5869DD"/>
    <path d="M469.357 469.218L479.231 487.711L548.998 398.52L522.499 398.52L469.357 469.218Z" fill="url(#paint15_linear_22605_38927)"/>
    <path d="M469.357 469.218L479.231 487.711M469.357 469.218H393.484L404.984 487.711H479.231M469.357 469.218L522.499 398.52L548.998 398.52L479.231 487.711M548.998 398.521L479.231 487.711" stroke="black" stroke-width="2" stroke-linecap="round" stroke-linejoin="round"/>
    <path d="M351.613 487.714L343.422 468.052L387.502 392.887L409.483 392.887L351.613 487.714Z" fill="url(#paint16_linear_22605_38927)"/>
    <path d="M409.483 392.888L351.613 487.714M351.613 487.714L343.422 468.052L387.502 392.887L409.483 392.887L351.613 487.714Z" stroke="black" stroke-width="2" stroke-linecap="round" stroke-linejoin="round"/>
    <path d="M374.498 499.458L368.484 480.47L383.346 452.363L399.483 452.363L374.498 499.458Z" fill="#5869DD"/>
    <path d="M399.483 452.365L374.498 499.458M374.498 499.458L368.484 480.47L383.346 452.363L399.483 452.363L374.498 499.458Z" stroke="black" stroke-width="2" stroke-linecap="round" stroke-linejoin="round"/>
    <path d="M495.091 514.305L486.557 498.322H420.984L427.484 514.305H495.091Z" fill="black"/>
    <path d="M503.236 527.199H526.138L508.257 498.322L495.091 514.305L503.236 527.199Z" fill="#5869DD"/>
    <path d="M513.175 465.859L500.467 481.357L486.557 498.322L495.091 514.305L508.257 498.322L534.997 465.859H513.175Z" fill="url(#paint17_linear_22605_38927)"/>
    <path d="M486.557 498.322L500.467 481.357L513.175 465.859H534.997L508.257 498.322M486.557 498.322L495.091 514.305M486.557 498.322H420.984L427.484 514.305H495.091M495.091 514.305L503.236 527.199H526.138L508.257 498.322M495.091 514.305L508.257 498.322" stroke="black" stroke-width="2" stroke-linecap="round" stroke-linejoin="round"/>
    <path d="M277.986 547.096V567.088L476.853 520.106V496.115L469.745 497.937L440.98 505.311L426.633 508.989L404.788 514.589L322.227 535.754L317.409 536.989L315.755 537.413L277.986 547.096Z" fill="#5869DD"/>
    <path d="M103.117 535.1L262.472 546.031L292.611 517.939L299.793 511.245L234.269 504.788L190.551 500.48L103.117 535.1Z" fill="url(#paint18_linear_22605_38927)"/>
    <path d="M348.483 465.859H277.986L234.269 483.17L292.611 486.664L324.138 488.552L348.483 465.859Z" fill="url(#paint19_linear_22605_38927)"/>
    <path d="M262.472 546.031L277.986 547.096L281.691 542.825L303.288 517.939H292.611L262.472 546.031Z" fill="black"/>
    <path d="M277.986 567.088V547.096L262.472 546.031V566.024L277.986 567.088Z" fill="black"/>
    <path d="M103.117 535.1V555.093L262.472 566.024V546.031L103.117 535.1Z" fill="url(#paint20_linear_22605_38927)"/>
    <path d="M325.886 491.899L348.483 465.859L324.138 488.552L325.886 491.899Z" fill="#F1EFED"/>
    <path d="M292.611 517.939H303.288L306.195 514.589L322.227 496.115L325.886 491.899L324.138 488.552L299.793 511.245L292.611 517.939Z" fill="#5869DD"/>
    <path d="M281.691 542.825L277.986 547.096L315.755 537.413L281.691 542.825Z" fill="black"/>
    <path d="M426.633 508.989L422.055 503.835C398.776 504.652 381.838 504.278 364.54 501.505V509.569C376.303 512.05 388.765 513.533 404.788 514.589L426.633 508.989Z" fill="black"/>
    <path d="M325.886 491.899L322.227 496.115C338.331 502.514 350.971 506.706 364.54 509.569V501.505C352.568 499.585 340.424 496.517 325.886 491.899Z" fill="#F1EFED"/>
    <path d="M390.982 468.858L422.055 503.835L426.633 508.989L440.98 505.311L390.982 468.858Z" fill="black"/>
    <path d="M313.343 526.445C315.554 529.336 316.757 532.56 317.409 536.989L322.227 535.754C321.627 531.256 320.623 527.378 318.413 523.983L313.343 526.445Z" fill="black"/>
    <path fill-rule="evenodd" clip-rule="evenodd" d="M440.98 475.356L390.982 468.858L440.98 505.311L469.745 497.937L440.98 475.356Z" fill="#5869DD"/>
    <path d="M476.853 496.115L440.98 475.356L469.745 497.937L476.853 496.115Z" fill="black"/>
    <path d="M404.788 514.589C388.765 513.533 376.303 512.05 364.54 509.569C350.971 506.706 338.331 502.514 322.227 496.115L306.195 514.589C312.304 517.275 316.048 520.352 318.413 523.983C320.623 527.378 321.627 531.256 322.227 535.754L404.788 514.589Z" fill="#5869DD"/>
    <path d="M390.982 468.858L348.483 465.859L325.886 491.899C340.424 496.517 352.568 499.585 364.54 501.505C381.838 504.278 398.776 504.652 422.055 503.835L390.982 468.858Z" fill="url(#paint21_linear_22605_38927)"/>
    <path d="M313.343 526.445C311.141 523.567 307.94 521.019 303.288 517.939L281.691 542.825L315.755 537.413L317.409 536.989C316.757 532.56 315.554 529.336 313.343 526.445Z" fill="#F1EFED"/>
    <path d="M234.269 483.17L190.551 500.48L234.269 504.788L292.611 486.664L234.269 483.17Z" fill="#F1EFED"/>
    <path d="M299.793 511.245L324.138 488.552L292.611 486.664L234.269 504.788L299.793 511.245Z" fill="black"/>
    <path d="M103.117 535.1V555.093L262.472 566.024M103.117 535.1L262.472 546.031M103.117 535.1L190.551 500.48M277.986 547.096V567.088M277.986 547.096L262.472 546.031M277.986 547.096L281.691 542.825M277.986 547.096L315.755 537.413M277.986 567.088L476.853 520.106V496.115M277.986 567.088L262.472 566.024M476.853 496.115L440.98 475.356M476.853 496.115L469.745 497.937M348.483 465.859H277.986L234.269 483.17M348.483 465.859L390.982 468.858M348.483 465.859L325.886 491.899M348.483 465.859L324.138 488.552M390.982 468.858L440.98 475.356M390.982 468.858L422.055 503.835M390.982 468.858L440.98 505.311M440.98 475.356L469.745 497.937M426.633 508.989L422.055 503.835M426.633 508.989L404.788 514.589M426.633 508.989L440.98 505.311M262.472 546.031L292.611 517.939M262.472 546.031V566.024M292.611 517.939H303.288M292.611 517.939L299.793 511.245M303.288 517.939C307.94 521.019 311.141 523.567 313.343 526.445M303.288 517.939L281.691 542.825M303.288 517.939L306.195 514.589M317.409 536.989C316.757 532.56 315.554 529.336 313.343 526.445M317.409 536.989L315.755 537.413M317.409 536.989L322.227 535.754M325.886 491.899L322.227 496.115M325.886 491.899L324.138 488.552M325.886 491.899C340.424 496.517 352.568 499.585 364.54 501.505M422.055 503.835C398.776 504.652 381.838 504.278 364.54 501.505M404.788 514.589C388.765 513.533 376.303 512.05 364.54 509.569M404.788 514.589L322.227 535.754M322.227 496.115C338.331 502.514 350.971 506.706 364.54 509.569M322.227 496.115L306.195 514.589M299.793 511.245L324.138 488.552M299.793 511.245L234.269 504.788M190.551 500.48L234.269 483.17M190.551 500.48L234.269 504.788M234.269 483.17L292.611 486.664M324.138 488.552L292.611 486.664M313.343 526.445L318.413 523.983M281.691 542.825L315.755 537.413M364.54 509.569V501.505M440.98 505.311L469.745 497.937M322.227 535.754C321.627 531.256 320.623 527.378 318.413 523.983M306.195 514.589C312.304 517.275 316.048 520.352 318.413 523.983M234.269 504.788L292.611 486.664" stroke="black" stroke-width="2" stroke-linecap="round" stroke-linejoin="round"/>
    <defs>
        <linearGradient id="paint0_linear_22605_38927" x1="90.1111" y1="126.856" x2="106.637" y2="124.071" gradientUnits="userSpaceOnUse">
            <stop stop-color="#5869DD"/>
            <stop offset="1" stop-color="#D6FFBB"/>
        </linearGradient>
        <linearGradient id="paint1_linear_22605_38927" x1="217.994" y1="134.483" x2="64.0569" y2="305.471" gradientUnits="userSpaceOnUse">
            <stop stop-color="#D6FFBB"/>
            <stop offset="1" stop-color="#5869DD"/>
        </linearGradient>
        <linearGradient id="paint2_linear_22605_38927" x1="224.835" y1="144.391" x2="234.5" y2="142.881" gradientUnits="userSpaceOnUse">
            <stop stop-color="#D6FFBB"/>
            <stop offset="1" stop-color="#5869DD"/>
        </linearGradient>
        <linearGradient id="paint3_linear_22605_38927" x1="336.985" y1="173.468" x2="223.034" y2="304.957" gradientUnits="userSpaceOnUse">
            <stop stop-color="#D6FFBB"/>
            <stop offset="1" stop-color="#5869DD"/>
        </linearGradient>
        <linearGradient id="paint4_linear_22605_38927" x1="349.986" y1="287.426" x2="262.881" y2="341.932" gradientUnits="userSpaceOnUse">
            <stop stop-color="#D6FFBB"/>
            <stop offset="1" stop-color="#5869DD"/>
        </linearGradient>
        <linearGradient id="paint5_linear_22605_38927" x1="337.987" y1="232.447" x2="243.531" y2="357.43" gradientUnits="userSpaceOnUse">
            <stop stop-color="#D6FFBB"/>
            <stop offset="1" stop-color="#5869DD"/>
        </linearGradient>
        <linearGradient id="paint6_linear_22605_38927" x1="368.989" y1="315.414" x2="314.006" y2="359.416" gradientUnits="userSpaceOnUse">
            <stop stop-color="#D6FFBB"/>
            <stop offset="1" stop-color="#5869DD"/>
        </linearGradient>
        <linearGradient id="paint7_linear_22605_38927" x1="252.283" y1="571.571" x2="351.81" y2="554.223" gradientUnits="userSpaceOnUse">
            <stop stop-color="#D6FFBB"/>
            <stop offset="1" stop-color="#5869DD"/>
        </linearGradient>
        <linearGradient id="paint8_linear_22605_38927" x1="252.283" y1="571.571" x2="351.81" y2="554.223" gradientUnits="userSpaceOnUse">
            <stop stop-color="#D6FFBB"/>
            <stop offset="1" stop-color="#5869DD"/>
        </linearGradient>
        <linearGradient id="paint9_linear_22605_38927" x1="327.978" y1="539.33" x2="301.979" y2="636.275" gradientUnits="userSpaceOnUse">
            <stop stop-color="#D6FFBB"/>
            <stop offset="1" stop-color="#5869DD"/>
        </linearGradient>
        <linearGradient id="paint10_linear_22605_38927" x1="408.983" y1="632.295" x2="501.262" y2="573.911" gradientUnits="userSpaceOnUse">
            <stop stop-color="#5869DD"/>
            <stop offset="1" stop-color="#D6FFBB"/>
        </linearGradient>
        <linearGradient id="paint11_linear_22605_38927" x1="365.275" y1="557.285" x2="474.689" y2="541.248" gradientUnits="userSpaceOnUse">
            <stop stop-color="#D6FFBB"/>
            <stop offset="1" stop-color="#5869DD"/>
        </linearGradient>
        <linearGradient id="paint12_linear_22605_38927" x1="147.323" y1="666.804" x2="292.261" y2="610.837" gradientUnits="userSpaceOnUse">
            <stop stop-color="#D6FFBB"/>
            <stop offset="1" stop-color="#5869DD"/>
        </linearGradient>
        <linearGradient id="paint13_linear_22605_38927" x1="208.989" y1="569.319" x2="184.817" y2="617.308" gradientUnits="userSpaceOnUse">
            <stop stop-color="#D6FFBB"/>
            <stop offset="1" stop-color="#5869DD"/>
        </linearGradient>
        <linearGradient id="paint14_linear_22605_38927" x1="137.278" y1="551.83" x2="232.331" y2="556.89" gradientUnits="userSpaceOnUse">
            <stop stop-color="#D6FFBB"/>
            <stop offset="1" stop-color="#5869DD"/>
        </linearGradient>
        <linearGradient id="paint15_linear_22605_38927" x1="471.241" y1="487.711" x2="591.24" y2="414.635" gradientUnits="userSpaceOnUse">
            <stop stop-color="#5869DD"/>
            <stop offset="1" stop-color="#D6FFBB"/>
        </linearGradient>
        <linearGradient id="paint16_linear_22605_38927" x1="376.452" y1="463.36" x2="430.214" y2="456.308" gradientUnits="userSpaceOnUse">
            <stop stop-color="#5869DD"/>
            <stop offset="1" stop-color="#D6FFBB"/>
        </linearGradient>
        <linearGradient id="paint17_linear_22605_38927" x1="477.991" y1="527.199" x2="562.768" y2="471.966" gradientUnits="userSpaceOnUse">
            <stop stop-color="#5869DD"/>
            <stop offset="1" stop-color="#D6FFBB"/>
        </linearGradient>
        <linearGradient id="paint18_linear_22605_38927" x1="132.991" y1="444.367" x2="280.945" y2="567.137" gradientUnits="userSpaceOnUse">
            <stop stop-color="#D6FFBB"/>
            <stop offset="1" stop-color="#5869DD"/>
        </linearGradient>
        <linearGradient id="paint19_linear_22605_38927" x1="157.99" y1="516.474" x2="390.968" y2="445.323" gradientUnits="userSpaceOnUse">
            <stop stop-color="#D6FFBB"/>
            <stop offset="1" stop-color="#5869DD"/>
        </linearGradient>
        <linearGradient id="paint20_linear_22605_38927" x1="-44.0024" y1="516.474" x2="124.313" y2="380.533" gradientUnits="userSpaceOnUse">
            <stop stop-color="#D6FFBB"/>
            <stop offset="1" stop-color="#5869DD"/>
        </linearGradient>
        <linearGradient id="paint21_linear_22605_38927" x1="239.487" y1="437.87" x2="379.473" y2="484.381" gradientUnits="userSpaceOnUse">
            <stop stop-color="#D6FFBB"/>
            <stop offset="1" stop-color="#5869DD"/>
        </linearGradient>
    </defs>
</svg>
