<svg width="47" height="59" viewBox="0 0 47 59" fill="none" xmlns="http://www.w3.org/2000/svg">
<circle cx="23.5" cy="35.5" r="23" fill="#F1EFED" stroke="black"/>
<path d="M19.7 7.8C19.3 7.4 18.7 7.4 18.3 7.8C17.9 8.2 17.9 8.8 18.3 9.2L21.6 12.5L18.3 15.8C18.1 16 18 16.2 18 16.5C18 17.1 18.4 17.5 19 17.5C19.3 17.5 19.5 17.4 19.7 17.2L23.7 13.2C24.1 12.8 24.1 12.2 23.7 11.8L19.7 7.8ZM27 7.5C26.4 7.5 26 7.9 26 8.5V16.5C26 17.1 26.4 17.5 27 17.5C27.6 17.5 28 17.1 28 16.5V8.5C28 7.9 27.6 7.5 27 7.5Z" fill="black"/>
</svg>
