<svg width="100" height="91" viewBox="0 0 100 91" fill="none" xmlns="http://www.w3.org/2000/svg">
<path fill-rule="evenodd" clip-rule="evenodd" d="M14 66.2574C14 71.691 14.9371 76.9104 16.6619 81.7692C18.6789 87.4514 25.2323 89.7189 30.9691 87.6776C43.5226 83.2108 53.5996 78.6479 62.2944 73.2077L14 66.2574Z" fill="black"/>
<path d="M85.1175 24.5996C78.3212 21.0268 70.5497 19 62.2944 19C43.0019 19 26.3516 30.0695 18.6147 46.0719L65.7373 70.9584C74.2021 65.1838 81.3955 58.3976 88.4607 49.7836C95.0994 41.6895 94.4309 29.5008 85.1236 24.6028L85.1175 24.5996Z" fill="black"/>
<path d="M14 66.2574L62.2944 73.2077C63.4663 72.4745 64.613 71.7254 65.7373 70.9584L18.6147 46.0719C15.6553 52.1931 14 59.0361 14 66.2574Z" fill="#5869DD"/>
<path d="M30.9691 87.6776L30.7177 86.971L30.9691 87.6776ZM16.6619 81.7692L15.9551 82.0201L16.6619 81.7692ZM16.7222 81.9382L16.0164 82.1918L16.7222 81.9382ZM13.8932 66.9998L62.1876 73.9501L62.4013 72.4654L14.1068 65.5151L13.8932 66.9998ZM62.2944 19.75C70.4257 19.75 78.0777 21.7461 84.7685 25.2635L85.4665 23.9358C78.5646 20.3075 70.6736 18.25 62.2944 18.25V19.75ZM61.8966 72.5719C53.2631 77.9737 43.2401 82.5152 30.7177 86.971L31.2205 88.3842C43.805 83.9064 53.9362 79.322 62.6922 73.8435L61.8966 72.5719ZM30.7177 86.971C25.2743 88.9079 19.2149 86.7195 17.3687 81.5184L15.9551 82.0201C18.1428 88.1834 25.1903 90.5299 31.2205 88.3842L30.7177 86.971ZM17.3687 81.5184C15.6721 76.7387 14.75 71.6041 14.75 66.2574H13.25C13.25 71.7778 14.2022 77.082 15.9551 82.0201L17.3687 81.5184ZM84.7682 25.2633C84.783 25.2711 84.7622 25.2601 84.7742 25.2664L85.4731 23.9392C85.4714 23.9383 85.4699 23.9375 85.4689 23.937C85.4678 23.9364 85.4673 23.9362 85.4668 23.9359L84.7682 25.2633ZM17.428 81.6846C17.4081 81.6292 17.3883 81.5738 17.3687 81.5184L15.9551 82.0201C15.9754 82.0774 15.9958 82.1346 16.0164 82.1918L17.428 81.6846ZM84.7743 25.2665C93.5364 29.8776 94.315 41.4631 87.8808 49.308L89.0406 50.2592C95.8838 41.9158 95.3254 29.124 85.4729 23.9391L84.7743 25.2665ZM30.9616 88.4762C31.048 88.4455 31.1343 88.4149 31.2205 88.3842L30.7177 86.971C30.6319 87.0015 30.5461 87.032 30.4601 87.0625L30.9616 88.4762ZM85.4723 23.9388L85.4662 23.9356L84.7688 25.2636L84.7749 25.2668L85.4723 23.9388ZM14.75 66.2574C14.75 59.152 16.3784 52.4204 19.29 46.3983L17.9395 45.7454C14.9321 51.9659 13.25 58.9202 13.25 66.2574H14.75ZM19.29 46.3983C26.9034 30.6512 43.2938 19.75 62.2944 19.75V18.25C42.7101 18.25 25.7998 29.4879 17.9395 45.7454L19.29 46.3983ZM87.8808 49.308C80.8541 57.8751 73.7121 64.6102 65.3146 70.3388L66.16 71.578C74.6921 65.7575 81.937 58.9201 89.0406 50.2592L87.8808 49.308ZM65.3146 70.3388C64.1987 71.1001 63.0602 71.8439 61.8966 72.5719L62.6922 73.8435C63.8723 73.1052 65.0273 72.3506 66.16 71.578L65.3146 70.3388ZM18.2645 46.7351L65.387 71.6216L66.0875 70.2952L18.965 45.4087L18.2645 46.7351ZM89.0406 50.2592C95.8658 41.9377 95.2556 29.0836 85.4727 23.939L84.7745 25.2666C93.4692 29.8389 94.2949 41.4877 87.8808 49.308L89.0406 50.2592ZM16.0164 82.1918C18.196 88.2574 25.062 90.5691 30.9616 88.4762L30.4601 87.0625C25.1584 88.9433 19.2676 86.804 17.428 81.6846L16.0164 82.1918Z" fill="black"/>
<path fill-rule="evenodd" clip-rule="evenodd" d="M57.827 24.4274L57.8048 16.3478L55.0266 9.01642L52.8549 23.8996L57.827 24.4274Z" fill="black"/>
<path d="M57.767 2.60405C57.7662 2.28902 57.6008 1.99547 57.3311 1.83043C56.7825 1.49471 56.0764 1.8222 55.984 2.45522L55.0266 9.01642L57.8048 16.3478L57.767 2.60405Z" fill="black"/>
<path d="M55.0266 9.01642L52.8549 23.8996L57.827 24.4274L57.8048 16.3478M55.0266 9.01642L55.984 2.45522C56.0764 1.8222 56.7825 1.49471 57.3311 1.83043V1.83043C57.6008 1.99547 57.7662 2.28902 57.767 2.60405L57.8048 16.3478M55.0266 9.01642L57.8048 16.3478" stroke="black" stroke-width="1.5"/>
<path d="M55.951 3.02823C55.9771 2.45299 56.451 2 57.0269 2C57.584 2 58.0492 2.42496 58.0994 2.97984L60.002 24H55.002L55.951 3.02823Z" fill="url(#paint0_linear_204_5816)"/>
<path d="M60.002 24V24.75H60.8229L60.7489 23.9324L60.002 24ZM55.002 24L54.2527 23.9661L54.2172 24.75H55.002V24ZM57.3524 3.04745L59.255 24.0676L60.7489 23.9324L58.8463 2.91223L57.3524 3.04745ZM60.002 23.25H55.002V24.75H60.002V23.25ZM55.7512 24.0339L56.7003 3.06214L55.2018 2.99432L54.2527 23.9661L55.7512 24.0339ZM57.0269 2.75C57.196 2.75 57.3372 2.879 57.3524 3.04745L58.8463 2.91223C58.7611 1.97092 57.972 1.25 57.0269 1.25V2.75ZM57.0269 1.25C56.05 1.25 55.246 2.01846 55.2018 2.99432L56.7003 3.06214C56.7082 2.88751 56.8521 2.75 57.0269 2.75V1.25Z" fill="black"/>
<path fill-rule="evenodd" clip-rule="evenodd" d="M23.7263 42.2443L19.2733 39.698L8.54073 36.6461L20.7773 46.2821L23.7263 42.2443Z" fill="black"/>
<path d="M8.54073 36.6461L20.7773 46.2821L23.7263 42.2443L19.2733 39.698M8.54073 36.6461L3.75371 32.8765C3.25119 32.4808 3.32106 31.7066 3.88701 31.3995V31.3995C4.16522 31.2485 4.5026 31.2519 4.77616 31.4083L19.2733 39.698M8.54073 36.6461L19.2733 39.698" stroke="black" stroke-width="1.5"/>
<path d="M4.36698 32.6916C3.88143 32.3822 3.72638 31.7461 4.01503 31.2479C4.29431 30.7658 4.89582 30.5752 5.40194 30.8085L24.575 39.6456L22.0687 43.9721L4.36698 32.6916Z" fill="url(#paint1_linear_204_5816)" stroke="black" stroke-width="1.5"/>
<path d="M63.1558 18.3574C37.6647 18.16 16.8402 38.5025 16.643 63.7937C16.5951 69.9387 18.6255 76.4173 21.3117 82.1539C23.2665 86.3283 28.1361 88.097 32.4952 86.5979C60.7847 76.8695 76.2353 66.7629 91.6783 47.1408C96.8891 40.5198 97.2112 30.7578 90.2896 25.9541C82.4341 20.5021 72.7365 18.4316 63.1558 18.3574Z" fill="url(#paint2_linear_204_5816)" stroke="black" stroke-width="1.5"/>
<path fill-rule="evenodd" clip-rule="evenodd" d="M71.5765 38.9303C73.9473 39.676 76.4774 38.3598 77.2278 35.9904C77.7039 34.4868 77.3488 32.9203 76.4197 31.7858C74.9732 31.9927 73.5477 32.952 72.6441 35.559C71.0444 35.2445 72.2876 31.8184 73.1092 30.1447C71.1322 30.0703 69.2682 31.3139 68.6424 33.29C67.8921 35.6593 69.2058 38.1846 71.5765 38.9303Z" fill="black"/>
<path d="M76.4197 31.7858C75.8849 31.1326 75.1598 30.6226 74.2936 30.3502C73.9003 30.2265 73.5025 30.1595 73.1092 30.1447C72.2876 31.8184 71.0444 35.2445 72.6441 35.559C73.5477 32.952 74.9732 31.9927 76.4197 31.7858Z" fill="#F1EFED"/>
<path d="M72.6441 35.559L72.5468 36.0493L72.9742 36.1333L73.1169 35.7218L72.6441 35.559ZM76.4197 31.7858L76.8072 31.469L76.8072 31.469L76.4197 31.7858ZM76.7508 35.8404C76.0839 37.9465 73.8348 39.1164 71.7275 38.4536L71.4256 39.4069C74.0598 40.2355 76.871 38.773 77.7047 36.1405L76.7508 35.8404ZM71.7275 38.4536C69.6201 37.7907 68.4525 35.5461 69.1194 33.4401L68.1655 33.14C67.3318 35.7726 68.7914 38.5784 71.4256 39.4069L71.7275 38.4536ZM74.1427 30.8269C76.25 31.4897 77.4177 33.7344 76.7508 35.8404L77.7047 36.1405C78.5384 33.5079 77.0788 30.7021 74.4446 29.8735L74.1427 30.8269ZM69.1194 33.4401C69.6754 31.6841 71.332 30.5779 73.0896 30.6441L73.1288 29.6453C70.9324 29.5627 68.861 30.9436 68.1655 33.14L69.1194 33.4401ZM73.0896 30.6441C73.4387 30.6572 73.7923 30.7166 74.1427 30.8269L74.4446 29.8735C74.0083 29.7363 73.5663 29.6618 73.1288 29.6453L73.0896 30.6441ZM72.6601 29.9253C72.2396 30.782 71.7028 32.1016 71.4775 33.2676C71.3662 33.8438 71.3192 34.4385 71.4403 34.9348C71.5024 35.1892 71.6138 35.4391 71.8034 35.6441C71.9976 35.8541 72.2503 35.991 72.5468 36.0493L72.7415 35.0687C72.6381 35.0483 72.5796 35.0094 72.5389 34.9653C72.4934 34.9162 72.4459 34.8338 72.4125 34.6966C72.3424 34.4098 72.3577 33.9844 72.4599 33.4555C72.6617 32.4114 73.1573 31.1811 73.5583 30.3641L72.6601 29.9253ZM76.3496 31.2911C75.5363 31.4075 74.7229 31.738 73.9918 32.4032C73.2649 33.0646 72.6432 34.035 72.1714 35.3962L73.1169 35.7218C73.5487 34.476 74.0915 33.6633 74.6649 33.1416C75.2341 32.6236 75.8566 32.371 76.4899 32.2804L76.3496 31.2911ZM77.7047 36.1405C78.234 34.4692 77.8385 32.7284 76.8072 31.469L76.0323 32.1025C76.8591 33.1122 77.1739 34.5043 76.7508 35.8404L77.7047 36.1405ZM76.8072 31.469C76.2126 30.743 75.4063 30.176 74.4446 29.8735L74.1427 30.8269C74.9133 31.0693 75.5571 31.5223 76.0323 32.1025L76.8072 31.469Z" fill="black"/>
<path fill-rule="evenodd" clip-rule="evenodd" d="M34.9413 62.009C37.2602 62.9032 39.8691 61.7499 40.7686 59.4331C41.3395 57.9628 41.0846 56.3771 40.2294 55.1862C38.7725 55.3012 37.2888 56.1681 36.2212 58.7124C34.6445 58.2973 36.1031 54.9572 37.0295 53.339C35.061 53.1396 33.1216 54.2626 32.3713 56.1949C31.4719 58.5117 32.6225 61.1148 34.9413 62.009Z" fill="black"/>
<path d="M40.2294 55.1862C39.7371 54.5006 39.0458 53.9458 38.1986 53.6191C37.8139 53.4707 37.4211 53.3787 37.0295 53.339C36.1031 54.9572 34.6445 58.2973 36.2212 58.7124C37.2888 56.1681 38.7725 55.3012 40.2294 55.1862Z" fill="#F1EFED"/>
<path d="M36.2212 58.7124L36.0928 59.1955L36.5141 59.3064L36.6827 58.9048L36.2212 58.7124ZM40.2294 55.1862L40.6362 54.8946L40.6362 54.8946L40.2294 55.1862ZM40.3021 59.2532C39.5026 61.3126 37.1835 62.3377 35.1223 61.5429L34.7604 62.4751C37.3368 63.4686 40.2357 62.1872 41.2351 59.613L40.3021 59.2532ZM35.1223 61.5429C33.0611 60.748 32.0383 58.4342 32.8379 56.3748L31.9048 56.015C30.9054 58.5893 32.1839 61.4815 34.7604 62.4751L35.1223 61.5429ZM38.0177 54.0852C40.0789 54.88 41.1016 57.1938 40.3021 59.2532L41.2351 59.613C42.2346 57.0388 40.9561 54.1465 38.3796 53.153L38.0177 54.0852ZM32.8379 56.3748C33.5045 54.6578 35.2282 53.6588 36.9782 53.8361L37.0809 52.842C34.8939 52.6204 32.7387 53.8673 31.9048 56.015L32.8379 56.3748ZM36.9782 53.8361C37.3258 53.8713 37.6749 53.953 38.0177 54.0852L38.3796 53.153C37.9528 52.9884 37.5165 52.8861 37.0809 52.842L36.9782 53.8361ZM36.5952 53.0917C36.121 53.9199 35.5014 55.2028 35.2024 56.352C35.0547 56.9199 34.97 57.5104 35.0594 58.0133C35.1052 58.2711 35.2005 58.5276 35.3767 58.7441C35.5572 58.966 35.8006 59.1186 36.0928 59.1955L36.3495 58.2293C36.2476 58.2025 36.1917 58.1599 36.1538 58.1133C36.1116 58.0614 36.0695 57.9762 36.0448 57.8372C35.9931 57.5466 36.0354 57.123 36.171 56.6017C36.4387 55.5726 37.0116 54.3763 37.4638 53.5864L36.5952 53.0917ZM40.1908 54.6881C39.3717 54.7528 38.5388 55.0311 37.7669 55.6486C36.9993 56.2626 36.3171 57.1916 35.7597 58.52L36.6827 58.9048C37.1928 57.689 37.7863 56.9123 38.3918 56.428C38.9928 55.9472 39.6302 55.7346 40.268 55.6843L40.1908 54.6881ZM41.2351 59.613C41.8696 57.9788 41.5856 56.2167 40.6362 54.8946L39.8226 55.4778C40.5836 56.5376 40.8093 57.9467 40.3021 59.2532L41.2351 59.613ZM40.6362 54.8946C40.089 54.1325 39.3202 53.5157 38.3796 53.153L38.0177 54.0852C38.7714 54.3759 39.3852 54.8686 39.8226 55.4778L40.6362 54.8946Z" fill="black"/>
<defs>
<linearGradient id="paint0_linear_204_5816" x1="55.8499" y1="42.0513" x2="64.7183" y2="41.2293" gradientUnits="userSpaceOnUse">
<stop stop-color="#5869DD"/>
<stop offset="1" stop-color="#D6FFBB"/>
</linearGradient>
<linearGradient id="paint1_linear_204_5816" x1="38.1398" y1="52.241" x2="41.8494" y2="44.1466" gradientUnits="userSpaceOnUse">
<stop stop-color="#5869DD"/>
<stop offset="1" stop-color="#D6FFBB"/>
</linearGradient>
<linearGradient id="paint2_linear_204_5816" x1="2.38882" y1="64.5751" x2="71.2351" y2="94.2228" gradientUnits="userSpaceOnUse">
<stop stop-color="#5869DD"/>
<stop offset="1" stop-color="#D6FFBB"/>
</linearGradient>
</defs>
</svg>
