<svg width="64" height="84" viewBox="0 0 64 84" fill="none" xmlns="http://www.w3.org/2000/svg">
<path d="M12.76 25.1264C12.76 25.1264 31.7184 28.53 45.2822 29.7728L39.6892 22.7209C37.5947 22.5571 36.1017 22.5434 34.8124 22.3591C31.4647 21.8806 29.016 20.4084 26.7693 19.0577C22.9862 16.7833 19.776 14.8534 13.8113 18.5922C6.38942 23.2443 9.89509 24.1986 11.8054 24.7186C12.3421 24.8647 12.7529 24.9765 12.76 25.1264Z" fill="black"/>
<path d="M45.2822 29.7728C47.4116 29.9679 49.4865 30.3458 51.3878 30.7539C52.4703 30.9862 53.4966 31.2282 54.4446 31.4518C57.2567 32.1151 58.6076 32.8216 58.7781 32.6085C58.9163 32.4357 58.2789 31.6588 57.0153 29.7649C57.0153 29.7649 56.1832 25.7189 48.5393 24.0612C44.6561 23.2191 41.852 22.89 39.6892 22.7209L45.2822 29.7728Z" fill="#5869DD"/>
<path d="M12.76 25.1264L12.0109 25.1622L12.0393 25.759L12.6274 25.8646L12.76 25.1264ZM13.8113 18.5922L14.2095 19.2276L13.8113 18.5922ZM34.8124 22.3591L34.9186 21.6166L34.8124 22.3591ZM57.0153 29.7649L56.2806 29.9161L56.3101 30.0595L56.3914 30.1812L57.0153 29.7649ZM48.5393 24.0612L48.6983 23.3283L48.5393 24.0612ZM11.8054 24.7186L11.6083 25.4423L11.6083 25.4423L11.8054 24.7186ZM26.7693 19.0577L26.3829 19.7005L26.3829 19.7005L26.7693 19.0577ZM51.3878 30.7539L51.5453 30.0206L51.3878 30.7539ZM54.4446 31.4518L54.2724 32.1818L54.2724 32.1818L54.4446 31.4518ZM58.7781 32.6085L59.3637 33.077L59.3637 33.077L58.7781 32.6085ZM45.3507 29.0259C38.5931 28.4068 30.4814 27.2481 24.0506 26.2426C20.8371 25.7401 18.0468 25.2763 16.0601 24.9383C15.0668 24.7692 14.2744 24.6316 13.7307 24.5363C13.4588 24.4887 13.249 24.4516 13.1074 24.4265C13.0365 24.4139 12.9827 24.4043 12.9467 24.3979C12.9287 24.3947 12.9151 24.3922 12.906 24.3906C12.9015 24.3898 12.8981 24.3892 12.8959 24.3888C12.8948 24.3886 12.8939 24.3884 12.8934 24.3883C12.8931 24.3883 12.8929 24.3883 12.8928 24.3882C12.8927 24.3882 12.8926 24.3882 12.76 25.1264C12.6274 25.8646 12.6275 25.8646 12.6277 25.8647C12.6278 25.8647 12.628 25.8647 12.6284 25.8648C12.629 25.8649 12.6299 25.8651 12.631 25.8653C12.6334 25.8657 12.6369 25.8663 12.6415 25.8671C12.6508 25.8688 12.6647 25.8713 12.6829 25.8745C12.7194 25.8811 12.7737 25.8907 12.8451 25.9034C12.9878 25.9287 13.1986 25.966 13.4716 26.0138C14.0176 26.1095 14.8123 26.2475 15.8083 26.417C17.8002 26.756 20.5972 27.2208 23.8188 27.7246C30.2582 28.7315 38.4076 29.8961 45.2137 30.5197L45.3507 29.0259ZM11.6083 25.4423C11.8912 25.5193 12.0862 25.5732 12.2144 25.622C12.2813 25.6475 12.2801 25.6535 12.2505 25.6325C12.2336 25.6206 12.1843 25.5839 12.134 25.5152C12.0798 25.4412 12.0184 25.3208 12.0109 25.1622L13.5091 25.0906C13.4904 24.6969 13.2182 24.4796 13.1161 24.4074C12.9907 24.3188 12.852 24.2596 12.7481 24.2201C12.535 24.139 12.2563 24.064 12.0025 23.9949L11.6083 25.4423ZM34.9186 21.6166C31.738 21.162 29.4069 19.7683 27.1558 18.4149L26.3829 19.7005C28.6251 21.0485 31.1914 22.5991 34.7062 23.1015L34.9186 21.6166ZM27.1558 18.4149C25.2905 17.2935 23.4134 16.1533 21.2184 15.8281C18.9752 15.4957 16.5025 16.0201 13.413 17.9567L14.2095 19.2276C17.0848 17.4254 19.1996 17.0454 20.9984 17.3119C22.8455 17.5856 24.4651 18.5476 26.3829 19.7005L27.1558 18.4149ZM13.413 17.9567C11.5363 19.133 10.2969 20.1075 9.54384 20.9337C8.81073 21.7381 8.40417 22.5536 8.57506 23.3604C8.74392 24.1576 9.4087 24.6104 9.93979 24.87C10.4964 25.1421 11.1451 25.3162 11.6083 25.4423L12.0025 23.9949C11.5106 23.861 11.0047 23.7208 10.5986 23.5224C10.1671 23.3114 10.0611 23.1373 10.0425 23.0494C10.0259 22.9712 10.0151 22.6433 10.6524 21.9441C11.2698 21.2667 12.3753 20.3774 14.2095 19.2276L13.413 17.9567ZM51.5453 30.0206C49.629 29.6093 47.5218 29.2248 45.3507 29.0259L45.2137 30.5197C47.3014 30.7109 49.344 31.0824 51.2304 31.4872L51.5453 30.0206ZM51.2304 31.4872C52.3044 31.7177 53.3235 31.958 54.2724 32.1818L54.6169 30.7219C53.6696 30.4984 52.6363 30.2547 51.5453 30.0206L51.2304 31.4872ZM48.3803 24.7942C52.0799 25.5965 54.057 26.9589 55.1012 28.0526C55.626 28.6022 55.9256 29.0948 56.0916 29.4354C56.1747 29.6061 56.2247 29.7394 56.2525 29.8235C56.2665 29.8656 56.2749 29.8953 56.2791 29.9113C56.2812 29.9192 56.2823 29.9237 56.2825 29.9246C56.2826 29.925 56.2825 29.9246 56.2821 29.9232C56.282 29.9224 56.2818 29.9215 56.2815 29.9203C56.2814 29.9197 56.2813 29.9191 56.2811 29.9184C56.281 29.918 56.2809 29.9174 56.2809 29.9173C56.2808 29.9167 56.2806 29.9161 57.0153 29.7649C57.7499 29.6137 57.7497 29.6131 57.7496 29.6125C57.7496 29.6122 57.7494 29.6116 57.7493 29.6111C57.7491 29.6101 57.7489 29.6091 57.7487 29.608C57.7482 29.6059 57.7477 29.6034 57.7471 29.6008C57.7459 29.5955 57.7445 29.5892 57.7428 29.5819C57.7394 29.5673 57.7349 29.5489 57.729 29.5269C57.7173 29.4827 57.7004 29.4239 57.6766 29.3521C57.6291 29.2085 57.5543 29.0128 57.44 28.7782C57.2111 28.3084 56.825 27.6858 56.1862 27.0167C54.9034 25.6731 52.6426 24.1836 48.6983 23.3283L48.3803 24.7942ZM34.7062 23.1015C36.0215 23.2895 37.612 23.3108 39.6307 23.4686L39.7478 21.9732C37.5775 21.8035 36.1819 21.7972 34.9186 21.6166L34.7062 23.1015ZM39.6307 23.4686C41.7633 23.6354 44.5335 23.96 48.3803 24.7942L48.6983 23.3283C44.7786 22.4783 41.9407 22.1447 39.7478 21.9732L39.6307 23.4686ZM39.1016 23.187L44.6946 30.2389L45.8699 29.3067L40.2768 22.2548L39.1016 23.187ZM54.2724 32.1818C55.6456 32.5057 56.6611 32.8397 57.3683 33.0715C57.7103 33.1836 58.018 33.2848 58.2496 33.3403C58.3621 33.3672 58.5078 33.3966 58.6554 33.3972C58.7697 33.3976 59.1181 33.384 59.3637 33.077L58.1925 32.14C58.2946 32.0124 58.418 31.9509 58.5042 31.9234C58.584 31.8979 58.6439 31.8971 58.6612 31.8972C58.6912 31.8973 58.6815 31.9013 58.5994 31.8816C58.4419 31.8438 58.2041 31.7669 57.8356 31.6461C57.1217 31.4121 56.0557 31.0612 54.6169 30.7219L54.2724 32.1818ZM59.3637 33.077C59.5695 32.8197 59.557 32.536 59.5343 32.3952C59.5111 32.2505 59.4579 32.1239 59.4164 32.0363C59.3308 31.8557 59.1969 31.6431 59.0475 31.4177C58.8928 31.1844 58.6937 30.8967 58.461 30.5587C58.2264 30.2177 57.952 29.8176 57.6392 29.3486L56.3914 30.1812C56.7103 30.6592 56.9895 31.0664 57.2254 31.4092C57.4633 31.7549 57.6519 32.0273 57.7972 32.2466C57.9478 32.4738 58.0264 32.6061 58.0609 32.679C58.0795 32.7181 58.0633 32.6953 58.0534 32.6336C58.0441 32.5757 58.0212 32.354 58.1925 32.14L59.3637 33.077Z" fill="black"/>
<path fill-rule="evenodd" clip-rule="evenodd" d="M39.5905 44.7438L37.6648 53.4116L42.6483 70.8359L50.2756 69.6054C50.8834 69.5073 51.2585 68.8888 51.0752 68.3012C49.311 62.6442 48.589 57.6756 49.0472 53.0401L45.195 39.0772L39.5905 44.7438Z" fill="black"/>
<path d="M41.5162 36.0759L39.5905 44.7438L45.195 39.0772L49.0472 53.0401C49.7036 46.3987 53.5287 41.0876 59.4356 34.7689C60.1255 34.0309 59.4586 32.766 58.4848 32.9901L41.5162 36.0759Z" fill="url(#paint0_linear_204_5968)"/>
<path d="M42.6483 70.8359L41.9272 71.0422L42.1103 71.6823L42.7677 71.5763L42.6483 70.8359ZM41.5162 36.0759L41.3821 35.338L40.8921 35.4271L40.784 35.9133L41.5162 36.0759ZM37.6648 53.4116L36.9326 53.249L36.8914 53.4349L36.9437 53.6179L37.6648 53.4116ZM39.5905 44.7438L38.8583 44.5812L39.5905 44.7438ZM49.0472 53.0401L49.7936 53.1138L49.0472 53.0401ZM59.4356 34.7689L59.9834 35.281L59.4356 34.7689ZM45.195 39.0772L45.918 38.8777L45.5733 37.6282L44.6618 38.5498L45.195 39.0772ZM50.2756 69.6054L50.1562 68.865L50.2756 69.6054ZM51.0752 68.3012L50.3592 68.5245L51.0752 68.3012ZM42.7677 71.5763L50.395 70.3458L50.1562 68.865L42.5289 70.0954L42.7677 71.5763ZM36.9437 53.6179L41.9272 71.0422L43.3694 70.6296L38.3859 53.2054L36.9437 53.6179ZM40.784 35.9133L38.8583 44.5812L40.3226 44.9064L42.2483 36.2385L40.784 35.9133ZM38.8583 44.5812L36.9326 53.249L38.3969 53.5743L40.3226 44.9064L38.8583 44.5812ZM51.7912 68.0778C50.046 62.4819 49.3483 57.6183 49.7936 53.1138L48.3008 52.9664C47.8297 57.7329 48.576 62.8066 50.3592 68.5245L51.7912 68.0778ZM41.6503 36.8138L58.6189 33.728L58.3506 32.2522L41.3821 35.338L41.6503 36.8138ZM58.6529 33.721C58.7179 33.706 58.7597 33.7166 58.7938 33.7344C58.8353 33.7561 58.8845 33.8005 58.9218 33.8707C58.9996 34.0172 58.9783 34.1598 58.8877 34.2567L59.9834 35.281C60.5828 34.6399 60.5729 33.7811 60.2463 33.1667C59.9176 32.5482 59.1976 32.0565 58.3166 32.2592L58.6529 33.721ZM58.8877 34.2567C52.9673 40.5899 48.9835 46.0594 48.3008 52.9664L49.7936 53.1138C50.4237 46.7381 54.0901 41.5853 59.9834 35.281L58.8877 34.2567ZM59.9834 35.281C59.9921 35.2718 60.0007 35.2626 60.0093 35.2533L58.9142 34.2283C58.9054 34.2378 58.8965 34.2473 58.8877 34.2567L59.9834 35.281ZM40.1237 45.2712L45.7282 39.6046L44.6618 38.5498L39.0573 44.2164L40.1237 45.2712ZM44.472 39.2767L48.3242 53.2396L49.7702 52.8406L45.918 38.8777L44.472 39.2767ZM60.0093 35.2533C60.611 34.6105 60.5968 33.7524 60.2569 33.14C59.9154 32.5247 59.1878 32.0587 58.3166 32.2592L58.6529 33.721C58.7259 33.7042 58.7753 33.7157 58.814 33.7351C58.8594 33.7578 58.9087 33.802 58.9454 33.8681C59.0205 34.0033 59.0028 34.1338 58.9142 34.2283L60.0093 35.2533ZM50.395 70.3458C51.4624 70.1736 52.1077 69.0927 51.7912 68.0778L50.3592 68.5245C50.4092 68.6849 50.3044 68.8411 50.1562 68.865L50.395 70.3458Z" fill="black"/>
<path d="M48.0775 10.3207L36.5162 20.936L42.0104 19.2682L48.0775 10.3207Z" fill="black"/>
<path d="M50.4381 14.5409C54.9512 10.3384 54.9286 1.31159 54.9286 1.31159C54.9286 1.31159 48.1644 4.30063 43.3712 8.21411C38.5779 12.1276 36.5162 20.936 36.5162 20.936L48.0775 10.3207L42.0104 19.2682C42.0104 19.2682 45.925 18.7433 50.4381 14.5409Z" fill="url(#paint1_linear_204_5968)"/>
<path d="M36.5162 20.936L35.7859 20.7652C35.7248 21.0263 35.8077 21.3 36.0032 21.4833C36.1988 21.6666 36.4774 21.7316 36.7339 21.6537L36.5162 20.936ZM54.9286 1.31159L55.6786 1.30957C55.678 1.05633 55.5496 0.82053 55.3372 0.682593C55.1249 0.544657 54.8572 0.523214 54.6256 0.625577L54.9286 1.31159ZM48.0775 10.3207L48.6982 10.7415C48.9118 10.4265 48.8556 10.0014 48.5675 9.75279C48.2794 9.50416 47.8507 9.5108 47.5703 9.76824L48.0775 10.3207ZM50.9491 15.0897C53.3828 12.8236 54.5442 9.32164 55.1111 6.4978C55.3978 5.06939 55.5394 3.77804 55.6095 2.84365C55.6446 2.3759 55.6619 1.99613 55.6704 1.73162C55.6746 1.59933 55.6767 1.49576 55.6777 1.42431C55.6782 1.38858 55.6784 1.36088 55.6785 1.34161C55.6786 1.33198 55.6786 1.32446 55.6786 1.3191C55.6786 1.31643 55.6786 1.31429 55.6786 1.3127C55.6786 1.3119 55.6786 1.31124 55.6786 1.31072C55.6786 1.31046 55.6786 1.31017 55.6786 1.31004C55.6786 1.30979 55.6786 1.30957 54.9286 1.31159C54.1786 1.31361 54.1786 1.31346 54.1786 1.31334C54.1786 1.31335 54.1786 1.31327 54.1786 1.31328C54.1786 1.31331 54.1786 1.31347 54.1786 1.31377C54.1786 1.31437 54.1786 1.31552 54.1786 1.31719C54.1786 1.32054 54.1786 1.32603 54.1786 1.33361C54.1785 1.34877 54.1783 1.37226 54.1778 1.40367C54.177 1.4665 54.1751 1.56097 54.1712 1.68371C54.1633 1.92927 54.147 2.28756 54.1137 2.73173C54.047 3.6212 53.9122 4.8492 53.6404 6.20281C53.0903 8.94299 52.0065 12.0557 49.9271 13.992L50.9491 15.0897ZM54.9286 1.31159C54.6256 0.625577 54.6255 0.625622 54.6254 0.625677C54.6253 0.625711 54.6251 0.625778 54.625 0.625846C54.6247 0.625981 54.6243 0.626162 54.6238 0.626388C54.6227 0.626841 54.6213 0.627475 54.6195 0.628291C54.6158 0.629922 54.6105 0.632277 54.6036 0.635348C54.5898 0.64149 54.5697 0.650496 54.5435 0.662305C54.4911 0.68592 54.4143 0.720747 54.3153 0.76628C54.1173 0.857339 53.8304 0.991261 53.4716 1.16401C52.7542 1.50941 51.7483 2.01061 50.5912 2.63533C48.2833 3.88131 45.3468 5.633 42.8969 7.63317L43.8454 8.79505C46.1889 6.88174 49.031 5.18217 51.3036 3.95525C52.4366 3.34353 53.4214 2.85288 54.122 2.51554C54.4723 2.34692 54.7512 2.21675 54.9419 2.12906C55.0372 2.08521 55.1104 2.052 55.1594 2.02992C55.1839 2.01888 55.2024 2.01063 55.2145 2.00522C55.2206 2.00252 55.225 2.00052 55.2279 1.99925C55.2293 1.99862 55.2304 1.99816 55.231 1.99788C55.2313 1.99775 55.2315 1.99765 55.2316 1.99761C55.2317 1.99758 55.2317 1.99758 55.2317 1.99757C55.2317 1.99758 55.2316 1.9976 54.9286 1.31159ZM42.8969 7.63317C40.3522 9.71086 38.5804 13.0344 37.4533 15.7558C36.8844 17.1294 36.4689 18.377 36.1953 19.2816C36.0584 19.7343 35.9568 20.1022 35.8891 20.3582C35.8552 20.4863 35.8298 20.5864 35.8126 20.6554C35.8041 20.6899 35.7976 20.7165 35.7931 20.735C35.7909 20.7442 35.7892 20.7514 35.788 20.7564C35.7874 20.7589 35.7869 20.7609 35.7866 20.7624C35.7864 20.7632 35.7863 20.7638 35.7861 20.7642C35.7861 20.7645 35.786 20.7647 35.786 20.7648C35.786 20.765 35.7859 20.7652 36.5162 20.936C37.2464 21.1068 37.2464 21.107 37.2464 21.107C37.2464 21.107 37.2464 21.1071 37.2464 21.107C37.2464 21.107 37.2464 21.1068 37.2465 21.1064C37.2467 21.1058 37.2469 21.1046 37.2474 21.1029C37.2482 21.0994 37.2495 21.0939 37.2513 21.0863C37.255 21.0712 37.2606 21.0479 37.2683 21.0169C37.2837 20.9549 37.3073 20.862 37.3392 20.7416C37.4029 20.5007 37.4998 20.1498 37.6311 19.7155C37.8939 18.8463 38.2934 17.6471 38.8391 16.3295C39.9413 13.6683 41.5969 10.6309 43.8454 8.79505L42.8969 7.63317ZM37.0233 21.4885L48.5847 10.8731L47.5703 9.76824L36.009 20.3836L37.0233 21.4885ZM36.7339 21.6537L42.2281 19.9859L41.7926 18.5505L36.2984 20.2184L36.7339 21.6537ZM42.0104 19.2682C42.1099 20.0115 42.1102 20.0115 42.1106 20.0114C42.1107 20.0114 42.1111 20.0114 42.1114 20.0113C42.1119 20.0113 42.1126 20.0112 42.1132 20.0111C42.1146 20.0109 42.1162 20.0107 42.118 20.0104C42.1217 20.0099 42.1263 20.0092 42.1319 20.0084C42.143 20.0068 42.1578 20.0045 42.1764 20.0014C42.2134 19.9954 42.2651 19.9864 42.3306 19.9736C42.4616 19.9481 42.6479 19.9076 42.8829 19.8459C43.3529 19.7225 44.018 19.5141 44.8254 19.1706C46.4413 18.4829 48.6235 17.2553 50.9491 15.0897L49.9271 13.992C47.7396 16.0289 45.708 17.1649 44.2383 17.7903C43.5029 18.1033 42.9073 18.2887 42.5022 18.3951C42.2997 18.4483 42.1449 18.4816 42.0442 18.5012C41.9938 18.511 41.957 18.5174 41.9345 18.5211C41.9232 18.5229 41.9156 18.5241 41.9116 18.5247C41.9096 18.525 41.9086 18.5251 41.9084 18.5252C41.9084 18.5252 41.9085 18.5251 41.9089 18.5251C41.9091 18.5251 41.9094 18.525 41.9097 18.525C41.9099 18.525 41.9101 18.5249 41.9102 18.5249C41.9105 18.5249 41.9108 18.5248 42.0104 19.2682ZM47.4568 9.89981L41.3897 18.8473L42.6311 19.689L48.6982 10.7415L47.4568 9.89981Z" fill="black"/>
<path d="M27.9138 80.9166C23.2496 75.2407 18.5453 73.6258 10.128 74.1916C7.72905 74.3529 5.45683 72.9307 4.79916 70.618C-3.68114 40.7968 2.7513 21.2807 16.9999 17.2553C16.9999 17.2553 21.5016 16.0195 25.5006 18.9855C29.4995 21.9514 30.3123 24.7319 33.0634 25.7206C35.8146 26.7093 40.7507 25.2881 50.2504 26.4003C57.3996 27.2373 59.8764 31.5739 60.6643 33.6687C60.8826 34.2488 60.4297 34.8022 59.8105 34.8287C51.0706 35.2037 47.6447 39.7612 45.2505 45.6788C42.8062 51.7205 43.0141 59.1436 51.8805 68.5167C52.2283 68.8843 52.2594 69.4574 51.9432 69.8525C45.8337 77.4889 42.293 82.1273 32.1188 82.891C30.4843 83.0137 28.9545 82.183 27.9138 80.9166Z" fill="url(#paint2_linear_204_5968)" stroke="black" stroke-width="1.5"/>
<path d="M49.1803 12.9305C53.3519 9.67313 54.9286 1.31159 54.9286 1.31159C54.9286 1.31159 46.6565 2.98042 41.8096 6.77905C36.9626 10.5777 36.4319 19.9396 36.4319 19.9396L46.5473 8.79764L40.5433 18.0058C43.3311 16.6245 46.9088 14.7043 49.1803 12.9305Z" fill="url(#paint3_linear_204_5968)"/>
<path d="M46.5473 8.79764L36.4319 19.9396C36.4319 19.9396 38.2113 19.1613 40.5433 18.0058L46.5473 8.79764Z" fill="#5869DD"/>
<path d="M36.4319 19.9396L35.6831 19.8973C35.6684 20.1575 35.7898 20.4067 36.0037 20.5554C36.2177 20.7042 36.4936 20.7312 36.7324 20.6267L36.4319 19.9396ZM49.1803 12.9305L48.7188 12.3394L49.1803 12.9305ZM54.9286 1.31159L55.6656 1.45044C55.7118 1.20525 55.6331 0.95314 55.4556 0.777851C55.2781 0.602563 55.025 0.527048 54.7804 0.57639L54.9286 1.31159ZM46.5473 8.79764L47.1756 9.20721C47.3892 8.8796 47.3152 8.44288 47.0057 8.20393C46.6962 7.96497 46.255 8.00398 45.9921 8.29354L46.5473 8.79764ZM40.5433 18.0058L40.8762 18.6778L40.5433 18.0058ZM49.6418 13.5217C51.9031 11.7559 53.399 8.67783 54.3229 6.15759C54.7916 4.8792 55.1262 3.70693 55.3438 2.85428C55.4527 2.42748 55.5325 2.07955 55.5855 1.83696C55.6119 1.71563 55.6317 1.62057 55.6449 1.55507C55.6516 1.52231 55.6566 1.49695 55.66 1.47937C55.6617 1.47059 55.6631 1.46375 55.664 1.45891C55.6645 1.45649 55.6648 1.45457 55.6651 1.45316C55.6652 1.45245 55.6653 1.45187 55.6654 1.45142C55.6655 1.45119 55.6655 1.45095 55.6655 1.45083C55.6656 1.45062 55.6656 1.45044 54.9286 1.31159C54.1916 1.17274 54.1916 1.17262 54.1916 1.17254C54.1916 1.17255 54.1917 1.1725 54.1916 1.17253C54.1916 1.17258 54.1916 1.17276 54.1915 1.17307C54.1914 1.17369 54.1912 1.1748 54.1909 1.17642C54.1903 1.17964 54.1893 1.18484 54.1879 1.19198C54.1851 1.20625 54.1808 1.22823 54.1748 1.25751C54.163 1.31608 54.1447 1.40384 54.12 1.51752C54.0703 1.74492 53.9945 2.07568 53.8904 2.48367C53.6819 3.30061 53.3616 4.42231 52.9146 5.64149C52.0073 8.11637 50.629 10.8478 48.7188 12.3394L49.6418 13.5217ZM54.9286 1.31159C54.7804 0.57639 54.7803 0.57642 54.7801 0.576457C54.78 0.576477 54.7798 0.576521 54.7796 0.576562C54.7792 0.576645 54.7786 0.576753 54.778 0.576887C54.7766 0.577156 54.7748 0.577527 54.7725 0.578C54.7679 0.578948 54.7613 0.580307 54.7527 0.582079C54.7356 0.585624 54.7107 0.590821 54.6785 0.597687C54.614 0.611417 54.5199 0.631822 54.3991 0.659017C54.1575 0.713399 53.8089 0.794979 53.3762 0.904686C52.5112 1.12397 51.3075 1.45631 49.9495 1.90937C47.2501 2.80991 43.8727 4.20933 41.347 6.18875L42.2721 7.36934C44.5934 5.55013 47.7755 4.21583 50.4239 3.3323C51.7398 2.89332 52.907 2.57103 53.7445 2.35871C54.163 2.25261 54.4985 2.17414 54.7283 2.12242C54.8431 2.09656 54.9315 2.0774 54.9906 2.06483C55.0201 2.05855 55.0423 2.05391 55.0567 2.05091C55.064 2.04941 55.0693 2.04831 55.0727 2.04763C55.0743 2.04728 55.0755 2.04704 55.0762 2.0469C55.0766 2.04683 55.0768 2.04679 55.0769 2.04677C55.0769 2.04676 55.0769 2.04677 55.0769 2.04676C55.0769 2.04677 55.0768 2.04679 54.9286 1.31159ZM41.347 6.18875C38.722 8.246 37.3259 11.7413 36.5777 14.5936C36.1987 16.0384 35.9757 17.3589 35.8472 18.318C35.7829 18.7982 35.7421 19.1893 35.7173 19.462C35.7049 19.5984 35.6965 19.7053 35.6911 19.7791C35.6884 19.816 35.6865 19.8445 35.6852 19.8644C35.6845 19.8743 35.6841 19.8821 35.6837 19.8876C35.6836 19.8903 35.6834 19.8925 35.6833 19.8941C35.6833 19.8949 35.6832 19.8956 35.6832 19.8961C35.6832 19.8964 35.6832 19.8967 35.6832 19.8968C35.6832 19.8971 35.6831 19.8973 36.4319 19.9396C37.1807 19.9819 37.1807 19.982 37.1807 19.9821C37.1807 19.9821 37.1807 19.9822 37.1807 19.9822C37.1807 19.9821 37.1807 19.982 37.1807 19.9816C37.1808 19.981 37.1808 19.9798 37.1809 19.978C37.1812 19.9745 37.1815 19.9687 37.182 19.9608C37.183 19.945 37.1847 19.9206 37.1871 19.888C37.1918 19.8227 37.1995 19.7248 37.2111 19.5978C37.2342 19.3437 37.2728 18.9737 37.3339 18.5169C37.4565 17.6019 37.6691 16.3445 38.0286 14.974C38.7574 12.1957 40.0502 9.11073 42.2721 7.36934L41.347 6.18875ZM36.9872 20.4437L47.1026 9.30173L45.9921 8.29354L35.8767 19.4355L36.9872 20.4437ZM36.4319 19.9396C36.7324 20.6267 36.7324 20.6267 36.7324 20.6267C36.7325 20.6267 36.7325 20.6267 36.7325 20.6267C36.7326 20.6266 36.7327 20.6266 36.7329 20.6265C36.7331 20.6264 36.7335 20.6262 36.734 20.626C36.735 20.6256 36.7364 20.625 36.7382 20.6242C36.7419 20.6225 36.7473 20.6202 36.7543 20.6171C36.7684 20.6109 36.7891 20.6018 36.8162 20.5898C36.8704 20.5658 36.9501 20.5304 37.0528 20.4844C37.2582 20.3924 37.5559 20.258 37.9267 20.0873C38.668 19.7459 39.7024 19.2594 40.8762 18.6778L40.2104 17.3338C39.0522 17.9077 38.0309 18.388 37.2996 18.7247C36.934 18.893 36.6411 19.0254 36.44 19.1154C36.3394 19.1604 36.2619 19.1949 36.2096 19.218C36.1835 19.2296 36.1638 19.2383 36.1506 19.244C36.1441 19.2469 36.1392 19.2491 36.136 19.2505C36.1344 19.2512 36.1332 19.2517 36.1324 19.252C36.1321 19.2522 36.1318 19.2523 36.1316 19.2524C36.1316 19.2524 36.1315 19.2524 36.1315 19.2524C36.1315 19.2524 36.1315 19.2524 36.1315 19.2525C36.1315 19.2524 36.1315 19.2524 36.4319 19.9396ZM40.8762 18.6778C43.6647 17.2962 47.3041 15.347 49.6418 13.5217L48.7188 12.3394C46.5134 14.0615 42.9976 15.9528 40.2104 17.3338L40.8762 18.6778ZM45.9191 8.38806L39.9151 17.5962L41.1715 18.4154L47.1756 9.20721L45.9191 8.38806Z" fill="black"/>
<defs>
<linearGradient id="paint0_linear_204_5968" x1="92.5188" y1="36.7271" x2="72.1903" y2="17.469" gradientUnits="userSpaceOnUse">
<stop stop-color="#D6FFBB"/>
<stop offset="1" stop-color="#5869DD"/>
</linearGradient>
<linearGradient id="paint1_linear_204_5968" x1="29.3583" y1="4.47251" x2="53.4565" y2="10.7032" gradientUnits="userSpaceOnUse">
<stop stop-color="#D6FFBB"/>
<stop offset="0.863954" stop-color="#5869DD"/>
</linearGradient>
<linearGradient id="paint2_linear_204_5968" x1="1" y1="50" x2="61" y2="50" gradientUnits="userSpaceOnUse">
<stop stop-color="#D6FFBB"/>
<stop offset="1" stop-color="#5869DD"/>
</linearGradient>
<linearGradient id="paint3_linear_204_5968" x1="29.3536" y1="4.41765" x2="53.1766" y2="11.0433" gradientUnits="userSpaceOnUse">
<stop stop-color="#D6FFBB"/>
<stop offset="0.863954" stop-color="#5869DD"/>
</linearGradient>
</defs>
</svg>
