<svg width="200" height="41" viewBox="0 0 200 41" fill="none" xmlns="http://www.w3.org/2000/svg">
<path d="M19 23.6523L15.4566 27L1 13.3477L4.54345 10L19 23.6523Z" fill="white"/>
<path d="M15.5 0L12 3.49929L15.5 7L19 3.49929L15.5 0Z" fill="white"/>
<path d="M18.5432 17L15 13.6537L29.4554 0L33 3.34771L18.5432 17Z" fill="white"/>
<path d="M39.5 17L36 13.4986L39.5 10L43 13.4986L39.5 17Z" fill="white"/>
<path d="M25 17.3466L28.5446 14L43 27.652L39.4554 31L25 17.3466Z" fill="white"/>
<path d="M25 37.5565L28.3889 41H28.6125L32 37.5565L28.5014 34L25 37.5565Z" fill="white"/>
<path d="M11 37.6523L14.5434 41L29 27.3463L25.4566 24L11 37.6523Z" fill="white"/>
<path d="M0 27.5L3.5 31L7 27.5L3.5 24L0 27.5Z" fill="white"/>
<path d="M67.322 29.364C64.5833 29.364 62.3213 28.454 60.536 26.634C58.7507 24.814 57.858 22.5693 57.858 19.9C57.858 17.2133 58.7507 14.9687 60.536 13.166C62.3213 11.346 64.5833 10.436 67.322 10.436C68.9687 10.436 70.4853 10.826 71.872 11.606C73.276 12.3687 74.368 13.4087 75.148 14.726L72.054 16.52C71.6033 15.7053 70.962 15.0727 70.13 14.622C69.298 14.154 68.362 13.92 67.322 13.92C65.554 13.92 64.124 14.4747 63.032 15.584C61.9573 16.6933 61.42 18.132 61.42 19.9C61.42 21.6507 61.9573 23.0807 63.032 24.19C64.124 25.2993 65.554 25.854 67.322 25.854C68.362 25.854 69.298 25.6287 70.13 25.178C70.9793 24.71 71.6207 24.0773 72.054 23.28L75.148 25.074C74.368 26.3913 73.2847 27.44 71.898 28.22C70.5113 28.9827 68.986 29.364 67.322 29.364ZM95.0364 19.224V20.628C95.0364 23.228 94.2044 25.334 92.5404 26.946C90.8764 28.558 88.727 29.364 86.0924 29.364C83.2844 29.364 80.953 28.454 79.0984 26.634C77.261 24.7967 76.3424 22.5607 76.3424 19.926C76.3424 17.274 77.2524 15.0293 79.0724 13.192C80.9097 11.3547 83.1804 10.436 85.8844 10.436C87.583 10.436 89.1344 10.826 90.5384 11.606C91.9424 12.3687 93.0344 13.3913 93.8144 14.674L90.7464 16.442C90.313 15.6967 89.6544 15.09 88.7704 14.622C87.9037 14.154 86.933 13.92 85.8584 13.92C84.125 13.92 82.695 14.492 81.5684 15.636C80.459 16.7627 79.9044 18.1927 79.9044 19.926C79.9044 21.642 80.4677 23.0633 81.5944 24.19C82.7384 25.2993 84.2464 25.854 86.1184 25.854C87.505 25.854 88.649 25.5507 89.5504 24.944C90.469 24.32 91.093 23.4707 91.4224 22.396H85.9104V19.224H95.0364ZM103.142 29.364C101.34 29.364 99.8229 28.9653 98.5923 28.168C97.3616 27.3533 96.4949 26.2527 95.9923 24.866L99.0603 23.072C99.7709 24.9267 101.166 25.854 103.246 25.854C104.252 25.854 104.988 25.672 105.456 25.308C105.924 24.944 106.158 24.4847 106.158 23.93C106.158 23.2887 105.872 22.7947 105.3 22.448C104.728 22.084 103.706 21.694 102.232 21.278C101.418 21.0353 100.724 20.7927 100.152 20.55C99.5976 20.3073 99.0343 19.9867 98.4623 19.588C97.9076 19.172 97.4829 18.652 97.1883 18.028C96.8936 17.404 96.7463 16.676 96.7463 15.844C96.7463 14.1973 97.3269 12.8887 98.4883 11.918C99.6669 10.93 101.08 10.436 102.726 10.436C104.2 10.436 105.491 10.8 106.6 11.528C107.727 12.2387 108.602 13.2353 109.226 14.518L106.21 16.26C105.482 14.7 104.321 13.92 102.726 13.92C101.981 13.92 101.392 14.0933 100.958 14.44C100.542 14.7693 100.334 15.2027 100.334 15.74C100.334 16.312 100.568 16.78 101.036 17.144C101.522 17.4907 102.44 17.872 103.792 18.288C104.347 18.4613 104.763 18.6 105.04 18.704C105.335 18.7907 105.725 18.938 106.21 19.146C106.713 19.3367 107.094 19.5187 107.354 19.692C107.632 19.8653 107.944 20.0993 108.29 20.394C108.637 20.6887 108.897 20.992 109.07 21.304C109.261 21.616 109.417 21.9973 109.538 22.448C109.677 22.8813 109.746 23.358 109.746 23.878C109.746 25.5593 109.131 26.894 107.9 27.882C106.687 28.87 105.101 29.364 103.142 29.364ZM118.586 22.76V19.536H128.336V22.76H118.586ZM145.493 19.224H142.555V24.632C142.555 25.0827 142.668 25.412 142.893 25.62C143.119 25.828 143.448 25.9493 143.881 25.984C144.315 26.0013 144.852 25.9927 145.493 25.958V29C143.188 29.26 141.559 29.0433 140.605 28.35C139.669 27.6567 139.201 26.4173 139.201 24.632V19.224H136.939V16H139.201V13.374L142.555 12.36V16H145.493V19.224ZM150.286 23.878C150.737 25.5073 151.959 26.322 153.952 26.322C155.235 26.322 156.205 25.8887 156.864 25.022L159.568 26.582C158.285 28.4367 156.396 29.364 153.9 29.364C151.751 29.364 150.026 28.714 148.726 27.414C147.426 26.114 146.776 24.476 146.776 22.5C146.776 20.5413 147.417 18.912 148.7 17.612C149.983 16.2947 151.629 15.636 153.64 15.636C155.547 15.636 157.115 16.2947 158.346 17.612C159.594 18.9293 160.218 20.5587 160.218 22.5C160.218 22.9333 160.175 23.3927 160.088 23.878H150.286ZM150.234 21.278H156.864C156.673 20.394 156.275 19.7353 155.668 19.302C155.079 18.8687 154.403 18.652 153.64 18.652C152.739 18.652 151.993 18.886 151.404 19.354C150.815 19.8047 150.425 20.446 150.234 21.278ZM172.338 16H175.692V29H172.338V27.466C171.332 28.7313 169.92 29.364 168.1 29.364C166.366 29.364 164.876 28.7053 163.628 27.388C162.397 26.0533 161.782 24.424 161.782 22.5C161.782 20.576 162.397 18.9553 163.628 17.638C164.876 16.3033 166.366 15.636 168.1 15.636C169.92 15.636 171.332 16.2687 172.338 17.534V16ZM166.15 25.152C166.826 25.828 167.684 26.166 168.724 26.166C169.764 26.166 170.622 25.828 171.298 25.152C171.991 24.4587 172.338 23.5747 172.338 22.5C172.338 21.4253 171.991 20.55 171.298 19.874C170.622 19.1807 169.764 18.834 168.724 18.834C167.684 18.834 166.826 19.1807 166.15 19.874C165.474 20.55 165.136 21.4253 165.136 22.5C165.136 23.5747 165.474 24.4587 166.15 25.152ZM193.111 15.636C194.602 15.636 195.789 16.1213 196.673 17.092C197.575 18.0627 198.025 19.3627 198.025 20.992V29H194.671V21.226C194.671 20.446 194.481 19.8393 194.099 19.406C193.718 18.9727 193.181 18.756 192.487 18.756C191.725 18.756 191.127 19.0073 190.693 19.51C190.277 20.0127 190.069 20.7407 190.069 21.694V29H186.715V21.226C186.715 20.446 186.525 19.8393 186.143 19.406C185.762 18.9727 185.225 18.756 184.531 18.756C183.786 18.756 183.188 19.0073 182.737 19.51C182.304 20.0127 182.087 20.7407 182.087 21.694V29H178.733V16H182.087V17.378C182.867 16.2167 184.072 15.636 185.701 15.636C187.296 15.636 188.475 16.26 189.237 17.508C190.104 16.26 191.395 15.636 193.111 15.636Z" fill="white"/>
</svg>
