<svg width="32" height="32" viewBox="0 0 32 32" fill="none" xmlns="http://www.w3.org/2000/svg">
<path d="M32 28.8013C32 30.5689 30.5557 32 28.7745 32H3.2255C1.44431 32 0 30.5671 0 28.8013V3.19871C0 1.43289 1.44431 0 3.2255 0H28.7745C30.5576 0 32 1.43289 32 3.19871V28.8013Z" fill="black"/>
<path d="M11 8.1691C11 9.36708 10.0367 10.3382 8.45306 10.3382C6.96327 10.3382 6 9.36708 6 8.1691C6 6.94301 6.99388 6 8.51633 6C10.0367 6 10.9694 6.94113 11 8.1691ZM6.12449 26V12.048H10.8449V26H6.12449Z" fill="#F1EFED"/>
<path d="M13.1113 15.6753C13.1113 13.9678 13.0566 12.54 13 11.3073H16.6666L16.8619 13.2116H16.9458C17.5006 12.3155 18.8621 11 21.1398 11C23.9176 11 26 12.8767 26 16.908V25H21.7786V17.4121C21.7786 15.6477 21.1672 14.4443 19.6396 14.4443C18.4734 14.4443 17.7799 15.2557 17.4733 16.0396C17.3619 16.3192 17.3345 16.7111 17.3345 17.103V25H13.1113V15.6753Z" fill="#F1EFED"/>
</svg>
